<svg xmlns="http://www.w3.org/2000/svg" viewBox="0 0 1500.01 608.74"><defs><style>.cls-1,.cls-17{fill:#f3e0c6;}.cls-1,.cls-10,.cls-11,.cls-13,.cls-14,.cls-16,.cls-18,.cls-19,.cls-2,.cls-20,.cls-23,.cls-24,.cls-27,.cls-29,.cls-31,.cls-32,.cls-35,.cls-39,.cls-4,.cls-40,.cls-41,.cls-42,.cls-43,.cls-49,.cls-5,.cls-6,.cls-9{fill-rule:evenodd;}.cls-2{fill:#f6e8d5;}.cls-3{fill:#f6daa8;}.cls-4{fill:#958e46;}.cls-5{fill:#afa650;}.cls-47,.cls-6{fill:#906152;}.cls-27,.cls-7{fill:#efdbab;}.cls-18,.cls-8{fill:#b5925a;}.cls-9{fill:#d66523;}.cls-10,.cls-28{fill:#f5e7c6;}.cls-11,.cls-12{fill:#df7639;}.cls-13,.cls-15{fill:#bb5823;}.cls-14{fill:#e67d44;}.cls-16{fill:#f8965e;}.cls-19{fill:#7a7439;}.cls-20{fill:#837c3d;}.cls-21{fill:#6b7a3b;}.cls-22,.cls-42{fill:#b8be8d;}.cls-23,.cls-44{fill:#9ba16c;}.cls-24,.cls-48{fill:#dc7244;}.cls-25{fill:#6f7259;}.cls-26{fill:#666948;}.cls-29{fill:#f1dec0;}.cls-30{fill:#eccb9b;}.cls-31,.cls-46{fill:#5f5c2e;}.cls-32,.cls-50{fill:#a24d1f;}.cls-33,.cls-39{fill:#a78066;}.cls-34,.cls-43{fill:#704e45;}.cls-35,.cls-38{fill:#b89a86;}.cls-36{fill:#553c36;}.cls-37,.cls-40{fill:#483328;}.cls-41{fill:#847e3d;}.cls-45{fill:#909565;}.cls-49{fill:#4d392a;}.cls-51{fill:#4f382b;}</style></defs><g id="Layer_2" data-name="Layer 2"><g id="Layer_1-2" data-name="Layer 1"><g id="clouds04"><g id="big-cloud"><path class="cls-1" d="M1198.43,99.72C1180,42.3,1117.44,0,1043.25,0c-61.07,0-96,23.23-123.21,65.42C914,63.23,895.26,61,871.37,68.94c-31.63,10.59-50.48,28.79-50.48,66,0,11.33-.12,14,4.38,23.42C722,119,647.13,166.24,620.06,201.84,607.78,218,607.23,240.75,609,244.1,570.08,211,495.63,226,504.18,284.58c.47,3.13,14.12,13.4,10.66,14.17-13.49,3-150.24,5.4-290.65,21.15-33.38,3.74-73.73,4.5-100.68,34.74-14.3,16-15.11,50.22,3.32,68.74,7.16,7.19,36.45,10.77,47.89,10.67,211-1.84,1172.89-3.92,1206.9-7.29,77.59-7.71,64.3-100,45-121.49-14.62-16.26-30.71-35.74-86.37-37.49-6-.17-11.86,1.24-7.54-1.54,21.94-14.14,2.86-80.6-63.2-63.76-.78.2,0-.7,0-.7C1269.24,153.88,1239.4,113.36,1198.43,99.72Z"/></g><g id="big-cloud1"><path class="cls-2" d="M1164.86,145.59c-12.17-31.91-53.34-55.42-102.19-55.42-40.22,0-63.24,12.91-81.14,36.36-4-1.22-16.32-2.48-32.06,2-20.83,5.88-33.24,16-33.24,36.7,0,6.3-.08,7.81,2.89,13-68-21.92-117.32,4.36-135.15,24.14-8.09,9-8.45,21.63-7.29,23.49-25.62-18.39-74.65-10-69,22.49.31,1.75,9.3,7.45,7,7.88-8.88,1.65-32.86,3.9-125.63,9.68-33.35,2.08-63.61,8.89-79.23,22-10,8.4-18.34,19.31-6.2,29.61,4.71,4,29,8.19,36.59,8.14,139-1,722.89,3.6,745.3,1.73,51.09-4.29,42.33-55.6,29.63-67.52-9.63-9-20.22-19.87-56.88-20.84-3.92-.1-7.81.69-5-.86,14.45-7.86,1.88-44.79-41.62-35.44-.51.12,0-.38,0-.38C1211.49,175.69,1191.85,153.17,1164.86,145.59Z"/></g><ellipse class="cls-3" cx="1007.44" cy="251.38" rx="139.42" ry="139.69"/></g><g id="_04" data-name=" 04"><path class="cls-4" d="M1187,279.93c71.22.57,137.68,52.21,186.73,103.85s108.15,206.54,108.15,206.54H16.51S135.25,439.62,417.79,376.2C722.08,307.89,1027.67,278.67,1187,279.93Z"/><g id="yellow-tree"><path class="cls-5" d="M1070.44,209.5c8,.73,12.3,18.73,19,30.69a57.6,57.6,0,0,1,6.83,30.85c-1.06,22.54-8,31.17-27.37,29.89-22.18-1.48-26.21-18.34-27-34.07s6.3-23.79,8.73-31.83C1054.44,222.31,1064.84,209,1070.44,209.5Z"/><path class="cls-6" d="M1068.64,323.18s-.3-4.35.71-15.53c1.09-11.9,2.18-15.23,1.53-15.19a37.9,37.9,0,0,1-9.08-6.49,25.92,25.92,0,0,1-6.7-12.13c3.13,3.46,5.46,7.68,9.6,10.18a10.81,10.81,0,0,0,6.89,2s-1.92-11.69-4.16-23.37c-2.37-12.42-1.31-23.24-1.07-23.38.43-.27,6,32.85,8.76,31.05,3.12-2.07,10.93-20.57,10.93-20.57a63,63,0,0,1-3,13.75c-1.43,3.88-5.11,9.11-7.44,12.53,0,0,1,17.13.44,33.52a73.91,73.91,0,0,0,.83,13.21,19.93,19.93,0,0,1-3.61.86A35.82,35.82,0,0,1,1068.64,323.18Z"/></g><g id="yellow-tree1"><path class="cls-5" d="M468,292.33c6.62.61,10.15,15.48,15.69,25.37a47.42,47.42,0,0,1,5.64,25.49c-.86,18.63-6.58,25.76-22.61,24.7-18.33-1.22-21.66-15.15-22.33-28.15s5.2-19.66,7.21-26.31C454.73,302.92,463.33,291.91,468,292.33Z"/><path class="cls-6" d="M466.46,386.28a93.43,93.43,0,0,1,.6-12.84c.89-9.83,1.79-12.59,1.26-12.55a31.06,31.06,0,0,1-7.5-5.36,21.47,21.47,0,0,1-5.54-10c2.58,2.85,4.51,6.34,7.93,8.41a9,9,0,0,0,5.7,1.64s-1.59-9.66-3.44-19.31c-2-10.27-1.09-19.2-.89-19.33.36-.22,5,27.16,7.24,25.66,2.58-1.71,9-17,9-17A52.52,52.52,0,0,1,478.42,337c-1.18,3.21-4.23,7.52-6.15,10.36,0,0,.79,14.15.36,27.69a61.07,61.07,0,0,0,.69,10.92,16.72,16.72,0,0,1-3,.71A29.54,29.54,0,0,1,466.46,386.28Z"/></g><g id="yellow-tree2"><path class="cls-5" d="M263.55,322.2c7.36.67,11.3,17.21,17.46,28.21a52.91,52.91,0,0,1,6.27,28.34c-1,20.72-7.33,28.65-25.14,27.47-20.39-1.35-24.09-16.85-24.85-31.3s5.79-21.87,8-29.26C248.84,334,258.4,321.72,263.55,322.2Z"/><path class="cls-6" d="M261.89,426.67s-.28-4,.66-14.27c1-10.93,2-14,1.4-14a34.56,34.56,0,0,1-8.34-6,23.88,23.88,0,0,1-6.16-11.14c2.88,3.18,5,7.05,8.82,9.36a10,10,0,0,0,6.34,1.82s-1.77-10.74-3.83-21.48c-2.18-11.41-1.2-21.35-1-21.49.4-.24,5.55,30.2,8.06,28.54,2.86-1.9,10-18.9,10-18.9a59.07,59.07,0,0,1-2.71,12.64c-1.32,3.57-4.71,8.36-6.84,11.51,0,0,.88,15.75.4,30.8a68.44,68.44,0,0,0,.76,12.15,18,18,0,0,1-3.32.78A32.12,32.12,0,0,1,261.89,426.67Z"/></g><g id="yellow-tree3"><path class="cls-5" d="M111.3,358.25c7.55.7,11.58,17.64,17.89,28.91a54.22,54.22,0,0,1,6.43,29c-1,21.23-7.51,29.36-25.77,28.14C89,443,85.17,427.08,84.4,412.27s5.93-22.4,8.22-30C96.24,370.32,106,357.77,111.3,358.25Z"/><path class="cls-6" d="M109.6,465.3s-.28-4.09.68-14.62c1-11.21,2-14.35,1.44-14.31a35.27,35.27,0,0,1-8.55-6.11,24.39,24.39,0,0,1-6.31-11.42c2.94,3.25,5.13,7.23,9,9.59a10.16,10.16,0,0,0,6.5,1.86s-1.82-11-3.92-22c-2.24-11.69-1.24-21.88-1-22,.4-.25,5.68,30.94,8.25,29.24,2.93-1.94,10.29-19.36,10.29-19.36a59.85,59.85,0,0,1-2.78,12.94c-1.34,3.66-4.81,8.58-7,11.8,0,0,.9,16.13.41,31.56a70.63,70.63,0,0,0,.78,12.45,18.26,18.26,0,0,1-3.4.8A33.3,33.3,0,0,1,109.6,465.3Z"/></g><g id="yellow-tree4"><path class="cls-5" d="M792.53,228.15c6.62.61,10.16,15.48,15.7,25.37A47.61,47.61,0,0,1,813.87,279c-.87,18.63-6.59,25.76-22.61,24.7-18.33-1.22-21.66-15.15-22.34-28.15s5.2-19.66,7.21-26.31C779.31,238.74,787.9,227.73,792.53,228.15Z"/><path class="cls-6" d="M791,322.1a94.05,94.05,0,0,1,.59-12.84c.89-9.83,1.8-12.59,1.26-12.55a31.49,31.49,0,0,1-7.5-5.36,21.47,21.47,0,0,1-5.54-10c2.59,2.85,4.51,6.34,7.93,8.41a9,9,0,0,0,5.7,1.64s-1.59-9.66-3.44-19.31c-2-10.27-1.08-19.2-.89-19.33.36-.22,5,27.16,7.24,25.66,2.58-1.71,9-17,9-17A52.52,52.52,0,0,1,803,272.77c-1.18,3.21-4.23,7.52-6.15,10.36,0,0,.79,14.15.37,27.69a61.65,61.65,0,0,0,.68,10.92,16.54,16.54,0,0,1-3,.71A29.36,29.36,0,0,1,791,322.1Z"/></g><g id="yellow-tree5"><path class="cls-5" d="M643,243.12c6.62.61,10.16,15.49,15.7,25.37A47.61,47.61,0,0,1,664.34,294c-.87,18.63-6.59,25.76-22.61,24.7-18.34-1.22-21.66-15.15-22.34-28.15s5.2-19.66,7.21-26.31C629.78,253.71,638.37,242.7,643,243.12Z"/><path class="cls-6" d="M641.51,337.07a94.05,94.05,0,0,1,.59-12.84c.89-9.83,1.79-12.58,1.26-12.55a31.15,31.15,0,0,1-7.5-5.36,21.47,21.47,0,0,1-5.54-10c2.59,2.85,4.51,6.34,7.93,8.41a9,9,0,0,0,5.7,1.64s-1.59-9.66-3.44-19.31c-2-10.26-1.08-19.2-.89-19.32.36-.23,5,27.15,7.24,25.65,2.58-1.7,9-17,9-17a52.52,52.52,0,0,1-2.44,11.36c-1.18,3.21-4.23,7.53-6.15,10.36,0,0,.79,14.15.37,27.69a61.82,61.82,0,0,0,.68,10.93,15.89,15.89,0,0,1-3,.7A29.34,29.34,0,0,1,641.51,337.07Z"/></g><g id="yellow-tree6"><path class="cls-5" d="M507.23,290.28c8,.74,12.3,18.74,19,30.7a57.56,57.56,0,0,1,6.83,30.84c-1,22.55-8,31.18-27.36,29.89-22.19-1.47-26.21-18.33-27-34.06s6.3-23.8,8.73-31.83C491.23,303.09,501.63,289.77,507.23,290.28Z"/><path class="cls-6" d="M505.43,404s-.3-4.35.72-15.53c1.08-11.9,2.17-15.24,1.52-15.19a38.18,38.18,0,0,1-9.07-6.5,26,26,0,0,1-6.7-12.12c3.12,3.45,5.45,7.67,9.59,10.18a10.87,10.87,0,0,0,6.9,2s-1.93-11.68-4.16-23.37c-2.38-12.42-1.32-23.23-1.08-23.38.43-.27,6,32.86,8.76,31,3.12-2.07,10.93-20.56,10.93-20.56a63.32,63.32,0,0,1-2.94,13.75c-1.44,3.88-5.12,9.1-7.44,12.53,0,0,.95,17.13.44,33.51a74.66,74.66,0,0,0,.82,13.22,19.12,19.12,0,0,1-3.61.85A36.34,36.34,0,0,1,505.43,404Z"/></g><rect class="cls-7" x="716.34" y="284.34" width="73.67" height="62.93"/><rect class="cls-8" x="735.56" y="303.35" width="12.85" height="17.39"/><rect class="cls-8" x="753.52" y="303.35" width="28.54" height="17.39"/><path class="cls-9" d="M683.28,249.79l25.54,13.82,1.44,24.19H649.34Z"/><path class="cls-10" d="M716.34,284.34l-30.17-31.83-29.55,31.83v62.93h59.72Z"/><rect class="cls-8" x="676.24" y="303.35" width="20.98" height="43.93"/><rect class="cls-8" x="682.25" y="274.64" width="8.97" height="9.7"/><polygon class="cls-11" points="683.27 249.79 758.81 249.79 794.86 287.8 719.32 287.8 683.27 249.79"/><rect class="cls-12" x="736.95" y="241.16" width="13.57" height="24.19"/><path class="cls-9" d="M737,241.16H731l-.25,18.5,6.17,5.68Z"/><path class="cls-4" d="M750,362.53c-.83-6.53-9.42-11.94-17.48-11.94a18.25,18.25,0,0,0-2.88.22,1.7,1.7,0,0,0,0-.22c0-9.39-6.4-17-14.28-17-.32,0-.63,0-.94,0a31.1,31.1,0,0,0-26.7-15.5c-14.78,0-27.18,10.63-30.47,24.91-7.49,1.55-14.89,12.52-14,19.5Z"/><path class="cls-4" d="M1353.8,332c-1-8.34-11.31-15.24-21-15.24a21.93,21.93,0,0,0-3.46.28v-.28c0-12-7.68-21.7-17.14-21.7a10.56,10.56,0,0,0-1.13.05c-6.62-11.86-18.51-19.78-32.07-19.78-17.74,0-32.63,13.57-36.58,31.78-9,2-17.89,16-16.8,24.89Z"/><path class="cls-4" d="M1077.14,332c-1-8.34-11.31-15.24-21-15.24a22,22,0,0,0-3.46.28,2.53,2.53,0,0,0,0-.28c0-12-7.69-21.7-17.15-21.7a10.26,10.26,0,0,0-1.12.05c-6.62-11.86-18.51-19.78-32.07-19.78-17.75,0-32.64,13.57-36.59,31.78-9,2-17.89,16-16.79,24.89Z"/><path class="cls-1" d="M864.06,281.37l-32-24.08-32.64,24.18v93.26h64.65Z"/><polygon class="cls-13" points="832.05 232.64 832.05 257.58 864.06 281.37 864.06 256.43 832.05 232.64"/><polygon class="cls-14" points="832.05 232.64 832.05 257.58 799.27 281.94 799.27 257 832.05 232.64"/><rect class="cls-8" x="823.5" y="311.7" width="16.6" height="15.37"/><rect class="cls-8" x="823.5" y="288" width="16.6" height="15.37"/><rect class="cls-8" x="823.5" y="335.39" width="16.6" height="15.37"/><path class="cls-1" d="M1010.15,244.45l-32-24.08-32.64,24.18v93.26h64.64Z"/><polygon class="cls-13" points="978.15 195.72 978.15 220.66 1010.15 244.45 1010.15 219.51 978.15 195.72"/><polygon class="cls-14" points="978.15 195.72 978.15 220.66 945.37 245.02 945.37 220.09 978.15 195.72"/><rect class="cls-8" x="969.59" y="274.78" width="16.6" height="15.37"/><rect class="cls-8" x="969.59" y="251.08" width="16.6" height="15.37"/><rect class="cls-8" x="969.59" y="298.47" width="16.6" height="15.37"/><path class="cls-14" d="M1095.5,174.06l24.88,26.15v10.7H1004.16V202.1Z"/><path class="cls-1" d="M1120.38,206.1l-26.45-27.31-89.77,27.31V314.54h116.22Z"/><rect class="cls-8" x="1027.62" y="221.02" width="12.57" height="11.95"/><rect class="cls-8" x="1055.35" y="221.02" width="12.73" height="11.95"/><rect class="cls-8" x="1031.87" y="265.68" width="16.65" height="18.28"/><rect class="cls-8" x="1070.62" y="265.4" width="28.03" height="49.13"/><g id="yellow-tree7"><path class="cls-5" d="M1330.33,241.78c8.69.8,13.34,20.33,20.61,33.31,4.1,7.33,8.09,18.72,7.41,33.47-1.14,24.46-8.65,33.82-29.69,32.42-24.07-1.59-28.44-19.89-29.33-37-.9-17.22,6.83-25.82,9.47-34.54C1313,255.68,1324.25,241.23,1330.33,241.78Z"/><path class="cls-6" d="M1328.37,365.13s-.33-4.71.78-16.85c1.17-12.91,2.36-16.53,1.66-16.48a40.91,40.91,0,0,1-9.85-7,28.13,28.13,0,0,1-7.27-13.16c3.39,3.75,5.91,8.32,10.41,11a11.74,11.74,0,0,0,7.48,2.15s-2.09-12.68-4.51-25.36c-2.58-13.47-1.43-25.21-1.17-25.37.47-.29,6.55,35.65,9.5,33.69,3.39-2.24,11.87-22.31,11.87-22.31a69.12,69.12,0,0,1-3.2,14.92c-1.56,4.21-5.56,9.88-8.07,13.59,0,0,1,18.59.47,36.37a80.24,80.24,0,0,0,.9,14.34,21.38,21.38,0,0,1-3.92.92A38.46,38.46,0,0,1,1328.37,365.13Z"/></g><g id="yellow-tree8"><path class="cls-5" d="M1375,282.61c7.14.65,11,16.68,16.92,27.34a51.23,51.23,0,0,1,6.08,27.47c-.94,20.08-7.1,27.77-24.37,26.62-19.76-1.31-23.35-16.33-24.08-30.34s5.61-21.19,7.77-28.35C1360.7,294,1370,282.15,1375,282.61Z"/><path class="cls-6" d="M1373.34,383.87s-.27-3.88.64-13.84c1-10.59,1.94-13.57,1.36-13.53a33.56,33.56,0,0,1-8.08-5.78,23.06,23.06,0,0,1-6-10.8c2.78,3.08,4.85,6.83,8.54,9.07a9.66,9.66,0,0,0,6.15,1.76s-1.72-10.4-3.71-20.81c-2.12-11.06-1.17-20.7-1-20.83.39-.24,5.38,29.27,7.8,27.66,2.78-1.84,9.74-18.32,9.74-18.32a56.71,56.71,0,0,1-2.62,12.25c-1.28,3.46-4.56,8.11-6.63,11.16,0,0,.85,15.26.39,29.85a66.62,66.62,0,0,0,.74,11.78,17.09,17.09,0,0,1-3.22.75A31.22,31.22,0,0,1,1373.34,383.87Z"/></g><g id="yellow-tree9"><path class="cls-5" d="M1012.45,236.65c7.37.68,11.3,17.22,17.46,28.22a52.81,52.81,0,0,1,6.28,28.34c-1,20.72-7.33,28.65-25.15,27.47-20.39-1.35-24.09-16.85-24.84-31.3s5.79-21.87,8-29.26C997.75,248.43,1007.31,236.18,1012.45,236.65Z"/><path class="cls-6" d="M1010.8,341.14s-.28-4,.65-14.28c1-10.93,2-14,1.41-14a34.29,34.29,0,0,1-8.35-6,23.82,23.82,0,0,1-6.15-11.14c2.87,3.18,5,7,8.81,9.36a10,10,0,0,0,6.34,1.82s-1.77-10.74-3.82-21.48c-2.18-11.41-1.21-21.35-1-21.49.4-.24,5.55,30.2,8,28.54,2.87-1.9,10-18.9,10-18.9a58.38,58.38,0,0,1-2.71,12.64c-1.32,3.57-4.7,8.36-6.84,11.51,0,0,.88,15.75.41,30.8a68.44,68.44,0,0,0,.76,12.15,18,18,0,0,1-3.32.79A34,34,0,0,1,1010.8,341.14Z"/></g><rect class="cls-7" x="1157.75" y="258.8" width="112.78" height="74.1"/><path class="cls-13" d="M1102.06,258.8h-9.19l30.37-44.15,6.73,2.71Z"/><path class="cls-10" d="M1157.75,258.8l-29.29-44.15-29.29,44.15v74.11h58.58Z"/><polygon class="cls-14" points="1123.24 214.65 1246.13 214.65 1275.43 258.8 1152.54 258.8 1123.24 214.65"/><rect class="cls-8" x="1177.22" y="278.11" width="8.93" height="22.81"/><rect class="cls-8" x="1194.72" y="278.11" width="8.93" height="22.81"/><rect class="cls-8" x="1212.23" y="278.11" width="8.93" height="22.81"/><rect class="cls-8" x="1229.74" y="278.11" width="8.93" height="22.81"/><rect class="cls-8" x="1247.24" y="278.11" width="8.93" height="22.81"/><path class="cls-13" d="M1076.94,298.16h-3.32s16.26-23.08,16.31-23,3,2.07,3,2.07S1076.31,298.27,1076.94,298.16Z"/><path class="cls-10" d="M1107.13,296.73,1092,275.17l-15.09,21.56v36.19h30.19Z"/><rect class="cls-7" x="1106.89" y="296.73" width="21.31" height="36.19"/><rect class="cls-8" x="1114.44" y="305.1" width="6.21" height="12.12"/><rect class="cls-15" x="1084.87" y="311.16" width="10.91" height="21.76"/><polygon class="cls-14" points="1089.93 275.17 1113.22 275.17 1129.18 298.16 1105.9 298.16 1089.93 275.17"/><path class="cls-16" d="M958.88,245.31l36.67,39.8H922.22Z"/><rect class="cls-17" x="848.55" y="304.84" width="79.25" height="57.22"/><polygon class="cls-16" points="862.06 268 958.88 268 932.82 312.18 836 312.18 862.06 268"/><path class="cls-1" d="M990,283.2l-31.08-30-31.07,30v78.86H990Z"/><rect class="cls-8" x="951.46" y="336.03" width="8.64" height="13.91"/><rect class="cls-8" x="954.55" y="290.92" width="11.09" height="9.83"/><path class="cls-18" d="M965.64,290.92a5.56,5.56,0,0,0-11.09,0Z"/><rect class="cls-15" x="964.01" y="333.28" width="14.74" height="28.78"/><rect class="cls-8" x="865.31" y="325.31" width="8.61" height="15.95"/><rect class="cls-8" x="886.27" y="325.31" width="8.61" height="15.95"/><g id="yellow-tree10"><path class="cls-19" d="M435.88,303.7c9.11.54,14,13.83,21.59,22.67a31.23,31.23,0,0,1,7.77,22.78c-1.2,16.66-9.07,23-31.11,22.08-25.22-1.08-29.8-13.54-30.73-25.16s7.16-17.57,9.92-23.51C417.69,313.16,429.51,303.32,435.88,303.7Z"/><path class="cls-6" d="M429.58,404s-.3-4.26.7-15.2c1.06-11.64-.45-29.78-1.08-29.74a36.92,36.92,0,0,1-8.88-6.35c-4.9-4.68-3.27-7.09-3.27-7.39,3.06,3.38,2.05,3,6.1,5.49a10.57,10.57,0,0,0,6.75,1.93s.69,3.44-1.5-8c-2.32-12.15-1.28-22.74-1-22.88s2.32,10.1,4.39,17.26c1.23,4.23,2.54,7,3.26,6.91.94-.17,3-2.41,4.17-5.36a24.87,24.87,0,0,0,1.37-6.41s2.44,3,.23,9c-1.4,3.8-2.7,3.81-5,7.16,0,0,1.59,24.17,1.09,40.2a72.13,72.13,0,0,0,.81,12.94,19.06,19.06,0,0,1-3.54.83A35.35,35.35,0,0,1,429.58,404Z"/></g><path class="cls-16" d="M554.74,276.64l-36.67,39.8h73.34Z"/><rect class="cls-17" x="585.82" y="336.17" width="79.25" height="57.22"/><polygon class="cls-16" points="651.57 299.33 554.74 299.33 580.8 343.51 677.63 343.51 651.57 299.33"/><path class="cls-1" d="M523.66,314.53l31.08-30,31.08,30v78.86H523.66Z"/><rect class="cls-8" x="553.53" y="367.36" width="8.64" height="13.91"/><rect class="cls-8" x="547.99" y="322.25" width="11.09" height="9.83"/><path class="cls-18" d="M548,322.25a5.56,5.56,0,0,1,11.09,0Z"/><rect class="cls-15" x="534.87" y="364.61" width="14.74" height="28.78"/><rect class="cls-8" x="639.7" y="356.64" width="8.61" height="15.95"/><rect class="cls-8" x="618.75" y="356.64" width="8.61" height="15.95"/><path class="cls-20" d="M1101.93,330.88c-.75-5.44-8.42-9.95-15.62-9.95a18.22,18.22,0,0,0-2.58.18,1.09,1.09,0,0,0,0-.18c0-7.82-5.72-14.17-12.76-14.17q-.42,0-.84,0a28.18,28.18,0,0,0-23.86-12.92c-13.21,0-24.29,8.86-27.23,20.76-6.69,1.29-13.31,10.44-12.5,16.25Z"/><path class="cls-16" d="M389.71,303.69l36.67,39.79H353Z"/><rect class="cls-17" x="279.38" y="363.21" width="79.25" height="57.22"/><polygon class="cls-16" points="292.88 326.38 389.71 326.38 363.65 370.55 266.82 370.55 292.88 326.38"/><path class="cls-1" d="M420.78,341.57l-31.07-30-31.08,30v78.86h62.15Z"/><rect class="cls-8" x="382.28" y="394.41" width="8.64" height="13.91"/><rect class="cls-8" x="385.37" y="349.29" width="11.09" height="9.83"/><path class="cls-18" d="M396.46,349.29a5.56,5.56,0,0,0-11.09,0Z"/><rect class="cls-15" x="394.84" y="391.65" width="14.74" height="28.78"/><rect class="cls-8" x="296.14" y="383.68" width="8.61" height="15.95"/><rect class="cls-8" x="317.09" y="383.68" width="8.61" height="15.95"/><rect class="cls-7" x="777.9" y="346.87" width="73.67" height="62.93"/><rect class="cls-8" x="797.12" y="365.88" width="12.85" height="17.39"/><rect class="cls-8" x="815.08" y="365.88" width="28.54" height="17.39"/><path class="cls-9" d="M744.83,312.32l25.54,13.82,1.44,24.19H710.9Z"/><path class="cls-10" d="M777.9,346.87,747.73,315l-29.55,31.83V409.8H777.9Z"/><rect class="cls-8" x="737.8" y="365.88" width="20.98" height="43.93"/><rect class="cls-8" x="743.8" y="337.17" width="8.97" height="9.7"/><polygon class="cls-11" points="744.83 312.32 820.37 312.32 856.41 350.33 780.87 350.33 744.83 312.32"/><rect class="cls-12" x="798.51" y="303.69" width="13.57" height="24.19"/><path class="cls-9" d="M798.51,303.69h-5.93l-.24,18.5,6.17,5.68Z"/><rect class="cls-7" x="886.36" y="367.84" width="73.67" height="62.93"/><rect class="cls-8" x="905.58" y="386.84" width="12.85" height="17.39"/><rect class="cls-8" x="923.54" y="386.84" width="28.54" height="17.39"/><path class="cls-9" d="M853.29,333.29l25.54,13.82,1.44,24.18H819.36Z"/><path class="cls-10" d="M886.36,367.84,856.19,336l-29.55,31.84v62.93h59.72Z"/><rect class="cls-8" x="846.26" y="386.84" width="20.98" height="43.93"/><rect class="cls-8" x="852.26" y="358.13" width="8.97" height="9.7"/><polygon class="cls-11" points="853.29 333.29 928.83 333.29 964.87 371.29 889.33 371.29 853.29 333.29"/><rect class="cls-12" x="906.97" y="324.65" width="13.57" height="24.19"/><path class="cls-9" d="M907,324.65H901l-.24,18.51,6.17,5.67Z"/><g id="yellow-tree11"><path class="cls-19" d="M774.67,355.59c8.17.49,12.54,12.42,19.38,20.34a28,28,0,0,1,7,20.45c-1.07,14.94-8.13,20.66-27.91,19.81-22.63-1-26.74-12.15-27.58-22.58s6.43-15.77,8.9-21.1C758.34,364.08,769,355.25,774.67,355.59Z"/><path class="cls-6" d="M769,445.56s-.27-3.81.63-13.63c1-10.45-.41-26.73-1-26.69a32.86,32.86,0,0,1-8-5.7c-4.4-4.2-2.94-6.36-2.94-6.63,2.75,3,1.84,2.72,5.48,4.92a9.44,9.44,0,0,0,6,1.74s.62,3.09-1.34-7.17c-2.08-10.91-1.15-20.4-1-20.53s2.09,9.06,4,15.49c1.1,3.79,2.27,6.31,2.92,6.19.85-.14,2.7-2.16,3.75-4.8a22.34,22.34,0,0,0,1.22-5.76s2.19,2.72.21,8.09c-1.25,3.41-2.43,3.42-4.46,6.43,0,0,1.43,21.68,1,36.07a65.3,65.3,0,0,0,.73,11.61,17.51,17.51,0,0,1-3.17.75A31.45,31.45,0,0,1,769,445.56Z"/></g><rect class="cls-21" x="92.23" y="493.71" width="1281.5" height="104.03"/><rect class="cls-22" x="759.34" y="440.09" width="127.44" height="110.7"/><path class="cls-13" d="M963.09,445.48h10.4l-42.06-52-10.17,6Z"/><path class="cls-23" d="M924.94,395.58l-38.16,44.51V550.78h76.33V439.08Z"/><polygon class="cls-24" points="931.43 393.46 794.65 393.46 750.01 445.48 886.78 445.48 931.43 393.46"/><rect class="cls-25" x="849.2" y="468.67" width="14.09" height="19.87"/><rect class="cls-25" x="816.03" y="468.67" width="14.09" height="19.87"/><rect class="cls-25" x="782.83" y="468.67" width="14.09" height="19.87"/><rect class="cls-25" x="849.2" y="502.33" width="14.09" height="19.87"/><rect class="cls-25" x="816.03" y="502.33" width="14.09" height="19.87"/><rect class="cls-25" x="782.83" y="502.33" width="14.09" height="19.87"/><rect class="cls-26" x="919.55" y="437.32" width="12.03" height="19.87"/><rect class="cls-26" x="919.55" y="468.87" width="12.03" height="19.87"/><rect class="cls-26" x="913.54" y="502.95" width="24.06" height="47.93"/><path class="cls-19" d="M577.45,444.67c-1-8.16-10.75-14.91-19.94-14.91a19.92,19.92,0,0,0-3.29.27,2.44,2.44,0,0,0,0-.27c0-11.72-7.3-21.23-16.29-21.23-.36,0-.72,0-1.07,0-6.28-11.6-17.58-19.34-30.45-19.34-16.86,0-31,13.27-34.76,31.09-8.54,1.94-17,15.64-16,24.35Z"/><rect class="cls-7" x="671.49" y="386.43" width="73.67" height="62.93"/><rect class="cls-8" x="690.71" y="405.43" width="12.85" height="17.39"/><rect class="cls-8" x="708.67" y="405.43" width="28.54" height="17.39"/><path class="cls-9" d="M638.42,351.88,664,365.7l1.44,24.18H604.49Z"/><path class="cls-27" d="M671.49,386.43l-30.17-31.84-29.55,31.84v62.93h59.72Z"/><rect class="cls-8" x="631.39" y="405.43" width="20.98" height="43.93"/><rect class="cls-8" x="637.39" y="376.72" width="8.97" height="9.7"/><polygon class="cls-11" points="638.42 351.88 713.96 351.88 750 389.88 674.46 389.88 638.42 351.88"/><rect class="cls-12" x="692.1" y="343.24" width="13.57" height="24.19"/><path class="cls-9" d="M692.1,343.24h-5.93l-.24,18.51,6.17,5.67Z"/><path class="cls-13" d="M1141.51,319.32h-4.31s21.09-29.92,21.16-29.82,3.91,2.7,3.91,2.7S1140.7,319.47,1141.51,319.32Z"/><path class="cls-10" d="M1141.51,350.29V317.47l19.58-28,19.58,28v32.82Z"/><rect class="cls-7" x="1179.07" y="317.47" width="94.49" height="32.82"/><rect class="cls-8" x="1191.58" y="327.22" width="4.82" height="9.69"/><rect class="cls-8" x="1207.74" y="327.22" width="4.82" height="9.69"/><rect class="cls-8" x="1223.9" y="327.22" width="4.82" height="9.69"/><rect class="cls-8" x="1240.07" y="327.22" width="4.82" height="9.69"/><rect class="cls-8" x="1256.23" y="327.22" width="4.82" height="9.69"/><polygon class="cls-14" points="1158.36 289.5 1257.2 289.5 1277.91 319.32 1179.07 319.32 1158.36 289.5"/><path class="cls-13" d="M1231.74,344.59h-4.48s22-31.15,22-31,4.07,2.8,4.07,2.8S1230.9,344.74,1231.74,344.59Z"/><path class="cls-10" d="M1231.74,376.83V342.66l20.38-29.11,20.38,29.11v34.17Z"/><rect class="cls-7" x="1270.84" y="342.66" width="98.36" height="34.17"/><rect class="cls-8" x="1283.86" y="352.81" width="5.02" height="10.09"/><rect class="cls-8" x="1300.68" y="352.81" width="5.02" height="10.09"/><rect class="cls-8" x="1317.51" y="352.81" width="5.02" height="10.09"/><rect class="cls-8" x="1334.33" y="352.81" width="5.02" height="10.09"/><rect class="cls-8" x="1351.16" y="352.81" width="5.02" height="10.09"/><polygon class="cls-14" points="1249.28 313.55 1352.17 313.55 1373.73 344.59 1270.84 344.59 1249.28 313.55"/><path class="cls-13" d="M1077.74,326.2l0-6.08s50.61.23,88.22.23l43.78,27.39L1099.1,345.4Z"/><rect class="cls-28" x="1077.72" y="323.96" width="88.21" height="84.4"/><rect class="cls-8" x="1133.75" y="339.37" width="10.52" height="9.84"/><rect class="cls-8" x="1112.09" y="339.37" width="10.52" height="9.84"/><rect class="cls-8" x="1090.44" y="339.37" width="10.52" height="9.84"/><path class="cls-27" d="M1165.93,324l38.47,23.78.84,60.62h-39.31Z"/><path class="cls-1" d="M1094,358.72l-36.14-27.19L1021,358.83V464.16h73Z"/><polygon class="cls-13" points="1057.86 303.68 1057.86 331.85 1094 358.71 1094 330.55 1057.86 303.68"/><polygon class="cls-14" points="1057.85 303.68 1057.85 331.85 1020.83 359.37 1020.83 331.2 1057.85 303.68"/><rect class="cls-8" x="1048.19" y="392.97" width="18.75" height="17.35"/><rect class="cls-8" x="1048.19" y="366.21" width="18.75" height="17.35"/><rect class="cls-8" x="1048.19" y="419.74" width="18.75" height="17.35"/><path class="cls-1" d="M1024.45,358.72,988.3,331.53l-36.86,27.3V464.16h73Z"/><polygon class="cls-13" points="988.3 303.68 988.3 331.85 1024.45 358.71 1024.45 330.55 988.3 303.68"/><polygon class="cls-14" points="988.3 303.68 988.3 331.85 951.28 359.37 951.28 331.2 988.3 303.68"/><rect class="cls-8" x="978.64" y="392.97" width="18.75" height="17.35"/><rect class="cls-8" x="978.64" y="366.21" width="18.75" height="17.35"/><rect class="cls-8" x="978.64" y="419.74" width="18.75" height="17.35"/><path class="cls-13" d="M114,431.91h-5.13s25.12-35.64,25.2-35.51,4.66,3.21,4.66,3.21S113,432.09,114,431.91Z"/><path class="cls-29" d="M114,468.8V429.71l23.32-33.31,23.32,33.31V468.8Z"/><rect class="cls-30" x="158.72" y="429.71" width="112.54" height="39.09"/><rect class="cls-8" x="173.62" y="441.32" width="5.74" height="11.55"/><rect class="cls-8" x="192.87" y="441.32" width="5.74" height="11.55"/><rect class="cls-8" x="212.12" y="441.32" width="5.74" height="11.55"/><rect class="cls-8" x="231.37" y="441.32" width="5.74" height="11.55"/><rect class="cls-8" x="250.62" y="441.32" width="5.74" height="11.55"/><polygon class="cls-14" points="134.06 396.4 251.79 396.4 276.45 431.91 158.72 431.91 134.06 396.4"/><path class="cls-31" d="M1189.55,418.1c-.82-5.38-9.24-9.82-17.15-9.82a21.78,21.78,0,0,0-2.82.18v-.18a14,14,0,0,0-14-14c-.31,0-.61,0-.92,0-5.4-7.64-15.12-12.74-26.19-12.74-14.5,0-26.66,8.74-29.89,20.47-7.34,1.28-14.61,10.3-13.72,16Z"/><g id="yellow-tree12"><path class="cls-19" d="M290,373.43c11.36.73,17.43,18.74,26.93,30.71A44.56,44.56,0,0,1,326.64,435c-1.5,22.56-11.31,31.19-38.81,29.9-31.46-1.47-37.16-18.34-38.33-34.08S258.43,407,261.88,399C267.33,386.24,282.07,372.91,290,373.43Z"/><path class="cls-6" d="M285.32,516.82s-.37-5.76.87-20.59c1.32-15.77-.56-40.34-1.34-40.28a46,46,0,0,1-11.09-8.6c-6.11-6.34-4.07-9.61-4.07-10,3.82,4.58,2.55,4.11,7.61,7.44,3,2,4.42,2.59,8.42,2.63,0,0,.86,4.65-1.87-10.83-2.9-16.47-1.6-30.8-1.32-31s2.9,13.69,5.49,23.39c1.52,5.72,3.16,9.52,4.06,9.35,1.17-.22,3.75-3.26,5.21-7.25a36.38,36.38,0,0,0,1.69-8.69s3,4.1.3,12.21c-1.75,5.14-3.37,5.15-6.21,9.7,0,0,2,32.73,1.36,54.45a106.44,106.44,0,0,0,1,17.52,22.64,22.64,0,0,1-4.41,1.13A41.1,41.1,0,0,1,285.32,516.82Z"/></g><path class="cls-31" d="M235.1,550.88c-.82-5.37-9.24-9.81-17.15-9.81a23.73,23.73,0,0,0-2.82.17v-.17a14,14,0,0,0-14-14c-.31,0-.62,0-.92,0-5.4-7.64-15.12-12.74-26.19-12.74-14.5,0-26.66,8.74-29.89,20.47-7.35,1.28-14.61,10.3-13.72,16Z"/><path class="cls-31" d="M178.06,506.84c-.67-3.87-7.57-7.06-14-7.06a19.68,19.68,0,0,0-2.32.13v-.13c0-5.55-5.14-10-11.47-10-.25,0-.51,0-.75,0-4.43-5.49-12.39-9.16-21.46-9.16-11.88,0-21.85,6.28-24.49,14.72-6,.92-12,7.4-11.24,11.53Z"/><path class="cls-32" d="M589.25,360.94v-5.61s-52.11.21-90.85.21l-45.1,25.27,113.94-2.16Z"/><rect class="cls-33" x="498.41" y="358.87" width="90.86" height="77.86"/><rect class="cls-34" x="520.72" y="373.08" width="10.84" height="9.08"/><rect class="cls-34" x="543.03" y="373.08" width="10.84" height="9.08"/><rect class="cls-34" x="565.33" y="373.08" width="10.84" height="9.08"/><path class="cls-35" d="M498.41,358.87l-39.62,21.94-.86,55.92h40.48Z"/><path class="cls-32" d="M616.08,395.24l.35-3.29s-39.14.12-68.22.12l-35.39,14.86,85.67-1.27Z"/><rect class="cls-33" x="548.39" y="395.23" width="65.86" height="41.51"/><rect class="cls-36" x="603.38" y="406.16" width="4.57" height="9.83"/><path class="cls-35" d="M548.39,395.23l-28.72,11.7L519,436.74h29.35Z"/><rect class="cls-37" x="526.98" y="425.85" width="7.85" height="10.89"/><rect class="cls-36" x="539.4" y="425.85" width="5.01" height="4.91"/><rect class="cls-38" x="298.76" y="406.72" width="119.99" height="104.22"/><path class="cls-13" d="M490.6,411.8h9.79l-39.6-49-9.58,5.68Z"/><path class="cls-39" d="M454.68,364.82l-35.93,41.9V511h71.87V405.78Z"/><polygon class="cls-24" points="460.79 362.82 332.01 362.82 289.98 411.8 418.75 411.8 460.79 362.82"/><rect class="cls-34" x="383.37" y="433.64" width="13.27" height="18.7"/><rect class="cls-34" x="352.14" y="433.64" width="13.27" height="18.7"/><rect class="cls-34" x="320.88" y="433.64" width="13.27" height="18.7"/><rect class="cls-34" x="383.37" y="465.33" width="13.27" height="18.7"/><rect class="cls-34" x="352.14" y="465.33" width="13.27" height="18.7"/><rect class="cls-34" x="320.88" y="465.33" width="13.27" height="18.7"/><rect class="cls-34" x="449.61" y="404.12" width="11.32" height="18.7"/><rect class="cls-34" x="449.61" y="433.82" width="11.32" height="18.7"/><rect class="cls-34" x="443.95" y="465.91" width="22.65" height="45.13"/><g id="yellow-tree13"><path class="cls-19" d="M1419.09,341.37c9,.81,13.88,21.07,21.45,34.53,4.28,7.6,8.44,19.41,7.75,34.72-1.14,25.4-8.91,35.13-30.75,33.72-25-1.62-29.55-20.6-30.51-38.31-1-17.87,7-26.81,9.76-35.87C1401.1,355.83,1412.78,340.8,1419.09,341.37Z"/><path class="cls-40" d="M1417.28,469.4s-.34-4.89.78-17.49c1.2-13.4,2.42-17.16,1.69-17.11a42.6,42.6,0,0,1-10.24-7.29,29.24,29.24,0,0,1-7.57-13.65c3.53,3.89,6.16,8.63,10.83,11.45a12.22,12.22,0,0,0,7.77,2.22s-2.19-13.16-4.73-26.31c-2.7-14-1.53-26.16-1.26-26.33.49-.3,6.86,37,9.93,34.95,3.51-2.33,12.27-23.18,12.27-23.18a71.55,71.55,0,0,1-3.29,15.49c-1.61,4.38-5.75,10.26-8.36,14.13,0,0,1.11,19.29.57,37.74a82.64,82.64,0,0,0,1,14.88,22.48,22.48,0,0,1-4.07,1A41,41,0,0,1,1417.28,469.4Z"/></g><rect class="cls-22" x="1149.62" y="382.91" width="127.44" height="110.7"/><path class="cls-13" d="M1353.38,388.31h10.39l-42.06-52-10.17,6Z"/><path class="cls-23" d="M1315.23,338.41l-38.17,44.5v110.7h76.33V381.91Z"/><polygon class="cls-24" points="1321.71 336.29 1184.94 336.29 1140.29 388.31 1277.07 388.31 1321.71 336.29"/><rect class="cls-25" x="1239.49" y="411.5" width="14.09" height="19.87"/><rect class="cls-25" x="1206.31" y="411.5" width="14.09" height="19.87"/><rect class="cls-25" x="1173.11" y="411.5" width="14.09" height="19.87"/><rect class="cls-25" x="1239.49" y="445.16" width="14.09" height="19.87"/><rect class="cls-25" x="1206.31" y="445.16" width="14.09" height="19.87"/><rect class="cls-25" x="1173.11" y="445.16" width="14.09" height="19.87"/><rect class="cls-26" x="1309.84" y="380.15" width="12.03" height="19.87"/><rect class="cls-26" x="1309.84" y="411.69" width="12.03" height="19.87"/><rect class="cls-26" x="1303.83" y="445.78" width="24.06" height="47.93"/><path class="cls-41" d="M577.19,347.68c2.68-6.44,10.3-5.78,13.52-2.27,9,9.85,15.63,80,14.93,86.68-1.18,11.38-4.83,14.25-10.43,16.83-3.08,1.43-12.57,2.37-19,.71-4.82-1.25-9.7-8.06-10.9-16.12C563.68,422.37,566.28,373.89,577.19,347.68Z"/><path class="cls-6" d="M581,476.43c0-.3.71-38.65.71-38.65l-6.41-5.22V430.9l7.12,4.27.71-36h1.18l1.43,12.57,4.74-1.9.24,1.18-3.56,2.61.24,23.48,5.45-1.9.24,1.9-5.46,3.55v35.81S581,476.72,581,476.43Z"/><path class="cls-41" d="M1188,394.77c2.68-6.44,10.31-5.78,13.52-2.27,9,9.85,15.64,80,14.94,86.68-1.19,11.38-4.83,14.25-10.43,16.83-3.09,1.43-12.57,2.37-19,.71-4.82-1.25-9.71-8.06-10.91-16.12C1174.53,469.46,1177.14,421,1188,394.77Z"/><path class="cls-6" d="M1191.84,523.52c0-.3.71-38.65.71-38.65l-6.4-5.22V478l7.11,4.27.71-36h1.19l1.42,12.57,4.74-1.9.24,1.18-3.56,2.61.24,23.48,5.45-1.9.24,1.9-5.45,3.55v35.81S1191.83,523.81,1191.84,523.52Z"/><path class="cls-42" d="M769.56,468.51l-36.14-27.19-36.87,27.3V574h73Z"/><polygon class="cls-13" points="733.42 413.47 733.42 441.64 769.56 468.5 769.56 440.34 733.42 413.47"/><polygon class="cls-14" points="733.42 413.47 733.42 441.64 696.4 469.16 696.4 440.99 733.42 413.47"/><rect class="cls-25" x="723.75" y="502.76" width="18.75" height="17.35"/><rect class="cls-25" x="723.75" y="476" width="18.75" height="17.35"/><rect class="cls-25" x="723.75" y="529.53" width="18.75" height="17.35"/><path class="cls-35" d="M306.79,481.13l-33.17-24.95-33.83,25.06V577.9h67Z"/><polygon class="cls-13" points="273.62 430.63 273.62 456.48 306.79 481.13 306.79 455.28 273.62 430.63"/><polygon class="cls-14" points="273.62 430.63 273.62 456.48 239.64 481.73 239.64 455.88 273.62 430.63"/><rect class="cls-34" x="264.75" y="512.57" width="17.21" height="15.93"/><rect class="cls-34" x="264.75" y="488.01" width="17.21" height="15.93"/><rect class="cls-34" x="264.75" y="537.13" width="17.21" height="15.93"/><path class="cls-42" d="M1416.56,384.51l-32-24.09-32.66,24.2v93.31h64.68Z"/><polygon class="cls-13" points="1384.54 335.76 1384.54 360.71 1416.56 384.51 1416.56 359.56 1384.54 335.76"/><polygon class="cls-14" points="1384.54 335.75 1384.54 360.71 1351.74 385.09 1351.74 360.13 1384.54 335.75"/><rect class="cls-26" x="1375.97" y="414.86" width="16.61" height="15.38"/><rect class="cls-26" x="1375.97" y="391.15" width="16.61" height="15.38"/><rect class="cls-26" x="1375.97" y="438.57" width="16.61" height="15.38"/><path class="cls-24" d="M1436.31,422.54,1473,462.33h-73.33Z"/><rect class="cls-38" x="1325.98" y="482.06" width="79.25" height="57.22"/><polygon class="cls-24" points="1339.49 445.23 1436.31 445.23 1410.25 489.4 1313.43 489.4 1339.49 445.23"/><path class="cls-35" d="M1467.39,460.42l-31.08-30-31.07,30v78.86h62.15Z"/><rect class="cls-34" x="1428.89" y="513.26" width="8.64" height="13.91"/><rect class="cls-34" x="1431.98" y="468.14" width="11.09" height="9.83"/><path class="cls-43" d="M1443.07,468.14a5.56,5.56,0,0,0-11.09,0Z"/><rect class="cls-34" x="1441.44" y="510.5" width="14.74" height="28.78"/><rect class="cls-8" x="1342.74" y="502.53" width="8.61" height="15.95"/><rect class="cls-8" x="1363.69" y="502.53" width="8.61" height="15.95"/><g id="yellow-tree14"><path class="cls-19" d="M1464.22,492.91c7.29.66,11.22,17,17.33,27.89a52.33,52.33,0,0,1,6.26,28c-.92,20.5-7.2,28.36-24.84,27.22-20.18-1.3-23.86-16.63-24.64-30.93s5.69-21.65,7.89-29C1449.69,504.59,1459.13,492.45,1464.22,492.91Z"/><path class="cls-40" d="M1462.77,596.3s-.29-3.95.62-14.12c1-10.82,1.95-13.86,1.37-13.82a34.06,34.06,0,0,1-8.27-5.89,23.6,23.6,0,0,1-6.11-11c2.85,3.14,5,7,8.74,9.25a9.9,9.9,0,0,0,6.28,1.79s-1.78-10.63-3.83-21.25c-2.18-11.29-1.23-21.13-1-21.26.39-.24,5.54,29.87,8,28.23,2.84-1.89,9.92-18.72,9.92-18.72a58.15,58.15,0,0,1-2.66,12.5c-1.3,3.54-4.64,8.29-6.75,11.41,0,0,.9,15.58.45,30.48a68.05,68.05,0,0,0,.78,12,17.73,17.73,0,0,1-3.29.78A32,32,0,0,1,1462.77,596.3Z"/></g><path class="cls-42" d="M1356.49,450.7l-36.14-27.19-36.87,27.31V556.15h73Z"/><polygon class="cls-13" points="1320.35 395.67 1320.35 423.84 1356.49 450.7 1356.49 422.54 1320.35 395.67"/><polygon class="cls-14" points="1320.34 395.67 1320.34 423.84 1283.32 451.35 1283.32 423.19 1320.34 395.67"/><rect class="cls-26" x="1310.68" y="484.96" width="18.75" height="17.35"/><rect class="cls-26" x="1310.68" y="458.19" width="18.75" height="17.35"/><rect class="cls-26" x="1310.68" y="511.72" width="18.75" height="17.35"/><path class="cls-41" d="M1365.63,394.23c2.68-6.44,10.3-5.78,13.52-2.26,9,9.85,15.63,80,14.93,86.67-1.18,11.38-4.83,14.25-10.43,16.83-3.08,1.43-12.57,2.38-19,.72-4.82-1.25-9.7-8.07-10.9-16.13C1352.12,468.92,1354.72,420.44,1365.63,394.23Z"/><path class="cls-6" d="M1369.43,523c0-.3.71-38.65.71-38.65l-6.41-5.22v-1.66l7.12,4.27.71-36h1.18l1.43,12.57,4.74-1.9.24,1.19-3.56,2.61.24,23.47,5.45-1.9.24,1.9-5.46,3.56V523S1369.42,523.28,1369.43,523Z"/><path class="cls-31" d="M82.15,404c3.34-8,12.83-7.2,16.83-2.82,11.22,12.27,19.47,99.58,18.6,107.93-1.47,14.18-6,17.75-13,21-3.84,1.77-15.65,2.95-23.62.88-6-1.55-12.09-10-13.58-20.08C65.32,497,68.57,436.67,82.15,404Z"/><path class="cls-40" d="M86.87,564.36c0-.37.89-48.13.89-48.13l-8-6.5v-2.06L88.65,513l.88-44.88H91l1.77,15.65,5.9-2.36.3,1.47-4.43,3.25.3,29.23,6.79-2.36.29,2.36-6.79,4.43v44.59S86.86,564.73,86.87,564.36Z"/><path class="cls-19" d="M939.87,493.71c1.32-12.34,15-22.55,27.75-22.55a25.66,25.66,0,0,1,4.58.41c0-.13,0-.27,0-.41,0-17.72,10.17-32.11,22.68-32.11a14.52,14.52,0,0,1,1.48.07c8.75-17.54,24.48-29.26,42.41-29.26,23.46,0,43.16,20.07,48.38,47,11.89,2.92,23.65,23.65,22.21,36.82Z"/><rect class="cls-44" x="1108.56" y="446.62" width="73.67" height="62.93"/><rect class="cls-26" x="1127.78" y="465.62" width="12.85" height="17.39"/><rect class="cls-26" x="1145.74" y="465.62" width="28.54" height="17.39"/><path class="cls-24" d="M1075.5,412.07,1101,425.89l1.44,24.18h-60.92Z"/><path class="cls-42" d="M1108.56,446.62l-30.17-31.84-29.55,31.84v62.93h59.72Z"/><rect class="cls-25" x="1068.46" y="465.62" width="20.98" height="43.93"/><rect class="cls-25" x="1074.47" y="436.91" width="8.97" height="9.7"/><polygon class="cls-13" points="1075.49 412.07 1151.04 412.07 1187.08 450.07 1111.54 450.07 1075.49 412.07"/><rect class="cls-15" x="1129.17" y="403.43" width="13.57" height="24.19"/><path class="cls-24" d="M1129.17,403.43h-5.92l-.25,18.51,6.17,5.67Z"/><rect class="cls-44" x="626.88" y="450.33" width="73.67" height="62.93"/><rect class="cls-26" x="646.1" y="469.33" width="12.85" height="17.39"/><rect class="cls-26" x="664.06" y="469.33" width="28.54" height="17.39"/><path class="cls-24" d="M593.81,415.78l25.55,13.82,1.44,24.18H559.88Z"/><path class="cls-42" d="M626.88,450.33l-30.17-31.84-29.55,31.84v62.93h59.72Z"/><rect class="cls-25" x="586.78" y="469.33" width="20.98" height="43.93"/><rect class="cls-25" x="592.79" y="440.63" width="8.97" height="9.7"/><polygon class="cls-13" points="593.81 415.78 669.35 415.78 705.39 453.79 629.86 453.79 593.81 415.78"/><rect class="cls-15" x="647.49" y="407.14" width="13.57" height="24.19"/><path class="cls-24" d="M647.49,407.14h-5.92l-.25,18.51,6.17,5.68Z"/><rect class="cls-45" x="1268.51" y="470.28" width="73.67" height="62.93"/><rect class="cls-46" x="1287.73" y="489.28" width="12.85" height="17.39"/><rect class="cls-46" x="1305.69" y="489.28" width="28.54" height="17.39"/><path class="cls-24" d="M1235.44,435.73,1261,449.55l1.44,24.18h-60.91Z"/><path class="cls-42" d="M1268.51,470.28l-30.17-31.84-29.55,31.84v62.93h59.72Z"/><rect class="cls-25" x="1228.41" y="489.28" width="20.98" height="43.93"/><rect class="cls-25" x="1234.41" y="460.57" width="8.97" height="9.7"/><polygon class="cls-13" points="1235.44 435.73 1310.98 435.73 1347.02 473.73 1271.48 473.73 1235.44 435.73"/><rect class="cls-15" x="1289.12" y="427.09" width="13.57" height="24.19"/><path class="cls-24" d="M1289.12,427.09h-5.93L1283,445.6l6.17,5.67Z"/><path class="cls-13" d="M899.72,452.79l0-8.94s83.11.33,144.87.33l71.92,40.3L934.79,481Z"/><rect class="cls-38" x="899.69" y="449.49" width="144.87" height="124.15"/><rect class="cls-34" x="991.7" y="472.15" width="17.28" height="14.47"/><rect class="cls-34" x="956.14" y="472.15" width="17.28" height="14.47"/><rect class="cls-34" x="920.58" y="472.15" width="17.28" height="14.47"/><path class="cls-39" d="M1044.56,449.49l63.17,35,1.38,89.16h-64.55Z"/><path class="cls-13" d="M913.75,510.33l-.55-6.52s62.41.24,108.78.24l56.43,29.39L941.8,530.93Z"/><rect class="cls-47" x="916.68" y="510.31" width="105.02" height="82.1"/><rect class="cls-34" x="926.72" y="531.92" width="7.29" height="19.43"/><path class="cls-43" d="M1021.69,510.31l45.79,23.13,1,59h-46.79Z"/><rect class="cls-36" x="1043.3" y="570.86" width="12.52" height="21.54"/><rect class="cls-36" x="1045.57" y="546.5" width="7.98" height="9.72"/><path class="cls-13" d="M906.43,473l0,26.29H814.77l0-4Z"/><path class="cls-35" d="M906.41,479l-91.76,20.28-.42,81.29h92.18Z"/><rect class="cls-34" x="830.24" y="512.16" width="7.59" height="20.69"/><rect class="cls-34" x="862.94" y="553.48" width="12.01" height="10.24"/><rect class="cls-34" x="885.89" y="553.48" width="11.65" height="10.24"/><path class="cls-13" d="M1194.54,469V495.3h-91.64l0-4Z"/><path class="cls-35" d="M1194.53,475l-91.77,20.28-.41,81.29h92.18Z"/><rect class="cls-34" x="1118.36" y="508.17" width="7.59" height="20.69"/><rect class="cls-34" x="1151.05" y="549.49" width="12.01" height="10.24"/><rect class="cls-34" x="1174" y="549.49" width="11.65" height="10.24"/><path class="cls-13" d="M205.69,443.31v26.28H114l0-4Z"/><path class="cls-35" d="M205.68,449.31l-91.77,20.28-.41,81.29h92.18Z"/><rect class="cls-34" x="129.51" y="482.47" width="7.59" height="20.69"/><rect class="cls-34" x="162.2" y="523.78" width="12.01" height="10.24"/><rect class="cls-34" x="185.15" y="523.78" width="11.65" height="10.24"/><rect class="cls-38" x="471.76" y="452.58" width="102.74" height="72.55"/><rect class="cls-34" x="546.12" y="473.09" width="14.15" height="14.47"/><rect class="cls-34" x="517.28" y="473.09" width="14.15" height="14.47"/><rect class="cls-34" x="546.12" y="497.32" width="14.15" height="14.47"/><rect class="cls-34" x="517.28" y="497.32" width="14.15" height="14.47"/><rect class="cls-34" x="483.44" y="488.86" width="19.24" height="36.28"/><path class="cls-24" d="M586.13,460.21h-126L481.9,429h82.45Z"/><rect class="cls-48" x="489.2" y="418.52" width="12.64" height="14.19"/><rect class="cls-48" x="487.44" y="414.64" width="15.78" height="3.88"/><rect class="cls-38" x="1302.76" y="488.57" width="102.74" height="72.55"/><rect class="cls-34" x="1316.99" y="509.07" width="14.15" height="14.47"/><rect class="cls-34" x="1345.83" y="509.07" width="14.15" height="14.47"/><rect class="cls-34" x="1316.99" y="533.3" width="14.15" height="14.47"/><rect class="cls-34" x="1345.83" y="533.3" width="14.15" height="14.47"/><rect class="cls-34" x="1374.58" y="524.84" width="19.24" height="36.28"/><path class="cls-24" d="M1291.13,496.19h126L1395.36,465h-82.45Z"/><rect class="cls-48" x="1375.42" y="454.5" width="12.64" height="14.19"/><rect class="cls-48" x="1374.04" y="450.63" width="15.78" height="3.88"/><path class="cls-31" d="M564.79,445.78c2.52-6.06,9.7-5.44,12.72-2.13,8.48,9.27,14.72,75.26,14.06,81.57-1.12,10.72-4.55,13.42-9.82,15.85-2.9,1.34-11.83,2.23-17.85.67-4.54-1.18-9.14-7.59-10.27-15.18C552.07,516.07,554.53,470.45,564.79,445.78Z"/><path class="cls-40" d="M568.36,567c0-.28.67-36.37.67-36.37l-6-4.91v-1.56l6.69,4,.67-33.91h1.12L572.82,506l4.47-1.78.22,1.11-3.35,2.46.23,22.09,5.13-1.79.22,1.79-5.13,3.35V567S568.35,567.23,568.36,567Z"/><g id="yellow-tree15"><path class="cls-19" d="M220.2,452.2c8.94.82,13.71,20.89,21.19,34.23a64.22,64.22,0,0,1,7.61,34.4c-1.17,25.15-8.89,34.78-30.52,33.34-24.74-1.64-29.23-20.45-30.14-38-.93-17.7,7-26.54,9.73-35.51C202.35,466.49,214,451.63,220.2,452.2Z"/><path class="cls-40" d="M218.19,579s-.34-4.85.8-17.32c1.2-13.27,2.42-17,1.7-16.94a42.64,42.64,0,0,1-10.12-7.24A29,29,0,0,1,203.09,524c3.49,3.86,6.08,8.56,10.7,11.36a12.13,12.13,0,0,0,7.7,2.21s-2.15-13-4.64-26.06c-2.65-13.85-1.47-25.92-1.21-26.08.49-.3,6.74,36.64,9.77,34.63,3.48-2.31,12.2-22.94,12.2-22.94a71,71,0,0,1-3.29,15.34c-1.6,4.33-5.71,10.15-8.3,14,0,0,1.07,19.11.5,37.38a82.35,82.35,0,0,0,.92,14.74,21.65,21.65,0,0,1-4,1A40.08,40.08,0,0,1,218.19,579Z"/></g><g id="yellow-tree16"><path class="cls-19" d="M45.46,440.27c10.53,1,16.17,24.63,25,40.36,5,8.88,9.81,22.68,9,40.56-1.39,29.65-10.49,41-36,39.3C14.26,558.56,9,536.38,7.89,515.7c-1.09-20.87,8.28-31.29,11.48-41.86C24.42,457.12,38.09,439.59,45.46,440.27Z"/><path class="cls-49" d="M43.09,589.76s-.4-5.72.94-20.42c1.42-15.65,2.85-20,2-20a49.5,49.5,0,0,1-11.94-8.54c-6.59-6.28-8.81-15.54-8.81-15.94,4.11,4.54,7.17,10.09,12.62,13.39a14.27,14.27,0,0,0,9.07,2.6s-2.54-15.36-5.48-30.72c-3.12-16.33-1.72-30.56-1.41-30.75.57-.35,7.94,43.21,11.52,40.83,4.1-2.72,14.38-27,14.38-27a83.65,83.65,0,0,1-3.88,18.08c-1.88,5.1-6.73,12-9.78,16.47,0,0,1.25,22.53.58,44.07A98.06,98.06,0,0,0,54,589.2a26.08,26.08,0,0,1-4.75,1.12A47.57,47.57,0,0,1,43.09,589.76Z"/></g><path class="cls-31" d="M1273.54,429.83c3.33-8,12.82-7.2,16.83-2.82,11.22,12.27,19.47,99.58,18.6,107.94-1.48,14.17-6,17.74-13,21-3.84,1.77-15.65,3-23.62.88-6-1.55-12.09-10-13.59-20.07C1256.71,522.84,1260,462.47,1273.54,429.83Z"/><path class="cls-40" d="M1278.26,590.16c0-.37.89-48.13.89-48.13l-8-6.49v-2.07l8.85,5.31.89-44.88h1.48l1.77,15.65,5.9-2.36.3,1.48-4.43,3.24.29,29.24,6.8-2.37.29,2.37-6.79,4.42v44.59S1278.25,590.53,1278.26,590.16Z"/><path class="cls-19" d="M590.6,550.88c-.76-5.24-8.64-9.58-16-9.58a21.06,21.06,0,0,0-2.65.17,1,1,0,0,0,0-.17,13.39,13.39,0,0,0-13.1-13.65c-.29,0-.58,0-.86,0a29.47,29.47,0,0,0-24.5-12.44c-13.56,0-24.93,8.53-28,20-6.87,1.24-13.67,10-12.83,15.65Z"/><path class="cls-31" d="M1231.93,596.12c2.08-11.35,25.41-11,45.49-11a67.64,67.64,0,0,1,7.18.38c0-.12,0-.25,0-.38,0-16.29,16-29.52,35.58-29.52.79,0,1.57,0,2.33.07,13.74-16.13,38.41-26.9,66.54-26.9,36.82,0,67.72,18.45,75.92,43.23,21.36-14,35.27,7.59,35,20.83Z"/><path class="cls-31" d="M0,590.86c1.46-14.4,9.28-19.7,23.79-16.77-4.43-2.41-4.3-6.82-2.14-10.56,4-7,21.55-11.36,35.44-6.93,6.37-13.84,30.66-20.6,48.65-14.3,6.6-6.14,18.26-10.23,31.54-10.23,20.56,0,37.25,9.79,37.25,21.85h.17c11.67.05,21.46,5.4,24.22,12.61,33.83,2.75,56.85,17,56.85,26.77Z"/><rect class="cls-34" x="167.81" y="548.07" width="129.5" height="46.85"/><rect class="cls-50" x="182.31" y="558.69" width="56.64" height="31.81"/><rect class="cls-36" x="185.42" y="562.05" width="49.65" height="28.45"/><rect class="cls-34" x="185.42" y="566.44" width="49.65" height="1.06"/><rect class="cls-34" x="185.42" y="569.1" width="49.65" height="1.06"/><rect class="cls-34" x="185.42" y="571.76" width="49.65" height="1.06"/><rect class="cls-34" x="185.42" y="574.42" width="49.65" height="1.06"/><rect class="cls-34" x="185.42" y="577.07" width="49.65" height="1.06"/><rect class="cls-34" x="185.42" y="579.73" width="49.65" height="1.06"/><rect class="cls-34" x="185.42" y="582.39" width="49.65" height="1.06"/><rect class="cls-34" x="185.42" y="585.05" width="49.65" height="1.06"/><rect class="cls-34" x="185.42" y="587.71" width="49.65" height="1.06"/><rect class="cls-34" x="185.42" y="563.78" width="49.65" height="1.06"/><rect class="cls-34" x="857.1" y="550.89" width="129.5" height="46.85"/><rect class="cls-50" x="915.47" y="561.51" width="56.64" height="31.81"/><rect class="cls-36" x="919.35" y="564.87" width="49.65" height="28.45"/><rect class="cls-34" x="919.35" y="569.26" width="49.65" height="1.06"/><rect class="cls-34" x="919.35" y="571.92" width="49.65" height="1.06"/><rect class="cls-34" x="919.35" y="574.57" width="49.65" height="1.06"/><rect class="cls-34" x="919.35" y="577.23" width="49.65" height="1.06"/><rect class="cls-34" x="919.35" y="579.89" width="49.65" height="1.06"/><rect class="cls-34" x="919.35" y="582.55" width="49.65" height="1.06"/><rect class="cls-34" x="919.35" y="585.21" width="49.65" height="1.06"/><rect class="cls-34" x="919.35" y="587.87" width="49.65" height="1.06"/><rect class="cls-34" x="919.35" y="590.53" width="49.65" height="1.06"/><rect class="cls-34" x="919.35" y="566.6" width="49.65" height="1.06"/><rect class="cls-50" x="873.76" y="547.81" width="114.11" height="5.35"/><path class="cls-32" d="M1078.7,543.05l-.41-3.91s46.45.15,81,.15l42,17.63-101.67-1.51Z"/><rect class="cls-47" x="1080.88" y="543.04" width="78.16" height="49.26"/><rect class="cls-36" x="1088.35" y="556.01" width="5.42" height="11.66"/><path class="cls-43" d="M1159,543l34.08,13.88.74,35.38H1159Z"/><rect class="cls-37" x="1175.12" y="579.37" width="9.32" height="12.93"/><rect class="cls-36" x="1163.77" y="579.37" width="5.94" height="5.83"/><rect class="cls-47" x="1029.51" y="567.67" width="53.86" height="24.63"/><rect class="cls-50" x="1027.7" y="564.64" width="53.17" height="3.03"/><rect class="cls-34" x="555.78" y="550.88" width="29.67" height="42.11"/><rect class="cls-50" x="162.34" y="545.25" width="134.97" height="5.64"/><rect class="cls-34" x="292.15" y="529.93" width="98.08" height="69.26"/><rect class="cls-36" x="305.73" y="549.5" width="13.51" height="13.81"/><rect class="cls-36" x="333.27" y="549.5" width="13.51" height="13.81"/><rect class="cls-36" x="305.73" y="572.63" width="13.51" height="13.81"/><rect class="cls-36" x="333.27" y="572.63" width="13.51" height="13.81"/><rect class="cls-34" x="360.71" y="564.56" width="18.37" height="34.63"/><path class="cls-32" d="M281.05,537.21H401.33l-20.79-29.75h-78.7Z"/><rect class="cls-50" x="361.51" y="497.41" width="12.06" height="13.54"/><rect class="cls-50" x="360.19" y="493.71" width="15.07" height="3.7"/><rect class="cls-34" x="1190.7" y="535.7" width="90.11" height="63.63"/><rect class="cls-36" x="1203.18" y="553.69" width="12.41" height="12.69"/><rect class="cls-36" x="1228.47" y="553.69" width="12.41" height="12.69"/><rect class="cls-36" x="1203.18" y="574.94" width="12.41" height="12.69"/><rect class="cls-36" x="1228.47" y="574.94" width="12.41" height="12.69"/><rect class="cls-34" x="1253.68" y="567.52" width="16.88" height="31.82"/><path class="cls-32" d="M1180.5,542.39H1291l-19.1-27.33H1199.6Z"/><rect class="cls-50" x="1254.42" y="505.83" width="11.08" height="12.44"/><rect class="cls-50" x="1253.21" y="502.43" width="13.84" height="3.4"/><rect class="cls-50" x="558.27" y="549.08" width="24.24" height="2.91"/><path class="cls-43" d="M1363.29,565.2l-83.18-10.1-.17,36.36h83.35Z"/><path class="cls-32" d="M1364.59,565l-83.79-11.88v3.19l83.29,12.15Z"/><rect class="cls-34" x="680.3" y="526.89" width="89.83" height="63.44"/><rect class="cls-34" x="743.1" y="558.6" width="16.82" height="31.72"/><path class="cls-32" d="M670.13,533.55H780.3l-19-27.25H689.17Z"/><rect class="cls-50" x="743.83" y="497.1" width="11.05" height="12.4"/><rect class="cls-50" x="742.62" y="493.71" width="13.8" height="3.39"/><path class="cls-32" d="M737.63,556.89H733s22.76-32.31,22.84-32.19,4.22,2.91,4.22,2.91S736.76,557.05,737.63,556.89Z"/><path class="cls-6" d="M737.62,590.32V554.89l21.14-30.19,21.14,30.19v35.43Z"/><rect class="cls-34" x="778.17" y="554.89" width="102" height="35.43"/><rect class="cls-36" x="791.68" y="565.41" width="5.2" height="10.47"/><rect class="cls-36" x="809.13" y="565.41" width="5.2" height="10.47"/><rect class="cls-36" x="826.58" y="565.41" width="5.2" height="10.47"/><rect class="cls-36" x="844.02" y="565.41" width="5.2" height="10.47"/><rect class="cls-36" x="861.47" y="565.41" width="5.2" height="10.47"/><polygon class="cls-32" points="755.82 524.7 862.52 524.7 884.88 556.89 778.17 556.89 755.82 524.7"/><path class="cls-32" d="M528.75,500.36v-6.65s-61.85.25-107.82.25l-53.52,30,135.22-2.56Z"/><rect class="cls-34" x="420.94" y="497.91" width="107.82" height="92.4"/><rect class="cls-36" x="447.43" y="514.78" width="12.86" height="10.77"/><rect class="cls-36" x="473.89" y="514.78" width="12.86" height="10.77"/><rect class="cls-36" x="500.36" y="514.78" width="12.86" height="10.77"/><path class="cls-6" d="M420.94,497.91l-47,26-1,66.36h48Z"/><path class="cls-32" d="M560.59,541.08l.41-3.91s-46.45.14-81,.14L438,555l101.68-1.51Z"/><rect class="cls-34" x="480.25" y="541.06" width="78.16" height="49.26"/><rect class="cls-36" x="545.52" y="554.03" width="5.42" height="11.66"/><path class="cls-6" d="M480.25,541.06,446.17,555l-.74,35.37h34.82Z"/><rect class="cls-37" x="454.85" y="577.4" width="9.32" height="12.93"/><rect class="cls-36" x="469.58" y="577.4" width="5.94" height="5.83"/><path class="cls-32" d="M667.85,458.72l24.88,26.14v10.71H576.51v-8.82Z"/><path class="cls-43" d="M692.73,490.75l-26.45-27.31-89.77,27.31V599.19H692.73Z"/><rect class="cls-36" x="599.97" y="505.67" width="12.57" height="11.95"/><rect class="cls-36" x="627.7" y="505.67" width="12.73" height="11.95"/><rect class="cls-36" x="604.22" y="550.33" width="16.65" height="18.28"/><rect class="cls-36" x="642.97" y="550.05" width="28.03" height="49.13"/></g><g id="front-line"><rect class="cls-51" y="589.94" width="1500" height="18.8"/></g></g></g></svg>