<svg xmlns="http://www.w3.org/2000/svg" viewBox="0 0 1500 608.74"><defs><style>.cls-1,.cls-15{fill:#eadabc;}.cls-1,.cls-13,.cls-2,.cls-20,.cls-21,.cls-22,.cls-23,.cls-24,.cls-28,.cls-30,.cls-31,.cls-35,.cls-36,.cls-37,.cls-38,.cls-43,.cls-44,.cls-46,.cls-47,.cls-48,.cls-5,.cls-50,.cls-53,.cls-54,.cls-55,.cls-56,.cls-58,.cls-59,.cls-6,.cls-60,.cls-61,.cls-62,.cls-63,.cls-68,.cls-9{fill-rule:evenodd;}.cls-2{fill:#ede1c9;}.cls-3,.cls-6{fill:#483328;}.cls-4{fill:#caae9c;}.cls-5,.cls-8{fill:#704e45;}.cls-7{fill:#162819;}.cls-10,.cls-9{fill:#aedfe5;}.cls-11,.cls-31{fill:#ddc597;}.cls-12{fill:#bdd2d5;}.cls-13,.cls-14{fill:#944024;}.cls-16,.cls-38{fill:#792107;}.cls-17,.cls-43{fill:#561604;}.cls-18{fill:#b9d1d5;}.cls-19{fill:#9cbec3;}.cls-20{fill:#958e46;}.cls-21{fill:#afa650;}.cls-22,.cls-32{fill:#d4673d;}.cls-23{fill:#906152;}.cls-24,.cls-27{fill:#f4d790;}.cls-25,.cls-28{fill:#a68558;}.cls-26{fill:#89a2a2;}.cls-29{fill:#88a3a5;}.cls-30{fill:#915744;}.cls-33{fill:#86a5aa;}.cls-34,.cls-44{fill:#8a4e2a;}.cls-35,.cls-42{fill:#db9456;}.cls-36{fill:#625e1f;}.cls-37{fill:#a49c42;}.cls-39{fill:#8aa4a0;}.cls-40{fill:#8bb7b5;}.cls-41{fill:#6b7a3b;}.cls-45{fill:#6d9e9a;}.cls-46{fill:#7a7439;}.cls-47{fill:#b0a63f;}.cls-48{fill:#5f5c2e;}.cls-49,.cls-56{fill:#874330;}.cls-50{fill:#b65d3d;}.cls-51,.cls-60{fill:#511605;}.cls-52{fill:#87afab;}.cls-53{fill:#552c16;}.cls-54{fill:#827a27;}.cls-55{fill:#844a37;}.cls-57,.cls-68{fill:#704135;}.cls-58,.cls-67{fill:#601d0a;}.cls-59,.cls-65{fill:#864e40;}.cls-61{fill:#925c44;}.cls-62{fill:#756d24;}.cls-63{fill:#6f3e19;}.cls-64{fill:#657d80;}.cls-66{fill:#709599;}.cls-69{fill:#5e3025;}</style></defs><g id="Layer_2" data-name="Layer 2"><g id="Layer_1-2" data-name="Layer 1"><g id="clouds07"><g id="big-cloud"><path class="cls-1" d="M1198.43,99.72C1180,42.3,1117.44,0,1043.25,0c-61.07,0-96,23.23-123.21,65.42C914,63.23,895.26,61,871.37,68.94c-31.63,10.59-50.48,28.79-50.48,66,0,11.33-.12,14,4.38,23.42C722,119,647.13,166.24,620.06,201.84,607.78,218,607.23,240.75,609,244.1,570.08,211,495.63,226,504.18,284.58c.47,3.13,14.12,13.4,10.66,14.17-13.49,3-150.24,5.4-290.65,21.15-33.38,3.74-73.73,4.5-100.68,34.74-14.3,16-15.11,50.22,3.32,68.74,7.16,7.19,36.45,10.77,47.89,10.67,211-1.84,1172.89-3.92,1206.9-7.29,77.59-7.71,64.3-100,45-121.49-14.62-16.26-30.71-35.74-86.37-37.49-6-.17-11.86,1.24-7.54-1.54,21.94-14.14,2.86-80.6-63.2-63.76-.78.2,0-.7,0-.7C1269.24,153.88,1239.4,113.36,1198.43,99.72Z"/></g><g id="big-cloud1"><path class="cls-2" d="M977.87,141.13C963.31,97.28,914.05,65,855.59,65c-48.13,0-75.67,17.74-97.09,50-4.78-1.67-19.53-3.41-38.35,2.69-24.93,8.09-39.78,22-39.78,50.44,0,8.65-.1,10.72,3.45,17.88-81.4-30.12-140.37,6-161.7,33.18-9.68,12.33-10.11,29.72-8.73,32.27-30.66-25.27-89.32-13.79-82.59,30.91.37,2.4,11.13,10.24,8.4,10.83-10.62,2.27-118.39,4.12-229,16.15-26.3,2.86-58.1,3.43-79.33,26.53-11.27,12.25-11.91,38.35,2.62,52.5,5.64,5.49,28.72,8.22,37.73,8.15,166.29-1.41,924.23-3,951-5.57,61.14-5.89,50.66-76.4,35.47-92.78-11.52-12.42-24.2-27.3-68.06-28.63-4.7-.14-9.35.94-5.94-1.18,17.29-10.8,2.25-61.56-49.8-48.7-.62.16,0-.53,0-.53C1033.67,182.49,1010.16,151.54,977.87,141.13Z"/></g></g><g id="Bus"><g id="Path_288" data-name="Path 288"><path class="cls-3" d="M336.85,562.24l1.58-2.17c0-.16.18-.3.35-.4a1.77,1.77,0,0,1,.71-.12H368a1.83,1.83,0,0,1,.88.12c.35.07.53.22.53.4l1.41,2.17Z"/></g><g id="Path_282" data-name="Path 282"><path class="cls-4" d="M324.13,561.62l88.95-.16c5.24,0,5.63-.43,5.63,4v15.34c0,3,.18,5.83.18,7.48,0,.45.08.53-.18.74a1.35,1.35,0,0,1-.85.11L326.69,589H318.4c-.65,0-.6,0-.9-.3a1.18,1.18,0,0,1-.3-.76V577.34C317.2,572.89,318.89,561.62,324.13,561.62Z"/></g><path class="cls-5" d="M323.81,565.94l1.56-2.76,93.32-.15,0,11.76c-26.44,0-50,.4-76.4.4-6.33,0-17.18,3-24,4.15Z"/><path class="cls-6" d="M332.54,589c0-.3-.05-.61-.05-.92,0-3.88,1.19-7.1,6-7s6,3.15,6,7a7,7,0,0,1-.05.92Z"/><path class="cls-6" d="M383.07,589.12a7.57,7.57,0,0,1-.06-1c0-4,1.43-7.29,7.26-7.21s7.27,3.23,7.27,7.21a7.57,7.57,0,0,1-.06,1Z"/><g id="Ellipse_170" data-name="Ellipse 170"><ellipse class="cls-7" cx="390.27" cy="587.29" rx="6.16" ry="4.16"/></g><g id="Ellipse_171" data-name="Ellipse 171"><ellipse class="cls-7" cx="338.52" cy="587.29" rx="4.4" ry="4.16"/></g><g id="Path_285" data-name="Path 285"><path class="cls-8" d="M318.31,579l21.3-5.57,75.54-.23V563.1l-88.57.06a7.14,7.14,0,0,0-3.17.4c-1.76.9-3.17,4.29-3.87,6.78A66.81,66.81,0,0,0,318.31,579Z"/></g><g id="Rectangle_872" data-name="Rectangle 872"><path class="cls-9" d="M398.93,565.12a1,1,0,0,1,.95-1h12.63a1,1,0,0,1,.94,1v6a.94.94,0,0,1-.94.94H399.88a1,1,0,0,1-.95-.94Z"/></g><g id="Rectangle_873" data-name="Rectangle 873"><path class="cls-9" d="M382.52,565a.87.87,0,0,1,.86-.87h12.09a.86.86,0,0,1,.86.87v6.12a.86.86,0,0,1-.86.87H383.38a.87.87,0,0,1-.86-.87Z"/></g><g id="Rectangle_874" data-name="Rectangle 874"><path class="cls-9" d="M372.11,565.11a.94.94,0,0,1,.94-.94H379a.94.94,0,0,1,.94.94v6a.94.94,0,0,1-.94.94h-5.93a.94.94,0,0,1-.94-.94Z"/></g><g id="Rectangle_875" data-name="Rectangle 875"><path class="cls-9" d="M354.73,564.88a.71.71,0,0,1,.71-.71h13.37a.7.7,0,0,1,.7.71v6.44a.7.7,0,0,1-.7.71H355.44a.71.71,0,0,1-.71-.71Z"/></g><g id="Rectangle_876" data-name="Rectangle 876"><path class="cls-9" d="M342.69,565.12a1,1,0,0,1,.94-1h7.56a1,1,0,0,1,.94,1v6a.94.94,0,0,1-.94.94h-7.56a.94.94,0,0,1-.94-.94Z"/></g><g id="Path_287" data-name="Path 287"><path class="cls-10" d="M330.49,564.88c0-.33.37-.56,1-.56,2.38,0,4.14,0,6.43,0,.41,0,.64.19.64.58,0,2.61,0,4.88,0,7.44l-8.06,2.06S330.33,566.56,330.49,564.88Z"/></g><g id="Path_286" data-name="Path 286"><path class="cls-10" d="M325.11,564.31c.61,0,2.24,0,3.16,0,.4,0,.67.5.67.75,0,3.23.05,6.45.08,9.68L320.14,577a34.19,34.19,0,0,1,1.2-7.48,13.06,13.06,0,0,1,2.08-4.46A2.51,2.51,0,0,1,325.11,564.31Z"/></g></g><g id="_05" data-name=" 05"><rect class="cls-11" x="426.93" y="285.67" width="102.74" height="72.55"/><rect class="cls-12" x="441.16" y="306.17" width="14.15" height="14.47"/><rect class="cls-12" x="470" y="306.17" width="14.15" height="14.47"/><rect class="cls-12" x="441.16" y="330.4" width="14.15" height="14.47"/><rect class="cls-12" x="470" y="330.4" width="14.15" height="14.47"/><rect class="cls-8" x="498.75" y="321.95" width="19.24" height="36.28"/><path class="cls-13" d="M415.3,293.3h126l-21.77-31.17H437.08Z"/><rect class="cls-14" x="499.59" y="251.61" width="12.64" height="14.19"/><rect class="cls-14" x="498.2" y="247.73" width="15.78" height="3.88"/><rect class="cls-11" x="565.77" y="259.47" width="102.74" height="72.55"/><rect class="cls-12" x="579.99" y="279.98" width="14.15" height="14.47"/><rect class="cls-12" x="608.84" y="279.98" width="14.15" height="14.47"/><rect class="cls-12" x="579.99" y="304.21" width="14.15" height="14.47"/><rect class="cls-12" x="608.84" y="304.21" width="14.15" height="14.47"/><rect class="cls-8" x="637.58" y="295.75" width="19.24" height="36.28"/><path class="cls-13" d="M554.14,267.1h126l-21.78-31.17H575.91Z"/><rect class="cls-14" x="638.42" y="225.41" width="12.64" height="14.19"/><rect class="cls-14" x="637.04" y="221.53" width="15.78" height="3.88"/><rect class="cls-15" x="688.05" y="215.58" width="107.16" height="82.64"/><rect class="cls-11" x="787.14" y="215.58" width="72.56" height="82.71"/><rect class="cls-16" x="688.05" y="215.58" width="107.16" height="6.62"/><rect class="cls-17" x="787.14" y="215.58" width="72.56" height="6.62"/><rect class="cls-18" x="760.55" y="242.87" width="11.85" height="16.7"/><rect class="cls-18" x="732.66" y="242.87" width="11.85" height="16.7"/><rect class="cls-18" x="704.74" y="242.87" width="11.85" height="16.7"/><rect class="cls-18" x="760.55" y="271.18" width="11.85" height="16.7"/><rect class="cls-18" x="732.66" y="271.18" width="11.85" height="16.7"/><rect class="cls-18" x="704.74" y="271.18" width="11.85" height="16.7"/><rect class="cls-19" x="838.6" y="240.58" width="10.11" height="16.7"/><rect class="cls-17" x="802.54" y="269.34" width="20.23" height="28.98"/><path class="cls-20" d="M1187,279.6c71.22.56,137.68,52.21,186.73,103.84S1481.88,590,1481.88,590H16.51s118.74-150.7,401.28-214.13C722.08,307.55,1027.67,278.33,1187,279.6Z"/><path class="cls-20" d="M690.45,365.29c-1.61-13.12-18.1-24-33.58-24a34.81,34.81,0,0,0-5.54.43v-.43c0-18.84-12.3-34.14-27.44-34.14-.6,0-1.2,0-1.8.07-10.58-18.65-29.61-31.1-51.31-31.1-28.39,0-52.22,21.34-58.55,50-14.38,3.11-28.62,25.14-26.87,39.15Z"/><g id="yellow-tree"><path class="cls-21" d="M409.43,273.1c11.78.7,18.08,17.89,27.93,29.31a40.38,40.38,0,0,1,10,29.46c-1.54,21.54-11.72,29.78-40.22,28.55-32.61-1.41-38.53-17.51-39.73-32.53s9.25-22.73,12.82-30.41C385.91,285.33,401.2,272.6,409.43,273.1Z"/></g><g id="yellow-tree1"><path class="cls-21" d="M373.37,291.5c9.11.54,14,13.84,21.6,22.67A31.19,31.19,0,0,1,402.73,337c-1.19,16.65-9.06,23-31.11,22.08-25.22-1.09-29.79-13.55-30.73-25.17s7.16-17.57,9.92-23.51C355.18,301,367,291.12,373.37,291.5Z"/></g><path class="cls-21" d="M671.39,251c4-9.5,15.19-8.53,19.93-3.34,13.3,14.53,23.07,118,22,127.86-1.75,16.79-7.13,21-15.39,24.84-4.55,2.1-18.54,3.5-28,1.05-7.11-1.84-14.32-11.9-16.09-23.79C651.45,361.14,655.3,289.62,671.39,251Z"/><path class="cls-13" d="M1021.66,143.08l36.67,39.79H985Z"/><rect class="cls-15" x="911.33" y="202.6" width="79.25" height="57.22"/><polygon class="cls-13" points="924.84 165.77 1021.66 165.77 995.6 209.95 898.78 209.95 924.84 165.77"/><path class="cls-1" d="M1052.74,181l-31.08-30-31.07,30v78.85h62.15Z"/><rect class="cls-12" x="1017.33" y="188.69" width="11.09" height="9.83"/><rect class="cls-14" x="1014.84" y="227.24" width="14.74" height="28.78"/><rect class="cls-12" x="951.99" y="221.98" width="8.61" height="15.95"/><rect class="cls-12" x="972.95" y="221.98" width="8.61" height="15.95"/><rect class="cls-11" x="879.2" y="239.96" width="73.67" height="62.93"/><rect class="cls-18" x="898.42" y="258.96" width="12.85" height="17.39"/><rect class="cls-18" x="916.38" y="258.96" width="28.54" height="17.39"/><path class="cls-22" d="M846.13,205.41l25.54,13.82,1.44,24.18H812.2Z"/><path class="cls-1" d="M879.2,240,849,208.12,819.48,240v62.93H879.2Z"/><rect class="cls-16" x="839.1" y="258.96" width="20.98" height="43.93"/><rect class="cls-18" x="845.1" y="230.25" width="8.97" height="9.7"/><polygon class="cls-13" points="846.13 205.41 921.67 205.41 957.71 243.41 882.17 243.41 846.13 205.41"/><rect class="cls-14" x="899.81" y="196.77" width="13.57" height="24.19"/><path class="cls-22" d="M899.81,196.77h-5.93l-.24,18.51,6.17,5.67Z"/><rect class="cls-11" x="1080.31" y="220.59" width="73.67" height="62.93"/><rect class="cls-18" x="1099.53" y="239.59" width="12.85" height="17.39"/><rect class="cls-18" x="1117.49" y="239.59" width="28.54" height="17.39"/><path class="cls-22" d="M1047.24,186l25.55,13.82,1.44,24.18h-60.92Z"/><path class="cls-1" d="M1080.31,220.59l-30.17-31.84-29.55,31.84v62.93h59.72Z"/><rect class="cls-16" x="1040.21" y="239.59" width="20.98" height="43.93"/><rect class="cls-18" x="1046.22" y="210.89" width="8.97" height="9.7"/><polygon class="cls-13" points="1047.24 186.04 1122.78 186.04 1158.83 224.05 1083.29 224.05 1047.24 186.04"/><rect class="cls-14" x="1100.92" y="177.4" width="13.57" height="24.19"/><path class="cls-22" d="M1100.92,177.4H1095l-.25,18.51,6.17,5.68Z"/><rect class="cls-11" x="1184.59" y="251.87" width="73.67" height="62.93"/><rect class="cls-18" x="1203.81" y="270.88" width="12.85" height="17.39"/><rect class="cls-18" x="1221.77" y="270.88" width="28.54" height="17.39"/><path class="cls-22" d="M1151.52,217.32l25.54,13.82,1.44,24.19h-60.91Z"/><path class="cls-1" d="M1184.59,251.87,1154.42,220l-29.55,31.83V314.8h59.72Z"/><rect class="cls-16" x="1144.49" y="270.88" width="20.98" height="43.93"/><rect class="cls-18" x="1150.49" y="242.17" width="8.97" height="9.7"/><polygon class="cls-13" points="1151.52 217.32 1227.06 217.32 1263.1 255.33 1187.56 255.33 1151.52 217.32"/><rect class="cls-14" x="1205.2" y="208.69" width="13.57" height="24.19"/><path class="cls-22" d="M1205.2,208.69h-5.92l-.25,18.5,6.17,5.68Z"/><rect class="cls-11" x="729.56" y="275.57" width="102.74" height="72.55"/><rect class="cls-12" x="743.79" y="296.07" width="14.15" height="14.47"/><rect class="cls-12" x="772.63" y="296.07" width="14.15" height="14.47"/><rect class="cls-12" x="743.79" y="320.3" width="14.15" height="14.47"/><rect class="cls-12" x="772.63" y="320.3" width="14.15" height="14.47"/><rect class="cls-8" x="801.38" y="311.85" width="19.24" height="36.28"/><path class="cls-13" d="M717.93,283.2h126L822.16,252H739.71Z"/><rect class="cls-14" x="802.22" y="241.51" width="12.64" height="14.19"/><rect class="cls-14" x="800.83" y="237.63" width="15.78" height="3.88"/><g id="yellow-tree2"><path class="cls-21" d="M852.49,265.71c8.09.74,12.41,18.92,19.18,31a58,58,0,0,1,6.89,31.14c-1.06,22.77-8,31.48-27.62,30.18-22.41-1.49-26.47-18.51-27.3-34.39s6.36-24,8.81-32.15C836.33,278.65,846.83,265.19,852.49,265.71Z"/></g><g id="yellow-tree3"><path class="cls-21" d="M1006.67,201.82c7.15.84,11,21.4,17,35.07,3.37,7.71,6.65,19.7,6.09,35.23-.94,25.75-7.12,35.61-24.42,34.13-19.8-1.68-23.39-20.94-24.12-38.9-.74-18.13,5.62-27.18,7.78-36.36C992.39,216.46,1001.67,201.24,1006.67,201.82Z"/></g><g id="yellow-tree4"><path class="cls-21" d="M968.55,194.91c7.15.84,11,21.4,17,35.06,3.37,7.71,6.66,19.7,6.09,35.23-.94,25.75-7.11,35.61-24.41,34.14-19.8-1.68-23.39-20.94-24.13-38.91-.74-18.12,5.62-27.18,7.79-36.36C954.27,209.54,963.55,194.32,968.55,194.91Z"/><path class="cls-23" d="M966.94,324.76s-.27-5,.64-17.74c1-13.59,1.94-17.4,1.36-17.35a34.91,34.91,0,0,1-8.1-7.42c-4.47-5.46-6-13.5-6-13.85,2.79,4,4.87,8.77,8.56,11.63,2.19,1.7,3.23,2.23,6.16,2.27,0,0-1.72-13.35-3.72-26.69-2.12-14.19-1.17-26.54-1-26.71.39-.31,5.39,37.53,7.82,35.46,2.79-2.36,9.76-23.48,9.76-23.48a90.44,90.44,0,0,1-2.63,15.7c-1.28,4.43-4.57,10.4-6.64,14.31,0,0,.85,19.57.39,38.28a109.08,109.08,0,0,0,.74,15.1,14.25,14.25,0,0,1-3.22,1A25.48,25.48,0,0,1,966.94,324.76Z"/></g><path class="cls-22" d="M434.08,357.94h-5.14s25.12-35.64,25.2-35.51,4.66,3.2,4.66,3.2S433.11,358.12,434.08,357.94Z"/><path class="cls-24" d="M434.07,394.83V355.74l23.32-33.31,23.32,33.31v39.09Z"/><rect class="cls-25" x="478.81" y="355.74" width="112.54" height="39.09"/><rect class="cls-26" x="493.71" y="367.35" width="5.74" height="11.55"/><rect class="cls-26" x="512.96" y="367.35" width="5.74" height="11.55"/><rect class="cls-26" x="532.21" y="367.35" width="5.74" height="11.55"/><rect class="cls-26" x="551.46" y="367.35" width="5.74" height="11.55"/><rect class="cls-26" x="570.71" y="367.35" width="5.74" height="11.55"/><polygon class="cls-13" points="454.14 322.43 571.87 322.43 596.53 357.94 478.81 357.94 454.14 322.43"/><rect class="cls-27" x="547.19" y="340.95" width="88.33" height="76.73"/><path class="cls-13" d="M688.41,344.69h7.21l-29.15-36.06-7.05,4.18Z"/><path class="cls-28" d="M662,310.1,635.52,341v76.73h52.9V340.25Z"/><polygon class="cls-22" points="666.47 308.63 571.66 308.63 540.72 344.69 635.52 344.69 666.47 308.63"/><rect class="cls-12" x="604.59" y="360.77" width="9.77" height="13.77"/><rect class="cls-12" x="563.42" y="360.77" width="9.77" height="13.77"/><rect class="cls-12" x="604.59" y="383.06" width="9.77" height="13.77"/><rect class="cls-29" x="660.87" y="341.51" width="8.34" height="13.77"/><rect class="cls-17" x="654.07" y="384.52" width="16.67" height="33.22"/><path class="cls-21" d="M705.87,241.45c3.34-8,12.83-7.2,16.83-2.82,11.22,12.27,19.47,99.58,18.6,107.93-1.47,14.18-6,17.75-13,21-3.84,1.77-15.65,3-23.62.88-6-1.55-12.09-10-13.58-20.08C689,334.46,692.29,274.09,705.87,241.45Z"/><path class="cls-30" d="M710.59,401.78c0-.37.89-48.13.89-48.13l-8-6.5v-2.06l8.86,5.31.88-44.88h1.48l1.77,15.65,5.9-2.36.3,1.47-4.43,3.25.3,29.23,6.79-2.36.29,2.36-6.79,4.43v44.59S710.58,402.15,710.59,401.78Z"/><rect class="cls-15" x="895.68" y="267.35" width="89.33" height="80.11"/><path class="cls-31" d="M983.89,267.36h39.45l-.15,80.1h-39.3Z"/><rect class="cls-32" x="895.68" y="267.36" width="88.24" height="5.74"/><rect class="cls-14" x="983.92" y="267.36" width="39.39" height="5.74"/><rect class="cls-33" x="988.93" y="280.31" width="9.99" height="11.45"/><rect class="cls-12" x="903.69" y="280.31" width="13.47" height="14.88"/><rect class="cls-32" x="953.1" y="323.09" width="15.51" height="23.36"/><rect class="cls-12" x="925.12" y="280.46" width="30.54" height="14.68"/><path class="cls-24" d="M764.72,351.72,727,323.32l-38.5,28.52v110h76.25Z"/><polygon class="cls-13" points="726.97 294.25 726.97 323.66 764.72 351.72 764.72 322.3 726.97 294.25"/><polygon class="cls-22" points="726.97 294.24 726.97 323.66 688.31 352.4 688.31 322.98 726.97 294.24"/><rect class="cls-18" x="719.45" y="386.35" width="17.49" height="18.13"/><rect class="cls-18" x="719.45" y="358.4" width="17.49" height="18.13"/><rect class="cls-18" x="719.45" y="414.31" width="17.49" height="18.13"/><path class="cls-24" d="M839.45,350l-37.36-28.11L764,350.15V459h75.48Z"/><polygon class="cls-13" points="802.09 293.14 802.09 322.26 839.46 350.03 839.46 320.91 802.09 293.14"/><polygon class="cls-22" points="802.09 293.14 802.09 322.25 763.81 350.7 763.81 321.58 802.09 293.14"/><rect class="cls-18" x="794.64" y="384.31" width="17.31" height="17.94"/><rect class="cls-18" x="794.64" y="356.64" width="17.31" height="17.94"/><rect class="cls-18" x="794.64" y="411.98" width="17.31" height="17.94"/><path class="cls-13" d="M1308.77,248.52l36.67,39.79H1272.1Z"/><rect class="cls-27" x="1198.44" y="308.05" width="79.25" height="57.22"/><polygon class="cls-13" points="1211.94 271.21 1308.77 271.21 1282.71 315.39 1185.88 315.39 1211.94 271.21"/><path class="cls-24" d="M1339.84,286.41l-31.07-30-31.08,30v78.86h62.15Z"/><rect class="cls-12" x="1304.43" y="294.13" width="11.09" height="9.83"/><rect class="cls-14" x="1301.95" y="332.69" width="14.74" height="28.78"/><rect class="cls-12" x="1239.1" y="327.43" width="8.61" height="15.95"/><rect class="cls-12" x="1260.05" y="327.43" width="8.61" height="15.95"/><rect class="cls-34" x="339.1" y="379.96" width="73.67" height="62.93"/><rect class="cls-18" x="358.32" y="398.96" width="12.85" height="17.39"/><rect class="cls-18" x="376.28" y="398.96" width="28.54" height="17.39"/><path class="cls-22" d="M306,345.41l25.55,13.82L333,383.41H272.1Z"/><path class="cls-35" d="M339.1,380l-30.17-31.84L279.38,380v62.93H339.1Z"/><rect class="cls-16" x="299" y="398.96" width="20.98" height="43.93"/><rect class="cls-18" x="305.01" y="370.25" width="8.97" height="9.7"/><polygon class="cls-13" points="306.03 345.41 381.57 345.41 417.62 383.41 342.07 383.41 306.03 345.41"/><rect class="cls-14" x="359.71" y="336.77" width="13.57" height="24.19"/><path class="cls-22" d="M359.71,336.77h-5.92l-.25,18.51,6.17,5.67Z"/><path class="cls-36" d="M781.5,412.61c-1-7.85-11.45-14.33-21.24-14.33a23.77,23.77,0,0,0-3.51.26,2.26,2.26,0,0,0,0-.26c0-11.27-7.78-20.41-17.36-20.41-.39,0-.77,0-1.14,0a37.91,37.91,0,0,0-32.47-18.6c-18,0-33,12.76-37,29.89-9.1,1.86-18.11,15-17,23.41L749.24,472Z"/><g id="yellow-tree5"><path class="cls-37" d="M263.55,321.86c7.36.68,11.3,17.22,17.46,28.21a53,53,0,0,1,6.27,28.35c-1,20.72-7.33,28.65-25.14,27.47-20.39-1.36-24.09-16.85-24.85-31.31s5.79-21.86,8-29.25C248.84,333.64,258.4,321.39,263.55,321.86Z"/><path class="cls-23" d="M261.89,426.34s-.28-4,.66-14.27c1-10.94,2-14,1.4-14a35.25,35.25,0,0,1-8.34-6A23.88,23.88,0,0,1,249.45,381c2.88,3.17,5,7.05,8.82,9.35a9.89,9.89,0,0,0,6.34,1.82s-1.77-10.73-3.83-21.47c-2.18-11.41-1.2-21.35-1-21.49.4-.25,5.55,30.2,8.06,28.54,2.86-1.9,10-18.9,10-18.9a58.91,58.91,0,0,1-2.71,12.63c-1.32,3.57-4.71,8.37-6.84,11.52,0,0,.88,15.74.4,30.8a68.44,68.44,0,0,0,.76,12.15,18,18,0,0,1-3.32.78A34,34,0,0,1,261.89,426.34Z"/></g><path class="cls-24" d="M453.68,384.49,419.4,361.71l-35,22.88v88.24h69.25Z"/><polygon class="cls-13" points="419.4 338.38 419.4 361.98 453.68 384.49 453.68 360.89 419.4 338.38"/><polygon class="cls-22" points="419.4 338.38 419.4 361.98 384.28 385.03 384.28 361.43 419.4 338.38"/><rect class="cls-18" x="398.28" y="412.77" width="14.87" height="14.54"/><rect class="cls-18" x="398.28" y="390.34" width="14.87" height="14.54"/><g id="yellow-tree6"><path class="cls-21" d="M1212.16,258.08c8.09.74,12.42,18.91,19.18,31a58.08,58.08,0,0,1,6.9,31.15c-1.07,22.76-8,31.48-27.63,30.18-22.4-1.49-26.47-18.51-27.3-34.4s6.36-24,8.81-32.14C1196,271,1206.5,257.56,1212.16,258.08Z"/></g><g id="yellow-tree7"><path class="cls-21" d="M922.42,310.37c8.09.74,12.42,18.91,19.18,31a58.17,58.17,0,0,1,6.9,31.15c-1.07,22.76-8.06,31.48-27.63,30.18-22.4-1.49-26.47-18.52-27.3-34.4s6.36-24,8.81-32.14C906.26,323.3,916.76,309.85,922.42,310.37Z"/></g><path class="cls-38" d="M1171.32,269.09l0-7.81s-72.62.29-126.58.29l-62.84,35.21,158.75-3Z"/><rect class="cls-11" x="1044.76" y="266.21" width="126.58" height="108.47"/><rect class="cls-39" x="1075.85" y="286.02" width="15.1" height="12.65"/><rect class="cls-39" x="1106.92" y="286.02" width="15.1" height="12.65"/><rect class="cls-39" x="1138" y="286.02" width="15.1" height="12.65"/><path class="cls-1" d="M1044.76,266.21l-55.2,30.57-1.2,77.91h56.4Z"/><path class="cls-38" d="M1208.7,316.89l.49-4.59s-54.53.17-95,.17l-49.31,20.7,119.37-1.77Z"/><rect class="cls-11" x="1114.39" y="316.87" width="91.76" height="57.83"/><rect class="cls-40" x="1191.01" y="332.1" width="6.37" height="13.69"/><path class="cls-1" d="M1114.39,316.87l-40,16.3-.87,41.53h40.88Z"/><rect class="cls-16" x="1084.57" y="359.53" width="10.94" height="15.18"/><path class="cls-38" d="M1104,352.47v26.29h-91.64l0-4Z"/><path class="cls-24" d="M1104,358.48l-91.76,20.28-.42,81.29H1104Z"/><rect class="cls-40" x="1027.85" y="391.63" width="7.59" height="20.69"/><rect class="cls-12" x="1061.45" y="409" width="12.01" height="10.24"/><rect class="cls-12" x="1061.45" y="384.6" width="12.01" height="10.24"/><rect class="cls-8" x="1083.5" y="432.95" width="11.65" height="10.24"/><rect class="cls-11" x="1142.42" y="400.08" width="73.67" height="62.93"/><rect class="cls-18" x="1161.64" y="419.08" width="12.85" height="17.39"/><rect class="cls-18" x="1179.59" y="419.08" width="28.54" height="17.39"/><path class="cls-22" d="M1109.35,365.53l25.54,13.82,1.44,24.18h-60.92Z"/><path class="cls-1" d="M1142.42,400.08l-30.17-31.84-29.56,31.84V463h59.73Z"/><rect class="cls-16" x="1102.31" y="419.08" width="20.98" height="43.93"/><rect class="cls-18" x="1108.32" y="390.38" width="8.97" height="9.7"/><polygon class="cls-13" points="1109.35 365.53 1184.89 365.53 1220.93 403.54 1145.39 403.54 1109.35 365.53"/><rect class="cls-14" x="1163.02" y="356.89" width="13.57" height="24.19"/><path class="cls-22" d="M1163,356.89h-5.92l-.25,18.51,6.17,5.68Z"/><g id="yellow-tree8"><path class="cls-37" d="M1219.57,292.94c8.74.8,13.41,20.45,20.73,33.51a62.84,62.84,0,0,1,7.45,33.66c-1.15,24.61-8.7,34-29.86,32.62-24.22-1.61-28.61-20-29.51-37.17-.9-17.33,6.88-26,9.53-34.75C1202.1,306.93,1213.45,292.38,1219.57,292.94Z"/><path class="cls-30" d="M1217.6,414.15s-.33-4.75.78-17c1.18-13,2.37-16.62,1.67-16.57a41.4,41.4,0,0,1-9.91-7.09,28.36,28.36,0,0,1-7.32-13.23c3.42,3.77,6,8.37,10.48,11.11a11.8,11.8,0,0,0,7.52,2.16s-2.1-12.75-4.54-25.5c-2.59-13.56-1.43-25.36-1.17-25.52.47-.3,6.58,35.86,9.56,33.89,3.4-2.26,11.93-22.45,11.93-22.45a69.2,69.2,0,0,1-3.22,15c-1.56,4.24-5.58,9.93-8.12,13.67,0,0,1,18.7.49,36.58a80.12,80.12,0,0,0,.9,14.43,21.43,21.43,0,0,1-4,.93A40.76,40.76,0,0,1,1217.6,414.15Z"/></g><path class="cls-20" d="M266.29,443.77c-1.6-13.12-18.1-24-33.58-24a36,36,0,0,0-5.54.43c0-.14,0-.28,0-.43,0-18.84-12.3-34.14-27.44-34.14-.61,0-1.21,0-1.8.07-10.59-18.65-29.62-31.1-51.31-31.1-28.4,0-52.23,21.34-58.55,50-14.39,3.11-28.63,25.14-26.88,39.15Z"/><path class="cls-24" d="M919.23,348.69l-39.8-29.94-40.59,30.07v65.94h80.39Z"/><polygon class="cls-13" points="879.43 288.1 879.43 319.11 919.23 348.69 919.23 317.68 879.43 288.1"/><polygon class="cls-22" points="879.43 288.1 879.43 319.11 838.67 349.4 838.67 318.39 879.43 288.1"/><rect class="cls-18" x="853.97" y="385.85" width="10.64" height="19.11"/><rect class="cls-18" x="853.97" y="356.38" width="10.64" height="19.11"/><rect class="cls-18" x="874.35" y="385.29" width="10.64" height="19.11"/><rect class="cls-18" x="874.35" y="355.83" width="10.64" height="19.11"/><rect class="cls-18" x="894.25" y="385.85" width="10.64" height="19.11"/><rect class="cls-18" x="894.25" y="356.38" width="10.64" height="19.11"/><path class="cls-13" d="M1011,320.92l36.67,39.79H974.35Z"/><rect class="cls-27" x="900.69" y="380.44" width="79.25" height="57.22"/><polygon class="cls-13" points="914.2 343.61 1011.02 343.61 984.96 387.79 888.13 387.79 914.2 343.61"/><path class="cls-24" d="M1042.1,358.81l-31.08-30-31.08,30v78.85h62.16Z"/><rect class="cls-12" x="1006.68" y="366.52" width="11.09" height="9.83"/><rect class="cls-14" x="1004.2" y="405.08" width="14.74" height="28.78"/><rect class="cls-12" x="941.35" y="399.82" width="8.61" height="15.95"/><rect class="cls-12" x="962.3" y="399.82" width="8.61" height="15.95"/><rect class="cls-41" x="92.23" y="493.38" width="1281.5" height="102.17"/><rect class="cls-42" x="877.99" y="431.9" width="107.16" height="82.64"/><rect class="cls-34" x="977.08" y="431.9" width="72.56" height="82.71"/><rect class="cls-16" x="878" y="431.9" width="107.16" height="6.62"/><rect class="cls-17" x="977.08" y="431.9" width="72.56" height="6.62"/><rect class="cls-18" x="950.5" y="459.2" width="11.85" height="16.7"/><rect class="cls-18" x="922.6" y="459.2" width="11.85" height="16.7"/><rect class="cls-18" x="894.69" y="459.2" width="11.85" height="16.7"/><rect class="cls-18" x="950.5" y="487.5" width="11.85" height="16.7"/><rect class="cls-18" x="922.6" y="487.5" width="11.85" height="16.7"/><rect class="cls-18" x="894.69" y="487.5" width="11.85" height="16.7"/><rect class="cls-19" x="1028.54" y="456.9" width="10.11" height="16.7"/><rect class="cls-17" x="992.48" y="485.67" width="20.23" height="28.98"/><rect class="cls-42" x="750.9" y="442.19" width="120.34" height="104.53"/><path class="cls-43" d="M943.3,447.28h9.81L913.4,398.17l-9.61,5.69Z"/><path class="cls-44" d="M907.28,400.17l-36,42V546.72h72.07V441.24Z"/><polygon class="cls-38" points="913.4 398.17 784.25 398.17 742.09 447.28 871.24 447.28 913.4 398.17"/><rect class="cls-18" x="835.75" y="469.19" width="13.3" height="18.76"/><rect class="cls-18" x="804.43" y="469.19" width="13.3" height="18.76"/><rect class="cls-18" x="773.08" y="469.19" width="13.3" height="18.76"/><rect class="cls-45" x="814.31" y="500.97" width="47.26" height="35.56"/><rect class="cls-45" x="779.73" y="500.97" width="27.99" height="35.56"/><rect class="cls-18" x="773.08" y="500.97" width="13.3" height="18.76"/><rect class="cls-19" x="902.18" y="439.58" width="11.36" height="18.76"/><rect class="cls-19" x="902.18" y="469.37" width="11.36" height="18.76"/><rect class="cls-16" x="896.51" y="501.55" width="22.72" height="45.26"/><path class="cls-46" d="M577.45,444.34c-1-8.16-10.75-14.91-19.94-14.91a19.92,19.92,0,0,0-3.29.27,2.44,2.44,0,0,0,0-.27c0-11.72-7.3-21.23-16.29-21.23-.36,0-.72,0-1.07,0-6.28-11.6-17.58-19.35-30.45-19.35-16.86,0-31,13.28-34.76,31.1-8.54,1.93-17,15.64-16,24.35Z"/><path class="cls-38" d="M1003.94,455.94l0-8.38s69.72.31,121.54.31l60.33,37.75-152.42-3.22Z"/><rect class="cls-42" x="1003.92" y="452.85" width="121.53" height="116.29"/><rect class="cls-18" x="1081.11" y="474.08" width="14.49" height="13.56"/><rect class="cls-18" x="1051.28" y="474.08" width="14.49" height="13.56"/><rect class="cls-18" x="1021.44" y="474.08" width="14.49" height="13.56"/><path class="cls-44" d="M1125.46,452.85l53,32.77,1.16,83.51h-54.15Z"/><path class="cls-22" d="M135.85,418.5h-5.13s25.12-35.64,25.19-35.51,4.67,3.2,4.67,3.2S134.89,418.68,135.85,418.5Z"/><path class="cls-24" d="M135.84,455.39v-39.1L159.16,383l23.33,33.3v39.1Z"/><rect class="cls-25" x="180.58" y="416.3" width="112.54" height="39.09"/><rect class="cls-26" x="195.48" y="427.91" width="5.74" height="11.55"/><rect class="cls-26" x="214.73" y="427.91" width="5.74" height="11.55"/><rect class="cls-26" x="233.98" y="427.91" width="5.74" height="11.55"/><rect class="cls-26" x="253.23" y="427.91" width="5.74" height="11.55"/><rect class="cls-26" x="272.48" y="427.91" width="5.74" height="11.55"/><polygon class="cls-13" points="155.92 382.99 273.64 382.99 298.31 418.5 180.58 418.5 155.92 382.99"/><path class="cls-22" d="M1232.72,360.53h-5.13s25.11-35.65,25.19-35.52,4.66,3.21,4.66,3.21S1231.75,360.7,1232.72,360.53Z"/><path class="cls-24" d="M1232.71,397.41V358.32L1256,325l23.32,33.31v39.09Z"/><rect class="cls-25" x="1277.45" y="358.32" width="112.54" height="39.09"/><rect class="cls-26" x="1292.35" y="369.93" width="5.74" height="11.55"/><rect class="cls-26" x="1311.6" y="369.93" width="5.74" height="11.55"/><rect class="cls-26" x="1330.85" y="369.93" width="5.74" height="11.55"/><rect class="cls-26" x="1350.1" y="369.93" width="5.74" height="11.55"/><rect class="cls-26" x="1369.35" y="369.93" width="5.74" height="11.55"/><polygon class="cls-13" points="1252.79 325.01 1370.51 325.01 1395.18 360.53 1277.45 360.53 1252.79 325.01"/><path class="cls-47" d="M374.91,466.72c-1-8-11-14.67-20.33-14.67a20.56,20.56,0,0,0-3.35.27v-.27c0-11.52-7.44-20.88-16.61-20.88-.36,0-.73,0-1.08,0-6.41-11.41-17.93-19-31.07-19-17.18,0-31.61,13.05-35.44,30.58-8.7,1.9-17.32,15.38-16.26,24Z"/><path class="cls-48" d="M923.62,542.45c-.81-7.27-9.23-13.28-17.14-13.28a16.55,16.55,0,0,0-2.83.25,2,2,0,0,0,0-.25c0-10.42-6.28-18.89-14-18.89-.31,0-.62,0-.92,0-5.41-10.32-15.12-17.22-26.2-17.22-14.49,0-26.66,11.82-29.89,27.68-7.34,1.72-14.61,13.91-13.72,21.67Z"/><path class="cls-48" d="M175.6,593.84c-.82-6.45-9.24-11.78-17.15-11.78a19,19,0,0,0-2.83.21,1.48,1.48,0,0,0,0-.21c0-9.25-6.28-16.77-14-16.77-.31,0-.62,0-.92,0a30.47,30.47,0,0,0-26.2-15.28c-14.49,0-26.66,10.48-29.89,24.56C77.27,576.13,70,587,70.9,593.84Z"/><path class="cls-38" d="M739.82,409.44l0-7.82s-72.61.29-126.58.29l-62.84,35.21,158.75-3Z"/><rect class="cls-49" x="613.26" y="406.55" width="126.58" height="108.47"/><rect class="cls-39" x="644.35" y="426.36" width="15.1" height="12.65"/><rect class="cls-39" x="675.42" y="426.36" width="15.1" height="12.65"/><rect class="cls-39" x="706.5" y="426.36" width="15.1" height="12.65"/><path class="cls-50" d="M613.26,406.55l-55.19,30.57L556.86,515h56.4Z"/><path class="cls-38" d="M777.2,457.23l.49-4.59s-54.53.17-95.05.17l-49.31,20.7,119.37-1.77Z"/><rect class="cls-49" x="682.89" y="457.21" width="91.76" height="57.83"/><rect class="cls-40" x="759.51" y="472.44" width="6.37" height="13.69"/><path class="cls-50" d="M682.89,457.21l-40,16.3L642,515h40.88Z"/><rect class="cls-16" x="653.07" y="499.87" width="10.94" height="15.18"/><rect class="cls-40" x="670.36" y="499.87" width="6.98" height="6.84"/><rect class="cls-42" x="422.51" y="382.1" width="107.16" height="82.64"/><rect class="cls-34" x="521.6" y="382.1" width="72.56" height="82.71"/><rect class="cls-16" x="422.51" y="382.1" width="107.16" height="6.62"/><rect class="cls-17" x="521.6" y="382.1" width="72.56" height="6.62"/><rect class="cls-18" x="495.01" y="409.4" width="11.85" height="16.7"/><rect class="cls-18" x="467.12" y="409.4" width="11.85" height="16.7"/><rect class="cls-18" x="439.2" y="409.4" width="11.85" height="16.7"/><rect class="cls-18" x="495.01" y="437.7" width="11.85" height="16.7"/><rect class="cls-18" x="467.12" y="437.7" width="11.85" height="16.7"/><rect class="cls-18" x="439.2" y="437.7" width="11.85" height="16.7"/><rect class="cls-19" x="573.06" y="407.1" width="10.11" height="16.7"/><rect class="cls-17" x="537" y="435.87" width="20.23" height="28.98"/><path class="cls-38" d="M584.4,501.48h-5.13s25.12-35.64,25.2-35.51,4.66,3.21,4.66,3.21S583.44,501.66,584.4,501.48Z"/><path class="cls-50" d="M584.4,538.37V499.28L607.72,466,631,499.28v39.09Z"/><rect class="cls-49" x="629.13" y="499.28" width="112.54" height="39.09"/><rect class="cls-26" x="644.03" y="510.89" width="5.74" height="11.55"/><rect class="cls-26" x="663.28" y="510.89" width="5.74" height="11.55"/><rect class="cls-26" x="682.53" y="510.89" width="5.74" height="11.55"/><rect class="cls-26" x="701.78" y="510.89" width="5.74" height="11.55"/><rect class="cls-26" x="721.03" y="510.89" width="5.74" height="11.55"/><polygon class="cls-43" points="604.47 465.97 722.2 465.97 746.86 501.48 629.13 501.48 604.47 465.97"/><path class="cls-36" d="M1428.13,418.5c-.9-6.86-10.16-12.54-18.85-12.54a21.18,21.18,0,0,0-3.11.23V406c0-9.85-6.91-17.85-15.41-17.85-.34,0-.67,0-1,0a33.7,33.7,0,0,0-61.69,9.88C1320,399.65,1312,411.18,1313,418.5Z"/><rect class="cls-34" x="1374.18" y="386.03" width="72.82" height="73.62"/><rect class="cls-42" x="1336.76" y="386.03" width="56.06" height="74.5"/><rect class="cls-51" x="1372.46" y="447.88" width="15.2" height="11.77"/><rect class="cls-52" x="1374.19" y="398.65" width="13.47" height="13.28"/><rect class="cls-45" x="1410.6" y="398.65" width="9.32" height="13.28"/><rect class="cls-14" x="1392.83" y="382.27" width="54.17" height="4.27"/><rect class="cls-32" x="1336.76" y="382.27" width="56.06" height="4.27"/><g id="yellow-tree9"><path class="cls-37" d="M1427.19,380.52c9.79.88,15.07,22.88,23.29,37.49,4.63,8.25,9.15,21.07,8.41,37.69-1.24,27.57-9.68,38.13-33.39,36.6-27.12-1.75-32.08-22.36-33.12-41.58-1.05-19.4,7.65-29.11,10.6-38.94C1407.65,396.22,1420.34,379.9,1427.19,380.52Z"/><path class="cls-30" d="M1425.23,519.51s-.38-5.31.84-19c1.3-14.55,2.62-18.63,1.83-18.57a46.71,46.71,0,0,1-11.11-7.92,31.78,31.78,0,0,1-8.22-14.81c3.83,4.22,6.69,9.37,11.75,12.43a13.24,13.24,0,0,0,8.44,2.4s-2.38-14.28-5.14-28.55c-2.93-15.18-1.65-28.41-1.36-28.59.53-.33,7.45,40.16,10.77,37.94,3.81-2.53,13.33-25.16,13.33-25.16a77.64,77.64,0,0,1-3.58,16.81c-1.74,4.75-6.24,11.14-9.07,15.34,0,0,1.21,20.94.62,41a90.05,90.05,0,0,0,1,16.16,23.9,23.9,0,0,1-4.42,1A43.71,43.71,0,0,1,1425.23,519.51Z"/></g><rect class="cls-42" x="1151.14" y="430.66" width="127.44" height="110.7"/><path class="cls-13" d="M1354.89,436.05h10.4l-42.06-52-10.17,6Z"/><path class="cls-44" d="M1316.75,386.15l-38.17,44.51V541.35h76.33V429.65Z"/><polygon class="cls-22" points="1323.23 384.03 1186.46 384.03 1141.81 436.05 1278.58 436.05 1323.23 384.03"/><rect class="cls-18" x="1241.01" y="459.24" width="14.09" height="19.87"/><rect class="cls-18" x="1207.83" y="459.24" width="14.09" height="19.87"/><rect class="cls-18" x="1174.63" y="459.24" width="14.09" height="19.87"/><rect class="cls-18" x="1241.01" y="492.9" width="14.09" height="19.87"/><rect class="cls-18" x="1207.83" y="492.9" width="14.09" height="19.87"/><rect class="cls-18" x="1174.63" y="492.9" width="14.09" height="19.87"/><rect class="cls-19" x="1311.36" y="427.89" width="12.03" height="19.87"/><rect class="cls-19" x="1311.36" y="459.43" width="12.03" height="19.87"/><rect class="cls-19" x="1305.35" y="493.52" width="24.06" height="47.93"/><path class="cls-36" d="M1237.31,444.47c2.68-6.44,10.3-5.78,13.51-2.27,9,9.85,15.64,80,14.94,86.68-1.18,11.38-4.83,14.25-10.43,16.83-3.08,1.43-12.57,2.37-19,.71-4.82-1.25-9.71-8.06-10.91-16.12C1223.79,519.16,1226.4,470.68,1237.31,444.47Z"/><path class="cls-53" d="M1241.1,573.22c0-.3.71-38.65.71-38.65l-6.4-5.22v-1.66l7.11,4.27.72-36h1.18l1.42,12.57,4.75-1.9.23,1.18-3.55,2.61.23,23.48L1253,532l.23,1.9-5.45,3.55v35.81S1241.09,573.51,1241.1,573.22Z"/><path class="cls-37" d="M1134.18,565.35c-1-7.79-11.45-14.24-21.25-14.24a23.73,23.73,0,0,0-3.5.26v-.26c0-11.19-7.78-20.28-17.36-20.28-.38,0-.76,0-1.14,0a37.88,37.88,0,0,0-69.52,11.22c-9.1,1.85-18.11,14.93-17,23.25Z"/><path class="cls-35" d="M1418.7,501.21l-39.8-29.93-40.59,30.06v65.95h80.39Z"/><polygon class="cls-13" points="1378.9 440.62 1378.9 471.63 1418.7 501.21 1418.7 470.2 1378.9 440.62"/><polygon class="cls-22" points="1378.9 440.62 1378.9 471.63 1338.14 501.93 1338.14 470.92 1378.9 440.62"/><rect class="cls-18" x="1353.44" y="538.37" width="10.64" height="19.11"/><rect class="cls-18" x="1353.44" y="508.9" width="10.64" height="19.11"/><rect class="cls-18" x="1373.82" y="537.82" width="10.64" height="19.11"/><rect class="cls-18" x="1373.82" y="508.35" width="10.64" height="19.11"/><rect class="cls-18" x="1393.72" y="538.37" width="10.64" height="19.11"/><rect class="cls-18" x="1393.72" y="508.9" width="10.64" height="19.11"/><path class="cls-22" d="M278.63,464.05H273.5s25.12-35.65,25.2-35.52,4.66,3.21,4.66,3.21S277.67,464.22,278.63,464.05Z"/><path class="cls-24" d="M278.63,500.93V461.84L302,428.53l23.32,33.31v39.09Z"/><rect class="cls-25" x="323.36" y="461.84" width="112.54" height="39.09"/><rect class="cls-26" x="338.26" y="473.45" width="5.74" height="11.55"/><rect class="cls-26" x="357.51" y="473.45" width="5.74" height="11.55"/><rect class="cls-26" x="376.76" y="473.45" width="5.74" height="11.55"/><rect class="cls-26" x="396.01" y="473.45" width="5.74" height="11.55"/><rect class="cls-26" x="415.26" y="473.45" width="5.74" height="11.55"/><polygon class="cls-13" points="298.7 428.53 416.43 428.53 441.09 464.05 323.36 464.05 298.7 428.53"/><path class="cls-35" d="M564.16,467.59l-39.79-29.94-40.59,30.07v65.94h80.38Z"/><polygon class="cls-13" points="524.37 407 524.37 438.01 564.16 467.59 564.16 436.58 524.37 407"/><polygon class="cls-22" points="524.37 407 524.37 438.01 483.61 468.3 483.61 437.29 524.37 407"/><rect class="cls-18" x="539.18" y="504.75" width="10.64" height="19.11"/><rect class="cls-18" x="539.18" y="475.28" width="10.64" height="19.11"/><path class="cls-35" d="M484.49,468.21,444.7,438.27l-40.59,30.07v65.94h80.38Z"/><polygon class="cls-13" points="444.7 407.62 444.7 438.63 484.5 468.21 484.5 437.19 444.7 407.62"/><polygon class="cls-22" points="444.7 407.62 444.7 438.63 403.94 468.92 403.94 437.91 444.7 407.62"/><rect class="cls-18" x="459.52" y="505.37" width="10.64" height="19.11"/><rect class="cls-18" x="459.52" y="475.9" width="10.64" height="19.11"/><path class="cls-37" d="M387.52,569.31c-1-7.8-11.45-14.25-21.25-14.25a23.77,23.77,0,0,0-3.51.26,2.17,2.17,0,0,0,0-.26c0-11.19-7.79-20.28-17.37-20.28-.38,0-.76,0-1.14.05a37.88,37.88,0,0,0-69.52,11.22c-9.1,1.85-18.11,14.93-17,23.26Z"/><path class="cls-48" d="M624.19,548.76c-1.08-7.66-12.21-14-22.65-14a28.76,28.76,0,0,0-3.74.25,2,2,0,0,0,0-.25c0-11-8.3-19.94-18.51-19.94-.41,0-.81,0-1.21,0a41.23,41.23,0,0,0-34.61-18.17c-19.15,0-35.23,12.46-39.49,29.2-9.7,1.81-19.31,14.68-18.13,22.86Z"/><path class="cls-48" d="M279.77,545.13C281,537.07,293.52,522,305.39,522a32.83,32.83,0,0,1,4.24.27V522c0-11.57,13.94-16,25.54-16,.46,0,.92,0,1.38.05,2.63-12.89,18.67-18.21,35.29-18.21,21.75,0,39.5,7.21,44.34,24.81,11,1.91,22,23.86,20.7,32.47Z"/><path class="cls-37" d="M823.77,417.29c3.49-8.38,13.42-7.52,17.61-2.94,11.74,12.83,20.38,104.18,19.47,112.92-1.55,14.83-6.3,18.57-13.6,21.94-4,1.85-16.37,3.09-24.71.92-6.28-1.62-12.65-10.5-14.21-21C806.17,514.61,809.56,451.44,823.77,417.29Z"/><path class="cls-30" d="M828.72,585c0-.38.92-50.35.92-50.35l-8.34-6.8v-2.16l9.27,5.56.93-47H833l1.86,16.38,6.17-2.48.31,1.55-4.63,3.4.31,30.58,7.1-2.47.31,2.47-7.1,4.63V585S828.71,585.43,828.72,585Z"/><g id="yellow-tree10"><path class="cls-54" d="M583.41,441.81c8.69.79,13.34,20.32,20.61,33.3,4.1,7.33,8.09,18.72,7.41,33.47C610.29,533,602.78,542.4,581.74,541c-24.07-1.6-28.44-19.9-29.33-37-.9-17.22,6.83-25.82,9.47-34.54C566.05,455.71,577.33,441.25,583.41,441.81Z"/><path class="cls-30" d="M581.45,565.16s-.33-4.72.78-16.86c1.17-12.91,2.36-16.53,1.66-16.48a41.12,41.12,0,0,1-9.85-7,28.13,28.13,0,0,1-7.27-13.16c3.39,3.75,5.91,8.33,10.41,11a11.76,11.76,0,0,0,7.48,2.15s-2.09-12.68-4.51-25.36c-2.58-13.47-1.43-25.21-1.17-25.37.47-.29,6.55,35.65,9.5,33.69,3.39-2.24,11.87-22.31,11.87-22.31a69.12,69.12,0,0,1-3.2,14.92c-1.56,4.21-5.56,9.88-8.07,13.59,0,0,1,18.59.47,36.37a80.24,80.24,0,0,0,.9,14.34,22,22,0,0,1-3.92.93A40.33,40.33,0,0,1,581.45,565.16Z"/></g><path class="cls-48" d="M1323.23,596.2c1.33-12.34,15-22.55,27.75-22.55a25.66,25.66,0,0,1,4.58.41v-.41c0-17.72,10.16-32.11,22.67-32.11a14.72,14.72,0,0,1,1.49.07c8.75-17.55,24.47-29.26,42.4-29.26,23.47,0,43.16,20.07,48.38,47,16.47,3.4,29.55,10.34,29.5,31.53Z"/><g id="yellow-tree11"><path class="cls-54" d="M262.54,434.55c11.36.73,17.43,18.74,26.93,30.71a44.51,44.51,0,0,1,9.69,30.86c-1.5,22.56-11.31,31.19-38.8,29.9-31.46-1.47-37.17-18.34-38.34-34.08s8.93-23.8,12.38-31.85C239.85,447.37,254.59,434,262.54,434.55Z"/><path class="cls-55" d="M257.84,577.94s-.37-5.76.87-20.59c1.32-15.77-.56-40.33-1.34-40.27a46.35,46.35,0,0,1-11.08-8.61c-6.12-6.34-4.08-9.61-4.08-10,3.82,4.58,2.55,4.11,7.61,7.43,3,2,4.42,2.59,8.42,2.63,0,0,.86,4.65-1.87-10.83-2.9-16.46-1.6-30.8-1.32-31s2.9,13.69,5.49,23.39c1.52,5.72,3.16,9.52,4.06,9.35,1.17-.22,3.75-3.26,5.21-7.25a36.38,36.38,0,0,0,1.69-8.69s3.05,4.1.3,12.21c-1.74,5.15-3.37,5.16-6.21,9.7,0,0,2,32.73,1.36,54.45a106.44,106.44,0,0,0,1,17.52,21.91,21.91,0,0,1-4.41,1.13A41.1,41.1,0,0,1,257.84,577.94Z"/></g><path class="cls-38" d="M1194.54,468.68V495h-91.64l0-4Z"/><path class="cls-50" d="M1194.53,474.69,1102.76,495l-.41,81.3h92.18Z"/><rect class="cls-40" x="1118.36" y="507.84" width="7.59" height="20.69"/><rect class="cls-8" x="1151.05" y="549.15" width="12.01" height="10.24"/><rect class="cls-8" x="1174" y="549.15" width="11.65" height="10.24"/><path class="cls-38" d="M1345.8,468.82V495.1h-91.64l0-4Z"/><path class="cls-50" d="M1345.79,474.82,1254,495.1l-.41,81.29h92.18Z"/><rect class="cls-40" x="1269.62" y="507.98" width="7.59" height="20.69"/><rect class="cls-40" x="1303.38" y="528.67" width="12.01" height="10.24"/><rect class="cls-40" x="1326.33" y="528.67" width="11.65" height="10.24"/><path class="cls-56" d="M150.45,420.18l0,26.28H58.79l0-4Z"/><path class="cls-50" d="M150.43,426.18,58.67,446.46l-.42,81.29h92.18Z"/><rect class="cls-40" x="74.26" y="459.33" width="7.59" height="20.69"/><rect class="cls-40" x="106.96" y="500.65" width="12.01" height="10.24"/><rect class="cls-40" x="129.91" y="500.65" width="11.65" height="10.24"/><rect class="cls-57" x="1318.28" y="546.42" width="52.15" height="44.55"/><rect class="cls-18" x="1331.89" y="559.88" width="9.1" height="12.31"/><rect class="cls-18" x="1344.6" y="559.88" width="20.21" height="12.31"/><path class="cls-58" d="M1294.87,522l18.08,9.79,1,17.12h-43.12Z"/><path class="cls-59" d="M1318.28,546.42l-21.36-22.54L1276,546.42V591h42.28Z"/><rect class="cls-51" x="1289.89" y="573.28" width="14.85" height="17.7"/><rect class="cls-18" x="1294.14" y="539.55" width="6.35" height="6.87"/><polygon class="cls-60" points="1294.87 521.96 1348.35 521.96 1373.87 548.87 1320.39 548.87 1294.87 521.96"/><rect class="cls-51" x="1332.87" y="515.85" width="9.61" height="17.12"/><path class="cls-58" d="M1332.87,515.85h-4.19l-.18,13.1,4.37,4Z"/><g id="yellow-tree12"><path class="cls-37" d="M1200.11,476.59c7.36.68,11.3,17.22,17.45,28.22a52.81,52.81,0,0,1,6.28,28.34c-1,20.72-7.33,28.65-25.15,27.47-20.39-1.35-24.09-16.85-24.84-31.3s5.79-21.87,8-29.26C1185.4,488.37,1195,476.12,1200.11,476.59Z"/><path class="cls-61" d="M1198.45,581.08s-.28-4,.66-14.28c1-10.93,2-14,1.4-14a34.56,34.56,0,0,1-8.34-6,23.78,23.78,0,0,1-6.16-11.14c2.87,3.18,5,7,8.82,9.36a10,10,0,0,0,6.34,1.82s-1.77-10.74-3.83-21.48c-2.18-11.41-1.21-21.35-1-21.49.4-.24,5.55,30.2,8.05,28.54,2.87-1.9,10-18.9,10-18.9a58.38,58.38,0,0,1-2.71,12.64c-1.31,3.57-4.7,8.36-6.83,11.51,0,0,.87,15.75.4,30.8a68.44,68.44,0,0,0,.76,12.15,17.78,17.78,0,0,1-3.32.79A34,34,0,0,1,1198.45,581.08Z"/></g><g id="yellow-tree13"><path class="cls-37" d="M804,463.58c7.37.68,11.3,17.22,17.46,28.21a52.85,52.85,0,0,1,6.28,28.35c-1,20.72-7.33,28.65-25.15,27.47-20.39-1.36-24.09-16.85-24.84-31.31s5.78-21.87,8-29.25C789.28,475.36,798.83,463.11,804,463.58Z"/><path class="cls-61" d="M802.32,568.06s-.27-4,.66-14.27c1-10.94,2-14,1.41-14a35,35,0,0,1-8.35-6,23.88,23.88,0,0,1-6.16-11.14c2.88,3.17,5,7,8.82,9.35a9.91,9.91,0,0,0,6.34,1.82s-1.77-10.73-3.82-21.47c-2.18-11.41-1.21-21.36-1-21.49.4-.25,5.55,30.2,8,28.54,2.87-1.9,10.05-18.9,10.05-18.9a58.23,58.23,0,0,1-2.71,12.63c-1.32,3.57-4.71,8.37-6.84,11.52,0,0,.88,15.74.41,30.8a67.34,67.34,0,0,0,.76,12.15,18.26,18.26,0,0,1-3.32.78A32.32,32.32,0,0,1,802.32,568.06Z"/></g><path class="cls-56" d="M141.87,432.4l0,30.16H250l0-4.59Z"/><path class="cls-50" d="M141.89,439.29l108.27,23.26.49,93.26H141.89Z"/><rect class="cls-40" x="222.81" y="477.32" width="8.95" height="23.73"/><rect class="cls-40" x="178.71" y="477.32" width="14.17" height="11.75"/><rect class="cls-40" x="152.04" y="477.32" width="13.75" height="11.75"/><path class="cls-48" d="M224.07,563.14c-1-7.08-11.56-20.34-21.54-20.34A27.81,27.81,0,0,0,199,543v-.23c0-10.17-11.72-14-21.48-14-.39,0-.78,0-1.16,0-2.21-11.33-15.71-16-29.69-16-18.29,0-33.22,6.34-37.29,21.81-9.27,1.68-18.54,21-17.41,28.53Z"/><rect class="cls-34" x="261.94" y="501.67" width="87.29" height="88.25"/><rect class="cls-42" x="217.08" y="501.67" width="67.21" height="89.32"/><rect class="cls-51" x="259.88" y="575.81" width="18.22" height="14.11"/><rect class="cls-52" x="261.95" y="516.8" width="16.14" height="15.92"/><rect class="cls-45" x="305.6" y="516.8" width="11.17" height="15.92"/><rect class="cls-14" x="284.29" y="497.16" width="64.95" height="5.11"/><rect class="cls-32" x="217.08" y="497.16" width="67.21" height="5.11"/><rect class="cls-34" x="436.73" y="502.52" width="87.29" height="88.25"/><rect class="cls-42" x="391.87" y="502.52" width="67.21" height="89.32"/><rect class="cls-51" x="434.67" y="576.66" width="18.22" height="14.11"/><rect class="cls-52" x="436.74" y="517.65" width="16.14" height="15.92"/><rect class="cls-45" x="480.39" y="517.65" width="11.17" height="15.92"/><rect class="cls-14" x="459.08" y="498.02" width="64.95" height="5.11"/><rect class="cls-32" x="391.87" y="498.02" width="67.21" height="5.11"/><g id="yellow-tree14"><path class="cls-62" d="M93.76,470.21c8.94.82,13.71,20.9,21.19,34.24,4.21,7.53,8.32,19.24,7.61,34.4C121.39,564,113.67,573.62,92,572.18c-24.74-1.64-29.23-20.44-30.14-38-.93-17.7,7-26.53,9.73-35.5C75.91,484.5,87.51,469.64,93.76,470.21Z"/><path class="cls-63" d="M91.75,597s-.34-4.85.8-17.33c1.2-13.27,2.42-17,1.7-16.94a42.1,42.1,0,0,1-10.13-7.24A29,29,0,0,1,76.65,542c3.49,3.85,6.08,8.55,10.7,11.35a12.07,12.07,0,0,0,7.7,2.21s-2.15-13-4.65-26.06c-2.64-13.85-1.46-25.91-1.2-26.08.49-.3,6.74,36.65,9.77,34.63,3.48-2.3,12.2-22.93,12.2-22.93a70.85,70.85,0,0,1-3.29,15.33c-1.6,4.33-5.71,10.16-8.3,14,0,0,1.07,19.1.49,37.38a82.88,82.88,0,0,0,.93,14.74,21.65,21.65,0,0,1-4,1A40.08,40.08,0,0,1,91.75,597Z"/></g><g id="yellow-tree15"><path class="cls-36" d="M54.77,451.4c9.75.9,15,22.8,23.12,37.36,4.6,8.22,9.08,21,8.31,37.53-1.28,27.44-9.71,37.94-33.3,36.37C25.9,560.87,21,540.35,20,521.21c-1-19.31,7.66-29,10.62-38.74C35.3,467,48,450.78,54.77,451.4Z"/><path class="cls-53" d="M52.58,589.75s-.37-5.29.87-18.9c1.32-14.48,2.64-18.54,1.86-18.49a46,46,0,0,1-11.05-7.9,31.59,31.59,0,0,1-8.15-14.76c3.8,4.21,6.63,9.34,11.67,12.39a13.23,13.23,0,0,0,8.4,2.42s-2.35-14.22-5.07-28.44c-2.89-15.11-1.6-28.28-1.31-28.45.53-.33,7.35,40,10.66,37.78,3.8-2.51,13.31-25,13.31-25a77.34,77.34,0,0,1-3.59,16.73c-1.74,4.72-6.23,11.08-9.05,15.25,0,0,1.16,20.84.53,40.78a90.88,90.88,0,0,0,1,16.08,23.8,23.8,0,0,1-4.4,1A43.28,43.28,0,0,1,52.58,589.75Z"/></g><path class="cls-36" d="M1448.92,439.72c3.34-8,12.83-7.2,16.83-2.82,11.22,12.27,19.48,99.58,18.61,107.93-1.48,14.18-6,17.75-13,21-3.83,1.77-15.65,3-23.62.88-6-1.55-12.09-10-13.58-20.07C1432.09,532.73,1435.34,472.36,1448.92,439.72Z"/><path class="cls-53" d="M1453.65,600.05c0-.37.88-48.13.88-48.13l-8-6.49v-2.07l8.86,5.31.89-44.88h1.47l1.77,15.65,5.91-2.36.29,1.48-4.43,3.24.3,29.24,6.79-2.37.3,2.37-6.79,4.42v44.59S1453.64,600.42,1453.65,600.05Z"/><path class="cls-48" d="M0,590.14c.12-6.73,4.38-8.8,8.23-8.32-1.53-1.4-1.48-4-.74-6.11,1.39-4,7.46-6.57,12.27-4,2.2-8,10.61-11.91,16.84-8.27a13,13,0,0,1,10.92-5.91,12.77,12.77,0,0,1,12.89,12.63h.06c4,0,7.43,3.12,8.38,7.29,11.71,1.59,19.68,9.81,19.68,15.48Z"/><g id="front-row"><path class="cls-58" d="M1339.61,563.38h-3.87s19-26.88,19-26.79,3.51,2.42,3.51,2.42S1338.88,563.51,1339.61,563.38Z"/><path class="cls-59" d="M1339.61,591.2V561.71l17.59-25.12,17.59,25.12V591.2Z"/><rect class="cls-57" x="1373.35" y="561.72" width="84.88" height="29.49"/><rect class="cls-64" x="1384.59" y="570.47" width="4.33" height="8.71"/><rect class="cls-64" x="1399.11" y="570.47" width="4.33" height="8.71"/><rect class="cls-64" x="1413.63" y="570.47" width="4.33" height="8.71"/><rect class="cls-64" x="1428.15" y="570.47" width="4.33" height="8.71"/><rect class="cls-64" x="1442.67" y="570.47" width="4.33" height="8.71"/><rect class="cls-51" x="1348.86" y="578.53" width="12.71" height="12.68"/><polygon class="cls-43" points="1354.75 536.59 1443.55 536.59 1462.15 563.38 1373.35 563.38 1354.75 536.59"/><rect class="cls-57" x="1003.57" y="508.81" width="62.63" height="82.1"/><rect class="cls-65" x="910.97" y="508.81" width="105.02" height="82.1"/><rect class="cls-66" x="918.28" y="528.38" width="60.45" height="9.21"/><rect class="cls-51" x="991.05" y="567.05" width="16.27" height="24.61"/><rect class="cls-64" x="1023.85" y="523.27" width="7.98" height="9.72"/><rect class="cls-64" x="1039.87" y="523.52" width="7.98" height="9.72"/><rect class="cls-64" x="1023.85" y="540.14" width="7.98" height="9.72"/><rect class="cls-17" x="1013.29" y="504.42" width="52.9" height="6.38"/><rect class="cls-67" x="910.97" y="504.42" width="105.02" height="6.38"/><path class="cls-60" d="M787.68,490.37V515H700.75l0-3.74Z"/><path class="cls-68" d="M787.67,496l-87,19-.39,76.24h87.43Z"/><rect class="cls-64" x="775.66" y="509.12" width="7.2" height="19.4"/><rect class="cls-64" x="746.43" y="565.85" width="11.39" height="9.6"/><rect class="cls-64" x="768.2" y="565.85" width="11.05" height="9.6"/><rect class="cls-65" x="782.09" y="543.93" width="129.5" height="46.85"/><rect class="cls-51" x="824.34" y="558.97" width="76.96" height="31.81"/><rect class="cls-69" x="828.56" y="562.33" width="67.47" height="28.45"/><path class="cls-68" d="M896,588H828.56v1.06H896Zm0-2.66H828.56v1.06H896Zm0-2.66H828.56v1.06H896Zm0-2.66H828.56v1.06H896Zm0-2.66H828.56v1.06H896Zm0-2.66H828.56v1.07H896Zm0-2.65H828.56v1.05H896Zm0-2.66H828.56v1.06H896Zm0-2.66H828.56v1.06H896Zm0-2.66H828.56v1.06H896Z"/><rect class="cls-66" x="789.08" y="558.97" width="25.3" height="5.75"/><rect class="cls-51" x="782.09" y="538.98" width="129.5" height="4.94"/><rect class="cls-57" x="1190.84" y="539.21" width="86.33" height="52.49"/><rect class="cls-51" x="1219.01" y="565.46" width="51.3" height="26.25"/><rect class="cls-69" x="1221.82" y="568.23" width="44.98" height="23.47"/><path class="cls-68" d="M1266.8,589.4h-45v.88h45Zm0-2.19h-45v.87h45Zm0-2.19h-45v.87h45Zm0-2.2h-45v.87h45Zm0-2.19h-45v.87h45Zm0-2.2h-45v.88h45Zm0-2.19h-45v.87h45Zm0-2.19h-45v.87h45Zm0-2.2h-45v.88h45Zm0-2.19h-45v.87h45Z"/><rect class="cls-51" x="1190.84" y="533.68" width="86.33" height="5.53"/><rect class="cls-57" x="283.99" y="534.28" width="157.59" height="56.1"/><rect class="cls-51" x="294.07" y="557.99" width="68.7" height="32.39"/><rect class="cls-69" x="297.84" y="561.42" width="60.23" height="28.96"/><path class="cls-68" d="M358.07,587.55H297.84v1.07h60.23Zm0-2.72H297.84v1.09h60.23Zm0-2.7H297.84v1.08h60.23Zm0-2.71H297.84v1.08h60.23Zm0-2.71H297.84v1.08h60.23Zm0-2.7H297.84v1.08h60.23Zm0-2.71H297.84v1.08h60.23Zm0-2.71H297.84v1.08h60.23Zm0-2.71H297.84V567h60.23Zm0-2.7H297.84v1.08h60.23Z"/><rect class="cls-66" x="375.28" y="562.33" width="12.72" height="7.04"/><rect class="cls-66" x="395.95" y="562.33" width="12.72" height="7.04"/><rect class="cls-51" x="283.99" y="534.28" width="157.58" height="6.83"/><rect class="cls-57" x="421.39" y="546.43" width="157.23" height="45.46"/><rect class="cls-66" x="550.27" y="557.09" width="12.7" height="5.71"/><rect class="cls-66" x="550.27" y="569.16" width="12.7" height="5.71"/><rect class="cls-51" x="421.39" y="546.43" width="157.23" height="5.53"/><path class="cls-43" d="M1083,541.1l-.41-3.91s46.45.15,81,.15l42,17.63-101.67-1.5Z"/><rect class="cls-65" x="1085.2" y="541.09" width="78.16" height="49.26"/><rect class="cls-66" x="1092.67" y="554.06" width="5.42" height="11.66"/><path class="cls-68" d="M1163.36,541.09,1197.44,555l.74,35.38h-34.82Z"/><rect class="cls-51" x="1179.44" y="577.42" width="9.32" height="12.93"/><rect class="cls-64" x="1168.09" y="577.42" width="5.94" height="5.83"/><rect class="cls-65" x="1033.83" y="565.72" width="53.86" height="24.63"/><rect class="cls-17" x="1032.02" y="562.69" width="53.17" height="3.03"/></g><g id="front-row1"><rect class="cls-65" x="782.85" y="544.13" width="129.5" height="46.85"/><rect class="cls-51" x="825.11" y="559.17" width="76.96" height="31.81"/><rect class="cls-57" x="829.33" y="562.53" width="67.47" height="28.45"/><path class="cls-68" d="M896.79,588.19H829.33v1.06h67.46Zm0-2.66H829.33v1.06h67.46Zm0-2.66H829.33v1.06h67.46Zm0-2.65H829.33v1h67.46Zm0-2.67H829.33v1.06h67.46Zm0-2.65H829.33V576h67.46Zm0-2.66H829.33v1h67.46Zm0-2.66H829.33v1.06h67.46Zm0-2.66H829.33V568h67.46Zm0-2.66H829.33v1.06h67.46Z"/><rect class="cls-45" x="789.85" y="559.17" width="25.3" height="5.75"/><rect class="cls-51" x="782.85" y="539.19" width="129.5" height="4.94"/><rect class="cls-57" x="14.11" y="550.09" width="141.55" height="45.46"/><rect class="cls-51" x="22.29" y="569.31" width="55.67" height="26.25"/><rect class="cls-57" x="25.34" y="572.08" width="48.81" height="23.47"/><path class="cls-60" d="M74.15,593.25H25.34v.88H74.15Zm0-2.19H25.34v.87H74.15Zm0-2.19H25.34v.87H74.15Zm0-2.2H25.34v.87H74.15Zm0-2.19H25.34v.87H74.15Zm0-2.2H25.34v.88H74.15Zm0-2.19H25.34V581H74.15Zm0-2.19H25.34v.87H74.15Zm0-2.2H25.34v.88H74.15Zm0-2.19H25.34v.87H74.15Z"/><rect class="cls-45" x="88.09" y="572.82" width="10.31" height="5.71"/><rect class="cls-45" x="104.84" y="572.82" width="10.31" height="5.71"/><rect class="cls-51" x="14.11" y="550.09" width="141.55" height="5.53"/><rect class="cls-57" x="624.55" y="537.85" width="98.58" height="53.8"/><rect class="cls-65" x="573.89" y="537.85" width="75.9" height="54.45"/><rect class="cls-51" x="632.87" y="566.95" width="9.92" height="24.71"/><rect class="cls-52" x="601.64" y="547.08" width="41.15" height="9.7"/><rect class="cls-45" x="673.85" y="547.08" width="12.62" height="9.7"/><rect class="cls-17" x="649.79" y="534.74" width="73.34" height="3.12"/><rect class="cls-67" x="573.89" y="534.74" width="75.9" height="3.12"/><path class="cls-58" d="M1339.61,563.61h-3.87s19-26.89,19-26.79,3.51,2.42,3.51,2.42S1338.88,563.74,1339.61,563.61Z"/><path class="cls-59" d="M1339.61,591.43V561.94l17.59-25.12,17.59,25.12v29.49Z"/><rect class="cls-57" x="1373.35" y="561.94" width="84.88" height="29.49"/><rect class="cls-45" x="1384.59" y="570.7" width="4.33" height="8.71"/><rect class="cls-45" x="1399.11" y="570.7" width="4.33" height="8.71"/><rect class="cls-45" x="1413.63" y="570.7" width="4.33" height="8.71"/><rect class="cls-45" x="1428.15" y="570.7" width="4.33" height="8.71"/><rect class="cls-45" x="1442.67" y="570.7" width="4.33" height="8.71"/><rect class="cls-51" x="1348.86" y="578.75" width="12.71" height="12.68"/><polygon class="cls-43" points="1354.75 536.82 1443.55 536.82 1462.15 563.61 1373.35 563.61 1354.75 536.82"/></g><g id="Bus1"><g id="Path_2881" data-name="Path 2881"><path class="cls-3" d="M164.28,561.16l1.58-2.16c0-.17.18-.31.36-.41a1.88,1.88,0,0,1,.7-.12h28.52a2.09,2.09,0,0,1,.88.12c.36.07.53.23.53.41l1.41,2.16Z"/></g><g id="Path_2821" data-name="Path 2821"><path class="cls-4" d="M151.57,560.54l88.94-.15c5.24,0,5.63-.44,5.63,4v15.34c0,3,.18,5.83.18,7.48,0,.45.08.53-.18.74s-.85.11-.85.11L154.12,588h-8.28c-.66,0-.61,0-.91-.3a1.18,1.18,0,0,1-.3-.76V576.26C144.63,571.81,146.32,560.54,151.57,560.54Z"/></g><path class="cls-5" d="M151.24,564.86l1.57-2.76,93.31-.15,0,11.76c-26.44,0-50,.4-76.41.4-6.33,0-17.18,3-24,4.15Z"/><path class="cls-6" d="M160,588c0-.31-.05-.62-.05-.92,0-3.89,1.19-7.11,6-7s6,3.15,6,7a7.22,7.22,0,0,1-.06.92Z"/><path class="cls-6" d="M210.5,588a7.46,7.46,0,0,1-.06-.95c0-4,1.43-7.29,7.26-7.21s7.27,3.23,7.27,7.21a7.46,7.46,0,0,1-.06.95Z"/><g id="Ellipse_1701" data-name="Ellipse 1701"><ellipse class="cls-7" cx="217.7" cy="586.22" rx="6.16" ry="4.16"/></g><g id="Ellipse_1711" data-name="Ellipse 1711"><ellipse class="cls-7" cx="165.95" cy="586.22" rx="4.4" ry="4.16"/></g><g id="Path_2851" data-name="Path 2851"><path class="cls-8" d="M145.74,577.9l21.31-5.57,75.53-.23V562l-88.57.06a7.1,7.1,0,0,0-3.16.4c-1.76.9-3.17,4.29-3.88,6.79A68.43,68.43,0,0,0,145.74,577.9Z"/></g><g id="Rectangle_8721" data-name="Rectangle 8721"><path class="cls-9" d="M226.37,564a.94.94,0,0,1,.94-.94h12.63a.94.94,0,0,1,.94.94v6a.94.94,0,0,1-.94.94H227.31a.94.94,0,0,1-.94-.94Z"/></g><g id="Rectangle_8731" data-name="Rectangle 8731"><path class="cls-9" d="M210,564a.86.86,0,0,1,.87-.86H222.9a.86.86,0,0,1,.87.86v6.13a.87.87,0,0,1-.87.86H210.82a.87.87,0,0,1-.87-.86Z"/></g><g id="Rectangle_8741" data-name="Rectangle 8741"><path class="cls-9" d="M199.55,564a.93.93,0,0,1,.93-.93h5.93a.94.94,0,0,1,.94.93v6a.94.94,0,0,1-.94.94h-5.93a.94.94,0,0,1-.93-.94Z"/></g><g id="Rectangle_8751" data-name="Rectangle 8751"><path class="cls-9" d="M182.16,563.8a.7.7,0,0,1,.71-.7h13.37a.7.7,0,0,1,.71.7v6.44a.71.71,0,0,1-.71.71H182.87a.71.71,0,0,1-.71-.71Z"/></g><g id="Rectangle_8761" data-name="Rectangle 8761"><path class="cls-9" d="M170.12,564a.94.94,0,0,1,.95-.94h7.55a.94.94,0,0,1,.94.94v6a.94.94,0,0,1-.94.94h-7.55a.94.94,0,0,1-.95-.94Z"/></g><g id="Path_2871" data-name="Path 2871"><path class="cls-10" d="M157.93,563.8c0-.32.37-.55,1-.55,2.38,0,4.14,0,6.43,0,.41,0,.64.19.64.58,0,2.62,0,4.88,0,7.44L158,573.3S157.77,565.48,157.93,563.8Z"/></g><g id="Path_2861" data-name="Path 2861"><path class="cls-10" d="M152.54,563.23c.61,0,2.25,0,3.17,0,.39,0,.66.49.66.74,0,3.23.06,6.45.08,9.68L147.58,576a34.2,34.2,0,0,1,1.19-7.48,13.25,13.25,0,0,1,2.08-4.46A2.51,2.51,0,0,1,152.54,563.23Z"/></g></g></g><g id="front-line"><rect class="cls-17" y="589.94" width="1500" height="18.8"/></g></g></g></svg>