<svg xmlns="http://www.w3.org/2000/svg" viewBox="0 0 1500 608.74"><defs><style>.cls-1{fill:#ede1c9;}.cls-1,.cls-10,.cls-11,.cls-12,.cls-15,.cls-21,.cls-22,.cls-23,.cls-24,.cls-25,.cls-27,.cls-28,.cls-31,.cls-35,.cls-36,.cls-38,.cls-40,.cls-41,.cls-43,.cls-46,.cls-47,.cls-48,.cls-50,.cls-51,.cls-52,.cls-53,.cls-54,.cls-55,.cls-59,.cls-61,.cls-62,.cls-8,.cls-9{fill-rule:evenodd;}.cls-11,.cls-2{fill:#eadabc;}.cls-27,.cls-3{fill:#ddc597;}.cls-28,.cls-4{fill:#792107;}.cls-35,.cls-5{fill:#561604;}.cls-6{fill:#b9d1d5;}.cls-7{fill:#9cbec3;}.cls-8{fill:#958e46;}.cls-9{fill:#afa650;}.cls-10,.cls-20{fill:#d4673d;}.cls-12,.cls-19{fill:#944024;}.cls-13{fill:#bbd4d7;}.cls-14,.cls-22{fill:#f4d790;}.cls-15,.cls-18{fill:#a68558;}.cls-16{fill:#bdd2d5;}.cls-17{fill:#88a3a5;}.cls-21{fill:#915744;}.cls-23{fill:#625e1f;}.cls-24{fill:#a49c42;}.cls-25{fill:#906152;}.cls-26{fill:#86a5aa;}.cls-29{fill:#8aa4a0;}.cls-30{fill:#8bb7b5;}.cls-31,.cls-42{fill:#874330;}.cls-32{fill:#6b7a3b;}.cls-33,.cls-47{fill:#db9456;}.cls-34,.cls-36{fill:#8a4e2a;}.cls-37{fill:#6d9e9a;}.cls-38{fill:#7a7439;}.cls-39{fill:#89a2a2;}.cls-40{fill:#b0a63f;}.cls-41{fill:#5f5c2e;}.cls-43{fill:#b65d3d;}.cls-44,.cls-54{fill:#511605;}.cls-45{fill:#87afab;}.cls-46{fill:#552c16;}.cls-48{fill:#827a27;}.cls-49{fill:#704e45;}.cls-50{fill:#925c44;}.cls-51{fill:#844a37;}.cls-52{fill:#756d24;}.cls-53{fill:#6f3e19;}.cls-55,.cls-56{fill:#72220b;}.cls-57,.cls-59{fill:#9c3110;}.cls-58,.cls-61{fill:#601d0a;}.cls-60{fill:#6e8c85;}.cls-62{fill:#9c3111;}</style></defs><g id="Layer_2" data-name="Layer 2"><g id="Layer_1-2" data-name="Layer 1"><g id="clouds09"><g id="big-cloud"><path class="cls-1" d="M1198.43,99.72C1180,42.3,1117.44,0,1043.25,0c-61.07,0-96,23.23-123.21,65.42C914,63.23,895.26,61,871.37,68.94c-31.63,10.59-50.48,28.79-50.48,66,0,11.33-.12,14,4.38,23.42C722,119,647.13,166.24,620.06,201.84,607.78,218,607.23,240.75,609,244.1,570.08,211,495.63,226,504.18,284.58c.47,3.13,14.12,13.4,10.66,14.17-13.49,3-150.24,5.4-290.65,21.15-33.38,3.74-73.73,4.5-100.68,34.74-14.3,16-15.11,50.22,3.32,68.74,7.16,7.19,36.45,10.77,47.89,10.67,211-1.84,1172.89-3.92,1206.9-7.29,77.59-7.71,64.3-100,45-121.49-14.62-16.26-30.71-35.74-86.37-37.49-6-.17-11.86,1.24-7.54-1.54,21.94-14.14,2.86-80.6-63.2-63.76-.78.2,0-.7,0-.7C1269.24,153.88,1239.4,113.36,1198.43,99.72Z"/></g><g id="big-cloud1"><path class="cls-1" d="M1077.24,115c-15.53-47-68.08-81.59-130.45-81.59-51.35,0-80.73,19-103.58,53.52-5.11-1.79-20.84-3.65-40.92,2.89-26.59,8.66-42.44,23.55-42.44,54,0,9.27-.1,11.49,3.69,19.16-86.85-32.27-149.76,6.42-172.52,35.55-10.33,13.21-10.79,31.84-9.32,34.57C549,206,486.41,218.3,493.6,266.2c.39,2.57,11.87,11,9,11.6-11.34,2.43-41.94,5.73-160.38,14.25C299.61,295.11,261,305.13,241,324.42c-12.79,12.36-23.4,28.43-7.91,43.59,6,5.88,37.09,12.06,46.72,12,177.38-1.51,922.8,5.31,951.4,2.55,65.23-6.31,54-81.85,37.84-99.4-12.3-13.31-25.82-29.25-72.62-30.68-5-.14-10,1-6.33-1.26,18.44-11.57,2.4-65.95-53.13-52.17-.66.16,0-.57,0-.57C1136.77,159.26,1111.69,126.11,1077.24,115Z"/></g></g><g id="_05" data-name=" 05"><rect class="cls-2" x="537" y="255.93" width="107.16" height="82.64"/><rect class="cls-3" x="636.08" y="255.93" width="72.56" height="82.71"/><rect class="cls-4" x="537" y="255.93" width="107.16" height="6.62"/><rect class="cls-5" x="636.08" y="255.93" width="72.56" height="6.62"/><rect class="cls-6" x="609.5" y="283.23" width="11.85" height="16.7"/><rect class="cls-6" x="581.61" y="283.23" width="11.85" height="16.7"/><rect class="cls-6" x="553.69" y="283.23" width="11.85" height="16.7"/><rect class="cls-6" x="609.5" y="311.53" width="11.85" height="16.7"/><rect class="cls-6" x="581.61" y="311.53" width="11.85" height="16.7"/><rect class="cls-6" x="553.69" y="311.53" width="11.85" height="16.7"/><rect class="cls-7" x="687.55" y="280.93" width="10.11" height="16.7"/><rect class="cls-5" x="651.49" y="309.7" width="20.23" height="28.98"/><rect class="cls-2" x="661.04" y="220.35" width="107.16" height="82.64"/><rect class="cls-3" x="760.12" y="220.35" width="72.56" height="82.71"/><rect class="cls-4" x="661.04" y="220.35" width="107.16" height="6.62"/><rect class="cls-5" x="760.12" y="220.35" width="72.56" height="6.62"/><rect class="cls-6" x="733.54" y="247.64" width="11.85" height="16.7"/><rect class="cls-6" x="705.65" y="247.64" width="11.85" height="16.7"/><rect class="cls-6" x="677.73" y="247.64" width="11.85" height="16.7"/><rect class="cls-6" x="733.54" y="275.94" width="11.85" height="16.7"/><rect class="cls-6" x="705.65" y="275.94" width="11.85" height="16.7"/><rect class="cls-6" x="677.73" y="275.94" width="11.85" height="16.7"/><rect class="cls-7" x="811.59" y="245.35" width="10.11" height="16.7"/><rect class="cls-5" x="775.53" y="274.11" width="20.23" height="28.98"/><path class="cls-8" d="M1187,279.6c71.22.56,137.68,52.21,186.73,103.84S1481.88,590,1481.88,590H16.51s118.74-150.7,401.28-214.13C722.08,307.55,1027.67,278.33,1187,279.6Z"/><path class="cls-8" d="M690.45,365.29c-1.61-13.12-18.1-24-33.58-24a34.81,34.81,0,0,0-5.54.43v-.43c0-18.84-12.3-34.14-27.44-34.14-.6,0-1.2,0-1.8.07-10.58-18.65-29.61-31.1-51.31-31.1-28.39,0-52.22,21.34-58.55,50-14.38,3.11-28.62,25.14-26.87,39.15Z"/><g id="yellow-tree"><path class="cls-9" d="M404.7,272.31c11.78.7,18.07,17.89,27.92,29.31a40.35,40.35,0,0,1,10,29.46c-1.55,21.54-11.72,29.78-40.22,28.55-32.61-1.41-38.53-17.51-39.74-32.53s9.26-22.73,12.83-30.41C381.18,284.54,396.46,271.82,404.7,272.31Z"/></g><g id="yellow-tree1"><path class="cls-9" d="M360,297.81c9.11.54,14,13.84,21.59,22.68a31.23,31.23,0,0,1,7.77,22.78c-1.2,16.66-9.07,23-31.11,22.08-25.22-1.09-29.8-13.54-30.73-25.16s7.16-17.58,9.92-23.52C341.77,307.28,353.59,297.43,360,297.81Z"/></g><path class="cls-9" d="M671.39,251c4-9.5,15.19-8.53,19.93-3.34,13.3,14.53,23.07,118,22,127.86-1.75,16.79-7.13,21-15.39,24.84-4.55,2.1-18.54,3.5-28,1.05-7.11-1.84-14.32-11.9-16.09-23.79C651.45,361.14,655.3,289.62,671.39,251Z"/><rect class="cls-3" x="854.17" y="183.02" width="135.56" height="201.25"/><path class="cls-10" d="M803.45,183h-8.67l33-19,8.18,2.88Z"/><path class="cls-11" d="M858.05,183l-26-17.6L800.92,183l-1.74,201.24h57.13Z"/><polygon class="cls-12" points="827.78 164 966.56 164 994.95 183.02 856.17 183.02 827.78 164"/><rect class="cls-13" x="823.26" y="232.54" width="10.08" height="15.35"/><rect class="cls-7" x="872.95" y="232.54" width="14.83" height="15.35"/><rect class="cls-7" x="918.98" y="232.54" width="17.5" height="15.35"/><rect class="cls-7" x="962.34" y="232.54" width="16.17" height="15.35"/><rect class="cls-13" x="823.26" y="203" width="10.08" height="15.35"/><rect class="cls-7" x="872.95" y="203" width="14.83" height="15.35"/><rect class="cls-7" x="918.98" y="203" width="17.5" height="15.35"/><rect class="cls-7" x="962.34" y="203" width="16.17" height="15.35"/><rect class="cls-3" x="1060.33" y="194.46" width="135.56" height="201.25"/><path class="cls-10" d="M1009.61,194.46H1001l33-19,8.18,2.88Z"/><path class="cls-11" d="M1064.21,194.46l-26-17.6-31.17,17.6-1.73,201.25h57.12Z"/><polygon class="cls-12" points="1033.94 175.44 1172.73 175.44 1201.11 194.46 1062.33 194.46 1033.94 175.44"/><rect class="cls-13" x="1029.43" y="243.99" width="10.08" height="15.35"/><rect class="cls-7" x="1079.12" y="243.99" width="14.83" height="15.35"/><rect class="cls-7" x="1125.14" y="243.99" width="17.5" height="15.35"/><rect class="cls-7" x="1168.5" y="243.99" width="16.17" height="15.35"/><rect class="cls-13" x="1029.43" y="214.45" width="10.08" height="15.35"/><rect class="cls-7" x="1079.12" y="214.45" width="14.83" height="15.35"/><rect class="cls-7" x="1125.14" y="214.45" width="17.5" height="15.35"/><rect class="cls-7" x="1168.5" y="214.45" width="16.17" height="15.35"/><g id="yellow-tree2"><path class="cls-9" d="M998.34,203c7.15.84,11,21.39,16.95,35.06,3.37,7.71,6.65,19.7,6.09,35.23-.94,25.75-7.12,35.61-24.42,34.14-19.8-1.68-23.39-20.94-24.12-38.91-.74-18.13,5.62-27.18,7.79-36.36C984.06,217.65,993.34,202.43,998.34,203Z"/></g><rect class="cls-14" x="254.79" y="355.58" width="88.33" height="76.73"/><path class="cls-12" d="M396,359.32h7.21l-29.15-36.06L367,327.44Z"/><path class="cls-15" d="M369.57,324.73l-26.45,30.85v76.73H396V354.88Z"/><polygon class="cls-10" points="374.07 323.26 279.26 323.26 248.32 359.32 343.12 359.32 374.07 323.26"/><rect class="cls-16" x="317.07" y="375.39" width="9.77" height="13.77"/><rect class="cls-16" x="294.08" y="375.39" width="9.77" height="13.77"/><rect class="cls-16" x="271.07" y="375.39" width="9.77" height="13.77"/><rect class="cls-16" x="317.07" y="398.72" width="9.77" height="13.77"/><rect class="cls-16" x="294.08" y="398.72" width="9.77" height="13.77"/><rect class="cls-16" x="271.07" y="398.72" width="9.77" height="13.77"/><rect class="cls-17" x="365.84" y="353.66" width="8.34" height="13.77"/><rect class="cls-17" x="365.84" y="375.53" width="8.34" height="13.77"/><rect class="cls-5" x="361.67" y="399.15" width="16.67" height="33.22"/><rect class="cls-14" x="866.44" y="228.67" width="79.62" height="203.83"/><rect class="cls-18" x="940.06" y="228.67" width="53.91" height="204.01"/><rect class="cls-19" x="959.79" y="303.35" width="20.99" height="19.54"/><rect class="cls-20" x="866.44" y="228.67" width="79.62" height="4.92"/><rect class="cls-19" x="940.06" y="228.67" width="53.91" height="4.92"/><rect class="cls-16" x="920.31" y="248.95" width="8.8" height="12.41"/><rect class="cls-16" x="899.58" y="248.95" width="8.8" height="12.41"/><rect class="cls-16" x="878.84" y="248.95" width="8.8" height="12.41"/><rect class="cls-16" x="920.31" y="269.98" width="8.8" height="12.41"/><rect class="cls-16" x="899.58" y="269.98" width="8.8" height="12.41"/><rect class="cls-16" x="878.84" y="269.98" width="8.8" height="12.41"/><rect class="cls-17" x="966.53" y="269.61" width="7.51" height="12.41"/><rect class="cls-17" x="966.53" y="248.95" width="7.51" height="12.41"/><rect class="cls-14" x="725.32" y="257.85" width="79.62" height="203.83"/><rect class="cls-18" x="798.94" y="257.86" width="53.91" height="204.01"/><rect class="cls-19" x="818.67" y="332.54" width="20.99" height="19.54"/><rect class="cls-20" x="725.32" y="257.85" width="79.62" height="4.92"/><rect class="cls-19" x="798.94" y="257.85" width="53.91" height="4.92"/><rect class="cls-16" x="779.19" y="278.13" width="8.8" height="12.41"/><rect class="cls-16" x="758.46" y="278.13" width="8.8" height="12.41"/><rect class="cls-16" x="737.72" y="278.13" width="8.8" height="12.41"/><rect class="cls-16" x="779.19" y="299.16" width="8.8" height="12.41"/><rect class="cls-16" x="758.46" y="299.16" width="8.8" height="12.41"/><rect class="cls-16" x="737.72" y="299.16" width="8.8" height="12.41"/><rect class="cls-17" x="825.41" y="298.8" width="7.51" height="12.41"/><rect class="cls-17" x="825.41" y="278.13" width="7.51" height="12.41"/><path class="cls-9" d="M698.79,232.85c3.34-8,12.83-7.19,16.83-2.81,11.22,12.26,19.47,99.58,18.6,107.93-1.47,14.17-6,17.74-13,21-3.84,1.77-15.65,3-23.62.89-6-1.56-12.09-10-13.58-20.08C682,325.86,685.21,265.49,698.79,232.85Z"/><path class="cls-21" d="M703.52,393.18c0-.37.88-48.12.88-48.12l-8-6.5v-2.07l8.86,5.32.88-44.88h1.48l1.77,15.65,5.91-2.37.29,1.48-4.43,3.25.3,29.23,6.79-2.36.29,2.36-6.79,4.43v44.58S703.51,393.55,703.52,393.18Z"/><rect class="cls-14" x="769.29" y="331.64" width="92.91" height="80.7"/><path class="cls-12" d="M917.84,335.57h7.58l-30.66-37.92L887.34,302Z"/><path class="cls-15" d="M890,299.19,862.2,331.64v80.7h55.65V330.91Z"/><polygon class="cls-10" points="894.76 297.65 795.04 297.65 762.49 335.57 862.21 335.57 894.76 297.65"/><rect class="cls-16" x="834.81" y="352.48" width="10.27" height="14.48"/><rect class="cls-16" x="810.62" y="352.48" width="10.27" height="14.48"/><rect class="cls-16" x="786.42" y="352.48" width="10.27" height="14.48"/><rect class="cls-16" x="834.81" y="377.02" width="10.27" height="14.48"/><rect class="cls-16" x="810.62" y="377.02" width="10.27" height="14.48"/><rect class="cls-16" x="786.42" y="377.02" width="10.27" height="14.48"/><rect class="cls-17" x="886.1" y="329.62" width="8.77" height="14.48"/><rect class="cls-17" x="886.1" y="352.62" width="8.77" height="14.48"/><rect class="cls-17" x="881.72" y="377.47" width="17.54" height="34.94"/><path class="cls-22" d="M786.83,351.62l-34.29-25.79-35,25.9v99.91h69.26Z"/><polygon class="cls-12" points="752.54 299.42 752.54 326.13 786.83 351.62 786.83 324.9 752.54 299.42"/><polygon class="cls-10" points="752.54 299.42 752.54 326.13 717.43 352.23 717.43 325.51 752.54 299.42"/><rect class="cls-6" x="730.61" y="383.63" width="9.17" height="16.46"/><rect class="cls-6" x="730.61" y="358.24" width="9.17" height="16.46"/><rect class="cls-6" x="730.61" y="409.02" width="9.17" height="16.46"/><rect class="cls-6" x="748.17" y="383.15" width="9.17" height="16.46"/><rect class="cls-6" x="748.17" y="357.77" width="9.17" height="16.46"/><rect class="cls-6" x="748.17" y="408.54" width="9.17" height="16.46"/><rect class="cls-6" x="765.31" y="383.63" width="9.17" height="16.46"/><rect class="cls-6" x="765.31" y="358.24" width="9.17" height="16.46"/><rect class="cls-6" x="765.31" y="409.02" width="9.17" height="16.46"/><path class="cls-23" d="M781.5,412.61c-1-7.85-11.45-14.33-21.24-14.33a23.77,23.77,0,0,0-3.51.26,2.26,2.26,0,0,0,0-.26c0-11.27-7.78-20.41-17.36-20.41-.39,0-.77,0-1.14,0a37.91,37.91,0,0,0-32.47-18.6c-18,0-33,12.76-37,29.89-9.1,1.86-18.11,15-17,23.41L749.24,472Z"/><g id="yellow-tree3"><path class="cls-24" d="M263.55,321.86c7.36.68,11.3,17.22,17.46,28.21a53,53,0,0,1,6.27,28.35c-1,20.72-7.33,28.65-25.14,27.47-20.39-1.36-24.09-16.85-24.85-31.31s5.79-21.86,8-29.25C248.84,333.64,258.4,321.39,263.55,321.86Z"/><path class="cls-25" d="M261.89,426.34s-.28-4,.66-14.27c1-10.94,2-14,1.4-14a35.25,35.25,0,0,1-8.34-6A23.88,23.88,0,0,1,249.45,381c2.88,3.17,5,7.05,8.82,9.35a9.89,9.89,0,0,0,6.34,1.82s-1.77-10.73-3.83-21.47c-2.18-11.41-1.2-21.35-1-21.49.4-.25,5.55,30.2,8.06,28.54,2.86-1.9,10-18.9,10-18.9a58.91,58.91,0,0,1-2.71,12.63c-1.32,3.57-4.71,8.37-6.84,11.52,0,0,.88,15.74.4,30.8a68.44,68.44,0,0,0,.76,12.15,18,18,0,0,1-3.32.78A34,34,0,0,1,261.89,426.34Z"/></g><rect class="cls-14" x="455.6" y="291.31" width="60.99" height="13.78"/><rect class="cls-18" x="516.6" y="291.31" width="30.65" height="12.41"/><rect class="cls-14" x="437.62" y="300.61" width="89.33" height="92.15"/><path class="cls-15" d="M525.83,300.61h39.45l-.15,92.15h-39.3Z"/><rect class="cls-19" x="500.55" y="364.71" width="16.04" height="28.06"/><rect class="cls-20" x="437.62" y="300.61" width="88.24" height="7.37"/><rect class="cls-19" x="525.86" y="300.61" width="39.39" height="7.37"/><rect class="cls-26" x="555.95" y="316.07" width="6.06" height="9.84"/><rect class="cls-16" x="443.2" y="316.07" width="18.35" height="9.84"/><rect class="cls-16" x="473.68" y="316.07" width="18.35" height="9.84"/><rect class="cls-16" x="504.14" y="316.07" width="18.35" height="9.84"/><rect class="cls-26" x="555.95" y="333.41" width="6.06" height="9.84"/><rect class="cls-16" x="443.2" y="333.41" width="18.35" height="9.84"/><rect class="cls-16" x="473.68" y="333.41" width="18.35" height="9.84"/><rect class="cls-16" x="504.14" y="333.41" width="18.35" height="9.84"/><path class="cls-22" d="M453.68,384.49,419.4,361.71l-35,22.88v88.24h69.25Z"/><polygon class="cls-12" points="419.4 338.38 419.4 361.98 453.69 384.49 453.69 360.89 419.4 338.38"/><polygon class="cls-10" points="419.4 338.38 419.4 361.98 384.28 385.03 384.28 361.43 419.4 338.38"/><rect class="cls-6" x="398.28" y="412.77" width="14.87" height="14.54"/><rect class="cls-6" x="398.28" y="390.34" width="14.87" height="14.54"/><rect class="cls-14" x="559.34" y="312.36" width="60.99" height="13.78"/><rect class="cls-18" x="620.33" y="312.36" width="30.65" height="12.41"/><rect class="cls-14" x="541.36" y="321.66" width="89.33" height="92.15"/><path class="cls-15" d="M629.57,321.66H669l-.15,92.15h-39.3Z"/><rect class="cls-19" x="604.29" y="385.75" width="16.04" height="28.06"/><rect class="cls-20" x="541.36" y="321.66" width="88.24" height="7.37"/><rect class="cls-19" x="629.6" y="321.66" width="39.39" height="7.37"/><rect class="cls-26" x="659.69" y="337.12" width="6.06" height="9.84"/><rect class="cls-16" x="546.94" y="337.12" width="18.35" height="9.84"/><rect class="cls-16" x="577.41" y="337.12" width="18.35" height="9.84"/><rect class="cls-16" x="607.88" y="337.12" width="18.35" height="9.84"/><rect class="cls-26" x="659.69" y="354.45" width="6.06" height="9.84"/><rect class="cls-16" x="546.94" y="354.45" width="18.35" height="9.84"/><rect class="cls-16" x="577.41" y="354.45" width="18.35" height="9.84"/><rect class="cls-16" x="607.88" y="354.45" width="18.35" height="9.84"/><rect class="cls-2" x="1107.85" y="241.16" width="89.33" height="76.44"/><path class="cls-27" d="M1196.07,241.16h39.45l-.15,76.45h-39.3Z"/><rect class="cls-20" x="1107.86" y="241.16" width="88.24" height="5.48"/><rect class="cls-19" x="1196.09" y="241.16" width="39.39" height="5.48"/><rect class="cls-26" x="1201.1" y="253.52" width="9.99" height="10.92"/><rect class="cls-16" x="1115.87" y="253.52" width="13.47" height="14.2"/><rect class="cls-20" x="1165.05" y="291.95" width="15.51" height="22.29"/><rect class="cls-16" x="1137.29" y="253.66" width="30.54" height="14.01"/><g id="yellow-tree4"><path class="cls-9" d="M1212.16,258.08c8.09.74,12.42,18.91,19.18,31a58.08,58.08,0,0,1,6.9,31.15c-1.07,22.76-8,31.48-27.63,30.18-22.4-1.49-26.47-18.51-27.3-34.4s6.36-24,8.81-32.14C1196,271,1206.5,257.56,1212.16,258.08Z"/></g><g id="yellow-tree5"><path class="cls-9" d="M919.91,271.39c8.09.74,12.41,18.92,19.18,31A58.14,58.14,0,0,1,946,333.53c-1.06,22.77-8.05,31.48-27.63,30.18-22.4-1.49-26.46-18.51-27.29-34.39s6.36-24,8.81-32.15C903.75,284.33,914.25,270.87,919.91,271.39Z"/></g><g id="yellow-tree6"><path class="cls-24" d="M1234.27,275.32c11.38,1,17.46,26.61,27,43.6,5.38,9.6,10.6,24.51,9.7,43.82-1.49,32-11.32,44.29-38.87,42.46-31.51-2.1-37.23-26.05-38.4-48.39-1.17-22.54,9-33.8,12.4-45.22C1211.54,293.52,1226.31,274.59,1234.27,275.32Z"/><path class="cls-21" d="M1231.71,433.07s-.43-6.18,1-22.06c1.54-16.9,3.09-21.64,2.17-21.58a53.73,53.73,0,0,1-12.89-9.22c-7.12-6.8-9.52-16.8-9.52-17.23,4.44,4.91,7.75,10.9,13.63,14.46,3.48,2.11,5.14,2.78,9.8,2.82,0,0-2.74-16.6-5.91-33.2-3.38-17.64-1.87-33-1.53-33.21.61-.39,8.57,46.67,12.44,44.11,4.43-2.94,15.54-29.22,15.54-29.22s-1,10.84-4.19,19.53c-2,5.52-7.28,12.94-10.57,17.8,0,0,1.35,24.34.62,47.61a105.42,105.42,0,0,0,1.18,18.78,27.72,27.72,0,0,1-5.14,1.21A51.18,51.18,0,0,1,1231.71,433.07Z"/></g><path class="cls-22" d="M1318.86,310.52l-39.79-29.93-40.59,30.06v116h80.38Z"/><polygon class="cls-12" points="1279.07 249.93 1279.07 280.94 1318.87 310.52 1318.87 279.51 1279.07 249.93"/><polygon class="cls-10" points="1279.07 249.93 1279.07 280.94 1238.31 311.24 1238.31 280.23 1279.07 249.93"/><rect class="cls-6" x="1253.61" y="347.68" width="10.64" height="19.11"/><rect class="cls-6" x="1253.61" y="318.21" width="10.64" height="19.11"/><rect class="cls-6" x="1253.61" y="377.15" width="10.64" height="19.11"/><rect class="cls-6" x="1273.99" y="347.13" width="10.64" height="19.11"/><rect class="cls-6" x="1273.99" y="317.66" width="10.64" height="19.11"/><rect class="cls-6" x="1273.99" y="376.6" width="10.64" height="19.11"/><rect class="cls-6" x="1293.89" y="347.68" width="10.64" height="19.11"/><rect class="cls-6" x="1293.89" y="318.21" width="10.64" height="19.11"/><rect class="cls-6" x="1293.89" y="377.15" width="10.64" height="19.11"/><path class="cls-28" d="M1171.32,269.09l0-7.81s-72.62.29-126.58.29l-62.84,35.21,158.75-3Z"/><rect class="cls-3" x="1044.76" y="266.21" width="126.58" height="108.47"/><rect class="cls-29" x="1075.85" y="286.02" width="15.1" height="12.65"/><rect class="cls-29" x="1106.92" y="286.02" width="15.1" height="12.65"/><rect class="cls-29" x="1138" y="286.02" width="15.1" height="12.65"/><path class="cls-11" d="M1044.76,266.21l-55.2,30.57-1.2,77.91h56.4Z"/><path class="cls-28" d="M1208.7,316.89l.49-4.59s-54.53.17-95,.17l-49.31,20.7,119.37-1.77Z"/><rect class="cls-3" x="1114.39" y="316.87" width="91.76" height="57.83"/><rect class="cls-30" x="1191.01" y="332.1" width="6.37" height="13.69"/><path class="cls-11" d="M1114.39,316.87l-40,16.3-.87,41.53h40.88Z"/><rect class="cls-4" x="1084.57" y="359.53" width="10.94" height="15.18"/><path class="cls-8" d="M266.29,443.77c-1.6-13.12-18.1-24-33.58-24a36,36,0,0,0-5.54.43c0-.14,0-.28,0-.43,0-18.84-12.3-34.14-27.44-34.14-.61,0-1.21,0-1.8.07-10.59-18.65-29.62-31.1-51.31-31.1-28.4,0-52.23,21.34-58.55,50-14.39,3.11-28.63,25.14-26.88,39.15Z"/><path class="cls-31" d="M1099.84,362.79l-18.15-46.18-25.44,45.76-.58,100.9,42.89-.43Z"/><polygon class="cls-10" points="903.6 316.61 1081.69 316.61 1058.71 362.37 880.62 362.37 903.6 316.61"/><path class="cls-12" d="M1012.08,336.2l-10,27.74-30-27.58Z"/><path class="cls-22" d="M1002,362.37l56.22-.11v101H880.66v-101l61.13.11,30.31-26Z"/><rect class="cls-19" x="949.29" y="416.54" width="37.38" height="25.2"/><rect class="cls-16" x="893.46" y="381.75" width="13.22" height="25.2"/><rect class="cls-16" x="893.46" y="439.27" width="17.98" height="12.06"/><rect class="cls-16" x="925.97" y="381.75" width="13.22" height="25.2"/><rect class="cls-16" x="921.21" y="420.1" width="17.98" height="12.06"/><rect class="cls-16" x="954.05" y="381.75" width="13.22" height="25.2"/><rect class="cls-16" x="982.13" y="381.75" width="13.22" height="25.2"/><rect class="cls-16" x="1011.09" y="381.75" width="13.17" height="25.2"/><rect class="cls-16" x="977.37" y="439.27" width="17.98" height="12.06"/><rect class="cls-14" x="1039.45" y="370.3" width="107.16" height="99.36"/><rect class="cls-18" x="1138.54" y="370.3" width="72.56" height="99.45"/><rect class="cls-20" x="1039.45" y="370.3" width="107.16" height="6.62"/><rect class="cls-19" x="1138.54" y="370.3" width="72.56" height="6.62"/><rect class="cls-16" x="1111.95" y="397.6" width="11.85" height="16.7"/><rect class="cls-16" x="1084.06" y="397.6" width="11.85" height="16.7"/><rect class="cls-16" x="1056.15" y="397.6" width="11.85" height="16.7"/><rect class="cls-16" x="1111.95" y="425.9" width="11.85" height="16.7"/><rect class="cls-16" x="1084.06" y="425.9" width="11.85" height="16.7"/><rect class="cls-16" x="1056.15" y="425.9" width="11.85" height="16.7"/><rect class="cls-16" x="1111.95" y="453.02" width="11.85" height="16.7"/><rect class="cls-16" x="1084.06" y="453.02" width="11.85" height="16.7"/><rect class="cls-16" x="1056.15" y="453.02" width="11.85" height="16.7"/><rect class="cls-17" x="1174.17" y="453.05" width="10.11" height="16.7"/><rect class="cls-17" x="1174.17" y="425.41" width="10.11" height="16.7"/><rect class="cls-17" x="1174.17" y="397.6" width="10.11" height="16.7"/><rect class="cls-17" x="1174.17" y="482.38" width="10.11" height="16.7"/><rect class="cls-17" x="1169.11" y="515.82" width="20.23" height="28.98"/><rect class="cls-32" x="92.23" y="493.38" width="1281.5" height="102.17"/><rect class="cls-33" x="877.99" y="431.9" width="107.16" height="82.64"/><rect class="cls-34" x="977.08" y="431.9" width="72.56" height="82.71"/><rect class="cls-4" x="878" y="431.9" width="107.16" height="6.62"/><rect class="cls-5" x="977.08" y="431.9" width="72.56" height="6.62"/><rect class="cls-6" x="950.5" y="459.2" width="11.85" height="16.7"/><rect class="cls-6" x="922.6" y="459.2" width="11.85" height="16.7"/><rect class="cls-6" x="894.69" y="459.2" width="11.85" height="16.7"/><rect class="cls-6" x="950.5" y="487.5" width="11.85" height="16.7"/><rect class="cls-6" x="922.6" y="487.5" width="11.85" height="16.7"/><rect class="cls-6" x="894.69" y="487.5" width="11.85" height="16.7"/><rect class="cls-7" x="1028.54" y="456.9" width="10.11" height="16.7"/><rect class="cls-5" x="992.48" y="485.67" width="20.23" height="28.98"/><rect class="cls-33" x="750.9" y="442.19" width="120.34" height="104.53"/><path class="cls-35" d="M943.3,447.28h9.81L913.4,398.17l-9.61,5.69Z"/><path class="cls-36" d="M907.28,400.17l-36,42V546.72h72.07V441.24Z"/><polygon class="cls-28" points="913.4 398.17 784.25 398.17 742.09 447.28 871.24 447.28 913.4 398.17"/><rect class="cls-6" x="835.75" y="469.19" width="13.3" height="18.76"/><rect class="cls-6" x="804.43" y="469.19" width="13.3" height="18.76"/><rect class="cls-6" x="773.08" y="469.19" width="13.3" height="18.76"/><rect class="cls-37" x="814.31" y="500.97" width="47.26" height="35.56"/><rect class="cls-37" x="779.73" y="500.97" width="27.99" height="35.56"/><rect class="cls-6" x="773.08" y="500.97" width="13.3" height="18.76"/><rect class="cls-7" x="902.18" y="439.58" width="11.36" height="18.76"/><rect class="cls-7" x="902.18" y="469.37" width="11.36" height="18.76"/><rect class="cls-4" x="896.51" y="501.55" width="22.72" height="45.26"/><path class="cls-38" d="M577.45,444.34c-1-8.16-10.75-14.91-19.94-14.91a19.92,19.92,0,0,0-3.29.27,2.44,2.44,0,0,0,0-.27c0-11.72-7.3-21.23-16.29-21.23-.36,0-.72,0-1.07,0-6.28-11.6-17.58-19.35-30.45-19.35-16.86,0-31,13.28-34.76,31.1-8.54,1.93-17,15.64-16,24.35Z"/><path class="cls-28" d="M1003.94,455.94l0-8.38s69.72.31,121.54.31l60.33,37.75-152.42-3.22Z"/><rect class="cls-33" x="1003.92" y="452.85" width="121.53" height="116.29"/><rect class="cls-6" x="1081.11" y="474.08" width="14.49" height="13.56"/><rect class="cls-6" x="1051.28" y="474.08" width="14.49" height="13.56"/><rect class="cls-6" x="1021.44" y="474.08" width="14.49" height="13.56"/><path class="cls-36" d="M1125.46,452.85l53,32.77,1.16,83.51h-54.15Z"/><path class="cls-10" d="M135.85,418.5h-5.13s25.12-35.64,25.19-35.51,4.67,3.2,4.67,3.2S134.89,418.68,135.85,418.5Z"/><path class="cls-22" d="M135.84,455.39v-39.1L159.16,383l23.33,33.3v39.1Z"/><rect class="cls-18" x="180.58" y="416.3" width="112.54" height="39.09"/><rect class="cls-39" x="195.48" y="427.91" width="5.74" height="11.55"/><rect class="cls-39" x="214.73" y="427.91" width="5.74" height="11.55"/><rect class="cls-39" x="233.98" y="427.91" width="5.74" height="11.55"/><rect class="cls-39" x="253.23" y="427.91" width="5.74" height="11.55"/><rect class="cls-39" x="272.48" y="427.91" width="5.74" height="11.55"/><polygon class="cls-12" points="155.92 382.99 273.64 382.99 298.31 418.5 180.58 418.5 155.92 382.99"/><path class="cls-10" d="M1232.72,360.53h-5.13s25.11-35.65,25.19-35.52,4.66,3.21,4.66,3.21S1231.75,360.7,1232.72,360.53Z"/><path class="cls-22" d="M1232.71,397.41V358.32L1256,325l23.32,33.31v39.09Z"/><rect class="cls-18" x="1277.45" y="358.32" width="112.54" height="39.09"/><rect class="cls-39" x="1292.35" y="369.93" width="5.74" height="11.55"/><rect class="cls-39" x="1311.6" y="369.93" width="5.74" height="11.55"/><rect class="cls-39" x="1330.85" y="369.93" width="5.74" height="11.55"/><rect class="cls-39" x="1350.1" y="369.93" width="5.74" height="11.55"/><rect class="cls-39" x="1369.35" y="369.93" width="5.74" height="11.55"/><polygon class="cls-12" points="1252.79 325.01 1370.51 325.01 1395.18 360.53 1277.45 360.53 1252.79 325.01"/><path class="cls-40" d="M374.91,466.72c-1-8-11-14.67-20.33-14.67a20.56,20.56,0,0,0-3.35.27v-.27c0-11.52-7.44-20.88-16.61-20.88-.36,0-.73,0-1.08,0-6.41-11.41-17.93-19-31.07-19-17.18,0-31.61,13.05-35.44,30.58-8.7,1.9-17.32,15.38-16.26,24Z"/><path class="cls-41" d="M923.62,542.45c-.81-7.27-9.23-13.28-17.14-13.28a16.55,16.55,0,0,0-2.83.25,2,2,0,0,0,0-.25c0-10.42-6.28-18.89-14-18.89-.31,0-.62,0-.92,0-5.41-10.32-15.12-17.22-26.2-17.22-14.49,0-26.66,11.82-29.89,27.68-7.34,1.72-14.61,13.91-13.72,21.67Z"/><path class="cls-41" d="M175.6,593.84c-.82-6.45-9.24-11.78-17.15-11.78a19,19,0,0,0-2.83.21,1.48,1.48,0,0,0,0-.21c0-9.25-6.28-16.77-14-16.77-.31,0-.62,0-.92,0a30.47,30.47,0,0,0-26.2-15.28c-14.49,0-26.66,10.48-29.89,24.56C77.27,576.13,70,587,70.9,593.84Z"/><path class="cls-28" d="M739.82,409.44l0-7.82s-72.61.29-126.58.29l-62.84,35.21,158.75-3Z"/><rect class="cls-42" x="613.26" y="406.55" width="126.58" height="108.47"/><rect class="cls-29" x="644.35" y="426.36" width="15.1" height="12.65"/><rect class="cls-29" x="675.42" y="426.36" width="15.1" height="12.65"/><rect class="cls-29" x="706.5" y="426.36" width="15.1" height="12.65"/><path class="cls-43" d="M613.26,406.55l-55.19,30.57L556.86,515h56.4Z"/><path class="cls-28" d="M777.2,457.23l.49-4.59s-54.53.17-95.05.17l-49.31,20.7,119.37-1.77Z"/><rect class="cls-42" x="682.89" y="457.21" width="91.76" height="57.83"/><rect class="cls-30" x="759.51" y="472.44" width="6.37" height="13.69"/><path class="cls-43" d="M682.89,457.21l-40,16.3L642,515h40.88Z"/><rect class="cls-4" x="653.07" y="499.87" width="10.94" height="15.18"/><rect class="cls-30" x="670.36" y="499.87" width="6.98" height="6.84"/><rect class="cls-33" x="422.51" y="382.1" width="107.16" height="82.64"/><rect class="cls-34" x="521.6" y="382.1" width="72.56" height="82.71"/><rect class="cls-4" x="422.51" y="382.1" width="107.16" height="6.62"/><rect class="cls-5" x="521.6" y="382.1" width="72.56" height="6.62"/><rect class="cls-6" x="495.01" y="409.4" width="11.85" height="16.7"/><rect class="cls-6" x="467.12" y="409.4" width="11.85" height="16.7"/><rect class="cls-6" x="439.2" y="409.4" width="11.85" height="16.7"/><rect class="cls-6" x="495.01" y="437.7" width="11.85" height="16.7"/><rect class="cls-6" x="467.12" y="437.7" width="11.85" height="16.7"/><rect class="cls-6" x="439.2" y="437.7" width="11.85" height="16.7"/><rect class="cls-7" x="573.06" y="407.1" width="10.11" height="16.7"/><rect class="cls-5" x="537" y="435.87" width="20.23" height="28.98"/><path class="cls-28" d="M584.4,501.48h-5.13s25.12-35.64,25.2-35.51,4.66,3.21,4.66,3.21S583.44,501.66,584.4,501.48Z"/><path class="cls-43" d="M584.4,538.37V499.28L607.72,466,631,499.28v39.09Z"/><rect class="cls-42" x="629.13" y="499.28" width="112.54" height="39.09"/><rect class="cls-39" x="644.03" y="510.89" width="5.74" height="11.55"/><rect class="cls-39" x="663.28" y="510.89" width="5.74" height="11.55"/><rect class="cls-39" x="682.53" y="510.89" width="5.74" height="11.55"/><rect class="cls-39" x="701.78" y="510.89" width="5.74" height="11.55"/><rect class="cls-39" x="721.03" y="510.89" width="5.74" height="11.55"/><polygon class="cls-35" points="604.47 465.97 722.2 465.97 746.86 501.48 629.13 501.48 604.47 465.97"/><path class="cls-23" d="M1428.13,418.5c-.9-6.86-10.16-12.54-18.85-12.54a21.18,21.18,0,0,0-3.11.23V406c0-9.85-6.91-17.85-15.41-17.85-.34,0-.67,0-1,0a33.7,33.7,0,0,0-61.69,9.88C1320,399.65,1312,411.18,1313,418.5Z"/><rect class="cls-34" x="1374.18" y="386.03" width="72.82" height="73.62"/><rect class="cls-33" x="1336.76" y="386.03" width="56.06" height="74.5"/><rect class="cls-44" x="1372.46" y="447.88" width="15.2" height="11.77"/><rect class="cls-45" x="1374.19" y="398.65" width="13.47" height="13.28"/><rect class="cls-37" x="1410.6" y="398.65" width="9.32" height="13.28"/><rect class="cls-19" x="1392.83" y="382.27" width="54.17" height="4.27"/><rect class="cls-20" x="1336.76" y="382.27" width="56.06" height="4.27"/><g id="yellow-tree7"><path class="cls-24" d="M1427.19,380.52c9.79.88,15.07,22.88,23.29,37.49,4.63,8.25,9.15,21.07,8.41,37.69-1.24,27.57-9.68,38.13-33.39,36.6-27.12-1.75-32.08-22.36-33.12-41.58-1.05-19.4,7.65-29.11,10.6-38.94C1407.65,396.22,1420.34,379.9,1427.19,380.52Z"/><path class="cls-21" d="M1425.23,519.51s-.38-5.31.84-19c1.3-14.55,2.62-18.63,1.83-18.57a46.71,46.71,0,0,1-11.11-7.92,31.78,31.78,0,0,1-8.22-14.81c3.83,4.22,6.69,9.37,11.75,12.43a13.24,13.24,0,0,0,8.44,2.4s-2.38-14.28-5.14-28.55c-2.93-15.18-1.65-28.41-1.36-28.59.53-.33,7.45,40.16,10.77,37.94,3.81-2.53,13.33-25.16,13.33-25.16a77.64,77.64,0,0,1-3.58,16.81c-1.74,4.75-6.24,11.14-9.07,15.34,0,0,1.21,20.94.62,41a90.05,90.05,0,0,0,1,16.16,23.9,23.9,0,0,1-4.42,1A43.71,43.71,0,0,1,1425.23,519.51Z"/></g><rect class="cls-33" x="1151.14" y="430.66" width="127.44" height="110.7"/><path class="cls-12" d="M1354.89,436.05h10.4l-42.06-52-10.17,6Z"/><path class="cls-36" d="M1316.75,386.15l-38.17,44.51V541.35h76.33V429.65Z"/><polygon class="cls-10" points="1323.23 384.03 1186.46 384.03 1141.81 436.05 1278.58 436.05 1323.23 384.03"/><rect class="cls-6" x="1241.01" y="459.24" width="14.09" height="19.87"/><rect class="cls-6" x="1207.83" y="459.24" width="14.09" height="19.87"/><rect class="cls-6" x="1174.63" y="459.24" width="14.09" height="19.87"/><rect class="cls-6" x="1241.01" y="492.9" width="14.09" height="19.87"/><rect class="cls-6" x="1207.83" y="492.9" width="14.09" height="19.87"/><rect class="cls-6" x="1174.63" y="492.9" width="14.09" height="19.87"/><rect class="cls-7" x="1311.36" y="427.89" width="12.03" height="19.87"/><rect class="cls-7" x="1311.36" y="459.43" width="12.03" height="19.87"/><rect class="cls-7" x="1305.35" y="493.52" width="24.06" height="47.93"/><path class="cls-23" d="M1237.31,444.47c2.68-6.44,10.3-5.78,13.51-2.27,9,9.85,15.64,80,14.94,86.68-1.18,11.38-4.83,14.25-10.43,16.83-3.08,1.43-12.57,2.37-19,.71-4.82-1.25-9.71-8.06-10.91-16.12C1223.79,519.16,1226.4,470.68,1237.31,444.47Z"/><path class="cls-46" d="M1241.1,573.22c0-.3.71-38.65.71-38.65l-6.4-5.22v-1.66l7.11,4.27.72-36h1.18l1.42,12.57,4.75-1.9.23,1.18-3.55,2.61.23,23.48L1253,532l.23,1.9-5.45,3.55v35.81S1241.09,573.51,1241.1,573.22Z"/><path class="cls-24" d="M1134.18,565.35c-1-7.79-11.45-14.24-21.25-14.24a23.73,23.73,0,0,0-3.5.26v-.26c0-11.19-7.78-20.28-17.36-20.28-.38,0-.76,0-1.14,0a37.88,37.88,0,0,0-69.52,11.22c-9.1,1.85-18.11,14.93-17,23.25Z"/><path class="cls-47" d="M1418.7,501.21l-39.8-29.93-40.59,30.06v65.95h80.39Z"/><polygon class="cls-12" points="1378.9 440.62 1378.9 471.63 1418.7 501.21 1418.7 470.2 1378.9 440.62"/><polygon class="cls-10" points="1378.9 440.62 1378.9 471.63 1338.14 501.93 1338.14 470.92 1378.9 440.62"/><rect class="cls-6" x="1353.44" y="538.37" width="10.64" height="19.11"/><rect class="cls-6" x="1353.44" y="508.9" width="10.64" height="19.11"/><rect class="cls-6" x="1373.82" y="537.82" width="10.64" height="19.11"/><rect class="cls-6" x="1373.82" y="508.35" width="10.64" height="19.11"/><rect class="cls-6" x="1393.72" y="538.37" width="10.64" height="19.11"/><rect class="cls-6" x="1393.72" y="508.9" width="10.64" height="19.11"/><path class="cls-47" d="M546.81,466.31,507,436.37l-40.59,30.06v65.95h80.38Z"/><polygon class="cls-12" points="507.02 405.71 507.02 436.73 546.81 466.3 546.81 435.29 507.02 405.71"/><polygon class="cls-10" points="507.02 405.71 507.02 436.72 466.26 467.02 466.26 436.01 507.02 405.71"/><rect class="cls-6" x="481.56" y="503.46" width="10.64" height="19.11"/><rect class="cls-6" x="481.56" y="474" width="10.64" height="19.11"/><rect class="cls-6" x="501.94" y="502.91" width="10.64" height="19.11"/><rect class="cls-6" x="501.94" y="473.44" width="10.64" height="19.11"/><rect class="cls-6" x="521.83" y="503.46" width="10.64" height="19.11"/><rect class="cls-6" x="521.83" y="474" width="10.64" height="19.11"/><path class="cls-31" d="M495.41,478.08,477.26,431.9l-25.44,45.76.41,55.15,42.89-.43Z"/><polygon class="cls-28" points="299.17 431.9 477.26 431.9 454.27 477.66 276.18 477.66 299.17 431.9"/><path class="cls-35" d="M407.64,451.49l-9.94,27.74-30.05-27.58Z"/><path class="cls-43" d="M397.53,477.66l56.21-.11.53,54.83H276.75l-.53-54.83,61.13.11,30.32-26Z"/><rect class="cls-4" x="376.72" y="506.09" width="28.49" height="26.29"/><rect class="cls-30" x="289.03" y="494.03" width="17.98" height="12.06"/><rect class="cls-30" x="289.03" y="532.38" width="17.98" height="12.06"/><rect class="cls-30" x="289.03" y="551.55" width="17.98" height="12.06"/><rect class="cls-30" x="316.78" y="513.2" width="17.98" height="12.06"/><rect class="cls-30" x="316.78" y="494.03" width="17.98" height="12.06"/><rect class="cls-30" x="344.86" y="513.2" width="17.98" height="12.06"/><rect class="cls-30" x="344.86" y="494.03" width="17.98" height="12.06"/><rect class="cls-30" x="418.98" y="494.03" width="17.98" height="12.06"/><path class="cls-24" d="M387.52,569.31c-1-7.8-11.45-14.25-21.25-14.25a23.77,23.77,0,0,0-3.51.26,2.17,2.17,0,0,0,0-.26c0-11.19-7.79-20.28-17.37-20.28-.38,0-.76,0-1.14.05a37.88,37.88,0,0,0-69.52,11.22c-9.1,1.85-18.11,14.93-17,23.26Z"/><path class="cls-41" d="M623,527.79c-.89-5.28-10-9.65-18.54-9.65a27.64,27.64,0,0,0-3.05.17v-.17c0-7.58-6.79-13.74-15.14-13.74-.34,0-.67,0-1,0-5.84-7.51-16.34-12.52-28.31-12.52-15.68,0-28.83,8.59-32.32,20.12-7.93,1.25-15.79,10.12-14.83,15.76Z"/><path class="cls-41" d="M387,551.55c1-7.08,11.57-20.34,21.55-20.34a26.32,26.32,0,0,1,3.57.24,1.93,1.93,0,0,1,0-.24c0-10.17,11.73-14,21.49-14,.39,0,.77,0,1.15,0,2.22-11.33,15.71-16,29.69-16,18.3,0,33.22,6.34,37.3,21.81,9.26,1.68,18.53,21,17.41,28.53Z"/><path class="cls-24" d="M823.77,417.29c3.49-8.38,13.42-7.52,17.61-2.94,11.74,12.83,20.38,104.18,19.47,112.92-1.55,14.83-6.3,18.57-13.6,21.94-4,1.85-16.37,3.09-24.71.92-6.28-1.62-12.65-10.5-14.21-21C806.17,514.61,809.56,451.44,823.77,417.29Z"/><path class="cls-21" d="M828.72,585c0-.38.92-50.35.92-50.35l-8.34-6.8v-2.16l9.27,5.56.93-47H833l1.86,16.38,6.17-2.48.31,1.55-4.63,3.4.31,30.58,7.1-2.47.31,2.47-7.1,4.63V585S828.71,585.43,828.72,585Z"/><g id="yellow-tree8"><path class="cls-48" d="M572.62,421.82c8.7.8,13.34,20.33,20.61,33.31,4.11,7.33,8.1,18.71,7.41,33.46C599.5,513.06,592,522.42,571,521c-24.07-1.59-28.43-19.89-29.32-36.95-.9-17.22,6.83-25.82,9.46-34.54C555.26,435.72,566.55,421.27,572.62,421.82Z"/><path class="cls-21" d="M570.67,545.17s-.33-4.71.77-16.85c1.18-12.91,2.36-16.53,1.66-16.48a41.12,41.12,0,0,1-9.85-7A28.23,28.23,0,0,1,556,491.64c3.39,3.75,5.92,8.32,10.41,11.05a11.82,11.82,0,0,0,7.48,2.15s-2.09-12.68-4.51-25.36c-2.58-13.47-1.42-25.21-1.17-25.37.47-.29,6.55,35.65,9.51,33.69,3.38-2.24,11.86-22.31,11.86-22.31a69.12,69.12,0,0,1-3.2,14.92c-1.55,4.21-5.55,9.88-8.07,13.59,0,0,1,18.59.48,36.37a80.24,80.24,0,0,0,.9,14.34,21.33,21.33,0,0,1-3.93.92A38.26,38.26,0,0,1,570.67,545.17Z"/></g><path class="cls-41" d="M1322.59,596.2c1.33-12.34,15-22.55,27.75-22.55a25.66,25.66,0,0,1,4.58.41v-.41c0-17.72,10.16-32.11,22.67-32.11a14.72,14.72,0,0,1,1.49.07c8.75-17.55,24.47-29.26,42.4-29.26,23.47,0,43.16,20.07,48.39,47,20.14,2.75,30,13.26,30.13,32.73Z"/><path class="cls-28" d="M1194.54,468.68V495h-91.64l0-4Z"/><path class="cls-43" d="M1194.53,474.69,1102.76,495l-.41,81.3h92.18Z"/><rect class="cls-30" x="1118.36" y="507.84" width="7.59" height="20.69"/><rect class="cls-49" x="1151.05" y="549.15" width="12.01" height="10.24"/><rect class="cls-49" x="1174" y="549.15" width="11.65" height="10.24"/><path class="cls-28" d="M1345.8,468.82V495.1h-91.64l0-4Z"/><path class="cls-43" d="M1345.79,474.82,1254,495.1l-.41,81.29h92.18Z"/><rect class="cls-30" x="1269.62" y="507.98" width="7.59" height="20.69"/><rect class="cls-30" x="1303.38" y="528.67" width="12.01" height="10.24"/><rect class="cls-30" x="1326.33" y="528.67" width="11.65" height="10.24"/><path class="cls-31" d="M150.45,420.18l0,26.28H58.79l0-4Z"/><path class="cls-43" d="M150.43,426.18,58.67,446.46l-.42,81.29h92.18Z"/><rect class="cls-30" x="74.26" y="459.33" width="7.59" height="20.69"/><rect class="cls-30" x="106.96" y="500.65" width="12.01" height="10.24"/><rect class="cls-30" x="129.91" y="500.65" width="11.65" height="10.24"/><g id="yellow-tree9"><path class="cls-24" d="M1200.11,476.59c7.36.68,11.3,17.22,17.45,28.22a52.81,52.81,0,0,1,6.28,28.34c-1,20.72-7.33,28.65-25.15,27.47-20.39-1.35-24.09-16.85-24.84-31.3s5.79-21.87,8-29.26C1185.4,488.37,1195,476.12,1200.11,476.59Z"/><path class="cls-50" d="M1198.45,581.08s-.28-4,.66-14.28c1-10.93,2-14,1.4-14a34.56,34.56,0,0,1-8.34-6,23.78,23.78,0,0,1-6.16-11.14c2.87,3.18,5,7,8.82,9.36a10,10,0,0,0,6.34,1.82s-1.77-10.74-3.83-21.48c-2.18-11.41-1.21-21.35-1-21.49.4-.24,5.55,30.2,8.05,28.54,2.87-1.9,10-18.9,10-18.9a58.38,58.38,0,0,1-2.71,12.64c-1.31,3.57-4.7,8.36-6.83,11.51,0,0,.87,15.75.4,30.8a68.44,68.44,0,0,0,.76,12.15,17.78,17.78,0,0,1-3.32.79A34,34,0,0,1,1198.45,581.08Z"/></g><g id="yellow-tree10"><path class="cls-24" d="M804,463.58c7.37.68,11.3,17.22,17.46,28.21a52.85,52.85,0,0,1,6.28,28.35c-1,20.72-7.33,28.65-25.15,27.47-20.39-1.36-24.09-16.85-24.84-31.31s5.78-21.87,8-29.25C789.28,475.36,798.83,463.11,804,463.58Z"/><path class="cls-50" d="M802.32,568.06s-.27-4,.66-14.27c1-10.94,2-14,1.41-14a35,35,0,0,1-8.35-6,23.88,23.88,0,0,1-6.16-11.14c2.88,3.17,5,7,8.82,9.35a9.91,9.91,0,0,0,6.34,1.82s-1.77-10.73-3.82-21.47c-2.18-11.41-1.21-21.36-1-21.49.4-.25,5.55,30.2,8,28.54,2.87-1.9,10.05-18.9,10.05-18.9a58.23,58.23,0,0,1-2.71,12.63c-1.32,3.57-4.71,8.37-6.84,11.52,0,0,.88,15.74.41,30.8a67.34,67.34,0,0,0,.76,12.15,18.26,18.26,0,0,1-3.32.78A32.32,32.32,0,0,1,802.32,568.06Z"/></g><path class="cls-31" d="M141.87,432.4l0,30.16H250l0-4.59Z"/><path class="cls-43" d="M141.89,439.29l108.27,23.26.49,93.26H141.89Z"/><rect class="cls-30" x="222.81" y="477.32" width="8.95" height="23.73"/><rect class="cls-30" x="178.71" y="477.32" width="14.17" height="11.75"/><rect class="cls-30" x="152.04" y="477.32" width="13.75" height="11.75"/><g id="yellow-tree11"><path class="cls-48" d="M250,437.06c11.36.74,17.44,18.75,26.94,30.71a44.51,44.51,0,0,1,9.68,30.86c-1.49,22.56-11.3,31.2-38.8,29.91-31.46-1.47-37.17-18.34-38.33-34.08s8.93-23.81,12.37-31.85C227.27,449.88,242,436.55,250,437.06Z"/><path class="cls-51" d="M245.27,580.46s-.37-5.77.87-20.59c1.32-15.77-.56-40.34-1.35-40.28A46.25,46.25,0,0,1,233.71,511c-6.11-6.33-4.07-9.6-4.07-10,3.82,4.58,2.55,4.11,7.6,7.43,3,2,4.42,2.59,8.42,2.63,0,0,.86,4.66-1.86-10.83-2.9-16.46-1.61-30.8-1.32-31s2.9,13.68,5.48,23.39c1.53,5.72,3.17,9.52,4.07,9.34,1.17-.22,3.75-3.26,5.2-7.25a36,36,0,0,0,1.7-8.68s3.05,4.09.3,12.2c-1.75,5.15-3.38,5.16-6.21,9.7,0,0,2,32.74,1.36,54.46a106.44,106.44,0,0,0,1,17.52A22.64,22.64,0,0,1,251,581,41.1,41.1,0,0,1,245.27,580.46Z"/></g><g id="yellow-tree12"><path class="cls-52" d="M93.76,470.21c8.94.82,13.71,20.9,21.19,34.24,4.21,7.53,8.32,19.24,7.61,34.4C121.39,564,113.67,573.62,92,572.18c-24.74-1.64-29.23-20.44-30.14-38-.93-17.7,7-26.53,9.73-35.5C75.91,484.5,87.51,469.64,93.76,470.21Z"/><path class="cls-53" d="M91.75,597s-.34-4.85.8-17.33c1.2-13.27,2.42-17,1.7-16.94a42.1,42.1,0,0,1-10.13-7.24A29,29,0,0,1,76.65,542c3.49,3.85,6.08,8.55,10.7,11.35a12.07,12.07,0,0,0,7.7,2.21s-2.15-13-4.65-26.06c-2.64-13.85-1.46-25.91-1.2-26.08.49-.3,6.74,36.65,9.77,34.63,3.48-2.3,12.2-22.93,12.2-22.93a70.85,70.85,0,0,1-3.29,15.33c-1.6,4.33-5.71,10.16-8.3,14,0,0,1.07,19.1.49,37.38a82.88,82.88,0,0,0,.93,14.74,21.65,21.65,0,0,1-4,1A40.08,40.08,0,0,1,91.75,597Z"/></g><g id="yellow-tree13"><path class="cls-23" d="M54.77,451.4c9.75.9,15,22.8,23.12,37.36,4.6,8.22,9.08,21,8.31,37.53-1.28,27.44-9.71,37.94-33.3,36.37C25.9,560.87,21,540.35,20,521.21c-1-19.31,7.66-29,10.62-38.74C35.3,467,48,450.78,54.77,451.4Z"/><path class="cls-46" d="M52.58,589.75s-.37-5.29.87-18.9c1.32-14.48,2.64-18.54,1.86-18.49a46,46,0,0,1-11.05-7.9,31.59,31.59,0,0,1-8.15-14.76c3.8,4.21,6.63,9.34,11.67,12.39a13.23,13.23,0,0,0,8.4,2.42s-2.35-14.22-5.07-28.44c-2.89-15.11-1.6-28.28-1.31-28.45.53-.33,7.35,40,10.66,37.78,3.8-2.51,13.31-25,13.31-25a77.34,77.34,0,0,1-3.59,16.73c-1.74,4.72-6.23,11.08-9.05,15.25,0,0,1.16,20.84.53,40.78a90.88,90.88,0,0,0,1,16.08,23.8,23.8,0,0,1-4.4,1A43.28,43.28,0,0,1,52.58,589.75Z"/></g><path class="cls-23" d="M1451,439.72c3.33-8,12.82-7.2,16.83-2.82,11.22,12.27,19.47,99.58,18.6,107.93-1.48,14.18-6,17.75-13,21-3.84,1.77-15.65,3-23.62.88-6-1.55-12.09-10-13.59-20.07C1434.13,532.73,1437.37,472.36,1451,439.72Z"/><path class="cls-46" d="M1455.68,600.05c0-.37.89-48.13.89-48.13l-8-6.49v-2.07l8.86,5.31.89-44.88h1.47l1.78,15.65,5.9-2.36.3,1.48-4.43,3.24.29,29.24,6.79-2.37.3,2.37-6.79,4.42v44.59S1455.67,600.42,1455.68,600.05Z"/><path class="cls-41" d="M0,590.19c.08-6,2.89-8.13,8.23-8.37-1.53-1.4-1.48-4-.74-6.11,1.39-4,7.46-6.57,12.27-4,2.2-8,10.61-11.91,16.84-8.27a13,13,0,0,1,10.92-5.91,12.77,12.77,0,0,1,12.89,12.63h.06c4,0,7.43,3.12,8.38,7.29,11.71,1.59,19.68,9.81,19.68,15.48Z"/><g id="front-row"><path class="cls-54" d="M560,475.66l22,23.14v9.47H479.21v-7.8Z"/><path class="cls-55" d="M582.06,504l-23.41-24.17L479.21,504v96H582.06Z"/><rect class="cls-37" x="499.97" y="517.22" width="11.12" height="10.57"/><rect class="cls-37" x="524.51" y="517.22" width="11.27" height="10.57"/><rect class="cls-37" x="503.72" y="556.74" width="14.73" height="16.17"/><rect class="cls-44" x="538.02" y="556.49" width="24.81" height="43.48"/><rect class="cls-56" x="1003.57" y="509.04" width="62.63" height="82.1"/><rect class="cls-57" x="910.97" y="509.04" width="105.02" height="82.1"/><rect class="cls-37" x="918.28" y="528.61" width="60.45" height="9.21"/><rect class="cls-44" x="991.04" y="569.59" width="12.52" height="21.54"/><rect class="cls-37" x="1023.85" y="523.49" width="7.98" height="9.72"/><rect class="cls-37" x="1039.87" y="523.75" width="7.98" height="9.72"/><rect class="cls-37" x="1023.85" y="540.37" width="7.98" height="9.72"/><rect class="cls-5" x="1013.29" y="504.65" width="52.9" height="6.38"/><rect class="cls-58" x="910.97" y="504.65" width="105.02" height="6.38"/><path class="cls-54" d="M787.68,490.6v24.65H700.75l0-3.75Z"/><path class="cls-55" d="M787.67,496.23l-87,19-.39,76.24h87.43Z"/><rect class="cls-37" x="775.66" y="509.35" width="7.2" height="19.4"/><rect class="cls-37" x="746.43" y="566.08" width="11.39" height="9.6"/><rect class="cls-37" x="768.2" y="566.08" width="11.05" height="9.6"/><rect class="cls-57" x="782.09" y="544.15" width="129.5" height="46.85"/><rect class="cls-44" x="824.34" y="559.2" width="76.96" height="31.81"/><rect class="cls-56" x="828.56" y="562.56" width="67.47" height="28.45"/><path class="cls-59" d="M896,588.22H828.56v1.06H896Zm0-2.66H828.56v1.06H896Zm0-2.66H828.56V584H896Zm0-2.66H828.56v1.06H896Zm0-2.66H828.56v1.06H896Zm0-2.66H828.56V576H896Zm0-2.65H828.56v1.05H896Zm0-2.66H828.56v1H896Zm0-2.66H828.56V568H896Zm0-2.66H828.56v1.06H896Z"/><rect class="cls-37" x="789.08" y="559.2" width="25.3" height="5.75"/><rect class="cls-44" x="782.09" y="539.21" width="129.5" height="4.94"/><rect class="cls-56" x="1190.84" y="539.44" width="86.33" height="52.49"/><path class="cls-55" d="M1346,568.46l-75.71-14.84v38.31H1346Z"/><rect class="cls-5" x="1219.01" y="565.69" width="51.3" height="26.25"/><rect class="cls-57" x="1221.82" y="568.46" width="44.98" height="23.47"/><path class="cls-55" d="M1266.8,589.63h-45v.88h45Zm0-2.19h-45v.87h45Zm0-2.2h-45v.88h45Zm0-2.19h-45v.87h45Zm0-2.2h-45v.88h45Zm0-2.19h-45v.88h45Zm0-2.19h-45v.87h45Zm0-2.19h-45v.87h45Zm0-2.2h-45V573h45Zm0-2.19h-45v.87h45Z"/><rect class="cls-44" x="1190.84" y="533.91" width="86.33" height="5.53"/><path class="cls-54" d="M1270.31,553.16l85.88,16.05-1,5.44-84.86-15.86Z"/><rect class="cls-56" x="14.11" y="550.09" width="141.55" height="45.46"/><rect class="cls-44" x="22.29" y="569.31" width="55.67" height="26.25"/><rect class="cls-57" x="25.34" y="572.08" width="48.81" height="23.47"/><path class="cls-55" d="M74.15,593.25H25.34v.88H74.15Zm0-2.19H25.34v.87H74.15Zm0-2.19H25.34v.87H74.15Zm0-2.2H25.34v.87H74.15Zm0-2.19H25.34v.87H74.15Zm0-2.2H25.34v.88H74.15Zm0-2.19H25.34V581H74.15Zm0-2.19H25.34v.87H74.15Zm0-2.2H25.34v.88H74.15Zm0-2.19H25.34v.87H74.15Z"/><rect class="cls-37" x="88.09" y="572.82" width="10.31" height="5.71"/><rect class="cls-37" x="104.84" y="572.82" width="10.31" height="5.71"/><rect class="cls-44" x="14.11" y="550.09" width="141.55" height="5.53"/><rect class="cls-56" x="419.33" y="546.66" width="83.01" height="45.46"/><rect class="cls-60" x="487.37" y="557.32" width="6.7" height="5.71"/><rect class="cls-60" x="487.37" y="569.39" width="6.7" height="5.71"/><rect class="cls-44" x="419.33" y="546.65" width="83.01" height="5.53"/><path class="cls-35" d="M1082.83,541l-.41-3.91s46.45.14,81,.14l42,17.64-101.68-1.51Z"/><rect class="cls-57" x="1085" y="541.02" width="78.16" height="49.26"/><rect class="cls-37" x="1092.48" y="553.99" width="5.42" height="11.66"/><path class="cls-55" d="M1163.17,541l34.08,13.88.74,35.38h-34.82Z"/><rect class="cls-44" x="1179.25" y="577.35" width="9.32" height="12.93"/><rect class="cls-37" x="1167.9" y="577.35" width="5.94" height="5.83"/><rect class="cls-57" x="1033.64" y="565.65" width="53.86" height="24.63"/><rect class="cls-5" x="1031.83" y="562.62" width="53.17" height="3.03"/><rect class="cls-56" x="420.42" y="537.07" width="45.95" height="54.58"/><rect class="cls-57" x="396.8" y="537.07" width="35.38" height="55.24"/><rect class="cls-44" x="419.33" y="582.92" width="9.59" height="8.73"/><rect class="cls-37" x="443.39" y="546.43" width="5.88" height="10.05"/><rect class="cls-5" x="432.18" y="533.91" width="34.19" height="3.16"/><rect class="cls-58" x="396.8" y="533.91" width="35.38" height="3.16"/><rect class="cls-56" x="599.46" y="528.69" width="53.22" height="63.75"/><rect class="cls-57" x="572.12" y="528.69" width="40.97" height="64.52"/><rect class="cls-44" x="598.2" y="582.25" width="11.11" height="10.19"/><rect class="cls-45" x="586.41" y="537.03" width="22.21" height="9.56"/><rect class="cls-37" x="625.39" y="537.03" width="6.81" height="9.56"/><rect class="cls-5" x="613.09" y="525" width="39.59" height="3.69"/><rect class="cls-58" x="572.12" y="525" width="40.97" height="3.69"/><rect class="cls-56" x="669.93" y="537.85" width="53.22" height="53.8"/><rect class="cls-57" x="642.58" y="537.85" width="40.97" height="54.45"/><rect class="cls-44" x="668.67" y="583.05" width="11.11" height="8.6"/><rect class="cls-45" x="657.56" y="547.08" width="22.21" height="9.7"/><rect class="cls-37" x="696.54" y="547.08" width="6.81" height="9.7"/><rect class="cls-5" x="683.55" y="534.74" width="39.59" height="3.12"/><rect class="cls-58" x="642.58" y="534.74" width="40.97" height="3.12"/><rect class="cls-56" x="350.43" y="530.39" width="54.19" height="61.18"/><rect class="cls-57" x="322.58" y="530.39" width="41.72" height="61.92"/><rect class="cls-44" x="349.15" y="581.79" width="11.31" height="9.78"/><rect class="cls-37" x="374.06" y="537.99" width="6.94" height="12.14"/><rect class="cls-5" x="364.3" y="526.84" width="40.32" height="3.54"/><rect class="cls-58" x="322.58" y="526.84" width="41.72" height="3.54"/><path class="cls-61" d="M1339.61,563.61h-3.87s19-26.89,19-26.79,3.51,2.42,3.51,2.42S1338.88,563.74,1339.61,563.61Z"/><path class="cls-59" d="M1339.61,591.43V561.94l17.59-25.12,17.59,25.12v29.49Z"/><rect class="cls-56" x="1373.35" y="561.94" width="84.88" height="29.49"/><rect class="cls-37" x="1384.59" y="570.7" width="4.33" height="8.71"/><rect class="cls-37" x="1399.11" y="570.7" width="4.33" height="8.71"/><rect class="cls-37" x="1413.63" y="570.7" width="4.33" height="8.71"/><rect class="cls-37" x="1428.15" y="570.7" width="4.33" height="8.71"/><rect class="cls-37" x="1442.67" y="570.7" width="4.33" height="8.71"/><rect class="cls-44" x="1348.86" y="578.75" width="12.71" height="12.68"/><polygon class="cls-35" points="1354.75 536.82 1443.55 536.82 1462.15 563.61 1373.35 563.61 1354.75 536.82"/><rect class="cls-56" x="200.04" y="498.59" width="109.63" height="92.4"/><rect class="cls-37" x="219.6" y="515.46" width="11.86" height="21.03"/><rect class="cls-37" x="244.01" y="515.46" width="11.86" height="21.03"/><rect class="cls-37" x="268.41" y="515.46" width="11.86" height="21.03"/><path class="cls-62" d="M201.84,498.59l-47,26-1,66.36h48Z"/><rect class="cls-57" x="155" y="498.59" width="46.85" height="92.4"/><rect class="cls-45" x="162.93" y="515.46" width="30.57" height="10.52"/><rect class="cls-5" x="179.51" y="571.46" width="12.47" height="19.53"/><rect class="cls-4" x="155" y="492.65" width="49.02" height="5.94"/><rect class="cls-5" x="201.84" y="492.65" width="107.82" height="5.94"/><path class="cls-35" d="M341.49,541.76l.42-3.91s-46.45.14-81,.14l-42,17.64,101.67-1.51Z"/><rect class="cls-56" x="261.16" y="541.75" width="78.16" height="49.26"/><path class="cls-59" d="M261.16,541.75l-34.08,13.88L226.33,591h34.83Z"/><rect class="cls-45" x="252.05" y="554.71" width="5.42" height="11.66"/><rect class="cls-5" x="235.75" y="571.69" width="10.62" height="19.32"/><rect class="cls-5" x="276.18" y="571.69" width="53.84" height="19.32"/><rect class="cls-56" x="279.83" y="575.09" width="46.81" height="15.91"/><rect class="cls-57" x="279.82" y="577.36" width="46.81" height="1.87"/><rect class="cls-57" x="279.82" y="581.28" width="46.81" height="1.87"/><rect class="cls-57" x="279.82" y="585.21" width="46.81" height="1.87"/><rect class="cls-57" x="279.82" y="589.14" width="46.81" height="1.87"/></g></g><g id="front-line"><rect class="cls-5" y="589.94" width="1500" height="18.8"/></g></g></g></svg>