<svg xmlns="http://www.w3.org/2000/svg" viewBox="0 0 1500.01 608.74"><defs><style>.cls-1{fill:#f6d5b3;}.cls-1,.cls-11,.cls-12,.cls-14,.cls-15,.cls-16,.cls-17,.cls-18,.cls-2,.cls-22,.cls-23,.cls-26,.cls-27,.cls-29,.cls-32,.cls-33,.cls-34,.cls-38,.cls-4,.cls-41,.cls-43,.cls-45,.cls-48,.cls-5,.cls-50,.cls-6,.cls-7,.cls-8{fill-rule:evenodd;}.cls-2{fill:#f8e0c7;}.cls-3{fill:#f3cc97;}.cls-4{fill:#958e46;}.cls-5{fill:#afa650;}.cls-49,.cls-6{fill:#906152;}.cls-7{fill:#e67d44;}.cls-10,.cls-8{fill:#eccb9b;}.cls-15,.cls-9{fill:#b5925a;}.cls-11,.cls-13{fill:#bb5823;}.cls-12{fill:#f1dec0;}.cls-14{fill:#f8965e;}.cls-16,.cls-24{fill:#7a7439;}.cls-17{fill:#d66523;}.cls-18,.cls-19{fill:#df7639;}.cls-20{fill:#6b7a3b;}.cls-21,.cls-41{fill:#a39b70;}.cls-22,.cls-40{fill:#988f56;}.cls-23,.cls-44{fill:#dc7244;}.cls-25{fill:#615e2f;}.cls-26{fill:#837c3d;}.cls-27,.cls-35{fill:#5f5c2e;}.cls-28{fill:#d9c5be;}.cls-29,.cls-42{fill:#b89286;}.cls-30{fill:#c2a194;}.cls-31,.cls-50{fill:#704e45;}.cls-32,.cls-51{fill:#483328;}.cls-33{fill:#847e3d;}.cls-34,.cls-36{fill:#aaa26c;}.cls-37{fill:#726f38;}.cls-38{fill:#b6b090;}.cls-39{fill:#8e8743;}.cls-43{fill:#ac8073;}.cls-45{fill:#4d392a;}.cls-46,.cls-48{fill:#a24d1f;}.cls-47{fill:#553c36;}.cls-52{fill:#4f382b;}</style></defs><g id="Layer_2" data-name="Layer 2"><g id="Layer_1-2" data-name="Layer 1"><g id="clouds02"><g id="big-cloud"><path class="cls-1" d="M1198.43,99.72C1180,42.3,1117.44,0,1043.26,0c-61.08,0-96,23.23-123.22,65.42C914,63.23,895.26,61,871.37,68.94c-31.63,10.59-50.48,28.79-50.48,66,0,11.33-.12,14,4.39,23.42C722,119,647.13,166.24,620.06,201.84,607.78,218,607.23,240.75,609,244.1,570.08,211,495.63,226,504.18,284.58c.47,3.13,14.12,13.4,10.66,14.17-13.48,3-150.24,5.4-290.65,21.15-33.38,3.74-73.73,4.5-100.68,34.74-14.3,16-15.11,50.22,3.32,68.74,7.16,7.19,36.45,10.77,47.89,10.67,211-1.84,1172.89-3.92,1206.91-7.29,77.58-7.71,64.29-100,45-121.49-14.62-16.26-30.71-35.74-86.37-37.49-6-.17-11.86,1.24-7.54-1.54,21.94-14.14,2.86-80.6-63.2-63.76-.78.2,0-.7,0-.7C1269.24,153.88,1239.41,113.36,1198.43,99.72Z"/></g><g id="big-cloud1"><path class="cls-2" d="M1177.44,158.36c-15.78-39.58-69.17-68.75-132.53-68.75-52.16,0-82,16-105.23,45.1-5.18-1.51-21.16-3.08-41.56,2.43C871.1,144.44,855,157,855,182.67c0,7.81-.11,9.67,3.74,16.14-88.22-27.19-152.14,5.41-175.26,29.95-10.49,11.13-11,26.82-9.46,29.12-33.23-22.8-96.81-12.44-89.51,27.91.4,2.16,12.06,9.24,9.11,9.77-11.52,2.05-128.31,3.72-248.23,14.58-28.51,2.58-63,3.1-86,23.95-12.21,11.05-12.91,34.62,2.83,47.39,6.12,4.95,31.14,7.42,40.9,7.35,180.22-1.27,1001.69-2.7,1030.74-5,66.26-5.31,54.91-68.95,38.44-83.74-12.49-11.21-26.23-24.64-73.77-25.85-5.09-.12-10.13.86-6.43-1.06,18.73-9.75,2.43-55.57-54-44-.66.14,0-.48,0-.48C1237.91,195.69,1212.43,167.76,1177.44,158.36Z"/></g><ellipse class="cls-3" cx="894.24" cy="316.41" rx="139.42" ry="139.69"/></g><g id="_02" data-name=" 02"><path class="cls-4" d="M1187,278.58c71.22.57,137.68,52.21,186.73,103.85S1481.88,589,1481.88,589H16.51s118.74-150.7,401.28-214.12C722.09,306.54,1027.68,277.32,1187,278.58Z"/><g id="yellow-tree"><path class="cls-5" d="M983.57,181.9c9,.81,13.88,21.07,21.45,34.53,4.27,7.6,8.44,19.41,7.75,34.72-1.14,25.39-8.92,35.13-30.75,33.71-25-1.61-29.56-20.59-30.51-38.3-1-17.87,7-26.81,9.76-35.87C965.57,196.36,977.26,181.33,983.57,181.9Z"/><path class="cls-6" d="M981.76,309.93s-.35-4.9.78-17.49c1.19-13.4,2.41-17.16,1.69-17.11A42.61,42.61,0,0,1,974,268a29.18,29.18,0,0,1-7.57-13.64c3.53,3.89,6.16,8.63,10.83,11.45a12.26,12.26,0,0,0,7.77,2.22s-2.19-13.16-4.73-26.31c-2.7-14-1.53-26.17-1.26-26.33.48-.31,6.86,37,9.92,35,3.51-2.34,12.28-23.18,12.28-23.18a71.32,71.32,0,0,1-3.3,15.49c-1.6,4.37-5.74,10.26-8.35,14.12,0,0,1.11,19.29.56,37.75a83.85,83.85,0,0,0,1,14.88,22.25,22.25,0,0,1-4.07,1A40.94,40.94,0,0,1,981.76,309.93Z"/></g><g id="yellow-tree1"><path class="cls-5" d="M1070.44,208.15c8,.73,12.3,18.73,19,30.69a57.6,57.6,0,0,1,6.83,30.85c-1.06,22.54-8,31.17-27.36,29.89-22.19-1.48-26.22-18.34-27-34.07s6.3-23.79,8.73-31.83C1054.44,221,1064.84,207.63,1070.44,208.15Z"/><path class="cls-6" d="M1068.64,321.83s-.3-4.34.72-15.53c1.08-11.9,2.17-15.23,1.52-15.19a37.62,37.62,0,0,1-9.07-6.49,26,26,0,0,1-6.71-12.13c3.13,3.46,5.46,7.68,9.6,10.18a10.82,10.82,0,0,0,6.9,2s-1.93-11.69-4.16-23.37c-2.38-12.42-1.32-23.24-1.08-23.38.43-.27,6,32.85,8.76,31,3.12-2.07,10.93-20.57,10.93-20.57a63.32,63.32,0,0,1-2.94,13.75c-1.44,3.88-5.12,9.11-7.44,12.53,0,0,.95,17.13.44,33.52a74.49,74.49,0,0,0,.82,13.21,19.7,19.7,0,0,1-3.61.86A35.82,35.82,0,0,1,1068.64,321.83Z"/></g><g id="yellow-tree2"><path class="cls-5" d="M468,291c6.62.61,10.16,15.48,15.69,25.37a47.51,47.51,0,0,1,5.65,25.49c-.87,18.63-6.59,25.76-22.61,24.7-18.34-1.22-21.66-15.15-22.34-28.15s5.2-19.66,7.21-26.31C454.73,301.57,463.33,290.56,468,291Z"/><path class="cls-6" d="M466.47,384.93a94.05,94.05,0,0,1,.59-12.84c.89-9.83,1.79-12.59,1.26-12.55a31.27,31.27,0,0,1-7.5-5.36,21.47,21.47,0,0,1-5.54-10c2.59,2.85,4.51,6.34,7.93,8.41a9,9,0,0,0,5.7,1.64s-1.59-9.66-3.44-19.31c-2-10.27-1.08-19.2-.89-19.33.36-.22,5,27.16,7.24,25.66,2.58-1.71,9-17,9-17a52.52,52.52,0,0,1-2.44,11.36c-1.18,3.21-4.23,7.52-6.15,10.36,0,0,.79,14.15.37,27.69a60.55,60.55,0,0,0,.68,10.92,16.49,16.49,0,0,1-3,.71A29.34,29.34,0,0,1,466.47,384.93Z"/></g><g id="yellow-tree3"><path class="cls-5" d="M273.84,330.71c6.62.61,10.16,15.48,15.7,25.37a47.59,47.59,0,0,1,5.64,25.48c-.87,18.64-6.59,25.77-22.61,24.7-18.33-1.21-21.66-15.15-22.34-28.14s5.21-19.67,7.21-26.31C260.62,341.3,269.21,330.29,273.84,330.71Z"/><path class="cls-6" d="M272.35,424.65a93.9,93.9,0,0,1,.59-12.83c.9-9.83,1.8-12.59,1.27-12.55a31.44,31.44,0,0,1-7.51-5.37,21.36,21.36,0,0,1-5.53-10c2.58,2.86,4.5,6.34,7.92,8.42a9,9,0,0,0,5.7,1.63s-1.59-9.65-3.43-19.31c-2-10.26-1.09-19.2-.89-19.32s5,27.15,7.24,25.66c2.57-1.71,9-17,9-17a52,52,0,0,1-2.44,11.36c-1.18,3.21-4.23,7.52-6.14,10.35,0,0,.79,14.16.36,27.7a61.07,61.07,0,0,0,.69,10.92,16.72,16.72,0,0,1-3,.71A30.9,30.9,0,0,1,272.35,424.65Z"/></g><g id="yellow-tree4"><path class="cls-5" d="M728.61,270.21c6.62.61,10.15,15.48,15.69,25.37a47.41,47.41,0,0,1,5.64,25.48c-.87,18.64-6.58,25.77-22.61,24.7C709,344.55,705.67,330.61,705,317.62s5.2-19.67,7.21-26.31C715.38,280.8,724,269.79,728.61,270.21Z"/><path class="cls-6" d="M727.11,364.15a93.28,93.28,0,0,1,.6-12.83c.89-9.83,1.79-12.59,1.26-12.55a31.28,31.28,0,0,1-7.5-5.37,21.42,21.42,0,0,1-5.54-10c2.58,2.86,4.51,6.34,7.93,8.42a9,9,0,0,0,5.7,1.63s-1.59-9.65-3.44-19.31c-2-10.26-1.09-19.2-.89-19.32.36-.22,5,27.15,7.24,25.66,2.58-1.71,9-17,9-17a52.32,52.32,0,0,1-2.43,11.36c-1.19,3.21-4.23,7.52-6.15,10.35,0,0,.79,14.16.36,27.7A61.07,61.07,0,0,0,734,363.8a16.72,16.72,0,0,1-3,.71A30.9,30.9,0,0,1,727.11,364.15Z"/></g><g id="yellow-tree5"><path class="cls-5" d="M763.15,255.19c6.62.61,10.16,15.48,15.7,25.37a47.42,47.42,0,0,1,5.64,25.49c-.87,18.63-6.59,25.76-22.61,24.69-18.33-1.21-21.66-15.15-22.34-28.14s5.21-19.67,7.22-26.31C749.93,265.78,758.52,254.77,763.15,255.19Z"/><path class="cls-6" d="M761.66,349.14a94,94,0,0,1,.59-12.84c.9-9.83,1.8-12.59,1.27-12.55a31.28,31.28,0,0,1-7.5-5.37,21.42,21.42,0,0,1-5.54-10c2.58,2.86,4.5,6.34,7.93,8.42a9,9,0,0,0,5.7,1.63s-1.6-9.65-3.44-19.3c-2-10.27-1.09-19.21-.89-19.33.36-.22,5,27.16,7.24,25.66,2.58-1.71,9-17,9-17a52.32,52.32,0,0,1-2.43,11.36c-1.19,3.21-4.23,7.52-6.15,10.35,0,0,.79,14.16.36,27.7a61.07,61.07,0,0,0,.69,10.92,16.72,16.72,0,0,1-3,.71A31.47,31.47,0,0,1,761.66,349.14Z"/></g><g id="yellow-tree6"><path class="cls-5" d="M507.24,288.93c8,.74,12.29,18.74,19,30.7a57.56,57.56,0,0,1,6.83,30.84c-1,22.55-8,31.18-27.36,29.89-22.19-1.47-26.21-18.33-27-34.06s6.29-23.8,8.72-31.83C491.24,301.74,501.63,288.42,507.24,288.93Z"/><path class="cls-6" d="M505.43,402.62s-.3-4.35.72-15.53c1.08-11.9,2.17-15.24,1.53-15.19a37.9,37.9,0,0,1-9.08-6.5,26,26,0,0,1-6.7-12.12c3.12,3.45,5.45,7.67,9.59,10.18a10.87,10.87,0,0,0,6.9,2s-1.93-11.68-4.16-23.37c-2.38-12.42-1.32-23.23-1.08-23.38.43-.27,6,32.86,8.76,31.05,3.12-2.07,10.94-20.56,10.94-20.56a63.64,63.64,0,0,1-3,13.75c-1.43,3.88-5.12,9.1-7.44,12.53,0,0,.95,17.13.44,33.51a74.08,74.08,0,0,0,.83,13.22,19.29,19.29,0,0,1-3.62.85A36.34,36.34,0,0,1,505.43,402.62Z"/></g><path class="cls-4" d="M750,361.18c-.83-6.53-9.42-11.94-17.47-11.94a18.38,18.38,0,0,0-2.89.22,1.7,1.7,0,0,0,0-.22c0-9.39-6.4-17-14.28-17-.32,0-.63,0-.94,0a31.1,31.1,0,0,0-26.7-15.5c-14.78,0-27.18,10.63-30.47,24.91-7.48,1.55-14.89,12.52-14,19.5Z"/><path class="cls-4" d="M1353.8,330.67c-1-8.34-11.31-15.24-21-15.24a21.93,21.93,0,0,0-3.46.28v-.28c0-12-7.68-21.7-17.14-21.7a10.56,10.56,0,0,0-1.13,0C1304.47,281.92,1292.57,274,1279,274c-17.75,0-32.64,13.57-36.59,31.78-9,2-17.89,16-16.8,24.89Z"/><path class="cls-4" d="M1077.14,330.67c-1-8.34-11.31-15.24-21-15.24a22.06,22.06,0,0,0-3.47.28,2.53,2.53,0,0,0,0-.28c0-12-7.69-21.7-17.15-21.7a10.38,10.38,0,0,0-1.12,0c-6.62-11.86-18.51-19.78-32.07-19.78-17.74,0-32.64,13.57-36.59,31.78-9,2-17.88,16-16.79,24.89Z"/><path class="cls-7" d="M1095.5,172.71l24.88,26.15v10.71H1004.16v-8.82Z"/><path class="cls-8" d="M1120.38,204.75l-26.45-27.31-89.77,27.31V313.19h116.22Z"/><rect class="cls-9" x="1027.63" y="219.67" width="12.57" height="11.95"/><rect class="cls-9" x="1055.35" y="219.67" width="12.73" height="11.95"/><rect class="cls-9" x="1031.87" y="264.33" width="16.65" height="18.28"/><rect class="cls-9" x="1070.62" y="264.05" width="28.03" height="49.13"/><g id="yellow-tree7"><path class="cls-5" d="M1330.33,240.44c8.69.79,13.34,20.32,20.61,33.3a62.44,62.44,0,0,1,7.41,33.47c-1.14,24.46-8.65,33.82-29.69,32.43-24.07-1.6-28.44-19.9-29.33-37-.9-17.22,6.84-25.82,9.47-34.54C1313,254.34,1324.25,239.88,1330.33,240.44Z"/><path class="cls-6" d="M1328.37,363.78s-.32-4.71.78-16.85c1.17-12.91,2.36-16.53,1.66-16.48a41.12,41.12,0,0,1-9.85-7,28.13,28.13,0,0,1-7.27-13.16c3.39,3.75,5.91,8.32,10.41,11.05a11.76,11.76,0,0,0,7.48,2.15s-2.09-12.68-4.51-25.36c-2.58-13.47-1.43-25.21-1.17-25.37.47-.29,6.55,35.65,9.5,33.69,3.39-2.24,11.87-22.31,11.87-22.31a69.12,69.12,0,0,1-3.2,14.92c-1.55,4.21-5.56,9.88-8.07,13.59,0,0,1,18.59.47,36.37a81.36,81.36,0,0,0,.9,14.34,22,22,0,0,1-3.92.93A39.78,39.78,0,0,1,1328.37,363.78Z"/></g><g id="yellow-tree8"><path class="cls-5" d="M1375,281.26c7.14.65,11,16.68,16.92,27.34a51.26,51.26,0,0,1,6.08,27.47c-.94,20.08-7.1,27.77-24.37,26.62-19.76-1.31-23.34-16.33-24.08-30.34s5.61-21.19,7.78-28.35C1360.7,292.67,1370,280.8,1375,281.26Z"/><path class="cls-6" d="M1373.34,382.52s-.27-3.88.64-13.84c1-10.59,1.94-13.57,1.36-13.53a33.56,33.56,0,0,1-8.08-5.78,23.06,23.06,0,0,1-6-10.8c2.78,3.08,4.86,6.83,8.54,9.07a9.66,9.66,0,0,0,6.15,1.76s-1.72-10.4-3.71-20.81c-2.11-11.06-1.17-20.7-1-20.83.39-.24,5.38,29.27,7.81,27.66,2.77-1.84,9.74-18.32,9.74-18.32a57,57,0,0,1-2.63,12.25c-1.28,3.46-4.56,8.11-6.63,11.16,0,0,.85,15.26.39,29.85a66.62,66.62,0,0,0,.74,11.78,17.69,17.69,0,0,1-3.22.76A32.51,32.51,0,0,1,1373.34,382.52Z"/></g><g id="yellow-tree9"><path class="cls-5" d="M1012.46,235.3c7.36.68,11.29,17.22,17.45,28.22a52.81,52.81,0,0,1,6.28,28.34c-1,20.72-7.33,28.65-25.15,27.47C990.65,318,987,302.48,986.2,288s5.79-21.87,8-29.26C997.75,247.08,1007.31,234.83,1012.46,235.3Z"/><path class="cls-6" d="M1010.8,339.79s-.28-4,.66-14.28c1-10.93,2-14,1.4-14a34.35,34.35,0,0,1-8.34-6,23.78,23.78,0,0,1-6.16-11.14c2.87,3.18,5,7.05,8.82,9.36a10,10,0,0,0,6.33,1.82s-1.77-10.74-3.82-21.48c-2.18-11.41-1.21-21.35-1-21.49.4-.24,5.55,30.2,8,28.54,2.87-1.9,10-18.9,10-18.9a58.38,58.38,0,0,1-2.71,12.64c-1.31,3.57-4.7,8.36-6.84,11.51,0,0,.88,15.75.41,30.8a68.44,68.44,0,0,0,.76,12.15,17.78,17.78,0,0,1-3.32.79A34,34,0,0,1,1010.8,339.79Z"/></g><rect class="cls-10" x="1157.76" y="257.45" width="112.78" height="74.1"/><path class="cls-11" d="M1102.06,257.45h-9.19l30.37-44.15L1130,216Z"/><path class="cls-12" d="M1157.76,257.45l-29.3-44.15-29.29,44.15v74.11h58.59Z"/><polygon class="cls-7" points="1123.25 213.3 1246.13 213.3 1275.43 257.45 1152.54 257.45 1123.25 213.3"/><rect class="cls-9" x="1177.22" y="276.76" width="8.93" height="22.81"/><rect class="cls-9" x="1194.72" y="276.76" width="8.93" height="22.81"/><rect class="cls-9" x="1212.23" y="276.76" width="8.93" height="22.81"/><rect class="cls-9" x="1229.74" y="276.76" width="8.93" height="22.81"/><rect class="cls-9" x="1247.24" y="276.76" width="8.93" height="22.81"/><path class="cls-11" d="M1076.94,296.81h-3.32s16.26-23.08,16.31-23,3,2.07,3,2.07S1076.32,296.92,1076.94,296.81Z"/><path class="cls-12" d="M1107.13,295.38,1092,273.82l-15.09,21.56v36.19h30.19Z"/><rect class="cls-10" x="1106.89" y="295.38" width="21.31" height="36.19"/><rect class="cls-9" x="1114.44" y="303.75" width="6.21" height="12.12"/><rect class="cls-13" x="1084.88" y="309.81" width="10.91" height="21.76"/><polygon class="cls-7" points="1089.93 273.82 1113.22 273.82 1129.18 296.81 1105.9 296.81 1089.93 273.82"/><path class="cls-14" d="M958.89,244l36.66,39.8H922.22Z"/><rect class="cls-10" x="848.56" y="303.49" width="79.25" height="57.22"/><polygon class="cls-14" points="862.06 266.65 958.89 266.65 932.83 310.83 836 310.83 862.06 266.65"/><path class="cls-8" d="M990,281.85l-31.07-30-31.08,30v78.86H990Z"/><rect class="cls-9" x="951.46" y="334.69" width="8.64" height="13.91"/><rect class="cls-9" x="954.55" y="289.57" width="11.09" height="9.83"/><path class="cls-15" d="M965.64,289.57a5.56,5.56,0,0,0-11.09,0Z"/><rect class="cls-13" x="964.02" y="331.93" width="14.74" height="28.78"/><rect class="cls-9" x="865.31" y="323.96" width="8.61" height="15.95"/><rect class="cls-9" x="886.27" y="323.96" width="8.61" height="15.95"/><g id="yellow-tree10"><path class="cls-16" d="M435.88,302.35c9.11.54,14,13.83,21.59,22.67a31.19,31.19,0,0,1,7.77,22.78c-1.2,16.66-9.07,23-31.11,22.08-25.22-1.08-29.8-13.54-30.73-25.16s7.16-17.57,9.92-23.51C417.69,311.81,429.51,302,435.88,302.35Z"/><path class="cls-6" d="M429.58,402.62s-.29-4.26.7-15.2c1.06-11.64-.45-29.78-1.08-29.74a36.92,36.92,0,0,1-8.88-6.35c-4.9-4.68-3.27-7.09-3.27-7.39,3.06,3.38,2.05,3,6.1,5.49a10.63,10.63,0,0,0,6.75,1.94s.69,3.43-1.5-8c-2.32-12.15-1.28-22.74-1-22.88s2.32,10.1,4.39,17.26c1.23,4.23,2.54,7,3.26,6.91.94-.17,3-2.41,4.18-5.36a25.12,25.12,0,0,0,1.36-6.41s2.44,3,.24,9c-1.4,3.8-2.71,3.81-5,7.16,0,0,1.59,24.17,1.09,40.2a72.13,72.13,0,0,0,.81,12.94,19.06,19.06,0,0,1-3.54.83A35.35,35.35,0,0,1,429.58,402.62Z"/></g><path class="cls-14" d="M554.74,275.29l-36.67,39.8h73.34Z"/><rect class="cls-10" x="585.82" y="334.82" width="79.25" height="57.22"/><polygon class="cls-14" points="651.57 297.99 554.74 297.99 580.8 342.16 677.63 342.16 651.57 297.99"/><path class="cls-8" d="M523.67,313.18l31.07-30,31.08,30V392H523.67Z"/><rect class="cls-9" x="553.53" y="366.01" width="8.64" height="13.91"/><rect class="cls-9" x="547.99" y="320.9" width="11.09" height="9.83"/><path class="cls-15" d="M548,320.9a5.56,5.56,0,0,1,11.09,0Z"/><rect class="cls-13" x="534.87" y="363.26" width="14.74" height="28.78"/><rect class="cls-9" x="639.7" y="355.29" width="8.61" height="15.95"/><rect class="cls-9" x="618.75" y="355.29" width="8.61" height="15.95"/><path class="cls-14" d="M389.71,302.34l36.67,39.79H353Z"/><rect class="cls-10" x="279.38" y="361.86" width="79.25" height="57.22"/><polygon class="cls-14" points="292.88 325.03 389.71 325.03 363.65 369.2 266.82 369.2 292.88 325.03"/><path class="cls-8" d="M420.79,340.22l-31.08-30-31.08,30v78.86h62.16Z"/><rect class="cls-9" x="382.28" y="393.06" width="8.64" height="13.91"/><rect class="cls-9" x="385.37" y="347.94" width="11.09" height="9.83"/><path class="cls-15" d="M396.46,347.94a5.56,5.56,0,0,0-11.09,0Z"/><rect class="cls-13" x="394.84" y="390.3" width="14.74" height="28.78"/><rect class="cls-9" x="296.14" y="382.33" width="8.61" height="15.95"/><rect class="cls-9" x="317.09" y="382.33" width="8.61" height="15.95"/><rect class="cls-10" x="790.18" y="345.52" width="73.67" height="62.93"/><rect class="cls-9" x="809.4" y="364.53" width="12.85" height="17.39"/><rect class="cls-9" x="827.36" y="364.53" width="28.54" height="17.39"/><path class="cls-17" d="M757.11,311l25.54,13.82L784.09,349H723.17Z"/><path class="cls-12" d="M790.18,345.52,760,313.69l-29.56,31.83v62.94h59.73Z"/><rect class="cls-9" x="750.07" y="364.53" width="20.98" height="43.93"/><rect class="cls-9" x="756.08" y="335.82" width="8.97" height="9.7"/><polygon class="cls-18" points="757.11 310.98 832.65 310.98 868.69 348.98 793.15 348.98 757.11 310.98"/><rect class="cls-19" x="810.78" y="302.34" width="13.57" height="24.19"/><path class="cls-17" d="M810.78,302.34h-5.92l-.25,18.5,6.17,5.68Z"/><rect class="cls-10" x="886.36" y="366.49" width="73.67" height="62.93"/><rect class="cls-9" x="905.58" y="385.49" width="12.85" height="17.39"/><rect class="cls-9" x="923.54" y="385.49" width="28.54" height="17.39"/><path class="cls-17" d="M853.29,331.94l25.54,13.82,1.44,24.18H819.36Z"/><path class="cls-12" d="M886.36,366.49l-30.17-31.84-29.55,31.84v62.93h59.72Z"/><rect class="cls-9" x="846.26" y="385.49" width="20.98" height="43.93"/><rect class="cls-9" x="852.26" y="356.78" width="8.97" height="9.7"/><polygon class="cls-18" points="853.29 331.94 928.83 331.94 964.87 369.94 889.33 369.94 853.29 331.94"/><rect class="cls-19" x="906.97" y="323.3" width="13.57" height="24.19"/><path class="cls-17" d="M907,323.3H901l-.24,18.51,6.17,5.67Z"/><g id="yellow-tree11"><path class="cls-16" d="M774.67,354.24c8.17.49,12.54,12.42,19.38,20.35A28,28,0,0,1,801,395c-1.07,14.94-8.13,20.66-27.91,19.81-22.63-1-26.74-12.15-27.58-22.58s6.43-15.77,8.91-21.1C758.35,362.73,769,353.9,774.67,354.24Z"/><path class="cls-6" d="M769,444.21s-.27-3.81.63-13.63c1-10.45-.4-26.73-1-26.69a33.08,33.08,0,0,1-8-5.7c-4.4-4.2-2.93-6.36-2.93-6.63,2.74,3,1.83,2.72,5.47,4.92a9.45,9.45,0,0,0,6.06,1.74s.61,3.09-1.35-7.17c-2.08-10.91-1.15-20.4-.94-20.53S769.1,379.58,771,386c1.1,3.79,2.27,6.31,2.92,6.19.85-.14,2.7-2.16,3.75-4.8a22.34,22.34,0,0,0,1.22-5.76s2.19,2.72.21,8.09c-1.25,3.41-2.42,3.42-4.46,6.43,0,0,1.43,21.68,1,36.07a64.77,64.77,0,0,0,.72,11.61,17.51,17.51,0,0,1-3.17.75A31.64,31.64,0,0,1,769,444.21Z"/></g><rect class="cls-20" x="92.23" y="492.36" width="1281.5" height="102.16"/><rect class="cls-21" x="759.34" y="438.74" width="127.44" height="110.7"/><path class="cls-11" d="M963.09,444.13h10.4l-42.06-52-10.17,6Z"/><path class="cls-22" d="M925,394.23l-38.17,44.51V549.43h76.33V437.73Z"/><polygon class="cls-23" points="931.43 392.11 794.65 392.11 750.01 444.13 886.78 444.13 931.43 392.11"/><rect class="cls-24" x="849.2" y="467.32" width="14.09" height="19.87"/><rect class="cls-24" x="816.03" y="467.32" width="14.09" height="19.87"/><rect class="cls-24" x="782.83" y="467.32" width="14.09" height="19.87"/><rect class="cls-24" x="849.2" y="500.98" width="14.09" height="19.87"/><rect class="cls-24" x="816.03" y="500.98" width="14.09" height="19.87"/><rect class="cls-24" x="782.83" y="500.98" width="14.09" height="19.87"/><rect class="cls-25" x="919.55" y="435.97" width="12.03" height="19.87"/><rect class="cls-25" x="919.55" y="467.52" width="12.03" height="19.87"/><rect class="cls-25" x="913.54" y="501.6" width="24.06" height="47.93"/><path class="cls-16" d="M577.45,443.32c-1-8.16-10.75-14.91-19.94-14.91a19.71,19.71,0,0,0-3.28.27v-.27c0-11.72-7.3-21.23-16.29-21.23a9.58,9.58,0,0,0-1.07.05c-6.28-11.61-17.58-19.35-30.45-19.35-16.86,0-31,13.27-34.76,31.09-8.53,1.94-17,15.64-16,24.35Z"/><rect class="cls-10" x="671.49" y="385.08" width="73.67" height="62.93"/><rect class="cls-9" x="690.71" y="404.08" width="12.85" height="17.39"/><rect class="cls-9" x="708.67" y="404.08" width="28.54" height="17.39"/><path class="cls-17" d="M638.42,350.53,664,364.35l1.44,24.18H604.49Z"/><path class="cls-12" d="M671.49,385.08l-30.17-31.84-29.55,31.84V448h59.72Z"/><rect class="cls-9" x="631.39" y="404.08" width="20.98" height="43.93"/><rect class="cls-9" x="637.39" y="375.37" width="8.97" height="9.7"/><polygon class="cls-18" points="638.42 350.53 713.96 350.53 750 388.53 674.46 388.53 638.42 350.53"/><rect class="cls-19" x="692.1" y="341.89" width="13.57" height="24.19"/><path class="cls-17" d="M692.1,341.89h-5.93l-.24,18.51,6.17,5.67Z"/><path class="cls-8" d="M1094,357.37l-36.14-27.19L1021,357.48V462.81h73Z"/><polygon class="cls-11" points="1057.86 302.33 1057.86 330.5 1094 357.37 1094 329.2 1057.86 302.33"/><polygon class="cls-7" points="1057.86 302.33 1057.86 330.5 1020.84 358.02 1020.84 329.85 1057.86 302.33"/><rect class="cls-9" x="1048.19" y="391.62" width="18.75" height="17.35"/><rect class="cls-9" x="1048.19" y="364.86" width="18.75" height="17.35"/><rect class="cls-9" x="1048.19" y="418.39" width="18.75" height="17.35"/><path class="cls-8" d="M1022.61,357.37l-36.15-27.19-36.86,27.3V462.81h73Z"/><polygon class="cls-11" points="986.46 302.33 986.46 330.5 1022.61 357.37 1022.61 329.2 986.46 302.33"/><polygon class="cls-7" points="986.46 302.33 986.46 330.5 949.44 358.02 949.44 329.85 986.46 302.33"/><rect class="cls-9" x="976.8" y="391.62" width="18.75" height="17.35"/><rect class="cls-9" x="976.8" y="364.86" width="18.75" height="17.35"/><rect class="cls-9" x="976.8" y="418.39" width="18.75" height="17.35"/><path class="cls-11" d="M1124.41,331.2h-4.17s20.41-29,20.47-28.86,3.79,2.6,3.79,2.6S1123.62,331.34,1124.41,331.2Z"/><path class="cls-12" d="M1124.4,361.17V329.4l18.95-27.06,19,27.06v31.77Z"/><rect class="cls-10" x="1160.76" y="329.41" width="91.45" height="31.77"/><rect class="cls-9" x="1172.87" y="338.84" width="4.66" height="9.38"/><rect class="cls-9" x="1188.51" y="338.84" width="4.66" height="9.38"/><rect class="cls-9" x="1204.15" y="338.84" width="4.66" height="9.38"/><rect class="cls-9" x="1219.8" y="338.84" width="4.66" height="9.38"/><rect class="cls-9" x="1235.44" y="338.84" width="4.66" height="9.38"/><polygon class="cls-7" points="1140.72 302.34 1236.39 302.34 1256.43 331.2 1160.76 331.2 1140.72 302.34"/><path class="cls-11" d="M1241.71,359.44h-4.17s20.41-29,20.47-28.86,3.79,2.61,3.79,2.61S1240.93,359.59,1241.71,359.44Z"/><path class="cls-12" d="M1241.7,389.42V357.65l19-27.07,18.95,27.07v31.77Z"/><rect class="cls-10" x="1278.06" y="357.65" width="91.45" height="31.77"/><rect class="cls-9" x="1290.17" y="367.09" width="4.66" height="9.38"/><rect class="cls-9" x="1305.81" y="367.09" width="4.66" height="9.38"/><rect class="cls-9" x="1321.46" y="367.09" width="4.66" height="9.38"/><rect class="cls-9" x="1337.1" y="367.09" width="4.66" height="9.38"/><rect class="cls-9" x="1352.74" y="367.09" width="4.66" height="9.38"/><polygon class="cls-7" points="1258.02 330.58 1353.69 330.58 1373.73 359.44 1278.06 359.44 1258.02 330.58"/><path class="cls-11" d="M114,435.74h-5.13s25.12-35.64,25.2-35.51,4.66,3.21,4.66,3.21S113,435.92,114,435.74Z"/><path class="cls-12" d="M114,472.63V433.54l23.32-33.31,23.32,33.31v39.09Z"/><rect class="cls-10" x="158.72" y="433.54" width="112.54" height="39.09"/><rect class="cls-9" x="173.63" y="445.15" width="5.74" height="11.55"/><rect class="cls-9" x="192.88" y="445.15" width="5.74" height="11.55"/><rect class="cls-9" x="212.12" y="445.15" width="5.74" height="11.55"/><rect class="cls-9" x="231.37" y="445.15" width="5.74" height="11.55"/><rect class="cls-9" x="250.62" y="445.15" width="5.74" height="11.55"/><polygon class="cls-7" points="134.06 400.23 251.79 400.23 276.45 435.74 158.73 435.74 134.06 400.23"/><path class="cls-26" d="M1228.71,395.2c-.75-5.45-8.42-10-15.62-10a18.22,18.22,0,0,0-2.58.18,1.09,1.09,0,0,0,0-.18c0-7.82-5.72-14.17-12.76-14.17q-.42,0-.84,0a28.18,28.18,0,0,0-23.86-12.92c-13.21,0-24.29,8.86-27.23,20.76-6.69,1.29-13.31,10.44-12.5,16.26Z"/><g id="yellow-tree12"><path class="cls-16" d="M1133.23,322.13c7.18.47,11,11.83,17,19.39a28.13,28.13,0,0,1,6.11,19.48c-.94,14.24-7.14,19.69-24.49,18.87-19.86-.93-23.46-11.58-24.2-21.51s5.64-15,7.81-20.1C1118.91,330.22,1128.22,321.81,1133.23,322.13Z"/><path class="cls-6" d="M1128.28,407.86a101.38,101.38,0,0,1,.55-13c.83-10-.35-25.47-.85-25.43a29.1,29.1,0,0,1-7-5.43c-3.85-4-2.57-6.06-2.57-6.32,2.41,2.89,1.61,2.59,4.8,4.69a7.89,7.89,0,0,0,5.32,1.66s.54,2.94-1.18-6.84c-1.83-10.39-1-19.44-.83-19.56s1.83,8.64,3.46,14.76c1,3.61,2,6,2.56,5.9.75-.14,2.37-2.05,3.29-4.57a22.7,22.7,0,0,0,1.07-5.49s1.93,2.59.19,7.71c-1.1,3.25-2.13,3.25-3.92,6.12,0,0,1.26,20.66.86,34.37a67.09,67.09,0,0,0,.64,11.06,13.83,13.83,0,0,1-2.79.71A25.63,25.63,0,0,1,1128.28,407.86Z"/></g><path class="cls-27" d="M1189.55,416.75c-.82-5.38-9.24-9.82-17.14-9.82a21.82,21.82,0,0,0-2.83.18v-.18a14,14,0,0,0-14-14c-.31,0-.61,0-.91,0-5.41-7.64-15.12-12.74-26.2-12.74-14.5,0-26.66,8.74-29.89,20.47-7.34,1.28-14.61,10.3-13.72,16Z"/><g id="yellow-tree13"><path class="cls-16" d="M290,372.08c11.36.73,17.43,18.74,26.93,30.71a44.51,44.51,0,0,1,9.69,30.86c-1.5,22.56-11.31,31.19-38.8,29.9-31.46-1.47-37.17-18.34-38.34-34.08s8.93-23.8,12.38-31.85C267.33,384.89,282.07,371.56,290,372.08Z"/><path class="cls-6" d="M285.32,515.47s-.37-5.76.87-20.59c1.32-15.77-.56-40.34-1.34-40.28a45.83,45.83,0,0,1-11.08-8.6c-6.12-6.34-4.08-9.61-4.08-10,3.82,4.58,2.55,4.11,7.61,7.44,3,2,4.42,2.59,8.42,2.63,0,0,.86,4.65-1.87-10.83-2.9-16.47-1.6-30.8-1.31-31s2.89,13.69,5.48,23.39c1.52,5.72,3.16,9.52,4.06,9.35,1.17-.22,3.75-3.26,5.21-7.25A36.38,36.38,0,0,0,299,421s3,4.1.3,12.21c-1.74,5.14-3.37,5.16-6.2,9.7,0,0,2,32.73,1.35,54.45a107.76,107.76,0,0,0,1,17.52A22.64,22.64,0,0,1,291,516,41.28,41.28,0,0,1,285.32,515.47Z"/></g><path class="cls-27" d="M235.1,549.53c-.82-5.37-9.24-9.81-17.15-9.81a21.78,21.78,0,0,0-2.82.18v-.18a14,14,0,0,0-14-14c-.31,0-.61,0-.92,0C194.8,518.13,185.08,513,174,513c-14.5,0-26.66,8.74-29.89,20.47-7.34,1.28-14.61,10.3-13.72,16Z"/><path class="cls-27" d="M178.06,505.49c-.67-3.87-7.56-7.06-14-7.06a19.68,19.68,0,0,0-2.32.13.62.62,0,0,0,0-.13c0-5.55-5.15-10.05-11.48-10.05-.25,0-.5,0-.75,0-4.43-5.49-12.39-9.16-21.46-9.16-11.88,0-21.84,6.28-24.49,14.72-6,.92-12,7.4-11.24,11.53Z"/><rect class="cls-28" x="298.77" y="405.37" width="119.99" height="104.22"/><path class="cls-11" d="M490.6,410.45h9.79l-39.6-49-9.58,5.68Z"/><path class="cls-29" d="M454.69,363.47l-35.94,41.9V509.6h71.87V404.43Z"/><polygon class="cls-23" points="460.79 361.47 332.01 361.47 289.98 410.45 418.75 410.45 460.79 361.47"/><rect class="cls-30" x="383.37" y="432.29" width="13.27" height="18.7"/><rect class="cls-30" x="352.14" y="432.29" width="13.27" height="18.7"/><rect class="cls-30" x="320.88" y="432.29" width="13.27" height="18.7"/><rect class="cls-30" x="383.37" y="463.98" width="13.27" height="18.7"/><rect class="cls-30" x="352.14" y="463.98" width="13.27" height="18.7"/><rect class="cls-30" x="320.88" y="463.98" width="13.27" height="18.7"/><rect class="cls-31" x="449.61" y="402.77" width="11.32" height="18.7"/><rect class="cls-31" x="449.61" y="432.47" width="11.32" height="18.7"/><rect class="cls-31" x="443.95" y="464.56" width="22.65" height="45.13"/><g id="yellow-tree14"><path class="cls-16" d="M1425.72,363.85c9,.81,13.88,21.08,21.45,34.53,4.27,7.6,8.44,19.41,7.75,34.73-1.14,25.39-8.92,35.12-30.75,33.71-25-1.61-29.56-20.59-30.51-38.31s7-26.81,9.76-35.86C1407.72,378.31,1419.41,363.29,1425.72,363.85Z"/><path class="cls-32" d="M1423.91,491.89s-.35-4.9.78-17.5c1.19-13.4,2.41-17.16,1.69-17.11a42.39,42.39,0,0,1-10.24-7.29,29.22,29.22,0,0,1-7.57-13.64c3.53,3.88,6.16,8.63,10.83,11.44a12.14,12.14,0,0,0,7.77,2.22s-2.19-13.15-4.73-26.3c-2.7-14-1.53-26.17-1.26-26.34.48-.3,6.86,37,9.92,35,3.51-2.34,12.28-23.19,12.28-23.19a71.2,71.2,0,0,1-3.3,15.49c-1.6,4.38-5.74,10.27-8.35,14.13,0,0,1.11,19.29.56,37.74a83.91,83.91,0,0,0,1,14.89,21.66,21.66,0,0,1-4.07,1A39.64,39.64,0,0,1,1423.91,491.89Z"/></g><path class="cls-33" d="M577.19,346.33c2.68-6.44,10.3-5.78,13.52-2.27,9,9.85,15.63,80,14.94,86.68-1.19,11.38-4.84,14.25-10.44,16.83-3.08,1.43-12.56,2.37-19,.71-4.82-1.25-9.7-8.06-10.9-16.12C563.68,421,566.29,372.54,577.19,346.33Z"/><path class="cls-6" d="M581,475.08c0-.3.71-38.65.71-38.65l-6.4-5.22v-1.66l7.11,4.27.71-36h1.19l1.42,12.57,4.74-1.9.24,1.19-3.56,2.6.24,23.48,5.45-1.9.24,1.9-5.45,3.55v35.81S581,475.37,581,475.08Z"/><path class="cls-33" d="M1271.9,286.13c2.68-6.43,10.3-5.77,13.51-2.26,9,9.85,15.64,80,14.94,86.68-1.18,11.38-4.83,14.25-10.43,16.83-3.08,1.42-12.57,2.37-19,.71-4.82-1.25-9.71-8.06-10.91-16.12C1258.38,360.82,1261,312.34,1271.9,286.13Z"/><path class="cls-6" d="M1275.69,414.89c0-.3.71-38.65.71-38.65L1270,371v-1.66l7.11,4.27.72-36H1279l1.42,12.56,4.75-1.89.23,1.18-3.55,2.61.23,23.47,5.46-1.89.23,1.89-5.45,3.56v35.81S1275.68,415.18,1275.69,414.89Z"/><path class="cls-34" d="M769.56,467.16,733.42,440l-36.87,27.3V572.6h73Z"/><polygon class="cls-11" points="733.42 412.12 733.42 440.29 769.57 467.15 769.57 438.99 733.42 412.12"/><polygon class="cls-7" points="733.42 412.12 733.42 440.29 696.4 467.81 696.4 439.64 733.42 412.12"/><rect class="cls-35" x="723.75" y="501.41" width="18.75" height="17.35"/><rect class="cls-35" x="723.75" y="474.65" width="18.75" height="17.35"/><rect class="cls-35" x="723.75" y="528.18" width="18.75" height="17.35"/><path class="cls-29" d="M306.79,479.78l-33.17-24.95-33.83,25.06v96.66h67Z"/><polygon class="cls-11" points="273.62 429.28 273.62 455.13 306.79 479.78 306.79 453.94 273.62 429.28"/><polygon class="cls-7" points="273.62 429.28 273.62 455.13 239.64 480.38 239.64 454.53 273.62 429.28"/><rect class="cls-31" x="264.75" y="511.22" width="17.21" height="15.93"/><rect class="cls-31" x="264.75" y="486.66" width="17.21" height="15.93"/><rect class="cls-31" x="264.75" y="535.78" width="17.21" height="15.93"/><path class="cls-34" d="M1412.61,399l-32-24.09-32.66,24.19v93.31h64.68Z"/><polygon class="cls-11" points="1380.59 350.19 1380.59 375.14 1412.61 398.94 1412.61 373.99 1380.59 350.19"/><polygon class="cls-7" points="1380.59 350.19 1380.59 375.14 1347.79 399.52 1347.79 374.57 1380.59 350.19"/><rect class="cls-35" x="1372.03" y="429.29" width="16.61" height="15.38"/><rect class="cls-35" x="1372.03" y="405.58" width="16.61" height="15.38"/><rect class="cls-35" x="1372.03" y="453.01" width="16.61" height="15.38"/><path class="cls-34" d="M1357.12,444.09,1321,416.9l-36.87,27.31V549.53h73Z"/><polygon class="cls-11" points="1320.98 389.06 1320.98 417.23 1357.12 444.09 1357.12 415.92 1320.98 389.06"/><polygon class="cls-7" points="1320.98 389.06 1320.98 417.23 1283.95 444.74 1283.95 416.57 1320.98 389.06"/><rect class="cls-35" x="1311.31" y="478.35" width="18.75" height="17.35"/><rect class="cls-35" x="1311.31" y="451.58" width="18.75" height="17.35"/><rect class="cls-35" x="1311.31" y="505.11" width="18.75" height="17.35"/><path class="cls-33" d="M1365.63,437.47c2.68-6.44,10.3-5.78,13.52-2.26,9,9.85,15.63,80,14.94,86.67-1.19,11.38-4.84,14.25-10.44,16.84-3.08,1.42-12.56,2.37-19,.71-4.82-1.25-9.7-8.07-10.9-16.13C1352.12,512.16,1354.73,463.68,1365.63,437.47Z"/><path class="cls-6" d="M1369.43,566.22c0-.3.71-38.65.71-38.65l-6.4-5.22v-1.66l7.11,4.27.71-36h1.19l1.42,12.57,4.74-1.9.24,1.19-3.56,2.61.24,23.47,5.45-1.9.24,1.9-5.45,3.56v35.8S1369.42,566.52,1369.43,566.22Z"/><g id="yellow-tree15"><path class="cls-16" d="M1420.94,417.23c8.69,1.57,11.64,21.67,17.81,35.41,3.48,7.75,6.49,19.58,4.48,34.39-3.33,24.56-11.74,33.33-32.82,30-24.12-3.76-26.89-22.59-26.27-39.87.63-17.44,9.2-25.41,12.63-34C1402.2,429.69,1414.87,416.12,1420.94,417.23Z"/><path class="cls-32" d="M1408,541.39s.09-4.79,2.28-16.92c2.34-12.91,3.85-16.45,3.14-16.46a42.1,42.1,0,0,1-9.3-8,28.56,28.56,0,0,1-6.15-13.91c3.09,4.08,5.22,8.91,9.51,12.06a11.86,11.86,0,0,0,7.35,2.83s-1-13-2.29-26c-1.4-13.81.81-25.54,1.08-25.67.51-.26,3.43,36.52,6.58,34.8,3.61-1.95,13.95-21.43,13.95-21.43a69.75,69.75,0,0,1-4.55,14.75c-2,4.11-6.48,9.46-9.35,13,0,0-.62,18.83-2.77,36.69a82.11,82.11,0,0,0-.37,14.54,21.54,21.54,0,0,1-4,.58A38.77,38.77,0,0,1,1408,541.39Z"/></g><g id="yellow-tree16"><path class="cls-16" d="M676.46,413.24c9.11.54,14,13.83,21.59,22.67a31.19,31.19,0,0,1,7.77,22.78c-1.2,16.66-9.07,23-31.11,22.08-25.22-1.08-29.8-13.54-30.73-25.16s7.16-17.57,9.92-23.51C658.27,422.7,670.09,412.86,676.46,413.24Z"/><path class="cls-6" d="M670.16,513.51s-.29-4.26.7-15.2c1.06-11.64-.45-29.78-1.08-29.74a36.92,36.92,0,0,1-8.88-6.35c-4.9-4.68-3.27-7.09-3.27-7.39,3.06,3.38,2,3,6.1,5.49a10.57,10.57,0,0,0,6.75,1.93s.69,3.44-1.5-8c-2.32-12.15-1.28-22.74-1.05-22.88s2.32,10.1,4.39,17.26c1.23,4.23,2.54,7,3.26,6.91.94-.17,3-2.41,4.18-5.36a25.12,25.12,0,0,0,1.36-6.41s2.44,3,.24,9c-1.4,3.8-2.71,3.81-5,7.16,0,0,1.59,24.17,1.09,40.2a72.13,72.13,0,0,0,.81,12.94,19.06,19.06,0,0,1-3.54.83A35.35,35.35,0,0,1,670.16,513.51Z"/></g><path class="cls-27" d="M82.15,402.68c3.34-8,12.83-7.2,16.83-2.82,11.22,12.27,19.47,99.58,18.6,107.93-1.47,14.18-6,17.75-13,21-3.84,1.77-15.65,3-23.62.88-6-1.55-12.09-10-13.58-20.08C65.32,495.69,68.57,435.32,82.15,402.68Z"/><path class="cls-32" d="M86.88,563c0-.37.88-48.13.88-48.13l-8-6.5v-2.06l8.86,5.31.88-44.88H91l1.77,15.65L98.69,480l.29,1.47-4.43,3.25.3,29.23,6.79-2.36.29,2.36-6.79,4.43V563S86.87,563.38,86.88,563Z"/><path class="cls-16" d="M939.87,492.36c1.33-12.34,15-22.55,27.75-22.55a25.66,25.66,0,0,1,4.58.41c0-.13,0-.27,0-.41,0-17.72,10.17-32.11,22.68-32.11a14.39,14.39,0,0,1,1.48.07c8.76-17.54,24.48-29.26,42.41-29.26,23.46,0,43.16,20.07,48.38,47,11.89,2.93,23.65,23.65,22.21,36.82Z"/><rect class="cls-36" x="1215.6" y="413.13" width="73.83" height="51.47"/><rect class="cls-37" x="1234.99" y="432.13" width="11.55" height="17.39"/><rect class="cls-37" x="1262.94" y="432.13" width="11.59" height="17.39"/><path class="cls-23" d="M1182.7,378.58l25.54,13.82,1.44,24.19h-60.92Z"/><path class="cls-38" d="M1156,464.6V413.13l29.56-31.83,30.17,31.83V464.6Z"/><rect class="cls-39" x="1180.3" y="406.88" width="8.97" height="9.7"/><polygon class="cls-11" points="1182.7 378.58 1258.24 378.58 1294.28 416.59 1218.74 416.59 1182.7 378.58"/><rect class="cls-13" x="1236.37" y="369.94" width="13.57" height="24.19"/><path class="cls-23" d="M1236.37,369.94h-5.92l-.25,18.51,6.17,5.68Z"/><rect class="cls-40" x="1108.57" y="445.27" width="73.67" height="62.93"/><rect class="cls-35" x="1127.79" y="464.27" width="12.85" height="17.39"/><rect class="cls-35" x="1145.74" y="464.27" width="28.54" height="17.39"/><path class="cls-23" d="M1075.5,410.72,1101,424.54l1.44,24.18h-60.92Z"/><path class="cls-41" d="M1108.57,445.27l-30.17-31.84-29.56,31.84V508.2h59.73Z"/><rect class="cls-24" x="1068.46" y="464.27" width="20.98" height="43.93"/><rect class="cls-24" x="1074.47" y="435.56" width="8.97" height="9.7"/><polygon class="cls-11" points="1075.5 410.72 1151.04 410.72 1187.08 448.72 1111.54 448.72 1075.5 410.72"/><rect class="cls-13" x="1129.17" y="402.08" width="13.57" height="24.19"/><path class="cls-23" d="M1129.17,402.08h-5.92l-.25,18.51,6.17,5.67Z"/><rect class="cls-40" x="1196.99" y="482.49" width="73.67" height="62.93"/><rect class="cls-35" x="1216.21" y="501.49" width="12.85" height="17.39"/><rect class="cls-35" x="1234.16" y="501.49" width="28.54" height="17.39"/><path class="cls-23" d="M1163.92,447.94l25.54,13.82L1190.9,486H1130Z"/><path class="cls-41" d="M1197,482.49l-30.17-31.83-29.56,31.83v62.93H1197Z"/><rect class="cls-24" x="1156.88" y="501.49" width="20.98" height="43.93"/><rect class="cls-24" x="1162.89" y="472.79" width="8.97" height="9.7"/><polygon class="cls-11" points="1163.92 447.94 1239.46 447.94 1275.5 485.95 1199.96 485.95 1163.92 447.94"/><rect class="cls-13" x="1217.59" y="439.3" width="13.57" height="24.19"/><path class="cls-23" d="M1217.59,439.3h-5.92l-.25,18.51,6.17,5.68Z"/><path class="cls-11" d="M906.28,469.12l0-8.94s83.11.33,144.87.33l71.92,40.3-181.69-3.44Z"/><rect class="cls-42" x="906.26" y="465.82" width="144.87" height="124.15"/><rect class="cls-31" x="998.27" y="488.49" width="17.28" height="14.47"/><rect class="cls-31" x="962.71" y="488.49" width="17.28" height="14.47"/><rect class="cls-31" x="927.14" y="488.49" width="17.28" height="14.47"/><path class="cls-43" d="M1051.13,465.82l63.17,35,1.38,89.16h-64.55Z"/><path class="cls-11" d="M863.5,523.82l-.56-5.25s62.41.19,108.78.19l56.43,23.7-136.61-2Z"/><rect class="cls-42" x="866.42" y="523.8" width="105.02" height="66.18"/><rect class="cls-31" x="876.46" y="541.23" width="7.29" height="15.67"/><path class="cls-43" d="M971.44,523.8l45.79,18.66,1,47.53H971.44Z"/><rect class="cls-31" x="993.05" y="572.62" width="12.52" height="17.37"/><rect class="cls-31" x="995.32" y="552.98" width="7.98" height="7.83"/><path class="cls-11" d="M924.61,490.26v26.29H833l0-4Z"/><path class="cls-29" d="M924.6,496.27l-91.76,20.28-.42,81.29H924.6Z"/><rect class="cls-31" x="848.43" y="529.42" width="7.59" height="20.69"/><rect class="cls-31" x="881.12" y="570.74" width="12.01" height="10.24"/><rect class="cls-31" x="904.07" y="570.74" width="11.65" height="10.24"/><path class="cls-11" d="M1272.23,482.41V508.7h-91.64l0-4Z"/><path class="cls-29" d="M1272.22,488.42l-91.77,20.28L1180,590h92.18Z"/><rect class="cls-31" x="1196.05" y="521.57" width="7.59" height="20.69"/><rect class="cls-31" x="1228.74" y="562.89" width="12.01" height="10.24"/><rect class="cls-31" x="1251.69" y="562.89" width="11.65" height="10.24"/><path class="cls-11" d="M205.69,442v26.28H114l0-4Z"/><path class="cls-29" d="M205.68,448l-91.76,20.28-.42,81.29h92.18Z"/><rect class="cls-31" x="129.51" y="481.12" width="7.59" height="20.69"/><rect class="cls-31" x="162.2" y="522.43" width="12.01" height="10.24"/><rect class="cls-31" x="185.16" y="522.43" width="11.65" height="10.24"/><rect class="cls-42" x="478.07" y="453.6" width="102.74" height="72.55"/><rect class="cls-31" x="523.6" y="474.1" width="14.15" height="14.47"/><rect class="cls-31" x="488.82" y="474.1" width="14.15" height="14.47"/><path class="cls-23" d="M592.44,461.23h-126l21.78-31.17h82.45Z"/><rect class="cls-44" x="495.52" y="419.54" width="12.64" height="14.19"/><rect class="cls-44" x="493.76" y="415.66" width="15.78" height="3.88"/><rect class="cls-42" x="1302.77" y="487.22" width="102.74" height="72.55"/><rect class="cls-31" x="1316.99" y="507.72" width="14.15" height="14.47"/><rect class="cls-31" x="1345.83" y="507.72" width="14.15" height="14.47"/><rect class="cls-31" x="1316.99" y="531.95" width="14.15" height="14.47"/><rect class="cls-31" x="1345.83" y="531.95" width="14.15" height="14.47"/><rect class="cls-31" x="1374.58" y="523.49" width="19.24" height="36.28"/><path class="cls-23" d="M1291.13,494.84h126l-21.78-31.16h-82.45Z"/><rect class="cls-44" x="1375.42" y="453.15" width="12.64" height="14.19"/><rect class="cls-44" x="1374.04" y="449.28" width="15.78" height="3.88"/><path class="cls-27" d="M599.88,389c3.33-8,12.82-7.2,16.83-2.82,11.22,12.27,19.47,99.58,18.6,107.94-1.48,14.17-6,17.74-13,21-3.84,1.77-15.65,3-23.63.89-6-1.56-12.08-10.05-13.58-20.08C583.05,482.05,586.29,421.68,599.88,389Z"/><path class="cls-32" d="M604.6,549.37c0-.37.89-48.13.89-48.13l-8-6.49v-2.07l8.86,5.31.89-44.88h1.47l1.77,15.65,5.91-2.36.3,1.48-4.43,3.24.29,29.24,6.79-2.37.3,2.37-6.79,4.43v44.58S604.59,549.74,604.6,549.37Z"/><path class="cls-27" d="M559.65,425c2.91-7,11.2-6.29,14.69-2.46,9.8,10.71,17,86.95,16.25,94.25-1.29,12.37-5.26,15.49-11.35,18.3-3.35,1.55-13.66,2.58-20.62.78-5.25-1.36-10.56-8.77-11.87-17.54C545,506.17,547.79,453.45,559.65,425Z"/><path class="cls-32" d="M563.77,565c0-.32.78-42,.78-42l-7-5.68v-1.8l7.74,4.64.77-39.19h1.29l1.55,13.66,5.16-2.06.25,1.29-3.86,2.84.25,25.52,5.93-2.06.26,2.06L571,526V565S563.76,565.28,563.77,565Z"/><g id="yellow-tree17"><path class="cls-16" d="M220.2,450.85c8.94.82,13.71,20.89,21.19,34.23a64.22,64.22,0,0,1,7.61,34.4c-1.17,25.15-8.89,34.78-30.51,33.34-24.75-1.64-29.24-20.45-30.15-38-.93-17.7,7-26.54,9.73-35.5C202.36,465.14,214,450.28,220.2,450.85Z"/><path class="cls-32" d="M218.19,577.64s-.34-4.85.8-17.32c1.2-13.27,2.42-17,1.7-16.94a42.64,42.64,0,0,1-10.12-7.24,29,29,0,0,1-7.48-13.53c3.49,3.86,6.09,8.56,10.7,11.36a12.13,12.13,0,0,0,7.7,2.21s-2.15-13-4.64-26.06c-2.65-13.85-1.47-25.92-1.21-26.08.49-.3,6.74,36.64,9.78,34.63,3.48-2.31,12.19-22.94,12.19-22.94a71,71,0,0,1-3.29,15.34c-1.59,4.33-5.71,10.15-8.29,14,0,0,1.06,19.11.49,37.38a82.35,82.35,0,0,0,.92,14.74,21.65,21.65,0,0,1-4,1A40.08,40.08,0,0,1,218.19,577.64Z"/></g><g id="yellow-tree18"><path class="cls-16" d="M46.48,438.92c10.53,1,16.16,24.63,25,40.36,5,8.88,9.8,22.68,9,40.56-1.38,29.65-10.48,41-36,39.3C15.28,557.21,10,535,8.91,514.35c-1.09-20.87,8.28-31.29,11.47-41.86C25.44,455.77,39.11,438.24,46.48,438.92Z"/><path class="cls-45" d="M44.1,588.41s-.39-5.72.95-20.42c1.42-15.65,2.85-20,2-20a49.29,49.29,0,0,1-11.94-8.54c-6.59-6.28-8.81-15.54-8.81-15.94,4.11,4.54,7.17,10.09,12.61,13.39a14.23,14.23,0,0,0,9.07,2.6s-2.53-15.36-5.47-30.72c-3.12-16.33-1.73-30.56-1.42-30.75.58-.35,7.94,43.21,11.52,40.83,4.11-2.72,14.38-27,14.38-27a83.33,83.33,0,0,1-3.87,18.08c-1.89,5.1-6.73,12-9.79,16.47,0,0,1.26,22.53.58,44.07A97.48,97.48,0,0,0,55,587.85,26.31,26.31,0,0,1,50.26,589,47.78,47.78,0,0,1,44.1,588.41Z"/></g><path class="cls-27" d="M1273.54,428.48c3.34-8,12.83-7.2,16.83-2.82,11.22,12.27,19.47,99.58,18.6,107.94-1.48,14.17-6,17.74-13,21-3.84,1.77-15.65,3-23.62.89-6-1.56-12.09-10.05-13.58-20.08C1256.71,521.49,1260,461.12,1273.54,428.48Z"/><path class="cls-32" d="M1278.26,588.81c0-.37.89-48.13.89-48.13l-8-6.49v-2.07l8.85,5.31.89-44.88h1.48l1.77,15.65,5.9-2.36.3,1.48-4.43,3.24.3,29.24,6.79-2.37.29,2.37-6.79,4.43v44.58S1278.25,589.18,1278.26,588.81Z"/><path class="cls-27" d="M1233.87,604.59c2.08-11.35,23.47-20.73,43.55-20.73a70.41,70.41,0,0,1,7.18.37c0-.12,0-.24,0-.37,0-16.3,16-29.52,35.58-29.52q1.18,0,2.34.06c13.73-16.13,38.4-26.9,66.53-26.9,36.82,0,67.73,18.45,75.93,43.23,9.47-4.29,23.63-2.86,29.9,5,3.19,4,4.71,10.56,5.14,14.48Z"/><path class="cls-27" d="M0,592.07V590c-.17-3.14,7.46-17.78,23.79-17.09-4.43-2.41-4.3-6.81-2.14-10.56,4-6.95,21.55-11.36,35.44-6.93,6.37-13.83,30.66-20.6,48.65-14.3,6.6-6.14,18.27-10.22,31.54-10.22,20.56,0,37.25,9.79,37.25,21.84h.17c11.67,0,21.46,5.4,24.22,12.61,33.83,2.75,56.85,17,56.85,26.77Z"/><rect class="cls-31" x="167.82" y="547.67" width="129.5" height="46.85"/><rect class="cls-46" x="182.31" y="558.3" width="56.64" height="31.81"/><rect class="cls-47" x="185.42" y="561.66" width="49.65" height="28.45"/><rect class="cls-31" x="185.42" y="566.04" width="49.65" height="1.06"/><rect class="cls-31" x="185.42" y="568.7" width="49.65" height="1.06"/><rect class="cls-31" x="185.42" y="571.36" width="49.65" height="1.06"/><rect class="cls-31" x="185.42" y="574.02" width="49.65" height="1.06"/><rect class="cls-31" x="185.42" y="576.68" width="49.65" height="1.06"/><rect class="cls-31" x="185.42" y="579.34" width="49.65" height="1.06"/><rect class="cls-31" x="185.42" y="582" width="49.65" height="1.06"/><rect class="cls-31" x="185.42" y="584.66" width="49.65" height="1.06"/><rect class="cls-31" x="185.42" y="587.32" width="49.65" height="1.06"/><rect class="cls-31" x="185.42" y="563.39" width="49.65" height="1.06"/><path class="cls-48" d="M1078.7,541.7l-.41-3.91s46.45.15,81,.15l42,17.63-101.67-1.5Z"/><rect class="cls-49" x="1080.88" y="541.69" width="78.16" height="49.26"/><rect class="cls-47" x="1088.35" y="554.66" width="5.42" height="11.66"/><path class="cls-50" d="M1159,541.69l34.08,13.88.74,35.38H1159Z"/><rect class="cls-51" x="1175.12" y="578.02" width="9.32" height="12.93"/><rect class="cls-47" x="1163.77" y="578.02" width="5.94" height="5.83"/><rect class="cls-49" x="1029.51" y="566.32" width="53.86" height="24.63"/><rect class="cls-46" x="1027.7" y="563.29" width="53.17" height="3.03"/><rect class="cls-31" x="555.79" y="549.53" width="29.67" height="42.11"/><rect class="cls-46" x="162.34" y="543.9" width="134.97" height="5.64"/><rect class="cls-31" x="292.15" y="528.58" width="98.08" height="69.26"/><rect class="cls-47" x="305.73" y="548.15" width="13.51" height="13.81"/><rect class="cls-47" x="333.27" y="548.15" width="13.51" height="13.81"/><rect class="cls-47" x="305.73" y="571.28" width="13.51" height="13.81"/><rect class="cls-47" x="333.27" y="571.28" width="13.51" height="13.81"/><rect class="cls-31" x="360.71" y="563.21" width="18.37" height="34.63"/><path class="cls-48" d="M281.05,535.86H401.33l-20.79-29.75h-78.7Z"/><rect class="cls-46" x="361.51" y="496.06" width="12.06" height="13.54"/><rect class="cls-46" x="360.19" y="492.36" width="15.07" height="3.7"/><rect class="cls-31" x="681.17" y="526.55" width="89.83" height="63.44"/><rect class="cls-31" x="743.97" y="557.25" width="16.82" height="31.72"/><path class="cls-48" d="M671,532.2H781.17l-19-27.25H690Z"/><rect class="cls-46" x="744.7" y="495.75" width="11.05" height="12.4"/><rect class="cls-46" x="743.49" y="492.36" width="13.8" height="3.39"/><path class="cls-48" d="M737.63,556.55H733s22.77-32.3,22.84-32.19,4.22,2.91,4.22,2.91S736.76,556.71,737.63,556.55Z"/><path class="cls-6" d="M737.63,590V554.55l21.13-30.19,21.14,30.19V590Z"/><rect class="cls-31" x="778.17" y="554.56" width="102" height="35.43"/><rect class="cls-47" x="791.68" y="565.08" width="5.2" height="10.47"/><rect class="cls-47" x="809.13" y="565.08" width="5.2" height="10.47"/><rect class="cls-47" x="826.58" y="565.08" width="5.2" height="10.47"/><rect class="cls-47" x="844.02" y="565.08" width="5.2" height="10.47"/><rect class="cls-47" x="861.47" y="565.08" width="5.2" height="10.47"/><polygon class="cls-48" points="755.82 524.37 862.53 524.37 884.88 556.55 778.18 556.55 755.82 524.37"/><path class="cls-48" d="M528.87,500l0-6.65s-61.85.24-107.82.24l-53.53,30,135.23-2.56Z"/><rect class="cls-31" x="421.07" y="497.58" width="107.82" height="92.4"/><rect class="cls-47" x="447.55" y="514.45" width="12.86" height="10.77"/><rect class="cls-47" x="474.02" y="514.45" width="12.86" height="10.77"/><rect class="cls-47" x="500.49" y="514.45" width="12.86" height="10.77"/><path class="cls-6" d="M421.07,497.58l-47,26L373,590h48Z"/><path class="cls-48" d="M560.72,541.76l.41-3.91s-46.45.14-81,.14l-42,17.64,101.67-1.51Z"/><rect class="cls-31" x="480.38" y="541.75" width="78.16" height="49.26"/><rect class="cls-47" x="545.64" y="554.72" width="5.42" height="11.66"/><path class="cls-6" d="M480.38,541.75,446.3,555.63,445.56,591h34.82Z"/><rect class="cls-51" x="454.98" y="578.08" width="9.32" height="12.93"/><rect class="cls-47" x="469.71" y="578.08" width="5.94" height="5.83"/><path class="cls-48" d="M667.85,457.37l24.88,26.14v10.71H576.51V485.4Z"/><path class="cls-50" d="M692.73,489.4l-26.45-27.31L576.51,489.4V597.84H692.73Z"/><rect class="cls-47" x="599.98" y="504.32" width="12.57" height="11.95"/><rect class="cls-47" x="627.7" y="504.32" width="12.73" height="11.95"/><rect class="cls-47" x="604.22" y="548.98" width="16.65" height="18.28"/><rect class="cls-47" x="642.97" y="548.7" width="28.03" height="49.13"/><rect class="cls-46" x="558.27" y="547.73" width="24.24" height="2.91"/></g><g id="front-line"><rect class="cls-52" y="589.94" width="1500" height="18.8"/></g></g></g></svg>