<svg xmlns="http://www.w3.org/2000/svg" viewBox="0 0 1500 607.91"><defs><style>.cls-1{fill:#782975;}.cls-1,.cls-10,.cls-11,.cls-12,.cls-15,.cls-18,.cls-2,.cls-3,.cls-38,.cls-4,.cls-5{fill-rule:evenodd;}.cls-2{fill:#ae40a9;}.cls-3{fill:#9a4396;}.cls-4,.cls-6{fill:#1e0751;}.cls-37,.cls-5{fill:#7960d4;}.cls-12,.cls-7{fill:#84a2e5;}.cls-11,.cls-8{fill:#5460b6;}.cls-9{fill:#2f2467;}.cls-10,.cls-22{fill:#2b3c7b;}.cls-13{fill:#7bd9cc;}.cls-14{fill:#4fcbba;}.cls-15{fill:#394fa2;}.cls-16{fill:#45509d;}.cls-17{fill:#6388d9;}.cls-18,.cls-19{fill:#332b7b;}.cls-20{fill:#120738;}.cls-21{fill:#1f0b4f;}.cls-23{fill:#212b55;}.cls-24{fill:#449c9e;}.cls-25{fill:#235d5e;}.cls-26{fill:#423789;}.cls-27{fill:#1cd2b9;}.cls-28{fill:#9f65bf;}.cls-29{fill:#834597;}.cls-30{fill:#907cd8;}.cls-31{fill:#6d58b7;}.cls-32,.cls-38{fill:#1f0119;}.cls-33{fill:#3b012e;}.cls-34{fill:#643a5c;}.cls-35{fill:#e5a384;}.cls-36{fill:#9e6467;}</style></defs><g id="Layer_2" data-name="Layer 2"><g id="Layer_1-2" data-name="Layer 1"><g id="clouds-16"><g id="big-cloud"><path class="cls-1" d="M1207.7,115.73C1187.3,49.1,1118.3,0,1036.41,0c-67.42,0-106,27-136,75.92-6.7-2.54-27.35-5.18-53.73,4.1C811.76,92.3,791,113.43,791,156.66c0,13.15-.14,16.3,4.84,27.18-114-45.78-196.64,9.1-226.53,50.42C555.71,253,555.1,279.42,557,283.3c-42.94-38.4-188.79-9.44-174,86.67.55,3.63-6.7-17.89,0,0C387,380.45,31.42,366.61,30,484.48c-.67,55.69,38.76,63.8,51.39,63.67,232.92-2.13,1285.44,10.26,1323,6.34,85.65-9,102.93-105.32,91.33-156.61-9.85-43.6-70-85.06-131.44-87.09-6.58-.21-13.09,1.43-8.32-1.79,24.22-16.41,3.15-93.55-69.76-74-.87.24,0-.8,0-.8C1285.87,178.59,1252.93,131.56,1207.7,115.73Z"/></g><g id="big-cloud1"><path class="cls-2" d="M1169.44,232.78c-17.91-57-79.85-89.57-151.77-89.57-59.21,0-101.1,29.1-127.46,71-5.88-2.17-26.62-3.71-49.79,4.22C809.76,228.9,791.48,247,791.48,284c0,11.24-.12,13.93,4.25,23.24C695.58,268,623,315,596.77,350.31c-11.9,16-12.43,38.62-10.74,41.94-37.71-32.84-109.89-17.92-101.6,40.18.45,3.11,13.69,13.3,10.33,14.07-13.07,2.95-48.37,6.95-184.95,17.29-49.09,3.71-93.64,15.87-116.64,39.27-14.75,15-27,34.48-9.12,52.87,6.93,7.13,42.77,14.63,53.87,14.53,204.57-1.83,1064.22,6.45,1097.2,3.1,75.22-7.66,95-73.42,73.51-126.87-12.29-30.53-38.78-45.35-86.81-50.63-5.76-.63-15.76.94-11.57-1.82,21.27-14,16-93.47-57.69-80.74h0C1270.91,261.8,1205.92,212.9,1169.44,232.78Z"/></g><g id="big-cloud2"><path class="cls-3" d="M1169.44,232.78c-17.91-57-79.85-89.57-151.77-89.57-59.21,0-101.1,29.1-127.46,71-5.88-2.17-26.62-3.71-49.79,4.22C809.76,228.9,791.48,247,791.48,284c0,11.24-.12,13.93,4.25,23.24C695.58,268,623,315,596.77,350.31c-11.9,16-12.43,38.62-10.74,41.94-37.71-32.84-109.89-17.92-101.6,40.18.45,3.11,13.69,13.3,10.33,14.07-13.07,2.95-48.37,6.95-184.95,17.29-49.09,3.71-93.64,15.87-116.64,39.27-14.75,15-27,34.48-9.12,52.87,6.93,7.13,42.77,14.63,53.87,14.53,204.57-1.83,1064.22,6.45,1097.2,3.1,75.22-7.66,95-73.42,73.51-126.87-12.29-30.53-38.78-45.35-86.81-50.63-5.76-.63-15.76.94-11.57-1.82,21.27-14,16-93.47-57.69-80.74h0C1270.91,261.8,1205.92,212.9,1169.44,232.78Z"/></g></g><g id="_16" data-name=" 16"><path class="cls-4" d="M210.25,546.58H177.32v37.76h32.93Zm64.42-37.39H250.74V526h23.93Z"/><path class="cls-5" d="M1292.15,437.75l-.1,29.25,19.63,15.85.42,101.49L762.34,565.77V568h-18v16H693.81V565.77H570.33V599H512.19V565.77H398.08V467h29.07V293H476.3v25.92H501V426.44h11.24l-1-207.66h7v-11.3h18.94v-6.37H560.2v6.37h4.38v11.3h4.77l-2,106.85,31.55-.55.53-66,12.34-.08,0-6.13,22.93-.08.09,6.07,8.11,0-.47,67.67,48.38-.89,1.71-124.35h5.83l0-18.69,44.74,18.69v20.37h18l1.26,146.65h48V333.69h90.83V368.3h35.18v58.14h77.9V216.14h13.36V195.65h71.89v20.49h15V516.41h152.33V501.48l-152.33-2.89.73-136.94,140.57,2.89-.1,72.76ZM289.84,384.35V353.78l22.89-.43v-8.66l33.21-25.95V550.82H304.07l-17.37,11.3,2.76-8.85Z"/><path class="cls-5" d="M214.73,457.19h2.6v89.39H193.78v42.61H108.06v-.57L0,585.57v-15.4H32l.15-32,18-.23V526H64.82v12h43.24V526h7V509.19h35.82V526h26.4V457.19h16.46v-3.68h20.95Zm64.75-31.54h11.08V565.46H221.3V425.65h11.09V411.82h47.09Zm853.59-140.94h-22.5V475.6h22.5Zm141.06,127.11h-6.94v29.95h6.94Zm-27.93-86.44h-56.3v55.45h56.3Zm-66.71-.68h-11.27v55.46h11.27Zm-736-63.36H436v46.74h7.54Zm24.23,23.37H455.82v9.76h11.94Zm577.53-113.93h-9.53v34.95h9.53Zm8.63,0h-5.06v34.95h5.06Z"/><rect class="cls-6" x="201.25" y="517.61" width="89.31" height="81.41"/><rect class="cls-7" x="752.78" y="205.43" width="58.87" height="264.38"/><rect class="cls-8" x="784.35" y="251.88" width="18.01" height="4.85"/><rect class="cls-8" x="778.55" y="217.74" width="3.67" height="4.85"/><rect class="cls-8" x="784.35" y="217.74" width="3.67" height="4.85"/><rect class="cls-8" x="798.98" y="233.79" width="3.67" height="4.85"/><rect class="cls-8" x="752.78" y="225.36" width="24.6" height="4.85"/><rect class="cls-8" x="773.81" y="251.88" width="3.57" height="4.85"/><rect class="cls-7" x="671.82" y="253.63" width="71.06" height="319.1"/><rect class="cls-8" x="679.05" y="261.2" width="7.59" height="8.1"/><rect class="cls-8" x="679.05" y="277.33" width="7.59" height="8.1"/><rect class="cls-8" x="679.05" y="293.46" width="7.59" height="8.1"/><rect class="cls-8" x="679.05" y="309.59" width="7.59" height="8.1"/><rect class="cls-8" x="679.05" y="325.73" width="7.59" height="8.1"/><rect class="cls-8" x="679.05" y="341.86" width="7.59" height="8.1"/><rect class="cls-8" x="679.05" y="357.99" width="7.59" height="8.1"/><rect class="cls-8" x="679.05" y="374.12" width="7.59" height="8.1"/><rect class="cls-8" x="691.95" y="261.2" width="15.4" height="8.1"/><rect class="cls-8" x="691.95" y="277.33" width="15.4" height="8.1"/><rect class="cls-8" x="691.95" y="293.46" width="15.4" height="8.1"/><rect class="cls-8" x="691.95" y="309.59" width="15.4" height="8.1"/><rect class="cls-8" x="691.95" y="325.73" width="15.4" height="8.1"/><rect class="cls-8" x="691.95" y="341.86" width="15.4" height="8.1"/><rect class="cls-8" x="691.95" y="357.99" width="15.4" height="8.1"/><rect class="cls-8" x="691.95" y="374.12" width="15.4" height="8.1"/><rect class="cls-6" x="800.84" y="291.46" width="41.76" height="169.64"/><rect class="cls-9" x="781.89" y="291.46" width="18.95" height="169.64"/><path class="cls-10" d="M336.13,264.74l68.19,0L354,279.34S336.13,264.29,336.13,264.74Z"/><path class="cls-11" d="M404.32,264.72l-50.4,14.15v324.6h50.39Z"/><path class="cls-12" d="M353.93,278.86,336.4,264.72V603.47h17.53Z"/><rect class="cls-13" x="348.4" y="285.73" width="3.74" height="4.58"/><rect class="cls-13" x="342.69" y="293.56" width="3.74" height="4.58"/><rect class="cls-14" x="355.81" y="285.73" width="3.74" height="4.58"/><rect class="cls-14" x="363.22" y="285.73" width="3.74" height="4.58"/><rect class="cls-14" x="398.33" y="322.16" width="3.74" height="4.58"/><rect class="cls-14" x="390.31" y="322.16" width="3.74" height="4.58"/><rect class="cls-14" x="370.63" y="285.73" width="3.74" height="4.58"/><path class="cls-10" d="M404.34,276.43v6.45L354.12,339V332.5S404.56,276.57,404.34,276.43Z"/><path class="cls-10" d="M404.3,395.53v-6.45l-50.22-56.15v6.53S404.52,395.39,404.3,395.53Z"/><path class="cls-15" d="M336.42,296.74v6.45L354,338.59v-6.54S336.2,296.87,336.42,296.74Z"/><path class="cls-15" d="M336,360.43V354l18-21.5V339S335.77,360.3,336,360.43Z"/><rect class="cls-8" x="717.02" y="286.1" width="57.5" height="266.51"/><rect class="cls-8" x="725.76" y="280.86" width="42.46" height="5.24"/><rect class="cls-16" x="717.01" y="301.11" width="57.5" height="11.39"/><rect class="cls-16" x="717.01" y="345.43" width="57.5" height="11.39"/><rect class="cls-16" x="717.01" y="389.76" width="57.5" height="11.39"/><rect class="cls-8" x="901.6" y="236.97" width="88.98" height="266.51"/><rect class="cls-8" x="915.14" y="231.73" width="65.72" height="5.24"/><rect class="cls-16" x="901.6" y="251.98" width="88.98" height="11.39"/><rect class="cls-16" x="901.6" y="296.31" width="88.98" height="11.39"/><rect class="cls-16" x="901.6" y="340.64" width="88.98" height="11.39"/><rect class="cls-8" x="605.97" y="293.86" width="17.57" height="7.06"/><rect class="cls-7" x="579.35" y="293.87" width="26.62" height="6.93"/><rect class="cls-7" x="573.09" y="299.55" width="41.16" height="288.98"/><rect class="cls-8" x="609.75" y="299.55" width="18.82" height="288.98"/><rect class="cls-17" x="573.09" y="315.83" width="36.66" height="12.35"/><rect class="cls-17" x="573.09" y="363.89" width="41.16" height="12.35"/><rect class="cls-17" x="573.09" y="411.96" width="41.16" height="12.35"/><rect class="cls-16" x="609.75" y="315.82" width="18.82" height="12.35"/><rect class="cls-16" x="609.75" y="363.89" width="18.82" height="12.35"/><rect class="cls-16" x="609.75" y="411.96" width="18.82" height="12.35"/><rect class="cls-8" x="1019.33" y="253.96" width="31.82" height="7.95"/><rect class="cls-7" x="971.13" y="253.97" width="48.21" height="7.8"/><rect class="cls-7" x="959.79" y="260.36" width="74.53" height="325.22"/><rect class="cls-8" x="1026.17" y="260.36" width="34.09" height="325.22"/><rect class="cls-17" x="959.79" y="278.68" width="66.38" height="13.89"/><rect class="cls-16" x="1026.17" y="278.67" width="34.09" height="13.89"/><rect class="cls-17" x="959.78" y="332.77" width="74.53" height="13.89"/><rect class="cls-17" x="959.78" y="386.86" width="74.53" height="13.89"/><rect class="cls-16" x="1026.17" y="332.77" width="34.09" height="13.89"/><rect class="cls-16" x="1026.17" y="386.86" width="34.09" height="13.89"/><rect class="cls-9" x="294.61" y="469.72" width="30.56" height="14.59"/><rect class="cls-6" x="325.17" y="469.72" width="31.32" height="14.59"/><rect class="cls-9" x="282.74" y="481.07" width="36.21" height="116.48"/><rect class="cls-6" x="318.94" y="481.07" width="49.24" height="116.48"/><rect class="cls-9" x="155.53" y="523.48" width="29.69" height="7.91"/><rect class="cls-6" x="185.22" y="523.48" width="30.43" height="7.91"/><rect class="cls-9" x="143.99" y="529.64" width="35.17" height="63.13"/><rect class="cls-6" x="179.16" y="529.64" width="47.83" height="63.13"/><path class="cls-18" d="M1383.78,470.71h34l.37,121.34-194.63-1.44,2-138.37h49.93l-.39,55.95h89.49l.78-21.35h18.85ZM1027.48,378h12.3v74.23H1074l4.59,107.31h-34.23V602H966.81V572.11H949.16l-4.58-109.94h17.65V415.39h30V346.2h35.29ZM1500,591.7l-74.37-.09.69-94.23,23.87-.44v11.25h5.21l.3,29.08,11.37,0,.37,26.93H1500Z"/><rect class="cls-19" x="1393.19" y="511.57" width="51.23" height="84.92"/><rect class="cls-6" x="1311.45" y="469.56" width="30.82" height="11.02"/><rect class="cls-9" x="1299.56" y="469.56" width="13.33" height="11.02"/><rect class="cls-6" x="1304.88" y="477.98" width="48.21" height="126.27"/><rect class="cls-9" x="1286.28" y="477.98" width="20.86" height="126.27"/><rect class="cls-6" x="1376.04" y="524.04" width="37.42" height="19.47"/><rect class="cls-9" x="1361.6" y="524.04" width="16.19" height="19.47"/><rect class="cls-6" x="1369.35" y="533.77" width="52.27" height="67.26"/><rect class="cls-9" x="1349.18" y="533.77" width="22.61" height="67.26"/><rect class="cls-19" x="1093.99" y="452.24" width="52.62" height="111.9"/><rect class="cls-19" x="560.93" y="431.25" width="49.19" height="153.87"/><rect class="cls-19" x="598.45" y="401.04" width="49.19" height="153.87"/><rect class="cls-19" x="610.12" y="385.64" width="8.8" height="20.17"/><rect class="cls-19" x="1003.37" y="385.64" width="25.62" height="15.41"/><rect class="cls-19" x="424.35" y="452.24" width="48.04" height="111.9"/><rect class="cls-19" x="854.42" y="270.04" width="65.89" height="238.15"/><rect class="cls-19" x="864.43" y="261.7" width="42.61" height="12.2"/><rect class="cls-19" x="869.8" y="236.36" width="4.99" height="31.45"/><rect class="cls-19" x="878.25" y="227.48" width="9.12" height="40.32"/><rect class="cls-20" x="1078.64" y="318.57" width="34.25" height="280.45"/><rect class="cls-21" x="1033.98" y="318.57" width="44.67" height="280.45"/><rect class="cls-22" x="1037.17" y="342.1" width="38.1" height="8.23"/><rect class="cls-23" x="1084.68" y="342.1" width="24.57" height="8.23"/><rect class="cls-22" x="1037.17" y="358.24" width="38.1" height="8.23"/><rect class="cls-23" x="1084.68" y="358.24" width="24.57" height="8.23"/><rect class="cls-22" x="1037.17" y="374.66" width="38.1" height="8.23"/><rect class="cls-23" x="1084.68" y="374.66" width="24.57" height="8.23"/><rect class="cls-22" x="1037.17" y="390.51" width="38.1" height="8.23"/><rect class="cls-23" x="1084.68" y="390.51" width="24.57" height="8.23"/><rect class="cls-22" x="1037.17" y="406.93" width="38.1" height="8.23"/><rect class="cls-23" x="1084.68" y="406.93" width="24.57" height="8.23"/><rect class="cls-22" x="1037.17" y="422.5" width="38.1" height="8.23"/><rect class="cls-23" x="1084.68" y="422.5" width="24.57" height="8.23"/><rect class="cls-22" x="1037.17" y="438.36" width="38.1" height="8.23"/><rect class="cls-23" x="1084.68" y="438.36" width="24.57" height="8.23"/><rect class="cls-22" x="1037.17" y="454.68" width="38.1" height="8.23"/><rect class="cls-23" x="1084.68" y="454.68" width="24.57" height="8.23"/><rect class="cls-22" x="1037.17" y="470.45" width="38.1" height="8.23"/><rect class="cls-23" x="1084.68" y="470.45" width="24.57" height="8.23"/><rect class="cls-22" x="1037.17" y="486.22" width="38.1" height="8.23"/><rect class="cls-23" x="1084.68" y="486.22" width="24.57" height="8.23"/><rect class="cls-22" x="1037.17" y="502.22" width="38.1" height="8.23"/><rect class="cls-23" x="1084.68" y="502.22" width="24.57" height="8.23"/><rect class="cls-22" x="1037.17" y="518.22" width="38.1" height="8.23"/><rect class="cls-23" x="1084.68" y="518.22" width="24.57" height="8.23"/><rect class="cls-22" x="1037.17" y="534.46" width="38.1" height="8.23"/><rect class="cls-23" x="1084.68" y="534.46" width="24.57" height="8.23"/><rect class="cls-9" x="813.34" y="338.67" width="100.83" height="257.12"/><rect class="cls-24" x="869.07" y="394.93" width="11.3" height="8.04"/><rect class="cls-24" x="883.16" y="394.93" width="11.3" height="8.04"/><rect class="cls-24" x="897.38" y="394.93" width="11.3" height="8.04"/><rect class="cls-24" x="897.38" y="354.37" width="11.3" height="8.04"/><rect class="cls-24" x="818.5" y="383.25" width="11.3" height="8.04"/><rect class="cls-24" x="833.07" y="383.25" width="11.3" height="8.04"/><rect class="cls-24" x="833.16" y="437.14" width="11.3" height="8.04"/><rect class="cls-24" x="818.5" y="437.14" width="11.3" height="8.04"/><rect class="cls-24" x="861.83" y="437.14" width="11.3" height="8.04"/><rect class="cls-24" x="847.73" y="437.14" width="11.3" height="8.04"/><rect class="cls-9" x="835.41" y="319.27" width="61.96" height="19.4"/><rect class="cls-6" x="897.37" y="319.27" width="43.15" height="19.4"/><rect class="cls-6" x="914.17" y="338.67" width="44.33" height="257.12"/><rect class="cls-25" x="925.38" y="354.37" width="11.3" height="8.04"/><rect class="cls-25" x="939.95" y="354.37" width="11.3" height="8.04"/><rect class="cls-25" x="939.95" y="437.14" width="11.3" height="8.04"/><rect class="cls-21" x="802.06" y="424.15" width="51.16" height="170.96"/><rect class="cls-26" x="627.61" y="424.15" width="174.46" height="170.96"/><rect class="cls-20" x="997.47" y="424.15" width="44.65" height="160.21"/><rect class="cls-21" x="939.24" y="424.15" width="58.23" height="160.21"/><rect class="cls-22" x="943.4" y="437.6" width="49.67" height="4.7"/><rect class="cls-23" x="1005.35" y="437.6" width="32.03" height="4.7"/><rect class="cls-22" x="943.4" y="446.82" width="49.67" height="4.7"/><rect class="cls-23" x="1005.35" y="446.82" width="32.03" height="4.7"/><rect class="cls-22" x="943.4" y="456.2" width="49.67" height="4.7"/><rect class="cls-23" x="1005.35" y="456.2" width="32.03" height="4.7"/><rect class="cls-22" x="943.4" y="465.25" width="49.67" height="4.7"/><rect class="cls-23" x="1005.35" y="465.25" width="32.03" height="4.7"/><rect class="cls-22" x="943.4" y="474.63" width="49.67" height="4.7"/><rect class="cls-23" x="1005.35" y="474.63" width="32.03" height="4.7"/><rect class="cls-22" x="943.4" y="483.53" width="49.67" height="4.7"/><rect class="cls-23" x="1005.35" y="483.53" width="32.03" height="4.7"/><rect class="cls-22" x="943.4" y="492.59" width="49.67" height="4.7"/><rect class="cls-23" x="1005.35" y="492.59" width="32.03" height="4.7"/><rect class="cls-22" x="943.4" y="501.91" width="49.67" height="4.7"/><rect class="cls-23" x="1005.35" y="501.91" width="32.03" height="4.7"/><rect class="cls-22" x="943.4" y="510.92" width="49.67" height="4.7"/><rect class="cls-23" x="1005.35" y="510.92" width="32.03" height="4.7"/><rect class="cls-22" x="943.4" y="519.93" width="49.67" height="4.7"/><rect class="cls-23" x="1005.35" y="519.93" width="32.03" height="4.7"/><rect class="cls-22" x="943.4" y="529.07" width="49.67" height="4.7"/><rect class="cls-23" x="1005.35" y="529.07" width="32.03" height="4.7"/><rect class="cls-22" x="943.4" y="538.21" width="49.67" height="4.7"/><rect class="cls-23" x="1005.35" y="538.21" width="32.03" height="4.7"/><rect class="cls-22" x="943.4" y="547.48" width="49.67" height="4.7"/><rect class="cls-23" x="1005.35" y="547.48" width="32.03" height="4.7"/><rect class="cls-27" x="631.4" y="436.33" width="9.9" height="8.55"/><rect class="cls-27" x="659.87" y="436.33" width="9.9" height="8.55"/><rect class="cls-27" x="716.8" y="436.33" width="9.9" height="8.55"/><rect class="cls-27" x="759.5" y="436.33" width="9.9" height="8.55"/><rect class="cls-27" x="773.73" y="436.33" width="9.9" height="8.55"/><rect class="cls-27" x="674.3" y="448.82" width="9.9" height="8.55"/><rect class="cls-27" x="731.23" y="448.82" width="9.9" height="8.55"/><rect class="cls-27" x="745.47" y="448.82" width="9.9" height="8.55"/><rect class="cls-27" x="759.7" y="448.82" width="9.9" height="8.55"/><rect class="cls-26" x="773.93" y="448.82" width="9.9" height="8.55"/><rect class="cls-27" x="788.16" y="448.82" width="9.9" height="8.55"/><rect class="cls-27" x="631.61" y="460.59" width="9.9" height="8.55"/><rect class="cls-27" x="645.84" y="460.59" width="9.9" height="8.55"/><rect class="cls-27" x="688.54" y="460.59" width="9.9" height="8.55"/><rect class="cls-27" x="759.7" y="460.59" width="9.9" height="8.55"/><rect class="cls-27" x="745.47" y="472.04" width="9.9" height="8.55"/><rect class="cls-27" x="759.7" y="483.49" width="9.9" height="8.55"/><rect class="cls-27" x="631.61" y="495.26" width="9.9" height="8.55"/><rect class="cls-26" x="645.84" y="495.26" width="9.9" height="8.55"/><rect class="cls-26" x="660.07" y="495.26" width="9.9" height="8.55"/><rect class="cls-27" x="674.3" y="495.26" width="9.9" height="8.55"/><rect class="cls-27" x="759.7" y="495.26" width="9.9" height="8.55"/><rect class="cls-27" x="773.93" y="495.26" width="9.9" height="8.55"/><rect class="cls-27" x="731.23" y="507.34" width="9.9" height="8.55"/><rect class="cls-27" x="745.47" y="507.34" width="9.9" height="8.55"/><rect class="cls-27" x="674.3" y="519.42" width="9.9" height="8.55"/><rect class="cls-27" x="731.23" y="519.42" width="9.9" height="8.55"/><rect class="cls-27" x="745.47" y="519.42" width="9.9" height="8.55"/><rect class="cls-27" x="645.84" y="531.58" width="9.9" height="8.55"/><rect class="cls-27" x="660.07" y="531.58" width="9.9" height="8.55"/><rect class="cls-27" x="702.77" y="531.58" width="9.9" height="8.55"/><rect class="cls-27" x="717" y="531.58" width="9.9" height="8.55"/><rect class="cls-27" x="645.84" y="543.54" width="9.9" height="8.55"/><rect class="cls-27" x="717" y="543.54" width="9.9" height="8.55"/><rect class="cls-27" x="745.47" y="543.54" width="9.9" height="8.55"/><rect class="cls-26" x="650.54" y="394.14" width="142.38" height="30.01"/><rect class="cls-21" x="792.92" y="394.14" width="45" height="30.01"/><rect class="cls-28" x="650.54" y="404" width="142.38" height="5.14"/><rect class="cls-29" x="792.92" y="404" width="45" height="5.14"/><rect class="cls-20" x="545.15" y="344.45" width="35.11" height="258.5"/><rect class="cls-21" x="451.11" y="344.45" width="94.04" height="258.5"/><rect class="cls-14" x="455.08" y="356.05" width="18.07" height="5"/><rect class="cls-14" x="476.33" y="468.7" width="18.07" height="5"/><rect class="cls-14" x="531.88" y="424.94" width="5.48" height="5"/><rect class="cls-14" x="531.88" y="435.09" width="5.48" height="5"/><rect class="cls-14" x="522.81" y="435.09" width="5.48" height="5"/><rect class="cls-14" x="476.33" y="356.05" width="5.48" height="5"/><rect class="cls-14" x="484.96" y="356.05" width="5.48" height="5"/><rect class="cls-30" x="451.11" y="344.45" width="94.04" height="5.92"/><rect class="cls-31" x="545.15" y="344.45" width="35.11" height="5.92"/><rect class="cls-30" x="451.11" y="411.88" width="94.04" height="5.92"/><rect class="cls-31" x="545.15" y="411.88" width="35.11" height="5.92"/><rect class="cls-30" x="451.11" y="479.62" width="94.04" height="5.92"/><rect class="cls-31" x="545.15" y="479.62" width="35.11" height="5.92"/><rect class="cls-20" x="1204.97" y="391.98" width="29.19" height="200.53"/><rect class="cls-21" x="1126.8" y="391.98" width="78.17" height="200.53"/><rect class="cls-22" x="1191.2" y="405.18" width="6.59" height="139.39"/><rect class="cls-22" x="1176.9" y="405.18" width="6.59" height="139.39"/><rect class="cls-22" x="1162.59" y="405.18" width="6.59" height="139.39"/><rect class="cls-22" x="1148.29" y="405.18" width="6.59" height="139.39"/><rect class="cls-22" x="1133.98" y="405.18" width="6.59" height="139.39"/><rect class="cls-21" x="1137.64" y="375.4" width="59.41" height="18.88"/><rect class="cls-20" x="1197.05" y="375.4" width="27.3" height="16.58"/><rect class="cls-30" x="1126.8" y="391.98" width="78.17" height="4.6"/><rect class="cls-31" x="1204.97" y="391.98" width="29.19" height="4.6"/><rect class="cls-20" x="404.65" y="378.16" width="39.25" height="222.8"/><rect class="cls-21" x="353.46" y="378.16" width="51.19" height="222.8"/><rect class="cls-22" x="357.11" y="396.85" width="43.66" height="6.54"/><rect class="cls-23" x="411.57" y="396.85" width="28.16" height="6.54"/><rect class="cls-22" x="357.11" y="409.67" width="43.66" height="6.54"/><rect class="cls-23" x="411.57" y="409.67" width="28.16" height="6.54"/><rect class="cls-22" x="357.11" y="422.72" width="43.66" height="6.54"/><rect class="cls-23" x="411.57" y="422.72" width="28.16" height="6.54"/><rect class="cls-22" x="357.11" y="435.31" width="43.66" height="6.54"/><rect class="cls-23" x="411.57" y="435.31" width="28.16" height="6.54"/><rect class="cls-22" x="357.11" y="448.36" width="43.66" height="6.54"/><rect class="cls-23" x="411.57" y="448.36" width="28.16" height="6.54"/><rect class="cls-22" x="357.11" y="460.73" width="43.66" height="6.54"/><rect class="cls-23" x="411.57" y="460.73" width="28.16" height="6.54"/><rect class="cls-22" x="357.11" y="473.32" width="43.66" height="6.54"/><rect class="cls-23" x="411.57" y="473.32" width="28.16" height="6.54"/><rect class="cls-22" x="357.11" y="486.29" width="43.66" height="6.54"/><rect class="cls-23" x="411.57" y="486.29" width="28.16" height="6.54"/><rect class="cls-22" x="357.11" y="498.81" width="43.66" height="6.54"/><rect class="cls-23" x="411.57" y="498.81" width="28.16" height="6.54"/><rect class="cls-22" x="357.11" y="511.34" width="43.66" height="6.54"/><rect class="cls-23" x="411.57" y="511.34" width="28.16" height="6.54"/><rect class="cls-22" x="357.11" y="524.06" width="43.66" height="6.54"/><rect class="cls-23" x="411.57" y="524.06" width="28.16" height="6.54"/><rect class="cls-22" x="357.11" y="536.77" width="43.66" height="6.54"/><rect class="cls-23" x="411.57" y="536.77" width="28.16" height="6.54"/><rect class="cls-22" x="357.11" y="549.67" width="43.66" height="6.54"/><rect class="cls-23" x="411.57" y="549.67" width="28.16" height="6.54"/><rect class="cls-32" x="202.6" y="584.57" width="1297.4" height="15.05"/><rect class="cls-32" x="744.12" y="589.88" width="243.74" height="9.46"/><rect class="cls-32" x="620.86" y="567.86" width="57.35" height="31.48"/><rect class="cls-32" x="452.96" y="546.27" width="196.57" height="47.8"/><rect class="cls-32" x="551.25" y="533.82" width="80.76" height="20.31"/><rect class="cls-32" x="512.29" y="533.82" width="17.51" height="20.31"/><rect class="cls-32" x="402.77" y="554.12" width="50.19" height="40.48"/><rect class="cls-32" y="583.98" width="275.77" height="19.48"/><rect class="cls-33" x="917.64" y="540.58" width="36.28" height="52.44"/><rect class="cls-34" x="917.64" y="540.58" width="36.28" height="5.98"/><rect class="cls-35" x="922.02" y="553.34" width="5.58" height="12.38"/><rect class="cls-35" x="944.13" y="553.34" width="5.58" height="12.38"/><rect class="cls-33" x="670.85" y="540.26" width="117.13" height="52.44"/><rect class="cls-34" x="670.85" y="540.26" width="117.13" height="5.98"/><rect class="cls-35" x="675.53" y="555.54" width="5.58" height="12.38"/><rect class="cls-35" x="697.64" y="555.54" width="5.58" height="12.38"/><rect class="cls-33" x="881.42" y="506.78" width="36.28" height="86.19"/><rect class="cls-33" x="899.56" y="580.69" width="8.21" height="12.28"/><rect class="cls-34" x="881.42" y="506.78" width="36.28" height="5.98"/><rect class="cls-35" x="885.81" y="519.54" width="5.58" height="12.38"/><rect class="cls-35" x="907.91" y="519.54" width="5.58" height="12.38"/><rect class="cls-35" x="885.81" y="557.83" width="5.58" height="12.38"/><rect class="cls-32" x="839.42" y="497.02" width="43.73" height="102.37"/><rect class="cls-33" x="762.27" y="497.02" width="77.15" height="102.37"/><rect class="cls-35" x="819.76" y="503.35" width="11.36" height="14.32"/><rect class="cls-36" x="850.55" y="503.35" width="3.19" height="14.32"/><rect class="cls-36" x="859.69" y="503.35" width="3.19" height="14.32"/><rect class="cls-32" x="953.84" y="572.97" width="92.76" height="28.64"/><rect class="cls-32" x="995.52" y="544.38" width="102.15" height="57.22"/><rect class="cls-32" x="1080.88" y="534.03" width="111.75" height="67.57"/><rect class="cls-33" x="1123.13" y="567.81" width="12.38" height="10.3"/><rect class="cls-33" x="1148.41" y="567.81" width="12.38" height="10.3"/><rect class="cls-33" x="1173.69" y="567.81" width="12.38" height="10.3"/><rect class="cls-32" x="22.66" y="599.01" width="1477.34" height="8.9"/><rect class="cls-37" x="1258.8" y="426.8" width="15.33" height="14.97"/><rect class="cls-37" x="646.61" y="308.08" width="19.25" height="34.6"/><path class="cls-38" d="M1245.73,560a1.64,1.64,0,0,1,1.64-1.64h21A1.64,1.64,0,0,1,1270,560v19.16a1.65,1.65,0,0,1-1.64,1.64h-21a1.65,1.65,0,0,1-1.64-1.64Z"/><path class="cls-38" d="M1263.33,571.57a3.06,3.06,0,0,1,3.06-3.06h6.2a3.06,3.06,0,0,1,3.06,3.06v6.11a3.07,3.07,0,0,1-3.06,3.07h-6.2a3.07,3.07,0,0,1-3.06-3.07Z"/><path class="cls-38" d="M1245.05,578.84a.62.62,0,0,1,.64-.63h30.15a.64.64,0,0,1,.64.63v1.27a.64.64,0,0,1-.64.63h-30.15a.62.62,0,0,1-.64-.63Z"/><ellipse class="cls-32" cx="1251.3" cy="581.65" rx="2.84" ry="3.44"/><ellipse class="cls-32" cx="1270.95" cy="581.65" rx="2.84" ry="3.44"/><path class="cls-38" d="M1451.27,560a1.64,1.64,0,0,1,1.64-1.64h21a1.63,1.63,0,0,1,1.64,1.64v19.16a1.63,1.63,0,0,1-1.64,1.63h-21a1.64,1.64,0,0,1-1.64-1.63Z"/><path class="cls-38" d="M1468.87,571.6a3.06,3.06,0,0,1,3.06-3.06h6.2a3.06,3.06,0,0,1,3.06,3.06v6.11a3.06,3.06,0,0,1-3.06,3.06h-6.2a3.06,3.06,0,0,1-3.06-3.06Z"/><path class="cls-38" d="M1450.59,578.87a.62.62,0,0,1,.64-.63h30.15a.64.64,0,0,1,.64.63v1.27a.64.64,0,0,1-.64.63h-30.15a.62.62,0,0,1-.64-.63Z"/><ellipse class="cls-32" cx="1456.84" cy="581.68" rx="2.84" ry="3.44"/><ellipse class="cls-32" cx="1476.49" cy="581.68" rx="2.84" ry="3.44"/><path class="cls-38" d="M132.55,560a1.64,1.64,0,0,0-1.64-1.64h-21a1.64,1.64,0,0,0-1.64,1.64v19.16a1.64,1.64,0,0,0,1.64,1.63h21a1.64,1.64,0,0,0,1.64-1.63Z"/><path class="cls-38" d="M115,571.6a3.06,3.06,0,0,0-3.06-3.06h-6.21a3.06,3.06,0,0,0-3.06,3.06v6.11a3.06,3.06,0,0,0,3.06,3.06h6.21a3.06,3.06,0,0,0,3.06-3.06Z"/><path class="cls-38" d="M133.22,578.87a.62.62,0,0,0-.63-.63H102.43a.63.63,0,0,0-.63.63v1.27a.63.63,0,0,0,.63.63h30.16a.62.62,0,0,0,.63-.63Z"/><ellipse class="cls-32" cx="126.97" cy="581.68" rx="2.84" ry="3.44"/><ellipse class="cls-32" cx="107.33" cy="581.68" rx="2.84" ry="3.44"/></g><g id="front-line"><rect class="cls-32" y="589.11" width="1500" height="18.8"/></g></g></g></svg>