<svg xmlns="http://www.w3.org/2000/svg" viewBox="0 0 1500.07 608.74"><defs><style>.cls-1{fill:#3e1e66;}.cls-1,.cls-16,.cls-17,.cls-18,.cls-2,.cls-21,.cls-23,.cls-3,.cls-4,.cls-45,.cls-46{fill-rule:evenodd;}.cls-2{fill:#795b9d;}.cls-3{fill:#634784;}.cls-4,.cls-5{fill:#6389e0;}.cls-6{fill:#120738;}.cls-7{fill:#1f0b4f;}.cls-16,.cls-8{fill:#2b3c7b;}.cls-9{fill:#212b55;}.cls-10{fill:#84c0e5;}.cls-11{fill:#5485b6;}.cls-12{fill:#63d1e0;}.cls-13,.cls-17{fill:#6184ba;}.cls-14{fill:#3e3591;}.cls-15{fill:#6176ba;}.cls-18{fill:#95c7ec;}.cls-19{fill:#7bd9cc;}.cls-20{fill:#4fcbba;}.cls-21{fill:#394fa2;}.cls-22{fill:#45719e;}.cls-23,.cls-24{fill:#332b7b;}.cls-25{fill:#449c9e;}.cls-26{fill:#79428b;}.cls-27{fill:#643673;}.cls-28{fill:#1cd2b9;}.cls-29{fill:#2f2467;}.cls-30{fill:#1e0751;}.cls-31{fill:#235d5e;}.cls-32{fill:#423789;}.cls-33{fill:#9f65bf;}.cls-34{fill:#834597;}.cls-35{fill:#907cd8;}.cls-36{fill:#6d58b7;}.cls-37,.cls-45{fill:#1f0119;}.cls-38{fill:#5c0147;}.cls-39{fill:#643a5c;}.cls-40{fill:#e5a384;}.cls-41{fill:#3b012e;}.cls-42,.cls-46{fill:#9e6467;}.cls-43{fill:#620b4e;}.cls-44{fill:#af8083;}</style></defs><g id="Layer_2" data-name="Layer 2"><g id="Layer_1-2" data-name="Layer 1"><g id="clouds-18"><g id="big-cloud"><path class="cls-1" d="M1212.34,129.63C1192,55,1122.94,0,1041.05,0c-67.42,0-106,30.2-136,85-6.7-2.85-27.35-5.8-53.72,4.58-34.92,13.76-55.73,37.43-55.73,85.85,0,14.73-.13,18.25,4.84,30.44-114-51.27-196.64,10.2-226.52,56.48-13.56,21-14.16,50.57-12.23,54.92-42.95-43-125.13-23.48-115.69,52.62.52,4.07,15.59,17.42,11.77,18.42-14.89,3.87-165.85,7-320.84,27.49-36.84,4.87-81.39,5.85-111.14,45.17C10,481.86,9.11,526.29,29.45,550.37c7.91,9.34,40.24,14,52.87,13.87,232.93-2.4,1294.69-5.09,1332.24-9.48,85.65-10,71-130,49.68-157.92-16.14-21.14-33.9-46.46-95.34-48.74-6.58-.23-13.09,1.61-8.32-2,24.22-18.39,3.15-104.78-69.76-82.89-.86.26,0-.91,0-.91C1290.51,200,1257.57,147.36,1212.34,129.63Z"/></g><g id="big-cloud1"><path class="cls-2" d="M1180.84,222c-13.43-41.48-58.88-72-112.81-72-44.4,0-69.81,16.78-89.57,47.26-4.41-1.58-18-3.22-35.38,2.55-23,7.65-36.69,20.8-36.69,47.71,0,8.19-.1,10.15,3.18,16.92-75.09-28.49-129.5,5.67-149.18,31.39-8.93,11.66-9.32,28.11-8,30.53-28.28-23.91-82.4-13-76.19,29.24.34,2.27,10.27,9.68,7.75,10.24-9.8,2.15-36.27,5.06-138.68,12.59-36.81,2.7-70.21,11.55-87.46,28.58-11.06,10.91-20.23,25.1-6.84,38.49,5.2,5.19,32.07,10.65,40.4,10.58,153.39-1.34,798,4.69,822.69,2.25,56.4-5.57,46.74-72.27,32.72-87.77-10.63-11.75-22.33-25.82-62.79-27.09-4.33-.13-8.62.89-5.48-1.11,16-10.22,2.08-58.24-45.94-46.07-.57.14,0-.51,0-.51C1232.31,261.09,1210.62,231.81,1180.84,222Z"/></g><g id="big-cloud2"><path class="cls-3" d="M1180.84,222c-13.43-41.48-58.88-72-112.81-72-44.4,0-69.81,16.78-89.57,47.26-4.41-1.58-18-3.22-35.38,2.55-23,7.65-36.69,20.8-36.69,47.71,0,8.19-.1,10.15,3.18,16.92-75.09-28.49-129.5,5.67-149.18,31.39-8.93,11.66-9.32,28.11-8,30.53-28.28-23.91-82.4-13-76.19,29.24.34,2.27,10.27,9.68,7.75,10.24-9.8,2.15-36.27,5.06-138.68,12.59-36.81,2.7-70.21,11.55-87.46,28.58-11.06,10.91-20.23,25.1-6.84,38.49,5.2,5.19,32.07,10.65,40.4,10.58,153.39-1.34,798,4.69,822.69,2.25,56.4-5.57,46.74-72.27,32.72-87.77-10.63-11.75-22.33-25.82-62.79-27.09-4.33-.13-8.62.89-5.48-1.11,16-10.22,2.08-58.24-45.94-46.07-.57.14,0-.51,0-.51C1232.31,261.09,1210.62,231.81,1180.84,222Z"/></g></g><g id="_18" data-name=" 18"><path class="cls-4" d="M1269.2,361.64v6.81h28l1.89,171.69h19.26l-2.41,33-266,5.95H710.48v1.71H693.16v12.63H644.45V579h-119v26.2h-56V579h-110V501.23h28V330.75h5.77l17.83-19.11,17.83,19.11h5.94v53.76H458.6v84.73h10.83l-.94-163.64h6.72v-8.91h3.51V264.43h5.15v32.26h9.59v-5H515.7v5h4.21v8.91h4.6l1,195.63,112-.5L636.22,291.3h5.62l22.32-18.42,22.32,18.92H692v16.06h17.32l1.21,115.56h46.29V396.15H844.3v27.27h33.9v45.82h75.07V303.51h12.87V287.37h69.28v16.14h14.5V540.14h146.79V528.37h-29l-1.89-179.29h70.13l5.64,12.56ZM268.88,435.72V411.64h8.34v-6.82l32-20.45V567.26H268.88v-9.51h-23V411.64H262.4v24.08ZM164,459.61h55.6v-6.17h9v6.17h2.87l-.77,93.76-60.28,14-6.76-.22-.44-13.7V507.65Zm104.84-11.82H262.4v32.15h6.48Z"/><rect class="cls-5" x="603.77" y="334.54" width="51.87" height="187.91"/><rect class="cls-5" x="1139.76" y="370.75" width="43.06" height="177.14"/><path class="cls-4" d="M1384.43,596.57h-98V468.12H1362v64.22h17.79V516.29h34.86v16.05h13.14V525.5H1436v6.84h8.1V525.5h8.2v6.84h6.32l.09,31.47,12.71-.08v32.11Z"/><path class="cls-4" d="M76.68,527.76V480.3h75.59v64.22h17.79v-16h34.86v16h13.14v-6.84h8.19v6.84h8.1v-6.84h8.2v6.84h6.32v32.11h28.91l-.38,27.49H76.31l.37-4H.07V575.66H53.72V527.76Z"/><rect class="cls-6" x="575" y="276.5" width="41.88" height="275.03"/><rect class="cls-7" x="520.37" y="276.5" width="54.62" height="275.03"/><rect class="cls-8" x="524.28" y="299.58" width="46.59" height="8.07"/><rect class="cls-9" x="582.38" y="299.58" width="30.05" height="8.07"/><rect class="cls-8" x="524.28" y="315.41" width="46.59" height="8.07"/><rect class="cls-9" x="582.38" y="315.41" width="30.05" height="8.07"/><rect class="cls-8" x="524.28" y="331.51" width="46.59" height="8.07"/><rect class="cls-9" x="582.38" y="331.51" width="30.05" height="8.07"/><rect class="cls-8" x="524.28" y="347.06" width="46.59" height="8.07"/><rect class="cls-9" x="582.38" y="347.06" width="30.05" height="8.07"/><rect class="cls-8" x="524.28" y="363.16" width="46.59" height="8.07"/><rect class="cls-9" x="582.38" y="363.16" width="30.05" height="8.07"/><rect class="cls-8" x="524.28" y="378.43" width="46.59" height="8.07"/><rect class="cls-9" x="582.38" y="378.43" width="30.05" height="8.07"/><rect class="cls-8" x="524.28" y="393.98" width="46.59" height="8.07"/><rect class="cls-9" x="582.38" y="393.98" width="30.05" height="8.07"/><rect class="cls-8" x="524.28" y="409.98" width="46.59" height="8.07"/><rect class="cls-9" x="582.38" y="409.98" width="30.05" height="8.07"/><rect class="cls-8" x="524.28" y="425.45" width="46.59" height="8.07"/><rect class="cls-9" x="582.38" y="425.45" width="30.05" height="8.07"/><rect class="cls-8" x="524.28" y="440.91" width="46.59" height="8.07"/><rect class="cls-9" x="582.38" y="440.91" width="30.05" height="8.07"/><rect class="cls-8" x="524.28" y="456.61" width="46.59" height="8.07"/><rect class="cls-9" x="582.38" y="456.61" width="30.05" height="8.07"/><rect class="cls-8" x="524.28" y="472.3" width="46.59" height="8.07"/><rect class="cls-9" x="582.38" y="472.3" width="30.05" height="8.07"/><rect class="cls-8" x="524.28" y="488.22" width="46.59" height="8.07"/><rect class="cls-9" x="582.38" y="488.22" width="30.05" height="8.07"/><rect class="cls-10" x="949.55" y="282.43" width="59.39" height="225.15"/><rect class="cls-10" x="958.59" y="278" width="43.86" height="4.43"/><rect class="cls-11" x="949.55" y="295.11" width="59.39" height="9.62"/><rect class="cls-11" x="949.55" y="332.56" width="59.39" height="9.62"/><rect class="cls-11" x="949.55" y="370.01" width="59.39" height="9.62"/><rect class="cls-12" x="307.91" y="425.8" width="19.25" height="116.46"/><rect class="cls-13" x="749.33" y="268.04" width="60.82" height="223.35"/><rect class="cls-10" x="781.95" y="307.28" width="18.6" height="4.09"/><rect class="cls-10" x="775.95" y="278.44" width="3.79" height="4.09"/><rect class="cls-10" x="781.95" y="278.44" width="3.79" height="4.09"/><rect class="cls-10" x="797.06" y="291.99" width="3.79" height="4.09"/><rect class="cls-10" x="749.33" y="284.88" width="25.42" height="4.09"/><rect class="cls-10" x="771.06" y="307.28" width="3.69" height="4.09"/><rect class="cls-11" x="1269.55" y="309.68" width="34.31" height="15.51"/><rect class="cls-10" x="1253.69" y="309.68" width="15.86" height="15.51"/><rect class="cls-11" x="1266.69" y="323.92" width="45.99" height="279.39"/><rect class="cls-10" x="1245.82" y="323.92" width="20.87" height="279.39"/><rect class="cls-10" x="1272.38" y="332.34" width="5.09" height="3.32"/><rect class="cls-10" x="1280.52" y="332.34" width="5.09" height="3.32"/><rect class="cls-10" x="1304.74" y="339.68" width="5.09" height="3.32"/><rect class="cls-10" x="1304.74" y="345.3" width="5.09" height="3.32"/><rect class="cls-10" x="1272.38" y="357.27" width="5.09" height="3.32"/><rect class="cls-10" x="1287.13" y="367.43" width="5.09" height="3.32"/><rect class="cls-10" x="1304.74" y="417.59" width="5.09" height="3.32"/><rect class="cls-10" x="1292.22" y="417.59" width="5.09" height="3.32"/><rect class="cls-10" x="1272.38" y="444.46" width="5.09" height="3.32"/><rect class="cls-10" x="1304.74" y="444.46" width="5.09" height="3.32"/><rect class="cls-13" x="884.56" y="297.5" width="73.4" height="269.57"/><rect class="cls-10" x="916.06" y="326.41" width="22.45" height="4.94"/><rect class="cls-10" x="951.06" y="301.43" width="4.57" height="4.94"/><rect class="cls-10" x="893.66" y="317.04" width="4.57" height="4.94"/><rect class="cls-10" x="942.16" y="326.41" width="4.57" height="4.94"/><rect class="cls-10" x="927.29" y="364.92" width="30.68" height="4.94"/><rect class="cls-10" x="901.74" y="326.41" width="4.45" height="4.94"/><rect class="cls-14" x="1413.79" y="403.32" width="19.78" height="14.24"/><rect class="cls-15" x="1390.38" y="403.32" width="23.41" height="14.24"/><rect class="cls-14" x="1408.62" y="415.43" width="31.05" height="169.53"/><rect class="cls-15" x="1381.85" y="415.43" width="26.77" height="169.53"/><rect class="cls-15" x="1382.49" y="484.03" width="46.59" height="7.76"/><rect class="cls-14" x="1429.08" y="484.03" width="39.37" height="7.76"/><rect class="cls-14" x="1418.79" y="491.03" width="61.82" height="98.08"/><rect class="cls-15" x="1365.5" y="491.03" width="53.29" height="98.08"/><rect class="cls-15" x="1404.62" y="549.79" width="43.93" height="3.32"/><rect class="cls-14" x="1448.55" y="549.79" width="37.12" height="3.32"/><rect class="cls-14" x="1438.85" y="552.79" width="58.29" height="42.02"/><rect class="cls-15" x="1388.6" y="552.79" width="50.25" height="42.02"/><rect class="cls-11" x="504.83" y="355.78" width="43.34" height="143.97"/><rect class="cls-10" x="485.17" y="355.78" width="19.66" height="143.97"/><path class="cls-16" d="M318.93,318.14l70.44,0-52,12.35S318.93,317.76,318.93,318.14Z"/><path class="cls-17" d="M389.37,318.12l-52.06,12V604.29h52.06Z"/><path class="cls-18" d="M337.31,330.07,319.2,318.12V604.29h18.11Z"/><rect class="cls-19" x="331.6" y="335.87" width="3.87" height="3.87"/><rect class="cls-19" x="325.7" y="342.49" width="3.87" height="3.87"/><rect class="cls-20" x="339.25" y="335.87" width="3.87" height="3.87"/><rect class="cls-20" x="346.91" y="335.87" width="3.87" height="3.87"/><rect class="cls-20" x="383.18" y="366.65" width="3.87" height="3.87"/><rect class="cls-20" x="374.89" y="366.65" width="3.87" height="3.87"/><rect class="cls-20" x="354.57" y="335.87" width="3.87" height="3.87"/><path class="cls-16" d="M389.39,328v5.45L337.51,380.9v-5.52S389.62,328.14,389.39,328Z"/><path class="cls-16" d="M389.34,428.63v-5.45l-51.87-47.44v5.53S389.58,428.51,389.34,428.63Z"/><path class="cls-21" d="M319.23,345.17v5.45l18.11,29.91V375S319,345.29,319.23,345.17Z"/><path class="cls-21" d="M318.79,399v-5.45l18.59-18.16v5.52S318.56,398.87,318.79,399Z"/><rect class="cls-11" x="1344.15" y="379.65" width="20.8" height="5.22"/><rect class="cls-10" x="1312.64" y="379.65" width="31.52" height="5.13"/><rect class="cls-10" x="1305.22" y="383.86" width="48.73" height="213.73"/><rect class="cls-11" x="1348.63" y="383.86" width="22.29" height="213.73"/><rect class="cls-11" x="1305.22" y="395.89" width="43.4" height="9.13"/><rect class="cls-22" x="1348.63" y="395.89" width="22.29" height="9.13"/><rect class="cls-11" x="1305.22" y="431.44" width="48.73" height="9.13"/><rect class="cls-11" x="1305.22" y="466.99" width="48.73" height="9.13"/><rect class="cls-22" x="1348.63" y="431.44" width="22.29" height="9.13"/><rect class="cls-11" x="707.83" y="314.14" width="32.87" height="5.35"/><rect class="cls-10" x="658.03" y="314.14" width="49.8" height="5.26"/><rect class="cls-10" x="646.32" y="318.45" width="76.99" height="218.99"/><rect class="cls-11" x="714.89" y="318.45" width="35.21" height="218.99"/><rect class="cls-11" x="646.32" y="330.78" width="68.57" height="9.36"/><rect class="cls-22" x="714.89" y="330.78" width="35.21" height="9.36"/><rect class="cls-11" x="646.32" y="367.21" width="76.99" height="9.36"/><rect class="cls-11" x="646.32" y="403.64" width="76.99" height="9.36"/><rect class="cls-22" x="714.89" y="367.21" width="35.21" height="9.36"/><rect class="cls-14" x="286.94" y="445.77" width="14.95" height="12.1"/><rect class="cls-15" x="269.25" y="445.77" width="17.69" height="12.1"/><rect class="cls-14" x="283.03" y="456.16" width="23.47" height="145.44"/><rect class="cls-15" x="262.8" y="456.16" width="20.23" height="145.44"/><rect class="cls-15" x="198.44" y="463.33" width="31.57" height="15.36"/><rect class="cls-14" x="230.02" y="463.33" width="32.36" height="15.36"/><rect class="cls-15" x="186.18" y="475.28" width="37.4" height="122.63"/><rect class="cls-14" x="223.58" y="475.28" width="50.87" height="122.63"/><rect class="cls-15" x="122.91" y="508.61" width="31.57" height="9.72"/><rect class="cls-14" x="154.48" y="508.61" width="32.36" height="9.72"/><rect class="cls-15" x="110.64" y="516.17" width="37.4" height="77.6"/><rect class="cls-14" x="148.05" y="516.17" width="50.87" height="77.6"/><path class="cls-23" d="M1196.76,461.22h32.77v141.4h-59.12v-4.55h-32.27V471.53h40.45v48.18h18.17Zm-226,0h11.85v58.49h33V569.2h-33v33.42H907.9V579.09h-17V527.54h17V490.67h28.86V436.15h34ZM236.12,594.37l-82.81.78.4-35.13,13.79-.21.09-17.21,20.53-.21v-7.08h34.44v7.08h13.56Zm1100,8.18-106.57.07V494.92h30.19v8.86h5v49.33h32.65v12.24l38.71.11Z"/><rect class="cls-24" x="76.24" y="544.7" width="39.4" height="48.49"/><rect class="cls-24" x="863.46" y="341.02" width="74.26" height="241.16"/><rect class="cls-24" x="818.69" y="324.62" width="57.62" height="168.74"/><rect class="cls-24" y="555.36" width="90.81" height="37.83"/><rect class="cls-24" x="43.39" y="552.28" width="27.36" height="6.15"/><rect class="cls-24" x="1333.23" y="538.53" width="61.15" height="54.66"/><rect class="cls-24" x="1383.56" y="577.66" width="43.69" height="15.53"/><rect class="cls-24" x="1391.06" y="532.32" width="30.54" height="56.21"/><rect class="cls-24" x="1376.36" y="560.43" width="71.29" height="30.36"/><rect class="cls-24" x="1376.35" y="572.34" width="123.59" height="18.45"/><rect class="cls-24" y="577.66" width="189.58" height="15.53"/><rect class="cls-24" x="99.49" y="538.53" width="12.1" height="9.31"/><rect class="cls-24" x="111.59" y="555.36" width="20.05" height="22.96"/><rect class="cls-6" x="1107.91" y="212.13" width="43.7" height="305.13"/><rect class="cls-7" x="990.87" y="212.13" width="117.04" height="305.13"/><rect class="cls-25" x="995.18" y="229.5" width="11.45" height="7.4"/><rect class="cls-25" x="1011.72" y="229.5" width="11.45" height="7.4"/><rect class="cls-25" x="1028.01" y="229.5" width="11.45" height="7.4"/><rect class="cls-25" x="1043.79" y="229.5" width="11.45" height="7.4"/><rect class="cls-25" x="1059.82" y="229.5" width="11.45" height="7.4"/><rect class="cls-25" x="1075.6" y="229.5" width="11.45" height="7.4"/><rect class="cls-25" x="1092.15" y="229.5" width="11.45" height="7.4"/><rect class="cls-25" x="995.18" y="240.29" width="11.45" height="7.4"/><rect class="cls-25" x="1011.72" y="240.29" width="11.45" height="7.4"/><rect class="cls-25" x="1028.01" y="240.29" width="11.45" height="7.4"/><rect class="cls-25" x="1043.79" y="240.29" width="11.45" height="7.4"/><rect class="cls-25" x="1059.82" y="240.29" width="11.45" height="7.4"/><rect class="cls-25" x="1075.6" y="240.29" width="11.45" height="7.4"/><rect class="cls-25" x="1092.15" y="240.29" width="11.45" height="7.4"/><rect class="cls-25" x="995.18" y="251.29" width="11.45" height="7.4"/><rect class="cls-25" x="1011.72" y="251.29" width="11.45" height="7.4"/><rect class="cls-25" x="1028.01" y="251.29" width="11.45" height="7.4"/><rect class="cls-25" x="1043.79" y="251.29" width="11.45" height="7.4"/><rect class="cls-25" x="1059.82" y="251.29" width="11.45" height="7.4"/><rect class="cls-25" x="1075.6" y="251.29" width="11.45" height="7.4"/><rect class="cls-25" x="1092.15" y="251.29" width="11.45" height="7.4"/><rect class="cls-25" x="995.18" y="262.28" width="11.45" height="7.4"/><rect class="cls-25" x="1011.72" y="262.28" width="11.45" height="7.4"/><rect class="cls-25" x="1028.01" y="262.28" width="11.45" height="7.4"/><rect class="cls-25" x="1043.79" y="262.28" width="11.45" height="7.4"/><rect class="cls-25" x="1059.82" y="262.28" width="11.45" height="7.4"/><rect class="cls-25" x="1075.6" y="262.28" width="11.45" height="7.4"/><rect class="cls-25" x="1092.15" y="262.28" width="11.45" height="7.4"/><rect class="cls-25" x="995.18" y="273.88" width="11.45" height="7.4"/><rect class="cls-25" x="1011.72" y="273.88" width="11.45" height="7.4"/><rect class="cls-25" x="1028.01" y="273.88" width="11.45" height="7.4"/><rect class="cls-25" x="1043.79" y="273.88" width="11.45" height="7.4"/><rect class="cls-25" x="1059.82" y="273.88" width="11.45" height="7.4"/><rect class="cls-25" x="1075.6" y="273.88" width="11.45" height="7.4"/><rect class="cls-25" x="1092.15" y="273.88" width="11.45" height="7.4"/><rect class="cls-25" x="995.18" y="284.83" width="11.45" height="7.4"/><rect class="cls-25" x="1011.72" y="284.83" width="11.45" height="7.4"/><rect class="cls-25" x="1028.01" y="284.83" width="11.45" height="7.4"/><rect class="cls-25" x="1043.79" y="284.83" width="11.45" height="7.4"/><rect class="cls-25" x="1059.82" y="284.83" width="11.45" height="7.4"/><rect class="cls-25" x="1075.6" y="284.83" width="11.45" height="7.4"/><rect class="cls-25" x="1092.15" y="284.83" width="11.45" height="7.4"/><rect class="cls-25" x="995.18" y="295.52" width="11.45" height="7.4"/><rect class="cls-25" x="1011.72" y="295.52" width="11.45" height="7.4"/><rect class="cls-25" x="1028.01" y="295.52" width="11.45" height="7.4"/><rect class="cls-25" x="1043.79" y="295.52" width="11.45" height="7.4"/><rect class="cls-25" x="1059.82" y="295.52" width="11.45" height="7.4"/><rect class="cls-25" x="1075.6" y="295.52" width="11.45" height="7.4"/><rect class="cls-25" x="1092.15" y="295.52" width="11.45" height="7.4"/><rect class="cls-25" x="995.18" y="306.97" width="11.45" height="7.4"/><rect class="cls-25" x="1011.72" y="306.97" width="11.45" height="7.4"/><rect class="cls-25" x="1028.01" y="306.97" width="11.45" height="7.4"/><rect class="cls-25" x="1043.79" y="306.97" width="11.45" height="7.4"/><rect class="cls-25" x="1059.82" y="306.97" width="11.45" height="7.4"/><rect class="cls-25" x="1075.6" y="306.97" width="11.45" height="7.4"/><rect class="cls-25" x="1092.15" y="306.97" width="11.45" height="7.4"/><rect class="cls-25" x="995.18" y="317.88" width="11.45" height="7.4"/><rect class="cls-25" x="1011.72" y="317.88" width="11.45" height="7.4"/><rect class="cls-25" x="1028.01" y="317.88" width="11.45" height="7.4"/><rect class="cls-25" x="1043.79" y="317.88" width="11.45" height="7.4"/><rect class="cls-25" x="1059.82" y="317.88" width="11.45" height="7.4"/><rect class="cls-25" x="1075.6" y="317.88" width="11.45" height="7.4"/><rect class="cls-25" x="1092.15" y="317.88" width="11.45" height="7.4"/><rect class="cls-25" x="995.18" y="328.47" width="11.45" height="7.4"/><rect class="cls-25" x="1011.72" y="328.47" width="11.45" height="7.4"/><rect class="cls-25" x="1028.01" y="328.47" width="11.45" height="7.4"/><rect class="cls-25" x="1043.79" y="328.47" width="11.45" height="7.4"/><rect class="cls-25" x="1059.82" y="328.47" width="11.45" height="7.4"/><rect class="cls-25" x="1075.6" y="328.47" width="11.45" height="7.4"/><rect class="cls-25" x="1092.15" y="328.47" width="11.45" height="7.4"/><rect class="cls-25" x="995.18" y="339.05" width="11.45" height="7.4"/><rect class="cls-25" x="1011.72" y="339.05" width="11.45" height="7.4"/><rect class="cls-25" x="1028.01" y="339.05" width="11.45" height="7.4"/><rect class="cls-25" x="1043.79" y="339.05" width="11.45" height="7.4"/><rect class="cls-25" x="1059.82" y="339.05" width="11.45" height="7.4"/><rect class="cls-25" x="1075.6" y="339.05" width="11.45" height="7.4"/><rect class="cls-25" x="1092.15" y="339.05" width="11.45" height="7.4"/><rect class="cls-25" x="995.18" y="349.96" width="11.45" height="7.4"/><rect class="cls-25" x="1011.72" y="349.96" width="11.45" height="7.4"/><rect class="cls-25" x="1028.01" y="349.96" width="11.45" height="7.4"/><rect class="cls-25" x="1043.79" y="349.96" width="11.45" height="7.4"/><rect class="cls-25" x="1059.82" y="349.96" width="11.45" height="7.4"/><rect class="cls-25" x="1075.6" y="349.96" width="11.45" height="7.4"/><rect class="cls-25" x="1092.15" y="349.96" width="11.45" height="7.4"/><rect class="cls-25" x="995.18" y="360.99" width="11.45" height="7.4"/><rect class="cls-25" x="1011.72" y="360.99" width="11.45" height="7.4"/><rect class="cls-25" x="1028.01" y="360.99" width="11.45" height="7.4"/><rect class="cls-25" x="1043.79" y="360.99" width="11.45" height="7.4"/><rect class="cls-25" x="1059.82" y="360.99" width="11.45" height="7.4"/><rect class="cls-25" x="1075.6" y="360.99" width="11.45" height="7.4"/><rect class="cls-25" x="1092.15" y="360.99" width="11.45" height="7.4"/><rect class="cls-25" x="995.18" y="371.58" width="11.45" height="7.4"/><rect class="cls-25" x="1011.72" y="371.58" width="11.45" height="7.4"/><rect class="cls-25" x="1028.01" y="371.58" width="11.45" height="7.4"/><rect class="cls-25" x="1043.79" y="371.58" width="11.45" height="7.4"/><rect class="cls-25" x="1059.82" y="371.58" width="11.45" height="7.4"/><rect class="cls-25" x="1075.6" y="371.58" width="11.45" height="7.4"/><rect class="cls-25" x="1092.15" y="371.58" width="11.45" height="7.4"/><rect class="cls-7" x="1007.1" y="186.9" width="88.95" height="28.72"/><rect class="cls-6" x="1096.05" y="186.9" width="40.87" height="25.23"/><rect class="cls-26" x="990.87" y="212.13" width="117.04" height="6.99"/><rect class="cls-27" x="1107.91" y="212.13" width="43.7" height="6.99"/><rect class="cls-6" x="943.56" y="349.51" width="31.98" height="9.53"/><rect class="cls-7" x="895.1" y="349.51" width="48.47" height="9.36"/><rect class="cls-7" x="883.7" y="354.22" width="74.93" height="239.4"/><rect class="cls-6" x="950.44" y="354.22" width="34.27" height="239.4"/><rect class="cls-8" x="883.7" y="367.7" width="66.73" height="10.23"/><rect class="cls-8" x="883.7" y="407.52" width="74.93" height="10.23"/><rect class="cls-8" x="883.7" y="447.34" width="74.93" height="10.23"/><rect class="cls-9" x="950.44" y="367.7" width="34.27" height="10.23"/><rect class="cls-9" x="950.44" y="407.52" width="34.27" height="10.23"/><rect class="cls-9" x="950.43" y="447.33" width="34.27" height="10.23"/><rect class="cls-28" x="888.56" y="382.94" width="9.35" height="6.91"/><rect class="cls-28" x="900.88" y="382.94" width="9.35" height="6.91"/><rect class="cls-28" x="913.22" y="382.94" width="9.35" height="6.91"/><rect class="cls-28" x="925.36" y="382.94" width="9.35" height="6.91"/><rect class="cls-28" x="937.68" y="382.94" width="9.35" height="6.91"/><rect class="cls-28" x="888.66" y="394.57" width="9.35" height="6.91"/><rect class="cls-28" x="900.98" y="394.57" width="9.35" height="6.91"/><rect class="cls-28" x="913.32" y="394.57" width="9.35" height="6.91"/><rect class="cls-28" x="925.46" y="394.57" width="9.35" height="6.91"/><rect class="cls-28" x="937.78" y="394.57" width="9.35" height="6.91"/><rect class="cls-28" x="887.78" y="422.84" width="9.35" height="6.91"/><rect class="cls-28" x="900.1" y="422.84" width="9.35" height="6.91"/><rect class="cls-28" x="912.44" y="422.84" width="9.35" height="6.91"/><rect class="cls-28" x="924.58" y="422.84" width="9.35" height="6.91"/><rect class="cls-28" x="936.9" y="422.84" width="9.35" height="6.91"/><rect class="cls-28" x="887.88" y="434.46" width="9.35" height="6.91"/><rect class="cls-28" x="900.2" y="434.46" width="9.35" height="6.91"/><rect class="cls-28" x="912.54" y="434.46" width="9.35" height="6.91"/><rect class="cls-28" x="924.68" y="434.46" width="9.35" height="6.91"/><rect class="cls-28" x="937" y="434.46" width="9.35" height="6.91"/><rect class="cls-28" x="887.78" y="464.65" width="9.35" height="6.91"/><rect class="cls-28" x="900.1" y="464.65" width="9.35" height="6.91"/><rect class="cls-28" x="912.44" y="464.65" width="9.35" height="6.91"/><rect class="cls-28" x="924.58" y="464.65" width="9.35" height="6.91"/><rect class="cls-28" x="936.9" y="464.65" width="9.35" height="6.91"/><rect class="cls-28" x="887.88" y="476.28" width="9.35" height="6.91"/><rect class="cls-28" x="900.2" y="476.28" width="9.35" height="6.91"/><rect class="cls-28" x="912.54" y="476.28" width="9.35" height="6.91"/><rect class="cls-28" x="924.68" y="476.28" width="9.35" height="6.91"/><rect class="cls-28" x="937" y="476.28" width="9.35" height="6.91"/><rect class="cls-28" x="887.78" y="486.75" width="9.35" height="6.91"/><rect class="cls-28" x="900.1" y="486.75" width="9.35" height="6.91"/><rect class="cls-28" x="912.44" y="486.75" width="9.35" height="6.91"/><rect class="cls-28" x="924.58" y="486.75" width="9.35" height="6.91"/><rect class="cls-28" x="936.9" y="486.75" width="9.35" height="6.91"/><rect class="cls-28" x="887.88" y="498.37" width="9.35" height="6.91"/><rect class="cls-28" x="900.2" y="498.37" width="9.35" height="6.91"/><rect class="cls-28" x="912.54" y="498.37" width="9.35" height="6.91"/><rect class="cls-28" x="924.68" y="498.37" width="9.35" height="6.91"/><rect class="cls-28" x="937" y="498.37" width="9.35" height="6.91"/><rect class="cls-6" x="1017.64" y="384.24" width="33" height="221"/><rect class="cls-7" x="974.6" y="384.24" width="43.04" height="221"/><rect class="cls-8" x="977.67" y="402.78" width="36.71" height="6.48"/><rect class="cls-9" x="1023.46" y="402.78" width="23.68" height="6.48"/><rect class="cls-8" x="977.67" y="415.5" width="36.71" height="6.48"/><rect class="cls-9" x="1023.46" y="415.5" width="23.68" height="6.48"/><rect class="cls-8" x="977.67" y="428.44" width="36.71" height="6.48"/><rect class="cls-9" x="1023.46" y="428.44" width="23.68" height="6.48"/><rect class="cls-8" x="977.67" y="440.93" width="36.71" height="6.48"/><rect class="cls-9" x="1023.46" y="440.93" width="23.68" height="6.48"/><rect class="cls-8" x="977.67" y="453.87" width="36.71" height="6.48"/><rect class="cls-9" x="1023.46" y="453.87" width="23.68" height="6.48"/><rect class="cls-8" x="977.67" y="466.14" width="36.71" height="6.48"/><rect class="cls-9" x="1023.46" y="466.14" width="23.68" height="6.48"/><rect class="cls-8" x="977.67" y="478.63" width="36.71" height="6.48"/><rect class="cls-9" x="1023.46" y="478.63" width="23.68" height="6.48"/><rect class="cls-8" x="977.67" y="491.49" width="36.71" height="6.48"/><rect class="cls-9" x="1023.46" y="491.49" width="23.68" height="6.48"/><rect class="cls-8" x="977.67" y="503.92" width="36.71" height="6.48"/><rect class="cls-9" x="1023.46" y="503.92" width="23.68" height="6.48"/><rect class="cls-8" x="977.67" y="516.35" width="36.71" height="6.48"/><rect class="cls-9" x="1023.46" y="516.35" width="23.68" height="6.48"/><rect class="cls-8" x="977.67" y="528.96" width="36.71" height="6.48"/><rect class="cls-9" x="1023.46" y="528.96" width="23.68" height="6.48"/><rect class="cls-8" x="977.67" y="541.57" width="36.71" height="6.48"/><rect class="cls-9" x="1023.46" y="541.57" width="23.68" height="6.48"/><rect class="cls-8" x="977.67" y="554.36" width="36.71" height="6.48"/><rect class="cls-9" x="1023.46" y="554.36" width="23.68" height="6.48"/><rect class="cls-29" x="730.03" y="383.17" width="102.61" height="213.97"/><rect class="cls-25" x="786.74" y="429.99" width="11.5" height="6.69"/><rect class="cls-25" x="801.08" y="429.99" width="11.5" height="6.69"/><rect class="cls-25" x="815.54" y="429.99" width="11.5" height="6.69"/><rect class="cls-25" x="815.54" y="396.24" width="11.5" height="6.69"/><rect class="cls-25" x="735.27" y="420.27" width="11.5" height="6.69"/><rect class="cls-25" x="750.1" y="420.27" width="11.5" height="6.69"/><rect class="cls-25" x="750.2" y="465.11" width="11.5" height="6.69"/><rect class="cls-25" x="735.27" y="465.11" width="11.5" height="6.69"/><rect class="cls-25" x="779.37" y="465.11" width="11.5" height="6.69"/><rect class="cls-25" x="765.03" y="465.11" width="11.5" height="6.69"/><rect class="cls-29" x="752.49" y="367.03" width="63.05" height="16.15"/><rect class="cls-30" x="815.54" y="367.02" width="43.91" height="16.15"/><rect class="cls-30" x="832.64" y="383.17" width="45.11" height="213.97"/><rect class="cls-31" x="844.04" y="396.24" width="11.5" height="6.69"/><rect class="cls-31" x="858.87" y="396.24" width="11.5" height="6.69"/><rect class="cls-31" x="858.87" y="465.11" width="11.5" height="6.69"/><rect class="cls-7" x="751.12" y="467.43" width="49.3" height="134.73"/><rect class="cls-32" x="583.01" y="467.43" width="168.11" height="134.73"/><rect class="cls-28" x="586.67" y="477.02" width="9.54" height="6.74"/><rect class="cls-28" x="600.38" y="477.02" width="9.54" height="6.74"/><rect class="cls-28" x="614.1" y="477.02" width="9.54" height="6.74"/><rect class="cls-32" x="627.81" y="477.02" width="9.54" height="6.74"/><rect class="cls-28" x="641.53" y="477.02" width="9.54" height="6.74"/><rect class="cls-28" x="655.24" y="477.02" width="9.54" height="6.74"/><rect class="cls-28" x="668.96" y="477.02" width="9.54" height="6.74"/><rect class="cls-28" x="723.82" y="477.02" width="9.54" height="6.74"/><rect class="cls-28" x="737.53" y="477.02" width="9.54" height="6.74"/><rect class="cls-28" x="600.58" y="486.87" width="9.54" height="6.74"/><rect class="cls-28" x="655.44" y="486.87" width="9.54" height="6.74"/><rect class="cls-28" x="669.15" y="486.87" width="9.54" height="6.74"/><rect class="cls-28" x="682.87" y="486.87" width="9.54" height="6.74"/><rect class="cls-28" x="696.58" y="486.87" width="9.54" height="6.74"/><rect class="cls-28" x="737.73" y="486.87" width="9.54" height="6.74"/><rect class="cls-28" x="586.86" y="496.14" width="9.54" height="6.74"/><rect class="cls-28" x="600.58" y="496.14" width="9.54" height="6.74"/><rect class="cls-32" x="614.29" y="496.14" width="9.54" height="6.74"/><rect class="cls-32" x="628.01" y="496.14" width="9.54" height="6.74"/><rect class="cls-28" x="641.72" y="496.14" width="9.54" height="6.74"/><rect class="cls-28" x="696.58" y="496.14" width="9.54" height="6.74"/><rect class="cls-28" x="710.3" y="496.14" width="9.54" height="6.74"/><rect class="cls-28" x="737.73" y="496.14" width="9.54" height="6.74"/><rect class="cls-32" x="586.86" y="505.17" width="9.54" height="6.74"/><rect class="cls-32" x="600.58" y="505.17" width="9.54" height="6.74"/><rect class="cls-28" x="614.29" y="505.17" width="9.54" height="6.74"/><rect class="cls-28" x="628.01" y="505.17" width="9.54" height="6.74"/><rect class="cls-28" x="655.44" y="505.17" width="9.54" height="6.74"/><rect class="cls-28" x="669.15" y="505.17" width="9.54" height="6.74"/><rect class="cls-28" x="710.3" y="505.17" width="9.54" height="6.74"/><rect class="cls-28" x="600.58" y="514.19" width="9.54" height="6.74"/><rect class="cls-28" x="641.72" y="514.19" width="9.54" height="6.74"/><rect class="cls-28" x="682.87" y="514.19" width="9.54" height="6.74"/><rect class="cls-28" x="710.3" y="514.19" width="9.54" height="6.74"/><rect class="cls-28" x="737.73" y="514.19" width="9.54" height="6.74"/><rect class="cls-28" x="586.86" y="523.46" width="9.54" height="6.74"/><rect class="cls-32" x="600.58" y="523.46" width="9.54" height="6.74"/><rect class="cls-32" x="614.29" y="523.46" width="9.54" height="6.74"/><rect class="cls-28" x="628.01" y="523.46" width="9.54" height="6.74"/><rect class="cls-28" x="655.44" y="523.46" width="9.54" height="6.74"/><rect class="cls-28" x="696.58" y="523.46" width="9.54" height="6.74"/><rect class="cls-28" x="710.3" y="523.46" width="9.54" height="6.74"/><rect class="cls-28" x="614.29" y="532.98" width="9.54" height="6.74"/><rect class="cls-28" x="628.01" y="532.98" width="9.54" height="6.74"/><rect class="cls-28" x="669.15" y="532.98" width="9.54" height="6.74"/><rect class="cls-28" x="682.87" y="532.98" width="9.54" height="6.74"/><rect class="cls-28" x="614.29" y="542.5" width="9.54" height="6.74"/><rect class="cls-28" x="641.72" y="542.5" width="9.54" height="6.74"/><rect class="cls-28" x="586.86" y="552.09" width="9.54" height="6.74"/><rect class="cls-28" x="628.01" y="552.09" width="9.54" height="6.74"/><rect class="cls-28" x="641.72" y="552.09" width="9.54" height="6.74"/><rect class="cls-28" x="655.44" y="552.09" width="9.54" height="6.74"/><rect class="cls-28" x="669.15" y="552.09" width="9.54" height="6.74"/><rect class="cls-28" x="682.87" y="552.09" width="9.54" height="6.74"/><rect class="cls-28" x="696.58" y="552.09" width="9.54" height="6.74"/><rect class="cls-28" x="710.3" y="552.09" width="9.54" height="6.74"/><rect class="cls-28" x="724.01" y="552.09" width="9.54" height="6.74"/><rect class="cls-28" x="737.73" y="552.09" width="9.54" height="6.74"/><rect class="cls-28" x="586.86" y="561.51" width="9.54" height="6.74"/><rect class="cls-28" x="600.58" y="561.51" width="9.54" height="6.74"/><rect class="cls-28" x="614.29" y="561.51" width="9.54" height="6.74"/><rect class="cls-28" x="628.01" y="561.51" width="9.54" height="6.74"/><rect class="cls-28" x="641.72" y="561.51" width="9.54" height="6.74"/><rect class="cls-28" x="655.44" y="561.51" width="9.54" height="6.74"/><rect class="cls-28" x="669.15" y="561.51" width="9.54" height="6.74"/><rect class="cls-28" x="682.87" y="561.51" width="9.54" height="6.74"/><rect class="cls-28" x="696.58" y="561.51" width="9.54" height="6.74"/><rect class="cls-28" x="710.3" y="561.51" width="9.54" height="6.74"/><rect class="cls-28" x="724.01" y="561.51" width="9.54" height="6.74"/><rect class="cls-28" x="737.73" y="561.51" width="9.54" height="6.74"/><rect class="cls-28" x="586.86" y="571.25" width="9.54" height="6.74"/><rect class="cls-28" x="600.58" y="571.25" width="9.54" height="6.74"/><rect class="cls-28" x="614.29" y="571.25" width="9.54" height="6.74"/><rect class="cls-28" x="628.01" y="571.25" width="9.54" height="6.74"/><rect class="cls-28" x="641.72" y="571.25" width="9.54" height="6.74"/><rect class="cls-28" x="655.44" y="571.25" width="9.54" height="6.74"/><rect class="cls-28" x="669.15" y="571.25" width="9.54" height="6.74"/><rect class="cls-28" x="682.87" y="571.25" width="9.54" height="6.74"/><rect class="cls-28" x="696.58" y="571.25" width="9.54" height="6.74"/><rect class="cls-28" x="710.3" y="571.25" width="9.54" height="6.74"/><rect class="cls-28" x="724.01" y="571.25" width="9.54" height="6.74"/><rect class="cls-28" x="737.73" y="571.25" width="9.54" height="6.74"/><rect class="cls-28" x="586.86" y="580.37" width="9.54" height="6.74"/><rect class="cls-28" x="600.58" y="580.37" width="9.54" height="6.74"/><rect class="cls-28" x="614.29" y="580.37" width="9.54" height="6.74"/><rect class="cls-28" x="628.01" y="580.37" width="9.54" height="6.74"/><rect class="cls-28" x="641.72" y="580.37" width="9.54" height="6.74"/><rect class="cls-28" x="655.44" y="580.37" width="9.54" height="6.74"/><rect class="cls-28" x="669.15" y="580.37" width="9.54" height="6.74"/><rect class="cls-28" x="682.87" y="580.37" width="9.54" height="6.74"/><rect class="cls-28" x="696.58" y="580.37" width="9.54" height="6.74"/><rect class="cls-28" x="710.3" y="580.37" width="9.54" height="6.74"/><rect class="cls-28" x="724.01" y="580.37" width="9.54" height="6.74"/><rect class="cls-28" x="737.73" y="580.37" width="9.54" height="6.74"/><rect class="cls-32" x="605.1" y="443.78" width="137.2" height="23.65"/><rect class="cls-7" x="742.31" y="443.78" width="43.36" height="23.65"/><rect class="cls-33" x="605.11" y="451.55" width="137.2" height="4.05"/><rect class="cls-34" x="742.31" y="451.55" width="43.36" height="4.05"/><rect class="cls-6" x="503.55" y="404.62" width="33.84" height="203.7"/><rect class="cls-7" x="412.94" y="404.62" width="90.62" height="203.7"/><rect class="cls-20" x="416.76" y="413.76" width="17.41" height="3.94"/><rect class="cls-20" x="437.23" y="502.54" width="17.41" height="3.94"/><rect class="cls-20" x="490.76" y="468.05" width="5.28" height="3.94"/><rect class="cls-20" x="490.76" y="476.05" width="5.28" height="3.94"/><rect class="cls-20" x="482.02" y="476.05" width="5.28" height="3.94"/><rect class="cls-20" x="437.23" y="413.76" width="5.28" height="3.94"/><rect class="cls-20" x="445.55" y="413.76" width="5.28" height="3.94"/><rect class="cls-35" x="412.94" y="404.62" width="90.62" height="4.67"/><rect class="cls-36" x="503.55" y="404.62" width="33.84" height="4.67"/><rect class="cls-35" x="412.94" y="457.76" width="90.62" height="4.67"/><rect class="cls-36" x="503.55" y="457.76" width="33.84" height="4.67"/><rect class="cls-35" x="412.94" y="511.14" width="90.62" height="4.67"/><rect class="cls-36" x="503.55" y="511.14" width="33.84" height="4.67"/><rect class="cls-6" x="1137.36" y="408.96" width="27.38" height="191.15"/><rect class="cls-7" x="1064.04" y="408.96" width="73.32" height="191.15"/><rect class="cls-8" x="1124.45" y="421.54" width="6.18" height="132.87"/><rect class="cls-8" x="1111.03" y="421.54" width="6.18" height="132.87"/><rect class="cls-8" x="1097.61" y="421.54" width="6.18" height="132.87"/><rect class="cls-8" x="1084.2" y="421.54" width="6.18" height="132.87"/><rect class="cls-8" x="1070.78" y="421.54" width="6.18" height="132.87"/><rect class="cls-7" x="1074.21" y="393.16" width="55.72" height="17.99"/><rect class="cls-6" x="1129.93" y="393.15" width="25.6" height="15.8"/><rect class="cls-35" x="1064.04" y="408.96" width="73.32" height="4.38"/><rect class="cls-36" x="1137.36" y="408.96" width="27.38" height="4.38"/><rect class="cls-6" x="368.16" y="454.99" width="37.82" height="151.76"/><rect class="cls-7" x="318.83" y="454.99" width="49.33" height="151.76"/><rect class="cls-8" x="322.36" y="467.72" width="42.07" height="4.45"/><rect class="cls-9" x="374.83" y="467.72" width="27.13" height="4.45"/><rect class="cls-8" x="322.36" y="476.46" width="42.07" height="4.45"/><rect class="cls-9" x="374.83" y="476.46" width="27.13" height="4.45"/><rect class="cls-8" x="322.36" y="485.34" width="42.07" height="4.45"/><rect class="cls-9" x="374.83" y="485.34" width="27.13" height="4.45"/><rect class="cls-8" x="322.36" y="493.92" width="42.07" height="4.45"/><rect class="cls-9" x="374.83" y="493.92" width="27.13" height="4.45"/><rect class="cls-8" x="322.36" y="502.81" width="42.07" height="4.45"/><rect class="cls-9" x="374.83" y="502.81" width="27.13" height="4.45"/><rect class="cls-8" x="322.36" y="511.23" width="42.07" height="4.45"/><rect class="cls-9" x="374.83" y="511.23" width="27.13" height="4.45"/><rect class="cls-8" x="322.36" y="519.81" width="42.07" height="4.45"/><rect class="cls-9" x="374.83" y="519.81" width="27.13" height="4.45"/><rect class="cls-8" x="322.36" y="528.64" width="42.07" height="4.45"/><rect class="cls-9" x="374.83" y="528.64" width="27.13" height="4.45"/><rect class="cls-8" x="322.36" y="537.18" width="42.07" height="4.45"/><rect class="cls-9" x="374.83" y="537.18" width="27.13" height="4.45"/><rect class="cls-8" x="322.36" y="545.71" width="42.07" height="4.45"/><rect class="cls-9" x="374.83" y="545.71" width="27.13" height="4.45"/><rect class="cls-8" x="322.36" y="554.37" width="42.07" height="4.45"/><rect class="cls-9" x="374.83" y="554.37" width="27.13" height="4.45"/><rect class="cls-8" x="322.36" y="563.03" width="42.07" height="4.45"/><rect class="cls-9" x="374.83" y="563.03" width="27.13" height="4.45"/><rect class="cls-8" x="322.36" y="571.82" width="42.07" height="4.45"/><rect class="cls-9" x="374.83" y="571.82" width="27.13" height="4.45"/><rect class="cls-37" x="173.46" y="593.85" width="1326.6" height="11.86"/><rect class="cls-37" x="695.28" y="598.03" width="234.88" height="7.45"/><rect class="cls-37" x="576.51" y="580.68" width="55.26" height="24.8"/><rect class="cls-37" x="273.76" y="553.23" width="189.42" height="54.89"/><rect class="cls-37" x="422.82" y="538.93" width="23.47" height="23.32"/><rect class="cls-37" x="225.39" y="562.25" width="48.37" height="46.49"/><rect class="cls-37" x="0.07" y="593.38" width="243.9" height="15.35"/><rect class="cls-38" x="876.26" y="564.4" width="34.96" height="41.32"/><rect class="cls-39" x="876.26" y="564.4" width="34.96" height="4.71"/><rect class="cls-40" x="880.49" y="574.45" width="5.38" height="9.76"/><rect class="cls-40" x="901.79" y="574.45" width="5.38" height="9.76"/><rect class="cls-38" x="843.2" y="537.23" width="34.96" height="67.92"/><rect class="cls-41" x="860.68" y="595.47" width="7.91" height="9.68"/><rect class="cls-39" x="843.2" y="537.23" width="34.96" height="4.71"/><rect class="cls-40" x="847.42" y="547.28" width="5.38" height="9.76"/><rect class="cls-40" x="868.72" y="547.28" width="5.38" height="9.76"/><rect class="cls-40" x="847.42" y="577.46" width="5.38" height="9.76"/><rect class="cls-37" x="315.8" y="520.34" width="28.48" height="86.93"/><rect class="cls-41" x="265.56" y="520.34" width="50.24" height="86.93"/><rect class="cls-40" x="272.16" y="532.24" width="10.94" height="11.28"/><rect class="cls-40" x="294.05" y="532.24" width="21.75" height="11.28"/><rect class="cls-42" x="334.06" y="532.24" width="3.08" height="11.28"/><rect class="cls-37" x="787.12" y="524.86" width="42.14" height="80.67"/><rect class="cls-41" x="712.78" y="524.86" width="74.34" height="80.67"/><rect class="cls-37" x="717.35" y="581.19" width="49.62" height="24.34"/><rect class="cls-43" x="731.29" y="582.58" width="34.25" height="22.95"/><rect class="cls-41" x="731.29" y="583.92" width="34.25" height="0.82"/><rect class="cls-41" x="731.29" y="586.23" width="34.25" height="0.82"/><rect class="cls-41" x="731.29" y="602.4" width="34.25" height="0.82"/><rect class="cls-41" x="731.29" y="604.71" width="34.25" height="0.82"/><rect class="cls-41" x="731.29" y="588.54" width="34.25" height="0.82"/><rect class="cls-41" x="731.29" y="590.85" width="34.25" height="0.82"/><rect class="cls-41" x="731.29" y="593.16" width="34.25" height="0.82"/><rect class="cls-41" x="731.29" y="595.47" width="34.25" height="0.82"/><rect class="cls-41" x="731.29" y="597.78" width="34.25" height="0.82"/><rect class="cls-41" x="731.29" y="600.09" width="34.25" height="0.82"/><rect class="cls-40" x="768.18" y="529.84" width="10.94" height="11.28"/><rect class="cls-42" x="797.85" y="529.84" width="3.08" height="11.28"/><rect class="cls-42" x="806.65" y="529.84" width="3.08" height="11.28"/><rect class="cls-38" x="442.69" y="561.1" width="163.32" height="47.63"/><rect class="cls-38" x="484.11" y="516.14" width="114.69" height="44.96"/><rect class="cls-39" x="442.69" y="561.1" width="163.32" height="6.67"/><rect class="cls-39" x="484.11" y="516.14" width="114.69" height="6.45"/><rect class="cls-39" x="484.11" y="543.31" width="114.69" height="3.66"/><rect class="cls-40" x="492.8" y="527.79" width="5.39" height="10.84"/><rect class="cls-42" x="505.93" y="527.79" width="5.39" height="10.84"/><rect class="cls-42" x="505.93" y="550.27" width="5.39" height="10.84"/><rect class="cls-42" x="584.71" y="550.27" width="5.39" height="10.84"/><rect class="cls-40" x="519.06" y="527.79" width="5.39" height="10.84"/><rect class="cls-40" x="532.19" y="527.79" width="5.39" height="10.84"/><rect class="cls-42" x="545.32" y="527.79" width="5.39" height="10.84"/><rect class="cls-42" x="558.45" y="527.79" width="5.39" height="10.84"/><rect class="cls-42" x="571.58" y="527.79" width="5.39" height="10.84"/><rect class="cls-40" x="584.71" y="527.79" width="5.39" height="10.84"/><rect class="cls-42" x="455.11" y="582.52" width="50.83" height="26.22"/><rect class="cls-44" x="458.18" y="585.79" width="45.11" height="22.95"/><rect class="cls-42" x="458.18" y="587.13" width="45.11" height="0.82"/><rect class="cls-42" x="458.18" y="589.44" width="45.11" height="0.82"/><rect class="cls-42" x="458.18" y="605.61" width="45.11" height="0.82"/><rect class="cls-42" x="458.18" y="607.92" width="45.11" height="0.82"/><rect class="cls-42" x="458.18" y="591.75" width="45.11" height="0.82"/><rect class="cls-42" x="458.18" y="594.06" width="45.11" height="0.82"/><rect class="cls-42" x="458.18" y="596.37" width="45.11" height="0.82"/><rect class="cls-42" x="458.18" y="598.68" width="45.11" height="0.82"/><rect class="cls-42" x="458.18" y="600.99" width="45.11" height="0.82"/><rect class="cls-42" x="458.18" y="603.3" width="45.11" height="0.82"/><rect class="cls-37" x="970.85" y="557.92" width="87.21" height="47.57"/><rect class="cls-37" x="1008.51" y="522.24" width="98.44" height="83.24"/><rect class="cls-37" x="1091.09" y="541.4" width="107.69" height="64.08"/><rect class="cls-37" x="1071.93" y="498.03" width="24.44" height="24.21"/><rect class="cls-37" x="1034.93" y="510.13" width="23.12" height="12.11"/><rect class="cls-41" x="1091.09" y="579.27" width="50.83" height="26.22"/><rect class="cls-43" x="1094.16" y="582.54" width="45.11" height="22.95"/><rect class="cls-41" x="1094.16" y="583.88" width="45.11" height="0.82"/><rect class="cls-41" x="1094.16" y="586.19" width="45.11" height="0.82"/><rect class="cls-41" x="1094.16" y="602.36" width="45.11" height="0.82"/><rect class="cls-41" x="1094.16" y="604.67" width="45.11" height="0.82"/><rect class="cls-41" x="1094.16" y="588.5" width="45.11" height="0.82"/><rect class="cls-41" x="1094.16" y="590.81" width="45.11" height="0.82"/><rect class="cls-41" x="1094.16" y="593.12" width="45.11" height="0.82"/><rect class="cls-41" x="1094.16" y="595.43" width="45.11" height="0.82"/><rect class="cls-41" x="1094.16" y="597.74" width="45.11" height="0.82"/><rect class="cls-41" x="1094.16" y="600.05" width="45.11" height="0.82"/><rect class="cls-41" x="1140.32" y="551.22" width="36.47" height="6.7"/><rect class="cls-41" x="1016.39" y="529.31" width="11.93" height="8.12"/><rect class="cls-41" x="1040.75" y="529.31" width="11.93" height="8.12"/><rect class="cls-41" x="1065.11" y="529.31" width="11.93" height="8.12"/><rect class="cls-41" x="692.26" y="544.61" width="37.18" height="64.14"/><rect class="cls-38" x="618.19" y="544.6" width="74.07" height="64.14"/><rect class="cls-40" x="623.79" y="557.93" width="45.77" height="5.15"/><rect class="cls-40" x="623.79" y="568.11" width="45.77" height="5.21"/><rect class="cls-41" x="910.98" y="509.49" width="60.97" height="99.25"/><rect class="cls-37" x="971.95" y="509.49" width="21.03" height="99.25"/><rect class="cls-40" x="921.07" y="522.22" width="13.31" height="11.19"/><rect class="cls-40" x="948.67" y="522.22" width="13.31" height="11.19"/><rect class="cls-40" x="948.67" y="575.15" width="13.31" height="11.19"/><g id="Bus"><g id="Path_288" data-name="Path 288"><path class="cls-41" d="M1416.41,570l-1.12-1.52c0-.12-.12-.22-.24-.28a1.29,1.29,0,0,0-.5-.09h-20a1.31,1.31,0,0,0-.61.09c-.25,0-.38.15-.38.28l-1,1.52Z"/></g><g id="Path_282" data-name="Path 282"><path class="cls-41" d="M1425.33,569.52l-62.42-.11c-3.68,0-4-.3-4,2.82V583c0,2.08-.12,4.09-.12,5.25,0,.31-.06.37.12.52a1,1,0,0,0,.6.07l64-.07h5.82c.46,0,.42,0,.63-.22a.77.77,0,0,0,.21-.53v-7.47C1430.19,577.43,1429,569.52,1425.33,569.52Z"/></g><path class="cls-45" d="M1419.43,588.76c0-.21,0-.43,0-.64,0-2.73-.83-5-4.23-4.94s-4.23,2.21-4.23,4.94a4.58,4.58,0,0,0,0,.64Z"/><path class="cls-45" d="M1384,588.82a4.87,4.87,0,0,0,0-.66c0-2.8-1-5.12-5.1-5.07s-5.1,2.27-5.1,5.07a3.67,3.67,0,0,0,0,.66Z"/><g id="Ellipse_170" data-name="Ellipse 170"><ellipse class="cls-37" cx="1378.91" cy="587.54" rx="4.32" ry="2.92"/></g><g id="Ellipse_171" data-name="Ellipse 171"><ellipse class="cls-37" cx="1415.23" cy="587.54" rx="3.09" ry="2.92"/></g><g id="Path_285" data-name="Path 285"><path class="cls-37" d="M1429.42,581.7l-15-3.9-53-.17v-7.07l62.16,0a5.13,5.13,0,0,1,2.22.28c1.24.64,2.23,3,2.72,4.77A49.22,49.22,0,0,1,1429.42,581.7Z"/></g><g id="Rectangle_872" data-name="Rectangle 872"><path class="cls-46" d="M1372.83,572a.66.66,0,0,0-.66-.66h-8.87a.66.66,0,0,0-.66.66v4.19a.67.67,0,0,0,.66.66h8.87a.67.67,0,0,0,.66-.66Z"/></g><g id="Rectangle_873" data-name="Rectangle 873"><path class="cls-46" d="M1384.35,571.92a.6.6,0,0,0-.61-.6h-8.48a.6.6,0,0,0-.6.6v4.3a.6.6,0,0,0,.6.61h8.48a.61.61,0,0,0,.61-.61Z"/></g><g id="Rectangle_874" data-name="Rectangle 874"><path class="cls-46" d="M1391.65,572a.65.65,0,0,0-.65-.65h-4.17a.65.65,0,0,0-.65.65v4.2a.66.66,0,0,0,.65.66H1391a.66.66,0,0,0,.65-.66Z"/></g><g id="Rectangle_875" data-name="Rectangle 875"><path class="cls-46" d="M1403.85,571.81a.49.49,0,0,0-.49-.49H1394a.49.49,0,0,0-.5.49v4.52a.5.5,0,0,0,.5.5h9.38a.5.5,0,0,0,.49-.5Z"/></g><g id="Rectangle_876" data-name="Rectangle 876"><path class="cls-46" d="M1412.3,572a.65.65,0,0,0-.66-.66h-5.3a.65.65,0,0,0-.66.66v4.19a.66.66,0,0,0,.66.66h5.3a.66.66,0,0,0,.66-.66Z"/></g><g id="Path_287" data-name="Path 287"><path class="cls-42" d="M1420.86,571.81c0-.23-.26-.39-.68-.39-1.67,0-2.91,0-4.51,0-.29,0-.45.13-.45.41,0,1.84,0,3.42,0,5.22l5.66,1.45S1421,573,1420.86,571.81Z"/></g><g id="Path_286" data-name="Path 286"><path class="cls-42" d="M1424.64,571.41c-.43,0-1.57,0-2.22,0-.28,0-.46.35-.47.52,0,2.27,0,4.53,0,6.8l6.23,1.61a24.31,24.31,0,0,0-.84-5.24,9.42,9.42,0,0,0-1.46-3.13A1.77,1.77,0,0,0,1424.64,571.41Z"/></g></g><g id="Bus1"><g id="Path_2881" data-name="Path 2881"><path class="cls-41" d="M42,569.85l1.11-1.52c0-.12.12-.21.25-.28a1.21,1.21,0,0,1,.49-.09h20a1.35,1.35,0,0,1,.62.09c.25.05.37.16.37.28l1,1.52Z"/></g><g id="Path_2821" data-name="Path 2821"><path class="cls-41" d="M33.06,569.42l62.42-.11c3.67,0,4-.31,4,2.82v10.76c0,2.08.12,4.09.12,5.25,0,.31.06.37-.12.52s-.6.08-.6.08l-64-.08H29c-.45,0-.42,0-.63-.21a.79.79,0,0,1-.21-.53v-7.47C28.19,577.32,29.37,569.42,33.06,569.42Z"/></g><path class="cls-45" d="M39,588.65a4.58,4.58,0,0,1,0-.64c0-2.73.83-5,4.23-4.94s4.23,2.21,4.23,4.94a4.58,4.58,0,0,1,0,.64Z"/><path class="cls-45" d="M74.42,588.71a4.89,4.89,0,0,1,0-.66c0-2.8,1-5.12,5.1-5.06s5.1,2.26,5.1,5.06a4.87,4.87,0,0,1,0,.66Z"/><g id="Ellipse_1701" data-name="Ellipse 1701"><ellipse class="cls-37" cx="79.47" cy="587.44" rx="4.32" ry="2.92"/></g><g id="Ellipse_1711" data-name="Ellipse 1711"><ellipse class="cls-37" cx="43.15" cy="587.44" rx="3.09" ry="2.92"/></g><g id="Path_2851" data-name="Path 2851"><path class="cls-37" d="M29,581.6l15-3.91,53-.16v-7.07l-62.16,0a5,5,0,0,0-2.22.29c-1.24.63-2.22,3-2.72,4.76A47.28,47.28,0,0,0,29,581.6Z"/></g><g id="Rectangle_8721" data-name="Rectangle 8721"><path class="cls-46" d="M85.55,571.87a.67.67,0,0,1,.66-.66h8.87a.67.67,0,0,1,.66.66v4.19a.67.67,0,0,1-.66.66H86.21a.67.67,0,0,1-.66-.66Z"/></g><g id="Rectangle_8731" data-name="Rectangle 8731"><path class="cls-46" d="M74,571.82a.61.61,0,0,1,.61-.61h8.48a.61.61,0,0,1,.61.61v4.29a.61.61,0,0,1-.61.61H74.64a.61.61,0,0,1-.61-.61Z"/></g><g id="Rectangle_8741" data-name="Rectangle 8741"><path class="cls-46" d="M66.73,571.87a.65.65,0,0,1,.66-.66h4.16a.66.66,0,0,1,.66.66v4.19a.66.66,0,0,1-.66.66H67.39a.65.65,0,0,1-.66-.66Z"/></g><g id="Rectangle_8751" data-name="Rectangle 8751"><path class="cls-46" d="M54.53,571.71a.5.5,0,0,1,.5-.5h9.38a.49.49,0,0,1,.49.5v4.51a.49.49,0,0,1-.49.5H55a.5.5,0,0,1-.5-.5Z"/></g><g id="Rectangle_8761" data-name="Rectangle 8761"><path class="cls-46" d="M46.08,571.87a.67.67,0,0,1,.66-.66H52a.66.66,0,0,1,.66.66v4.19a.66.66,0,0,1-.66.66h-5.3a.67.67,0,0,1-.66-.66Z"/></g><g id="Path_2871" data-name="Path 2871"><path class="cls-42" d="M37.52,571.71c0-.23.26-.4.68-.4l4.52,0c.28,0,.45.14.45.42,0,1.83,0,3.42,0,5.22l-5.66,1.44S37.41,572.88,37.52,571.71Z"/></g><g id="Path_2861" data-name="Path 2861"><path class="cls-42" d="M33.74,571.3c.43,0,1.58,0,2.22,0,.28,0,.47.35.47.53q0,3.39,0,6.79l-6.22,1.62a24.31,24.31,0,0,1,.83-5.25,9.52,9.52,0,0,1,1.46-3.13A1.82,1.82,0,0,1,33.74,571.3Z"/></g></g></g><g id="front-line"><rect class="cls-37" x="0.07" y="589.94" width="1500" height="18.8"/></g></g></g></svg>