<svg xmlns="http://www.w3.org/2000/svg" viewBox="0 0 1500.02 608.74"><defs><style>.cls-1{fill:#c0a8d4;}.cls-1,.cls-18,.cls-2,.cls-23,.cls-29,.cls-3,.cls-30,.cls-31,.cls-32,.cls-33,.cls-34,.cls-36,.cls-37{fill-rule:evenodd;}.cls-2{fill:#dabed7;}.cls-3{fill:#68d9ea;}.cls-4{fill:#8ad2dd;}.cls-5{fill:#62bdcb;}.cls-6{fill:#44abbb;}.cls-18,.cls-7{fill:#3ca1b5;}.cls-8{fill:#80e6f5;}.cls-9{fill:#b5eaf7;}.cls-10{fill:#8edbed;}.cls-11{fill:#b3e9f6;}.cls-12,.cls-23{fill:#3695b2;}.cls-13{fill:#01587e;}.cls-14{fill:#207c8f;}.cls-15{fill:#9cebf7;}.cls-16{fill:#78e4f5;}.cls-17{fill:#4dd8ed;}.cls-19{fill:#015478;}.cls-20{fill:#01354b;}.cls-21{fill:#84c8d1;}.cls-22{fill:#76bfc8;}.cls-24{fill:#012636;}.cls-25{fill:#87afab;}.cls-26{fill:#6d9e9a;}.cls-27,.cls-29{fill:#310225;}.cls-28,.cls-30{fill:#3a002d;}.cls-31{fill:#393612;}.cls-32{fill:#361b0e;}.cls-33,.cls-38{fill:#212009;}.cls-34,.cls-35{fill:#1f0119;}.cls-36{fill:#403b14;}.cls-37{fill:#391f0c;}.cls-39{fill:#62375a;}.cls-40{fill:#1f0017;}</style></defs><g id="Layer_2" data-name="Layer 2"><g id="Layer_1-2" data-name="Layer 1"><g id="clouds14"><g id="big-cloud"><path class="cls-1" d="M1198.44,99.72C1180,42.3,1117.45,0,1043.27,0c-61.08,0-96,23.23-123.22,65.42C914,63.23,895.27,61,871.38,68.94c-31.63,10.59-50.48,28.79-50.48,66,0,11.33-.12,14,4.39,23.42C722,119,647.15,166.24,620.07,201.84,607.79,218,607.25,240.75,609,244.1,570.09,211,495.64,226,504.19,284.58c.47,3.13,14.12,13.4,10.66,14.17-13.48,3-150.24,7.76-290.65,23.52-33.38,3.75-76,18.56-111.34,38.28-41.52,23.14-42,93.88,8.44,118.32,9.12,4.42,36.44,10.78,47.89,10.67,211-1.85,1172.77-5.43,1206.89-7.29,107.19-5.87,93.9-139.78,52.42-177.88-16.12-14.8-32.57-34.84-88.23-36.59-6-.17-11.86,1.24-7.54-1.54,21.94-14.14,2.86-80.6-63.2-63.76-.78.2,0-.7,0-.7C1269.25,153.88,1239.42,113.36,1198.44,99.72Z"/></g><g id="big-cloud1"><path class="cls-2" d="M1164.87,145.59c-12.16-31.91-53.33-55.42-102.19-55.42-40.22,0-63.24,12.91-81.14,36.36-4-1.22-16.32-2.48-32,2-20.83,5.88-33.25,16-33.25,36.7,0,6.3-.08,7.81,2.89,13-68-21.92-117.31,4.36-135.14,24.14-8.09,9-8.45,21.63-7.3,23.49-25.62-18.39-74.65-10-69,22.49.31,1.75,9.3,7.45,7,7.88-8.88,1.65-32.85,3.9-125.63,9.68-33.35,2.08-63.61,8.89-79.23,22-10,8.4-18.33,19.31-6.2,29.61,4.71,4,29,8.19,36.6,8.14,139-1,722.89,3.6,745.29,1.73,51.09-4.29,42.34-55.6,29.64-67.52-9.63-9-20.23-19.87-56.88-20.84-3.93-.1-7.81.69-5-.86,14.45-7.86,1.88-44.79-41.62-35.44-.51.12,0-.38,0-.38C1211.51,175.69,1191.86,153.17,1164.87,145.59Z"/></g></g><path class="cls-3" d="M1282.5,315.91h20.07V306h14v10h6.12V306h6.24v10h29.8v146.9h36.6v-8.55h21.17v8.55h15.42v52.94h19.36v82.3h-42.35v1.82H224.88v-1.82H172v1.82H95.74V507H123V474h7.78V460.82h12.54V474H172V414.65h52.93V405.3h21.24v9.35h5v12.66h90.38V341.65h82.64v148.2h117V462.17H470V288.47h9.08V272.06h11.58v16.41h6.56V272.06h11.27v16.41h32.71V246.68h4.95V241h34v5.69h9.41v62.06H622.1V261.25h14.4V246.68h44.68V231.83h11.35v14.85h7.31v14.57h13.42v33.11h52.23V489.85h77.13V245.19H983.91V489.85l13.34-42.2v-7.29l177.16,42.2V262.76h21.52v-7h70.16v7h16.41Z"/><g id="_05" data-name=" 05"><rect class="cls-4" x="1043.36" y="170.58" width="92.41" height="33.81"/><rect class="cls-4" x="1032.59" y="190.44" width="112.05" height="270.6"/><rect class="cls-5" x="1032.59" y="190.44" width="112.05" height="11.45"/><rect class="cls-5" x="1132.11" y="213.04" width="46.29" height="18.76"/><rect class="cls-4" x="1084.93" y="213.08" width="48.49" height="18.75"/><rect class="cls-5" x="1133.86" y="222.07" width="58.47" height="188.38"/><rect class="cls-4" x="1074.37" y="221.97" width="61.2" height="188.79"/><rect class="cls-5" x="1073.13" y="239.41" width="62.38" height="9.1"/><rect class="cls-5" x="1073.13" y="282.99" width="62.38" height="9.1"/><rect class="cls-5" x="1073.13" y="332.51" width="62.38" height="9.1"/><rect class="cls-6" x="1135.57" y="239.41" width="56.76" height="9.1"/><rect class="cls-6" x="1135.57" y="282.99" width="55.55" height="9.1"/><rect class="cls-6" x="1135.57" y="332.51" width="55.55" height="9.1"/><rect class="cls-5" x="948.97" y="155.32" width="74.06" height="238.37"/><rect class="cls-4" x="879.54" y="155.32" width="72.66" height="238.37"/><rect class="cls-5" x="884.23" y="178.55" width="64.74" height="11.62"/><rect class="cls-5" x="884.23" y="198.92" width="64.74" height="11.62"/><rect class="cls-5" x="884.23" y="219.28" width="64.74" height="11.62"/><rect class="cls-5" x="884.23" y="239.65" width="64.74" height="11.62"/><rect class="cls-5" x="884.23" y="260.02" width="64.74" height="11.62"/><rect class="cls-5" x="884.23" y="280.39" width="64.74" height="11.62"/><rect class="cls-5" x="884.23" y="300.75" width="64.74" height="11.62"/><rect class="cls-5" x="884.23" y="321.12" width="64.74" height="11.62"/><rect class="cls-5" x="884.23" y="341.49" width="64.74" height="11.62"/><rect class="cls-5" x="884.23" y="361.85" width="64.74" height="11.62"/><rect class="cls-6" x="958.61" y="178.55" width="61.24" height="11.62"/><rect class="cls-6" x="958.61" y="198.92" width="61.24" height="11.62"/><rect class="cls-6" x="958.61" y="219.28" width="61.24" height="11.62"/><rect class="cls-6" x="958.61" y="239.65" width="61.24" height="11.62"/><rect class="cls-6" x="958.61" y="260.02" width="61.24" height="11.62"/><rect class="cls-6" x="958.61" y="280.39" width="61.24" height="11.62"/><rect class="cls-6" x="958.61" y="300.75" width="61.24" height="11.62"/><rect class="cls-6" x="958.61" y="321.12" width="61.24" height="11.62"/><rect class="cls-6" x="958.61" y="341.49" width="61.24" height="11.62"/><rect class="cls-6" x="958.61" y="361.85" width="61.24" height="11.62"/><rect class="cls-7" x="1274.23" y="274.78" width="37.24" height="15.09"/><rect class="cls-8" x="1236.27" y="274.81" width="39.02" height="15.09"/><rect class="cls-7" x="1275.64" y="282.11" width="47.04" height="272.65"/><rect class="cls-8" x="1227.77" y="281.97" width="49.24" height="273.24"/><rect class="cls-9" x="1228.76" y="296" width="49.24" height="7.33"/><rect class="cls-9" x="1227.77" y="331.06" width="49.24" height="7.33"/><rect class="cls-9" x="1227.77" y="370.91" width="49.24" height="7.33"/><rect class="cls-10" x="1278" y="296" width="45.67" height="7.33"/><rect class="cls-10" x="1277.01" y="331.06" width="45.67" height="7.33"/><rect class="cls-10" x="1277.01" y="370.91" width="45.67" height="7.33"/><rect class="cls-7" x="1045.78" y="245.46" width="74.06" height="238.37"/><rect class="cls-8" x="976.35" y="245.46" width="72.66" height="238.37"/><rect class="cls-9" x="981.04" y="268.7" width="64.74" height="11.62"/><rect class="cls-9" x="981.04" y="289.06" width="64.74" height="11.62"/><rect class="cls-9" x="981.04" y="309.43" width="64.74" height="11.62"/><rect class="cls-9" x="981.04" y="329.8" width="64.74" height="11.62"/><rect class="cls-9" x="981.04" y="350.16" width="64.74" height="11.62"/><rect class="cls-9" x="981.04" y="370.53" width="64.74" height="11.62"/><rect class="cls-9" x="981.04" y="390.9" width="64.74" height="11.62"/><rect class="cls-9" x="981.04" y="411.27" width="64.74" height="11.62"/><rect class="cls-9" x="981.04" y="431.63" width="64.74" height="11.62"/><rect class="cls-9" x="981.04" y="452" width="64.74" height="11.62"/><rect class="cls-11" x="1055.42" y="268.7" width="61.24" height="11.62"/><rect class="cls-11" x="1055.42" y="289.06" width="61.24" height="11.62"/><rect class="cls-11" x="1055.42" y="309.43" width="61.24" height="11.62"/><rect class="cls-11" x="1055.42" y="329.8" width="61.24" height="11.62"/><rect class="cls-11" x="1055.42" y="350.16" width="61.24" height="11.62"/><rect class="cls-11" x="1055.42" y="370.53" width="61.24" height="11.62"/><rect class="cls-11" x="1055.42" y="390.9" width="61.24" height="11.62"/><rect class="cls-11" x="1055.42" y="411.27" width="61.24" height="11.62"/><rect class="cls-11" x="1055.42" y="431.63" width="61.24" height="11.62"/><rect class="cls-11" x="1055.42" y="452" width="61.24" height="11.62"/><rect class="cls-12" x="406.45" y="315.37" width="82.79" height="30.29"/><rect class="cls-12" x="396.8" y="333.17" width="100.38" height="242.42"/><rect class="cls-13" x="396.8" y="422.33" width="100.38" height="8.01"/><rect class="cls-13" x="396.8" y="442.6" width="100.38" height="8.01"/><rect class="cls-13" x="396.8" y="462.3" width="100.38" height="8.01"/><rect class="cls-13" x="397.17" y="400.55" width="100.01" height="8.01"/><rect class="cls-13" x="396.86" y="378.76" width="100.31" height="8.01"/><rect class="cls-13" x="397.34" y="356.98" width="99.83" height="8.01"/><rect class="cls-13" x="396.8" y="333.17" width="100.38" height="10.25"/><rect class="cls-7" x="911.19" y="272.12" width="85.1" height="31.14"/><rect class="cls-7" x="901.27" y="290.41" width="103.19" height="249.2"/><rect class="cls-11" x="901.27" y="382.07" width="103.19" height="8.23"/><rect class="cls-11" x="901.27" y="402.91" width="103.19" height="8.23"/><rect class="cls-11" x="901.27" y="423.15" width="103.19" height="8.23"/><rect class="cls-11" x="901.66" y="359.68" width="102.8" height="8.23"/><rect class="cls-11" x="901.34" y="337.29" width="103.11" height="8.23"/><rect class="cls-11" x="901.82" y="314.89" width="102.62" height="8.23"/><rect class="cls-14" x="901.27" y="290.41" width="103.19" height="10.54"/><rect class="cls-8" x="833.48" y="234.76" width="46.82" height="18.97"/><rect class="cls-15" x="785.76" y="234.79" width="49.05" height="18.97"/><rect class="cls-8" x="835.25" y="243.89" width="59.13" height="190.53"/><rect class="cls-15" x="775.08" y="243.79" width="61.89" height="190.94"/><rect class="cls-16" x="775.07" y="261.42" width="61.89" height="9.21"/><rect class="cls-16" x="773.83" y="305.5" width="61.89" height="9.21"/><rect class="cls-16" x="773.83" y="355.59" width="61.89" height="9.21"/><rect class="cls-17" x="836.97" y="261.42" width="57.41" height="9.21"/><rect class="cls-17" x="835.72" y="305.5" width="57.41" height="9.21"/><rect class="cls-17" x="835.72" y="355.59" width="57.41" height="9.21"/><rect class="cls-8" x="1275.73" y="338.02" width="60.99" height="19.45"/><rect class="cls-7" x="1336.72" y="338.02" width="30.65" height="17.52"/><rect class="cls-8" x="1257.75" y="352.99" width="89.33" height="211.1"/><path class="cls-18" d="M1346,353h39.45l-.15,211.1H1346Z"/><rect class="cls-7" x="1257.75" y="352.98" width="88.24" height="7.37"/><rect class="cls-14" x="1345.98" y="352.98" width="39.39" height="7.37"/><rect class="cls-11" x="1376.07" y="368.44" width="6.06" height="9.84"/><rect class="cls-11" x="1297.15" y="368.44" width="10.52" height="9.84"/><rect class="cls-11" x="1314.62" y="368.44" width="10.52" height="9.84"/><rect class="cls-11" x="1332.09" y="368.44" width="10.52" height="9.84"/><rect class="cls-11" x="1279.68" y="368.44" width="10.52" height="9.84"/><rect class="cls-11" x="1262.2" y="368.44" width="10.52" height="9.84"/><rect class="cls-11" x="1375.89" y="383.24" width="6.06" height="9.84"/><rect class="cls-11" x="1296.96" y="383.24" width="10.52" height="9.84"/><rect class="cls-11" x="1314.44" y="383.24" width="10.52" height="9.84"/><rect class="cls-11" x="1331.91" y="383.24" width="10.52" height="9.84"/><rect class="cls-11" x="1279.49" y="383.24" width="10.52" height="9.84"/><rect class="cls-11" x="1262.02" y="383.24" width="10.52" height="9.84"/><rect class="cls-11" x="1375.89" y="398.95" width="6.06" height="9.84"/><rect class="cls-11" x="1296.96" y="398.95" width="10.52" height="9.84"/><rect class="cls-11" x="1314.44" y="398.95" width="10.52" height="9.84"/><rect class="cls-11" x="1331.91" y="398.95" width="10.52" height="9.84"/><rect class="cls-11" x="1279.49" y="398.95" width="10.52" height="9.84"/><rect class="cls-11" x="1262.02" y="398.95" width="10.52" height="9.84"/><rect class="cls-11" x="1376.07" y="415" width="6.06" height="9.84"/><rect class="cls-11" x="1297.15" y="415" width="10.52" height="9.84"/><rect class="cls-11" x="1314.62" y="415" width="10.52" height="9.84"/><rect class="cls-11" x="1332.09" y="415" width="10.52" height="9.84"/><rect class="cls-11" x="1279.68" y="415" width="10.52" height="9.84"/><rect class="cls-11" x="1262.2" y="415" width="10.52" height="9.84"/><rect class="cls-11" x="1376.07" y="430.34" width="6.06" height="9.84"/><rect class="cls-11" x="1297.15" y="430.34" width="10.52" height="9.84"/><rect class="cls-11" x="1314.62" y="430.34" width="10.52" height="9.84"/><rect class="cls-11" x="1332.09" y="430.34" width="10.52" height="9.84"/><rect class="cls-11" x="1279.68" y="430.34" width="10.52" height="9.84"/><rect class="cls-11" x="1262.2" y="430.34" width="10.52" height="9.84"/><rect class="cls-11" x="1375.89" y="445.14" width="6.06" height="9.84"/><rect class="cls-11" x="1296.96" y="445.14" width="10.52" height="9.84"/><rect class="cls-11" x="1314.44" y="445.14" width="10.52" height="9.84"/><rect class="cls-11" x="1331.91" y="445.14" width="10.52" height="9.84"/><rect class="cls-11" x="1279.49" y="445.14" width="10.52" height="9.84"/><rect class="cls-11" x="1262.02" y="445.14" width="10.52" height="9.84"/><rect class="cls-11" x="1375.89" y="460.84" width="6.06" height="9.84"/><rect class="cls-11" x="1296.96" y="460.84" width="10.52" height="9.84"/><rect class="cls-11" x="1314.44" y="460.84" width="10.52" height="9.84"/><rect class="cls-11" x="1331.91" y="460.84" width="10.52" height="9.84"/><rect class="cls-11" x="1279.49" y="460.84" width="10.52" height="9.84"/><rect class="cls-11" x="1262.02" y="460.84" width="10.52" height="9.84"/><rect class="cls-11" x="1376.07" y="476.89" width="6.06" height="9.84"/><rect class="cls-11" x="1297.15" y="476.89" width="10.52" height="9.84"/><rect class="cls-11" x="1314.62" y="476.89" width="10.52" height="9.84"/><rect class="cls-11" x="1332.09" y="476.89" width="10.52" height="9.84"/><rect class="cls-11" x="1279.68" y="476.89" width="10.52" height="9.84"/><rect class="cls-11" x="1262.2" y="476.89" width="10.52" height="9.84"/><rect class="cls-11" x="1375.7" y="492.56" width="6.06" height="9.84"/><rect class="cls-11" x="1296.78" y="492.56" width="10.52" height="9.84"/><rect class="cls-11" x="1314.25" y="492.56" width="10.52" height="9.84"/><rect class="cls-11" x="1331.72" y="492.56" width="10.52" height="9.84"/><rect class="cls-11" x="1279.3" y="492.56" width="10.52" height="9.84"/><rect class="cls-11" x="1261.83" y="492.56" width="10.52" height="9.84"/><rect class="cls-11" x="1375.89" y="508.61" width="6.06" height="9.84"/><rect class="cls-11" x="1296.96" y="508.61" width="10.52" height="9.84"/><rect class="cls-11" x="1314.44" y="508.61" width="10.52" height="9.84"/><rect class="cls-11" x="1331.91" y="508.61" width="10.52" height="9.84"/><rect class="cls-11" x="1279.49" y="508.61" width="10.52" height="9.84"/><rect class="cls-11" x="1262.02" y="508.61" width="10.52" height="9.84"/><rect class="cls-11" x="1376.07" y="523.35" width="6.06" height="9.84"/><rect class="cls-11" x="1297.15" y="523.35" width="10.52" height="9.84"/><rect class="cls-11" x="1314.62" y="523.35" width="10.52" height="9.84"/><rect class="cls-11" x="1332.09" y="523.35" width="10.52" height="9.84"/><rect class="cls-11" x="1279.68" y="523.35" width="10.52" height="9.84"/><rect class="cls-11" x="1262.2" y="523.35" width="10.52" height="9.84"/><rect class="cls-11" x="1376.26" y="539.4" width="6.06" height="9.84"/><rect class="cls-11" x="1297.34" y="539.4" width="10.52" height="9.84"/><rect class="cls-11" x="1314.81" y="539.4" width="10.52" height="9.84"/><rect class="cls-11" x="1332.28" y="539.4" width="10.52" height="9.84"/><rect class="cls-11" x="1279.86" y="539.4" width="10.52" height="9.84"/><rect class="cls-11" x="1262.39" y="539.4" width="10.52" height="9.84"/><rect class="cls-8" x="1154.18" y="306.57" width="60.99" height="19.45"/><rect class="cls-7" x="1215.18" y="306.57" width="30.65" height="17.52"/><rect class="cls-8" x="1136.2" y="321.54" width="89.33" height="211.1"/><path class="cls-18" d="M1224.41,321.53h39.45l-.15,211.1h-39.3Z"/><rect class="cls-7" x="1136.2" y="321.53" width="88.24" height="7.37"/><rect class="cls-14" x="1224.44" y="321.53" width="39.39" height="7.37"/><rect class="cls-11" x="1254.53" y="336.99" width="6.06" height="9.84"/><rect class="cls-11" x="1175.6" y="336.99" width="10.52" height="9.84"/><rect class="cls-11" x="1193.08" y="336.99" width="10.52" height="9.84"/><rect class="cls-11" x="1210.55" y="336.99" width="10.52" height="9.84"/><rect class="cls-11" x="1158.13" y="336.99" width="10.52" height="9.84"/><rect class="cls-11" x="1140.66" y="336.99" width="10.52" height="9.84"/><rect class="cls-11" x="1254.34" y="351.79" width="6.06" height="9.84"/><rect class="cls-11" x="1175.42" y="351.79" width="10.52" height="9.84"/><rect class="cls-11" x="1192.89" y="351.79" width="10.52" height="9.84"/><rect class="cls-11" x="1210.36" y="351.79" width="10.52" height="9.84"/><rect class="cls-11" x="1157.94" y="351.79" width="10.52" height="9.84"/><rect class="cls-11" x="1140.47" y="351.79" width="10.52" height="9.84"/><rect class="cls-11" x="1254.34" y="367.5" width="6.06" height="9.84"/><rect class="cls-11" x="1175.42" y="367.5" width="10.52" height="9.84"/><rect class="cls-11" x="1192.89" y="367.5" width="10.52" height="9.84"/><rect class="cls-11" x="1210.36" y="367.5" width="10.52" height="9.84"/><rect class="cls-11" x="1157.94" y="367.5" width="10.52" height="9.84"/><rect class="cls-11" x="1140.47" y="367.5" width="10.52" height="9.84"/><rect class="cls-11" x="1254.53" y="383.55" width="6.06" height="9.84"/><rect class="cls-11" x="1175.6" y="383.55" width="10.52" height="9.84"/><rect class="cls-11" x="1193.08" y="383.55" width="10.52" height="9.84"/><rect class="cls-11" x="1210.55" y="383.55" width="10.52" height="9.84"/><rect class="cls-11" x="1158.13" y="383.55" width="10.52" height="9.84"/><rect class="cls-11" x="1140.66" y="383.55" width="10.52" height="9.84"/><rect class="cls-11" x="1254.53" y="398.89" width="6.06" height="9.84"/><rect class="cls-11" x="1175.6" y="398.89" width="10.52" height="9.84"/><rect class="cls-11" x="1193.08" y="398.89" width="10.52" height="9.84"/><rect class="cls-11" x="1210.55" y="398.89" width="10.52" height="9.84"/><rect class="cls-11" x="1158.13" y="398.89" width="10.52" height="9.84"/><rect class="cls-11" x="1140.66" y="398.89" width="10.52" height="9.84"/><rect class="cls-11" x="1254.34" y="413.69" width="6.06" height="9.84"/><rect class="cls-11" x="1175.42" y="413.69" width="10.52" height="9.84"/><rect class="cls-11" x="1192.89" y="413.69" width="10.52" height="9.84"/><rect class="cls-11" x="1210.36" y="413.69" width="10.52" height="9.84"/><rect class="cls-11" x="1157.94" y="413.69" width="10.52" height="9.84"/><rect class="cls-11" x="1140.47" y="413.69" width="10.52" height="9.84"/><rect class="cls-11" x="1254.34" y="429.39" width="6.06" height="9.84"/><rect class="cls-11" x="1175.42" y="429.39" width="10.52" height="9.84"/><rect class="cls-11" x="1192.89" y="429.39" width="10.52" height="9.84"/><rect class="cls-11" x="1210.36" y="429.39" width="10.52" height="9.84"/><rect class="cls-11" x="1157.94" y="429.39" width="10.52" height="9.84"/><rect class="cls-11" x="1140.47" y="429.39" width="10.52" height="9.84"/><rect class="cls-11" x="1254.53" y="445.44" width="6.06" height="9.84"/><rect class="cls-11" x="1175.6" y="445.44" width="10.52" height="9.84"/><rect class="cls-11" x="1193.08" y="445.44" width="10.52" height="9.84"/><rect class="cls-11" x="1210.55" y="445.44" width="10.52" height="9.84"/><rect class="cls-11" x="1158.13" y="445.44" width="10.52" height="9.84"/><rect class="cls-11" x="1140.66" y="445.44" width="10.52" height="9.84"/><rect class="cls-11" x="1254.16" y="461.12" width="6.06" height="9.84"/><rect class="cls-11" x="1175.23" y="461.12" width="10.52" height="9.84"/><rect class="cls-11" x="1192.7" y="461.12" width="10.52" height="9.84"/><rect class="cls-11" x="1210.18" y="461.12" width="10.52" height="9.84"/><rect class="cls-11" x="1157.76" y="461.12" width="10.52" height="9.84"/><rect class="cls-11" x="1140.29" y="461.12" width="10.52" height="9.84"/><rect class="cls-11" x="1254.34" y="477.16" width="6.06" height="9.84"/><rect class="cls-11" x="1175.42" y="477.16" width="10.52" height="9.84"/><rect class="cls-11" x="1192.89" y="477.16" width="10.52" height="9.84"/><rect class="cls-11" x="1210.36" y="477.16" width="10.52" height="9.84"/><rect class="cls-11" x="1157.94" y="477.16" width="10.52" height="9.84"/><rect class="cls-11" x="1140.47" y="477.16" width="10.52" height="9.84"/><rect class="cls-11" x="1254.53" y="491.9" width="6.06" height="9.84"/><rect class="cls-11" x="1175.6" y="491.9" width="10.52" height="9.84"/><rect class="cls-11" x="1193.08" y="491.9" width="10.52" height="9.84"/><rect class="cls-11" x="1210.55" y="491.9" width="10.52" height="9.84"/><rect class="cls-11" x="1158.13" y="491.9" width="10.52" height="9.84"/><rect class="cls-11" x="1140.66" y="491.9" width="10.52" height="9.84"/><rect class="cls-11" x="1254.72" y="507.95" width="6.06" height="9.84"/><rect class="cls-11" x="1175.79" y="507.95" width="10.52" height="9.84"/><rect class="cls-11" x="1193.26" y="507.95" width="10.52" height="9.84"/><rect class="cls-11" x="1210.74" y="507.95" width="10.52" height="9.84"/><rect class="cls-11" x="1158.32" y="507.95" width="10.52" height="9.84"/><rect class="cls-11" x="1140.85" y="507.95" width="10.52" height="9.84"/><rect class="cls-8" x="527.1" y="276.71" width="60.99" height="19.45"/><rect class="cls-7" x="588.09" y="276.71" width="30.65" height="17.52"/><rect class="cls-8" x="509.11" y="291.68" width="89.33" height="211.1"/><path class="cls-18" d="M597.32,291.68h39.46l-.15,211.1H597.32Z"/><rect class="cls-7" x="509.11" y="291.68" width="88.24" height="7.37"/><rect class="cls-14" x="597.35" y="291.68" width="39.39" height="7.37"/><rect class="cls-11" x="627.44" y="307.14" width="6.06" height="9.84"/><rect class="cls-11" x="548.52" y="307.14" width="10.52" height="9.84"/><rect class="cls-11" x="565.99" y="307.14" width="10.52" height="9.84"/><rect class="cls-11" x="583.46" y="307.14" width="10.52" height="9.84"/><rect class="cls-11" x="531.04" y="307.14" width="10.52" height="9.84"/><rect class="cls-11" x="513.57" y="307.14" width="10.52" height="9.84"/><rect class="cls-11" x="627.25" y="321.94" width="6.06" height="9.84"/><rect class="cls-11" x="548.33" y="321.93" width="10.52" height="9.84"/><rect class="cls-11" x="565.8" y="321.93" width="10.52" height="9.84"/><rect class="cls-11" x="583.28" y="321.93" width="10.52" height="9.84"/><rect class="cls-11" x="530.86" y="321.93" width="10.52" height="9.84"/><rect class="cls-11" x="513.38" y="321.93" width="10.52" height="9.84"/><rect class="cls-11" x="627.25" y="337.64" width="6.06" height="9.84"/><rect class="cls-11" x="548.33" y="337.64" width="10.52" height="9.84"/><rect class="cls-11" x="565.8" y="337.64" width="10.52" height="9.84"/><rect class="cls-11" x="583.28" y="337.64" width="10.52" height="9.84"/><rect class="cls-11" x="530.86" y="337.64" width="10.52" height="9.84"/><rect class="cls-11" x="513.38" y="337.64" width="10.52" height="9.84"/><rect class="cls-11" x="627.44" y="353.69" width="6.06" height="9.84"/><rect class="cls-11" x="548.52" y="353.69" width="10.52" height="9.84"/><rect class="cls-11" x="565.99" y="353.69" width="10.52" height="9.84"/><rect class="cls-11" x="583.46" y="353.69" width="10.52" height="9.84"/><rect class="cls-11" x="531.04" y="353.69" width="10.52" height="9.84"/><rect class="cls-11" x="513.57" y="353.69" width="10.52" height="9.84"/><rect class="cls-11" x="627.44" y="369.03" width="6.06" height="9.84"/><rect class="cls-11" x="548.52" y="369.03" width="10.52" height="9.84"/><rect class="cls-11" x="565.99" y="369.03" width="10.52" height="9.84"/><rect class="cls-11" x="583.46" y="369.03" width="10.52" height="9.84"/><rect class="cls-11" x="531.04" y="369.03" width="10.52" height="9.84"/><rect class="cls-11" x="513.57" y="369.03" width="10.52" height="9.84"/><rect class="cls-11" x="627.25" y="383.83" width="6.06" height="9.84"/><rect class="cls-11" x="548.33" y="383.83" width="10.52" height="9.84"/><rect class="cls-11" x="565.8" y="383.83" width="10.52" height="9.84"/><rect class="cls-11" x="583.28" y="383.83" width="10.52" height="9.84"/><rect class="cls-11" x="530.86" y="383.83" width="10.52" height="9.84"/><rect class="cls-11" x="513.38" y="383.83" width="10.52" height="9.84"/><rect class="cls-11" x="627.25" y="399.53" width="6.06" height="9.84"/><rect class="cls-11" x="548.33" y="399.53" width="10.52" height="9.84"/><rect class="cls-11" x="565.8" y="399.53" width="10.52" height="9.84"/><rect class="cls-11" x="583.28" y="399.53" width="10.52" height="9.84"/><rect class="cls-11" x="530.86" y="399.53" width="10.52" height="9.84"/><rect class="cls-11" x="513.38" y="399.53" width="10.52" height="9.84"/><rect class="cls-11" x="627.44" y="415.58" width="6.06" height="9.84"/><rect class="cls-11" x="548.52" y="415.58" width="10.52" height="9.84"/><rect class="cls-11" x="565.99" y="415.58" width="10.52" height="9.84"/><rect class="cls-11" x="583.46" y="415.58" width="10.52" height="9.84"/><rect class="cls-11" x="531.04" y="415.58" width="10.52" height="9.84"/><rect class="cls-11" x="513.57" y="415.58" width="10.52" height="9.84"/><rect class="cls-11" x="627.07" y="431.26" width="6.06" height="9.84"/><rect class="cls-11" x="548.14" y="431.26" width="10.52" height="9.84"/><rect class="cls-11" x="565.62" y="431.26" width="10.52" height="9.84"/><rect class="cls-11" x="583.09" y="431.26" width="10.52" height="9.84"/><rect class="cls-11" x="530.67" y="431.26" width="10.52" height="9.84"/><rect class="cls-11" x="513.2" y="431.26" width="10.52" height="9.84"/><rect class="cls-11" x="627.25" y="447.3" width="6.06" height="9.84"/><rect class="cls-11" x="548.33" y="447.3" width="10.52" height="9.84"/><rect class="cls-11" x="565.8" y="447.3" width="10.52" height="9.84"/><rect class="cls-11" x="583.28" y="447.3" width="10.52" height="9.84"/><rect class="cls-11" x="530.86" y="447.3" width="10.52" height="9.84"/><rect class="cls-11" x="513.38" y="447.3" width="10.52" height="9.84"/><rect class="cls-11" x="627.44" y="462.05" width="6.06" height="9.84"/><rect class="cls-11" x="548.52" y="462.05" width="10.52" height="9.84"/><rect class="cls-11" x="565.99" y="462.05" width="10.52" height="9.84"/><rect class="cls-11" x="583.46" y="462.05" width="10.52" height="9.84"/><rect class="cls-11" x="531.04" y="462.05" width="10.52" height="9.84"/><rect class="cls-11" x="513.57" y="462.05" width="10.52" height="9.84"/><rect class="cls-11" x="627.63" y="478.09" width="6.06" height="9.84"/><rect class="cls-11" x="548.7" y="478.09" width="10.52" height="9.84"/><rect class="cls-11" x="566.18" y="478.09" width="10.52" height="9.84"/><rect class="cls-11" x="583.65" y="478.09" width="10.52" height="9.84"/><rect class="cls-11" x="531.23" y="478.09" width="10.52" height="9.84"/><rect class="cls-11" x="513.76" y="478.09" width="10.52" height="9.84"/><rect class="cls-8" x="581.21" y="302.29" width="60.99" height="19.45"/><rect class="cls-7" x="642.2" y="302.29" width="30.65" height="17.52"/><rect class="cls-8" x="563.22" y="317.26" width="89.33" height="211.1"/><path class="cls-18" d="M651.43,317.26h39.46l-.15,211.1H651.43Z"/><rect class="cls-7" x="563.22" y="317.26" width="88.24" height="7.37"/><rect class="cls-14" x="651.46" y="317.26" width="39.39" height="7.37"/><rect class="cls-11" x="681.55" y="332.72" width="6.06" height="9.84"/><rect class="cls-11" x="602.63" y="332.72" width="10.52" height="9.84"/><rect class="cls-11" x="620.1" y="332.72" width="10.52" height="9.84"/><rect class="cls-11" x="637.57" y="332.72" width="10.52" height="9.84"/><rect class="cls-11" x="585.15" y="332.72" width="10.52" height="9.84"/><rect class="cls-11" x="567.68" y="332.72" width="10.52" height="9.84"/><rect class="cls-11" x="681.36" y="347.52" width="6.06" height="9.84"/><rect class="cls-11" x="602.44" y="347.52" width="10.52" height="9.84"/><rect class="cls-11" x="619.91" y="347.52" width="10.52" height="9.84"/><rect class="cls-11" x="637.39" y="347.52" width="10.52" height="9.84"/><rect class="cls-11" x="584.97" y="347.52" width="10.52" height="9.84"/><rect class="cls-11" x="567.49" y="347.52" width="10.52" height="9.84"/><rect class="cls-11" x="681.36" y="363.23" width="6.06" height="9.84"/><rect class="cls-11" x="602.44" y="363.23" width="10.52" height="9.84"/><rect class="cls-11" x="619.91" y="363.23" width="10.52" height="9.84"/><rect class="cls-11" x="637.39" y="363.23" width="10.52" height="9.84"/><rect class="cls-11" x="584.97" y="363.23" width="10.52" height="9.84"/><rect class="cls-11" x="567.49" y="363.23" width="10.52" height="9.84"/><rect class="cls-11" x="681.55" y="379.27" width="6.06" height="9.84"/><rect class="cls-11" x="602.63" y="379.27" width="10.52" height="9.84"/><rect class="cls-11" x="620.1" y="379.27" width="10.52" height="9.84"/><rect class="cls-11" x="637.57" y="379.27" width="10.52" height="9.84"/><rect class="cls-11" x="585.15" y="379.27" width="10.52" height="9.84"/><rect class="cls-11" x="567.68" y="379.27" width="10.52" height="9.84"/><rect class="cls-11" x="681.55" y="394.61" width="6.06" height="9.84"/><rect class="cls-11" x="602.63" y="394.61" width="10.52" height="9.84"/><rect class="cls-11" x="620.1" y="394.61" width="10.52" height="9.84"/><rect class="cls-11" x="637.57" y="394.61" width="10.52" height="9.84"/><rect class="cls-11" x="585.15" y="394.61" width="10.52" height="9.84"/><rect class="cls-11" x="567.68" y="394.61" width="10.52" height="9.84"/><rect class="cls-11" x="681.36" y="409.41" width="6.06" height="9.84"/><rect class="cls-11" x="602.44" y="409.41" width="10.52" height="9.84"/><rect class="cls-11" x="619.91" y="409.41" width="10.52" height="9.84"/><rect class="cls-11" x="637.39" y="409.41" width="10.52" height="9.84"/><rect class="cls-11" x="584.97" y="409.41" width="10.52" height="9.84"/><rect class="cls-11" x="567.49" y="409.41" width="10.52" height="9.84"/><rect class="cls-11" x="681.36" y="425.12" width="6.06" height="9.84"/><rect class="cls-11" x="602.44" y="425.12" width="10.52" height="9.84"/><rect class="cls-11" x="619.91" y="425.12" width="10.52" height="9.84"/><rect class="cls-11" x="637.39" y="425.12" width="10.52" height="9.84"/><rect class="cls-11" x="584.97" y="425.12" width="10.52" height="9.84"/><rect class="cls-11" x="567.49" y="425.12" width="10.52" height="9.84"/><rect class="cls-11" x="681.55" y="441.17" width="6.06" height="9.84"/><rect class="cls-11" x="602.63" y="441.17" width="10.52" height="9.84"/><rect class="cls-11" x="620.1" y="441.17" width="10.52" height="9.84"/><rect class="cls-11" x="637.57" y="441.17" width="10.52" height="9.84"/><rect class="cls-11" x="585.15" y="441.17" width="10.52" height="9.84"/><rect class="cls-11" x="567.68" y="441.17" width="10.52" height="9.84"/><rect class="cls-11" x="681.18" y="456.84" width="6.06" height="9.84"/><rect class="cls-11" x="602.25" y="456.84" width="10.52" height="9.84"/><rect class="cls-11" x="619.73" y="456.84" width="10.52" height="9.84"/><rect class="cls-11" x="637.2" y="456.84" width="10.52" height="9.84"/><rect class="cls-11" x="584.78" y="456.84" width="10.52" height="9.84"/><rect class="cls-11" x="567.31" y="456.84" width="10.52" height="9.84"/><rect class="cls-11" x="681.36" y="472.89" width="6.06" height="9.84"/><rect class="cls-11" x="602.44" y="472.89" width="10.52" height="9.84"/><rect class="cls-11" x="619.91" y="472.89" width="10.52" height="9.84"/><rect class="cls-11" x="637.39" y="472.89" width="10.52" height="9.84"/><rect class="cls-11" x="584.97" y="472.89" width="10.52" height="9.84"/><rect class="cls-11" x="567.49" y="472.89" width="10.52" height="9.84"/><rect class="cls-11" x="681.55" y="487.63" width="6.06" height="9.84"/><rect class="cls-11" x="602.63" y="487.63" width="10.52" height="9.84"/><rect class="cls-11" x="620.1" y="487.63" width="10.52" height="9.84"/><rect class="cls-11" x="637.57" y="487.63" width="10.52" height="9.84"/><rect class="cls-11" x="585.15" y="487.63" width="10.52" height="9.84"/><rect class="cls-11" x="567.68" y="487.63" width="10.52" height="9.84"/><rect class="cls-11" x="681.74" y="503.68" width="6.06" height="9.84"/><rect class="cls-11" x="602.81" y="503.68" width="10.52" height="9.84"/><rect class="cls-11" x="620.29" y="503.68" width="10.52" height="9.84"/><rect class="cls-11" x="637.76" y="503.68" width="10.52" height="9.84"/><rect class="cls-11" x="585.34" y="503.68" width="10.52" height="9.84"/><rect class="cls-11" x="567.87" y="503.68" width="10.52" height="9.84"/><rect class="cls-12" x="316.03" y="416.35" width="79.62" height="165.07"/><rect class="cls-13" x="389.65" y="416.35" width="53.91" height="165.22"/><rect class="cls-19" x="316.03" y="416.35" width="79.62" height="4.92"/><rect class="cls-20" x="389.65" y="416.35" width="53.91" height="4.92"/><rect class="cls-21" x="369.9" y="436.63" width="8.8" height="12.41"/><rect class="cls-21" x="349.17" y="436.63" width="8.8" height="12.41"/><rect class="cls-21" x="328.43" y="436.63" width="8.8" height="12.41"/><rect class="cls-21" x="369.9" y="457.66" width="8.8" height="12.41"/><rect class="cls-21" x="349.17" y="457.66" width="8.8" height="12.41"/><rect class="cls-21" x="328.43" y="457.66" width="8.8" height="12.41"/><rect class="cls-21" x="369.9" y="477.81" width="8.8" height="12.41"/><rect class="cls-21" x="349.17" y="477.81" width="8.8" height="12.41"/><rect class="cls-21" x="328.43" y="477.81" width="8.8" height="12.41"/><rect class="cls-21" x="369.9" y="498.84" width="8.8" height="12.41"/><rect class="cls-21" x="349.17" y="498.84" width="8.8" height="12.41"/><rect class="cls-21" x="328.43" y="498.84" width="8.8" height="12.41"/><rect class="cls-22" x="416.12" y="477.83" width="7.51" height="12.41"/><rect class="cls-22" x="416.12" y="457.29" width="7.51" height="12.41"/><rect class="cls-22" x="416.12" y="436.63" width="7.51" height="12.41"/><rect class="cls-22" x="416.12" y="499.62" width="7.51" height="12.41"/><rect class="cls-22" x="416.12" y="519.99" width="7.51" height="12.2"/><rect class="cls-12" x="215.94" y="440.43" width="79.62" height="165.07"/><rect class="cls-13" x="289.56" y="440.43" width="53.91" height="165.22"/><rect class="cls-19" x="215.94" y="440.43" width="79.62" height="4.92"/><rect class="cls-20" x="289.56" y="440.43" width="53.91" height="4.92"/><rect class="cls-21" x="269.81" y="460.71" width="8.8" height="12.41"/><rect class="cls-21" x="249.08" y="460.71" width="8.8" height="12.41"/><rect class="cls-21" x="228.34" y="460.71" width="8.8" height="12.41"/><rect class="cls-21" x="269.81" y="481.73" width="8.8" height="12.41"/><rect class="cls-21" x="249.08" y="481.73" width="8.8" height="12.41"/><rect class="cls-21" x="228.34" y="481.73" width="8.8" height="12.41"/><rect class="cls-21" x="269.81" y="501.88" width="8.8" height="12.41"/><rect class="cls-21" x="249.08" y="501.88" width="8.8" height="12.41"/><rect class="cls-21" x="228.34" y="501.88" width="8.8" height="12.41"/><rect class="cls-21" x="269.81" y="522.91" width="8.8" height="12.41"/><rect class="cls-21" x="249.08" y="522.91" width="8.8" height="12.41"/><rect class="cls-21" x="228.34" y="522.91" width="8.8" height="12.41"/><rect class="cls-22" x="316.03" y="501.91" width="7.51" height="12.41"/><rect class="cls-22" x="316.03" y="481.37" width="7.51" height="12.41"/><rect class="cls-22" x="316.03" y="460.71" width="7.51" height="12.41"/><rect class="cls-22" x="316.03" y="523.7" width="7.51" height="12.41"/><rect class="cls-22" x="316.03" y="544.06" width="7.51" height="12.2"/><rect class="cls-7" x="746.69" y="273.09" width="37.24" height="15.09"/><rect class="cls-8" x="708.73" y="273.11" width="39.02" height="15.09"/><rect class="cls-7" x="748.1" y="280.41" width="47.04" height="272.65"/><rect class="cls-8" x="700.23" y="280.27" width="49.24" height="273.24"/><rect class="cls-9" x="701.22" y="294.3" width="49.24" height="7.33"/><rect class="cls-9" x="700.23" y="329.36" width="49.24" height="7.33"/><rect class="cls-9" x="700.23" y="369.21" width="49.24" height="7.33"/><rect class="cls-10" x="750.47" y="294.3" width="45.67" height="7.33"/><rect class="cls-10" x="749.47" y="329.36" width="45.67" height="7.33"/><rect class="cls-10" x="749.47" y="369.21" width="45.67" height="7.33"/><rect class="cls-12" x="1045.79" y="411.59" width="79.62" height="165.07"/><rect class="cls-13" x="1119.4" y="411.59" width="53.91" height="165.22"/><rect class="cls-19" x="1045.79" y="411.59" width="79.62" height="4.92"/><rect class="cls-20" x="1119.4" y="411.59" width="53.91" height="4.92"/><rect class="cls-21" x="1099.65" y="431.87" width="8.8" height="12.41"/><rect class="cls-21" x="1078.93" y="431.87" width="8.8" height="12.41"/><rect class="cls-21" x="1058.19" y="431.87" width="8.8" height="12.41"/><rect class="cls-21" x="1099.65" y="452.9" width="8.8" height="12.41"/><rect class="cls-21" x="1078.93" y="452.9" width="8.8" height="12.41"/><rect class="cls-21" x="1058.19" y="452.9" width="8.8" height="12.41"/><rect class="cls-21" x="1099.65" y="473.05" width="8.8" height="12.41"/><rect class="cls-21" x="1078.93" y="473.05" width="8.8" height="12.41"/><rect class="cls-21" x="1058.19" y="473.05" width="8.8" height="12.41"/><rect class="cls-21" x="1099.65" y="494.07" width="8.8" height="12.41"/><rect class="cls-21" x="1078.93" y="494.07" width="8.8" height="12.41"/><rect class="cls-21" x="1058.19" y="494.07" width="8.8" height="12.41"/><rect class="cls-22" x="1145.88" y="473.07" width="7.51" height="12.41"/><rect class="cls-22" x="1145.88" y="452.53" width="7.51" height="12.41"/><rect class="cls-22" x="1145.88" y="431.87" width="7.51" height="12.41"/><rect class="cls-22" x="1145.88" y="494.86" width="7.51" height="12.41"/><rect class="cls-22" x="1145.88" y="515.23" width="7.51" height="12.2"/><rect class="cls-12" x="1180.14" y="411.46" width="79.62" height="165.07"/><rect class="cls-13" x="1253.76" y="411.46" width="53.91" height="165.22"/><rect class="cls-19" x="1180.14" y="411.46" width="79.62" height="4.92"/><rect class="cls-20" x="1253.76" y="411.46" width="53.91" height="4.92"/><rect class="cls-21" x="1234.01" y="431.74" width="8.8" height="12.41"/><rect class="cls-21" x="1213.28" y="431.74" width="8.8" height="12.41"/><rect class="cls-21" x="1192.54" y="431.74" width="8.8" height="12.41"/><rect class="cls-21" x="1234.01" y="452.77" width="8.8" height="12.41"/><rect class="cls-21" x="1213.28" y="452.77" width="8.8" height="12.41"/><rect class="cls-21" x="1192.54" y="452.77" width="8.8" height="12.41"/><rect class="cls-21" x="1234.01" y="472.92" width="8.8" height="12.41"/><rect class="cls-21" x="1213.28" y="472.92" width="8.8" height="12.41"/><rect class="cls-21" x="1192.54" y="472.92" width="8.8" height="12.41"/><rect class="cls-21" x="1234.01" y="493.94" width="8.8" height="12.41"/><rect class="cls-21" x="1213.28" y="493.94" width="8.8" height="12.41"/><rect class="cls-21" x="1192.54" y="493.94" width="8.8" height="12.41"/><rect class="cls-22" x="1280.23" y="472.94" width="7.51" height="12.41"/><rect class="cls-22" x="1280.23" y="452.4" width="7.51" height="12.41"/><rect class="cls-22" x="1280.23" y="431.74" width="7.51" height="12.41"/><rect class="cls-22" x="1280.23" y="494.73" width="7.51" height="12.41"/><rect class="cls-22" x="1280.23" y="515.1" width="7.51" height="12.2"/><rect class="cls-12" x="1353.76" y="504.94" width="79.62" height="94.11"/><rect class="cls-13" x="1427.38" y="504.94" width="53.91" height="94.19"/><rect class="cls-19" x="1353.76" y="504.94" width="79.62" height="4.92"/><rect class="cls-20" x="1427.38" y="504.94" width="53.91" height="4.92"/><rect class="cls-21" x="1407.63" y="525.22" width="8.8" height="12.41"/><rect class="cls-21" x="1386.9" y="525.22" width="8.8" height="12.41"/><rect class="cls-21" x="1366.16" y="525.22" width="8.8" height="12.41"/><rect class="cls-21" x="1407.63" y="546.25" width="8.8" height="12.41"/><rect class="cls-21" x="1386.9" y="546.25" width="8.8" height="12.41"/><rect class="cls-21" x="1366.16" y="546.25" width="8.8" height="12.41"/><rect class="cls-21" x="1407.63" y="566.4" width="8.8" height="12.41"/><rect class="cls-21" x="1386.9" y="566.4" width="8.8" height="12.41"/><rect class="cls-21" x="1366.16" y="566.4" width="8.8" height="12.41"/><rect class="cls-22" x="1453.85" y="566.42" width="7.51" height="12.41"/><rect class="cls-22" x="1453.85" y="545.88" width="7.51" height="12.41"/><rect class="cls-22" x="1453.85" y="525.22" width="7.51" height="12.41"/><rect class="cls-12" x="39.66" y="505.35" width="79.62" height="94.11"/><rect class="cls-13" x="113.28" y="505.35" width="53.91" height="94.19"/><rect class="cls-19" x="39.66" y="505.35" width="79.62" height="4.92"/><rect class="cls-20" x="113.28" y="505.35" width="53.91" height="4.92"/><rect class="cls-21" x="93.53" y="525.63" width="8.8" height="12.41"/><rect class="cls-21" x="72.8" y="525.63" width="8.8" height="12.41"/><rect class="cls-21" x="52.06" y="525.63" width="8.8" height="12.41"/><rect class="cls-21" x="93.53" y="546.66" width="8.8" height="12.41"/><rect class="cls-21" x="72.8" y="546.66" width="8.8" height="12.41"/><rect class="cls-21" x="52.06" y="546.66" width="8.8" height="12.41"/><rect class="cls-21" x="93.53" y="566.81" width="8.8" height="12.41"/><rect class="cls-21" x="72.8" y="566.81" width="8.8" height="12.41"/><rect class="cls-21" x="52.06" y="566.81" width="8.8" height="12.41"/><rect class="cls-22" x="139.75" y="566.83" width="7.51" height="12.41"/><rect class="cls-22" x="139.75" y="546.3" width="7.51" height="12.41"/><rect class="cls-22" x="139.75" y="525.63" width="7.51" height="12.41"/><rect class="cls-13" x="741.6" y="386.96" width="61.49" height="36.89"/><rect class="cls-12" x="687.27" y="387.42" width="61.49" height="36.89"/><rect class="cls-12" x="648.54" y="402.32" width="218.53" height="174.33"/><rect class="cls-13" x="859" y="402.32" width="72.56" height="174.49"/><rect class="cls-19" x="648.54" y="402.32" width="218.53" height="6.62"/><rect class="cls-20" x="859" y="402.32" width="72.56" height="6.62"/><rect class="cls-21" x="656.6" y="421.8" width="16.06" height="11.39"/><rect class="cls-21" x="682.14" y="421.8" width="16.06" height="11.39"/><rect class="cls-21" x="707.68" y="421.8" width="16.06" height="11.39"/><rect class="cls-21" x="733.22" y="421.8" width="16.06" height="11.39"/><rect class="cls-21" x="758.76" y="421.8" width="16.06" height="11.39"/><rect class="cls-21" x="784.3" y="421.8" width="16.06" height="11.39"/><rect class="cls-21" x="809.84" y="421.8" width="16.06" height="11.39"/><rect class="cls-21" x="835.38" y="421.8" width="16.06" height="11.39"/><rect class="cls-21" x="656.6" y="441.96" width="16.06" height="11.39"/><rect class="cls-21" x="682.14" y="441.96" width="16.06" height="11.39"/><rect class="cls-21" x="707.68" y="441.96" width="16.06" height="11.39"/><rect class="cls-21" x="733.22" y="441.96" width="16.06" height="11.39"/><rect class="cls-21" x="758.76" y="441.96" width="16.06" height="11.39"/><rect class="cls-21" x="784.3" y="441.96" width="16.06" height="11.39"/><rect class="cls-21" x="809.84" y="441.96" width="16.06" height="11.39"/><rect class="cls-21" x="835.38" y="441.96" width="16.06" height="11.39"/><rect class="cls-21" x="656.6" y="462.12" width="16.06" height="11.39"/><rect class="cls-21" x="682.14" y="462.12" width="16.06" height="11.39"/><rect class="cls-21" x="707.68" y="462.12" width="16.06" height="11.39"/><rect class="cls-21" x="733.22" y="462.12" width="16.06" height="11.39"/><rect class="cls-21" x="758.76" y="462.12" width="16.06" height="11.39"/><rect class="cls-21" x="784.3" y="462.12" width="16.06" height="11.39"/><rect class="cls-21" x="809.84" y="462.12" width="16.06" height="11.39"/><rect class="cls-21" x="835.38" y="462.12" width="16.06" height="11.39"/><rect class="cls-21" x="656.6" y="482.28" width="16.06" height="11.39"/><rect class="cls-21" x="682.14" y="482.28" width="16.06" height="11.39"/><rect class="cls-21" x="707.68" y="482.28" width="16.06" height="11.39"/><rect class="cls-21" x="733.22" y="482.28" width="16.06" height="11.39"/><rect class="cls-21" x="758.76" y="482.28" width="16.06" height="11.39"/><rect class="cls-21" x="784.3" y="482.28" width="16.06" height="11.39"/><rect class="cls-21" x="809.84" y="482.28" width="16.06" height="11.39"/><rect class="cls-21" x="835.38" y="482.28" width="16.06" height="11.39"/><rect class="cls-21" x="656.6" y="502.44" width="16.06" height="11.39"/><rect class="cls-21" x="682.14" y="502.44" width="16.06" height="11.39"/><rect class="cls-21" x="707.68" y="502.44" width="16.06" height="11.39"/><rect class="cls-21" x="733.22" y="502.44" width="16.06" height="11.39"/><rect class="cls-21" x="758.76" y="502.44" width="16.06" height="11.39"/><rect class="cls-21" x="784.3" y="502.44" width="16.06" height="11.39"/><rect class="cls-21" x="809.84" y="502.44" width="16.06" height="11.39"/><rect class="cls-21" x="835.38" y="502.44" width="16.06" height="11.39"/><rect class="cls-21" x="656.6" y="522.6" width="16.06" height="11.39"/><rect class="cls-21" x="682.14" y="522.6" width="16.06" height="11.39"/><rect class="cls-21" x="707.68" y="522.6" width="16.06" height="11.39"/><rect class="cls-21" x="733.22" y="522.6" width="16.06" height="11.39"/><rect class="cls-21" x="758.76" y="522.6" width="16.06" height="11.39"/><rect class="cls-21" x="784.3" y="522.6" width="16.06" height="11.39"/><rect class="cls-21" x="809.84" y="522.6" width="16.06" height="11.39"/><rect class="cls-21" x="835.38" y="522.6" width="16.06" height="11.39"/><rect class="cls-21" x="656.6" y="542.76" width="16.06" height="11.39"/><rect class="cls-21" x="682.14" y="542.76" width="16.06" height="11.39"/><rect class="cls-21" x="707.68" y="542.76" width="16.06" height="11.39"/><rect class="cls-21" x="733.22" y="542.76" width="16.06" height="11.39"/><rect class="cls-21" x="758.76" y="542.76" width="16.06" height="11.39"/><rect class="cls-21" x="784.3" y="542.76" width="16.06" height="11.39"/><rect class="cls-21" x="809.84" y="542.76" width="16.06" height="11.39"/><rect class="cls-21" x="835.38" y="542.76" width="16.06" height="11.39"/><rect class="cls-22" x="894.63" y="485.07" width="10.11" height="16.7"/><rect class="cls-22" x="894.63" y="457.43" width="10.11" height="16.7"/><rect class="cls-22" x="894.63" y="429.62" width="10.11" height="16.7"/><rect class="cls-22" x="894.63" y="514.4" width="10.11" height="16.7"/><rect class="cls-13" x="513.88" y="362.74" width="68.71" height="17.44"/><path class="cls-23" d="M514.89,362.74H489l-.79,17.43h25.92Z"/><rect class="cls-13" x="499.62" y="375.71" width="135.56" height="201.25"/><path class="cls-23" d="M501.62,375.71H450.48L448.93,577h51.14Z"/><rect class="cls-19" x="450.62" y="374.07" width="51" height="8.2"/><rect class="cls-20" x="501.62" y="374.07" width="133.56" height="8.2"/><rect class="cls-21" x="468.72" y="399.86" width="10.08" height="15.35"/><rect class="cls-21" x="518.41" y="399.86" width="10.08" height="15.35"/><rect class="cls-21" x="538.12" y="399.86" width="10.08" height="15.35"/><rect class="cls-21" x="557.83" y="399.86" width="10.08" height="15.35"/><rect class="cls-21" x="577.55" y="399.86" width="10.08" height="15.35"/><rect class="cls-21" x="597.26" y="399.86" width="10.08" height="15.35"/><rect class="cls-21" x="616.97" y="399.86" width="10.08" height="15.35"/><rect class="cls-21" x="468.72" y="422.17" width="10.08" height="15.35"/><rect class="cls-21" x="518.41" y="422.17" width="10.08" height="15.35"/><rect class="cls-21" x="538.12" y="422.17" width="10.08" height="15.35"/><rect class="cls-21" x="557.83" y="422.17" width="10.08" height="15.35"/><rect class="cls-21" x="577.55" y="422.17" width="10.08" height="15.35"/><rect class="cls-21" x="597.26" y="422.17" width="10.08" height="15.35"/><rect class="cls-21" x="616.97" y="422.17" width="10.08" height="15.35"/><rect class="cls-21" x="468.72" y="444.54" width="10.08" height="15.35"/><rect class="cls-21" x="518.41" y="444.54" width="10.08" height="15.35"/><rect class="cls-21" x="538.12" y="444.54" width="10.08" height="15.35"/><rect class="cls-21" x="557.83" y="444.54" width="10.08" height="15.35"/><rect class="cls-21" x="577.55" y="444.54" width="10.08" height="15.35"/><rect class="cls-21" x="597.26" y="444.54" width="10.08" height="15.35"/><rect class="cls-21" x="616.97" y="444.54" width="10.08" height="15.35"/><rect class="cls-21" x="468.72" y="468.66" width="10.08" height="15.35"/><rect class="cls-21" x="518.41" y="468.66" width="10.08" height="15.35"/><rect class="cls-21" x="538.12" y="468.66" width="10.08" height="15.35"/><rect class="cls-21" x="557.83" y="468.66" width="10.08" height="15.35"/><rect class="cls-21" x="577.55" y="468.66" width="10.08" height="15.35"/><rect class="cls-21" x="597.26" y="468.66" width="10.08" height="15.35"/><rect class="cls-21" x="616.97" y="468.66" width="10.08" height="15.35"/><rect class="cls-21" x="468.72" y="492.29" width="10.08" height="15.35"/><rect class="cls-21" x="518.41" y="492.29" width="10.08" height="15.35"/><rect class="cls-21" x="538.12" y="492.29" width="10.08" height="15.35"/><rect class="cls-21" x="557.83" y="492.29" width="10.08" height="15.35"/><rect class="cls-21" x="577.55" y="492.29" width="10.08" height="15.35"/><rect class="cls-21" x="597.26" y="492.29" width="10.08" height="15.35"/><rect class="cls-21" x="616.97" y="492.29" width="10.08" height="15.35"/><rect class="cls-21" x="468.72" y="514.6" width="10.08" height="15.35"/><rect class="cls-21" x="518.41" y="514.6" width="10.08" height="15.35"/><rect class="cls-21" x="538.12" y="514.6" width="10.08" height="15.35"/><rect class="cls-21" x="557.83" y="514.6" width="10.08" height="15.35"/><rect class="cls-21" x="577.55" y="514.6" width="10.08" height="15.35"/><rect class="cls-21" x="597.26" y="514.6" width="10.08" height="15.35"/><rect class="cls-21" x="616.97" y="514.6" width="10.08" height="15.35"/><rect class="cls-21" x="468.72" y="536.69" width="10.08" height="15.35"/><rect class="cls-21" x="518.41" y="536.69" width="10.08" height="15.35"/><rect class="cls-21" x="538.12" y="536.69" width="10.08" height="15.35"/><rect class="cls-21" x="557.83" y="536.69" width="10.08" height="15.35"/><rect class="cls-21" x="577.55" y="536.69" width="10.08" height="15.35"/><rect class="cls-21" x="597.26" y="536.69" width="10.08" height="15.35"/><rect class="cls-21" x="616.97" y="536.69" width="10.08" height="15.35"/><rect class="cls-19" x="1204.37" y="463.44" width="81.81" height="133.1"/><rect class="cls-20" x="1280.03" y="463.44" width="55.4" height="133.22"/><rect class="cls-20" x="1204.38" y="463.44" width="81.81" height="5.05"/><rect class="cls-24" x="1280.03" y="463.44" width="55.4" height="5.05"/><rect class="cls-25" x="1259.73" y="484.28" width="9.05" height="12.75"/><rect class="cls-25" x="1238.43" y="484.28" width="9.05" height="12.75"/><rect class="cls-25" x="1217.12" y="484.28" width="9.05" height="12.75"/><rect class="cls-25" x="1259.73" y="505.89" width="9.05" height="12.75"/><rect class="cls-25" x="1238.43" y="505.89" width="9.05" height="12.75"/><rect class="cls-25" x="1217.12" y="505.89" width="9.05" height="12.75"/><rect class="cls-25" x="1259.73" y="526.59" width="9.05" height="12.75"/><rect class="cls-25" x="1238.43" y="526.59" width="9.05" height="12.75"/><rect class="cls-25" x="1217.12" y="526.59" width="9.05" height="12.75"/><rect class="cls-25" x="1259.73" y="548.2" width="9.05" height="12.75"/><rect class="cls-25" x="1238.43" y="548.2" width="9.05" height="12.75"/><rect class="cls-25" x="1217.12" y="548.2" width="9.05" height="12.75"/><rect class="cls-26" x="1307.23" y="526.62" width="7.72" height="12.75"/><rect class="cls-26" x="1307.23" y="505.51" width="7.72" height="12.75"/><rect class="cls-26" x="1307.23" y="484.28" width="7.72" height="12.75"/><rect class="cls-26" x="1307.23" y="549.01" width="7.72" height="12.75"/><rect class="cls-26" x="1303.37" y="574.54" width="15.44" height="22.12"/><rect class="cls-20" x="955.73" y="451.43" width="85.67" height="146.67"/><rect class="cls-19" x="911.71" y="451.43" width="65.96" height="148.44"/><rect class="cls-25" x="934.72" y="466.4" width="35.76" height="12.03"/><rect class="cls-26" x="997.47" y="466.4" width="10.97" height="12.03"/><rect class="cls-25" x="934.72" y="486.94" width="35.76" height="12.03"/><rect class="cls-26" x="997.47" y="486.94" width="10.97" height="12.03"/><rect class="cls-25" x="934.72" y="506.17" width="35.76" height="12.03"/><rect class="cls-26" x="997.47" y="506.17" width="10.97" height="12.03"/><rect class="cls-25" x="934.72" y="524.49" width="35.76" height="12.03"/><rect class="cls-26" x="997.47" y="524.49" width="10.97" height="12.03"/><rect class="cls-25" x="934.72" y="543.89" width="35.76" height="12.03"/><rect class="cls-26" x="997.47" y="543.89" width="10.97" height="12.03"/><rect class="cls-24" x="977.66" y="447.19" width="63.73" height="7.01"/><rect class="cls-20" x="911.71" y="447.19" width="65.96" height="7.01"/><rect class="cls-20" x="618.34" y="451.43" width="85.67" height="146.67"/><rect class="cls-19" x="574.32" y="451.43" width="65.96" height="148.44"/><rect class="cls-25" x="597.33" y="466.4" width="35.76" height="12.03"/><rect class="cls-26" x="660.08" y="466.4" width="10.97" height="12.03"/><rect class="cls-25" x="597.33" y="486.94" width="35.76" height="12.03"/><rect class="cls-26" x="660.08" y="486.94" width="10.97" height="12.03"/><rect class="cls-25" x="597.33" y="506.17" width="35.76" height="12.03"/><rect class="cls-26" x="660.08" y="506.17" width="10.97" height="12.03"/><rect class="cls-25" x="597.33" y="524.49" width="35.76" height="12.03"/><rect class="cls-26" x="660.08" y="524.49" width="10.97" height="12.03"/><rect class="cls-25" x="597.33" y="543.89" width="35.76" height="12.03"/><rect class="cls-26" x="660.08" y="543.89" width="10.97" height="12.03"/><rect class="cls-24" x="640.27" y="447.19" width="63.73" height="7.01"/><rect class="cls-20" x="574.32" y="447.19" width="65.96" height="7.01"/><rect class="cls-20" x="819.71" y="495.91" width="100.93" height="99.65"/><rect class="cls-26" x="860.19" y="514.11" width="10.91" height="22.69"/><rect class="cls-26" x="882.66" y="514.11" width="10.91" height="22.69"/><rect class="cls-19" x="778.25" y="495.91" width="43.13" height="99.65"/><rect class="cls-25" x="785.55" y="514.11" width="28.14" height="11.34"/><rect class="cls-20" x="770.89" y="492.94" width="50.48" height="5.94"/><rect class="cls-24" x="821.37" y="492.94" width="99.26" height="5.94"/><g id="front-row"><rect class="cls-20" x="461.15" y="481.83" width="49" height="33.17"/><rect class="cls-19" x="388.69" y="481.83" width="82.17" height="33.17"/><rect class="cls-20" x="465.86" y="513.01" width="62.63" height="82.1"/><rect class="cls-19" x="373.26" y="513.02" width="105.02" height="82.1"/><rect class="cls-24" x="468.75" y="478.64" width="41.39" height="6.38"/><rect class="cls-20" x="388.69" y="478.64" width="82.17" height="6.38"/><rect class="cls-25" x="380.58" y="532.58" width="60.45" height="9.21"/><rect class="cls-26" x="486.14" y="527.47" width="7.98" height="9.72"/><rect class="cls-26" x="396.91" y="493.56" width="7.98" height="9.72"/><rect class="cls-26" x="502.16" y="527.73" width="7.98" height="9.72"/><rect class="cls-26" x="486.14" y="544.35" width="7.98" height="9.72"/><rect class="cls-24" x="475.59" y="509.83" width="52.9" height="6.38"/><rect class="cls-20" x="373.26" y="509.83" width="105.02" height="6.38"/></g><g id="front-row1"><rect class="cls-20" x="1147.88" y="526.27" width="55.27" height="61.68"/><rect class="cls-19" x="1066.15" y="526.28" width="92.68" height="61.68"/><rect class="cls-24" x="1156.46" y="526.27" width="46.69" height="9.39"/><rect class="cls-20" x="1066.15" y="526.27" width="92.68" height="9.39"/></g><g id="front-row2"><rect class="cls-20" x="1393.34" y="541.95" width="48.37" height="53.98"/><rect class="cls-19" x="1321.81" y="541.96" width="81.12" height="53.98"/><rect class="cls-24" x="1400.85" y="541.95" width="40.86" height="8.22"/><rect class="cls-20" x="1321.8" y="541.95" width="81.12" height="8.22"/></g><rect class="cls-27" x="224.98" y="501.81" width="109.63" height="92.4"/><rect class="cls-26" x="244.54" y="518.68" width="11.86" height="5.25"/><rect class="cls-26" x="268.95" y="518.68" width="11.86" height="5.25"/><rect class="cls-28" x="179.94" y="501.81" width="46.85" height="92.4"/><rect class="cls-26" x="187.87" y="518.68" width="6.88" height="5.25"/><path class="cls-29" d="M366.43,545l.42-3.91s-46.45.14-81,.14l-42,17.64,101.67-1.51Z"/><rect class="cls-27" x="286.1" y="544.97" width="78.16" height="49.26"/><path class="cls-30" d="M286.1,545,252,558.85l-.75,35.37H286.1Z"/><rect class="cls-26" x="276.99" y="557.93" width="5.42" height="11.66"/><rect class="cls-28" x="260.69" y="574.91" width="10.62" height="19.32"/><g id="trees"><path class="cls-31" d="M1200.29,504.88c2-4.69,7.5-4.21,9.85-1.65,6.56,7.18,11.39,58.26,10.88,63.15-.86,8.29-3.52,10.38-7.6,12.27-2.25,1-9.16,1.72-13.82.51-3.51-.91-7.08-5.87-7.95-11.74C1190.44,559.3,1192.34,524,1200.29,504.88Z"/><path class="cls-32" d="M1203.05,598.69c0-.22.52-28.16.52-28.16l-4.66-3.8v-1.21l5.18,3.11.52-26.26h.86l1,9.15,3.45-1.38.18.86-2.6,1.9.18,17.11,4-1.38.17,1.38-4,2.59v26.09S1203.05,598.9,1203.05,598.69Z"/><path class="cls-31" d="M1333.64,507.15c1.95-4.69,7.5-4.21,9.84-1.65,6.57,7.18,11.4,58.27,10.89,63.15-.87,8.3-3.52,10.39-7.6,12.27-2.25,1-9.16,1.73-13.82.52-3.52-.91-7.08-5.88-8-11.75C1323.79,561.57,1325.69,526.25,1333.64,507.15Z"/><path class="cls-32" d="M1336.4,601c0-.22.52-28.16.52-28.16l-4.67-3.8v-1.21l5.19,3.11.52-26.26h.86l1,9.16,3.45-1.39.17.87-2.59,1.9.18,17.1,4-1.38.17,1.38-4,2.59V601S1336.4,601.17,1336.4,601Z"/><path class="cls-33" d="M375.7,571.44a15.39,15.39,0,0,1,11.73-5.52,15.94,15.94,0,0,1,15.27,12.45,14.29,14.29,0,0,1,13.94,14.36c0,7.92-63.39,5.37-63.39-1.48,0-5.79,5.6-10.67,13.16-12a8.57,8.57,0,0,1,8.29-7.84A8.26,8.26,0,0,1,375.7,571.44Z"/><path class="cls-33" d="M1194,567.43a17,17,0,0,0-12.47-7.5c-8.15-.72-15.54,4.76-18.21,12.82-8.59-.59-16.14,6.13-16.94,15.15s69.83,12.4,70.53,4.52c.59-6.67-5.14-12.82-13.4-15.13-.09-5.13-3.66-9.41-8.4-9.83A6.92,6.92,0,0,0,1194,567.43Z"/><path class="cls-33" d="M1316.41,571.15a16.92,16.92,0,0,0-12.46-7.5c-8.15-.72-15.54,4.76-18.21,12.83-8.59-.6-16.14,6.13-16.94,15.14s69.83,12.4,70.53,4.52c.59-6.66-5.14-12.81-13.4-15.13-.1-5.13-3.66-9.41-8.4-9.83A10.54,10.54,0,0,0,1316.41,571.15Z"/><path class="cls-33" d="M1450.23,567a16.89,16.89,0,0,1,12.46-7.5c8.15-.72,22.53,6.45,20.38,15.47,13.21-1.62,17,6.68,17,16.15,0,0-69.84,11.4-70.54,3.51-.59-6.66,5.14-12.81,13.4-15.12.1-5.13,1.5-12.07,6.24-12.49A10.28,10.28,0,0,1,1450.23,567Z"/><path class="cls-34" d="M1277.37,573.5a1.27,1.27,0,0,0-1.26-1.27H1255.7a1.27,1.27,0,0,0-1.27,1.27v14.79a1.27,1.27,0,0,0,1.27,1.26h20.41a1.27,1.27,0,0,0,1.26-1.26Z"/><path class="cls-34" d="M1260.76,582.47a2.36,2.36,0,0,0-2.36-2.36h-6.91a2.36,2.36,0,0,0-2.36,2.36v4.72a2.36,2.36,0,0,0,2.36,2.36h6.91a2.36,2.36,0,0,0,2.36-2.36Z"/><path class="cls-34" d="M1278,588.08a.49.49,0,0,0-.47-.49h-28.7a.49.49,0,0,0-.49.49v1a.49.49,0,0,0,.49.49h28.7a.49.49,0,0,0,.47-.49Z"/><ellipse class="cls-35" cx="1272.12" cy="590.25" rx="2.68" ry="2.66"/><ellipse class="cls-35" cx="1253.57" cy="590.25" rx="2.68" ry="2.66"/><g id="yellow-tree"><path class="cls-36" d="M1183.78,519.41c5.18.47,8,12.12,12.28,19.85a37.18,37.18,0,0,1,4.42,20c-.68,14.58-5.16,20.16-17.7,19.33-14.35-.95-17-11.86-17.48-22s4.07-15.39,5.64-20.59C1173.43,527.7,1180.15,519.08,1183.78,519.41Z"/><path class="cls-37" d="M1182.61,592.94a75,75,0,0,1,.46-10.05c.7-7.69,1.41-9.85,1-9.82a24.89,24.89,0,0,1-5.87-4.2,16.78,16.78,0,0,1-4.33-7.84c2,2.23,3.52,5,6.2,6.58a7,7,0,0,0,4.46,1.28s-1.24-7.56-2.69-15.11c-1.53-8-.85-15-.69-15.12s3.9,21.25,5.66,20.08c2-1.34,7.07-13.3,7.07-13.3a41.27,41.27,0,0,1-1.9,8.89c-.93,2.51-3.31,5.89-4.81,8.1,0,0,.61,11.08.28,21.68a48,48,0,0,0,.54,8.55,12.59,12.59,0,0,1-2.34.55A24.54,24.54,0,0,1,1182.61,592.94Z"/></g><g id="yellow-tree1"><path class="cls-36" d="M1054.28,496.92c5.18.47,8,12.11,12.28,19.85a37.18,37.18,0,0,1,4.42,20c-.68,14.58-5.16,20.16-17.7,19.33-14.35-.95-17-11.86-17.48-22s4.07-15.39,5.64-20.59C1043.93,505.2,1050.65,496.59,1054.28,496.92Z"/><path class="cls-37" d="M1053.11,570.44a72.61,72.61,0,0,1,.46-10c.7-7.7,1.41-9.85,1-9.83a24.32,24.32,0,0,1-5.87-4.19,16.86,16.86,0,0,1-4.34-7.85c2,2.24,3.53,5,6.21,6.59a7,7,0,0,0,4.46,1.28s-1.24-7.56-2.69-15.11a49.11,49.11,0,0,1-.7-15.13c.28-.17,3.91,21.25,5.67,20.09,2-1.34,7.07-13.3,7.07-13.3a40.92,40.92,0,0,1-1.91,8.89c-.92,2.51-3.31,5.89-4.81,8.1,0,0,.62,11.08.29,21.68a48.59,48.59,0,0,0,.53,8.55,12.42,12.42,0,0,1-2.33.55A24,24,0,0,1,1053.11,570.44Z"/></g><g id="yellow-tree2"><path class="cls-36" d="M1359.55,521.68c5.18.48,8,12.12,12.29,19.86a37.21,37.21,0,0,1,4.41,19.94c-.68,14.59-5.16,20.17-17.69,19.33-14.35-.95-17-11.85-17.49-22s4.08-15.38,5.65-20.58C1349.2,530,1355.93,521.35,1359.55,521.68Z"/><path class="cls-37" d="M1358.38,595.21a74.4,74.4,0,0,1,.47-10.05c.7-7.69,1.4-9.85,1-9.82a24.54,24.54,0,0,1-5.87-4.2,16.74,16.74,0,0,1-4.33-7.84c2,2.23,3.53,5,6.2,6.58a7,7,0,0,0,4.47,1.28s-1.25-7.55-2.7-15.11a49.22,49.22,0,0,1-.69-15.12c.28-.18,3.9,21.25,5.66,20.08,2-1.34,7.08-13.3,7.08-13.3a41.48,41.48,0,0,1-1.91,8.89c-.93,2.51-3.31,5.89-4.81,8.11,0,0,.61,11.08.28,21.67a48,48,0,0,0,.54,8.55,12.59,12.59,0,0,1-2.34.55A22.84,22.84,0,0,1,1358.38,595.21Z"/></g><path class="cls-33" d="M159.56,565c-3-3.71-5.75-5.62-10.77-5.55-7.9.1-12.08,3.89-15.25,10.54-8.31-.15-21.74,11.43-22,19.76s69.79,6.16,72.88-.45c2.6-5.56-7-14-15.12-15.69a9.16,9.16,0,0,0-8.63-8.64A9.74,9.74,0,0,0,159.56,565Z"/><path class="cls-33" d="M50.66,565.79c-3-3.71-5.76-5.61-10.78-5.54a20.12,20.12,0,0,0-17.83,11.51c-23.39-.71-22,19.86-22,19.86s65.92,2.21,73,.4c8.81-2.27,3.05-25.44-12.62-17.61a9.2,9.2,0,0,0-8.64-8.65A9.49,9.49,0,0,0,50.66,565.79Z"/><g id="yellow-tree3"><path class="cls-36" d="M172.39,521.64c5.18.47,8,12.11,12.28,19.85a37.15,37.15,0,0,1,4.42,20c-.68,14.58-5.16,20.16-17.7,19.33-14.34-.95-16.95-11.86-17.48-22s4.07-15.39,5.64-20.59C162,529.92,168.77,521.3,172.39,521.64Z"/><path class="cls-37" d="M171.22,595.16a74.89,74.89,0,0,1,.46-10c.7-7.7,1.41-9.86,1-9.83a24.2,24.2,0,0,1-5.87-4.2,16.74,16.74,0,0,1-4.33-7.84c2,2.24,3.53,5,6.2,6.59a7,7,0,0,0,4.46,1.28s-1.24-7.56-2.69-15.11c-1.53-8-.85-15-.69-15.13s3.9,21.25,5.66,20.08c2-1.33,7.07-13.3,7.07-13.3a41.3,41.3,0,0,1-1.9,8.9c-.93,2.51-3.31,5.88-4.81,8.1,0,0,.61,11.08.28,21.68a48,48,0,0,0,.54,8.55,13.49,13.49,0,0,1-2.34.55A24,24,0,0,1,171.22,595.16Z"/></g><path class="cls-31" d="M758.88,479.89c2.51-5.2,9.64-4.67,12.65-1.83,8.43,7.95,14.63,64.57,14,70-1.11,9.19-4.53,11.51-9.77,13.6-2.88,1.15-11.76,1.91-17.75.57-4.51-1-9.08-6.51-10.2-13C746.23,540.2,748.67,501.05,758.88,479.89Z"/><path class="cls-32" d="M762.43,583.85c0-.24.67-31.21.67-31.21l-6-4.21v-1.34l6.66,3.44.67-29.1h1.11l1.33,10.15,4.44-1.53.22,1-3.33,2.1.22,19,5.1-1.54.23,1.54-5.11,2.87v28.91S762.42,584.09,762.43,583.85Z"/><g id="yellow-tree4"><path class="cls-36" d="M737.67,496c6.66.53,10.21,13.43,15.78,22a36.74,36.74,0,0,1,5.67,22.11c-.87,16.16-6.62,22.35-22.73,21.42-18.42-1-21.77-13.14-22.45-24.41s5.23-17.06,7.25-22.82C724.38,505.17,733,495.62,737.67,496Z"/><path class="cls-37" d="M736.17,577.48a70.39,70.39,0,0,1,.6-11.14c.9-8.52,1.8-10.92,1.27-10.88a31.89,31.89,0,0,1-7.54-4.66,17.77,17.77,0,0,1-5.57-8.69c2.6,2.48,4.53,5.5,8,7.3a10.1,10.1,0,0,0,5.73,1.42s-1.6-8.38-3.46-16.75c-2-8.9-1.09-16.65-.89-16.76.36-.19,5,23.55,7.27,22.26,2.6-1.49,9.09-14.74,9.09-14.74a40,40,0,0,1-2.45,9.85c-1.19,2.78-4.25,6.53-6.18,9,0,0,.79,12.28.36,24a46.24,46.24,0,0,0,.69,9.48,18.78,18.78,0,0,1-3,.61A35,35,0,0,1,736.17,577.48Z"/></g><g id="yellow-tree5"><path class="cls-36" d="M841.63,509.65c6.66.53,10.22,13.43,15.78,22a36.76,36.76,0,0,1,5.67,22.11c-.87,16.16-6.62,22.35-22.72,21.42-18.43-1-21.78-13.14-22.46-24.41s5.23-17,7.25-22.82C828.34,518.84,837,509.28,841.63,509.65Z"/><path class="cls-32" d="M840.14,591.14a69.19,69.19,0,0,1,.59-11.14c.9-8.52,1.8-10.91,1.27-10.88a32.11,32.11,0,0,1-7.54-4.66,17.86,17.86,0,0,1-5.57-8.69c2.6,2.48,4.53,5.5,8,7.3a10.1,10.1,0,0,0,5.73,1.42s-1.6-8.38-3.45-16.75c-2-8.9-1.1-16.65-.9-16.76.36-.19,5,23.55,7.28,22.26,2.59-1.48,9.08-14.74,9.08-14.74a40,40,0,0,1-2.45,9.85c-1.19,2.79-4.25,6.53-6.18,9,0,0,.79,12.28.37,24a46.24,46.24,0,0,0,.69,9.48,19,19,0,0,1-3,.61A34.93,34.93,0,0,1,840.14,591.14Z"/></g><path class="cls-31" d="M429.81,498.12c1.95-4.69,7.5-4.21,9.84-1.65,6.57,7.18,11.4,58.27,10.89,63.15-.87,8.3-3.52,10.39-7.6,12.27-2.25,1-9.16,1.73-13.83.52-3.51-.91-7.07-5.88-7.94-11.75C420,552.54,421.86,517.22,429.81,498.12Z"/><path class="cls-32" d="M432.57,591.93c0-.22.52-28.16.52-28.16l-4.67-3.8v-1.21l5.19,3.11.51-26.26H435l1,9.16,3.46-1.39.17.87-2.59,1.9.17,17.1,4-1.38.17,1.38-4,2.59v26.09S432.56,592.15,432.57,591.93Z"/><g id="yellow-tree6"><path class="cls-36" d="M414.72,518.12c5.18.47,7.95,12.11,12.28,19.85a37.18,37.18,0,0,1,4.42,19.95c-.68,14.58-5.16,20.16-17.7,19.33-14.35-1-17-11.86-17.48-22s4.07-15.39,5.64-20.59C404.37,526.4,411.09,517.79,414.72,518.12Z"/><path class="cls-32" d="M413.55,591.64a72.61,72.61,0,0,1,.46-10c.7-7.7,1.41-9.85,1-9.83a24.32,24.32,0,0,1-5.87-4.19,16.86,16.86,0,0,1-4.34-7.85c2,2.24,3.53,5,6.21,6.59a7,7,0,0,0,4.46,1.28s-1.25-7.56-2.69-15.11a49.11,49.11,0,0,1-.7-15.13c.28-.17,3.91,21.25,5.67,20.09,2-1.34,7.07-13.3,7.07-13.3A40.92,40.92,0,0,1,422.9,553c-.92,2.51-3.31,5.89-4.81,8.1,0,0,.62,11.08.29,21.68a47.48,47.48,0,0,0,.53,8.55,12.42,12.42,0,0,1-2.33.55A24,24,0,0,1,413.55,591.64Z"/></g><ellipse class="cls-38" cx="78.57" cy="590.81" rx="17.71" ry="8.24"/></g><path class="cls-30" d="M1156.53,578.92h-89.38v21.45h89.38Zm21.09,5.17h-15.35v15.74h15.35Zm-287.27-5.17H834.1v18.29h56.25Zm-282-7.95h43.76v24.59H450.62V571h8.48v-7.76h8v-7h13.94v7h24.17v-14.6H608.37ZM1033,566.46h-16.56v7.16H1033Z"/><rect class="cls-28" x="618.12" y="544.56" width="136.38" height="49.35"/><rect class="cls-27" x="662.62" y="560.4" width="81.05" height="33.5"/><rect class="cls-39" x="667.06" y="563.94" width="71.06" height="29.96"/><path class="cls-29" d="M738.12,591h-71v1.11h71Zm0-2.81h-71v1.12h71Zm0-2.8h-71v1.12h71Zm0-2.8h-71v1.12h71Zm0-2.8h-71v1.12h71Zm0-2.8h-71v1.12h71Zm0-2.8h-71v1.12h71Zm0-2.8h-71v1.12h71Zm0-2.8h-71v1.12h71Zm0-2.8h-71v1.12h71Z"/><rect class="cls-26" x="625.49" y="560.4" width="26.64" height="6.06"/><rect class="cls-27" x="618.12" y="541.95" width="136.38" height="5.2"/><rect class="cls-28" x="1036.17" y="544.73" width="86.33" height="52.49"/><rect class="cls-27" x="1036.17" y="541.96" width="86.33" height="5.53"/><rect class="cls-28" x="913.78" y="546.3" width="78.16" height="49.26"/><rect class="cls-26" x="979.04" y="559.27" width="5.42" height="11.66"/><path class="cls-29" d="M913.78,546.3,879.7,560.18,879,595.56h34.83Z"/><rect class="cls-26" x="903.11" y="582.63" width="5.94" height="5.83"/><rect class="cls-28" x="989.45" y="570.93" width="53.86" height="24.63"/><rect class="cls-28" x="751.09" y="556.2" width="83.01" height="45.46"/><rect class="cls-26" x="819.13" y="566.86" width="6.7" height="5.71"/><rect class="cls-26" x="819.13" y="578.93" width="6.7" height="5.71"/><rect class="cls-27" x="751.09" y="556.19" width="83.01" height="5.53"/></g><g id="front-line"><rect class="cls-40" x="0.01" y="589.94" width="1500" height="18.8"/></g></g></g></svg>