<svg xmlns="http://www.w3.org/2000/svg" viewBox="0 0 1500.08 608.74"><defs><style>.cls-1{fill:#dae3f2;}.cls-1,.cls-19,.cls-2,.cls-28,.cls-3,.cls-32,.cls-33,.cls-34,.cls-35,.cls-36,.cls-37,.cls-38,.cls-40,.cls-44,.cls-47,.cls-7{fill-rule:evenodd;}.cls-2{fill:#eef2f8;}.cls-3{fill:#a8c8dc;}.cls-4,.cls-7{fill:#8fc6d5;}.cls-5{fill:#a1d0dc;}.cls-6{fill:#bbe0e5;}.cls-8{fill:#89c2d2;}.cls-9{fill:#67b1c6;}.cls-10{fill:#84c8d1;}.cls-11{fill:#a1d5dc;}.cls-12{fill:#28849f;}.cls-13{fill:#68b2bc;}.cls-14{fill:#5aa6b0;}.cls-15{fill:#836a47;}.cls-16{fill:#a68557;}.cls-17{fill:#41a6c4;}.cls-18,.cls-19{fill:#2b8fac;}.cls-20{fill:#23738b;}.cls-21{fill:#3695b2;}.cls-22{fill:#01587e;}.cls-23,.cls-33{fill:#015478;}.cls-24{fill:#01354b;}.cls-25{fill:#76bfc8;}.cls-26{fill:#2486a3;}.cls-27,.cls-28{fill:#4aa5c0;}.cls-29,.cls-32{fill:#012636;}.cls-30{fill:#87afab;}.cls-31,.cls-47{fill:#6d9e9a;}.cls-34{fill:#625e1f;}.cls-35{fill:#552c16;}.cls-36,.cls-39{fill:#474413;}.cls-37{fill:#756d24;}.cls-38{fill:#6f3e19;}.cls-40,.cls-41{fill:#3a002d;}.cls-42,.cls-44{fill:#310225;}.cls-43{fill:#62375a;}.cls-45{fill:#8fa8b1;}.cls-46{fill:#0c0109;}.cls-48{fill:#1f0017;}</style></defs><g id="Layer_2" data-name="Layer 2"><g id="Layer_1-2" data-name="Layer 1"><g id="clouds11"><g id="big-cloud"><path class="cls-1" d="M1210.42,117.78C1190.17,50,1121.68,0,1040.39,0c-66.92,0-105.22,27.44-135,77.27-6.66-2.59-27.16-5.28-53.33,4.16-34.66,12.5-55.32,34-55.32,78,0,13.38-.13,16.58,4.81,27.65-113.19-46.58-195.19,9.27-224.86,51.32-13.46,19.07-14.05,46-12.14,49.9-39.77-52.33-157.27-8.59-147.88,60.53.49,3.7,15.46,15.85,11.66,16.74-14.76,3.53-129.55,6.44-286,24.31-44,5-77.39,17.28-102,44.06C17,459.31-2.65,490.67,19.79,532.42c18.32,34.13,46.06,32.08,58.59,32,231.22-2.19,1322.44-9.21,1357.66-22,65.41-23.82,47.66-117.9,26.52-143.24-16-19.21-51.68-48.87-112.67-50.94-6.55-.23-13,1.46-8.26-1.84,24-16.71,19.06-127.07-53.31-107.18-.86.23,0-.83,0-.83C1288,181.75,1255.32,133.89,1210.42,117.78Z"/></g><g id="big-cloud1"><path class="cls-2" d="M1164.58,131.59c-13.09-41.8-57.39-72.59-110-72.59-43.28,0-68,16.91-87.31,47.62-4.3-1.59-17.56-3.25-34.49,2.57-22.41,7.7-35.77,21-35.77,48.08,0,8.24-.08,10.22,3.11,17C827,145.6,773.93,180,754.75,205.94c-8.71,11.75-9.09,28.33-7.86,30.76-27.56-24.09-80.32-13.15-74.26,29.47.33,2.28,6.43,21,4,21.54-9.55,2.17,1.25-19-98.57-11.37-35.9,2.72-84.86,22.28-97,43.32C476,328.41,475.27,338,479,356c1.51,7.28,5.32,11.48,13.43,11.41,149.52-1.35,777.83,4.73,801.93,2.27,55-5.62,45.56-72.82,31.89-88.44-10.36-11.84-21.76-26-61.2-27.3-4.23-.12-8.41.91-5.34-1.12,15.54-10.29,2-58.68-44.79-46.42-.55.15,0-.51,0-.51C1214.76,171,1193.61,141.52,1164.58,131.59Z"/></g></g><path class="cls-3" d="M204.41,597H150v1.83H71.75V505.57h28V472.38h8V459.13h12.88v13.25H150V412.75h54.38v-9.4h21.81v9.4h5.2v12.72h92.84V339.39h84.9V488.31H529.35V460.49H456.21V286h73.14V244h5.08v-5.73h34.91V244H579v62.34h33.46V258.61h14.79V244h65.06v14.63h13.8v33.27h53.65V488.31H839V242.47H984.15V488.31H1285V313.54h26.52v-10h14.38v10h6.29v-10h6.4v10h30.62V461.13h37.6v-8.59h21.75v8.59h15.84v53.2h19l.45,31.33,11.44,5.36s.41,28.59.41,44.81l-54.88,1.2v1.83H204.41Z"/><g id="_05" data-name=" 05"><rect class="cls-4" x="1114.87" y="174.29" width="46.82" height="18.97"/><rect class="cls-5" x="1067.15" y="174.33" width="49.05" height="18.97"/><rect class="cls-4" x="1116.64" y="183.42" width="59.13" height="190.53"/><rect class="cls-5" x="1056.47" y="183.32" width="61.89" height="190.94"/><rect class="cls-6" x="1056.47" y="200.96" width="61.89" height="9.21"/><rect class="cls-6" x="1056.57" y="245.03" width="61.89" height="9.21"/><rect class="cls-6" x="1056.58" y="295.12" width="62.35" height="9.21"/><rect class="cls-6" x="1118.36" y="200.96" width="57.41" height="9.21"/><rect class="cls-6" x="1117.11" y="245.03" width="57.41" height="9.21"/><rect class="cls-6" x="1117.11" y="295.12" width="57.41" height="9.21"/><rect class="cls-5" x="812.76" y="197.42" width="60.99" height="19.45"/><rect class="cls-4" x="873.75" y="197.42" width="30.65" height="17.52"/><rect class="cls-5" x="794.78" y="212.39" width="89.33" height="211.1"/><path class="cls-7" d="M883,212.39h39.45l-.15,211.1H883Z"/><rect class="cls-8" x="794.78" y="212.39" width="88.24" height="7.37"/><rect class="cls-9" x="883.01" y="212.39" width="39.39" height="7.37"/><rect class="cls-6" x="913.1" y="227.85" width="6.06" height="9.84"/><rect class="cls-6" x="834.18" y="227.85" width="10.52" height="9.84"/><rect class="cls-6" x="851.65" y="227.85" width="10.52" height="9.84"/><rect class="cls-6" x="869.13" y="227.85" width="10.52" height="9.84"/><rect class="cls-6" x="816.71" y="227.85" width="10.52" height="9.84"/><rect class="cls-6" x="799.23" y="227.85" width="10.52" height="9.84"/><rect class="cls-6" x="912.92" y="242.65" width="6.06" height="9.84"/><rect class="cls-6" x="833.99" y="242.65" width="10.52" height="9.84"/><rect class="cls-6" x="851.47" y="242.65" width="10.52" height="9.84"/><rect class="cls-6" x="868.94" y="242.65" width="10.52" height="9.84"/><rect class="cls-6" x="816.52" y="242.65" width="10.52" height="9.84"/><rect class="cls-6" x="799.05" y="242.65" width="10.52" height="9.84"/><rect class="cls-6" x="912.92" y="258.35" width="6.06" height="9.84"/><rect class="cls-6" x="833.99" y="258.35" width="10.52" height="9.84"/><rect class="cls-6" x="851.47" y="258.35" width="10.52" height="9.84"/><rect class="cls-6" x="868.94" y="258.35" width="10.52" height="9.84"/><rect class="cls-6" x="816.52" y="258.35" width="10.52" height="9.84"/><rect class="cls-6" x="799.05" y="258.35" width="10.52" height="9.84"/><rect class="cls-6" x="913.1" y="274.4" width="6.06" height="9.84"/><rect class="cls-6" x="834.18" y="274.4" width="10.52" height="9.84"/><rect class="cls-6" x="851.65" y="274.4" width="10.52" height="9.84"/><rect class="cls-6" x="869.13" y="274.4" width="10.52" height="9.84"/><rect class="cls-6" x="816.71" y="274.4" width="10.52" height="9.84"/><rect class="cls-6" x="799.23" y="274.4" width="10.52" height="9.84"/><rect class="cls-6" x="913.1" y="289.74" width="6.06" height="9.84"/><rect class="cls-6" x="834.18" y="289.74" width="10.52" height="9.84"/><rect class="cls-6" x="851.65" y="289.74" width="10.52" height="9.84"/><rect class="cls-6" x="869.13" y="289.74" width="10.52" height="9.84"/><rect class="cls-6" x="816.71" y="289.74" width="10.52" height="9.84"/><rect class="cls-6" x="799.23" y="289.74" width="10.52" height="9.84"/><rect class="cls-6" x="912.92" y="304.54" width="6.06" height="9.84"/><rect class="cls-6" x="833.99" y="304.54" width="10.52" height="9.84"/><rect class="cls-6" x="851.47" y="304.54" width="10.52" height="9.84"/><rect class="cls-6" x="868.94" y="304.54" width="10.52" height="9.84"/><rect class="cls-6" x="816.52" y="304.54" width="10.52" height="9.84"/><rect class="cls-6" x="799.05" y="304.54" width="10.52" height="9.84"/><rect class="cls-6" x="912.92" y="320.25" width="6.06" height="9.84"/><rect class="cls-6" x="833.99" y="320.24" width="10.52" height="9.84"/><rect class="cls-6" x="851.47" y="320.24" width="10.52" height="9.84"/><rect class="cls-6" x="868.94" y="320.24" width="10.52" height="9.84"/><rect class="cls-6" x="816.52" y="320.24" width="10.52" height="9.84"/><rect class="cls-6" x="799.05" y="320.24" width="10.52" height="9.84"/><rect class="cls-6" x="913.1" y="336.29" width="6.06" height="9.84"/><rect class="cls-6" x="834.18" y="336.29" width="10.52" height="9.84"/><rect class="cls-6" x="851.65" y="336.29" width="10.52" height="9.84"/><rect class="cls-6" x="869.13" y="336.29" width="10.52" height="9.84"/><rect class="cls-6" x="816.71" y="336.29" width="10.52" height="9.84"/><rect class="cls-6" x="799.23" y="336.29" width="10.52" height="9.84"/><rect class="cls-6" x="912.73" y="351.97" width="6.06" height="9.84"/><rect class="cls-6" x="833.81" y="351.97" width="10.52" height="9.84"/><rect class="cls-6" x="851.28" y="351.97" width="10.52" height="9.84"/><rect class="cls-6" x="868.75" y="351.97" width="10.52" height="9.84"/><rect class="cls-6" x="816.33" y="351.97" width="10.52" height="9.84"/><rect class="cls-6" x="798.86" y="351.97" width="10.52" height="9.84"/><rect class="cls-6" x="912.92" y="368.01" width="6.06" height="9.84"/><rect class="cls-6" x="833.99" y="368.01" width="10.52" height="9.84"/><rect class="cls-6" x="851.47" y="368.01" width="10.52" height="9.84"/><rect class="cls-6" x="868.94" y="368.01" width="10.52" height="9.84"/><rect class="cls-6" x="816.52" y="368.01" width="10.52" height="9.84"/><rect class="cls-6" x="799.05" y="368.01" width="10.52" height="9.84"/><rect class="cls-6" x="913.1" y="382.76" width="6.06" height="9.84"/><rect class="cls-6" x="834.18" y="382.76" width="10.52" height="9.84"/><rect class="cls-6" x="851.65" y="382.76" width="10.52" height="9.84"/><rect class="cls-6" x="869.13" y="382.76" width="10.52" height="9.84"/><rect class="cls-6" x="816.71" y="382.76" width="10.52" height="9.84"/><rect class="cls-6" x="799.23" y="382.76" width="10.52" height="9.84"/><rect class="cls-6" x="913.29" y="398.8" width="6.06" height="9.84"/><rect class="cls-6" x="834.37" y="398.8" width="10.52" height="9.84"/><rect class="cls-6" x="851.84" y="398.8" width="10.52" height="9.84"/><rect class="cls-6" x="869.31" y="398.8" width="10.52" height="9.84"/><rect class="cls-6" x="816.89" y="398.8" width="10.52" height="9.84"/><rect class="cls-6" x="799.42" y="398.8" width="10.52" height="9.84"/><rect class="cls-5" x="938.55" y="150.52" width="60.99" height="19.45"/><rect class="cls-4" x="999.54" y="150.52" width="30.65" height="17.52"/><rect class="cls-5" x="920.56" y="165.49" width="89.33" height="211.1"/><path class="cls-7" d="M1008.77,165.49h39.46l-.15,211.1h-39.31Z"/><rect class="cls-8" x="920.57" y="165.49" width="88.24" height="7.37"/><rect class="cls-9" x="1008.8" y="165.49" width="39.39" height="7.37"/><rect class="cls-6" x="1038.89" y="180.95" width="6.06" height="9.84"/><rect class="cls-6" x="959.97" y="180.95" width="10.52" height="9.84"/><rect class="cls-6" x="977.44" y="180.95" width="10.52" height="9.84"/><rect class="cls-6" x="994.91" y="180.95" width="10.52" height="9.84"/><rect class="cls-6" x="942.49" y="180.95" width="10.52" height="9.84"/><rect class="cls-6" x="925.02" y="180.95" width="10.52" height="9.84"/><rect class="cls-6" x="1038.7" y="195.75" width="6.06" height="9.84"/><rect class="cls-6" x="959.78" y="195.75" width="10.52" height="9.84"/><rect class="cls-6" x="977.25" y="195.75" width="10.52" height="9.84"/><rect class="cls-6" x="994.73" y="195.75" width="10.52" height="9.84"/><rect class="cls-6" x="942.31" y="195.75" width="10.52" height="9.84"/><rect class="cls-6" x="924.83" y="195.75" width="10.52" height="9.84"/><rect class="cls-6" x="1038.7" y="211.46" width="6.06" height="9.84"/><rect class="cls-6" x="959.78" y="211.46" width="10.52" height="9.84"/><rect class="cls-6" x="977.25" y="211.46" width="10.52" height="9.84"/><rect class="cls-6" x="994.73" y="211.46" width="10.52" height="9.84"/><rect class="cls-6" x="942.31" y="211.46" width="10.52" height="9.84"/><rect class="cls-6" x="924.83" y="211.46" width="10.52" height="9.84"/><rect class="cls-6" x="1038.89" y="227.51" width="6.06" height="9.84"/><rect class="cls-6" x="959.97" y="227.5" width="10.52" height="9.84"/><rect class="cls-6" x="977.44" y="227.5" width="10.52" height="9.84"/><rect class="cls-6" x="994.91" y="227.5" width="10.52" height="9.84"/><rect class="cls-6" x="942.49" y="227.5" width="10.52" height="9.84"/><rect class="cls-6" x="925.02" y="227.5" width="10.52" height="9.84"/><rect class="cls-6" x="1038.89" y="242.84" width="6.06" height="9.84"/><rect class="cls-6" x="959.97" y="242.84" width="10.52" height="9.84"/><rect class="cls-6" x="977.44" y="242.84" width="10.52" height="9.84"/><rect class="cls-6" x="994.91" y="242.84" width="10.52" height="9.84"/><rect class="cls-6" x="942.49" y="242.84" width="10.52" height="9.84"/><rect class="cls-6" x="925.02" y="242.84" width="10.52" height="9.84"/><rect class="cls-6" x="1038.7" y="257.64" width="6.06" height="9.84"/><rect class="cls-6" x="959.78" y="257.64" width="10.52" height="9.84"/><rect class="cls-6" x="977.25" y="257.64" width="10.52" height="9.84"/><rect class="cls-6" x="994.73" y="257.64" width="10.52" height="9.84"/><rect class="cls-6" x="942.31" y="257.64" width="10.52" height="9.84"/><rect class="cls-6" x="924.83" y="257.64" width="10.52" height="9.84"/><rect class="cls-6" x="1038.7" y="273.35" width="6.06" height="9.84"/><rect class="cls-6" x="959.78" y="273.35" width="10.52" height="9.84"/><rect class="cls-6" x="977.25" y="273.35" width="10.52" height="9.84"/><rect class="cls-6" x="994.73" y="273.35" width="10.52" height="9.84"/><rect class="cls-6" x="942.31" y="273.35" width="10.52" height="9.84"/><rect class="cls-6" x="924.83" y="273.35" width="10.52" height="9.84"/><rect class="cls-6" x="1038.89" y="289.4" width="6.06" height="9.84"/><rect class="cls-6" x="959.97" y="289.4" width="10.52" height="9.84"/><rect class="cls-6" x="977.44" y="289.4" width="10.52" height="9.84"/><rect class="cls-6" x="994.91" y="289.4" width="10.52" height="9.84"/><rect class="cls-6" x="942.49" y="289.4" width="10.52" height="9.84"/><rect class="cls-6" x="925.02" y="289.4" width="10.52" height="9.84"/><rect class="cls-6" x="1038.52" y="305.07" width="6.06" height="9.84"/><rect class="cls-6" x="959.59" y="305.07" width="10.52" height="9.84"/><rect class="cls-6" x="977.07" y="305.07" width="10.52" height="9.84"/><rect class="cls-6" x="994.54" y="305.07" width="10.52" height="9.84"/><rect class="cls-6" x="942.12" y="305.07" width="10.52" height="9.84"/><rect class="cls-6" x="924.65" y="305.07" width="10.52" height="9.84"/><rect class="cls-6" x="1038.7" y="321.12" width="6.06" height="9.84"/><rect class="cls-6" x="959.78" y="321.12" width="10.52" height="9.84"/><rect class="cls-6" x="977.25" y="321.12" width="10.52" height="9.84"/><rect class="cls-6" x="994.73" y="321.12" width="10.52" height="9.84"/><rect class="cls-6" x="942.31" y="321.12" width="10.52" height="9.84"/><rect class="cls-6" x="924.83" y="321.12" width="10.52" height="9.84"/><rect class="cls-6" x="1038.89" y="335.86" width="6.06" height="9.84"/><rect class="cls-6" x="959.97" y="335.86" width="10.52" height="9.84"/><rect class="cls-6" x="977.44" y="335.86" width="10.52" height="9.84"/><rect class="cls-6" x="994.91" y="335.86" width="10.52" height="9.84"/><rect class="cls-6" x="942.49" y="335.86" width="10.52" height="9.84"/><rect class="cls-6" x="925.02" y="335.86" width="10.52" height="9.84"/><rect class="cls-6" x="1039.08" y="351.91" width="6.06" height="9.84"/><rect class="cls-6" x="960.15" y="351.91" width="10.52" height="9.84"/><rect class="cls-6" x="977.63" y="351.91" width="10.52" height="9.84"/><rect class="cls-6" x="995.1" y="351.91" width="10.52" height="9.84"/><rect class="cls-6" x="942.68" y="351.91" width="10.52" height="9.84"/><rect class="cls-6" x="925.21" y="351.91" width="10.52" height="9.84"/><rect class="cls-5" x="1153.16" y="247.07" width="60.99" height="19.45"/><rect class="cls-4" x="1214.15" y="247.07" width="30.65" height="17.52"/><rect class="cls-5" x="1135.18" y="262.04" width="89.33" height="211.1"/><path class="cls-7" d="M1223.39,262h39.45l-.15,211.1h-39.3Z"/><rect class="cls-8" x="1135.18" y="262.04" width="88.24" height="7.37"/><rect class="cls-9" x="1223.42" y="262.04" width="39.39" height="7.37"/><rect class="cls-6" x="1253.51" y="277.5" width="6.06" height="9.84"/><rect class="cls-6" x="1174.58" y="277.5" width="10.52" height="9.84"/><rect class="cls-6" x="1192.05" y="277.5" width="10.52" height="9.84"/><rect class="cls-6" x="1209.53" y="277.5" width="10.52" height="9.84"/><rect class="cls-6" x="1157.11" y="277.5" width="10.52" height="9.84"/><rect class="cls-6" x="1139.64" y="277.5" width="10.52" height="9.84"/><rect class="cls-6" x="1253.32" y="292.3" width="6.06" height="9.84"/><rect class="cls-6" x="1174.39" y="292.3" width="10.52" height="9.84"/><rect class="cls-6" x="1191.87" y="292.3" width="10.52" height="9.84"/><rect class="cls-6" x="1209.34" y="292.3" width="10.52" height="9.84"/><rect class="cls-6" x="1156.92" y="292.3" width="10.52" height="9.84"/><rect class="cls-6" x="1139.45" y="292.3" width="10.52" height="9.84"/><rect class="cls-6" x="1253.32" y="308" width="6.06" height="9.84"/><rect class="cls-6" x="1174.39" y="308" width="10.52" height="9.84"/><rect class="cls-6" x="1191.87" y="308" width="10.52" height="9.84"/><rect class="cls-6" x="1209.34" y="308" width="10.52" height="9.84"/><rect class="cls-6" x="1156.92" y="308" width="10.52" height="9.84"/><rect class="cls-6" x="1139.45" y="308" width="10.52" height="9.84"/><rect class="cls-6" x="1253.51" y="324.05" width="6.06" height="9.84"/><rect class="cls-6" x="1174.58" y="324.05" width="10.52" height="9.84"/><rect class="cls-6" x="1192.05" y="324.05" width="10.52" height="9.84"/><rect class="cls-6" x="1209.53" y="324.05" width="10.52" height="9.84"/><rect class="cls-6" x="1157.11" y="324.05" width="10.52" height="9.84"/><rect class="cls-6" x="1139.64" y="324.05" width="10.52" height="9.84"/><rect class="cls-6" x="1253.51" y="339.39" width="6.06" height="9.84"/><rect class="cls-6" x="1174.58" y="339.39" width="10.52" height="9.84"/><rect class="cls-6" x="1192.05" y="339.39" width="10.52" height="9.84"/><rect class="cls-6" x="1209.53" y="339.39" width="10.52" height="9.84"/><rect class="cls-6" x="1157.11" y="339.39" width="10.52" height="9.84"/><rect class="cls-6" x="1139.64" y="339.39" width="10.52" height="9.84"/><rect class="cls-6" x="1253.32" y="354.19" width="6.06" height="9.84"/><rect class="cls-6" x="1174.39" y="354.19" width="10.52" height="9.84"/><rect class="cls-6" x="1191.87" y="354.19" width="10.52" height="9.84"/><rect class="cls-6" x="1209.34" y="354.19" width="10.52" height="9.84"/><rect class="cls-6" x="1156.92" y="354.19" width="10.52" height="9.84"/><rect class="cls-6" x="1139.45" y="354.19" width="10.52" height="9.84"/><rect class="cls-6" x="1253.32" y="369.9" width="6.06" height="9.84"/><rect class="cls-6" x="1174.39" y="369.9" width="10.52" height="9.84"/><rect class="cls-6" x="1191.87" y="369.9" width="10.52" height="9.84"/><rect class="cls-6" x="1209.34" y="369.9" width="10.52" height="9.84"/><rect class="cls-6" x="1156.92" y="369.9" width="10.52" height="9.84"/><rect class="cls-6" x="1139.45" y="369.9" width="10.52" height="9.84"/><rect class="cls-6" x="1253.51" y="385.95" width="6.06" height="9.84"/><rect class="cls-6" x="1174.58" y="385.94" width="10.52" height="9.84"/><rect class="cls-6" x="1192.05" y="385.94" width="10.52" height="9.84"/><rect class="cls-6" x="1209.53" y="385.94" width="10.52" height="9.84"/><rect class="cls-6" x="1157.11" y="385.94" width="10.52" height="9.84"/><rect class="cls-6" x="1139.64" y="385.94" width="10.52" height="9.84"/><rect class="cls-6" x="1253.13" y="401.62" width="6.06" height="9.84"/><rect class="cls-6" x="1174.21" y="401.62" width="10.52" height="9.84"/><rect class="cls-6" x="1191.68" y="401.62" width="10.52" height="9.84"/><rect class="cls-6" x="1209.15" y="401.62" width="10.52" height="9.84"/><rect class="cls-6" x="1156.73" y="401.62" width="10.52" height="9.84"/><rect class="cls-6" x="1139.26" y="401.62" width="10.52" height="9.84"/><rect class="cls-6" x="1253.32" y="417.67" width="6.06" height="9.84"/><rect class="cls-6" x="1174.39" y="417.67" width="10.52" height="9.84"/><rect class="cls-6" x="1191.87" y="417.67" width="10.52" height="9.84"/><rect class="cls-6" x="1209.34" y="417.67" width="10.52" height="9.84"/><rect class="cls-6" x="1156.92" y="417.67" width="10.52" height="9.84"/><rect class="cls-6" x="1139.45" y="417.67" width="10.52" height="9.84"/><rect class="cls-6" x="1253.51" y="432.41" width="6.06" height="9.84"/><rect class="cls-6" x="1174.58" y="432.41" width="10.52" height="9.84"/><rect class="cls-6" x="1192.05" y="432.41" width="10.52" height="9.84"/><rect class="cls-6" x="1209.53" y="432.41" width="10.52" height="9.84"/><rect class="cls-6" x="1157.11" y="432.41" width="10.52" height="9.84"/><rect class="cls-6" x="1139.64" y="432.41" width="10.52" height="9.84"/><rect class="cls-6" x="1253.69" y="448.46" width="6.06" height="9.84"/><rect class="cls-6" x="1174.77" y="448.46" width="10.52" height="9.84"/><rect class="cls-6" x="1192.24" y="448.46" width="10.52" height="9.84"/><rect class="cls-6" x="1209.71" y="448.46" width="10.52" height="9.84"/><rect class="cls-6" x="1157.29" y="448.46" width="10.52" height="9.84"/><rect class="cls-6" x="1139.82" y="448.46" width="10.52" height="9.84"/><rect class="cls-5" x="1226.53" y="300.58" width="60.99" height="19.45"/><rect class="cls-4" x="1287.53" y="300.58" width="30.65" height="17.52"/><rect class="cls-5" x="1208.55" y="315.56" width="89.33" height="211.1"/><path class="cls-7" d="M1296.76,315.55h39.45l-.15,211.1h-39.3Z"/><rect class="cls-8" x="1208.55" y="315.55" width="88.24" height="7.37"/><rect class="cls-9" x="1296.79" y="315.55" width="39.39" height="7.37"/><rect class="cls-6" x="1326.88" y="331.01" width="6.06" height="9.84"/><rect class="cls-6" x="1247.95" y="331.01" width="10.52" height="9.84"/><rect class="cls-6" x="1265.43" y="331.01" width="10.52" height="9.84"/><rect class="cls-6" x="1282.9" y="331.01" width="10.52" height="9.84"/><rect class="cls-6" x="1230.48" y="331.01" width="10.52" height="9.84"/><rect class="cls-6" x="1213.01" y="331.01" width="10.52" height="9.84"/><rect class="cls-6" x="1326.69" y="345.81" width="6.06" height="9.84"/><rect class="cls-6" x="1247.77" y="345.81" width="10.52" height="9.84"/><rect class="cls-6" x="1265.24" y="345.81" width="10.52" height="9.84"/><rect class="cls-6" x="1282.71" y="345.81" width="10.52" height="9.84"/><rect class="cls-6" x="1230.3" y="345.81" width="10.52" height="9.84"/><rect class="cls-6" x="1212.82" y="345.81" width="10.52" height="9.84"/><rect class="cls-6" x="1326.69" y="361.52" width="6.06" height="9.84"/><rect class="cls-6" x="1247.77" y="361.52" width="10.52" height="9.84"/><rect class="cls-6" x="1265.24" y="361.52" width="10.52" height="9.84"/><rect class="cls-6" x="1282.71" y="361.52" width="10.52" height="9.84"/><rect class="cls-6" x="1230.3" y="361.52" width="10.52" height="9.84"/><rect class="cls-6" x="1212.82" y="361.52" width="10.52" height="9.84"/><rect class="cls-6" x="1326.88" y="377.57" width="6.06" height="9.84"/><rect class="cls-6" x="1247.95" y="377.57" width="10.52" height="9.84"/><rect class="cls-6" x="1265.43" y="377.57" width="10.52" height="9.84"/><rect class="cls-6" x="1282.9" y="377.57" width="10.52" height="9.84"/><rect class="cls-6" x="1230.48" y="377.57" width="10.52" height="9.84"/><rect class="cls-6" x="1213.01" y="377.57" width="10.52" height="9.84"/><rect class="cls-6" x="1326.88" y="392.91" width="6.06" height="9.84"/><rect class="cls-6" x="1247.95" y="392.91" width="10.52" height="9.84"/><rect class="cls-6" x="1265.43" y="392.91" width="10.52" height="9.84"/><rect class="cls-6" x="1282.9" y="392.91" width="10.52" height="9.84"/><rect class="cls-6" x="1230.48" y="392.91" width="10.52" height="9.84"/><rect class="cls-6" x="1213.01" y="392.91" width="10.52" height="9.84"/><rect class="cls-6" x="1326.69" y="407.71" width="6.06" height="9.84"/><rect class="cls-6" x="1247.77" y="407.71" width="10.52" height="9.84"/><rect class="cls-6" x="1265.24" y="407.71" width="10.52" height="9.84"/><rect class="cls-6" x="1282.71" y="407.71" width="10.52" height="9.84"/><rect class="cls-6" x="1230.3" y="407.71" width="10.52" height="9.84"/><rect class="cls-6" x="1212.82" y="407.71" width="10.52" height="9.84"/><rect class="cls-6" x="1326.69" y="423.41" width="6.06" height="9.84"/><rect class="cls-6" x="1247.77" y="423.41" width="10.52" height="9.84"/><rect class="cls-6" x="1265.24" y="423.41" width="10.52" height="9.84"/><rect class="cls-6" x="1282.71" y="423.41" width="10.52" height="9.84"/><rect class="cls-6" x="1230.3" y="423.41" width="10.52" height="9.84"/><rect class="cls-6" x="1212.82" y="423.41" width="10.52" height="9.84"/><rect class="cls-6" x="1326.88" y="439.46" width="6.06" height="9.84"/><rect class="cls-6" x="1247.95" y="439.46" width="10.52" height="9.84"/><rect class="cls-6" x="1265.43" y="439.46" width="10.52" height="9.84"/><rect class="cls-6" x="1282.9" y="439.46" width="10.52" height="9.84"/><rect class="cls-6" x="1230.48" y="439.46" width="10.52" height="9.84"/><rect class="cls-6" x="1213.01" y="439.46" width="10.52" height="9.84"/><rect class="cls-6" x="1326.51" y="455.13" width="6.06" height="9.84"/><rect class="cls-6" x="1247.58" y="455.13" width="10.52" height="9.84"/><rect class="cls-6" x="1265.05" y="455.13" width="10.52" height="9.84"/><rect class="cls-6" x="1282.53" y="455.13" width="10.52" height="9.84"/><rect class="cls-6" x="1230.11" y="455.13" width="10.52" height="9.84"/><rect class="cls-6" x="1212.64" y="455.13" width="10.52" height="9.84"/><rect class="cls-6" x="1326.69" y="471.18" width="6.06" height="9.84"/><rect class="cls-6" x="1247.77" y="471.18" width="10.52" height="9.84"/><rect class="cls-6" x="1265.24" y="471.18" width="10.52" height="9.84"/><rect class="cls-6" x="1282.71" y="471.18" width="10.52" height="9.84"/><rect class="cls-6" x="1230.3" y="471.18" width="10.52" height="9.84"/><rect class="cls-6" x="1212.82" y="471.18" width="10.52" height="9.84"/><rect class="cls-6" x="1326.88" y="485.92" width="6.06" height="9.84"/><rect class="cls-6" x="1247.95" y="485.92" width="10.52" height="9.84"/><rect class="cls-6" x="1265.43" y="485.92" width="10.52" height="9.84"/><rect class="cls-6" x="1282.9" y="485.92" width="10.52" height="9.84"/><rect class="cls-6" x="1230.48" y="485.92" width="10.52" height="9.84"/><rect class="cls-6" x="1213.01" y="485.92" width="10.52" height="9.84"/><rect class="cls-6" x="1327.07" y="501.97" width="6.06" height="9.84"/><rect class="cls-6" x="1248.14" y="501.97" width="10.52" height="9.84"/><rect class="cls-6" x="1265.61" y="501.97" width="10.52" height="9.84"/><rect class="cls-6" x="1283.09" y="501.97" width="10.52" height="9.84"/><rect class="cls-6" x="1230.67" y="501.97" width="10.52" height="9.84"/><rect class="cls-6" x="1213.2" y="501.97" width="10.52" height="9.84"/><rect class="cls-5" x="770.55" y="243.77" width="29.64" height="18.45"/><rect class="cls-5" x="740.33" y="243.81" width="31.06" height="18.45"/><rect class="cls-5" x="771.67" y="252.65" width="37.44" height="185.34"/><rect class="cls-5" x="733.57" y="252.56" width="39.19" height="185.75"/><rect class="cls-10" x="521.4" y="306.62" width="130.35" height="26.09"/><rect class="cls-10" x="506.2" y="321.94" width="158.04" height="208.79"/><rect class="cls-11" x="506.2" y="398.74" width="158.05" height="6.9"/><rect class="cls-11" x="506.2" y="416.2" width="158.05" height="6.9"/><rect class="cls-11" x="506.2" y="433.16" width="158.05" height="6.9"/><rect class="cls-11" x="506.8" y="379.98" width="157.45" height="6.9"/><rect class="cls-11" x="506.31" y="361.22" width="157.93" height="6.9"/><rect class="cls-11" x="507.05" y="342.45" width="157.18" height="6.9"/><rect class="cls-12" x="506.2" y="321.94" width="158.04" height="8.83"/><rect class="cls-13" x="772.08" y="279.62" width="44.66" height="279.97"/><rect class="cls-10" x="674.33" y="279.62" width="100.72" height="279.97"/><rect class="cls-14" x="772.07" y="272.77" width="44.66" height="6.85"/><rect class="cls-13" x="674.33" y="272.77" width="100.72" height="6.85"/><rect class="cls-14" x="772.07" y="349.86" width="44.66" height="6.85"/><rect class="cls-13" x="674.33" y="349.86" width="100.72" height="6.85"/><rect class="cls-14" x="772.07" y="428.81" width="44.66" height="6.85"/><rect class="cls-13" x="674.33" y="428.81" width="100.72" height="6.85"/><rect class="cls-11" x="682.47" y="290.92" width="11.55" height="10.49"/><rect class="cls-11" x="701.53" y="290.92" width="11.55" height="10.49"/><rect class="cls-11" x="720.59" y="290.92" width="11.55" height="10.49"/><rect class="cls-11" x="739.66" y="290.92" width="11.55" height="10.49"/><rect class="cls-11" x="758.72" y="290.92" width="11.55" height="10.49"/><rect class="cls-11" x="682.47" y="308.3" width="11.55" height="10.49"/><rect class="cls-11" x="701.53" y="308.3" width="11.55" height="10.49"/><rect class="cls-11" x="720.59" y="308.3" width="11.55" height="10.49"/><rect class="cls-11" x="739.66" y="308.3" width="11.55" height="10.49"/><rect class="cls-11" x="758.72" y="308.3" width="11.55" height="10.49"/><rect class="cls-11" x="682.47" y="326.76" width="11.55" height="10.49"/><rect class="cls-11" x="701.53" y="326.76" width="11.55" height="10.49"/><rect class="cls-11" x="720.59" y="326.76" width="11.55" height="10.49"/><rect class="cls-11" x="739.66" y="326.76" width="11.55" height="10.49"/><rect class="cls-11" x="758.72" y="326.76" width="11.55" height="10.49"/><rect class="cls-11" x="680.79" y="368.3" width="11.55" height="10.49"/><rect class="cls-11" x="699.85" y="368.3" width="11.55" height="10.49"/><rect class="cls-11" x="718.91" y="368.3" width="11.55" height="10.49"/><rect class="cls-11" x="737.98" y="368.3" width="11.55" height="10.49"/><rect class="cls-11" x="757.04" y="368.3" width="11.55" height="10.49"/><rect class="cls-11" x="680.79" y="385.68" width="11.55" height="10.49"/><rect class="cls-11" x="699.85" y="385.68" width="11.55" height="10.49"/><rect class="cls-11" x="718.91" y="385.68" width="11.55" height="10.49"/><rect class="cls-11" x="737.98" y="385.68" width="11.55" height="10.49"/><rect class="cls-11" x="757.04" y="385.68" width="11.55" height="10.49"/><rect class="cls-11" x="680.79" y="404.14" width="11.55" height="10.49"/><rect class="cls-11" x="699.85" y="404.14" width="11.55" height="10.49"/><rect class="cls-11" x="718.91" y="404.14" width="11.55" height="10.49"/><rect class="cls-11" x="737.98" y="404.14" width="11.55" height="10.49"/><rect class="cls-11" x="757.04" y="404.14" width="11.55" height="10.49"/><rect class="cls-15" x="772.07" y="511.19" width="44.66" height="6.85"/><rect class="cls-16" x="674.33" y="511.19" width="100.72" height="6.85"/><rect class="cls-11" x="680.79" y="450.69" width="11.55" height="10.49"/><rect class="cls-11" x="699.85" y="450.69" width="11.55" height="10.49"/><rect class="cls-11" x="718.91" y="450.69" width="11.55" height="10.49"/><rect class="cls-11" x="737.98" y="450.69" width="11.55" height="10.49"/><rect class="cls-11" x="757.04" y="450.69" width="11.55" height="10.49"/><rect class="cls-11" x="680.79" y="468.06" width="11.55" height="10.49"/><rect class="cls-11" x="699.85" y="468.06" width="11.55" height="10.49"/><rect class="cls-11" x="718.91" y="468.06" width="11.55" height="10.49"/><rect class="cls-11" x="737.98" y="468.06" width="11.55" height="10.49"/><rect class="cls-11" x="757.04" y="468.06" width="11.55" height="10.49"/><rect class="cls-11" x="680.79" y="486.52" width="11.55" height="10.49"/><rect class="cls-11" x="699.85" y="486.52" width="11.55" height="10.49"/><rect class="cls-11" x="718.91" y="486.52" width="11.55" height="10.49"/><rect class="cls-11" x="737.98" y="486.52" width="11.55" height="10.49"/><rect class="cls-11" x="757.04" y="486.52" width="11.55" height="10.49"/><rect class="cls-17" x="358.05" y="332.6" width="68.51" height="21.85"/><rect class="cls-18" x="426.55" y="332.6" width="34.43" height="19.68"/><rect class="cls-17" x="337.85" y="349.41" width="100.33" height="237.11"/><path class="cls-19" d="M436.93,349.41h44.31l-.17,237.11H436.93Z"/><rect class="cls-12" x="337.85" y="349.41" width="99.11" height="8.27"/><rect class="cls-20" x="436.96" y="349.41" width="44.25" height="8.27"/><rect class="cls-20" x="470.76" y="366.77" width="6.8" height="11.05"/><rect class="cls-20" x="382.11" y="366.77" width="11.82" height="11.05"/><rect class="cls-20" x="401.73" y="366.77" width="11.82" height="11.05"/><rect class="cls-20" x="421.36" y="366.77" width="11.82" height="11.05"/><rect class="cls-20" x="362.48" y="366.77" width="11.82" height="11.05"/><rect class="cls-20" x="342.86" y="366.77" width="11.82" height="11.05"/><rect class="cls-20" x="470.55" y="383.4" width="6.8" height="11.05"/><rect class="cls-20" x="381.9" y="383.4" width="11.82" height="11.05"/><rect class="cls-20" x="401.52" y="383.4" width="11.82" height="11.05"/><rect class="cls-20" x="421.15" y="383.4" width="11.82" height="11.05"/><rect class="cls-20" x="362.27" y="383.4" width="11.82" height="11.05"/><rect class="cls-20" x="342.65" y="383.4" width="11.82" height="11.05"/><rect class="cls-20" x="470.55" y="401.04" width="6.8" height="11.05"/><rect class="cls-20" x="381.9" y="401.04" width="11.82" height="11.05"/><rect class="cls-20" x="401.52" y="401.04" width="11.82" height="11.05"/><rect class="cls-20" x="421.15" y="401.04" width="11.82" height="11.05"/><rect class="cls-20" x="362.27" y="401.04" width="11.82" height="11.05"/><rect class="cls-20" x="342.65" y="401.04" width="11.82" height="11.05"/><rect class="cls-20" x="470.76" y="419.06" width="6.8" height="11.05"/><rect class="cls-20" x="382.11" y="419.06" width="11.82" height="11.05"/><rect class="cls-20" x="401.73" y="419.06" width="11.82" height="11.05"/><rect class="cls-20" x="421.36" y="419.06" width="11.82" height="11.05"/><rect class="cls-20" x="362.48" y="419.06" width="11.82" height="11.05"/><rect class="cls-20" x="342.86" y="419.06" width="11.82" height="11.05"/><rect class="cls-20" x="470.76" y="436.29" width="6.8" height="11.05"/><rect class="cls-20" x="382.11" y="436.29" width="11.82" height="11.05"/><rect class="cls-20" x="401.73" y="436.29" width="11.82" height="11.05"/><rect class="cls-20" x="421.36" y="436.29" width="11.82" height="11.05"/><rect class="cls-20" x="362.48" y="436.29" width="11.82" height="11.05"/><rect class="cls-20" x="342.86" y="436.29" width="11.82" height="11.05"/><rect class="cls-20" x="470.55" y="452.92" width="6.8" height="11.05"/><rect class="cls-20" x="381.9" y="452.91" width="11.82" height="11.05"/><rect class="cls-20" x="401.52" y="452.91" width="11.82" height="11.05"/><rect class="cls-20" x="421.15" y="452.91" width="11.82" height="11.05"/><rect class="cls-20" x="362.27" y="452.91" width="11.82" height="11.05"/><rect class="cls-20" x="342.65" y="452.91" width="11.82" height="11.05"/><rect class="cls-20" x="470.55" y="470.56" width="6.8" height="11.05"/><rect class="cls-20" x="381.9" y="470.56" width="11.82" height="11.05"/><rect class="cls-20" x="401.52" y="470.56" width="11.82" height="11.05"/><rect class="cls-20" x="421.15" y="470.56" width="11.82" height="11.05"/><rect class="cls-20" x="362.27" y="470.56" width="11.82" height="11.05"/><rect class="cls-20" x="342.65" y="470.56" width="11.82" height="11.05"/><rect class="cls-20" x="470.76" y="488.58" width="6.8" height="11.05"/><rect class="cls-20" x="382.11" y="488.58" width="11.82" height="11.05"/><rect class="cls-20" x="401.73" y="488.58" width="11.82" height="11.05"/><rect class="cls-20" x="421.36" y="488.58" width="11.82" height="11.05"/><rect class="cls-20" x="362.48" y="488.58" width="11.82" height="11.05"/><rect class="cls-20" x="342.86" y="488.58" width="11.82" height="11.05"/><rect class="cls-20" x="470.34" y="506.19" width="6.8" height="11.05"/><rect class="cls-20" x="381.69" y="506.19" width="11.82" height="11.05"/><rect class="cls-20" x="401.31" y="506.19" width="11.82" height="11.05"/><rect class="cls-20" x="420.94" y="506.19" width="11.82" height="11.05"/><rect class="cls-20" x="362.06" y="506.19" width="11.82" height="11.05"/><rect class="cls-20" x="342.44" y="506.19" width="11.82" height="11.05"/><rect class="cls-20" x="470.55" y="524.21" width="6.8" height="11.05"/><rect class="cls-20" x="381.9" y="524.21" width="11.82" height="11.05"/><rect class="cls-20" x="401.52" y="524.21" width="11.82" height="11.05"/><rect class="cls-20" x="421.15" y="524.21" width="11.82" height="11.05"/><rect class="cls-20" x="362.27" y="524.21" width="11.82" height="11.05"/><rect class="cls-20" x="342.65" y="524.21" width="11.82" height="11.05"/><rect class="cls-20" x="470.76" y="540.77" width="6.8" height="11.05"/><rect class="cls-20" x="382.11" y="540.77" width="11.82" height="11.05"/><rect class="cls-20" x="401.73" y="540.77" width="11.82" height="11.05"/><rect class="cls-20" x="421.36" y="540.77" width="11.82" height="11.05"/><rect class="cls-20" x="362.48" y="540.77" width="11.82" height="11.05"/><rect class="cls-20" x="342.86" y="540.77" width="11.82" height="11.05"/><rect class="cls-20" x="470.97" y="558.79" width="6.8" height="11.05"/><rect class="cls-20" x="382.32" y="558.79" width="11.82" height="11.05"/><rect class="cls-20" x="401.94" y="558.79" width="11.82" height="11.05"/><rect class="cls-20" x="421.57" y="558.79" width="11.82" height="11.05"/><rect class="cls-20" x="362.69" y="558.79" width="11.82" height="11.05"/><rect class="cls-20" x="343.07" y="558.79" width="11.82" height="11.05"/><rect class="cls-10" x="858.61" y="246.38" width="85.1" height="31.14"/><rect class="cls-10" x="848.69" y="264.67" width="103.19" height="249.2"/><rect class="cls-11" x="848.69" y="356.33" width="103.19" height="8.23"/><rect class="cls-11" x="848.69" y="377.17" width="103.19" height="8.23"/><rect class="cls-11" x="848.69" y="397.41" width="103.19" height="8.23"/><rect class="cls-11" x="849.08" y="333.94" width="102.8" height="8.23"/><rect class="cls-11" x="848.76" y="311.54" width="103.11" height="8.23"/><rect class="cls-11" x="849.25" y="289.15" width="102.62" height="8.23"/><rect class="cls-12" x="848.69" y="264.67" width="103.19" height="10.54"/><rect class="cls-13" x="1027.78" y="306.46" width="44.66" height="279.97"/><rect class="cls-10" x="930.03" y="306.46" width="100.72" height="279.97"/><rect class="cls-14" x="1027.77" y="299.6" width="44.66" height="6.85"/><rect class="cls-13" x="930.03" y="299.6" width="100.72" height="6.85"/><rect class="cls-14" x="1027.77" y="376.7" width="44.66" height="6.85"/><rect class="cls-13" x="930.03" y="376.7" width="100.72" height="6.85"/><rect class="cls-14" x="1027.77" y="455.64" width="44.66" height="6.85"/><rect class="cls-13" x="930.03" y="455.64" width="100.72" height="6.85"/><rect class="cls-11" x="938.17" y="317.76" width="11.55" height="10.49"/><rect class="cls-11" x="957.23" y="317.76" width="11.55" height="10.49"/><rect class="cls-11" x="976.3" y="317.76" width="11.55" height="10.49"/><rect class="cls-11" x="995.36" y="317.76" width="11.55" height="10.49"/><rect class="cls-11" x="1014.42" y="317.76" width="11.55" height="10.49"/><rect class="cls-11" x="938.17" y="335.13" width="11.55" height="10.49"/><rect class="cls-11" x="957.23" y="335.13" width="11.55" height="10.49"/><rect class="cls-11" x="976.3" y="335.13" width="11.55" height="10.49"/><rect class="cls-11" x="995.36" y="335.13" width="11.55" height="10.49"/><rect class="cls-11" x="1014.42" y="335.13" width="11.55" height="10.49"/><rect class="cls-11" x="938.17" y="353.59" width="11.55" height="10.49"/><rect class="cls-11" x="957.23" y="353.59" width="11.55" height="10.49"/><rect class="cls-11" x="976.3" y="353.59" width="11.55" height="10.49"/><rect class="cls-11" x="995.36" y="353.59" width="11.55" height="10.49"/><rect class="cls-11" x="1014.42" y="353.59" width="11.55" height="10.49"/><rect class="cls-11" x="936.49" y="395.14" width="11.55" height="10.49"/><rect class="cls-11" x="955.55" y="395.14" width="11.55" height="10.49"/><rect class="cls-11" x="974.62" y="395.14" width="11.55" height="10.49"/><rect class="cls-11" x="993.68" y="395.14" width="11.55" height="10.49"/><rect class="cls-11" x="1012.74" y="395.14" width="11.55" height="10.49"/><rect class="cls-11" x="936.49" y="412.51" width="11.55" height="10.49"/><rect class="cls-11" x="955.55" y="412.51" width="11.55" height="10.49"/><rect class="cls-11" x="974.62" y="412.51" width="11.55" height="10.49"/><rect class="cls-11" x="993.68" y="412.51" width="11.55" height="10.49"/><rect class="cls-11" x="1012.74" y="412.51" width="11.55" height="10.49"/><rect class="cls-11" x="936.49" y="430.97" width="11.55" height="10.49"/><rect class="cls-11" x="955.55" y="430.97" width="11.55" height="10.49"/><rect class="cls-11" x="974.62" y="430.97" width="11.55" height="10.49"/><rect class="cls-11" x="993.68" y="430.97" width="11.55" height="10.49"/><rect class="cls-11" x="1012.74" y="430.97" width="11.55" height="10.49"/><rect class="cls-15" x="1027.77" y="538.03" width="44.66" height="6.85"/><rect class="cls-16" x="930.03" y="538.03" width="100.72" height="6.85"/><rect class="cls-11" x="936.49" y="477.52" width="11.55" height="10.49"/><rect class="cls-11" x="955.55" y="477.52" width="11.55" height="10.49"/><rect class="cls-11" x="974.62" y="477.52" width="11.55" height="10.49"/><rect class="cls-11" x="993.68" y="477.52" width="11.55" height="10.49"/><rect class="cls-11" x="1012.74" y="477.52" width="11.55" height="10.49"/><rect class="cls-11" x="936.49" y="494.9" width="11.55" height="10.49"/><rect class="cls-11" x="955.55" y="494.9" width="11.55" height="10.49"/><rect class="cls-11" x="974.62" y="494.9" width="11.55" height="10.49"/><rect class="cls-11" x="993.68" y="494.9" width="11.55" height="10.49"/><rect class="cls-11" x="1012.74" y="494.9" width="11.55" height="10.49"/><rect class="cls-11" x="936.49" y="513.36" width="11.55" height="10.49"/><rect class="cls-11" x="955.55" y="513.36" width="11.55" height="10.49"/><rect class="cls-11" x="974.62" y="513.36" width="11.55" height="10.49"/><rect class="cls-11" x="993.68" y="513.36" width="11.55" height="10.49"/><rect class="cls-11" x="1012.74" y="513.36" width="11.55" height="10.49"/><rect class="cls-18" x="1282.38" y="428.24" width="86.95" height="148.87"/><rect class="cls-17" x="1237.7" y="428.24" width="66.95" height="150.67"/><rect class="cls-12" x="1261.05" y="443.43" width="36.29" height="12.21"/><rect class="cls-20" x="1324.75" y="443.43" width="11.13" height="12.21"/><rect class="cls-12" x="1261.05" y="464.28" width="36.29" height="12.21"/><rect class="cls-20" x="1324.75" y="464.28" width="11.13" height="12.21"/><rect class="cls-12" x="1261.05" y="483.79" width="36.29" height="12.21"/><rect class="cls-20" x="1324.75" y="483.79" width="11.13" height="12.21"/><rect class="cls-12" x="1261.05" y="502.39" width="36.29" height="12.21"/><rect class="cls-20" x="1324.75" y="502.39" width="11.13" height="12.21"/><rect class="cls-12" x="1261.05" y="522.08" width="36.29" height="12.21"/><rect class="cls-20" x="1324.75" y="522.08" width="11.13" height="12.21"/><rect class="cls-20" x="1304.64" y="423.93" width="64.69" height="7.11"/><rect class="cls-12" x="1237.7" y="423.93" width="66.95" height="7.11"/><rect class="cls-18" x="827.8" y="346.16" width="86.95" height="148.87"/><rect class="cls-17" x="783.11" y="346.16" width="66.95" height="150.67"/><rect class="cls-12" x="806.47" y="361.35" width="36.29" height="12.21"/><rect class="cls-20" x="870.17" y="361.35" width="11.13" height="12.21"/><rect class="cls-12" x="806.47" y="382.2" width="36.29" height="12.21"/><rect class="cls-20" x="870.17" y="382.2" width="11.13" height="12.21"/><rect class="cls-12" x="806.47" y="401.72" width="36.29" height="12.21"/><rect class="cls-20" x="870.17" y="401.72" width="11.13" height="12.21"/><rect class="cls-12" x="806.47" y="420.32" width="36.29" height="12.21"/><rect class="cls-20" x="870.17" y="420.32" width="11.13" height="12.21"/><rect class="cls-12" x="806.47" y="440" width="36.29" height="12.21"/><rect class="cls-20" x="870.17" y="440" width="11.13" height="12.21"/><rect class="cls-20" x="850.06" y="341.85" width="64.69" height="7.11"/><rect class="cls-12" x="783.11" y="341.85" width="66.95" height="7.11"/><rect class="cls-17" x="1074.61" y="327.64" width="68.51" height="21.85"/><rect class="cls-18" x="1143.11" y="327.64" width="34.43" height="19.68"/><rect class="cls-17" x="1054.41" y="344.45" width="100.33" height="237.11"/><path class="cls-19" d="M1153.49,344.45h44.31l-.17,237.11h-44.14Z"/><rect class="cls-12" x="1054.41" y="344.45" width="99.11" height="8.27"/><rect class="cls-20" x="1153.52" y="344.45" width="44.25" height="8.27"/><rect class="cls-20" x="1187.32" y="361.81" width="6.8" height="11.05"/><rect class="cls-20" x="1098.67" y="361.81" width="11.82" height="11.05"/><rect class="cls-20" x="1118.29" y="361.81" width="11.82" height="11.05"/><rect class="cls-20" x="1137.92" y="361.81" width="11.82" height="11.05"/><rect class="cls-20" x="1079.04" y="361.81" width="11.82" height="11.05"/><rect class="cls-20" x="1059.42" y="361.81" width="11.82" height="11.05"/><rect class="cls-20" x="1187.11" y="378.44" width="6.8" height="11.05"/><rect class="cls-20" x="1098.46" y="378.44" width="11.82" height="11.05"/><rect class="cls-20" x="1118.08" y="378.44" width="11.82" height="11.05"/><rect class="cls-20" x="1137.71" y="378.44" width="11.82" height="11.05"/><rect class="cls-20" x="1078.83" y="378.44" width="11.82" height="11.05"/><rect class="cls-20" x="1059.21" y="378.44" width="11.82" height="11.05"/><rect class="cls-20" x="1187.11" y="396.08" width="6.8" height="11.05"/><rect class="cls-20" x="1098.46" y="396.08" width="11.82" height="11.05"/><rect class="cls-20" x="1118.08" y="396.08" width="11.82" height="11.05"/><rect class="cls-20" x="1137.71" y="396.08" width="11.82" height="11.05"/><rect class="cls-20" x="1078.83" y="396.08" width="11.82" height="11.05"/><rect class="cls-20" x="1059.21" y="396.08" width="11.82" height="11.05"/><rect class="cls-20" x="1187.32" y="414.1" width="6.8" height="11.05"/><rect class="cls-20" x="1098.67" y="414.1" width="11.82" height="11.05"/><rect class="cls-20" x="1118.29" y="414.1" width="11.82" height="11.05"/><rect class="cls-20" x="1137.92" y="414.1" width="11.82" height="11.05"/><rect class="cls-20" x="1079.04" y="414.1" width="11.82" height="11.05"/><rect class="cls-20" x="1059.42" y="414.1" width="11.82" height="11.05"/><rect class="cls-20" x="1187.32" y="431.33" width="6.8" height="11.05"/><rect class="cls-20" x="1098.67" y="431.33" width="11.82" height="11.05"/><rect class="cls-20" x="1118.29" y="431.33" width="11.82" height="11.05"/><rect class="cls-20" x="1137.92" y="431.33" width="11.82" height="11.05"/><rect class="cls-20" x="1079.04" y="431.33" width="11.82" height="11.05"/><rect class="cls-20" x="1059.42" y="431.33" width="11.82" height="11.05"/><rect class="cls-20" x="1187.11" y="447.96" width="6.8" height="11.05"/><rect class="cls-20" x="1098.46" y="447.95" width="11.82" height="11.05"/><rect class="cls-20" x="1118.08" y="447.95" width="11.82" height="11.05"/><rect class="cls-20" x="1137.71" y="447.95" width="11.82" height="11.05"/><rect class="cls-20" x="1078.83" y="447.95" width="11.82" height="11.05"/><rect class="cls-20" x="1059.21" y="447.95" width="11.82" height="11.05"/><rect class="cls-20" x="1187.11" y="465.6" width="6.8" height="11.05"/><rect class="cls-20" x="1098.46" y="465.6" width="11.82" height="11.05"/><rect class="cls-20" x="1118.08" y="465.6" width="11.82" height="11.05"/><rect class="cls-20" x="1137.71" y="465.6" width="11.82" height="11.05"/><rect class="cls-20" x="1078.83" y="465.6" width="11.82" height="11.05"/><rect class="cls-20" x="1059.21" y="465.6" width="11.82" height="11.05"/><rect class="cls-20" x="1187.32" y="483.62" width="6.8" height="11.05"/><rect class="cls-20" x="1098.67" y="483.62" width="11.82" height="11.05"/><rect class="cls-20" x="1118.29" y="483.62" width="11.82" height="11.05"/><rect class="cls-20" x="1137.92" y="483.62" width="11.82" height="11.05"/><rect class="cls-20" x="1079.04" y="483.62" width="11.82" height="11.05"/><rect class="cls-20" x="1059.42" y="483.62" width="11.82" height="11.05"/><rect class="cls-20" x="1186.9" y="501.23" width="6.8" height="11.05"/><rect class="cls-20" x="1098.25" y="501.23" width="11.82" height="11.05"/><rect class="cls-20" x="1117.87" y="501.23" width="11.82" height="11.05"/><rect class="cls-20" x="1137.5" y="501.23" width="11.82" height="11.05"/><rect class="cls-20" x="1078.62" y="501.23" width="11.82" height="11.05"/><rect class="cls-20" x="1059" y="501.23" width="11.82" height="11.05"/><rect class="cls-20" x="1187.11" y="519.25" width="6.8" height="11.05"/><rect class="cls-20" x="1098.46" y="519.25" width="11.82" height="11.05"/><rect class="cls-20" x="1118.08" y="519.25" width="11.82" height="11.05"/><rect class="cls-20" x="1137.71" y="519.25" width="11.82" height="11.05"/><rect class="cls-20" x="1078.83" y="519.25" width="11.82" height="11.05"/><rect class="cls-20" x="1059.21" y="519.25" width="11.82" height="11.05"/><rect class="cls-20" x="1187.32" y="535.81" width="6.8" height="11.05"/><rect class="cls-20" x="1098.67" y="535.81" width="11.82" height="11.05"/><rect class="cls-20" x="1118.29" y="535.81" width="11.82" height="11.05"/><rect class="cls-20" x="1137.92" y="535.81" width="11.82" height="11.05"/><rect class="cls-20" x="1079.04" y="535.81" width="11.82" height="11.05"/><rect class="cls-20" x="1059.42" y="535.81" width="11.82" height="11.05"/><rect class="cls-20" x="1187.53" y="553.83" width="6.8" height="11.05"/><rect class="cls-20" x="1098.88" y="553.83" width="11.82" height="11.05"/><rect class="cls-20" x="1118.5" y="553.83" width="11.82" height="11.05"/><rect class="cls-20" x="1138.13" y="553.83" width="11.82" height="11.05"/><rect class="cls-20" x="1079.25" y="553.83" width="11.82" height="11.05"/><rect class="cls-20" x="1059.63" y="553.83" width="11.82" height="11.05"/><rect class="cls-21" x="302.77" y="426.12" width="79.62" height="165.07"/><rect class="cls-22" x="376.38" y="426.12" width="53.91" height="165.22"/><rect class="cls-23" x="302.77" y="426.12" width="79.62" height="4.92"/><rect class="cls-24" x="376.38" y="426.12" width="53.91" height="4.92"/><rect class="cls-10" x="356.63" y="446.4" width="8.8" height="12.41"/><rect class="cls-10" x="335.91" y="446.4" width="8.8" height="12.41"/><rect class="cls-10" x="315.17" y="446.4" width="8.8" height="12.41"/><rect class="cls-10" x="356.63" y="467.43" width="8.8" height="12.41"/><rect class="cls-10" x="335.91" y="467.43" width="8.8" height="12.41"/><rect class="cls-10" x="315.17" y="467.43" width="8.8" height="12.41"/><rect class="cls-10" x="356.63" y="487.58" width="8.8" height="12.41"/><rect class="cls-10" x="335.91" y="487.58" width="8.8" height="12.41"/><rect class="cls-10" x="315.17" y="487.58" width="8.8" height="12.41"/><rect class="cls-10" x="356.63" y="508.61" width="8.8" height="12.41"/><rect class="cls-10" x="335.91" y="508.61" width="8.8" height="12.41"/><rect class="cls-10" x="315.17" y="508.61" width="8.8" height="12.41"/><rect class="cls-25" x="402.86" y="487.6" width="7.51" height="12.41"/><rect class="cls-25" x="402.86" y="467.07" width="7.51" height="12.41"/><rect class="cls-25" x="402.86" y="446.4" width="7.51" height="12.41"/><rect class="cls-25" x="402.86" y="509.39" width="7.51" height="12.41"/><rect class="cls-25" x="402.86" y="529.76" width="7.51" height="12.2"/><rect class="cls-21" x="950.57" y="432.2" width="79.62" height="165.07"/><rect class="cls-22" x="1024.18" y="432.2" width="53.91" height="165.22"/><rect class="cls-23" x="950.57" y="432.2" width="79.62" height="4.92"/><rect class="cls-24" x="1024.18" y="432.2" width="53.91" height="4.92"/><rect class="cls-10" x="1004.43" y="452.48" width="8.8" height="12.41"/><rect class="cls-10" x="983.71" y="452.48" width="8.8" height="12.41"/><rect class="cls-10" x="962.97" y="452.48" width="8.8" height="12.41"/><rect class="cls-10" x="1004.43" y="473.51" width="8.8" height="12.41"/><rect class="cls-10" x="983.71" y="473.51" width="8.8" height="12.41"/><rect class="cls-10" x="962.97" y="473.51" width="8.8" height="12.41"/><rect class="cls-10" x="1004.43" y="493.66" width="8.8" height="12.41"/><rect class="cls-10" x="983.71" y="493.66" width="8.8" height="12.41"/><rect class="cls-10" x="962.97" y="493.66" width="8.8" height="12.41"/><rect class="cls-10" x="1004.43" y="514.68" width="8.8" height="12.41"/><rect class="cls-10" x="983.71" y="514.68" width="8.8" height="12.41"/><rect class="cls-10" x="962.97" y="514.68" width="8.8" height="12.41"/><rect class="cls-25" x="1050.66" y="493.68" width="7.51" height="12.41"/><rect class="cls-25" x="1050.66" y="473.14" width="7.51" height="12.41"/><rect class="cls-25" x="1050.66" y="452.48" width="7.51" height="12.41"/><rect class="cls-25" x="1050.66" y="515.47" width="7.51" height="12.41"/><rect class="cls-25" x="1050.66" y="535.84" width="7.51" height="12.2"/><rect class="cls-26" x="741.7" y="386.05" width="61.49" height="36.89"/><rect class="cls-27" x="687.36" y="386.52" width="61.49" height="36.89"/><rect class="cls-27" x="648.64" y="401.42" width="218.53" height="174.33"/><rect class="cls-26" x="859.09" y="401.42" width="72.56" height="174.49"/><rect class="cls-23" x="648.64" y="401.42" width="218.53" height="6.62"/><rect class="cls-24" x="859.09" y="401.42" width="72.56" height="6.62"/><rect class="cls-10" x="656.69" y="420.89" width="16.06" height="11.39"/><rect class="cls-10" x="682.23" y="420.89" width="16.06" height="11.39"/><rect class="cls-10" x="707.77" y="420.89" width="16.06" height="11.39"/><rect class="cls-10" x="733.31" y="420.89" width="16.06" height="11.39"/><rect class="cls-10" x="758.85" y="420.89" width="16.06" height="11.39"/><rect class="cls-10" x="784.4" y="420.89" width="16.06" height="11.39"/><rect class="cls-10" x="809.94" y="420.89" width="16.06" height="11.39"/><rect class="cls-10" x="835.48" y="420.89" width="16.06" height="11.39"/><rect class="cls-10" x="656.69" y="441.05" width="16.06" height="11.39"/><rect class="cls-10" x="682.23" y="441.05" width="16.06" height="11.39"/><rect class="cls-10" x="707.77" y="441.05" width="16.06" height="11.39"/><rect class="cls-10" x="733.31" y="441.05" width="16.06" height="11.39"/><rect class="cls-10" x="758.85" y="441.05" width="16.06" height="11.39"/><rect class="cls-10" x="784.4" y="441.05" width="16.06" height="11.39"/><rect class="cls-10" x="809.94" y="441.05" width="16.06" height="11.39"/><rect class="cls-10" x="835.48" y="441.05" width="16.06" height="11.39"/><rect class="cls-10" x="656.69" y="461.21" width="16.06" height="11.39"/><rect class="cls-10" x="682.23" y="461.21" width="16.06" height="11.39"/><rect class="cls-10" x="707.77" y="461.21" width="16.06" height="11.39"/><rect class="cls-10" x="733.31" y="461.21" width="16.06" height="11.39"/><rect class="cls-10" x="758.85" y="461.21" width="16.06" height="11.39"/><rect class="cls-10" x="784.4" y="461.21" width="16.06" height="11.39"/><rect class="cls-10" x="809.94" y="461.21" width="16.06" height="11.39"/><rect class="cls-10" x="835.48" y="461.21" width="16.06" height="11.39"/><rect class="cls-10" x="656.69" y="481.37" width="16.06" height="11.39"/><rect class="cls-10" x="682.23" y="481.37" width="16.06" height="11.39"/><rect class="cls-10" x="707.77" y="481.37" width="16.06" height="11.39"/><rect class="cls-10" x="733.31" y="481.37" width="16.06" height="11.39"/><rect class="cls-10" x="758.85" y="481.37" width="16.06" height="11.39"/><rect class="cls-10" x="784.4" y="481.37" width="16.06" height="11.39"/><rect class="cls-10" x="809.94" y="481.37" width="16.06" height="11.39"/><rect class="cls-10" x="835.48" y="481.37" width="16.06" height="11.39"/><rect class="cls-10" x="656.69" y="501.53" width="16.06" height="11.39"/><rect class="cls-10" x="682.23" y="501.53" width="16.06" height="11.39"/><rect class="cls-10" x="707.77" y="501.53" width="16.06" height="11.39"/><rect class="cls-10" x="733.31" y="501.53" width="16.06" height="11.39"/><rect class="cls-10" x="758.85" y="501.53" width="16.06" height="11.39"/><rect class="cls-10" x="784.4" y="501.53" width="16.06" height="11.39"/><rect class="cls-10" x="809.94" y="501.53" width="16.06" height="11.39"/><rect class="cls-10" x="835.48" y="501.53" width="16.06" height="11.39"/><rect class="cls-10" x="656.69" y="521.69" width="16.06" height="11.39"/><rect class="cls-10" x="682.23" y="521.69" width="16.06" height="11.39"/><rect class="cls-10" x="707.77" y="521.69" width="16.06" height="11.39"/><rect class="cls-10" x="733.31" y="521.69" width="16.06" height="11.39"/><rect class="cls-10" x="758.85" y="521.69" width="16.06" height="11.39"/><rect class="cls-10" x="784.4" y="521.69" width="16.06" height="11.39"/><rect class="cls-10" x="809.94" y="521.69" width="16.06" height="11.39"/><rect class="cls-10" x="835.48" y="521.69" width="16.06" height="11.39"/><rect class="cls-10" x="656.69" y="541.85" width="16.06" height="11.39"/><rect class="cls-10" x="682.23" y="541.85" width="16.06" height="11.39"/><rect class="cls-10" x="707.77" y="541.85" width="16.06" height="11.39"/><rect class="cls-10" x="733.31" y="541.85" width="16.06" height="11.39"/><rect class="cls-10" x="758.85" y="541.85" width="16.06" height="11.39"/><rect class="cls-10" x="784.4" y="541.85" width="16.06" height="11.39"/><rect class="cls-10" x="809.94" y="541.85" width="16.06" height="11.39"/><rect class="cls-10" x="835.48" y="541.85" width="16.06" height="11.39"/><rect class="cls-25" x="894.72" y="484.16" width="10.11" height="16.7"/><rect class="cls-25" x="894.72" y="456.52" width="10.11" height="16.7"/><rect class="cls-25" x="894.72" y="428.71" width="10.11" height="16.7"/><rect class="cls-25" x="894.72" y="513.49" width="10.11" height="16.7"/><rect class="cls-26" x="513.94" y="361.72" width="68.71" height="17.44"/><path class="cls-28" d="M515,361.72H489l-.79,17.44h25.92Z"/><rect class="cls-26" x="499.68" y="374.69" width="135.56" height="201.25"/><path class="cls-28" d="M501.68,374.69H450.55L449,575.94h51.14Z"/><rect class="cls-23" x="450.68" y="373.05" width="51" height="8.2"/><rect class="cls-24" x="501.68" y="373.05" width="133.56" height="8.2"/><rect class="cls-10" x="468.78" y="398.84" width="10.08" height="15.35"/><rect class="cls-10" x="518.47" y="398.84" width="10.08" height="15.35"/><rect class="cls-10" x="538.18" y="398.84" width="10.08" height="15.35"/><rect class="cls-10" x="557.9" y="398.84" width="10.08" height="15.35"/><rect class="cls-10" x="577.61" y="398.84" width="10.08" height="15.35"/><rect class="cls-10" x="597.32" y="398.84" width="10.08" height="15.35"/><rect class="cls-10" x="617.04" y="398.84" width="10.08" height="15.35"/><rect class="cls-10" x="468.78" y="421.16" width="10.08" height="15.35"/><rect class="cls-10" x="518.47" y="421.16" width="10.08" height="15.35"/><rect class="cls-10" x="538.18" y="421.16" width="10.08" height="15.35"/><rect class="cls-10" x="557.9" y="421.16" width="10.08" height="15.35"/><rect class="cls-10" x="577.61" y="421.16" width="10.08" height="15.35"/><rect class="cls-10" x="597.32" y="421.16" width="10.08" height="15.35"/><rect class="cls-10" x="617.04" y="421.16" width="10.08" height="15.35"/><rect class="cls-10" x="468.78" y="443.52" width="10.08" height="15.35"/><rect class="cls-10" x="518.47" y="443.52" width="10.08" height="15.35"/><rect class="cls-10" x="538.18" y="443.52" width="10.08" height="15.35"/><rect class="cls-10" x="557.9" y="443.52" width="10.08" height="15.35"/><rect class="cls-10" x="577.61" y="443.52" width="10.08" height="15.35"/><rect class="cls-10" x="597.32" y="443.52" width="10.08" height="15.35"/><rect class="cls-10" x="617.04" y="443.52" width="10.08" height="15.35"/><rect class="cls-10" x="468.78" y="467.64" width="10.08" height="15.35"/><rect class="cls-10" x="518.47" y="467.64" width="10.08" height="15.35"/><rect class="cls-10" x="538.18" y="467.64" width="10.08" height="15.35"/><rect class="cls-10" x="557.9" y="467.64" width="10.08" height="15.35"/><rect class="cls-10" x="577.61" y="467.64" width="10.08" height="15.35"/><rect class="cls-10" x="597.32" y="467.64" width="10.08" height="15.35"/><rect class="cls-10" x="617.04" y="467.64" width="10.08" height="15.35"/><rect class="cls-10" x="468.78" y="491.27" width="10.08" height="15.35"/><rect class="cls-10" x="518.47" y="491.27" width="10.08" height="15.35"/><rect class="cls-10" x="538.18" y="491.27" width="10.08" height="15.35"/><rect class="cls-10" x="557.9" y="491.27" width="10.08" height="15.35"/><rect class="cls-10" x="577.61" y="491.27" width="10.08" height="15.35"/><rect class="cls-10" x="597.32" y="491.27" width="10.08" height="15.35"/><rect class="cls-10" x="617.04" y="491.27" width="10.08" height="15.35"/><rect class="cls-10" x="468.78" y="513.58" width="10.08" height="15.35"/><rect class="cls-10" x="518.47" y="513.58" width="10.08" height="15.35"/><rect class="cls-10" x="538.18" y="513.58" width="10.08" height="15.35"/><rect class="cls-10" x="557.9" y="513.58" width="10.08" height="15.35"/><rect class="cls-10" x="577.61" y="513.58" width="10.08" height="15.35"/><rect class="cls-10" x="597.32" y="513.58" width="10.08" height="15.35"/><rect class="cls-10" x="617.04" y="513.58" width="10.08" height="15.35"/><rect class="cls-10" x="468.78" y="535.67" width="10.08" height="15.35"/><rect class="cls-10" x="518.47" y="535.67" width="10.08" height="15.35"/><rect class="cls-10" x="538.18" y="535.67" width="10.08" height="15.35"/><rect class="cls-10" x="557.9" y="535.67" width="10.08" height="15.35"/><rect class="cls-10" x="577.61" y="535.67" width="10.08" height="15.35"/><rect class="cls-10" x="597.32" y="535.67" width="10.08" height="15.35"/><rect class="cls-10" x="617.04" y="535.67" width="10.08" height="15.35"/><rect class="cls-23" x="1105.55" y="457.48" width="81.81" height="133.1"/><rect class="cls-24" x="1181.2" y="457.48" width="55.4" height="133.22"/><rect class="cls-24" x="1105.55" y="457.48" width="81.81" height="5.05"/><rect class="cls-29" x="1181.2" y="457.48" width="55.4" height="5.05"/><rect class="cls-30" x="1160.91" y="478.32" width="9.05" height="12.75"/><rect class="cls-30" x="1139.61" y="478.32" width="9.05" height="12.75"/><rect class="cls-30" x="1118.3" y="478.32" width="9.05" height="12.75"/><rect class="cls-30" x="1160.91" y="499.93" width="9.05" height="12.75"/><rect class="cls-30" x="1139.61" y="499.93" width="9.05" height="12.75"/><rect class="cls-30" x="1118.3" y="499.93" width="9.05" height="12.75"/><rect class="cls-30" x="1160.91" y="520.63" width="9.05" height="12.75"/><rect class="cls-30" x="1139.61" y="520.63" width="9.05" height="12.75"/><rect class="cls-30" x="1118.3" y="520.63" width="9.05" height="12.75"/><rect class="cls-30" x="1160.91" y="542.24" width="9.05" height="12.75"/><rect class="cls-30" x="1139.61" y="542.24" width="9.05" height="12.75"/><rect class="cls-30" x="1118.3" y="542.24" width="9.05" height="12.75"/><rect class="cls-31" x="1208.41" y="520.66" width="7.72" height="12.75"/><rect class="cls-31" x="1208.41" y="499.55" width="7.72" height="12.75"/><rect class="cls-31" x="1208.41" y="478.32" width="7.72" height="12.75"/><rect class="cls-31" x="1208.41" y="543.05" width="7.72" height="12.75"/><rect class="cls-31" x="1204.55" y="568.58" width="15.44" height="22.12"/><rect class="cls-24" x="618.39" y="451.43" width="85.67" height="146.67"/><rect class="cls-23" x="574.37" y="451.44" width="65.96" height="148.44"/><rect class="cls-30" x="597.38" y="466.4" width="35.76" height="12.03"/><rect class="cls-31" x="660.13" y="466.4" width="10.97" height="12.03"/><rect class="cls-30" x="597.38" y="486.94" width="35.76" height="12.03"/><rect class="cls-31" x="660.13" y="486.94" width="10.97" height="12.03"/><rect class="cls-30" x="597.38" y="506.17" width="35.76" height="12.03"/><rect class="cls-31" x="660.13" y="506.17" width="10.97" height="12.03"/><rect class="cls-30" x="597.38" y="524.49" width="35.76" height="12.03"/><rect class="cls-31" x="660.13" y="524.49" width="10.97" height="12.03"/><rect class="cls-30" x="597.38" y="543.89" width="35.76" height="12.03"/><rect class="cls-31" x="660.13" y="543.89" width="10.97" height="12.03"/><rect class="cls-29" x="640.32" y="447.19" width="63.73" height="7.01"/><rect class="cls-24" x="574.37" y="447.19" width="65.96" height="7.01"/><rect class="cls-24" x="819.76" y="495.91" width="100.93" height="99.65"/><rect class="cls-31" x="860.24" y="514.11" width="10.91" height="22.69"/><rect class="cls-31" x="882.7" y="514.11" width="10.91" height="22.69"/><rect class="cls-23" x="778.3" y="495.91" width="43.13" height="99.65"/><rect class="cls-30" x="785.6" y="514.11" width="28.14" height="11.34"/><rect class="cls-24" x="770.94" y="492.94" width="50.48" height="5.94"/><rect class="cls-29" x="821.42" y="492.94" width="99.26" height="5.94"/><g id="front-row"><rect class="cls-24" x="461.19" y="481.83" width="49" height="33.17"/><rect class="cls-23" x="388.74" y="481.83" width="82.17" height="33.17"/><rect class="cls-24" x="465.91" y="513.01" width="62.63" height="82.1"/><rect class="cls-23" x="373.31" y="513.02" width="105.02" height="82.1"/><rect class="cls-29" x="468.8" y="478.64" width="41.39" height="6.38"/><rect class="cls-24" x="388.74" y="478.64" width="82.17" height="6.38"/><rect class="cls-30" x="380.63" y="532.59" width="60.45" height="9.21"/><rect class="cls-31" x="486.19" y="527.47" width="7.98" height="9.72"/><rect class="cls-31" x="396.96" y="493.56" width="7.98" height="9.72"/><rect class="cls-31" x="502.21" y="527.73" width="7.98" height="9.72"/><rect class="cls-31" x="486.19" y="544.35" width="7.98" height="9.72"/><rect class="cls-29" x="475.64" y="509.83" width="52.9" height="6.38"/><rect class="cls-24" x="373.31" y="509.83" width="105.02" height="6.38"/></g><rect class="cls-24" x="225.03" y="501.81" width="109.63" height="92.4"/><rect class="cls-31" x="244.59" y="518.68" width="11.86" height="21.03"/><rect class="cls-31" x="269" y="518.68" width="11.86" height="21.03"/><rect class="cls-31" x="293.4" y="518.68" width="11.86" height="21.03"/><rect class="cls-23" x="179.99" y="501.81" width="46.85" height="92.4"/><rect class="cls-30" x="187.92" y="518.68" width="30.57" height="10.52"/><rect class="cls-24" x="204.5" y="574.68" width="12.47" height="19.53"/><rect class="cls-24" x="179.99" y="498.84" width="49.02" height="5.94"/><rect class="cls-29" x="226.83" y="498.84" width="107.82" height="5.94"/><path class="cls-32" d="M366.48,545l.42-3.91s-46.45.14-81,.14l-42,17.64,101.67-1.51Z"/><rect class="cls-24" x="286.15" y="544.97" width="78.16" height="49.26"/><path class="cls-33" d="M286.15,545l-34.08,13.88-.75,35.37h34.83Z"/><rect class="cls-30" x="277.04" y="557.93" width="5.42" height="11.66"/><rect class="cls-24" x="260.74" y="574.91" width="10.62" height="19.32"/><g id="trees"><path class="cls-34" d="M1200.71,503.85c2-4.69,7.51-4.21,9.85-1.65,6.56,7.18,11.39,58.27,10.88,63.15-.86,8.3-3.52,10.39-7.6,12.27-2.25,1-9.16,1.73-13.82.52-3.51-.91-7.07-5.88-8-11.75C1190.86,558.27,1192.76,523,1200.71,503.85Z"/><path class="cls-35" d="M1203.48,597.66c0-.22.51-28.16.51-28.16l-4.66-3.8v-1.21l5.18,3.11.52-26.26h.86l1,9.16,3.46-1.38.17.86-2.59,1.9.17,17.1,4-1.38.18,1.38-4,2.59v26.09S1203.47,597.88,1203.48,597.66Z"/><path class="cls-34" d="M1093,480.51c2-4.69,7.5-4.21,9.84-1.65,6.57,7.18,11.4,58.27,10.89,63.15-.87,8.3-3.52,10.39-7.6,12.27-2.25,1-9.16,1.73-13.82.52-3.52-.91-7.08-5.88-8-11.75C1083.14,534.93,1085,499.61,1093,480.51Z"/><path class="cls-35" d="M1095.75,574.32c0-.22.52-28.16.52-28.16l-4.66-3.8v-1.21l5.18,3.11.52-26.26h.86l1,9.16,3.45-1.39.17.87-2.59,1.9.18,17.1,4-1.38.17,1.38-4,2.59v26.09S1095.75,574.53,1095.75,574.32Z"/><path class="cls-34" d="M968.49,501.93c2-4.69,7.51-4.21,9.85-1.65,6.56,7.18,11.39,58.27,10.88,63.15-.86,8.3-3.52,10.39-7.6,12.27-2.25,1-9.16,1.73-13.82.52-3.51-.91-7.07-5.88-7.95-11.75C958.64,556.35,960.54,521,968.49,501.93Z"/><path class="cls-35" d="M971.25,595.74c0-.22.52-28.16.52-28.16l-4.66-3.8v-1.21l5.18,3.11.52-26.26h.86l1,9.16,3.45-1.39.18.87-2.59,1.9.17,17.1,4-1.38.18,1.38-4,2.59v26.09S971.25,596,971.25,595.74Z"/><path class="cls-34" d="M938.86,472.81c2.34-5.61,9-5,11.78-2,7.85,8.58,13.63,69.68,13,75.53-1,9.92-4.21,12.42-9.09,14.67-2.69,1.24-11,2.07-16.53.62-4.2-1.09-8.46-7-9.51-14C927.09,537.9,929.36,495.65,938.86,472.81Z"/><path class="cls-35" d="M942.17,585c0-.26.62-33.68.62-33.68l-5.58-4.55v-1.44l6.2,3.72.62-31.41h1l1.24,11,4.14-1.65.2,1-3.1,2.27.21,20.46,4.75-1.65.21,1.65-4.75,3.1V585S942.16,585.27,942.17,585Z"/><path class="cls-36" d="M376.12,570.42a15.4,15.4,0,0,1,11.74-5.52,15.94,15.94,0,0,1,15.26,12.45,14.29,14.29,0,0,1,13.95,14.35c0,7.92-63.4,5.37-63.4-1.48,0-5.79,5.6-10.66,13.17-12a8.56,8.56,0,0,1,8.29-7.83A8.1,8.1,0,0,1,376.12,570.42Z"/><path class="cls-36" d="M1185.53,569.05a15.38,15.38,0,0,0-11.2-6.53,15.94,15.94,0,0,0-16.3,11.05,14.3,14.3,0,0,0-15.15,13.08c-.7,7.89,62.67,10.93,63.27,4.1.51-5.76-4.64-11.11-12.05-13.14a8.55,8.55,0,0,0-7.57-8.53A8.41,8.41,0,0,0,1185.53,569.05Z"/><g id="yellow-tree"><path class="cls-37" d="M1184.2,518.38c5.18.48,8,12.12,12.29,19.86a37.25,37.25,0,0,1,4.41,20c-.68,14.58-5.15,20.16-17.69,19.33-14.35-1-17-11.86-17.49-22s4.08-15.39,5.65-20.59C1173.85,526.67,1180.58,518.05,1184.2,518.38Z"/><path class="cls-38" d="M1183,591.91a74.24,74.24,0,0,1,.47-10c.7-7.7,1.4-9.86,1-9.83a24.48,24.48,0,0,1-5.88-4.2,16.74,16.74,0,0,1-4.33-7.84c2,2.23,3.53,5,6.21,6.58a7,7,0,0,0,4.46,1.29s-1.25-7.56-2.69-15.12a49.05,49.05,0,0,1-.7-15.12c.28-.17,3.9,21.25,5.66,20.08,2-1.33,7.08-13.3,7.08-13.3a41,41,0,0,1-1.91,8.9c-.93,2.51-3.31,5.88-4.81,8.1,0,0,.62,11.08.28,21.67a47.89,47.89,0,0,0,.54,8.55,12.59,12.59,0,0,1-2.34.55A22.84,22.84,0,0,1,1183,591.91Z"/></g><path class="cls-34" d="M1265.78,501.93c2-4.69,7.5-4.21,9.84-1.65,6.57,7.18,11.4,58.27,10.89,63.15-.87,8.3-3.52,10.39-7.6,12.27-2.25,1-9.16,1.73-13.82.52-3.52-.91-7.08-5.88-7.95-11.75C1255.93,556.35,1257.83,521,1265.78,501.93Z"/><path class="cls-35" d="M1268.54,595.74c0-.22.52-28.16.52-28.16l-4.67-3.8v-1.21l5.19,3.11.52-26.26h.86l1,9.16,3.45-1.39.17.87L1273,550l.18,17.1,4-1.38.17,1.38-4,2.59v26.09S1268.54,596,1268.54,595.74Z"/><path class="cls-36" d="M1296.23,564.84c-3-3.71-9.24-6.28-14.25-6.46-7.91-.27-18.83,4.48-21,12-8.31-.14-9.34,7.19-9.63,15.52s68.05,8.1,68.3.82c.22-6.16-5.63-11.55-13.73-13.28a9.16,9.16,0,0,0-8.63-8.65A9.49,9.49,0,0,0,1296.23,564.84Z"/><path class="cls-36" d="M1360.65,563.93c-3-3.71-5.75-5.61-10.77-5.54-7.9.1-12.08,3.88-15.25,10.53-8.31-.14-21.74,11.44-22,19.77s69.79,9.25,72.88,2.65c2.6-5.56-1.75-19.85-15.12-18.79a9.17,9.17,0,0,0-8.63-8.64A7.76,7.76,0,0,0,1360.65,563.93Z"/><path class="cls-36" d="M1424.87,566.91c-3-3.71-5.76-5.61-10.77-5.55-7.91.11-12.08,3.89-15.25,10.54-8.32-.14-21.74,11.43-22,19.77s69.79,9.25,72.87,2.65c2.6-5.56-1.74-19.85-15.11-18.79a9.2,9.2,0,0,0-8.64-8.65A9.49,9.49,0,0,0,1424.87,566.91Z"/><path class="cls-36" d="M1474.52,564c-3-3.71-5.75-5.61-10.77-5.54-7.9.1-12.08,3.89-15.25,10.54-8.31-.15-21.74,11.43-22,19.76s73.6,1.49,73.6,1.49,1.14-17.74-15.84-17.63a9.16,9.16,0,0,0-8.63-8.64A7.79,7.79,0,0,0,1474.52,564Z"/><ellipse class="cls-39" cx="1393.73" cy="577.49" rx="14.49" ry="13.33" transform="translate(-114.9 575.87) rotate(-22.45)"/><ellipse class="cls-39" cx="1251.5" cy="590.23" rx="25.02" ry="10.33"/><ellipse class="cls-39" cx="1327.67" cy="565.16" rx="17.09" ry="16.05"/><ellipse class="cls-39" cx="1287.04" cy="564.12" rx="16.95" ry="13.37"/><ellipse class="cls-39" cx="1262.12" cy="565.34" rx="10.62" ry="8.21"/><ellipse class="cls-39" cx="1251.36" cy="585.13" rx="14.1" ry="10.71"/><g id="yellow-tree1"><path class="cls-37" d="M1248.71,517.49c5.18.47,8,12.11,12.28,19.85a37.15,37.15,0,0,1,4.42,19.95c-.68,14.58-5.16,20.16-17.7,19.33-14.34-1-17-11.86-17.48-22s4.07-15.39,5.64-20.59C1238.36,525.77,1245.08,517.15,1248.71,517.49Z"/><path class="cls-38" d="M1247.54,591a74.89,74.89,0,0,1,.46-10c.7-7.7,1.41-9.86,1-9.83a24.2,24.2,0,0,1-5.87-4.2,16.74,16.74,0,0,1-4.33-7.84c2,2.24,3.52,5,6.2,6.59a7,7,0,0,0,4.46,1.28s-1.24-7.56-2.69-15.12c-1.53-8-.85-15-.69-15.12s3.9,21.25,5.66,20.08c2-1.33,7.07-13.3,7.07-13.3a41.3,41.3,0,0,1-1.9,8.9c-.93,2.51-3.31,5.88-4.81,8.1,0,0,.61,11.08.28,21.68a47.83,47.83,0,0,0,.54,8.54,13.21,13.21,0,0,1-2.34.56A24,24,0,0,1,1247.54,591Z"/></g><g id="yellow-tree2"><path class="cls-37" d="M1314.41,519.52c5.19.47,8,12.11,12.29,19.85a37.27,37.27,0,0,1,4.42,20c-.69,14.58-5.16,20.16-17.7,19.33-14.35-.95-17-11.86-17.48-22s4.07-15.39,5.64-20.59C1304.07,527.8,1310.79,519.19,1314.41,519.52Z"/><path class="cls-38" d="M1313.25,593a72.61,72.61,0,0,1,.46-10c.7-7.7,1.41-9.85,1-9.82a24.89,24.89,0,0,1-5.87-4.2,16.86,16.86,0,0,1-4.34-7.85c2,2.24,3.53,5,6.21,6.59a7,7,0,0,0,4.46,1.28s-1.25-7.56-2.69-15.11a49.12,49.12,0,0,1-.7-15.13c.28-.17,3.91,21.26,5.67,20.09,2-1.34,7.07-13.3,7.07-13.3a40.92,40.92,0,0,1-1.91,8.89c-.92,2.51-3.31,5.89-4.81,8.1,0,0,.62,11.08.29,21.68a47.48,47.48,0,0,0,.53,8.55,12.59,12.59,0,0,1-2.34.55A24,24,0,0,1,1313.25,593Z"/></g><g id="yellow-tree3"><path class="cls-37" d="M1368.4,520.61c5.18.48,7.95,12.12,12.28,19.85a37.18,37.18,0,0,1,4.42,19.95c-.68,14.58-5.16,20.17-17.7,19.33-14.34-1-17-11.86-17.48-22s4.07-15.39,5.64-20.59C1358.05,528.9,1364.77,520.28,1368.4,520.61Z"/><path class="cls-38" d="M1367.23,594.14a75,75,0,0,1,.46-10c.7-7.69,1.41-9.85,1-9.82a24.54,24.54,0,0,1-5.87-4.2,16.78,16.78,0,0,1-4.33-7.84c2,2.23,3.52,5,6.2,6.58a7,7,0,0,0,4.46,1.28s-1.24-7.55-2.69-15.11c-1.53-8-.85-15-.69-15.12s3.9,21.25,5.66,20.08c2-1.34,7.07-13.3,7.07-13.3a41.27,41.27,0,0,1-1.9,8.89c-.93,2.51-3.31,5.89-4.81,8.11,0,0,.61,11.07.28,21.67a48,48,0,0,0,.54,8.55,12.59,12.59,0,0,1-2.34.55A22.66,22.66,0,0,1,1367.23,594.14Z"/></g><path class="cls-36" d="M80.74,550.64c-5.33-7.06-16.53-11.93-25.52-12.25-14.16-.49-33.77,8.62-37.65,23C-2,564.36.06,590.23.06,590.23s122.1,16,122.59,2.08c.41-11.74-10.05-22-24.55-25.27-.63-9-7.2-16.17-15.44-16.45A13.6,13.6,0,0,0,80.74,550.64Z"/><path class="cls-36" d="M160,563.93c-3-3.71-5.76-5.61-10.78-5.54-7.9.1-12.08,3.88-15.25,10.53-8.31-.14-21.74,11.44-22,19.77s69.8,6.15,72.88-.45c2.6-5.56-7-14-15.12-15.69a9.16,9.16,0,0,0-8.63-8.64A7.62,7.62,0,0,0,160,563.93Z"/><ellipse class="cls-39" cx="50.7" cy="585.13" rx="14.1" ry="10.71"/><g id="yellow-tree4"><path class="cls-37" d="M112.82,522c5.18.47,8,12.12,12.28,19.85a37.18,37.18,0,0,1,4.42,20c-.68,14.58-5.16,20.16-17.7,19.33-14.35-.95-16.95-11.86-17.48-22s4.07-15.39,5.64-20.59C102.47,530.31,109.19,521.7,112.82,522Z"/><path class="cls-38" d="M111.65,595.55a74.89,74.89,0,0,1,.46-10c.7-7.69,1.41-9.85,1-9.82a24.89,24.89,0,0,1-5.87-4.2,16.75,16.75,0,0,1-4.33-7.85c2,2.24,3.52,5,6.2,6.59a7,7,0,0,0,4.46,1.28s-1.24-7.56-2.69-15.11a49.41,49.41,0,0,1-.7-15.12c.29-.18,3.91,21.25,5.67,20.08,2-1.34,7.07-13.3,7.07-13.3A41.27,41.27,0,0,1,121,557c-.93,2.51-3.31,5.89-4.82,8.1,0,0,.62,11.08.29,21.68a48.59,48.59,0,0,0,.53,8.55,12.42,12.42,0,0,1-2.33.55A24,24,0,0,1,111.65,595.55Z"/></g><g id="yellow-tree5"><path class="cls-34" d="M70.6,553.84c3.85-.08,15.62-.5,20,7.24,2.44,4.36,5.15,9.35,3.32,18-2.54,12-10.68,15.83-23.22,15-14.34-.95-16.95-11.86-17.48-22S62.89,554,70.6,553.84Z"/><path class="cls-38" d="M75.66,598.08l-4.37-1.22s1.07-8.32.65-8.29a24.89,24.89,0,0,1-5.87-4.2c-3.24-3.09-.8-2.88,1.87-1.26a7.05,7.05,0,0,0,4.47,1.28l-3-10,4.65,4,5-7.78s-2,10.56-3.45,12.78Z"/></g><g id="yellow-tree6"><path class="cls-34" d="M1472.71,551.59c3.85-.08,15.62-.5,20,7.24,2.45,4.36,5.16,9.35,3.33,18-2.54,12-10.68,15.84-23.22,15-14.34-.95-17-11.86-17.48-22S1465,551.75,1472.71,551.59Z"/><path class="cls-38" d="M1477.77,595.83l-4.37-1.22s1.07-8.32.65-8.29a24.89,24.89,0,0,1-5.87-4.2c-3.24-3.09-.8-2.88,1.87-1.26a7,7,0,0,0,4.46,1.28l-3-10,4.66,4,5-7.78s-2,10.56-3.45,12.78Z"/></g><g id="yellow-tree7"><path class="cls-37" d="M167.73,520.61c5.18.48,8,12.12,12.29,19.85a37.28,37.28,0,0,1,4.41,19.95c-.68,14.58-5.16,20.17-17.69,19.33-14.35-1-17-11.86-17.49-22s4.08-15.39,5.65-20.59C157.38,528.9,164.11,520.28,167.73,520.61Z"/><path class="cls-38" d="M166.56,594.14a74.4,74.4,0,0,1,.47-10c.7-7.69,1.4-9.85,1-9.82a24.48,24.48,0,0,1-5.88-4.2,16.78,16.78,0,0,1-4.33-7.84c2,2.23,3.53,5,6.21,6.58a7,7,0,0,0,4.46,1.28s-1.25-7.55-2.69-15.11a49,49,0,0,1-.7-15.12c.28-.18,3.9,21.25,5.66,20.08,2-1.34,7.08-13.3,7.08-13.3a40.92,40.92,0,0,1-1.91,8.89c-.93,2.51-3.31,5.89-4.81,8.11,0,0,.61,11.07.28,21.67a48,48,0,0,0,.54,8.55,12.59,12.59,0,0,1-2.34.55A22.84,22.84,0,0,1,166.56,594.14Z"/></g><path class="cls-34" d="M759.3,478.86c2.51-5.2,9.64-4.66,12.65-1.82,8.43,7.95,14.63,64.56,14,70-1.11,9.19-4.52,11.51-9.76,13.59-2.89,1.15-11.76,1.92-17.75.58-4.52-1-9.09-6.51-10.21-13C746.66,539.17,749.1,500,759.3,478.86Z"/><path class="cls-35" d="M762.85,582.82c0-.24.67-31.21.67-31.21l-6-4.21v-1.34l6.65,3.45.67-29.1H766l1.33,10.14,4.44-1.53.22,1-3.33,2.11.22,18.95,5.11-1.53.22,1.53-5.1,2.87v28.91S762.85,583.06,762.85,582.82Z"/><g id="yellow-tree8"><path class="cls-37" d="M738.09,495c6.66.52,10.22,13.42,15.78,22a36.7,36.7,0,0,1,5.67,22.1c-.87,16.17-6.62,22.35-22.72,21.43-18.43-1.06-21.78-13.14-22.46-24.42s5.23-17.05,7.25-22.81C724.8,504.15,733.44,494.6,738.09,495Z"/><path class="cls-38" d="M736.6,576.45a69.07,69.07,0,0,1,.59-11.13c.9-8.53,1.8-10.92,1.27-10.89a32.27,32.27,0,0,1-7.54-4.65,17.9,17.9,0,0,1-5.57-8.69c2.6,2.47,4.53,5.5,8,7.29a10,10,0,0,0,5.73,1.42s-1.6-8.37-3.45-16.74c-2-8.91-1.1-16.66-.9-16.76.36-.2,5,23.55,7.28,22.25,2.59-1.48,9.08-14.74,9.08-14.74a40.18,40.18,0,0,1-2.45,9.86c-1.19,2.78-4.25,6.52-6.18,9,0,0,.79,12.28.37,24a45.28,45.28,0,0,0,.69,9.47,17.87,17.87,0,0,1-3,.61A34.71,34.71,0,0,1,736.6,576.45Z"/></g><g id="yellow-tree9"><path class="cls-37" d="M842.06,508.63c6.65.52,10.21,13.43,15.78,22a36.79,36.79,0,0,1,5.67,22.11c-.88,16.16-6.63,22.34-22.73,21.42C822.35,573.1,819,561,818.33,549.75s5.23-17.06,7.24-22.82C828.77,517.81,837.4,508.26,842.06,508.63Z"/><path class="cls-38" d="M840.56,590.11a70.74,70.74,0,0,1,.59-11.13c.9-8.53,1.81-10.92,1.27-10.89a32.08,32.08,0,0,1-7.54-4.65,17.84,17.84,0,0,1-5.56-8.69c2.59,2.47,4.53,5.5,8,7.29a10,10,0,0,0,5.73,1.42s-1.61-8.37-3.46-16.74c-2-8.9-1.09-16.66-.9-16.76.36-.2,5,23.55,7.28,22.25,2.59-1.48,9.08-14.74,9.08-14.74a39.67,39.67,0,0,1-2.45,9.86c-1.18,2.78-4.25,6.52-6.17,9,0,0,.79,12.28.36,24a46.09,46.09,0,0,0,.69,9.47,18.69,18.69,0,0,1-3,.62A34.25,34.25,0,0,1,840.56,590.11Z"/></g><path class="cls-34" d="M430.23,497.1c1.95-4.69,7.5-4.21,9.85-1.65,6.56,7.18,11.39,58.26,10.88,63.15-.86,8.29-3.52,10.38-7.6,12.26-2.25,1-9.16,1.73-13.82.52-3.51-.91-7.07-5.87-8-11.74C420.38,551.52,422.28,516.19,430.23,497.1Z"/><path class="cls-35" d="M433,590.9c0-.21.52-28.15.52-28.15l-4.66-3.81v-1.2l5.18,3.1.52-26.25h.86l1,9.15,3.45-1.38.18.86-2.6,1.9.18,17.11,4-1.39.17,1.39-4,2.59V590.9S433,591.12,433,590.9Z"/><g id="yellow-tree10"><path class="cls-37" d="M415.14,517.09c5.18.48,7.95,12.12,12.28,19.86a37.11,37.11,0,0,1,4.42,19.94c-.68,14.59-5.16,20.17-17.7,19.33-14.34-1-16.95-11.85-17.48-22s4.07-15.38,5.64-20.58C404.79,525.38,411.52,516.76,415.14,517.09Z"/><path class="cls-38" d="M414,590.62a75,75,0,0,1,.46-10c.7-7.69,1.41-9.85,1-9.82a24.54,24.54,0,0,1-5.87-4.2,16.74,16.74,0,0,1-4.33-7.84c2,2.23,3.53,5,6.2,6.58a7,7,0,0,0,4.46,1.28s-1.24-7.55-2.69-15.11c-1.53-8-.85-15-.69-15.12s3.9,21.25,5.66,20.08c2-1.34,7.07-13.3,7.07-13.3a41.15,41.15,0,0,1-1.9,8.89c-.93,2.51-3.31,5.89-4.81,8.11,0,0,.61,11.08.28,21.67a48,48,0,0,0,.54,8.55,12.59,12.59,0,0,1-2.34.55A22.66,22.66,0,0,1,414,590.62Z"/></g></g><path class="cls-40" d="M1155.29,577.91h-89.38v21.44h89.38Zm21.09,5.16H1161v15.74h15.35Zm-287.27-5.16H832.86V596.2h56.25Zm-282-8h43.76v24.59H449.38V570h8.48v-7.76h8v-7h13.94v7H504V547.6H607.13Zm424.58-4.5h-16.56v7.16h16.56Z"/><rect class="cls-41" x="616.88" y="543.54" width="136.38" height="49.35"/><rect class="cls-42" x="661.38" y="559.39" width="81.05" height="33.5"/><rect class="cls-43" x="665.82" y="562.93" width="71.06" height="29.96"/><path class="cls-44" d="M736.88,590h-71v1.11h71Zm0-2.8h-71v1.12h71Zm0-2.8h-71v1.12h71Zm0-2.8h-71v1.11h71Zm0-2.81h-71v1.12h71Zm0-2.79h-71v1.11h71Zm0-2.8h-71v1.11h71Zm0-2.8h-71v1.11h71Zm0-2.81h-71v1.12h71Zm0-2.79h-71v1.11h71Z"/><rect class="cls-31" x="624.25" y="559.39" width="26.64" height="6.06"/><rect class="cls-42" x="616.88" y="540.94" width="136.38" height="5.2"/><rect class="cls-41" x="1034.93" y="543.71" width="86.33" height="52.49"/><rect class="cls-42" x="1063.1" y="569.95" width="51.3" height="26.25"/><rect class="cls-43" x="1065.91" y="572.73" width="44.98" height="23.47"/><path class="cls-40" d="M1110.89,593.9h-45v.87h45Zm0-2.2h-45v.88h45Zm0-2.19h-45v.88h45Zm0-2.19h-45v.87h45Zm0-2.2h-45V586h45Zm0-2.19h-45v.88h45Zm0-2.19h-45v.87h45Zm0-2.2h-45v.88h45Zm0-2.19h-45v.87h45Zm0-2.2h-45V575h45Z"/><rect class="cls-42" x="1034.93" y="540.94" width="86.33" height="5.53"/><rect class="cls-41" x="912.54" y="545.29" width="78.16" height="49.26"/><rect class="cls-30" x="977.8" y="558.25" width="5.42" height="11.66"/><path class="cls-44" d="M912.54,545.28l-34.08,13.89-.75,35.37h34.83Z"/><rect class="cls-31" x="901.87" y="581.62" width="5.94" height="5.83"/><rect class="cls-41" x="988.21" y="569.91" width="53.86" height="24.63"/><rect class="cls-41" x="749.85" y="555.18" width="83.01" height="45.46"/><rect class="cls-45" x="817.89" y="565.84" width="6.7" height="5.71"/><rect class="cls-45" x="817.89" y="577.91" width="6.7" height="5.71"/><rect class="cls-42" x="749.85" y="555.18" width="83.01" height="5.53"/><g id="Bus"><g id="Path_288" data-name="Path 288"><path class="cls-42" d="M1447.69,571.69l-1-1.39c0-.11-.11-.2-.23-.26a1,1,0,0,0-.45-.09h-18.41a1.26,1.26,0,0,0-.57.09c-.23,0-.34.14-.34.26l-.91,1.39Z"/></g><g id="Path_282" data-name="Path 282"><path class="cls-41" d="M1455.9,571.29l-57.41-.1c-3.39,0-3.64-.28-3.64,2.59v9.91c0,1.91-.11,3.76-.11,4.83,0,.28-.06.34.11.47s.55.07.55.07l58.85-.07h5.35c.42,0,.39,0,.58-.19a.73.73,0,0,0,.2-.49v-6.87C1460.38,578.57,1459.29,571.29,1455.9,571.29Z"/></g><path class="cls-44" d="M1456.11,574.08l-1-1.78-60.24-.1v7.59c17.07,0,32.25.26,49.32.26,4.08,0,11.09,2,15.52,2.68Z"/><path class="cls-44" d="M1450.47,589a4,4,0,0,0,0-.6c0-2.5-.77-4.58-3.89-4.54s-3.89,2-3.89,4.54q0,.3,0,.6Z"/><path class="cls-44" d="M1417.86,589a6,6,0,0,0,0-.61c0-2.57-.93-4.7-4.69-4.66s-4.69,2.09-4.69,4.66a4.08,4.08,0,0,0,0,.61Z"/><g id="Ellipse_170" data-name="Ellipse 170"><ellipse class="cls-46" cx="1413.21" cy="587.87" rx="3.98" ry="2.69"/></g><g id="Ellipse_171" data-name="Ellipse 171"><ellipse class="cls-46" cx="1446.62" cy="587.87" rx="2.84" ry="2.69"/></g><g id="Path_285" data-name="Path 285"><path class="cls-43" d="M1459.66,582.5l-13.75-3.59-48.76-.16v-6.5l57.17,0a5,5,0,0,1,2,.26c1.13.59,2,2.77,2.5,4.39A43.43,43.43,0,0,1,1459.66,582.5Z"/></g><g id="Rectangle_872" data-name="Rectangle 872"><path class="cls-47" d="M1407.61,573.55a.6.6,0,0,0-.6-.61h-8.16a.6.6,0,0,0-.6.61v3.85a.6.6,0,0,0,.6.61H1407a.6.6,0,0,0,.6-.61Z"/></g><g id="Rectangle_873" data-name="Rectangle 873"><path class="cls-47" d="M1418.21,573.5a.56.56,0,0,0-.56-.56h-7.8a.56.56,0,0,0-.56.56v4a.56.56,0,0,0,.56.56h7.8a.56.56,0,0,0,.56-.56Z"/></g><g id="Rectangle_874" data-name="Rectangle 874"><path class="cls-47" d="M1424.93,573.55a.61.61,0,0,0-.61-.61h-3.83a.6.6,0,0,0-.6.61v3.86a.6.6,0,0,0,.6.6h3.83a.6.6,0,0,0,.61-.6Z"/></g><g id="Rectangle_875" data-name="Rectangle 875"><path class="cls-47" d="M1436.15,573.4a.47.47,0,0,0-.46-.46h-8.63a.46.46,0,0,0-.45.46v4.16a.45.45,0,0,0,.45.45h8.63a.46.46,0,0,0,.46-.45Z"/></g><g id="Rectangle_876" data-name="Rectangle 876"><path class="cls-47" d="M1443.92,573.55a.61.61,0,0,0-.61-.61h-4.87a.61.61,0,0,0-.61.61v3.85a.61.61,0,0,0,.61.61h4.87a.61.61,0,0,0,.61-.61Z"/></g><g id="Path_287" data-name="Path 287"><path class="cls-31" d="M1451.8,573.4c0-.21-.24-.36-.63-.36-1.54,0-2.68,0-4.16,0-.26,0-.41.12-.41.38,0,1.69,0,3.15,0,4.8l5.2,1.33S1451.9,574.48,1451.8,573.4Z"/></g><g id="Path_286" data-name="Path 286"><path class="cls-31" d="M1455.27,573c-.39,0-1.45,0-2,0-.26,0-.43.32-.43.48,0,2.08,0,4.17,0,6.25l5.73,1.49a22.47,22.47,0,0,0-.77-4.83,8.69,8.69,0,0,0-1.35-2.88A1.66,1.66,0,0,0,1455.27,573Z"/></g></g></g><g id="front-line"><rect class="cls-48" x="0.06" y="589.94" width="1500" height="18.8"/></g></g></g></svg>