<svg xmlns="http://www.w3.org/2000/svg" viewBox="0 0 1500.02 608.74"><defs><style>.cls-1{fill:#592871;}.cls-1,.cls-10,.cls-11,.cls-14,.cls-19,.cls-2,.cls-4,.cls-9{fill-rule:evenodd;}.cls-2{fill:#6a3783;}.cls-3{fill:#1e0751;}.cls-4,.cls-5{fill:#606ad4;}.cls-11,.cls-6{fill:#84a2e5;}.cls-10,.cls-7{fill:#5460b6;}.cls-8{fill:#2f2467;}.cls-22,.cls-9{fill:#2b3c7b;}.cls-12{fill:#7bd9cc;}.cls-13{fill:#4fcbba;}.cls-14{fill:#394fa2;}.cls-15{fill:#45509d;}.cls-16{fill:#6388d9;}.cls-17{fill:#3e3591;}.cls-18{fill:#6176ba;}.cls-19{fill:#332b7b;}.cls-20{fill:#120738;}.cls-21{fill:#1f0b4f;}.cls-23{fill:#212b55;}.cls-24{fill:#1cd2b9;}.cls-25{fill:#907cd8;}.cls-26{fill:#6d58b7;}.cls-27{fill:#449c9e;}.cls-28{fill:#235d5e;}.cls-29{fill:#423789;}.cls-30{fill:#9f65bf;}.cls-31{fill:#834597;}.cls-32{fill:#1f0119;}.cls-33{fill:#3b012e;}.cls-34{fill:#643a5c;}.cls-35{fill:#e5a384;}.cls-36{fill:#9e6467;}.cls-37{fill:#5c0147;}</style></defs><g id="Layer_2" data-name="Layer 2"><g id="Layer_1-2" data-name="Layer 1"><g id="clouds-17"><g id="big-cloud"><path class="cls-1" d="M1212.27,129.63C1191.88,55,1122.87,0,1041,0,973.57,0,935,30.2,905,85c-6.71-2.85-27.36-5.8-53.73,4.58-34.92,13.76-55.72,37.43-55.72,85.85,0,14.73-.14,18.25,4.84,30.44-114-51.27-196.65,10.2-226.53,56.48-13.56,21-14.16,50.57-12.23,54.92-42.94-43-125.13-23.48-115.69,52.62.52,4.07,15.59,17.42,11.77,18.42-14.88,3.87-165.85,7-320.84,27.49C100,420.71,55.46,421.69,25.71,461,9.94,481.86,9,526.29,29.38,550.37c7.91,9.34,40.24,14,52.87,13.87,232.93-2.4,1294.7-5.09,1332.25-9.48,85.64-10,71-130,49.67-157.92-16.14-21.14-33.89-46.46-95.34-48.74-6.58-.23-13.09,1.61-8.32-2,24.22-18.39,3.16-104.78-69.76-82.89-.86.26,0-.91,0-.91C1290.44,200,1257.51,147.36,1212.27,129.63Z"/></g><g id="big-cloud1"><path class="cls-2" d="M1183.44,231.57c-14.25-46.14-62.45-80.13-119.66-80.13-47.09,0-74,18.67-95,52.57-4.68-1.76-19.11-3.59-37.53,2.83-24.39,8.51-38.93,23.14-38.93,53.07,0,9.1-.09,11.28,3.38,18.82C816,247,758.33,285,737.45,313.64c-9.47,13-9.89,31.27-8.55,33.95-30-26.58-87.4-14.51-80.81,32.53.36,2.52,10.89,10.77,8.22,11.39-10.4,2.39-38.47,5.63-147.1,14-39,3-74.49,12.85-92.78,31.79-11.73,12.14-21.47,27.92-7.26,42.81,5.52,5.77,34,11.84,42.85,11.77,162.72-1.49,846.46,5.21,872.69,2.5,59.83-6.2,49.57-80.38,34.7-97.62-11.27-13.07-23.68-28.72-66.6-30.13-4.6-.14-9.15,1-5.81-1.24,16.91-11.36,2.2-64.77-48.74-51.24-.6.16,0-.56,0-.56C1238.05,275.1,1215,242.53,1183.44,231.57Z"/></g></g><g id="_17" data-name=" 17"><rect class="cls-3" x="163.4" y="484.83" width="23.56" height="15.69"/><path class="cls-4" d="M1360.54,370.72v8.77h80.29L1442,508.67h19.68l-2.47,42.43-271.79,7.67H840.56V561h-17.7v16.26H773.08V558.77H651.5V592.5H594.25V558.77H481.89V458.56h28.62V282h48.4v26.31h24.27v109.1h11.07l-1-210.73h6.86V195.16h18.66v-6.47h22.72v6.47h4.3v11.47h4.7l-1.95,108.43,31.06-.56.52-66.94,12.16-.08,0-6.21,22.58-.09.09,6.16,8-.05L722.53,316l47.64-.9,1.68-126.19h5.74l19.22-22.44L816,188.87h5.6v20.67h17.69l1.24,148.82h47.3V323.24H977.3v35.12h34.63v59h76.71V204h13.15V183.16h70.79V204h14.82V508.67h150V493.52l-39.65.79.72-139,28.06-.79,5.78,16.17Zm-985.22,3.93v-31l22.54-.44v-8.78l32.69-26.34V543.59H389.33l-17.11,11.47,2.72-9Zm865-100.53h32.88l.8,19.15,16.75,21.2v30l-49.63-21.2Z"/><rect class="cls-5" x="963.87" y="244.92" width="109.51" height="167.57"/><rect class="cls-5" x="1119.17" y="312.74" width="185.31" height="183.06"/><rect class="cls-5" x="1183.49" y="256.28" width="35.75" height="90.32"/><rect class="cls-5" x="1111.02" y="156.8" width="8.16" height="38.05"/><rect class="cls-5" x="1125.74" y="156.8" width="8.16" height="38.05"/><rect class="cls-5" x="975.42" y="230.14" width="51.7" height="26.14"/><rect class="cls-5" x="899.66" y="267.8" width="75.87" height="80.1"/><rect class="cls-5" x="739.57" y="220.48" width="46.02" height="117.74"/><rect class="cls-5" x="485.06" y="316.82" width="81.1" height="116.68"/><rect class="cls-5" x="26.26" y="541.92" width="264.18" height="50.59"/><rect class="cls-5" x="116.22" y="446.47" width="42.13" height="111.39"/><rect class="cls-5" x="63.92" y="476.13" width="42.58" height="81.72"/><rect class="cls-5" x="71.13" y="466.99" width="28.15" height="18.29"/><rect class="cls-5" x="123.21" y="437.32" width="28.15" height="18.29"/><rect class="cls-5" x="1437" y="515.02" width="49.33" height="67.71"/><rect class="cls-3" y="553.31" width="61.65" height="45.49"/><rect class="cls-6" x="685.18" y="182.15" width="60.3" height="272.56"/><rect class="cls-7" x="717.52" y="230.03" width="18.44" height="5"/><rect class="cls-7" x="711.58" y="194.84" width="3.75" height="5"/><rect class="cls-7" x="717.52" y="194.84" width="3.75" height="5"/><rect class="cls-7" x="732.5" y="211.38" width="3.75" height="5"/><rect class="cls-7" x="685.18" y="202.7" width="25.2" height="5"/><rect class="cls-7" x="706.72" y="230.03" width="3.66" height="5"/><rect class="cls-6" x="602.26" y="231.84" width="72.78" height="328.97"/><rect class="cls-7" x="609.67" y="239.64" width="7.77" height="8.36"/><rect class="cls-7" x="609.67" y="256.27" width="7.77" height="8.36"/><rect class="cls-7" x="609.67" y="272.9" width="7.77" height="8.36"/><rect class="cls-7" x="609.67" y="289.53" width="7.77" height="8.36"/><rect class="cls-7" x="609.67" y="306.16" width="7.77" height="8.36"/><rect class="cls-7" x="609.67" y="322.79" width="7.77" height="8.36"/><rect class="cls-7" x="609.67" y="339.42" width="7.77" height="8.36"/><rect class="cls-7" x="609.67" y="356.05" width="7.77" height="8.36"/><rect class="cls-7" x="622.88" y="239.64" width="15.77" height="8.36"/><rect class="cls-7" x="622.88" y="256.27" width="15.77" height="8.36"/><rect class="cls-7" x="622.88" y="272.9" width="15.77" height="8.36"/><rect class="cls-7" x="622.88" y="289.53" width="15.77" height="8.36"/><rect class="cls-7" x="622.88" y="306.16" width="15.77" height="8.36"/><rect class="cls-7" x="622.88" y="322.79" width="15.77" height="8.36"/><rect class="cls-7" x="622.88" y="339.42" width="15.77" height="8.36"/><rect class="cls-7" x="622.88" y="356.05" width="15.77" height="8.36"/><rect class="cls-3" x="734.41" y="270.84" width="42.77" height="174.89"/><rect class="cls-8" x="715" y="270.84" width="19.41" height="174.89"/><path class="cls-9" d="M258.45,243.29l69.84,0-51.51,15.08S258.45,242.83,258.45,243.29Z"/><path class="cls-10" d="M328.29,243.27l-51.61,14.59V592.5h51.61Z"/><path class="cls-11" d="M276.68,257.85l-17.95-14.58V592.5h17.95Z"/><rect class="cls-12" x="271.02" y="264.93" width="3.83" height="4.72"/><rect class="cls-12" x="265.17" y="273" width="3.83" height="4.72"/><rect class="cls-13" x="278.61" y="264.93" width="3.83" height="4.72"/><rect class="cls-13" x="286.2" y="264.93" width="3.83" height="4.72"/><rect class="cls-13" x="322.16" y="302.49" width="3.83" height="4.72"/><rect class="cls-13" x="313.94" y="302.49" width="3.83" height="4.72"/><rect class="cls-13" x="293.79" y="264.93" width="3.83" height="4.72"/><path class="cls-9" d="M328.31,255.34V262l-51.43,57.9v-6.74S328.54,255.49,328.31,255.34Z"/><path class="cls-9" d="M328.27,378.13v-6.65l-51.43-57.89v6.74S328.5,378,328.27,378.13Z"/><path class="cls-14" d="M258.76,276.28v6.65l17.95,36.5v-6.74S258.53,276.42,258.76,276.28Z"/><path class="cls-14" d="M258.32,341.94v-6.65l18.43-22.16v6.73S258.09,341.81,258.32,341.94Z"/><rect class="cls-7" x="648.56" y="265.31" width="58.89" height="274.76"/><rect class="cls-7" x="657.51" y="259.91" width="43.49" height="5.4"/><rect class="cls-15" x="648.55" y="280.78" width="58.89" height="11.74"/><rect class="cls-15" x="648.55" y="326.48" width="58.89" height="11.74"/><rect class="cls-15" x="648.55" y="372.18" width="58.89" height="11.74"/><rect class="cls-7" x="837.61" y="214.66" width="91.14" height="274.76"/><rect class="cls-7" x="851.47" y="209.26" width="67.31" height="5.4"/><rect class="cls-15" x="837.61" y="230.13" width="91.14" height="11.74"/><rect class="cls-15" x="837.61" y="275.84" width="91.14" height="11.74"/><rect class="cls-15" x="837.61" y="321.54" width="91.14" height="11.74"/><rect class="cls-7" x="1168.41" y="287.34" width="20.63" height="6.37"/><rect class="cls-6" x="1137.16" y="287.35" width="31.25" height="6.26"/><rect class="cls-6" x="1129.81" y="292.47" width="48.32" height="260.83"/><rect class="cls-7" x="1172.85" y="292.48" width="22.1" height="260.83"/><rect class="cls-16" x="1129.81" y="307.16" width="43.03" height="11.14"/><rect class="cls-16" x="1129.81" y="350.55" width="48.32" height="11.14"/><rect class="cls-16" x="1129.81" y="393.93" width="48.32" height="11.14"/><rect class="cls-15" x="1172.85" y="307.16" width="22.1" height="11.14"/><rect class="cls-15" x="1172.85" y="350.55" width="22.1" height="11.14"/><rect class="cls-15" x="1172.85" y="393.93" width="22.1" height="11.14"/><rect class="cls-7" x="1094.71" y="212.28" width="32.59" height="8.19"/><rect class="cls-6" x="1045.34" y="212.28" width="49.37" height="8.05"/><rect class="cls-6" x="1033.73" y="218.88" width="76.33" height="335.28"/><rect class="cls-7" x="1101.72" y="218.88" width="34.91" height="335.28"/><rect class="cls-16" x="1033.73" y="237.76" width="67.99" height="14.32"/><rect class="cls-15" x="1101.72" y="237.75" width="34.91" height="14.32"/><rect class="cls-16" x="1033.73" y="293.53" width="76.33" height="14.32"/><rect class="cls-16" x="1033.73" y="349.29" width="76.33" height="14.32"/><rect class="cls-15" x="1101.72" y="293.52" width="34.91" height="14.32"/><rect class="cls-15" x="1101.72" y="349.29" width="34.91" height="14.32"/><rect class="cls-17" x="236.35" y="390.59" width="21.48" height="14.65"/><rect class="cls-18" x="210.93" y="390.59" width="25.42" height="14.65"/><rect class="cls-17" x="230.74" y="403.17" width="33.73" height="176.18"/><rect class="cls-18" x="201.66" y="403.17" width="29.07" height="176.18"/><rect class="cls-8" x="144.92" y="424.98" width="31.3" height="18.75"/><rect class="cls-3" x="174.69" y="424.98" width="33.62" height="18.75"/><rect class="cls-8" x="132.76" y="439.57" width="37.08" height="149.65"/><rect class="cls-3" x="168.16" y="439.57" width="52.12" height="149.65"/><rect class="cls-8" x="38.41" y="509.56" width="31.3" height="8.45"/><rect class="cls-3" x="68.18" y="509.56" width="33.62" height="8.45"/><rect class="cls-8" x="26.25" y="516.13" width="37.08" height="67.44"/><rect class="cls-3" x="61.65" y="516.13" width="52.12" height="67.44"/><path class="cls-19" d="M1356.1,406h33.84v185h-61V585h-33.32V419.44h41.77v63h18.76Zm-233.37,0H1135v76.53H1169v64.74H1135v43.72h-77.17V560.17h-17.57V492.72h17.57V444.49h29.8V373.16h35.12ZM1500,590.86l-110.06.08V450.05h31.18v11.59h5.18v64.53H1460v16l40,.15Z"/><rect class="cls-8" x="1388.59" y="500.52" width="30.09" height="10.5"/><rect class="cls-3" x="1417.2" y="500.52" width="32.31" height="10.5"/><rect class="cls-8" x="1376.9" y="508.69" width="35.64" height="83.82"/><rect class="cls-3" x="1410.92" y="508.69" width="50.1" height="83.82"/><rect class="cls-20" x="1002.6" y="289.26" width="32.68" height="11.27"/><rect class="cls-21" x="953.09" y="289.26" width="49.51" height="11.06"/><rect class="cls-21" x="941.45" y="294.82" width="76.54" height="282.94"/><rect class="cls-20" x="1009.62" y="294.83" width="35.01" height="282.94"/><rect class="cls-22" x="941.45" y="310.76" width="68.17" height="12.09"/><rect class="cls-22" x="941.44" y="357.82" width="76.54" height="12.09"/><rect class="cls-22" x="941.44" y="404.88" width="76.54" height="12.09"/><rect class="cls-23" x="1009.62" y="310.76" width="35.01" height="12.09"/><rect class="cls-23" x="1009.62" y="357.82" width="35.01" height="12.09"/><rect class="cls-23" x="1009.62" y="404.87" width="35.01" height="12.09"/><rect class="cls-24" x="946.41" y="328.77" width="9.55" height="8.17"/><rect class="cls-24" x="959" y="328.77" width="9.55" height="8.17"/><rect class="cls-24" x="971.6" y="328.77" width="9.55" height="8.17"/><rect class="cls-24" x="984" y="328.77" width="9.55" height="8.17"/><rect class="cls-24" x="996.59" y="328.77" width="9.55" height="8.17"/><rect class="cls-24" x="946.51" y="342.51" width="9.55" height="8.17"/><rect class="cls-24" x="959.1" y="342.51" width="9.55" height="8.17"/><rect class="cls-24" x="971.7" y="342.51" width="9.55" height="8.17"/><rect class="cls-24" x="984.11" y="342.51" width="9.55" height="8.17"/><rect class="cls-24" x="996.69" y="342.51" width="9.55" height="8.17"/><rect class="cls-24" x="945.62" y="375.92" width="9.55" height="8.17"/><rect class="cls-24" x="958.2" y="375.92" width="9.55" height="8.17"/><rect class="cls-24" x="970.81" y="375.92" width="9.55" height="8.17"/><rect class="cls-24" x="983.21" y="375.92" width="9.55" height="8.17"/><rect class="cls-24" x="995.8" y="375.92" width="9.55" height="8.17"/><rect class="cls-24" x="945.72" y="389.66" width="9.55" height="8.17"/><rect class="cls-24" x="958.3" y="389.66" width="9.55" height="8.17"/><rect class="cls-24" x="970.91" y="389.66" width="9.55" height="8.17"/><rect class="cls-24" x="983.31" y="389.66" width="9.55" height="8.17"/><rect class="cls-24" x="995.9" y="389.66" width="9.55" height="8.17"/><rect class="cls-24" x="945.62" y="425.34" width="9.55" height="8.17"/><rect class="cls-24" x="958.2" y="425.34" width="9.55" height="8.17"/><rect class="cls-24" x="970.81" y="425.34" width="9.55" height="8.17"/><rect class="cls-24" x="983.21" y="425.34" width="9.55" height="8.17"/><rect class="cls-24" x="995.8" y="425.34" width="9.55" height="8.17"/><rect class="cls-24" x="945.72" y="439.08" width="9.55" height="8.17"/><rect class="cls-24" x="958.3" y="439.08" width="9.55" height="8.17"/><rect class="cls-24" x="970.91" y="439.08" width="9.55" height="8.17"/><rect class="cls-24" x="983.31" y="439.08" width="9.55" height="8.17"/><rect class="cls-24" x="995.9" y="439.08" width="9.55" height="8.17"/><rect class="cls-24" x="945.62" y="451.45" width="9.55" height="8.17"/><rect class="cls-24" x="958.2" y="451.45" width="9.55" height="8.17"/><rect class="cls-24" x="970.81" y="451.45" width="9.55" height="8.17"/><rect class="cls-24" x="983.21" y="451.45" width="9.55" height="8.17"/><rect class="cls-24" x="995.8" y="451.45" width="9.55" height="8.17"/><rect class="cls-24" x="945.72" y="465.19" width="9.55" height="8.17"/><rect class="cls-24" x="958.3" y="465.19" width="9.55" height="8.17"/><rect class="cls-24" x="970.91" y="465.19" width="9.55" height="8.17"/><rect class="cls-24" x="983.31" y="465.19" width="9.55" height="8.17"/><rect class="cls-24" x="995.9" y="465.19" width="9.55" height="8.17"/><rect class="cls-20" x="1083.56" y="331.31" width="33.72" height="261.19"/><rect class="cls-21" x="1039.59" y="331.31" width="43.97" height="261.19"/><rect class="cls-22" x="1042.73" y="353.23" width="37.5" height="7.66"/><rect class="cls-23" x="1089.51" y="353.23" width="24.19" height="7.66"/><rect class="cls-22" x="1042.73" y="368.26" width="37.5" height="7.66"/><rect class="cls-23" x="1089.51" y="368.26" width="24.19" height="7.66"/><rect class="cls-22" x="1042.73" y="383.55" width="37.5" height="7.66"/><rect class="cls-23" x="1089.51" y="383.55" width="24.19" height="7.66"/><rect class="cls-22" x="1042.73" y="398.32" width="37.5" height="7.66"/><rect class="cls-23" x="1089.51" y="398.32" width="24.19" height="7.66"/><rect class="cls-22" x="1042.73" y="413.61" width="37.5" height="7.66"/><rect class="cls-23" x="1089.51" y="413.61" width="24.19" height="7.66"/><rect class="cls-22" x="1042.73" y="428.11" width="37.5" height="7.66"/><rect class="cls-23" x="1089.51" y="428.11" width="24.19" height="7.66"/><rect class="cls-22" x="1042.73" y="442.88" width="37.5" height="7.66"/><rect class="cls-23" x="1089.51" y="442.88" width="24.19" height="7.66"/><rect class="cls-22" x="1042.73" y="458.08" width="37.5" height="7.66"/><rect class="cls-23" x="1089.51" y="458.08" width="24.19" height="7.66"/><rect class="cls-22" x="1042.73" y="472.76" width="37.5" height="7.66"/><rect class="cls-23" x="1089.51" y="472.76" width="24.19" height="7.66"/><rect class="cls-22" x="1042.73" y="487.45" width="37.5" height="7.66"/><rect class="cls-23" x="1089.51" y="487.45" width="24.19" height="7.66"/><rect class="cls-22" x="1042.73" y="502.36" width="37.5" height="7.66"/><rect class="cls-23" x="1089.51" y="502.36" width="24.19" height="7.66"/><rect class="cls-22" x="1042.73" y="517.26" width="37.5" height="7.66"/><rect class="cls-23" x="1089.51" y="517.26" width="24.19" height="7.66"/><rect class="cls-22" x="1042.73" y="532.38" width="37.5" height="7.66"/><rect class="cls-23" x="1089.51" y="532.38" width="24.19" height="7.66"/><rect class="cls-20" x="1331.38" y="452.48" width="41.25" height="140.03"/><rect class="cls-21" x="1277.58" y="452.48" width="53.8" height="140.03"/><rect class="cls-22" x="1281.43" y="464.22" width="45.88" height="4.11"/><rect class="cls-23" x="1338.65" y="464.22" width="29.59" height="4.11"/><rect class="cls-22" x="1281.43" y="472.28" width="45.88" height="4.11"/><rect class="cls-23" x="1338.65" y="472.28" width="29.59" height="4.11"/><rect class="cls-22" x="1281.43" y="480.48" width="45.88" height="4.11"/><rect class="cls-23" x="1338.65" y="480.48" width="29.59" height="4.11"/><rect class="cls-22" x="1281.43" y="488.4" width="45.88" height="4.11"/><rect class="cls-23" x="1338.65" y="488.4" width="29.59" height="4.11"/><rect class="cls-22" x="1281.43" y="496.59" width="45.88" height="4.11"/><rect class="cls-23" x="1338.65" y="496.59" width="29.59" height="4.11"/><rect class="cls-22" x="1281.43" y="504.37" width="45.88" height="4.11"/><rect class="cls-23" x="1338.65" y="504.37" width="29.59" height="4.11"/><rect class="cls-22" x="1281.43" y="512.29" width="45.88" height="4.11"/><rect class="cls-23" x="1338.65" y="512.29" width="29.59" height="4.11"/><rect class="cls-22" x="1281.43" y="520.43" width="45.88" height="4.11"/><rect class="cls-23" x="1338.65" y="520.43" width="29.59" height="4.11"/><rect class="cls-22" x="1281.43" y="528.31" width="45.88" height="4.11"/><rect class="cls-23" x="1338.65" y="528.31" width="29.59" height="4.11"/><rect class="cls-22" x="1281.43" y="536.18" width="45.88" height="4.11"/><rect class="cls-23" x="1338.65" y="536.18" width="29.59" height="4.11"/><rect class="cls-22" x="1281.43" y="544.17" width="45.88" height="4.11"/><rect class="cls-23" x="1338.65" y="544.17" width="29.59" height="4.11"/><rect class="cls-22" x="1281.43" y="552.16" width="45.88" height="4.11"/><rect class="cls-23" x="1338.65" y="552.16" width="29.59" height="4.11"/><rect class="cls-22" x="1281.43" y="560.27" width="45.88" height="4.11"/><rect class="cls-23" x="1338.65" y="560.27" width="29.59" height="4.11"/><rect class="cls-20" x="602.21" y="313.83" width="27.97" height="237.77"/><rect class="cls-21" x="527.31" y="313.83" width="74.9" height="237.77"/><rect class="cls-22" x="589.01" y="329.48" width="6.31" height="165.28"/><rect class="cls-22" x="575.31" y="329.48" width="6.31" height="165.28"/><rect class="cls-22" x="561.6" y="329.48" width="6.31" height="165.28"/><rect class="cls-22" x="547.9" y="329.48" width="6.31" height="165.28"/><rect class="cls-22" x="534.19" y="329.48" width="6.31" height="165.28"/><rect class="cls-21" x="537.69" y="294.17" width="56.93" height="22.38"/><rect class="cls-20" x="594.62" y="294.17" width="26.16" height="19.66"/><rect class="cls-25" x="527.31" y="313.83" width="74.9" height="5.45"/><rect class="cls-26" x="602.21" y="313.83" width="27.97" height="5.45"/><rect class="cls-8" x="788.93" y="347.39" width="99.26" height="239.47"/><rect class="cls-27" x="843.79" y="399.79" width="11.13" height="7.49"/><rect class="cls-27" x="857.66" y="399.79" width="11.13" height="7.49"/><rect class="cls-27" x="871.66" y="399.79" width="11.13" height="7.49"/><rect class="cls-27" x="871.66" y="362.02" width="11.13" height="7.49"/><rect class="cls-27" x="794" y="388.91" width="11.13" height="7.49"/><rect class="cls-27" x="808.35" y="388.91" width="11.13" height="7.49"/><rect class="cls-27" x="808.44" y="439.1" width="11.13" height="7.49"/><rect class="cls-27" x="794" y="439.1" width="11.13" height="7.49"/><rect class="cls-27" x="836.66" y="439.1" width="11.13" height="7.49"/><rect class="cls-27" x="822.79" y="439.1" width="11.13" height="7.49"/><rect class="cls-8" x="810.66" y="329.32" width="61" height="18.07"/><rect class="cls-3" x="871.65" y="329.32" width="42.47" height="18.07"/><rect class="cls-3" x="888.19" y="347.39" width="43.64" height="239.47"/><rect class="cls-28" x="899.23" y="362.02" width="11.13" height="7.49"/><rect class="cls-28" x="913.57" y="362.02" width="11.13" height="7.49"/><rect class="cls-28" x="913.57" y="439.1" width="11.13" height="7.49"/><rect class="cls-21" x="767.26" y="425.99" width="50.36" height="159.23"/><rect class="cls-29" x="595.52" y="425.99" width="171.74" height="159.23"/><rect class="cls-24" x="613.27" y="437.32" width="9.75" height="7.96"/><rect class="cls-24" x="683.32" y="437.32" width="9.75" height="7.96"/><rect class="cls-24" x="753.38" y="437.32" width="9.75" height="7.96"/><rect class="cls-24" x="627.48" y="448.96" width="9.75" height="7.96"/><rect class="cls-24" x="655.5" y="448.96" width="9.75" height="7.96"/><rect class="cls-24" x="711.55" y="448.96" width="9.75" height="7.96"/><rect class="cls-24" x="725.56" y="448.96" width="9.75" height="7.96"/><rect class="cls-24" x="599.46" y="459.92" width="9.75" height="7.96"/><rect class="cls-24" x="613.47" y="459.92" width="9.75" height="7.96"/><rect class="cls-29" x="641.49" y="459.92" width="9.75" height="7.96"/><rect class="cls-24" x="683.52" y="459.92" width="9.75" height="7.96"/><rect class="cls-24" x="711.55" y="459.92" width="9.75" height="7.96"/><rect class="cls-24" x="627.48" y="470.58" width="9.75" height="7.96"/><rect class="cls-24" x="655.5" y="470.58" width="9.75" height="7.96"/><rect class="cls-24" x="669.51" y="470.58" width="9.75" height="7.96"/><rect class="cls-24" x="725.56" y="470.58" width="9.75" height="7.96"/><rect class="cls-24" x="753.58" y="470.58" width="9.75" height="7.96"/><rect class="cls-29" x="669.51" y="481.25" width="9.75" height="7.96"/><rect class="cls-24" x="683.52" y="481.25" width="9.75" height="7.96"/><rect class="cls-24" x="697.53" y="481.25" width="9.75" height="7.96"/><rect class="cls-24" x="739.57" y="481.25" width="9.75" height="7.96"/><rect class="cls-24" x="753.58" y="481.25" width="9.75" height="7.96"/><rect class="cls-24" x="599.46" y="492.21" width="9.75" height="7.96"/><rect class="cls-29" x="613.47" y="492.21" width="9.75" height="7.96"/><rect class="cls-29" x="627.48" y="492.21" width="9.75" height="7.96"/><rect class="cls-24" x="641.49" y="492.21" width="9.75" height="7.96"/><rect class="cls-24" x="655.5" y="492.21" width="9.75" height="7.96"/><rect class="cls-24" x="697.53" y="492.21" width="9.75" height="7.96"/><rect class="cls-24" x="711.55" y="492.21" width="9.75" height="7.96"/><rect class="cls-24" x="599.46" y="503.46" width="9.75" height="7.96"/><rect class="cls-24" x="613.47" y="503.46" width="9.75" height="7.96"/><rect class="cls-24" x="641.49" y="503.46" width="9.75" height="7.96"/><rect class="cls-24" x="683.52" y="503.46" width="9.75" height="7.96"/><rect class="cls-24" x="697.53" y="503.46" width="9.75" height="7.96"/><rect class="cls-24" x="711.55" y="503.46" width="9.75" height="7.96"/><rect class="cls-24" x="627.48" y="514.71" width="9.75" height="7.96"/><rect class="cls-24" x="641.49" y="514.71" width="9.75" height="7.96"/><rect class="cls-24" x="599.46" y="526.04" width="9.75" height="7.96"/><rect class="cls-24" x="613.47" y="526.04" width="9.75" height="7.96"/><rect class="cls-29" x="618.09" y="398.03" width="140.16" height="27.95"/><rect class="cls-21" x="758.26" y="398.03" width="44.3" height="27.95"/><rect class="cls-30" x="618.1" y="407.22" width="140.16" height="4.79"/><rect class="cls-31" x="758.26" y="407.22" width="44.3" height="4.79"/><rect class="cls-20" x="514.35" y="351.76" width="34.57" height="240.75"/><rect class="cls-21" x="421.78" y="351.76" width="92.57" height="240.75"/><rect class="cls-13" x="425.68" y="362.56" width="17.79" height="4.66"/><rect class="cls-13" x="446.6" y="467.48" width="17.79" height="4.66"/><rect class="cls-13" x="501.28" y="426.72" width="5.4" height="4.66"/><rect class="cls-13" x="501.28" y="436.17" width="5.4" height="4.66"/><rect class="cls-13" x="492.36" y="436.17" width="5.4" height="4.66"/><rect class="cls-13" x="446.6" y="362.56" width="5.4" height="4.66"/><rect class="cls-13" x="455.1" y="362.56" width="5.4" height="4.66"/><rect class="cls-25" x="421.78" y="351.76" width="92.57" height="5.52"/><rect class="cls-26" x="514.35" y="351.76" width="34.57" height="5.52"/><rect class="cls-25" x="421.78" y="414.56" width="92.57" height="5.52"/><rect class="cls-26" x="514.35" y="414.56" width="34.57" height="5.52"/><rect class="cls-25" x="421.78" y="477.65" width="92.57" height="5.52"/><rect class="cls-26" x="514.35" y="477.65" width="34.57" height="5.52"/><rect class="cls-20" x="1264.35" y="360.39" width="30.85" height="225.91"/><rect class="cls-21" x="1192.34" y="360.39" width="74.9" height="225.91"/><rect class="cls-22" x="1254.04" y="375.26" width="6.31" height="157.03"/><rect class="cls-22" x="1240.34" y="375.26" width="6.31" height="157.03"/><rect class="cls-22" x="1226.63" y="375.26" width="6.31" height="157.03"/><rect class="cls-22" x="1212.93" y="375.26" width="6.31" height="157.03"/><rect class="cls-22" x="1199.22" y="375.26" width="6.31" height="157.03"/><rect class="cls-21" x="1202.72" y="341.71" width="56.93" height="21.27"/><rect class="cls-20" x="1257.19" y="341.71" width="28.6" height="18.68"/><rect class="cls-25" x="1192.34" y="360.39" width="74.9" height="5.18"/><rect class="cls-26" x="1267.24" y="360.39" width="27.97" height="5.18"/><rect class="cls-20" x="376.03" y="383.15" width="38.64" height="207.5"/><rect class="cls-21" x="325.64" y="383.15" width="50.39" height="207.5"/><rect class="cls-22" x="329.24" y="400.56" width="42.98" height="6.09"/><rect class="cls-23" x="382.85" y="400.56" width="27.72" height="6.09"/><rect class="cls-22" x="329.24" y="412.5" width="42.98" height="6.09"/><rect class="cls-23" x="382.85" y="412.5" width="27.72" height="6.09"/><rect class="cls-22" x="329.24" y="424.65" width="42.98" height="6.09"/><rect class="cls-23" x="382.85" y="424.65" width="27.72" height="6.09"/><rect class="cls-22" x="329.24" y="436.38" width="42.98" height="6.09"/><rect class="cls-23" x="382.85" y="436.38" width="27.72" height="6.09"/><rect class="cls-22" x="329.24" y="448.53" width="42.98" height="6.09"/><rect class="cls-23" x="382.85" y="448.53" width="27.72" height="6.09"/><rect class="cls-22" x="329.24" y="460.05" width="42.98" height="6.09"/><rect class="cls-23" x="382.85" y="460.05" width="27.72" height="6.09"/><rect class="cls-22" x="329.24" y="471.78" width="42.98" height="6.09"/><rect class="cls-23" x="382.85" y="471.78" width="27.72" height="6.09"/><rect class="cls-22" x="329.24" y="483.85" width="42.98" height="6.09"/><rect class="cls-23" x="382.85" y="483.85" width="27.72" height="6.09"/><rect class="cls-22" x="329.24" y="495.52" width="42.98" height="6.09"/><rect class="cls-23" x="382.85" y="495.52" width="27.72" height="6.09"/><rect class="cls-22" x="329.24" y="507.19" width="42.98" height="6.09"/><rect class="cls-23" x="382.85" y="507.19" width="27.72" height="6.09"/><rect class="cls-22" x="329.24" y="519.03" width="42.98" height="6.09"/><rect class="cls-23" x="382.85" y="519.03" width="27.72" height="6.09"/><rect class="cls-22" x="329.24" y="530.87" width="42.98" height="6.09"/><rect class="cls-23" x="382.85" y="530.87" width="27.72" height="6.09"/><rect class="cls-22" x="329.24" y="542.88" width="42.98" height="6.09"/><rect class="cls-23" x="382.85" y="542.88" width="27.72" height="6.09"/><rect class="cls-3" x="180.11" y="553.31" width="61.65" height="45.49"/><rect class="cls-3" x="106.5" y="532.94" width="40.14" height="61.24"/><rect class="cls-32" x="0.02" y="579.05" width="1500" height="29.69"/><rect class="cls-32" x="710.22" y="583.99" width="239.94" height="8.81"/><rect class="cls-32" x="588.88" y="563.48" width="56.46" height="29.31"/><rect class="cls-32" x="279.6" y="531.04" width="193.51" height="64.87"/><rect class="cls-32" x="431.87" y="514.14" width="23.98" height="27.56"/><rect class="cls-32" x="230.19" y="541.7" width="49.41" height="54.94"/><rect class="cls-32" y="578.5" width="249.16" height="18.14"/><rect class="cls-33" x="896.46" y="559.89" width="35.71" height="48.84"/><rect class="cls-34" x="896.46" y="559.89" width="35.71" height="5.57"/><rect class="cls-35" x="900.77" y="571.78" width="5.5" height="11.53"/><rect class="cls-35" x="922.53" y="571.78" width="5.5" height="11.53"/><rect class="cls-33" x="861.77" y="528.46" width="35.71" height="80.27"/><rect class="cls-33" x="879.63" y="597.29" width="8.08" height="11.44"/><rect class="cls-34" x="861.77" y="528.46" width="35.71" height="5.57"/><rect class="cls-35" x="866.09" y="540.34" width="5.5" height="11.53"/><rect class="cls-35" x="887.85" y="540.34" width="5.5" height="11.53"/><rect class="cls-35" x="866.09" y="576.01" width="5.5" height="11.53"/><rect class="cls-32" x="804.94" y="513.4" width="43.05" height="95.34"/><rect class="cls-33" x="729" y="513.39" width="75.94" height="95.34"/><rect class="cls-35" x="785.59" y="519.29" width="11.18" height="13.34"/><rect class="cls-36" x="815.9" y="519.29" width="3.14" height="13.34"/><rect class="cls-36" x="824.89" y="519.29" width="3.14" height="13.34"/><rect class="cls-33" x="460.29" y="552.44" width="166.84" height="56.3"/><rect class="cls-33" x="502.6" y="499.3" width="117.16" height="53.13"/><rect class="cls-37" x="460.29" y="552.44" width="166.84" height="7.88"/><rect class="cls-37" x="502.6" y="499.3" width="117.16" height="7.62"/><rect class="cls-37" x="502.6" y="531.41" width="117.16" height="4.33"/><rect class="cls-35" x="511.48" y="513.07" width="5.51" height="12.81"/><rect class="cls-36" x="524.9" y="513.07" width="5.51" height="12.81"/><rect class="cls-36" x="524.9" y="539.63" width="5.51" height="12.81"/><rect class="cls-36" x="605.37" y="539.63" width="5.51" height="12.81"/><rect class="cls-35" x="538.31" y="513.07" width="5.51" height="12.81"/><rect class="cls-35" x="551.72" y="513.07" width="5.51" height="12.81"/><rect class="cls-36" x="565.13" y="513.07" width="5.51" height="12.81"/><rect class="cls-36" x="578.55" y="513.07" width="5.51" height="12.81"/><rect class="cls-36" x="591.96" y="513.07" width="5.51" height="12.81"/><rect class="cls-35" x="605.37" y="513.07" width="5.51" height="12.81"/><rect class="cls-32" x="991.73" y="536.58" width="89.09" height="56.22"/><rect class="cls-32" x="1030.54" y="528.66" width="100.56" height="64.14"/><rect class="cls-32" x="1114.56" y="517.06" width="110.01" height="75.74"/><rect class="cls-33" x="1164.85" y="528.66" width="37.26" height="7.92"/><rect class="cls-33" x="1042.41" y="536.57" width="12.18" height="9.6"/><rect class="cls-33" x="1067.29" y="536.57" width="12.18" height="9.6"/><rect class="cls-33" x="1092.18" y="536.57" width="12.18" height="9.6"/><rect class="cls-33" x="707.13" y="532.94" width="37.98" height="75.8"/><rect class="cls-37" x="631.46" y="532.94" width="75.67" height="75.8"/><rect class="cls-35" x="637.18" y="548.69" width="8.2" height="6.09"/><rect class="cls-35" x="637.18" y="560.72" width="8.2" height="6.16"/><rect class="cls-35" x="649.86" y="548.69" width="8.2" height="6.09"/><rect class="cls-35" x="649.86" y="560.72" width="8.2" height="6.16"/><rect class="cls-35" x="662.74" y="548.69" width="8.2" height="6.09"/><rect class="cls-35" x="662.74" y="560.72" width="8.2" height="6.16"/><rect class="cls-33" x="930.12" y="491.43" width="62.29" height="117.3"/><rect class="cls-32" x="992.4" y="491.43" width="21.49" height="117.3"/><rect class="cls-35" x="940.42" y="506.48" width="13.6" height="13.23"/><rect class="cls-35" x="968.62" y="506.48" width="13.6" height="13.23"/><rect class="cls-35" x="968.62" y="569.04" width="13.6" height="13.23"/></g><g id="front-line"><rect class="cls-32" y="589.94" width="1500" height="18.8"/></g></g></g></svg>