<svg xmlns="http://www.w3.org/2000/svg" viewBox="0 0 1500 608.74"><defs><style>.cls-1{fill:#efe3cd;}.cls-1,.cls-12,.cls-18,.cls-19,.cls-2,.cls-21,.cls-22,.cls-25,.cls-26,.cls-27,.cls-3,.cls-30,.cls-31,.cls-32,.cls-33,.cls-35,.cls-36,.cls-39,.cls-4,.cls-45,.cls-46,.cls-48,.cls-49,.cls-50,.cls-51,.cls-52,.cls-53,.cls-6,.cls-60,.cls-63,.cls-64,.cls-7,.cls-8{fill-rule:evenodd;}.cls-2{fill:#958e46;}.cls-3{fill:#afa650;}.cls-4{fill:#625e1f;}.cls-25,.cls-5{fill:#ddc597;}.cls-16,.cls-6{fill:#d4673d;}.cls-24,.cls-7{fill:#eadabc;}.cls-17,.cls-8{fill:#944024;}.cls-9{fill:#bbd4d7;}.cls-10{fill:#9cbec3;}.cls-11,.cls-19{fill:#f4d790;}.cls-12,.cls-15{fill:#a68558;}.cls-13{fill:#bdd2d5;}.cls-14{fill:#88a3a5;}.cls-18{fill:#552c16;}.cls-20{fill:#b9d1d5;}.cls-21{fill:#a49c42;}.cls-22{fill:#906152;}.cls-23{fill:#86a5aa;}.cls-26{fill:#915744;}.cls-27,.cls-37{fill:#874330;}.cls-28{fill:#6b7a3b;}.cls-29,.cls-45{fill:#db9456;}.cls-30,.cls-44{fill:#561604;}.cls-31,.cls-42{fill:#8a4e2a;}.cls-32,.cls-43{fill:#792107;}.cls-33{fill:#7a7439;}.cls-34{fill:#89a2a2;}.cls-35{fill:#b0a63f;}.cls-36{fill:#5f5c2e;}.cls-38{fill:#8aa4a0;}.cls-39{fill:#b65d3d;}.cls-40{fill:#8bb7b5;}.cls-41{fill:#6f7259;}.cls-46{fill:#827a27;}.cls-47{fill:#704e45;}.cls-48{fill:#925c44;}.cls-49{fill:#844a37;}.cls-50{fill:#756d24;}.cls-51{fill:#6f3e19;}.cls-52,.cls-55{fill:#511605;}.cls-53,.cls-57{fill:#72220b;}.cls-54{fill:#709599;}.cls-56{fill:#6d9e9a;}.cls-58,.cls-60{fill:#9c3110;}.cls-59,.cls-63{fill:#601d0a;}.cls-61{fill:#6e8c85;}.cls-62{fill:#87afab;}.cls-64{fill:#9c3111;}</style></defs><g id="Layer_2" data-name="Layer 2"><g id="Layer_1-2" data-name="Layer 1"><g id="clouds10"><g id="big-cloud"><path class="cls-1" d="M1198.93,99.72C1180.45,42.3,1117.94,0,1043.76,0c-61.08,0-96,23.23-123.22,65.42-6.07-2.19-24.78-4.47-48.67,3.52-31.63,10.59-50.48,28.79-50.48,66,0,11.33-.12,14,4.39,23.42-103.3-39.44-178.14,7.84-205.22,43.44-12.28,16.15-12.82,38.91-11.08,42.26C570.58,211,496.13,226,504.68,284.58c.47,3.13,14.13,13.4,10.66,14.17-13.48,3-150.24,5.4-290.65,21.15C191.31,323.64,151,324.4,124,354.64c-14.29,16-15.11,50.22,3.32,68.74,7.17,7.19,36.46,10.77,47.89,10.67,211-1.84,1172.89-3.92,1206.91-7.29,77.58-7.71,64.29-100,45-121.49-14.62-16.26-30.71-35.74-86.37-37.49-6-.17-11.86,1.24-7.54-1.54,21.94-14.14,2.86-80.6-63.2-63.76-.78.2,0-.7,0-.7C1269.74,153.88,1239.91,113.36,1198.93,99.72Z"/></g><g id="big-cloud1"><path class="cls-1" d="M951.48,102.65C937.15,60.27,888.68,29,831.15,29c-47.37,0-74.48,17.15-95.56,48.29-4.7-1.62-19.21-3.3-37.74,2.6-24.53,7.82-39.15,21.26-39.15,48.75,0,8.36-.09,10.37,3.4,17.29C582,116.85,524,151.76,503,178c-9.53,11.92-9.95,28.72-8.59,31.19-30.17-24.42-87.91-13.33-81.28,29.88.37,2.31,11,9.89,8.27,10.46-10.46,2.2-38.69,5.18-147.94,12.86-39.27,2.77-74.91,11.81-93.3,29.21-11.8,11.15-21.59,25.64-7.3,39.32,5.54,5.3,34.21,10.88,43.09,10.81,163.64-1.37,851.26,4.79,877.64,2.3,60.17-5.69,49.86-73.84,34.9-89.68-11.34-12-23.81-26.38-67-27.68-4.62-.13-9.2.92-5.84-1.13,17-10.44,2.21-59.51-49-47.07-.61.14,0-.52,0-.52A79.48,79.48,0,0,0,951.48,102.65Z"/></g><g id="big-cloud2"><path class="cls-1" d="M1293.77,149.47c-9.54-29.13-41.84-50.58-80.17-50.58-31.56,0-49.62,11.78-63.67,33.18-3.13-1.11-12.8-2.27-25.14,1.79-16.35,5.37-26.09,14.6-26.09,33.5,0,5.74-.06,7.12,2.27,11.87-53.38-20-92,4-106,22-6.35,8.19-6.63,19.74-5.73,21.43-20.1-16.78-58.56-9.16-54.15,20.54.25,1.59,7.3,6.79,5.51,7.19-7,1.5-25.78,3.55-98.57,8.83-26.16,1.9-49.9,8.11-62.16,20.07C772,287,765.46,297,775,306.35c3.69,3.64,22.79,7.48,28.71,7.43,109-.94,567.16,3.29,584.74,1.58,40.09-3.91,33.22-50.74,23.25-61.63-7.55-8.24-15.87-18.12-44.63-19-3.08-.09-6.12.63-3.89-.78,11.34-7.18,1.48-40.89-32.65-32.35-.41.1,0-.35,0-.35C1330.36,176.94,1315,156.39,1293.77,149.47Z"/></g></g><g id="_05" data-name=" 05"><path class="cls-2" d="M1187,279.6c71.22.56,137.68,52.21,186.73,103.84S1481.88,590,1481.88,590H16.51s118.74-150.7,401.28-214.13C722.08,307.55,1027.67,278.33,1187,279.6Z"/><path class="cls-2" d="M690.45,365.29c-1.61-13.12-18.1-24-33.58-24a34.81,34.81,0,0,0-5.54.43v-.43c0-18.84-12.3-34.14-27.44-34.14-.6,0-1.2,0-1.8.07-10.58-18.65-29.61-31.1-51.31-31.1-28.39,0-52.22,21.34-58.55,50-14.38,3.11-28.62,25.14-26.87,39.15Z"/><g id="yellow-tree"><path class="cls-3" d="M400.73,278.74c9.11.54,14,13.84,21.6,22.67a31.21,31.21,0,0,1,7.76,22.79c-1.2,16.65-9.06,23-31.11,22.08-25.22-1.09-29.79-13.55-30.73-25.16s7.16-17.58,9.92-23.52C382.54,288.2,394.36,278.36,400.73,278.74Z"/></g><g id="yellow-tree1"><path class="cls-3" d="M360,297.81c9.11.54,14,13.84,21.59,22.68a31.23,31.23,0,0,1,7.77,22.78c-1.2,16.66-9.07,23-31.11,22.08-25.22-1.09-29.8-13.54-30.73-25.16s7.16-17.58,9.92-23.52C341.77,307.28,353.59,297.43,360,297.81Z"/></g><path class="cls-4" d="M672.35,223.1c3.95-9.5,15.19-8.53,19.93-3.34,13.3,14.53,23.07,118,22,127.86-1.75,16.79-7.13,21-15.39,24.84-4.55,2.1-18.54,3.5-28,1.05-7.11-1.85-14.32-11.9-16.09-23.79C652.41,333.28,656.26,261.76,672.35,223.1Z"/><rect class="cls-5" x="1013.06" y="135.3" width="135.56" height="201.25"/><path class="cls-6" d="M962.35,135.3h-8.67l33-19,8.18,2.88Z"/><path class="cls-7" d="M1016.94,135.3l-26-17.59L959.82,135.3l-1.74,201.25h57.13Z"/><polygon class="cls-8" points="986.68 116.28 1125.46 116.28 1153.85 135.3 1015.06 135.3 986.68 116.28"/><rect class="cls-9" x="982.16" y="146.82" width="10.08" height="15.35"/><rect class="cls-10" x="1031.85" y="146.82" width="10.08" height="15.35"/><rect class="cls-10" x="1051.56" y="146.82" width="10.08" height="15.35"/><rect class="cls-10" x="1071.28" y="146.82" width="10.08" height="15.35"/><rect class="cls-10" x="1090.99" y="146.82" width="10.08" height="15.35"/><rect class="cls-10" x="1110.7" y="146.82" width="10.08" height="15.35"/><rect class="cls-10" x="1130.42" y="146.82" width="10.08" height="15.35"/><rect class="cls-9" x="982.16" y="170.64" width="10.08" height="15.35"/><rect class="cls-10" x="1031.85" y="170.64" width="10.08" height="15.35"/><rect class="cls-10" x="1051.56" y="170.64" width="10.08" height="15.35"/><rect class="cls-10" x="1071.28" y="170.64" width="10.08" height="15.35"/><rect class="cls-10" x="1090.99" y="170.64" width="10.08" height="15.35"/><rect class="cls-10" x="1110.7" y="170.64" width="10.08" height="15.35"/><rect class="cls-10" x="1130.42" y="170.64" width="10.08" height="15.35"/><rect class="cls-9" x="982.16" y="194.51" width="10.08" height="15.35"/><rect class="cls-10" x="1031.85" y="194.51" width="10.08" height="15.35"/><rect class="cls-10" x="1051.56" y="194.51" width="10.08" height="15.35"/><rect class="cls-10" x="1071.28" y="194.51" width="10.08" height="15.35"/><rect class="cls-10" x="1090.99" y="194.51" width="10.08" height="15.35"/><rect class="cls-10" x="1110.7" y="194.51" width="10.08" height="15.35"/><rect class="cls-10" x="1130.42" y="194.51" width="10.08" height="15.35"/><rect class="cls-9" x="982.16" y="217.75" width="10.08" height="15.35"/><rect class="cls-10" x="1031.85" y="217.75" width="10.08" height="15.35"/><rect class="cls-10" x="1051.56" y="217.75" width="10.08" height="15.35"/><rect class="cls-10" x="1071.28" y="217.75" width="10.08" height="15.35"/><rect class="cls-10" x="1090.99" y="217.75" width="10.08" height="15.35"/><rect class="cls-10" x="1110.7" y="217.75" width="10.08" height="15.35"/><rect class="cls-10" x="1130.42" y="217.75" width="10.08" height="15.35"/><rect class="cls-9" x="982.48" y="241.12" width="10.08" height="15.35"/><rect class="cls-10" x="1032.17" y="241.12" width="10.08" height="15.35"/><rect class="cls-10" x="1051.88" y="241.12" width="10.08" height="15.35"/><rect class="cls-10" x="1071.59" y="241.12" width="10.08" height="15.35"/><rect class="cls-10" x="1091.31" y="241.12" width="10.08" height="15.35"/><rect class="cls-10" x="1111.02" y="241.12" width="10.08" height="15.35"/><rect class="cls-10" x="1130.73" y="241.12" width="10.08" height="15.35"/><rect class="cls-9" x="982.79" y="264.65" width="10.08" height="15.35"/><rect class="cls-10" x="1032.48" y="264.65" width="10.08" height="15.35"/><rect class="cls-10" x="1052.2" y="264.65" width="10.08" height="15.35"/><rect class="cls-10" x="1071.91" y="264.65" width="10.08" height="15.35"/><rect class="cls-10" x="1091.62" y="264.65" width="10.08" height="15.35"/><rect class="cls-10" x="1111.34" y="264.65" width="10.08" height="15.35"/><rect class="cls-10" x="1131.05" y="264.65" width="10.08" height="15.35"/><rect class="cls-9" x="983.11" y="288.06" width="10.08" height="15.35"/><rect class="cls-10" x="1032.8" y="288.06" width="10.08" height="15.35"/><rect class="cls-10" x="1052.51" y="288.06" width="10.08" height="15.35"/><rect class="cls-10" x="1072.23" y="288.06" width="10.08" height="15.35"/><rect class="cls-10" x="1091.94" y="288.06" width="10.08" height="15.35"/><rect class="cls-10" x="1111.65" y="288.06" width="10.08" height="15.35"/><rect class="cls-10" x="1131.37" y="288.06" width="10.08" height="15.35"/><rect class="cls-9" x="983.11" y="310.95" width="10.08" height="15.35"/><rect class="cls-10" x="1032.8" y="310.95" width="10.08" height="15.35"/><rect class="cls-10" x="1052.51" y="310.95" width="10.08" height="15.35"/><rect class="cls-10" x="1072.23" y="310.95" width="10.08" height="15.35"/><rect class="cls-10" x="1091.94" y="310.95" width="10.08" height="15.35"/><rect class="cls-10" x="1111.65" y="310.95" width="10.08" height="15.35"/><rect class="cls-10" x="1131.37" y="310.95" width="10.08" height="15.35"/><rect class="cls-5" x="799.01" y="169.46" width="135.56" height="201.25"/><path class="cls-6" d="M748.29,169.46h-8.66l33-19,8.18,2.88Z"/><path class="cls-7" d="M802.89,169.46l-26-17.6-31.16,17.6L744,370.71h57.13Z"/><polygon class="cls-8" points="772.63 150.44 911.41 150.44 939.8 169.46 801.01 169.46 772.63 150.44"/><rect class="cls-9" x="768.11" y="180.98" width="10.08" height="15.35"/><rect class="cls-10" x="817.8" y="180.98" width="10.08" height="15.35"/><rect class="cls-10" x="837.51" y="180.98" width="10.08" height="15.35"/><rect class="cls-10" x="857.23" y="180.98" width="10.08" height="15.35"/><rect class="cls-10" x="876.94" y="180.98" width="10.08" height="15.35"/><rect class="cls-10" x="896.65" y="180.98" width="10.08" height="15.35"/><rect class="cls-10" x="916.37" y="180.98" width="10.08" height="15.35"/><rect class="cls-9" x="768.11" y="204.79" width="10.08" height="15.35"/><rect class="cls-10" x="817.8" y="204.79" width="10.08" height="15.35"/><rect class="cls-10" x="837.51" y="204.79" width="10.08" height="15.35"/><rect class="cls-10" x="857.23" y="204.79" width="10.08" height="15.35"/><rect class="cls-10" x="876.94" y="204.79" width="10.08" height="15.35"/><rect class="cls-10" x="896.65" y="204.79" width="10.08" height="15.35"/><rect class="cls-10" x="916.37" y="204.79" width="10.08" height="15.35"/><rect class="cls-9" x="768.11" y="228.66" width="10.08" height="15.35"/><rect class="cls-10" x="817.8" y="228.66" width="10.08" height="15.35"/><rect class="cls-10" x="837.51" y="228.66" width="10.08" height="15.35"/><rect class="cls-10" x="857.23" y="228.66" width="10.08" height="15.35"/><rect class="cls-10" x="876.94" y="228.66" width="10.08" height="15.35"/><rect class="cls-10" x="896.65" y="228.66" width="10.08" height="15.35"/><rect class="cls-10" x="916.37" y="228.66" width="10.08" height="15.35"/><rect class="cls-9" x="768.11" y="251.91" width="10.08" height="15.35"/><rect class="cls-10" x="817.8" y="251.91" width="10.08" height="15.35"/><rect class="cls-10" x="837.51" y="251.91" width="10.08" height="15.35"/><rect class="cls-10" x="857.23" y="251.91" width="10.08" height="15.35"/><rect class="cls-10" x="876.94" y="251.91" width="10.08" height="15.35"/><rect class="cls-10" x="896.65" y="251.91" width="10.08" height="15.35"/><rect class="cls-10" x="916.37" y="251.91" width="10.08" height="15.35"/><rect class="cls-9" x="768.42" y="275.28" width="10.08" height="15.35"/><rect class="cls-10" x="818.12" y="275.28" width="10.08" height="15.35"/><rect class="cls-10" x="837.83" y="275.28" width="10.08" height="15.35"/><rect class="cls-10" x="857.54" y="275.28" width="10.08" height="15.35"/><rect class="cls-10" x="877.26" y="275.28" width="10.08" height="15.35"/><rect class="cls-10" x="896.97" y="275.28" width="10.08" height="15.35"/><rect class="cls-10" x="916.68" y="275.28" width="10.08" height="15.35"/><rect class="cls-9" x="768.74" y="298.81" width="10.08" height="15.35"/><rect class="cls-10" x="818.43" y="298.81" width="10.08" height="15.35"/><rect class="cls-10" x="838.14" y="298.81" width="10.08" height="15.35"/><rect class="cls-10" x="857.86" y="298.81" width="10.08" height="15.35"/><rect class="cls-10" x="877.57" y="298.81" width="10.08" height="15.35"/><rect class="cls-10" x="897.29" y="298.81" width="10.08" height="15.35"/><rect class="cls-10" x="917" y="298.81" width="10.08" height="15.35"/><rect class="cls-9" x="769.06" y="322.22" width="10.08" height="15.35"/><rect class="cls-10" x="818.75" y="322.22" width="10.08" height="15.35"/><rect class="cls-10" x="838.46" y="322.22" width="10.08" height="15.35"/><rect class="cls-10" x="858.18" y="322.22" width="10.08" height="15.35"/><rect class="cls-10" x="877.89" y="322.22" width="10.08" height="15.35"/><rect class="cls-10" x="897.6" y="322.22" width="10.08" height="15.35"/><rect class="cls-10" x="917.32" y="322.22" width="10.08" height="15.35"/><rect class="cls-9" x="769.06" y="345.11" width="10.08" height="15.35"/><rect class="cls-10" x="818.75" y="345.11" width="10.08" height="15.35"/><rect class="cls-10" x="838.46" y="345.11" width="10.08" height="15.35"/><rect class="cls-10" x="858.18" y="345.11" width="10.08" height="15.35"/><rect class="cls-10" x="877.89" y="345.11" width="10.08" height="15.35"/><rect class="cls-10" x="897.6" y="345.11" width="10.08" height="15.35"/><rect class="cls-10" x="917.32" y="345.11" width="10.08" height="15.35"/><rect class="cls-11" x="284.56" y="355.57" width="88.33" height="76.73"/><path class="cls-8" d="M425.79,359.31H433l-29.15-36.05-7,4.18Z"/><path class="cls-12" d="M399.35,324.73l-26.46,30.84V432.3H425.8V354.88Z"/><polygon class="cls-6" points="403.84 323.26 309.04 323.26 278.09 359.31 372.89 359.31 403.84 323.26"/><rect class="cls-13" x="346.84" y="375.39" width="9.77" height="13.77"/><rect class="cls-13" x="323.85" y="375.39" width="9.77" height="13.77"/><rect class="cls-13" x="300.84" y="375.39" width="9.77" height="13.77"/><rect class="cls-13" x="346.84" y="398.72" width="9.77" height="13.77"/><rect class="cls-13" x="323.85" y="398.72" width="9.77" height="13.77"/><rect class="cls-13" x="300.84" y="398.72" width="9.77" height="13.77"/><rect class="cls-14" x="395.61" y="353.66" width="8.34" height="13.77"/><rect class="cls-14" x="395.61" y="375.52" width="8.34" height="13.77"/><rect class="cls-14" x="391.44" y="399.15" width="16.67" height="33.22"/><rect class="cls-11" x="839.99" y="193.61" width="79.62" height="203.83"/><rect class="cls-15" x="913.61" y="193.62" width="53.91" height="204.01"/><rect class="cls-16" x="840" y="193.61" width="79.62" height="4.92"/><rect class="cls-17" x="913.61" y="193.61" width="53.91" height="4.92"/><rect class="cls-13" x="893.86" y="213.89" width="8.8" height="12.41"/><rect class="cls-13" x="873.14" y="213.89" width="8.8" height="12.41"/><rect class="cls-13" x="852.4" y="213.89" width="8.8" height="12.41"/><rect class="cls-13" x="893.86" y="234.92" width="8.8" height="12.41"/><rect class="cls-13" x="873.14" y="234.92" width="8.8" height="12.41"/><rect class="cls-13" x="852.4" y="234.92" width="8.8" height="12.41"/><rect class="cls-13" x="893.86" y="255.07" width="8.8" height="12.41"/><rect class="cls-13" x="873.14" y="255.07" width="8.8" height="12.41"/><rect class="cls-13" x="852.4" y="255.07" width="8.8" height="12.41"/><rect class="cls-13" x="893.86" y="276.1" width="8.8" height="12.41"/><rect class="cls-13" x="873.14" y="276.1" width="8.8" height="12.41"/><rect class="cls-13" x="852.4" y="276.1" width="8.8" height="12.41"/><rect class="cls-14" x="940.09" y="255.09" width="7.51" height="12.41"/><rect class="cls-14" x="940.09" y="234.56" width="7.51" height="12.41"/><rect class="cls-14" x="940.09" y="213.89" width="7.51" height="12.41"/><rect class="cls-14" x="940.09" y="276.88" width="7.51" height="12.41"/><rect class="cls-14" x="940.09" y="297.25" width="7.51" height="12.2"/><rect class="cls-11" x="720.86" y="242.48" width="81.81" height="133.1"/><rect class="cls-15" x="796.51" y="242.48" width="55.4" height="133.22"/><rect class="cls-16" x="720.86" y="242.48" width="81.81" height="5.05"/><rect class="cls-17" x="796.51" y="242.48" width="55.4" height="5.05"/><rect class="cls-13" x="776.22" y="263.32" width="9.05" height="12.75"/><rect class="cls-13" x="754.92" y="263.32" width="9.05" height="12.75"/><rect class="cls-13" x="733.61" y="263.32" width="9.05" height="12.75"/><rect class="cls-13" x="776.22" y="284.93" width="9.05" height="12.75"/><rect class="cls-13" x="754.92" y="284.93" width="9.05" height="12.75"/><rect class="cls-13" x="733.61" y="284.93" width="9.05" height="12.75"/><rect class="cls-13" x="776.22" y="305.63" width="9.05" height="12.75"/><rect class="cls-13" x="754.92" y="305.63" width="9.05" height="12.75"/><rect class="cls-13" x="733.61" y="305.63" width="9.05" height="12.75"/><rect class="cls-13" x="776.22" y="327.24" width="9.05" height="12.75"/><rect class="cls-13" x="754.92" y="327.24" width="9.05" height="12.75"/><rect class="cls-13" x="733.61" y="327.24" width="9.05" height="12.75"/><rect class="cls-14" x="823.72" y="305.66" width="7.72" height="12.75"/><rect class="cls-14" x="823.72" y="284.55" width="7.72" height="12.75"/><rect class="cls-14" x="823.72" y="263.32" width="7.72" height="12.75"/><rect class="cls-14" x="823.72" y="328.05" width="7.72" height="12.75"/><rect class="cls-14" x="819.86" y="353.58" width="15.44" height="22.12"/><path class="cls-4" d="M702.63,244.38c3.34-8,12.83-7.19,16.83-2.81,11.22,12.26,19.48,99.57,18.61,107.93-1.48,14.17-6,17.74-13,21-3.84,1.77-15.65,3-23.62.89-6-1.56-12.09-10-13.58-20.08C685.8,337.39,689.05,277,702.63,244.38Z"/><path class="cls-18" d="M707.36,404.71c0-.37.88-48.13.88-48.13l-8-6.49V348l8.86,5.32.88-44.88h1.48l1.77,15.64,5.91-2.36.29,1.48L715,326.47l.3,29.23,6.79-2.36.3,2.36-6.8,4.43v44.58S707.35,405.08,707.36,404.71Z"/><rect class="cls-11" x="769.29" y="331.64" width="92.91" height="80.7"/><path class="cls-8" d="M917.84,335.57h7.58l-30.66-37.92L887.34,302Z"/><path class="cls-12" d="M890,299.19,862.2,331.64v80.7h55.65V330.91Z"/><polygon class="cls-6" points="894.76 297.65 795.04 297.65 762.49 335.57 862.21 335.57 894.76 297.65"/><rect class="cls-13" x="834.81" y="352.48" width="10.27" height="14.48"/><rect class="cls-13" x="810.62" y="352.48" width="10.27" height="14.48"/><rect class="cls-13" x="786.42" y="352.48" width="10.27" height="14.48"/><rect class="cls-13" x="834.81" y="377.02" width="10.27" height="14.48"/><rect class="cls-13" x="810.62" y="377.02" width="10.27" height="14.48"/><rect class="cls-13" x="786.42" y="377.02" width="10.27" height="14.48"/><rect class="cls-14" x="886.1" y="329.62" width="8.77" height="14.48"/><rect class="cls-14" x="886.1" y="352.62" width="8.77" height="14.48"/><rect class="cls-14" x="881.72" y="377.47" width="17.54" height="34.94"/><path class="cls-19" d="M787.57,351.61l-34.29-25.79-35,25.9v99.91h69.26Z"/><polygon class="cls-8" points="753.28 299.41 753.28 326.13 787.57 351.61 787.57 324.89 753.28 299.41"/><polygon class="cls-6" points="753.28 299.41 753.28 326.13 718.17 352.23 718.17 325.51 753.28 299.41"/><rect class="cls-20" x="731.35" y="383.63" width="9.17" height="16.46"/><rect class="cls-20" x="731.35" y="358.24" width="9.17" height="16.46"/><rect class="cls-20" x="731.35" y="409.02" width="9.17" height="16.46"/><rect class="cls-20" x="748.91" y="383.15" width="9.17" height="16.46"/><rect class="cls-20" x="748.91" y="357.76" width="9.17" height="16.46"/><rect class="cls-20" x="748.91" y="408.54" width="9.17" height="16.46"/><rect class="cls-20" x="766.05" y="383.63" width="9.17" height="16.46"/><rect class="cls-20" x="766.05" y="358.24" width="9.17" height="16.46"/><rect class="cls-20" x="766.05" y="409.02" width="9.17" height="16.46"/><path class="cls-4" d="M781.5,412.61c-1-7.85-11.45-14.33-21.24-14.33a23.77,23.77,0,0,0-3.51.26,2.26,2.26,0,0,0,0-.26c0-11.27-7.78-20.41-17.36-20.41-.39,0-.77,0-1.14,0a37.91,37.91,0,0,0-32.47-18.6c-18,0-33,12.76-37,29.89-9.1,1.86-18.11,15-17,23.41L749.24,472Z"/><g id="yellow-tree2"><path class="cls-21" d="M263.55,321.86c7.36.68,11.3,17.22,17.46,28.21a53,53,0,0,1,6.27,28.35c-1,20.72-7.33,28.65-25.14,27.47-20.39-1.36-24.09-16.85-24.85-31.31s5.79-21.86,8-29.25C248.84,333.64,258.4,321.39,263.55,321.86Z"/><path class="cls-22" d="M261.89,426.34s-.28-4,.66-14.27c1-10.94,2-14,1.4-14a35.25,35.25,0,0,1-8.34-6A23.88,23.88,0,0,1,249.45,381c2.88,3.17,5,7.05,8.82,9.35a9.89,9.89,0,0,0,6.34,1.82s-1.77-10.73-3.83-21.47c-2.18-11.41-1.2-21.35-1-21.49.4-.25,5.55,30.2,8.06,28.54,2.86-1.9,10-18.9,10-18.9a58.91,58.91,0,0,1-2.71,12.63c-1.32,3.57-4.71,8.37-6.84,11.52,0,0,.88,15.74.4,30.8a68.44,68.44,0,0,0,.76,12.15,18,18,0,0,1-3.32.78A34,34,0,0,1,261.89,426.34Z"/></g><rect class="cls-11" x="436.95" y="216.58" width="60.99" height="19.45"/><rect class="cls-15" x="497.94" y="216.58" width="30.65" height="17.52"/><rect class="cls-11" x="418.96" y="231.55" width="89.33" height="211.1"/><path class="cls-12" d="M507.17,231.54h39.46l-.16,211.1h-39.3Z"/><rect class="cls-16" x="418.96" y="231.55" width="88.24" height="7.37"/><rect class="cls-17" x="507.2" y="231.55" width="39.39" height="7.37"/><rect class="cls-23" x="537.29" y="247" width="6.06" height="9.84"/><rect class="cls-13" x="458.37" y="247" width="10.52" height="9.84"/><rect class="cls-13" x="475.84" y="247" width="10.52" height="9.84"/><rect class="cls-13" x="493.31" y="247" width="10.52" height="9.84"/><rect class="cls-13" x="440.89" y="247" width="10.52" height="9.84"/><rect class="cls-13" x="423.42" y="247" width="10.52" height="9.84"/><rect class="cls-23" x="537.1" y="261.8" width="6.06" height="9.84"/><rect class="cls-13" x="458.18" y="261.8" width="10.52" height="9.84"/><rect class="cls-13" x="475.65" y="261.8" width="10.52" height="9.84"/><rect class="cls-13" x="493.12" y="261.8" width="10.52" height="9.84"/><rect class="cls-13" x="440.71" y="261.8" width="10.52" height="9.84"/><rect class="cls-13" x="423.23" y="261.8" width="10.52" height="9.84"/><rect class="cls-23" x="537.1" y="277.51" width="6.06" height="9.84"/><rect class="cls-13" x="458.18" y="277.51" width="10.52" height="9.84"/><rect class="cls-13" x="475.65" y="277.51" width="10.52" height="9.84"/><rect class="cls-13" x="493.12" y="277.51" width="10.52" height="9.84"/><rect class="cls-13" x="440.71" y="277.51" width="10.52" height="9.84"/><rect class="cls-13" x="423.23" y="277.51" width="10.52" height="9.84"/><rect class="cls-23" x="537.29" y="293.56" width="6.06" height="9.84"/><rect class="cls-13" x="458.37" y="293.56" width="10.52" height="9.84"/><rect class="cls-13" x="475.84" y="293.56" width="10.52" height="9.84"/><rect class="cls-13" x="493.31" y="293.56" width="10.52" height="9.84"/><rect class="cls-13" x="440.89" y="293.56" width="10.52" height="9.84"/><rect class="cls-13" x="423.42" y="293.56" width="10.52" height="9.84"/><rect class="cls-23" x="537.29" y="308.9" width="6.06" height="9.84"/><rect class="cls-13" x="458.37" y="308.9" width="10.52" height="9.84"/><rect class="cls-13" x="475.84" y="308.9" width="10.52" height="9.84"/><rect class="cls-13" x="493.31" y="308.9" width="10.52" height="9.84"/><rect class="cls-13" x="440.89" y="308.9" width="10.52" height="9.84"/><rect class="cls-13" x="423.42" y="308.9" width="10.52" height="9.84"/><rect class="cls-23" x="537.1" y="323.7" width="6.06" height="9.84"/><rect class="cls-13" x="458.18" y="323.7" width="10.52" height="9.84"/><rect class="cls-13" x="475.65" y="323.7" width="10.52" height="9.84"/><rect class="cls-13" x="493.12" y="323.7" width="10.52" height="9.84"/><rect class="cls-13" x="440.71" y="323.7" width="10.52" height="9.84"/><rect class="cls-13" x="423.23" y="323.7" width="10.52" height="9.84"/><rect class="cls-23" x="537.1" y="339.4" width="6.06" height="9.84"/><rect class="cls-13" x="458.18" y="339.4" width="10.52" height="9.84"/><rect class="cls-13" x="475.65" y="339.4" width="10.52" height="9.84"/><rect class="cls-13" x="493.12" y="339.4" width="10.52" height="9.84"/><rect class="cls-13" x="440.71" y="339.4" width="10.52" height="9.84"/><rect class="cls-13" x="423.23" y="339.4" width="10.52" height="9.84"/><rect class="cls-23" x="537.29" y="355.45" width="6.06" height="9.84"/><rect class="cls-13" x="458.37" y="355.45" width="10.52" height="9.84"/><rect class="cls-13" x="475.84" y="355.45" width="10.52" height="9.84"/><rect class="cls-13" x="493.31" y="355.45" width="10.52" height="9.84"/><rect class="cls-13" x="440.89" y="355.45" width="10.52" height="9.84"/><rect class="cls-13" x="423.42" y="355.45" width="10.52" height="9.84"/><rect class="cls-23" x="536.92" y="371.13" width="6.06" height="9.84"/><rect class="cls-13" x="457.99" y="371.13" width="10.52" height="9.84"/><rect class="cls-13" x="475.47" y="371.13" width="10.52" height="9.84"/><rect class="cls-13" x="492.94" y="371.13" width="10.52" height="9.84"/><rect class="cls-13" x="440.52" y="371.13" width="10.52" height="9.84"/><rect class="cls-13" x="423.05" y="371.13" width="10.52" height="9.84"/><rect class="cls-23" x="537.1" y="387.17" width="6.06" height="9.84"/><rect class="cls-13" x="458.18" y="387.17" width="10.52" height="9.84"/><rect class="cls-13" x="475.65" y="387.17" width="10.52" height="9.84"/><rect class="cls-13" x="493.12" y="387.17" width="10.52" height="9.84"/><rect class="cls-13" x="440.71" y="387.17" width="10.52" height="9.84"/><rect class="cls-13" x="423.23" y="387.17" width="10.52" height="9.84"/><rect class="cls-23" x="537.29" y="401.92" width="6.06" height="9.84"/><rect class="cls-13" x="458.37" y="401.91" width="10.52" height="9.84"/><rect class="cls-13" x="475.84" y="401.91" width="10.52" height="9.84"/><rect class="cls-13" x="493.31" y="401.91" width="10.52" height="9.84"/><rect class="cls-13" x="440.89" y="401.91" width="10.52" height="9.84"/><rect class="cls-13" x="423.42" y="401.91" width="10.52" height="9.84"/><rect class="cls-23" x="537.48" y="417.96" width="6.06" height="9.84"/><rect class="cls-13" x="458.55" y="417.96" width="10.52" height="9.84"/><rect class="cls-13" x="476.02" y="417.96" width="10.52" height="9.84"/><rect class="cls-13" x="493.5" y="417.96" width="10.52" height="9.84"/><rect class="cls-13" x="441.08" y="417.96" width="10.52" height="9.84"/><rect class="cls-13" x="423.61" y="417.96" width="10.52" height="9.84"/><rect class="cls-11" x="575.34" y="214.22" width="60.99" height="19.45"/><rect class="cls-15" x="636.33" y="214.22" width="30.65" height="17.52"/><rect class="cls-11" x="557.36" y="229.19" width="89.33" height="211.1"/><path class="cls-12" d="M645.57,229.18H685l-.15,211.1h-39.3Z"/><rect class="cls-16" x="557.36" y="229.19" width="88.24" height="7.37"/><rect class="cls-17" x="645.59" y="229.19" width="39.39" height="7.37"/><rect class="cls-23" x="675.68" y="244.65" width="6.06" height="9.84"/><rect class="cls-13" x="596.76" y="244.64" width="10.52" height="9.84"/><rect class="cls-13" x="614.23" y="244.64" width="10.52" height="9.84"/><rect class="cls-13" x="631.71" y="244.64" width="10.52" height="9.84"/><rect class="cls-13" x="579.29" y="244.64" width="10.52" height="9.84"/><rect class="cls-13" x="561.81" y="244.64" width="10.52" height="9.84"/><rect class="cls-23" x="675.5" y="259.45" width="6.06" height="9.84"/><rect class="cls-13" x="596.57" y="259.44" width="10.52" height="9.84"/><rect class="cls-13" x="614.05" y="259.44" width="10.52" height="9.84"/><rect class="cls-13" x="631.52" y="259.44" width="10.52" height="9.84"/><rect class="cls-13" x="579.1" y="259.44" width="10.52" height="9.84"/><rect class="cls-13" x="561.63" y="259.44" width="10.52" height="9.84"/><rect class="cls-23" x="675.5" y="275.15" width="6.06" height="9.84"/><rect class="cls-13" x="596.57" y="275.15" width="10.52" height="9.84"/><rect class="cls-13" x="614.05" y="275.15" width="10.52" height="9.84"/><rect class="cls-13" x="631.52" y="275.15" width="10.52" height="9.84"/><rect class="cls-13" x="579.1" y="275.15" width="10.52" height="9.84"/><rect class="cls-13" x="561.63" y="275.15" width="10.52" height="9.84"/><rect class="cls-23" x="675.68" y="291.2" width="6.06" height="9.84"/><rect class="cls-13" x="596.76" y="291.2" width="10.52" height="9.84"/><rect class="cls-13" x="614.23" y="291.2" width="10.52" height="9.84"/><rect class="cls-13" x="631.71" y="291.2" width="10.52" height="9.84"/><rect class="cls-13" x="579.29" y="291.2" width="10.52" height="9.84"/><rect class="cls-13" x="561.81" y="291.2" width="10.52" height="9.84"/><rect class="cls-23" x="675.68" y="306.54" width="6.06" height="9.84"/><rect class="cls-13" x="596.76" y="306.54" width="10.52" height="9.84"/><rect class="cls-13" x="614.23" y="306.54" width="10.52" height="9.84"/><rect class="cls-13" x="631.71" y="306.54" width="10.52" height="9.84"/><rect class="cls-13" x="579.29" y="306.54" width="10.52" height="9.84"/><rect class="cls-13" x="561.81" y="306.54" width="10.52" height="9.84"/><rect class="cls-23" x="675.5" y="321.34" width="6.06" height="9.84"/><rect class="cls-13" x="596.57" y="321.34" width="10.52" height="9.84"/><rect class="cls-13" x="614.05" y="321.34" width="10.52" height="9.84"/><rect class="cls-13" x="631.52" y="321.34" width="10.52" height="9.84"/><rect class="cls-13" x="579.1" y="321.34" width="10.52" height="9.84"/><rect class="cls-13" x="561.63" y="321.34" width="10.52" height="9.84"/><rect class="cls-23" x="675.5" y="337.04" width="6.06" height="9.84"/><rect class="cls-13" x="596.57" y="337.04" width="10.52" height="9.84"/><rect class="cls-13" x="614.05" y="337.04" width="10.52" height="9.84"/><rect class="cls-13" x="631.52" y="337.04" width="10.52" height="9.84"/><rect class="cls-13" x="579.1" y="337.04" width="10.52" height="9.84"/><rect class="cls-13" x="561.63" y="337.04" width="10.52" height="9.84"/><rect class="cls-23" x="675.68" y="353.09" width="6.06" height="9.84"/><rect class="cls-13" x="596.76" y="353.09" width="10.52" height="9.84"/><rect class="cls-13" x="614.23" y="353.09" width="10.52" height="9.84"/><rect class="cls-13" x="631.71" y="353.09" width="10.52" height="9.84"/><rect class="cls-13" x="579.29" y="353.09" width="10.52" height="9.84"/><rect class="cls-13" x="561.81" y="353.09" width="10.52" height="9.84"/><rect class="cls-23" x="675.31" y="368.77" width="6.06" height="9.84"/><rect class="cls-13" x="596.39" y="368.77" width="10.52" height="9.84"/><rect class="cls-13" x="613.86" y="368.77" width="10.52" height="9.84"/><rect class="cls-13" x="631.33" y="368.77" width="10.52" height="9.84"/><rect class="cls-13" x="578.91" y="368.77" width="10.52" height="9.84"/><rect class="cls-13" x="561.44" y="368.77" width="10.52" height="9.84"/><rect class="cls-23" x="675.5" y="384.81" width="6.06" height="9.84"/><rect class="cls-13" x="596.57" y="384.81" width="10.52" height="9.84"/><rect class="cls-13" x="614.05" y="384.81" width="10.52" height="9.84"/><rect class="cls-13" x="631.52" y="384.81" width="10.52" height="9.84"/><rect class="cls-13" x="579.1" y="384.81" width="10.52" height="9.84"/><rect class="cls-13" x="561.63" y="384.81" width="10.52" height="9.84"/><rect class="cls-23" x="675.68" y="399.56" width="6.06" height="9.84"/><rect class="cls-13" x="596.76" y="399.55" width="10.52" height="9.84"/><rect class="cls-13" x="614.23" y="399.55" width="10.52" height="9.84"/><rect class="cls-13" x="631.71" y="399.55" width="10.52" height="9.84"/><rect class="cls-13" x="579.29" y="399.55" width="10.52" height="9.84"/><rect class="cls-13" x="561.81" y="399.55" width="10.52" height="9.84"/><rect class="cls-23" x="675.87" y="415.6" width="6.06" height="9.84"/><rect class="cls-13" x="596.95" y="415.6" width="10.52" height="9.84"/><rect class="cls-13" x="614.42" y="415.6" width="10.52" height="9.84"/><rect class="cls-13" x="631.89" y="415.6" width="10.52" height="9.84"/><rect class="cls-13" x="579.47" y="415.6" width="10.52" height="9.84"/><rect class="cls-13" x="562" y="415.6" width="10.52" height="9.84"/><rect class="cls-24" x="1110.07" y="171.35" width="60.99" height="19.45"/><rect class="cls-5" x="1171.06" y="171.35" width="30.65" height="17.52"/><rect class="cls-24" x="1092.09" y="186.32" width="89.33" height="211.1"/><path class="cls-25" d="M1180.3,186.32h39.45l-.15,211.1h-39.3Z"/><rect class="cls-16" x="1092.09" y="186.32" width="88.24" height="7.37"/><rect class="cls-17" x="1180.33" y="186.32" width="39.39" height="7.37"/><rect class="cls-23" x="1210.41" y="201.78" width="6.06" height="9.84"/><rect class="cls-13" x="1131.49" y="201.78" width="10.52" height="9.84"/><rect class="cls-13" x="1148.96" y="201.78" width="10.52" height="9.84"/><rect class="cls-13" x="1166.44" y="201.78" width="10.52" height="9.84"/><rect class="cls-13" x="1114.02" y="201.78" width="10.52" height="9.84"/><rect class="cls-13" x="1096.54" y="201.78" width="10.52" height="9.84"/><rect class="cls-23" x="1210.23" y="216.58" width="6.06" height="9.84"/><rect class="cls-13" x="1131.3" y="216.58" width="10.52" height="9.84"/><rect class="cls-13" x="1148.78" y="216.58" width="10.52" height="9.84"/><rect class="cls-13" x="1166.25" y="216.58" width="10.52" height="9.84"/><rect class="cls-13" x="1113.83" y="216.58" width="10.52" height="9.84"/><rect class="cls-13" x="1096.36" y="216.58" width="10.52" height="9.84"/><rect class="cls-23" x="1210.23" y="232.28" width="6.06" height="9.84"/><rect class="cls-13" x="1131.3" y="232.28" width="10.52" height="9.84"/><rect class="cls-13" x="1148.78" y="232.28" width="10.52" height="9.84"/><rect class="cls-13" x="1166.25" y="232.28" width="10.52" height="9.84"/><rect class="cls-13" x="1113.83" y="232.28" width="10.52" height="9.84"/><rect class="cls-13" x="1096.36" y="232.28" width="10.52" height="9.84"/><rect class="cls-23" x="1210.41" y="248.33" width="6.06" height="9.84"/><rect class="cls-13" x="1131.49" y="248.33" width="10.52" height="9.84"/><rect class="cls-13" x="1148.96" y="248.33" width="10.52" height="9.84"/><rect class="cls-13" x="1166.44" y="248.33" width="10.52" height="9.84"/><rect class="cls-13" x="1114.02" y="248.33" width="10.52" height="9.84"/><rect class="cls-13" x="1096.54" y="248.33" width="10.52" height="9.84"/><rect class="cls-23" x="1210.41" y="263.67" width="6.06" height="9.84"/><rect class="cls-13" x="1131.49" y="263.67" width="10.52" height="9.84"/><rect class="cls-13" x="1148.96" y="263.67" width="10.52" height="9.84"/><rect class="cls-13" x="1166.44" y="263.67" width="10.52" height="9.84"/><rect class="cls-13" x="1114.02" y="263.67" width="10.52" height="9.84"/><rect class="cls-13" x="1096.54" y="263.67" width="10.52" height="9.84"/><rect class="cls-23" x="1210.23" y="278.47" width="6.06" height="9.84"/><rect class="cls-13" x="1131.3" y="278.47" width="10.52" height="9.84"/><rect class="cls-13" x="1148.78" y="278.47" width="10.52" height="9.84"/><rect class="cls-13" x="1166.25" y="278.47" width="10.52" height="9.84"/><rect class="cls-13" x="1113.83" y="278.47" width="10.52" height="9.84"/><rect class="cls-13" x="1096.36" y="278.47" width="10.52" height="9.84"/><rect class="cls-23" x="1210.23" y="294.18" width="6.06" height="9.84"/><rect class="cls-13" x="1131.3" y="294.18" width="10.52" height="9.84"/><rect class="cls-13" x="1148.78" y="294.18" width="10.52" height="9.84"/><rect class="cls-13" x="1166.25" y="294.18" width="10.52" height="9.84"/><rect class="cls-13" x="1113.83" y="294.18" width="10.52" height="9.84"/><rect class="cls-13" x="1096.36" y="294.18" width="10.52" height="9.84"/><rect class="cls-23" x="1210.41" y="310.22" width="6.06" height="9.84"/><rect class="cls-13" x="1131.49" y="310.22" width="10.52" height="9.84"/><rect class="cls-13" x="1148.96" y="310.22" width="10.52" height="9.84"/><rect class="cls-13" x="1166.44" y="310.22" width="10.52" height="9.84"/><rect class="cls-13" x="1114.02" y="310.22" width="10.52" height="9.84"/><rect class="cls-13" x="1096.54" y="310.22" width="10.52" height="9.84"/><rect class="cls-23" x="1210.04" y="325.9" width="6.06" height="9.84"/><rect class="cls-13" x="1131.12" y="325.9" width="10.52" height="9.84"/><rect class="cls-13" x="1148.59" y="325.9" width="10.52" height="9.84"/><rect class="cls-13" x="1166.06" y="325.9" width="10.52" height="9.84"/><rect class="cls-13" x="1113.64" y="325.9" width="10.52" height="9.84"/><rect class="cls-13" x="1096.17" y="325.9" width="10.52" height="9.84"/><rect class="cls-23" x="1210.23" y="341.95" width="6.06" height="9.84"/><rect class="cls-13" x="1131.3" y="341.94" width="10.52" height="9.84"/><rect class="cls-13" x="1148.78" y="341.94" width="10.52" height="9.84"/><rect class="cls-13" x="1166.25" y="341.94" width="10.52" height="9.84"/><rect class="cls-13" x="1113.83" y="341.94" width="10.52" height="9.84"/><rect class="cls-13" x="1096.36" y="341.94" width="10.52" height="9.84"/><rect class="cls-23" x="1210.41" y="356.69" width="6.06" height="9.84"/><rect class="cls-13" x="1131.49" y="356.69" width="10.52" height="9.84"/><rect class="cls-13" x="1148.96" y="356.69" width="10.52" height="9.84"/><rect class="cls-13" x="1166.44" y="356.69" width="10.52" height="9.84"/><rect class="cls-13" x="1114.02" y="356.69" width="10.52" height="9.84"/><rect class="cls-13" x="1096.54" y="356.69" width="10.52" height="9.84"/><rect class="cls-23" x="1210.6" y="372.73" width="6.06" height="9.84"/><rect class="cls-13" x="1131.68" y="372.73" width="10.52" height="9.84"/><rect class="cls-13" x="1149.15" y="372.73" width="10.52" height="9.84"/><rect class="cls-13" x="1166.62" y="372.73" width="10.52" height="9.84"/><rect class="cls-13" x="1114.2" y="372.73" width="10.52" height="9.84"/><rect class="cls-13" x="1096.73" y="372.73" width="10.52" height="9.84"/><g id="yellow-tree3"><path class="cls-3" d="M1211.61,258.18c8.09.75,12.42,18.92,19.18,31a58.06,58.06,0,0,1,6.9,31.14c-1.06,22.77-8,31.49-27.63,30.18-22.4-1.48-26.47-18.51-27.3-34.39s6.36-24,8.82-32.14C1195.46,271.12,1206,257.67,1211.61,258.18Z"/></g><g id="yellow-tree4"><path class="cls-21" d="M1234.27,275.32c11.38,1,17.46,26.61,27,43.6,5.38,9.6,10.6,24.51,9.7,43.82-1.49,32-11.32,44.29-38.87,42.46-31.51-2.1-37.23-26.05-38.4-48.39-1.17-22.54,9-33.8,12.4-45.22C1211.54,293.52,1226.31,274.59,1234.27,275.32Z"/><path class="cls-26" d="M1231.71,433.07s-.43-6.18,1-22.06c1.54-16.9,3.09-21.64,2.17-21.58a53.73,53.73,0,0,1-12.89-9.22c-7.12-6.8-9.52-16.8-9.52-17.23,4.44,4.91,7.75,10.9,13.63,14.46,3.48,2.11,5.14,2.78,9.8,2.82,0,0-2.74-16.6-5.91-33.2-3.38-17.64-1.87-33-1.53-33.21.61-.39,8.57,46.67,12.44,44.11,4.43-2.94,15.54-29.22,15.54-29.22s-1,10.84-4.19,19.53c-2,5.52-7.28,12.94-10.57,17.8,0,0,1.35,24.34.62,47.61a105.42,105.42,0,0,0,1.18,18.78,27.72,27.72,0,0,1-5.14,1.21A51.18,51.18,0,0,1,1231.71,433.07Z"/></g><path class="cls-19" d="M1328.47,290.51l-39.79-29.94-40.59,30.07v116h80.38Z"/><polygon class="cls-8" points="1288.68 229.92 1288.68 260.93 1328.47 290.51 1328.47 259.5 1288.68 229.92"/><polygon class="cls-6" points="1288.68 229.92 1288.68 260.93 1247.92 291.22 1247.92 260.21 1288.68 229.92"/><rect class="cls-20" x="1263.22" y="327.67" width="10.64" height="19.11"/><rect class="cls-20" x="1263.22" y="298.2" width="10.64" height="19.11"/><rect class="cls-20" x="1263.22" y="357.14" width="10.64" height="19.11"/><rect class="cls-20" x="1283.6" y="327.11" width="10.64" height="19.11"/><rect class="cls-20" x="1283.6" y="297.65" width="10.64" height="19.11"/><rect class="cls-20" x="1283.6" y="356.58" width="10.64" height="19.11"/><rect class="cls-20" x="1303.49" y="327.67" width="10.64" height="19.11"/><rect class="cls-20" x="1303.49" y="298.2" width="10.64" height="19.11"/><rect class="cls-20" x="1303.49" y="357.14" width="10.64" height="19.11"/><path class="cls-2" d="M266.29,443.77c-1.6-13.12-18.1-24-33.58-24a36,36,0,0,0-5.54.43c0-.14,0-.28,0-.43,0-18.84-12.3-34.14-27.44-34.14-.61,0-1.21,0-1.8.07-10.59-18.65-29.62-31.1-51.31-31.1-28.4,0-52.23,21.34-58.55,50-14.39,3.11-28.63,25.14-26.88,39.15Z"/><path class="cls-27" d="M1098.64,375.44l-18.15-46.18L1055.05,375l-.58,100.9,42.89-.43Z"/><polygon class="cls-6" points="902.4 329.26 1080.49 329.26 1057.5 375.02 879.41 375.02 902.4 329.26"/><path class="cls-8" d="M1010.87,348.84l-9.94,27.75-30-27.58Z"/><path class="cls-19" d="M1000.76,375l56.21-.11V476H879.45v-101l61.13.11,30.32-26Z"/><rect class="cls-13" x="892.26" y="410.56" width="17.98" height="12.06"/><rect class="cls-13" x="892.26" y="391.39" width="17.98" height="12.06"/><rect class="cls-13" x="892.26" y="429.73" width="17.98" height="12.06"/><rect class="cls-13" x="892.26" y="448.91" width="17.98" height="12.06"/><rect class="cls-13" x="920.01" y="410.56" width="17.98" height="12.06"/><rect class="cls-13" x="920.01" y="391.39" width="17.98" height="12.06"/><rect class="cls-13" x="920.01" y="429.73" width="17.98" height="12.06"/><rect class="cls-13" x="920.01" y="448.91" width="17.98" height="12.06"/><rect class="cls-13" x="948.09" y="410.56" width="17.98" height="12.06"/><rect class="cls-13" x="948.09" y="391.39" width="17.98" height="12.06"/><rect class="cls-13" x="948.09" y="429.73" width="17.98" height="12.06"/><rect class="cls-13" x="948.09" y="448.91" width="17.98" height="12.06"/><rect class="cls-13" x="976.17" y="410.56" width="17.98" height="12.06"/><rect class="cls-13" x="976.17" y="391.39" width="17.98" height="12.06"/><rect class="cls-13" x="976.17" y="429.73" width="17.98" height="12.06"/><rect class="cls-13" x="976.17" y="448.91" width="17.98" height="12.06"/><rect class="cls-13" x="1003.92" y="410.56" width="17.98" height="12.06"/><rect class="cls-13" x="1003.92" y="391.39" width="17.98" height="12.06"/><rect class="cls-13" x="1003.92" y="429.73" width="17.98" height="12.06"/><rect class="cls-13" x="1003.92" y="448.91" width="17.98" height="12.06"/><rect class="cls-13" x="1032" y="410.56" width="17.98" height="12.06"/><rect class="cls-13" x="1032" y="391.39" width="17.98" height="12.06"/><rect class="cls-13" x="1032" y="429.73" width="17.98" height="12.06"/><rect class="cls-13" x="1032" y="448.91" width="17.98" height="12.06"/><rect class="cls-11" x="1028.58" y="311.95" width="107.16" height="174.33"/><rect class="cls-15" x="1127.66" y="311.95" width="72.56" height="174.49"/><rect class="cls-16" x="1028.58" y="311.95" width="107.16" height="6.62"/><rect class="cls-17" x="1127.66" y="311.95" width="72.56" height="6.62"/><rect class="cls-13" x="1101.08" y="339.25" width="11.85" height="16.7"/><rect class="cls-13" x="1073.19" y="339.25" width="11.85" height="16.7"/><rect class="cls-13" x="1045.27" y="339.25" width="11.85" height="16.7"/><rect class="cls-13" x="1101.08" y="367.55" width="11.85" height="16.7"/><rect class="cls-13" x="1073.19" y="367.55" width="11.85" height="16.7"/><rect class="cls-13" x="1045.27" y="367.55" width="11.85" height="16.7"/><rect class="cls-13" x="1101.08" y="394.67" width="11.85" height="16.7"/><rect class="cls-13" x="1073.19" y="394.67" width="11.85" height="16.7"/><rect class="cls-13" x="1045.27" y="394.67" width="11.85" height="16.7"/><rect class="cls-13" x="1101.08" y="422.97" width="11.85" height="16.7"/><rect class="cls-13" x="1073.19" y="422.97" width="11.85" height="16.7"/><rect class="cls-13" x="1045.27" y="422.97" width="11.85" height="16.7"/><rect class="cls-14" x="1163.29" y="394.7" width="10.11" height="16.7"/><rect class="cls-14" x="1163.29" y="367.06" width="10.11" height="16.7"/><rect class="cls-14" x="1163.29" y="339.25" width="10.11" height="16.7"/><rect class="cls-14" x="1163.29" y="424.03" width="10.11" height="16.7"/><rect class="cls-14" x="1158.24" y="457.47" width="20.23" height="28.98"/><rect class="cls-28" x="92.23" y="493.38" width="1281.5" height="99.86"/><rect class="cls-29" x="750.9" y="442.19" width="120.34" height="104.53"/><path class="cls-30" d="M943.3,447.28h9.81L913.4,398.17l-9.61,5.69Z"/><path class="cls-31" d="M907.28,400.17l-36,42V546.72h72.07V441.24Z"/><polygon class="cls-32" points="913.4 398.17 784.25 398.17 742.09 447.28 871.24 447.28 913.4 398.17"/><rect class="cls-20" x="835.75" y="469.19" width="13.3" height="18.76"/><rect class="cls-20" x="804.43" y="469.19" width="13.3" height="18.76"/><rect class="cls-20" x="773.08" y="469.19" width="13.3" height="18.76"/><rect class="cls-20" x="835.75" y="500.97" width="13.3" height="18.76"/><rect class="cls-20" x="804.43" y="500.97" width="13.3" height="18.76"/><rect class="cls-20" x="773.08" y="500.97" width="13.3" height="18.76"/><rect class="cls-10" x="902.18" y="439.58" width="11.36" height="18.76"/><rect class="cls-10" x="902.18" y="469.37" width="11.36" height="18.76"/><rect class="cls-10" x="896.51" y="501.55" width="22.72" height="45.26"/><path class="cls-33" d="M577.45,444.34c-1-8.16-10.75-14.91-19.94-14.91a19.92,19.92,0,0,0-3.29.27,2.44,2.44,0,0,0,0-.27c0-11.72-7.3-21.23-16.29-21.23-.36,0-.72,0-1.07,0-6.28-11.6-17.58-19.35-30.45-19.35-16.86,0-31,13.28-34.76,31.1-8.54,1.93-17,15.64-16,24.35Z"/><path class="cls-32" d="M965.34,426.56v-8.37s69.71.31,121.53.31l60.33,37.75L994.77,453Z"/><rect class="cls-29" x="965.33" y="423.47" width="121.53" height="116.29"/><rect class="cls-20" x="1042.52" y="444.71" width="14.49" height="13.56"/><rect class="cls-20" x="1012.68" y="444.71" width="14.49" height="13.56"/><rect class="cls-20" x="982.85" y="444.71" width="14.49" height="13.56"/><path class="cls-31" d="M1086.86,423.47l53,32.77,1.16,83.52h-54.15Z"/><path class="cls-6" d="M135.85,418.5h-5.13s25.12-35.64,25.19-35.51,4.67,3.2,4.67,3.2S134.89,418.68,135.85,418.5Z"/><path class="cls-19" d="M135.84,455.39v-39.1L159.16,383l23.33,33.3v39.1Z"/><rect class="cls-15" x="180.58" y="416.3" width="112.54" height="39.09"/><rect class="cls-34" x="195.48" y="427.91" width="5.74" height="11.55"/><rect class="cls-34" x="214.73" y="427.91" width="5.74" height="11.55"/><rect class="cls-34" x="233.98" y="427.91" width="5.74" height="11.55"/><rect class="cls-34" x="253.23" y="427.91" width="5.74" height="11.55"/><rect class="cls-34" x="272.48" y="427.91" width="5.74" height="11.55"/><polygon class="cls-8" points="155.92 382.99 273.64 382.99 298.31 418.5 180.58 418.5 155.92 382.99"/><path class="cls-6" d="M1232.72,360.53h-5.13s25.11-35.65,25.19-35.52,4.66,3.21,4.66,3.21S1231.75,360.7,1232.72,360.53Z"/><path class="cls-19" d="M1232.71,397.41V358.32L1256,325l23.32,33.31v39.09Z"/><rect class="cls-15" x="1277.45" y="358.32" width="112.54" height="39.09"/><rect class="cls-34" x="1292.35" y="369.93" width="5.74" height="11.55"/><rect class="cls-34" x="1311.6" y="369.93" width="5.74" height="11.55"/><rect class="cls-34" x="1330.85" y="369.93" width="5.74" height="11.55"/><rect class="cls-34" x="1350.1" y="369.93" width="5.74" height="11.55"/><rect class="cls-34" x="1369.35" y="369.93" width="5.74" height="11.55"/><polygon class="cls-8" points="1252.79 325.01 1370.51 325.01 1395.18 360.53 1277.45 360.53 1252.79 325.01"/><path class="cls-35" d="M374.91,466.72c-1-8-11-14.67-20.33-14.67a20.56,20.56,0,0,0-3.35.27v-.27c0-11.52-7.44-20.88-16.61-20.88-.36,0-.73,0-1.08,0-6.41-11.41-17.93-19-31.07-19-17.18,0-31.61,13.05-35.44,30.58-8.7,1.9-17.32,15.38-16.26,24Z"/><path class="cls-36" d="M923.82,542.44c-.82-5.37-9.24-9.81-17.15-9.81a21.78,21.78,0,0,0-2.82.18v-.18a14,14,0,0,0-14-14c-.31,0-.62,0-.92,0-5.4-7.64-15.12-12.74-26.19-12.74-14.5,0-26.67,8.74-29.89,20.47-7.35,1.28-14.62,10.3-13.72,16Z"/><path class="cls-36" d="M175.6,593.84c-.82-6.45-9.24-11.78-17.15-11.78a19,19,0,0,0-2.83.21,1.48,1.48,0,0,0,0-.21c0-9.25-6.28-16.77-14-16.77-.31,0-.62,0-.92,0a30.47,30.47,0,0,0-26.2-15.28c-14.49,0-26.66,10.48-29.89,24.56C77.27,576.13,70,587,70.9,593.84Z"/><path class="cls-32" d="M739.61,409.12l0-7.81s-72.61.29-126.58.29l-62.84,35.21,158.75-3Z"/><rect class="cls-37" x="613.05" y="406.24" width="126.58" height="108.47"/><rect class="cls-38" x="644.14" y="426.05" width="15.1" height="12.65"/><rect class="cls-38" x="675.21" y="426.05" width="15.1" height="12.65"/><rect class="cls-38" x="706.29" y="426.05" width="15.1" height="12.65"/><path class="cls-39" d="M613.05,406.24l-55.19,30.57-1.21,77.91h56.4Z"/><path class="cls-32" d="M777,456.92l.49-4.59s-54.53.17-95.05.17l-49.3,20.7,119.36-1.77Z"/><rect class="cls-37" x="682.68" y="456.9" width="91.76" height="57.83"/><rect class="cls-40" x="759.3" y="472.13" width="6.37" height="13.69"/><path class="cls-39" d="M682.68,456.9l-40,16.3-.87,41.53h40.88Z"/><rect class="cls-41" x="652.86" y="499.56" width="10.94" height="15.18"/><rect class="cls-41" x="670.15" y="499.56" width="6.98" height="6.84"/><rect class="cls-29" x="420.45" y="340.93" width="107.16" height="174.33"/><rect class="cls-42" x="519.53" y="340.93" width="72.56" height="174.49"/><rect class="cls-43" x="420.45" y="340.93" width="107.16" height="6.62"/><rect class="cls-44" x="519.53" y="340.93" width="72.56" height="6.62"/><rect class="cls-20" x="492.95" y="368.23" width="11.85" height="16.7"/><rect class="cls-20" x="465.06" y="368.23" width="11.85" height="16.7"/><rect class="cls-20" x="437.14" y="368.23" width="11.85" height="16.7"/><rect class="cls-20" x="492.95" y="396.53" width="11.85" height="16.7"/><rect class="cls-20" x="465.06" y="396.53" width="11.85" height="16.7"/><rect class="cls-20" x="437.14" y="396.53" width="11.85" height="16.7"/><rect class="cls-20" x="492.95" y="423.65" width="11.85" height="16.7"/><rect class="cls-20" x="465.06" y="423.65" width="11.85" height="16.7"/><rect class="cls-20" x="437.14" y="423.65" width="11.85" height="16.7"/><rect class="cls-20" x="492.95" y="451.95" width="11.85" height="16.7"/><rect class="cls-20" x="465.06" y="451.95" width="11.85" height="16.7"/><rect class="cls-20" x="437.14" y="451.95" width="11.85" height="16.7"/><rect class="cls-10" x="555.16" y="423.68" width="10.11" height="16.7"/><rect class="cls-10" x="555.16" y="396.03" width="10.11" height="16.7"/><rect class="cls-10" x="555.16" y="368.23" width="10.11" height="16.7"/><rect class="cls-10" x="555.16" y="453" width="10.11" height="16.7"/><rect class="cls-44" x="550.11" y="486.44" width="20.23" height="28.98"/><path class="cls-4" d="M1428.13,418.5c-.9-6.86-10.16-12.54-18.85-12.54a21.18,21.18,0,0,0-3.11.23V406c0-9.85-6.91-17.85-15.41-17.85-.34,0-.67,0-1,0a33.7,33.7,0,0,0-61.69,9.88C1320,399.65,1312,411.18,1313,418.5Z"/><g id="yellow-tree5"><path class="cls-21" d="M1427.19,380.52c9.79.88,15.07,22.88,23.29,37.49,4.63,8.25,9.15,21.07,8.41,37.69-1.24,27.57-9.68,38.13-33.39,36.6-27.12-1.75-32.08-22.36-33.12-41.58-1.05-19.4,7.65-29.11,10.6-38.94C1407.65,396.22,1420.34,379.9,1427.19,380.52Z"/><path class="cls-26" d="M1425.23,519.51s-.38-5.31.84-19c1.3-14.55,2.62-18.63,1.83-18.57a46.71,46.71,0,0,1-11.11-7.92,31.78,31.78,0,0,1-8.22-14.81c3.83,4.22,6.69,9.37,11.75,12.43a13.24,13.24,0,0,0,8.44,2.4s-2.38-14.28-5.14-28.55c-2.93-15.18-1.65-28.41-1.36-28.59.53-.33,7.45,40.16,10.77,37.94,3.81-2.53,13.33-25.16,13.33-25.16a77.64,77.64,0,0,1-3.58,16.81c-1.74,4.75-6.24,11.14-9.07,15.34,0,0,1.21,20.94.62,41a90.05,90.05,0,0,0,1,16.16,23.9,23.9,0,0,1-4.42,1A43.71,43.71,0,0,1,1425.23,519.51Z"/></g><rect class="cls-29" x="1151.14" y="430.66" width="127.44" height="110.7"/><path class="cls-8" d="M1354.89,436.05h10.4l-42.06-52-10.17,6Z"/><path class="cls-31" d="M1316.75,386.15l-38.17,44.51V541.35h76.33V429.65Z"/><polygon class="cls-6" points="1323.23 384.03 1186.46 384.03 1141.81 436.05 1278.58 436.05 1323.23 384.03"/><rect class="cls-20" x="1241.01" y="459.24" width="14.09" height="19.87"/><rect class="cls-20" x="1207.83" y="459.24" width="14.09" height="19.87"/><rect class="cls-20" x="1174.63" y="459.24" width="14.09" height="19.87"/><rect class="cls-20" x="1241.01" y="492.9" width="14.09" height="19.87"/><rect class="cls-20" x="1207.83" y="492.9" width="14.09" height="19.87"/><rect class="cls-20" x="1174.63" y="492.9" width="14.09" height="19.87"/><rect class="cls-10" x="1311.36" y="427.89" width="12.03" height="19.87"/><rect class="cls-10" x="1311.36" y="459.43" width="12.03" height="19.87"/><rect class="cls-10" x="1305.35" y="493.52" width="24.06" height="47.93"/><path class="cls-4" d="M1220.63,444.47c2.68-6.44,10.3-5.78,13.51-2.27,9,9.85,15.64,80,14.94,86.68-1.19,11.38-4.83,14.25-10.43,16.83-3.09,1.43-12.57,2.37-19,.71-4.82-1.25-9.71-8.06-10.91-16.12C1207.11,519.16,1209.72,470.68,1220.63,444.47Z"/><path class="cls-18" d="M1224.42,573.22c0-.3.71-38.65.71-38.65l-6.4-5.22v-1.66l7.11,4.27.71-36h1.19l1.42,12.57,4.74-1.9.24,1.18-3.56,2.61.24,23.48,5.46-1.9.23,1.9-5.45,3.55v35.81S1224.41,573.51,1224.42,573.22Z"/><path class="cls-21" d="M1134.18,565.35c-1-7.79-11.45-14.24-21.25-14.24a23.73,23.73,0,0,0-3.5.26v-.26c0-11.19-7.78-20.28-17.36-20.28-.38,0-.76,0-1.14,0a37.88,37.88,0,0,0-69.52,11.22c-9.1,1.85-18.11,14.93-17,23.25Z"/><path class="cls-45" d="M1419.91,450.34l-39.8-29.94-40.59,30.06v116h80.39Z"/><polygon class="cls-8" points="1380.11 389.75 1380.11 420.76 1419.91 450.33 1419.91 419.32 1380.11 389.75"/><polygon class="cls-6" points="1380.11 389.74 1380.11 420.76 1339.35 451.05 1339.35 420.04 1380.11 389.74"/><rect class="cls-20" x="1354.65" y="487.5" width="10.64" height="19.11"/><rect class="cls-20" x="1354.65" y="458.03" width="10.64" height="19.11"/><rect class="cls-20" x="1354.65" y="516.96" width="10.64" height="19.11"/><rect class="cls-20" x="1375.03" y="486.94" width="10.64" height="19.11"/><rect class="cls-20" x="1375.03" y="457.47" width="10.64" height="19.11"/><rect class="cls-20" x="1375.03" y="516.41" width="10.64" height="19.11"/><rect class="cls-20" x="1394.93" y="487.5" width="10.64" height="19.11"/><rect class="cls-20" x="1394.93" y="458.03" width="10.64" height="19.11"/><rect class="cls-20" x="1394.93" y="516.96" width="10.64" height="19.11"/><path class="cls-27" d="M495.7,456.92l-18.15-46.18L452.11,456.5l-.58,100.9,42.89-.43Z"/><polygon class="cls-32" points="299.46 410.74 477.55 410.74 454.57 456.5 276.48 456.5 299.46 410.74"/><path class="cls-30" d="M407.94,430.33,398,458.07l-30-27.58Z"/><path class="cls-39" d="M397.82,456.5l56.22-.11v101H276.52v-101l61.13.11,30.31-26Z"/><rect class="cls-40" x="289.32" y="492.04" width="17.98" height="12.06"/><rect class="cls-40" x="289.32" y="472.87" width="17.98" height="12.06"/><rect class="cls-40" x="289.32" y="511.21" width="17.98" height="12.06"/><rect class="cls-40" x="289.32" y="530.39" width="17.98" height="12.06"/><rect class="cls-40" x="317.07" y="492.04" width="17.98" height="12.06"/><rect class="cls-40" x="317.07" y="472.87" width="17.98" height="12.06"/><rect class="cls-40" x="317.07" y="511.21" width="17.98" height="12.06"/><rect class="cls-40" x="317.07" y="530.39" width="17.98" height="12.06"/><rect class="cls-40" x="345.15" y="492.04" width="17.98" height="12.06"/><rect class="cls-40" x="345.15" y="472.87" width="17.98" height="12.06"/><rect class="cls-40" x="345.15" y="511.21" width="17.98" height="12.06"/><rect class="cls-40" x="345.15" y="530.39" width="17.98" height="12.06"/><rect class="cls-40" x="373.23" y="492.04" width="17.98" height="12.06"/><rect class="cls-40" x="373.23" y="472.87" width="17.98" height="12.06"/><rect class="cls-40" x="373.23" y="511.21" width="17.98" height="12.06"/><rect class="cls-40" x="373.23" y="530.39" width="17.98" height="12.06"/><rect class="cls-40" x="400.99" y="492.04" width="17.98" height="12.06"/><rect class="cls-40" x="400.99" y="472.87" width="17.98" height="12.06"/><rect class="cls-40" x="400.99" y="511.21" width="17.98" height="12.06"/><rect class="cls-40" x="400.99" y="530.39" width="17.98" height="12.06"/><rect class="cls-40" x="429.07" y="492.04" width="17.98" height="12.06"/><rect class="cls-40" x="429.07" y="472.87" width="17.98" height="12.06"/><rect class="cls-40" x="429.07" y="511.21" width="17.98" height="12.06"/><rect class="cls-40" x="429.07" y="530.39" width="17.98" height="12.06"/><path class="cls-36" d="M623,534.82c-.88-5.28-10-9.65-18.53-9.65a25.66,25.66,0,0,0-3.06.18v-.18c0-7.58-6.78-13.74-15.14-13.74l-1,0C579.47,504,569,498.94,557,498.94c-15.67,0-28.82,8.59-32.31,20.12-7.94,1.26-15.8,10.12-14.83,15.76Z"/><path class="cls-21" d="M603.28,388.52c3.49-8.39,13.42-7.53,17.61-2.95,11.73,12.84,20.37,104.19,19.46,112.93-1.55,14.83-6.3,18.57-13.6,21.93-4,1.86-16.37,3.09-24.71.93-6.28-1.63-12.65-10.51-14.21-21C585.67,485.83,589.07,422.67,603.28,388.52Z"/><path class="cls-26" d="M608.22,556.27c0-.39.93-50.36.93-50.36l-8.35-6.79V497l9.27,5.56.93-47h1.54l1.86,16.37,6.18-2.47.31,1.54-4.64,3.4.31,30.59,7.11-2.47L624,505l-7.1,4.63v46.65S608.21,556.66,608.22,556.27Z"/><g id="yellow-tree6"><path class="cls-46" d="M573.45,410.75c8.69.8,13.34,20.33,20.61,33.31a62.4,62.4,0,0,1,7.41,33.46c-1.14,24.47-8.65,33.83-29.69,32.43-24.07-1.59-28.44-19.89-29.33-36.95-.9-17.22,6.84-25.82,9.47-34.54C556.09,424.65,567.37,410.2,573.45,410.75Z"/><path class="cls-26" d="M571.49,534.1s-.32-4.71.78-16.85c1.17-12.91,2.36-16.53,1.66-16.48a41.12,41.12,0,0,1-9.85-7,28.13,28.13,0,0,1-7.27-13.16c3.39,3.75,5.91,8.32,10.41,11a11.76,11.76,0,0,0,7.48,2.16s-2.09-12.68-4.51-25.36c-2.58-13.47-1.43-25.21-1.17-25.37.47-.29,6.55,35.65,9.5,33.69,3.39-2.24,11.87-22.31,11.87-22.31a69.12,69.12,0,0,1-3.2,14.92c-1.55,4.21-5.56,9.87-8.07,13.59,0,0,1,18.59.47,36.37a81.36,81.36,0,0,0,.9,14.34,21.38,21.38,0,0,1-3.92.92A38.46,38.46,0,0,1,571.49,534.1Z"/></g><path class="cls-36" d="M1322.59,596.2c1.33-12.34,15-22.55,27.75-22.55a25.66,25.66,0,0,1,4.58.41v-.41c0-17.72,10.16-32.11,22.67-32.11a14.72,14.72,0,0,1,1.49.07c8.75-17.55,24.47-29.26,42.4-29.26,23.47,0,43.16,20.07,48.39,47,23.83,1.4,30,17,30.13,31.32Z"/><path class="cls-32" d="M1194.54,468.68V495h-91.64l0-4Z"/><path class="cls-39" d="M1194.53,474.69,1102.76,495l-.41,81.3h92.18Z"/><rect class="cls-40" x="1118.36" y="507.84" width="7.59" height="20.69"/><rect class="cls-47" x="1151.05" y="549.15" width="12.01" height="10.24"/><rect class="cls-47" x="1174" y="549.15" width="11.65" height="10.24"/><path class="cls-27" d="M150.45,420.18l0,26.28H58.79l0-4Z"/><path class="cls-39" d="M150.43,426.18,58.67,446.46l-.42,81.29h92.18Z"/><rect class="cls-40" x="74.26" y="459.33" width="7.59" height="20.69"/><rect class="cls-40" x="106.96" y="500.65" width="12.01" height="10.24"/><rect class="cls-40" x="129.91" y="500.65" width="11.65" height="10.24"/><g id="yellow-tree7"><path class="cls-21" d="M1200.11,476.59c7.36.68,11.3,17.22,17.45,28.22a52.81,52.81,0,0,1,6.28,28.34c-1,20.72-7.33,28.65-25.15,27.47-20.39-1.35-24.09-16.85-24.84-31.3s5.79-21.87,8-29.26C1185.4,488.37,1195,476.12,1200.11,476.59Z"/><path class="cls-48" d="M1198.45,581.08s-.28-4,.66-14.28c1-10.93,2-14,1.4-14a34.56,34.56,0,0,1-8.34-6,23.78,23.78,0,0,1-6.16-11.14c2.87,3.18,5,7,8.82,9.36a10,10,0,0,0,6.34,1.82s-1.77-10.74-3.83-21.48c-2.18-11.41-1.21-21.35-1-21.49.4-.24,5.55,30.2,8.05,28.54,2.87-1.9,10-18.9,10-18.9a58.38,58.38,0,0,1-2.71,12.64c-1.31,3.57-4.7,8.36-6.83,11.51,0,0,.87,15.75.4,30.8a68.44,68.44,0,0,0,.76,12.15,17.78,17.78,0,0,1-3.32.79A34,34,0,0,1,1198.45,581.08Z"/></g><path class="cls-27" d="M141.87,432.4l0,30.16H250l0-4.59Z"/><path class="cls-39" d="M141.89,439.29l108.27,23.26.49,93.26H141.89Z"/><rect class="cls-40" x="222.81" y="477.32" width="8.95" height="23.73"/><rect class="cls-40" x="178.71" y="477.32" width="14.17" height="11.75"/><rect class="cls-40" x="152.04" y="477.32" width="13.75" height="11.75"/><g id="yellow-tree8"><path class="cls-46" d="M250,437.06c11.36.74,17.44,18.75,26.94,30.71a44.51,44.51,0,0,1,9.68,30.86c-1.49,22.56-11.3,31.2-38.8,29.91-31.46-1.47-37.17-18.34-38.33-34.08s8.93-23.81,12.37-31.85C227.27,449.88,242,436.55,250,437.06Z"/><path class="cls-49" d="M245.27,580.46s-.37-5.77.87-20.59c1.32-15.77-.56-40.34-1.35-40.28A46.25,46.25,0,0,1,233.71,511c-6.11-6.33-4.07-9.6-4.07-10,3.82,4.58,2.55,4.11,7.6,7.43,3,2,4.42,2.59,8.42,2.63,0,0,.86,4.66-1.86-10.83-2.9-16.46-1.61-30.8-1.32-31s2.9,13.68,5.48,23.39c1.53,5.72,3.17,9.52,4.07,9.34,1.17-.22,3.75-3.26,5.2-7.25a36,36,0,0,0,1.7-8.68s3.05,4.09.3,12.2c-1.75,5.15-3.38,5.16-6.21,9.7,0,0,2,32.74,1.36,54.46a106.44,106.44,0,0,0,1,17.52A22.64,22.64,0,0,1,251,581,41.1,41.1,0,0,1,245.27,580.46Z"/></g><g id="yellow-tree9"><path class="cls-50" d="M93.76,470.21c8.94.82,13.71,20.9,21.19,34.24,4.21,7.53,8.32,19.24,7.61,34.4C121.39,564,113.67,573.62,92,572.18c-24.74-1.64-29.23-20.44-30.14-38-.93-17.7,7-26.53,9.73-35.5C75.91,484.5,87.51,469.64,93.76,470.21Z"/><path class="cls-51" d="M91.75,597s-.34-4.85.8-17.33c1.2-13.27,2.42-17,1.7-16.94a42.1,42.1,0,0,1-10.13-7.24A29,29,0,0,1,76.65,542c3.49,3.85,6.08,8.55,10.7,11.35a12.07,12.07,0,0,0,7.7,2.21s-2.15-13-4.65-26.06c-2.64-13.85-1.46-25.91-1.2-26.08.49-.3,6.74,36.65,9.77,34.63,3.48-2.3,12.2-22.93,12.2-22.93a70.85,70.85,0,0,1-3.29,15.33c-1.6,4.33-5.71,10.16-8.3,14,0,0,1.07,19.1.49,37.38a82.88,82.88,0,0,0,.93,14.74,21.65,21.65,0,0,1-4,1A40.08,40.08,0,0,1,91.75,597Z"/></g><g id="yellow-tree10"><path class="cls-4" d="M54.77,451.4c9.75.9,15,22.8,23.12,37.36,4.6,8.22,9.08,21,8.31,37.53-1.28,27.44-9.71,37.94-33.3,36.37C25.9,560.87,21,540.35,20,521.21c-1-19.31,7.66-29,10.62-38.74C35.3,467,48,450.78,54.77,451.4Z"/><path class="cls-18" d="M52.58,589.75s-.37-5.29.87-18.9c1.32-14.48,2.64-18.54,1.86-18.49a46,46,0,0,1-11.05-7.9,31.59,31.59,0,0,1-8.15-14.76c3.8,4.21,6.63,9.34,11.67,12.39a13.23,13.23,0,0,0,8.4,2.42s-2.35-14.22-5.07-28.44c-2.89-15.11-1.6-28.28-1.31-28.45.53-.33,7.35,40,10.66,37.78,3.8-2.51,13.31-25,13.31-25a77.34,77.34,0,0,1-3.59,16.73c-1.74,4.72-6.23,11.08-9.05,15.25,0,0,1.16,20.84.53,40.78a90.88,90.88,0,0,0,1,16.08,23.8,23.8,0,0,1-4.4,1A43.28,43.28,0,0,1,52.58,589.75Z"/></g><path class="cls-4" d="M1451.46,439.72c3.34-8,12.83-7.2,16.83-2.82,11.22,12.27,19.48,99.58,18.61,107.93-1.48,14.18-6,17.75-13,21-3.83,1.77-15.64,3-23.62.88-6-1.55-12.08-10-13.58-20.07C1434.63,532.73,1437.88,472.36,1451.46,439.72Z"/><path class="cls-18" d="M1456.19,600.05c0-.37.88-48.13.88-48.13l-8-6.49v-2.07l8.86,5.31.89-44.88h1.47l1.77,15.65,5.91-2.36.29,1.48-4.42,3.24.29,29.24,6.79-2.37.3,2.37-6.79,4.42v44.59S1456.18,600.42,1456.19,600.05Z"/><path class="cls-36" d="M0,590.06c.41-7.43,2.58-8.51,8.23-8.24-1.53-1.4-1.48-4-.74-6.11,1.39-4,7.46-6.57,12.27-4,2.2-8,10.61-11.91,16.84-8.27a13,13,0,0,1,10.92-5.91,12.77,12.77,0,0,1,12.89,12.63h.06c4,0,7.43,3.12,8.38,7.29,11.71,1.59,19.68,9.81,19.68,15.48Z"/><g id="front-row"><path class="cls-52" d="M88.69,504.35,50.75,520.6l0,6.54L224,527l0-5.45Z"/><path class="cls-53" d="M50.77,526.66l39.45-16.77,133.85,16.77v66.58H50.77Z"/><rect class="cls-54" x="170.34" y="535.82" width="18.74" height="7.34"/><rect class="cls-55" x="83.17" y="564.65" width="30.09" height="28.59"/><path class="cls-52" d="M560.78,475.37l22,23.13V508H480v-7.81Z"/><path class="cls-53" d="M582.8,503.72l-23.42-24.17L480,503.72v96H582.8Z"/><rect class="cls-56" x="500.71" y="516.92" width="11.12" height="10.57"/><rect class="cls-56" x="525.25" y="516.92" width="11.27" height="10.57"/><rect class="cls-56" x="504.46" y="556.44" width="14.73" height="16.17"/><rect class="cls-55" x="538.76" y="556.2" width="24.81" height="43.48"/><rect class="cls-57" x="999.59" y="477.56" width="49" height="33.17"/><rect class="cls-58" x="927.14" y="477.56" width="82.17" height="33.17"/><rect class="cls-57" x="1004.31" y="508.74" width="62.63" height="82.1"/><rect class="cls-58" x="911.71" y="508.74" width="105.02" height="82.1"/><rect class="cls-44" x="1007.2" y="471.18" width="41.39" height="6.38"/><rect class="cls-59" x="927.13" y="471.18" width="82.17" height="6.38"/><rect class="cls-56" x="919.02" y="528.31" width="60.45" height="9.21"/><rect class="cls-55" x="991.78" y="569.3" width="12.52" height="21.54"/><rect class="cls-56" x="1024.59" y="523.2" width="7.98" height="9.72"/><rect class="cls-56" x="935.36" y="484.43" width="7.98" height="9.72"/><rect class="cls-56" x="1040.6" y="523.45" width="7.98" height="9.72"/><rect class="cls-56" x="1024.59" y="540.08" width="7.98" height="9.72"/><rect class="cls-44" x="1014.03" y="504.35" width="52.9" height="6.38"/><rect class="cls-59" x="911.7" y="504.35" width="105.02" height="6.38"/><path class="cls-52" d="M788.42,490.3V515H701.49l0-3.75Z"/><path class="cls-53" d="M788.41,495.94l-87,19L701,591.2h87.43Z"/><rect class="cls-56" x="776.4" y="509.05" width="7.2" height="19.4"/><rect class="cls-56" x="747.17" y="565.78" width="11.39" height="9.6"/><rect class="cls-56" x="768.94" y="565.78" width="11.05" height="9.6"/><rect class="cls-58" x="782.82" y="543.86" width="129.5" height="46.85"/><rect class="cls-55" x="825.08" y="558.9" width="76.96" height="31.81"/><rect class="cls-57" x="829.3" y="562.27" width="67.47" height="28.45"/><path class="cls-60" d="M896.77,587.93H829.3V589h67.47Zm0-2.67H829.3v1.07h67.47Zm0-2.65H829.3v1.06h67.47Zm0-2.66H829.3V581h67.47Zm0-2.66H829.3v1.06h67.47Zm0-2.66H829.3v1.06h67.47Zm0-2.66H829.3V573h67.47Zm0-2.66H829.3v1.06h67.47Zm0-2.66H829.3v1.06h67.47Zm0-2.66H829.3v1.07h67.47Z"/><rect class="cls-56" x="789.82" y="558.91" width="25.3" height="5.75"/><rect class="cls-55" x="782.83" y="538.92" width="129.5" height="4.94"/><rect class="cls-57" x="1191.58" y="539.15" width="86.33" height="52.49"/><rect class="cls-44" x="1219.75" y="565.39" width="51.3" height="26.25"/><rect class="cls-58" x="1222.56" y="568.17" width="44.98" height="23.47"/><path class="cls-53" d="M1267.54,589.34h-45v.87h45Zm0-2.2h-45V588h45Zm0-2.19h-45v.88h45Zm0-2.19h-45v.87h45Zm0-2.2h-45v.88h45Zm0-2.19h-45v.87h45Zm0-2.19h-45v.87h45Zm0-2.2h-45v.87h45Zm0-2.19h-45v.87h45Zm0-2.2h-45v.88h45Z"/><rect class="cls-55" x="1191.58" y="533.62" width="86.33" height="5.53"/><rect class="cls-57" x="14.85" y="549.8" width="127.7" height="45.46"/><rect class="cls-55" x="23.03" y="569.01" width="55.67" height="26.25"/><rect class="cls-58" x="26.08" y="571.79" width="48.81" height="23.47"/><path class="cls-53" d="M74.88,593H26.08v.87h48.8Zm0-2.2H26.08v.88h48.8Zm0-2.19H26.08v.88h48.8Zm0-2.19H26.08v.87h48.8Zm0-2.2H26.08v.88h48.8Zm0-2.19H26.08v.88h48.8Zm0-2.19H26.08v.87h48.8Zm0-2.2H26.08v.88h48.8Zm0-2.19H26.08v.87h48.8Zm0-2.2H26.08v.88h48.8Z"/><rect class="cls-56" x="88.83" y="572.53" width="10.31" height="5.71"/><rect class="cls-56" x="105.58" y="572.53" width="10.31" height="5.71"/><rect class="cls-55" x="14.85" y="549.8" width="127.7" height="5.53"/><rect class="cls-57" x="420.07" y="546.36" width="83.01" height="45.46"/><rect class="cls-61" x="488.11" y="557.03" width="6.7" height="5.71"/><rect class="cls-61" x="488.11" y="569.09" width="6.7" height="5.71"/><rect class="cls-55" x="420.07" y="546.36" width="83.01" height="5.53"/><path class="cls-30" d="M1083.57,540.74l-.41-3.91s46.45.14,81,.14l42,17.64-101.68-1.51Z"/><rect class="cls-58" x="1085.74" y="540.72" width="78.16" height="49.26"/><rect class="cls-56" x="1093.22" y="553.69" width="5.42" height="11.66"/><path class="cls-53" d="M1163.91,540.72,1198,554.61l.74,35.37h-34.82Z"/><rect class="cls-55" x="1179.99" y="577.06" width="9.32" height="12.93"/><rect class="cls-56" x="1168.63" y="577.06" width="5.94" height="5.83"/><rect class="cls-58" x="1034.38" y="565.35" width="53.86" height="24.63"/><rect class="cls-44" x="1032.57" y="562.32" width="53.17" height="3.03"/><rect class="cls-57" x="1299.62" y="511.31" width="45.95" height="78.67"/><rect class="cls-58" x="1276" y="511.31" width="35.38" height="79.62"/><rect class="cls-55" x="1298.53" y="577.4" width="9.59" height="12.58"/><rect class="cls-56" x="1288.93" y="524.8" width="19.18" height="7.96"/><rect class="cls-56" x="1322.59" y="524.8" width="5.88" height="7.96"/><rect class="cls-56" x="1288.93" y="538.4" width="19.18" height="7.96"/><rect class="cls-56" x="1322.59" y="538.4" width="5.88" height="7.96"/><rect class="cls-56" x="1288.93" y="551.12" width="19.18" height="7.96"/><rect class="cls-56" x="1322.59" y="551.12" width="5.88" height="7.96"/><rect class="cls-44" x="1311.38" y="506.76" width="34.19" height="4.56"/><rect class="cls-59" x="1276" y="506.76" width="35.38" height="4.56"/><rect class="cls-57" x="421.15" y="512.4" width="45.95" height="78.67"/><rect class="cls-58" x="397.54" y="512.4" width="35.38" height="79.62"/><rect class="cls-55" x="420.07" y="578.48" width="9.59" height="12.58"/><rect class="cls-62" x="410.47" y="525.88" width="19.18" height="7.96"/><rect class="cls-56" x="444.13" y="525.88" width="5.88" height="7.96"/><rect class="cls-62" x="410.47" y="539.48" width="19.18" height="7.96"/><rect class="cls-56" x="444.13" y="539.48" width="5.88" height="7.96"/><rect class="cls-44" x="432.92" y="507.84" width="34.19" height="4.56"/><rect class="cls-59" x="397.54" y="507.84" width="35.38" height="4.56"/><rect class="cls-57" x="600.2" y="500.71" width="53.22" height="91.11"/><rect class="cls-58" x="572.86" y="500.71" width="40.97" height="92.21"/><rect class="cls-55" x="598.94" y="577.25" width="11.11" height="14.57"/><rect class="cls-62" x="587.83" y="516.33" width="22.21" height="9.22"/><rect class="cls-56" x="626.82" y="516.33" width="6.81" height="9.22"/><rect class="cls-62" x="587.83" y="532.08" width="22.21" height="9.22"/><rect class="cls-56" x="626.82" y="532.08" width="6.81" height="9.22"/><rect class="cls-62" x="587.83" y="546.82" width="22.21" height="9.22"/><rect class="cls-56" x="626.82" y="546.82" width="6.81" height="9.22"/><rect class="cls-44" x="613.83" y="496.4" width="39.59" height="4.31"/><rect class="cls-59" x="572.85" y="495.43" width="40.97" height="5.28"/><rect class="cls-57" x="670.67" y="499.8" width="53.22" height="91.11"/><rect class="cls-58" x="643.32" y="499.8" width="40.97" height="92.21"/><rect class="cls-55" x="669.41" y="576.35" width="11.11" height="14.57"/><rect class="cls-62" x="658.3" y="515.42" width="22.21" height="9.22"/><rect class="cls-56" x="697.28" y="515.42" width="6.81" height="9.22"/><rect class="cls-62" x="658.3" y="531.17" width="22.21" height="9.22"/><rect class="cls-56" x="697.28" y="531.17" width="6.81" height="9.22"/><rect class="cls-62" x="658.3" y="545.91" width="22.21" height="9.22"/><rect class="cls-56" x="697.28" y="545.91" width="6.81" height="9.22"/><rect class="cls-44" x="684.29" y="495.49" width="39.59" height="4.31"/><rect class="cls-59" x="643.32" y="494.52" width="40.97" height="5.28"/><rect class="cls-57" x="351.17" y="498.12" width="54.19" height="92.78"/><rect class="cls-58" x="323.32" y="498.12" width="41.72" height="93.9"/><rect class="cls-55" x="349.89" y="576.06" width="11.31" height="14.84"/><rect class="cls-62" x="338.57" y="514.02" width="22.62" height="9.39"/><rect class="cls-56" x="378.27" y="514.02" width="6.94" height="9.39"/><rect class="cls-62" x="338.57" y="530.06" width="22.62" height="9.39"/><rect class="cls-56" x="378.27" y="530.06" width="6.94" height="9.39"/><rect class="cls-62" x="338.57" y="545.07" width="22.62" height="9.39"/><rect class="cls-56" x="378.27" y="545.07" width="6.94" height="9.39"/><rect class="cls-44" x="365.04" y="492.74" width="40.32" height="5.38"/><rect class="cls-59" x="323.32" y="492.74" width="41.72" height="5.38"/><path class="cls-63" d="M1340.35,563.31h-3.87s19-26.88,19-26.78S1359,539,1359,539,1339.62,563.45,1340.35,563.31Z"/><path class="cls-60" d="M1340.35,591.14V561.65l17.59-25.12,17.59,25.12v29.49Z"/><rect class="cls-57" x="1374.09" y="561.65" width="84.88" height="29.49"/><rect class="cls-56" x="1385.33" y="570.41" width="4.33" height="8.71"/><rect class="cls-56" x="1399.85" y="570.41" width="4.33" height="8.71"/><rect class="cls-56" x="1414.37" y="570.41" width="4.33" height="8.71"/><rect class="cls-56" x="1428.89" y="570.41" width="4.33" height="8.71"/><rect class="cls-56" x="1443.41" y="570.41" width="4.33" height="8.71"/><rect class="cls-55" x="1349.6" y="578.46" width="12.71" height="12.68"/><polygon class="cls-30" points="1355.49 536.53 1444.28 536.53 1462.89 563.31 1374.09 563.31 1355.49 536.53"/><rect class="cls-57" x="200.77" y="498.3" width="109.63" height="92.4"/><rect class="cls-56" x="220.34" y="515.17" width="11.86" height="21.03"/><rect class="cls-56" x="244.74" y="515.17" width="11.86" height="21.03"/><rect class="cls-56" x="269.15" y="515.17" width="11.86" height="21.03"/><path class="cls-64" d="M202.58,498.3l-47,26-1,66.36h48Z"/><rect class="cls-58" x="155.74" y="498.3" width="46.85" height="92.4"/><rect class="cls-62" x="163.67" y="515.17" width="30.57" height="10.52"/><rect class="cls-44" x="180.25" y="571.17" width="12.47" height="19.53"/><rect class="cls-43" x="155.74" y="492.36" width="49.02" height="5.94"/><rect class="cls-44" x="202.58" y="492.36" width="107.82" height="5.94"/><path class="cls-30" d="M342.23,541.47l.42-3.92s-46.45.15-81,.15l-42,17.63,101.68-1.5Z"/><rect class="cls-57" x="261.9" y="541.45" width="78.16" height="49.26"/><path class="cls-60" d="M261.9,541.45l-34.08,13.88-.75,35.38H261.9Z"/><rect class="cls-62" x="252.78" y="554.42" width="5.42" height="11.66"/><rect class="cls-44" x="236.49" y="571.39" width="10.62" height="19.32"/><rect class="cls-44" x="276.92" y="571.39" width="53.84" height="19.32"/><rect class="cls-57" x="280.56" y="574.8" width="46.81" height="15.91"/><rect class="cls-58" x="280.56" y="577.06" width="46.81" height="1.87"/><rect class="cls-58" x="280.56" y="580.99" width="46.81" height="1.87"/><rect class="cls-58" x="280.56" y="584.92" width="46.81" height="1.87"/><rect class="cls-58" x="280.56" y="588.84" width="46.81" height="1.87"/></g></g><g id="front-line"><rect class="cls-44" y="589.94" width="1500" height="18.8"/></g></g></g></svg>