<svg xmlns="http://www.w3.org/2000/svg" viewBox="0 0 1500.08 608.74"><defs><style>.cls-1{fill:#f8bd9d;}.cls-1,.cls-10,.cls-13,.cls-14,.cls-15,.cls-16,.cls-17,.cls-2,.cls-21,.cls-22,.cls-25,.cls-26,.cls-27,.cls-29,.cls-32,.cls-33,.cls-34,.cls-38,.cls-4,.cls-41,.cls-43,.cls-45,.cls-47,.cls-5,.cls-50,.cls-6,.cls-8,.cls-9{fill-rule:evenodd;}.cls-2{fill:#f6d6b4;}.cls-3{fill:#f6b983;}.cls-4{fill:#958e46;}.cls-5{fill:#afa650;}.cls-6{fill:#906152;}.cls-14,.cls-7{fill:#eccb9b;}.cls-12,.cls-8{fill:#bb5823;}.cls-9{fill:#f1dec0;}.cls-10{fill:#e67d44;}.cls-11,.cls-15{fill:#b5925a;}.cls-13{fill:#f8965e;}.cls-16{fill:#d66523;}.cls-17,.cls-18{fill:#df7639;}.cls-19{fill:#6b7a3b;}.cls-20,.cls-41{fill:#a39b70;}.cls-21,.cls-40{fill:#988f56;}.cls-22,.cls-44{fill:#dc7244;}.cls-23,.cls-25{fill:#7a7439;}.cls-24{fill:#615e2f;}.cls-26{fill:#837c3d;}.cls-27,.cls-35{fill:#5f5c2e;}.cls-28{fill:#d9c5be;}.cls-29,.cls-42{fill:#b89286;}.cls-30{fill:#c2a194;}.cls-31,.cls-50{fill:#704e45;}.cls-32{fill:#847e3d;}.cls-33,.cls-49{fill:#483328;}.cls-34,.cls-36{fill:#aaa26c;}.cls-37{fill:#726f38;}.cls-38{fill:#b6b090;}.cls-39{fill:#8e8743;}.cls-43{fill:#ac8073;}.cls-45{fill:#4d392a;}.cls-46{fill:#553c36;}.cls-47,.cls-48{fill:#a24d1f;}.cls-51{fill:#4f382b;}</style></defs><g id="Layer_2" data-name="Layer 2"><g id="Layer_1-2" data-name="Layer 1"><g id="clouds01"><g id="big-cloud"><path class="cls-1" d="M1198.51,99.72C1180,42.3,1117.52,0,1043.33,0c-61.07,0-96,23.23-123.21,65.42-6.07-2.19-24.78-4.47-48.67,3.52C839.82,79.53,821,97.73,821,135c0,11.33-.13,14,4.38,23.42-103.3-39.44-178.14,7.84-205.21,43.44-12.28,16.15-12.83,38.91-11.08,42.26C570.16,211,495.71,226,504.26,284.58c.47,3.13,14.12,13.4,10.66,14.17-13.49,3-150.24,5.4-290.65,21.15-33.38,3.74-73.74,4.5-100.68,34.74-14.3,16-15.11,50.22,3.32,68.74,7.16,7.19,36.45,10.77,47.89,10.67,211-1.84,1172.89-3.92,1206.9-7.29,77.59-7.71,64.29-100,45-121.49-14.62-16.26-30.71-35.74-86.37-37.49-6-.17-11.86,1.24-7.54-1.54,21.94-14.14,2.85-80.6-63.2-63.76-.78.2,0-.7,0-.7C1269.32,153.88,1239.48,113.36,1198.51,99.72Z"/></g><g id="big-cloud1"><path class="cls-2" d="M1112.15,145.64C1100,113.73,1058.82,90.21,1010,90.21c-40.22,0-63.24,12.91-81.14,36.36-4-1.22-16.32-2.48-32.05,2-20.83,5.88-33.25,16-33.25,36.71,0,6.29-.08,7.8,2.89,13-68-21.92-117.31,4.36-135.14,24.15-8.09,9-8.45,21.62-7.3,23.48-25.62-18.39-74.65-10-69,22.5.31,1.74,9.3,7.45,7,7.87-8.88,1.66-32.85,3.9-125.63,9.69-33.34,2.08-63.61,8.88-79.23,22-10,8.4-18.33,19.31-6.2,29.61,4.71,4,29.06,8.19,36.6,8.14,139-1,722.89,3.61,745.29,1.73,51.09-4.29,42.34-55.6,29.64-67.52-9.63-9-20.23-19.86-56.88-20.84-3.93-.09-7.81.69-5-.85,14.45-7.86,1.88-44.8-41.62-35.44-.51.11,0-.39,0-.39C1158.79,175.74,1139.14,153.22,1112.15,145.64Z"/></g><ellipse class="cls-3" cx="898.92" cy="333.27" rx="122.35" ry="113.94"/></g><g id="_01" data-name=" 01"><path class="cls-4" d="M1187.08,280.1c71.22.54,137.68,50,186.73,99.36S1482,577.07,1482,577.07H16.59S135.33,432.89,417.87,372.2C722.16,306.85,1027.75,278.9,1187.08,280.1Z"/><g id="yellow-tree"><path class="cls-5" d="M1070.52,209.67c8,.74,12.3,18.74,19,30.7a57.56,57.56,0,0,1,6.83,30.84c-1.06,22.55-8,31.18-27.37,29.89-22.18-1.47-26.21-18.33-27-34.06s6.3-23.8,8.73-31.83C1054.52,222.48,1064.92,209.16,1070.52,209.67Z"/><path class="cls-6" d="M1068.72,323.36s-.3-4.35.71-15.53c1.09-11.9,2.18-15.24,1.53-15.19a38.12,38.12,0,0,1-9.08-6.5,26,26,0,0,1-6.7-12.12c3.13,3.45,5.46,7.67,9.6,10.18a10.86,10.86,0,0,0,6.89,2s-1.92-11.68-4.16-23.37c-2.37-12.42-1.31-23.23-1.07-23.38.43-.27,6,32.86,8.76,31.05,3.12-2.07,10.93-20.56,10.93-20.56a63.64,63.64,0,0,1-3,13.75c-1.43,3.88-5.12,9.1-7.44,12.53,0,0,1,17.13.44,33.51a74.08,74.08,0,0,0,.83,13.22,19.33,19.33,0,0,1-3.61.85A36.34,36.34,0,0,1,1068.72,323.36Z"/></g><g id="yellow-tree1"><path class="cls-5" d="M663.76,263.46c6.62.61,10.16,15.49,15.7,25.37a47.61,47.61,0,0,1,5.64,25.49c-.87,18.63-6.59,25.76-22.61,24.7-18.34-1.22-21.66-15.15-22.34-28.15s5.2-19.66,7.21-26.31C650.54,274.05,659.13,263,663.76,263.46Z"/><path class="cls-6" d="M662.27,357.41a93.9,93.9,0,0,1,.59-12.83c.89-9.84,1.79-12.59,1.26-12.56a30.94,30.94,0,0,1-7.5-5.36,21.47,21.47,0,0,1-5.54-10c2.59,2.85,4.51,6.34,7.93,8.41a9,9,0,0,0,5.7,1.64s-1.59-9.66-3.44-19.31c-2-10.26-1.08-19.2-.89-19.32.36-.23,5,27.15,7.24,25.66,2.58-1.71,9-17,9-17a52.52,52.52,0,0,1-2.44,11.36c-1.18,3.21-4.23,7.53-6.15,10.36,0,0,.79,14.15.37,27.69a61.82,61.82,0,0,0,.68,10.93,15.89,15.89,0,0,1-3,.7A29.34,29.34,0,0,1,662.27,357.41Z"/></g><g id="yellow-tree2"><path class="cls-5" d="M728.68,271.73c6.62.61,10.16,15.48,15.7,25.37A47.51,47.51,0,0,1,750,322.59c-.87,18.63-6.59,25.76-22.61,24.7-18.33-1.22-21.66-15.15-22.34-28.15s5.21-19.66,7.22-26.31C715.46,282.32,724.05,271.31,728.68,271.73Z"/><path class="cls-6" d="M727.19,365.68a94.05,94.05,0,0,1,.59-12.84c.9-9.83,1.8-12.58,1.27-12.55a30.88,30.88,0,0,1-7.51-5.36,21.51,21.51,0,0,1-5.53-10c2.58,2.85,4.5,6.34,7.93,8.41a9,9,0,0,0,5.7,1.64s-1.6-9.66-3.44-19.31c-2-10.26-1.09-19.2-.89-19.32.36-.23,5,27.15,7.24,25.65,2.58-1.7,9-17,9-17a52.2,52.2,0,0,1-2.43,11.36c-1.19,3.21-4.23,7.53-6.15,10.36,0,0,.79,14.15.36,27.69a61.24,61.24,0,0,0,.69,10.93,16.11,16.11,0,0,1-3,.7A29.54,29.54,0,0,1,727.19,365.68Z"/></g><g id="yellow-tree3"><path class="cls-5" d="M763.23,256.72c6.62.6,10.16,15.48,15.7,25.36a47.63,47.63,0,0,1,5.64,25.49c-.87,18.63-6.59,25.76-22.61,24.7-18.33-1.22-21.66-15.15-22.34-28.15s5.21-19.66,7.21-26.3C750,267.3,758.6,256.29,763.23,256.72Z"/><path class="cls-6" d="M761.74,350.66a93.9,93.9,0,0,1,.59-12.83c.9-9.84,1.8-12.59,1.27-12.56a30.88,30.88,0,0,1-7.51-5.36,21.4,21.4,0,0,1-5.53-10c2.58,2.85,4.5,6.34,7.92,8.41a8.94,8.94,0,0,0,5.7,1.64s-1.59-9.66-3.43-19.31c-2-10.26-1.09-19.2-.89-19.32s5,27.15,7.24,25.66c2.57-1.71,9-17,9-17a51.85,51.85,0,0,1-2.44,11.36c-1.18,3.21-4.23,7.53-6.14,10.36,0,0,.79,14.15.36,27.69a61.24,61.24,0,0,0,.69,10.93,16.11,16.11,0,0,1-3,.7A29.54,29.54,0,0,1,761.74,350.66Z"/></g><g id="yellow-tree4"><path class="cls-5" d="M508.1,303.87c8,.74,12.3,18.74,19,30.7a57.56,57.56,0,0,1,6.83,30.84c-1.06,22.55-8,31.18-27.36,29.89-22.19-1.47-26.22-18.33-27-34.06s6.3-23.79,8.73-31.83C492.1,316.69,502.5,303.36,508.1,303.87Z"/><path class="cls-6" d="M506.3,417.56s-.3-4.35.72-15.53c1.08-11.9,2.17-15.24,1.52-15.19a38.18,38.18,0,0,1-9.07-6.5,26,26,0,0,1-6.71-12.12c3.13,3.45,5.46,7.67,9.6,10.18a10.87,10.87,0,0,0,6.9,2S507.33,368.7,505.1,357c-2.38-12.41-1.32-23.23-1.08-23.38.43-.27,6,32.86,8.76,31.05,3.12-2.07,10.93-20.56,10.93-20.56a63.32,63.32,0,0,1-2.94,13.75c-1.44,3.88-5.12,9.1-7.44,12.53,0,0,.95,17.13.44,33.51a74.66,74.66,0,0,0,.82,13.22A19.12,19.12,0,0,1,511,418,36.34,36.34,0,0,1,506.3,417.56Z"/></g><path class="cls-4" d="M750.08,362.71c-.84-6.54-9.42-11.95-17.48-11.95a19.52,19.52,0,0,0-2.88.22v-.22c0-9.38-6.4-17-14.27-17-.32,0-.63,0-.94,0a31.1,31.1,0,0,0-26.7-15.5c-14.78,0-27.18,10.64-30.47,24.91-7.49,1.55-14.9,12.53-14,19.51Z"/><path class="cls-4" d="M1353.88,332.2c-1-8.35-11.31-15.25-21-15.25a21.93,21.93,0,0,0-3.46.28V317c0-12-7.68-21.7-17.14-21.7-.38,0-.76,0-1.13.05-6.62-11.86-18.51-19.78-32.07-19.78-17.74,0-32.63,13.57-36.58,31.79-9,2-17.89,16-16.8,24.89Z"/><path class="cls-4" d="M1077.22,332.2c-1-8.35-11.31-15.25-21-15.25a22,22,0,0,0-3.46.28,2.53,2.53,0,0,0,0-.28c0-12-7.69-21.7-17.15-21.7-.38,0-.76,0-1.13.05-6.61-11.86-18.5-19.78-32.06-19.78-17.75,0-32.64,13.57-36.59,31.79-9,2-17.89,16-16.79,24.89Z"/><g id="yellow-tree5"><path class="cls-5" d="M1330.41,242c8.69.8,13.34,20.33,20.61,33.31,4.1,7.32,8.09,18.71,7.41,33.46-1.14,24.46-8.65,33.83-29.69,32.43-24.07-1.6-28.44-19.89-29.33-37s6.83-25.81,9.47-34.54C1313.05,255.86,1324.33,241.4,1330.41,242Z"/><path class="cls-6" d="M1328.45,365.31s-.33-4.72.78-16.85c1.17-12.91,2.36-16.53,1.66-16.48a41.13,41.13,0,0,1-9.85-7.05,28,28,0,0,1-7.27-13.16c3.39,3.75,5.91,8.33,10.41,11.05a11.74,11.74,0,0,0,7.48,2.15s-2.09-12.68-4.52-25.35c-2.57-13.48-1.42-25.21-1.16-25.37.47-.29,6.55,35.65,9.5,33.69,3.39-2.25,11.87-22.31,11.87-22.31a69,69,0,0,1-3.2,14.91c-1.56,4.22-5.56,9.88-8.08,13.6,0,0,1,18.58.48,36.36a80.13,80.13,0,0,0,.9,14.34,21.13,21.13,0,0,1-3.92.93A40.33,40.33,0,0,1,1328.45,365.31Z"/></g><g id="yellow-tree6"><path class="cls-5" d="M1375,282.78c7.14.66,11,16.69,16.92,27.34A51.3,51.3,0,0,1,1398,337.6c-.94,20.08-7.1,27.77-24.37,26.62-19.76-1.31-23.35-16.33-24.08-30.34s5.61-21.2,7.77-28.36C1360.78,294.19,1370,282.32,1375,282.78Z"/><path class="cls-6" d="M1373.42,384s-.27-3.87.64-13.83c1-10.6,1.93-13.57,1.36-13.53a34.06,34.06,0,0,1-8.09-5.78,23.06,23.06,0,0,1-6-10.81c2.78,3.08,4.85,6.84,8.54,9.07a9.73,9.73,0,0,0,6.15,1.77s-1.72-10.41-3.71-20.81c-2.12-11.07-1.17-20.7-1-20.83.39-.24,5.38,29.26,7.8,27.65,2.78-1.84,9.74-18.31,9.74-18.31a56.56,56.56,0,0,1-2.62,12.24c-1.28,3.46-4.56,8.11-6.63,11.16,0,0,.85,15.26.39,29.86a66.56,66.56,0,0,0,.74,11.77,17.69,17.69,0,0,1-3.22.76A32.51,32.51,0,0,1,1373.42,384Z"/></g><g id="yellow-tree7"><path class="cls-5" d="M1033.25,228c7.36.67,11.3,17.22,17.46,28.21a53,53,0,0,1,6.27,28.35c-1,20.72-7.33,28.65-25.14,27.47-20.39-1.36-24.09-16.85-24.85-31.31s5.79-21.87,8-29.25C1018.54,239.72,1028.1,227.48,1033.25,228Z"/><path class="cls-6" d="M1031.59,332.43s-.28-4,.66-14.27c1-10.94,2-14,1.4-14a35.25,35.25,0,0,1-8.34-6,23.88,23.88,0,0,1-6.16-11.14c2.88,3.17,5,7.05,8.82,9.35a9.91,9.91,0,0,0,6.34,1.82s-1.77-10.74-3.82-21.47c-2.19-11.42-1.21-21.36-1-21.49.39-.25,5.54,30.2,8,28.54,2.86-1.9,10-18.9,10-18.9a58.23,58.23,0,0,1-2.71,12.63c-1.32,3.57-4.71,8.37-6.84,11.52,0,0,.88,15.74.4,30.8a68.55,68.55,0,0,0,.76,12.15,18,18,0,0,1-3.32.78A34,34,0,0,1,1031.59,332.43Z"/></g><rect class="cls-7" x="1157.83" y="258.98" width="112.78" height="74.1"/><path class="cls-8" d="M1102.14,259h-9.2l30.38-44.16,6.73,2.72Z"/><path class="cls-9" d="M1157.83,259l-29.29-44.16L1099.25,259v74.1h58.58Z"/><polygon class="cls-10" points="1123.32 214.82 1246.21 214.82 1275.51 258.98 1152.62 258.98 1123.32 214.82"/><rect class="cls-11" x="1177.3" y="278.28" width="8.93" height="22.81"/><rect class="cls-11" x="1194.8" y="278.28" width="8.93" height="22.81"/><rect class="cls-11" x="1212.31" y="278.28" width="8.93" height="22.81"/><rect class="cls-11" x="1229.82" y="278.28" width="8.93" height="22.81"/><rect class="cls-11" x="1247.32" y="278.28" width="8.93" height="22.81"/><path class="cls-8" d="M1077,298.33h-3.32s16.26-23.07,16.31-23,3,2.08,3,2.08S1076.39,298.44,1077,298.33Z"/><path class="cls-9" d="M1107.21,296.9l-15.1-21.56L1077,296.9v36.19h30.19Z"/><rect class="cls-7" x="1106.97" y="296.9" width="21.31" height="36.19"/><rect class="cls-11" x="1114.52" y="305.27" width="6.21" height="12.12"/><rect class="cls-12" x="1084.95" y="311.33" width="10.91" height="21.76"/><polygon class="cls-10" points="1090.01 275.34 1113.3 275.34 1129.26 298.33 1105.98 298.33 1090.01 275.34"/><path class="cls-13" d="M952.8,265.33l36.67,39.79H916.13Z"/><rect class="cls-7" x="842.47" y="324.85" width="79.25" height="57.22"/><polygon class="cls-13" points="855.98 288.02 952.8 288.02 926.74 332.2 829.91 332.2 855.98 288.02"/><path class="cls-14" d="M983.88,303.22l-31.08-30-31.08,30v78.85h62.16Z"/><rect class="cls-11" x="945.37" y="356.05" width="8.64" height="13.91"/><rect class="cls-11" x="948.46" y="310.94" width="11.09" height="9.83"/><path class="cls-15" d="M959.56,310.94a5.56,5.56,0,0,0-11.1,0Z"/><rect class="cls-12" x="957.93" y="353.3" width="14.74" height="28.78"/><rect class="cls-11" x="859.23" y="345.32" width="8.61" height="15.95"/><rect class="cls-11" x="880.18" y="345.32" width="8.61" height="15.95"/><path class="cls-4" d="M988.35,399.87c-.77-5.89-8.71-10.76-16.17-10.76a18,18,0,0,0-2.67.2v-.2c0-8.45-5.92-15.31-13.21-15.31-.29,0-.58,0-.86,0a28.9,28.9,0,0,0-52.91,8.48c-6.93,1.39-13.78,11.28-12.94,17.56Z"/><path class="cls-13" d="M554.82,276.82l-36.67,39.79h73.34Z"/><rect class="cls-7" x="585.9" y="336.34" width="79.25" height="57.22"/><polygon class="cls-13" points="651.64 299.51 554.82 299.51 580.88 343.69 677.71 343.69 651.64 299.51"/><path class="cls-14" d="M523.74,314.71l31.08-30,31.08,30v78.85H523.74Z"/><rect class="cls-11" x="553.61" y="367.54" width="8.64" height="13.91"/><rect class="cls-11" x="548.06" y="322.42" width="11.09" height="9.83"/><path class="cls-15" d="M548.07,322.42a5.56,5.56,0,0,1,11.09,0Z"/><rect class="cls-12" x="534.95" y="364.79" width="14.74" height="28.78"/><rect class="cls-11" x="639.78" y="356.81" width="8.61" height="15.95"/><rect class="cls-11" x="618.83" y="356.81" width="8.61" height="15.95"/><rect class="cls-7" x="790.25" y="347.05" width="73.67" height="62.93"/><rect class="cls-11" x="809.47" y="366.05" width="12.85" height="17.39"/><rect class="cls-11" x="827.43" y="366.05" width="28.54" height="17.39"/><path class="cls-16" d="M757.19,312.5l25.54,13.82,1.44,24.18H723.25Z"/><path class="cls-9" d="M790.26,347.05l-30.17-31.84-29.56,31.84V410h59.73Z"/><rect class="cls-11" x="750.15" y="366.05" width="20.98" height="43.93"/><rect class="cls-11" x="756.16" y="337.35" width="8.97" height="9.7"/><polygon class="cls-17" points="757.18 312.5 832.73 312.5 868.77 350.5 793.23 350.5 757.18 312.5"/><rect class="cls-18" x="810.86" y="303.86" width="13.57" height="24.19"/><path class="cls-16" d="M810.86,303.86h-5.92l-.25,18.51,6.17,5.68Z"/><rect class="cls-19" x="92.31" y="493.89" width="1281.5" height="97.63"/><rect class="cls-20" x="759.42" y="440.26" width="127.44" height="110.7"/><path class="cls-8" d="M963.17,445.65h10.39l-42-52-10.17,6Z"/><path class="cls-21" d="M925,395.76l-38.16,44.5V551h76.33V439.26Z"/><polygon class="cls-22" points="931.51 393.64 794.73 393.64 750.09 445.65 886.86 445.65 931.51 393.64"/><rect class="cls-23" x="849.28" y="468.85" width="14.09" height="19.87"/><rect class="cls-23" x="816.11" y="468.85" width="14.09" height="19.87"/><rect class="cls-23" x="782.91" y="468.85" width="14.09" height="19.87"/><rect class="cls-23" x="849.28" y="502.51" width="14.09" height="19.87"/><rect class="cls-23" x="816.11" y="502.51" width="14.09" height="19.87"/><rect class="cls-23" x="782.91" y="502.51" width="14.09" height="19.87"/><rect class="cls-24" x="919.63" y="437.49" width="12.03" height="19.87"/><rect class="cls-24" x="919.63" y="469.04" width="12.03" height="19.87"/><rect class="cls-24" x="913.62" y="503.12" width="24.06" height="47.93"/><path class="cls-25" d="M577.52,444.85c-.95-8.16-10.74-14.91-19.93-14.91a19.83,19.83,0,0,0-3.29.27,2.44,2.44,0,0,0,0-.27c0-11.72-7.3-21.24-16.29-21.24-.36,0-.72,0-1.07.05-6.28-11.6-17.58-19.35-30.46-19.35-16.85,0-31,13.27-34.75,31.1-8.54,1.93-17,15.64-15.95,24.35Z"/><rect class="cls-7" x="671.57" y="386.6" width="73.67" height="62.93"/><rect class="cls-11" x="690.79" y="405.6" width="12.85" height="17.39"/><rect class="cls-11" x="708.75" y="405.6" width="28.54" height="17.39"/><path class="cls-16" d="M638.5,352.05,664,365.87l1.44,24.19H604.57Z"/><path class="cls-9" d="M671.57,386.6,641.4,354.77,611.85,386.6v62.93h59.72Z"/><rect class="cls-11" x="631.46" y="405.6" width="20.98" height="43.93"/><rect class="cls-11" x="637.47" y="376.9" width="8.97" height="9.7"/><polygon class="cls-17" points="638.5 352.05 714.04 352.05 750.08 390.06 674.54 390.06 638.5 352.05"/><rect class="cls-18" x="692.17" y="343.41" width="13.57" height="24.19"/><path class="cls-16" d="M692.17,343.41h-5.92L686,361.92l6.16,5.68Z"/><path class="cls-14" d="M1094.08,358.89l-36.14-27.19L1021.07,359V464.33h73Z"/><polygon class="cls-8" points="1057.93 303.86 1057.93 332.03 1094.08 358.89 1094.08 330.72 1057.93 303.86"/><polygon class="cls-10" points="1057.93 303.86 1057.93 332.02 1020.91 359.54 1020.91 331.37 1057.93 303.86"/><rect class="cls-11" x="1048.27" y="393.15" width="18.75" height="17.35"/><rect class="cls-11" x="1048.27" y="366.38" width="18.75" height="17.35"/><rect class="cls-11" x="1048.27" y="419.91" width="18.75" height="17.35"/><path class="cls-14" d="M1022.69,358.89,986.54,331.7,949.68,359V464.33h73Z"/><polygon class="cls-8" points="986.54 303.86 986.54 332.03 1022.69 358.89 1022.69 330.72 986.54 303.86"/><polygon class="cls-10" points="986.54 303.86 986.54 332.02 949.52 359.54 949.52 331.37 986.54 303.86"/><rect class="cls-11" x="976.87" y="393.15" width="18.75" height="17.35"/><rect class="cls-11" x="976.87" y="366.38" width="18.75" height="17.35"/><rect class="cls-11" x="976.87" y="419.91" width="18.75" height="17.35"/><path class="cls-8" d="M1124.49,331.2h-4.17s20.41-29,20.47-28.86,3.79,2.6,3.79,2.6S1123.7,331.34,1124.49,331.2Z"/><path class="cls-9" d="M1124.48,361.17V329.4l19-27.06,19,27.06v31.77Z"/><rect class="cls-7" x="1160.84" y="329.41" width="91.45" height="31.77"/><rect class="cls-11" x="1172.95" y="338.84" width="4.66" height="9.38"/><rect class="cls-11" x="1188.59" y="338.84" width="4.66" height="9.38"/><rect class="cls-11" x="1204.23" y="338.84" width="4.66" height="9.38"/><rect class="cls-11" x="1219.88" y="338.84" width="4.66" height="9.38"/><rect class="cls-11" x="1235.52" y="338.84" width="4.66" height="9.38"/><polygon class="cls-10" points="1140.79 302.34 1236.46 302.34 1256.51 331.2 1160.84 331.2 1140.79 302.34"/><path class="cls-8" d="M1241.79,361h-4.17s20.41-29,20.47-28.86,3.79,2.6,3.79,2.6S1241,361.11,1241.79,361Z"/><path class="cls-9" d="M1241.78,391V359.18l19-27.07,19,27.07V391Z"/><rect class="cls-7" x="1278.14" y="359.18" width="91.45" height="31.77"/><rect class="cls-11" x="1290.25" y="368.61" width="4.66" height="9.38"/><rect class="cls-11" x="1305.89" y="368.61" width="4.66" height="9.38"/><rect class="cls-11" x="1321.53" y="368.61" width="4.66" height="9.38"/><rect class="cls-11" x="1337.18" y="368.61" width="4.66" height="9.38"/><rect class="cls-11" x="1352.82" y="368.61" width="4.66" height="9.38"/><polygon class="cls-10" points="1258.1 332.11 1353.77 332.11 1373.81 360.97 1278.14 360.97 1258.1 332.11"/><path class="cls-8" d="M122,457h-5.13S142,421.36,142,421.48s4.66,3.21,4.66,3.21S121,457.17,122,457Z"/><path class="cls-9" d="M122,493.89v-39.1l23.32-33.31,23.32,33.31v39.1Z"/><rect class="cls-7" x="166.69" y="454.79" width="112.54" height="39.09"/><rect class="cls-11" x="181.6" y="466.4" width="5.74" height="11.55"/><rect class="cls-11" x="200.85" y="466.4" width="5.74" height="11.55"/><rect class="cls-11" x="220.09" y="466.4" width="5.74" height="11.55"/><rect class="cls-11" x="239.34" y="466.4" width="5.74" height="11.55"/><rect class="cls-11" x="258.59" y="466.4" width="5.74" height="11.55"/><polygon class="cls-10" points="142.03 421.48 259.76 421.48 284.42 457 166.7 457 142.03 421.48"/><path class="cls-26" d="M1228.79,396.72c-.75-5.45-8.42-10-15.62-10a18.22,18.22,0,0,0-2.58.18,1.09,1.09,0,0,0,0-.18c0-7.83-5.72-14.18-12.76-14.18q-.43,0-.84,0a28.21,28.21,0,0,0-23.86-12.91c-13.21,0-24.29,8.86-27.23,20.76-6.69,1.29-13.31,10.43-12.5,16.25Z"/><g id="yellow-tree8"><path class="cls-25" d="M1133.31,323.66c7.17.46,11,11.83,17,19.38a28.16,28.16,0,0,1,6.11,19.48c-.94,14.24-7.14,19.69-24.49,18.88-19.86-.93-23.46-11.58-24.2-21.51s5.64-15,7.81-20.11C1119,331.75,1128.3,323.33,1133.31,323.66Z"/><path class="cls-6" d="M1128.36,409.38a101.4,101.4,0,0,1,.55-13c.83-9.95-.36-25.46-.85-25.42a29.31,29.31,0,0,1-7-5.44c-3.86-4-2.57-6.06-2.57-6.32,2.41,2.89,1.61,2.6,4.8,4.7a7.88,7.88,0,0,0,5.32,1.65s.54,2.94-1.18-6.83c-1.83-10.39-1-19.44-.83-19.56s1.83,8.63,3.46,14.76c1,3.61,2,6,2.56,5.9.74-.14,2.37-2.06,3.29-4.58a22.66,22.66,0,0,0,1.07-5.48s1.92,2.58.19,7.7c-1.1,3.25-2.13,3.26-3.92,6.13,0,0,1.25,20.66.86,34.37a67.09,67.09,0,0,0,.64,11.06,14.79,14.79,0,0,1-2.79.71A25.2,25.2,0,0,1,1128.36,409.38Z"/></g><path class="cls-27" d="M1189.63,418.27c-.82-5.37-9.24-9.82-17.15-9.82a21.78,21.78,0,0,0-2.82.18v-.18a14,14,0,0,0-14-14c-.31,0-.61,0-.92,0-5.4-7.64-15.12-12.74-26.19-12.74-14.5,0-26.66,8.74-29.89,20.48-7.35,1.27-14.61,10.29-13.72,16Z"/><g id="yellow-tree9"><path class="cls-25" d="M290.1,373.6c11.36.73,17.43,18.74,26.93,30.71a44.51,44.51,0,0,1,9.68,30.86c-1.49,22.56-11.3,31.2-38.8,29.91-31.46-1.48-37.16-18.35-38.33-34.08s8.93-23.81,12.38-31.85C267.41,386.42,282.15,373.09,290.1,373.6Z"/><path class="cls-6" d="M285.4,517s-.37-5.76.87-20.58c1.32-15.77-.56-40.34-1.34-40.28a46.5,46.5,0,0,1-11.09-8.61c-6.11-6.33-4.07-9.61-4.07-10,3.82,4.58,2.55,4.11,7.61,7.43,3,2,4.42,2.59,8.42,2.63,0,0,.86,4.66-1.87-10.83-2.9-16.46-1.6-30.8-1.32-31s2.9,13.68,5.49,23.38c1.52,5.72,3.16,9.53,4.06,9.35,1.17-.22,3.75-3.26,5.21-7.25a36.3,36.3,0,0,0,1.69-8.69s3.05,4.1.3,12.21c-1.75,5.15-3.37,5.16-6.21,9.7,0,0,2,32.74,1.36,54.45a106.5,106.5,0,0,0,1,17.53,22.64,22.64,0,0,1-4.41,1.13A40.65,40.65,0,0,1,285.4,517Z"/></g><path class="cls-27" d="M347.64,530.39c-.82-5.37-9.24-9.81-17.14-9.81a23.9,23.9,0,0,0-2.83.17v-.17a14,14,0,0,0-14-14c-.31,0-.62,0-.92,0-5.41-7.64-15.12-12.74-26.2-12.74-14.5,0-26.66,8.74-29.89,20.47-7.34,1.28-14.61,10.3-13.72,16Z"/><path class="cls-27" d="M225.31,507c-.67-3.86-7.57-7.06-14-7.06a22.08,22.08,0,0,0-2.32.13V500c0-5.54-5.14-10.05-11.47-10.05l-.75,0c-4.43-5.49-12.39-9.16-21.46-9.16-11.88,0-21.85,6.29-24.49,14.72-6,.92-12,7.41-11.24,11.53Z"/><rect class="cls-28" x="298.84" y="406.9" width="119.99" height="104.22"/><path class="cls-8" d="M490.68,412h9.79l-39.6-49-9.58,5.68Z"/><path class="cls-29" d="M454.76,365,418.83,406.9V511.12h71.86V406Z"/><polygon class="cls-22" points="460.87 363 332.09 363 290.06 411.97 418.83 411.97 460.87 363"/><rect class="cls-30" x="383.45" y="433.81" width="13.27" height="18.7"/><rect class="cls-30" x="352.22" y="433.81" width="13.27" height="18.7"/><rect class="cls-30" x="320.96" y="433.81" width="13.27" height="18.7"/><rect class="cls-30" x="383.45" y="465.5" width="13.27" height="18.7"/><rect class="cls-30" x="352.22" y="465.5" width="13.27" height="18.7"/><rect class="cls-30" x="320.96" y="465.5" width="13.27" height="18.7"/><rect class="cls-31" x="449.69" y="404.29" width="11.32" height="18.7"/><rect class="cls-31" x="449.69" y="433.99" width="11.32" height="18.7"/><rect class="cls-31" x="444.03" y="466.08" width="22.65" height="45.13"/><path class="cls-32" d="M577.27,347.85c2.68-6.44,10.3-5.78,13.52-2.26,9,9.85,15.63,80,14.93,86.67-1.18,11.38-4.83,14.25-10.43,16.84-3.08,1.42-12.57,2.37-19,.71-4.82-1.25-9.7-8.07-10.9-16.12C563.76,422.54,566.36,374.06,577.27,347.85Z"/><path class="cls-6" d="M581.06,476.6c0-.29.72-38.65.72-38.65l-6.41-5.21v-1.66l7.12,4.26.71-36h1.18l1.43,12.57,4.74-1.9.24,1.19-3.56,2.61.24,23.47,5.45-1.9.24,1.9-5.46,3.56v35.8S581.06,476.9,581.06,476.6Z"/><path class="cls-32" d="M1272,287.66c2.68-6.44,10.3-5.78,13.51-2.26,9,9.85,15.64,80,14.94,86.67-1.19,11.38-4.83,14.25-10.43,16.83-3.09,1.43-12.57,2.38-19,.72-4.82-1.25-9.71-8.07-10.91-16.13C1258.46,362.35,1261.07,313.87,1272,287.66Z"/><path class="cls-6" d="M1275.77,416.41c0-.3.71-38.65.71-38.65l-6.4-5.22v-1.66l7.11,4.27.71-36h1.19l1.42,12.57,4.74-1.9.24,1.19-3.56,2.61.24,23.47,5.46-1.9.23,1.9-5.45,3.56v35.8S1275.76,416.71,1275.77,416.41Z"/><path class="cls-32" d="M236.42,365c2.68-6.43,10.3-5.77,13.52-2.26,9,9.85,15.63,80,14.93,86.68-1.18,11.38-4.83,14.25-10.43,16.83-3.08,1.42-12.57,2.37-19,.71-4.82-1.25-9.71-8.06-10.91-16.12C222.9,439.69,225.51,391.22,236.42,365Z"/><path class="cls-6" d="M240.21,493.76c0-.3.71-38.65.71-38.65l-6.4-5.22v-1.66l7.12,4.27.71-36h1.18L245,429l4.74-1.89.24,1.18-3.56,2.61.24,23.48,5.45-1.9.24,1.9L246.85,458v35.81S240.21,494.05,240.21,493.76Z"/><path class="cls-27" d="M1372,371.27c3.85-8,14.81-7.2,19.44-2.82,13,12.26,22.5,99.58,21.49,107.93-1.71,14.17-7,17.75-15,21-4.43,1.78-18.08,3-27.29.89-6.93-1.56-14-10-15.69-20.08C1352.58,464.27,1356.34,403.9,1372,371.27Z"/><path class="cls-33" d="M1377.48,531.6c0-.37,1-48.13,1-48.13l-9.21-6.5V474.9l10.23,5.32,1-44.88h1.71l2,15.65,6.82-2.36.34,1.47-5.12,3.25.34,29.23,7.85-2.36.34,2.36L1387,487V531.6S1377.47,532,1377.48,531.6Z"/><path class="cls-34" d="M769.64,468.68,733.5,441.49,696.63,468.8V574.12h73Z"/><polygon class="cls-8" points="733.5 413.65 733.5 441.81 769.64 468.68 769.64 440.51 733.5 413.65"/><polygon class="cls-10" points="733.5 413.65 733.5 441.81 696.48 469.33 696.48 441.16 733.5 413.65"/><rect class="cls-35" x="723.83" y="502.94" width="18.75" height="17.35"/><rect class="cls-35" x="723.83" y="476.17" width="18.75" height="17.35"/><rect class="cls-35" x="723.83" y="529.7" width="18.75" height="17.35"/><path class="cls-34" d="M1357.2,445.62l-36.14-27.19-36.87,27.3V551.06h73Z"/><polygon class="cls-8" points="1321.06 390.58 1321.06 418.75 1357.2 445.61 1357.2 417.45 1321.06 390.58"/><polygon class="cls-10" points="1321.05 390.58 1321.05 418.75 1284.03 446.26 1284.03 418.1 1321.05 390.58"/><rect class="cls-35" x="1311.39" y="479.87" width="18.75" height="17.35"/><rect class="cls-35" x="1311.39" y="453.11" width="18.75" height="17.35"/><rect class="cls-35" x="1311.39" y="506.64" width="18.75" height="17.35"/><g id="yellow-tree10"><path class="cls-25" d="M1371.89,456.24c7.31,1.33,9.79,18.25,15,29.8a53.19,53.19,0,0,1,3.77,28.95c-2.8,20.67-9.88,28-27.62,25.28-20.3-3.16-22.63-19-22.1-33.55s7.73-21.39,10.62-28.59C1356.11,466.73,1366.77,455.31,1371.89,456.24Z"/><path class="cls-33" d="M1361,560.74s.07-4,1.92-14.24c2-10.86,3.24-13.84,2.64-13.85a35.55,35.55,0,0,1-7.82-6.72,23.85,23.85,0,0,1-5.18-11.71c2.59,3.44,4.39,7.51,8,10.15a10,10,0,0,0,6.19,2.39s-.83-10.91-1.93-21.85c-1.18-11.62.68-21.49.91-21.61.42-.21,2.88,30.74,5.54,29.3,3-1.65,11.74-18,11.74-18a58.93,58.93,0,0,1-3.84,12.41c-1.63,3.46-5.45,8-7.87,10.93,0,0-.51,15.85-2.32,30.89a68.31,68.31,0,0,0-.31,12.23,18.33,18.33,0,0,1-3.4.49A33.61,33.61,0,0,1,1361,560.74Z"/></g><g id="yellow-tree11"><path class="cls-25" d="M676.54,414.76c9.1.54,14,13.84,21.59,22.68a31.18,31.18,0,0,1,7.76,22.78c-1.19,16.65-9.06,23-31.1,22.08-25.22-1.09-29.8-13.55-30.73-25.16s7.16-17.58,9.92-23.52C658.35,424.22,670.17,414.38,676.54,414.76Z"/><path class="cls-6" d="M670.24,515s-.3-4.25.7-15.2c1.06-11.64-.45-29.78-1.08-29.73a37.14,37.14,0,0,1-8.88-6.36c-4.91-4.67-3.27-7.09-3.27-7.39,3.06,3.38,2,3,6.1,5.49a10.63,10.63,0,0,0,6.75,1.94s.69,3.44-1.5-8c-2.32-12.15-1.28-22.73-1-22.88s2.32,10.1,4.39,17.27c1.22,4.22,2.54,7,3.26,6.9.94-.16,3-2.41,4.17-5.35a24.76,24.76,0,0,0,1.36-6.42s2.45,3,.24,9c-1.4,3.8-2.7,3.8-5,7.16,0,0,1.59,24.16,1.09,40.2a72,72,0,0,0,.81,12.93,18.81,18.81,0,0,1-3.54.84A34.84,34.84,0,0,1,670.24,515Z"/></g><path class="cls-27" d="M82.23,404.2c3.34-8,12.83-7.19,16.83-2.81,11.22,12.26,19.47,99.57,18.6,107.93-1.48,14.17-6,17.74-13,21-3.84,1.77-15.65,3-23.62.89-6-1.56-12.09-10-13.58-20.08C65.4,497.21,68.65,436.84,82.23,404.2Z"/><path class="cls-33" d="M87,564.53c0-.37.89-48.13.89-48.13l-8-6.49v-2.07l8.85,5.32.89-44.88h1.48l1.77,15.64,5.9-2.36.3,1.48-4.43,3.25.3,29.23,6.79-2.36.29,2.36L95.22,520v44.58S86.94,564.9,87,564.53Z"/><path class="cls-25" d="M940,493.89c1.32-12.34,14.95-22.55,27.75-22.55a25.66,25.66,0,0,1,4.58.41c0-.14,0-.27,0-.41,0-17.72,10.17-32.11,22.68-32.11a14.52,14.52,0,0,1,1.48.07c8.75-17.55,24.48-29.26,42.41-29.26,23.46,0,43.15,20.07,48.38,47,11.89,2.93,23.65,23.65,22.21,36.83Z"/><rect class="cls-36" x="1215.68" y="414.66" width="73.83" height="51.47"/><rect class="cls-37" x="1235.06" y="433.66" width="11.55" height="17.39"/><rect class="cls-37" x="1263.02" y="433.66" width="11.59" height="17.39"/><path class="cls-22" d="M1182.78,380.11l25.54,13.82,1.44,24.18h-60.92Z"/><path class="cls-38" d="M1156.12,466.12V414.66l29.56-31.84,30.16,31.84v51.46Z"/><rect class="cls-39" x="1180.38" y="408.41" width="8.97" height="9.7"/><polygon class="cls-8" points="1182.77 380.11 1258.32 380.11 1294.36 418.11 1218.82 418.11 1182.77 380.11"/><rect class="cls-12" x="1236.45" y="371.47" width="13.57" height="24.19"/><path class="cls-22" d="M1236.45,371.47h-5.92l-.25,18.51,6.17,5.67Z"/><rect class="cls-40" x="1108.64" y="446.79" width="73.67" height="62.93"/><rect class="cls-35" x="1127.86" y="465.79" width="12.85" height="17.39"/><rect class="cls-35" x="1145.82" y="465.79" width="28.54" height="17.39"/><path class="cls-22" d="M1075.58,412.24l25.54,13.82,1.44,24.19h-60.92Z"/><path class="cls-41" d="M1108.64,446.79,1078.47,415l-29.55,31.84v62.93h59.72Z"/><rect class="cls-23" x="1068.54" y="465.79" width="20.98" height="43.93"/><rect class="cls-23" x="1074.55" y="437.09" width="8.97" height="9.7"/><polygon class="cls-8" points="1075.57 412.24 1151.12 412.24 1187.16 450.25 1111.62 450.25 1075.57 412.24"/><rect class="cls-12" x="1129.25" y="403.6" width="13.57" height="24.19"/><path class="cls-22" d="M1129.25,403.6h-5.92l-.25,18.51,6.17,5.68Z"/><rect class="cls-40" x="1197.06" y="484.02" width="73.67" height="62.93"/><rect class="cls-35" x="1216.28" y="503.02" width="12.85" height="17.39"/><rect class="cls-35" x="1234.24" y="503.02" width="28.54" height="17.39"/><path class="cls-22" d="M1164,449.47l25.54,13.82,1.44,24.18h-60.92Z"/><path class="cls-41" d="M1197.06,484l-30.17-31.84L1137.34,484V547h59.72Z"/><rect class="cls-23" x="1156.96" y="503.02" width="20.98" height="43.93"/><rect class="cls-23" x="1162.97" y="474.31" width="8.97" height="9.7"/><polygon class="cls-8" points="1163.99 449.47 1239.53 449.47 1275.58 487.47 1200.04 487.47 1163.99 449.47"/><rect class="cls-12" x="1217.67" y="440.83" width="13.57" height="24.19"/><path class="cls-22" d="M1217.67,440.83h-5.92l-.25,18.51,6.17,5.67Z"/><path class="cls-8" d="M906.56,470.14l0-8.94s83.1.33,144.87.33l71.91,40.3-181.68-3.44Z"/><rect class="cls-42" x="906.54" y="466.84" width="144.87" height="124.15"/><rect class="cls-31" x="998.55" y="489.51" width="17.28" height="14.47"/><rect class="cls-31" x="962.98" y="489.51" width="17.28" height="14.47"/><rect class="cls-31" x="927.42" y="489.51" width="17.28" height="14.47"/><path class="cls-43" d="M1051.41,466.84l63.16,35L1116,591h-64.54Z"/><path class="cls-8" d="M863.77,524.84l-.55-5.26s62.41.2,108.78.2l56.43,23.69-136.61-2Z"/><rect class="cls-42" x="866.7" y="524.82" width="105.02" height="66.18"/><rect class="cls-31" x="876.74" y="542.25" width="7.29" height="15.67"/><path class="cls-43" d="M971.71,524.82l45.79,18.65,1,47.53H971.71Z"/><rect class="cls-31" x="993.32" y="573.64" width="12.52" height="17.37"/><rect class="cls-31" x="995.59" y="554" width="7.98" height="7.83"/><path class="cls-8" d="M924.69,491.79v26.28H833l0-4Z"/><path class="cls-29" d="M924.68,497.79l-91.77,20.28-.41,81.29h92.18Z"/><rect class="cls-31" x="848.51" y="530.95" width="7.59" height="20.69"/><rect class="cls-31" x="881.2" y="572.26" width="12.01" height="10.24"/><rect class="cls-31" x="904.15" y="572.26" width="11.65" height="10.24"/><path class="cls-8" d="M1272.31,482.92l0,26.29h-91.64l0-4Z"/><path class="cls-29" d="M1272.29,488.93l-91.76,20.28-.42,81.29h92.18Z"/><rect class="cls-31" x="1196.13" y="522.08" width="7.59" height="20.69"/><rect class="cls-31" x="1228.82" y="563.4" width="12.01" height="10.24"/><rect class="cls-31" x="1251.77" y="563.4" width="11.65" height="10.24"/><rect class="cls-42" x="478.15" y="455.13" width="102.74" height="72.55"/><rect class="cls-31" x="495.27" y="475.63" width="14.15" height="14.47"/><rect class="cls-31" x="523.67" y="475.63" width="14.15" height="14.47"/><path class="cls-22" d="M592.52,462.75h-126l21.78-31.16h82.45Z"/><rect class="cls-44" x="495.6" y="421.06" width="12.64" height="14.19"/><rect class="cls-44" x="493.83" y="417.19" width="15.78" height="3.88"/><path class="cls-27" d="M600,390.56c3.34-8,12.83-7.19,16.83-2.81C628,400,636.26,487.33,635.39,495.68c-1.48,14.17-6,17.75-13,21-3.83,1.78-15.65,3-23.62.89-6-1.56-12.09-10-13.58-20.08C583.12,483.57,586.37,423.2,600,390.56Z"/><path class="cls-33" d="M604.68,550.9c0-.37.88-48.13.88-48.13l-8-6.5V494.2l8.86,5.32.89-44.88h1.47l1.77,15.65,5.91-2.36.29,1.47-4.43,3.25.3,29.23,6.79-2.36.3,2.36L613,506.31V550.9S604.67,551.26,604.68,550.9Z"/><path class="cls-27" d="M559.72,426.47c2.92-7,11.21-6.28,14.7-2.46,9.8,10.71,17,87,16.25,94.25-1.29,12.38-5.26,15.5-11.35,18.31-3.35,1.55-13.66,2.58-20.63.77-5.24-1.36-10.55-8.77-11.86-17.53C545,507.69,547.86,455,559.72,426.47Z"/><path class="cls-33" d="M563.85,566.48c0-.32.77-42,.77-42l-7-5.67V517l7.74,4.64.77-39.19h1.29L569,496.09l5.15-2.06.26,1.28-3.87,2.84.26,25.53,5.93-2.07.26,2.07-5.93,3.86v38.94S563.84,566.8,563.85,566.48Z"/><g id="yellow-tree12"><path class="cls-25" d="M142.35,463.22c8.93.82,13.71,20.9,21.18,34.24,4.22,7.53,8.32,19.24,7.62,34.4-1.18,25.15-8.9,34.77-30.52,33.33-24.74-1.64-29.23-20.44-30.15-38-.92-17.7,7-26.54,9.73-35.51C124.5,477.51,136.1,462.65,142.35,463.22Z"/><path class="cls-33" d="M140.33,590s-.33-4.85.8-17.32c1.21-13.27,2.42-17,1.71-17a41.68,41.68,0,0,1-10.13-7.24A28.88,28.88,0,0,1,125.24,535c3.49,3.85,6.08,8.56,10.7,11.35a12.06,12.06,0,0,0,7.69,2.21s-2.15-13-4.64-26.06c-2.65-13.85-1.46-25.91-1.2-26.08.48-.3,6.73,36.65,9.77,34.63,3.48-2.3,12.2-22.93,12.2-22.93a70.85,70.85,0,0,1-3.29,15.33c-1.6,4.33-5.71,10.16-8.3,14,0,0,1.06,19.1.49,37.38a83.47,83.47,0,0,0,.92,14.74,21.65,21.65,0,0,1-4,1A40.08,40.08,0,0,1,140.33,590Z"/></g><g id="yellow-tree13"><path class="cls-25" d="M251.1,440.11c8.94.82,13.71,20.89,21.19,34.23a64.22,64.22,0,0,1,7.61,34.4c-1.17,25.15-8.89,34.77-30.51,33.34-24.75-1.65-29.24-20.45-30.15-38-.93-17.7,7-26.54,9.73-35.51C233.26,454.4,244.85,439.53,251.1,440.11Z"/><path class="cls-33" d="M249.09,566.9s-.34-4.85.8-17.32c1.21-13.27,2.42-17,1.7-16.94a42.64,42.64,0,0,1-10.12-7.24A29,29,0,0,1,234,511.87c3.49,3.85,6.09,8.56,10.71,11.36a12.15,12.15,0,0,0,7.69,2.21s-2.15-13-4.64-26.06c-2.65-13.86-1.47-25.92-1.2-26.08.48-.3,6.73,36.64,9.77,34.63,3.48-2.31,12.19-22.94,12.19-22.94a71,71,0,0,1-3.29,15.34c-1.59,4.33-5.71,10.15-8.29,14,0,0,1.06,19.11.49,37.38a82.35,82.35,0,0,0,.92,14.74,21.65,21.65,0,0,1-4,1A40.08,40.08,0,0,1,249.09,566.9Z"/></g><g id="yellow-tree14"><path class="cls-25" d="M46.56,440.44c10.53,1,16.16,24.64,25,40.37,5,8.88,9.81,22.68,9,40.55-1.38,29.65-10.48,41-36,39.31C15.36,558.73,10.07,536.56,9,515.88,7.9,495,17.27,484.59,20.46,474,25.52,457.29,39.19,439.77,46.56,440.44Z"/><path class="cls-45" d="M44.18,589.93s-.39-5.71.94-20.42c1.43-15.64,2.86-20,2-20A50.25,50.25,0,0,1,35.2,541c-6.59-6.29-8.82-15.54-8.82-16,4.12,4.55,7.18,10.09,12.62,13.39a14.29,14.29,0,0,0,9.07,2.61s-2.53-15.37-5.47-30.73c-3.12-16.33-1.73-30.55-1.42-30.75.57-.35,7.94,43.21,11.52,40.83,4.11-2.71,14.38-27,14.38-27a83.54,83.54,0,0,1-3.88,18.08c-1.88,5.11-6.73,12-9.78,16.48,0,0,1.26,22.52.58,44.07a97.42,97.42,0,0,0,1.09,17.38,26.31,26.31,0,0,1-4.75,1.12A47.78,47.78,0,0,1,44.18,589.93Z"/></g><path class="cls-27" d="M1273.62,430c3.33-8,12.82-7.19,16.83-2.81,11.22,12.26,19.47,99.58,18.6,107.93-1.48,14.17-6,17.75-13,21-3.84,1.78-15.65,3-23.62.89-6-1.56-12.09-10-13.59-20.08C1256.79,523,1260,462.64,1273.62,430Z"/><path class="cls-33" d="M1278.34,590.33c0-.36.89-48.12.89-48.12l-8-6.5v-2.07l8.86,5.32.89-44.88h1.48l1.77,15.65,5.9-2.37.3,1.48-4.43,3.25.29,29.23,6.79-2.36.3,2.36-6.79,4.43v44.58S1278.33,590.7,1278.34,590.33Z"/><path class="cls-27" d="M1234,606c2.08-11.35,23.47-20.73,43.55-20.73a67.64,67.64,0,0,1,7.18.38c0-.13,0-.25,0-.38,0-16.29,15.95-29.52,35.58-29.52.79,0,1.57,0,2.33.06,13.74-16.13,38.41-26.9,66.54-26.9,36.82,0,67.72,18.46,75.92,43.24,7.11-1.67,14.73-4.1,27.23,3.75,6,3.74,7.81,14.17,7.81,14.17V606Z"/><path class="cls-27" d="M.08,593.48v-3.29c-.7-1.05,3.16-8.75,10.91-13.05a27.5,27.5,0,0,1,12.87-2.86c-4.42-2.41-4.29-6.82-2.13-10.56,4-7,21.55-11.36,35.44-6.93,6.37-13.84,30.66-20.6,48.65-14.3,6.6-6.14,18.26-10.23,31.54-10.23,20.56,0,37.25,9.79,37.25,21.85h.16c11.68,0,21.47,5.4,24.23,12.6,33.83,2.75,56.85,16.95,56.85,26.77Z"/><path class="cls-27" d="M1062.93,595.64c1.67-4.83,9.81-8.79,20.61-10.25,1.74-9.58,14.25-17.38,30.59-19.47,6.29-12.31,22.36-21.06,41.17-21.06a55.3,55.3,0,0,1,24.18,5.36,37,37,0,0,1,5.85-.46c10.3,0,19,4.16,21.83,9.86,24.85,1,44.45,11.89,44.45,25.16,0,3.89-1.68,7.57-4.68,10.86Z"/><path class="cls-27" d="M336.81,595c-1.67-4.83-9.82-8.78-20.61-10.25-1.74-9.58-14.25-17.38-30.59-19.47-6.29-12.3-22.36-21.06-41.17-21.06a55.3,55.3,0,0,0-24.18,5.36,37,37,0,0,0-5.85-.46c-10.3,0-19,4.16-21.83,9.86-24.85,1-44.45,11.89-44.45,25.16,0,3.89,1.68,7.58,4.68,10.86Z"/><rect class="cls-31" x="290.34" y="530.1" width="98.08" height="69.26"/><rect class="cls-46" x="303.92" y="549.68" width="13.51" height="13.81"/><rect class="cls-46" x="331.45" y="549.68" width="13.51" height="13.81"/><rect class="cls-46" x="303.92" y="572.81" width="13.51" height="13.81"/><rect class="cls-46" x="331.45" y="572.81" width="13.51" height="13.81"/><rect class="cls-31" x="358.89" y="564.73" width="18.37" height="34.63"/><path class="cls-47" d="M279.23,537.39H399.51l-20.78-29.76H300Z"/><rect class="cls-48" x="359.69" y="497.59" width="12.06" height="13.54"/><rect class="cls-48" x="358.37" y="493.89" width="15.07" height="3.7"/><rect class="cls-31" x="680.38" y="528.08" width="89.83" height="63.44"/><rect class="cls-31" x="743.17" y="559.8" width="16.82" height="31.72"/><path class="cls-47" d="M670.21,534.75H780.38l-19-27.26H689.25Z"/><rect class="cls-48" x="743.91" y="498.29" width="11.05" height="12.4"/><rect class="cls-48" x="742.7" y="494.9" width="13.8" height="3.39"/><path class="cls-47" d="M737.71,558.08h-4.65s22.76-32.31,22.84-32.19,4.22,2.91,4.22,2.91S736.84,558.24,737.71,558.08Z"/><path class="cls-6" d="M737.7,591.51V556.08l21.14-30.19L780,556.08v35.43Z"/><rect class="cls-31" x="778.25" y="556.08" width="102" height="35.43"/><rect class="cls-46" x="791.76" y="566.6" width="5.2" height="10.47"/><rect class="cls-46" x="809.21" y="566.6" width="5.2" height="10.47"/><rect class="cls-46" x="826.65" y="566.6" width="5.2" height="10.47"/><rect class="cls-46" x="844.1" y="566.6" width="5.2" height="10.47"/><rect class="cls-46" x="861.55" y="566.6" width="5.2" height="10.47"/><polygon class="cls-47" points="755.9 525.89 862.6 525.89 884.96 558.08 778.25 558.08 755.9 525.89"/><path class="cls-47" d="M529,501.56l0-6.66s-61.85.25-107.83.25l-53.52,30,135.22-2.56Z"/><rect class="cls-31" x="421.15" y="499.1" width="107.82" height="92.4"/><rect class="cls-46" x="447.63" y="515.97" width="12.86" height="10.77"/><rect class="cls-46" x="474.1" y="515.97" width="12.86" height="10.77"/><rect class="cls-46" x="500.57" y="515.97" width="12.86" height="10.77"/><path class="cls-6" d="M421.15,499.1l-47,26-1,66.36h48Z"/><path class="cls-47" d="M560.79,542.27l.42-3.91s-46.45.14-81,.14l-42,17.64,101.67-1.51Z"/><rect class="cls-31" x="480.46" y="542.25" width="78.16" height="49.26"/><rect class="cls-46" x="545.72" y="555.22" width="5.42" height="11.66"/><path class="cls-6" d="M480.46,542.25l-34.08,13.89-.75,35.37h34.83Z"/><rect class="cls-49" x="455.05" y="578.59" width="9.32" height="12.93"/><rect class="cls-46" x="469.79" y="578.59" width="5.94" height="5.83"/><path class="cls-47" d="M667.93,458.89,692.81,485v10.71H576.59v-8.82Z"/><path class="cls-50" d="M692.81,490.93l-26.45-27.31-89.77,27.31V599.36H692.81Z"/><rect class="cls-46" x="600.05" y="505.85" width="12.57" height="11.95"/><rect class="cls-46" x="627.78" y="505.85" width="12.73" height="11.95"/><rect class="cls-46" x="604.3" y="550.5" width="16.65" height="18.28"/><rect class="cls-46" x="643.05" y="550.23" width="28.03" height="49.13"/></g><g id="front-line"><rect class="cls-51" x="0.08" y="589.94" width="1500" height="18.8"/></g></g></g></svg>