<svg xmlns="http://www.w3.org/2000/svg" viewBox="0 0 1500.01 608.74"><defs><style>.cls-1{fill:#1d2b60;}.cls-1,.cls-10,.cls-11,.cls-14,.cls-2,.cls-22,.cls-23,.cls-3,.cls-37,.cls-4,.cls-5{fill-rule:evenodd;}.cls-2,.cls-9{fill:#2b3c7b;}.cls-3,.cls-32{fill:#1cd2b9;}.cls-4,.cls-7{fill:#84c0e5;}.cls-5{fill:#63d1e0;}.cls-6{fill:#5485b6;}.cls-10,.cls-8{fill:#6184ba;}.cls-11{fill:#95c7ec;}.cls-12{fill:#7bd9cc;}.cls-13{fill:#4fcbba;}.cls-14{fill:#394fa2;}.cls-15{fill:#45719e;}.cls-16{fill:#5f85b8;}.cls-17{fill:#120738;}.cls-18{fill:#1f0b4f;}.cls-19{fill:#212b55;}.cls-20{fill:#000046;}.cls-21,.cls-22{fill:#310850;}.cls-23,.cls-38{fill:#e5a384;}.cls-24{fill:#e7af7e;}.cls-25{fill:#643673;}.cls-26{fill:#9f65bf;}.cls-27{fill:#2f2467;}.cls-28{fill:#449c9e;}.cls-29{fill:#1e0751;}.cls-30{fill:#235d5e;}.cls-31{fill:#423789;}.cls-33{fill:#834597;}.cls-34{fill:#907cd8;}.cls-35{fill:#6d58b7;}.cls-36{fill:#79428b;}.cls-37,.cls-41{fill:#1f0119;}.cls-39{fill:#5c0147;}.cls-40{fill:#643a5c;}.cls-42{fill:#3b012e;}.cls-43{fill:#9e6467;}.cls-44{fill:#77133e;}.cls-45{fill:#af8083;}.cls-46{fill:#620b4e;}</style></defs><g id="Layer_2" data-name="Layer 2"><g id="Layer_1-2" data-name="Layer 1"><g id="clouds-20"><g id="big-cloud"><path class="cls-1" d="M1212.27,129.63C1191.88,55,1122.87,0,1041,0,973.57,0,935,30.2,905,85c-6.71-2.85-27.36-5.8-53.73,4.58-34.92,13.76-55.72,37.43-55.72,85.85,0,14.73-.14,18.25,4.84,30.44-114-51.27-196.65,10.2-226.53,56.48-13.56,21-14.16,50.57-12.23,54.92-42.94-43-125.13-23.48-115.69,52.62.52,4.07,15.59,17.42,11.77,18.42-14.88,3.87-165.85,7-320.84,27.49C100,420.71,55.46,421.69,25.71,461,9.94,481.86,9,526.29,29.38,550.37c7.91,9.34,40.24,14,52.87,13.87,232.93-2.4,1294.7-5.09,1332.25-9.48,85.64-10,71-130,49.67-157.92-16.14-21.14-33.89-46.46-95.34-48.74-6.58-.23-13.09,1.61-8.32-2,24.22-18.39,3.16-104.78-69.76-82.89-.86.26,0-.91,0-.91C1290.44,200,1257.51,147.36,1212.27,129.63Z"/></g><g id="big-cloud1"><path class="cls-2" d="M1175.22,189.26c-13.43-41.48-58.87-72-112.8-72-44.4,0-69.81,16.78-89.57,47.26-4.42-1.58-18-3.23-35.38,2.55-23,7.64-36.7,20.8-36.7,47.71,0,8.18-.09,10.14,3.19,16.92-75.1-28.5-129.5,5.67-149.19,31.39-8.92,11.66-9.32,28.11-8,30.52-28.28-23.9-82.4-13-76.18,29.25.34,2.26,10.26,9.68,7.74,10.24-9.8,2.15-36.26,5.06-138.67,12.58-36.81,2.71-70.22,11.56-87.46,28.59-11.06,10.91-20.24,25.1-6.84,38.49,5.19,5.19,32.06,10.64,40.39,10.57,153.39-1.33,798,4.69,822.7,2.25,56.4-5.57,46.73-72.27,32.71-87.77-10.63-11.75-22.32-25.82-62.79-27.08-4.33-.13-8.62.89-5.48-1.12,16-10.21,2.08-58.23-45.94-46.07-.57.15,0-.5,0-.5C1226.7,228.39,1205,199.12,1175.22,189.26Z"/></g></g><g id="_20" data-name=" 20"><g id="Dawn-sky-5"><g id="fireworks"><path class="cls-3" d="M213,194.22c61.21-45.6,77.28-51.66,121.05-60.12,2.64-.51,3.78-4.11,2.89-6.67s-3.43-2.86-6.12-2.62C290.93,128.37,237.64,163.23,213,194.22Z"/><path class="cls-3" d="M203,192c22.71-54.62,31.14-64.86,57.45-87.15,1.59-1.35.86-4.27-.81-5.72s-3.53-.7-5.27.48C228.64,117.06,206.85,161.25,203,192Z"/><path class="cls-3" d="M195.46,191.61c-12.12-71.29-19.38-85.79-44.68-119.5-1.52-2,.14-5.33,2.54-6.59s4.41.12,6.16,2C185.39,95.26,199.28,153.87,195.46,191.61Z"/><path class="cls-3" d="M112.87,76.28l5,21.88,13.9-9.31L120,101l19,10.09-20.29-6.71.87,17.56-4.26-17.06-17.47,12.3L113.22,102,98.45,93.78l16,4.89Z"/><path class="cls-3" d="M111.21,233.48,93.76,247.6,108.25,256l-16.1-5.16-.65,21.55-2.93-21.16-15.38,8.53,13.43-11.36L67.87,238.12l20.38,7,.89-16.9,2.68,16.52Z"/><path class="cls-3" d="M67.42,167.8,50,181.93l14.49,8.36-16.11-5.16-.64,21.55-2.94-21.17L29.4,194l13.43-11.35L24.09,172.44l20.37,7,.89-16.89L48,179.1Z"/><path class="cls-3" d="M190,325.48l8.37,16.23,8.5-10-6.27,11.81,16.49,4.27-16.71-1.38,4.37,13.63-6.82-12.58-10.56,13,8.33-14.86L182.82,342l13.09.77Z"/><path class="cls-3" d="M304.25,173.53l18-2.9-6.83-11.19,9.27,9.64,9.2-14.33-6.52,15.44,14.31.1-14.08,2.56,9.06,14.09-11.51-12.55-7.48,11.09,4.81-12.19Z"/><path class="cls-3" d="M267.09,94.9l12.79-13-12.15-5,13.19,2.25-1.13-17,3.94,16.29L295.3,70l-9.81,10.43,15.67,5.94-16.72-3.24L285,96.52l-3.38-12.66Z"/><path class="cls-3" d="M277.5,218.54l13.61,5.3L291,213.2l2.41,10.55,12.25-6.33-10.86,8.2,9.81,5.89-10.75-3.93.43,13.6-2.75-13.51-9.73,4.75,8.34-6.62Z"/><path class="cls-3" d="M154.12,96.36l.94,9,7.52,2.42-7.86.76-2.83,8.6-.94-9-7.52-2.41,7.86-.77Z"/><path class="cls-3" d="M286.5,110.65l-6.09,4.5,1.65,7.67L278,116.14l-7.52,1,6.1-4.5L274.87,105l4.12,6.68Z"/><path class="cls-3" d="M340.69,214.27l-10-2.33-4.79,6.33,1.46-7.81-8.47-5.81,10,2.34,4.78-6.34-1.45,7.81Z"/><path class="cls-3" d="M207.58,321.77l-1.68-8.65-6.83-1.57,6.82-1.56,1.67-8.67,1.68,8.66,6.83,1.56-6.82,1.57Z"/><path class="cls-3" d="M260.66,268.28l-4.78-5.9-6.44,1.75,5.23-4.15-1.93-7.35,4.78,5.91,6.43-1.76-5.21,4.15Z"/><path class="cls-3" d="M66.27,285.23l5.39-8.73-4.48-6.56,6.94,3.87,8.2-6.18-5.4,8.74,4.49,6.55-6.94-3.86Z"/><path class="cls-3" d="M78.23,176.59,85,171.45l-1.81-7.67,4.54,6.44,8.35-1.68-6.79,5.14,1.81,7.66-4.54-6.43Z"/><path class="cls-3" d="M103,155.66l7.43-1.9,1.34-7.74,1.34,7.74,7.43,1.89-7.43,1.9-1.33,7.74-1.35-7.74Z"/><path class="cls-3" d="M187.75,195.53c-45.16-41.31-57.48-47.53-91.63-58.19-2.06-.64-2.69-3.56-1.78-5.48s3-1.92,5.07-1.49C130.84,136.83,170.54,169,187.75,195.53Z"/><path class="cls-3" d="M172.89,165.14c-20.14-26.8-28.61-32.83-43.7-43.91-.94-.69-.05-2.79,1.48-4.26s3-1.74,4.06-1.09C149,124.66,165,145.47,172.89,165.14Z"/><path class="cls-3" d="M173.9,209.36c-32.12,9.6-40.71,15.45-56.34,25.76-1,.64-2.63-.93-3.49-2.87s-.59-3.42.39-4.19C127.65,217.74,152.72,209.91,173.9,209.36Z"/><path class="cls-3" d="M185.36,257.1c-1.65,33.48,1,43.53,5.51,61.7.28,1.14-1.75,2.18-3.87,2.33s-3.42-.58-3.82-1.76C177.85,303.5,178.82,277.25,185.36,257.1Z"/><path class="cls-3" d="M269.51,258.47c13,30.92,13.9,41.27,15.85,59.89.13,1.16,2.39,1.44,4.44.87s3-1.72,3-3C292.39,299.53,282.53,275.18,269.51,258.47Z"/><path class="cls-3" d="M233.89,185.84c32.24-9.19,42.63-8.88,61.35-8.6,1.17,0,1.72-2.2,1.39-4.3s-1.34-3.2-2.58-3.32C277.38,168,252,174.91,233.89,185.84Z"/><path class="cls-3" d="M221.69,126.06c10.37-31.88,16.42-40.33,27.1-55.71.66-1-.87-2.65-2.79-3.56s-3.41-.67-4.2.29C231.17,80,222.75,104.9,221.69,126.06Z"/><path class="cls-3" d="M183,200.21c-72.21-3.72-87.94.19-126.36,17.53-2.32,1-5.17-1.3-5.88-3.92s1.08-4.28,3.29-5.58C86.79,189,147,188.25,183,200.21Z"/><path class="cls-3" d="M213.87,202.44c53.6-8.41,65.65-6.72,95.69,3.19,1.81.6,3.75-1.37,4.08-3.38s-1.15-3.1-2.9-3.9C284.8,186.59,239.8,190.72,213.87,202.44Z"/><path class="cls-3" d="M209.59,209.41c63.26,35,74.54,46.66,98,81.68,1.42,2.11,5.08,1.63,7.07-.22s1.34-4.2.15-6.47C297.18,250.77,246.46,218.29,209.59,209.41Z"/><path class="cls-3" d="M202.85,211.59c26.74,55.21,28.1,68.69,24.09,104-.24,2.13,2.89,3.63,5.59,3.38s3.69-2.16,4.21-4.28C244.37,283.24,225.72,236,202.85,211.59Z"/><path class="cls-3" d="M194.59,214.61C165.83,281,164,297.06,166.79,339.12c.17,2.53-3,4.38-5.73,4.13s-3.63-2.51-4.07-5C150.43,300.83,170.79,244.14,194.59,214.61Z"/><path class="cls-3" d="M186.34,209.39c-52.94,30-61.61,40.3-78.07,71.48-1,1.88-4.41,1.33-6.5-.4s-1.83-3.86-1.07-5.89C112,244.52,153.83,216.41,186.34,209.39Z"/><path class="cls-4" d="M403.21,278.66c-61-41.59-77-47-120.28-54.19-2.61-.44-3.79-3.78-2.95-6.19s3.34-2.72,6-2.54C325.35,218.42,378.43,250.12,403.21,278.66Z"/><path class="cls-4" d="M413.05,276.44c-23.22-50.63-31.69-60.06-58-80.45-1.58-1.23-.91-4,.72-5.35s3.47-.71,5.2.36C386.6,206.87,408.76,247.78,413.05,276.44Z"/><path class="cls-4" d="M420.45,275.93c10.88-66.74,17.81-80.38,42.25-112.26,1.47-1.92-.22-5-2.61-6.11s-4.34.18-6,2C428.93,185.84,416.11,240.77,420.45,275.93Z"/><path class="cls-4" d="M427.87,400.82l-8,15.29-8.54-9.18,6.36,10.93-16.19,4.25,16.45-1.55-4.1,12.79,6.53-11.86,10.62,12-8.44-13.73,12.64-3.62-12.9.93Z"/><path class="cls-4" d="M459.78,186.36l-.8,8.41-7.37,2.38,7.76.58,2.92,8,.79-8.42,7.38-2.37-7.76-.59Z"/><path class="cls-4" d="M277.58,299.41l9.82-2.34,4.82,5.84-1.56-7.27,8.27-5.56-9.83,2.35-4.81-5.85,1.54,7.27Z"/><path class="cls-4" d="M410.46,397.64l1.53-8.11L418.7,388,412,386.61l-1.78-8.06-1.53,8.11-6.71,1.56,6.76,1.36Z"/><path class="cls-4" d="M357.31,348.55l4.63-5.58,6.37,1.53-5.21-3.79,1.79-6.89-4.63,5.59-6.37-1.54,5.21,3.79Z"/><path class="cls-4" d="M549.25,361.28l-5.45-8.07,4.32-6.19-6.78,3.72-8.18-5.64,5.45,8.07-4.32,6.19,6.79-3.72Z"/><path class="cls-4" d="M535.82,260l-6.77-4.68,1.66-7.19-4.37,6.08-8.26-1.44,6.77,4.7-1.67,7.18,4.38-6.08Z"/><path class="cls-4" d="M511.1,240.91l-7.34-1.66-1.44-7.2-1.21,7.24-7.3,1.88,7.35,1.66,1.43,7.2,1.22-7.24Z"/><path class="cls-4" d="M428.11,279.48c43.91-39.29,56-45.3,89.47-55.78,2-.64,2.6-3.37,1.68-5.15s-2.94-1.75-5-1.31C483.34,223.77,444.68,254.45,428.11,279.48Z"/><path class="cls-4" d="M442.3,250.86c19.46-25.33,27.72-31.09,42.44-41.68.91-.66,0-2.6-1.54-4s-3-1.57-4-.95C465.26,212.7,449.75,232.38,442.3,250.86Z"/><path class="cls-4" d="M442,292.17c31.82,8.45,40.37,13.77,55.94,23.15,1,.58,2.58-.91,3.39-2.74s.53-3.21-.44-3.9C487.71,299.25,462.86,292.34,442,292.17Z"/><path class="cls-4" d="M431.4,336.91c2.13,31.24-.33,40.66-4.51,57.69-.26,1.07,1.76,2,3.86,2.12s3.36-.6,3.73-1.71C439.51,380.11,438.15,355.62,431.4,336.91Z"/><path class="cls-4" d="M348.44,339.54c-12.32,29.06-13.09,38.74-14.73,56.15-.1,1.09-2.33,1.39-4.36.89s-3-1.56-3-2.71C326.5,378.23,335.86,355.34,348.44,339.54Z"/><path class="cls-4" d="M382.47,271.17c-31.93-8.07-42.17-7.62-60.63-7.06-1.15,0-1.72-2-1.43-4s1.27-3,2.49-3.13C339.31,255.22,364.41,261.25,382.47,271.17Z"/><path class="cls-4" d="M393.59,215.16c-10.7-29.6-16.79-37.39-27.56-51.57-.67-.89.81-2.49,2.7-3.36s3.35-.68,4.14.2C383.55,172.34,392.23,195.43,393.59,215.16Z"/><path class="cls-4" d="M432.85,283.77c71.15-4.63,86.72-1.22,124.87,14.34,2.3.94,5.08-1.29,5.74-3.75s-1.13-4-3.33-5.15C527.56,271.78,468.16,272,432.85,283.77Z"/><path class="cls-4" d="M402.45,286.34c-53-7-64.83-5.23-94.3,4.51-1.78.58-3.72-1.22-4.07-3.09s1.08-2.92,2.8-3.69C332.27,272.68,376.72,275.81,402.45,286.34Z"/><path class="cls-4" d="M406.79,292.78c-61.86,33.7-72.81,44.74-95.4,77.81-1.37,2-5,1.6-7-.09s-1.39-3.9-.25-6C321,332.79,370.56,301.66,406.79,292.78Z"/><path class="cls-4" d="M413.46,294.71c-25.53,52-26.67,64.57-22.18,97.47.27,2-2.8,3.44-5.47,3.25s-3.67-2-4.21-3.93C373.6,362.25,391.28,317.86,413.46,294.71Z"/><path class="cls-4" d="M421.65,297.39C451,358.87,453.06,373.88,451,413.18c-.13,2.37,3.05,4.05,5.71,3.77s3.54-2.4,3.94-4.76C466.5,377.18,445.57,324.58,421.65,297.39Z"/><path class="cls-4" d="M429.71,292.39c52.66,27.2,61.36,36.64,78.06,65.48,1,1.74,4.37,1.18,6.41-.47s1.74-3.63,1-5.52C503.52,324,461.87,298.43,429.71,292.39Z"/><path class="cls-4" d="M1263.12,170.86c-71.54-28.63-89-30.55-134.71-28.14-2.76.14-4.71-3-4.39-5.64s2.78-3.53,5.53-3.94C1170.26,127,1231.46,147.36,1263.12,170.86Z"/><path class="cls-4" d="M1272.64,166.38c-35-46.34-45.78-54-77.14-68.9-1.89-.9-1.83-3.84-.47-5.61s3.38-1.5,5.38-.8C1230.05,101.47,1261.83,138.16,1272.64,166.38Z"/><path class="cls-4" d="M1280.07,164.21c-3.93-70.43.06-85.89,17.78-123.86,1.07-2.29-1.34-5-4-5.64s-4.38,1.16-5.71,3.36C1268.44,70.53,1267.74,129.36,1280.07,164.21Z"/><path class="cls-4" d="M1315.72,289.76,1311,307.13l-10.76-7.43,8.94,9.7-15.54,8,16.41-5.28-1.3,14,4-13.54,13.51,9.81-11.69-12.09,12.06-6.53-12.93,3.85Z"/><path class="cls-4" d="M1300,64.12l1.08,8.75-7,4.08,8-1.15,4.77,7.47-1.08-8.76,7-4.07-8,1.14Z"/><path class="cls-4" d="M1139.82,220.26l9.47-4.59,6.23,4.86-3.22-7.05,7.17-7.52-9.49,4.6-6.21-4.87,3.21,7.05Z"/><path class="cls-4" d="M1297.28,290.43l-.27-8.6,6.48-3.11-7.18.14-3.62-7.81.26,8.61-6.48,3.1,7.19-.14Z"/><path class="cls-4" d="M1232.09,252.38l3.46-6.73,6.83.13-6.16-2.68.28-7.43L1233,242.4l-6.83-.13,6.15,2.69Z"/><path class="cls-4" d="M1430.47,222.17l-7.36-7,3-7.29-6.07,5.32-9.6-3.9,7.37,7-3,7.28,6.09-5.31Z"/><path class="cls-4" d="M1394,122.07l-8-3.25.08-7.7-3.09,7.18-8.73.4,8,3.25-.09,7.7,3.1-7.18Z"/><path class="cls-4" d="M1364.54,108.13l-7.86,0-3.09-7,.4,7.65-7,3.56,7.86,0,3.08,7-.39-7.64Z"/><path class="cls-4" d="M1288.67,166.1c35.89-49.9,46.81-58.73,78.59-76.95,1.92-1.1,1.89-4,.55-5.63s-3.39-1.11-5.41-.2C1332.4,96.93,1299.92,136.87,1288.67,166.1Z"/><path class="cls-4" d="M1296.69,133.76c14.13-30.19,21.24-37.92,33.85-52,.78-.88-.59-2.65-2.45-3.69s-3.4-.93-4.31-.06C1311.49,89.72,1300.12,113.25,1296.69,133.76Z"/><path class="cls-4" d="M1305.65,175.9c34.31,1.45,44.23,4.95,62.2,11,1.12.37,2.42-1.51,2.84-3.56s-.19-3.38-1.34-3.87C1353.83,172.83,1327,171.38,1305.65,175.9Z"/><path class="cls-4" d="M1304.94,223.86c9.2,31.34,8.81,41.49,8.39,59.78,0,1.14,2.24,1.64,4.4,1.29s3.29-1.37,3.42-2.58C1322.92,266,1316,241.4,1304.94,223.86Z"/><path class="cls-4" d="M1221,245.19c-6,32.38-4.61,42.41-2.36,60.52.14,1.13-2.07,1.94-4.25,1.88s-3.4-.9-3.65-2.09C1207.38,289.55,1211.76,264.13,1221,245.19Z"/><path class="cls-4" d="M1240.31,167.9c-34.34-1-44.67,1.73-63.34,6.45-1.17.29-2.22-1.67-2.36-3.74s.62-3.35,1.83-3.76C1192.76,161.36,1219.69,161.86,1240.31,167.9Z"/><path class="cls-4" d="M1239,108.35C1221.48,80.6,1213.52,74,1199.37,62c-.89-.75.26-2.72,2-4s3.26-1.45,4.26-.73C1219.18,67,1233.22,88.55,1239,108.35Z"/><path class="cls-4" d="M1294.47,169.4c71.43-20.72,88.06-20.75,130.42-13.48,2.56.44,4.88-2.46,5-5.11s-2.05-3.8-4.55-4.5C1388.24,135.89,1327.79,149.5,1294.47,169.4Z"/><path class="cls-4" d="M1264.08,178.86c-55.54,4.79-67.22,9.26-95,25.8-1.68,1-4.07-.41-4.85-2.23s.45-3.21,2-4.38C1189.52,180.73,1235.5,173.92,1264.08,178.86Z"/><path class="cls-4" d="M1269.94,184.44c-55.42,48.24-64.09,62-79.67,100.73-.94,2.34-4.71,2.75-7.12,1.47s-2.29-3.66-1.61-6.1C1191.6,244.49,1235,201.63,1269.94,184.44Z"/><path class="cls-4" d="M1277.18,184.9c-14.32,58.68-12.65,71.78-.67,104.28.72,2-2.08,4.13-4.84,4.54s-4.18-1.17-5.17-3.06C1251.77,262.68,1259.79,213.48,1277.18,184.9Z"/><path class="cls-4" d="M1286.12,185.8c43.74,56,49.21,70.84,55.89,111.35.41,2.45,4,3.44,6.67,2.56s3.06-3.24,2.94-5.74C1349.75,257,1316.6,208.11,1286.12,185.8Z"/><path class="cls-4" d="M1293.2,178.89C1353,194.75,1364,202.41,1387.45,228c1.42,1.55,4.72.22,6.42-1.92s1-4.1-.26-5.84C1375.5,194.48,1327.33,177.81,1293.2,178.89Z"/></g></g><path class="cls-5" d="M1421.81,576.36H320.26V499.25h25v-169h5.14l15.89-18.94,15.89,18.94h5.29v53.28H408.6v84h9.66V344.1h6v-8.84h3.13v-32H432v32h8.55v-5h19.82v5h3.75v8.84h4.1V499.25H574.23V344.5h5L596,327.24l16.76,17.26h4.88v15.92h15.43v61.71h41.25v-27h78v27h30.2v45.41h66.9V303.3h11.47v-16h61.75v16h12.92V537.81l105.55-2-.61-228H1103V285.71h5v34.53h24.63V327h24.94V537.81l72.94.69L1232,365h37.43v33.25h24.77v119h35.16v20.52h92.45ZM218,395.1V576.36L161.58,576V422.13h14.68v67.69H182V422.13h7.43v-6.76Zm-108.8,47.37h3.46v-4.75h12.23v4.75h8.49v10.86h4.1v-6.12h8v6.12h2.55l.61,127.45-88.81-1.33-.61-62.16H97.18v-64h5.66V442.47h3.43v-16.8h2.92Zm1284.86-58.9h4.43v148.3h-37.43V383.57h7.72v-7.22h25.28ZM982.47,348.79h35.29V372h12.34V530.27H982.47Z"/><rect class="cls-6" x="1300.44" y="279.33" width="31.97" height="15.82"/><rect class="cls-7" x="1285.66" y="279.33" width="14.78" height="15.82"/><rect class="cls-6" x="1297.77" y="293.85" width="42.86" height="285.03"/><rect class="cls-7" x="1278.33" y="293.85" width="19.45" height="285.03"/><rect class="cls-7" x="1303.08" y="302.44" width="4.74" height="3.39"/><rect class="cls-7" x="1310.66" y="302.44" width="4.74" height="3.39"/><rect class="cls-7" x="1333.24" y="309.93" width="4.74" height="3.39"/><rect class="cls-7" x="1333.24" y="315.67" width="4.74" height="3.39"/><rect class="cls-7" x="1303.08" y="327.88" width="4.74" height="3.39"/><rect class="cls-7" x="1316.83" y="338.24" width="4.74" height="3.39"/><rect class="cls-7" x="1333.24" y="389.41" width="4.74" height="3.39"/><rect class="cls-7" x="1321.57" y="389.41" width="4.74" height="3.39"/><rect class="cls-7" x="1303.08" y="416.82" width="4.74" height="3.39"/><rect class="cls-7" x="1333.24" y="416.82" width="4.74" height="3.39"/><rect class="cls-8" x="726.23" y="298.15" width="68.41" height="251.22"/><rect class="cls-7" x="755.58" y="325.09" width="20.92" height="4.6"/><rect class="cls-7" x="788.2" y="301.81" width="4.26" height="4.6"/><rect class="cls-7" x="734.71" y="316.36" width="4.26" height="4.6"/><rect class="cls-7" x="779.91" y="325.09" width="4.26" height="4.6"/><rect class="cls-7" x="766.05" y="360.98" width="28.59" height="4.6"/><rect class="cls-7" x="742.24" y="325.09" width="4.15" height="4.6"/><rect class="cls-9" x="1334.24" y="375.16" width="14.22" height="15.89"/><rect class="cls-8" x="1317.41" y="375.16" width="16.83" height="15.89"/><rect class="cls-9" x="1330.52" y="388.67" width="22.33" height="189.18"/><rect class="cls-8" x="1311.27" y="388.67" width="19.25" height="189.18"/><rect class="cls-8" x="1349.21" y="401.53" width="13.16" height="11.7"/><rect class="cls-9" x="1362.36" y="401.53" width="11.12" height="11.7"/><rect class="cls-9" x="1359.46" y="412.1" width="17.46" height="147.92"/><rect class="cls-8" x="1344.41" y="412.1" width="15.05" height="147.92"/><rect class="cls-6" x="455.51" y="373.51" width="40.39" height="134.17"/><rect class="cls-7" x="437.19" y="373.51" width="18.33" height="134.17"/><rect class="cls-6" x="706.92" y="358.41" width="46.78" height="211.61"/><rect class="cls-7" x="685.7" y="358.41" width="21.23" height="211.61"/><path class="cls-2" d="M224.72,314l65.65,0L242,325.52S224.72,313.67,224.72,314Z"/><path class="cls-10" d="M290.37,314l-48.52,11.14V580.7h48.52Z"/><path class="cls-11" d="M241.85,325.14,225,314V580.7h16.87Z"/><rect class="cls-12" x="236.53" y="330.55" width="3.6" height="3.6"/><rect class="cls-12" x="231.04" y="336.72" width="3.6" height="3.6"/><rect class="cls-13" x="243.66" y="330.55" width="3.6" height="3.6"/><rect class="cls-13" x="250.8" y="330.55" width="3.6" height="3.6"/><rect class="cls-13" x="284.6" y="359.23" width="3.6" height="3.6"/><rect class="cls-13" x="276.88" y="359.23" width="3.6" height="3.6"/><rect class="cls-13" x="257.93" y="330.55" width="3.6" height="3.6"/><path class="cls-2" d="M290.39,323.23v5.08L242,372.52v-5.15S290.6,323.34,290.39,323.23Z"/><path class="cls-2" d="M290.34,417v-5.08L242,367.71v5.14S290.56,416.88,290.34,417Z"/><path class="cls-14" d="M225,339.22v5.08l16.87,27.87V367S224.79,339.32,225,339.22Z"/><path class="cls-14" d="M224.6,389.36v-5.08l17.32-16.93v5.15S224.38,389.26,224.6,389.36Z"/><rect class="cls-8" x="539.66" y="358.2" width="56.68" height="208.14"/><rect class="cls-7" x="570.06" y="394.76" width="17.33" height="3.82"/><rect class="cls-7" x="564.47" y="367.89" width="3.53" height="3.82"/><rect class="cls-7" x="570.06" y="367.89" width="3.53" height="3.82"/><rect class="cls-7" x="584.14" y="380.52" width="3.53" height="3.82"/><rect class="cls-7" x="539.66" y="373.89" width="23.68" height="3.81"/><rect class="cls-7" x="559.91" y="394.77" width="3.44" height="3.82"/><rect class="cls-7" x="603.64" y="386.36" width="55.35" height="209.82"/><rect class="cls-7" x="612.06" y="382.23" width="40.88" height="4.12"/><rect class="cls-6" x="603.64" y="398.17" width="55.35" height="8.96"/><rect class="cls-6" x="603.64" y="433.07" width="55.35" height="8.96"/><rect class="cls-6" x="603.64" y="467.97" width="55.35" height="8.96"/><rect class="cls-6" x="1423.17" y="413.56" width="18.76" height="4.07"/><rect class="cls-7" x="1394.75" y="413.56" width="28.43" height="4"/><rect class="cls-7" x="1388.06" y="416.84" width="43.94" height="166.58"/><rect class="cls-6" x="1427.2" y="416.84" width="20.1" height="166.58"/><rect class="cls-6" x="1388.06" y="426.22" width="39.14" height="7.12"/><rect class="cls-15" x="1427.2" y="426.22" width="20.1" height="7.12"/><rect class="cls-6" x="1388.06" y="453.93" width="43.94" height="7.12"/><rect class="cls-6" x="1388.06" y="481.63" width="43.94" height="7.12"/><rect class="cls-15" x="1427.2" y="453.92" width="20.1" height="7.12"/><rect class="cls-9" x="213.16" y="458.78" width="13.93" height="11.27"/><rect class="cls-8" x="196.68" y="458.78" width="16.48" height="11.27"/><rect class="cls-9" x="209.52" y="468.46" width="21.87" height="135.54"/><rect class="cls-8" x="190.66" y="468.46" width="18.86" height="135.54"/><rect class="cls-8" x="130.39" y="487.14" width="20.2" height="114.28"/><rect class="cls-8" x="137.02" y="476" width="17.05" height="14.32"/><rect class="cls-9" x="154.06" y="476" width="17.47" height="14.32"/><rect class="cls-9" x="150.59" y="487.14" width="27.47" height="114.28"/><path class="cls-2" d="M1191.17,462.65h3.19v-25h4.22v25h12.15V598.1l-91.3,1.28V473h40.41v48.14H1178V462.65h6.56v-4.14h4.91v-20.9h1.71Zm-238.94,0h11.84v58.44H997l-1.16,78.53-122.27.58-1.17-71.29h17V492.08h28.83V437.61h34ZM37.81,477.15h2.06v-14.5h2.77v14.5H55.26v19.46H69.91v-4.53h5.92v4.53h4.29v46.63H90.59v-7.08h3.06v-6.07h9.87v6.07H125v7.08h21.74l-.16,59.87L0,603.52l.05-34.08H18.12l.12-26.2H30V477.15h4.92v-14.5h2.88Zm1400.4,118-198.52,1-.39-93.63h29.24V423l38.83,26.48V521.6h6.3V459.15h22.19V475.4h11.48v46.2h15.6v-25h21.33v-8.86h16.3v8.86h5v49.28h32.61v12.23l61.79-.27v37Z"/><rect class="cls-9" x="1204.88" y="205.16" width="51.94" height="355.86"/><rect class="cls-9" x="1204.88" y="185.1" width="38.41" height="20.06"/><rect class="cls-16" x="1155.66" y="185.1" width="49.22" height="20.06"/><rect class="cls-16" x="1143.55" y="205.16" width="61.33" height="355.86"/><rect class="cls-13" x="1148.68" y="211.67" width="8.25" height="6.1"/><rect class="cls-13" x="1159.96" y="211.67" width="8.25" height="6.1"/><rect class="cls-13" x="1171.23" y="211.67" width="8.25" height="6.1"/><rect class="cls-13" x="1171.23" y="219.88" width="8.25" height="6.1"/><rect class="cls-13" x="1159.96" y="219.88" width="8.25" height="6.1"/><rect class="cls-13" x="1171.23" y="242" width="8.25" height="6.1"/><rect class="cls-13" x="1182.46" y="242" width="8.25" height="6.1"/><rect class="cls-13" x="1193.68" y="250.84" width="8.25" height="6.1"/><rect class="cls-13" x="1171.23" y="275.25" width="8.25" height="6.1"/><rect class="cls-13" x="1171.23" y="284.07" width="8.25" height="6.1"/><rect class="cls-13" x="1148.68" y="310.08" width="8.25" height="6.1"/><rect class="cls-13" x="1159.96" y="310.08" width="8.25" height="6.1"/><rect class="cls-13" x="1182.46" y="322.4" width="8.25" height="6.1"/><rect class="cls-13" x="1148.68" y="383.09" width="8.25" height="6.1"/><rect class="cls-13" x="1182.46" y="383.09" width="8.25" height="6.1"/><rect class="cls-13" x="1193.68" y="383.09" width="8.25" height="6.1"/><rect class="cls-13" x="1193.68" y="392.14" width="8.25" height="6.1"/><rect class="cls-13" x="1193.68" y="242" width="8.25" height="6.1"/><rect class="cls-17" x="529.9" y="321.83" width="35.67" height="238.88"/><rect class="cls-18" x="483.37" y="321.83" width="46.53" height="238.88"/><rect class="cls-9" x="486.7" y="341.87" width="39.68" height="7.01"/><rect class="cls-19" x="536.19" y="341.87" width="25.59" height="7.01"/><rect class="cls-9" x="486.7" y="355.62" width="39.68" height="7.01"/><rect class="cls-19" x="536.19" y="355.62" width="25.59" height="7.01"/><rect class="cls-9" x="486.7" y="369.6" width="39.68" height="7.01"/><rect class="cls-19" x="536.19" y="369.6" width="25.59" height="7.01"/><rect class="cls-9" x="486.7" y="383.11" width="39.68" height="7.01"/><rect class="cls-19" x="536.19" y="383.11" width="25.59" height="7.01"/><rect class="cls-9" x="486.7" y="397.09" width="39.68" height="7.01"/><rect class="cls-19" x="536.19" y="397.09" width="25.59" height="7.01"/><rect class="cls-9" x="486.7" y="410.35" width="39.68" height="7.01"/><rect class="cls-19" x="536.19" y="410.35" width="25.59" height="7.01"/><rect class="cls-9" x="486.7" y="423.86" width="39.68" height="7.01"/><rect class="cls-19" x="536.19" y="423.86" width="25.59" height="7.01"/><rect class="cls-9" x="486.7" y="437.76" width="39.68" height="7.01"/><rect class="cls-19" x="536.19" y="437.76" width="25.59" height="7.01"/><rect class="cls-9" x="486.7" y="451.19" width="39.68" height="7.01"/><rect class="cls-19" x="536.19" y="451.19" width="25.59" height="7.01"/><rect class="cls-9" x="486.7" y="464.62" width="39.68" height="7.01"/><rect class="cls-19" x="536.19" y="464.62" width="25.59" height="7.01"/><rect class="cls-9" x="486.7" y="478.25" width="39.68" height="7.01"/><rect class="cls-19" x="536.19" y="478.25" width="25.59" height="7.01"/><rect class="cls-9" x="486.7" y="491.88" width="39.68" height="7.01"/><rect class="cls-19" x="536.19" y="491.88" width="25.59" height="7.01"/><rect class="cls-9" x="486.7" y="505.71" width="39.68" height="7.01"/><rect class="cls-19" x="536.19" y="505.71" width="25.59" height="7.01"/><rect class="cls-20" x="953.59" y="137.46" width="69.47" height="214.6"/><rect class="cls-21" x="1020.58" y="111.13" width="89.78" height="222.89"/><rect class="cls-21" x="1020.25" y="334.02" width="92.74" height="71.6"/><rect class="cls-20" x="894.35" y="334.02" width="125.9" height="71.6"/><rect class="cls-21" x="1020.58" y="405.62" width="131.67" height="155.42"/><rect class="cls-20" x="894.34" y="405.62" width="126.24" height="123.05"/><path class="cls-22" d="M1110,105.39h-89.78V62.13Z"/><rect class="cls-20" x="975.48" y="25.13" width="7.76" height="83.59"/><path class="cls-23" d="M979.37,18.64,986,25.13l-6.66,6.49-6.66-6.49Z"/><rect class="cls-24" x="972.71" y="38.44" width="13.32" height="3.91"/><rect class="cls-24" x="972.71" y="47.35" width="13.32" height="3.91"/><rect class="cls-24" x="972.71" y="56.63" width="13.32" height="3.91"/><rect class="cls-20" x="966.05" y="105.39" width="54.2" height="28.88"/><rect class="cls-25" x="893.87" y="405.62" width="258.39" height="13.25"/><rect class="cls-25" x="894.35" y="334.02" width="218.65" height="12.51"/><rect class="cls-26" x="953.25" y="131.12" width="66.99" height="6.34"/><rect class="cls-26" x="1020.25" y="105.41" width="90.12" height="5.72"/><rect class="cls-18" x="953.56" y="180.06" width="156.9" height="7.21"/><rect class="cls-18" x="953.56" y="165.67" width="156.9" height="7.21"/><rect class="cls-18" x="953.56" y="151.27" width="156.9" height="7.21"/><rect class="cls-18" x="953.56" y="223.26" width="156.9" height="7.21"/><rect class="cls-18" x="953.56" y="208.86" width="156.9" height="7.21"/><rect class="cls-18" x="953.56" y="194.46" width="156.9" height="7.21"/><rect class="cls-18" x="953.56" y="266.45" width="156.9" height="7.21"/><rect class="cls-18" x="953.56" y="252.05" width="156.9" height="7.21"/><rect class="cls-18" x="953.56" y="237.65" width="156.9" height="7.21"/><rect class="cls-13" x="976.46" y="151.35" width="8.9" height="7.05"/><rect class="cls-13" x="991.78" y="151.35" width="8.9" height="7.05"/><rect class="cls-13" x="1008.35" y="165.69" width="8.9" height="7.05"/><rect class="cls-13" x="976.46" y="194.61" width="8.9" height="7.05"/><rect class="cls-13" x="962.8" y="194.61" width="8.9" height="7.05"/><rect class="cls-13" x="1073.01" y="223.28" width="8.9" height="7.05"/><rect class="cls-13" x="1087.04" y="223.28" width="8.9" height="7.05"/><rect class="cls-13" x="1048.14" y="252.11" width="8.9" height="7.05"/><rect class="cls-18" x="894.68" y="373.42" width="218.32" height="5.9"/><rect class="cls-18" x="894.68" y="361.95" width="218.32" height="5.9"/><rect class="cls-18" x="894.68" y="396.34" width="218.32" height="5.9"/><rect class="cls-18" x="894.68" y="384.88" width="218.32" height="5.9"/><rect class="cls-18" x="894.68" y="350.49" width="218.32" height="5.9"/><rect class="cls-18" x="894.92" y="445.21" width="257.4" height="5.7"/><rect class="cls-18" x="894.92" y="433.78" width="257.4" height="5.7"/><rect class="cls-18" x="894.92" y="422.35" width="257.4" height="5.7"/><rect class="cls-18" x="894.92" y="479.5" width="257.4" height="5.7"/><rect class="cls-18" x="894.92" y="468.07" width="257.4" height="5.7"/><rect class="cls-18" x="894.92" y="456.64" width="257.4" height="5.7"/><rect class="cls-18" x="894.92" y="513.79" width="257.4" height="5.7"/><rect class="cls-18" x="894.92" y="502.36" width="257.4" height="5.7"/><rect class="cls-18" x="894.92" y="490.93" width="257.4" height="5.7"/><rect class="cls-13" x="1081.91" y="361.97" width="7.88" height="5.71"/><rect class="cls-13" x="1065.14" y="373.38" width="7.88" height="5.71"/><rect class="cls-13" x="1000.68" y="350.94" width="7.88" height="5.71"/><rect class="cls-13" x="1139.44" y="433.82" width="7.88" height="5.58"/><rect class="cls-13" x="1127.66" y="433.82" width="7.88" height="5.58"/><rect class="cls-13" x="1089.79" y="468.2" width="7.88" height="5.58"/><rect class="cls-27" x="743.54" y="396.82" width="97.07" height="202.42"/><rect class="cls-28" x="797.19" y="441.11" width="10.88" height="6.33"/><rect class="cls-28" x="810.75" y="441.11" width="10.88" height="6.33"/><rect class="cls-28" x="824.44" y="441.11" width="10.88" height="6.33"/><rect class="cls-28" x="824.44" y="409.18" width="10.88" height="6.33"/><rect class="cls-28" x="748.5" y="431.91" width="10.88" height="6.33"/><rect class="cls-28" x="762.53" y="431.91" width="10.88" height="6.33"/><rect class="cls-28" x="762.62" y="474.33" width="10.88" height="6.33"/><rect class="cls-28" x="748.5" y="474.33" width="10.88" height="6.33"/><rect class="cls-28" x="790.21" y="474.33" width="10.88" height="6.33"/><rect class="cls-28" x="776.65" y="474.33" width="10.88" height="6.33"/><rect class="cls-27" x="764.79" y="381.54" width="59.65" height="15.28"/><rect class="cls-29" x="824.43" y="381.54" width="41.54" height="15.28"/><rect class="cls-29" x="840.61" y="396.82" width="42.68" height="202.42"/><rect class="cls-30" x="851.4" y="409.18" width="10.88" height="6.33"/><rect class="cls-30" x="865.43" y="409.18" width="10.88" height="6.33"/><rect class="cls-30" x="865.43" y="474.33" width="10.88" height="6.33"/><rect class="cls-27" x="1101.17" y="366.9" width="97.07" height="202.42"/><rect class="cls-28" x="1154.82" y="411.19" width="10.88" height="6.33"/><rect class="cls-28" x="1168.39" y="411.19" width="10.88" height="6.33"/><rect class="cls-28" x="1182.07" y="411.19" width="10.88" height="6.33"/><rect class="cls-28" x="1182.07" y="379.26" width="10.88" height="6.33"/><rect class="cls-28" x="1106.14" y="401.99" width="10.88" height="6.33"/><rect class="cls-28" x="1120.16" y="401.99" width="10.88" height="6.33"/><rect class="cls-28" x="1120.25" y="444.42" width="10.88" height="6.33"/><rect class="cls-28" x="1106.14" y="444.42" width="10.88" height="6.33"/><rect class="cls-28" x="1147.85" y="444.42" width="10.88" height="6.33"/><rect class="cls-28" x="1134.28" y="444.42" width="10.88" height="6.33"/><rect class="cls-27" x="1122.42" y="351.63" width="59.65" height="15.28"/><rect class="cls-29" x="1182.07" y="351.62" width="41.54" height="15.28"/><rect class="cls-29" x="1198.24" y="366.9" width="42.68" height="202.42"/><rect class="cls-30" x="1209.03" y="379.26" width="10.88" height="6.33"/><rect class="cls-30" x="1223.06" y="379.26" width="10.88" height="6.33"/><rect class="cls-30" x="1223.06" y="444.42" width="10.88" height="6.33"/><rect class="cls-18" x="732.68" y="464.11" width="49.25" height="134.6"/><rect class="cls-31" x="564.73" y="464.11" width="167.95" height="134.6"/><rect class="cls-32" x="568.39" y="473.7" width="9.53" height="6.73"/><rect class="cls-32" x="582.09" y="473.7" width="9.53" height="6.73"/><rect class="cls-32" x="595.79" y="473.7" width="9.53" height="6.73"/><rect class="cls-31" x="609.49" y="473.7" width="9.53" height="6.73"/><rect class="cls-32" x="623.2" y="473.7" width="9.53" height="6.73"/><rect class="cls-32" x="636.9" y="473.7" width="9.53" height="6.73"/><rect class="cls-32" x="650.6" y="473.7" width="9.53" height="6.73"/><rect class="cls-31" x="664.3" y="473.7" width="9.53" height="6.73"/><rect class="cls-31" x="678" y="473.7" width="9.53" height="6.73"/><rect class="cls-32" x="691.7" y="473.7" width="9.53" height="6.73"/><rect class="cls-32" x="705.41" y="473.7" width="9.53" height="6.73"/><rect class="cls-32" x="719.11" y="473.7" width="9.53" height="6.73"/><rect class="cls-32" x="568.58" y="483.53" width="9.53" height="6.73"/><rect class="cls-32" x="582.29" y="483.53" width="9.53" height="6.73"/><rect class="cls-32" x="595.99" y="483.53" width="9.53" height="6.73"/><rect class="cls-32" x="609.69" y="483.53" width="9.53" height="6.73"/><rect class="cls-32" x="623.39" y="483.53" width="9.53" height="6.73"/><rect class="cls-32" x="637.09" y="483.53" width="9.53" height="6.73"/><rect class="cls-32" x="650.79" y="483.53" width="9.53" height="6.73"/><rect class="cls-32" x="664.49" y="483.53" width="9.53" height="6.73"/><rect class="cls-32" x="678.2" y="483.53" width="9.53" height="6.73"/><rect class="cls-32" x="691.9" y="483.53" width="9.53" height="6.73"/><rect class="cls-31" x="705.6" y="483.53" width="9.53" height="6.73"/><rect class="cls-32" x="719.3" y="483.53" width="9.53" height="6.73"/><rect class="cls-32" x="568.58" y="492.79" width="9.53" height="6.73"/><rect class="cls-32" x="582.29" y="492.79" width="9.53" height="6.73"/><rect class="cls-31" x="595.99" y="492.79" width="9.53" height="6.73"/><rect class="cls-31" x="609.69" y="492.79" width="9.53" height="6.73"/><rect class="cls-32" x="623.39" y="492.79" width="9.53" height="6.73"/><rect class="cls-31" x="637.09" y="492.79" width="9.53" height="6.73"/><rect class="cls-32" x="650.79" y="492.79" width="9.53" height="6.73"/><rect class="cls-31" x="664.49" y="492.79" width="9.53" height="6.73"/><rect class="cls-32" x="678.2" y="492.79" width="9.53" height="6.73"/><rect class="cls-32" x="691.9" y="492.79" width="9.53" height="6.73"/><rect class="cls-32" x="705.6" y="492.79" width="9.53" height="6.73"/><rect class="cls-32" x="719.3" y="492.79" width="9.53" height="6.73"/><rect class="cls-31" x="568.58" y="501.81" width="9.53" height="6.73"/><rect class="cls-31" x="582.29" y="501.81" width="9.53" height="6.73"/><rect class="cls-32" x="595.99" y="501.81" width="9.53" height="6.73"/><rect class="cls-32" x="609.69" y="501.81" width="9.53" height="6.73"/><rect class="cls-32" x="623.39" y="501.81" width="9.53" height="6.73"/><rect class="cls-32" x="637.09" y="501.81" width="9.53" height="6.73"/><rect class="cls-32" x="650.79" y="501.81" width="9.53" height="6.73"/><rect class="cls-31" x="664.49" y="501.81" width="9.53" height="6.73"/><rect class="cls-32" x="678.2" y="501.81" width="9.53" height="6.73"/><rect class="cls-32" x="691.9" y="501.81" width="9.53" height="6.73"/><rect class="cls-32" x="705.6" y="501.81" width="9.53" height="6.73"/><rect class="cls-32" x="719.3" y="501.81" width="9.53" height="6.73"/><rect class="cls-32" x="568.58" y="510.83" width="9.53" height="6.73"/><rect class="cls-32" x="582.29" y="510.83" width="9.53" height="6.73"/><rect class="cls-32" x="595.99" y="510.83" width="9.53" height="6.73"/><rect class="cls-32" x="609.69" y="510.83" width="9.53" height="6.73"/><rect class="cls-32" x="623.39" y="510.83" width="9.53" height="6.73"/><rect class="cls-31" x="637.09" y="510.83" width="9.53" height="6.73"/><rect class="cls-32" x="650.79" y="510.83" width="9.53" height="6.73"/><rect class="cls-32" x="664.49" y="510.83" width="9.53" height="6.73"/><rect class="cls-32" x="678.2" y="510.83" width="9.53" height="6.73"/><rect class="cls-32" x="691.9" y="510.83" width="9.53" height="6.73"/><rect class="cls-32" x="705.6" y="510.83" width="9.53" height="6.73"/><rect class="cls-32" x="719.3" y="510.83" width="9.53" height="6.73"/><rect class="cls-32" x="568.58" y="520.09" width="9.53" height="6.73"/><rect class="cls-31" x="582.29" y="520.09" width="9.53" height="6.73"/><rect class="cls-31" x="595.99" y="520.09" width="9.53" height="6.73"/><rect class="cls-32" x="609.69" y="520.09" width="9.53" height="6.73"/><rect class="cls-32" x="623.39" y="520.09" width="9.53" height="6.73"/><rect class="cls-32" x="637.09" y="520.09" width="9.53" height="6.73"/><rect class="cls-32" x="650.79" y="520.09" width="9.53" height="6.73"/><rect class="cls-32" x="664.49" y="520.09" width="9.53" height="6.73"/><rect class="cls-32" x="678.2" y="520.09" width="9.53" height="6.73"/><rect class="cls-32" x="691.9" y="520.09" width="9.53" height="6.73"/><rect class="cls-32" x="705.6" y="520.09" width="9.53" height="6.73"/><rect class="cls-32" x="719.3" y="520.09" width="9.53" height="6.73"/><rect class="cls-32" x="568.58" y="529.6" width="9.53" height="6.73"/><rect class="cls-32" x="582.29" y="529.6" width="9.53" height="6.73"/><rect class="cls-32" x="595.99" y="529.6" width="9.53" height="6.73"/><rect class="cls-32" x="609.69" y="529.6" width="9.53" height="6.73"/><rect class="cls-32" x="623.39" y="529.6" width="9.53" height="6.73"/><rect class="cls-32" x="637.09" y="529.6" width="9.53" height="6.73"/><rect class="cls-32" x="650.79" y="529.6" width="9.53" height="6.73"/><rect class="cls-32" x="664.49" y="529.6" width="9.53" height="6.73"/><rect class="cls-32" x="678.2" y="529.6" width="9.53" height="6.73"/><rect class="cls-32" x="691.9" y="529.6" width="9.53" height="6.73"/><rect class="cls-32" x="705.6" y="529.6" width="9.53" height="6.73"/><rect class="cls-32" x="719.3" y="529.6" width="9.53" height="6.73"/><rect class="cls-32" x="568.58" y="539.11" width="9.53" height="6.73"/><rect class="cls-32" x="582.29" y="539.11" width="9.53" height="6.73"/><rect class="cls-32" x="595.99" y="539.11" width="9.53" height="6.73"/><rect class="cls-32" x="609.69" y="539.11" width="9.53" height="6.73"/><rect class="cls-32" x="623.39" y="539.11" width="9.53" height="6.73"/><rect class="cls-32" x="637.09" y="539.11" width="9.53" height="6.73"/><rect class="cls-32" x="650.79" y="539.11" width="9.53" height="6.73"/><rect class="cls-32" x="664.49" y="539.11" width="9.53" height="6.73"/><rect class="cls-32" x="678.2" y="539.11" width="9.53" height="6.73"/><rect class="cls-32" x="691.9" y="539.11" width="9.53" height="6.73"/><rect class="cls-32" x="705.6" y="539.11" width="9.53" height="6.73"/><rect class="cls-32" x="719.3" y="539.11" width="9.53" height="6.73"/><rect class="cls-32" x="568.58" y="548.69" width="9.53" height="6.73"/><rect class="cls-32" x="582.29" y="548.69" width="9.53" height="6.73"/><rect class="cls-32" x="595.99" y="548.69" width="9.53" height="6.73"/><rect class="cls-32" x="609.69" y="548.69" width="9.53" height="6.73"/><rect class="cls-32" x="623.39" y="548.69" width="9.53" height="6.73"/><rect class="cls-32" x="637.09" y="548.69" width="9.53" height="6.73"/><rect class="cls-32" x="650.79" y="548.69" width="9.53" height="6.73"/><rect class="cls-32" x="664.49" y="548.69" width="9.53" height="6.73"/><rect class="cls-32" x="678.2" y="548.69" width="9.53" height="6.73"/><rect class="cls-32" x="691.9" y="548.69" width="9.53" height="6.73"/><rect class="cls-32" x="705.6" y="548.69" width="9.53" height="6.73"/><rect class="cls-32" x="719.3" y="548.69" width="9.53" height="6.73"/><rect class="cls-32" x="568.58" y="558.1" width="9.53" height="6.73"/><rect class="cls-32" x="582.29" y="558.1" width="9.53" height="6.73"/><rect class="cls-32" x="595.99" y="558.1" width="9.53" height="6.73"/><rect class="cls-32" x="609.69" y="558.1" width="9.53" height="6.73"/><rect class="cls-32" x="623.39" y="558.1" width="9.53" height="6.73"/><rect class="cls-32" x="637.09" y="558.1" width="9.53" height="6.73"/><rect class="cls-32" x="650.79" y="558.1" width="9.53" height="6.73"/><rect class="cls-32" x="664.49" y="558.1" width="9.53" height="6.73"/><rect class="cls-32" x="678.2" y="558.1" width="9.53" height="6.73"/><rect class="cls-32" x="691.9" y="558.1" width="9.53" height="6.73"/><rect class="cls-32" x="705.6" y="558.1" width="9.53" height="6.73"/><rect class="cls-32" x="719.3" y="558.1" width="9.53" height="6.73"/><rect class="cls-32" x="568.58" y="567.83" width="9.53" height="6.73"/><rect class="cls-32" x="582.29" y="567.83" width="9.53" height="6.73"/><rect class="cls-32" x="595.99" y="567.83" width="9.53" height="6.73"/><rect class="cls-32" x="609.69" y="567.83" width="9.53" height="6.73"/><rect class="cls-32" x="623.39" y="567.83" width="9.53" height="6.73"/><rect class="cls-32" x="637.09" y="567.83" width="9.53" height="6.73"/><rect class="cls-32" x="650.79" y="567.83" width="9.53" height="6.73"/><rect class="cls-32" x="664.49" y="567.83" width="9.53" height="6.73"/><rect class="cls-32" x="678.2" y="567.83" width="9.53" height="6.73"/><rect class="cls-32" x="691.9" y="567.83" width="9.53" height="6.73"/><rect class="cls-32" x="705.6" y="567.83" width="9.53" height="6.73"/><rect class="cls-32" x="719.3" y="567.83" width="9.53" height="6.73"/><rect class="cls-32" x="568.58" y="576.94" width="9.53" height="6.73"/><rect class="cls-32" x="582.29" y="576.94" width="9.53" height="6.73"/><rect class="cls-32" x="595.99" y="576.94" width="9.53" height="6.73"/><rect class="cls-32" x="609.69" y="576.94" width="9.53" height="6.73"/><rect class="cls-32" x="623.39" y="576.94" width="9.53" height="6.73"/><rect class="cls-32" x="637.09" y="576.94" width="9.53" height="6.73"/><rect class="cls-32" x="650.79" y="576.94" width="9.53" height="6.73"/><rect class="cls-32" x="664.49" y="576.94" width="9.53" height="6.73"/><rect class="cls-32" x="678.2" y="576.94" width="9.53" height="6.73"/><rect class="cls-32" x="691.9" y="576.94" width="9.53" height="6.73"/><rect class="cls-32" x="705.6" y="576.94" width="9.53" height="6.73"/><rect class="cls-32" x="719.3" y="576.94" width="9.53" height="6.73"/><rect class="cls-31" x="586.81" y="440.48" width="137.06" height="23.63"/><rect class="cls-18" x="723.88" y="440.48" width="43.32" height="23.63"/><rect class="cls-26" x="586.81" y="448.25" width="137.06" height="4.05"/><rect class="cls-33" x="723.88" y="448.25" width="43.32" height="4.05"/><rect class="cls-17" x="479.77" y="406.9" width="31.72" height="190.96"/><rect class="cls-18" x="394.82" y="406.9" width="84.95" height="190.96"/><rect class="cls-13" x="398.41" y="415.46" width="16.33" height="3.69"/><rect class="cls-13" x="417.6" y="498.68" width="16.33" height="3.69"/><rect class="cls-13" x="467.78" y="466.35" width="4.95" height="3.69"/><rect class="cls-13" x="467.78" y="473.85" width="4.95" height="3.69"/><rect class="cls-13" x="459.59" y="473.85" width="4.95" height="3.69"/><rect class="cls-13" x="417.6" y="415.46" width="4.95" height="3.69"/><rect class="cls-13" x="425.4" y="415.46" width="4.95" height="3.69"/><rect class="cls-34" x="394.82" y="406.9" width="84.95" height="4.38"/><rect class="cls-35" x="479.77" y="406.9" width="31.72" height="4.38"/><rect class="cls-34" x="394.82" y="456.71" width="84.95" height="4.38"/><rect class="cls-35" x="479.77" y="456.71" width="31.72" height="4.38"/><rect class="cls-34" x="394.82" y="506.75" width="84.95" height="4.38"/><rect class="cls-35" x="479.77" y="506.75" width="31.72" height="4.38"/><rect class="cls-17" x="1118.55" y="405.7" width="27.35" height="190.96"/><rect class="cls-18" x="1045.3" y="405.7" width="73.25" height="190.96"/><rect class="cls-9" x="1105.64" y="418.27" width="6.18" height="132.74"/><rect class="cls-9" x="1092.24" y="418.27" width="6.18" height="132.74"/><rect class="cls-9" x="1078.84" y="418.27" width="6.18" height="132.74"/><rect class="cls-9" x="1065.43" y="418.27" width="6.18" height="132.74"/><rect class="cls-9" x="1052.03" y="418.27" width="6.18" height="132.74"/><rect class="cls-18" x="1055.45" y="389.91" width="55.67" height="17.98"/><rect class="cls-17" x="1111.13" y="389.91" width="25.58" height="15.79"/><rect class="cls-34" x="1045.3" y="405.7" width="73.25" height="4.38"/><rect class="cls-35" x="1118.55" y="405.7" width="27.35" height="4.38"/><rect class="cls-17" x="348.53" y="387.38" width="27.35" height="190.96"/><rect class="cls-18" x="275.28" y="387.38" width="73.25" height="190.96"/><rect class="cls-28" x="277.98" y="398.26" width="7.17" height="4.63"/><rect class="cls-28" x="288.33" y="398.26" width="7.17" height="4.63"/><rect class="cls-28" x="298.53" y="398.26" width="7.17" height="4.63"/><rect class="cls-28" x="308.4" y="398.26" width="7.17" height="4.63"/><rect class="cls-28" x="318.43" y="398.26" width="7.17" height="4.63"/><rect class="cls-28" x="328.31" y="398.26" width="7.17" height="4.63"/><rect class="cls-28" x="338.67" y="398.26" width="7.17" height="4.63"/><rect class="cls-28" x="277.98" y="405.01" width="7.17" height="4.63"/><rect class="cls-28" x="288.33" y="405.01" width="7.17" height="4.63"/><rect class="cls-28" x="298.53" y="405.01" width="7.17" height="4.63"/><rect class="cls-28" x="308.4" y="405.01" width="7.17" height="4.63"/><rect class="cls-28" x="318.43" y="405.01" width="7.17" height="4.63"/><rect class="cls-28" x="328.31" y="405.01" width="7.17" height="4.63"/><rect class="cls-28" x="338.67" y="405.01" width="7.17" height="4.63"/><rect class="cls-28" x="277.98" y="411.89" width="7.17" height="4.63"/><rect class="cls-28" x="288.33" y="411.89" width="7.17" height="4.63"/><rect class="cls-28" x="298.53" y="411.89" width="7.17" height="4.63"/><rect class="cls-28" x="308.4" y="411.89" width="7.17" height="4.63"/><rect class="cls-28" x="318.43" y="411.89" width="7.17" height="4.63"/><rect class="cls-28" x="328.31" y="411.89" width="7.17" height="4.63"/><rect class="cls-28" x="338.67" y="411.89" width="7.17" height="4.63"/><rect class="cls-28" x="277.98" y="418.77" width="7.17" height="4.63"/><rect class="cls-28" x="288.33" y="418.77" width="7.17" height="4.63"/><rect class="cls-28" x="298.53" y="418.77" width="7.17" height="4.63"/><rect class="cls-28" x="308.4" y="418.77" width="7.17" height="4.63"/><rect class="cls-28" x="318.43" y="418.77" width="7.17" height="4.63"/><rect class="cls-28" x="328.31" y="418.77" width="7.17" height="4.63"/><rect class="cls-28" x="338.67" y="418.77" width="7.17" height="4.63"/><rect class="cls-28" x="277.98" y="426.03" width="7.17" height="4.63"/><rect class="cls-28" x="288.33" y="426.03" width="7.17" height="4.63"/><rect class="cls-28" x="298.53" y="426.03" width="7.17" height="4.63"/><rect class="cls-28" x="308.4" y="426.03" width="7.17" height="4.63"/><rect class="cls-28" x="318.43" y="426.03" width="7.17" height="4.63"/><rect class="cls-28" x="328.31" y="426.03" width="7.17" height="4.63"/><rect class="cls-28" x="338.67" y="426.03" width="7.17" height="4.63"/><rect class="cls-28" x="277.98" y="432.88" width="7.17" height="4.63"/><rect class="cls-28" x="288.33" y="432.88" width="7.17" height="4.63"/><rect class="cls-28" x="298.53" y="432.88" width="7.17" height="4.63"/><rect class="cls-28" x="308.4" y="432.88" width="7.17" height="4.63"/><rect class="cls-28" x="318.43" y="432.88" width="7.17" height="4.63"/><rect class="cls-28" x="328.31" y="432.88" width="7.17" height="4.63"/><rect class="cls-28" x="338.67" y="432.88" width="7.17" height="4.63"/><rect class="cls-28" x="277.98" y="439.57" width="7.17" height="4.63"/><rect class="cls-28" x="288.33" y="439.57" width="7.17" height="4.63"/><rect class="cls-28" x="298.53" y="439.57" width="7.17" height="4.63"/><rect class="cls-28" x="308.4" y="439.57" width="7.17" height="4.63"/><rect class="cls-28" x="318.43" y="439.57" width="7.17" height="4.63"/><rect class="cls-28" x="328.31" y="439.57" width="7.17" height="4.63"/><rect class="cls-28" x="338.67" y="439.57" width="7.17" height="4.63"/><rect class="cls-28" x="277.98" y="446.74" width="7.17" height="4.63"/><rect class="cls-28" x="288.33" y="446.74" width="7.17" height="4.63"/><rect class="cls-28" x="298.53" y="446.74" width="7.17" height="4.63"/><rect class="cls-28" x="308.4" y="446.74" width="7.17" height="4.63"/><rect class="cls-28" x="318.43" y="446.74" width="7.17" height="4.63"/><rect class="cls-28" x="328.31" y="446.74" width="7.17" height="4.63"/><rect class="cls-28" x="338.67" y="446.74" width="7.17" height="4.63"/><rect class="cls-28" x="277.98" y="453.57" width="7.17" height="4.63"/><rect class="cls-28" x="288.33" y="453.57" width="7.17" height="4.63"/><rect class="cls-28" x="298.53" y="453.57" width="7.17" height="4.63"/><rect class="cls-28" x="308.4" y="453.57" width="7.17" height="4.63"/><rect class="cls-28" x="318.43" y="453.57" width="7.17" height="4.63"/><rect class="cls-28" x="328.31" y="453.57" width="7.17" height="4.63"/><rect class="cls-28" x="338.67" y="453.57" width="7.17" height="4.63"/><rect class="cls-28" x="277.98" y="460.19" width="7.17" height="4.63"/><rect class="cls-28" x="288.33" y="460.19" width="7.17" height="4.63"/><rect class="cls-28" x="298.53" y="460.19" width="7.17" height="4.63"/><rect class="cls-28" x="308.4" y="460.19" width="7.17" height="4.63"/><rect class="cls-28" x="318.43" y="460.19" width="7.17" height="4.63"/><rect class="cls-28" x="328.31" y="460.19" width="7.17" height="4.63"/><rect class="cls-28" x="338.67" y="460.19" width="7.17" height="4.63"/><rect class="cls-28" x="277.98" y="466.82" width="7.17" height="4.63"/><rect class="cls-28" x="288.33" y="466.82" width="7.17" height="4.63"/><rect class="cls-28" x="298.53" y="466.82" width="7.17" height="4.63"/><rect class="cls-28" x="308.4" y="466.82" width="7.17" height="4.63"/><rect class="cls-28" x="318.43" y="466.82" width="7.17" height="4.63"/><rect class="cls-28" x="328.31" y="466.82" width="7.17" height="4.63"/><rect class="cls-28" x="338.67" y="466.82" width="7.17" height="4.63"/><rect class="cls-28" x="277.98" y="473.65" width="7.17" height="4.63"/><rect class="cls-28" x="288.33" y="473.65" width="7.17" height="4.63"/><rect class="cls-28" x="298.53" y="473.65" width="7.17" height="4.63"/><rect class="cls-28" x="308.4" y="473.65" width="7.17" height="4.63"/><rect class="cls-28" x="318.43" y="473.65" width="7.17" height="4.63"/><rect class="cls-28" x="328.31" y="473.65" width="7.17" height="4.63"/><rect class="cls-28" x="338.67" y="473.65" width="7.17" height="4.63"/><rect class="cls-28" x="277.98" y="480.55" width="7.17" height="4.63"/><rect class="cls-28" x="288.33" y="480.55" width="7.17" height="4.63"/><rect class="cls-28" x="298.53" y="480.55" width="7.17" height="4.63"/><rect class="cls-28" x="308.4" y="480.55" width="7.17" height="4.63"/><rect class="cls-28" x="318.43" y="480.55" width="7.17" height="4.63"/><rect class="cls-28" x="328.31" y="480.55" width="7.17" height="4.63"/><rect class="cls-28" x="338.67" y="480.55" width="7.17" height="4.63"/><rect class="cls-28" x="277.98" y="487.17" width="7.17" height="4.63"/><rect class="cls-28" x="288.33" y="487.17" width="7.17" height="4.63"/><rect class="cls-28" x="298.53" y="487.17" width="7.17" height="4.63"/><rect class="cls-28" x="308.4" y="487.17" width="7.17" height="4.63"/><rect class="cls-28" x="318.43" y="487.17" width="7.17" height="4.63"/><rect class="cls-28" x="328.31" y="487.17" width="7.17" height="4.63"/><rect class="cls-28" x="338.67" y="487.17" width="7.17" height="4.63"/><rect class="cls-18" x="285.44" y="371.59" width="55.67" height="17.98"/><rect class="cls-17" x="341.11" y="371.59" width="25.58" height="15.79"/><rect class="cls-36" x="275.28" y="387.38" width="73.25" height="4.38"/><rect class="cls-25" x="348.53" y="387.38" width="27.35" height="4.38"/><rect class="cls-17" x="291.15" y="446.07" width="37.78" height="151.62"/><rect class="cls-18" x="241.87" y="446.07" width="49.28" height="151.62"/><rect class="cls-9" x="245.39" y="458.79" width="42.03" height="4.45"/><rect class="cls-19" x="297.81" y="458.79" width="27.11" height="4.45"/><rect class="cls-9" x="245.39" y="467.52" width="42.03" height="4.45"/><rect class="cls-19" x="297.81" y="467.52" width="27.11" height="4.45"/><rect class="cls-9" x="245.39" y="476.39" width="42.03" height="4.45"/><rect class="cls-19" x="297.81" y="476.39" width="27.11" height="4.45"/><rect class="cls-9" x="245.39" y="484.96" width="42.03" height="4.45"/><rect class="cls-19" x="297.81" y="484.96" width="27.11" height="4.45"/><rect class="cls-9" x="245.39" y="493.84" width="42.03" height="4.45"/><rect class="cls-19" x="297.81" y="493.84" width="27.11" height="4.45"/><rect class="cls-9" x="245.39" y="502.26" width="42.03" height="4.45"/><rect class="cls-19" x="297.81" y="502.26" width="27.11" height="4.45"/><rect class="cls-9" x="245.39" y="510.83" width="42.03" height="4.45"/><rect class="cls-19" x="297.81" y="510.83" width="27.11" height="4.45"/><rect class="cls-9" x="245.39" y="519.65" width="42.03" height="4.45"/><rect class="cls-19" x="297.81" y="519.65" width="27.11" height="4.45"/><rect class="cls-9" x="245.39" y="528.18" width="42.03" height="4.45"/><rect class="cls-19" x="297.81" y="528.18" width="27.11" height="4.45"/><rect class="cls-9" x="245.39" y="536.7" width="42.03" height="4.45"/><rect class="cls-19" x="297.81" y="536.7" width="27.11" height="4.45"/><rect class="cls-9" x="245.39" y="545.36" width="42.03" height="4.45"/><rect class="cls-19" x="297.81" y="545.36" width="27.11" height="4.45"/><rect class="cls-9" x="245.39" y="554.01" width="42.03" height="4.45"/><rect class="cls-19" x="297.81" y="554.01" width="27.11" height="4.45"/><rect class="cls-9" x="245.39" y="562.78" width="42.03" height="4.45"/><rect class="cls-19" x="297.81" y="562.78" width="27.11" height="4.45"/><rect class="cls-17" x="1029.14" y="446.07" width="37.78" height="151.62"/><rect class="cls-18" x="979.86" y="446.07" width="49.28" height="151.62"/><rect class="cls-9" x="983.38" y="458.79" width="42.03" height="4.45"/><rect class="cls-19" x="1035.8" y="458.79" width="27.11" height="4.45"/><rect class="cls-9" x="983.38" y="467.52" width="42.03" height="4.45"/><rect class="cls-19" x="1035.8" y="467.52" width="27.11" height="4.45"/><rect class="cls-9" x="983.38" y="476.39" width="42.03" height="4.45"/><rect class="cls-19" x="1035.8" y="476.39" width="27.11" height="4.45"/><rect class="cls-9" x="983.38" y="484.96" width="42.03" height="4.45"/><rect class="cls-19" x="1035.8" y="484.96" width="27.11" height="4.45"/><rect class="cls-9" x="983.38" y="493.84" width="42.03" height="4.45"/><rect class="cls-19" x="1035.8" y="493.84" width="27.11" height="4.45"/><rect class="cls-9" x="983.38" y="502.26" width="42.03" height="4.45"/><rect class="cls-19" x="1035.8" y="502.26" width="27.11" height="4.45"/><rect class="cls-9" x="983.38" y="510.83" width="42.03" height="4.45"/><rect class="cls-19" x="1035.8" y="510.83" width="27.11" height="4.45"/><rect class="cls-9" x="983.38" y="519.65" width="42.03" height="4.45"/><rect class="cls-19" x="1035.8" y="519.65" width="27.11" height="4.45"/><rect class="cls-9" x="983.38" y="528.18" width="42.03" height="4.45"/><rect class="cls-19" x="1035.8" y="528.18" width="27.11" height="4.45"/><rect class="cls-9" x="983.38" y="536.7" width="42.03" height="4.45"/><rect class="cls-19" x="1035.8" y="536.7" width="27.11" height="4.45"/><rect class="cls-9" x="983.38" y="545.36" width="42.03" height="4.45"/><rect class="cls-19" x="1035.8" y="545.36" width="27.11" height="4.45"/><rect class="cls-9" x="983.38" y="554.01" width="42.03" height="4.45"/><rect class="cls-19" x="1035.8" y="554.01" width="27.11" height="4.45"/><rect class="cls-9" x="983.38" y="562.78" width="42.03" height="4.45"/><rect class="cls-19" x="1035.8" y="562.78" width="27.11" height="4.45"/><path class="cls-37" d="M157.38,591.4v3.25H37.92V546.3h85.42V564h15.2V536.56H162.9v-23.3h23.45v23.3h18v-23.3h28.77v23.3h82.42V492.72h75v20.54H409V503h15.14v10.27h5v10.09h57.08v68Zm467-90.2v-8.48h15.39v8.48h26.18v22.15H689.1v33.23H911.67V591.4H689.1v3.25H642.78V591.4H558.36V566.62h55.22V501.2Z"/><rect class="cls-38" x="147.12" y="542.38" width="7.11" height="14.76"/><rect class="cls-38" x="38.05" y="571.23" width="23.23" height="2.73"/><rect class="cls-39" x="695.19" y="506.99" width="34.92" height="84.4"/><rect class="cls-40" x="715.48" y="581.72" width="7.9" height="9.67"/><rect class="cls-40" x="695.19" y="506.99" width="34.92" height="4.71"/><rect class="cls-38" x="699.42" y="517.04" width="5.37" height="9.75"/><rect class="cls-38" x="720.69" y="517.04" width="5.37" height="9.75"/><rect class="cls-38" x="699.42" y="531.98" width="5.37" height="9.75"/><rect class="cls-38" x="720.69" y="531.98" width="5.37" height="9.75"/><rect class="cls-38" x="699.42" y="547.19" width="5.37" height="9.75"/><rect class="cls-38" x="720.69" y="547.19" width="5.37" height="9.75"/><rect class="cls-39" x="738.34" y="506.99" width="34.92" height="84.4"/><rect class="cls-40" x="758.62" y="581.72" width="7.9" height="9.67"/><rect class="cls-40" x="738.34" y="506.99" width="34.92" height="4.71"/><rect class="cls-38" x="742.56" y="517.04" width="5.37" height="9.75"/><rect class="cls-38" x="763.84" y="517.04" width="5.37" height="9.75"/><rect class="cls-38" x="742.56" y="531.98" width="5.37" height="9.75"/><rect class="cls-38" x="763.84" y="531.98" width="5.37" height="9.75"/><rect class="cls-38" x="742.56" y="547.19" width="5.37" height="9.75"/><rect class="cls-38" x="763.84" y="547.19" width="5.37" height="9.75"/><rect class="cls-39" x="399.82" y="506.99" width="34.92" height="84.4"/><rect class="cls-40" x="406.55" y="581.72" width="7.9" height="9.67"/><rect class="cls-40" x="399.82" y="506.99" width="34.92" height="4.71"/><rect class="cls-38" x="425.15" y="517.04" width="5.37" height="9.75"/><rect class="cls-38" x="403.87" y="517.04" width="5.37" height="9.75"/><rect class="cls-38" x="425.15" y="531.98" width="5.37" height="9.75"/><rect class="cls-38" x="403.87" y="531.98" width="5.37" height="9.75"/><rect class="cls-38" x="425.15" y="547.19" width="5.37" height="9.75"/><rect class="cls-38" x="403.87" y="547.19" width="5.37" height="9.75"/><rect class="cls-41" x="252.55" y="504.55" width="28.45" height="86.85"/><rect class="cls-42" x="202.36" y="504.54" width="50.19" height="86.85"/><rect class="cls-38" x="208.96" y="516.44" width="10.93" height="11.27"/><rect class="cls-38" x="230.82" y="516.44" width="21.73" height="11.27"/><rect class="cls-43" x="270.79" y="516.44" width="3.07" height="11.27"/><rect class="cls-42" x="823.12" y="488.59" width="38.91" height="102.81"/><rect class="cls-41" x="862.03" y="488.59" width="18.43" height="102.81"/><rect class="cls-41" x="862.03" y="473.85" width="12.58" height="14.74"/><rect class="cls-42" x="829.69" y="473.85" width="32.34" height="14.74"/><rect class="cls-44" x="825.81" y="498.69" width="9.72" height="6.44"/><rect class="cls-44" x="837.76" y="498.69" width="9.72" height="6.44"/><rect class="cls-44" x="849.62" y="498.69" width="9.72" height="6.44"/><rect class="cls-42" x="867.35" y="498.69" width="9.72" height="6.44"/><rect class="cls-44" x="825.89" y="507.66" width="9.72" height="6.44"/><rect class="cls-44" x="837.83" y="507.66" width="9.72" height="6.44"/><rect class="cls-44" x="849.7" y="507.66" width="9.72" height="6.44"/><rect class="cls-42" x="867.43" y="507.66" width="9.72" height="6.44"/><rect class="cls-44" x="825.74" y="516.58" width="9.72" height="6.44"/><rect class="cls-44" x="837.68" y="516.58" width="9.72" height="6.44"/><rect class="cls-44" x="849.54" y="516.58" width="9.72" height="6.44"/><rect class="cls-42" x="867.27" y="516.58" width="9.72" height="6.44"/><rect class="cls-44" x="825.58" y="525.56" width="9.72" height="6.44"/><rect class="cls-44" x="837.53" y="525.56" width="9.72" height="6.44"/><rect class="cls-44" x="849.39" y="525.56" width="9.72" height="6.44"/><rect class="cls-42" x="867.12" y="525.56" width="9.72" height="6.44"/><rect class="cls-44" x="825.57" y="534.59" width="9.72" height="6.44"/><rect class="cls-44" x="837.51" y="534.59" width="9.72" height="6.44"/><rect class="cls-44" x="849.38" y="534.59" width="9.72" height="6.44"/><rect class="cls-42" x="867.11" y="534.59" width="9.72" height="6.44"/><rect class="cls-44" x="825.57" y="543.59" width="9.72" height="6.44"/><rect class="cls-44" x="837.51" y="543.59" width="9.72" height="6.44"/><rect class="cls-44" x="849.38" y="543.59" width="9.72" height="6.44"/><rect class="cls-42" x="867.11" y="543.59" width="9.72" height="6.44"/><rect class="cls-44" x="825.57" y="552.68" width="9.72" height="6.44"/><rect class="cls-44" x="837.51" y="552.68" width="9.72" height="6.44"/><rect class="cls-44" x="849.38" y="552.68" width="9.72" height="6.44"/><rect class="cls-42" x="867.11" y="552.68" width="9.72" height="6.44"/><rect class="cls-44" x="825.65" y="561.69" width="9.72" height="6.44"/><rect class="cls-44" x="837.6" y="561.69" width="9.72" height="6.44"/><rect class="cls-44" x="849.46" y="561.69" width="9.72" height="6.44"/><rect class="cls-42" x="867.19" y="561.69" width="9.72" height="6.44"/><rect class="cls-44" x="825.74" y="570.77" width="9.72" height="6.44"/><rect class="cls-44" x="837.68" y="570.77" width="9.72" height="6.44"/><rect class="cls-44" x="849.54" y="570.77" width="9.72" height="6.44"/><rect class="cls-42" x="867.27" y="570.77" width="9.72" height="6.44"/><rect class="cls-42" x="756" y="488.59" width="38.91" height="102.81"/><rect class="cls-41" x="794.91" y="488.59" width="18.43" height="102.81"/><rect class="cls-41" x="794.91" y="473.85" width="12.58" height="14.74"/><rect class="cls-42" x="762.57" y="473.85" width="32.34" height="14.74"/><rect class="cls-44" x="758.69" y="498.69" width="9.72" height="6.44"/><rect class="cls-44" x="770.63" y="498.69" width="9.72" height="6.44"/><rect class="cls-44" x="782.5" y="498.69" width="9.72" height="6.44"/><rect class="cls-42" x="800.23" y="498.69" width="9.72" height="6.44"/><rect class="cls-44" x="758.77" y="507.66" width="9.72" height="6.44"/><rect class="cls-44" x="770.71" y="507.66" width="9.72" height="6.44"/><rect class="cls-44" x="782.57" y="507.66" width="9.72" height="6.44"/><rect class="cls-42" x="800.3" y="507.66" width="9.72" height="6.44"/><rect class="cls-44" x="758.61" y="516.58" width="9.72" height="6.44"/><rect class="cls-44" x="770.56" y="516.58" width="9.72" height="6.44"/><rect class="cls-44" x="782.42" y="516.58" width="9.72" height="6.44"/><rect class="cls-42" x="800.15" y="516.58" width="9.72" height="6.44"/><rect class="cls-44" x="758.46" y="525.56" width="9.72" height="6.44"/><rect class="cls-44" x="770.4" y="525.56" width="9.72" height="6.44"/><rect class="cls-44" x="782.27" y="525.56" width="9.72" height="6.44"/><rect class="cls-42" x="800" y="525.56" width="9.72" height="6.44"/><rect class="cls-44" x="758.45" y="534.59" width="9.72" height="6.44"/><rect class="cls-44" x="770.39" y="534.59" width="9.72" height="6.44"/><rect class="cls-44" x="782.26" y="534.59" width="9.72" height="6.44"/><rect class="cls-42" x="799.99" y="534.59" width="9.72" height="6.44"/><rect class="cls-44" x="758.45" y="543.59" width="9.72" height="6.44"/><rect class="cls-44" x="770.39" y="543.59" width="9.72" height="6.44"/><rect class="cls-44" x="782.26" y="543.59" width="9.72" height="6.44"/><rect class="cls-42" x="799.99" y="543.59" width="9.72" height="6.44"/><rect class="cls-44" x="758.45" y="552.68" width="9.72" height="6.44"/><rect class="cls-44" x="770.39" y="552.68" width="9.72" height="6.44"/><rect class="cls-44" x="782.26" y="552.68" width="9.72" height="6.44"/><rect class="cls-42" x="799.99" y="552.68" width="9.72" height="6.44"/><rect class="cls-44" x="758.53" y="561.69" width="9.72" height="6.44"/><rect class="cls-44" x="770.47" y="561.69" width="9.72" height="6.44"/><rect class="cls-44" x="782.34" y="561.69" width="9.72" height="6.44"/><rect class="cls-42" x="800.07" y="561.69" width="9.72" height="6.44"/><rect class="cls-44" x="758.61" y="570.77" width="9.72" height="6.44"/><rect class="cls-44" x="770.56" y="570.77" width="9.72" height="6.44"/><rect class="cls-44" x="782.42" y="570.77" width="9.72" height="6.44"/><rect class="cls-42" x="800.15" y="570.77" width="9.72" height="6.44"/><rect class="cls-42" x="299.35" y="495.09" width="38.91" height="102.81"/><rect class="cls-41" x="338.27" y="495.09" width="18.43" height="102.81"/><rect class="cls-41" x="338.27" y="480.36" width="12.58" height="14.74"/><rect class="cls-42" x="305.93" y="480.36" width="32.34" height="14.74"/><rect class="cls-44" x="302.05" y="505.2" width="9.72" height="6.44"/><rect class="cls-44" x="313.99" y="505.2" width="9.72" height="6.44"/><rect class="cls-44" x="325.85" y="505.2" width="9.72" height="6.44"/><rect class="cls-42" x="343.59" y="505.2" width="9.72" height="6.44"/><rect class="cls-44" x="302.12" y="514.16" width="9.72" height="6.44"/><rect class="cls-44" x="314.07" y="514.16" width="9.72" height="6.44"/><rect class="cls-44" x="325.93" y="514.16" width="9.72" height="6.44"/><rect class="cls-42" x="343.66" y="514.16" width="9.72" height="6.44"/><rect class="cls-44" x="301.97" y="523.08" width="9.72" height="6.44"/><rect class="cls-44" x="313.91" y="523.08" width="9.72" height="6.44"/><rect class="cls-44" x="325.78" y="523.08" width="9.72" height="6.44"/><rect class="cls-42" x="343.51" y="523.08" width="9.72" height="6.44"/><rect class="cls-44" x="301.82" y="532.06" width="9.72" height="6.44"/><rect class="cls-44" x="313.76" y="532.06" width="9.72" height="6.44"/><rect class="cls-44" x="325.62" y="532.06" width="9.72" height="6.44"/><rect class="cls-42" x="343.36" y="532.06" width="9.72" height="6.44"/><rect class="cls-44" x="301.81" y="541.09" width="9.72" height="6.44"/><rect class="cls-44" x="313.75" y="541.09" width="9.72" height="6.44"/><rect class="cls-44" x="325.61" y="541.09" width="9.72" height="6.44"/><rect class="cls-42" x="343.34" y="541.09" width="9.72" height="6.44"/><rect class="cls-44" x="301.81" y="550.1" width="9.72" height="6.44"/><rect class="cls-44" x="313.75" y="550.1" width="9.72" height="6.44"/><rect class="cls-44" x="325.61" y="550.1" width="9.72" height="6.44"/><rect class="cls-42" x="343.34" y="550.1" width="9.72" height="6.44"/><rect class="cls-44" x="301.81" y="559.19" width="9.72" height="6.44"/><rect class="cls-44" x="313.75" y="559.19" width="9.72" height="6.44"/><rect class="cls-44" x="325.61" y="559.19" width="9.72" height="6.44"/><rect class="cls-42" x="343.34" y="559.19" width="9.72" height="6.44"/><rect class="cls-44" x="301.89" y="568.19" width="9.72" height="6.44"/><rect class="cls-44" x="313.83" y="568.19" width="9.72" height="6.44"/><rect class="cls-44" x="325.7" y="568.19" width="9.72" height="6.44"/><rect class="cls-42" x="343.43" y="568.19" width="9.72" height="6.44"/><rect class="cls-44" x="301.97" y="577.28" width="9.72" height="6.44"/><rect class="cls-44" x="313.91" y="577.28" width="9.72" height="6.44"/><rect class="cls-44" x="325.78" y="577.28" width="9.72" height="6.44"/><rect class="cls-42" x="343.51" y="577.28" width="9.72" height="6.44"/><rect class="cls-39" x="424.67" y="547.06" width="163.16" height="47.59"/><rect class="cls-39" x="466.05" y="502.14" width="114.58" height="44.91"/><rect class="cls-40" x="424.67" y="547.06" width="163.16" height="6.66"/><rect class="cls-40" x="466.05" y="502.14" width="114.58" height="6.44"/><rect class="cls-40" x="466.05" y="529.29" width="114.58" height="3.66"/><rect class="cls-38" x="474.73" y="513.78" width="5.39" height="10.82"/><rect class="cls-43" x="487.85" y="513.78" width="5.39" height="10.82"/><rect class="cls-43" x="487.85" y="536.24" width="5.39" height="10.82"/><rect class="cls-43" x="566.55" y="536.24" width="5.39" height="10.82"/><rect class="cls-38" x="500.97" y="513.78" width="5.39" height="10.82"/><rect class="cls-38" x="514.08" y="513.78" width="5.39" height="10.82"/><rect class="cls-43" x="527.2" y="513.78" width="5.39" height="10.82"/><rect class="cls-43" x="540.32" y="513.78" width="5.39" height="10.82"/><rect class="cls-43" x="553.43" y="513.78" width="5.39" height="10.82"/><rect class="cls-38" x="566.55" y="513.78" width="5.39" height="10.82"/><rect class="cls-43" x="437.07" y="568.46" width="50.78" height="26.19"/><rect class="cls-45" x="440.14" y="571.72" width="45.07" height="22.92"/><rect class="cls-43" x="440.14" y="573.06" width="45.07" height="0.82"/><rect class="cls-43" x="440.14" y="575.37" width="45.07" height="0.82"/><rect class="cls-43" x="440.14" y="591.52" width="45.07" height="0.82"/><rect class="cls-43" x="440.14" y="593.83" width="45.07" height="0.82"/><rect class="cls-43" x="440.14" y="577.68" width="45.07" height="0.82"/><rect class="cls-43" x="440.14" y="579.99" width="45.07" height="0.82"/><rect class="cls-43" x="440.14" y="582.29" width="45.07" height="0.82"/><rect class="cls-43" x="440.14" y="584.6" width="45.07" height="0.82"/><rect class="cls-43" x="440.14" y="586.91" width="45.07" height="0.82"/><rect class="cls-43" x="440.14" y="589.22" width="45.07" height="0.82"/><rect class="cls-41" x="952.32" y="543.87" width="87.12" height="47.52"/><rect class="cls-41" x="989.94" y="508.23" width="98.34" height="83.16"/><rect class="cls-41" x="1072.44" y="527.37" width="107.58" height="64.02"/><rect class="cls-41" x="1053.3" y="484.04" width="24.42" height="24.19"/><rect class="cls-41" x="1016.34" y="496.14" width="23.1" height="12.09"/><rect class="cls-42" x="1072.44" y="565.21" width="50.78" height="26.19"/><rect class="cls-46" x="1075.51" y="568.47" width="45.07" height="22.92"/><rect class="cls-42" x="1075.51" y="569.81" width="45.07" height="0.82"/><rect class="cls-42" x="1075.51" y="572.12" width="45.07" height="0.82"/><rect class="cls-42" x="1075.51" y="588.27" width="45.07" height="0.82"/><rect class="cls-42" x="1075.51" y="590.58" width="45.07" height="0.82"/><rect class="cls-42" x="1075.51" y="574.43" width="45.07" height="0.82"/><rect class="cls-42" x="1075.51" y="576.74" width="45.07" height="0.82"/><rect class="cls-42" x="1075.51" y="579.04" width="45.07" height="0.82"/><rect class="cls-42" x="1075.51" y="581.35" width="45.07" height="0.82"/><rect class="cls-42" x="1075.51" y="583.66" width="45.07" height="0.82"/><rect class="cls-42" x="1075.51" y="585.97" width="45.07" height="0.82"/><rect class="cls-42" x="1121.62" y="537.18" width="36.44" height="6.69"/><rect class="cls-42" x="997.81" y="515.3" width="11.91" height="8.11"/><rect class="cls-42" x="1022.15" y="515.3" width="11.91" height="8.11"/><rect class="cls-42" x="1046.48" y="515.3" width="11.91" height="8.11"/><rect class="cls-42" x="674" y="530.58" width="37.14" height="64.07"/><rect class="cls-39" x="600" y="530.58" width="74" height="64.07"/><rect class="cls-38" x="605.6" y="543.89" width="45.72" height="5.15"/><rect class="cls-38" x="605.6" y="554.06" width="45.72" height="5.21"/><rect class="cls-42" x="892.5" y="495.49" width="60.91" height="99.16"/><rect class="cls-41" x="953.42" y="495.49" width="21.01" height="99.16"/><rect class="cls-38" x="902.58" y="508.21" width="13.3" height="11.18"/><rect class="cls-38" x="930.16" y="508.21" width="13.3" height="11.18"/><rect class="cls-38" x="930.16" y="561.09" width="13.3" height="11.18"/><rect class="cls-41" x="1226.86" y="535.68" width="42.03" height="55.72"/><rect class="cls-42" x="1165.81" y="535.68" width="61.79" height="55.72"/><rect class="cls-42" x="1165.81" y="480.34" width="52.42" height="55.34"/><rect class="cls-41" x="1218.23" y="480.34" width="35.86" height="55.34"/><rect class="cls-38" x="1165.81" y="499.56" width="36.07" height="3.76"/><rect class="cls-38" x="1208.26" y="548.62" width="19.34" height="4.01"/><rect class="cls-41" x="1250.15" y="564.59" width="201.28" height="30.06"/><rect class="cls-41" x="1250.15" y="535.15" width="74.42" height="29.44"/><rect class="cls-41" x="1384.5" y="558.37" width="54.03" height="6.23"/><rect class="cls-41" x="1336.76" y="558.37" width="20.59" height="8.23"/><rect class="cls-41" x="1416.66" y="583.04" width="83.34" height="11.6"/><rect class="cls-38" x="1255.37" y="547.36" width="7.96" height="7.11"/><rect class="cls-38" x="1416.66" y="572.94" width="6.42" height="6.68"/><rect class="cls-38" x="1426.19" y="572.94" width="7.39" height="6.68"/><ellipse class="cls-41" cx="1184.22" cy="580.27" rx="1.31" ry="1.37"/><path class="cls-37" d="M1185.34,582.25c0-.28,0-.42-.31-.42h-1.62c-.28,0-.27.13-.27.41l.2,3.28c0,.28.35.5.64.5h.26c.28,0,.86-.22.86-.5Z"/><path class="cls-37" d="M1185.13,584.81a.49.49,0,0,0-.49-.49h-.84a.49.49,0,0,0-.5.49v1.12a.5.5,0,0,0,.5.5h.84a.49.49,0,0,0,.49-.5Z"/><path class="cls-37" d="M1183.71,582a.46.46,0,0,0-.65,0l-1.33,1.29a.46.46,0,1,0,.65.66l1.32-1.28A.45.45,0,0,0,1183.71,582Z"/><path class="cls-37" d="M1182.05,583.43a.46.46,0,0,0-.5.43l-.14,1.84a.47.47,0,0,0,.42.5.46.46,0,0,0,.5-.43l.14-1.84A.46.46,0,0,0,1182.05,583.43Z"/><path class="cls-37" d="M1183.84,585.78a.46.46,0,0,0-.59.29l-.58,1.75a.48.48,0,0,0,.3.59.46.46,0,0,0,.58-.3l.58-1.75A.46.46,0,0,0,1183.84,585.78Z"/><path class="cls-37" d="M1184.5,585.8a.46.46,0,0,0-.13.64l1,1.53a.46.46,0,0,0,.64.13.47.47,0,0,0,.13-.64l-1-1.54A.45.45,0,0,0,1184.5,585.8Z"/><path class="cls-37" d="M1185.82,587.48a.52.52,0,0,0-.4.55l.2,1.85a.41.41,0,0,0,.51.36.51.51,0,0,0,.4-.55l-.2-1.86A.41.41,0,0,0,1185.82,587.48Z"/><path class="cls-37" d="M1183.36,587.79a.47.47,0,0,0-.66.06l-1.17,1.42a.48.48,0,0,0,.06.66.47.47,0,0,0,.66-.07l1.17-1.42A.47.47,0,0,0,1183.36,587.79Z"/><path class="cls-37" d="M1184.92,581.92a.45.45,0,0,0-.23.61l.75,1.68a.46.46,0,0,0,.61.24.48.48,0,0,0,.24-.62l-.76-1.68A.45.45,0,0,0,1184.92,581.92Z"/><path class="cls-37" d="M1185.64,584a.46.46,0,0,0,.08.64l1.46,1.14a.46.46,0,0,0,.57-.73l-1.46-1.14A.46.46,0,0,0,1185.64,584Z"/><path class="cls-37" d="M1192,588.4a.6.6,0,0,0-.6-.6h-1.13a.6.6,0,0,0-.6.6v.11a.6.6,0,0,0,.6.6h1.13a.6.6,0,0,0,.6-.6Z"/><ellipse class="cls-41" cx="1191.99" cy="587.56" rx="0.62" ry="0.57"/><path class="cls-37" d="M1192.84,588a.3.3,0,0,0-.22-.35l-.24,0a.28.28,0,0,0-.34.21.28.28,0,0,0,.21.35l.24,0A.29.29,0,0,0,1192.84,588Z"/><path class="cls-37" d="M1191.44,586.77l.42.32-.43.26Z"/><path class="cls-37" d="M1192.21,586.66l.15.51-.5,0Z"/><path class="cls-37" d="M1191.67,589.62a.17.17,0,0,0,.1-.21l-.11-.53a.38.38,0,0,0-.33-.14.25.25,0,0,0-.15.26l.28.52A.17.17,0,0,0,1191.67,589.62Z"/><path class="cls-37" d="M1192.18,589.54c.08,0,.1,0,0-.23l-.24-.56c0-.07-.26,0-.33,0a.24.24,0,0,0-.08.28l.4.44A.15.15,0,0,0,1192.18,589.54Z"/><path class="cls-37" d="M1189.88,588.06a2.24,2.24,0,0,1-.39-.3,2.06,2.06,0,0,1-.19-.41l-.12-.28a.49.49,0,0,0-.09.32l.13.18-.14,0,.19.25h-.18s.27.22.39.29a1.67,1.67,0,0,0,.35.08Z"/><rect class="cls-41" x="1189.36" y="584.54" width="0.23" height="4.53" transform="translate(91.36 1330.67) rotate(-60.37)"/><path class="cls-37" d="M1191.71,589.46a.12.12,0,0,0-.16-.1l-.58.15a.13.13,0,0,0-.1.17.13.13,0,0,0,.17.09l.58-.15A.13.13,0,0,0,1191.71,589.46Z"/><path class="cls-37" d="M1192,589.32a.14.14,0,0,0-.07.18l.26.54a.14.14,0,0,0,.18.07.14.14,0,0,0,.07-.19l-.26-.54A.13.13,0,0,0,1192,589.32Z"/><path class="cls-37" d="M1190.46,589.5a.17.17,0,0,0,.08-.22l-.17-.51c0-.08-.26-.14-.34-.1s-.16.18-.12.26l.33.5A.16.16,0,0,0,1190.46,589.5Z"/><path class="cls-37" d="M1189.53,589.42a.17.17,0,0,0,.24,0l.42-.34a.39.39,0,0,0,0-.36.24.24,0,0,0-.29,0l-.33.48A.16.16,0,0,0,1189.53,589.42Z"/><path class="cls-37" d="M1190.37,589.3a.17.17,0,0,0-.1.21l.19.52a.18.18,0,0,0,.22.09.17.17,0,0,0,.09-.21l-.19-.51A.17.17,0,0,0,1190.37,589.3Z"/><path class="cls-37" d="M1189.63,589.22a.15.15,0,0,0-.21.09l-.19.51a.16.16,0,0,0,.1.21.16.16,0,0,0,.21-.09l.19-.52A.16.16,0,0,0,1189.63,589.22Z"/><path class="cls-37" d="M658.45,585.64a1,1,0,0,0-1-1H638.2a1,1,0,0,0-1,1v2a1,1,0,0,0,1,1h19.24a1,1,0,0,0,1-1Z"/><ellipse class="cls-41" cx="640.4" cy="588.69" rx="1.66" ry="1.57"/><ellipse class="cls-41" cx="655.78" cy="588.69" rx="1.66" ry="1.57"/><path class="cls-37" d="M657.84,585.29H640.4l6.65-4.41h9.05Z"/><path class="cls-37" d="M627.55,585.64a1,1,0,0,0-1-1H607.3a1,1,0,0,0-1,1v2a1,1,0,0,0,1,1h19.23a1,1,0,0,0,1-1Z"/><ellipse class="cls-41" cx="609.5" cy="588.69" rx="1.66" ry="1.57"/><ellipse class="cls-41" cx="624.87" cy="588.69" rx="1.66" ry="1.57"/><path class="cls-37" d="M626.94,585.29H609.5l6.65-4.41h9.05Z"/><path class="cls-37" d="M921.79,585.92a1,1,0,0,0-1-1H901.55a1,1,0,0,0-1,1v2a1,1,0,0,0,1,1h19.23a1,1,0,0,0,1-1Z"/><ellipse class="cls-41" cx="903.74" cy="588.96" rx="1.66" ry="1.57"/><ellipse class="cls-41" cx="919.12" cy="588.96" rx="1.66" ry="1.57"/><path class="cls-37" d="M921.18,585.57H903.75l6.64-4.41h9.05Z"/><path class="cls-37" d="M523.78,573.73a1.12,1.12,0,0,0-1.12-1.12H504.6a1.12,1.12,0,0,0-1.12,1.12v13.09a1.12,1.12,0,0,0,1.12,1.12h18.06a1.12,1.12,0,0,0,1.12-1.12Z"/><path class="cls-37" d="M509.08,581.67a2.09,2.09,0,0,0-2.09-2.09h-6.11a2.08,2.08,0,0,0-2.09,2.09v4.17a2.09,2.09,0,0,0,2.09,2.1H507a2.1,2.1,0,0,0,2.09-2.1Z"/><path class="cls-37" d="M524.35,586.64a.43.43,0,0,0-.42-.44h-25.4a.44.44,0,0,0-.43.44v.86a.44.44,0,0,0,.43.44h25.4a.43.43,0,0,0,.42-.44Z"/><ellipse class="cls-41" cx="519.13" cy="588.56" rx="2.37" ry="2.35"/><ellipse class="cls-41" cx="502.72" cy="588.56" rx="2.37" ry="2.35"/><rect class="cls-41" x="1248.52" y="526.77" width="251.48" height="5.35"/><rect class="cls-41" x="1363.34" y="529.44" width="12.64" height="54"/><rect class="cls-41" x="1356.59" y="530.33" width="26.13" height="7.54"/><rect class="cls-41" x="1443.37" y="529.44" width="12.64" height="64.95"/><rect class="cls-41" x="1436.62" y="530.33" width="26.13" height="7.54"/><rect class="cls-41" x="1281.71" y="529.44" width="12.64" height="54"/><rect class="cls-41" x="1274.97" y="530.33" width="26.13" height="7.54"/><path class="cls-37" d="M1413.66,527.45a4.08,4.08,0,0,1-3.52,2h-54.57a4.07,4.07,0,0,1-4.07-4.07v-8.13a4.07,4.07,0,0,1,4.07-4.07h54.57c1.25,0,2,.89,2.75,1.78a10.15,10.15,0,0,1,1,1.27c1.8,1.56,4.76,3.38,4.76,5.65v.91a4.63,4.63,0,0,1-4.63,4.64Z"/><path class="cls-37" d="M1351.51,517.31a4,4,0,0,0-4-4h-44.74a4,4,0,0,0-4,4v8.09a4,4,0,0,0,4,4h44.74a4,4,0,0,0,4-4Z"/><path class="cls-37" d="M1298.52,517.31a4,4,0,0,0-4-4h-44.74a4,4,0,0,0-4,4v8.09a4,4,0,0,0,4,4h44.74a4,4,0,0,0,4-4Z"/></g><g id="front-line"><rect class="cls-41" y="589.94" width="1500" height="18.8"/></g></g></g></svg>