<svg xmlns="http://www.w3.org/2000/svg" viewBox="0 0 1500 608.74"><defs><style>.cls-1{fill:#fae5cf;}.cls-1,.cls-10,.cls-11,.cls-12,.cls-14,.cls-16,.cls-17,.cls-18,.cls-19,.cls-2,.cls-21,.cls-24,.cls-25,.cls-26,.cls-27,.cls-28,.cls-30,.cls-31,.cls-33,.cls-34,.cls-35,.cls-36,.cls-37,.cls-4,.cls-43,.cls-46,.cls-5,.cls-6,.cls-7,.cls-8{fill-rule:evenodd;}.cls-2{fill:#fbecdc;}.cls-3{fill:#f8ddb5;}.cls-4{fill:#958e46;}.cls-5{fill:#7a7439;}.cls-48,.cls-6{fill:#483328;}.cls-7{fill:#afa650;}.cls-47,.cls-8{fill:#906152;}.cls-16,.cls-9{fill:#efdbab;}.cls-10,.cls-13{fill:#b5925a;}.cls-11{fill:#d66523;}.cls-12{fill:#f5e7c6;}.cls-14,.cls-15{fill:#df7639;}.cls-17,.cls-20{fill:#bb5823;}.cls-18{fill:#e67d44;}.cls-19{fill:#f3e0c6;}.cls-21{fill:#f8965e;}.cls-22{fill:#6b7a3b;}.cls-23,.cls-36{fill:#a8ad83;}.cls-24,.cls-38{fill:#909565;}.cls-25,.cls-41{fill:#dc7244;}.cls-26{fill:#6f7259;}.cls-27,.cls-39{fill:#666948;}.cls-28{fill:#f1dec0;}.cls-29{fill:#eccb9b;}.cls-30{fill:#837c3d;}.cls-31,.cls-40{fill:#5f5c2e;}.cls-32,.cls-37{fill:#b89a86;}.cls-33{fill:#a78066;}.cls-34,.cls-42{fill:#704e45;}.cls-35{fill:#847e3d;}.cls-43{fill:#4d392a;}.cls-44,.cls-46{fill:#a24d1f;}.cls-45{fill:#553c36;}.cls-49{fill:#4f382b;}</style></defs><g id="Layer_2" data-name="Layer 2"><g id="Layer_1-2" data-name="Layer 1"><g id="clouds03"><g id="big-cloud"><path class="cls-1" d="M1198.43,99.72C1180,42.3,1117.44,0,1043.25,0c-61.07,0-96,23.23-123.21,65.42C914,63.23,895.26,61,871.37,68.94c-31.63,10.59-50.48,28.79-50.48,66,0,11.33-.12,14,4.38,23.42C722,119,647.13,166.24,620.06,201.84,607.78,218,607.23,240.75,609,244.1,570.08,211,495.63,226,504.18,284.58c.47,3.13,14.12,13.4,10.66,14.17-13.49,3-150.24,5.4-290.65,21.15-33.38,3.74-73.73,4.5-100.68,34.74-14.3,16-15.11,50.22,3.32,68.74,7.16,7.19,36.45,10.77,47.89,10.67,211-1.84,1172.89-3.92,1206.9-7.29,77.59-7.71,64.3-100,45-121.49-14.62-16.26-30.71-35.74-86.37-37.49-6-.17-11.86,1.24-7.54-1.54,21.94-14.14,2.86-80.6-63.2-63.76-.78.2,0-.7,0-.7C1269.24,153.88,1239.4,113.36,1198.43,99.72Z"/></g><g id="big-cloud1"><path class="cls-2" d="M1186.81,162.72c-15-38-65.85-66-126.16-66-49.66,0-78.09,15.37-100.19,43.28-4.93-1.45-20.15-3-39.57,2.33-25.72,7-41,19-41,43.69,0,7.49-.1,9.28,3.57,15.48-84-26.09-144.85,5.19-166.86,28.74-10,10.69-10.43,25.74-9,28-31.63-21.88-92.17-11.94-85.21,26.78.38,2.08,11.48,8.87,8.66,9.38-11,2-122.16,3.57-236.32,14-27.14,2.47-59.95,3-81.87,23-11.62,10.61-12.28,33.22,2.71,45.48,5.82,4.75,29.64,7.12,38.94,7.05,171.58-1.22,953.66-2.59,981.32-4.82,63.09-5.1,52.28-66.17,36.59-80.37-11.88-10.75-25-23.64-70.22-24.8-4.85-.11-9.65.82-6.13-1,17.84-9.35,2.32-53.32-51.39-42.18-.63.14,0-.46,0-.46C1244.39,198.54,1220.13,171.74,1186.81,162.72Z"/></g><ellipse class="cls-3" cx="968.91" cy="273.06" rx="139.42" ry="139.69"/></g><g id="_03" data-name=" 03"><path class="cls-4" d="M1187,279.6c71.22.56,137.68,52.21,186.73,103.84S1481.88,590,1481.88,590H16.51s118.74-150.7,401.28-214.13C722.08,307.55,1027.67,278.33,1187,279.6Z"/><g id="yellow-tree"><path class="cls-5" d="M1455.33,458.27c9,.81,13.88,21.07,21.45,34.53,4.28,7.6,8.44,19.41,7.75,34.72-1.14,25.39-8.91,35.13-30.75,33.71-25-1.61-29.55-20.59-30.51-38.3-1-17.87,7-26.81,9.76-35.87C1437.34,472.72,1449,457.7,1455.33,458.27Z"/><path class="cls-6" d="M1453.52,586.3s-.34-4.9.78-17.49c1.19-13.4,2.42-17.16,1.69-17.11a42.82,42.82,0,0,1-10.24-7.3,29.22,29.22,0,0,1-7.57-13.64c3.53,3.88,6.16,8.63,10.83,11.45a12.22,12.22,0,0,0,7.77,2.21s-2.19-13.15-4.73-26.3c-2.7-14-1.53-26.17-1.26-26.33.49-.31,6.86,37,9.93,34.95,3.51-2.34,12.27-23.18,12.27-23.18a71.67,71.67,0,0,1-3.29,15.49c-1.61,4.37-5.75,10.26-8.36,14.12,0,0,1.11,19.29.57,37.74a83.38,83.38,0,0,0,.95,14.89,22.3,22.3,0,0,1-4.06,1A41,41,0,0,1,1453.52,586.3Z"/></g><g id="yellow-tree1"><path class="cls-7" d="M1070.44,209.16c8,.74,12.3,18.74,19,30.7a57.58,57.58,0,0,1,6.83,30.84c-1.06,22.55-8,31.18-27.37,29.89-22.18-1.47-26.21-18.33-27-34.06s6.3-23.79,8.73-31.83C1054.44,222,1064.84,208.65,1070.44,209.16Z"/><path class="cls-8" d="M1068.64,322.85s-.3-4.35.71-15.53c1.09-11.9,2.18-15.24,1.53-15.19a38.24,38.24,0,0,1-9.08-6.49,25.92,25.92,0,0,1-6.7-12.13c3.13,3.45,5.46,7.67,9.6,10.18a10.86,10.86,0,0,0,6.89,2s-1.92-11.68-4.16-23.36c-2.37-12.42-1.31-23.24-1.07-23.39.43-.27,6,32.86,8.76,31.05,3.12-2.06,10.93-20.56,10.93-20.56a63,63,0,0,1-3,13.75c-1.43,3.88-5.11,9.1-7.44,12.53,0,0,1,17.13.44,33.51a74.08,74.08,0,0,0,.83,13.22,19.33,19.33,0,0,1-3.61.85A36.34,36.34,0,0,1,1068.64,322.85Z"/></g><g id="yellow-tree2"><path class="cls-7" d="M468,292c6.62.61,10.15,15.48,15.69,25.37a47.41,47.41,0,0,1,5.64,25.48c-.86,18.64-6.58,25.77-22.61,24.7-18.33-1.21-21.66-15.15-22.33-28.14s5.2-19.67,7.21-26.31C454.73,302.59,463.33,291.57,468,292Z"/><path class="cls-8" d="M466.46,385.94a93.28,93.28,0,0,1,.6-12.83c.89-9.83,1.79-12.59,1.26-12.55a31.28,31.28,0,0,1-7.5-5.37,21.47,21.47,0,0,1-5.54-10c2.58,2.86,4.51,6.34,7.93,8.41a8.92,8.92,0,0,0,5.7,1.64s-1.59-9.65-3.44-19.31c-2-10.26-1.09-19.2-.89-19.32.36-.22,5,27.15,7.24,25.66,2.58-1.71,9-17,9-17a52.64,52.64,0,0,1-2.44,11.36c-1.18,3.21-4.23,7.52-6.15,10.35,0,0,.79,14.16.36,27.7a61.18,61.18,0,0,0,.69,10.92,16.72,16.72,0,0,1-3,.71A30.9,30.9,0,0,1,466.46,385.94Z"/></g><g id="yellow-tree3"><path class="cls-7" d="M273.84,331.73c6.62.6,10.16,15.48,15.7,25.36a47.63,47.63,0,0,1,5.64,25.49c-.87,18.63-6.59,25.76-22.61,24.7-18.33-1.22-21.66-15.15-22.34-28.15s5.21-19.66,7.21-26.3C260.62,342.31,269.21,331.3,273.84,331.73Z"/><path class="cls-8" d="M272.35,425.67a93.9,93.9,0,0,1,.59-12.83c.9-9.84,1.8-12.59,1.26-12.56a31.15,31.15,0,0,1-7.5-5.36,21.47,21.47,0,0,1-5.54-10c2.59,2.85,4.51,6.34,7.93,8.41a8.94,8.94,0,0,0,5.7,1.64s-1.59-9.66-3.44-19.31c-2-10.26-1.08-19.2-.89-19.32.36-.23,5,27.15,7.24,25.66,2.58-1.71,9-17,9-17a52.52,52.52,0,0,1-2.44,11.36c-1.18,3.21-4.23,7.53-6.14,10.36,0,0,.78,14.15.36,27.69a61.82,61.82,0,0,0,.68,10.93,15.94,15.94,0,0,1-3,.7A29.36,29.36,0,0,1,272.35,425.67Z"/></g><g id="yellow-tree4"><path class="cls-7" d="M792.53,227.82c6.62.61,10.16,15.48,15.7,25.37a47.59,47.59,0,0,1,5.64,25.48c-.87,18.64-6.59,25.77-22.61,24.7-18.33-1.21-21.66-15.15-22.34-28.14s5.2-19.67,7.21-26.31C779.31,238.41,787.9,227.39,792.53,227.82Z"/><path class="cls-8" d="M791,321.76a93.9,93.9,0,0,1,.59-12.83c.89-9.83,1.8-12.59,1.26-12.55a31.72,31.72,0,0,1-7.5-5.37,21.47,21.47,0,0,1-5.54-10c2.59,2.86,4.51,6.34,7.93,8.41a8.92,8.92,0,0,0,5.7,1.64s-1.59-9.65-3.44-19.31c-2-10.26-1.08-19.2-.89-19.32.36-.22,5,27.15,7.24,25.66,2.58-1.71,9-17,9-17A52.64,52.64,0,0,1,803,272.44c-1.18,3.21-4.23,7.52-6.15,10.35,0,0,.79,14.16.37,27.7a61.65,61.65,0,0,0,.68,10.92,16.54,16.54,0,0,1-3,.71A30.69,30.69,0,0,1,791,321.76Z"/></g><g id="yellow-tree5"><path class="cls-7" d="M643,242.79c6.62.61,10.16,15.48,15.7,25.37a47.59,47.59,0,0,1,5.64,25.48c-.87,18.64-6.59,25.77-22.61,24.7-18.34-1.21-21.66-15.15-22.34-28.14s5.2-19.67,7.21-26.31C629.78,253.38,638.37,242.37,643,242.79Z"/><path class="cls-8" d="M641.51,336.74a94,94,0,0,1,.59-12.84c.89-9.83,1.79-12.59,1.26-12.55a31.72,31.72,0,0,1-7.5-5.37,21.42,21.42,0,0,1-5.54-10c2.59,2.86,4.51,6.34,7.93,8.42A9,9,0,0,0,644,306s-1.59-9.65-3.44-19.3c-2-10.27-1.08-19.21-.89-19.33.36-.22,5,27.15,7.24,25.66,2.58-1.71,9-17,9-17a52.64,52.64,0,0,1-2.44,11.36c-1.18,3.21-4.23,7.52-6.15,10.35,0,0,.79,14.16.37,27.7a61.65,61.65,0,0,0,.68,10.92,16.49,16.49,0,0,1-3,.71A31.25,31.25,0,0,1,641.51,336.74Z"/></g><g id="yellow-tree6"><path class="cls-7" d="M507.23,290c8,.73,12.3,18.73,19,30.7a57.53,57.53,0,0,1,6.83,30.84c-1,22.55-8,31.18-27.36,29.89-22.19-1.48-26.21-18.34-27-34.06s6.3-23.8,8.73-31.84C491.23,302.76,501.63,289.44,507.23,290Z"/><path class="cls-8" d="M505.43,403.63s-.3-4.34.72-15.53c1.08-11.89,2.17-15.23,1.52-15.19a37.62,37.62,0,0,1-9.07-6.49,25.92,25.92,0,0,1-6.7-12.13c3.12,3.46,5.45,7.68,9.59,10.19a10.87,10.87,0,0,0,6.9,2s-1.93-11.69-4.16-23.37c-2.38-12.42-1.32-23.24-1.08-23.38.43-.27,6,32.86,8.76,31.05,3.12-2.07,10.93-20.57,10.93-20.57a63.2,63.2,0,0,1-2.94,13.75c-1.44,3.89-5.12,9.11-7.44,12.53,0,0,.95,17.13.44,33.52a74.66,74.66,0,0,0,.82,13.22,20,20,0,0,1-3.61.85A35.82,35.82,0,0,1,505.43,403.63Z"/></g><rect class="cls-9" x="716.34" y="284.01" width="73.67" height="62.93"/><path class="cls-10" d="M748.42,303H735.57V320.4h12.85Zm33.64,0H753.52V320.4h28.54Z"/><path class="cls-11" d="M683.28,249.46l25.54,13.82,1.44,24.19H649.34Z"/><path class="cls-12" d="M716.34,284l-30.17-31.84L656.62,284v62.93h59.72Z"/><rect class="cls-13" x="676.24" y="303.01" width="20.98" height="43.93"/><rect class="cls-13" x="682.25" y="274.31" width="8.97" height="9.7"/><polygon class="cls-14" points="683.27 249.46 758.81 249.46 794.86 287.47 719.32 287.47 683.27 249.46"/><rect class="cls-15" x="736.95" y="240.82" width="13.57" height="24.19"/><path class="cls-11" d="M737,240.82H731l-.25,18.51L737,265Z"/><path class="cls-4" d="M750,362.2c-.83-6.54-9.42-11.95-17.48-11.95a19.52,19.52,0,0,0-2.88.22,1.55,1.55,0,0,0,0-.22c0-9.38-6.4-17-14.28-17-.32,0-.63,0-.94,0a31.09,31.09,0,0,0-26.7-15.49c-14.78,0-27.18,10.63-30.47,24.91-7.49,1.54-14.89,12.52-14,19.5Z"/><path class="cls-4" d="M1353.8,331.69c-1-8.34-11.31-15.24-21-15.24a21.93,21.93,0,0,0-3.46.27v-.27c0-12-7.68-21.71-17.14-21.71-.38,0-.76,0-1.13.05C1304.46,282.93,1292.57,275,1279,275c-17.74,0-32.63,13.56-36.58,31.78-9,2-17.89,16-16.8,24.89Z"/><path class="cls-4" d="M1077.14,331.69c-1-8.34-11.31-15.24-21-15.24a22,22,0,0,0-3.46.27,2.44,2.44,0,0,0,0-.27c0-12-7.69-21.71-17.15-21.71-.38,0-.76,0-1.12.05-6.62-11.86-18.51-19.77-32.07-19.77-17.75,0-32.64,13.56-36.59,31.78-9,2-17.89,16-16.79,24.89Z"/><path class="cls-16" d="M864.06,281l-32-24.08-32.64,24.18v93.25h64.65Z"/><polygon class="cls-17" points="832.05 232.31 832.05 257.25 864.06 281.03 864.06 256.1 832.05 232.31"/><polygon class="cls-18" points="832.05 232.31 832.05 257.25 799.27 281.61 799.27 256.67 832.05 232.31"/><path class="cls-10" d="M840.1,335.06H823.5v15.37h16.6Zm0-23.7H823.5v15.37h16.6Zm0-23.69H823.5V303h16.6Z"/><path class="cls-18" d="M1095.5,173.73l24.88,26.14v10.71H1004.16v-8.82Z"/><path class="cls-19" d="M1120.38,205.77l-26.45-27.31-89.77,27.31V314.2h116.22Z"/><path class="cls-10" d="M1048.51,265.34h-16.65v18.28h16.65Zm-8.32-44.65h-12.57v11.95h12.57Zm27.89,0h-12.73v11.95h12.73Z"/><rect class="cls-13" x="1070.62" y="265.07" width="28.03" height="49.13"/><g id="yellow-tree7"><path class="cls-7" d="M1330.33,241.45c8.69.8,13.34,20.33,20.61,33.31,4.1,7.33,8.09,18.71,7.41,33.46-1.14,24.47-8.65,33.83-29.69,32.43-24.07-1.6-28.44-19.89-29.33-37s6.83-25.81,9.47-34.54C1313,255.35,1324.25,240.89,1330.33,241.45Z"/><path class="cls-8" d="M1328.37,364.8s-.33-4.72.78-16.85c1.17-12.91,2.36-16.53,1.66-16.48a41.13,41.13,0,0,1-9.85-7.05,28.07,28.07,0,0,1-7.27-13.15c3.39,3.75,5.91,8.32,10.41,11a11.74,11.74,0,0,0,7.48,2.15s-2.09-12.68-4.51-25.35c-2.58-13.48-1.43-25.21-1.17-25.37.47-.29,6.55,35.65,9.5,33.69,3.39-2.24,11.87-22.31,11.87-22.31a69.12,69.12,0,0,1-3.2,14.92c-1.56,4.21-5.56,9.87-8.07,13.59,0,0,1,18.59.47,36.36a80.3,80.3,0,0,0,.9,14.35,21.38,21.38,0,0,1-3.92.92A38.46,38.46,0,0,1,1328.37,364.8Z"/></g><g id="yellow-tree8"><path class="cls-7" d="M1375,282.27c7.14.66,11,16.69,16.92,27.35a51.23,51.23,0,0,1,6.08,27.47c-.94,20.08-7.1,27.77-24.37,26.62-19.76-1.31-23.35-16.33-24.08-30.34s5.61-21.19,7.77-28.35C1360.7,293.69,1370,281.82,1375,282.27Z"/><path class="cls-8" d="M1373.34,383.53s-.27-3.87.64-13.83c1-10.6,1.94-13.57,1.36-13.53a33.9,33.9,0,0,1-8.08-5.78,23.06,23.06,0,0,1-6-10.8c2.78,3.07,4.85,6.83,8.54,9.06a9.67,9.67,0,0,0,6.15,1.77s-1.72-10.41-3.71-20.81c-2.12-11.07-1.17-20.7-1-20.83.39-.24,5.38,29.27,7.8,27.66,2.78-1.85,9.74-18.32,9.74-18.32a56.71,56.71,0,0,1-2.62,12.25c-1.28,3.45-4.56,8.1-6.63,11.16,0,0,.85,15.25.39,29.85a66.56,66.56,0,0,0,.74,11.77,17.69,17.69,0,0,1-3.22.76A32.51,32.51,0,0,1,1373.34,383.53Z"/></g><g id="yellow-tree9"><path class="cls-7" d="M1012.45,236.32c7.37.68,11.3,17.22,17.46,28.21a52.85,52.85,0,0,1,6.28,28.35c-1,20.72-7.33,28.65-25.15,27.47C990.65,319,987,303.5,986.2,289s5.79-21.87,8-29.25C997.75,248.09,1007.31,235.85,1012.45,236.32Z"/><path class="cls-8" d="M1010.8,340.8s-.28-4,.65-14.27c1-10.94,2-14,1.41-14a35,35,0,0,1-8.35-6,23.82,23.82,0,0,1-6.15-11.14c2.87,3.17,5,7.05,8.81,9.35a9.91,9.91,0,0,0,6.34,1.82s-1.77-10.73-3.82-21.47c-2.18-11.41-1.21-21.36-1-21.49.4-.25,5.55,30.2,8,28.54,2.87-1.9,10-18.9,10-18.9a58.23,58.23,0,0,1-2.71,12.63c-1.32,3.57-4.7,8.37-6.84,11.52,0,0,.88,15.74.41,30.8a68.44,68.44,0,0,0,.76,12.15,18.26,18.26,0,0,1-3.32.78A32.12,32.12,0,0,1,1010.8,340.8Z"/></g><rect class="cls-9" x="1157.75" y="258.47" width="112.78" height="74.1"/><path class="cls-17" d="M1102.06,258.47h-9.19l30.37-44.16L1130,217Z"/><path class="cls-12" d="M1157.75,258.47l-29.29-44.16-29.29,44.16v74.1h58.58Z"/><polygon class="cls-18" points="1123.24 214.31 1246.13 214.31 1275.43 258.47 1152.54 258.47 1123.24 214.31"/><path class="cls-10" d="M1186.14,277.78h-8.92v22.81h8.92Zm35,0h-8.92v22.81h8.92Zm-17.5,0h-8.93v22.81h8.93Zm35,0h-8.93v22.81h8.93Zm17.51,0h-8.93v22.81h8.93Z"/><path class="cls-17" d="M1076.94,297.82h-3.32s16.26-23.07,16.31-23,3,2.08,3,2.08S1076.31,297.94,1076.94,297.82Z"/><path class="cls-12" d="M1107.13,296.4,1092,274.83l-15.09,21.57v36.19h30.19Z"/><rect class="cls-9" x="1106.89" y="296.4" width="21.31" height="36.19"/><rect class="cls-13" x="1114.44" y="304.76" width="6.21" height="12.12"/><rect class="cls-20" x="1084.87" y="310.82" width="10.91" height="21.76"/><polygon class="cls-18" points="1089.93 274.83 1113.22 274.83 1129.18 297.82 1105.9 297.82 1089.93 274.83"/><path class="cls-21" d="M958.88,245l36.67,39.79H922.22Z"/><rect class="cls-9" x="848.55" y="304.5" width="79.25" height="57.22"/><polygon class="cls-21" points="862.06 267.67 958.88 267.67 932.82 311.85 836 311.85 862.06 267.67"/><path class="cls-16" d="M990,282.87l-31.08-30-31.07,30v78.85H990Z"/><path class="cls-10" d="M960.09,335.7h-8.63v13.91h8.63Zm-5.55-45.11a5.56,5.56,0,0,1,11.1,0h0v9.82h-11.1Z"/><rect class="cls-20" x="964.01" y="332.95" width="14.74" height="28.78"/><rect class="cls-13" x="865.31" y="324.97" width="8.61" height="15.95"/><rect class="cls-13" x="886.27" y="324.97" width="8.61" height="15.95"/><g id="yellow-tree10"><path class="cls-5" d="M435.88,303.36c9.11.55,14,13.84,21.59,22.68a31.23,31.23,0,0,1,7.77,22.78c-1.2,16.66-9.07,23-31.11,22.08-25.22-1.09-29.8-13.54-30.73-25.16s7.16-17.58,9.92-23.52C417.69,312.83,429.51,303,435.88,303.36Z"/><path class="cls-8" d="M429.58,403.64s-.3-4.26.7-15.2c1.06-11.65-.45-29.78-1.08-29.74a37.26,37.26,0,0,1-8.88-6.35c-4.9-4.68-3.27-7.1-3.27-7.4,3.06,3.38,2.05,3,6.1,5.49a10.63,10.63,0,0,0,6.75,1.94s.69,3.44-1.5-8c-2.32-12.16-1.28-22.74-1-22.89s2.32,10.11,4.39,17.27c1.23,4.22,2.54,7,3.26,6.9.94-.16,3-2.41,4.17-5.35a24.91,24.91,0,0,0,1.37-6.42s2.44,3,.23,9c-1.4,3.8-2.7,3.81-5,7.16,0,0,1.59,24.17,1.09,40.2a72.13,72.13,0,0,0,.81,12.94,19.06,19.06,0,0,1-3.54.83A35.35,35.35,0,0,1,429.58,403.64Z"/></g><path class="cls-21" d="M554.74,276.31,518.07,316.1h73.34Z"/><rect class="cls-9" x="585.82" y="335.83" width="79.25" height="57.22"/><polygon class="cls-21" points="651.57 299 554.74 299 580.8 343.18 677.63 343.18 651.57 299"/><path class="cls-16" d="M523.66,314.2l31.08-30,31.08,30v78.85H523.66Z"/><path class="cls-10" d="M553.53,367h8.63v13.91h-8.63Zm0-45.11H548a5.56,5.56,0,0,1,11.09,0v9.82H548v-9.82Z"/><rect class="cls-20" x="534.87" y="364.28" width="14.74" height="28.78"/><path class="cls-10" d="M639.7,356.3h8.61v15.95H639.7Zm-21,0h8.62v15.95h-8.62Z"/><path class="cls-21" d="M389.71,303.35l36.67,39.79H353Z"/><rect class="cls-9" x="279.38" y="362.88" width="79.25" height="57.22"/><polygon class="cls-21" points="292.88 326.04 389.71 326.04 363.65 370.22 266.82 370.22 292.88 326.04"/><path class="cls-16" d="M420.78,341.24l-31.07-30-31.08,30V420.1h62.15Z"/><path class="cls-10" d="M390.92,394.07h-8.64V408h8.64ZM385.37,349a5.56,5.56,0,0,1,11.09,0h0v9.83H385.37Z"/><rect class="cls-20" x="394.84" y="391.32" width="14.74" height="28.78"/><rect class="cls-13" x="296.14" y="383.34" width="8.61" height="15.95"/><rect class="cls-13" x="317.09" y="383.34" width="8.61" height="15.95"/><rect class="cls-9" x="777.9" y="346.54" width="73.67" height="62.93"/><path class="cls-10" d="M810,365.54H797.12v17.39H810Zm33.65,0H815.07v17.39h28.55Z"/><path class="cls-11" d="M744.83,312l25.54,13.82L771.81,350H710.9Z"/><path class="cls-12" d="M777.9,346.54,747.73,314.7l-29.55,31.84v62.93H777.9Z"/><rect class="cls-13" x="737.8" y="365.54" width="20.98" height="43.93"/><rect class="cls-13" x="743.8" y="336.84" width="8.97" height="9.7"/><polygon class="cls-14" points="744.83 311.99 820.37 311.99 856.41 350 780.87 350 744.83 311.99"/><rect class="cls-15" x="798.51" y="303.35" width="13.57" height="24.19"/><path class="cls-11" d="M798.51,303.35h-5.93l-.24,18.51,6.17,5.68Z"/><rect class="cls-9" x="886.36" y="367.5" width="73.67" height="62.93"/><path class="cls-11" d="M853.29,333l25.54,13.82L880.27,371H819.36Z"/><path class="cls-12" d="M886.36,367.5l-30.17-31.83L826.64,367.5v62.93h59.72Z"/><path class="cls-10" d="M867.23,386.51h-21v43.92h21Zm51.2,0H905.58V403.9h12.85Zm33.65,0H923.54V403.9h28.54ZM861.23,357.8h-9v9.7h9Z"/><polygon class="cls-14" points="853.29 332.95 928.83 332.95 964.87 370.96 889.33 370.96 853.29 332.95"/><rect class="cls-15" x="906.97" y="324.32" width="13.57" height="24.19"/><path class="cls-11" d="M907,324.32H901l-.24,18.5L907,348.5Z"/><g id="yellow-tree11"><path class="cls-5" d="M774.67,355.26c8.17.48,12.54,12.41,19.38,20.34a28,28,0,0,1,7,20.45c-1.07,14.94-8.13,20.66-27.91,19.81-22.63-1-26.74-12.16-27.58-22.58s6.43-15.77,8.9-21.1C758.34,363.75,769,354.91,774.67,355.26Z"/><path class="cls-8" d="M769,445.23s-.27-3.82.63-13.64c1-10.45-.41-26.72-1-26.68a33.2,33.2,0,0,1-8-5.7c-4.4-4.2-2.94-6.37-2.94-6.64,2.75,3,1.84,2.73,5.48,4.93a9.56,9.56,0,0,0,6,1.74s.62,3.08-1.34-7.17c-2.08-10.91-1.15-20.41-1-20.54s2.09,9.07,4,15.5c1.1,3.79,2.27,6.3,2.92,6.19.85-.15,2.7-2.16,3.75-4.8a22.34,22.34,0,0,0,1.22-5.76s2.19,2.72.21,8.09c-1.25,3.41-2.43,3.41-4.46,6.42,0,0,1.43,21.69,1,36.08a65.24,65.24,0,0,0,.73,11.6,16.67,16.67,0,0,1-3.17.75A32,32,0,0,1,769,445.23Z"/></g><rect class="cls-22" x="92.23" y="493.38" width="1281.5" height="101.21"/><rect class="cls-23" x="759.34" y="439.75" width="127.44" height="110.7"/><path class="cls-17" d="M963.09,445.15h10.4l-42.06-52-10.17,6Z"/><path class="cls-24" d="M924.94,395.25l-38.16,44.5v110.7h76.33V438.75Z"/><polygon class="cls-25" points="931.43 393.13 794.65 393.13 750.01 445.14 886.78 445.14 931.43 393.13"/><path class="cls-26" d="M816,502h14.09v19.86H816Zm-33.2,0h14.09v19.86H782.83Zm66.37,0h14.09v19.86H849.2Zm0-33.66h14.09v19.87H849.2Zm-33.17,0h14.09v19.87H816Zm-33.2,0h14.09v19.87H782.83Z"/><path class="cls-27" d="M913.54,502.62H937.6v47.93H913.54Zm6-34.09h12V488.4h-12Zm0-31.54h12v19.86h-12Z"/><path class="cls-5" d="M577.45,444.34c-1-8.16-10.75-14.91-19.94-14.91a19.92,19.92,0,0,0-3.29.27,2.44,2.44,0,0,0,0-.27c0-11.72-7.3-21.23-16.29-21.23-.36,0-.72,0-1.07,0-6.28-11.6-17.58-19.35-30.45-19.35-16.86,0-31,13.28-34.76,31.1-8.54,1.93-17,15.64-16,24.35Z"/><rect class="cls-9" x="671.49" y="386.09" width="73.67" height="62.93"/><path class="cls-10" d="M703.56,405.09H690.71v17.4h12.85Zm33.65,0H708.67v17.4h28.54Z"/><path class="cls-11" d="M638.42,351.54,664,365.36l1.44,24.19H604.49Z"/><path class="cls-16" d="M671.49,386.09l-30.17-31.83-29.55,31.83V449h59.72Z"/><path class="cls-10" d="M652.36,405.09h-21V449h21Zm-6-28.7h-9v9.7h9Z"/><polygon class="cls-14" points="638.42 351.54 713.96 351.54 750 389.55 674.46 389.55 638.42 351.54"/><rect class="cls-15" x="692.1" y="342.9" width="13.57" height="24.19"/><path class="cls-11" d="M692.1,342.9h-5.93l-.24,18.51,6.17,5.68Z"/><path class="cls-16" d="M1094,358.38l-36.14-27.19L1021,358.5V463.83h73Z"/><polygon class="cls-17" points="1057.86 303.35 1057.86 331.52 1094 358.38 1094 330.21 1057.86 303.35"/><polygon class="cls-18" points="1057.85 303.35 1057.85 331.52 1020.83 359.03 1020.83 330.87 1057.85 303.35"/><path class="cls-10" d="M1066.94,419.4h-18.75v17.36h18.75Zm0-26.76h-18.75V410h18.75Zm0-26.77h-18.75v17.36h18.75Z"/><path class="cls-16" d="M1024.45,358.38,988.3,331.19,951.44,358.5V463.83h73Z"/><polygon class="cls-17" points="988.3 303.35 988.3 331.52 1024.45 358.38 1024.45 330.21 988.3 303.35"/><polygon class="cls-18" points="988.3 303.35 988.3 331.52 951.28 359.03 951.28 330.87 988.3 303.35"/><path class="cls-10" d="M997.39,419.4H978.64v17.36h18.75Zm0-26.76H978.64V410h18.75Zm0-26.77H978.64v17.36h18.75Z"/><path class="cls-17" d="M1127.56,322h-4.17s20.41-29,20.48-28.86,3.79,2.61,3.79,2.61S1126.78,322.1,1127.56,322Z"/><path class="cls-12" d="M1127.56,351.93V320.16l19-27.07,19,27.07v31.77Z"/><rect class="cls-9" x="1163.91" y="320.16" width="91.45" height="31.77"/><path class="cls-10" d="M1180.69,329.6H1176V339h4.67Zm46.93,0H1223V339h4.66Zm-31.29,0h-4.67V339h4.67Zm15.64,0h-4.66V339H1212Zm31.29,0h-4.66V339h4.66Z"/><polygon class="cls-18" points="1143.87 293.09 1239.54 293.09 1259.58 321.95 1163.91 321.95 1143.87 293.09"/><path class="cls-17" d="M1231.74,340.93h-4.48s22-31.15,22-31,4.07,2.81,4.07,2.81S1230.9,341.09,1231.74,340.93Z"/><path class="cls-12" d="M1231.74,373.17V339l20.38-29.12L1272.5,339v34.16Z"/><rect class="cls-9" x="1270.84" y="339.01" width="98.36" height="34.17"/><path class="cls-10" d="M1288.88,349.15h-5v10.09h5Zm16.82,0h-5v10.09h5Zm16.82,0h-5v10.09h5Zm16.83,0h-5v10.09h5Zm16.82,0h-5v10.09h5Z"/><polygon class="cls-18" points="1249.28 309.89 1352.17 309.89 1373.73 340.93 1270.84 340.93 1249.28 309.89"/><path class="cls-17" d="M114,425.66h-5.13S134,390,134.06,390.15s4.66,3.2,4.66,3.2S113,425.84,114,425.66Z"/><path class="cls-28" d="M115.05,469.29,114,423.46l23.32-33.31,23.32,33.31,1.06,45.83Z"/><rect class="cls-29" x="158.72" y="423.46" width="112.54" height="39.09"/><path class="cls-10" d="M179.36,435.07h-5.74v11.54h5.74Zm19.25,0h-5.74v11.54h5.74Zm19.25,0h-5.74v11.54h5.74Zm19.25,0h-5.74v11.54h5.74Zm19.25,0h-5.74v11.54h5.74Z"/><polygon class="cls-18" points="134.06 390.15 251.79 390.15 276.45 425.66 158.72 425.66 134.06 390.15"/><path class="cls-30" d="M1228.71,396.21c-.75-5.45-8.42-9.95-15.62-9.95a18.22,18.22,0,0,0-2.58.18,1.09,1.09,0,0,0,0-.18c0-7.82-5.72-14.18-12.76-14.18q-.43,0-.84,0a28.21,28.21,0,0,0-23.86-12.91c-13.21,0-24.29,8.86-27.23,20.76-6.69,1.29-13.31,10.44-12.5,16.25Z"/><g id="yellow-tree12"><path class="cls-5" d="M1133.23,323.15c7.17.46,11,11.83,17,19.38a28.16,28.16,0,0,1,6.11,19.48c-.94,14.24-7.14,19.69-24.49,18.88-19.86-.93-23.46-11.58-24.2-21.51s5.64-15,7.81-20.11C1118.91,331.24,1128.22,322.82,1133.23,323.15Z"/><path class="cls-8" d="M1128.28,408.88a101.54,101.54,0,0,1,.55-13c.83-9.95-.36-25.46-.85-25.42a29.42,29.42,0,0,1-7-5.43c-3.86-4-2.57-6.07-2.57-6.32,2.41,2.89,1.61,2.59,4.8,4.69a7.94,7.94,0,0,0,5.32,1.66s.54,2.93-1.18-6.84c-1.83-10.39-1-19.44-.83-19.56s1.83,8.63,3.46,14.76c1,3.61,2,6,2.56,5.9.74-.14,2.37-2.06,3.29-4.58a22.66,22.66,0,0,0,1.07-5.48s1.92,2.59.19,7.71c-1.1,3.24-2.13,3.25-3.92,6.12,0,0,1.25,20.66.86,34.37a67.09,67.09,0,0,0,.64,11.06,14,14,0,0,1-2.79.71A25.63,25.63,0,0,1,1128.28,408.88Z"/></g><path class="cls-31" d="M1189.55,417.76c-.82-5.37-9.24-9.82-17.15-9.82a21.78,21.78,0,0,0-2.82.18v-.18a14,14,0,0,0-14-14c-.31,0-.61,0-.92,0-5.4-7.63-15.12-12.73-26.19-12.73-14.5,0-26.66,8.73-29.89,20.47-7.34,1.27-14.61,10.3-13.72,16Z"/><g id="yellow-tree13"><path class="cls-5" d="M290,373.09c11.36.74,17.43,18.75,26.93,30.71a44.56,44.56,0,0,1,9.69,30.86c-1.5,22.56-11.31,31.2-38.81,29.91-31.46-1.47-37.16-18.34-38.33-34.08s8.93-23.81,12.38-31.85C267.33,385.91,282.07,372.58,290,373.09Z"/><path class="cls-8" d="M285.32,516.49s-.37-5.77.87-20.59c1.32-15.77-.56-40.34-1.34-40.28A46.19,46.19,0,0,1,273.76,447c-6.11-6.33-4.07-9.6-4.07-10,3.82,4.58,2.55,4.11,7.61,7.43,3,2,4.42,2.59,8.42,2.63,0,0,.86,4.66-1.87-10.83-2.9-16.46-1.6-30.8-1.32-31s2.9,13.68,5.49,23.39c1.52,5.72,3.16,9.52,4.06,9.34,1.17-.22,3.75-3.26,5.21-7.25A36.26,36.26,0,0,0,299,422s3,4.09.3,12.2c-1.75,5.15-3.37,5.16-6.21,9.7,0,0,2,32.74,1.36,54.46a106.44,106.44,0,0,0,1,17.52,22.64,22.64,0,0,1-4.41,1.13A41.1,41.1,0,0,1,285.32,516.49Z"/></g><path class="cls-31" d="M235.1,550.55c-.82-5.37-9.24-9.82-17.15-9.82a21.78,21.78,0,0,0-2.82.18v-.18a14,14,0,0,0-14-14c-.31,0-.62,0-.92,0C194.8,519.15,185.08,514,174,514c-14.5,0-26.66,8.74-29.89,20.48-7.35,1.27-14.61,10.29-13.72,16Z"/><path class="cls-31" d="M178.06,506.5c-.67-3.86-7.57-7.06-14-7.06a22.08,22.08,0,0,0-2.32.13v-.13c0-5.54-5.14-10.05-11.47-10.05l-.75,0c-4.43-5.49-12.39-9.15-21.46-9.15-11.88,0-21.85,6.28-24.49,14.72-6,.91-12,7.4-11.24,11.52Z"/><rect class="cls-32" x="298.76" y="406.39" width="119.99" height="104.22"/><path class="cls-17" d="M490.6,411.47h9.79l-39.6-49-9.58,5.68Z"/><path class="cls-33" d="M454.68,364.49l-35.93,41.9V510.61h71.87V405.44Z"/><polygon class="cls-25" points="460.79 362.49 332.01 362.49 289.98 411.46 418.75 411.46 460.79 362.49"/><path class="cls-34" d="M352.14,465H365.4V483.7H352.14Zm-31.26,0h13.26V483.7H320.88Zm62.49,0h13.27V483.7H383.37Zm0-31.69h13.27V452H383.37Zm-31.23,0H365.4V452H352.14Zm-31.26,0h13.26V452H320.88Z"/><path class="cls-34" d="M444,465.58H466.6v45.13H444Zm5.66-32.1h11.32v18.71H449.61Zm0-29.7h11.32v18.71H449.61Z"/><g id="yellow-tree14"><path class="cls-5" d="M1430.45,372c9,.81,13.88,21.07,21.46,34.53,4.27,7.6,8.43,19.41,7.75,34.72-1.14,25.4-8.92,35.13-30.76,33.72-25-1.62-29.55-20.6-30.51-38.31-1-17.87,7-26.81,9.77-35.86C1412.46,386.43,1424.14,371.4,1430.45,372Z"/><path class="cls-6" d="M1428.65,500s-.35-4.9.77-17.5c1.2-13.4,2.42-17.16,1.69-17.11a42.66,42.66,0,0,1-10.23-7.29,29.12,29.12,0,0,1-7.57-13.64c3.52,3.88,6.15,8.63,10.82,11.44a12.16,12.16,0,0,0,7.77,2.22s-2.19-13.15-4.73-26.31c-2.7-14-1.53-26.16-1.26-26.33.49-.3,6.86,37,9.93,34.95,3.51-2.33,12.27-23.18,12.27-23.18a71.55,71.55,0,0,1-3.29,15.49c-1.61,4.38-5.75,10.27-8.35,14.13,0,0,1.1,19.29.56,37.74a82.81,82.81,0,0,0,1,14.89,21.88,21.88,0,0,1-4.07,1A41.28,41.28,0,0,1,1428.65,500Z"/></g><rect class="cls-23" x="1149.62" y="382.58" width="127.44" height="110.7"/><path class="cls-17" d="M1353.38,388h10.39l-42.06-52-10.17,6Z"/><path class="cls-24" d="M1315.23,338.08l-38.17,44.5v110.7h76.33V381.58Z"/><polygon class="cls-25" points="1321.71 335.96 1184.94 335.96 1140.29 387.97 1277.07 387.97 1321.71 335.96"/><path class="cls-26" d="M1239.48,444.83h14.09v19.86h-14.09Zm-33.17,0h14.09v19.86h-14.09Zm-33.2,0h14.09v19.86h-14.09Zm66.37-33.66h14.09V431h-14.09Zm-33.17,0h14.09V431h-14.09Zm-33.2,0h14.09V431h-14.09Z"/><path class="cls-27" d="M1303.82,445.45h24.06v47.93h-24.06Zm6-34.09h12v19.86h-12Zm0-31.55h12v19.87h-12Z"/><path class="cls-35" d="M577.19,347.34c2.68-6.43,10.3-5.78,13.52-2.26,9,9.85,15.63,80,14.93,86.67-1.18,11.39-4.83,14.25-10.43,16.84-3.08,1.42-12.57,2.37-19,.71-4.82-1.25-9.7-8.06-10.9-16.12C563.68,422,566.28,373.55,577.19,347.34Z"/><path class="cls-8" d="M581,476.09c0-.29.71-38.64.71-38.64l-6.41-5.22v-1.66l7.12,4.27.71-36h1.18l1.43,12.56,4.74-1.89.24,1.18-3.56,2.61.24,23.47,5.45-1.89.24,1.89-5.46,3.56v35.8S581,476.39,581,476.09Z"/><path class="cls-35" d="M1188,394.43c2.68-6.44,10.31-5.78,13.52-2.26,9,9.85,15.64,80,14.94,86.67-1.19,11.39-4.83,14.25-10.43,16.84-3.09,1.42-12.57,2.37-19,.71-4.82-1.25-9.71-8.06-10.91-16.12C1174.53,469.12,1177.14,420.64,1188,394.43Z"/><path class="cls-8" d="M1191.84,523.18c0-.29.71-38.65.71-38.65l-6.4-5.21v-1.66l7.11,4.27.71-36h1.19l1.42,12.56,4.74-1.89.24,1.18-3.56,2.61.24,23.47,5.45-1.89.24,1.89-5.45,3.56v35.8S1191.83,523.48,1191.84,523.18Z"/><path class="cls-36" d="M769.56,468.17,733.42,441l-36.87,27.31V573.62h73Z"/><polygon class="cls-17" points="733.42 413.14 733.42 441.31 769.56 468.17 769.56 440 733.42 413.14"/><polygon class="cls-18" points="733.42 413.14 733.42 441.31 696.4 468.82 696.4 440.65 733.42 413.14"/><path class="cls-26" d="M742.5,529.19H723.75v17.36H742.5Zm0-26.76H723.75v17.35H742.5Zm0-26.77H723.75V493H742.5Z"/><path class="cls-37" d="M306.79,480.8l-33.17-24.95-33.83,25.06v96.65h67Z"/><polygon class="cls-17" points="273.62 430.3 273.62 456.15 306.79 480.8 306.79 454.95 273.62 430.3"/><polygon class="cls-18" points="273.62 430.3 273.62 456.14 239.64 481.4 239.64 455.55 273.62 430.3"/><path class="cls-34" d="M282,536.8h-17.2v15.92H282Zm0-24.57h-17.2v15.93H282Zm0-24.56h-17.2V503.6H282Z"/><path class="cls-24" d="M1416.56,384.18l-32-24.09-32.66,24.19V477.6h64.68Z"/><polygon class="cls-17" points="1384.54 335.42 1384.54 360.38 1416.56 384.18 1416.56 359.22 1384.54 335.42"/><polygon class="cls-18" points="1384.54 335.42 1384.54 360.38 1351.74 384.75 1351.74 359.8 1384.54 335.42"/><path class="cls-27" d="M1392.59,438.24H1376v15.37h16.61Zm0-23.71H1376V429.9h16.61Zm0-23.72H1376v15.38h16.61Z"/><path class="cls-24" d="M1357.12,445.11,1321,417.92l-36.87,27.3V550.55h73Z"/><polygon class="cls-17" points="1320.98 390.07 1320.98 418.24 1357.12 445.11 1357.12 416.94 1320.98 390.07"/><polygon class="cls-18" points="1320.97 390.07 1320.97 418.24 1283.95 445.76 1283.95 417.59 1320.97 390.07"/><path class="cls-27" d="M1330.06,506.13h-18.75v17.35h18.75Zm0-26.77h-18.75v17.36h18.75Zm0-26.76h-18.75V470h18.75Z"/><path class="cls-35" d="M1365.63,393.89c2.68-6.43,10.3-5.77,13.52-2.26,9,9.85,15.63,80,14.93,86.68-1.18,11.38-4.83,14.25-10.43,16.83-3.08,1.42-12.57,2.37-19,.71-4.82-1.25-9.7-8.06-10.9-16.12C1352.12,468.59,1354.72,420.11,1365.63,393.89Z"/><path class="cls-8" d="M1369.43,522.65c0-.3.71-38.65.71-38.65l-6.41-5.22v-1.66l7.12,4.27.71-36h1.18l1.43,12.57,4.74-1.9.24,1.18-3.56,2.61.24,23.48,5.45-1.9.24,1.9-5.46,3.55v35.81S1369.42,522.94,1369.43,522.65Z"/><g id="yellow-tree15"><path class="cls-5" d="M1420.94,418.24c8.69,1.58,11.64,21.68,17.81,35.41,3.48,7.76,6.49,19.59,4.48,34.4-3.34,24.55-11.74,33.32-32.82,30-24.12-3.76-26.89-22.59-26.27-39.87.63-17.44,9.19-25.42,12.63-34C1402.2,430.71,1414.86,417.14,1420.94,418.24Z"/><path class="cls-6" d="M1408,542.4s.09-4.78,2.28-16.91c2.34-12.91,3.85-16.45,3.14-16.47a41.45,41.45,0,0,1-9.3-8,28.49,28.49,0,0,1-6.15-13.91c3.08,4.08,5.22,8.92,9.51,12.06a11.86,11.86,0,0,0,7.35,2.84s-1-13-2.29-26c-1.4-13.81.81-25.54,1.08-25.68.5-.25,3.43,36.52,6.58,34.81,3.61-2,13.95-21.43,13.95-21.43a69.42,69.42,0,0,1-4.56,14.75c-1.94,4.11-6.48,9.46-9.35,13,0,0-.61,18.83-2.76,36.7a81,81,0,0,0-.37,14.54,21.54,21.54,0,0,1-4,.58A39.72,39.72,0,0,1,1408,542.4Z"/></g><g id="yellow-tree16"><path class="cls-5" d="M676.46,414.25c9.11.55,14,13.84,21.59,22.68a31.18,31.18,0,0,1,7.76,22.78c-1.19,16.66-9.06,23-31.1,22.08-25.22-1.09-29.8-13.54-30.73-25.16s7.16-17.58,9.92-23.52C658.27,423.72,670.09,413.87,676.46,414.25Z"/><path class="cls-8" d="M670.16,514.53s-.3-4.26.7-15.2c1.06-11.65-.45-29.78-1.08-29.74a37.26,37.26,0,0,1-8.88-6.35c-4.9-4.68-3.27-7.1-3.27-7.4,3.06,3.38,2,3,6.1,5.49a10.63,10.63,0,0,0,6.75,1.94s.69,3.44-1.5-8c-2.32-12.16-1.28-22.74-1.05-22.89s2.32,10.11,4.39,17.27c1.22,4.22,2.54,7,3.26,6.9.94-.16,3-2.41,4.17-5.35a24.91,24.91,0,0,0,1.37-6.42s2.44,3,.23,9c-1.4,3.8-2.7,3.81-5,7.16,0,0,1.59,24.17,1.09,40.2a72.13,72.13,0,0,0,.81,12.94,19.06,19.06,0,0,1-3.54.83A35.35,35.35,0,0,1,670.16,514.53Z"/></g><path class="cls-31" d="M84.18,405.22c3.34-8,12.83-7.2,16.83-2.82,11.22,12.27,19.47,99.58,18.6,107.93-1.47,14.18-6,17.75-13,21-3.84,1.77-15.65,3-23.62.88-6-1.55-12.09-10-13.58-20.07C67.35,498.23,70.6,437.86,84.18,405.22Z"/><path class="cls-6" d="M86.87,564c0-.36.89-48.12.89-48.12l-8-6.5v-2.07l8.86,5.32.88-44.88H91l1.77,15.65,5.9-2.37.3,1.48-4.43,3.25.3,29.23,6.79-2.36.29,2.36-6.79,4.43V564S86.86,564.39,86.87,564Z"/><path class="cls-5" d="M939.87,493.38c1.32-12.34,15-22.55,27.75-22.55a25.66,25.66,0,0,1,4.58.41c0-.14,0-.27,0-.41,0-17.72,10.17-32.11,22.68-32.11a14.52,14.52,0,0,1,1.48.07c8.75-17.55,24.48-29.26,42.41-29.26,23.46,0,43.16,20.07,48.38,47,11.89,2.92,23.65,23.64,22.21,36.82Z"/><rect class="cls-38" x="1108.56" y="446.28" width="73.67" height="62.93"/><rect class="cls-39" x="1127.78" y="465.28" width="12.85" height="17.39"/><rect class="cls-39" x="1145.74" y="465.28" width="28.54" height="17.39"/><path class="cls-25" d="M1075.5,411.73,1101,425.55l1.44,24.19h-60.92Z"/><path class="cls-36" d="M1108.56,446.28l-30.17-31.83-29.55,31.83v62.93h59.72Z"/><path class="cls-26" d="M1089.44,465.28h-21v43.93h21Zm-6-28.7h-9v9.7h9Z"/><polygon class="cls-17" points="1075.49 411.73 1151.04 411.73 1187.08 449.74 1111.54 449.74 1075.49 411.73"/><rect class="cls-20" x="1129.17" y="403.09" width="13.57" height="24.19"/><path class="cls-25" d="M1129.17,403.09h-5.92L1123,421.6l6.17,5.68Z"/><rect class="cls-38" x="1268.51" y="469.94" width="73.67" height="62.93"/><rect class="cls-40" x="1287.73" y="488.95" width="12.85" height="17.39"/><rect class="cls-40" x="1305.69" y="488.95" width="28.54" height="17.39"/><path class="cls-25" d="M1235.44,435.39,1261,449.21l1.44,24.19h-60.91Z"/><path class="cls-36" d="M1268.51,469.94l-30.17-31.83-29.55,31.83v62.93h59.72Z"/><path class="cls-26" d="M1249.38,489h-21v43.92h21Zm-6-28.71h-9v9.7h9Z"/><polygon class="cls-17" points="1235.44 435.39 1310.98 435.39 1347.02 473.4 1271.48 473.4 1235.44 435.39"/><rect class="cls-20" x="1289.12" y="426.76" width="13.57" height="24.19"/><path class="cls-25" d="M1289.12,426.76h-5.93l-.24,18.5,6.17,5.68Z"/><path class="cls-17" d="M906.28,469.12l0-8.94s83.1.33,144.87.33l71.92,40.3-181.69-3.44Z"/><rect class="cls-32" x="906.26" y="465.82" width="144.87" height="124.15"/><path class="cls-34" d="M998.27,488.49h17.28V503H998.27Zm-35.56,0H980V503H962.71Zm-35.57,0h17.28V503H927.14Z"/><path class="cls-33" d="M1051.13,465.82l63.17,35,1.37,89.16h-64.54Z"/><path class="cls-17" d="M863.5,523.82l-.56-5.25s62.41.19,108.78.19l56.43,23.7-136.61-2Z"/><rect class="cls-32" x="866.42" y="523.8" width="105.02" height="66.18"/><path class="cls-33" d="M971.44,523.8l45.79,18.66,1,47.53H971.44Z"/><path class="cls-34" d="M993,572.62h12.53V590H993ZM995.32,553h8v7.84h-8ZM876.46,541.23h7.29V556.9h-7.29Z"/><path class="cls-17" d="M924.61,491.28v26.29H833l0-4Z"/><path class="cls-37" d="M924.6,497.29l-91.77,20.27-.41,81.3H924.6Z"/><path class="cls-34" d="M915.72,571.76H904.07V582h11.65Zm-22.59,0h-12V582h12ZM856,530.44h-7.58v20.69H856Z"/><path class="cls-17" d="M1194.54,468.68V495h-91.64l0-4Z"/><path class="cls-37" d="M1194.53,474.69,1102.76,495l-.41,81.3h92.18Z"/><path class="cls-34" d="M1185.66,549.16H1174v10.23h11.66Zm-22.6,0h-12v10.23h12Zm-37.12-41.32h-7.58v20.69h7.58Z"/><path class="cls-17" d="M205.69,443v26.29H114l0-4Z"/><path class="cls-37" d="M205.68,449l-91.77,20.28-.41,81.29h92.18Z"/><path class="cls-34" d="M196.8,523.45H185.15v10.24H196.8Zm-22.59,0h-12v10.24h12Zm-37.12-41.32h-7.58v20.69h7.58Z"/><rect class="cls-32" x="478.07" y="454.62" width="102.74" height="72.55"/><path class="cls-25" d="M592.44,462.24h-126l21.78-31.16h82.45Z"/><rect class="cls-41" x="495.52" y="420.56" width="12.64" height="14.19"/><rect class="cls-41" x="493.75" y="416.68" width="15.78" height="3.88"/><rect class="cls-32" x="1302.76" y="488.23" width="102.74" height="72.55"/><rect class="cls-42" x="1374.58" y="524.51" width="19.24" height="36.28"/><path class="cls-25" d="M1291.13,495.86h126l-21.77-31.17h-82.45Z"/><rect class="cls-41" x="1375.42" y="454.17" width="12.64" height="14.19"/><rect class="cls-41" x="1374.04" y="450.29" width="15.78" height="3.88"/><path class="cls-31" d="M599.87,390.06c3.34-8,12.83-7.2,16.83-2.82,11.22,12.27,19.48,99.58,18.61,107.93-1.48,14.17-6,17.75-13,21-3.83,1.77-15.65,3-23.62.88-6-1.55-12.08-10-13.58-20.08C583,483.07,586.29,422.7,599.87,390.06Z"/><path class="cls-6" d="M604.6,550.39c0-.37.88-48.13.88-48.13l-8-6.5V493.7l8.86,5.31.89-44.88h1.47l1.77,15.65,5.91-2.36.29,1.47-4.42,3.25.29,29.23,6.79-2.36.3,2.36-6.79,4.43v44.59S604.59,550.76,604.6,550.39Z"/><path class="cls-31" d="M559.65,426c2.91-7,11.2-6.28,14.69-2.46,9.8,10.71,17,87,16.25,94.25-1.29,12.38-5.26,15.5-11.35,18.31-3.35,1.55-13.66,2.58-20.63.77-5.24-1.35-10.55-8.77-11.86-17.53C545,507.18,547.78,454.46,559.65,426Z"/><path class="cls-6" d="M563.77,566c0-.32.77-42,.77-42l-7-5.67v-1.81l7.74,4.65.77-39.2h1.29l1.55,13.67,5.15-2.06.26,1.29-3.87,2.83.26,25.53,5.93-2.06.26,2.06L571,527V566S563.76,566.29,563.77,566Z"/><g id="yellow-tree17"><path class="cls-5" d="M220.2,451.86c8.94.82,13.71,20.9,21.19,34.24,4.21,7.53,8.32,19.24,7.61,34.4-1.17,25.15-8.89,34.77-30.52,33.33-24.74-1.64-29.23-20.44-30.14-38-.93-17.7,7-26.54,9.73-35.51C202.35,466.15,214,451.29,220.2,451.86Z"/><path class="cls-6" d="M218.19,578.66s-.34-4.85.8-17.32c1.2-13.27,2.42-17,1.7-16.94a42.51,42.51,0,0,1-10.12-7.25,28.94,28.94,0,0,1-7.48-13.52c3.49,3.85,6.08,8.56,10.7,11.35a12.07,12.07,0,0,0,7.7,2.21s-2.15-13-4.64-26.06c-2.65-13.85-1.47-25.91-1.21-26.08.49-.3,6.74,36.65,9.77,34.64,3.48-2.31,12.2-22.94,12.2-22.94a70.85,70.85,0,0,1-3.29,15.33c-1.6,4.33-5.71,10.16-8.3,14,0,0,1.07,19.1.5,37.38a82.35,82.35,0,0,0,.92,14.74,21.65,21.65,0,0,1-4,1A40.08,40.08,0,0,1,218.19,578.66Z"/></g><g id="yellow-tree18"><path class="cls-5" d="M46.48,439.94c10.53,1,16.16,24.63,25,40.36,5,8.88,9.81,22.68,9,40.56-1.38,29.64-10.48,41-36,39.3C15.28,558.22,10,536.05,8.91,515.37c-1.09-20.87,8.28-31.29,11.47-41.86C25.44,456.78,39.11,439.26,46.48,439.94Z"/><path class="cls-43" d="M43.09,589.42s-.4-5.71.94-20.42c1.42-15.64,2.85-20,2-20a50.19,50.19,0,0,1-11.94-8.54c-6.59-6.28-8.81-15.54-8.81-15.94,4.11,4.54,7.17,10.08,12.62,13.38A14.27,14.27,0,0,0,47,540.54s-2.54-15.37-5.48-30.73c-3.12-16.33-1.72-30.55-1.41-30.74.57-.36,7.94,43.2,11.52,40.83,4.1-2.72,14.38-27,14.38-27a83.54,83.54,0,0,1-3.88,18.08c-1.88,5.11-6.73,12-9.78,16.48,0,0,1.25,22.53.58,44.07A97.89,97.89,0,0,0,54,588.86,25.23,25.23,0,0,1,49.24,590,47.57,47.57,0,0,1,43.09,589.42Z"/></g><path class="cls-31" d="M1273.54,429.5c3.33-8,12.82-7.2,16.83-2.82,11.22,12.27,19.47,99.58,18.6,107.93-1.48,14.17-6,17.75-13,21-3.84,1.77-15.65,2.95-23.62.88-6-1.55-12.09-10-13.59-20.08C1256.71,522.51,1260,462.14,1273.54,429.5Z"/><path class="cls-6" d="M1278.26,589.83c0-.37.89-48.13.89-48.13l-8-6.5v-2.06l8.85,5.31.89-44.88h1.48l1.77,15.65,5.9-2.36.3,1.47-4.43,3.25.29,29.23,6.8-2.36.29,2.36-6.79,4.43v44.59S1278.25,590.2,1278.26,589.83Z"/><path class="cls-31" d="M1233.25,592.14c2.08-11.35,24.09-7.39,44.17-7.39a67.64,67.64,0,0,1,7.18.38c0-.13,0-.25,0-.38,0-16.29,16-29.52,35.58-29.52.79,0,1.57,0,2.33.06,13.74-16.13,38.41-26.9,66.54-26.9,36.82,0,67.72,18.46,75.92,43.24,33.25-3.22,35,18.27,35,18.27l-4.53,2.46Z"/><path class="cls-31" d="M0,590.52c1-11.84,9.8-18.65,23.79-16.76-4.43-2.41-4.3-6.82-2.14-10.57,4-7,21.55-11.35,35.44-6.92,6.37-13.84,30.66-20.6,48.65-14.3,6.6-6.14,18.26-10.23,31.54-10.23,20.56,0,37.25,9.79,37.25,21.85h.17c11.67,0,21.46,5.4,24.22,12.6,33.83,2.75,56.85,16.95,56.85,26.77Z"/><rect class="cls-42" x="167.81" y="547.73" width="129.5" height="46.85"/><rect class="cls-44" x="182.31" y="558.36" width="56.64" height="31.81"/><rect class="cls-45" x="185.42" y="561.72" width="49.65" height="28.45"/><path class="cls-34" d="M235.07,587.38H185.42v1h49.65Zm0-2.66H185.42v1.06h49.65Zm0-2.66H185.42v1.06h49.65Zm0-2.66H185.42v1.06h49.65Zm0-2.66H185.42v1.06h49.65Zm0-2.66H185.42v1.06h49.65Zm0-2.66H185.42v1.06h49.65Zm0-2.66H185.42v1.06h49.65Zm0-2.65H185.42v1h49.65Zm0-2.67H185.42v1.07h49.65Z"/><rect class="cls-42" x="857.1" y="550.55" width="129.5" height="46.85"/><rect class="cls-44" x="915.47" y="561.17" width="56.64" height="31.81"/><rect class="cls-45" x="919.35" y="564.54" width="49.65" height="28.45"/><path class="cls-34" d="M919.35,590.2H969v1H919.35Zm0-2.67H969v1.07H919.35Zm0-2.65H969v1.06H919.35Zm0-2.66H969v1.06H919.35Zm0-2.66H969v1.06H919.35Zm0-2.66H969V578H919.35Zm0-2.66H969v1.06H919.35Zm0-2.66H969v1.06H919.35Zm0-2.66H969V570H919.35Zm0-2.66H969v1.07H919.35Z"/><rect class="cls-44" x="873.76" y="547.48" width="114.11" height="5.35"/><path class="cls-46" d="M1078.7,542.72l-.41-3.91s46.45.14,81,.14l42,17.64-101.67-1.51Z"/><rect class="cls-47" x="1080.88" y="542.71" width="78.16" height="49.26"/><rect class="cls-45" x="1088.35" y="555.67" width="5.42" height="11.66"/><path class="cls-34" d="M1159,542.7l34.08,13.89.74,35.37H1159Z"/><rect class="cls-48" x="1175.12" y="579.04" width="9.32" height="12.93"/><rect class="cls-45" x="1163.77" y="579.04" width="5.94" height="5.83"/><rect class="cls-47" x="1029.51" y="567.33" width="53.86" height="24.63"/><rect class="cls-44" x="1027.7" y="564.3" width="53.17" height="3.03"/><rect class="cls-42" x="555.78" y="550.55" width="29.67" height="42.11"/><rect class="cls-44" x="162.34" y="544.91" width="134.97" height="5.64"/><rect class="cls-44" x="558.27" y="548.74" width="24.24" height="2.91"/><rect class="cls-42" x="292.15" y="529.6" width="98.08" height="69.26"/><rect class="cls-45" x="305.73" y="549.17" width="13.51" height="13.81"/><rect class="cls-45" x="333.27" y="549.17" width="13.51" height="13.81"/><rect class="cls-45" x="305.73" y="572.3" width="13.51" height="13.81"/><rect class="cls-45" x="333.27" y="572.3" width="13.51" height="13.81"/><rect class="cls-42" x="360.71" y="564.23" width="18.37" height="34.63"/><path class="cls-46" d="M281.05,536.88H401.33l-20.79-29.75h-78.7Z"/><rect class="cls-44" x="361.51" y="497.08" width="12.06" height="13.54"/><rect class="cls-44" x="360.19" y="493.38" width="15.07" height="3.7"/><rect class="cls-42" x="1190.7" y="535.37" width="90.11" height="63.63"/><rect class="cls-45" x="1203.18" y="553.35" width="12.41" height="12.69"/><rect class="cls-45" x="1228.47" y="553.35" width="12.41" height="12.69"/><rect class="cls-45" x="1203.18" y="574.6" width="12.41" height="12.69"/><rect class="cls-45" x="1228.47" y="574.6" width="12.41" height="12.69"/><rect class="cls-42" x="1253.68" y="567.19" width="16.88" height="31.82"/><path class="cls-46" d="M1180.5,542.06H1291l-19.1-27.33H1199.6Z"/><rect class="cls-44" x="1254.42" y="505.5" width="11.08" height="12.44"/><rect class="cls-44" x="1253.21" y="502.1" width="13.84" height="3.4"/><rect class="cls-42" x="680.3" y="526.55" width="89.83" height="63.44"/><rect class="cls-42" x="743.1" y="558.27" width="16.82" height="31.72"/><path class="cls-46" d="M670.13,533.22H780.3l-19-27.25H689.17Z"/><rect class="cls-44" x="743.83" y="496.77" width="11.05" height="12.4"/><rect class="cls-44" x="742.62" y="493.38" width="13.8" height="3.39"/><path class="cls-46" d="M737.63,556.55H733s22.76-32.3,22.84-32.19,4.22,2.91,4.22,2.91S736.76,556.71,737.63,556.55Z"/><path class="cls-8" d="M737.62,590V554.55l21.14-30.19,21.14,30.19V590Z"/><rect class="cls-42" x="778.17" y="554.56" width="102" height="35.43"/><rect class="cls-45" x="791.68" y="565.08" width="5.2" height="10.47"/><rect class="cls-45" x="809.13" y="565.08" width="5.2" height="10.47"/><rect class="cls-45" x="826.58" y="565.08" width="5.2" height="10.47"/><rect class="cls-45" x="844.02" y="565.08" width="5.2" height="10.47"/><rect class="cls-45" x="861.47" y="565.08" width="5.2" height="10.47"/><polygon class="cls-46" points="755.82 524.37 862.52 524.37 884.88 556.55 778.17 556.55 755.82 524.37"/><path class="cls-46" d="M528.75,500v-6.65s-61.85.24-107.82.24l-53.52,30,135.22-2.56Z"/><rect class="cls-42" x="420.94" y="497.58" width="107.82" height="92.4"/><rect class="cls-45" x="447.43" y="514.45" width="12.86" height="10.77"/><rect class="cls-45" x="473.89" y="514.45" width="12.86" height="10.77"/><rect class="cls-45" x="500.36" y="514.45" width="12.86" height="10.77"/><path class="cls-8" d="M420.94,497.58l-47,26-1,66.35h48Z"/><path class="cls-46" d="M560.59,540.74l.41-3.91s-46.45.15-81,.15l-42,17.63,101.68-1.5Z"/><rect class="cls-42" x="480.25" y="540.73" width="78.16" height="49.26"/><rect class="cls-45" x="545.52" y="553.7" width="5.42" height="11.66"/><path class="cls-8" d="M480.25,540.73l-34.08,13.88L445.43,590h34.82Z"/><rect class="cls-48" x="454.85" y="577.06" width="9.32" height="12.93"/><rect class="cls-45" x="469.58" y="577.06" width="5.94" height="5.83"/><path class="cls-46" d="M667.85,458.38l24.88,26.14v10.71H576.51v-8.82Z"/><path class="cls-34" d="M692.73,490.42l-26.45-27.31-89.77,27.31V598.86H692.73Z"/><rect class="cls-45" x="599.97" y="505.34" width="12.57" height="11.95"/><rect class="cls-45" x="627.7" y="505.34" width="12.73" height="11.95"/><rect class="cls-45" x="604.22" y="550" width="16.65" height="18.28"/><rect class="cls-45" x="642.97" y="549.72" width="28.03" height="49.13"/></g><g id="front-line"><rect class="cls-49" y="589.94" width="1500" height="18.8"/></g></g></g></svg>