<svg xmlns="http://www.w3.org/2000/svg" viewBox="0 0 1500.08 608.74"><defs><style>.cls-1{fill:#98a2cf;}.cls-1,.cls-15,.cls-2,.cls-21,.cls-27,.cls-28,.cls-29,.cls-3,.cls-30,.cls-31,.cls-32,.cls-33{fill-rule:evenodd;}.cls-2{fill:#ccbeda;}.cls-3{fill:#68d9ea;}.cls-4{fill:#aae6ef;}.cls-5{fill:#caf0f5;}.cls-6{fill:#8ee2ed;}.cls-7{fill:#5ad3e6;}.cls-15,.cls-8{fill:#3ca1b5;}.cls-9{fill:#80e6f5;}.cls-10{fill:#b5eaf7;}.cls-11{fill:#b3e9f6;}.cls-12,.cls-21{fill:#3695b2;}.cls-13{fill:#01587e;}.cls-14{fill:#207c8f;}.cls-16{fill:#015478;}.cls-17{fill:#01354b;}.cls-18{fill:#84c8d1;}.cls-19{fill:#76bfc8;}.cls-20{fill:#8edbed;}.cls-22{fill:#012636;}.cls-23{fill:#87afab;}.cls-24{fill:#6d9e9a;}.cls-25,.cls-27{fill:#310225;}.cls-26,.cls-28{fill:#3a002d;}.cls-29{fill:#393612;}.cls-30{fill:#361b0e;}.cls-31{fill:#212009;}.cls-32{fill:#403b14;}.cls-33{fill:#391f0c;}.cls-34{fill:#62375a;}.cls-35{fill:#1f0017;}</style></defs><g id="Layer_2" data-name="Layer 2"><g id="Layer_1-2" data-name="Layer 1"><g id="clouds13"><g id="big-cloud"><path class="cls-1" d="M1198.5,99.72C1180,42.3,1117.51,0,1043.33,0c-61.08,0-96,23.23-123.21,65.42-6.07-2.19-24.78-4.47-48.68,3.52C839.81,79.53,821,97.73,821,135c0,11.33-.12,14,4.39,23.42-103.3-39.44-178.14,7.84-205.22,43.44-12.28,16.15-12.82,38.91-11.08,42.26-36.81-31.32-107.48-13.9-107.45,37.1a60.47,60.47,0,0,0,.69,9c.45,3.13,14.1,13.4,10.64,14.17-13.48,3-48,7-188.38,22.77-33.36,3.75-124.88,14.42-152.24,25-68,26.35-99.48,109.5-36.82,161.34,27.2,22.48,62.88-1.15,74.34-1.26,211-1.85,1130.28-15.81,1164.47-15.18,95.35,1.75,96.28-121.39,80.82-154.8-14.08-30.42-59.13-72.72-114.79-74.47-6-.17-11.86,1.24-7.54-1.54,21.94-14.14,2.86-80.6-63.19-63.76-.78.2,0-.7,0-.7C1269.31,153.88,1239.48,113.36,1198.5,99.72Z"/></g><g id="big-cloud1"><path class="cls-2" d="M1190,157.94C1174.11,110.2,1120.32,75,1056.49,75c-52.56,0-82.63,19.32-106,54.4-5.23-1.82-21.32-3.71-41.88,2.93-27.22,8.8-43.44,23.94-43.44,54.92,0,9.42-.11,11.67,3.77,19.47-88.88-32.8-153.28,6.53-176.58,36.13-10.56,13.43-11,32.36-9.53,35.13-33.48-27.51-97.54-15-90.18,33.67.4,2.6,12.15,11.14,9.17,11.78-11.6,2.47-131.8,17.12-252.62,30.22-28.72,3.11-87.44,7.53-110.62,32.67-12.3,13.33-5.42,35.45,10.44,50.86,6.15,6,50.3-1.15,60.14-1.23,181.58-1.54,1009.23-3.26,1038.51-6.07,66.76-6.41,55.32-83.18,38.72-101-12.58-13.53-26.43-29.72-74.32-31.18-5.13-.15-10.2,1-6.49-1.28,18.88-11.76,2.46-67-54.38-53-.67.17,0-.57,0-.57C1250.94,203,1225.27,169.29,1190,157.94Z"/></g></g><path class="cls-3" d="M1282.56,315.91h20.07V306h14v10h6.12V306H1329v10h29.8v146.9h36.6v-8.55h21.17v8.55H1432v52.94h19.37v82.3H1409v1.82H224.94v-1.82H172v1.82H95.81V507H123V474h7.78V460.82h12.54V474H172V414.65h52.93V405.3h21.24v9.35h5v12.66h90.38V341.65h82.64v148.2h117V462.17h-71.2V288.47h9.08V272.06h11.58v16.41h6.56V272.06h11.28v16.41h32.7V246.68h5V241h34v5.69h9.41v62.06h32.58V261.25h14.39V246.68h44.68V231.83h11.35v14.85h7.31v14.57h13.42v33.11h52.23V489.85h77.13V245.19H984V489.85h292.85v-7.29H1174.48V262.76H1196v-7h70.17v7h16.4Z"/><g id="_05" data-name=" 05"><rect class="cls-4" x="1149.75" y="188.62" width="55.22" height="22.38"/><rect class="cls-5" x="1093.46" y="188.66" width="57.85" height="22.37"/><rect class="cls-4" x="1151.83" y="199.39" width="69.75" height="224.73"/><rect class="cls-5" x="1080.86" y="199.27" width="73.01" height="225.22"/><rect class="cls-6" x="1079.38" y="220.07" width="74.42" height="10.86"/><rect class="cls-6" x="1079.38" y="272.06" width="74.42" height="10.86"/><rect class="cls-6" x="1079.38" y="331.14" width="74.42" height="10.86"/><rect class="cls-7" x="1153.87" y="220.07" width="67.71" height="10.86"/><rect class="cls-7" x="1153.86" y="272.06" width="66.27" height="10.86"/><rect class="cls-7" x="1153.86" y="331.14" width="66.27" height="10.86"/><rect class="cls-4" x="843.34" y="221.53" width="46.29" height="18.76"/><rect class="cls-5" x="796.16" y="221.57" width="48.49" height="18.75"/><rect class="cls-4" x="845.09" y="230.56" width="58.47" height="188.38"/><rect class="cls-5" x="785.6" y="230.46" width="61.2" height="188.79"/><rect class="cls-6" x="784.36" y="247.9" width="62.38" height="9.1"/><rect class="cls-6" x="784.36" y="291.48" width="62.38" height="9.1"/><rect class="cls-6" x="784.36" y="341" width="62.38" height="9.1"/><rect class="cls-7" x="846.79" y="247.9" width="56.76" height="9.1"/><rect class="cls-7" x="846.79" y="291.48" width="55.55" height="9.1"/><rect class="cls-7" x="846.79" y="341" width="55.55" height="9.1"/><rect class="cls-4" x="964.13" y="155.32" width="74.06" height="238.37"/><rect class="cls-5" x="894.69" y="155.32" width="72.66" height="238.37"/><rect class="cls-6" x="899.39" y="178.55" width="64.74" height="11.62"/><rect class="cls-6" x="899.39" y="198.92" width="64.74" height="11.62"/><rect class="cls-6" x="899.39" y="219.28" width="64.74" height="11.62"/><rect class="cls-6" x="899.39" y="239.65" width="64.74" height="11.62"/><rect class="cls-6" x="899.39" y="260.02" width="64.74" height="11.62"/><rect class="cls-6" x="899.39" y="280.39" width="64.74" height="11.62"/><rect class="cls-6" x="899.39" y="300.75" width="64.74" height="11.62"/><rect class="cls-6" x="899.39" y="321.12" width="64.74" height="11.62"/><rect class="cls-6" x="899.39" y="341.49" width="64.74" height="11.62"/><rect class="cls-6" x="899.39" y="361.85" width="64.74" height="11.62"/><rect class="cls-7" x="973.76" y="178.55" width="61.24" height="11.62"/><rect class="cls-7" x="973.76" y="198.92" width="61.24" height="11.62"/><rect class="cls-7" x="973.76" y="219.28" width="61.24" height="11.62"/><rect class="cls-7" x="973.76" y="239.65" width="61.24" height="11.62"/><rect class="cls-7" x="973.76" y="260.02" width="61.24" height="11.62"/><rect class="cls-7" x="973.76" y="280.39" width="61.24" height="11.62"/><rect class="cls-7" x="973.76" y="300.75" width="61.24" height="11.62"/><rect class="cls-7" x="973.76" y="321.12" width="61.24" height="11.62"/><rect class="cls-7" x="973.76" y="341.49" width="61.24" height="11.62"/><rect class="cls-7" x="973.76" y="361.85" width="61.24" height="11.62"/><rect class="cls-8" x="1062.21" y="245.46" width="74.06" height="238.37"/><rect class="cls-9" x="992.77" y="245.46" width="72.66" height="238.37"/><rect class="cls-10" x="997.47" y="268.69" width="64.74" height="11.62"/><rect class="cls-10" x="997.47" y="289.06" width="64.74" height="11.62"/><rect class="cls-10" x="997.47" y="309.42" width="64.74" height="11.62"/><rect class="cls-10" x="997.47" y="329.79" width="64.74" height="11.62"/><rect class="cls-10" x="997.47" y="350.16" width="64.74" height="11.62"/><rect class="cls-10" x="997.47" y="370.53" width="64.74" height="11.62"/><rect class="cls-10" x="997.47" y="390.89" width="64.74" height="11.62"/><rect class="cls-10" x="997.47" y="411.26" width="64.74" height="11.62"/><rect class="cls-10" x="997.47" y="431.63" width="64.74" height="11.62"/><rect class="cls-10" x="997.47" y="452" width="64.74" height="11.62"/><rect class="cls-11" x="1071.84" y="268.69" width="61.24" height="11.62"/><rect class="cls-11" x="1071.84" y="289.06" width="61.24" height="11.62"/><rect class="cls-11" x="1071.84" y="309.42" width="61.24" height="11.62"/><rect class="cls-11" x="1071.84" y="329.79" width="61.24" height="11.62"/><rect class="cls-11" x="1071.84" y="350.16" width="61.24" height="11.62"/><rect class="cls-11" x="1071.84" y="370.53" width="61.24" height="11.62"/><rect class="cls-11" x="1071.84" y="390.89" width="61.24" height="11.62"/><rect class="cls-11" x="1071.84" y="411.26" width="61.24" height="11.62"/><rect class="cls-11" x="1071.84" y="431.63" width="61.24" height="11.62"/><rect class="cls-11" x="1071.84" y="452" width="61.24" height="11.62"/><rect class="cls-12" x="406.51" y="315.37" width="82.79" height="30.29"/><rect class="cls-12" x="396.86" y="333.17" width="100.38" height="242.42"/><rect class="cls-13" x="396.86" y="422.33" width="100.38" height="8.01"/><rect class="cls-13" x="396.86" y="442.6" width="100.38" height="8.01"/><rect class="cls-13" x="396.86" y="462.3" width="100.38" height="8.01"/><rect class="cls-13" x="397.24" y="400.55" width="100.01" height="8.01"/><rect class="cls-13" x="396.92" y="378.76" width="100.31" height="8.01"/><rect class="cls-13" x="397.4" y="356.98" width="99.83" height="8.01"/><rect class="cls-13" x="396.86" y="333.17" width="100.38" height="10.25"/><rect class="cls-8" x="911.25" y="272.12" width="85.1" height="31.14"/><rect class="cls-8" x="901.33" y="290.41" width="103.19" height="249.2"/><rect class="cls-11" x="901.33" y="382.07" width="103.19" height="8.23"/><rect class="cls-11" x="901.33" y="402.91" width="103.19" height="8.23"/><rect class="cls-11" x="901.33" y="423.15" width="103.19" height="8.23"/><rect class="cls-11" x="901.72" y="359.68" width="102.8" height="8.23"/><rect class="cls-11" x="901.4" y="337.29" width="103.11" height="8.23"/><rect class="cls-11" x="901.88" y="314.89" width="102.62" height="8.23"/><rect class="cls-14" x="901.33" y="290.41" width="103.19" height="10.54"/><rect class="cls-9" x="1170.85" y="284.57" width="60.99" height="19.45"/><rect class="cls-8" x="1231.84" y="284.57" width="30.65" height="17.52"/><rect class="cls-9" x="1152.86" y="299.54" width="89.33" height="211.1"/><path class="cls-15" d="M1241.07,299.53h39.46l-.15,211.1h-39.31Z"/><rect class="cls-8" x="1152.86" y="299.53" width="88.24" height="7.37"/><rect class="cls-14" x="1241.1" y="299.53" width="39.39" height="7.37"/><rect class="cls-11" x="1271.19" y="314.99" width="6.06" height="9.84"/><rect class="cls-11" x="1192.27" y="314.99" width="10.52" height="9.84"/><rect class="cls-11" x="1209.74" y="314.99" width="10.52" height="9.84"/><rect class="cls-11" x="1227.21" y="314.99" width="10.52" height="9.84"/><rect class="cls-11" x="1174.79" y="314.99" width="10.52" height="9.84"/><rect class="cls-11" x="1157.32" y="314.99" width="10.52" height="9.84"/><rect class="cls-11" x="1271" y="329.79" width="6.06" height="9.84"/><rect class="cls-11" x="1192.08" y="329.79" width="10.52" height="9.84"/><rect class="cls-11" x="1209.55" y="329.79" width="10.52" height="9.84"/><rect class="cls-11" x="1227.03" y="329.79" width="10.52" height="9.84"/><rect class="cls-11" x="1174.61" y="329.79" width="10.52" height="9.84"/><rect class="cls-11" x="1157.13" y="329.79" width="10.52" height="9.84"/><rect class="cls-11" x="1271" y="345.5" width="6.06" height="9.84"/><rect class="cls-11" x="1192.08" y="345.5" width="10.52" height="9.84"/><rect class="cls-11" x="1209.55" y="345.5" width="10.52" height="9.84"/><rect class="cls-11" x="1227.03" y="345.5" width="10.52" height="9.84"/><rect class="cls-11" x="1174.61" y="345.5" width="10.52" height="9.84"/><rect class="cls-11" x="1157.13" y="345.5" width="10.52" height="9.84"/><rect class="cls-11" x="1271.19" y="361.55" width="6.06" height="9.84"/><rect class="cls-11" x="1192.27" y="361.55" width="10.52" height="9.84"/><rect class="cls-11" x="1209.74" y="361.55" width="10.52" height="9.84"/><rect class="cls-11" x="1227.21" y="361.55" width="10.52" height="9.84"/><rect class="cls-11" x="1174.79" y="361.55" width="10.52" height="9.84"/><rect class="cls-11" x="1157.32" y="361.55" width="10.52" height="9.84"/><rect class="cls-11" x="1271.19" y="376.89" width="6.06" height="9.84"/><rect class="cls-11" x="1192.27" y="376.89" width="10.52" height="9.84"/><rect class="cls-11" x="1209.74" y="376.89" width="10.52" height="9.84"/><rect class="cls-11" x="1227.21" y="376.89" width="10.52" height="9.84"/><rect class="cls-11" x="1174.79" y="376.89" width="10.52" height="9.84"/><rect class="cls-11" x="1157.32" y="376.89" width="10.52" height="9.84"/><rect class="cls-11" x="1271" y="391.69" width="6.06" height="9.84"/><rect class="cls-11" x="1192.08" y="391.69" width="10.52" height="9.84"/><rect class="cls-11" x="1209.55" y="391.69" width="10.52" height="9.84"/><rect class="cls-11" x="1227.03" y="391.69" width="10.52" height="9.84"/><rect class="cls-11" x="1174.61" y="391.69" width="10.52" height="9.84"/><rect class="cls-11" x="1157.13" y="391.69" width="10.52" height="9.84"/><rect class="cls-11" x="1271" y="407.39" width="6.06" height="9.84"/><rect class="cls-11" x="1192.08" y="407.39" width="10.52" height="9.84"/><rect class="cls-11" x="1209.55" y="407.39" width="10.52" height="9.84"/><rect class="cls-11" x="1227.03" y="407.39" width="10.52" height="9.84"/><rect class="cls-11" x="1174.61" y="407.39" width="10.52" height="9.84"/><rect class="cls-11" x="1157.13" y="407.39" width="10.52" height="9.84"/><rect class="cls-11" x="1271.19" y="423.44" width="6.06" height="9.84"/><rect class="cls-11" x="1192.27" y="423.44" width="10.52" height="9.84"/><rect class="cls-11" x="1209.74" y="423.44" width="10.52" height="9.84"/><rect class="cls-11" x="1227.21" y="423.44" width="10.52" height="9.84"/><rect class="cls-11" x="1174.79" y="423.44" width="10.52" height="9.84"/><rect class="cls-11" x="1157.32" y="423.44" width="10.52" height="9.84"/><rect class="cls-11" x="1270.82" y="439.11" width="6.06" height="9.84"/><rect class="cls-11" x="1191.89" y="439.11" width="10.52" height="9.84"/><rect class="cls-11" x="1209.37" y="439.11" width="10.52" height="9.84"/><rect class="cls-11" x="1226.84" y="439.11" width="10.52" height="9.84"/><rect class="cls-11" x="1174.42" y="439.11" width="10.52" height="9.84"/><rect class="cls-11" x="1156.95" y="439.11" width="10.52" height="9.84"/><rect class="cls-11" x="1271" y="455.16" width="6.06" height="9.84"/><rect class="cls-11" x="1192.08" y="455.16" width="10.52" height="9.84"/><rect class="cls-11" x="1209.55" y="455.16" width="10.52" height="9.84"/><rect class="cls-11" x="1227.03" y="455.16" width="10.52" height="9.84"/><rect class="cls-11" x="1174.61" y="455.16" width="10.52" height="9.84"/><rect class="cls-11" x="1157.13" y="455.16" width="10.52" height="9.84"/><rect class="cls-11" x="1271.19" y="469.9" width="6.06" height="9.84"/><rect class="cls-11" x="1192.27" y="469.9" width="10.52" height="9.84"/><rect class="cls-11" x="1209.74" y="469.9" width="10.52" height="9.84"/><rect class="cls-11" x="1227.21" y="469.9" width="10.52" height="9.84"/><rect class="cls-11" x="1174.79" y="469.9" width="10.52" height="9.84"/><rect class="cls-11" x="1157.32" y="469.9" width="10.52" height="9.84"/><rect class="cls-11" x="1271.38" y="485.95" width="6.06" height="9.84"/><rect class="cls-11" x="1192.45" y="485.95" width="10.52" height="9.84"/><rect class="cls-11" x="1209.93" y="485.95" width="10.52" height="9.84"/><rect class="cls-11" x="1227.4" y="485.95" width="10.52" height="9.84"/><rect class="cls-11" x="1174.98" y="485.95" width="10.52" height="9.84"/><rect class="cls-11" x="1157.51" y="485.95" width="10.52" height="9.84"/><rect class="cls-9" x="581.27" y="302.29" width="60.99" height="19.45"/><rect class="cls-8" x="642.26" y="302.29" width="30.65" height="17.52"/><rect class="cls-9" x="563.28" y="317.26" width="89.33" height="211.1"/><path class="cls-15" d="M651.5,317.26H691l-.15,211.1H651.5Z"/><rect class="cls-8" x="563.29" y="317.26" width="88.24" height="7.37"/><rect class="cls-14" x="651.52" y="317.26" width="39.39" height="7.37"/><rect class="cls-11" x="681.61" y="332.72" width="6.06" height="9.84"/><rect class="cls-11" x="602.69" y="332.72" width="10.52" height="9.84"/><rect class="cls-11" x="620.16" y="332.72" width="10.52" height="9.84"/><rect class="cls-11" x="637.63" y="332.72" width="10.52" height="9.84"/><rect class="cls-11" x="585.21" y="332.72" width="10.52" height="9.84"/><rect class="cls-11" x="567.74" y="332.72" width="10.52" height="9.84"/><rect class="cls-11" x="681.43" y="347.52" width="6.06" height="9.84"/><rect class="cls-11" x="602.5" y="347.52" width="10.52" height="9.84"/><rect class="cls-11" x="619.97" y="347.52" width="10.52" height="9.84"/><rect class="cls-11" x="637.45" y="347.52" width="10.52" height="9.84"/><rect class="cls-11" x="585.03" y="347.52" width="10.52" height="9.84"/><rect class="cls-11" x="567.56" y="347.52" width="10.52" height="9.84"/><rect class="cls-11" x="681.43" y="363.23" width="6.06" height="9.84"/><rect class="cls-11" x="602.5" y="363.23" width="10.52" height="9.84"/><rect class="cls-11" x="619.97" y="363.23" width="10.52" height="9.84"/><rect class="cls-11" x="637.45" y="363.23" width="10.52" height="9.84"/><rect class="cls-11" x="585.03" y="363.23" width="10.52" height="9.84"/><rect class="cls-11" x="567.56" y="363.23" width="10.52" height="9.84"/><rect class="cls-11" x="681.61" y="379.27" width="6.06" height="9.84"/><rect class="cls-11" x="602.69" y="379.27" width="10.52" height="9.84"/><rect class="cls-11" x="620.16" y="379.27" width="10.52" height="9.84"/><rect class="cls-11" x="637.63" y="379.27" width="10.52" height="9.84"/><rect class="cls-11" x="585.21" y="379.27" width="10.52" height="9.84"/><rect class="cls-11" x="567.74" y="379.27" width="10.52" height="9.84"/><rect class="cls-11" x="681.61" y="394.61" width="6.06" height="9.84"/><rect class="cls-11" x="602.69" y="394.61" width="10.52" height="9.84"/><rect class="cls-11" x="620.16" y="394.61" width="10.52" height="9.84"/><rect class="cls-11" x="637.63" y="394.61" width="10.52" height="9.84"/><rect class="cls-11" x="585.21" y="394.61" width="10.52" height="9.84"/><rect class="cls-11" x="567.74" y="394.61" width="10.52" height="9.84"/><rect class="cls-11" x="681.43" y="409.41" width="6.06" height="9.84"/><rect class="cls-11" x="602.5" y="409.41" width="10.52" height="9.84"/><rect class="cls-11" x="619.97" y="409.41" width="10.52" height="9.84"/><rect class="cls-11" x="637.45" y="409.41" width="10.52" height="9.84"/><rect class="cls-11" x="585.03" y="409.41" width="10.52" height="9.84"/><rect class="cls-11" x="567.56" y="409.41" width="10.52" height="9.84"/><rect class="cls-11" x="681.43" y="425.12" width="6.06" height="9.84"/><rect class="cls-11" x="602.5" y="425.12" width="10.52" height="9.84"/><rect class="cls-11" x="619.97" y="425.12" width="10.52" height="9.84"/><rect class="cls-11" x="637.45" y="425.12" width="10.52" height="9.84"/><rect class="cls-11" x="585.03" y="425.12" width="10.52" height="9.84"/><rect class="cls-11" x="567.56" y="425.12" width="10.52" height="9.84"/><rect class="cls-11" x="681.61" y="441.17" width="6.06" height="9.84"/><rect class="cls-11" x="602.69" y="441.17" width="10.52" height="9.84"/><rect class="cls-11" x="620.16" y="441.17" width="10.52" height="9.84"/><rect class="cls-11" x="637.63" y="441.17" width="10.52" height="9.84"/><rect class="cls-11" x="585.21" y="441.17" width="10.52" height="9.84"/><rect class="cls-11" x="567.74" y="441.17" width="10.52" height="9.84"/><rect class="cls-11" x="681.24" y="456.84" width="6.06" height="9.84"/><rect class="cls-11" x="602.31" y="456.84" width="10.52" height="9.84"/><rect class="cls-11" x="619.79" y="456.84" width="10.52" height="9.84"/><rect class="cls-11" x="637.26" y="456.84" width="10.52" height="9.84"/><rect class="cls-11" x="584.84" y="456.84" width="10.52" height="9.84"/><rect class="cls-11" x="567.37" y="456.84" width="10.52" height="9.84"/><rect class="cls-11" x="681.43" y="472.89" width="6.06" height="9.84"/><rect class="cls-11" x="602.5" y="472.89" width="10.52" height="9.84"/><rect class="cls-11" x="619.97" y="472.89" width="10.52" height="9.84"/><rect class="cls-11" x="637.45" y="472.89" width="10.52" height="9.84"/><rect class="cls-11" x="585.03" y="472.89" width="10.52" height="9.84"/><rect class="cls-11" x="567.56" y="472.89" width="10.52" height="9.84"/><rect class="cls-11" x="681.61" y="487.63" width="6.06" height="9.84"/><rect class="cls-11" x="602.69" y="487.63" width="10.52" height="9.84"/><rect class="cls-11" x="620.16" y="487.63" width="10.52" height="9.84"/><rect class="cls-11" x="637.63" y="487.63" width="10.52" height="9.84"/><rect class="cls-11" x="585.21" y="487.63" width="10.52" height="9.84"/><rect class="cls-11" x="567.74" y="487.63" width="10.52" height="9.84"/><rect class="cls-11" x="681.8" y="503.68" width="6.06" height="9.84"/><rect class="cls-11" x="602.87" y="503.68" width="10.52" height="9.84"/><rect class="cls-11" x="620.35" y="503.68" width="10.52" height="9.84"/><rect class="cls-11" x="637.82" y="503.68" width="10.52" height="9.84"/><rect class="cls-11" x="585.4" y="503.68" width="10.52" height="9.84"/><rect class="cls-11" x="567.93" y="503.68" width="10.52" height="9.84"/><rect class="cls-12" x="302.78" y="427.14" width="79.62" height="165.07"/><rect class="cls-13" x="376.4" y="427.14" width="53.91" height="165.22"/><rect class="cls-16" x="302.78" y="427.14" width="79.62" height="4.92"/><rect class="cls-17" x="376.4" y="427.14" width="53.91" height="4.92"/><rect class="cls-18" x="356.65" y="447.42" width="8.8" height="12.41"/><rect class="cls-18" x="335.92" y="447.42" width="8.8" height="12.41"/><rect class="cls-18" x="315.18" y="447.42" width="8.8" height="12.41"/><rect class="cls-18" x="356.65" y="468.45" width="8.8" height="12.41"/><rect class="cls-18" x="335.92" y="468.45" width="8.8" height="12.41"/><rect class="cls-18" x="315.18" y="468.45" width="8.8" height="12.41"/><rect class="cls-18" x="356.65" y="488.6" width="8.8" height="12.41"/><rect class="cls-18" x="335.92" y="488.6" width="8.8" height="12.41"/><rect class="cls-18" x="315.18" y="488.6" width="8.8" height="12.41"/><rect class="cls-18" x="356.65" y="509.62" width="8.8" height="12.41"/><rect class="cls-18" x="335.92" y="509.62" width="8.8" height="12.41"/><rect class="cls-18" x="315.18" y="509.62" width="8.8" height="12.41"/><rect class="cls-19" x="402.87" y="488.62" width="7.51" height="12.41"/><rect class="cls-19" x="402.87" y="468.08" width="7.51" height="12.41"/><rect class="cls-19" x="402.87" y="447.42" width="7.51" height="12.41"/><rect class="cls-19" x="402.87" y="510.41" width="7.51" height="12.41"/><rect class="cls-19" x="402.87" y="530.78" width="7.51" height="12.2"/><rect class="cls-8" x="746.75" y="273.09" width="37.24" height="15.09"/><rect class="cls-9" x="708.79" y="273.11" width="39.02" height="15.09"/><rect class="cls-8" x="748.16" y="280.41" width="47.04" height="272.65"/><rect class="cls-9" x="700.29" y="280.27" width="49.24" height="273.24"/><rect class="cls-10" x="701.28" y="294.3" width="49.24" height="7.33"/><rect class="cls-10" x="700.29" y="329.36" width="49.24" height="7.33"/><rect class="cls-10" x="700.29" y="369.21" width="49.24" height="7.33"/><rect class="cls-20" x="750.53" y="294.3" width="45.67" height="7.33"/><rect class="cls-20" x="749.53" y="329.36" width="45.67" height="7.33"/><rect class="cls-20" x="749.53" y="369.21" width="45.67" height="7.33"/><rect class="cls-12" x="1046.79" y="420.32" width="79.62" height="165.07"/><rect class="cls-13" x="1120.41" y="420.33" width="53.91" height="165.22"/><rect class="cls-16" x="1046.79" y="420.33" width="79.62" height="4.92"/><rect class="cls-17" x="1120.41" y="420.33" width="53.91" height="4.92"/><rect class="cls-18" x="1100.65" y="440.61" width="8.8" height="12.41"/><rect class="cls-18" x="1079.93" y="440.61" width="8.8" height="12.41"/><rect class="cls-18" x="1059.19" y="440.61" width="8.8" height="12.41"/><rect class="cls-18" x="1100.65" y="461.63" width="8.8" height="12.41"/><rect class="cls-18" x="1079.93" y="461.63" width="8.8" height="12.41"/><rect class="cls-18" x="1059.19" y="461.63" width="8.8" height="12.41"/><rect class="cls-18" x="1100.65" y="481.78" width="8.8" height="12.41"/><rect class="cls-18" x="1079.93" y="481.78" width="8.8" height="12.41"/><rect class="cls-18" x="1059.19" y="481.78" width="8.8" height="12.41"/><rect class="cls-18" x="1100.65" y="502.81" width="8.8" height="12.41"/><rect class="cls-18" x="1079.93" y="502.81" width="8.8" height="12.41"/><rect class="cls-18" x="1059.19" y="502.81" width="8.8" height="12.41"/><rect class="cls-19" x="1146.88" y="481.81" width="7.51" height="12.41"/><rect class="cls-19" x="1146.88" y="461.27" width="7.51" height="12.41"/><rect class="cls-19" x="1146.88" y="440.61" width="7.51" height="12.41"/><rect class="cls-19" x="1146.88" y="503.59" width="7.51" height="12.41"/><rect class="cls-19" x="1146.88" y="523.96" width="7.51" height="12.2"/><rect class="cls-12" x="1338.14" y="522.33" width="79.62" height="73.82"/><rect class="cls-13" x="1411.76" y="522.33" width="53.91" height="73.89"/><rect class="cls-16" x="1338.14" y="522.33" width="79.62" height="4.92"/><rect class="cls-17" x="1411.76" y="522.33" width="53.91" height="4.92"/><rect class="cls-18" x="1392.01" y="542.6" width="8.8" height="12.41"/><rect class="cls-18" x="1371.29" y="542.6" width="8.8" height="12.41"/><rect class="cls-18" x="1350.55" y="542.6" width="8.8" height="12.41"/><rect class="cls-18" x="1392.01" y="563.63" width="8.8" height="12.41"/><rect class="cls-18" x="1371.29" y="563.63" width="8.8" height="12.41"/><rect class="cls-18" x="1350.55" y="563.63" width="8.8" height="12.41"/><rect class="cls-19" x="1438.72" y="563.27" width="7.51" height="12.41"/><rect class="cls-19" x="1438.72" y="542.6" width="7.51" height="12.41"/><rect class="cls-12" x="60.41" y="529.57" width="79.62" height="73.82"/><rect class="cls-13" x="134.03" y="529.57" width="53.91" height="73.89"/><rect class="cls-16" x="60.41" y="529.57" width="79.62" height="4.92"/><rect class="cls-17" x="134.03" y="529.57" width="53.91" height="4.92"/><rect class="cls-18" x="114.28" y="549.84" width="8.8" height="12.41"/><rect class="cls-18" x="93.55" y="549.84" width="8.8" height="12.41"/><rect class="cls-18" x="72.81" y="549.84" width="8.8" height="12.41"/><rect class="cls-18" x="114.28" y="570.87" width="8.8" height="12.41"/><rect class="cls-18" x="93.55" y="570.87" width="8.8" height="12.41"/><rect class="cls-18" x="72.81" y="570.87" width="8.8" height="12.41"/><rect class="cls-19" x="160.98" y="570.51" width="7.51" height="12.41"/><rect class="cls-19" x="160.98" y="549.84" width="7.51" height="12.41"/><rect class="cls-12" x="1183.14" y="419.82" width="79.62" height="165.07"/><rect class="cls-13" x="1256.76" y="419.83" width="53.91" height="165.22"/><rect class="cls-16" x="1183.14" y="419.83" width="79.62" height="4.92"/><rect class="cls-17" x="1256.76" y="419.83" width="53.91" height="4.92"/><rect class="cls-18" x="1237.01" y="440.11" width="8.8" height="12.41"/><rect class="cls-18" x="1216.28" y="440.11" width="8.8" height="12.41"/><rect class="cls-18" x="1195.54" y="440.11" width="8.8" height="12.41"/><rect class="cls-18" x="1237.01" y="461.13" width="8.8" height="12.41"/><rect class="cls-18" x="1216.28" y="461.13" width="8.8" height="12.41"/><rect class="cls-18" x="1195.54" y="461.13" width="8.8" height="12.41"/><rect class="cls-18" x="1237.01" y="481.28" width="8.8" height="12.41"/><rect class="cls-18" x="1216.28" y="481.28" width="8.8" height="12.41"/><rect class="cls-18" x="1195.54" y="481.28" width="8.8" height="12.41"/><rect class="cls-18" x="1237.01" y="502.31" width="8.8" height="12.41"/><rect class="cls-18" x="1216.28" y="502.31" width="8.8" height="12.41"/><rect class="cls-18" x="1195.54" y="502.31" width="8.8" height="12.41"/><rect class="cls-19" x="1283.23" y="481.31" width="7.51" height="12.41"/><rect class="cls-19" x="1283.23" y="460.77" width="7.51" height="12.41"/><rect class="cls-19" x="1283.23" y="440.11" width="7.51" height="12.41"/><rect class="cls-19" x="1283.23" y="503.1" width="7.51" height="12.41"/><rect class="cls-19" x="1283.23" y="523.46" width="7.51" height="12.2"/><rect class="cls-13" x="741.66" y="386.96" width="61.49" height="36.89"/><rect class="cls-12" x="687.33" y="387.42" width="61.49" height="36.89"/><rect class="cls-12" x="648.6" y="402.32" width="218.53" height="174.33"/><rect class="cls-13" x="859.06" y="402.32" width="72.56" height="174.49"/><rect class="cls-16" x="648.6" y="402.32" width="218.53" height="6.62"/><rect class="cls-17" x="859.06" y="402.32" width="72.56" height="6.62"/><rect class="cls-18" x="656.66" y="421.8" width="16.06" height="11.39"/><rect class="cls-18" x="682.2" y="421.8" width="16.06" height="11.39"/><rect class="cls-18" x="707.74" y="421.8" width="16.06" height="11.39"/><rect class="cls-18" x="733.28" y="421.8" width="16.06" height="11.39"/><rect class="cls-18" x="758.82" y="421.8" width="16.06" height="11.39"/><rect class="cls-18" x="784.36" y="421.8" width="16.06" height="11.39"/><rect class="cls-18" x="809.9" y="421.8" width="16.06" height="11.39"/><rect class="cls-18" x="835.44" y="421.8" width="16.06" height="11.39"/><rect class="cls-18" x="656.66" y="441.96" width="16.06" height="11.39"/><rect class="cls-18" x="682.2" y="441.96" width="16.06" height="11.39"/><rect class="cls-18" x="707.74" y="441.96" width="16.06" height="11.39"/><rect class="cls-18" x="733.28" y="441.96" width="16.06" height="11.39"/><rect class="cls-18" x="758.82" y="441.96" width="16.06" height="11.39"/><rect class="cls-18" x="784.36" y="441.96" width="16.06" height="11.39"/><rect class="cls-18" x="809.9" y="441.96" width="16.06" height="11.39"/><rect class="cls-18" x="835.44" y="441.96" width="16.06" height="11.39"/><rect class="cls-18" x="656.66" y="462.12" width="16.06" height="11.39"/><rect class="cls-18" x="682.2" y="462.12" width="16.06" height="11.39"/><rect class="cls-18" x="707.74" y="462.12" width="16.06" height="11.39"/><rect class="cls-18" x="733.28" y="462.12" width="16.06" height="11.39"/><rect class="cls-18" x="758.82" y="462.12" width="16.06" height="11.39"/><rect class="cls-18" x="784.36" y="462.12" width="16.06" height="11.39"/><rect class="cls-18" x="809.9" y="462.12" width="16.06" height="11.39"/><rect class="cls-18" x="835.44" y="462.12" width="16.06" height="11.39"/><rect class="cls-18" x="656.66" y="482.28" width="16.06" height="11.39"/><rect class="cls-18" x="682.2" y="482.28" width="16.06" height="11.39"/><rect class="cls-18" x="707.74" y="482.28" width="16.06" height="11.39"/><rect class="cls-18" x="733.28" y="482.28" width="16.06" height="11.39"/><rect class="cls-18" x="758.82" y="482.28" width="16.06" height="11.39"/><rect class="cls-18" x="784.36" y="482.28" width="16.06" height="11.39"/><rect class="cls-18" x="809.9" y="482.28" width="16.06" height="11.39"/><rect class="cls-18" x="835.44" y="482.28" width="16.06" height="11.39"/><rect class="cls-18" x="656.66" y="502.44" width="16.06" height="11.39"/><rect class="cls-18" x="682.2" y="502.44" width="16.06" height="11.39"/><rect class="cls-18" x="707.74" y="502.44" width="16.06" height="11.39"/><rect class="cls-18" x="733.28" y="502.44" width="16.06" height="11.39"/><rect class="cls-18" x="758.82" y="502.44" width="16.06" height="11.39"/><rect class="cls-18" x="784.36" y="502.44" width="16.06" height="11.39"/><rect class="cls-18" x="809.9" y="502.44" width="16.06" height="11.39"/><rect class="cls-18" x="835.44" y="502.44" width="16.06" height="11.39"/><rect class="cls-18" x="656.66" y="522.6" width="16.06" height="11.39"/><rect class="cls-18" x="682.2" y="522.6" width="16.06" height="11.39"/><rect class="cls-18" x="707.74" y="522.6" width="16.06" height="11.39"/><rect class="cls-18" x="733.28" y="522.6" width="16.06" height="11.39"/><rect class="cls-18" x="758.82" y="522.6" width="16.06" height="11.39"/><rect class="cls-18" x="784.36" y="522.6" width="16.06" height="11.39"/><rect class="cls-18" x="809.9" y="522.6" width="16.06" height="11.39"/><rect class="cls-18" x="835.44" y="522.6" width="16.06" height="11.39"/><rect class="cls-18" x="656.66" y="542.76" width="16.06" height="11.39"/><rect class="cls-18" x="682.2" y="542.76" width="16.06" height="11.39"/><rect class="cls-18" x="707.74" y="542.76" width="16.06" height="11.39"/><rect class="cls-18" x="733.28" y="542.76" width="16.06" height="11.39"/><rect class="cls-18" x="758.82" y="542.76" width="16.06" height="11.39"/><rect class="cls-18" x="784.36" y="542.76" width="16.06" height="11.39"/><rect class="cls-18" x="809.9" y="542.76" width="16.06" height="11.39"/><rect class="cls-18" x="835.44" y="542.76" width="16.06" height="11.39"/><rect class="cls-19" x="894.69" y="485.07" width="10.11" height="16.7"/><rect class="cls-19" x="894.69" y="457.43" width="10.11" height="16.7"/><rect class="cls-19" x="894.69" y="429.62" width="10.11" height="16.7"/><rect class="cls-19" x="894.69" y="514.4" width="10.11" height="16.7"/><rect class="cls-13" x="513.94" y="362.74" width="68.71" height="17.44"/><path class="cls-21" d="M515,362.74H489l-.79,17.43h25.92Z"/><rect class="cls-13" x="499.68" y="375.71" width="135.56" height="201.25"/><path class="cls-21" d="M501.68,375.71H450.55L449,577h51.14Z"/><rect class="cls-16" x="450.68" y="374.07" width="51" height="8.2"/><rect class="cls-17" x="501.68" y="374.07" width="133.56" height="8.2"/><rect class="cls-18" x="468.78" y="399.86" width="10.08" height="15.35"/><rect class="cls-18" x="518.47" y="399.86" width="10.08" height="15.35"/><rect class="cls-18" x="538.18" y="399.86" width="10.08" height="15.35"/><rect class="cls-18" x="557.9" y="399.86" width="10.08" height="15.35"/><rect class="cls-18" x="577.61" y="399.86" width="10.08" height="15.35"/><rect class="cls-18" x="597.32" y="399.86" width="10.08" height="15.35"/><rect class="cls-18" x="617.03" y="399.86" width="10.08" height="15.35"/><rect class="cls-18" x="468.78" y="422.17" width="10.08" height="15.35"/><rect class="cls-18" x="518.47" y="422.17" width="10.08" height="15.35"/><rect class="cls-18" x="538.18" y="422.17" width="10.08" height="15.35"/><rect class="cls-18" x="557.9" y="422.17" width="10.08" height="15.35"/><rect class="cls-18" x="577.61" y="422.17" width="10.08" height="15.35"/><rect class="cls-18" x="597.32" y="422.17" width="10.08" height="15.35"/><rect class="cls-18" x="617.03" y="422.17" width="10.08" height="15.35"/><rect class="cls-18" x="468.78" y="444.54" width="10.08" height="15.35"/><rect class="cls-18" x="518.47" y="444.54" width="10.08" height="15.35"/><rect class="cls-18" x="538.18" y="444.54" width="10.08" height="15.35"/><rect class="cls-18" x="557.9" y="444.54" width="10.08" height="15.35"/><rect class="cls-18" x="577.61" y="444.54" width="10.08" height="15.35"/><rect class="cls-18" x="597.32" y="444.54" width="10.08" height="15.35"/><rect class="cls-18" x="617.03" y="444.54" width="10.08" height="15.35"/><rect class="cls-18" x="468.78" y="468.66" width="10.08" height="15.35"/><rect class="cls-18" x="518.47" y="468.66" width="10.08" height="15.35"/><rect class="cls-18" x="538.18" y="468.66" width="10.08" height="15.35"/><rect class="cls-18" x="557.9" y="468.66" width="10.08" height="15.35"/><rect class="cls-18" x="577.61" y="468.66" width="10.08" height="15.35"/><rect class="cls-18" x="597.32" y="468.66" width="10.08" height="15.35"/><rect class="cls-18" x="617.03" y="468.66" width="10.08" height="15.35"/><rect class="cls-18" x="468.78" y="492.29" width="10.08" height="15.35"/><rect class="cls-18" x="518.47" y="492.29" width="10.08" height="15.35"/><rect class="cls-18" x="538.18" y="492.29" width="10.08" height="15.35"/><rect class="cls-18" x="557.9" y="492.29" width="10.08" height="15.35"/><rect class="cls-18" x="577.61" y="492.29" width="10.08" height="15.35"/><rect class="cls-18" x="597.32" y="492.29" width="10.08" height="15.35"/><rect class="cls-18" x="617.03" y="492.29" width="10.08" height="15.35"/><rect class="cls-18" x="468.78" y="514.6" width="10.08" height="15.35"/><rect class="cls-18" x="518.47" y="514.6" width="10.08" height="15.35"/><rect class="cls-18" x="538.18" y="514.6" width="10.08" height="15.35"/><rect class="cls-18" x="557.9" y="514.6" width="10.08" height="15.35"/><rect class="cls-18" x="577.61" y="514.6" width="10.08" height="15.35"/><rect class="cls-18" x="597.32" y="514.6" width="10.08" height="15.35"/><rect class="cls-18" x="617.03" y="514.6" width="10.08" height="15.35"/><rect class="cls-18" x="468.78" y="536.69" width="10.08" height="15.35"/><rect class="cls-18" x="518.47" y="536.69" width="10.08" height="15.35"/><rect class="cls-18" x="538.18" y="536.69" width="10.08" height="15.35"/><rect class="cls-18" x="557.9" y="536.69" width="10.08" height="15.35"/><rect class="cls-18" x="577.61" y="536.69" width="10.08" height="15.35"/><rect class="cls-18" x="597.32" y="536.69" width="10.08" height="15.35"/><rect class="cls-18" x="617.03" y="536.69" width="10.08" height="15.35"/><rect class="cls-16" x="1211.54" y="459.89" width="81.81" height="133.1"/><rect class="cls-17" x="1287.19" y="459.89" width="55.4" height="133.22"/><rect class="cls-17" x="1211.54" y="459.89" width="81.81" height="5.05"/><rect class="cls-22" x="1287.19" y="459.89" width="55.4" height="5.05"/><rect class="cls-23" x="1266.89" y="480.73" width="9.05" height="12.75"/><rect class="cls-23" x="1245.6" y="480.73" width="9.05" height="12.75"/><rect class="cls-23" x="1224.28" y="480.73" width="9.05" height="12.75"/><rect class="cls-23" x="1266.89" y="502.34" width="9.05" height="12.75"/><rect class="cls-23" x="1245.6" y="502.34" width="9.05" height="12.75"/><rect class="cls-23" x="1224.28" y="502.34" width="9.05" height="12.75"/><rect class="cls-23" x="1266.89" y="523.04" width="9.05" height="12.75"/><rect class="cls-23" x="1245.6" y="523.04" width="9.05" height="12.75"/><rect class="cls-23" x="1224.28" y="523.04" width="9.05" height="12.75"/><rect class="cls-23" x="1266.89" y="544.65" width="9.05" height="12.75"/><rect class="cls-23" x="1245.6" y="544.65" width="9.05" height="12.75"/><rect class="cls-23" x="1224.28" y="544.65" width="9.05" height="12.75"/><rect class="cls-24" x="1314.39" y="523.07" width="7.72" height="12.75"/><rect class="cls-24" x="1314.39" y="501.96" width="7.72" height="12.75"/><rect class="cls-24" x="1314.39" y="480.73" width="7.72" height="12.75"/><rect class="cls-24" x="1314.39" y="545.46" width="7.72" height="12.75"/><rect class="cls-24" x="1310.54" y="570.99" width="15.44" height="22.12"/><rect class="cls-17" x="954.48" y="451.43" width="85.67" height="146.67"/><rect class="cls-16" x="910.46" y="451.43" width="65.96" height="148.44"/><rect class="cls-23" x="933.47" y="466.47" width="35.76" height="12.03"/><rect class="cls-24" x="996.22" y="466.47" width="10.97" height="12.03"/><rect class="cls-23" x="933.47" y="487.01" width="35.76" height="12.03"/><rect class="cls-24" x="996.22" y="487.01" width="10.97" height="12.03"/><rect class="cls-23" x="933.47" y="506.24" width="35.76" height="12.03"/><rect class="cls-24" x="996.22" y="506.24" width="10.97" height="12.03"/><rect class="cls-23" x="933.47" y="524.56" width="35.76" height="12.03"/><rect class="cls-24" x="996.22" y="524.56" width="10.97" height="12.03"/><rect class="cls-23" x="933.47" y="543.96" width="35.76" height="12.03"/><rect class="cls-24" x="996.22" y="543.96" width="10.97" height="12.03"/><rect class="cls-22" x="976.41" y="447.19" width="63.73" height="7.72"/><rect class="cls-17" x="910.46" y="447.19" width="65.96" height="7.72"/><rect class="cls-17" x="618.4" y="451.43" width="85.67" height="146.67"/><rect class="cls-16" x="574.38" y="451.43" width="65.96" height="148.44"/><rect class="cls-23" x="597.39" y="466.4" width="35.76" height="12.03"/><rect class="cls-24" x="660.14" y="466.4" width="10.97" height="12.03"/><rect class="cls-23" x="597.39" y="486.94" width="35.76" height="12.03"/><rect class="cls-24" x="660.14" y="486.94" width="10.97" height="12.03"/><rect class="cls-23" x="597.39" y="506.17" width="35.76" height="12.03"/><rect class="cls-24" x="660.14" y="506.17" width="10.97" height="12.03"/><rect class="cls-23" x="597.39" y="524.49" width="35.76" height="12.03"/><rect class="cls-24" x="660.14" y="524.49" width="10.97" height="12.03"/><rect class="cls-23" x="597.39" y="543.89" width="35.76" height="12.03"/><rect class="cls-24" x="660.14" y="543.89" width="10.97" height="12.03"/><rect class="cls-22" x="640.33" y="447.19" width="63.73" height="7.01"/><rect class="cls-17" x="574.38" y="447.19" width="65.96" height="7.01"/><rect class="cls-17" x="819.77" y="495.91" width="100.93" height="99.65"/><rect class="cls-24" x="860.25" y="514.11" width="10.91" height="22.69"/><rect class="cls-24" x="882.72" y="514.11" width="10.91" height="22.69"/><rect class="cls-16" x="778.31" y="495.91" width="43.13" height="99.65"/><rect class="cls-23" x="785.61" y="514.11" width="28.14" height="11.34"/><rect class="cls-17" x="770.95" y="492.94" width="50.48" height="5.94"/><rect class="cls-22" x="821.44" y="492.94" width="99.26" height="5.94"/><g id="front-row"><rect class="cls-17" x="461.21" y="481.83" width="49" height="33.17"/><rect class="cls-16" x="388.75" y="481.83" width="82.17" height="33.17"/><rect class="cls-17" x="465.93" y="513.01" width="62.63" height="82.1"/><rect class="cls-16" x="373.32" y="513.02" width="105.02" height="82.1"/><rect class="cls-22" x="468.81" y="478.64" width="41.39" height="6.38"/><rect class="cls-17" x="388.75" y="478.64" width="82.17" height="6.38"/><rect class="cls-23" x="380.64" y="532.58" width="60.45" height="9.21"/><rect class="cls-24" x="486.2" y="527.47" width="7.98" height="9.72"/><rect class="cls-24" x="396.98" y="493.56" width="7.98" height="9.72"/><rect class="cls-24" x="502.22" y="527.73" width="7.98" height="9.72"/><rect class="cls-24" x="486.2" y="544.35" width="7.98" height="9.72"/><rect class="cls-22" x="475.65" y="509.83" width="52.9" height="6.38"/><rect class="cls-17" x="373.32" y="509.83" width="105.02" height="6.38"/></g><rect class="cls-25" x="225.04" y="501.81" width="109.63" height="92.4"/><rect class="cls-24" x="244.6" y="518.68" width="11.86" height="5.25"/><rect class="cls-24" x="269.01" y="518.68" width="11.86" height="5.25"/><rect class="cls-26" x="180" y="501.81" width="46.85" height="92.4"/><rect class="cls-24" x="187.94" y="518.68" width="6.88" height="5.25"/><path class="cls-27" d="M366.49,545l.42-3.91s-46.45.14-81,.14l-42,17.64,101.67-1.51Z"/><rect class="cls-25" x="286.16" y="544.97" width="78.16" height="49.26"/><path class="cls-28" d="M286.16,545l-34.08,13.88-.74,35.37h34.82Z"/><rect class="cls-24" x="277.05" y="557.93" width="5.42" height="11.66"/><rect class="cls-26" x="260.75" y="574.91" width="10.62" height="19.32"/><g id="trees"><path class="cls-29" d="M1200.09,505.27c2-4.69,7.5-4.21,9.84-1.65,6.57,7.18,11.4,58.26,10.89,63.15-.87,8.29-3.52,10.38-7.6,12.27-2.25,1-9.16,1.72-13.83.52-3.51-.91-7.07-5.88-7.94-11.75C1190.24,559.69,1192.14,524.37,1200.09,505.27Z"/><path class="cls-30" d="M1202.85,599.08c0-.22.52-28.16.52-28.16l-4.67-3.8v-1.21l5.19,3.11.51-26.26h.87l1,9.15,3.46-1.38.17.87-2.59,1.9.17,17.1,4-1.38.17,1.38-4,2.59v26.09S1202.84,599.29,1202.85,599.08Z"/><path class="cls-29" d="M1333.43,507.54c2-4.69,7.51-4.21,9.85-1.65,6.57,7.18,11.39,58.27,10.88,63.15-.86,8.3-3.52,10.39-7.6,12.27-2.24,1-9.15,1.73-13.82.52-3.51-.91-7.07-5.88-7.94-11.75C1323.59,562,1325.49,526.64,1333.43,507.54Z"/><path class="cls-30" d="M1336.2,601.35c0-.22.52-28.16.52-28.16l-4.67-3.8v-1.21l5.18,3.11.52-26.26h.87l1,9.16,3.46-1.38.17.86-2.59,1.9.17,17.1,4-1.38.17,1.38-4,2.59v26.09S1336.19,601.57,1336.2,601.35Z"/><path class="cls-31" d="M375.5,571.84a15.38,15.38,0,0,1,11.73-5.52,16,16,0,0,1,15.27,12.44,14.3,14.3,0,0,1,13.94,14.36c0,7.92-63.4,5.37-63.4-1.48,0-5.79,5.61-10.66,13.17-12a8.57,8.57,0,0,1,8.29-7.84A6.63,6.63,0,0,1,375.5,571.84Z"/><path class="cls-31" d="M1193.76,567.82a16.92,16.92,0,0,0-12.46-7.5c-8.15-.72-15.54,4.76-18.22,12.82-8.58-.59-16.13,6.13-16.93,15.15s69.83,12.4,70.53,4.52c.58-6.66-5.14-12.82-13.4-15.13-.1-5.13-3.66-9.41-8.41-9.83A8.23,8.23,0,0,0,1193.76,567.82Z"/><path class="cls-31" d="M1316.21,571.55a16.86,16.86,0,0,0-12.46-7.5c-8.15-.72-15.55,4.76-18.22,12.82-8.58-.6-16.14,6.13-16.93,15.14s69.83,12.4,70.52,4.52c.59-6.66-5.13-12.81-13.39-15.13-.1-5.12-3.66-9.41-8.41-9.83A8.23,8.23,0,0,0,1316.21,571.55Z"/><path class="cls-31" d="M1477.09,567.28a16.88,16.88,0,0,0-12.47-7.5c-8.15-.72-15.54,4.76-18.21,12.82-8.58-.6-16.14,6.13-16.94,15.15s70.53,4.51,70.53,4.51,1.9-15.18-13.4-15.13c-.09-5.12-3.66-9.41-8.4-9.83A8.29,8.29,0,0,0,1477.09,567.28Z"/><path class="cls-31" d="M1434.64,571.16a16.88,16.88,0,0,1,12.47-7.5c8.15-.72,15.54,4.76,18.21,12.82,8.58-.6,16.14,6.13,16.94,15.14s-69.83,12.4-70.53,4.52c-.59-6.66,5.13-12.81,13.39-15.13.1-5.12,3.67-9.41,8.41-9.83A8.23,8.23,0,0,1,1434.64,571.16Z"/><g id="yellow-tree"><path class="cls-32" d="M1183.58,519.8c5.18.48,8,12.12,12.28,19.85a37.18,37.18,0,0,1,4.42,20c-.68,14.58-5.16,20.17-17.7,19.33-14.35-.95-16.95-11.85-17.48-22s4.07-15.39,5.64-20.59C1173.23,528.09,1180,519.47,1183.58,519.8Z"/><path class="cls-33" d="M1182.41,593.33a72.76,72.76,0,0,1,.46-10.05c.7-7.69,1.41-9.85,1-9.82a24.54,24.54,0,0,1-5.87-4.2,16.84,16.84,0,0,1-4.34-7.84c2,2.23,3.53,5,6.21,6.58a7,7,0,0,0,4.46,1.28s-1.25-7.55-2.69-15.11a49,49,0,0,1-.7-15.12c.28-.18,3.91,21.25,5.67,20.08,2-1.34,7.07-13.3,7.07-13.3a40.8,40.8,0,0,1-1.91,8.89c-.92,2.51-3.31,5.89-4.81,8.11,0,0,.62,11.07.29,21.67a48.59,48.59,0,0,0,.53,8.55,12.42,12.42,0,0,1-2.33.55A22.66,22.66,0,0,1,1182.41,593.33Z"/></g><g id="yellow-tree1"><path class="cls-32" d="M1054.07,497.31c5.18.47,8,12.12,12.29,19.85a37.28,37.28,0,0,1,4.41,20c-.68,14.58-5.15,20.16-17.69,19.33-14.35-1-16.95-11.86-17.48-22s4.07-15.39,5.64-20.59C1043.72,505.6,1050.45,497,1054.07,497.31Z"/><path class="cls-33" d="M1052.91,570.83a72.61,72.61,0,0,1,.46-10c.7-7.69,1.4-9.85,1-9.82a24.67,24.67,0,0,1-5.87-4.2,16.81,16.81,0,0,1-4.34-7.85c2,2.24,3.53,5,6.21,6.59a7,7,0,0,0,4.46,1.28s-1.25-7.56-2.69-15.11a49,49,0,0,1-.7-15.12c.28-.18,3.91,21.25,5.67,20.08,2-1.34,7.07-13.3,7.07-13.3a40.92,40.92,0,0,1-1.91,8.89c-.92,2.51-3.31,5.89-4.81,8.1,0,0,.62,11.08.29,21.68a47.48,47.48,0,0,0,.53,8.55,12.59,12.59,0,0,1-2.34.55A24,24,0,0,1,1052.91,570.83Z"/></g><g id="yellow-tree2"><path class="cls-32" d="M1359.35,522.07c5.18.48,8,12.12,12.28,19.86a37.14,37.14,0,0,1,4.42,19.94c-.68,14.59-5.16,20.17-17.7,19.34-14.35-1-16.95-11.86-17.48-22s4.07-15.39,5.64-20.59C1349,530.36,1355.72,521.74,1359.35,522.07Z"/><path class="cls-33" d="M1358.18,595.6a74.89,74.89,0,0,1,.46-10c.7-7.7,1.41-9.86,1-9.83a24.54,24.54,0,0,1-5.87-4.2,16.74,16.74,0,0,1-4.33-7.84c2,2.23,3.52,5,6.2,6.58a7,7,0,0,0,4.46,1.29s-1.24-7.56-2.69-15.12c-1.53-8-.85-15-.69-15.12s3.9,21.25,5.66,20.08c2-1.33,7.07-13.3,7.07-13.3a41.15,41.15,0,0,1-1.9,8.89c-.93,2.52-3.31,5.89-4.82,8.11,0,0,.62,11.08.29,21.67a47.89,47.89,0,0,0,.54,8.55,12.59,12.59,0,0,1-2.34.55A22.66,22.66,0,0,1,1358.18,595.6Z"/></g><path class="cls-31" d="M159.36,565.35c-3-3.71-5.76-5.61-10.77-5.55-7.91.11-12.08,3.89-15.25,10.54-8.32-.14-21.74,11.43-22,19.76s69.79,6.16,72.88-.44c2.59-5.56-7-13.95-15.12-15.69a9.19,9.19,0,0,0-8.63-8.65A9.67,9.67,0,0,0,159.36,565.35Z"/><path class="cls-31" d="M54.85,559.74c-3.39-4.41-6.54-6.56-12.25-6.58-11.65,0-16.14,5.7-19.76,13.62C-2.56,567,.08,591.4.08,591.4s79.46,5,83-2.81c3-6.61-6.73-18.64-15.93-20.7-.41-5.6-5.82-8-11.06-8.19A9.88,9.88,0,0,0,54.85,559.74Z"/><path class="cls-31" d="M62.41,569.28c3.48-3.5,6.71-5.3,12.53-5.28,9.16,0,14,3.55,17.59,9.76,9.64-.21,25.12,10.54,25.39,18.34s-81,6.31-84.48.15c-3-5.19,8.25-13.13,17.64-14.82.46-4.42,4.75-8,10.08-8.17C61.58,569.25,62,569.25,62.41,569.28Z"/><g id="yellow-tree3"><path class="cls-32" d="M172.69,522c5.19.47,8,12.11,12.29,19.85a37.36,37.36,0,0,1,4.42,20c-.69,14.58-5.16,20.16-17.7,19.33-14.35-.95-16.95-11.86-17.48-22s4.07-15.39,5.64-20.59C162.35,530.31,169.07,521.7,172.69,522Z"/><path class="cls-33" d="M171.53,595.55a72.61,72.61,0,0,1,.46-10c.7-7.7,1.41-9.85,1-9.82a24.89,24.89,0,0,1-5.87-4.2,16.86,16.86,0,0,1-4.34-7.85c2,2.24,3.53,5,6.21,6.59a7,7,0,0,0,4.46,1.28s-1.25-7.56-2.69-15.11a49.12,49.12,0,0,1-.7-15.13c.28-.17,3.91,21.26,5.67,20.09,2-1.34,7.07-13.3,7.07-13.3a40.92,40.92,0,0,1-1.91,8.89c-.92,2.51-3.31,5.89-4.81,8.1,0,0,.62,11.08.29,21.68a47.48,47.48,0,0,0,.53,8.55,12.59,12.59,0,0,1-2.34.55A24,24,0,0,1,171.53,595.55Z"/></g><path class="cls-29" d="M758.68,480.28c2.5-5.2,9.64-4.67,12.64-1.83,8.44,7.95,14.64,64.57,14,70-1.11,9.19-4.52,11.5-9.76,13.59-2.88,1.15-11.76,1.91-17.75.57-4.51-1-9.08-6.51-10.21-13C746,540.59,748.47,501.44,758.68,480.28Z"/><path class="cls-30" d="M762.23,584.24c0-.24.66-31.21.66-31.21l-6-4.21v-1.34l6.66,3.45.66-29.11h1.11L766.66,532l4.44-1.53.22,1L768,533.5l.22,19,5.1-1.53.22,1.53-5.1,2.87v28.91S762.22,584.48,762.23,584.24Z"/><g id="yellow-tree4"><path class="cls-32" d="M737.47,496.38c6.65.53,10.21,13.43,15.78,22a36.77,36.77,0,0,1,5.67,22.1c-.88,16.16-6.62,22.35-22.73,21.42-18.43-1-21.77-13.14-22.45-24.41s5.23-17,7.25-22.82C724.18,505.57,732.82,496,737.47,496.38Z"/><path class="cls-33" d="M736,577.87a70.72,70.72,0,0,1,.59-11.13c.9-8.53,1.81-10.92,1.27-10.89a32.33,32.33,0,0,1-7.54-4.66,17.8,17.8,0,0,1-5.56-8.69c2.6,2.48,4.53,5.5,8,7.3a10.06,10.06,0,0,0,5.73,1.42s-1.6-8.37-3.46-16.75c-2-8.9-1.09-16.65-.9-16.76.37-.19,5,23.55,7.28,22.26,2.59-1.48,9.09-14.74,9.09-14.74a40,40,0,0,1-2.45,9.85c-1.19,2.79-4.26,6.53-6.18,9,0,0,.79,12.28.36,24a46.09,46.09,0,0,0,.69,9.47,19,19,0,0,1-3,.61A35,35,0,0,1,736,577.87Z"/></g><g id="yellow-tree5"><path class="cls-32" d="M841.43,510c6.66.53,10.21,13.43,15.78,22a36.7,36.7,0,0,1,5.67,22.1c-.87,16.16-6.62,22.35-22.73,21.43-18.42-1.06-21.77-13.15-22.45-24.42s5.23-17,7.25-22.81C828.14,519.23,836.78,509.68,841.43,510Z"/><path class="cls-30" d="M839.93,591.53a70.26,70.26,0,0,1,.6-11.13c.9-8.53,1.8-10.92,1.27-10.89a32,32,0,0,1-7.54-4.65,17.91,17.91,0,0,1-5.57-8.7c2.6,2.48,4.53,5.5,8,7.3a10,10,0,0,0,5.73,1.42s-1.6-8.37-3.46-16.75c-2-8.9-1.09-16.65-.89-16.76.36-.19,5,23.55,7.28,22.26,2.59-1.48,9.08-14.74,9.08-14.74a40,40,0,0,1-2.45,9.85c-1.19,2.79-4.25,6.53-6.18,9,0,0,.79,12.27.37,24a45.7,45.7,0,0,0,.68,9.47,17.68,17.68,0,0,1-3,.61A35,35,0,0,1,839.93,591.53Z"/></g><path class="cls-29" d="M429.6,498.51c2-4.69,7.51-4.21,9.85-1.64C446,504,450.84,555.13,450.33,560c-.86,8.29-3.52,10.38-7.6,12.26-2.24,1-9.15,1.73-13.82.52-3.51-.91-7.07-5.88-7.94-11.75C419.76,552.93,421.66,517.61,429.6,498.51Z"/><path class="cls-30" d="M432.37,592.32c0-.21.52-28.16.52-28.16l-4.67-3.8v-1.21l5.18,3.11.52-26.26h.87l1,9.16,3.46-1.38.17.86-2.59,1.9.17,17.1,4-1.38.17,1.38-4,2.6v26.08S432.36,592.54,432.37,592.32Z"/><g id="yellow-tree6"><path class="cls-32" d="M414.51,518.51c5.18.47,7.95,12.12,12.29,19.85a37.28,37.28,0,0,1,4.41,19.95c-.68,14.58-5.15,20.16-17.69,19.33-14.35-.95-16.95-11.86-17.48-22s4.07-15.39,5.64-20.59C404.16,526.8,410.89,518.18,414.51,518.51Z"/><path class="cls-30" d="M413.35,592a72.74,72.74,0,0,1,.46-10c.7-7.69,1.4-9.85,1-9.82a24.67,24.67,0,0,1-5.87-4.2,16.81,16.81,0,0,1-4.34-7.85c2,2.24,3.53,5,6.21,6.59a7,7,0,0,0,4.46,1.28s-1.25-7.56-2.69-15.11a49,49,0,0,1-.7-15.12c.28-.18,3.9,21.25,5.67,20.08,2-1.34,7.07-13.3,7.07-13.3a40.92,40.92,0,0,1-1.91,8.89c-.92,2.51-3.31,5.89-4.81,8.1,0,0,.62,11.08.28,21.68a48,48,0,0,0,.54,8.55,12.59,12.59,0,0,1-2.34.55A24.53,24.53,0,0,1,413.35,592Z"/></g></g><path class="cls-28" d="M1156.59,578.92h-89.38v21.45h89.38Zm21.09,5.17h-15.35v15.74h15.35Zm-287.27-5.17H834.17v18.29h56.24Zm-282-7.95h43.76v24.59H450.68V571h8.48v-7.76h8v-7h13.94v7H505.3v-14.6H608.43ZM1033,566.46h-16.56v7.16H1033Z"/><rect class="cls-26" x="618.18" y="544.56" width="136.38" height="49.35"/><rect class="cls-25" x="662.68" y="560.4" width="81.05" height="33.5"/><rect class="cls-34" x="667.12" y="563.94" width="71.06" height="29.96"/><path class="cls-27" d="M738.18,591h-71v1.11h71Zm0-2.81h-71v1.12h71Zm0-2.8h-71v1.12h71Zm0-2.8h-71v1.12h71Zm0-2.8h-71v1.12h71Zm0-2.8h-71v1.12h71Zm0-2.8h-71v1.12h71Zm0-2.8h-71v1.12h71Zm0-2.8h-71v1.12h71Zm0-2.8h-71v1.12h71Z"/><rect class="cls-24" x="625.55" y="560.4" width="26.64" height="6.06"/><rect class="cls-25" x="618.18" y="541.95" width="136.38" height="5.2"/><rect class="cls-26" x="1036.23" y="544.73" width="86.33" height="52.49"/><rect class="cls-25" x="1036.23" y="541.96" width="86.33" height="5.53"/><rect class="cls-26" x="913.84" y="546.3" width="78.16" height="49.26"/><rect class="cls-24" x="979.1" y="559.27" width="5.42" height="11.66"/><path class="cls-27" d="M913.84,546.3l-34.08,13.88L879,595.56h34.82Z"/><rect class="cls-24" x="903.17" y="582.63" width="5.94" height="5.83"/><rect class="cls-26" x="989.51" y="570.93" width="53.86" height="24.63"/><rect class="cls-26" x="751.15" y="556.2" width="83.01" height="45.46"/><rect class="cls-24" x="819.19" y="566.86" width="6.7" height="5.71"/><rect class="cls-24" x="819.19" y="578.93" width="6.7" height="5.71"/><rect class="cls-25" x="751.15" y="556.19" width="83.01" height="5.53"/></g><g id="front-line"><rect class="cls-35" x="0.07" y="589.94" width="1500" height="18.8"/></g></g></g></svg>