<svg xmlns="http://www.w3.org/2000/svg" viewBox="0 0 1500.03 608.74"><defs><style>.cls-1{fill:#c4d2e9;}.cls-1,.cls-17,.cls-2,.cls-24,.cls-28,.cls-29,.cls-3,.cls-30,.cls-31,.cls-32,.cls-33,.cls-34,.cls-36,.cls-40,.cls-44,.cls-8{fill-rule:evenodd;}.cls-2{fill:#e7dfee;}.cls-3{fill:#86b6c7;}.cls-4{fill:#a1d0dc;}.cls-5{fill:#89c2d2;}.cls-6,.cls-8{fill:#8fc6d5;}.cls-7{fill:#bbe0e5;}.cls-9{fill:#67b1c6;}.cls-10,.cls-17{fill:#59a5b5;}.cls-11{fill:#89dfeb;}.cls-12{fill:#b5eaf7;}.cls-13{fill:#b3e9f6;}.cls-14{fill:#3ca1b5;}.cls-15{fill:#207c8f;}.cls-16{fill:#8edbed;}.cls-18,.cls-24{fill:#3695b2;}.cls-19{fill:#01587e;}.cls-20,.cls-29{fill:#015478;}.cls-21{fill:#01354b;}.cls-22{fill:#84c8d1;}.cls-23{fill:#76bfc8;}.cls-25,.cls-28{fill:#012636;}.cls-26{fill:#87afab;}.cls-27{fill:#6d9e9a;}.cls-30{fill:#625e1f;}.cls-31{fill:#552c16;}.cls-32,.cls-35{fill:#474413;}.cls-33{fill:#756d24;}.cls-34{fill:#6f3e19;}.cls-36,.cls-37{fill:#3a002d;}.cls-38,.cls-40{fill:#310225;}.cls-39{fill:#62375a;}.cls-41{fill:#8fa8b1;}.cls-42{fill:#1f0017;}.cls-43,.cls-44{fill:#1f0119;}</style></defs><g id="Layer_2" data-name="Layer 2"><g id="Layer_1-2" data-name="Layer 1"><g id="clouds12"><g id="big-cloud"><path class="cls-1" d="M1198.45,99.72C1180,42.3,1117.46,0,1043.28,0c-61.08,0-96,23.23-123.22,65.42C914,63.23,895.28,61,871.39,68.94c-31.63,10.59-50.48,28.79-50.48,66,0,11.33-.12,14,4.39,23.42C722,119,647.16,166.24,620.08,201.84,607.8,218,607.26,240.75,609,244.1,570.1,211,495.65,226,504.2,284.58c.47,3.13,15.17,29.26,11.72,30-13.48,3-154.47-.95-294.88,14.8-33.38,3.74-73.78,10.93-109.42,32.11-43.77,26-59,103.29-7.53,138.79,21.7,15,57.48,9.7,68.94,9.61,211-1.85,1172.79-4.92,1206.89-7.31,90.3-6.3,104.14-155.41,56.62-191.68-17.38-13.27-40.6-41.4-96.26-43.15-6-.17-11.86,1.24-7.54-1.54,21.94-14.14,2.86-80.6-63.2-63.76-.78.2,0-.7,0-.7C1269.26,153.88,1239.43,113.36,1198.45,99.72Z"/></g><g id="big-cloud1"><path class="cls-2" d="M1200.32,156.35c-16-48.3-70.22-83.89-134.54-83.89-52.95,0-83.26,19.54-106.82,55-5.27-1.84-21.49-3.75-42.2,3C889.33,139.37,873,154.68,873,186c0,9.53-.11,11.81,3.8,19.7-89.56-33.18-154.45,6.6-177.92,36.55-10.65,13.58-11.12,32.73-9.61,35.55C655.53,250,591,262.62,598.4,311.87c.4,2.64,12.24,11.27,9.24,11.92-11.69,2.5-130.26,4.55-252,17.79-28.94,3.15-63.92,3.79-87.29,29.23-12.39,13.5-13.1,42.25,2.88,57.84,6.21,6,31.61,9.06,41.52,9,183-1.55,1016.91-3.29,1046.4-6.13,67.27-6.49,55.74-84.16,39-102.21-12.67-13.68-26.62-30.06-74.88-31.54-5.17-.15-10.28,1-6.54-1.3,19-11.89,2.48-67.81-54.79-53.64-.68.17,0-.58,0-.58C1261.72,201.92,1235.85,167.83,1200.32,156.35Z"/></g></g><path class="cls-3" d="M204.37,598H150v1.83H71.71V506.58h28V473.4h8V460.15h12.88V473.4H150V413.76h54.38v-9.4h21.81v9.4h5.2v12.72h92.84V340.41h84.9V489.33H529.31V461.51H456.17V287h9.32V270.49h11.9V287h6.74V270.49h11.58V287h33.6V245h5.08v-5.72H569.3V245H579v62.35h33.46V259.63h14.79V245h45.9V230.07h11.66V245h7.51v14.64h13.79V292.9h53.66V489.33H839V243.49H984.11V489.33H1285V314.55h26.52v-10h14.38v10h6.29v-10h6.41v10h30.62v147.6h37.59v-8.59h21.75v8.59h15.84v53.2h19.89V598h-43.5v1.83H204.37Z"/><g id="_05" data-name=" 05"><rect class="cls-4" x="911.87" y="133.78" width="92.41" height="33.81"/><rect class="cls-4" x="901.1" y="153.64" width="112.05" height="270.6"/><rect class="cls-5" x="901.1" y="153.64" width="112.05" height="11.45"/><rect class="cls-6" x="1090.21" y="179.97" width="46.82" height="18.97"/><rect class="cls-4" x="1042.49" y="180.01" width="49.05" height="18.97"/><rect class="cls-6" x="1091.98" y="189.1" width="59.13" height="190.53"/><rect class="cls-4" x="1031.81" y="189.01" width="61.89" height="190.94"/><rect class="cls-7" x="1031.8" y="206.64" width="61.89" height="9.21"/><rect class="cls-7" x="1031.91" y="250.72" width="61.89" height="9.21"/><rect class="cls-7" x="1031.92" y="300.8" width="62.35" height="9.21"/><rect class="cls-7" x="1093.7" y="206.64" width="57.41" height="9.21"/><rect class="cls-7" x="1092.45" y="250.72" width="57.41" height="9.21"/><rect class="cls-7" x="1092.45" y="300.8" width="57.41" height="9.21"/><rect class="cls-6" x="887.28" y="180.28" width="74.06" height="238.37"/><rect class="cls-4" x="817.84" y="180.28" width="72.66" height="238.37"/><rect class="cls-7" x="822.54" y="203.51" width="64.74" height="11.62"/><rect class="cls-7" x="822.54" y="223.88" width="64.74" height="11.62"/><rect class="cls-7" x="822.54" y="244.24" width="64.74" height="11.62"/><rect class="cls-7" x="822.54" y="264.61" width="64.74" height="11.62"/><rect class="cls-7" x="822.54" y="284.98" width="64.74" height="11.62"/><rect class="cls-7" x="822.54" y="305.35" width="64.74" height="11.62"/><rect class="cls-7" x="822.54" y="325.71" width="64.74" height="11.62"/><rect class="cls-7" x="822.54" y="346.08" width="64.74" height="11.62"/><rect class="cls-7" x="822.54" y="366.45" width="64.74" height="11.62"/><rect class="cls-7" x="822.54" y="386.81" width="64.74" height="11.62"/><rect class="cls-7" x="896.91" y="203.51" width="61.24" height="11.62"/><rect class="cls-7" x="896.91" y="223.88" width="61.24" height="11.62"/><rect class="cls-7" x="896.91" y="244.24" width="61.24" height="11.62"/><rect class="cls-7" x="896.91" y="264.61" width="61.24" height="11.62"/><rect class="cls-7" x="896.91" y="284.98" width="61.24" height="11.62"/><rect class="cls-7" x="896.91" y="305.35" width="61.24" height="11.62"/><rect class="cls-7" x="896.91" y="325.71" width="61.24" height="11.62"/><rect class="cls-7" x="896.91" y="346.08" width="61.24" height="11.62"/><rect class="cls-7" x="896.91" y="366.45" width="61.24" height="11.62"/><rect class="cls-7" x="896.91" y="386.81" width="61.24" height="11.62"/><rect class="cls-4" x="1161.15" y="260.81" width="60.99" height="19.45"/><rect class="cls-6" x="1222.14" y="260.81" width="30.65" height="17.52"/><rect class="cls-4" x="1143.17" y="275.78" width="89.33" height="281.18"/><path class="cls-8" d="M1231.38,275.77h39.45L1270.68,557h-39.3Z"/><rect class="cls-5" x="1143.17" y="275.78" width="88.24" height="7.37"/><rect class="cls-9" x="1231.41" y="275.78" width="39.39" height="7.37"/><rect class="cls-7" x="1261.5" y="291.24" width="6.06" height="9.84"/><rect class="cls-7" x="1182.57" y="291.24" width="10.52" height="9.84"/><rect class="cls-7" x="1200.04" y="291.24" width="10.52" height="9.84"/><rect class="cls-7" x="1217.52" y="291.24" width="10.52" height="9.84"/><rect class="cls-7" x="1165.1" y="291.24" width="10.52" height="9.84"/><rect class="cls-7" x="1147.62" y="291.24" width="10.52" height="9.84"/><rect class="cls-7" x="1261.31" y="306.04" width="6.06" height="9.84"/><rect class="cls-7" x="1182.38" y="306.04" width="10.52" height="9.84"/><rect class="cls-7" x="1199.86" y="306.04" width="10.52" height="9.84"/><rect class="cls-7" x="1217.33" y="306.04" width="10.52" height="9.84"/><rect class="cls-7" x="1164.91" y="306.04" width="10.52" height="9.84"/><rect class="cls-7" x="1147.44" y="306.04" width="10.52" height="9.84"/><rect class="cls-7" x="1261.31" y="321.74" width="6.06" height="9.84"/><rect class="cls-7" x="1182.38" y="321.74" width="10.52" height="9.84"/><rect class="cls-7" x="1199.86" y="321.74" width="10.52" height="9.84"/><rect class="cls-7" x="1217.33" y="321.74" width="10.52" height="9.84"/><rect class="cls-7" x="1164.91" y="321.74" width="10.52" height="9.84"/><rect class="cls-7" x="1147.44" y="321.74" width="10.52" height="9.84"/><rect class="cls-7" x="1261.5" y="337.79" width="6.06" height="9.84"/><rect class="cls-7" x="1182.57" y="337.79" width="10.52" height="9.84"/><rect class="cls-7" x="1200.04" y="337.79" width="10.52" height="9.84"/><rect class="cls-7" x="1217.52" y="337.79" width="10.52" height="9.84"/><rect class="cls-7" x="1165.1" y="337.79" width="10.52" height="9.84"/><rect class="cls-7" x="1147.62" y="337.79" width="10.52" height="9.84"/><rect class="cls-7" x="1261.5" y="353.13" width="6.06" height="9.84"/><rect class="cls-7" x="1182.57" y="353.13" width="10.52" height="9.84"/><rect class="cls-7" x="1200.04" y="353.13" width="10.52" height="9.84"/><rect class="cls-7" x="1217.52" y="353.13" width="10.52" height="9.84"/><rect class="cls-7" x="1165.1" y="353.13" width="10.52" height="9.84"/><rect class="cls-7" x="1147.62" y="353.13" width="10.52" height="9.84"/><rect class="cls-7" x="1261.31" y="367.93" width="6.06" height="9.84"/><rect class="cls-7" x="1182.38" y="367.93" width="10.52" height="9.84"/><rect class="cls-7" x="1199.86" y="367.93" width="10.52" height="9.84"/><rect class="cls-7" x="1217.33" y="367.93" width="10.52" height="9.84"/><rect class="cls-7" x="1164.91" y="367.93" width="10.52" height="9.84"/><rect class="cls-7" x="1147.44" y="367.93" width="10.52" height="9.84"/><rect class="cls-7" x="1261.31" y="383.64" width="6.06" height="9.84"/><rect class="cls-7" x="1182.38" y="383.64" width="10.52" height="9.84"/><rect class="cls-7" x="1199.86" y="383.64" width="10.52" height="9.84"/><rect class="cls-7" x="1217.33" y="383.64" width="10.52" height="9.84"/><rect class="cls-7" x="1164.91" y="383.64" width="10.52" height="9.84"/><rect class="cls-7" x="1147.44" y="383.64" width="10.52" height="9.84"/><rect class="cls-7" x="1261.5" y="399.68" width="6.06" height="9.84"/><rect class="cls-7" x="1182.57" y="399.68" width="10.52" height="9.84"/><rect class="cls-7" x="1200.04" y="399.68" width="10.52" height="9.84"/><rect class="cls-7" x="1217.52" y="399.68" width="10.52" height="9.84"/><rect class="cls-7" x="1165.1" y="399.68" width="10.52" height="9.84"/><rect class="cls-7" x="1147.62" y="399.68" width="10.52" height="9.84"/><rect class="cls-7" x="1261.12" y="415.36" width="6.06" height="9.84"/><rect class="cls-7" x="1182.2" y="415.36" width="10.52" height="9.84"/><rect class="cls-7" x="1199.67" y="415.36" width="10.52" height="9.84"/><rect class="cls-7" x="1217.14" y="415.36" width="10.52" height="9.84"/><rect class="cls-7" x="1164.72" y="415.36" width="10.52" height="9.84"/><rect class="cls-7" x="1147.25" y="415.36" width="10.52" height="9.84"/><rect class="cls-7" x="1261.31" y="431.41" width="6.06" height="9.84"/><rect class="cls-7" x="1182.38" y="431.41" width="10.52" height="9.84"/><rect class="cls-7" x="1199.86" y="431.41" width="10.52" height="9.84"/><rect class="cls-7" x="1217.33" y="431.41" width="10.52" height="9.84"/><rect class="cls-7" x="1164.91" y="431.41" width="10.52" height="9.84"/><rect class="cls-7" x="1147.44" y="431.41" width="10.52" height="9.84"/><rect class="cls-7" x="1261.5" y="446.15" width="6.06" height="9.84"/><rect class="cls-7" x="1182.57" y="446.15" width="10.52" height="9.84"/><rect class="cls-7" x="1200.04" y="446.15" width="10.52" height="9.84"/><rect class="cls-7" x="1217.52" y="446.15" width="10.52" height="9.84"/><rect class="cls-7" x="1165.1" y="446.15" width="10.52" height="9.84"/><rect class="cls-7" x="1147.62" y="446.15" width="10.52" height="9.84"/><rect class="cls-7" x="1261.68" y="462.19" width="6.06" height="9.84"/><rect class="cls-7" x="1182.76" y="462.19" width="10.52" height="9.84"/><rect class="cls-7" x="1200.23" y="462.19" width="10.52" height="9.84"/><rect class="cls-7" x="1217.7" y="462.19" width="10.52" height="9.84"/><rect class="cls-7" x="1165.28" y="462.19" width="10.52" height="9.84"/><rect class="cls-7" x="1147.81" y="462.19" width="10.52" height="9.84"/><rect class="cls-4" x="1276.69" y="351.73" width="60.99" height="19.45"/><rect class="cls-6" x="1337.68" y="351.73" width="30.65" height="17.52"/><rect class="cls-4" x="1258.71" y="366.7" width="89.33" height="211.1"/><path class="cls-8" d="M1346.92,366.69h39.45l-.15,211.1h-39.3Z"/><rect class="cls-5" x="1258.71" y="366.69" width="88.24" height="7.37"/><rect class="cls-9" x="1346.94" y="366.69" width="39.39" height="7.37"/><rect class="cls-7" x="1377.03" y="382.15" width="6.06" height="9.84"/><rect class="cls-7" x="1298.11" y="382.15" width="10.52" height="9.84"/><rect class="cls-7" x="1315.58" y="382.15" width="10.52" height="9.84"/><rect class="cls-7" x="1333.06" y="382.15" width="10.52" height="9.84"/><rect class="cls-7" x="1280.64" y="382.15" width="10.52" height="9.84"/><rect class="cls-7" x="1263.16" y="382.15" width="10.52" height="9.84"/><rect class="cls-7" x="1376.85" y="396.95" width="6.06" height="9.84"/><rect class="cls-7" x="1297.92" y="396.95" width="10.52" height="9.84"/><rect class="cls-7" x="1315.4" y="396.95" width="10.52" height="9.84"/><rect class="cls-7" x="1332.87" y="396.95" width="10.52" height="9.84"/><rect class="cls-7" x="1280.45" y="396.95" width="10.52" height="9.84"/><rect class="cls-7" x="1262.98" y="396.95" width="10.52" height="9.84"/><rect class="cls-7" x="1376.85" y="412.66" width="6.06" height="9.84"/><rect class="cls-7" x="1297.92" y="412.66" width="10.52" height="9.84"/><rect class="cls-7" x="1315.4" y="412.66" width="10.52" height="9.84"/><rect class="cls-7" x="1332.87" y="412.66" width="10.52" height="9.84"/><rect class="cls-7" x="1280.45" y="412.66" width="10.52" height="9.84"/><rect class="cls-7" x="1262.98" y="412.66" width="10.52" height="9.84"/><rect class="cls-7" x="1377.03" y="428.71" width="6.06" height="9.84"/><rect class="cls-7" x="1298.11" y="428.71" width="10.52" height="9.84"/><rect class="cls-7" x="1315.58" y="428.71" width="10.52" height="9.84"/><rect class="cls-7" x="1333.06" y="428.71" width="10.52" height="9.84"/><rect class="cls-7" x="1280.64" y="428.71" width="10.52" height="9.84"/><rect class="cls-7" x="1263.16" y="428.71" width="10.52" height="9.84"/><rect class="cls-7" x="1377.03" y="444.05" width="6.06" height="9.84"/><rect class="cls-7" x="1298.11" y="444.05" width="10.52" height="9.84"/><rect class="cls-7" x="1315.58" y="444.05" width="10.52" height="9.84"/><rect class="cls-7" x="1333.06" y="444.05" width="10.52" height="9.84"/><rect class="cls-7" x="1280.64" y="444.05" width="10.52" height="9.84"/><rect class="cls-7" x="1263.16" y="444.05" width="10.52" height="9.84"/><rect class="cls-7" x="1376.85" y="458.85" width="6.06" height="9.84"/><rect class="cls-7" x="1297.92" y="458.85" width="10.52" height="9.84"/><rect class="cls-7" x="1315.4" y="458.85" width="10.52" height="9.84"/><rect class="cls-7" x="1332.87" y="458.85" width="10.52" height="9.84"/><rect class="cls-7" x="1280.45" y="458.85" width="10.52" height="9.84"/><rect class="cls-7" x="1262.98" y="458.85" width="10.52" height="9.84"/><rect class="cls-7" x="1376.85" y="474.55" width="6.06" height="9.84"/><rect class="cls-7" x="1297.92" y="474.55" width="10.52" height="9.84"/><rect class="cls-7" x="1315.4" y="474.55" width="10.52" height="9.84"/><rect class="cls-7" x="1332.87" y="474.55" width="10.52" height="9.84"/><rect class="cls-7" x="1280.45" y="474.55" width="10.52" height="9.84"/><rect class="cls-7" x="1262.98" y="474.55" width="10.52" height="9.84"/><rect class="cls-7" x="1377.03" y="490.6" width="6.06" height="9.84"/><rect class="cls-7" x="1298.11" y="490.6" width="10.52" height="9.84"/><rect class="cls-7" x="1315.58" y="490.6" width="10.52" height="9.84"/><rect class="cls-7" x="1333.06" y="490.6" width="10.52" height="9.84"/><rect class="cls-7" x="1280.64" y="490.6" width="10.52" height="9.84"/><rect class="cls-7" x="1263.16" y="490.6" width="10.52" height="9.84"/><rect class="cls-7" x="1376.66" y="506.27" width="6.06" height="9.84"/><rect class="cls-7" x="1297.74" y="506.27" width="10.52" height="9.84"/><rect class="cls-7" x="1315.21" y="506.27" width="10.52" height="9.84"/><rect class="cls-7" x="1332.68" y="506.27" width="10.52" height="9.84"/><rect class="cls-7" x="1280.26" y="506.27" width="10.52" height="9.84"/><rect class="cls-7" x="1262.79" y="506.27" width="10.52" height="9.84"/><rect class="cls-7" x="1376.85" y="522.32" width="6.06" height="9.84"/><rect class="cls-7" x="1297.92" y="522.32" width="10.52" height="9.84"/><rect class="cls-7" x="1315.4" y="522.32" width="10.52" height="9.84"/><rect class="cls-7" x="1332.87" y="522.32" width="10.52" height="9.84"/><rect class="cls-7" x="1280.45" y="522.32" width="10.52" height="9.84"/><rect class="cls-7" x="1262.98" y="522.32" width="10.52" height="9.84"/><rect class="cls-7" x="1377.03" y="537.06" width="6.06" height="9.84"/><rect class="cls-7" x="1298.11" y="537.06" width="10.52" height="9.84"/><rect class="cls-7" x="1315.58" y="537.06" width="10.52" height="9.84"/><rect class="cls-7" x="1333.06" y="537.06" width="10.52" height="9.84"/><rect class="cls-7" x="1280.64" y="537.06" width="10.52" height="9.84"/><rect class="cls-7" x="1263.16" y="537.06" width="10.52" height="9.84"/><rect class="cls-7" x="1377.22" y="553.11" width="6.06" height="9.84"/><rect class="cls-7" x="1298.3" y="553.11" width="10.52" height="9.84"/><rect class="cls-7" x="1315.77" y="553.11" width="10.52" height="9.84"/><rect class="cls-7" x="1333.24" y="553.11" width="10.52" height="9.84"/><rect class="cls-7" x="1280.82" y="553.11" width="10.52" height="9.84"/><rect class="cls-7" x="1263.35" y="553.11" width="10.52" height="9.84"/><rect class="cls-10" x="996.19" y="236.28" width="74.06" height="355.6"/><rect class="cls-11" x="926.76" y="236.28" width="72.66" height="355.6"/><rect class="cls-12" x="931.46" y="259.51" width="64.74" height="11.62"/><rect class="cls-12" x="931.46" y="279.88" width="64.74" height="11.62"/><rect class="cls-12" x="931.46" y="300.25" width="64.74" height="11.62"/><rect class="cls-12" x="931.46" y="320.62" width="64.74" height="11.62"/><rect class="cls-12" x="931.46" y="340.98" width="64.74" height="11.62"/><rect class="cls-12" x="931.46" y="361.35" width="64.74" height="11.62"/><rect class="cls-12" x="931.46" y="381.72" width="64.74" height="11.62"/><rect class="cls-12" x="931.46" y="402.09" width="64.74" height="11.62"/><rect class="cls-12" x="931.46" y="422.45" width="64.74" height="11.62"/><rect class="cls-12" x="931.46" y="442.82" width="64.74" height="11.62"/><rect class="cls-12" x="931.46" y="464.85" width="64.74" height="11.62"/><rect class="cls-12" x="931.46" y="487.45" width="64.74" height="11.62"/><rect class="cls-13" x="1005.83" y="259.51" width="61.24" height="11.62"/><rect class="cls-13" x="1005.83" y="279.88" width="61.24" height="11.62"/><rect class="cls-13" x="1005.83" y="300.25" width="61.24" height="11.62"/><rect class="cls-13" x="1005.83" y="320.62" width="61.24" height="11.62"/><rect class="cls-13" x="1005.83" y="340.98" width="61.24" height="11.62"/><rect class="cls-13" x="1005.83" y="361.35" width="61.24" height="11.62"/><rect class="cls-13" x="1005.83" y="381.72" width="61.24" height="11.62"/><rect class="cls-13" x="1005.83" y="402.09" width="61.24" height="11.62"/><rect class="cls-13" x="1005.83" y="422.45" width="61.24" height="11.62"/><rect class="cls-13" x="1005.83" y="442.82" width="61.24" height="11.62"/><rect class="cls-14" x="386.3" y="324.02" width="85.33" height="31.22"/><rect class="cls-14" x="376.35" y="342.36" width="103.46" height="249.85"/><rect class="cls-13" x="376.35" y="434.26" width="103.46" height="8.26"/><rect class="cls-13" x="376.35" y="455.15" width="103.46" height="8.26"/><rect class="cls-13" x="376.35" y="475.45" width="103.46" height="8.26"/><rect class="cls-13" x="376.74" y="411.81" width="103.07" height="8.26"/><rect class="cls-13" x="376.41" y="389.36" width="103.39" height="8.26"/><rect class="cls-13" x="376.9" y="366.9" width="102.89" height="8.26"/><rect class="cls-15" x="376.35" y="342.36" width="103.46" height="10.57"/><rect class="cls-14" x="871.55" y="313.68" width="85.1" height="31.14"/><rect class="cls-14" x="861.62" y="331.97" width="103.19" height="249.2"/><rect class="cls-13" x="861.62" y="423.62" width="103.19" height="8.23"/><rect class="cls-13" x="861.62" y="444.46" width="103.19" height="8.23"/><rect class="cls-13" x="861.62" y="464.7" width="103.19" height="8.23"/><rect class="cls-13" x="862.01" y="401.23" width="102.8" height="8.23"/><rect class="cls-13" x="861.69" y="378.84" width="103.11" height="8.23"/><rect class="cls-13" x="862.18" y="356.45" width="102.62" height="8.23"/><rect class="cls-15" x="861.62" y="331.97" width="103.19" height="10.54"/><rect class="cls-10" x="805.19" y="235.4" width="37.24" height="15.09"/><rect class="cls-11" x="767.22" y="235.43" width="39.02" height="15.09"/><rect class="cls-10" x="806.59" y="242.72" width="47.04" height="272.65"/><rect class="cls-11" x="758.72" y="242.58" width="49.24" height="273.24"/><rect class="cls-12" x="759.71" y="256.61" width="49.24" height="7.33"/><rect class="cls-12" x="758.72" y="291.68" width="49.24" height="7.33"/><rect class="cls-12" x="758.72" y="331.52" width="49.24" height="7.33"/><rect class="cls-16" x="808.96" y="256.61" width="45.67" height="7.33"/><rect class="cls-16" x="807.96" y="291.68" width="45.67" height="7.33"/><rect class="cls-16" x="807.96" y="331.52" width="45.67" height="7.33"/><rect class="cls-11" x="1060.87" y="318.44" width="60.99" height="19.45"/><rect class="cls-10" x="1121.86" y="318.44" width="30.65" height="17.52"/><rect class="cls-11" x="1042.88" y="333.41" width="89.33" height="211.1"/><path class="cls-17" d="M1131.09,333.41h39.46l-.15,211.1h-39.31Z"/><rect class="cls-14" x="1042.88" y="333.41" width="88.24" height="7.37"/><rect class="cls-15" x="1131.12" y="333.41" width="39.39" height="7.37"/><rect class="cls-13" x="1161.21" y="348.87" width="6.06" height="9.84"/><rect class="cls-13" x="1082.29" y="348.87" width="10.52" height="9.84"/><rect class="cls-13" x="1099.76" y="348.87" width="10.52" height="9.84"/><rect class="cls-13" x="1117.23" y="348.87" width="10.52" height="9.84"/><rect class="cls-13" x="1064.81" y="348.87" width="10.52" height="9.84"/><rect class="cls-13" x="1047.34" y="348.87" width="10.52" height="9.84"/><rect class="cls-13" x="1161.02" y="363.67" width="6.06" height="9.84"/><rect class="cls-13" x="1082.1" y="363.67" width="10.52" height="9.84"/><rect class="cls-13" x="1099.57" y="363.67" width="10.52" height="9.84"/><rect class="cls-13" x="1117.05" y="363.67" width="10.52" height="9.84"/><rect class="cls-13" x="1064.63" y="363.67" width="10.52" height="9.84"/><rect class="cls-13" x="1047.15" y="363.67" width="10.52" height="9.84"/><rect class="cls-13" x="1161.02" y="379.38" width="6.06" height="9.84"/><rect class="cls-13" x="1082.1" y="379.37" width="10.52" height="9.84"/><rect class="cls-13" x="1099.57" y="379.37" width="10.52" height="9.84"/><rect class="cls-13" x="1117.05" y="379.37" width="10.52" height="9.84"/><rect class="cls-13" x="1064.63" y="379.37" width="10.52" height="9.84"/><rect class="cls-13" x="1047.15" y="379.37" width="10.52" height="9.84"/><rect class="cls-13" x="1161.21" y="395.42" width="6.06" height="9.84"/><rect class="cls-13" x="1082.29" y="395.42" width="10.52" height="9.84"/><rect class="cls-13" x="1099.76" y="395.42" width="10.52" height="9.84"/><rect class="cls-13" x="1117.23" y="395.42" width="10.52" height="9.84"/><rect class="cls-13" x="1064.81" y="395.42" width="10.52" height="9.84"/><rect class="cls-13" x="1047.34" y="395.42" width="10.52" height="9.84"/><rect class="cls-13" x="1161.21" y="410.76" width="6.06" height="9.84"/><rect class="cls-13" x="1082.29" y="410.76" width="10.52" height="9.84"/><rect class="cls-13" x="1099.76" y="410.76" width="10.52" height="9.84"/><rect class="cls-13" x="1117.23" y="410.76" width="10.52" height="9.84"/><rect class="cls-13" x="1064.81" y="410.76" width="10.52" height="9.84"/><rect class="cls-13" x="1047.34" y="410.76" width="10.52" height="9.84"/><rect class="cls-13" x="1161.02" y="425.56" width="6.06" height="9.84"/><rect class="cls-13" x="1082.1" y="425.56" width="10.52" height="9.84"/><rect class="cls-13" x="1099.57" y="425.56" width="10.52" height="9.84"/><rect class="cls-13" x="1117.05" y="425.56" width="10.52" height="9.84"/><rect class="cls-13" x="1064.63" y="425.56" width="10.52" height="9.84"/><rect class="cls-13" x="1047.15" y="425.56" width="10.52" height="9.84"/><rect class="cls-13" x="1161.02" y="441.27" width="6.06" height="9.84"/><rect class="cls-13" x="1082.1" y="441.27" width="10.52" height="9.84"/><rect class="cls-13" x="1099.57" y="441.27" width="10.52" height="9.84"/><rect class="cls-13" x="1117.05" y="441.27" width="10.52" height="9.84"/><rect class="cls-13" x="1064.63" y="441.27" width="10.52" height="9.84"/><rect class="cls-13" x="1047.15" y="441.27" width="10.52" height="9.84"/><rect class="cls-13" x="1161.21" y="457.32" width="6.06" height="9.84"/><rect class="cls-13" x="1082.29" y="457.32" width="10.52" height="9.84"/><rect class="cls-13" x="1099.76" y="457.32" width="10.52" height="9.84"/><rect class="cls-13" x="1117.23" y="457.32" width="10.52" height="9.84"/><rect class="cls-13" x="1064.81" y="457.32" width="10.52" height="9.84"/><rect class="cls-13" x="1047.34" y="457.32" width="10.52" height="9.84"/><rect class="cls-13" x="1160.84" y="472.99" width="6.06" height="9.84"/><rect class="cls-13" x="1081.91" y="472.99" width="10.52" height="9.84"/><rect class="cls-13" x="1099.39" y="472.99" width="10.52" height="9.84"/><rect class="cls-13" x="1116.86" y="472.99" width="10.52" height="9.84"/><rect class="cls-13" x="1064.44" y="472.99" width="10.52" height="9.84"/><rect class="cls-13" x="1046.97" y="472.99" width="10.52" height="9.84"/><rect class="cls-13" x="1161.02" y="489.04" width="6.06" height="9.84"/><rect class="cls-13" x="1082.1" y="489.04" width="10.52" height="9.84"/><rect class="cls-13" x="1099.57" y="489.04" width="10.52" height="9.84"/><rect class="cls-13" x="1117.05" y="489.04" width="10.52" height="9.84"/><rect class="cls-13" x="1064.63" y="489.04" width="10.52" height="9.84"/><rect class="cls-13" x="1047.15" y="489.04" width="10.52" height="9.84"/><rect class="cls-13" x="1161.21" y="503.78" width="6.06" height="9.84"/><rect class="cls-13" x="1082.29" y="503.78" width="10.52" height="9.84"/><rect class="cls-13" x="1099.76" y="503.78" width="10.52" height="9.84"/><rect class="cls-13" x="1117.23" y="503.78" width="10.52" height="9.84"/><rect class="cls-13" x="1064.81" y="503.78" width="10.52" height="9.84"/><rect class="cls-13" x="1047.34" y="503.78" width="10.52" height="9.84"/><rect class="cls-13" x="1161.4" y="519.83" width="6.06" height="9.84"/><rect class="cls-13" x="1082.47" y="519.83" width="10.52" height="9.84"/><rect class="cls-13" x="1099.95" y="519.83" width="10.52" height="9.84"/><rect class="cls-13" x="1117.42" y="519.83" width="10.52" height="9.84"/><rect class="cls-13" x="1065" y="519.83" width="10.52" height="9.84"/><rect class="cls-13" x="1047.53" y="519.83" width="10.52" height="9.84"/><rect class="cls-11" x="553.53" y="281.46" width="60.99" height="19.45"/><rect class="cls-10" x="614.52" y="281.46" width="30.65" height="17.52"/><rect class="cls-11" x="535.55" y="296.43" width="89.33" height="211.1"/><path class="cls-17" d="M623.76,296.42h39.45l-.15,211.1h-39.3Z"/><rect class="cls-14" x="535.55" y="296.42" width="88.24" height="7.37"/><rect class="cls-15" x="623.79" y="296.42" width="39.39" height="7.37"/><rect class="cls-13" x="653.88" y="311.88" width="6.06" height="9.84"/><rect class="cls-13" x="574.95" y="311.88" width="10.52" height="9.84"/><rect class="cls-13" x="592.43" y="311.88" width="10.52" height="9.84"/><rect class="cls-13" x="609.9" y="311.88" width="10.52" height="9.84"/><rect class="cls-13" x="557.48" y="311.88" width="10.52" height="9.84"/><rect class="cls-13" x="540.01" y="311.88" width="10.52" height="9.84"/><rect class="cls-13" x="653.69" y="326.68" width="6.06" height="9.84"/><rect class="cls-13" x="574.77" y="326.68" width="10.52" height="9.84"/><rect class="cls-13" x="592.24" y="326.68" width="10.52" height="9.84"/><rect class="cls-13" x="609.71" y="326.68" width="10.52" height="9.84"/><rect class="cls-13" x="557.29" y="326.68" width="10.52" height="9.84"/><rect class="cls-13" x="539.82" y="326.68" width="10.52" height="9.84"/><rect class="cls-13" x="653.69" y="342.39" width="6.06" height="9.84"/><rect class="cls-13" x="574.77" y="342.39" width="10.52" height="9.84"/><rect class="cls-13" x="592.24" y="342.39" width="10.52" height="9.84"/><rect class="cls-13" x="609.71" y="342.39" width="10.52" height="9.84"/><rect class="cls-13" x="557.29" y="342.39" width="10.52" height="9.84"/><rect class="cls-13" x="539.82" y="342.39" width="10.52" height="9.84"/><rect class="cls-13" x="653.88" y="358.44" width="6.06" height="9.84"/><rect class="cls-13" x="574.95" y="358.44" width="10.52" height="9.84"/><rect class="cls-13" x="592.43" y="358.44" width="10.52" height="9.84"/><rect class="cls-13" x="609.9" y="358.44" width="10.52" height="9.84"/><rect class="cls-13" x="557.48" y="358.44" width="10.52" height="9.84"/><rect class="cls-13" x="540.01" y="358.44" width="10.52" height="9.84"/><rect class="cls-13" x="653.88" y="373.78" width="6.06" height="9.84"/><rect class="cls-13" x="574.95" y="373.78" width="10.52" height="9.84"/><rect class="cls-13" x="592.43" y="373.78" width="10.52" height="9.84"/><rect class="cls-13" x="609.9" y="373.78" width="10.52" height="9.84"/><rect class="cls-13" x="557.48" y="373.78" width="10.52" height="9.84"/><rect class="cls-13" x="540.01" y="373.78" width="10.52" height="9.84"/><rect class="cls-13" x="653.69" y="388.58" width="6.06" height="9.84"/><rect class="cls-13" x="574.77" y="388.58" width="10.52" height="9.84"/><rect class="cls-13" x="592.24" y="388.58" width="10.52" height="9.84"/><rect class="cls-13" x="609.71" y="388.58" width="10.52" height="9.84"/><rect class="cls-13" x="557.29" y="388.58" width="10.52" height="9.84"/><rect class="cls-13" x="539.82" y="388.58" width="10.52" height="9.84"/><rect class="cls-13" x="653.69" y="404.28" width="6.06" height="9.84"/><rect class="cls-13" x="574.77" y="404.28" width="10.52" height="9.84"/><rect class="cls-13" x="592.24" y="404.28" width="10.52" height="9.84"/><rect class="cls-13" x="609.71" y="404.28" width="10.52" height="9.84"/><rect class="cls-13" x="557.29" y="404.28" width="10.52" height="9.84"/><rect class="cls-13" x="539.82" y="404.28" width="10.52" height="9.84"/><rect class="cls-13" x="653.88" y="420.33" width="6.06" height="9.84"/><rect class="cls-13" x="574.95" y="420.33" width="10.52" height="9.84"/><rect class="cls-13" x="592.43" y="420.33" width="10.52" height="9.84"/><rect class="cls-13" x="609.9" y="420.33" width="10.52" height="9.84"/><rect class="cls-13" x="557.48" y="420.33" width="10.52" height="9.84"/><rect class="cls-13" x="540.01" y="420.33" width="10.52" height="9.84"/><rect class="cls-13" x="653.5" y="436.01" width="6.06" height="9.84"/><rect class="cls-13" x="574.58" y="436.01" width="10.52" height="9.84"/><rect class="cls-13" x="592.05" y="436.01" width="10.52" height="9.84"/><rect class="cls-13" x="609.53" y="436.01" width="10.52" height="9.84"/><rect class="cls-13" x="557.11" y="436.01" width="10.52" height="9.84"/><rect class="cls-13" x="539.63" y="436.01" width="10.52" height="9.84"/><rect class="cls-13" x="653.69" y="452.05" width="6.06" height="9.84"/><rect class="cls-13" x="574.77" y="452.05" width="10.52" height="9.84"/><rect class="cls-13" x="592.24" y="452.05" width="10.52" height="9.84"/><rect class="cls-13" x="609.71" y="452.05" width="10.52" height="9.84"/><rect class="cls-13" x="557.29" y="452.05" width="10.52" height="9.84"/><rect class="cls-13" x="539.82" y="452.05" width="10.52" height="9.84"/><rect class="cls-13" x="653.88" y="466.79" width="6.06" height="9.84"/><rect class="cls-13" x="574.95" y="466.79" width="10.52" height="9.84"/><rect class="cls-13" x="592.43" y="466.79" width="10.52" height="9.84"/><rect class="cls-13" x="609.9" y="466.79" width="10.52" height="9.84"/><rect class="cls-13" x="557.48" y="466.79" width="10.52" height="9.84"/><rect class="cls-13" x="540.01" y="466.79" width="10.52" height="9.84"/><rect class="cls-13" x="654.06" y="482.84" width="6.06" height="9.84"/><rect class="cls-13" x="575.14" y="482.84" width="10.52" height="9.84"/><rect class="cls-13" x="592.61" y="482.84" width="10.52" height="9.84"/><rect class="cls-13" x="610.09" y="482.84" width="10.52" height="9.84"/><rect class="cls-13" x="557.67" y="482.84" width="10.52" height="9.84"/><rect class="cls-13" x="540.19" y="482.84" width="10.52" height="9.84"/><rect class="cls-11" x="687.38" y="281.46" width="60.99" height="19.45"/><rect class="cls-10" x="748.37" y="281.46" width="30.65" height="17.52"/><rect class="cls-11" x="669.4" y="296.43" width="89.33" height="211.1"/><path class="cls-17" d="M757.61,296.42h39.45l-.15,211.1h-39.3Z"/><rect class="cls-14" x="669.4" y="296.42" width="88.24" height="7.37"/><rect class="cls-15" x="757.63" y="296.42" width="39.39" height="7.37"/><rect class="cls-13" x="787.72" y="311.88" width="6.06" height="9.84"/><rect class="cls-13" x="708.8" y="311.88" width="10.52" height="9.84"/><rect class="cls-13" x="726.27" y="311.88" width="10.52" height="9.84"/><rect class="cls-13" x="743.75" y="311.88" width="10.52" height="9.84"/><rect class="cls-13" x="691.33" y="311.88" width="10.52" height="9.84"/><rect class="cls-13" x="673.85" y="311.88" width="10.52" height="9.84"/><rect class="cls-13" x="787.54" y="326.68" width="6.06" height="9.84"/><rect class="cls-13" x="708.61" y="326.68" width="10.52" height="9.84"/><rect class="cls-13" x="726.09" y="326.68" width="10.52" height="9.84"/><rect class="cls-13" x="743.56" y="326.68" width="10.52" height="9.84"/><rect class="cls-13" x="691.14" y="326.68" width="10.52" height="9.84"/><rect class="cls-13" x="673.67" y="326.68" width="10.52" height="9.84"/><rect class="cls-13" x="787.54" y="342.39" width="6.06" height="9.84"/><rect class="cls-13" x="708.61" y="342.39" width="10.52" height="9.84"/><rect class="cls-13" x="726.09" y="342.39" width="10.52" height="9.84"/><rect class="cls-13" x="743.56" y="342.39" width="10.52" height="9.84"/><rect class="cls-13" x="691.14" y="342.39" width="10.52" height="9.84"/><rect class="cls-13" x="673.67" y="342.39" width="10.52" height="9.84"/><rect class="cls-13" x="787.72" y="358.44" width="6.06" height="9.84"/><rect class="cls-13" x="708.8" y="358.44" width="10.52" height="9.84"/><rect class="cls-13" x="726.27" y="358.44" width="10.52" height="9.84"/><rect class="cls-13" x="743.75" y="358.44" width="10.52" height="9.84"/><rect class="cls-13" x="691.33" y="358.44" width="10.52" height="9.84"/><rect class="cls-13" x="673.85" y="358.44" width="10.52" height="9.84"/><rect class="cls-13" x="787.72" y="373.78" width="6.06" height="9.84"/><rect class="cls-13" x="708.8" y="373.78" width="10.52" height="9.84"/><rect class="cls-13" x="726.27" y="373.78" width="10.52" height="9.84"/><rect class="cls-13" x="743.75" y="373.78" width="10.52" height="9.84"/><rect class="cls-13" x="691.33" y="373.78" width="10.52" height="9.84"/><rect class="cls-13" x="673.85" y="373.78" width="10.52" height="9.84"/><rect class="cls-13" x="787.54" y="388.58" width="6.06" height="9.84"/><rect class="cls-13" x="708.61" y="388.58" width="10.52" height="9.84"/><rect class="cls-13" x="726.09" y="388.58" width="10.52" height="9.84"/><rect class="cls-13" x="743.56" y="388.58" width="10.52" height="9.84"/><rect class="cls-13" x="691.14" y="388.58" width="10.52" height="9.84"/><rect class="cls-13" x="673.67" y="388.58" width="10.52" height="9.84"/><rect class="cls-13" x="787.54" y="404.28" width="6.06" height="9.84"/><rect class="cls-13" x="708.61" y="404.28" width="10.52" height="9.84"/><rect class="cls-13" x="726.09" y="404.28" width="10.52" height="9.84"/><rect class="cls-13" x="743.56" y="404.28" width="10.52" height="9.84"/><rect class="cls-13" x="691.14" y="404.28" width="10.52" height="9.84"/><rect class="cls-13" x="673.67" y="404.28" width="10.52" height="9.84"/><rect class="cls-13" x="787.72" y="420.33" width="6.06" height="9.84"/><rect class="cls-13" x="708.8" y="420.33" width="10.52" height="9.84"/><rect class="cls-13" x="726.27" y="420.33" width="10.52" height="9.84"/><rect class="cls-13" x="743.75" y="420.33" width="10.52" height="9.84"/><rect class="cls-13" x="691.33" y="420.33" width="10.52" height="9.84"/><rect class="cls-13" x="673.85" y="420.33" width="10.52" height="9.84"/><rect class="cls-13" x="787.35" y="436.01" width="6.06" height="9.84"/><rect class="cls-13" x="708.43" y="436.01" width="10.52" height="9.84"/><rect class="cls-13" x="725.9" y="436.01" width="10.52" height="9.84"/><rect class="cls-13" x="743.37" y="436.01" width="10.52" height="9.84"/><rect class="cls-13" x="690.95" y="436.01" width="10.52" height="9.84"/><rect class="cls-13" x="673.48" y="436.01" width="10.52" height="9.84"/><rect class="cls-13" x="787.54" y="452.05" width="6.06" height="9.84"/><rect class="cls-13" x="708.61" y="452.05" width="10.52" height="9.84"/><rect class="cls-13" x="726.09" y="452.05" width="10.52" height="9.84"/><rect class="cls-13" x="743.56" y="452.05" width="10.52" height="9.84"/><rect class="cls-13" x="691.14" y="452.05" width="10.52" height="9.84"/><rect class="cls-13" x="673.67" y="452.05" width="10.52" height="9.84"/><rect class="cls-13" x="787.72" y="466.79" width="6.06" height="9.84"/><rect class="cls-13" x="708.8" y="466.79" width="10.52" height="9.84"/><rect class="cls-13" x="726.27" y="466.79" width="10.52" height="9.84"/><rect class="cls-13" x="743.75" y="466.79" width="10.52" height="9.84"/><rect class="cls-13" x="691.33" y="466.79" width="10.52" height="9.84"/><rect class="cls-13" x="673.85" y="466.79" width="10.52" height="9.84"/><rect class="cls-13" x="787.91" y="482.84" width="6.06" height="9.84"/><rect class="cls-13" x="708.99" y="482.84" width="10.52" height="9.84"/><rect class="cls-13" x="726.46" y="482.84" width="10.52" height="9.84"/><rect class="cls-13" x="743.93" y="482.84" width="10.52" height="9.84"/><rect class="cls-13" x="691.51" y="482.84" width="10.52" height="9.84"/><rect class="cls-13" x="674.04" y="482.84" width="10.52" height="9.84"/><rect class="cls-18" x="302.73" y="427.14" width="79.62" height="165.07"/><rect class="cls-19" x="376.35" y="427.14" width="53.91" height="165.22"/><rect class="cls-20" x="302.73" y="427.14" width="79.62" height="4.92"/><rect class="cls-21" x="376.35" y="427.14" width="53.91" height="4.92"/><rect class="cls-22" x="356.59" y="447.42" width="8.8" height="12.41"/><rect class="cls-22" x="335.87" y="447.42" width="8.8" height="12.41"/><rect class="cls-22" x="315.13" y="447.42" width="8.8" height="12.41"/><rect class="cls-22" x="356.59" y="468.45" width="8.8" height="12.41"/><rect class="cls-22" x="335.87" y="468.45" width="8.8" height="12.41"/><rect class="cls-22" x="315.13" y="468.45" width="8.8" height="12.41"/><rect class="cls-22" x="356.59" y="488.6" width="8.8" height="12.41"/><rect class="cls-22" x="335.87" y="488.6" width="8.8" height="12.41"/><rect class="cls-22" x="315.13" y="488.6" width="8.8" height="12.41"/><rect class="cls-22" x="356.59" y="509.62" width="8.8" height="12.41"/><rect class="cls-22" x="335.87" y="509.62" width="8.8" height="12.41"/><rect class="cls-22" x="315.13" y="509.62" width="8.8" height="12.41"/><rect class="cls-23" x="402.82" y="488.62" width="7.51" height="12.41"/><rect class="cls-23" x="402.82" y="468.08" width="7.51" height="12.41"/><rect class="cls-23" x="402.82" y="447.42" width="7.51" height="12.41"/><rect class="cls-23" x="402.82" y="510.41" width="7.51" height="12.41"/><rect class="cls-23" x="402.82" y="530.78" width="7.51" height="12.2"/><rect class="cls-18" x="1124.3" y="387.84" width="79.62" height="165.07"/><rect class="cls-19" x="1197.92" y="387.85" width="53.91" height="165.22"/><rect class="cls-20" x="1124.3" y="387.85" width="79.62" height="4.92"/><rect class="cls-21" x="1197.92" y="387.85" width="53.91" height="4.92"/><rect class="cls-22" x="1178.16" y="408.13" width="8.8" height="12.41"/><rect class="cls-22" x="1157.44" y="408.13" width="8.8" height="12.41"/><rect class="cls-22" x="1136.7" y="408.13" width="8.8" height="12.41"/><rect class="cls-22" x="1178.16" y="429.15" width="8.8" height="12.41"/><rect class="cls-22" x="1157.44" y="429.15" width="8.8" height="12.41"/><rect class="cls-22" x="1136.7" y="429.15" width="8.8" height="12.41"/><rect class="cls-22" x="1178.16" y="449.3" width="8.8" height="12.41"/><rect class="cls-22" x="1157.44" y="449.3" width="8.8" height="12.41"/><rect class="cls-22" x="1136.7" y="449.3" width="8.8" height="12.41"/><rect class="cls-22" x="1178.16" y="470.33" width="8.8" height="12.41"/><rect class="cls-22" x="1157.44" y="470.33" width="8.8" height="12.41"/><rect class="cls-22" x="1136.7" y="470.33" width="8.8" height="12.41"/><rect class="cls-23" x="1224.39" y="449.33" width="7.51" height="12.41"/><rect class="cls-23" x="1224.39" y="428.79" width="7.51" height="12.41"/><rect class="cls-23" x="1224.39" y="408.13" width="7.51" height="12.41"/><rect class="cls-23" x="1224.39" y="471.12" width="7.51" height="12.41"/><rect class="cls-23" x="1224.39" y="491.48" width="7.51" height="12.2"/><rect class="cls-18" x="990.9" y="442.51" width="79.62" height="139.5"/><rect class="cls-19" x="1064.52" y="442.51" width="53.91" height="139.62"/><rect class="cls-20" x="990.9" y="442.52" width="79.62" height="4.92"/><rect class="cls-21" x="1064.52" y="442.52" width="53.91" height="4.92"/><rect class="cls-22" x="1044.76" y="462.79" width="8.8" height="12.41"/><rect class="cls-22" x="1024.04" y="462.79" width="8.8" height="12.41"/><rect class="cls-22" x="1003.3" y="462.79" width="8.8" height="12.41"/><rect class="cls-22" x="1044.76" y="483.82" width="8.8" height="12.41"/><rect class="cls-22" x="1024.04" y="483.82" width="8.8" height="12.41"/><rect class="cls-22" x="1003.3" y="483.82" width="8.8" height="12.41"/><rect class="cls-22" x="1044.76" y="503.97" width="8.8" height="12.41"/><rect class="cls-22" x="1024.04" y="503.97" width="8.8" height="12.41"/><rect class="cls-22" x="1003.3" y="503.97" width="8.8" height="12.41"/><rect class="cls-22" x="1044.76" y="525" width="8.8" height="12.41"/><rect class="cls-22" x="1024.04" y="525" width="8.8" height="12.41"/><rect class="cls-22" x="1003.3" y="525" width="8.8" height="12.41"/><rect class="cls-23" x="1090.99" y="503.99" width="7.51" height="12.41"/><rect class="cls-23" x="1090.99" y="483.46" width="7.51" height="12.41"/><rect class="cls-23" x="1090.99" y="462.79" width="7.51" height="12.41"/><rect class="cls-23" x="1090.99" y="525.78" width="7.51" height="12.41"/><rect class="cls-23" x="1090.99" y="546.15" width="7.51" height="12.2"/><rect class="cls-19" x="741.61" y="386.96" width="61.49" height="36.89"/><rect class="cls-18" x="687.28" y="387.42" width="61.49" height="36.89"/><rect class="cls-18" x="648.55" y="402.32" width="218.53" height="174.33"/><rect class="cls-19" x="859.01" y="402.32" width="72.56" height="174.49"/><rect class="cls-20" x="648.55" y="402.32" width="218.53" height="6.62"/><rect class="cls-21" x="859.01" y="402.32" width="72.56" height="6.62"/><rect class="cls-22" x="656.61" y="421.8" width="16.06" height="11.39"/><rect class="cls-22" x="682.15" y="421.8" width="16.06" height="11.39"/><rect class="cls-22" x="707.69" y="421.8" width="16.06" height="11.39"/><rect class="cls-22" x="733.23" y="421.8" width="16.06" height="11.39"/><rect class="cls-22" x="758.77" y="421.8" width="16.06" height="11.39"/><rect class="cls-22" x="784.31" y="421.8" width="16.06" height="11.39"/><rect class="cls-22" x="809.85" y="421.8" width="16.06" height="11.39"/><rect class="cls-22" x="835.39" y="421.8" width="16.06" height="11.39"/><rect class="cls-22" x="656.61" y="441.96" width="16.06" height="11.39"/><rect class="cls-22" x="682.15" y="441.96" width="16.06" height="11.39"/><rect class="cls-22" x="707.69" y="441.96" width="16.06" height="11.39"/><rect class="cls-22" x="733.23" y="441.96" width="16.06" height="11.39"/><rect class="cls-22" x="758.77" y="441.96" width="16.06" height="11.39"/><rect class="cls-22" x="784.31" y="441.96" width="16.06" height="11.39"/><rect class="cls-22" x="809.85" y="441.96" width="16.06" height="11.39"/><rect class="cls-22" x="835.39" y="441.96" width="16.06" height="11.39"/><rect class="cls-22" x="656.61" y="462.12" width="16.06" height="11.39"/><rect class="cls-22" x="682.15" y="462.12" width="16.06" height="11.39"/><rect class="cls-22" x="707.69" y="462.12" width="16.06" height="11.39"/><rect class="cls-22" x="733.23" y="462.12" width="16.06" height="11.39"/><rect class="cls-22" x="758.77" y="462.12" width="16.06" height="11.39"/><rect class="cls-22" x="784.31" y="462.12" width="16.06" height="11.39"/><rect class="cls-22" x="809.85" y="462.12" width="16.06" height="11.39"/><rect class="cls-22" x="835.39" y="462.12" width="16.06" height="11.39"/><rect class="cls-22" x="656.61" y="482.28" width="16.06" height="11.39"/><rect class="cls-22" x="682.15" y="482.28" width="16.06" height="11.39"/><rect class="cls-22" x="707.69" y="482.28" width="16.06" height="11.39"/><rect class="cls-22" x="733.23" y="482.28" width="16.06" height="11.39"/><rect class="cls-22" x="758.77" y="482.28" width="16.06" height="11.39"/><rect class="cls-22" x="784.31" y="482.28" width="16.06" height="11.39"/><rect class="cls-22" x="809.85" y="482.28" width="16.06" height="11.39"/><rect class="cls-22" x="835.39" y="482.28" width="16.06" height="11.39"/><rect class="cls-22" x="656.61" y="502.44" width="16.06" height="11.39"/><rect class="cls-22" x="682.15" y="502.44" width="16.06" height="11.39"/><rect class="cls-22" x="707.69" y="502.44" width="16.06" height="11.39"/><rect class="cls-22" x="733.23" y="502.44" width="16.06" height="11.39"/><rect class="cls-22" x="758.77" y="502.44" width="16.06" height="11.39"/><rect class="cls-22" x="784.31" y="502.44" width="16.06" height="11.39"/><rect class="cls-22" x="809.85" y="502.44" width="16.06" height="11.39"/><rect class="cls-22" x="835.39" y="502.44" width="16.06" height="11.39"/><rect class="cls-22" x="656.61" y="522.6" width="16.06" height="11.39"/><rect class="cls-22" x="682.15" y="522.6" width="16.06" height="11.39"/><rect class="cls-22" x="707.69" y="522.6" width="16.06" height="11.39"/><rect class="cls-22" x="733.23" y="522.6" width="16.06" height="11.39"/><rect class="cls-22" x="758.77" y="522.6" width="16.06" height="11.39"/><rect class="cls-22" x="784.31" y="522.6" width="16.06" height="11.39"/><rect class="cls-22" x="809.85" y="522.6" width="16.06" height="11.39"/><rect class="cls-22" x="835.39" y="522.6" width="16.06" height="11.39"/><rect class="cls-22" x="656.61" y="542.76" width="16.06" height="11.39"/><rect class="cls-22" x="682.15" y="542.76" width="16.06" height="11.39"/><rect class="cls-22" x="707.69" y="542.76" width="16.06" height="11.39"/><rect class="cls-22" x="733.23" y="542.76" width="16.06" height="11.39"/><rect class="cls-22" x="758.77" y="542.76" width="16.06" height="11.39"/><rect class="cls-22" x="784.31" y="542.76" width="16.06" height="11.39"/><rect class="cls-22" x="809.85" y="542.76" width="16.06" height="11.39"/><rect class="cls-22" x="835.39" y="542.76" width="16.06" height="11.39"/><rect class="cls-23" x="894.64" y="485.07" width="10.11" height="16.7"/><rect class="cls-23" x="894.64" y="457.43" width="10.11" height="16.7"/><rect class="cls-23" x="894.64" y="429.62" width="10.11" height="16.7"/><rect class="cls-23" x="894.64" y="514.4" width="10.11" height="16.7"/><rect class="cls-19" x="513.91" y="362.73" width="68.71" height="17.44"/><path class="cls-24" d="M514.92,362.74H489l-.79,17.43h25.92Z"/><rect class="cls-19" x="499.64" y="375.71" width="135.56" height="201.25"/><path class="cls-24" d="M501.64,375.71H450.51L449,577h51.14Z"/><rect class="cls-20" x="450.64" y="374.06" width="51" height="8.2"/><rect class="cls-21" x="501.64" y="374.06" width="133.56" height="8.2"/><rect class="cls-22" x="468.74" y="399.86" width="10.08" height="15.35"/><rect class="cls-22" x="518.43" y="399.86" width="10.08" height="15.35"/><rect class="cls-22" x="538.14" y="399.86" width="10.08" height="15.35"/><rect class="cls-22" x="557.86" y="399.86" width="10.08" height="15.35"/><rect class="cls-22" x="577.57" y="399.86" width="10.08" height="15.35"/><rect class="cls-22" x="597.29" y="399.86" width="10.08" height="15.35"/><rect class="cls-22" x="617" y="399.86" width="10.08" height="15.35"/><rect class="cls-22" x="468.74" y="422.17" width="10.08" height="15.35"/><rect class="cls-22" x="518.43" y="422.17" width="10.08" height="15.35"/><rect class="cls-22" x="538.14" y="422.17" width="10.08" height="15.35"/><rect class="cls-22" x="557.86" y="422.17" width="10.08" height="15.35"/><rect class="cls-22" x="577.57" y="422.17" width="10.08" height="15.35"/><rect class="cls-22" x="597.29" y="422.17" width="10.08" height="15.35"/><rect class="cls-22" x="617" y="422.17" width="10.08" height="15.35"/><rect class="cls-22" x="468.74" y="444.54" width="10.08" height="15.35"/><rect class="cls-22" x="518.43" y="444.54" width="10.08" height="15.35"/><rect class="cls-22" x="538.14" y="444.54" width="10.08" height="15.35"/><rect class="cls-22" x="557.86" y="444.54" width="10.08" height="15.35"/><rect class="cls-22" x="577.57" y="444.54" width="10.08" height="15.35"/><rect class="cls-22" x="597.29" y="444.54" width="10.08" height="15.35"/><rect class="cls-22" x="617" y="444.54" width="10.08" height="15.35"/><rect class="cls-22" x="468.74" y="468.66" width="10.08" height="15.35"/><rect class="cls-22" x="518.43" y="468.66" width="10.08" height="15.35"/><rect class="cls-22" x="538.14" y="468.66" width="10.08" height="15.35"/><rect class="cls-22" x="557.86" y="468.66" width="10.08" height="15.35"/><rect class="cls-22" x="577.57" y="468.66" width="10.08" height="15.35"/><rect class="cls-22" x="597.29" y="468.66" width="10.08" height="15.35"/><rect class="cls-22" x="617" y="468.66" width="10.08" height="15.35"/><rect class="cls-22" x="468.74" y="492.29" width="10.08" height="15.35"/><rect class="cls-22" x="518.43" y="492.29" width="10.08" height="15.35"/><rect class="cls-22" x="538.14" y="492.29" width="10.08" height="15.35"/><rect class="cls-22" x="557.86" y="492.29" width="10.08" height="15.35"/><rect class="cls-22" x="577.57" y="492.29" width="10.08" height="15.35"/><rect class="cls-22" x="597.29" y="492.29" width="10.08" height="15.35"/><rect class="cls-22" x="617" y="492.29" width="10.08" height="15.35"/><rect class="cls-22" x="468.74" y="514.6" width="10.08" height="15.35"/><rect class="cls-22" x="518.43" y="514.6" width="10.08" height="15.35"/><rect class="cls-22" x="538.14" y="514.6" width="10.08" height="15.35"/><rect class="cls-22" x="557.86" y="514.6" width="10.08" height="15.35"/><rect class="cls-22" x="577.57" y="514.6" width="10.08" height="15.35"/><rect class="cls-22" x="597.29" y="514.6" width="10.08" height="15.35"/><rect class="cls-22" x="617" y="514.6" width="10.08" height="15.35"/><rect class="cls-22" x="468.74" y="536.69" width="10.08" height="15.35"/><rect class="cls-22" x="518.43" y="536.69" width="10.08" height="15.35"/><rect class="cls-22" x="538.14" y="536.69" width="10.08" height="15.35"/><rect class="cls-22" x="557.86" y="536.69" width="10.08" height="15.35"/><rect class="cls-22" x="577.57" y="536.69" width="10.08" height="15.35"/><rect class="cls-22" x="597.29" y="536.69" width="10.08" height="15.35"/><rect class="cls-22" x="617" y="536.69" width="10.08" height="15.35"/><rect class="cls-20" x="1105.51" y="457.48" width="81.81" height="133.1"/><rect class="cls-21" x="1181.16" y="457.48" width="55.4" height="133.22"/><rect class="cls-21" x="1105.51" y="457.48" width="81.81" height="5.05"/><rect class="cls-25" x="1181.16" y="457.48" width="55.4" height="5.05"/><rect class="cls-26" x="1160.87" y="478.32" width="9.05" height="12.75"/><rect class="cls-26" x="1139.57" y="478.32" width="9.05" height="12.75"/><rect class="cls-26" x="1118.26" y="478.32" width="9.05" height="12.75"/><rect class="cls-26" x="1160.87" y="499.93" width="9.05" height="12.75"/><rect class="cls-26" x="1139.57" y="499.93" width="9.05" height="12.75"/><rect class="cls-26" x="1118.26" y="499.93" width="9.05" height="12.75"/><rect class="cls-26" x="1160.87" y="520.63" width="9.05" height="12.75"/><rect class="cls-26" x="1139.57" y="520.63" width="9.05" height="12.75"/><rect class="cls-26" x="1118.26" y="520.63" width="9.05" height="12.75"/><rect class="cls-26" x="1160.87" y="542.24" width="9.05" height="12.75"/><rect class="cls-26" x="1139.57" y="542.24" width="9.05" height="12.75"/><rect class="cls-26" x="1118.26" y="542.24" width="9.05" height="12.75"/><rect class="cls-27" x="1208.37" y="520.66" width="7.72" height="12.75"/><rect class="cls-27" x="1208.37" y="499.55" width="7.72" height="12.75"/><rect class="cls-27" x="1208.37" y="478.32" width="7.72" height="12.75"/><rect class="cls-27" x="1208.37" y="543.05" width="7.72" height="12.75"/><rect class="cls-27" x="1204.51" y="568.58" width="15.44" height="22.12"/><rect class="cls-21" x="618.35" y="451.43" width="85.67" height="146.67"/><rect class="cls-20" x="574.33" y="451.43" width="65.96" height="148.44"/><rect class="cls-26" x="597.34" y="466.4" width="35.76" height="12.03"/><rect class="cls-27" x="660.09" y="466.4" width="10.97" height="12.03"/><rect class="cls-26" x="597.34" y="486.94" width="35.76" height="12.03"/><rect class="cls-27" x="660.09" y="486.94" width="10.97" height="12.03"/><rect class="cls-26" x="597.34" y="506.17" width="35.76" height="12.03"/><rect class="cls-27" x="660.09" y="506.17" width="10.97" height="12.03"/><rect class="cls-26" x="597.34" y="524.49" width="35.76" height="12.03"/><rect class="cls-27" x="660.09" y="524.49" width="10.97" height="12.03"/><rect class="cls-26" x="597.34" y="543.89" width="35.76" height="12.03"/><rect class="cls-27" x="660.09" y="543.89" width="10.97" height="12.03"/><rect class="cls-25" x="640.28" y="447.19" width="63.73" height="7.01"/><rect class="cls-21" x="574.33" y="447.19" width="65.96" height="7.01"/><rect class="cls-21" x="819.72" y="495.91" width="100.93" height="99.65"/><rect class="cls-27" x="860.2" y="514.11" width="10.91" height="22.69"/><rect class="cls-27" x="882.67" y="514.11" width="10.91" height="22.69"/><rect class="cls-20" x="778.26" y="495.91" width="43.13" height="99.65"/><rect class="cls-26" x="785.56" y="514.11" width="28.14" height="11.34"/><rect class="cls-21" x="770.9" y="492.94" width="50.48" height="5.94"/><rect class="cls-25" x="821.38" y="492.94" width="99.26" height="5.94"/><rect class="cls-21" x="1355.05" y="554.3" width="100.93" height="42.91"/><rect class="cls-20" x="1313.58" y="554.3" width="43.13" height="42.91"/><rect class="cls-25" x="1313.58" y="554.3" width="142.39" height="5.79"/><g id="front-row"><rect class="cls-21" x="461.16" y="481.83" width="49" height="33.17"/><rect class="cls-20" x="388.7" y="481.83" width="82.17" height="33.17"/><rect class="cls-21" x="465.87" y="513.01" width="62.63" height="82.1"/><rect class="cls-20" x="373.27" y="513.02" width="105.02" height="82.1"/><rect class="cls-25" x="468.76" y="478.64" width="41.39" height="6.38"/><rect class="cls-21" x="388.7" y="478.64" width="82.17" height="6.38"/><rect class="cls-26" x="380.59" y="532.58" width="60.45" height="9.21"/><rect class="cls-27" x="486.15" y="527.47" width="7.98" height="9.72"/><rect class="cls-27" x="396.92" y="493.56" width="7.98" height="9.72"/><rect class="cls-27" x="502.17" y="527.73" width="7.98" height="9.72"/><rect class="cls-27" x="486.15" y="544.35" width="7.98" height="9.72"/><rect class="cls-25" x="475.6" y="509.83" width="52.9" height="6.38"/><rect class="cls-21" x="373.27" y="509.83" width="105.02" height="6.38"/></g><rect class="cls-21" x="224.99" y="501.81" width="109.63" height="92.4"/><rect class="cls-27" x="244.55" y="518.68" width="11.86" height="21.03"/><rect class="cls-27" x="268.96" y="518.68" width="11.86" height="21.03"/><rect class="cls-27" x="293.36" y="518.68" width="11.86" height="21.03"/><rect class="cls-20" x="179.95" y="501.81" width="46.85" height="92.4"/><rect class="cls-26" x="187.88" y="518.68" width="30.57" height="10.52"/><rect class="cls-21" x="204.46" y="574.68" width="12.47" height="19.53"/><rect class="cls-21" x="179.95" y="498.84" width="49.02" height="5.94"/><rect class="cls-25" x="226.8" y="498.84" width="107.82" height="5.94"/><path class="cls-28" d="M366.44,545l.42-3.91s-46.45.14-81,.14l-42,17.64,101.67-1.51Z"/><rect class="cls-21" x="286.11" y="544.97" width="78.16" height="49.26"/><path class="cls-29" d="M286.11,545,252,558.85l-.75,35.37h34.83Z"/><rect class="cls-26" x="277" y="557.93" width="5.42" height="11.66"/><rect class="cls-21" x="260.7" y="574.91" width="10.62" height="19.32"/><g id="trees"><path class="cls-30" d="M1200.67,504.87c1.95-4.69,7.51-4.21,9.85-1.65,6.56,7.18,11.39,58.26,10.88,63.15-.86,8.29-3.52,10.38-7.6,12.27-2.24,1-9.15,1.72-13.82.51-3.51-.91-7.07-5.87-8-11.74C1190.83,559.29,1192.73,524,1200.67,504.87Z"/><path class="cls-31" d="M1203.44,598.68c0-.22.51-28.16.51-28.16l-4.66-3.8v-1.21l5.18,3.11.52-26.26h.87l1,9.15,3.46-1.38.17.87-2.59,1.9.17,17.1,4-1.38.18,1.38-4,2.59v26.09S1203.43,598.89,1203.44,598.68Z"/><path class="cls-30" d="M1086.77,477.46c2-4.69,7.5-4.21,9.85-1.65,6.56,7.18,11.39,58.26,10.88,63.15-.86,8.29-3.52,10.38-7.6,12.27-2.25,1-9.16,1.72-13.82.52-3.51-.91-7.07-5.88-7.95-11.75C1076.92,531.88,1078.82,496.56,1086.77,477.46Z"/><path class="cls-31" d="M1089.53,571.27c0-.22.52-28.16.52-28.16l-4.66-3.8V538.1l5.18,3.11.52-26.26h.86l1,9.15,3.45-1.38.18.87-2.59,1.9.17,17.1,4-1.38.17,1.38-4,2.59v26.09S1089.53,571.48,1089.53,571.27Z"/><path class="cls-32" d="M376.08,571.43a15.39,15.39,0,0,1,11.74-5.51,16,16,0,0,1,15.27,12.44A14.3,14.3,0,0,1,417,592.72c0,7.92-63.4,5.37-63.4-1.48,0-5.79,5.6-10.66,13.17-12a8.57,8.57,0,0,1,8.29-7.84A8,8,0,0,1,376.08,571.43Z"/><path class="cls-32" d="M1185.49,570.07a15.37,15.37,0,0,0-11.2-6.53,15.94,15.94,0,0,0-16.3,11.05,14.29,14.29,0,0,0-15.15,13.07c-.7,7.89,62.67,10.93,63.28,4.11.51-5.77-4.65-11.11-12.06-13.14a8.56,8.56,0,0,0-7.57-8.54A6.68,6.68,0,0,0,1185.49,570.07Z"/><g id="yellow-tree"><path class="cls-33" d="M1184.16,519.4c5.18.48,7.95,12.12,12.29,19.85a37.28,37.28,0,0,1,4.41,20c-.68,14.58-5.15,20.17-17.69,19.33-14.35-.95-17-11.86-17.49-22s4.08-15.39,5.65-20.59C1173.81,527.69,1180.54,519.07,1184.16,519.4Z"/><path class="cls-34" d="M1183,592.93a72.74,72.74,0,0,1,.46-10c.7-7.69,1.4-9.85,1-9.82a24.67,24.67,0,0,1-5.87-4.2,16.84,16.84,0,0,1-4.34-7.84c2,2.23,3.53,5,6.21,6.58a7,7,0,0,0,4.46,1.28s-1.25-7.56-2.69-15.11a49,49,0,0,1-.7-15.12c.28-.18,3.9,21.25,5.67,20.08,2-1.34,7.07-13.3,7.07-13.3a40.92,40.92,0,0,1-1.91,8.89c-.92,2.51-3.31,5.89-4.81,8.1,0,0,.62,11.08.28,21.68a48,48,0,0,0,.54,8.55,12.59,12.59,0,0,1-2.34.55A22.64,22.64,0,0,1,1183,592.93Z"/></g><path class="cls-30" d="M1265.74,503c2-4.69,7.5-4.21,9.85-1.65,6.56,7.18,11.39,58.26,10.88,63.15-.86,8.29-3.52,10.38-7.6,12.26-2.25,1-9.16,1.73-13.82.52-3.51-.91-7.08-5.87-8-11.74C1255.89,557.37,1257.79,522,1265.74,503Z"/><path class="cls-31" d="M1268.5,596.75c0-.21.52-28.15.52-28.15l-4.66-3.81v-1.2l5.18,3.1.52-26.25h.86l1,9.15,3.45-1.38.18.86L1273,551l.18,17.11,4-1.39.17,1.39-4,2.59v26.08S1268.5,597,1268.5,596.75Z"/><path class="cls-32" d="M1296.19,565.86c-3-3.72-9.24-6.28-14.25-6.46-7.91-.28-18.83,4.48-21,12-8.32-.14-9.35,7.18-9.64,15.51s68,8.11,68.3.83c.22-6.16-5.63-11.55-13.72-13.29a9.18,9.18,0,0,0-8.64-8.64A6.35,6.35,0,0,0,1296.19,565.86Z"/><path class="cls-32" d="M1360.61,565c-3-3.71-5.75-5.62-10.77-5.55-7.9.1-12.08,3.89-15.25,10.54-8.31-.14-21.74,11.43-22,19.76s69.79,9.26,72.88,2.66c2.6-5.56-1.75-19.85-15.12-18.79a9.16,9.16,0,0,0-8.63-8.65A9.74,9.74,0,0,0,1360.61,565Z"/><path class="cls-32" d="M1465.52,552.06c-4-5.44-7.77-8.22-14.57-8.1-10.71.18-16.38,5.76-20.7,15.54-20.48-5.14-36.23,16.87-30.46,31.76,4.48,11.54,100.24,1,100.24,1-.29-7.79,1.06-20.39-21.39-27.6-.48-6.92-5.43-12.44-11.66-12.66A10.14,10.14,0,0,0,1465.52,552.06Z"/><ellipse class="cls-35" cx="1247.93" cy="584.11" rx="17.94" ry="12.74"/><g id="yellow-tree1"><path class="cls-33" d="M1248.67,518.5c5.18.48,7.95,12.12,12.28,19.85a37.18,37.18,0,0,1,4.42,19.95c-.68,14.58-5.16,20.17-17.7,19.33-14.34-1-17-11.85-17.48-22s4.07-15.39,5.65-20.58C1238.32,526.79,1245.05,518.17,1248.67,518.5Z"/><path class="cls-34" d="M1247.5,592a74.4,74.4,0,0,1,.47-10c.7-7.69,1.4-9.85,1-9.82a24.54,24.54,0,0,1-5.87-4.2,16.78,16.78,0,0,1-4.33-7.84c2,2.23,3.53,5,6.2,6.58a7,7,0,0,0,4.46,1.28s-1.24-7.55-2.69-15.11c-1.53-8-.85-15-.69-15.12s3.9,21.25,5.66,20.08c2-1.34,7.08-13.3,7.08-13.3a41.48,41.48,0,0,1-1.91,8.89c-.93,2.51-3.31,5.89-4.81,8.11,0,0,.61,11.07.28,21.67a48,48,0,0,0,.54,8.55,12.59,12.59,0,0,1-2.34.55A22.84,22.84,0,0,1,1247.5,592Z"/></g><g id="yellow-tree2"><path class="cls-33" d="M1314.38,520.53c5.18.48,7.95,12.12,12.28,19.86a37.14,37.14,0,0,1,4.42,19.94c-.68,14.59-5.16,20.17-17.7,19.34-14.35-1-17-11.86-17.48-22s4.07-15.39,5.64-20.59C1304,528.82,1310.75,520.2,1314.38,520.53Z"/><path class="cls-34" d="M1313.21,594.06a72.76,72.76,0,0,1,.46-10c.7-7.69,1.41-9.85,1-9.82a24.54,24.54,0,0,1-5.87-4.2,16.8,16.8,0,0,1-4.34-7.84c2,2.23,3.53,5,6.21,6.58a7,7,0,0,0,4.46,1.29s-1.24-7.56-2.69-15.12a49.05,49.05,0,0,1-.7-15.12c.28-.17,3.91,21.25,5.67,20.08,2-1.33,7.07-13.3,7.07-13.3a40.8,40.8,0,0,1-1.91,8.89c-.92,2.52-3.31,5.89-4.81,8.11,0,0,.62,11.08.29,21.67a48.48,48.48,0,0,0,.53,8.55,12.42,12.42,0,0,1-2.33.55A22.66,22.66,0,0,1,1313.21,594.06Z"/></g><g id="yellow-tree3"><path class="cls-33" d="M1368.36,521.63c5.18.47,8,12.11,12.28,19.85a37.18,37.18,0,0,1,4.42,19.95c-.68,14.58-5.16,20.16-17.7,19.33-14.34-1-16.95-11.86-17.48-22s4.07-15.39,5.65-20.59C1358,529.91,1364.74,521.3,1368.36,521.63Z"/><path class="cls-34" d="M1367.19,595.15a74.24,74.24,0,0,1,.47-10c.7-7.7,1.4-9.85,1-9.83a24.32,24.32,0,0,1-5.87-4.19,16.79,16.79,0,0,1-4.33-7.85c2,2.24,3.53,5,6.2,6.59a7,7,0,0,0,4.46,1.28s-1.24-7.56-2.69-15.11c-1.53-8-.85-15-.69-15.13s3.9,21.25,5.66,20.09c2-1.34,7.08-13.3,7.08-13.3a41.6,41.6,0,0,1-1.91,8.89c-.93,2.51-3.31,5.89-4.81,8.1,0,0,.61,11.08.28,21.68a48,48,0,0,0,.54,8.55,12.59,12.59,0,0,1-2.34.55A24.18,24.18,0,0,1,1367.19,595.15Z"/></g><path class="cls-32" d="M71.87,560.19C67.07,554.75,57,551,49,550.68c-12.68-.44-30.17,6.46-33.59,17.48C-1.29,570,0,591.58,0,591.58s109.17,11.41,109.54.76c.32-9-9.09-16.91-22.08-19.5A14.23,14.23,0,0,0,73.6,560.16,16.6,16.6,0,0,0,71.87,560.19Z"/><path class="cls-32" d="M159.1,565.52c-4.07-4.17-7.85-6.32-14.65-6.28-10.71,0-16.33,4.24-20.57,11.63-11.27-.23-29.36,12.58-29.69,21.88s94.62,7.46,98.75.11c3.47-6.18-9.63-15.63-20.62-17.64-.53-5.26-5.53-9.5-11.77-9.72A14,14,0,0,0,159.1,565.52Z"/><ellipse class="cls-35" cx="50.66" cy="586.14" rx="14.1" ry="10.71"/><g id="yellow-tree4"><path class="cls-33" d="M116.81,519.91c5.18.48,8,12.12,12.29,19.86a37.24,37.24,0,0,1,4.41,19.94c-.68,14.59-5.15,20.17-17.69,19.33-14.35-.95-16.95-11.85-17.48-22s4.07-15.39,5.64-20.59C106.46,528.2,113.19,519.58,116.81,519.91Z"/><path class="cls-34" d="M115.65,593.44a72.76,72.76,0,0,1,.46-10.05c.7-7.69,1.4-9.85,1-9.82a24.33,24.33,0,0,1-5.87-4.2,16.8,16.8,0,0,1-4.34-7.84c2,2.23,3.53,5,6.21,6.58a7,7,0,0,0,4.46,1.29s-1.25-7.56-2.69-15.12a49,49,0,0,1-.7-15.12c.28-.17,3.91,21.25,5.67,20.08,2-1.34,7.07-13.3,7.07-13.3a40.8,40.8,0,0,1-1.91,8.89c-.92,2.52-3.31,5.89-4.81,8.11,0,0,.62,11.08.29,21.67a47.37,47.37,0,0,0,.53,8.55,12.59,12.59,0,0,1-2.34.55A22.64,22.64,0,0,1,115.65,593.44Z"/></g><g id="yellow-tree5"><path class="cls-33" d="M167.69,521.63c5.18.47,7.95,12.11,12.29,19.85a37.28,37.28,0,0,1,4.41,19.95c-.68,14.58-5.15,20.16-17.69,19.33-14.35-1-16.95-11.86-17.49-22s4.08-15.39,5.65-20.59C157.34,529.91,164.07,521.3,167.69,521.63Z"/><path class="cls-34" d="M166.52,595.15a74.24,74.24,0,0,1,.47-10c.7-7.7,1.4-9.85,1-9.83a24.26,24.26,0,0,1-5.88-4.19,16.9,16.9,0,0,1-4.33-7.85c2,2.24,3.53,5,6.21,6.59a7,7,0,0,0,4.46,1.28s-1.25-7.56-2.69-15.11a49.11,49.11,0,0,1-.7-15.13c.28-.17,3.9,21.25,5.67,20.09,2-1.34,7.07-13.3,7.07-13.3a40.92,40.92,0,0,1-1.91,8.89c-.93,2.51-3.31,5.89-4.81,8.1,0,0,.62,11.08.28,21.68a48,48,0,0,0,.54,8.55,12.59,12.59,0,0,1-2.34.55A24.18,24.18,0,0,1,166.52,595.15Z"/></g><path class="cls-30" d="M759.26,479.88c2.51-5.2,9.64-4.67,12.65-1.83,8.43,7.95,14.63,64.57,14,70-1.11,9.19-4.52,11.5-9.76,13.59-2.89,1.15-11.76,1.91-17.75.57-4.51-1-9.09-6.51-10.21-13C746.62,540.19,749.06,501,759.26,479.88Z"/><path class="cls-31" d="M762.81,583.84c0-.24.67-31.21.67-31.21l-6-4.21v-1.34l6.66,3.44.66-29.1h1.11l1.33,10.15,4.44-1.53.22,1-3.33,2.1.23,19,5.1-1.54.22,1.54-5.1,2.87v28.91S762.81,584.08,762.81,583.84Z"/><g id="yellow-tree6"><path class="cls-33" d="M738.06,496c6.65.53,10.21,13.43,15.77,22a36.82,36.82,0,0,1,5.68,22.11c-.88,16.16-6.63,22.35-22.73,21.42-18.43-1-21.77-13.14-22.46-24.41s5.24-17.05,7.25-22.82C724.76,505.17,733.4,495.61,738.06,496Z"/><path class="cls-34" d="M736.56,577.47a70.86,70.86,0,0,1,.59-11.14c.9-8.52,1.81-10.91,1.27-10.88a32.11,32.11,0,0,1-7.54-4.66,17.86,17.86,0,0,1-5.57-8.69c2.6,2.48,4.53,5.5,8,7.3a10.1,10.1,0,0,0,5.73,1.42s-1.6-8.38-3.45-16.75c-2-8.9-1.09-16.65-.9-16.76.36-.19,5,23.55,7.28,22.26,2.59-1.48,9.08-14.74,9.08-14.74a40,40,0,0,1-2.45,9.85c-1.19,2.79-4.25,6.53-6.18,9,0,0,.8,12.28.37,24a46.24,46.24,0,0,0,.69,9.48,19,19,0,0,1-3,.61A34.93,34.93,0,0,1,736.56,577.47Z"/></g><g id="yellow-tree7"><path class="cls-33" d="M958.61,489.57c6.65.53,10.21,13.43,15.78,22a36.79,36.79,0,0,1,5.67,22.11c-.88,16.16-6.63,22.34-22.73,21.42C938.9,554,935.56,542,934.87,530.69s5.24-17.06,7.25-22.82C945.32,498.75,954,489.2,958.61,489.57Z"/><path class="cls-34" d="M957.11,571.05a70.74,70.74,0,0,1,.59-11.13c.9-8.53,1.81-10.92,1.27-10.89a31.86,31.86,0,0,1-7.54-4.65,17.9,17.9,0,0,1-5.57-8.69c2.6,2.48,4.53,5.5,8,7.3a10.1,10.1,0,0,0,5.73,1.42s-1.6-8.38-3.45-16.75c-2-8.9-1.09-16.66-.9-16.76.36-.19,5,23.55,7.28,22.25,2.59-1.48,9.08-14.74,9.08-14.74a40.18,40.18,0,0,1-2.45,9.86c-1.19,2.78-4.25,6.52-6.18,9,0,0,.8,12.28.37,24a46.24,46.24,0,0,0,.69,9.48,19,19,0,0,1-3,.61A34.25,34.25,0,0,1,957.11,571.05Z"/></g><g id="yellow-tree8"><path class="cls-33" d="M842,509.64c6.65.53,10.21,13.43,15.78,22a36.77,36.77,0,0,1,5.67,22.1c-.88,16.16-6.62,22.35-22.73,21.42-18.43-1-21.77-13.14-22.45-24.41s5.23-17,7.25-22.82C828.73,518.83,837.37,509.28,842,509.64Z"/><path class="cls-34" d="M840.52,591.13a70.72,70.72,0,0,1,.59-11.13c.9-8.53,1.81-10.92,1.27-10.89a32.33,32.33,0,0,1-7.54-4.66,17.8,17.8,0,0,1-5.56-8.69c2.6,2.48,4.53,5.5,8,7.3a10.08,10.08,0,0,0,5.73,1.42s-1.6-8.37-3.46-16.75c-2-8.9-1.09-16.65-.89-16.76.36-.19,5,23.55,7.27,22.26,2.59-1.48,9.09-14.74,9.09-14.74a40,40,0,0,1-2.45,9.85c-1.19,2.79-4.26,6.53-6.18,9,0,0,.79,12.28.36,24a46.09,46.09,0,0,0,.69,9.47,19,19,0,0,1-3,.61A35,35,0,0,1,840.52,591.13Z"/></g><path class="cls-30" d="M430.19,498.11c1.95-4.69,7.51-4.21,9.85-1.65,6.56,7.18,11.39,58.27,10.88,63.15-.86,8.3-3.52,10.39-7.6,12.27-2.25,1-9.16,1.73-13.82.52-3.51-.91-7.07-5.88-7.95-11.75C420.34,552.53,422.24,517.21,430.19,498.11Z"/><path class="cls-31" d="M433,591.92c0-.22.52-28.16.52-28.16l-4.66-3.8v-1.21l5.18,3.11.52-26.26h.86l1,9.16,3.45-1.38.18.86-2.59,1.9.17,17.1,4-1.38.17,1.38-4,2.59v26.09S433,592.14,433,591.92Z"/><g id="yellow-tree9"><path class="cls-33" d="M415.1,518.11c5.18.47,7.95,12.11,12.29,19.85a37.28,37.28,0,0,1,4.41,19.95c-.68,14.58-5.16,20.16-17.7,19.33-14.34-1-17-11.86-17.48-22s4.08-15.39,5.65-20.59C404.75,526.39,411.48,517.78,415.1,518.11Z"/><path class="cls-34" d="M413.93,591.63a74.24,74.24,0,0,1,.47-10c.7-7.7,1.4-9.85,1-9.82a24.89,24.89,0,0,1-5.87-4.2,16.79,16.79,0,0,1-4.33-7.85c2,2.24,3.53,5,6.2,6.59a7.05,7.05,0,0,0,4.47,1.28s-1.25-7.56-2.7-15.11c-1.53-8-.85-15-.69-15.13s3.9,21.26,5.66,20.09c2-1.34,7.08-13.3,7.08-13.3a41.6,41.6,0,0,1-1.91,8.89c-.93,2.51-3.31,5.89-4.81,8.1,0,0,.61,11.08.28,21.68a48,48,0,0,0,.54,8.55,12.59,12.59,0,0,1-2.34.55A24.18,24.18,0,0,1,413.93,591.63Z"/></g></g><path class="cls-36" d="M1155.25,578.92h-89.38v21.45h89.38Zm21.09,5.17H1161v15.74h15.35Zm-287.27-5.17H832.83v18.29h56.24Zm-282-7.95h43.76v24.59H449.34V571h8.48v-7.76h8v-7h13.94v7H504v-14.6H607.09Zm424.58-4.51h-16.56v7.16h16.56Z"/><rect class="cls-37" x="616.84" y="544.56" width="136.38" height="49.35"/><rect class="cls-38" x="661.34" y="560.4" width="81.05" height="33.5"/><rect class="cls-39" x="665.78" y="563.94" width="71.06" height="29.96"/><path class="cls-40" d="M736.84,591H665.79v1.11h71.05Zm0-2.81H665.79v1.12h71.05Zm0-2.8H665.79v1.12h71.05Zm0-2.8H665.79v1.12h71.05Zm0-2.8H665.79v1.12h71.05Zm0-2.8H665.79v1.12h71.05Zm0-2.8H665.79v1.12h71.05Zm0-2.8H665.79v1.12h71.05Zm0-2.8H665.79v1.12h71.05Zm0-2.8H665.79v1.12h71.05Z"/><rect class="cls-27" x="624.21" y="560.4" width="26.64" height="6.06"/><rect class="cls-38" x="616.84" y="541.95" width="136.38" height="5.2"/><rect class="cls-37" x="1034.89" y="544.73" width="86.33" height="52.49"/><rect class="cls-38" x="1034.89" y="541.96" width="86.33" height="5.53"/><rect class="cls-37" x="912.5" y="546.3" width="78.16" height="49.26"/><rect class="cls-26" x="977.76" y="559.27" width="5.42" height="11.66"/><path class="cls-40" d="M912.5,546.3l-34.08,13.88-.74,35.38H912.5Z"/><rect class="cls-27" x="901.83" y="582.63" width="5.94" height="5.83"/><rect class="cls-37" x="988.17" y="570.93" width="53.86" height="24.63"/><rect class="cls-37" x="749.81" y="556.2" width="83.01" height="45.46"/><rect class="cls-41" x="817.86" y="566.86" width="6.7" height="5.71"/><rect class="cls-41" x="817.86" y="578.93" width="6.7" height="5.71"/><rect class="cls-38" x="749.82" y="556.19" width="83.01" height="5.53"/></g><g id="front-line"><rect class="cls-42" x="0.02" y="589.94" width="1500" height="18.8"/></g><ellipse class="cls-43" cx="1409.71" cy="575.63" rx="1.91" ry="2"/><path class="cls-44" d="M1411.35,578.54c0-.42,0-.63-.45-.63l-2.38,0c-.41,0-.4.19-.4.61l.31,4.79c0,.41.51.74.92.74h.39c.41,0,1.26-.33,1.26-.74Z"/><path class="cls-44" d="M1411.05,582.29a.73.73,0,0,0-.72-.73h-1.24a.72.72,0,0,0-.72.73v1.63a.72.72,0,0,0,.72.73h1.24a.73.73,0,0,0,.72-.73Z"/><path class="cls-44" d="M1409,578.19a.69.69,0,0,0-1,0l-1.94,1.88a.68.68,0,0,0,.94,1l1.94-1.88A.69.69,0,0,0,1409,578.19Z"/><path class="cls-44" d="M1406.53,580.27a.67.67,0,0,0-.73.61l-.21,2.7a.68.68,0,1,0,1.35.1l.21-2.69A.66.66,0,0,0,1406.53,580.27Z"/><path class="cls-44" d="M1409.15,583.69a.69.69,0,0,0-.86.43l-.85,2.56a.68.68,0,0,0,.43.86.67.67,0,0,0,.86-.43l.85-2.57A.68.68,0,0,0,1409.15,583.69Z"/><path class="cls-44" d="M1410.12,583.72a.68.68,0,0,0-.19.94l1.5,2.25a.68.68,0,0,0,1.13-.76l-1.5-2.25A.68.68,0,0,0,1410.12,583.72Z"/><path class="cls-44" d="M1412.06,586.18a.77.77,0,0,0-.6.81l.3,2.71a.6.6,0,0,0,.74.53.77.77,0,0,0,.59-.81l-.3-2.72A.59.59,0,0,0,1412.06,586.18Z"/><path class="cls-44" d="M1408.44,586.64a.68.68,0,0,0-1,.08l-1.72,2.09a.68.68,0,1,0,1,.86l1.72-2.08A.67.67,0,0,0,1408.44,586.64Z"/><path class="cls-44" d="M1410.74,578a.69.69,0,0,0-.35.9l1.1,2.46a.68.68,0,1,0,1.24-.55l-1.1-2.47A.68.68,0,0,0,1410.74,578Z"/><path class="cls-44" d="M1411.79,581a.67.67,0,0,0,.12,1l2.13,1.66a.68.68,0,1,0,.83-1.07l-2.13-1.66A.68.68,0,0,0,1411.79,581Z"/><path class="cls-44" d="M1421.14,587.54a.89.89,0,0,0-.89-.89h-1.65a.89.89,0,0,0-.88.89v.15a.89.89,0,0,0,.88.88h1.65a.89.89,0,0,0,.89-.88Z"/><ellipse class="cls-43" cx="1421.08" cy="586.3" rx="0.9" ry="0.84"/><path class="cls-44" d="M1422.31,586.9a.42.42,0,0,0-.32-.51l-.33-.08a.43.43,0,0,0-.2.83l.34.08A.43.43,0,0,0,1422.31,586.9Z"/><path class="cls-44" d="M1420.28,585.14l.61.48-.63.37Z"/><path class="cls-44" d="M1421.39,585l.22.75-.72-.07Z"/><path class="cls-44" d="M1420.6,589.31a.23.23,0,0,0,.15-.3l-.16-.78a.54.54,0,0,0-.48-.2.37.37,0,0,0-.22.37l.41.77A.23.23,0,0,0,1420.6,589.31Z"/><path class="cls-44" d="M1421.36,589.2c.11-.08.14-.08,0-.33l-.35-.82c-.07-.11-.38,0-.49,0a.35.35,0,0,0-.11.41l.58.64A.24.24,0,0,0,1421.36,589.2Z"/><path class="cls-44" d="M1418,587a3,3,0,0,1-.55-.44,2.69,2.69,0,0,1-.29-.6l-.17-.4a.64.64,0,0,0-.14.46l.2.27-.21,0,.28.36h-.26a5.68,5.68,0,0,0,.57.43,2.09,2.09,0,0,0,.51.12Z"/><rect class="cls-43" x="1417.22" y="581.89" width="0.34" height="6.63" transform="translate(208 1527.98) rotate(-60.37)"/><path class="cls-44" d="M1420.67,589.08a.19.19,0,0,0-.24-.15l-.85.22a.2.2,0,1,0,.11.39l.84-.22A.19.19,0,0,0,1420.67,589.08Z"/><path class="cls-44" d="M1421.15,588.87a.2.2,0,0,0-.1.27l.37.79a.2.2,0,0,0,.27.1.2.2,0,0,0,.1-.27l-.37-.79A.21.21,0,0,0,1421.15,588.87Z"/><path class="cls-44" d="M1418.83,589.14a.23.23,0,0,0,.12-.31l-.24-.76a.53.53,0,0,0-.5-.15.38.38,0,0,0-.18.39l.49.72A.22.22,0,0,0,1418.83,589.14Z"/><path class="cls-44" d="M1417.48,589a.24.24,0,0,0,.34,0l.62-.5a.54.54,0,0,0,0-.52.36.36,0,0,0-.43,0l-.49.71A.25.25,0,0,0,1417.48,589Z"/><path class="cls-44" d="M1418.7,588.85a.24.24,0,0,0-.14.31l.28.75a.25.25,0,0,0,.31.14.24.24,0,0,0,.14-.31L1419,589A.25.25,0,0,0,1418.7,588.85Z"/><path class="cls-44" d="M1417.62,588.73a.24.24,0,0,0-.31.13l-.27.76a.22.22,0,0,0,.14.3.24.24,0,0,0,.31-.14l.27-.75A.22.22,0,0,0,1417.62,588.73Z"/><path class="cls-44" d="M1240.65,584.06a1.37,1.37,0,0,0-1.37-1.37h-26a1.36,1.36,0,0,0-1.36,1.37v2.74a1.36,1.36,0,0,0,1.36,1.37h26a1.37,1.37,0,0,0,1.37-1.37Z"/><ellipse class="cls-43" cx="1216.28" cy="588.17" rx="2.24" ry="2.12"/><ellipse class="cls-43" cx="1237.04" cy="588.17" rx="2.24" ry="2.12"/><path class="cls-44" d="M1239.83,583.59h-23.55l9-6h12.22Z"/></g></g></svg>