<svg xmlns="http://www.w3.org/2000/svg" viewBox="0 0 1500.13 608.74"><defs><style>.cls-1{fill:#b875b1;}.cls-1,.cls-10,.cls-2,.cls-21,.cls-23,.cls-29,.cls-3,.cls-30,.cls-31,.cls-32,.cls-33,.cls-34,.cls-35,.cls-38,.cls-40,.cls-6{fill-rule:evenodd;}.cls-2{fill:#c68ec0;}.cls-3{fill:#5c7ab0;}.cls-4,.cls-6{fill:#a9bbd9;}.cls-5{fill:#93a9cf;}.cls-7{fill:#7b95c3;}.cls-8{fill:#699cc4;}.cls-10,.cls-9{fill:#4282b4;}.cls-11{fill:#4d82ac;}.cls-12{fill:#3a6f99;}.cls-13{fill:#376f9a;}.cls-14,.cls-23{fill:#3695b2;}.cls-15,.cls-21{fill:#01587e;}.cls-16{fill:#01354b;}.cls-17{fill:#015478;}.cls-18{fill:#4b4a6f;}.cls-19{fill:#545381;}.cls-20,.cls-38{fill:#f6c99b;}.cls-22{fill:#014663;}.cls-24{fill:#012636;}.cls-25{fill:#e5a384;}.cls-26{fill:#601c09;}.cls-27,.cls-29{fill:#310225;}.cls-28,.cls-30{fill:#3a002d;}.cls-31{fill:#393612;}.cls-32{fill:#361b0e;}.cls-33{fill:#212009;}.cls-34{fill:#403b14;}.cls-35{fill:#391f0c;}.cls-36{fill:#62375a;}.cls-37{fill:#0c0109;}.cls-39{fill:#1f0017;}.cls-40,.cls-41{fill:#1f0119;}.cls-42{fill:#6184ba;}.cls-43{fill:#95c7ec;}.cls-44{fill:#2c2260;}</style></defs><g id="Layer_2" data-name="Layer 2"><g id="Layer_1-2" data-name="Layer 1"><g id="clouds15"><g id="big-cloud"><path class="cls-1" d="M1199.06,99.72C1180.58,42.3,1118.07,0,1043.89,0c-61.08,0-96,23.23-123.22,65.42C914.6,63.23,895.89,61,872,68.94c-31.63,10.59-50.48,28.79-50.48,66,0,11.33-.12,14,4.39,23.42C722.6,119,647.76,166.24,620.69,201.84c-12.28,16.15-12.83,38.91-11.08,42.26C570.71,211,496.26,226,504.81,284.58c.47,3.13,14.12,13.4,10.66,14.17-13.48,3-150.24,5.4-290.65,21.15C191.44,323.64,143,335,108.61,356.36c-59.11,36.72-49.45,115.06,6.91,133.58,9.63,3.17,43.34,8.2,54.79,8.09,211-1.83,1172.87-3.91,1206.89-7.3,77.59-7.71,123.21-100,50.06-185.46-14.22-16.61-30.71-35.74-86.37-37.49-6-.17-11.86,1.24-7.54-1.54,21.94-14.14,2.86-80.6-63.2-63.76-.78.2,0-.7,0-.7C1269.87,153.88,1240,113.36,1199.06,99.72Z"/></g><g id="big-cloud1"><path class="cls-2" d="M1162.88,137.75c-12.17-35.58-53.33-61.8-102.19-61.8-40.22,0-63.24,14.39-81.14,40.54-4-1.36-16.32-2.77-32,2.19-20.83,6.56-33.25,17.84-33.25,40.93,0,7-.08,8.7,2.89,14.51-68-24.45-117.32,4.86-135.15,26.93-8.08,10-8.44,24.11-7.29,26.18-25.62-20.5-74.65-11.19-69,25.09.31,1.94,9.3,8.31,7,8.78-8.88,1.85-32.86,4.35-125.63,10.8-33.35,2.32-63.61,9.91-79.23,24.52-10,9.36-18.34,21.53-6.2,33,4.71,4.45,29.05,9.13,36.6,9.07,139-1.15,722.88,4,745.29,1.93,51.09-4.78,42.34-62,29.63-75.29-9.63-10.08-20.22-22.15-56.88-23.24-3.92-.11-7.81.77-5-.95,14.45-8.77,1.88-50-41.62-39.52-.51.12,0-.43,0-.43A66.81,66.81,0,0,0,1162.88,137.75Z"/></g></g><path class="cls-3" d="M204.48,598H150.09v1.83H71.81V506.58h28V473.4h8V460.15h12.88V473.4h29.43V413.76h54.39v-9.4h21.81v9.4h5.19v12.72h92.85V340.41h84.89V489.33H529.41V461.51H456.27V287h9.32V270.49h11.9V287h6.74V270.49h11.59V287h33.59V245h5.09v-5.72h34.9V245h9.68v62.35h33.46V259.63h14.78V245h45.91V230.07h11.65V245h7.51v14.64h13.79V292.9h53.66V489.33h79.23V243.49H984.21V489.33h300.85V314.55h26.52v-10H1326v10h6.28v-10h6.41v10h30.62v147.6h37.59v-8.59h21.75v8.59h15.84v53.2h19.9V598h-43.51v1.83H204.48Z"/><g id="_05" data-name=" 05"><rect class="cls-4" x="1254.36" y="282.01" width="30.02" height="7.94"/><rect class="cls-5" x="1271.81" y="282.01" width="22.57" height="7.99"/><rect class="cls-4" x="1240.73" y="287.49" width="47.81" height="217.51"/><rect class="cls-5" x="1268.53" y="287.48" width="35.95" height="218.87"/><rect class="cls-4" x="712.89" y="244.54" width="32.05" height="8.47"/><rect class="cls-5" x="731.52" y="244.54" width="24.1" height="8.53"/><rect class="cls-4" x="698.34" y="250.38" width="51.04" height="232.21"/><rect class="cls-5" x="728.02" y="250.38" width="38.38" height="233.66"/><path class="cls-6" d="M678.73,277.7h3.55V430H594.52V277.7h7.93V271h38.62v6.7H658V263.65h6.79V277.7h3.38V263.65h10.58Z"/><path class="cls-6" d="M550.61,321h3.56V473.24H466.41V321h7.92v-6.71H513V321h16.91V306.9h6.79V321H540V306.9h10.58Z"/><path class="cls-6" d="M438.82,379h3.55V531.25H354.61V379h7.92v-6.7h38.63V379h16.91V364.92h6.78V379h3.38V364.92h10.59Z"/><rect class="cls-4" x="1012.01" y="164.92" width="68.99" height="25.24"/><rect class="cls-4" x="1003.97" y="179.74" width="83.65" height="202"/><rect class="cls-5" x="1003.97" y="254.04" width="83.65" height="6.67"/><rect class="cls-5" x="1003.97" y="270.93" width="83.65" height="6.67"/><rect class="cls-5" x="1003.97" y="287.34" width="83.65" height="6.67"/><rect class="cls-5" x="1004.28" y="235.89" width="83.33" height="6.67"/><rect class="cls-5" x="1004.02" y="217.74" width="83.59" height="6.67"/><rect class="cls-5" x="1004.42" y="199.59" width="83.19" height="6.67"/><rect class="cls-5" x="1003.97" y="179.74" width="83.65" height="8.54"/><rect class="cls-4" x="890.96" y="111.7" width="92.41" height="33.81"/><rect class="cls-4" x="880.19" y="131.56" width="112.05" height="270.6"/><rect class="cls-5" x="895.27" y="157.65" width="8.94" height="244.52"/><rect class="cls-5" x="919.59" y="158.57" width="8.94" height="243.61"/><rect class="cls-5" x="943.9" y="157.81" width="8.94" height="244.35"/><rect class="cls-5" x="968.22" y="158.96" width="8.94" height="243.19"/><rect class="cls-5" x="880.19" y="131.56" width="112.05" height="11.45"/><rect class="cls-5" x="1095.69" y="200.23" width="42.01" height="17.02"/><rect class="cls-4" x="1052.88" y="200.26" width="44.01" height="17.02"/><rect class="cls-5" x="1097.28" y="208.42" width="53.06" height="170.95"/><rect class="cls-4" x="1043.29" y="208.34" width="55.53" height="171.32"/><rect class="cls-5" x="1042.17" y="224.16" width="56.61" height="8.26"/><rect class="cls-5" x="1042.17" y="263.71" width="56.61" height="8.26"/><rect class="cls-5" x="1042.17" y="308.65" width="56.61" height="8.26"/><rect class="cls-7" x="1098.83" y="224.16" width="51.51" height="8.26"/><rect class="cls-7" x="1098.83" y="263.71" width="50.41" height="8.26"/><rect class="cls-7" x="1098.83" y="308.65" width="50.41" height="8.26"/><rect class="cls-5" x="834.38" y="207.04" width="74.06" height="238.37"/><rect class="cls-4" x="764.95" y="207.04" width="72.66" height="238.37"/><rect class="cls-5" x="769.64" y="230.27" width="64.74" height="11.62"/><rect class="cls-5" x="769.64" y="250.64" width="64.74" height="11.62"/><rect class="cls-5" x="769.64" y="271" width="64.74" height="11.62"/><rect class="cls-5" x="769.64" y="291.37" width="64.74" height="11.62"/><rect class="cls-5" x="769.64" y="311.74" width="64.74" height="11.62"/><rect class="cls-5" x="769.64" y="332.1" width="64.74" height="11.62"/><rect class="cls-5" x="769.64" y="352.47" width="64.74" height="11.62"/><rect class="cls-5" x="769.64" y="372.84" width="64.74" height="11.62"/><rect class="cls-5" x="769.64" y="393.21" width="64.74" height="11.62"/><rect class="cls-5" x="769.64" y="413.57" width="64.74" height="11.62"/><rect class="cls-7" x="844.01" y="230.27" width="61.24" height="11.62"/><rect class="cls-7" x="844.01" y="250.64" width="61.24" height="11.62"/><rect class="cls-7" x="844.01" y="271" width="61.24" height="11.62"/><rect class="cls-7" x="844.01" y="291.37" width="61.24" height="11.62"/><rect class="cls-7" x="844.01" y="311.74" width="61.24" height="11.62"/><rect class="cls-7" x="844.01" y="332.1" width="61.24" height="11.62"/><rect class="cls-7" x="844.01" y="352.47" width="61.24" height="11.62"/><rect class="cls-7" x="844.01" y="372.84" width="61.24" height="11.62"/><rect class="cls-7" x="844.01" y="393.21" width="61.24" height="11.62"/><rect class="cls-7" x="844.01" y="413.57" width="61.24" height="11.62"/><rect class="cls-8" x="1134.14" y="248.68" width="60.99" height="19.45"/><rect class="cls-9" x="1195.13" y="248.68" width="30.65" height="17.52"/><rect class="cls-8" x="1116.16" y="263.65" width="89.33" height="211.1"/><path class="cls-10" d="M1204.37,263.65h39.45l-.15,211.1h-39.3Z"/><rect class="cls-11" x="1116.16" y="263.65" width="88.24" height="7.37"/><rect class="cls-12" x="1204.39" y="263.65" width="39.39" height="7.37"/><rect class="cls-12" x="1234.48" y="279.11" width="6.06" height="9.84"/><rect class="cls-12" x="1155.56" y="279.11" width="10.52" height="9.84"/><rect class="cls-12" x="1173.03" y="279.11" width="10.52" height="9.84"/><rect class="cls-12" x="1190.5" y="279.11" width="10.52" height="9.84"/><rect class="cls-12" x="1138.09" y="279.11" width="10.52" height="9.84"/><rect class="cls-12" x="1120.61" y="279.11" width="10.52" height="9.84"/><rect class="cls-12" x="1234.3" y="293.91" width="6.06" height="9.84"/><rect class="cls-12" x="1155.37" y="293.91" width="10.52" height="9.84"/><rect class="cls-12" x="1172.85" y="293.91" width="10.52" height="9.84"/><rect class="cls-12" x="1190.32" y="293.91" width="10.52" height="9.84"/><rect class="cls-12" x="1137.9" y="293.91" width="10.52" height="9.84"/><rect class="cls-12" x="1120.43" y="293.91" width="10.52" height="9.84"/><rect class="cls-12" x="1234.3" y="309.62" width="6.06" height="9.84"/><rect class="cls-12" x="1155.37" y="309.62" width="10.52" height="9.84"/><rect class="cls-12" x="1172.85" y="309.62" width="10.52" height="9.84"/><rect class="cls-12" x="1190.32" y="309.62" width="10.52" height="9.84"/><rect class="cls-12" x="1137.9" y="309.62" width="10.52" height="9.84"/><rect class="cls-12" x="1120.43" y="309.62" width="10.52" height="9.84"/><rect class="cls-12" x="1234.48" y="325.67" width="6.06" height="9.84"/><rect class="cls-12" x="1155.56" y="325.67" width="10.52" height="9.84"/><rect class="cls-12" x="1173.03" y="325.67" width="10.52" height="9.84"/><rect class="cls-12" x="1190.5" y="325.67" width="10.52" height="9.84"/><rect class="cls-12" x="1138.09" y="325.67" width="10.52" height="9.84"/><rect class="cls-12" x="1120.61" y="325.67" width="10.52" height="9.84"/><rect class="cls-12" x="1234.48" y="341" width="6.06" height="9.84"/><rect class="cls-12" x="1155.56" y="341" width="10.52" height="9.84"/><rect class="cls-12" x="1173.03" y="341" width="10.52" height="9.84"/><rect class="cls-12" x="1190.5" y="341" width="10.52" height="9.84"/><rect class="cls-12" x="1138.09" y="341" width="10.52" height="9.84"/><rect class="cls-12" x="1120.61" y="341" width="10.52" height="9.84"/><rect class="cls-12" x="1234.3" y="355.81" width="6.06" height="9.84"/><rect class="cls-12" x="1155.37" y="355.8" width="10.52" height="9.84"/><rect class="cls-12" x="1172.85" y="355.8" width="10.52" height="9.84"/><rect class="cls-12" x="1190.32" y="355.8" width="10.52" height="9.84"/><rect class="cls-12" x="1137.9" y="355.8" width="10.52" height="9.84"/><rect class="cls-12" x="1120.43" y="355.8" width="10.52" height="9.84"/><rect class="cls-12" x="1234.3" y="371.51" width="6.06" height="9.84"/><rect class="cls-12" x="1155.37" y="371.51" width="10.52" height="9.84"/><rect class="cls-12" x="1172.85" y="371.51" width="10.52" height="9.84"/><rect class="cls-12" x="1190.32" y="371.51" width="10.52" height="9.84"/><rect class="cls-12" x="1137.9" y="371.51" width="10.52" height="9.84"/><rect class="cls-12" x="1120.43" y="371.51" width="10.52" height="9.84"/><rect class="cls-12" x="1234.48" y="387.56" width="6.06" height="9.84"/><rect class="cls-12" x="1155.56" y="387.56" width="10.52" height="9.84"/><rect class="cls-12" x="1173.03" y="387.56" width="10.52" height="9.84"/><rect class="cls-12" x="1190.5" y="387.56" width="10.52" height="9.84"/><rect class="cls-12" x="1138.09" y="387.56" width="10.52" height="9.84"/><rect class="cls-12" x="1120.61" y="387.56" width="10.52" height="9.84"/><rect class="cls-12" x="1234.11" y="403.23" width="6.06" height="9.84"/><rect class="cls-12" x="1155.19" y="403.23" width="10.52" height="9.84"/><rect class="cls-12" x="1172.66" y="403.23" width="10.52" height="9.84"/><rect class="cls-12" x="1190.13" y="403.23" width="10.52" height="9.84"/><rect class="cls-12" x="1137.71" y="403.23" width="10.52" height="9.84"/><rect class="cls-12" x="1120.24" y="403.23" width="10.52" height="9.84"/><rect class="cls-12" x="1234.3" y="419.28" width="6.06" height="9.84"/><rect class="cls-12" x="1155.37" y="419.28" width="10.52" height="9.84"/><rect class="cls-12" x="1172.85" y="419.28" width="10.52" height="9.84"/><rect class="cls-12" x="1190.32" y="419.28" width="10.52" height="9.84"/><rect class="cls-12" x="1137.9" y="419.28" width="10.52" height="9.84"/><rect class="cls-12" x="1120.43" y="419.28" width="10.52" height="9.84"/><rect class="cls-12" x="1234.48" y="434.02" width="6.06" height="9.84"/><rect class="cls-12" x="1155.56" y="434.02" width="10.52" height="9.84"/><rect class="cls-12" x="1173.03" y="434.02" width="10.52" height="9.84"/><rect class="cls-12" x="1190.5" y="434.02" width="10.52" height="9.84"/><rect class="cls-12" x="1138.09" y="434.02" width="10.52" height="9.84"/><rect class="cls-12" x="1120.61" y="434.02" width="10.52" height="9.84"/><rect class="cls-12" x="1234.67" y="450.07" width="6.06" height="9.84"/><rect class="cls-12" x="1155.75" y="450.07" width="10.52" height="9.84"/><rect class="cls-12" x="1173.22" y="450.07" width="10.52" height="9.84"/><rect class="cls-12" x="1190.69" y="450.07" width="10.52" height="9.84"/><rect class="cls-12" x="1138.27" y="450.07" width="10.52" height="9.84"/><rect class="cls-12" x="1120.8" y="450.07" width="10.52" height="9.84"/><rect class="cls-8" x="540.45" y="290.4" width="37.13" height="9.82"/><rect class="cls-9" x="562.04" y="290.4" width="27.92" height="9.88"/><rect class="cls-8" x="523.59" y="297.18" width="59.14" height="269.07"/><rect class="cls-9" x="557.98" y="297.18" width="44.47" height="270.75"/><rect class="cls-8" x="826.84" y="289.93" width="37.13" height="9.82"/><rect class="cls-9" x="848.43" y="289.93" width="27.92" height="9.88"/><rect class="cls-8" x="809.99" y="296.7" width="59.14" height="269.07"/><rect class="cls-9" x="844.37" y="296.7" width="44.47" height="270.75"/><rect class="cls-9" x="330.2" y="328.89" width="25.77" height="12.54"/><rect class="cls-8" x="303.93" y="328.92" width="27" height="12.54"/><rect class="cls-9" x="331.17" y="334.98" width="32.55" height="226.56"/><rect class="cls-8" x="298.05" y="334.86" width="34.07" height="227.05"/><rect class="cls-9" x="298.05" y="346.52" width="34.07" height="6.09"/><rect class="cls-9" x="298.05" y="375.66" width="34.07" height="6.09"/><rect class="cls-9" x="298.05" y="408.77" width="34.07" height="6.09"/><rect class="cls-13" x="332.12" y="346.52" width="31.6" height="6.09"/><rect class="cls-13" x="332.12" y="375.66" width="31.6" height="6.09"/><rect class="cls-13" x="332.12" y="408.77" width="31.6" height="6.09"/><rect class="cls-14" x="1234.57" y="341.13" width="42.27" height="15.31"/><rect class="cls-15" x="1271.69" y="341.13" width="33.35" height="15.31"/><rect class="cls-14" x="1314.59" y="341.13" width="11.11" height="15.31"/><rect class="cls-15" x="1324.35" y="341.13" width="8.77" height="15.31"/><rect class="cls-15" x="1316.4" y="359.87" width="44.66" height="198.31"/><rect class="cls-14" x="1218.65" y="359.87" width="100.72" height="198.31"/><rect class="cls-16" x="1316.4" y="353.02" width="44.66" height="6.85"/><rect class="cls-17" x="1218.65" y="353.02" width="100.72" height="6.85"/><rect class="cls-18" x="1316.4" y="430.11" width="44.66" height="6.85"/><rect class="cls-17" x="1218.65" y="430.11" width="100.72" height="6.85"/><rect class="cls-18" x="1316.4" y="509.05" width="44.66" height="6.85"/><rect class="cls-19" x="1218.65" y="509.05" width="100.72" height="6.85"/><rect class="cls-17" x="1226.8" y="371.17" width="11.55" height="10.49"/><rect class="cls-17" x="1245.86" y="371.17" width="11.55" height="10.49"/><rect class="cls-20" x="1264.92" y="371.17" width="11.55" height="10.49"/><rect class="cls-17" x="1283.98" y="371.17" width="11.55" height="10.49"/><rect class="cls-20" x="1303.04" y="371.17" width="11.55" height="10.49"/><rect class="cls-17" x="1226.8" y="388.54" width="11.55" height="10.49"/><rect class="cls-17" x="1245.86" y="388.54" width="11.55" height="10.49"/><rect class="cls-17" x="1264.92" y="388.54" width="11.55" height="10.49"/><rect class="cls-17" x="1283.98" y="388.54" width="11.55" height="10.49"/><rect class="cls-17" x="1303.04" y="388.54" width="11.55" height="10.49"/><rect class="cls-20" x="1226.8" y="407" width="11.55" height="10.49"/><rect class="cls-17" x="1245.86" y="407" width="11.55" height="10.49"/><rect class="cls-17" x="1264.92" y="407" width="11.55" height="10.49"/><rect class="cls-17" x="1283.98" y="407" width="11.55" height="10.49"/><rect class="cls-17" x="1303.04" y="407" width="11.55" height="10.49"/><rect class="cls-17" x="1225.12" y="448.55" width="11.55" height="10.49"/><rect class="cls-17" x="1244.18" y="448.55" width="11.55" height="10.49"/><rect class="cls-17" x="1263.24" y="448.55" width="11.55" height="10.49"/><rect class="cls-17" x="1282.3" y="448.55" width="11.55" height="10.49"/><rect class="cls-17" x="1301.36" y="448.55" width="11.55" height="10.49"/><rect class="cls-17" x="1225.12" y="465.92" width="11.55" height="10.49"/><rect class="cls-17" x="1244.18" y="465.92" width="11.55" height="10.49"/><rect class="cls-17" x="1263.24" y="465.92" width="11.55" height="10.49"/><rect class="cls-17" x="1282.3" y="465.92" width="11.55" height="10.49"/><rect class="cls-17" x="1301.36" y="465.92" width="11.55" height="10.49"/><rect class="cls-17" x="1225.12" y="484.38" width="11.55" height="10.49"/><rect class="cls-17" x="1244.18" y="484.38" width="11.55" height="10.49"/><rect class="cls-17" x="1263.24" y="484.38" width="11.55" height="10.49"/><rect class="cls-17" x="1282.3" y="484.38" width="11.55" height="10.49"/><rect class="cls-17" x="1301.36" y="484.38" width="11.55" height="10.49"/><rect class="cls-9" x="1000.96" y="259.81" width="74.06" height="238.37"/><rect class="cls-8" x="931.52" y="259.81" width="72.66" height="238.37"/><rect class="cls-11" x="936.22" y="283.05" width="64.74" height="11.62"/><rect class="cls-11" x="936.22" y="303.41" width="64.74" height="11.62"/><rect class="cls-11" x="936.22" y="323.78" width="64.74" height="11.62"/><rect class="cls-11" x="936.22" y="344.15" width="64.74" height="11.62"/><rect class="cls-11" x="936.22" y="364.51" width="64.74" height="11.62"/><rect class="cls-11" x="936.22" y="384.88" width="64.74" height="11.62"/><rect class="cls-11" x="936.22" y="405.25" width="64.74" height="11.62"/><rect class="cls-11" x="936.22" y="425.62" width="64.74" height="11.62"/><rect class="cls-11" x="936.22" y="445.98" width="64.74" height="11.62"/><rect class="cls-11" x="936.22" y="466.35" width="64.74" height="11.62"/><rect class="cls-12" x="1010.59" y="283.05" width="61.24" height="11.62"/><rect class="cls-12" x="1010.59" y="303.41" width="61.24" height="11.62"/><rect class="cls-12" x="1010.59" y="323.78" width="61.24" height="11.62"/><rect class="cls-12" x="1010.59" y="344.15" width="61.24" height="11.62"/><rect class="cls-12" x="1010.59" y="364.51" width="61.24" height="11.62"/><rect class="cls-12" x="1010.59" y="384.88" width="61.24" height="11.62"/><rect class="cls-12" x="1010.59" y="405.25" width="61.24" height="11.62"/><rect class="cls-12" x="1010.59" y="425.62" width="61.24" height="11.62"/><rect class="cls-12" x="1010.59" y="445.98" width="61.24" height="11.62"/><rect class="cls-12" x="1010.59" y="466.35" width="61.24" height="11.62"/><rect class="cls-8" x="398.49" y="301.66" width="92.41" height="33.81"/><rect class="cls-8" x="387.71" y="321.52" width="112.05" height="270.6"/><rect class="cls-11" x="387.71" y="421.05" width="112.05" height="8.94"/><rect class="cls-11" x="387.71" y="443.68" width="112.05" height="8.94"/><rect class="cls-11" x="387.71" y="465.66" width="112.05" height="8.94"/><rect class="cls-11" x="388.14" y="396.73" width="111.63" height="8.94"/><rect class="cls-11" x="387.79" y="372.42" width="111.97" height="8.94"/><rect class="cls-11" x="388.32" y="348.1" width="111.44" height="8.94"/><rect class="cls-12" x="387.71" y="321.52" width="112.05" height="11.45"/><rect class="cls-9" x="871.68" y="311.9" width="85.1" height="31.14"/><rect class="cls-9" x="861.75" y="330.19" width="103.19" height="249.2"/><rect class="cls-12" x="861.76" y="421.84" width="103.19" height="8.23"/><rect class="cls-12" x="861.76" y="442.68" width="103.19" height="8.23"/><rect class="cls-12" x="861.76" y="462.92" width="103.19" height="8.23"/><rect class="cls-12" x="862.14" y="399.45" width="102.8" height="8.23"/><rect class="cls-12" x="861.82" y="377.06" width="103.11" height="8.23"/><rect class="cls-12" x="862.31" y="354.67" width="102.62" height="8.23"/><rect class="cls-12" x="861.75" y="330.18" width="103.19" height="10.54"/><rect class="cls-9" x="247.73" y="373.6" width="67.84" height="24.82"/><rect class="cls-9" x="239.82" y="388.18" width="82.26" height="198.65"/><rect class="cls-12" x="239.82" y="461.24" width="82.26" height="6.56"/><rect class="cls-12" x="239.82" y="477.85" width="82.26" height="6.56"/><rect class="cls-12" x="239.82" y="493.99" width="82.26" height="6.56"/><rect class="cls-12" x="240.13" y="443.39" width="81.95" height="6.56"/><rect class="cls-12" x="239.88" y="425.54" width="82.2" height="6.56"/><rect class="cls-12" x="240.26" y="407.69" width="81.81" height="6.56"/><rect class="cls-12" x="239.82" y="388.18" width="82.26" height="8.4"/><rect class="cls-9" x="746.66" y="272.33" width="37.24" height="15.09"/><rect class="cls-8" x="708.69" y="272.36" width="39.02" height="15.09"/><rect class="cls-9" x="748.06" y="279.66" width="47.04" height="272.65"/><rect class="cls-8" x="700.19" y="279.52" width="49.24" height="273.24"/><rect class="cls-9" x="700.21" y="293.55" width="49.2" height="7.33"/><rect class="cls-9" x="699.2" y="328.61" width="50.21" height="7.33"/><rect class="cls-9" x="699.2" y="368.46" width="50.21" height="7.33"/><rect class="cls-13" x="749.43" y="293.55" width="45.67" height="7.33"/><rect class="cls-13" x="749.43" y="328.61" width="45.67" height="7.33"/><rect class="cls-13" x="749.43" y="368.46" width="45.67" height="7.33"/><rect class="cls-14" x="1085.67" y="318.37" width="60.99" height="19.45"/><rect class="cls-15" x="1146.66" y="318.37" width="30.65" height="17.52"/><rect class="cls-14" x="1067.68" y="333.34" width="89.33" height="211.1"/><path class="cls-21" d="M1155.9,333.34h39.45l-.15,211.1h-39.3Z"/><rect class="cls-17" x="1067.69" y="333.34" width="88.24" height="7.37"/><rect class="cls-16" x="1155.92" y="333.34" width="39.39" height="7.37"/><rect class="cls-17" x="1186.01" y="348.8" width="6.06" height="9.84"/><rect class="cls-17" x="1107.09" y="348.8" width="10.52" height="9.84"/><rect class="cls-17" x="1124.56" y="348.8" width="10.52" height="9.84"/><rect class="cls-17" x="1142.03" y="348.8" width="10.52" height="9.84"/><rect class="cls-20" x="1089.62" y="348.8" width="10.52" height="9.84"/><rect class="cls-17" x="1072.14" y="348.8" width="10.52" height="9.84"/><rect class="cls-17" x="1185.83" y="363.6" width="6.06" height="9.84"/><rect class="cls-17" x="1106.9" y="363.6" width="10.52" height="9.84"/><rect class="cls-20" x="1124.37" y="363.6" width="10.52" height="9.84"/><rect class="cls-17" x="1141.85" y="363.6" width="10.52" height="9.84"/><rect class="cls-17" x="1089.43" y="363.6" width="10.52" height="9.84"/><rect class="cls-17" x="1071.96" y="363.6" width="10.52" height="9.84"/><rect class="cls-17" x="1185.83" y="379.31" width="6.06" height="9.84"/><rect class="cls-17" x="1106.9" y="379.31" width="10.52" height="9.84"/><rect class="cls-17" x="1124.37" y="379.31" width="10.52" height="9.84"/><rect class="cls-17" x="1141.85" y="379.31" width="10.52" height="9.84"/><rect class="cls-17" x="1089.43" y="379.31" width="10.52" height="9.84"/><rect class="cls-17" x="1071.96" y="379.31" width="10.52" height="9.84"/><rect class="cls-17" x="1186.01" y="395.35" width="6.06" height="9.84"/><rect class="cls-17" x="1107.09" y="395.35" width="10.52" height="9.84"/><rect class="cls-20" x="1124.56" y="395.35" width="10.52" height="9.84"/><rect class="cls-17" x="1142.03" y="395.35" width="10.52" height="9.84"/><rect class="cls-17" x="1089.62" y="395.35" width="10.52" height="9.84"/><rect class="cls-17" x="1072.14" y="395.35" width="10.52" height="9.84"/><rect class="cls-17" x="1186.01" y="410.69" width="6.06" height="9.84"/><rect class="cls-17" x="1107.09" y="410.69" width="10.52" height="9.84"/><rect class="cls-20" x="1124.56" y="410.69" width="10.52" height="9.84"/><rect class="cls-17" x="1142.03" y="410.69" width="10.52" height="9.84"/><rect class="cls-17" x="1089.62" y="410.69" width="10.52" height="9.84"/><rect class="cls-17" x="1072.14" y="410.69" width="10.52" height="9.84"/><rect class="cls-17" x="1185.83" y="425.49" width="6.06" height="9.84"/><rect class="cls-17" x="1106.9" y="425.49" width="10.52" height="9.84"/><rect class="cls-17" x="1124.37" y="425.49" width="10.52" height="9.84"/><rect class="cls-17" x="1141.85" y="425.49" width="10.52" height="9.84"/><rect class="cls-20" x="1089.43" y="425.49" width="10.52" height="9.84"/><rect class="cls-17" x="1071.96" y="425.49" width="10.52" height="9.84"/><rect class="cls-17" x="1185.83" y="441.2" width="6.06" height="9.84"/><rect class="cls-17" x="1106.9" y="441.2" width="10.52" height="9.84"/><rect class="cls-17" x="1124.37" y="441.2" width="10.52" height="9.84"/><rect class="cls-17" x="1141.85" y="441.2" width="10.52" height="9.84"/><rect class="cls-17" x="1089.43" y="441.2" width="10.52" height="9.84"/><rect class="cls-17" x="1071.96" y="441.2" width="10.52" height="9.84"/><rect class="cls-17" x="1186.01" y="457.25" width="6.06" height="9.84"/><rect class="cls-17" x="1107.09" y="457.25" width="10.52" height="9.84"/><rect class="cls-17" x="1124.56" y="457.25" width="10.52" height="9.84"/><rect class="cls-17" x="1142.03" y="457.25" width="10.52" height="9.84"/><rect class="cls-17" x="1089.62" y="457.25" width="10.52" height="9.84"/><rect class="cls-17" x="1072.14" y="457.25" width="10.52" height="9.84"/><rect class="cls-17" x="1185.64" y="472.92" width="6.06" height="9.84"/><rect class="cls-17" x="1106.72" y="472.92" width="10.52" height="9.84"/><rect class="cls-17" x="1124.19" y="472.92" width="10.52" height="9.84"/><rect class="cls-17" x="1141.66" y="472.92" width="10.52" height="9.84"/><rect class="cls-17" x="1089.24" y="472.92" width="10.52" height="9.84"/><rect class="cls-17" x="1071.77" y="472.92" width="10.52" height="9.84"/><rect class="cls-17" x="1185.83" y="488.97" width="6.06" height="9.84"/><rect class="cls-17" x="1106.9" y="488.97" width="10.52" height="9.84"/><rect class="cls-17" x="1124.37" y="488.97" width="10.52" height="9.84"/><rect class="cls-17" x="1141.85" y="488.97" width="10.52" height="9.84"/><rect class="cls-17" x="1089.43" y="488.97" width="10.52" height="9.84"/><rect class="cls-17" x="1071.96" y="488.97" width="10.52" height="9.84"/><rect class="cls-17" x="1186.01" y="503.71" width="6.06" height="9.84"/><rect class="cls-17" x="1107.09" y="503.71" width="10.52" height="9.84"/><rect class="cls-17" x="1124.56" y="503.71" width="10.52" height="9.84"/><rect class="cls-17" x="1142.03" y="503.71" width="10.52" height="9.84"/><rect class="cls-17" x="1089.62" y="503.71" width="10.52" height="9.84"/><rect class="cls-17" x="1072.14" y="503.71" width="10.52" height="9.84"/><rect class="cls-17" x="1186.2" y="519.76" width="6.06" height="9.84"/><rect class="cls-17" x="1107.27" y="519.76" width="10.52" height="9.84"/><rect class="cls-17" x="1124.75" y="519.76" width="10.52" height="9.84"/><rect class="cls-17" x="1142.22" y="519.76" width="10.52" height="9.84"/><rect class="cls-17" x="1089.8" y="519.76" width="10.52" height="9.84"/><rect class="cls-17" x="1072.33" y="519.76" width="10.52" height="9.84"/><rect class="cls-8" x="614.2" y="299.06" width="60.99" height="19.45"/><rect class="cls-9" x="675.19" y="299.06" width="30.65" height="17.52"/><rect class="cls-8" x="596.22" y="314.03" width="89.33" height="211.1"/><path class="cls-10" d="M684.43,314h39.45l-.15,211.1h-39.3Z"/><rect class="cls-8" x="596.22" y="314.03" width="88.24" height="7.37"/><rect class="cls-9" x="684.45" y="314.03" width="39.39" height="7.37"/><rect class="cls-12" x="714.54" y="329.49" width="6.06" height="9.84"/><rect class="cls-12" x="635.62" y="329.49" width="10.52" height="9.84"/><rect class="cls-12" x="653.09" y="329.49" width="10.52" height="9.84"/><rect class="cls-12" x="670.57" y="329.49" width="10.52" height="9.84"/><rect class="cls-12" x="618.15" y="329.49" width="10.52" height="9.84"/><rect class="cls-12" x="600.67" y="329.49" width="10.52" height="9.84"/><rect class="cls-12" x="714.36" y="344.29" width="6.06" height="9.84"/><rect class="cls-12" x="635.43" y="344.29" width="10.52" height="9.84"/><rect class="cls-12" x="652.91" y="344.29" width="10.52" height="9.84"/><rect class="cls-12" x="670.38" y="344.29" width="10.52" height="9.84"/><rect class="cls-20" x="617.96" y="344.29" width="10.52" height="9.84"/><rect class="cls-12" x="600.49" y="344.29" width="10.52" height="9.84"/><rect class="cls-12" x="714.36" y="360" width="6.06" height="9.84"/><rect class="cls-12" x="635.43" y="360" width="10.52" height="9.84"/><rect class="cls-20" x="652.91" y="360" width="10.52" height="9.84"/><rect class="cls-12" x="670.38" y="360" width="10.52" height="9.84"/><rect class="cls-12" x="617.96" y="360" width="10.52" height="9.84"/><rect class="cls-12" x="600.49" y="360" width="10.52" height="9.84"/><rect class="cls-12" x="714.54" y="376.04" width="6.06" height="9.84"/><rect class="cls-12" x="635.62" y="376.04" width="10.52" height="9.84"/><rect class="cls-12" x="653.09" y="376.04" width="10.52" height="9.84"/><rect class="cls-12" x="670.57" y="376.04" width="10.52" height="9.84"/><rect class="cls-12" x="618.15" y="376.04" width="10.52" height="9.84"/><rect class="cls-12" x="600.67" y="376.04" width="10.52" height="9.84"/><rect class="cls-12" x="714.54" y="391.38" width="6.06" height="9.84"/><rect class="cls-12" x="635.62" y="391.38" width="10.52" height="9.84"/><rect class="cls-12" x="653.09" y="391.38" width="10.52" height="9.84"/><rect class="cls-12" x="670.57" y="391.38" width="10.52" height="9.84"/><rect class="cls-12" x="618.15" y="391.38" width="10.52" height="9.84"/><rect class="cls-12" x="600.67" y="391.38" width="10.52" height="9.84"/><rect class="cls-12" x="714.36" y="406.18" width="6.06" height="9.84"/><rect class="cls-12" x="635.43" y="406.18" width="10.52" height="9.84"/><rect class="cls-12" x="652.91" y="406.18" width="10.52" height="9.84"/><rect class="cls-12" x="670.38" y="406.18" width="10.52" height="9.84"/><rect class="cls-12" x="617.96" y="406.18" width="10.52" height="9.84"/><rect class="cls-12" x="600.49" y="406.18" width="10.52" height="9.84"/><rect class="cls-12" x="714.36" y="421.89" width="6.06" height="9.84"/><rect class="cls-12" x="635.43" y="421.89" width="10.52" height="9.84"/><rect class="cls-12" x="652.91" y="421.89" width="10.52" height="9.84"/><rect class="cls-12" x="670.38" y="421.89" width="10.52" height="9.84"/><rect class="cls-12" x="617.96" y="421.89" width="10.52" height="9.84"/><rect class="cls-12" x="600.49" y="421.89" width="10.52" height="9.84"/><rect class="cls-12" x="714.54" y="437.94" width="6.06" height="9.84"/><rect class="cls-12" x="635.62" y="437.94" width="10.52" height="9.84"/><rect class="cls-12" x="653.09" y="437.94" width="10.52" height="9.84"/><rect class="cls-12" x="670.57" y="437.94" width="10.52" height="9.84"/><rect class="cls-12" x="618.15" y="437.94" width="10.52" height="9.84"/><rect class="cls-12" x="600.67" y="437.94" width="10.52" height="9.84"/><rect class="cls-12" x="714.17" y="453.61" width="6.06" height="9.84"/><rect class="cls-12" x="635.25" y="453.61" width="10.52" height="9.84"/><rect class="cls-12" x="652.72" y="453.61" width="10.52" height="9.84"/><rect class="cls-12" x="670.19" y="453.61" width="10.52" height="9.84"/><rect class="cls-12" x="617.77" y="453.61" width="10.52" height="9.84"/><rect class="cls-12" x="600.3" y="453.61" width="10.52" height="9.84"/><rect class="cls-12" x="714.36" y="469.66" width="6.06" height="9.84"/><rect class="cls-12" x="635.43" y="469.66" width="10.52" height="9.84"/><rect class="cls-12" x="652.91" y="469.66" width="10.52" height="9.84"/><rect class="cls-12" x="670.38" y="469.66" width="10.52" height="9.84"/><rect class="cls-12" x="617.96" y="469.66" width="10.52" height="9.84"/><rect class="cls-12" x="600.49" y="469.66" width="10.52" height="9.84"/><rect class="cls-12" x="714.54" y="484.4" width="6.06" height="9.84"/><rect class="cls-12" x="635.62" y="484.4" width="10.52" height="9.84"/><rect class="cls-12" x="653.09" y="484.4" width="10.52" height="9.84"/><rect class="cls-12" x="670.57" y="484.4" width="10.52" height="9.84"/><rect class="cls-12" x="618.15" y="484.4" width="10.52" height="9.84"/><rect class="cls-12" x="600.67" y="484.4" width="10.52" height="9.84"/><rect class="cls-12" x="714.73" y="500.45" width="6.06" height="9.84"/><rect class="cls-12" x="635.81" y="500.45" width="10.52" height="9.84"/><rect class="cls-12" x="653.28" y="500.45" width="10.52" height="9.84"/><rect class="cls-12" x="670.75" y="500.45" width="10.52" height="9.84"/><rect class="cls-12" x="618.33" y="500.45" width="10.52" height="9.84"/><rect class="cls-12" x="600.86" y="500.45" width="10.52" height="9.84"/><rect class="cls-14" x="302.86" y="425.36" width="79.62" height="165.07"/><rect class="cls-15" x="376.48" y="425.36" width="53.91" height="165.22"/><rect class="cls-17" x="302.86" y="425.36" width="79.62" height="4.92"/><rect class="cls-16" x="376.48" y="425.36" width="53.91" height="4.92"/><rect class="cls-22" x="356.73" y="445.64" width="8.8" height="12.41"/><rect class="cls-22" x="336" y="445.64" width="8.8" height="12.41"/><rect class="cls-20" x="315.26" y="445.64" width="8.8" height="12.41"/><rect class="cls-22" x="356.73" y="466.67" width="8.8" height="12.41"/><rect class="cls-22" x="336" y="466.67" width="8.8" height="12.41"/><rect class="cls-22" x="315.26" y="466.67" width="8.8" height="12.41"/><rect class="cls-22" x="356.73" y="486.81" width="8.8" height="12.41"/><rect class="cls-20" x="336" y="486.81" width="8.8" height="12.41"/><rect class="cls-22" x="315.26" y="486.81" width="8.8" height="12.41"/><rect class="cls-22" x="356.73" y="507.84" width="8.8" height="12.41"/><rect class="cls-22" x="336" y="507.84" width="8.8" height="12.41"/><rect class="cls-22" x="315.26" y="507.84" width="8.8" height="12.41"/><rect class="cls-22" x="402.95" y="486.84" width="7.51" height="12.41"/><rect class="cls-22" x="402.95" y="466.3" width="7.51" height="12.41"/><rect class="cls-22" x="402.95" y="445.64" width="7.51" height="12.41"/><rect class="cls-22" x="402.95" y="508.63" width="7.51" height="12.41"/><rect class="cls-22" x="402.95" y="528.99" width="7.51" height="12.2"/><rect class="cls-14" x="134.15" y="452.62" width="72.71" height="150.75"/><rect class="cls-15" x="201.38" y="452.62" width="49.23" height="150.89"/><rect class="cls-17" x="134.15" y="452.62" width="72.71" height="4.49"/><rect class="cls-16" x="201.38" y="452.62" width="49.23" height="4.49"/><rect class="cls-22" x="183.34" y="471.14" width="8.04" height="11.33"/><rect class="cls-22" x="164.42" y="471.14" width="8.04" height="11.33"/><rect class="cls-22" x="145.47" y="471.14" width="8.04" height="11.33"/><rect class="cls-22" x="183.34" y="490.34" width="8.04" height="11.33"/><rect class="cls-22" x="164.42" y="490.34" width="8.04" height="11.33"/><rect class="cls-22" x="145.47" y="490.34" width="8.04" height="11.33"/><rect class="cls-22" x="183.34" y="508.74" width="8.04" height="11.33"/><rect class="cls-22" x="164.42" y="508.74" width="8.04" height="11.33"/><rect class="cls-22" x="145.47" y="508.74" width="8.04" height="11.33"/><rect class="cls-22" x="183.34" y="527.95" width="8.04" height="11.33"/><rect class="cls-22" x="164.42" y="527.95" width="8.04" height="11.33"/><rect class="cls-22" x="145.47" y="527.95" width="8.04" height="11.33"/><rect class="cls-22" x="225.56" y="508.77" width="6.86" height="11.33"/><rect class="cls-22" x="225.56" y="490.01" width="6.86" height="11.33"/><rect class="cls-22" x="225.56" y="471.14" width="6.86" height="11.33"/><rect class="cls-22" x="225.56" y="528.67" width="6.86" height="11.33"/><rect class="cls-22" x="225.56" y="547.27" width="6.86" height="11.15"/><rect class="cls-15" x="786.54" y="339.09" width="61.49" height="36.89"/><rect class="cls-14" x="732.21" y="339.56" width="61.49" height="36.89"/><rect class="cls-14" x="693.48" y="354.46" width="218.53" height="174.33"/><rect class="cls-15" x="903.94" y="354.46" width="72.56" height="174.49"/><rect class="cls-17" x="693.48" y="354.46" width="218.53" height="6.62"/><rect class="cls-16" x="903.94" y="354.46" width="72.56" height="6.62"/><rect class="cls-17" x="701.54" y="373.94" width="16.06" height="11.39"/><rect class="cls-17" x="727.08" y="373.94" width="16.06" height="11.39"/><rect class="cls-17" x="752.62" y="373.94" width="16.06" height="11.39"/><rect class="cls-17" x="778.16" y="373.94" width="16.06" height="11.39"/><rect class="cls-17" x="803.7" y="373.94" width="16.06" height="11.39"/><rect class="cls-17" x="829.24" y="373.94" width="16.06" height="11.39"/><rect class="cls-17" x="854.78" y="373.94" width="16.06" height="11.39"/><rect class="cls-17" x="880.32" y="373.94" width="16.06" height="11.39"/><rect class="cls-17" x="701.54" y="394.1" width="16.06" height="11.39"/><rect class="cls-17" x="727.08" y="394.1" width="16.06" height="11.39"/><rect class="cls-17" x="752.62" y="394.1" width="16.06" height="11.39"/><rect class="cls-17" x="778.16" y="394.1" width="16.06" height="11.39"/><rect class="cls-17" x="803.7" y="394.1" width="16.06" height="11.39"/><rect class="cls-17" x="829.24" y="394.1" width="16.06" height="11.39"/><rect class="cls-17" x="854.78" y="394.1" width="16.06" height="11.39"/><rect class="cls-17" x="880.32" y="394.1" width="16.06" height="11.39"/><rect class="cls-17" x="701.54" y="414.26" width="16.06" height="11.39"/><rect class="cls-20" x="727.08" y="414.26" width="16.06" height="11.39"/><rect class="cls-17" x="752.62" y="414.26" width="16.06" height="11.39"/><rect class="cls-17" x="778.16" y="414.26" width="16.06" height="11.39"/><rect class="cls-17" x="803.7" y="414.26" width="16.06" height="11.39"/><rect class="cls-20" x="829.24" y="414.26" width="16.06" height="11.39"/><rect class="cls-17" x="854.78" y="414.26" width="16.06" height="11.39"/><rect class="cls-17" x="880.32" y="414.26" width="16.06" height="11.39"/><rect class="cls-17" x="701.54" y="434.42" width="16.06" height="11.39"/><rect class="cls-17" x="727.08" y="434.42" width="16.06" height="11.39"/><rect class="cls-17" x="752.62" y="434.42" width="16.06" height="11.39"/><rect class="cls-17" x="778.16" y="434.42" width="16.06" height="11.39"/><rect class="cls-17" x="803.7" y="434.42" width="16.06" height="11.39"/><rect class="cls-17" x="829.24" y="434.42" width="16.06" height="11.39"/><rect class="cls-17" x="854.78" y="434.42" width="16.06" height="11.39"/><rect class="cls-17" x="880.32" y="434.42" width="16.06" height="11.39"/><rect class="cls-17" x="701.54" y="454.58" width="16.06" height="11.39"/><rect class="cls-17" x="727.08" y="454.58" width="16.06" height="11.39"/><rect class="cls-17" x="752.62" y="454.58" width="16.06" height="11.39"/><rect class="cls-17" x="778.16" y="454.58" width="16.06" height="11.39"/><rect class="cls-17" x="803.7" y="454.58" width="16.06" height="11.39"/><rect class="cls-17" x="829.24" y="454.58" width="16.06" height="11.39"/><rect class="cls-17" x="854.78" y="454.58" width="16.06" height="11.39"/><rect class="cls-20" x="880.32" y="454.58" width="16.06" height="11.39"/><rect class="cls-17" x="701.54" y="474.74" width="16.06" height="11.39"/><rect class="cls-17" x="727.08" y="474.74" width="16.06" height="11.39"/><rect class="cls-17" x="752.62" y="474.74" width="16.06" height="11.39"/><rect class="cls-17" x="778.16" y="474.74" width="16.06" height="11.39"/><rect class="cls-17" x="803.7" y="474.74" width="16.06" height="11.39"/><rect class="cls-17" x="829.24" y="474.74" width="16.06" height="11.39"/><rect class="cls-17" x="854.78" y="474.74" width="16.06" height="11.39"/><rect class="cls-17" x="880.32" y="474.74" width="16.06" height="11.39"/><rect class="cls-17" x="701.54" y="494.9" width="16.06" height="11.39"/><rect class="cls-17" x="727.08" y="494.9" width="16.06" height="11.39"/><rect class="cls-17" x="752.62" y="494.9" width="16.06" height="11.39"/><rect class="cls-17" x="778.16" y="494.9" width="16.06" height="11.39"/><rect class="cls-17" x="803.7" y="494.9" width="16.06" height="11.39"/><rect class="cls-17" x="829.24" y="494.9" width="16.06" height="11.39"/><rect class="cls-17" x="854.78" y="494.9" width="16.06" height="11.39"/><rect class="cls-17" x="880.32" y="494.9" width="16.06" height="11.39"/><rect class="cls-22" x="939.57" y="437.21" width="10.11" height="16.7"/><rect class="cls-22" x="939.57" y="409.56" width="10.11" height="16.7"/><rect class="cls-22" x="939.57" y="381.76" width="10.11" height="16.7"/><rect class="cls-22" x="939.57" y="466.53" width="10.11" height="16.7"/><rect class="cls-14" x="956.7" y="386.06" width="79.62" height="165.07"/><rect class="cls-15" x="1030.31" y="386.06" width="53.91" height="165.22"/><rect class="cls-17" x="956.7" y="386.06" width="79.62" height="4.92"/><rect class="cls-16" x="1030.31" y="386.06" width="53.91" height="4.92"/><rect class="cls-17" x="1010.56" y="406.34" width="8.8" height="12.41"/><rect class="cls-17" x="989.84" y="406.34" width="8.8" height="12.41"/><rect class="cls-17" x="969.1" y="406.34" width="8.8" height="12.41"/><rect class="cls-20" x="1010.56" y="427.37" width="8.8" height="12.41"/><rect class="cls-17" x="989.84" y="427.37" width="8.8" height="12.41"/><rect class="cls-17" x="969.1" y="427.37" width="8.8" height="12.41"/><rect class="cls-17" x="1010.56" y="447.52" width="8.8" height="12.41"/><rect class="cls-17" x="989.84" y="447.52" width="8.8" height="12.41"/><rect class="cls-17" x="969.1" y="447.52" width="8.8" height="12.41"/><rect class="cls-17" x="1010.56" y="468.55" width="8.8" height="12.41"/><rect class="cls-17" x="989.84" y="468.55" width="8.8" height="12.41"/><rect class="cls-17" x="969.1" y="468.55" width="8.8" height="12.41"/><rect class="cls-22" x="1056.79" y="447.54" width="7.51" height="12.41"/><rect class="cls-22" x="1056.79" y="427.01" width="7.51" height="12.41"/><rect class="cls-20" x="1056.79" y="406.34" width="7.51" height="12.41"/><rect class="cls-22" x="1056.79" y="469.33" width="7.51" height="12.41"/><rect class="cls-22" x="1056.79" y="489.7" width="7.51" height="12.2"/><rect class="cls-14" x="1281.88" y="389.15" width="79.62" height="195.95"/><rect class="cls-15" x="1355.5" y="389.15" width="53.91" height="196.13"/><rect class="cls-17" x="1281.88" y="389.15" width="79.62" height="4.92"/><rect class="cls-16" x="1355.5" y="389.15" width="53.91" height="4.92"/><rect class="cls-17" x="1292.11" y="409.43" width="52.44" height="12.41"/><rect class="cls-17" x="1292.11" y="430.45" width="52.44" height="12.41"/><rect class="cls-17" x="1292.11" y="450.6" width="52.44" height="12.41"/><rect class="cls-17" x="1292.11" y="471.63" width="52.44" height="12.41"/><rect class="cls-17" x="1292.11" y="491.9" width="52.44" height="12.41"/><rect class="cls-22" x="1381.97" y="450.63" width="7.51" height="12.41"/><rect class="cls-22" x="1381.97" y="430.09" width="7.51" height="12.41"/><rect class="cls-22" x="1381.97" y="409.43" width="7.51" height="12.41"/><rect class="cls-20" x="1381.97" y="472.42" width="7.51" height="12.41"/><rect class="cls-22" x="1381.97" y="492.78" width="7.51" height="12.2"/><rect class="cls-15" x="514.02" y="360.95" width="68.71" height="17.44"/><path class="cls-23" d="M515,361H489.12l-.79,17.43h25.92Z"/><rect class="cls-15" x="499.76" y="373.93" width="135.56" height="201.25"/><path class="cls-23" d="M501.76,373.93H450.63l-1.56,201.24h51.14Z"/><rect class="cls-17" x="450.76" y="372.28" width="51" height="8.2"/><rect class="cls-16" x="501.76" y="372.28" width="133.56" height="8.2"/><rect class="cls-22" x="468.86" y="398.08" width="10.08" height="15.35"/><rect class="cls-22" x="518.55" y="398.08" width="10.08" height="15.35"/><rect class="cls-22" x="538.26" y="398.08" width="10.08" height="15.35"/><rect class="cls-20" x="557.98" y="398.08" width="10.08" height="15.35"/><rect class="cls-22" x="577.69" y="398.08" width="10.08" height="15.35"/><rect class="cls-22" x="597.4" y="398.08" width="10.08" height="15.35"/><rect class="cls-22" x="617.12" y="398.08" width="10.08" height="15.35"/><rect class="cls-22" x="468.86" y="420.39" width="10.08" height="15.35"/><rect class="cls-22" x="518.55" y="420.39" width="10.08" height="15.35"/><rect class="cls-22" x="538.26" y="420.39" width="10.08" height="15.35"/><rect class="cls-22" x="557.98" y="420.39" width="10.08" height="15.35"/><rect class="cls-22" x="577.69" y="420.39" width="10.08" height="15.35"/><rect class="cls-22" x="597.4" y="420.39" width="10.08" height="15.35"/><rect class="cls-22" x="617.12" y="420.39" width="10.08" height="15.35"/><rect class="cls-22" x="468.86" y="442.76" width="10.08" height="15.35"/><rect class="cls-22" x="518.55" y="442.76" width="10.08" height="15.35"/><rect class="cls-22" x="538.26" y="442.76" width="10.08" height="15.35"/><rect class="cls-22" x="557.98" y="442.76" width="10.08" height="15.35"/><rect class="cls-22" x="577.69" y="442.76" width="10.08" height="15.35"/><rect class="cls-22" x="597.4" y="442.76" width="10.08" height="15.35"/><rect class="cls-22" x="617.12" y="442.76" width="10.08" height="15.35"/><rect class="cls-22" x="468.86" y="466.88" width="10.08" height="15.35"/><rect class="cls-22" x="518.55" y="466.88" width="10.08" height="15.35"/><rect class="cls-20" x="538.26" y="466.88" width="10.08" height="15.35"/><rect class="cls-22" x="557.98" y="466.88" width="10.08" height="15.35"/><rect class="cls-22" x="577.69" y="466.88" width="10.08" height="15.35"/><rect class="cls-22" x="597.4" y="466.88" width="10.08" height="15.35"/><rect class="cls-22" x="617.12" y="466.88" width="10.08" height="15.35"/><rect class="cls-22" x="468.86" y="490.51" width="10.08" height="15.35"/><rect class="cls-22" x="518.55" y="490.51" width="10.08" height="15.35"/><rect class="cls-22" x="538.26" y="490.51" width="10.08" height="15.35"/><rect class="cls-20" x="557.98" y="490.51" width="10.08" height="15.35"/><rect class="cls-22" x="577.69" y="490.51" width="10.08" height="15.35"/><rect class="cls-22" x="597.4" y="490.51" width="10.08" height="15.35"/><rect class="cls-22" x="617.12" y="490.51" width="10.08" height="15.35"/><rect class="cls-22" x="468.86" y="512.82" width="10.08" height="15.35"/><rect class="cls-22" x="518.55" y="512.82" width="10.08" height="15.35"/><rect class="cls-22" x="538.26" y="512.82" width="10.08" height="15.35"/><rect class="cls-22" x="557.98" y="512.82" width="10.08" height="15.35"/><rect class="cls-22" x="577.69" y="512.82" width="10.08" height="15.35"/><rect class="cls-22" x="597.4" y="512.82" width="10.08" height="15.35"/><rect class="cls-22" x="617.12" y="512.82" width="10.08" height="15.35"/><rect class="cls-22" x="468.86" y="534.91" width="10.08" height="15.35"/><rect class="cls-22" x="518.55" y="534.91" width="10.08" height="15.35"/><rect class="cls-22" x="538.26" y="534.91" width="10.08" height="15.35"/><rect class="cls-22" x="557.98" y="534.91" width="10.08" height="15.35"/><rect class="cls-22" x="577.69" y="534.91" width="10.08" height="15.35"/><rect class="cls-22" x="597.4" y="534.91" width="10.08" height="15.35"/><rect class="cls-22" x="617.12" y="534.91" width="10.08" height="15.35"/><rect class="cls-16" x="702.31" y="461.95" width="100.93" height="99.65"/><rect class="cls-24" x="720.22" y="484.95" width="10.91" height="13.07"/><rect class="cls-24" x="742.69" y="484.95" width="10.91" height="13.07"/><rect class="cls-24" x="703.97" y="458.98" width="99.26" height="5.94"/><rect class="cls-16" x="954.56" y="449.65" width="85.67" height="146.67"/><rect class="cls-17" x="910.54" y="449.65" width="65.96" height="148.44"/><rect class="cls-16" x="933.55" y="464.69" width="35.76" height="12.03"/><rect class="cls-25" x="996.3" y="464.69" width="10.97" height="12.03"/><rect class="cls-25" x="933.55" y="485.23" width="35.76" height="12.03"/><rect class="cls-24" x="996.3" y="485.23" width="10.97" height="12.03"/><rect class="cls-16" x="933.55" y="504.46" width="35.76" height="12.03"/><rect class="cls-24" x="996.3" y="504.46" width="10.97" height="12.03"/><rect class="cls-16" x="933.55" y="522.78" width="35.76" height="12.03"/><rect class="cls-24" x="996.3" y="522.78" width="10.97" height="12.03"/><rect class="cls-16" x="933.55" y="542.18" width="35.76" height="12.03"/><rect class="cls-24" x="996.3" y="542.18" width="10.97" height="12.03"/><rect class="cls-24" x="976.49" y="445.41" width="63.73" height="7.72"/><rect class="cls-16" x="910.54" y="445.41" width="65.96" height="7.72"/><rect class="cls-16" x="1218.65" y="449.65" width="85.67" height="146.67"/><rect class="cls-17" x="1174.63" y="449.65" width="65.96" height="148.44"/><rect class="cls-16" x="1197.64" y="464.69" width="35.76" height="12.03"/><rect class="cls-24" x="1260.39" y="464.69" width="10.97" height="12.03"/><rect class="cls-16" x="1197.64" y="485.23" width="35.76" height="12.03"/><rect class="cls-24" x="1260.39" y="485.23" width="10.97" height="12.03"/><rect class="cls-25" x="1197.64" y="504.46" width="35.76" height="12.03"/><rect class="cls-24" x="1260.39" y="504.46" width="10.97" height="12.03"/><rect class="cls-16" x="1197.64" y="522.78" width="35.76" height="12.03"/><rect class="cls-25" x="1260.39" y="522.78" width="10.97" height="12.03"/><rect class="cls-16" x="1197.64" y="542.18" width="35.76" height="12.03"/><rect class="cls-24" x="1260.39" y="542.18" width="10.97" height="12.03"/><rect class="cls-24" x="1240.58" y="445.41" width="63.73" height="7.72"/><rect class="cls-16" x="1174.63" y="445.41" width="65.96" height="7.72"/><rect class="cls-16" x="618.42" y="449.65" width="85.67" height="146.67"/><rect class="cls-17" x="574.4" y="449.65" width="65.96" height="148.44"/><rect class="cls-26" x="616.39" y="572.87" width="17.88" height="23.45"/><rect class="cls-25" x="597.41" y="464.61" width="35.76" height="12.03"/><rect class="cls-24" x="660.16" y="464.61" width="10.97" height="12.03"/><rect class="cls-16" x="597.41" y="485.16" width="35.76" height="12.03"/><rect class="cls-25" x="660.16" y="485.16" width="10.97" height="12.03"/><rect class="cls-25" x="597.41" y="504.38" width="35.76" height="12.03"/><rect class="cls-16" x="660.16" y="504.38" width="10.97" height="12.03"/><rect class="cls-16" x="597.41" y="522.71" width="35.76" height="12.03"/><rect class="cls-16" x="660.16" y="522.71" width="10.97" height="12.03"/><rect class="cls-16" x="597.41" y="542.1" width="35.76" height="12.03"/><rect class="cls-25" x="660.16" y="542.1" width="10.97" height="12.03"/><rect class="cls-24" x="640.35" y="445.41" width="63.73" height="7.01"/><rect class="cls-16" x="574.4" y="445.41" width="65.96" height="7.01"/><rect class="cls-16" x="819.85" y="494.13" width="100.93" height="99.65"/><rect class="cls-24" x="837.87" y="512.33" width="10.91" height="22.69"/><rect class="cls-24" x="860.33" y="512.33" width="10.91" height="22.69"/><rect class="cls-25" x="882.8" y="512.33" width="10.91" height="22.69"/><rect class="cls-17" x="778.39" y="494.13" width="43.13" height="99.65"/><rect class="cls-16" x="785.69" y="512.33" width="28.14" height="11.34"/><rect class="cls-16" x="771.04" y="491.16" width="50.48" height="5.94"/><rect class="cls-24" x="821.52" y="491.16" width="99.26" height="5.94"/><rect class="cls-16" x="1073.7" y="494.85" width="100.93" height="99.65"/><rect class="cls-24" x="1091.71" y="513.05" width="10.91" height="22.69"/><rect class="cls-24" x="1114.18" y="513.05" width="10.91" height="22.69"/><rect class="cls-24" x="1136.65" y="513.05" width="10.91" height="22.69"/><rect class="cls-17" x="1032.24" y="494.85" width="43.13" height="99.65"/><rect class="cls-16" x="1039.54" y="513.05" width="28.14" height="11.34"/><rect class="cls-16" x="1032.43" y="491.88" width="42.93" height="5.94"/><rect class="cls-24" x="1075.37" y="491.88" width="99.26" height="5.94"/><rect class="cls-16" x="1378.56" y="552.2" width="110.62" height="42.69"/><rect class="cls-24" x="1333.12" y="548.95" width="156.07" height="6.51"/><rect class="cls-16" x="77.77" y="550.52" width="110.62" height="42.69"/><rect class="cls-17" x="32.33" y="550.52" width="47.27" height="42.69"/><rect class="cls-16" x="40.33" y="570.46" width="30.84" height="12.43"/><rect class="cls-24" x="32.32" y="547.26" width="156.07" height="6.51"/><g id="front-row"><rect class="cls-16" x="461.26" y="481.83" width="49" height="33.17"/><rect class="cls-17" x="388.81" y="481.83" width="82.17" height="33.17"/><rect class="cls-16" x="465.98" y="513.01" width="62.63" height="82.1"/><rect class="cls-17" x="373.38" y="513.01" width="105.02" height="82.1"/><rect class="cls-24" x="468.87" y="478.64" width="41.39" height="6.38"/><rect class="cls-16" x="388.8" y="478.64" width="82.17" height="6.38"/><rect class="cls-17" x="380.69" y="532.58" width="60.45" height="9.21"/><rect class="cls-24" x="486.26" y="527.47" width="7.98" height="9.72"/><rect class="cls-24" x="397.03" y="493.56" width="7.98" height="9.72"/><rect class="cls-24" x="502.27" y="527.73" width="7.98" height="9.72"/><rect class="cls-24" x="486.26" y="544.35" width="7.98" height="9.72"/><rect class="cls-24" x="475.7" y="509.82" width="52.9" height="6.38"/><rect class="cls-16" x="373.37" y="509.82" width="105.02" height="6.38"/></g><rect class="cls-27" x="225.12" y="500.03" width="109.63" height="92.4"/><rect class="cls-25" x="244.69" y="516.9" width="11.86" height="5.25"/><rect class="cls-25" x="269.09" y="516.9" width="11.86" height="5.25"/><rect class="cls-28" x="180.08" y="500.03" width="46.85" height="92.4"/><rect class="cls-25" x="188.02" y="516.9" width="6.88" height="5.25"/><path class="cls-29" d="M366.58,543.2l.41-3.91s-46.45.14-81,.14l-42,17.64,101.67-1.51Z"/><rect class="cls-27" x="286.24" y="543.18" width="78.16" height="49.26"/><path class="cls-30" d="M286.24,543.18l-34.08,13.89-.74,35.37h34.82Z"/><rect class="cls-25" x="277.13" y="556.15" width="5.42" height="11.66"/><rect class="cls-28" x="260.84" y="573.12" width="10.62" height="19.32"/><g id="trees"><path class="cls-31" d="M1200.43,503.1c2-4.69,7.51-4.21,9.85-1.65,6.56,7.17,11.39,58.26,10.88,63.15-.86,8.29-3.52,10.38-7.6,12.26-2.25,1-9.16,1.73-13.82.52-3.51-.91-7.07-5.87-8-11.75C1190.58,557.51,1192.48,522.19,1200.43,503.1Z"/><path class="cls-32" d="M1203.19,596.9c0-.21.52-28.16.52-28.16l-4.66-3.8v-1.21l5.18,3.11.52-26.26h.86l1,9.16,3.46-1.38.17.86-2.59,1.9.17,17.11,4-1.39.18,1.39-4,2.59V596.9S1203.19,597.12,1203.19,596.9Z"/><path class="cls-33" d="M375.84,569.66a15.4,15.4,0,0,1,11.74-5.52,15.94,15.94,0,0,1,15.26,12.45,14.29,14.29,0,0,1,13.94,14.35c0,7.93-63.39,5.38-63.39-1.48,0-5.79,5.6-10.66,13.17-12a8.56,8.56,0,0,1,8.29-7.84A8.1,8.1,0,0,1,375.84,569.66Z"/><path class="cls-33" d="M1194.11,565.65a16.94,16.94,0,0,0-12.47-7.5c-8.15-.72-15.54,4.76-18.21,12.82-8.58-.59-16.14,6.13-16.94,15.15s69.83,12.4,70.53,4.51c.59-6.66-5.13-12.81-13.39-15.12-.1-5.13-3.67-9.42-8.41-9.83A6.86,6.86,0,0,0,1194.11,565.65Z"/><path class="cls-33" d="M1477.18,568.79a16.94,16.94,0,0,0-12.47-7.5c-8.15-.72-15.54,4.76-18.21,12.82-8.58-.59-16.14,6.13-16.94,15.15s70.57,2.41,70.57,2.41c0-7-1.86-15-13.43-13-.1-5.13-3.67-9.41-8.41-9.83A6.89,6.89,0,0,0,1477.18,568.79Z"/><g id="yellow-tree"><path class="cls-34" d="M1183.92,517.63c5.18.47,7.95,12.11,12.29,19.85a37.28,37.28,0,0,1,4.41,19.95c-.68,14.58-5.16,20.16-17.69,19.33-14.35-1-17-11.86-17.49-22s4.08-15.39,5.65-20.59C1173.57,525.91,1180.3,517.3,1183.92,517.63Z"/><path class="cls-35" d="M1182.75,591.15a74.24,74.24,0,0,1,.47-10c.7-7.7,1.4-9.85,1-9.82a24.83,24.83,0,0,1-5.88-4.2,16.79,16.79,0,0,1-4.33-7.85c2,2.24,3.53,5,6.21,6.59a7,7,0,0,0,4.46,1.28s-1.25-7.56-2.7-15.11a49.28,49.28,0,0,1-.69-15.13c.28-.17,3.9,21.25,5.66,20.09,2-1.34,7.08-13.3,7.08-13.3a40.92,40.92,0,0,1-1.91,8.89c-.93,2.51-3.31,5.89-4.81,8.1,0,0,.61,11.08.28,21.68a48,48,0,0,0,.54,8.55,12.59,12.59,0,0,1-2.34.55A24.18,24.18,0,0,1,1182.75,591.15Z"/></g><g id="yellow-tree1"><path class="cls-34" d="M1402.36,511.93c5.18.48,8,12.12,12.29,19.85a37.28,37.28,0,0,1,4.41,20c-.68,14.58-5.16,20.17-17.69,19.33-14.35-.95-17-11.86-17.49-22s4.08-15.39,5.65-20.59C1392,520.22,1398.74,511.6,1402.36,511.93Z"/><path class="cls-35" d="M1401.19,585.46a74.37,74.37,0,0,1,.47-10.05c.7-7.69,1.4-9.85,1-9.82a24.83,24.83,0,0,1-5.88-4.2,16.78,16.78,0,0,1-4.33-7.84c2,2.23,3.53,5,6.21,6.58a7,7,0,0,0,4.46,1.28s-1.25-7.56-2.69-15.11a49,49,0,0,1-.7-15.12c.28-.18,3.9,21.25,5.66,20.08,2-1.34,7.08-13.3,7.08-13.3a40.92,40.92,0,0,1-1.91,8.89c-.93,2.51-3.31,5.89-4.81,8.1,0,0,.62,11.08.28,21.68a48,48,0,0,0,.54,8.55,12.59,12.59,0,0,1-2.34.55A22.84,22.84,0,0,1,1401.19,585.46Z"/></g><g id="yellow-tree2"><path class="cls-34" d="M1370.55,494.28c5.65.52,8.66,13.21,13.39,21.64a40.61,40.61,0,0,1,4.81,21.75c-.74,15.89-5.62,22-19.29,21.07-15.64-1-18.48-12.92-19.06-24s4.44-16.78,6.16-22.45C1359.27,503.31,1366.6,493.92,1370.55,494.28Z"/><path class="cls-35" d="M1369.27,574.43a80.51,80.51,0,0,1,.51-10.95c.76-8.39,1.53-10.74,1.08-10.71a26.19,26.19,0,0,1-6.4-4.57,18.37,18.37,0,0,1-4.73-8.55c2.21,2.43,3.85,5.41,6.77,7.17a7.62,7.62,0,0,0,4.86,1.4s-1.36-8.24-2.93-16.47c-1.68-8.76-.93-16.38-.76-16.49s4.25,23.17,6.17,21.89c2.2-1.45,7.71-14.49,7.71-14.49a44.56,44.56,0,0,1-2.08,9.69c-1,2.74-3.61,6.42-5.24,8.83,0,0,.67,12.08.31,23.63a51.93,51.93,0,0,0,.58,9.32,13.24,13.24,0,0,1-2.55.6A25.36,25.36,0,0,1,1369.27,574.43Z"/></g><g id="yellow-tree3"><path class="cls-34" d="M1318,505.18c4.56.42,7,10.66,10.81,17.46a32.72,32.72,0,0,1,3.88,17.54c-.6,12.82-4.54,17.73-15.56,17-12.62-.84-14.91-10.43-15.37-19.37s3.58-13.53,5-18.11C1308.92,512.47,1314.84,504.89,1318,505.18Z"/><path class="cls-35" d="M1317,569.84a65.61,65.61,0,0,1,.4-8.84c.62-6.76,1.24-8.66.87-8.63a21.69,21.69,0,0,1-5.16-3.7,14.76,14.76,0,0,1-3.81-6.89c1.78,2,3.1,4.36,5.46,5.79a6.14,6.14,0,0,0,3.92,1.12s-1.1-6.64-2.37-13.29a43.21,43.21,0,0,1-.61-13.29c.25-.16,3.43,18.68,5,17.66,1.78-1.18,6.22-11.7,6.22-11.7a36.24,36.24,0,0,1-1.68,7.82A39.77,39.77,0,0,1,1321,543s.55,9.75.25,19.06a42.83,42.83,0,0,0,.47,7.52,11.26,11.26,0,0,1-2,.49A20.44,20.44,0,0,1,1317,569.84Z"/></g><path class="cls-33" d="M166.6,562.9c-3-3.71-5.76-5.61-10.77-5.55-7.91.11-12.08,3.89-15.25,10.54-3.53-.06-10.4-.12-15,3.11-6.26,4.39-9.62,13-6.29,19,5.29,9.45,52.56,6.31,70.11,2a5.27,5.27,0,0,0,3.93-5.82c-1.4-6-8.91-12.93-17-14.67a9.18,9.18,0,0,0-8.63-8.65A9.67,9.67,0,0,0,166.6,562.9Z"/><path class="cls-33" d="M46.89,567.66c-2.87-3.48-5.55-5.27-10.38-5.21-7.61.09-11.63,3.64-14.68,9.87-3.4-.06-9.76.24-14.46,2.9C-1.25,580.11.07,593,.07,593s51.89,6,68.78,2a4.92,4.92,0,0,0,3.78-5.45c-1.35-5.6-8.58-12.13-16.38-13.77a8.73,8.73,0,0,0-8.32-8.11A7.2,7.2,0,0,0,46.89,567.66Z"/><g id="yellow-tree4"><path class="cls-34" d="M167.45,519.85c5.18.48,8,12.12,12.29,19.86a37.25,37.25,0,0,1,4.41,19.95c-.68,14.58-5.16,20.16-17.7,19.33-14.34-1-16.95-11.86-17.48-22s4.08-15.39,5.65-20.59C157.1,528.14,163.83,519.52,167.45,519.85Z"/><path class="cls-35" d="M166.28,593.38a74.24,74.24,0,0,1,.47-10c.7-7.7,1.4-9.86,1-9.83a24.54,24.54,0,0,1-5.87-4.2,16.74,16.74,0,0,1-4.33-7.84c2,2.23,3.53,5,6.2,6.58a7.06,7.06,0,0,0,4.47,1.29s-1.25-7.56-2.7-15.12a49.22,49.22,0,0,1-.69-15.12c.28-.17,3.9,21.25,5.66,20.08,2-1.33,7.08-13.3,7.08-13.3a41.63,41.63,0,0,1-1.91,8.9c-.93,2.51-3.31,5.88-4.81,8.1,0,0,.61,11.08.28,21.67a47.89,47.89,0,0,0,.54,8.55,12.59,12.59,0,0,1-2.34.55A22.84,22.84,0,0,1,166.28,593.38Z"/></g><path class="cls-31" d="M759,478.1c2.51-5.19,9.64-4.66,12.65-1.82,8.43,8,14.63,64.57,14,70-1.11,9.19-4.52,11.51-9.76,13.6-2.89,1.15-11.76,1.91-17.76.57-4.51-1-9.08-6.51-10.2-13C746.38,538.41,748.82,499.27,759,478.1Z"/><path class="cls-32" d="M762.57,582.07c0-.24.67-31.21.67-31.21l-6-4.21v-1.34l6.65,3.44.67-29.1h1.11L767,529.8l4.44-1.53.22,1-3.33,2.11.22,18.95,5.11-1.53.22,1.53-5.1,2.88v28.91S762.57,582.3,762.57,582.07Z"/><g id="yellow-tree5"><path class="cls-34" d="M737.81,494.21c6.66.53,10.22,13.43,15.78,22a36.72,36.72,0,0,1,5.67,22.11c-.87,16.16-6.62,22.34-22.72,21.42-18.43-1-21.78-13.14-22.46-24.41s5.23-17.06,7.25-22.82C724.52,503.39,733.16,493.84,737.81,494.21Z"/><path class="cls-35" d="M736.32,575.69a69.08,69.08,0,0,1,.59-11.13c.9-8.53,1.8-10.92,1.27-10.89a31.65,31.65,0,0,1-7.54-4.65,17.9,17.9,0,0,1-5.57-8.69c2.6,2.48,4.53,5.5,8,7.3a10.1,10.1,0,0,0,5.73,1.42s-1.6-8.38-3.45-16.75c-2-8.9-1.1-16.66-.9-16.76.36-.19,5,23.55,7.28,22.26,2.59-1.49,9.08-14.74,9.08-14.74a40.15,40.15,0,0,1-2.45,9.85c-1.19,2.78-4.25,6.53-6.18,9,0,0,.79,12.28.37,24a45.42,45.42,0,0,0,.69,9.48,19,19,0,0,1-3,.61A34,34,0,0,1,736.32,575.69Z"/></g><g id="yellow-tree6"><path class="cls-34" d="M841.78,507.87c6.65.53,10.21,13.43,15.78,22A36.81,36.81,0,0,1,863.23,552c-.88,16.16-6.63,22.35-22.73,21.42-18.43-1-21.77-13.14-22.45-24.41s5.23-17.06,7.24-22.82C828.49,517.05,837.12,507.5,841.78,507.87Z"/><path class="cls-32" d="M840.28,589.35a70.74,70.74,0,0,1,.59-11.13c.9-8.52,1.81-10.92,1.27-10.88a32.33,32.33,0,0,1-7.54-4.66A17.8,17.8,0,0,1,829,554c2.59,2.48,4.53,5.5,8,7.3a10,10,0,0,0,5.72,1.42s-1.6-8.38-3.45-16.75c-2-8.9-1.09-16.65-.9-16.76.36-.19,5,23.55,7.28,22.26,2.59-1.49,9.08-14.74,9.08-14.74a40,40,0,0,1-2.45,9.85c-1.18,2.78-4.25,6.53-6.18,9,0,0,.8,12.28.37,24a46.24,46.24,0,0,0,.69,9.48,19,19,0,0,1-3,.61A34.25,34.25,0,0,1,840.28,589.35Z"/></g><path class="cls-31" d="M435.32,498c1.95-4.7,7.5-4.22,9.84-1.65,6.57,7.17,11.4,58.26,10.89,63.15-.87,8.29-3.52,10.38-7.61,12.26-2.24,1-9.15,1.73-13.82.52-3.51-.91-7.07-5.87-7.94-11.75C425.47,552.45,427.37,517.13,435.32,498Z"/><path class="cls-32" d="M438.08,591.84c0-.21.52-28.16.52-28.16l-4.67-3.8v-1.21l5.19,3.11.51-26.26h.87l1,9.16L445,543.3l.17.86-2.59,1.9.17,17.1,4-1.38.17,1.38-4,2.6v26.08S438.07,592.06,438.08,591.84Z"/><g id="yellow-tree7"><path class="cls-34" d="M421,517.75c5.18.47,7.95,12.11,12.28,19.85a37.18,37.18,0,0,1,4.42,19.95c-.68,14.58-5.16,20.16-17.7,19.33-14.35-1-17-11.86-17.48-22s4.07-15.39,5.64-20.59C410.69,526,417.41,517.42,421,517.75Z"/><path class="cls-32" d="M419.87,591.27a74.89,74.89,0,0,1,.46-10c.7-7.7,1.41-9.85,1-9.82a24.89,24.89,0,0,1-5.87-4.2,16.79,16.79,0,0,1-4.33-7.85c2,2.24,3.52,5,6.2,6.59a7,7,0,0,0,4.46,1.28s-1.24-7.56-2.69-15.11a49.49,49.49,0,0,1-.7-15.13c.29-.17,3.91,21.26,5.67,20.09,2-1.34,7.07-13.3,7.07-13.3a41.27,41.27,0,0,1-1.9,8.89c-.93,2.51-3.31,5.89-4.82,8.1,0,0,.62,11.08.29,21.68a48.59,48.59,0,0,0,.53,8.55,12.42,12.42,0,0,1-2.33.55A24,24,0,0,1,419.87,591.27Z"/></g></g><path class="cls-30" d="M1155.39,577.14H1066v21.44h89.39Zm21.08,5.17h-15.35V598h15.35ZM889.2,577.14H833v18.29H889.2Zm-282-7.95H651v24.59H449.47V569.19H458v-7.77h8v-7h13.94v7h24.16V546.83H607.23Zm424.57-4.51h-16.56v7.16h16.56Z"/><rect class="cls-28" x="616.97" y="542.78" width="136.38" height="49.35"/><rect class="cls-27" x="661.48" y="558.62" width="81.05" height="33.5"/><rect class="cls-36" x="665.92" y="562.16" width="71.06" height="29.96"/><path class="cls-29" d="M737,589.18H665.92v1.12H737Zm0-2.8H665.92v1.12H737Zm0-2.8H665.92v1.12H737Zm0-2.8H665.92v1.12H737Zm0-2.8H665.92v1.12H737Zm0-2.8H665.92v1.12H737Zm0-2.8H665.92v1.11H737Zm0-2.8H665.92v1.12H737Zm0-2.8H665.92v1.12H737Zm0-2.8H665.92v1.12H737Z"/><rect class="cls-25" x="624.34" y="558.62" width="26.64" height="6.06"/><rect class="cls-27" x="616.97" y="540.17" width="136.38" height="5.2"/><rect class="cls-28" x="1035.02" y="542.95" width="86.33" height="52.49"/><rect class="cls-27" x="1063.19" y="569.19" width="51.3" height="26.25"/><rect class="cls-36" x="1066" y="571.96" width="44.98" height="23.47"/><path class="cls-30" d="M1111,593.14h-45V594h45Zm0-2.2h-45v.87h45Zm0-2.19h-45v.87h45Zm0-2.2h-45v.88h45Zm0-2.19h-45v.87h45Zm0-2.2h-45V583h45Zm0-2.19h-45v.87h45Zm0-2.19h-45v.87h45Zm0-2.2h-45v.88h45Zm0-2.19h-45v.87h45Z"/><rect class="cls-27" x="1035.02" y="540.18" width="86.33" height="5.53"/><rect class="cls-28" x="912.63" y="544.52" width="78.16" height="49.26"/><rect class="cls-25" x="977.9" y="557.49" width="5.42" height="11.66"/><path class="cls-29" d="M912.63,544.52,878.55,558.4l-.74,35.38h34.82Z"/><rect class="cls-25" x="901.96" y="580.85" width="5.94" height="5.83"/><rect class="cls-28" x="988.3" y="569.15" width="53.86" height="24.63"/><rect class="cls-28" x="749.95" y="554.41" width="83.01" height="45.46"/><rect class="cls-25" x="817.99" y="565.08" width="6.7" height="5.71"/><rect class="cls-25" x="817.99" y="577.15" width="6.7" height="5.71"/><rect class="cls-27" x="749.95" y="554.41" width="83.01" height="5.53"/><rect class="cls-27" x="1235.68" y="554.41" width="152.93" height="41.02"/><rect class="cls-27" x="1259.75" y="545.38" width="52.4" height="13.24"/><rect class="cls-27" x="1381.38" y="579.99" width="52.4" height="13.24"/><rect class="cls-25" x="1355.32" y="563.32" width="26.06" height="5.87"/><g id="Bus"><g id="Path_288" data-name="Path 288"><path class="cls-27" d="M103.54,572.52l1-1.4c0-.11.11-.2.23-.26a1.19,1.19,0,0,1,.45-.08h18.42a1.25,1.25,0,0,1,.56.08c.23,0,.35.14.35.26l.91,1.4Z"/></g><g id="Path_282" data-name="Path 282"><path class="cls-28" d="M95.33,572.12l57.42-.1c3.38,0,3.63-.29,3.63,2.59v9.9c0,1.92.12,3.76.12,4.83,0,.29.05.34-.12.48s-.55.07-.55.07L97,589.82H91.63c-.42,0-.39,0-.58-.2a.7.7,0,0,1-.19-.49v-6.87C90.86,579.39,92,572.12,95.33,572.12Z"/></g><path class="cls-29" d="M95.12,574.9l1-1.78,60.24-.09,0,7.59c-17.07,0-32.26.26-49.33.26-4.08,0-11.09,2-15.51,2.68Z"/><path class="cls-29" d="M100.76,589.81a5.65,5.65,0,0,1,0-.59c0-2.51.77-4.59,3.9-4.54s3.89,2,3.89,4.54a3.81,3.81,0,0,1,0,.59Z"/><path class="cls-29" d="M133.38,589.87a4.26,4.26,0,0,1,0-.61c0-2.57.92-4.71,4.69-4.66s4.69,2.09,4.69,4.66c0,.2,0,.4,0,.61Z"/><g id="Ellipse_170" data-name="Ellipse 170"><ellipse class="cls-37" cx="138.03" cy="588.69" rx="3.98" ry="2.69"/></g><g id="Ellipse_171" data-name="Ellipse 171"><ellipse class="cls-37" cx="104.62" cy="588.69" rx="2.84" ry="2.69"/></g><g id="Path_285" data-name="Path 285"><path class="cls-36" d="M91.57,583.32l13.75-3.59,48.76-.15v-6.51l-57.17,0a4.63,4.63,0,0,0-2,.26c-1.14.58-2.05,2.77-2.5,4.38A43.42,43.42,0,0,0,91.57,583.32Z"/></g><g id="Rectangle_872" data-name="Rectangle 872"><path class="cls-38" d="M143.62,574.38a.61.61,0,0,1,.61-.61h8.15a.61.61,0,0,1,.61.61v3.85a.62.62,0,0,1-.61.61h-8.15a.61.61,0,0,1-.61-.61Z"/></g><g id="Rectangle_873" data-name="Rectangle 873"><path class="cls-38" d="M133,574.32a.56.56,0,0,1,.56-.55h7.8a.56.56,0,0,1,.56.55v4a.56.56,0,0,1-.56.56h-7.8a.56.56,0,0,1-.56-.56Z"/></g><g id="Rectangle_874" data-name="Rectangle 874"><path class="cls-38" d="M126.3,574.37a.61.61,0,0,1,.61-.6h3.83a.6.6,0,0,1,.6.6v3.86a.6.6,0,0,1-.6.61h-3.83a.61.61,0,0,1-.61-.61Z"/></g><g id="Rectangle_875" data-name="Rectangle 875"><path class="cls-38" d="M115.08,574.22a.46.46,0,0,1,.46-.45h8.63a.46.46,0,0,1,.46.45v4.16a.47.47,0,0,1-.46.46h-8.63a.47.47,0,0,1-.46-.46Z"/></g><g id="Rectangle_876" data-name="Rectangle 876"><path class="cls-38" d="M107.31,574.38a.61.61,0,0,1,.61-.61h4.88a.6.6,0,0,1,.6.61v3.85a.61.61,0,0,1-.6.61h-4.88a.61.61,0,0,1-.61-.61Z"/></g><g id="Path_287" data-name="Path 287"><path class="cls-20" d="M99.44,574.22c0-.21.24-.36.63-.36,1.53,0,2.67,0,4.15,0,.26,0,.41.12.41.37,0,1.69,0,3.15,0,4.81l-5.21,1.32S99.33,575.3,99.44,574.22Z"/></g><g id="Path_286" data-name="Path 286"><path class="cls-20" d="M96,573.85c.4,0,1.45,0,2,0,.26,0,.43.33.43.48l.06,6.25-5.73,1.49a21.78,21.78,0,0,1,.77-4.82,8.41,8.41,0,0,1,1.34-2.88A1.62,1.62,0,0,1,96,573.85Z"/></g></g></g><g id="front-line"><rect class="cls-39" x="0.13" y="589.94" width="1500" height="18.8"/></g><path class="cls-40" d="M440.14,585.56a1.41,1.41,0,0,0-1.41-1.42H411.88a1.41,1.41,0,0,0-1.41,1.42v2.83a1.42,1.42,0,0,0,1.41,1.42h26.85a1.42,1.42,0,0,0,1.41-1.42Z"/><ellipse class="cls-41" cx="414.95" cy="589.81" rx="2.32" ry="2.19"/><ellipse class="cls-41" cx="436.41" cy="589.81" rx="2.32" ry="2.19"/><path class="cls-40" d="M439.29,585.07H415l9.28-6.15h12.63Z"/><ellipse class="cls-41" cx="1230.33" cy="576.43" rx="1.97" ry="2.06"/><path class="cls-40" d="M1228.64,579.42c0-.42,0-.64.47-.64l2.45,0c.42,0,.4.2.4.62l-.31,4.94c0,.42-.53.76-1,.76h-.4c-.42,0-1.3-.34-1.3-.76Z"/><path class="cls-40" d="M1229,583.29a.75.75,0,0,1,.75-.75H1231a.75.75,0,0,1,.75.75V585a.75.75,0,0,1-.75.75h-1.27a.75.75,0,0,1-.75-.75Z"/><path class="cls-40" d="M1231.1,579.07a.69.69,0,0,1,1,0l2,1.93a.7.7,0,1,1-1,1l-2-1.94A.69.69,0,0,1,1231.1,579.07Z"/><path class="cls-40" d="M1233.61,581.2a.71.71,0,0,1,.75.64l.22,2.78a.72.72,0,0,1-.65.75.7.7,0,0,1-.75-.64L1233,582A.7.7,0,0,1,1233.61,581.2Z"/><path class="cls-40" d="M1230.91,584.73a.7.7,0,0,1,.88.44l.88,2.65a.7.7,0,0,1-1.33.44l-.88-2.65A.71.71,0,0,1,1230.91,584.73Z"/><path class="cls-40" d="M1229.91,584.76a.71.71,0,0,1,.2,1l-1.55,2.31a.7.7,0,1,1-1.16-.77l1.54-2.32A.7.7,0,0,1,1229.91,584.76Z"/><path class="cls-40" d="M1227.91,587.3a.77.77,0,0,1,.61.83l-.3,2.8a.62.62,0,0,1-.76.54.79.79,0,0,1-.61-.84l.3-2.79A.62.62,0,0,1,1227.91,587.3Z"/><path class="cls-40" d="M1231.64,587.77a.69.69,0,0,1,1,.09l1.77,2.15a.7.7,0,0,1-.1,1,.71.71,0,0,1-1-.09l-1.77-2.15A.69.69,0,0,1,1231.64,587.77Z"/><path class="cls-40" d="M1229.27,578.92a.69.69,0,0,1,.36.92l-1.14,2.54a.7.7,0,1,1-1.27-.57l1.13-2.55A.69.69,0,0,1,1229.27,578.92Z"/><path class="cls-40" d="M1228.18,582a.7.7,0,0,1-.11,1l-2.2,1.71a.7.7,0,0,1-1-.12.71.71,0,0,1,.12-1l2.2-1.71A.69.69,0,0,1,1228.18,582Z"/><path class="cls-40" d="M1218.56,588.69a.91.91,0,0,1,.91-.91h1.7a.9.9,0,0,1,.9.91v.16a.9.9,0,0,1-.9.91h-1.7a.91.91,0,0,1-.91-.91Z"/><ellipse class="cls-41" cx="1218.62" cy="587.42" rx="0.93" ry="0.86"/><path class="cls-40" d="M1217.35,588a.44.44,0,0,1,.33-.53l.35-.08a.44.44,0,0,1,.52.33.43.43,0,0,1-.33.52l-.35.08A.43.43,0,0,1,1217.35,588Z"/><path class="cls-40" d="M1219.44,586.23l-.63.49.65.38Z"/><path class="cls-40" d="M1218.3,586.06l-.23.77.75-.07Z"/><path class="cls-40" d="M1219.11,590.52a.23.23,0,0,1-.15-.31l.16-.8a.54.54,0,0,1,.5-.2.36.36,0,0,1,.22.38l-.42.79A.23.23,0,0,1,1219.11,590.52Z"/><path class="cls-40" d="M1218.33,590.4c-.11-.07-.14-.07,0-.33l.36-.85c.07-.11.39-.05.5,0a.38.38,0,0,1,.12.43l-.6.66A.24.24,0,0,1,1218.33,590.4Z"/><path class="cls-40" d="M1221.81,588.18a3.26,3.26,0,0,0,.57-.46,2.89,2.89,0,0,0,.3-.62l.18-.41a.7.7,0,0,1,.14.47l-.21.28.22,0-.3.38h.28a4.17,4.17,0,0,1-.59.44,2.47,2.47,0,0,1-.52.13Z"/><rect class="cls-41" x="1219" y="586.12" width="6.83" height="0.35" transform="translate(-130.02 680.97) rotate(-29.63)"/><path class="cls-40" d="M1219,590.28a.21.21,0,0,1,.25-.15l.87.23a.21.21,0,0,1-.1.4l-.88-.23A.2.2,0,0,1,1219,590.28Z"/><path class="cls-40" d="M1218.54,590.07a.21.21,0,0,1,.11.28l-.38.81a.21.21,0,0,1-.28.1.2.2,0,0,1-.1-.27l.38-.82A.2.2,0,0,1,1218.54,590.07Z"/><path class="cls-40" d="M1220.93,590.35a.25.25,0,0,1-.12-.33l.25-.77a.54.54,0,0,1,.52-.16.39.39,0,0,1,.18.4l-.5.74A.24.24,0,0,1,1220.93,590.35Z"/><path class="cls-40" d="M1222.32,590.23a.24.24,0,0,1-.35,0l-.63-.51a.55.55,0,0,1,.05-.54.38.38,0,0,1,.44,0l.51.74A.24.24,0,0,1,1222.32,590.23Z"/><path class="cls-40" d="M1221.07,590.05a.24.24,0,0,1,.14.32l-.29.77a.25.25,0,0,1-.46-.18l.29-.77A.24.24,0,0,1,1221.07,590.05Z"/><path class="cls-40" d="M1222.18,589.92a.24.24,0,0,1,.32.14l.28.78a.24.24,0,0,1-.14.31.25.25,0,0,1-.32-.14l-.29-.78A.25.25,0,0,1,1222.18,589.92Z"/><g id="Plane"><g id="Path_391" data-name="Path 391"><path class="cls-42" d="M1215.83,162.45c-2.43,1.14-6.68,1.1-6.68,1.1h-52.33a47.62,47.62,0,0,1-13.6-4.1c-3.16-1.49-5.34-3.41-8.26-5.63l-4.13-16.53h8.38L1150.63,149h49a33.1,33.1,0,0,1,10.32,1.52c2.31.85,2.07,2.11,3.28,3,1,.67,3,.77,4.37,2.33C1220.2,158.85,1218.26,161.36,1215.83,162.45Z"/></g><g id="Path_393" data-name="Path 393"><path class="cls-43" d="M1143.83,142.18c-.13-.07-.25-.12-.25-.17a4.07,4.07,0,0,1-.48-.12h-9.84l-5.7,3,4.49.31Z"/></g><g id="Path_394" data-name="Path 394"><path class="cls-42" d="M1166.29,162.66s9.59-.6,14.21-.45,4,.62,4.25,1,.36.53.36,2.21-.49,2.17-.49,2.17-.12.87-4.73.87-13.6-.87-13.6-.87a3.86,3.86,0,0,1-.61-2.55A2.62,2.62,0,0,1,1166.29,162.66Z"/></g><g id="Ellipse_187" data-name="Ellipse 187"><ellipse class="cls-44" cx="1182.05" cy="165.04" rx="1.2" ry="1.67"/></g><g id="Path_392" data-name="Path 392"><path class="cls-43" d="M1187.42,160.26a1.16,1.16,0,0,0-.49-.38,1.65,1.65,0,0,0-.61-.28h-14.81l-8.5,6.81,6.68.69Z"/></g></g></g></g></svg>