<svg xmlns="http://www.w3.org/2000/svg" viewBox="0 0 1500 608.74"><defs><style>.cls-1,.cls-9{fill:#f8e8d1;}.cls-1,.cls-10,.cls-11,.cls-13,.cls-14,.cls-15,.cls-19,.cls-2,.cls-20,.cls-21,.cls-22,.cls-25,.cls-28,.cls-30,.cls-31,.cls-33,.cls-34,.cls-36,.cls-38,.cls-4,.cls-40,.cls-41,.cls-44,.cls-45,.cls-46,.cls-5,.cls-52,.cls-56,.cls-6,.cls-7{fill-rule:evenodd;}.cls-2{fill:#fbefde;}.cls-3{fill:#f9e0b0;}.cls-4{fill:#958e46;}.cls-5{fill:#afa650;}.cls-18,.cls-6{fill:#bb5823;}.cls-7{fill:#e67d44;}.cls-20,.cls-8{fill:#b5925a;}.cls-10,.cls-43{fill:#dc7244;}.cls-11,.cls-50{fill:#906152;}.cls-12,.cls-22{fill:#efdbab;}.cls-13{fill:#d66523;}.cls-14,.cls-29{fill:#f5e7c6;}.cls-15,.cls-16{fill:#df7639;}.cls-17,.cls-30{fill:#f3e6c4;}.cls-19{fill:#f8965e;}.cls-21{fill:#837c3d;}.cls-23{fill:#6b7a3b;}.cls-24,.cls-36{fill:#b8be8d;}.cls-25,.cls-35{fill:#9ba16c;}.cls-26{fill:#6f7259;}.cls-27{fill:#666948;}.cls-28{fill:#7a7439;}.cls-31{fill:#f1dec0;}.cls-32{fill:#eccb9b;}.cls-33,.cls-48{fill:#5f5c2e;}.cls-34,.cls-53{fill:#a24d1f;}.cls-37,.cls-45{fill:#caae9c;}.cls-38{fill:#b1917c;}.cls-39,.cls-46{fill:#704e45;}.cls-40,.cls-54{fill:#483328;}.cls-41{fill:#847e3d;}.cls-42,.cls-44{fill:#b89a86;}.cls-47{fill:#909565;}.cls-49{fill:#533b35;}.cls-51{fill:#553c36;}.cls-52{fill:#4d392a;}.cls-55{fill:#162819;}.cls-56,.cls-57{fill:#aedfe5;}.cls-58{fill:#4f382b;}</style></defs><g id="Layer_2" data-name="Layer 2"><g id="Layer_1-2" data-name="Layer 1"><g id="clouds05"><g id="big-cloud"><path class="cls-1" d="M1198.43,99.72C1180,42.3,1117.44,0,1043.25,0c-61.07,0-96,23.23-123.21,65.42C914,63.23,895.26,61,871.37,68.94c-31.63,10.59-50.48,28.79-50.48,66,0,11.33-.12,14,4.38,23.42C722,119,647.13,166.24,620.06,201.84,607.78,218,607.23,240.75,609,244.1,570.08,211,495.63,226,504.18,284.58c.47,3.13,14.12,13.4,10.66,14.17-13.49,3-150.24,5.4-290.65,21.15-33.38,3.74-73.73,4.5-100.68,34.74-14.3,16-15.11,50.22,3.32,68.74,7.16,7.19,36.45,10.77,47.89,10.67,211-1.84,1172.89-3.92,1206.9-7.29,77.59-7.71,64.3-100,45-121.49-14.62-16.26-30.71-35.74-86.37-37.49-6-.17-11.86,1.24-7.54-1.54,21.94-14.14,2.86-80.6-63.2-63.76-.78.2,0-.7,0-.7C1269.24,153.88,1239.4,113.36,1198.43,99.72Z"/></g><g id="big-cloud1"><path class="cls-2" d="M1164.86,122.15c-12.17-31.91-53.34-55.42-102.19-55.42-40.22,0-63.24,12.91-81.14,36.36-4-1.22-16.32-2.48-32.06,2-20.83,5.88-33.24,16-33.24,36.7,0,6.3-.08,7.8,2.89,13-68-21.92-117.32,4.37-135.15,24.15-8.09,9-8.45,21.63-7.29,23.48-25.62-18.38-74.65-10-69,22.5.31,1.74,9.3,7.45,7,7.88-8.88,1.65-32.86,3.89-125.63,9.68-33.35,2.08-63.61,8.89-79.23,22-10,8.4-18.34,19.31-6.2,29.61,4.71,4,29,8.19,36.59,8.13,139-1,722.89,3.61,745.3,1.74,51.09-4.29,42.33-55.6,29.63-67.52-9.63-9-20.22-19.87-56.88-20.84-3.92-.1-7.81.69-5-.86,14.45-7.86,1.88-44.8-41.62-35.44-.51.11,0-.38,0-.38C1211.49,152.25,1191.85,129.73,1164.86,122.15Z"/></g><ellipse class="cls-3" cx="1021.89" cy="215.26" rx="139.42" ry="139.69"/></g><g id="_05" data-name=" 05"><path class="cls-4" d="M1188.77,279.93c71.22.57,136.36,53.49,186.73,103.85,38.75,38.73,93.94,126.75,116.92,173.11,7.79,15.7,7.58,34.17,7.58,34.17L18.28,590.32S137,439.62,419.56,376.2C723.86,307.89,1029.45,278.67,1188.77,279.93Z"/><g id="yellow-tree"><path class="cls-5" d="M402.5,279.07c9.11.55,14,13.84,21.6,22.68a31.18,31.18,0,0,1,7.76,22.78c-1.19,16.66-9.06,23-31.1,22.08-25.23-1.09-29.8-13.54-30.74-25.16s7.16-17.58,9.92-23.52C384.31,288.54,396.14,278.69,402.5,279.07Z"/></g><g id="yellow-tree1"><path class="cls-5" d="M361.73,298.15c9.11.54,14,13.83,21.6,22.67a31.22,31.22,0,0,1,7.76,22.78c-1.2,16.66-9.07,23-31.11,22.08-25.22-1.09-29.8-13.54-30.73-25.16s7.16-17.58,9.92-23.51C343.54,307.61,355.36,297.77,361.73,298.15Z"/></g><path class="cls-1" d="M482.83,319l-33.11-24.91-33.78,25v96.51h66.89Z"/><polygon class="cls-6" points="449.72 268.57 449.72 294.38 482.83 318.99 482.83 293.18 449.72 268.57"/><polygon class="cls-7" points="449.71 268.57 449.71 294.38 415.79 319.59 415.79 293.78 449.71 268.57"/><rect class="cls-8" x="440.86" y="350.38" width="17.18" height="15.9"/><rect class="cls-8" x="440.86" y="325.86" width="17.18" height="15.9"/><rect class="cls-8" x="440.86" y="374.9" width="17.18" height="15.9"/><path class="cls-1" d="M549.88,318.24l-33.12-24.92-33.78,25v96.51h66.9Z"/><polygon class="cls-6" points="516.76 267.81 516.76 293.62 549.88 318.23 549.88 292.42 516.76 267.81"/><polygon class="cls-7" points="516.76 267.81 516.76 293.62 482.83 318.83 482.83 293.02 516.76 267.81"/><rect class="cls-8" x="507.9" y="349.62" width="17.18" height="15.9"/><rect class="cls-8" x="507.9" y="325.1" width="17.18" height="15.9"/><rect class="cls-8" x="507.9" y="374.15" width="17.18" height="15.9"/><rect class="cls-9" x="818.21" y="246.96" width="88.33" height="76.73"/><path class="cls-6" d="M959.44,250.7h7.2l-29.15-36-7,4.18Z"/><path class="cls-1" d="M933,216.12,906.54,247v76.73h52.91V246.27Z"/><polygon class="cls-10" points="937.49 214.65 842.69 214.65 811.74 250.7 906.54 250.7 937.49 214.65"/><rect class="cls-8" x="880.5" y="266.78" width="9.77" height="13.77"/><rect class="cls-8" x="857.5" y="266.78" width="9.77" height="13.77"/><rect class="cls-8" x="834.49" y="266.78" width="9.77" height="13.77"/><rect class="cls-8" x="880.5" y="290.11" width="9.77" height="13.77"/><rect class="cls-8" x="857.5" y="290.11" width="9.77" height="13.77"/><rect class="cls-8" x="834.49" y="290.11" width="9.77" height="13.77"/><rect class="cls-8" x="929.26" y="245.05" width="8.34" height="13.77"/><rect class="cls-8" x="929.26" y="266.91" width="8.34" height="13.77"/><rect class="cls-8" x="925.09" y="290.54" width="16.67" height="33.22"/><g id="yellow-tree2"><path class="cls-5" d="M1072.21,209.5c8,.73,12.3,18.73,19,30.69A57.6,57.6,0,0,1,1098,271c-1,22.54-8,31.17-27.36,29.89-22.19-1.48-26.21-18.34-27-34.07s6.3-23.79,8.73-31.83C1056.21,222.31,1066.61,209,1072.21,209.5Z"/><path class="cls-11" d="M1070.41,323.18s-.3-4.35.72-15.53c1.08-11.9,2.17-15.23,1.52-15.19a38,38,0,0,1-9.07-6.49,26,26,0,0,1-6.71-12.13c3.13,3.46,5.46,7.68,9.6,10.18a10.82,10.82,0,0,0,6.9,2s-1.93-11.69-4.16-23.37c-2.38-12.42-1.32-23.24-1.08-23.38.43-.27,6,32.85,8.76,31.05,3.12-2.07,10.93-20.57,10.93-20.57a63.32,63.32,0,0,1-2.94,13.75c-1.44,3.88-5.12,9.11-7.44,12.53,0,0,1,17.13.44,33.52a74.49,74.49,0,0,0,.82,13.21,19.7,19.7,0,0,1-3.61.86A35.82,35.82,0,0,1,1070.41,323.18Z"/></g><g id="yellow-tree3"><path class="cls-5" d="M265.32,322.2c7.36.67,11.3,17.21,17.46,28.21a52.91,52.91,0,0,1,6.27,28.34c-1,20.72-7.33,28.65-25.14,27.47-20.39-1.35-24.09-16.85-24.85-31.3s5.79-21.87,8-29.26C250.62,334,260.17,321.72,265.32,322.2Z"/><path class="cls-11" d="M263.66,426.67s-.27-4,.66-14.27c1-10.93,2-14,1.41-14a34.29,34.29,0,0,1-8.35-6,23.88,23.88,0,0,1-6.16-11.14c2.88,3.18,5,7.05,8.82,9.36a10,10,0,0,0,6.34,1.82s-1.77-10.74-3.82-21.48c-2.19-11.41-1.21-21.35-1-21.49.39-.24,5.54,30.2,8.05,28.54,2.87-1.9,10.05-18.9,10.05-18.9A58.38,58.38,0,0,1,277,371.82c-1.32,3.57-4.71,8.36-6.84,11.51,0,0,.88,15.75.4,30.8a67.86,67.86,0,0,0,.77,12.15,18.21,18.21,0,0,1-3.33.78A32.12,32.12,0,0,1,263.66,426.67Z"/></g><path class="cls-6" d="M564,265.64l0-6.07s50.6.22,88.21.22L696,287.19l-110.63-2.34Z"/><rect class="cls-9" x="563.98" y="263.4" width="88.21" height="84.4"/><rect class="cls-8" x="620.01" y="278.81" width="10.52" height="9.84"/><rect class="cls-8" x="598.35" y="278.81" width="10.52" height="9.84"/><rect class="cls-8" x="576.7" y="278.81" width="10.52" height="9.84"/><path class="cls-1" d="M652.19,263.4l38.47,23.79.83,60.61h-39.3Z"/><rect class="cls-12" x="728.99" y="283.36" width="73.67" height="62.93"/><rect class="cls-8" x="748.21" y="302.36" width="12.85" height="17.39"/><rect class="cls-8" x="766.17" y="302.36" width="28.54" height="17.39"/><path class="cls-13" d="M695.93,248.81l25.54,13.82,1.44,24.18H662Z"/><path class="cls-14" d="M729,283.36l-30.17-31.84-29.56,31.84v62.93H729Z"/><rect class="cls-8" x="688.89" y="302.36" width="20.98" height="43.93"/><rect class="cls-8" x="694.9" y="273.65" width="8.97" height="9.7"/><polygon class="cls-15" points="695.92 248.81 771.47 248.81 807.51 286.81 731.97 286.81 695.92 248.81"/><rect class="cls-16" x="749.6" y="240.17" width="13.57" height="24.19"/><path class="cls-13" d="M749.6,240.17h-5.92l-.25,18.51,6.17,5.67Z"/><path class="cls-4" d="M751.77,362.53c-.83-6.53-9.42-11.94-17.47-11.94a18.38,18.38,0,0,0-2.89.22,1.7,1.7,0,0,0,0-.22c0-9.39-6.4-17-14.28-17-.32,0-.63,0-.94,0a31.1,31.1,0,0,0-26.7-15.5c-14.78,0-27.18,10.63-30.47,24.91-7.48,1.55-14.89,12.52-14,19.5Z"/><path class="cls-4" d="M1355.57,332c-1-8.34-11.31-15.24-21-15.24a21.93,21.93,0,0,0-3.46.28v-.28c0-12-7.68-21.7-17.14-21.7a10.56,10.56,0,0,0-1.13.05c-6.61-11.86-18.51-19.78-32.06-19.78-17.75,0-32.64,13.57-36.59,31.78-9,2-17.89,16-16.8,24.89Z"/><path class="cls-4" d="M1078.91,332c-1-8.34-11.31-15.24-21-15.24a22.06,22.06,0,0,0-3.47.28,2.53,2.53,0,0,0,0-.28c0-12-7.69-21.7-17.15-21.7a10.38,10.38,0,0,0-1.12.05c-6.62-11.86-18.51-19.78-32.07-19.78-17.74,0-32.64,13.57-36.59,31.78-9,2-17.88,16-16.79,24.89Z"/><path class="cls-1" d="M865.84,281.37l-32-24.08L801.2,281.47v93.26h64.64Z"/><polygon class="cls-6" points="833.84 232.64 833.84 257.58 865.85 281.37 865.85 256.43 833.84 232.64"/><polygon class="cls-7" points="833.84 232.64 833.84 257.58 801.06 281.94 801.06 257 833.84 232.64"/><rect class="cls-8" x="825.28" y="311.7" width="16.6" height="15.37"/><rect class="cls-8" x="825.28" y="288" width="16.6" height="15.37"/><rect class="cls-8" x="825.28" y="335.39" width="16.6" height="15.37"/><path class="cls-1" d="M1011.93,244.45l-32-24.08-32.64,24.18v93.26h64.65Z"/><polygon class="cls-6" points="979.92 195.72 979.92 220.66 1011.93 244.45 1011.93 219.51 979.92 195.72"/><polygon class="cls-7" points="979.92 195.72 979.92 220.66 947.14 245.02 947.14 220.09 979.92 195.72"/><rect class="cls-8" x="971.37" y="274.78" width="16.6" height="15.37"/><rect class="cls-8" x="971.37" y="251.08" width="16.6" height="15.37"/><rect class="cls-8" x="971.37" y="298.47" width="16.6" height="15.37"/><path class="cls-7" d="M1097.27,174.06l24.88,26.15v10.7H1005.93V202.1Z"/><path class="cls-1" d="M1122.15,206.1l-26.45-27.31-89.77,27.31V314.54h116.22Z"/><rect class="cls-8" x="1029.4" y="221.02" width="12.57" height="11.95"/><rect class="cls-8" x="1057.12" y="221.02" width="12.73" height="11.95"/><rect class="cls-8" x="1033.64" y="265.68" width="16.65" height="18.28"/><rect class="cls-8" x="1072.39" y="265.4" width="28.03" height="49.13"/><g id="yellow-tree4"><path class="cls-5" d="M1332.1,241.78c8.69.8,13.34,20.33,20.61,33.31a62.44,62.44,0,0,1,7.41,33.47c-1.14,24.46-8.65,33.82-29.69,32.42-24.07-1.59-28.44-19.89-29.33-37-.9-17.22,6.84-25.82,9.47-34.54C1314.74,255.68,1326,241.23,1332.1,241.78Z"/><path class="cls-11" d="M1330.14,365.13s-.32-4.71.78-16.85c1.17-12.91,2.36-16.53,1.66-16.48a41.12,41.12,0,0,1-9.85-7,28.13,28.13,0,0,1-7.27-13.16c3.39,3.75,5.92,8.32,10.41,11a11.76,11.76,0,0,0,7.48,2.15s-2.09-12.68-4.51-25.36c-2.58-13.47-1.43-25.21-1.17-25.37.47-.29,6.55,35.65,9.5,33.69,3.39-2.24,11.87-22.31,11.87-22.31a69.12,69.12,0,0,1-3.2,14.92c-1.55,4.21-5.56,9.88-8.07,13.59,0,0,1,18.59.47,36.37a81.36,81.36,0,0,0,.9,14.34,21.38,21.38,0,0,1-3.92.92A38.46,38.46,0,0,1,1330.14,365.13Z"/></g><g id="yellow-tree5"><path class="cls-5" d="M1376.72,282.61c7.14.65,11,16.68,16.92,27.34a51.14,51.14,0,0,1,6.08,27.47c-.94,20.08-7.1,27.77-24.37,26.62-19.76-1.31-23.34-16.33-24.08-30.34s5.61-21.19,7.78-28.35C1362.47,294,1371.73,282.15,1376.72,282.61Z"/><path class="cls-11" d="M1375.11,383.87s-.26-3.88.64-13.84c1-10.59,1.94-13.57,1.36-13.53a33.56,33.56,0,0,1-8.08-5.78,23.16,23.16,0,0,1-6-10.8c2.78,3.08,4.86,6.83,8.54,9.07a9.66,9.66,0,0,0,6.15,1.76s-1.72-10.4-3.71-20.81c-2.11-11.06-1.17-20.7-1-20.83.39-.24,5.38,29.27,7.81,27.66,2.77-1.84,9.74-18.32,9.74-18.32A57,57,0,0,1,1388,330.7c-1.28,3.46-4.56,8.11-6.63,11.16,0,0,.85,15.26.39,29.85a66.62,66.62,0,0,0,.74,11.78,17.09,17.09,0,0,1-3.22.75A31.22,31.22,0,0,1,1375.11,383.87Z"/></g><g id="yellow-tree6"><path class="cls-5" d="M1014.23,236.65c7.36.68,11.29,17.22,17.45,28.22a52.81,52.81,0,0,1,6.28,28.34c-1,20.72-7.33,28.65-25.15,27.47-20.39-1.35-24.09-16.85-24.84-31.3s5.79-21.87,8-29.26C999.52,248.43,1009.08,236.18,1014.23,236.65Z"/><path class="cls-11" d="M1012.57,341.14s-.28-4,.66-14.28c1-10.93,2-14,1.4-14a34.56,34.56,0,0,1-8.34-6,23.78,23.78,0,0,1-6.16-11.14c2.87,3.18,5,7,8.82,9.36a10,10,0,0,0,6.34,1.82s-1.78-10.74-3.83-21.48c-2.18-11.41-1.21-21.35-1-21.49.4-.24,5.55,30.2,8,28.54,2.87-1.9,10-18.9,10-18.9a58.38,58.38,0,0,1-2.71,12.64c-1.31,3.57-4.7,8.36-6.84,11.51,0,0,.88,15.75.41,30.8a68.44,68.44,0,0,0,.76,12.15,17.78,17.78,0,0,1-3.32.79A34,34,0,0,1,1012.57,341.14Z"/></g><rect class="cls-17" x="1159.53" y="258.8" width="112.78" height="74.1"/><path class="cls-6" d="M1103.83,258.8h-9.19L1125,214.65l6.74,2.71Z"/><path class="cls-1" d="M1159.53,258.8l-29.3-44.15-29.29,44.15v74.11h58.59Z"/><polygon class="cls-7" points="1125.02 214.65 1247.9 214.65 1277.2 258.8 1154.31 258.8 1125.02 214.65"/><rect class="cls-8" x="1178.99" y="278.11" width="8.93" height="22.81"/><rect class="cls-8" x="1196.5" y="278.11" width="8.93" height="22.81"/><rect class="cls-8" x="1214" y="278.11" width="8.93" height="22.81"/><rect class="cls-8" x="1231.51" y="278.11" width="8.93" height="22.81"/><rect class="cls-8" x="1249.01" y="278.11" width="8.93" height="22.81"/><path class="cls-6" d="M1078.71,298.16h-3.32s16.26-23.08,16.31-23,3,2.07,3,2.07S1078.09,298.27,1078.71,298.16Z"/><path class="cls-1" d="M1108.9,296.73l-15.1-21.56-15.09,21.56v36.19h30.19Z"/><rect class="cls-9" x="1108.66" y="296.73" width="21.31" height="36.19"/><rect class="cls-8" x="1116.21" y="305.1" width="6.21" height="12.12"/><rect class="cls-18" x="1086.65" y="311.16" width="10.91" height="21.76"/><polygon class="cls-7" points="1091.7 275.17 1114.99 275.17 1130.95 298.16 1107.67 298.16 1091.7 275.17"/><path class="cls-19" d="M960.66,245.31l36.66,39.8H924Z"/><rect class="cls-9" x="850.33" y="304.84" width="79.25" height="57.22"/><polygon class="cls-19" points="863.83 268 960.66 268 934.6 312.18 837.77 312.18 863.83 268"/><path class="cls-1" d="M991.73,283.2l-31.07-30-31.08,30v78.86h62.15Z"/><rect class="cls-8" x="953.23" y="336.03" width="8.64" height="13.91"/><rect class="cls-8" x="956.32" y="290.92" width="11.09" height="9.83"/><path class="cls-20" d="M967.41,290.92a5.56,5.56,0,0,0-11.09,0Z"/><rect class="cls-18" x="965.79" y="333.28" width="14.74" height="28.78"/><rect class="cls-8" x="867.08" y="325.31" width="8.61" height="15.95"/><rect class="cls-8" x="888.04" y="325.31" width="8.61" height="15.95"/><path class="cls-19" d="M555.93,276.72l-36.67,39.79H592.6Z"/><rect class="cls-9" x="587.01" y="336.24" width="79.25" height="57.22"/><polygon class="cls-19" points="652.75 299.41 555.93 299.41 581.99 343.59 678.81 343.59 652.75 299.41"/><path class="cls-1" d="M524.85,314.61l31.08-30,31.08,30v78.85H524.85Z"/><rect class="cls-8" x="554.72" y="367.44" width="8.64" height="13.91"/><rect class="cls-8" x="549.17" y="322.32" width="11.09" height="9.83"/><path class="cls-20" d="M549.17,322.32a5.56,5.56,0,0,1,11.1,0Z"/><rect class="cls-18" x="536.06" y="364.69" width="14.74" height="28.78"/><rect class="cls-8" x="640.89" y="356.71" width="8.61" height="15.95"/><rect class="cls-8" x="619.94" y="356.71" width="8.61" height="15.95"/><path class="cls-21" d="M1103.7,330.88c-.75-5.44-8.42-9.95-15.62-9.95a18.19,18.19,0,0,0-2.57.18v-.18c0-7.82-5.72-14.17-12.76-14.17q-.42,0-.84,0a28.18,28.18,0,0,0-23.86-12.92c-13.2,0-24.29,8.86-27.23,20.76-6.69,1.29-13.31,10.44-12.49,16.25Z"/><path class="cls-19" d="M391.48,303.69l36.67,39.79H354.81Z"/><rect class="cls-12" x="281.15" y="363.21" width="79.25" height="57.22"/><polygon class="cls-19" points="294.65 326.38 391.48 326.38 365.42 370.55 268.6 370.55 294.65 326.38"/><path class="cls-22" d="M422.56,341.57l-31.08-30-31.08,30v78.86h62.16Z"/><rect class="cls-8" x="384.05" y="394.41" width="8.64" height="13.91"/><rect class="cls-8" x="387.14" y="349.29" width="11.09" height="9.83"/><path class="cls-20" d="M398.24,349.29a5.56,5.56,0,0,0-11.1,0Z"/><rect class="cls-18" x="396.61" y="391.65" width="14.74" height="28.78"/><rect class="cls-8" x="297.91" y="383.68" width="8.61" height="15.95"/><rect class="cls-8" x="318.86" y="383.68" width="8.61" height="15.95"/><rect class="cls-12" x="779.67" y="346.87" width="73.67" height="62.93"/><rect class="cls-8" x="798.89" y="365.88" width="12.85" height="17.39"/><rect class="cls-8" x="816.85" y="365.88" width="28.54" height="17.39"/><path class="cls-13" d="M746.6,312.32l25.54,13.82,1.44,24.19H712.67Z"/><path class="cls-14" d="M779.67,346.87,749.5,315,720,346.87V409.8h59.72Z"/><rect class="cls-8" x="739.57" y="365.88" width="20.98" height="43.93"/><rect class="cls-8" x="745.57" y="337.17" width="8.97" height="9.7"/><polygon class="cls-15" points="746.6 312.32 822.14 312.32 858.18 350.33 782.64 350.33 746.6 312.32"/><rect class="cls-16" x="800.28" y="303.69" width="13.57" height="24.19"/><path class="cls-13" d="M800.28,303.69h-5.93l-.24,18.5,6.17,5.68Z"/><rect class="cls-12" x="888.13" y="367.84" width="73.67" height="62.93"/><rect class="cls-8" x="907.35" y="386.84" width="12.85" height="17.39"/><rect class="cls-8" x="925.31" y="386.84" width="28.54" height="17.39"/><path class="cls-13" d="M855.06,333.29l25.54,13.82L882,371.29H821.13Z"/><path class="cls-14" d="M888.13,367.84,858,336l-29.55,31.84v62.93h59.72Z"/><rect class="cls-8" x="848.03" y="386.84" width="20.98" height="43.93"/><rect class="cls-8" x="854.03" y="358.13" width="8.97" height="9.7"/><polygon class="cls-15" points="855.06 333.29 930.6 333.29 966.64 371.29 891.1 371.29 855.06 333.29"/><rect class="cls-16" x="908.74" y="324.65" width="13.57" height="24.19"/><path class="cls-13" d="M908.74,324.65h-5.92l-.25,18.51,6.17,5.67Z"/><path class="cls-22" d="M814.6,417l-34.89-24.92-35.59,25v96.52H814.6Z"/><polygon class="cls-6" points="779.71 366.6 779.71 392.41 814.6 417.03 814.6 391.21 779.71 366.6"/><polygon class="cls-7" points="779.71 366.6 779.71 392.41 743.97 417.63 743.97 391.81 779.71 366.6"/><rect class="cls-8" x="770.38" y="448.42" width="18.1" height="15.91"/><rect class="cls-8" x="770.38" y="423.89" width="18.1" height="15.91"/><rect class="cls-8" x="770.38" y="472.95" width="18.1" height="15.91"/><rect class="cls-23" x="94" y="493.71" width="1281.5" height="101.21"/><rect class="cls-24" x="761.11" y="440.09" width="127.44" height="110.7"/><path class="cls-6" d="M964.86,445.48h10.4l-42.06-52-10.17,6Z"/><path class="cls-25" d="M926.72,395.58l-38.17,44.51V550.78h76.33V439.08Z"/><polygon class="cls-10" points="933.2 393.46 796.42 393.46 751.78 445.48 888.55 445.48 933.2 393.46"/><rect class="cls-26" x="850.97" y="468.67" width="14.09" height="19.87"/><rect class="cls-26" x="817.8" y="468.67" width="14.09" height="19.87"/><rect class="cls-26" x="784.6" y="468.67" width="14.09" height="19.87"/><rect class="cls-26" x="850.97" y="502.33" width="14.09" height="19.87"/><rect class="cls-26" x="817.8" y="502.33" width="14.09" height="19.87"/><rect class="cls-26" x="784.6" y="502.33" width="14.09" height="19.87"/><rect class="cls-27" x="921.32" y="437.32" width="12.03" height="19.87"/><rect class="cls-27" x="921.32" y="468.87" width="12.03" height="19.87"/><rect class="cls-27" x="915.31" y="502.95" width="24.06" height="47.93"/><path class="cls-28" d="M579.22,444.67c-1-8.16-10.74-14.91-19.94-14.91A19.71,19.71,0,0,0,556,430v-.27c0-11.72-7.3-21.23-16.29-21.23-.36,0-.71,0-1.07,0-6.28-11.6-17.58-19.34-30.45-19.34-16.86,0-31,13.27-34.76,31.09-8.53,1.94-17,15.64-15.95,24.35Z"/><rect class="cls-12" x="673.26" y="386.43" width="73.67" height="62.93"/><rect class="cls-8" x="692.48" y="405.43" width="12.85" height="17.39"/><rect class="cls-8" x="710.44" y="405.43" width="28.54" height="17.39"/><path class="cls-13" d="M640.19,351.88l25.54,13.82,1.44,24.18H606.26Z"/><path class="cls-22" d="M673.26,386.43l-30.17-31.84-29.55,31.84v62.93h59.72Z"/><rect class="cls-8" x="633.16" y="405.43" width="20.98" height="43.93"/><rect class="cls-8" x="639.16" y="376.72" width="8.97" height="9.7"/><polygon class="cls-15" points="640.19 351.88 715.73 351.88 751.77 389.88 676.23 389.88 640.19 351.88"/><rect class="cls-16" x="693.87" y="343.24" width="13.57" height="24.19"/><path class="cls-13" d="M693.87,343.24h-5.93l-.24,18.51,6.17,5.67Z"/><path class="cls-6" d="M1143.29,319.32H1139s21.08-29.92,21.15-29.82,3.91,2.7,3.91,2.7S1142.47,319.47,1143.29,319.32Z"/><path class="cls-14" d="M1143.28,350.29V317.47l19.58-28,19.58,28v32.82Z"/><rect class="cls-12" x="1180.84" y="317.47" width="94.49" height="32.82"/><rect class="cls-8" x="1193.35" y="327.22" width="4.82" height="9.69"/><rect class="cls-8" x="1209.51" y="327.22" width="4.82" height="9.69"/><rect class="cls-8" x="1225.68" y="327.22" width="4.82" height="9.69"/><rect class="cls-8" x="1241.84" y="327.22" width="4.82" height="9.69"/><rect class="cls-8" x="1258" y="327.22" width="4.82" height="9.69"/><polygon class="cls-7" points="1160.13 289.5 1258.98 289.5 1279.68 319.32 1180.84 319.32 1160.13 289.5"/><path class="cls-6" d="M1233.52,344.59H1229s22-31.15,22-31,4.07,2.8,4.07,2.8S1232.67,344.74,1233.52,344.59Z"/><path class="cls-14" d="M1233.51,376.83V342.66l20.38-29.11,20.38,29.11v34.17Z"/><rect class="cls-12" x="1272.61" y="342.66" width="98.36" height="34.17"/><rect class="cls-8" x="1285.63" y="352.81" width="5.02" height="10.09"/><rect class="cls-8" x="1302.46" y="352.81" width="5.02" height="10.09"/><rect class="cls-8" x="1319.28" y="352.81" width="5.02" height="10.09"/><rect class="cls-8" x="1336.1" y="352.81" width="5.02" height="10.09"/><rect class="cls-8" x="1352.93" y="352.81" width="5.02" height="10.09"/><polygon class="cls-7" points="1251.05 313.55 1353.94 313.55 1375.5 344.59 1272.61 344.59 1251.05 313.55"/><path class="cls-6" d="M1079.51,326.2v-6.08s50.6.23,88.21.23l43.79,27.39-110.63-2.34Z"/><rect class="cls-29" x="1079.5" y="323.96" width="88.21" height="84.4"/><rect class="cls-8" x="1135.52" y="339.37" width="10.52" height="9.84"/><rect class="cls-8" x="1113.87" y="339.37" width="10.52" height="9.84"/><rect class="cls-8" x="1092.21" y="339.37" width="10.52" height="9.84"/><path class="cls-22" d="M1167.71,324l38.46,23.78.84,60.62h-39.3Z"/><path class="cls-30" d="M1095.55,358.72l-36.15-27.19-36.86,27.3V464.16h73Z"/><polygon class="cls-6" points="1059.4 303.68 1059.4 331.85 1095.55 358.71 1095.55 330.55 1059.4 303.68"/><polygon class="cls-7" points="1059.4 303.68 1059.4 331.85 1022.38 359.37 1022.38 331.2 1059.4 303.68"/><rect class="cls-8" x="1049.74" y="392.97" width="18.75" height="17.35"/><rect class="cls-8" x="1049.74" y="366.21" width="18.75" height="17.35"/><rect class="cls-8" x="1049.74" y="419.74" width="18.75" height="17.35"/><path class="cls-30" d="M1026.22,358.72l-36.14-27.19-36.87,27.3V464.16h73Z"/><polygon class="cls-6" points="990.08 303.68 990.08 331.85 1026.22 358.71 1026.22 330.55 990.08 303.68"/><polygon class="cls-7" points="990.08 303.68 990.08 331.85 953.05 359.37 953.05 331.2 990.08 303.68"/><rect class="cls-8" x="980.41" y="392.97" width="18.75" height="17.35"/><rect class="cls-8" x="980.41" y="366.21" width="18.75" height="17.35"/><rect class="cls-8" x="980.41" y="419.74" width="18.75" height="17.35"/><path class="cls-6" d="M115.79,408.45h-5.13s25.12-35.64,25.2-35.52,4.66,3.21,4.66,3.21S114.83,408.62,115.79,408.45Z"/><path class="cls-31" d="M115.79,445.34v-39.1l23.32-33.31,23.32,33.31v39.1Z"/><rect class="cls-32" x="160.52" y="406.25" width="112.54" height="39.09"/><rect class="cls-8" x="175.42" y="417.86" width="5.74" height="11.55"/><rect class="cls-8" x="194.67" y="417.86" width="5.74" height="11.55"/><rect class="cls-8" x="213.92" y="417.86" width="5.74" height="11.55"/><rect class="cls-8" x="233.17" y="417.86" width="5.74" height="11.55"/><rect class="cls-8" x="252.42" y="417.86" width="5.74" height="11.55"/><polygon class="cls-7" points="135.86 372.94 253.59 372.94 278.25 408.45 160.52 408.45 135.86 372.94"/><path class="cls-33" d="M1191.32,418.1c-.82-5.38-9.24-9.82-17.14-9.82a21.82,21.82,0,0,0-2.83.18v-.18a14,14,0,0,0-14-14c-.31,0-.61,0-.91,0-5.41-7.64-15.12-12.74-26.2-12.74-14.5,0-26.66,8.74-29.89,20.47-7.34,1.28-14.61,10.3-13.72,16Z"/><g id="yellow-tree7"><path class="cls-28" d="M291.79,373.43c11.36.73,17.43,18.74,26.94,30.71A44.56,44.56,0,0,1,328.41,435c-1.5,22.56-11.31,31.19-38.8,29.9-31.46-1.47-37.17-18.34-38.34-34.08S260.2,407,263.65,399C269.1,386.24,283.84,372.91,291.79,373.43Z"/><path class="cls-11" d="M287.09,516.82s-.37-5.76.87-20.59c1.33-15.77-.56-40.34-1.34-40.28a46,46,0,0,1-11.08-8.6c-6.12-6.34-4.08-9.61-4.08-10,3.82,4.58,2.55,4.11,7.61,7.44,3,2,4.42,2.59,8.42,2.63,0,0,.86,4.65-1.87-10.83-2.9-16.47-1.6-30.8-1.31-31s2.89,13.69,5.48,23.39c1.52,5.72,3.16,9.52,4.06,9.35,1.17-.22,3.75-3.26,5.21-7.25a36.66,36.66,0,0,0,1.7-8.69s3,4.1.29,12.21c-1.74,5.14-3.37,5.15-6.2,9.7,0,0,2,32.73,1.35,54.45a107.06,107.06,0,0,0,1,17.52,22.81,22.81,0,0,1-4.42,1.13A41.28,41.28,0,0,1,287.09,516.82Z"/></g><path class="cls-33" d="M236.87,550.88c-.82-5.37-9.24-9.81-17.14-9.81a23.77,23.77,0,0,0-2.83.17v-.17a14,14,0,0,0-14-14c-.31,0-.61,0-.92,0-5.4-7.64-15.12-12.74-26.19-12.74-14.5,0-26.66,8.74-29.89,20.47-7.34,1.28-14.61,10.3-13.72,16Z"/><path class="cls-33" d="M179.83,506.84c-.67-3.87-7.56-7.06-14-7.06a19.68,19.68,0,0,0-2.32.13.62.62,0,0,0,0-.13c0-5.55-5.15-10-11.48-10-.25,0-.5,0-.75,0-4.43-5.49-12.39-9.16-21.46-9.16-11.88,0-21.84,6.28-24.49,14.72-6,.92-12,7.4-11.24,11.53Z"/><path class="cls-34" d="M591,360.94l0-5.61s-52.12.21-90.86.21l-45.1,25.27L569,378.65Z"/><rect class="cls-35" x="500.18" y="358.87" width="90.86" height="77.86"/><rect class="cls-26" x="522.5" y="373.08" width="10.84" height="9.08"/><rect class="cls-26" x="544.8" y="373.08" width="10.84" height="9.08"/><rect class="cls-26" x="567.1" y="373.08" width="10.84" height="9.08"/><path class="cls-36" d="M500.18,358.87l-39.62,21.94-.86,55.92h40.48Z"/><path class="cls-34" d="M617.85,395.24l.35-3.29s-39.14.12-68.22.12l-35.39,14.86,85.68-1.27Z"/><rect class="cls-35" x="550.16" y="395.23" width="65.86" height="41.51"/><rect class="cls-26" x="605.15" y="406.16" width="4.57" height="9.83"/><path class="cls-36" d="M550.16,395.23l-28.72,11.7-.62,29.81h29.34Z"/><rect class="cls-26" x="528.75" y="425.85" width="7.85" height="10.89"/><rect class="cls-26" x="541.17" y="425.85" width="5.01" height="4.91"/><rect class="cls-37" x="300.54" y="413.67" width="119.99" height="104.22"/><path class="cls-6" d="M492.37,418.74h9.79l-39.6-49L453,375.45Z"/><path class="cls-38" d="M456.46,371.76l-35.94,41.91V517.89h71.87V412.72Z"/><polygon class="cls-10" points="462.56 369.77 333.78 369.77 291.75 418.74 420.52 418.74 462.56 369.77"/><rect class="cls-39" x="385.14" y="440.58" width="13.27" height="18.7"/><rect class="cls-39" x="353.91" y="440.58" width="13.27" height="18.7"/><rect class="cls-39" x="322.65" y="440.58" width="13.27" height="18.7"/><rect class="cls-39" x="385.14" y="472.27" width="13.27" height="18.7"/><rect class="cls-39" x="353.91" y="472.27" width="13.27" height="18.7"/><rect class="cls-39" x="322.65" y="472.27" width="13.27" height="18.7"/><rect class="cls-39" x="451.38" y="411.06" width="11.32" height="18.7"/><rect class="cls-39" x="451.38" y="440.76" width="11.32" height="18.7"/><rect class="cls-39" x="445.72" y="472.85" width="22.65" height="45.13"/><g id="yellow-tree8"><path class="cls-28" d="M1420.86,341.37c9,.81,13.88,21.07,21.46,34.53,4.27,7.6,8.43,19.41,7.75,34.72-1.14,25.4-8.92,35.13-30.76,33.72-25-1.62-29.55-20.6-30.51-38.31-1-17.87,7-26.81,9.77-35.87C1402.87,355.83,1414.55,340.8,1420.86,341.37Z"/><path class="cls-40" d="M1419.06,469.4s-.35-4.89.77-17.49c1.2-13.4,2.42-17.16,1.69-17.11a42.66,42.66,0,0,1-10.23-7.29,29.13,29.13,0,0,1-7.57-13.65c3.52,3.89,6.15,8.63,10.82,11.45a12.22,12.22,0,0,0,7.77,2.22s-2.19-13.16-4.73-26.31c-2.7-14-1.53-26.16-1.26-26.33.49-.3,6.86,37,9.93,34.95,3.51-2.33,12.27-23.18,12.27-23.18a71.55,71.55,0,0,1-3.29,15.49c-1.61,4.38-5.75,10.26-8.35,14.13,0,0,1.1,19.29.56,37.74a82.64,82.64,0,0,0,1,14.88,22.48,22.48,0,0,1-4.07,1A40.74,40.74,0,0,1,1419.06,469.4Z"/></g><rect class="cls-24" x="1151.4" y="382.91" width="127.44" height="110.7"/><path class="cls-6" d="M1355.15,388.31h10.39l-42.06-52-10.17,6Z"/><path class="cls-25" d="M1317,338.41l-38.16,44.5v110.7h76.32V381.91Z"/><polygon class="cls-10" points="1323.48 336.29 1186.71 336.29 1142.06 388.31 1278.84 388.31 1323.48 336.29"/><rect class="cls-26" x="1241.26" y="411.5" width="14.09" height="19.87"/><rect class="cls-26" x="1208.09" y="411.5" width="14.09" height="19.87"/><rect class="cls-26" x="1174.88" y="411.5" width="14.09" height="19.87"/><rect class="cls-26" x="1241.26" y="445.16" width="14.09" height="19.87"/><rect class="cls-26" x="1208.09" y="445.16" width="14.09" height="19.87"/><rect class="cls-26" x="1174.88" y="445.16" width="14.09" height="19.87"/><rect class="cls-27" x="1311.61" y="380.15" width="12.03" height="19.87"/><rect class="cls-27" x="1311.61" y="411.69" width="12.03" height="19.87"/><rect class="cls-27" x="1305.6" y="445.78" width="24.06" height="47.93"/><path class="cls-41" d="M579,347.68c2.68-6.44,10.3-5.78,13.52-2.27,9,9.85,15.64,80,14.94,86.68-1.19,11.38-4.83,14.25-10.44,16.83-3.08,1.43-12.56,2.37-19,.71-4.82-1.25-9.7-8.06-10.9-16.12C565.45,422.37,568.06,373.89,579,347.68Z"/><path class="cls-11" d="M582.76,476.43c0-.3.71-38.65.71-38.65l-6.4-5.22V430.9l7.11,4.27.71-36h1.19l1.42,12.57,4.74-1.9.24,1.18-3.56,2.61.24,23.48,5.45-1.9.24,1.9-5.45,3.55v35.81S582.75,476.72,582.76,476.43Z"/><path class="cls-41" d="M1189.82,394.77c2.68-6.44,10.3-5.78,13.51-2.27,9,9.85,15.64,80,14.94,86.68-1.19,11.38-4.83,14.25-10.43,16.83-3.09,1.43-12.57,2.37-19,.71-4.82-1.25-9.71-8.06-10.91-16.12C1176.3,469.46,1178.91,421,1189.82,394.77Z"/><path class="cls-11" d="M1193.61,523.52c0-.3.71-38.65.71-38.65l-6.4-5.22V478l7.11,4.27.71-36h1.19l1.42,12.57,4.74-1.9.24,1.18-3.55,2.61.23,23.48,5.46-1.9.23,1.9-5.45,3.55v35.81S1193.6,523.81,1193.61,523.52Z"/><rect class="cls-42" x="147.38" y="455.42" width="102.74" height="72.55"/><rect class="cls-39" x="221.74" y="475.92" width="14.15" height="14.47"/><rect class="cls-39" x="192.9" y="475.92" width="14.15" height="14.47"/><rect class="cls-39" x="221.74" y="500.15" width="14.15" height="14.47"/><rect class="cls-39" x="192.9" y="500.15" width="14.15" height="14.47"/><rect class="cls-39" x="159.06" y="491.7" width="19.24" height="36.28"/><path class="cls-10" d="M261.75,463.05h-126l21.77-31.17H240Z"/><rect class="cls-43" x="164.82" y="421.36" width="12.64" height="14.19"/><rect class="cls-43" x="163.06" y="417.48" width="15.78" height="3.88"/><path class="cls-36" d="M771.33,468.51l-36.14-27.19-36.87,27.3V574h73Z"/><polygon class="cls-6" points="735.19 413.47 735.19 441.64 771.34 468.5 771.34 440.34 735.19 413.47"/><polygon class="cls-7" points="735.19 413.47 735.19 441.64 698.17 469.16 698.17 440.99 735.19 413.47"/><rect class="cls-26" x="725.52" y="502.76" width="18.75" height="17.35"/><rect class="cls-26" x="725.52" y="476" width="18.75" height="17.35"/><rect class="cls-26" x="725.52" y="529.53" width="18.75" height="17.35"/><path class="cls-44" d="M308.56,481.13l-33.17-24.95-33.83,25.06V577.9h67Z"/><polygon class="cls-6" points="275.39 430.63 275.39 456.48 308.56 481.13 308.56 455.28 275.39 430.63"/><polygon class="cls-7" points="275.39 430.63 275.39 456.48 241.41 481.73 241.41 455.88 275.39 430.63"/><rect class="cls-39" x="266.52" y="512.57" width="17.21" height="15.93"/><rect class="cls-39" x="266.52" y="488.01" width="17.21" height="15.93"/><rect class="cls-39" x="266.52" y="537.13" width="17.21" height="15.93"/><path class="cls-36" d="M1418.33,384.51l-32-24.09-32.66,24.2v93.31h64.68Z"/><polygon class="cls-6" points="1386.31 335.76 1386.31 360.71 1418.33 384.51 1418.33 359.56 1386.31 335.76"/><polygon class="cls-7" points="1386.31 335.75 1386.31 360.71 1353.51 385.09 1353.51 360.13 1386.31 335.75"/><rect class="cls-27" x="1377.74" y="414.86" width="16.61" height="15.38"/><rect class="cls-27" x="1377.74" y="391.15" width="16.61" height="15.38"/><rect class="cls-27" x="1377.74" y="438.57" width="16.61" height="15.38"/><path class="cls-10" d="M1436.85,420.07l36.67,39.79h-73.34Z"/><rect class="cls-37" x="1326.52" y="479.59" width="79.25" height="57.22"/><polygon class="cls-10" points="1340.03 442.76 1436.85 442.76 1410.79 486.94 1313.96 486.94 1340.03 442.76"/><path class="cls-45" d="M1467.93,458l-31.08-30-31.08,30v78.85h62.16Z"/><rect class="cls-39" x="1429.42" y="510.79" width="8.64" height="13.91"/><rect class="cls-39" x="1432.51" y="465.67" width="11.09" height="9.83"/><path class="cls-46" d="M1443.61,465.67a5.56,5.56,0,0,0-11.1,0Z"/><rect class="cls-39" x="1441.98" y="508.04" width="14.74" height="28.78"/><rect class="cls-8" x="1343.28" y="500.06" width="8.61" height="15.95"/><rect class="cls-8" x="1364.23" y="500.06" width="8.61" height="15.95"/><g id="yellow-tree9"><path class="cls-28" d="M1464.76,490.44c7.29.66,11.21,17,17.33,27.89a52.35,52.35,0,0,1,6.26,28c-.93,20.5-7.21,28.36-24.84,27.22-20.18-1.3-23.87-16.63-24.64-30.93s5.69-21.65,7.89-29C1450.23,502.12,1459.67,490,1464.76,490.44Z"/><path class="cls-40" d="M1463.3,593.84s-.28-4,.63-14.13c1-10.82,2-13.86,1.36-13.82A34.12,34.12,0,0,1,1457,560a23.6,23.6,0,0,1-6.12-11c2.85,3.13,5,7,8.75,9.24a9.81,9.81,0,0,0,6.27,1.79s-1.77-10.62-3.82-21.24c-2.18-11.29-1.23-21.13-1-21.27.4-.24,5.55,29.88,8,28.23C1472,543.85,1479,527,1479,527a57.62,57.62,0,0,1-2.66,12.51c-1.29,3.53-4.64,8.28-6.74,11.4,0,0,.89,15.58.45,30.48a66.94,66.94,0,0,0,.78,12,18,18,0,0,1-3.29.78A32.49,32.49,0,0,1,1463.3,593.84Z"/></g><path class="cls-36" d="M1357,448.24,1320.88,421,1284,448.35V553.68h73Z"/><polygon class="cls-6" points="1320.88 393.2 1320.88 421.37 1357.03 448.23 1357.03 420.07 1320.88 393.2"/><polygon class="cls-7" points="1320.88 393.2 1320.88 421.37 1283.86 448.88 1283.86 420.72 1320.88 393.2"/><rect class="cls-27" x="1311.22" y="482.49" width="18.75" height="17.35"/><rect class="cls-27" x="1311.22" y="455.72" width="18.75" height="17.35"/><rect class="cls-27" x="1311.22" y="509.25" width="18.75" height="17.35"/><path class="cls-28" d="M941.64,493.71c1.33-12.34,15-22.55,27.75-22.55a25.66,25.66,0,0,1,4.58.41c0-.13,0-.27,0-.41,0-17.72,10.17-32.11,22.68-32.11a14.72,14.72,0,0,1,1.49.07c8.75-17.54,24.47-29.26,42.4-29.26,23.46,0,43.16,20.07,48.38,47,11.89,2.92,23.65,23.65,22.21,36.82Z"/><rect class="cls-35" x="1110.34" y="446.62" width="73.67" height="62.93"/><rect class="cls-27" x="1129.56" y="465.62" width="12.85" height="17.39"/><rect class="cls-27" x="1147.51" y="465.62" width="28.54" height="17.39"/><path class="cls-10" d="M1077.27,412.07l25.54,13.82,1.44,24.18h-60.92Z"/><path class="cls-36" d="M1110.34,446.62l-30.17-31.84-29.56,31.84v62.93h59.73Z"/><rect class="cls-26" x="1070.23" y="465.62" width="20.98" height="43.93"/><rect class="cls-26" x="1076.24" y="436.91" width="8.97" height="9.7"/><polygon class="cls-6" points="1077.27 412.07 1152.81 412.07 1188.85 450.07 1113.31 450.07 1077.27 412.07"/><rect class="cls-18" x="1130.94" y="403.43" width="13.57" height="24.19"/><path class="cls-10" d="M1130.94,403.43H1125l-.25,18.51,6.17,5.67Z"/><rect class="cls-35" x="628.65" y="450.33" width="73.67" height="62.93"/><rect class="cls-27" x="647.87" y="469.33" width="12.85" height="17.39"/><rect class="cls-27" x="665.83" y="469.33" width="28.54" height="17.39"/><path class="cls-10" d="M595.59,415.78l25.54,13.82,1.44,24.18H561.65Z"/><path class="cls-36" d="M628.65,450.33l-30.17-31.84-29.55,31.84v62.93h59.72Z"/><rect class="cls-26" x="588.55" y="469.33" width="20.98" height="43.93"/><rect class="cls-26" x="594.56" y="440.63" width="8.97" height="9.7"/><polygon class="cls-6" points="595.58 415.78 671.12 415.78 707.17 453.79 631.63 453.79 595.58 415.78"/><rect class="cls-18" x="649.26" y="407.14" width="13.57" height="24.19"/><path class="cls-10" d="M649.26,407.14h-5.92l-.25,18.51,6.17,5.68Z"/><rect class="cls-47" x="1270.28" y="470.28" width="73.67" height="62.93"/><rect class="cls-48" x="1289.5" y="489.28" width="12.85" height="17.39"/><rect class="cls-48" x="1307.46" y="489.28" width="28.54" height="17.39"/><path class="cls-10" d="M1237.21,435.73l25.54,13.82,1.44,24.18h-60.91Z"/><path class="cls-36" d="M1270.28,470.28l-30.17-31.84-29.55,31.84v62.93h59.72Z"/><rect class="cls-26" x="1230.18" y="489.28" width="20.98" height="43.93"/><rect class="cls-26" x="1236.18" y="460.57" width="8.97" height="9.7"/><polygon class="cls-6" points="1237.21 435.73 1312.75 435.73 1348.79 473.73 1273.25 473.73 1237.21 435.73"/><rect class="cls-18" x="1290.89" y="427.09" width="13.57" height="24.19"/><path class="cls-10" d="M1290.89,427.09H1285l-.24,18.51,6.17,5.67Z"/><g id="Plane"><g id="Path_391" data-name="Path 391"><path class="cls-37" d="M1271.61,157.21c-3,1.4-8.23,1.36-8.23,1.36h-64.49a58.88,58.88,0,0,1-16.76-5c-3.89-1.84-6.59-4.2-10.18-6.94l-5.08-20.38h10.32l14.06,14.39h60.46a40.61,40.61,0,0,1,12.71,1.88c2.85,1,2.55,2.59,4,3.69,1.2.82,3.74.94,5.39,2.86C1277,152.77,1274.6,155.87,1271.61,157.21Z"/></g><g id="Path_393" data-name="Path 393"><path class="cls-39" d="M1182.87,132.23c-.14-.08-.29-.14-.29-.2-.3-.06-.45-.12-.6-.15h-12.12l-7,3.7,5.53.38Z"/></g><g id="Path_394" data-name="Path 394"><path class="cls-37" d="M1210.56,157.47s11.82-.73,17.5-.56,4.94.77,5.24,1.3c.45.53.45.65.45,2.73.15,2.07-.6,2.67-.6,2.67s-.15,1.06-5.84,1.06-16.75-1.06-16.75-1.06a4.78,4.78,0,0,1-.75-3.15A3.21,3.21,0,0,1,1210.56,157.47Z"/></g><g id="Ellipse_187" data-name="Ellipse 187"><ellipse class="cls-49" cx="1229.98" cy="160.41" rx="1.48" ry="2.06"/></g><g id="Path_392" data-name="Path 392"><path class="cls-39" d="M1236.59,154.51a1.47,1.47,0,0,0-.6-.46,2.22,2.22,0,0,0-.74-.36H1217l-10.47,8.4,8.23.85Z"/></g></g><path class="cls-6" d="M901.49,452.79l0-8.94s83.1.33,144.87.33l71.91,40.3L936.56,481Z"/><rect class="cls-37" x="901.47" y="449.49" width="144.87" height="124.15"/><rect class="cls-39" x="993.48" y="472.15" width="17.28" height="14.47"/><rect class="cls-39" x="957.91" y="472.15" width="17.28" height="14.47"/><rect class="cls-39" x="922.35" y="472.15" width="17.28" height="14.47"/><path class="cls-38" d="M1046.34,449.49l63.16,35,1.38,89.16h-64.54Z"/><path class="cls-6" d="M915.53,510.33l-.56-6.52s62.41.24,108.78.24l56.43,29.39-136.61-2.51Z"/><rect class="cls-50" x="918.45" y="510.31" width="105.02" height="82.1"/><rect class="cls-39" x="928.49" y="531.92" width="7.29" height="19.43"/><path class="cls-46" d="M1023.47,510.31l45.79,23.13,1,59h-46.79Z"/><rect class="cls-51" x="1045.07" y="570.86" width="12.52" height="21.54"/><rect class="cls-51" x="1047.35" y="546.5" width="7.98" height="9.72"/><path class="cls-6" d="M908.2,473v26.29H816.55l0-4Z"/><path class="cls-44" d="M908.19,479l-91.77,20.28L816,580.58h92.18Z"/><rect class="cls-39" x="832.02" y="512.16" width="7.59" height="20.69"/><rect class="cls-39" x="864.71" y="553.48" width="12.01" height="10.24"/><rect class="cls-39" x="887.66" y="553.48" width="11.65" height="10.24"/><path class="cls-6" d="M1196.31,469V495.3h-91.64l0-4Z"/><path class="cls-45" d="M1196.3,475l-91.76,20.28-.42,81.29h92.18Z"/><rect class="cls-39" x="1120.13" y="508.17" width="7.59" height="20.69"/><rect class="cls-39" x="1152.82" y="549.49" width="12.01" height="10.24"/><rect class="cls-39" x="1175.78" y="549.49" width="11.65" height="10.24"/><path class="cls-6" d="M152.22,420.51v26.28H60.57l0-4Z"/><path class="cls-44" d="M152.21,426.52,60.44,446.79,60,528.09h92.18Z"/><rect class="cls-39" x="76.04" y="459.67" width="7.59" height="20.69"/><rect class="cls-39" x="108.73" y="500.98" width="12.01" height="10.24"/><rect class="cls-39" x="131.68" y="500.98" width="11.65" height="10.24"/><rect class="cls-42" x="478.58" y="436.8" width="102.74" height="72.55"/><rect class="cls-39" x="552.95" y="457.3" width="14.15" height="14.47"/><rect class="cls-39" x="524.1" y="457.3" width="14.15" height="14.47"/><rect class="cls-39" x="552.95" y="481.53" width="14.15" height="14.47"/><rect class="cls-39" x="524.1" y="481.53" width="14.15" height="14.47"/><rect class="cls-39" x="490.26" y="473.08" width="19.24" height="36.28"/><path class="cls-10" d="M593,444.43H467l21.78-31.17h82.44Z"/><rect class="cls-43" x="496.03" y="402.74" width="12.64" height="14.19"/><rect class="cls-43" x="494.26" y="398.86" width="15.78" height="3.88"/><rect class="cls-37" x="1302.01" y="489.2" width="102.74" height="72.55"/><rect class="cls-39" x="1316.24" y="509.7" width="14.15" height="14.47"/><rect class="cls-39" x="1345.08" y="509.7" width="14.15" height="14.47"/><rect class="cls-39" x="1316.24" y="533.93" width="14.15" height="14.47"/><rect class="cls-39" x="1345.08" y="533.93" width="14.15" height="14.47"/><rect class="cls-39" x="1373.83" y="525.47" width="19.24" height="36.28"/><path class="cls-10" d="M1290.38,496.82h126l-21.78-31.16h-82.44Z"/><rect class="cls-43" x="1374.67" y="455.13" width="12.64" height="14.19"/><rect class="cls-43" x="1373.28" y="451.26" width="15.78" height="3.88"/><path class="cls-6" d="M519.88,463.34v26.05h93.4l0-4Z"/><path class="cls-44" d="M519.89,469.29l93.52,20.09.43,80.55h-94Z"/><rect class="cls-39" x="589.79" y="502.14" width="7.73" height="20.5"/><rect class="cls-39" x="551.69" y="502.14" width="12.24" height="10.15"/><rect class="cls-39" x="528.66" y="502.14" width="11.88" height="10.15"/><path class="cls-34" d="M149.82,487.61l21.32,20v8.18H71.53V509Z"/><path class="cls-46" d="M171.14,512.08l-22.67-20.86L71.53,512.08v82.84h99.61Z"/><rect class="cls-51" x="91.64" y="523.48" width="10.77" height="9.13"/><rect class="cls-51" x="128.49" y="557.38" width="24.03" height="37.54"/><g id="yellow-tree10"><path class="cls-28" d="M222,452.2c8.94.82,13.71,20.89,21.19,34.23a64.22,64.22,0,0,1,7.61,34.4c-1.17,25.15-8.89,34.78-30.51,33.34-24.75-1.64-29.24-20.45-30.15-38-.93-17.7,7-26.54,9.73-35.51C204.13,466.49,215.72,451.63,222,452.2Z"/><path class="cls-40" d="M220,579s-.34-4.85.8-17.32c1.21-13.27,2.42-17,1.7-16.94a42.64,42.64,0,0,1-10.12-7.24A29,29,0,0,1,204.86,524c3.49,3.86,6.09,8.56,10.71,11.36a12.09,12.09,0,0,0,7.69,2.21s-2.15-13-4.64-26.06c-2.65-13.85-1.47-25.92-1.2-26.08.48-.3,6.73,36.64,9.77,34.63,3.48-2.31,12.19-22.94,12.19-22.94a71,71,0,0,1-3.29,15.34c-1.59,4.33-5.71,10.15-8.29,14,0,0,1.06,19.11.49,37.38a82.35,82.35,0,0,0,.92,14.74,21.65,21.65,0,0,1-4,1A40.08,40.08,0,0,1,220,579Z"/></g><g id="yellow-tree11"><path class="cls-28" d="M56.55,451.74c9.74.89,15,22.79,23.11,37.35,4.6,8.22,9.08,21,8.31,37.53-1.28,27.44-9.7,37.94-33.3,36.37-27-1.79-31.89-22.31-32.89-41.44-1-19.32,7.66-29,10.62-38.74C37.07,467.33,49.73,451.11,56.55,451.74Z"/><path class="cls-52" d="M54.35,590.08s-.37-5.29.87-18.9c1.32-14.48,2.64-18.54,1.86-18.48a46.55,46.55,0,0,1-11-7.91A31.58,31.58,0,0,1,37.88,530c3.8,4.2,6.64,9.33,11.67,12.39a13.29,13.29,0,0,0,8.4,2.41s-2.35-14.22-5.07-28.44C50,501.29,51.29,488.13,51.57,488c.53-.33,7.35,40,10.66,37.79,3.8-2.52,13.31-25,13.31-25A77.22,77.22,0,0,1,72,517.44c-1.74,4.73-6.23,11.08-9.05,15.25,0,0,1.16,20.84.54,40.78a90.52,90.52,0,0,0,1,16.09,23.8,23.8,0,0,1-4.4,1A44.6,44.6,0,0,1,54.35,590.08Z"/></g><path class="cls-33" d="M1275.31,429.83c3.34-8,12.83-7.2,16.83-2.82,11.22,12.27,19.47,99.58,18.6,107.94-1.48,14.17-6,17.74-13,21-3.84,1.77-15.65,3-23.62.88-6-1.55-12.09-10-13.58-20.07C1258.48,522.84,1261.73,462.47,1275.31,429.83Z"/><path class="cls-40" d="M1280,590.16c0-.37.89-48.13.89-48.13l-8-6.49v-2.07l8.86,5.31.88-44.88h1.48l1.77,15.65,5.9-2.36.3,1.48-4.43,3.24.3,29.24,6.79-2.37.29,2.37-6.79,4.42v44.59S1280,590.53,1280,590.16Z"/><path class="cls-33" d="M0,590.43c-.07-8.15,5-9.93,10-8.28-1.54-1.39-1.49-3.94-.74-6.11,1.38-4,7.45-6.57,12.26-4,2.21-8,10.61-11.91,16.84-8.27a13,13,0,0,1,10.92-5.91,12.77,12.77,0,0,1,12.89,12.64h.06c4,0,7.43,3.12,8.38,7.29,11.71,1.59,19.68,9.8,19.68,15.48Z"/><rect class="cls-39" x="169.59" y="548.07" width="129.5" height="46.85"/><rect class="cls-53" x="184.08" y="558.69" width="56.64" height="31.81"/><rect class="cls-51" x="187.19" y="562.05" width="49.65" height="28.45"/><rect class="cls-39" x="187.19" y="566.44" width="49.65" height="1.06"/><rect class="cls-39" x="187.19" y="569.1" width="49.65" height="1.06"/><rect class="cls-39" x="187.19" y="571.76" width="49.65" height="1.06"/><rect class="cls-39" x="187.19" y="574.42" width="49.65" height="1.06"/><rect class="cls-39" x="187.19" y="577.07" width="49.65" height="1.06"/><rect class="cls-39" x="187.19" y="579.73" width="49.65" height="1.06"/><rect class="cls-39" x="187.19" y="582.39" width="49.65" height="1.06"/><rect class="cls-39" x="187.19" y="585.05" width="49.65" height="1.06"/><rect class="cls-39" x="187.19" y="587.71" width="49.65" height="1.06"/><rect class="cls-39" x="187.19" y="563.78" width="49.65" height="1.06"/><rect class="cls-39" x="858.88" y="550.89" width="129.5" height="46.85"/><rect class="cls-53" x="917.24" y="561.51" width="56.64" height="31.81"/><rect class="cls-51" x="921.12" y="564.87" width="49.65" height="28.45"/><rect class="cls-39" x="921.12" y="569.26" width="49.65" height="1.06"/><rect class="cls-39" x="921.12" y="571.92" width="49.65" height="1.06"/><rect class="cls-39" x="921.12" y="574.57" width="49.65" height="1.06"/><rect class="cls-39" x="921.12" y="577.23" width="49.65" height="1.06"/><rect class="cls-39" x="921.12" y="579.89" width="49.65" height="1.06"/><rect class="cls-39" x="921.12" y="582.55" width="49.65" height="1.06"/><rect class="cls-39" x="921.12" y="585.21" width="49.65" height="1.06"/><rect class="cls-39" x="921.12" y="587.87" width="49.65" height="1.06"/><rect class="cls-39" x="921.12" y="590.53" width="49.65" height="1.06"/><rect class="cls-39" x="921.12" y="566.6" width="49.65" height="1.06"/><rect class="cls-53" x="875.53" y="547.81" width="114.11" height="5.35"/><path class="cls-34" d="M1080.47,543.05l-.41-3.91s46.45.15,81,.15l42,17.63-101.67-1.51Z"/><rect class="cls-50" x="1082.65" y="543.04" width="78.16" height="49.26"/><rect class="cls-51" x="1090.12" y="556.01" width="5.42" height="11.66"/><path class="cls-46" d="M1160.81,543l34.08,13.88.74,35.38h-34.82Z"/><rect class="cls-54" x="1176.89" y="579.37" width="9.32" height="12.93"/><rect class="cls-51" x="1165.54" y="579.37" width="5.94" height="5.83"/><rect class="cls-50" x="1031.28" y="567.67" width="53.86" height="24.63"/><rect class="cls-53" x="1029.47" y="564.64" width="53.17" height="3.03"/><rect class="cls-39" x="557.56" y="550.88" width="29.67" height="42.11"/><rect class="cls-53" x="164.11" y="545.25" width="134.97" height="5.64"/><rect class="cls-39" x="293.92" y="529.93" width="98.08" height="69.26"/><rect class="cls-51" x="307.5" y="549.5" width="13.51" height="13.81"/><rect class="cls-51" x="335.04" y="549.5" width="13.51" height="13.81"/><rect class="cls-51" x="307.5" y="572.63" width="13.51" height="13.81"/><rect class="cls-51" x="335.04" y="572.63" width="13.51" height="13.81"/><rect class="cls-39" x="362.48" y="564.56" width="18.37" height="34.63"/><path class="cls-34" d="M282.82,537.21H403.1l-20.79-29.75h-78.7Z"/><rect class="cls-53" x="363.28" y="497.41" width="12.06" height="13.54"/><rect class="cls-53" x="361.96" y="493.71" width="15.07" height="3.7"/><rect class="cls-39" x="1192.47" y="535.7" width="90.11" height="63.63"/><rect class="cls-51" x="1204.95" y="553.69" width="12.41" height="12.69"/><rect class="cls-51" x="1230.25" y="553.69" width="12.41" height="12.69"/><rect class="cls-51" x="1204.95" y="574.94" width="12.41" height="12.69"/><rect class="cls-51" x="1230.25" y="574.94" width="12.41" height="12.69"/><rect class="cls-39" x="1255.46" y="567.52" width="16.88" height="31.82"/><path class="cls-34" d="M1182.27,542.39h110.51l-19.1-27.33h-72.31Z"/><rect class="cls-53" x="1256.19" y="505.83" width="11.08" height="12.44"/><rect class="cls-53" x="1254.98" y="502.43" width="13.84" height="3.4"/><rect class="cls-53" x="558.27" y="549.08" width="24.24" height="2.91"/><path class="cls-46" d="M1365.06,565.2l-83.18-10.1-.16,36.36h83.34Z"/><path class="cls-34" d="M1366.36,565l-83.79-11.88v3.19l83.29,12.15Z"/><rect class="cls-39" x="682.07" y="526.89" width="89.83" height="63.44"/><rect class="cls-39" x="744.87" y="558.6" width="16.82" height="31.72"/><path class="cls-34" d="M671.91,533.55H782.08L763,506.3H691Z"/><rect class="cls-53" x="745.6" y="497.1" width="11.05" height="12.4"/><rect class="cls-53" x="744.39" y="493.71" width="13.8" height="3.39"/><path class="cls-34" d="M739.4,556.89h-4.65s22.77-32.31,22.84-32.19,4.22,2.91,4.22,2.91S738.53,557.05,739.4,556.89Z"/><path class="cls-11" d="M739.4,590.32V554.89l21.13-30.19,21.14,30.19v35.43Z"/><rect class="cls-39" x="779.95" y="554.89" width="102" height="35.43"/><rect class="cls-51" x="793.45" y="565.41" width="5.2" height="10.47"/><rect class="cls-51" x="810.9" y="565.41" width="5.2" height="10.47"/><rect class="cls-51" x="828.35" y="565.41" width="5.2" height="10.47"/><rect class="cls-51" x="845.79" y="565.41" width="5.2" height="10.47"/><rect class="cls-51" x="863.24" y="565.41" width="5.2" height="10.47"/><polygon class="cls-34" points="757.59 524.7 864.3 524.7 886.65 556.89 779.95 556.89 757.59 524.7"/><path class="cls-34" d="M530.52,500.36v-6.65s-61.85.25-107.82.25l-53.52,30,135.22-2.56Z"/><rect class="cls-39" x="422.71" y="497.91" width="107.82" height="92.4"/><rect class="cls-51" x="449.2" y="514.78" width="12.86" height="10.77"/><rect class="cls-51" x="475.67" y="514.78" width="12.86" height="10.77"/><rect class="cls-51" x="502.13" y="514.78" width="12.86" height="10.77"/><path class="cls-11" d="M422.71,497.91l-47,26-1,66.36h48Z"/><path class="cls-34" d="M562.36,541.08l.42-3.91s-46.45.14-81,.14l-42,17.64,101.68-1.51Z"/><rect class="cls-39" x="482.03" y="541.06" width="78.16" height="49.26"/><rect class="cls-51" x="547.29" y="554.03" width="5.42" height="11.66"/><path class="cls-11" d="M482,541.06,448,555l-.75,35.37H482Z"/><rect class="cls-54" x="456.62" y="577.4" width="9.32" height="12.93"/><rect class="cls-51" x="471.36" y="577.4" width="5.94" height="5.83"/><g id="Bus"><g id="Path_288" data-name="Path 288"><path class="cls-54" d="M1132.61,561.48l-1.58-2.17c0-.16-.18-.3-.36-.4a1.88,1.88,0,0,0-.7-.12h-28.52a2,2,0,0,0-.89.12c-.35.07-.52.22-.52.4l-1.41,2.17Z"/></g><g id="Path_282" data-name="Path 282"><path class="cls-37" d="M1145.32,560.86l-88.94-.15c-5.24,0-5.63-.44-5.63,4v15.34c0,3-.18,5.83-.18,7.48,0,.45-.08.53.18.74s.85.11.85.11l91.17-.11h8.28c.66,0,.61,0,.91-.3a1.18,1.18,0,0,0,.3-.76V576.58C1152.26,572.13,1150.57,560.86,1145.32,560.86Z"/></g><path class="cls-46" d="M1145.65,565.18l-1.57-2.76-93.31-.15,0,11.76c26.44,0,50,.4,76.41.4,6.33,0,17.18,3.05,24,4.15Z"/><path class="cls-40" d="M1136.92,588.27c0-.3,0-.61,0-.92,0-3.88-1.19-7.1-6-7s-6,3.15-6,7a7,7,0,0,0,.06.92Z"/><path class="cls-40" d="M1086.39,588.36a7.57,7.57,0,0,0,.06-1c0-4-1.43-7.29-7.26-7.21s-7.27,3.23-7.27,7.21a7.57,7.57,0,0,0,.06,1Z"/><g id="Ellipse_170" data-name="Ellipse 170"><ellipse class="cls-55" cx="1079.19" cy="586.54" rx="6.16" ry="4.16"/></g><g id="Ellipse_171" data-name="Ellipse 171"><ellipse class="cls-55" cx="1130.94" cy="586.54" rx="4.4" ry="4.16"/></g><g id="Path_285" data-name="Path 285"><path class="cls-39" d="M1151.15,578.22l-21.31-5.57-75.53-.23V562.34l88.56.06a7.12,7.12,0,0,1,3.17.4c1.76.9,3.17,4.29,3.88,6.79A68.17,68.17,0,0,1,1151.15,578.22Z"/></g><g id="Rectangle_872" data-name="Rectangle 872"><path class="cls-56" d="M1070.52,564.36a.94.94,0,0,0-.94-.94H1057a.94.94,0,0,0-.94.94v6a.94.94,0,0,0,.94.94h12.63a.94.94,0,0,0,.94-.94Z"/></g><g id="Rectangle_873" data-name="Rectangle 873"><path class="cls-56" d="M1086.94,564.28a.86.86,0,0,0-.87-.86H1074a.86.86,0,0,0-.87.86v6.12a.87.87,0,0,0,.87.87h12.08a.87.87,0,0,0,.87-.87Z"/></g><g id="Rectangle_874" data-name="Rectangle 874"><path class="cls-56" d="M1097.34,564.35a.93.93,0,0,0-.93-.93h-5.94a.93.93,0,0,0-.93.93v6a.94.94,0,0,0,.93.94h5.94a.94.94,0,0,0,.93-.94Z"/></g><g id="Rectangle_875" data-name="Rectangle 875"><path class="cls-56" d="M1114.72,564.12a.7.7,0,0,0-.7-.7h-13.37a.7.7,0,0,0-.71.7v6.44a.71.71,0,0,0,.71.71H1114a.7.7,0,0,0,.7-.71Z"/></g><g id="Rectangle_876" data-name="Rectangle 876"><path class="cls-56" d="M1126.77,564.36a1,1,0,0,0-1-.94h-7.55a.94.94,0,0,0-.94.94v6a.94.94,0,0,0,.94.94h7.55a1,1,0,0,0,1-.94Z"/></g><g id="Path_287" data-name="Path 287"><path class="cls-57" d="M1139,564.12c0-.32-.37-.56-1-.56-2.38,0-4.14,0-6.43,0-.41,0-.64.19-.65.58,0,2.62,0,4.88,0,7.44l8.06,2.06S1139.12,565.8,1139,564.12Z"/></g><g id="Path_286" data-name="Path 286"><path class="cls-57" d="M1144.35,563.55c-.61,0-2.25,0-3.17,0-.39,0-.66.5-.66.75,0,3.23-.06,6.45-.08,9.68l8.87,2.31a34.2,34.2,0,0,0-1.19-7.48,13.45,13.45,0,0,0-2.08-4.46A2.53,2.53,0,0,0,1144.35,563.55Z"/></g></g><g id="Bus1"><g id="Path_2881" data-name="Path 2881"><path class="cls-54" d="M336.55,561.56l1.59-2.17c0-.17.17-.3.35-.4a1.74,1.74,0,0,1,.7-.13h28.53a2,2,0,0,1,.88.13c.35.07.52.22.52.4l1.41,2.17Z"/></g><g id="Path_2821" data-name="Path 2821"><path class="cls-37" d="M323.84,560.94l88.94-.16c5.24,0,5.63-.44,5.63,4v15.34c0,3,.18,5.82.18,7.48,0,.44.08.52-.18.74s-.85.11-.85.11l-91.17-.11h-8.28c-.65,0-.6,0-.9-.31a1.11,1.11,0,0,1-.31-.75V576.66C316.9,572.2,318.59,560.94,323.84,560.94Z"/></g><path class="cls-46" d="M323.52,565.25l1.56-2.75,93.31-.16,0,11.77c-26.44,0-50,.39-76.41.39-6.32,0-17.18,3.06-24,4.16Z"/><path class="cls-40" d="M332.24,588.35c0-.31-.05-.61-.05-.92,0-3.88,1.19-7.11,6-7s6,3.15,6,7c0,.31,0,.61-.05.92Z"/><path class="cls-40" d="M382.77,588.43a7.42,7.42,0,0,1-.06-.94c0-4,1.43-7.29,7.27-7.22s7.26,3.23,7.26,7.22a7.42,7.42,0,0,1-.06.94Z"/><g id="Ellipse_1701" data-name="Ellipse 1701"><ellipse class="cls-55" cx="389.98" cy="586.61" rx="6.16" ry="4.16"/></g><g id="Ellipse_1711" data-name="Ellipse 1711"><ellipse class="cls-55" cx="338.22" cy="586.61" rx="4.4" ry="4.16"/></g><g id="Path_2851" data-name="Path 2851"><path class="cls-39" d="M318,578.29l21.31-5.56,75.53-.24V562.42l-88.56.05a7.42,7.42,0,0,0-3.17.4c-1.76.91-3.17,4.29-3.88,6.79A70.58,70.58,0,0,0,318,578.29Z"/></g><g id="Rectangle_8721" data-name="Rectangle 8721"><path class="cls-56" d="M398.64,564.43a.94.94,0,0,1,.94-.94h12.63a.94.94,0,0,1,.94.94v6a.94.94,0,0,1-.94.94H399.58a.94.94,0,0,1-.94-.94Z"/></g><g id="Rectangle_8731" data-name="Rectangle 8731"><path class="cls-56" d="M382.22,564.36a.87.87,0,0,1,.87-.87h12.08a.87.87,0,0,1,.87.87v6.12a.86.86,0,0,1-.87.86H383.09a.86.86,0,0,1-.87-.86Z"/></g><g id="Rectangle_8741" data-name="Rectangle 8741"><path class="cls-56" d="M371.82,564.43a.94.94,0,0,1,.94-.94h5.93a.94.94,0,0,1,.93.94v6a.93.93,0,0,1-.93.93h-5.93a.93.93,0,0,1-.94-.93Z"/></g><g id="Rectangle_8751" data-name="Rectangle 8751"><path class="cls-56" d="M354.44,564.2a.7.7,0,0,1,.7-.71h13.37a.71.71,0,0,1,.71.71v6.44a.7.7,0,0,1-.71.7H355.14a.7.7,0,0,1-.7-.7Z"/></g><g id="Rectangle_8761" data-name="Rectangle 8761"><path class="cls-56" d="M342.39,564.43a1,1,0,0,1,.95-.94h7.55a1,1,0,0,1,.95.94v6a1,1,0,0,1-.95.94h-7.55a1,1,0,0,1-.95-.94Z"/></g><g id="Path_2871" data-name="Path 2871"><path class="cls-57" d="M330.2,564.2c0-.33.37-.56,1-.56,2.38,0,4.14,0,6.43,0,.41,0,.64.19.65.59,0,2.61,0,4.88,0,7.44l-8.06,2.06S330,565.87,330.2,564.2Z"/></g><g id="Path_2861" data-name="Path 2861"><path class="cls-57" d="M324.81,563.63c.61,0,2.25,0,3.17,0,.39,0,.66.5.66.75q0,4.83.08,9.68l-8.87,2.3a34.81,34.81,0,0,1,1.19-7.47,13.35,13.35,0,0,1,2.08-4.46A2.55,2.55,0,0,1,324.81,563.63Z"/></g></g><path class="cls-34" d="M669.62,458.72l24.88,26.14v10.71H578.28v-8.82Z"/><path class="cls-46" d="M694.5,490.75l-26.45-27.31-89.77,27.31V599.19H694.5Z"/><rect class="cls-51" x="601.75" y="505.67" width="12.57" height="11.95"/><rect class="cls-51" x="629.47" y="505.67" width="12.73" height="11.95"/><rect class="cls-51" x="605.99" y="550.33" width="16.65" height="18.28"/><rect class="cls-51" x="644.74" y="550.05" width="28.03" height="49.13"/><path class="cls-6" d="M1341.66,563.69h-3.88s19-26.88,19-26.79,3.52,2.42,3.52,2.42S1340.93,563.82,1341.66,563.69Z"/><path class="cls-11" d="M1341.65,591.51V562l17.59-25.13L1376.83,562v29.48Z"/><rect class="cls-39" x="1375.39" y="562.03" width="84.88" height="29.49"/><rect class="cls-51" x="1386.63" y="570.78" width="4.33" height="8.71"/><rect class="cls-51" x="1401.15" y="570.78" width="4.33" height="8.71"/><rect class="cls-51" x="1415.67" y="570.78" width="4.33" height="8.71"/><rect class="cls-51" x="1430.19" y="570.78" width="4.33" height="8.71"/><rect class="cls-51" x="1444.71" y="570.78" width="4.33" height="8.71"/><rect class="cls-51" x="1350.9" y="578.84" width="12.71" height="12.68"/><polygon class="cls-34" points="1356.79 536.9 1445.59 536.9 1464.19 563.69 1375.39 563.69 1356.79 536.9"/></g><g id="front-line"><rect class="cls-58" y="589.94" width="1500" height="18.8"/></g></g></g></svg>