<?xml version="1.0" encoding="utf-8"?>
<!-- Generator: Adobe Illustrator 27.9.4, SVG Export Plug-In . SVG Version: 9.03 Build 54784)  -->
<svg version="1.1" id="Calque_1" xmlns="http://www.w3.org/2000/svg" xmlns:xlink="http://www.w3.org/1999/xlink" x="0px" y="0px"
	 viewBox="0 0 32 32" enable-background="new 0 0 32 32" xml:space="preserve">
<g transform="translate(1.488 6.767)">
	<path fill="#00C1FF" d="M0,9.587l16.188,10.105L29.703,9.587L13.192,1.429L0,9.587z"/>
</g>
<path fill="#00B41A" d="M8.73,14.604l4.8,3.326v-6.566l-4.8-2.883V14.604z"/>
<path fill="#00580D" d="M9.214,11.955l0.847,0.508V10.69l-0.847-0.521V11.955z"/>
<path fill="#00580D" d="M11.885,13.347l0.988,0.611V12.2l-0.988-0.587V13.347z"/>
<path fill="#006117" d="M13.536,17.933l4.942-4.146l0.188-5.928l-5.13,3.556L13.536,17.933z"/>
<path fill="#02FF26" d="M8.483,8.042l5.1,3.021l5.132-3.662L13.583,4.88L8.483,8.042z"/>
<path fill="#00B41A" d="M9.314,8.042l4.191-2.636l4.246,2.1l-4.246,2.945L9.314,8.042z"/>
<path fill="#0071A9" d="M13.543,17.94l4.948-4.145l0.053-1.681l-4.995,3.778L13.543,17.94z"/>
<path fill="#0089CF" d="M8.743,14.614l4.8,3.326l0.007-2.048l-4.815-2.897L8.743,14.614z"/>
<path fill="#0071A9" d="M12.534,18.666l1.061-0.773l-4.896-3.345l-1.1,0.828L12.534,18.666z"/>
<path fill="#73D0FF" d="M8.722,12.986l-1.18,0.963l4.819,3.037l1.189-1.094L8.722,12.986z"/>
<path fill="#00B41A" d="M15.73,18.604l4.8,3.326v-6.566l-4.8-2.883V18.604z"/>
<path fill="#00580D" d="M16.214,15.955l0.847,0.508V14.69l-0.847-0.521V15.955z"/>
<path fill="#00580D" d="M18.885,17.347l0.988,0.611V16.2l-0.988-0.587V17.347z"/>
<path fill="#006117" d="M20.536,21.933l4.942-4.146l0.169-5.877l-5.111,3.505L20.536,21.933z"/>
<path fill="#02FF26" d="M15.483,12.042l5.1,3.021l5.184-3.678L20.583,8.88L15.483,12.042z"/>
<path fill="#00B41A" d="M16.314,12.042l4.191-2.636l4.246,2.1l-4.246,2.945L16.314,12.042z"/>
<path fill="#0071A9" d="M19.534,22.666l1.061-0.773l-4.896-3.345l-1.1,0.828L19.534,22.666z"/>
<path fill="#0071A9" d="M20.53,21.931l4.948-4.145l0.053-1.681l-4.995,3.778L20.53,21.931z"/>
<path fill="#0089CF" d="M15.73,18.604l4.8,3.326l0.007-2.048l-4.815-2.896L15.73,18.604z"/>
<path fill="#73D0FF" d="M15.722,16.986l-1.18,0.963l4.837,3.119l1.149-1.189L15.722,16.986z"/>
<path fill="#08961C" d="M8.73,8.706l-0.266-0.7l5.07,3.052v0.622L8.73,8.706z"/>
<path fill="#08961C" d="M15.73,12.706l-0.247-0.664l5.051,2.977l0.001,0.576L15.73,12.706z"/>
<path fill="#024412" d="M13.534,11.019l5.233-3.633l-0.119,0.523l-5.113,3.686L13.534,11.019z"/>
<path fill="#024412" d="M20.534,15.019l5.233-3.633l-0.119,0.523l-5.113,3.686L20.534,15.019z"/>
</svg>
