<svg xmlns="http://www.w3.org/2000/svg" xmlns:xlink="http://www.w3.org/1999/xlink" width="36" height="36" viewBox="0 0 36 36">
  <defs>
    <clipPath id="clip-Beverages">
      <rect width="36" height="36"/>
    </clipPath>
  </defs>
  <g id="Beverages" clip-path="url(#clip-Beverages)">
    <g id="ResourceBeverages" transform="translate(11.897 3.516)">
      <g id="Group_211" data-name="Group 211" transform="translate(0)">
        <path id="Path_562" data-name="Path 562" d="M.256-36.129a2.881,2.881,0,0,1,.737-1.3A15.1,15.1,0,0,0,2.626-40.06a7.511,7.511,0,0,0,.687-3.479v-3.088a10.369,10.369,0,0,1,2.573-.417,12.623,12.623,0,0,1,2.739.417v3.088a9.289,9.289,0,0,0,.643,3.479,11.1,11.1,0,0,0,1.541,2.547c.682.792.669.666,1,1.385a3.874,3.874,0,0,1,.313,1.491v12.675a2.85,2.85,0,0,1-.207,1.456c-.31.484-.134.436-.945.881a11.71,11.71,0,0,1-5.082,1.252A7.94,7.94,0,0,1,.824-19.588c-.613-.425-.519-.251-.74-.823a4.046,4.046,0,0,1-.142-1.467V-34.508A6.749,6.749,0,0,1,.256-36.129Z" transform="translate(0.071 47.329)" fill="#d1d3d6"/>
        <path id="Path_563" data-name="Path 563" d="M5487.44-5983.909a10.8,10.8,0,0,1-.912,2.5c-.654,1.256-1.179.94-1.708,2.526s-.535,15.192-.535,15.192a8.414,8.414,0,0,0,5.205,1.676,9.99,9.99,0,0,0,5.428-2.01s.3-13.488-.228-14.858-1.463-1.27-2.279-2.526a6.8,6.8,0,0,1-.985-2.5,6.59,6.59,0,0,0-1.936-.333A7.9,7.9,0,0,0,5487.44-5983.909Z" transform="translate(-5483.506 5990.258)" fill="#f38d33"/>
        <path id="Path_564" data-name="Path 564" d="M5489.723-5983.451s-.25-13.4,0-15.165a4.9,4.9,0,0,1,1-2.558,4.129,4.129,0,0,0,1.53-2.825,25.839,25.839,0,0,0,0-5.67l1.61-.274a35.927,35.927,0,0,1,0,6.18,5.033,5.033,0,0,1-1.309,3.138,5.374,5.374,0,0,0-.739,2.5c-.014,1.35,0,15.36,0,15.36a4.189,4.189,0,0,1-1.092-.178A4.4,4.4,0,0,1,5489.723-5983.451Z" transform="translate(-5488.166 6011.177)" fill="#fff" opacity="0.76"/>
        <path id="Path_565" data-name="Path 565" d="M5520.077-5947.928s.351-14.1,0-15.621-1.271-2.16-1.7-2.108-.145.724,0,2.315,0,16.188,0,16.188a7.821,7.821,0,0,0,1.025-.352A2.732,2.732,0,0,0,5520.077-5947.928Z" transform="translate(-5509.52 5975.134)" fill="#f9b273"/>
        <path id="Path_566" data-name="Path 566" d="M5494.467-6013.436a6.565,6.565,0,0,1,2.912-.4,16.466,16.466,0,0,1,3.427.4v-2.646a7.256,7.256,0,0,0-3-.492,9.191,9.191,0,0,0-3.334.492Z" transform="translate(-5491.62 6016.574)" fill="#22bdda"/>
      </g>
      <ellipse id="Ellipse_251" data-name="Ellipse 251" cx="0.89" cy="0.8" rx="0.89" ry="0.8" transform="translate(6.123 22.313)" fill="#fff" opacity="0.4"/>
      <ellipse id="Ellipse_252" data-name="Ellipse 252" cx="0.89" cy="0.8" rx="0.89" ry="0.8" transform="translate(4.342 20.026)" fill="#fff" opacity="0.4"/>
      <ellipse id="Ellipse_253" data-name="Ellipse 253" cx="0.89" cy="0.8" rx="0.89" ry="0.8" transform="translate(6.123 14.767)" fill="#fff" opacity="0.4"/>
    </g>
  </g>
</svg>
