<svg xmlns="http://www.w3.org/2000/svg" xmlns:xlink="http://www.w3.org/1999/xlink" width="36" height="36" viewBox="0 0 36 36">
  <defs>
    <clipPath id="clip-ConvenienceFood">
      <rect width="36" height="36"/>
    </clipPath>
  </defs>
  <g id="ConvenienceFood" clip-path="url(#clip-ConvenienceFood)">
    <g id="ResourceConvenienceFood" transform="translate(3.873 9.449)">
      <path id="Path_606" data-name="Path 606" d="M5591-6057.58l7.66-14.219a3.3,3.3,0,0,1,.9-1.023,3.527,3.527,0,0,1,1.308-.477h16.583s1.112-.137,1.519.3,0,1.2,0,1.2l-4.984,14.33a1.109,1.109,0,0,1-.716.857,4.4,4.4,0,0,1-1.015.4h-20.352s-.679-.055-.905-.4S5591-6057.58,5591-6057.58Z" transform="translate(-5590.901 6073.318)" fill="#b8b8b8"/>
      <path id="Path_607" data-name="Path 607" d="M5591.372-6066.676l3.162-6.1a1.483,1.483,0,0,1,.385-.468,1.439,1.439,0,0,1,.558-.218l6.709-.051s.474-.062.647.138,0,.548,0,.548l-2.675,6.156a.507.507,0,0,1-.306.392,1.785,1.785,0,0,1-.433.181l-7.662.051s-.29-.025-.386-.181A.653.653,0,0,1,5591.372-6066.676Z" transform="translate(-5585.882 6074.205)" fill="#555252"/>
      <path id="Path_609" data-name="Path 609" d="M5590.948-6066.119l3.574-6.5a1.519,1.519,0,0,1,.421-.468,1.669,1.669,0,0,1,.61-.218H5613.1s.519-.062.708.138,0,.548,0,.548l-2.292,6.377s-.009.236-.334.392a2.083,2.083,0,0,1-.474.181l-19.339.177s-.317-.025-.422-.181S5590.948-6066.119,5590.948-6066.119Z" transform="translate(-5589.687 6081.818)" fill="#555252"/>
      <path id="Path_608" data-name="Path 608" d="M5588.192-6066.433l2.687-6.139a1.474,1.474,0,0,1,.336-.468,1.162,1.162,0,0,1,.488-.218l7.592-.051s.415-.062.566.138,0,.548,0,.548l-2.261,6.189a.514.514,0,0,1-.267.393,1.452,1.452,0,0,1-.378.181l-8.425.051s-.253-.025-.337-.181A.739.739,0,0,1,5588.192-6066.433Z" transform="translate(-5572.657 6074.046)" fill="#555252"/>
      <path id="Path_610" data-name="Path 610" d="M5623.873-6061.821l3.345-.664,2-3.515a2.721,2.721,0,0,0,0-1.663c-.324-.582-.668-.573-1.3-.664a1.981,1.981,0,0,0-1.217.3l-.571-.472a3.108,3.108,0,0,0-1.049.173.711.711,0,0,0-.4.525,2.2,2.2,0,0,0-1.18-.226c-.477.118-.614.574-.726.7a12.924,12.924,0,0,0-.571,1.33,7.688,7.688,0,0,0-1.237,1.327c-.309.529,0,.789,0,.789l-.8.944.249.769Z" transform="translate(-5613.571 6069.669)" fill="#1f7705"/>
      <circle id="Ellipse_266" data-name="Ellipse 266" cx="0.486" cy="0.486" r="0.486" transform="translate(8.281 4.449)" fill="#2ba607"/>
      <circle id="Ellipse_272" data-name="Ellipse 272" cx="0.486" cy="0.486" r="0.486" transform="matrix(0.809, 0.588, -0.588, 0.809, 10.4, 3.14)" fill="#2ba607"/>
      <circle id="Ellipse_274" data-name="Ellipse 274" cx="0.486" cy="0.486" r="0.486" transform="matrix(0.809, 0.588, -0.588, 0.809, 11.129, 2.169)" fill="#2ba607"/>
      <circle id="Ellipse_275" data-name="Ellipse 275" cx="0.486" cy="0.486" r="0.486" transform="matrix(0.809, 0.588, -0.588, 0.809, 12.1, 1.683)" fill="#2ba607"/>
      <circle id="Ellipse_276" data-name="Ellipse 276" cx="0.486" cy="0.486" r="0.486" transform="matrix(0.809, 0.588, -0.588, 0.809, 10.886, 0.954)" fill="#2ba607"/>
      <circle id="Ellipse_269" data-name="Ellipse 269" cx="0.486" cy="0.486" r="0.486" transform="translate(9.495 4.449)" fill="#2ba607"/>
      <circle id="Ellipse_271" data-name="Ellipse 271" cx="0.486" cy="0.486" r="0.486" transform="matrix(0.809, 0.588, -0.588, 0.809, 11.14, 6.04)" fill="#2ba607"/>
      <circle id="Ellipse_280" data-name="Ellipse 280" cx="0.486" cy="0.486" r="0.486" transform="matrix(0.809, 0.588, -0.588, 0.809, 12.354, 5.311)" fill="#2ba607"/>
      <circle id="Ellipse_278" data-name="Ellipse 278" cx="0.486" cy="0.486" r="0.486" transform="matrix(0.809, 0.588, -0.588, 0.809, 12.597, 2.64)" fill="#2ba607"/>
      <circle id="Ellipse_279" data-name="Ellipse 279" cx="0.486" cy="0.486" r="0.486" transform="matrix(0.809, 0.588, -0.588, 0.809, 13.568, 3.611)" fill="#2ba607"/>
      <circle id="Ellipse_267" data-name="Ellipse 267" cx="0.486" cy="0.486" r="0.486" transform="translate(7.795 5.177)" fill="#2ba607"/>
      <circle id="Ellipse_273" data-name="Ellipse 273" cx="0.486" cy="0.486" r="0.486" transform="matrix(0.809, 0.588, -0.588, 0.809, 9.579, 3.201)" fill="#2ba607"/>
      <circle id="Ellipse_268" data-name="Ellipse 268" cx="0.486" cy="0.486" r="0.486" transform="translate(9.01 5.177)" fill="#2ba607"/>
      <circle id="Ellipse_282" data-name="Ellipse 282" cx="0.486" cy="0.486" r="0.486" transform="translate(9.495 5.906)" fill="#2ba607"/>
      <circle id="Ellipse_270" data-name="Ellipse 270" cx="0.486" cy="0.486" r="0.486" transform="matrix(0.809, 0.588, -0.588, 0.809, 11.29, 3.186)" fill="#2ba607"/>
      <circle id="Ellipse_284" data-name="Ellipse 284" cx="0.486" cy="0.486" r="0.486" transform="matrix(0.809, 0.588, -0.588, 0.809, 12.261, 3.429)" fill="#2ba607"/>
      <circle id="Ellipse_283" data-name="Ellipse 283" cx="0.486" cy="0.486" r="0.486" transform="matrix(0.809, 0.588, -0.588, 0.809, 12.018, 4.401)" fill="#2ba607"/>
      <circle id="Ellipse_277" data-name="Ellipse 277" cx="0.486" cy="0.486" r="0.486" transform="matrix(0.809, 0.588, -0.588, 0.809, 11.047, 4.158)" fill="#2ba607"/>
      <circle id="Ellipse_281" data-name="Ellipse 281" cx="0.486" cy="0.486" r="0.486" transform="matrix(0.809, 0.588, -0.588, 0.809, 11.047, 5.129)" fill="#2ba607"/>
      <circle id="Ellipse_285" data-name="Ellipse 285" cx="0.486" cy="0.486" r="0.486" transform="matrix(0.809, 0.588, -0.588, 0.809, 10.804, 3.429)" fill="#4dce28"/>
      <circle id="Ellipse_292" data-name="Ellipse 292" cx="0.486" cy="0.486" r="0.486" transform="matrix(0.809, 0.588, -0.588, 0.809, 11.776, 4.886)" fill="#4dce28"/>
      <circle id="Ellipse_290" data-name="Ellipse 290" cx="0.486" cy="0.486" r="0.486" transform="matrix(0.809, 0.588, -0.588, 0.809, 12.504, 3.915)" fill="#4dce28"/>
      <circle id="Ellipse_286" data-name="Ellipse 286" cx="0.486" cy="0.486" r="0.486" transform="matrix(0.809, 0.588, -0.588, 0.809, 10.318, 4.401)" fill="#4dce28"/>
      <circle id="Ellipse_287" data-name="Ellipse 287" cx="0.486" cy="0.486" r="0.486" transform="matrix(0.809, 0.588, -0.588, 0.809, 11.047, 4.158)" fill="#4dce28"/>
      <circle id="Ellipse_288" data-name="Ellipse 288" cx="0.486" cy="0.486" r="0.486" transform="matrix(0.809, 0.588, -0.588, 0.809, 11.776, 2.701)" fill="#4dce28"/>
      <circle id="Ellipse_291" data-name="Ellipse 291" cx="0.486" cy="0.486" r="0.486" transform="matrix(0.809, 0.588, -0.588, 0.809, 12.99, 2.943)" fill="#4dce28"/>
      <circle id="Ellipse_289" data-name="Ellipse 289" cx="0.486" cy="0.486" r="0.486" transform="matrix(0.809, 0.588, -0.588, 0.809, 10.318, 2.458)" fill="#4dce28"/>
      <g id="Group_223" data-name="Group 223" transform="matrix(0.995, -0.105, 0.105, 0.995, 19.296, 4.94)">
        <path id="Path_526" data-name="Path 526" d="M.031,2.481C-.223,2.227,1.147.565,1.892.126A.726.726,0,0,1,2.906,1.145C2.406,1.8.284,2.736.031,2.481Z" transform="translate(0 0)" fill="#905109"/>
      </g>
      <g id="Group_225" data-name="Group 225" transform="matrix(0.995, -0.105, 0.105, 0.995, 21.372, 4.708)">
        <path id="Path_526-2" data-name="Path 526" d="M.029,2.54C-.225,2.285,1.257.565,2,.126A.726.726,0,0,1,3.017,1.145C2.516,1.8.282,2.794.029,2.54Z" transform="translate(0 0)" fill="#7e4300"/>
      </g>
      <g id="Group_226" data-name="Group 226" transform="matrix(0.995, -0.105, 0.105, 0.995, 20.713, 2.784)">
        <path id="Path_526-3" data-name="Path 526" d="M0,3.055A12.919,12.919,0,0,1,2.178.126.726.726,0,0,1,3.192,1.145,14.709,14.709,0,0,1,0,3.055Z" transform="translate(0 0)" fill="#fc9e32"/>
      </g>
      <g id="Group_224" data-name="Group 224" transform="matrix(0.995, -0.105, 0.105, 0.995, 17.444, 1.866)">
        <path id="Path_526-4" data-name="Path 526" d="M.043,2.523C-.21,2.268.7.565,1.441.126A.726.726,0,0,1,2.455,1.145C1.954,1.8.3,2.777.043,2.523Z" transform="matrix(0.914, 0.407, -0.407, 0.914, 1.251, 2.607)" fill="#7d470a"/>
        <path id="Path_613" data-name="Path 613" d="M.038,2.595C-.216,2.34.868.565,1.613.126A.726.726,0,0,1,2.627,1.145C2.126,1.8.291,2.849.038,2.595Z" transform="matrix(0.914, 0.407, -0.407, 0.914, 3.56, 2.308)" fill="#fc9e32"/>
        <path id="Path_615" data-name="Path 615" d="M0,3.055A12.919,12.919,0,0,1,2.178.126.726.726,0,0,1,3.192,1.145,14.709,14.709,0,0,1,0,3.055Z" transform="matrix(0.914, 0.407, -0.407, 0.914, 2.497, 0.311)" fill="#fc9e32"/>
        <path id="Path_611" data-name="Path 611" d="M.024,2.313C-.171,2.1.876.465,1.45.1a.579.579,0,0,1,.781.839C1.846,1.484.219,2.523.024,2.313Z" transform="matrix(0.819, -0.574, 0.574, 0.819, 0, 2.616)" fill="#fc9e32"/>
        <path id="Path_612" data-name="Path 612" d="M.014,2.265C-.181,2.055,1.7.465,2.274.1a.579.579,0,0,1,.781.839C2.669,1.484.209,2.475.014,2.265Z" transform="matrix(0.985, 0.174, -0.174, 0.985, 5.418, 0.579)" fill="#fc9e32"/>
        <path id="Path_614" data-name="Path 614" d="M.026,2.143C-.17,1.934.792.465,1.366.1a.579.579,0,0,1,.781.839C1.761,1.484.221,2.353.026,2.143Z" transform="matrix(0.985, 0.174, -0.174, 0.985, 3.948, 0)" fill="#fdc584"/>
      </g>
      <path id="Path_616" data-name="Path 616" d="M5614.409-6107.53a2.948,2.948,0,0,1,.252-1.766,2.426,2.426,0,0,1,1.477-.784s-.158-1.115.433-1.618a2.172,2.172,0,0,1,1.93-.394c.642.128.638.909.638.909a3.294,3.294,0,0,0,1.568-.515c.591-.46-.055-.919.8-1.324a4.193,4.193,0,0,1,2.612-.294c.824.166,1.16,1.225,1.16,1.225l1.047-.269a6.044,6.044,0,0,1,.658-1.5,3.518,3.518,0,0,1,1.3-1c.415-.221,1.2.268,1.75.728a1.26,1.26,0,0,1,.433,1.111,2.566,2.566,0,0,1,1.524.662,3.791,3.791,0,0,1,.727,1.74s.176,2.188-.546,3.09-2.342.515-2.342.515a12.039,12.039,0,0,1-2.841.589,1.635,1.635,0,0,1-1.432-.589,5.9,5.9,0,0,1-1.726.32,4.991,4.991,0,0,1-1.637-.32,13.246,13.246,0,0,1-2.5.32,6.441,6.441,0,0,1-2-.32,1.933,1.933,0,0,1-1.34.589,3.8,3.8,0,0,1-1.933-.589C5613.925-6107.292,5614.409-6107.53,5614.409-6107.53Z" transform="translate(-5610.48 6122.167)" fill="#cfc2a0"/>
    </g>
  </g>
</svg>
