<svg xmlns="http://www.w3.org/2000/svg" xmlns:xlink="http://www.w3.org/1999/xlink" width="40" height="40" viewBox="0 0 40 40"><defs><clipPath id="b"><rect width="40" height="40"/></clipPath></defs><g id="a"><circle cx="7" cy="7" r="7" transform="translate(7 15)" fill="#d9e2e9"/><circle cx="7" cy="7" r="7" transform="translate(19 15)" fill="#d9e2e9"/><path d="M-806.257-369.252s2.064-2.889,0-4.676-7.032-2.2-7.032-2.2-.724,2.919,1.054,4.205,4.833.671,4.833.671Z" transform="translate(825.34 402.212)" fill="#7ab966"/><path d="M-812.518-369.252s-2.064-2.889,0-4.676,7.032-2.2,7.032-2.2.724,2.919-1.054,4.205-4.833.671-4.833.671Z" transform="translate(833.435 402.212)" fill="#7ab966"/><path d="M-798.05-364.538h-2.421l.3-4.477s-2.023-2.923-1.751-5.623,2.838-5.175,2.838-5.175,2.952,2.476,3.141,5.175-2.384,5.623-2.384,5.623Z" transform="translate(819.082 399.814)" fill="#7ab966"/><circle cx="7" cy="7" r="7" transform="translate(13 8)" fill="#e3ebf2"/></g></svg>