<svg xmlns="http://www.w3.org/2000/svg" xmlns:xlink="http://www.w3.org/1999/xlink" width="32" height="32" viewBox="0 0 32 32"><defs><clipPath id="a"><rect width="32" height="32" transform="translate(0 0.396)"/></clipPath><clipPath id="c"><rect width="32" height="32"/></clipPath></defs><g id="b"><g transform="translate(0 -0.396)"><g transform="translate(5.697 4.66)"><path d="M9915.938,60.329l-13.2-3.764a5.422,5.422,0,0,0-4.105,2.848c-1.054,2.492.041,3.316.444,3.56a8.109,8.109,0,0,0,1.037.491,3.246,3.246,0,0,0,.362,2.243,2.37,2.37,0,0,0,2.262,1.212,3.029,3.029,0,0,0,1.9-.465,2.971,2.971,0,0,1,1.086-2.6c1.265-.836,9.443-2.559,9.443-2.559Z" transform="translate(-9898.19 -53.494)" fill="#c0c538"/><path d="M.3,0H13.02V11.935a2.036,2.036,0,0,1-2.12,1.943H2.12A2.036,2.036,0,0,1,0,11.935V.278A.291.291,0,0,1,.3,0Z" transform="translate(4.178 7.475)" fill="#72695f"/><path d="M.323.373,14.728,0,14.7.841a2.171,2.171,0,0,1-2.155,2.016l-10.5.272a1.878,1.878,0,0,1-1.434-.5A1.93,1.93,0,0,1,0,1.221L.015.66A.31.31,0,0,1,.323.373Z" transform="translate(18.621 7.759) rotate(-161)" fill="#72695f"/><rect width="0.909" height="10.974" rx="0.37" transform="translate(5.087 8.99)" fill="#564838"/><rect width="0.909" height="10.974" rx="0.37" transform="translate(15.381 8.99)" fill="#564838"/><rect width="1.514" height="10.974" rx="0.617" transform="translate(12.05 8.99)" fill="#564838"/><rect width="1.514" height="10.974" rx="0.617" transform="translate(8.114 8.99)" fill="#564838"/></g></g></g></svg>