<svg xmlns="http://www.w3.org/2000/svg" xmlns:xlink="http://www.w3.org/1999/xlink" width="36" height="36" viewBox="0 0 36 36">
  <defs>
    <clipPath id="clip-Livestock">
      <rect width="36" height="36"/>
    </clipPath>
  </defs>
  <g id="Livestock" clip-path="url(#clip-Livestock)">
    <path id="Path_2927" data-name="Path 2927" d="M-744.054-362.188v2.931s-3.73,1.508-3.02,2.011,4.885.5,6.177,0-1.009-2.011-1.009-2.011l-.59-3.294Z" transform="translate(763.784 390.638)" fill="#ea912b"/>
    <path id="Path_2928" data-name="Path 2928" d="M-744.054-362.188v2.931s-3.73,1.508-3.02,2.011,4.885.5,6.177,0-1.009-2.011-1.009-2.011l-.59-3.294Z" transform="translate(757.448 389.638)" fill="#ea912b"/>
    <path id="Path_2926" data-name="Path 2926" d="M-753.251-384.474s-.218-2.485.412-3.068,1.7.734,1.7.734,1.124-1.6,1.558-1.6.59,1.6.59,1.6,2.2-1.73,2.2-.734-2.2,4.715-2.2,4.715Z" transform="translate(761.98 390.638)" fill="#c23501"/>
    <path id="Path_2924" data-name="Path 2924" d="M-753.566-382.061s-3.228,9.029,0,13.466,6.386,6.407,11.286,6.407,9.628-1.868,11.84-5.487.863-10.439,0-13.481-1.6.075-2.73,1.206-.071,2.262-1.773,3.317-5.758,1.01-5.758,1.01-3.138-.305-4.707-1.915-1.569-4.524-1.569-4.524a3.249,3.249,0,0,0-3.562-2.8C-753.786-384.76-753.566-382.061-753.566-382.061Z" transform="translate(760.989 390.638)" fill="#f2f1e2"/>
    <path id="Path_2925" data-name="Path 2925" d="M-753.8-381.221c-1.283-.13-3.933,2.011-3.933,2.011s1.551,2.059,3.246,2.059,2.79-2.392,2.79-2.392S-752.517-381.09-753.8-381.221Z" transform="translate(761.98 390.865)" fill="#ea912b"/>
    <ellipse id="Ellipse_768" data-name="Ellipse 768" cx="0.5" cy="1" rx="0.5" ry="1" transform="translate(10.98 8.638)"/>
  </g>
</svg>
