<svg xmlns="http://www.w3.org/2000/svg" xmlns:xlink="http://www.w3.org/1999/xlink" width="36" height="36" viewBox="0 0 36 36">
  <defs>
    <clipPath id="clip-Machinery">
      <rect width="36" height="36"/>
    </clipPath>
  </defs>
  <g id="Machinery" clip-path="url(#clip-Machinery)">
    <g id="ResourceMachinery" transform="translate(4.117 4.045)">
      <path id="Icon_ionic-ios-settings" data-name="Icon ionic-ios-settings" d="M19.1,12.582s.543-1.637,1.314-1.941a8.316,8.316,0,0,0-.982-2.4,2.022,2.022,0,0,1-2.28-.425A2.106,2.106,0,0,1,16.731,5.5a8.025,8.025,0,0,0-2.362-1c-.294.779-1.911,1.334-1.911,1.334S10.841,5.279,10.547,4.5a8.05,8.05,0,0,0-2.367,1c.336.762-.423,2.315-.423,2.315a3.889,3.889,0,0,1-1.446.606,1.982,1.982,0,0,1-.833-.181A8.5,8.5,0,0,0,4.5,10.646c.767.3,1.314,1.941,1.314,1.941s-.543,1.637-1.31,1.941a8.316,8.316,0,0,0,.982,2.4,2.039,2.039,0,0,1,.829-.177,3.889,3.889,0,0,1,1.446.606s.754,1.549.423,2.311a8.1,8.1,0,0,0,2.367,1c.294-.779,1.907-1.33,1.907-1.33s1.612.551,1.907,1.33a8.049,8.049,0,0,0,2.367-1c-.332-.762.374-2.3.374-2.3a4.175,4.175,0,0,1,1.5-.615,2.025,2.025,0,0,1,.829.177,8.365,8.365,0,0,0,.982-2.4C19.648,14.224,19.1,12.582,19.1,12.582Z" transform="translate(-4.5 7.241)" fill="#adc3ce"/>
      <path id="Icon_ionic-ios-settings-2" data-name="Icon ionic-ios-settings" d="M13.332,7.244s.508-1.48,1.214-1.759a7.305,7.305,0,0,0-.877-2.158,1.909,1.909,0,0,1-.761.17,1.834,1.834,0,0,1-1.315-.534A1.865,1.865,0,0,1,11.226.88,7.233,7.233,0,0,0,9.078,0C8.8.7,7.325,1.218,7.325,1.218S5.855.731,5.592.031A7.534,7.534,0,0,0,3.426.95c.3.684-.4,2.09-.4,2.09A3.639,3.639,0,0,1,1.7,3.6a1.807,1.807,0,0,1-.759-.156A7.752,7.752,0,0,0,.027,5.619c.7.263,1.183,1.738,1.183,1.738S.7,8.837,0,9.117a7.305,7.305,0,0,0,.877,2.158,1.9,1.9,0,0,1,.758-.166,3.5,3.5,0,0,1,1.315.534s.676,1.39.367,2.079a7.3,7.3,0,0,0,2.151.88c.275-.7,1.75-1.214,1.75-1.214s1.466.484,1.729,1.183a7.533,7.533,0,0,0,2.167-.918c-.3-.684.359-2.078.359-2.078a3.907,3.907,0,0,1,1.369-.566,1.847,1.847,0,0,1,.755.153,7.629,7.629,0,0,0,.915-2.174C13.818,8.719,13.332,7.244,13.332,7.244Z" transform="translate(8.809 5.449) rotate(-22)" fill="#96acb7"/>
      <ellipse id="Ellipse_261" data-name="Ellipse 261" cx="3.826" cy="3.968" rx="3.826" ry="3.968" transform="translate(4.129 15.768)" fill="#758187"/>
      <path id="Path_571" data-name="Path 571" d="M3.615,0a3.539,3.539,0,0,1,3.55,3.617A3.7,3.7,0,0,1,3.55,7.3,3.539,3.539,0,0,1,0,3.681,3.7,3.7,0,0,1,3.615,0Z" transform="translate(13.49 7.396) rotate(-22)" fill="#758187"/>
    </g>
  </g>
</svg>
