<svg xmlns="http://www.w3.org/2000/svg" xmlns:xlink="http://www.w3.org/1999/xlink" width="36" height="36" viewBox="0 0 36 36">
  <defs>
    <clipPath id="clip-Plastics">
      <rect width="36" height="36"/>
    </clipPath>
  </defs>
  <g id="Plastics" clip-path="url(#clip-Plastics)">
    <g id="ResourcePlastics" transform="translate(7.882 3.59)">
      <path id="Path_572" data-name="Path 572" d="M.427,24.832C.114,24.5,0,22.4,0,19.713c0-.3.794-.474.8-.85,0-.219-.789-.635-.786-.937.02-1.567.067-3.236.125-4.839.01-.269.648-.4.661-.728.01-.242-.607-.673-.593-.981C.291,9.313.387,7.634.427,7.186c.134-1.5,1.924-1.339,2.7-3.012S3.4,1.09,3.893.669A4.412,4.412,0,0,1,6.791,0C8.347,0,9.217.158,9.617.618S9.5,2.5,10.369,4.174s2.472,1.381,2.869,3.012a35.933,35.933,0,0,1,.271,4.455c.007.262-.458.638-.451.977,0,.217.481.4.485.7.026,1.6.034,3.347.021,5.043,0,.278-.5.528-.507.864,0,.195.492.475.487.738a28.242,28.242,0,0,1-.307,4.866C12.755,26,9.994,26.09,6.791,26.09S1.317,25.778.427,24.832Z" transform="translate(7.191 0) rotate(16)" fill="#75a4ff"/>
      <ellipse id="Ellipse_262" data-name="Ellipse 262" cx="5.386" cy="1.316" rx="5.386" ry="1.316" transform="translate(2.185 22.297) rotate(16)" fill="#3564a3"/>
      <path id="Path_573" data-name="Path 573" d="M.681.045A4.635,4.635,0,0,0,.08,2.37,4.392,4.392,0,0,0,.252,4.924a6.811,6.811,0,0,0,3.427,0c.464-.285.106-1.182.22-2.4S4.33.64,4.11.238C4,.04,3.139.1,2.3.115,1.582.127.834-.091.681.045Z" transform="translate(7.01 6.973) rotate(16)" fill="#fff" opacity="0.42"/>
      <path id="Path_576" data-name="Path 576" d="M1.471.2A8.494,8.494,0,0,1,1.7,2.322a10.117,10.117,0,0,1-.069,2.5c-.109.293-1.2.279-1.391,0a9.62,9.62,0,0,1-.09-2.355A17.014,17.014,0,0,1,.026.215C.067.038.407,0,.761,0,1.033,0,1.4.052,1.471.2Z" transform="translate(15.256 9.546) rotate(16)" fill="#fff" opacity="0.26"/>
      <path id="Path_574" data-name="Path 574" d="M.492.25C.19.514.225,1.337.08,2.537A4.255,4.255,0,0,0,.252,5.05a6.915,6.915,0,0,0,3.427,0c.464-.28.106-1.163.22-2.363A5.629,5.629,0,0,0,3.9.25C3.679-.146.794-.014.492.25Z" transform="translate(4.969 12.741) rotate(16)" fill="#fff" opacity="0.42"/>
      <path id="Path_577" data-name="Path 577" d="M1.673.25a10.411,10.411,0,0,1,.195,2.287A8.749,8.749,0,0,1,1.787,5.05c-.128.294-1.4.28-1.622,0s-.05-1.163-.1-2.363A11.779,11.779,0,0,1,.061.25C.165-.146,1.53-.014,1.673.25Z" transform="translate(13.638 15.227) rotate(16)" fill="#fff" opacity="0.26"/>
      <path id="Path_575" data-name="Path 575" d="M.681,5.151A4.722,4.722,0,0,1,.08,2.8,4.481,4.481,0,0,1,.251.221a6.744,6.744,0,0,1,3.427,0c.464.288.106,1.194.22,2.426s.38,2.1.16,2.5S.982,5.421.681,5.151Z" transform="matrix(0.951, 0.309, -0.309, 0.951, 3.039, 19.113)" fill="#fff" opacity="0.42"/>
      <path id="Path_578" data-name="Path 578" d="M.118.366A12.257,12.257,0,0,0,0,2.741,12.165,12.165,0,0,0,.163,5.308c.107.287,1.053.138,1.2-.173A11.851,11.851,0,0,0,1.348,2.7,19.806,19.806,0,0,0,1.3.2C1.211-.2.213.08.118.366Z" transform="matrix(-0.934, -0.358, 0.358, -0.934, 11.454, 27.385)" fill="#fff" opacity="0.26"/>
      <ellipse id="Ellipse_263" data-name="Ellipse 263" cx="2.513" cy="0.598" rx="2.513" ry="0.598" transform="matrix(0.966, 0.259, -0.259, 0.966, 11.18, 1.389)" fill="#446297"/>
    </g>
  </g>
</svg>
