<svg xmlns="http://www.w3.org/2000/svg" xmlns:xlink="http://www.w3.org/1999/xlink" width="36" height="36" viewBox="0 0 36 36">
  <defs>
    <clipPath id="clip-Software">
      <rect width="36" height="36"/>
    </clipPath>
  </defs>
  <g id="Software" clip-path="url(#clip-Software)">
    <path id="Path_1398" data-name="Path 1398" d="M1.842,0H22.9a1.842,1.842,0,0,1,1.842,1.842V24.476A1.842,1.842,0,0,1,22.9,26.318H1.842A1.842,1.842,0,0,1,0,24.476V1.842A1.842,1.842,0,0,1,1.842,0Z" transform="translate(5.63 4.841)" fill="#2f2d2d"/>
    <path id="Path_3010" data-name="Path 3010" d="M6.541.348a.731.731,0,0,1,.427.313,1.121,1.121,0,0,1,.092.492V3.28L1.35.562A1.066,1.066,0,0,1,.906.223,1.2,1.2,0,0,1,.814-.332V-1.78L6.222-4.5a.933.933,0,0,1,.435-.125.406.406,0,0,1,.285.107.466.466,0,0,1,.117.358v1.967L3.527-.761ZM9.186,6.766a.4.4,0,0,1-.452-.447.788.788,0,0,1,.008-.1q.008-.063.042-.206L12.5-8.448h2.093A.4.4,0,0,1,15.047-8a.788.788,0,0,1-.008.1Q15.03-7.84,15-7.7L11.279,6.766Zm8.054-8.6a.731.731,0,0,1-.427-.313,1.121,1.121,0,0,1-.092-.492V-4.765l5.71,2.717a1.066,1.066,0,0,1,.444.34,1.2,1.2,0,0,1,.092.554V.294L17.558,3.011a.933.933,0,0,1-.435.125.406.406,0,0,1-.285-.107.466.466,0,0,1-.117-.358V.705l3.533-1.43Z" transform="translate(6.11 18.841)" fill="#c1ff67"/>
  </g>
</svg>
