<svg xmlns="http://www.w3.org/2000/svg" xmlns:xlink="http://www.w3.org/1999/xlink" width="40" height="40" viewBox="0 0 40 40">
  <defs>
    <clipPath id="clip-Telecom">
      <rect width="40" height="40"/>
    </clipPath>
  </defs>
  <g id="Telecom" clip-path="url(#clip-Telecom)">
    <path id="Path_1394" data-name="Path 1394" d="M1.839,0H5.373L5.228,5a3.539,3.539,0,0,0,.36,1.43,1.874,1.874,0,0,0,.958.729H11.8s-.83,1.108-1.689,1.108H6.545L3.639,11.008V8.269h-1.8A1.838,1.838,0,0,1,0,6.432V1.838A1.838,1.838,0,0,1,1.839,0Z" transform="translate(10.289 15.415)" fill="#e6ddc7"/>
    <path id="Path_1395" data-name="Path 1395" d="M11.029,0H2.005A1.927,1.927,0,0,0,0,1.838V6.432A1.927,1.927,0,0,0,2.005,8.269H5.9l3.169,2.738V8.269h1.962a1.927,1.927,0,0,0,2.005-1.838V1.838A1.927,1.927,0,0,0,11.029,0Z" transform="translate(16.677 13.577)" fill="#f3f3f3"/>
  </g>
</svg>
