<svg xmlns="http://www.w3.org/2000/svg" xmlns:xlink="http://www.w3.org/1999/xlink" width="32" height="32" viewBox="0 0 32 32">
  <defs>
    <clipPath id="clip-Broken">
      <rect width="32" height="32"/>
    </clipPath>
  </defs>
  <g id="Broken" clip-path="url(#clip-Broken)">
    <path id="Path_2043" data-name="Path 2043" d="M-462.408,793.084c2.292.969,8.637.787,12.121.448,2.379-.232,2.267-2.135,2.209-2.4-.4-1.5-2.683-1.369-2.683-1.369s1.382-3.65-3.6-3.9-6.184,2.553-5.973,3.481a3.856,3.856,0,0,0-2.07.2,1.542,1.542,0,0,0-.578,1.294S-464.7,792.116-462.408,793.084Z" transform="translate(472 -780.984)" fill="#e6f2fa" opacity="0.73"/>
    <path id="Path_2042" data-name="Path 2042" d="M-462.408,796.521c2.292,1.428,8.637,1.16,12.121.66,2.379-.342,2.267-3.149,2.209-3.537a2.5,2.5,0,0,0-2.683-2.019s1.382-5.384-3.6-5.756-6.184,3.766-5.973,5.134c0,0-1.434-.33-2.07.291a2.92,2.92,0,0,0-.578,1.909A2.067,2.067,0,0,0-462.408,796.521Z" transform="translate(465 -775.377)" fill="#f5f9fb" opacity="0.73"/>
    <path id="Path_2044" data-name="Path 2044" d="M-462.408,794.9c2.292,1.211,8.637.984,12.121.56a2.568,2.568,0,0,0,2.209-3c-.4-1.87-2.683-1.712-2.683-1.712s1.382-4.565-3.6-4.881-6.184,3.193-5.973,4.354c0,0-1.434-.28-2.07.247a2.2,2.2,0,0,0-.578,1.619S-464.7,793.687-462.408,794.9Z" transform="translate(477 -771.979)" fill="#f5f9fb" opacity="0.73"/>
  </g>
</svg>
