<svg xmlns="http://www.w3.org/2000/svg" xmlns:xlink="http://www.w3.org/1999/xlink" width="32" height="32" viewBox="0 0 32 32">
  <defs>
    <clipPath id="clip-Few">
      <rect width="32" height="32"/>
    </clipPath>
  </defs>
  <g id="Few" clip-path="url(#clip-Few)">
    <path id="Path_2037" data-name="Path 2037" d="M-462.82,792.039c1.5.829,5.65.673,7.929.383a1.757,1.757,0,0,0,1.445-2.052c-.262-1.28-1.755-1.171-1.755-1.171s.9-3.123-2.357-3.339-4.045,2.184-3.907,2.978c0,0-.938-.191-1.354.169a1.554,1.554,0,0,0-.378,1.107A1.129,1.129,0,0,0-462.82,792.039Z" transform="translate(468 -772.835)" fill="#f5f9fb" opacity="0.73"/>
    <path id="Path_2038" data-name="Path 2038" d="M-462.82,792.039c1.5.829,5.65.673,7.929.383a1.757,1.757,0,0,0,1.445-2.052c-.262-1.28-1.755-1.171-1.755-1.171s.9-3.123-2.357-3.339-4.045,2.184-3.907,2.978c0,0-.938-.191-1.354.169a1.554,1.554,0,0,0-.378,1.107A1.129,1.129,0,0,0-462.82,792.039Z" transform="translate(481 -779.835)" fill="#e6f2fa" opacity="0.73"/>
  </g>
</svg>
