<svg xmlns="http://www.w3.org/2000/svg" xmlns:xlink="http://www.w3.org/1999/xlink" width="32" height="32" viewBox="0 0 32 32">
  <defs>
    <clipPath id="clip-Hail">
      <rect width="32" height="32"/>
    </clipPath>
  </defs>
  <g id="Hail" clip-path="url(#clip-Hail)">
    <path id="Path_2035" data-name="Path 2035" d="M-461.692,800.117c3.666,1.909,13.816,1.551,19.388.882,3.806-.457,3.627-4.21,3.533-4.729-.641-2.949-4.292-2.7-4.292-2.7s2.21-7.2-5.765-7.695-9.892,5.034-9.553,6.863c0,0-2.294-.441-3.312.39a3.441,3.441,0,0,0-.925,2.552S-465.358,798.208-461.692,800.117Z" transform="translate(468 -782)" fill="#a5b4bf" opacity="0.73"/>
    <rect id="Rectangle_3929" data-name="Rectangle 3929" width="2" height="3" rx="1" transform="matrix(0.966, 0.259, -0.259, 0.966, 12.163, 20.758)" fill="#fff"/>
    <rect id="Rectangle_3930" data-name="Rectangle 3930" width="2" height="3" rx="1" transform="matrix(0.966, 0.259, -0.259, 0.966, 15.163, 23.758)" fill="#fff"/>
    <rect id="Rectangle_3931" data-name="Rectangle 3931" width="2" height="3" rx="1" transform="matrix(0.966, 0.259, -0.259, 0.966, 19.163, 20.758)" fill="#fff"/>
  </g>
</svg>
