<svg xmlns="http://www.w3.org/2000/svg" xmlns:xlink="http://www.w3.org/1999/xlink" width="32" height="32" viewBox="0 0 32 32">
  <defs>
    <clipPath id="clip-Scattered">
      <rect width="32" height="32"/>
    </clipPath>
  </defs>
  <g id="Scattered" clip-path="url(#clip-Scattered)">
    <path id="Path_2039" data-name="Path 2039" d="M-462.6,792.266c1.924.859,7.252.7,10.177.4a1.851,1.851,0,0,0,1.855-2.127c-.336-1.327-2.253-1.214-2.253-1.214s1.16-3.238-3.026-3.462-5.193,2.265-5.015,3.088a3.074,3.074,0,0,0-1.738.175,1.409,1.409,0,0,0-.485,1.148S-464.523,791.407-462.6,792.266Z" transform="translate(479.009 -781.085)" fill="#e6f2fa" opacity="0.73"/>
    <path id="Path_2040" data-name="Path 2040" d="M-462.634,793.036c1.858.962,7,.781,9.825.445a2.041,2.041,0,0,0,1.791-2.383c-.325-1.486-2.175-1.36-2.175-1.36a2.882,2.882,0,0,0-2.921-3.877c-4.041-.251-5.013,2.536-4.841,3.458,0,0-1.162-.222-1.678.2a1.727,1.727,0,0,0-.469,1.286S-464.491,792.074-462.634,793.036Z" transform="translate(467 -774.932)" fill="#e6f2fa" opacity="0.73"/>
    <path id="Path_2041" data-name="Path 2041" d="M-462.408,795.261c2.292,1.26,8.637,1.023,12.121.582,2.379-.3,2.267-2.777,2.209-3.12-.4-1.945-2.683-1.78-2.683-1.78s1.382-4.748-3.6-5.076-6.184,3.321-5.973,4.528c0,0-1.434-.291-2.07.257a2.353,2.353,0,0,0-.578,1.683S-464.7,794-462.408,795.261Z" transform="translate(478 -771.377)" fill="#f5f9fb" opacity="0.73"/>
  </g>
</svg>
