<svg xmlns="http://www.w3.org/2000/svg" xmlns:xlink="http://www.w3.org/1999/xlink" width="32" height="32" viewBox="0 0 32 32">
  <defs>
    <clipPath id="clip-Snow">
      <rect width="32" height="32"/>
    </clipPath>
  </defs>
  <g id="Snow" clip-path="url(#clip-Snow)">
    <path id="Path_2035" data-name="Path 2035" d="M-461.692,800.769c3.666,2,13.816,1.622,19.388.923,3.806-.478,3.627-4.4,3.533-4.945-.641-3.084-4.292-2.822-4.292-2.822s2.21-7.526-5.765-8.047-9.892,5.264-9.553,7.177c0,0-2.294-.461-3.312.408a3.707,3.707,0,0,0-.925,2.668S-465.358,798.773-461.692,800.769Z" transform="translate(468 -782)" fill="#e7f0f5" opacity="0.73"/>
    <path id="Polygon_37" data-name="Polygon 37" d="M2.4,1.793a.636.636,0,0,1,1.205,0l.006.017a.636.636,0,0,0,.586.433l.079,0a.636.636,0,0,1,.382,1.131l-.114.092a.636.636,0,0,0-.213.668l.03.1a.636.636,0,0,1-.985.688h0a.636.636,0,0,0-.745,0h0a.636.636,0,0,1-.985-.688l.03-.1a.636.636,0,0,0-.213-.668l-.114-.092a.636.636,0,0,1,.382-1.131l.079,0a.636.636,0,0,0,.586-.433Z" transform="translate(9 20)" fill="#fff"/>
    <path id="Polygon_38" data-name="Polygon 38" d="M2.4,1.793a.636.636,0,0,1,1.205,0l.006.017a.636.636,0,0,0,.586.433l.079,0a.636.636,0,0,1,.382,1.131l-.114.092a.636.636,0,0,0-.213.668l.03.1a.636.636,0,0,1-.985.688h0a.636.636,0,0,0-.745,0h0a.636.636,0,0,1-.985-.688l.03-.1a.636.636,0,0,0-.213-.668l-.114-.092a.636.636,0,0,1,.382-1.131l.079,0a.636.636,0,0,0,.586-.433Z" transform="translate(18 20)" fill="#fff"/>
    <path id="Polygon_39" data-name="Polygon 39" d="M2.4,1.793a.636.636,0,0,1,1.205,0l.006.017a.636.636,0,0,0,.586.433l.079,0a.636.636,0,0,1,.382,1.131l-.114.092a.636.636,0,0,0-.213.668l.03.1a.636.636,0,0,1-.985.688h0a.636.636,0,0,0-.745,0h0a.636.636,0,0,1-.985-.688l.03-.1a.636.636,0,0,0-.213-.668l-.114-.092a.636.636,0,0,1,.382-1.131l.079,0a.636.636,0,0,0,.586-.433Z" transform="translate(13 24)" fill="#fff"/>
  </g>
</svg>
