<svg xmlns="http://www.w3.org/2000/svg" xmlns:xlink="http://www.w3.org/1999/xlink" width="32" height="32" viewBox="0 0 32 32"><defs><clipPath id="b"><rect width="32" height="32"/></clipPath></defs><g id="a"><path d="M-461.692,800.117c3.666,1.909,13.816,1.551,19.388.882,3.806-.457,3.627-4.21,3.533-4.729-.641-2.949-4.292-2.7-4.292-2.7s2.21-7.2-5.765-7.695-9.892,5.034-9.553,6.863c0,0-2.294-.441-3.312.39a3.441,3.441,0,0,0-.925,2.552S-465.358,798.208-461.692,800.117Z" transform="translate(467 -782)" fill="#a5b4bf"/><path d="M-331.723,799l-2.818,7.139h5.073l-2.255,6.961,8.258-11.273h-4.8l1.127-2.827Z" transform="translate(345 -784)" fill="#ffeeac"/></g></svg>