<svg version="1.1" viewBox="0 0 32 32" xmlns="http://www.w3.org/2000/svg">
  <path d="m16.5 1c-0.831 0-1.5 0.669-1.5 1.5v4c0 0.831 0.669 1.5 1.5 1.5s1.5-0.669 1.5-1.5v-4c0-0.831-0.669-1.5-1.5-1.5zm-10.4 4.3066c-0.38343 0-0.76674 0.14565-1.0605 0.43945-0.58761 0.58761-0.58761 1.5354 0 2.123l2.8301 2.8281c0.58761 0.5876 1.5335 0.5876 2.1211 0 0.58761-0.58761 0.58761-1.5335 0-2.1211l-2.8281-2.8301c-0.2938-0.2938-0.67907-0.43945-1.0625-0.43945zm19.801 0c-0.38343 0-0.7687 0.14565-1.0625 0.43945l-2.8281 2.8301c-0.58761 0.58761-0.58761 1.5335 0 2.1211 0.5876 0.5876 1.5335 0.5876 2.1211 0l2.8301-2.8281c0.5876-0.58761 0.5876-1.5354 0-2.123-0.2938-0.2938-0.67712-0.43945-1.0605-0.43945zm-9.9941 3.6934a7 7 0 0 0-6.9062 7 7 7 0 0 0 7 7 7 7 0 0 0 7-7 7 7 0 0 0-7-7 7 7 0 0 0-0.09375 0zm-13.406 6c-0.831 0-1.5 0.669-1.5 1.5s0.669 1.5 1.5 1.5h4c0.831 0 1.5-0.669 1.5-1.5s-0.669-1.5-1.5-1.5zm23 0c-0.831 0-1.5 0.669-1.5 1.5s0.669 1.5 1.5 1.5h4c0.831 0 1.5-0.669 1.5-1.5s-0.669-1.5-1.5-1.5zm-15.863 6.5703c-0.38343 0-0.76674 0.14565-1.0605 0.43945l-2.8301 2.8281c-0.58761 0.5876-0.58761 1.5354 0 2.123 0.58761 0.5876 1.5354 0.5876 2.123 0l2.8281-2.8301c0.5876-0.5876 0.5876-1.5335 0-2.1211-0.2938-0.2938-0.67712-0.43945-1.0605-0.43945zm12.727 0c-0.38343 0-0.76674 0.14565-1.0605 0.43945-0.5876 0.5876-0.5876 1.5335 0 2.1211l2.8281 2.8301c0.58761 0.5876 1.5354 0.5876 2.123 0 0.58761-0.58761 0.58761-1.5354 0-2.123l-2.8301-2.8281c-0.2938-0.2938-0.67712-0.43945-1.0605-0.43945zm-5.8633 2.4297c-0.831 0-1.5 0.669-1.5 1.5v4c0 0.831 0.669 1.5 1.5 1.5s1.5-0.669 1.5-1.5v-4c0-0.831-0.669-1.5-1.5-1.5z" fill="#ffcb00"/>
</svg>
