<?xml version="1.0" encoding="UTF-8"?>
<svg version="1.1" viewBox="0 0 32 32" xmlns="http://www.w3.org/2000/svg">
 <path d="m16.014 4c-3.5899 0-6.5 2.9101-6.5 6.5 0 3.5899 2.9101 6.5 6.5 6.5s6.5-2.9101 6.5-6.5c0-3.5899-2.9101-6.5-6.5-6.5zm5.7715 12.111c-0.73833 0.0599-2.047 2.5608-5.9414 2.4961-2.1532 0.10804-4.2305-0.80896-5.6016-2.4727-4.75 1.734-4.6635 6.7886-4.7285 8.8926-0.0364 1.1782-0.021484 6.9808-0.021484 6.9808l21.022-0.0078s0.0047-5.5994 0-6.9729c-7e-3 -2.035-0.38789-7.1766-4.5879-8.8926-0.04475-0.01919-0.0914-0.02743-0.14062-0.02344z" fill="#fff" opacity=".65"/>
</svg>
