<svg version="1.1" viewBox="0 0 91 30" xmlns="http://www.w3.org/2000/svg">
  <path d="m5 7c-1.662 0-3 1.338-3 3v10c0 1.662 1.338 3 3 3s3-1.338 3-3v-10c0-1.662-1.338-3-3-3zm9 0c-1.662 0-3 1.338-3 3v10c0 1.662 1.338 3 3 3s3-1.338 3-3v-10c0-1.662-1.338-3-3-3zm9 0c-1.662 0-3 1.338-3 3v10c0 1.662 1.338 3 3 3s3-1.338 3-3v-10c0-1.662-1.338-3-3-3zm9 0c-1.662 0-3 1.338-3 3v10c0 1.662 1.338 3 3 3s3-1.338 3-3v-10c0-1.662-1.338-3-3-3zm9 0c-1.662 0-3 1.338-3 3v10c0 1.662 1.338 3 3 3s3-1.338 3-3v-10c0-1.662-1.338-3-3-3zm9 0c-1.662 0-3 1.338-3 3v10c0 1.662 1.338 3 3 3s3-1.338 3-3v-10c0-1.662-1.338-3-3-3zm9 0c-1.662 0-3 1.338-3 3v10c0 1.662 1.338 3 3 3s3-1.338 3-3v-10c0-1.662-1.338-3-3-3zm9 0c-1.662 0-3 1.338-3 3v10c0 1.662 1.338 3 3 3s3-1.338 3-3v-10c0-1.662-1.338-3-3-3zm9 0c-1.662 0-3 1.338-3 3v10c0 1.662 1.338 3 3 3s3-1.338 3-3v-10c0-1.662-1.338-3-3-3zm9 0c-1.662 0-3 1.338-3 3v10c0 1.662 1.338 3 3 3s3-1.338 3-3v-10c0-1.662-1.338-3-3-3z" stop-color="#000000" style="font-variation-settings:normal"/>
</svg>
