<svg xmlns="http://www.w3.org/2000/svg" xmlns:xlink="http://www.w3.org/1999/xlink" width="40" height="80" viewBox="0 0 40 80">
  <defs>
    <clipPath id="clip-Underground">
      <rect width="40" height="80"/>
    </clipPath>
  </defs>
  <g id="Underground" clip-path="url(#clip-Underground)">
    <path id="Path_3669" data-name="Path 3669" d="M0-9.682,40-11.4V6L19.311,10.286,0,6Z" transform="translate(0 40)" fill="#79634c"/>
    <path id="Path_2603" data-name="Path 2603" d="M.156-.974S10.6-10.047,20.6-10.3,40.156-3.688,40.156-3.688V-.974L19.393,10,.156.318Z" transform="translate(0 30)" fill="#54b60a"/>
    <path id="Path_3670" data-name="Path 3670" d="M0,0,19.182,9.274,40,0V40H0Z" transform="translate(0 40)" fill="#5e5449"/>
    <circle id="Ellipse_548" data-name="Ellipse 548" cx="1" cy="1" r="1" transform="translate(6 75)" fill="#9c8770"/>
    <circle id="Ellipse_550" data-name="Ellipse 550" cx="0.5" cy="0.5" r="0.5" transform="translate(10 73)" fill="#9c8770"/>
    <circle id="Ellipse_549" data-name="Ellipse 549" cx="0.5" cy="0.5" r="0.5" transform="translate(5 47)" fill="#9c8770"/>
    <path id="Path_3672" data-name="Path 3672" d="M0,0,44.189.224,45.1,2.275.961,2.159Z" transform="matrix(0.914, 0.407, -0.407, 0.914, -0.101, 57.476)" fill="#a8ff82"/>
    <path id="Path_3674" data-name="Path 3674" d="M0,0,44.189.224,45.1,2.275.961,2.159Z" transform="matrix(0.914, 0.407, -0.407, 0.914, -0.139, 50.913)" fill="#fcdb69"/>
    <path id="Path_3676" data-name="Path 3676" d="M0,0,44.189.224,45.1,2.275.961,2.159Z" transform="matrix(0.914, 0.407, -0.407, 0.914, -0.139, 43.913)" fill="#82d1ff"/>
    <g id="Path_3671" data-name="Path 3671" transform="matrix(0.914, 0.407, -0.407, 0.914, -0.915, 59.303)" fill="#80afcb">
      <path d="M 45.03427505493164 1.823489189147949 L 2.070127010345459 1.459887981414795 L 1.685567140579224 0.5961628556251526 L 44.53817367553711 0.7092311978340149 L 45.03427505493164 1.823489189147949 Z" stroke="none"/>
      <path d="M 25.64505767822266 1.159384489059448 L 44.26141738891602 1.316932797431946 L 44.21308517456055 1.208377003669739 L 25.64505767822266 1.159384489059448 M 0.9147262573242188 0.09412550926208496 L 44.86325454711914 0.210085391998291 L 45.8071174621582 2.330045461654663 L 1.744194030761719 1.95714545249939 L 0.9147262573242188 0.09412550926208496 Z" stroke="none" fill="#80b669"/>
    </g>
    <path id="Path_3673" data-name="Path 3673" d="M.915.094,44.863.21l.944,2.12L1.744,1.957Z" transform="matrix(0.914, 0.407, -0.407, 0.914, -0.952, 52.74)" fill="#dbb841"/>
    <path id="Path_3675" data-name="Path 3675" d="M.915.094,44.863.21l.944,2.12L1.744,1.957Z" transform="matrix(0.914, 0.407, -0.407, 0.914, -0.952, 45.74)" fill="#80afcb"/>
    <path id="Path_781" data-name="Path 781" d="M-9979.3-10479.809l-11.944,7.057-.153-9.755,12.1-6.68Z" transform="translate(10009.63 10503.872)" fill="#008f15"/>
    <path id="Path_782" data-name="Path 782" d="M-9968.646-10473.384l-8.734-6.227v-7.577l3.344-3.749,5.391,7.831Z" transform="translate(9987.054 10504.408)" fill="#f9f3dd"/>
    <path id="Path_783" data-name="Path 783" d="M-9973.807-10490.307l-12.035,6.578-5.479-7.855,12.282-5.237Z" transform="translate(10004.219 10505.086)" fill="#bc8459"/>
  </g>
</svg>
