<svg xmlns="http://www.w3.org/2000/svg" xml:space="preserve" fill-rule="evenodd" stroke-linejoin="round" stroke-miterlimit="2" clip-rule="evenodd" viewBox="0 0 64 64">
  <g id="a" fill-rule="nonzero">
    <path fill="#434343" d="m1.655 27.531 34.019 29.15 26.542-17.679v-3.049L1.655 24.51v3.021Z"/>
    <path fill="#808080" d="M1.655 24.435 35.759 53.4l26.568-17.451-34.374-28.63L1.655 24.435Z"/>
    <path fill="#ebebeb" d="m11.887 25.495 24.519 20.596 7.093-4.594c8.599-5.57 4.755-12.981-.85-17.689-6.094-5.119-15.337-8.304-23.535-2.994l-7.227 4.681ZM40.11 37.804l-2.343 1.529-16.309-13.7 2.711-1.767c4.45-2.883 10.198-.842 14.331 2.63 3.853 3.236 6.595 8.078 1.61 11.308Z"/>
  </g>
</svg>
