<svg xmlns="http://www.w3.org/2000/svg" xmlns:xlink="http://www.w3.org/1999/xlink" width="32" height="32" viewBox="0 0 32 32"><defs><clipPath id="b"><rect width="32" height="32"/></clipPath></defs><g id="a"><line x2="25" transform="translate(3.5 16.5)" fill="none" stroke="#fff" stroke-width="2"/><line y2="25" transform="translate(16.5 4.5)" fill="none" stroke="#fff" stroke-width="2"/><g transform="translate(10 12)" fill="none"><path d="M6.5-1A6.5,6.5,0,1,1,0,5.5,6.5,6.5,0,0,1,6.5-1Z" stroke="none"/><path d="M 6.5 0 C 3.467289924621582 0 1 2.467289924621582 1 5.5 C 1 8.532710075378418 3.467289924621582 11 6.5 11 C 9.532710075378418 11 12 8.532710075378418 12 5.5 C 12 2.467289924621582 9.532710075378418 0 6.5 0 M 6.5 -1 C 10.0898494720459 -1 13 1.910149574279785 13 5.5 C 13 9.089849472045898 10.0898494720459 12 6.5 12 C 2.910149574279785 12 0 9.089849472045898 0 5.5 C 0 1.910149574279785 2.910149574279785 -1 6.5 -1 Z" stroke="none" fill="#fff"/></g></g></svg>