<?xml version="1.0" encoding="UTF-8" standalone="no"?>
<!DOCTYPE svg PUBLIC "-//W3C//DTD SVG 1.1//EN" "http://www.w3.org/Graphics/SVG/1.1/DTD/svg11.dtd">
<svg width="100%" height="100%" viewBox="0 0 128 128" version="1.1" xmlns="http://www.w3.org/2000/svg" xmlns:xlink="http://www.w3.org/1999/xlink" xml:space="preserve" xmlns:serif="http://www.serif.com/" style="fill-rule:evenodd;clip-rule:evenodd;stroke-linejoin:round;stroke-miterlimit:2;">
    <g id="Vehicles" transform="matrix(0.976563,0,0,0.942198,1.5,1.5)">
        <path d="M64,0L119.426,33.167L119.426,99.501L64,132.668L8.574,99.501L8.574,33.167L64,0Z" style="fill:rgb(255,184,14);"/>
        <clipPath id="_clip1">
            <path d="M64,0L119.426,33.167L119.426,99.501L64,132.668L8.574,99.501L8.574,33.167L64,0Z"/>
        </clipPath>
        <g clip-path="url(#_clip1)">
            <g id="AirPollution" transform="matrix(4.53092,0,0,4.69618,3.67664,8.28439)">
                <g transform="matrix(1,0,0,1,471.539,-781.984)">
                    <path d="M-462.657,791.888C-460.844,792.696 -455.822,792.545 -453.066,792.262C-453.058,792.262 -453.049,792.262 -453.041,792.262C-452.085,792.262 -451.299,791.476 -451.299,790.52C-451.299,790.434 -451.305,790.347 -451.318,790.262C-451.635,789.014 -453.441,789.119 -453.441,789.119C-453.441,789.119 -452.348,786.072 -456.293,785.861C-460.238,785.65 -461.187,787.992 -461.019,788.767C-461.569,788.663 -462.138,788.72 -462.657,788.932C-462.969,789.201 -463.138,789.601 -463.114,790.012C-463.09,790.423 -464.47,791.08 -462.657,791.888Z" style="fill:rgb(104,132,8);fill-rule:nonzero;"/>
                </g>
                <g transform="matrix(1,0,0,1,466,-777.304)">
                    <path d="M-462.657,794.758C-460.844,795.95 -455.822,795.727 -453.066,795.309C-451.183,795.024 -451.272,792.68 -451.318,792.356C-451.468,791.327 -452.405,790.584 -453.441,790.671C-454.477,790.758 -452.348,786.177 -456.293,785.866C-456.496,785.836 -456.7,785.82 -456.906,785.82C-459.165,785.82 -461.025,787.68 -461.025,789.939C-461.025,790.01 -461.023,790.081 -461.019,790.152C-461.015,790.223 -462.154,789.877 -462.657,790.395C-462.983,790.86 -463.144,791.422 -463.114,791.989C-463.417,792.317 -463.586,792.748 -463.586,793.195C-463.586,793.846 -463.229,794.447 -462.657,794.758Z" style="fill:rgb(132,165,20);fill-rule:nonzero;"/>
                </g>
                <g transform="matrix(1,0,0,1,475.496,-774.467)">
                    <path d="M-462.657,793.4C-460.844,794.411 -455.822,794.221 -453.066,793.867C-452.04,793.691 -451.283,792.793 -451.283,791.753C-451.283,791.623 -451.295,791.494 -451.318,791.367C-451.635,789.806 -453.441,789.938 -453.441,789.938C-453.441,789.938 -452.348,786.127 -456.293,785.863C-460.238,785.599 -461.187,788.529 -461.019,789.497C-461.019,789.497 -462.154,789.263 -462.657,789.703C-462.978,790.077 -463.142,790.562 -463.114,791.054C-463.413,791.316 -463.585,791.696 -463.585,792.094C-463.585,792.681 -463.211,793.207 -462.657,793.4Z" style="fill:rgb(212,255,67);fill-rule:nonzero;"/>
                </g>
            </g>
        </g>
    </g>
</svg>
