<?xml version="1.0" encoding="UTF-8" standalone="no"?>
<!DOCTYPE svg PUBLIC "-//W3C//DTD SVG 1.1//EN" "http://www.w3.org/Graphics/SVG/1.1/DTD/svg11.dtd">
<svg width="100%" height="100%" viewBox="0 0 128 128" version="1.1" xmlns="http://www.w3.org/2000/svg" xmlns:xlink="http://www.w3.org/1999/xlink" xml:space="preserve" xmlns:serif="http://www.serif.com/" style="fill-rule:evenodd;clip-rule:evenodd;stroke-linejoin:round;stroke-miterlimit:2;">
    <g id="Resources" transform="matrix(0.976563,0,0,0.976563,1.5,1.5)">
        <path d="M128,25.6C128,11.471 116.529,0 102.4,0L25.6,0C11.471,0 0,11.471 0,25.6L0,102.4C0,116.529 11.471,128 25.6,128L102.4,128C116.529,128 128,116.529 128,102.4L128,25.6Z" style="fill:rgb(255,231,185);"/>
    </g>
    <g id="building-base" serif:id="building base" transform="matrix(1.82158,0,0,1.82158,5.59994,10.5004)">
        <g>
            <path d="M8.099,26.432L32.691,5.395L55.951,26.136L50.556,26.169L50.556,51.826L14.852,51.826L14.852,26.39L8.099,26.432Z" style="fill:rgb(173,121,82);"/>
            <g transform="matrix(1.01938,0,0,1.01938,-0.560149,-1.05449)">
                <path d="M24.645,13.056L32.608,6.201L55.569,26.709L50.192,26.741L32.56,11.388L15.122,26.905L8.431,27.014L18.477,18.366L18.477,9.433L24.645,9.433L24.645,13.056Z" style="fill:rgb(29,7,0);"/>
            </g>
            <g transform="matrix(0.935702,0,0,0.918525,-16.7838,-32.4099)">
                <rect x="43.362" y="64.117" width="17.601" height="17.93" style="fill:rgb(57,194,255);"/>
            </g>
            <g transform="matrix(0.935702,0,0,0.918525,-16.7838,-32.4099)">
                <rect x="43.362" y="64.117" width="17.601" height="17.93" style="fill:rgb(42,55,83);"/>
            </g>
        </g>
    </g>
    <g id="BuildingCondemned" transform="matrix(1.62178,0,0,1.62178,11.9466,10.2968)">
        <g>
            <g transform="matrix(0.477143,0,0,0.5,1.84656,0)">
                <rect x="32.497" y="55.883" width="64.386" height="55.495" style="fill:rgb(204,64,12);"/>
            </g>
            <g transform="matrix(0.400343,0,0,0.410895,6.85403,7.49115)">
                <rect x="32.497" y="55.883" width="64.386" height="55.495" style="fill:rgb(250,251,251);"/>
            </g>
            <g transform="matrix(0.509536,0,0,0.502994,-0.663703,-0.329183)">
                <path d="M65.427,77.596L42.779,57.519L36.677,64.402L58.421,83.677L36.714,102.516L42.743,109.463L65.363,89.831L88.061,109.953L94.163,103.07L72.369,83.75L94.296,64.721L88.267,57.774L65.427,77.596Z" style="fill:rgb(204,64,12);"/>
            </g>
        </g>
    </g>
</svg>
