<?xml version="1.0" encoding="UTF-8" standalone="no"?>
<!DOCTYPE svg PUBLIC "-//W3C//DTD SVG 1.1//EN" "http://www.w3.org/Graphics/SVG/1.1/DTD/svg11.dtd">
<svg width="100%" height="100%" viewBox="0 0 128 128" version="1.1" xmlns="http://www.w3.org/2000/svg" xmlns:xlink="http://www.w3.org/1999/xlink" xml:space="preserve" xmlns:serif="http://www.serif.com/" style="fill-rule:evenodd;clip-rule:evenodd;stroke-linejoin:round;stroke-miterlimit:2;">
    <g id="Event" transform="matrix(0.976563,0,0,0.976563,1.5,1.5)">
        <path d="M64,0L128,64L64,128L0,64L64,0Z" style="fill:rgb(229,99,51);"/>
        <clipPath id="_clip1">
            <path d="M64,0L128,64L64,128L0,64L64,0Z"/>
        </clipPath>
        <g clip-path="url(#_clip1)">
            <g id="on-fire" serif:id="on fire" transform="matrix(1.77986,-0.377116,0.377116,1.77986,-20.767,27.2073)">
                <g>
                    <g transform="matrix(1.14215,0,0,1.15247,-2.03208,-3.54558)">
                        <path d="M35.802,47.154C29.966,48.299 26.591,43.791 25.132,38.648C22.597,29.717 24.521,27.515 25.272,24.825C25.545,23.849 27.023,21.142 27.934,19.612C29.408,17.136 28.974,14.574 28.974,14.574C28.974,14.574 31.994,18.935 30.228,22.181C29.346,23.803 29.996,25.351 29.936,26.099C29.858,27.067 31.614,22.124 32.787,20.394C35.131,16.938 38.157,16.4 39.575,14.622C41.271,12.496 42.647,5.836 42.647,5.836C42.647,5.836 46.101,13.874 45.989,16.951C45.892,19.629 43.646,21.096 42.41,25.407C41.482,28.644 47.486,32.937 45.6,37.3C43.956,41.103 42.924,45.757 35.802,47.154ZM44.944,28.717C44.324,28.135 43.376,27.099 43.615,25.52C44.265,21.223 48.372,21.273 48.646,20.472C49.313,18.522 48.624,14.371 48.624,14.371C48.624,14.371 52.243,17.66 52.825,20.133C53.062,21.136 53.764,24.294 50.029,27.925C48.43,29.48 45.564,29.298 44.944,28.717Z" style="fill:rgb(152,25,10);"/>
                    </g>
                    <g transform="matrix(0.881493,0,0,0.811674,6.25481,12.4237)">
                        <path d="M35.798,47.396C29.962,48.541 27.963,43.184 25.577,38.453C23.638,34.607 23.563,30.379 23.666,27.236C23.746,24.765 25.979,20.339 25.979,20.339C25.979,20.339 26.426,25.624 28.746,26.825C29.565,27.25 31.731,20.703 32.483,18.713C33.937,14.866 35.349,12.589 37.021,11.1C40.943,7.608 45.257,6.468 45.257,6.468C45.257,6.468 43.956,9.517 41.55,13.048C40.073,15.215 41.662,21.539 42.611,23.564C44.333,27.242 46.486,32.414 45.536,37.112C44.657,41.46 42.92,45.999 35.798,47.396ZM50.45,21.505C48.3,21.361 47.578,18.956 47.817,17.378C48.128,15.321 49.777,14.662 52.093,13.65C54.197,12.731 56.474,9.249 56.474,9.249C56.474,9.249 57.662,15.806 55.904,18.451C54.147,21.095 52.771,21.659 50.45,21.505Z" style="fill:rgb(255,184,14);"/>
                    </g>
                    <g transform="matrix(0.646336,0,0,0.55707,14.0357,25.0802)">
                        <path d="M35.28,46.518C28.594,46.383 27.757,40.925 25.752,35.926C22.802,28.571 24.217,21.821 24.217,21.821C24.217,21.821 26.26,26.72 28.746,26.085C30.399,25.662 28.447,20.351 34.329,14.675C37.241,11.864 40.616,3.648 40.616,3.648C40.616,3.648 42.254,10.894 41.949,15.353C41.677,19.32 43.532,23.078 44.569,25.023C45.809,27.35 47.384,31.374 46.433,36.005C45.305,41.497 42.5,46.664 35.28,46.518ZM60.347,6.736C59.068,8.701 56.039,8.912 54.425,7.145C53.662,6.309 53.711,2.944 56.027,1.932C58.131,1.013 62.043,-0.88 62.043,-0.88C62.043,-0.88 62.461,3.487 60.347,6.736Z" style="fill:white;"/>
                    </g>
                </g>
            </g>
        </g>
    </g>
</svg>
