<?xml version="1.0" encoding="UTF-8" standalone="no"?>
<!DOCTYPE svg PUBLIC "-//W3C//DTD SVG 1.1//EN" "http://www.w3.org/Graphics/SVG/1.1/DTD/svg11.dtd">
<svg width="100%" height="100%" viewBox="0 0 128 128" version="1.1" xmlns="http://www.w3.org/2000/svg" xmlns:xlink="http://www.w3.org/1999/xlink" xml:space="preserve" xmlns:serif="http://www.serif.com/" style="fill-rule:evenodd;clip-rule:evenodd;stroke-linejoin:round;stroke-miterlimit:2;">
    <g id="Resources" transform="matrix(0.976563,0,0,0.976563,1.5,1.5)">
        <path d="M128,25.6C128,11.471 116.529,0 102.4,0L25.6,0C11.471,0 0,11.471 0,25.6L0,102.4C0,116.529 11.471,128 25.6,128L102.4,128C116.529,128 128,116.529 128,102.4L128,25.6Z" style="fill:rgb(255,231,185);"/>
    </g>
    <g id="BuildingCollapset" transform="matrix(1.85689,-1.03078e-16,1.03078e-16,1.85689,-0.0372137,-8.52273)">
        <g>
            <g transform="matrix(0.904879,0.378854,-0.378854,0.904879,16.8182,0.361867)">
                <path d="M8.099,26.432L32.691,5.395L55.951,26.136L50.556,26.169C50.556,32.094 49.504,41.431 49.504,41.431L14.769,53.468L14.852,26.39L8.099,26.432Z" style="fill:rgb(173,121,82);"/>
            </g>
            <g transform="matrix(0.922416,0.386197,-0.386197,0.922416,16.7108,-0.804537)">
                <path d="M26.109,11.225L32.608,6.201L55.569,26.709L50.192,26.741L32.56,11.388L15.122,26.905L8.431,27.014L21.939,14.656L18.799,11.965L23.066,8.215L26.109,11.225Z" style="fill:rgb(29,7,0);"/>
            </g>
            <g id="ikkuna" transform="matrix(0.964756,0.407066,-0.407066,0.964756,18.0713,-9.11012)">
                <g>
                    <g transform="matrix(0.820488,0,0,0.798192,6.56663,8.67557)">
                        <rect x="20.907" y="25.221" width="23.411" height="25.33" style="fill:rgb(56,180,236);"/>
                    </g>
                    <g transform="matrix(1.09137,0.563885,-0.567451,1.09827,15.7706,-21.8053)">
                        <path d="M36.646,30.997L35.951,33.731L30.889,31.495L33.519,34.977L27.433,35.407L34.08,37.269L35.473,45.009L37.681,40.778L42.725,40.28L38.28,36.257L41.94,33.669L38.423,33.982L39.661,30.119C39.661,30.119 37.214,33.698 37.356,33.556C37.499,33.414 36.646,30.997 36.646,30.997Z" style="fill:rgb(204,234,244);"/>
                    </g>
                </g>
            </g>
            <g transform="matrix(0.538535,2.98947e-17,-2.98947e-17,0.538535,1.27553,6.96767)">
                <path d="M111.635,90.736C111.635,85.909 107.716,81.989 102.888,81.989L20.449,81.989C15.622,81.989 11.702,85.909 11.702,90.736C11.702,95.564 15.622,99.483 20.449,99.483L102.888,99.483C107.716,99.483 111.635,95.564 111.635,90.736Z" style="fill:rgb(67,33,15);"/>
            </g>
            <g id="board2" transform="matrix(-1.16975,-0.157218,-0.129703,1.26092,80.7196,7.86244)">
                <g>
                    <g transform="matrix(1.25572,0.298636,-0.321745,1.35289,-3.20953,-23.8144)">
                        <path d="M53.798,35.934L22.123,35.934L22.104,36.61L23.615,36.782L22.132,37.009L22.083,38.271L24.574,38.586L22.106,38.892C22.106,38.892 22.123,39.701 22.123,39.96L53.798,39.96C53.797,39.881 53.707,39.18 53.707,39.18L51.638,39.079L53.778,38.801C53.778,38.801 53.766,38.075 53.76,37.713L51.002,37.26L53.842,36.897L53.798,35.934Z" style="fill:rgb(170,75,29);"/>
                    </g>
                    <g transform="matrix(1.25572,0.298636,-0.321745,1.35289,-6.71001,-24.953)">
                        <ellipse cx="50.383" cy="38.322" rx="0.523" ry="0.492" style="fill:rgb(202,202,202);"/>
                    </g>
                    <g transform="matrix(1.25572,0.298636,-0.321745,1.35289,-30.4751,-31.2297)">
                        <ellipse cx="50.383" cy="38.322" rx="0.523" ry="0.492" style="fill:rgb(202,202,202);"/>
                    </g>
                </g>
            </g>
            <g id="board1" transform="matrix(-1.21108,-0.0242974,0.0201825,-1.30533,69.472,98.8751)">
                <g>
                    <g transform="matrix(1.25572,0.298636,-0.321745,1.35289,-3.09067,-23.8152)">
                        <path d="M53.798,35.934L22.123,35.934L22.141,38.036L25.201,38.471L22.106,38.892C22.106,38.892 22.123,39.701 22.123,39.96L53.798,39.96L53.76,37.713L49.027,37.223L53.842,36.897L53.798,35.934Z" style="fill:rgb(107,51,23);"/>
                    </g>
                    <g transform="matrix(1.25572,0.298636,-0.321745,1.35289,-6.80417,-25.2836)">
                        <ellipse cx="50.383" cy="38.322" rx="0.523" ry="0.492" style="fill:rgb(202,202,202);"/>
                    </g>
                    <g transform="matrix(1.25572,0.298636,-0.321745,1.35289,-31.2995,-31.3583)">
                        <ellipse cx="50.383" cy="38.322" rx="0.523" ry="0.492" style="fill:rgb(202,202,202);"/>
                    </g>
                </g>
            </g>
        </g>
    </g>
</svg>
