<?xml version="1.0" encoding="UTF-8" standalone="no"?>
<!DOCTYPE svg PUBLIC "-//W3C//DTD SVG 1.1//EN" "http://www.w3.org/Graphics/SVG/1.1/DTD/svg11.dtd">
<svg width="100%" height="100%" viewBox="0 0 128 128" version="1.1" xmlns="http://www.w3.org/2000/svg" xmlns:xlink="http://www.w3.org/1999/xlink" xml:space="preserve" xmlns:serif="http://www.serif.com/" style="fill-rule:evenodd;clip-rule:evenodd;stroke-linejoin:round;stroke-miterlimit:2;">
    <g id="Resources" transform="matrix(0.976563,0,0,0.976563,1.5,1.5)">
        <path d="M128,25.6C128,11.471 116.529,0 102.4,0L25.6,0C11.471,0 0,11.471 0,25.6L0,102.4C0,116.529 11.471,128 25.6,128L102.4,128C116.529,128 128,116.529 128,102.4L128,25.6Z" style="fill:rgb(255,231,185);"/>
    </g>
    <g id="building-base" serif:id="building base" transform="matrix(1.82158,0,0,1.82158,5.59994,10.5004)">
        <g>
            <path d="M8.099,26.432L32.691,5.395L55.951,26.136L50.556,26.169L50.556,51.826L14.852,51.826L14.852,26.39L8.099,26.432Z" style="fill:rgb(173,121,82);"/>
            <g transform="matrix(1.01938,0,0,1.01938,-0.560149,-1.05449)">
                <path d="M24.645,13.056L32.608,6.201L55.569,26.709L50.192,26.741L32.56,11.388L15.122,26.905L8.431,27.014L18.477,18.366L18.477,9.433L24.645,9.433L24.645,13.056Z" style="fill:rgb(29,7,0);"/>
            </g>
            <g transform="matrix(0.935702,0,0,0.918525,-16.7838,-32.4099)">
                <rect x="43.362" y="64.117" width="17.601" height="17.93" style="fill:rgb(57,194,255);"/>
            </g>
            <g transform="matrix(0.935702,0,0,0.918525,-16.7838,-32.4099)">
                <rect x="43.362" y="64.117" width="17.601" height="17.93" style="fill:rgb(42,55,83);"/>
            </g>
        </g>
    </g>
    <g id="BuildingAbandoned" transform="matrix(1.96445,0,0,1.96445,-0.264319,-8.01108)">
        <g>
            <g id="board2" transform="matrix(1.28751,-0.176416,-0.167906,-1.21811,-2.31839,94.6426)">
                <g>
                    <g transform="matrix(1.25572,0.298636,-0.321745,1.35289,-3.20953,-23.8144)">
                        <path d="M53.798,35.934L22.123,35.934L22.104,36.61L23.615,36.782L22.132,37.009L22.083,38.271L24.574,38.586L22.106,38.892C22.106,38.892 22.123,39.701 22.123,39.96L53.798,39.96C53.797,39.881 53.707,39.18 53.707,39.18L51.638,39.079L53.778,38.801C53.778,38.801 53.766,38.075 53.76,37.713L51.002,37.26L53.842,36.897L53.798,35.934Z" style="fill:rgb(170,75,29);"/>
                    </g>
                    <g transform="matrix(1.25572,0.298636,-0.321745,1.35289,-6.71001,-24.953)">
                        <ellipse cx="50.383" cy="38.322" rx="0.523" ry="0.492" style="fill:rgb(202,202,202);"/>
                    </g>
                    <g transform="matrix(1.25572,0.298636,-0.321745,1.35289,-30.4751,-31.2297)">
                        <ellipse cx="50.383" cy="38.322" rx="0.523" ry="0.492" style="fill:rgb(202,202,202);"/>
                    </g>
                </g>
            </g>
            <g id="board1" transform="matrix(1.25048,0.158168,-0.149658,1.1832,-1.7018,-9.36852)">
                <g>
                    <g transform="matrix(1.25572,0.298636,-0.321745,1.35289,-3.09067,-23.8152)">
                        <path d="M53.798,35.934L22.123,35.934L22.141,38.036L25.201,38.471L22.106,38.892C22.106,38.892 22.123,39.701 22.123,39.96L53.798,39.96L53.76,37.713L49.027,37.223L53.842,36.897L53.798,35.934Z" style="fill:rgb(86,40,17);"/>
                    </g>
                    <g transform="matrix(1.25572,0.298636,-0.321745,1.35289,-6.80417,-25.2836)">
                        <ellipse cx="50.383" cy="38.322" rx="0.523" ry="0.492" style="fill:rgb(202,202,202);"/>
                    </g>
                    <g transform="matrix(1.25572,0.298636,-0.321745,1.35289,-31.2995,-31.3583)">
                        <ellipse cx="50.383" cy="38.322" rx="0.523" ry="0.492" style="fill:rgb(202,202,202);"/>
                    </g>
                </g>
            </g>
        </g>
    </g>
</svg>
