<?xml version="1.0" encoding="UTF-8" standalone="no"?>
<!DOCTYPE svg PUBLIC "-//W3C//DTD SVG 1.1//EN" "http://www.w3.org/Graphics/SVG/1.1/DTD/svg11.dtd">
<svg width="100%" height="100%" viewBox="0 0 128 128" version="1.1" xmlns="http://www.w3.org/2000/svg" xmlns:xlink="http://www.w3.org/1999/xlink" xml:space="preserve" xmlns:serif="http://www.serif.com/" style="fill-rule:evenodd;clip-rule:evenodd;stroke-linejoin:round;stroke-miterlimit:2;">
    <g id="While-Building" serif:id="While Building" transform="matrix(0.976563,0,0,0.976563,1.5,1.5)">
        <circle cx="64" cy="64" r="64" style="fill:rgb(255,184,14);"/>
        <clipPath id="_clip1">
            <circle cx="64" cy="64" r="64"/>
        </clipPath>
        <g clip-path="url(#_clip1)">
            <g id="CannotBuildOnLand" transform="matrix(5.12,0,-8.58281e-31,5.12,-1.4661,8.08625)">
                <g transform="matrix(0.166994,-7.95156e-20,2.79937e-32,0.166994,2.07259,-0.629494)">
                    <path d="M32.816,55.267L20.391,55.469L39.046,36.41L39.046,19.823L50.499,19.823L50.499,26.55L65.286,13.821L107.922,54.901L97.938,54.961L97.848,54.962L97.848,105.744C97.848,107.89 96.106,109.633 93.959,109.633L36.705,109.633C34.559,109.633 32.816,107.89 32.816,105.744L32.816,55.267ZM79.745,59.853L51.006,59.776L50.92,91.551L79.659,91.629L79.745,59.853Z" style="fill:white;"/>
                </g>
                <g transform="matrix(0.151349,1.3901e-17,-8.40158e-18,0.250418,3.45187,-6.20907)">
                    <path d="M111.635,84.968C111.635,83.324 109.426,81.989 106.706,81.989L16.631,81.989C13.911,81.989 11.702,83.324 11.702,84.968L11.702,96.504C11.702,98.148 13.911,99.483 16.631,99.483L106.706,99.483C109.426,99.483 111.635,98.148 111.635,96.504L111.635,84.968Z" style="fill:rgb(127,81,57);"/>
                </g>
                <g transform="matrix(-0.488562,0,1.77162e-31,0.568281,20.3478,13.4176)">
                    <path d="M0,0L4.782,0C4.727,-0.661 4.515,-1.299 4.164,-1.861C3.737,-2.482 3.24,-3.053 2.683,-3.561C3.902,-3.399 5.078,-3.001 6.145,-2.389C6.241,-3.248 6.637,-4.047 7.263,-4.643C8.207,-5.433 9.265,-6.076 10.4,-6.551C9.725,-5.852 9.161,-5.055 8.727,-4.186C8.382,-3.367 8.194,-2.489 8.175,-1.6C8.647,-2.508 9.441,-3.208 10.4,-3.565C11.67,-3.833 12.516,-3.602 12.898,-2.4C12.069,-2.684 11.352,-2.689 10.883,-2.367C10.362,-2.009 9.857,-1.244 10.169,-0.819C10.949,0.242 13.388,0 13.388,0L30.958,-0.259L30.958,2.741L0,3L0,0Z" style="fill:rgb(49,207,0);fill-rule:nonzero;"/>
                </g>
                <g transform="matrix(0.148449,-0.106709,0.116735,0.162397,-5.00096,5.53526)">
                    <rect x="4.261" y="69.974" width="115.093" height="7.6" style="fill:rgb(193,33,14);"/>
                    <path d="M122.636,69.974C122.636,68.317 121.166,66.974 119.354,66.974L4.261,66.974C2.448,66.974 0.979,68.317 0.979,69.974L0.979,77.575C0.979,79.232 2.448,80.575 4.261,80.575L119.354,80.575C121.166,80.575 122.636,79.232 122.636,77.575L122.636,69.974ZM119.354,69.974L4.261,69.974L4.261,77.575L119.354,77.575L119.354,69.974Z" style="fill:rgb(255,184,14);"/>
                </g>
            </g>
        </g>
    </g>
</svg>
