<?xml version="1.0" encoding="UTF-8" standalone="no"?>
<!DOCTYPE svg PUBLIC "-//W3C//DTD SVG 1.1//EN" "http://www.w3.org/Graphics/SVG/1.1/DTD/svg11.dtd">
<svg width="100%" height="100%" viewBox="0 0 128 128" version="1.1" xmlns="http://www.w3.org/2000/svg" xmlns:xlink="http://www.w3.org/1999/xlink" xml:space="preserve" xmlns:serif="http://www.serif.com/" style="fill-rule:evenodd;clip-rule:evenodd;stroke-linejoin:round;stroke-miterlimit:2;">
    <g id="Vehicles" transform="matrix(0.976563,0,0,0.942198,1.5,1.5)">
        <path d="M64,0L119.426,33.167L119.426,99.501L64,132.668L8.574,99.501L8.574,33.167L64,0Z" style="fill:rgb(255,184,14);"/>
        <clipPath id="_clip1">
            <path d="M64,0L119.426,33.167L119.426,99.501L64,132.668L8.574,99.501L8.574,33.167L64,0Z"/>
        </clipPath>
        <g clip-path="url(#_clip1)">
            <g id="ContaminatedWater" transform="matrix(4.14016,0,0,4.29116,10.1779,12.3972)">
                <g transform="matrix(1,0,0,1,4,12)">
                    <path d="M0,0L18,0L18,5C18,6.097 17.097,7 16,7L2,7C0.903,7 0,6.097 0,5L0,0Z" style="fill:rgb(0,165,238);fill-rule:nonzero;"/>
                </g>
                <g transform="matrix(1,0,0,1,4,9)">
                    <path d="M0,0C1.395,0.118 2.8,-0.018 4.147,-0.4C6.322,-1.032 8.461,-4.84 8.461,-4.84C8.461,-4.84 10.842,-0.633 13.167,0C14.757,0.363 16.41,0.363 18,0L18,3L0,3L0,0Z" style="fill:rgb(205,255,36);fill-rule:nonzero;"/>
                </g>
                <g transform="matrix(1,0,0,1,14,10)">
                    <circle cx="2.5" cy="2.5" r="2.5" style="fill:rgb(205,255,36);"/>
                </g>
            </g>
        </g>
    </g>
</svg>
