<?xml version="1.0" encoding="UTF-8" standalone="no"?>
<!DOCTYPE svg PUBLIC "-//W3C//DTD SVG 1.1//EN" "http://www.w3.org/Graphics/SVG/1.1/DTD/svg11.dtd">
<svg width="100%" height="100%" viewBox="0 0 128 128" version="1.1" xmlns="http://www.w3.org/2000/svg" xmlns:xlink="http://www.w3.org/1999/xlink" xml:space="preserve" xmlns:serif="http://www.serif.com/" style="fill-rule:evenodd;clip-rule:evenodd;stroke-linejoin:round;stroke-miterlimit:2;">
    <g id="Vehicles" transform="matrix(0.976563,0,0,0.942198,1.5,1.5)">
        <path d="M64,0L119.426,33.167L119.426,99.501L64,132.668L8.574,99.501L8.574,33.167L64,0Z" style="fill:rgb(229,99,51);"/>
        <clipPath id="_clip1">
            <path d="M64,0L119.426,33.167L119.426,99.501L64,132.668L8.574,99.501L8.574,33.167L64,0Z"/>
        </clipPath>
        <g clip-path="url(#_clip1)">
            <g transform="matrix(0.980472,0,0,1.01623,14.9682,-3.70768)">
                <g transform="matrix(0.8,0,0,0.8,6.22168,1.20921)">
                    <g transform="matrix(1.71639,0,0,1.67242,-49.6747,-19.8313)">
                        <path d="M61.47,30.481C61.47,29.158 60.424,28.083 59.134,28.083C57.844,28.083 56.797,29.158 56.797,30.481L56.797,37.58C56.797,38.904 57.844,39.978 59.134,39.978C60.424,39.978 61.47,38.904 61.47,37.58L61.47,30.481Z" style="fill:rgb(166,194,206);"/>
                    </g>
                    <g transform="matrix(1.39235,0,0,1.39235,-31.4324,-15.4259)">
                        <path d="M55.321,34.652C55.958,32.835 57.689,31.53 59.722,31.53C61.818,31.53 63.593,32.917 64.178,34.822C66.448,33.604 69.698,32.049 71.492,32.049C73.81,32.049 75.693,33.931 75.693,36.249C75.693,38.568 73.81,40.45 71.492,40.45C69.689,40.45 66.418,38.88 64.146,37.66C63.531,39.514 61.781,40.853 59.722,40.853C57.725,40.853 56.02,39.595 55.357,37.828C53.107,39.02 50.048,40.45 48.327,40.45C46.009,40.45 44.126,38.568 44.126,36.249C44.126,33.931 46.009,32.049 48.327,32.049C50.039,32.049 53.075,33.464 55.321,34.652Z" style="fill:rgb(166,194,206);"/>
                    </g>
                    <g transform="matrix(1.39235,0,0,1.39235,-31.0836,-10.806)">
                        <path d="M53.873,39.561C53.79,39.362 53.744,39.143 53.744,38.914C53.744,37.985 54.498,37.232 55.426,37.232L63.379,37.232C64.307,37.232 65.061,37.985 65.061,38.914C65.061,39.182 64.998,39.435 64.887,39.66C67.45,41.433 69.131,44.394 69.131,47.744C69.131,53.167 64.729,57.569 59.307,57.569C53.885,57.569 49.483,53.167 49.483,47.744C49.483,44.331 51.227,41.322 53.873,39.561Z" style="fill:rgb(193,219,231);"/>
                    </g>
                    <g transform="matrix(1.39235,0,0,1.39235,-30.3616,-11.5281)">
                        <path d="M37.098,53.679L37.098,54.861L65.039,54.861L65.039,54.861C67.196,54.857 69.29,55.551 70.968,56.826C73.169,58.5 74.451,61.017 74.457,63.679L83.854,63.659L83.854,63.642L86.801,63.635C86.787,57.611 84.06,51.914 79.375,48.127C75.804,45.24 71.349,43.669 66.757,43.679L66.757,43.681L37.047,43.681L37.047,53.679L37.098,53.679Z" style="fill:rgb(193,219,231);"/>
                    </g>
                    <g transform="matrix(1.09225,0,0,1.39024,-7.83522,-29.9851)">
                        <path d="M91.416,76.871C91.416,75.929 90.443,75.165 89.244,75.165L74.727,75.165C73.528,75.165 72.554,75.929 72.554,76.871L72.554,76.941C72.554,77.883 73.528,78.648 74.727,78.648L89.244,78.648C90.443,78.648 91.416,77.883 91.416,76.941L91.416,76.871Z" style="fill:rgb(166,194,206);"/>
                    </g>
                    <g transform="matrix(-5.52486e-17,-0.902278,-1,6.12323e-17,98.8942,99.3582)">
                        <path d="M66.961,87.11L26.097,87.11C28.122,82.546 34.117,76.356 36.735,75.232C39.09,74.221 55.117,74.416 56.745,75.286C59.091,76.54 64.85,82.702 66.961,87.11Z" style="fill:rgb(166,194,206);"/>
                    </g>
                </g>
                <g transform="matrix(0.5,0,0,0.5,40.597,55.6389)">
                    <g id="Path_63" transform="matrix(5.40228,0,0,5.40228,-53702.9,245.545)">
                        <path d="M9952.54,-41.21C9952.54,-41.21 9948.57,-32.874 9948.27,-31.459C9948.03,-30.284 9947.61,-25.744 9952.53,-25.744C9957.45,-25.744 9957.09,-30.499 9956.91,-31.343C9956.5,-33.178 9952.54,-41.21 9952.54,-41.21Z" style="fill:rgb(205,255,36);fill-rule:nonzero;"/>
                    </g>
                    <g id="Ellipse_120" transform="matrix(5.40228,0,0,5.40228,48.8111,70.4143)">
                        <ellipse cx="1.5" cy="2" rx="1.5" ry="2" style="fill:rgb(240,253,194);"/>
                    </g>
                    <g id="Ellipse_121" transform="matrix(5.40228,0,0,5.40228,75.8225,92.0234)">
                        <circle cx="0.5" cy="0.5" r="0.5" style="fill:rgb(242,253,204);"/>
                    </g>
                </g>
            </g>
        </g>
    </g>
</svg>
