<?xml version="1.0" encoding="UTF-8" standalone="no"?>
<!DOCTYPE svg PUBLIC "-//W3C//DTD SVG 1.1//EN" "http://www.w3.org/Graphics/SVG/1.1/DTD/svg11.dtd">
<svg width="100%" height="100%" viewBox="0 0 128 128" version="1.1" xmlns="http://www.w3.org/2000/svg" xmlns:xlink="http://www.w3.org/1999/xlink" xml:space="preserve" xmlns:serif="http://www.serif.com/" style="fill-rule:evenodd;clip-rule:evenodd;stroke-linejoin:round;stroke-miterlimit:2;">
    <g id="RentTooHigh" transform="matrix(0.93747,0,0,0.917643,6.5039,9.04172)">
        <path d="M128,20.294C128,4.558 115.494,-8.219 100.09,-8.219L22.572,-8.219C7.168,-8.219 -5.338,4.558 -5.338,20.294L-5.338,77.32C-5.338,93.056 7.168,105.832 22.572,105.832L60.791,105.832L100.622,128L100.09,105.832C115.494,105.832 128,93.056 128,77.32L128,20.294Z" style="fill:rgb(37,93,149);"/>
        <clipPath id="_clip1">
            <path d="M128,20.294C128,4.558 115.494,-8.219 100.09,-8.219L22.572,-8.219C7.168,-8.219 -5.338,4.558 -5.338,20.294L-5.338,77.32C-5.338,93.056 7.168,105.832 22.572,105.832L60.791,105.832L100.622,128L100.09,105.832C115.494,105.832 128,93.056 128,77.32L128,20.294Z"/>
        </clipPath>
        <g clip-path="url(#_clip1)">
            <g id="crime-scene" serif:id="crime scene" transform="matrix(2.37262,0,0,2.42388,-15.0565,-28.4912)">
                <path d="M3.741,12.197L60.27,29.775L60.27,38.139L3.422,20.51L3.492,13.505C3.562,12.92 3.613,12.604 3.741,12.197Z" style="fill:rgb(236,171,35);"/>
                <path d="M60.27,36.438L60.27,38.173L58.664,37.675L60.27,36.438ZM60.27,29.81L60.27,31.272L53.882,36.192L48.415,34.497L56.156,28.534L60.27,29.81ZM51.373,27.051L45.907,25.356L38.166,31.318L43.633,33.014L51.373,27.051ZM41.124,23.873L35.657,22.178L27.917,28.14L33.384,29.835L41.124,23.873ZM30.875,20.695L25.408,18.999L17.668,24.962L23.135,26.657L30.875,20.695ZM20.626,17.516L15.159,15.821L7.419,21.783L12.886,23.479L20.626,17.516ZM3.468,13.805L4.956,12.612L10.408,14.292L3.422,19.696L3.468,13.805Z" style="fill:rgb(87,82,72);"/>
                <path d="M58.361,8.364C59.33,9.927 60.27,11.54 60.27,13.513L60.27,16.132L3.422,39.006L3.422,30.395L58.361,8.364Z" style="fill:rgb(236,171,35);"/>
                <path d="M14.781,25.861L9.471,27.997L7.232,37.508L12.542,35.371L14.781,25.861ZM3.422,35.831L3.422,30.431L4.826,29.866L3.422,35.831ZM24.735,21.855L19.425,23.992L17.187,33.502L22.497,31.366L24.735,21.855ZM34.69,17.85L29.38,19.986L27.142,29.497L32.452,27.36L34.69,17.85ZM44.645,13.844L39.335,15.981L37.097,25.491L42.407,23.354L44.645,13.844ZM54.6,9.838L49.29,11.975L47.052,21.485L52.362,19.349L54.6,9.838ZM58.824,9.126C59.589,10.559 60.27,11.776 60.27,13.513L60.27,16.167L57.007,17.48L58.824,9.126Z" style="fill:rgb(87,82,72);"/>
                <path d="M53.093,60.066L3.422,32.632L3.422,23.505L59.235,54.348C58.006,56.906 55.919,59.182 53.093,60.066Z" style="fill:rgb(236,171,35);"/>
                <path d="M59.236,54.288C58.043,56.966 55.884,59.176 53.05,60.049L48.941,57.81L57.729,53.539L59.236,54.288ZM53.346,51.118L48.336,48.351L39.548,52.622L44.559,55.39L53.346,51.118ZM43.953,45.93L38.943,43.163L30.155,47.434L35.166,50.202L43.953,45.93ZM34.56,40.742L29.549,37.975L20.762,42.246L25.773,45.014L34.56,40.742ZM25.167,35.554L20.156,32.787L11.369,37.058L16.379,39.826L25.167,35.554ZM3.422,31.167L10.763,27.599L15.774,30.366L6.986,34.638L3.422,32.669L3.422,31.167ZM6.381,25.178L3.422,26.616L3.422,23.544L6.381,25.178Z" style="fill:rgb(87,82,72);"/>
            </g>
        </g>
    </g>
</svg>
