<?xml version="1.0" encoding="UTF-8" standalone="no"?>
<!DOCTYPE svg PUBLIC "-//W3C//DTD SVG 1.1//EN" "http://www.w3.org/Graphics/SVG/1.1/DTD/svg11.dtd">
<svg width="100%" height="100%" viewBox="0 0 128 128" version="1.1" xmlns="http://www.w3.org/2000/svg" xmlns:xlink="http://www.w3.org/1999/xlink" xml:space="preserve" xmlns:serif="http://www.serif.com/" style="fill-rule:evenodd;clip-rule:evenodd;stroke-linejoin:round;stroke-miterlimit:2;">
    <g id="Event" transform="matrix(0.976563,0,0,0.976563,1.5,1.5)">
        <path d="M64,0L128,64L64,128L0,64L64,0Z" style="fill:rgb(255,231,185);"/>
        <clipPath id="_clip1">
            <path d="M64,0L128,64L64,128L0,64L64,0Z"/>
        </clipPath>
        <g clip-path="url(#_clip1)">
            <g id="Dead-End" serif:id="Dead End" transform="matrix(1.78101,0,0,1.78101,4.8149,7.56083)">
                <g transform="matrix(1.66802,0,0,0.97152,-9.77408,-5.36257)">
                    <g>
                        <path d="M15.939,28.281C15.939,27.146 15.403,26.224 14.741,26.224C14.08,26.224 13.543,27.146 13.543,28.281L13.543,49.261C13.543,50.396 14.08,51.317 14.741,51.317C15.403,51.317 15.939,50.396 15.939,49.261L15.939,28.281Z" style="fill:rgb(159,159,159);"/>
                    </g>
                </g>
                <g transform="matrix(1.66802,0,0,0.97152,26.9417,-5.36257)">
                    <g>
                        <path d="M15.939,28.281C15.939,27.146 15.403,26.224 14.741,26.224C14.08,26.224 13.543,27.146 13.543,28.281L13.543,49.261C13.543,50.396 14.08,51.317 14.741,51.317C15.403,51.317 15.939,50.396 15.939,49.261L15.939,28.281Z" style="fill:rgb(159,159,159);"/>
                    </g>
                </g>
                <g transform="matrix(-1,0,0,1,66.1887,5.24585)">
                    <rect x="11.212" y="28.837" width="43.491" height="6.754" style="fill:rgb(251,251,251);"/>
                </g>
                <g transform="matrix(-1,0,0,1,66.1887,5.24585)">
                    <path d="M21.773,35.591L15.939,35.591L21.521,28.837L27.354,28.837L21.773,35.591ZM32.907,35.591L27.419,35.591L33,28.837L38.488,28.837L32.907,35.591ZM44.041,35.591L38.553,35.591L44.134,28.837L49.622,28.837L44.041,35.591ZM54.703,35.591L49.686,35.591L54.703,29.52L54.703,35.591ZM15.875,28.837L11.212,34.48L11.212,28.837L15.875,28.837Z" style="fill:rgb(218,43,7);"/>
                </g>
                <g transform="matrix(-1,0,0,1,66.1887,-6.41347)">
                    <rect x="11.212" y="28.837" width="43.491" height="6.754" style="fill:rgb(251,251,251);"/>
                </g>
                <g transform="matrix(-1,0,0,1,66.1887,-6.41347)">
                    <path d="M21.773,35.591L15.939,35.591L21.521,28.837L27.354,28.837L21.773,35.591ZM32.907,35.591L27.419,35.591L33,28.837L38.488,28.837L32.907,35.591ZM44.041,35.591L38.553,35.591L44.134,28.837L49.622,28.837L44.041,35.591ZM54.703,35.591L49.686,35.591L54.703,29.52L54.703,35.591ZM15.875,28.837L11.212,34.48L11.212,28.837L15.875,28.837Z" style="fill:rgb(218,43,7);"/>
                </g>
                <g transform="matrix(0.322612,0.331551,-0.32509,0.316071,21.6635,-11.5396)">
                    <path d="M89.9,18.112C89.9,15.993 88.214,14.272 86.137,14.272L54.002,14.272C51.925,14.272 50.238,15.993 50.238,18.112L50.238,49.792C50.238,51.911 51.925,53.632 54.002,53.632L86.137,53.632C88.214,53.632 89.9,51.911 89.9,49.792L89.9,18.112Z" style="fill:rgb(224,146,42);"/>
                    <path d="M92.833,18.113C92.833,14.342 89.832,11.28 86.136,11.28L54.001,11.28C50.306,11.28 47.306,14.341 47.306,18.111C47.306,18.111 47.306,49.791 47.306,49.791C47.306,53.562 50.307,56.624 54.003,56.624C54.003,56.624 86.138,56.624 86.138,56.624C89.833,56.624 92.833,53.563 92.833,49.793C92.833,49.793 92.833,18.113 92.833,18.113ZM89.9,18.112C89.9,15.993 88.214,14.272 86.137,14.272L54.002,14.272C51.925,14.272 50.238,15.993 50.238,18.112L50.238,49.792C50.238,51.911 51.925,53.632 54.002,53.632L86.137,53.632C88.214,53.632 89.9,51.911 89.9,49.792L89.9,18.112Z" style="fill:rgb(251,165,50);"/>
                </g>
                <g transform="matrix(0.291312,0.299383,-0.299503,0.291195,22.988,-8.41609)">
                    <path d="M89.9,18.112C89.9,15.993 88.18,14.272 86.061,14.272L54.078,14.272C51.959,14.272 50.238,15.993 50.238,18.112L50.238,49.792C50.238,51.911 51.959,53.632 54.078,53.632L86.061,53.632C88.18,53.632 89.9,51.911 89.9,49.792L89.9,18.112Z" style="fill:rgb(251,165,50);"/>
                    <path d="M93.148,18.113C93.148,14.201 89.972,11.024 86.059,11.024C86.059,11.024 54.077,11.024 54.077,11.024C50.166,11.024 46.99,14.2 46.99,18.111C46.99,18.111 46.99,49.791 46.99,49.791C46.99,53.703 50.167,56.88 54.08,56.88C54.08,56.88 86.062,56.88 86.062,56.88C89.973,56.88 93.148,53.704 93.148,49.793C93.148,49.793 93.148,18.113 93.148,18.113ZM89.9,18.112C89.9,15.993 88.18,14.272 86.061,14.272L54.078,14.272C51.959,14.272 50.238,15.993 50.238,18.112L50.238,49.792C50.238,51.911 51.959,53.632 54.078,53.632L86.061,53.632C88.18,53.632 89.9,51.911 89.9,49.792L89.9,18.112Z"/>
                </g>
                <g transform="matrix(0.417809,0,0,0.417642,6.49145,5.27204)">
                    <path d="M59.809,40.16L52.171,32.14C51.596,31.537 51.62,30.582 52.222,30.007L54.407,27.927C55.01,27.353 55.965,27.376 56.539,27.979L64.146,35.965L71.955,28.413C72.554,27.834 73.509,27.85 74.088,28.449L76.185,30.617C76.764,31.216 76.748,32.171 76.15,32.75L68.308,40.334L75.829,48.231C76.404,48.834 76.38,49.79 75.778,50.364L73.593,52.444C72.99,53.018 72.035,52.995 71.461,52.392L63.97,44.529L56.045,52.194C55.446,52.772 54.491,52.756 53.912,52.158L51.815,49.99C51.236,49.391 51.252,48.435 51.85,47.857L59.809,40.16Z"/>
                </g>
            </g>
        </g>
    </g>
</svg>
