<?xml version="1.0" encoding="UTF-8" standalone="no"?>
<!DOCTYPE svg PUBLIC "-//W3C//DTD SVG 1.1//EN" "http://www.w3.org/Graphics/SVG/1.1/DTD/svg11.dtd">
<svg width="100%" height="100%" viewBox="0 0 128 128" version="1.1" xmlns="http://www.w3.org/2000/svg" xmlns:xlink="http://www.w3.org/1999/xlink" xml:space="preserve" xmlns:serif="http://www.serif.com/" style="fill-rule:evenodd;clip-rule:evenodd;stroke-linejoin:round;stroke-miterlimit:2;">
    <g id="Vehicles" transform="matrix(0.976563,0,0,0.942198,1.5,1.5)">
        <path d="M64,0L119.426,33.167L119.426,99.501L64,132.668L8.574,99.501L8.574,33.167L64,0Z" style="fill:rgb(229,99,51);"/>
        <clipPath id="_clip1">
            <path d="M64,0L119.426,33.167L119.426,99.501L64,132.668L8.574,99.501L8.574,33.167L64,0Z"/>
        </clipPath>
        <g clip-path="url(#_clip1)">
            <g id="pipe" transform="matrix(7.95804e-17,1.34583,-1.29847,8.2833e-17,103.794,13.2964)">
                <g>
                    <g transform="matrix(1.2895,0,0,1.2525,-32.6285,-2.01202)">
                        <path d="M36.245,10.737C40.668,10.737 44.259,17.599 44.259,26.051C44.259,34.503 40.668,41.365 36.245,41.365C31.821,41.365 28.23,34.503 28.23,26.051C28.23,17.599 31.821,10.737 36.245,10.737ZM36.245,14.566C39.562,14.566 42.255,19.712 42.255,26.051C42.255,32.39 39.562,37.537 36.245,37.537C32.927,37.537 30.234,32.39 30.234,26.051C30.234,19.712 32.927,14.566 36.245,14.566Z" style="fill:rgb(77,69,69);"/>
                    </g>
                    <g transform="matrix(0.767919,0,0,0.964615,10.5335,0.49481)">
                        <path d="M31.399,12.681C31.399,12.681 5.374,13.315 3.781,13.954C-8.095,18.716 -9.571,42.605 3.7,48.763C5.141,49.432 31.431,49.606 31.431,49.606L31.399,12.681Z" style="fill:rgb(131,122,122);"/>
                    </g>
                    <g transform="matrix(1.36882,7.22997e-21,4.11666e-20,1.23837,-7.42663,-0.569259)">
                        <path d="M24.238,21.502L10.088,21.444C10.016,21.887 9.948,22.281 9.924,22.79L24.392,22.871C24.378,22.426 24.22,21.937 24.238,21.502ZM25.7,15.867L11.717,16.099C11.111,17.337 10.536,19.077 10.217,20.684L24.124,20.708C24.117,18.986 25.203,17.305 25.7,15.867Z" style="fill:rgb(196,196,196);"/>
                    </g>
                    <g transform="matrix(1.07758,-2.19705e-20,-1.0942e-19,1.28926,-4.71958,-1.83515)">
                        <ellipse cx="34.42" cy="25.109" rx="7.363" ry="11.891" style="fill:rgb(24,24,24);"/>
                    </g>
                    <g transform="matrix(1.23837,0,0,1.23837,-5.92334,-0.566735)">
                        <path d="M10.72,32.061L26.444,31.889C26.444,31.889 27.192,35.109 28.212,36.335C29.268,37.603 32.779,39.497 32.779,39.497C28.566,39.491 21.618,39.385 19.66,39.218C19.66,39.218 16.3,39.116 15.709,38.889C15.005,38.619 14.033,37.687 13.562,37.208C11.42,35.026 10.74,32.101 10.72,32.061Z" style="fill:rgb(98,91,91);"/>
                    </g>
                    <g transform="matrix(1.13191,-2.13457e-20,-9.31699e-20,1.16293,-7.51702,0.240723)">
                        <path d="M36.245,10.737C40.668,10.737 44.259,17.599 44.259,26.051C44.259,34.503 40.668,41.365 36.245,41.365C31.821,41.365 28.23,34.503 28.23,26.051C28.23,17.599 31.821,10.737 36.245,10.737ZM36.245,14.566C39.562,14.566 42.255,19.712 42.255,26.051C42.255,32.39 39.562,37.537 36.245,37.537C32.927,37.537 30.234,32.39 30.234,26.051C30.234,19.712 32.927,14.566 36.245,14.566Z" style="fill:rgb(174,174,174);"/>
                    </g>
                </g>
            </g>
            <g id="DirtyWaterInPump" transform="matrix(3.91608,0,0,4.0589,15.4134,38.6757)">
                <g>
                    <g id="Path_63" transform="matrix(0.950454,0,0,0.950454,-9446.84,43.5471)">
                        <path d="M9952.54,-41.21C9952.54,-41.21 9948.57,-32.874 9948.27,-31.459C9948.03,-30.284 9947.61,-25.744 9952.53,-25.744C9957.45,-25.744 9957.09,-30.499 9956.91,-31.343C9956.5,-33.178 9952.54,-41.21 9952.54,-41.21Z" style="fill:rgb(203,255,26);fill-rule:nonzero;"/>
                    </g>
                    <g id="Ellipse_120" transform="matrix(0.950454,0,0,0.950454,9.89619,12.7352)">
                        <ellipse cx="1.5" cy="2" rx="1.5" ry="2" style="fill:rgb(146,190,0);"/>
                    </g>
                    <g id="Ellipse_121" transform="matrix(0.950454,0,0,0.950454,14.7648,16.5371)">
                        <circle cx="0.5" cy="0.5" r="0.5" style="fill:rgb(172,222,4);"/>
                    </g>
                </g>
            </g>
        </g>
    </g>
</svg>
