<?xml version="1.0" encoding="UTF-8" standalone="no"?>
<!DOCTYPE svg PUBLIC "-//W3C//DTD SVG 1.1//EN" "http://www.w3.org/Graphics/SVG/1.1/DTD/svg11.dtd">
<svg width="100%" height="100%" viewBox="0 0 128 128" version="1.1" xmlns="http://www.w3.org/2000/svg" xmlns:xlink="http://www.w3.org/1999/xlink" xml:space="preserve" xmlns:serif="http://www.serif.com/" style="fill-rule:evenodd;clip-rule:evenodd;stroke-linejoin:round;stroke-miterlimit:2;">
    <g id="While-Building" serif:id="While Building" transform="matrix(0.976563,0,0,0.976563,1.5,1.5)">
        <circle cx="64" cy="64" r="64" style="fill:rgb(255,231,185);"/>
        <clipPath id="_clip1">
            <circle cx="64" cy="64" r="64"/>
        </clipPath>
        <g clip-path="url(#_clip1)">
            <g id="ExceedsLotLimits" transform="matrix(1.72573,0,0,1.72573,9.11294,9.03564)">
                <g transform="matrix(1.0398,0,0,1.01232,-0.471036,2.08901)">
                    <path d="M53.901,11.111C53.901,8.587 51.906,6.539 49.449,6.539L12.632,6.539C10.175,6.539 8.181,8.587 8.181,11.111L8.181,47.687C8.181,50.21 10.175,52.259 12.632,52.259L49.449,52.259C51.906,52.259 53.901,50.21 53.901,47.687L53.901,11.111Z" style="fill:rgb(229,99,51);"/>
                </g>
                <g transform="matrix(0.666393,0,0,0.648782,4.78027,5.58373)">
                    <path d="M16.162,54.211L8.546,54.211L8.546,54.169L8.449,54.169L8.449,46.192L11.422,46.192L11.422,51.238L16.162,51.238L16.162,54.211ZM28.299,54.211L22.11,54.211L22.11,51.238L28.299,51.238L28.299,54.211ZM40.354,54.211L34.246,54.211L34.246,51.238L40.354,51.238L40.354,54.211ZM46.302,51.238L51.336,51.238L51.336,46.234L54.31,46.234L54.31,51.238L54.323,51.238L54.323,54.211L46.302,54.211L46.302,51.238ZM11.422,40.244L8.449,40.244L8.449,34.056L11.422,34.056L11.422,40.244ZM54.31,34.056L54.31,40.104L51.336,40.104L51.336,34.056L54.31,34.056ZM11.422,28.108L8.449,28.108L8.449,22L11.422,22L11.422,28.108ZM54.31,28.108L51.336,28.108L51.336,22L54.31,22L54.31,28.108ZM46.302,8.482L54.298,8.482L54.298,9.504L54.31,9.504L54.31,16.052L51.336,16.052L51.336,11.455L46.302,11.455L46.302,8.482ZM16.162,8.482L16.162,11.455L11.422,11.455L11.422,16.052L8.449,16.052L8.449,9.182L8.522,9.182L8.522,8.482L16.162,8.482ZM28.299,11.455L22.11,11.455L22.11,8.482L28.299,8.482L28.299,11.455ZM40.354,11.455L34.246,11.455L34.246,8.482L40.354,8.482L40.354,11.455Z" style="fill:white;"/>
                </g>
            </g>
        </g>
    </g>
</svg>
