<?xml version="1.0" encoding="UTF-8" standalone="no"?>
<!DOCTYPE svg PUBLIC "-//W3C//DTD SVG 1.1//EN" "http://www.w3.org/Graphics/SVG/1.1/DTD/svg11.dtd">
<svg width="100%" height="100%" viewBox="0 0 128 128" version="1.1" xmlns="http://www.w3.org/2000/svg" xmlns:xlink="http://www.w3.org/1999/xlink" xml:space="preserve" xmlns:serif="http://www.serif.com/" style="fill-rule:evenodd;clip-rule:evenodd;stroke-linejoin:round;stroke-miterlimit:2;">
    <g id="Vehicles" transform="matrix(0.976563,0,0,0.942198,2.82451,1.5)">
        <path d="M64,0L119.426,33.167L119.426,99.501L64,132.668L8.574,99.501L8.574,33.167L64,0Z" style="fill:rgb(255,231,185);"/>
        <clipPath id="_clip1">
            <path d="M64,0L119.426,33.167L119.426,99.501L64,132.668L8.574,99.501L8.574,33.167L64,0Z"/>
        </clipPath>
        <g clip-path="url(#_clip1)">
            <g id="FacilityFull" transform="matrix(1.58992,0,0,1.64791,12.4802,14.3542)">
                <g transform="matrix(0.937255,0,0,1,1.61148,-0.00958142)">
                    <path d="M56.375,19.983C56.376,20.018 56.376,20.053 56.376,20.088L56.376,44.262C56.376,50.933 50.96,56.349 44.289,56.349L19.599,56.349C12.927,56.349 7.511,50.933 7.511,44.262L7.511,20.088C7.511,20.053 7.512,20.018 7.512,19.983L11.816,19.983L11.816,42.505C11.816,48.033 16.304,52.521 21.832,52.521L41.864,52.521C47.392,52.521 51.88,48.033 51.88,42.505L51.88,19.983L56.375,19.983Z"/>
                    <path d="M57.75,19.971C57.743,19.264 57.13,18.695 56.375,18.695L51.88,18.695C51.121,18.695 50.505,19.272 50.505,19.983L50.505,42.505C50.505,47.3 46.659,51.233 41.864,51.233L21.832,51.233C17.037,51.233 13.191,47.3 13.191,42.505C13.191,42.505 13.191,19.983 13.191,19.983C13.191,19.272 12.575,18.695 11.816,18.695L7.512,18.695C6.758,18.695 6.145,19.264 6.138,19.971C6.137,20.01 6.137,20.049 6.137,20.088C6.137,20.088 6.137,44.262 6.137,44.262C6.137,51.666 12.194,57.637 19.599,57.637L44.289,57.637C51.693,57.637 57.75,51.666 57.75,44.262C57.75,44.262 57.75,20.088 57.75,20.088C57.75,20.049 57.75,20.01 57.75,19.971ZM56.375,19.983C56.376,20.018 56.376,20.053 56.376,20.088L56.376,44.262C56.376,50.933 50.96,56.349 44.289,56.349L19.599,56.349C12.927,56.349 7.511,50.933 7.511,44.262L7.511,20.088C7.511,20.053 7.512,20.018 7.512,19.983L11.816,19.983L11.816,42.505C11.816,48.033 16.304,52.521 21.832,52.521L41.864,52.521C47.392,52.521 51.88,48.033 51.88,42.505L51.88,19.983L56.375,19.983Z"/>
                </g>
                <g transform="matrix(1,0,0,1,0.459901,-28.2072)">
                    <path d="M45.501,48.22C46.263,48.212 46.875,47.588 46.868,46.827C46.861,46.065 46.237,45.453 45.475,45.46L37.657,45.535C36.896,45.542 36.283,46.166 36.291,46.928C36.298,47.689 36.922,48.301 37.684,48.294L45.501,48.22ZM16.706,48.141C15.944,48.134 15.332,47.51 15.339,46.748C15.347,45.987 15.971,45.375 16.732,45.382L24.55,45.456C25.312,45.464 25.924,46.088 25.917,46.849C25.909,47.611 25.285,48.223 24.524,48.216L16.706,48.141ZM41.13,38.42C41.579,37.805 41.446,36.941 40.831,36.491C40.216,36.042 39.352,36.176 38.903,36.79L34.286,43.1C33.836,43.714 33.97,44.578 34.585,45.028C35.199,45.478 36.063,45.344 36.513,44.729L41.13,38.42ZM21.078,38.341C20.628,37.727 20.762,36.863 21.376,36.413C21.991,35.963 22.855,36.097 23.304,36.712L27.921,43.021C28.371,43.636 28.237,44.5 27.623,44.949C27.008,45.399 26.144,45.265 25.694,44.651L21.078,38.341ZM32.51,34.402C32.51,33.64 31.892,33.022 31.13,33.022C30.369,33.022 29.751,33.64 29.751,34.402L29.751,42.22C29.751,42.981 30.369,43.6 31.13,43.6C31.892,43.6 32.51,42.981 32.51,42.22L32.51,34.402Z" style="fill:rgb(229,99,51);"/>
                </g>
                <g transform="matrix(0.8707,0,0,0.901329,4.38683,2.14267)">
                    <rect x="13.875" y="23.722" width="34.646" height="5.825"/>
                </g>
                <g transform="matrix(0.8707,0,0,0.901329,4.38683,8.95925)">
                    <rect x="13.875" y="23.722" width="34.646" height="5.825"/>
                </g>
                <g transform="matrix(0.8707,0,0,0.901329,4.38683,15.7758)">
                    <rect x="13.875" y="23.722" width="34.646" height="5.825"/>
                </g>
                <g transform="matrix(0.8707,0,0,0.901329,4.38683,22.5924)">
                    <path d="M48.521,23.722L13.875,23.722C13.875,23.722 14.328,25.195 15.518,26.584C16.394,27.607 18.821,28.933 20.045,29.115C22.257,29.445 31.185,29.548 31.185,29.548C31.185,29.548 40.002,29.887 43.569,29.058C45.476,28.614 47.011,26.538 47.485,25.844C47.846,25.316 48.521,23.722 48.521,23.722Z"/>
                </g>
            </g>
        </g>
    </g>
</svg>
