<?xml version="1.0" encoding="UTF-8" standalone="no"?>
<!DOCTYPE svg PUBLIC "-//W3C//DTD SVG 1.1//EN" "http://www.w3.org/Graphics/SVG/1.1/DTD/svg11.dtd">
<svg width="100%" height="100%" viewBox="0 0 128 128" version="1.1" xmlns="http://www.w3.org/2000/svg" xmlns:xlink="http://www.w3.org/1999/xlink" xml:space="preserve" xmlns:serif="http://www.serif.com/" style="fill-rule:evenodd;clip-rule:evenodd;stroke-linejoin:round;stroke-miterlimit:2;">
    <g id="While-Building" serif:id="While Building" transform="matrix(0.976563,0,0,0.976563,1.5,1.5)">
        <circle cx="64" cy="64" r="64" style="fill:rgb(255,184,14);"/>
        <clipPath id="_clip1">
            <circle cx="64" cy="64" r="64"/>
        </clipPath>
        <g clip-path="url(#_clip1)">
            <g id="FloodAlert" transform="matrix(5.12,0,-8.58281e-31,5.12,-1.4661,8.08625)">
                <g transform="matrix(0.166994,-7.95156e-20,2.79937e-32,0.166994,2.07259,-0.629494)">
                    <path d="M32.816,55.267L20.391,55.469L39.046,36.41L39.046,19.823L50.499,19.823L50.499,26.55L65.286,13.821L107.922,54.901L97.938,54.961L97.848,54.962L97.848,105.744C97.848,107.89 96.106,109.633 93.959,109.633L36.705,109.633C34.559,109.633 32.816,107.89 32.816,105.744L32.816,55.267ZM79.745,59.853L51.006,59.776L50.92,91.551L79.659,91.629L79.745,59.853Z" style="fill:white;"/>
                </g>
                <g transform="matrix(0.2,0,3.35266e-32,0.2,0.0953354,-1.87935)">
                    <g id="Water-Pollution" serif:id="Water Pollution">
                        <path d="M51.049,70.028C51.696,69.873 52.341,69.71 52.981,69.545C58.793,67.77 62.746,58.97 62.746,58.97C62.746,58.97 64.107,64.177 68.391,67.965C70.028,69.412 71.706,70.221 73.671,70.505C75.055,70.24 76.433,69.894 77.792,69.545C83.605,67.77 87.557,58.97 87.557,58.97C87.557,58.97 88.918,64.177 93.203,67.965C95.666,70.143 98.222,70.876 101.71,70.545L101.71,95.973C101.71,99.706 97.872,102.778 93.209,102.778L33.701,102.778C29.038,102.778 25.2,99.706 25.2,95.973L25.2,70.545C28.688,70.876 31.244,70.143 33.707,67.965C37.992,64.177 39.353,58.97 39.353,58.97C39.353,58.97 43.305,67.77 49.118,69.545C49.758,69.71 50.402,69.873 51.049,70.028Z" style="fill:rgb(57,194,255);fill-rule:nonzero;"/>
                    </g>
                </g>
                <g transform="matrix(0.148449,-0.106709,0.116735,0.162397,-5.00096,5.53526)">
                    <rect x="4.261" y="69.974" width="115.093" height="7.6" style="fill:rgb(193,33,14);"/>
                    <path d="M122.636,69.974C122.636,68.317 121.166,66.974 119.354,66.974L4.261,66.974C2.448,66.974 0.979,68.317 0.979,69.974L0.979,77.575C0.979,79.232 2.448,80.575 4.261,80.575L119.354,80.575C121.166,80.575 122.636,79.232 122.636,77.575L122.636,69.974ZM119.354,69.974L4.261,69.974L4.261,77.575L119.354,77.575L119.354,69.974Z" style="fill:rgb(255,184,14);"/>
                </g>
            </g>
        </g>
    </g>
</svg>
