<?xml version="1.0" encoding="UTF-8" standalone="no"?>
<!DOCTYPE svg PUBLIC "-//W3C//DTD SVG 1.1//EN" "http://www.w3.org/Graphics/SVG/1.1/DTD/svg11.dtd">
<svg width="100%" height="100%" viewBox="0 0 128 128" version="1.1" xmlns="http://www.w3.org/2000/svg" xmlns:xlink="http://www.w3.org/1999/xlink" xml:space="preserve" xmlns:serif="http://www.serif.com/" style="fill-rule:evenodd;clip-rule:evenodd;stroke-linejoin:round;stroke-miterlimit:2;">
    <g id="Vehicles" transform="matrix(0.976563,0,0,0.942198,1.5,1.5)">
        <path d="M64,0L119.426,33.167L119.426,99.501L64,132.668L8.574,99.501L8.574,33.167L64,0Z" style="fill:rgb(229,99,51);"/>
    </g>
    <g id="Vehicles1" serif:id="Vehicles" transform="matrix(0.976563,0,0,0.942198,1.5,1.5)">
        <path d="M64,0L119.426,33.167L119.426,99.501L64,132.668L8.574,99.501L8.574,33.167L64,0Z" style="fill:rgb(255,184,14);"/>
        <clipPath id="_clip1">
            <path d="M64,0L119.426,33.167L119.426,99.501L64,132.668L8.574,99.501L8.574,33.167L64,0Z"/>
        </clipPath>
        <g clip-path="url(#_clip1)">
            <g transform="matrix(1,0,0,1,1.86448,3.58597)">
                <g transform="matrix(0.982278,0,0,1.89419,0.15208,-28.989)">
                    <path d="M107.789,36.051C107.789,35.736 107.314,35.481 106.728,35.481L19.475,35.481C18.89,35.481 18.414,35.736 18.414,36.051L18.414,63.43C18.414,63.744 18.89,64 19.475,64L106.728,64C107.314,64 107.789,63.744 107.789,63.43L107.789,36.051Z" style="fill:rgb(81,30,3);"/>
                </g>
                <g transform="matrix(-1.84348,0,6.68479e-31,2.22248,106.031,36.8657)">
                    <path d="M-0,0.013L4.782,0C4.727,-0.661 4.515,-1.299 4.164,-1.861C3.737,-2.482 3.24,-3.053 2.683,-3.561C3.902,-3.399 5.078,-3.001 6.145,-2.389C6.241,-3.248 6.637,-4.047 7.263,-4.643C8.207,-5.433 9.265,-6.076 10.4,-6.551C9.725,-5.852 9.161,-5.055 8.727,-4.186C8.382,-3.367 8.194,-2.489 8.175,-1.6C8.647,-2.508 9.441,-3.208 10.4,-3.565C11.67,-3.833 12.516,-3.602 12.898,-2.4C12.069,-2.684 11.352,-2.689 10.883,-2.367C10.362,-2.009 9.857,-1.244 10.169,-0.819C10.949,0.242 13.388,0 13.388,0L47.622,-0.259L47.622,2.741L-0,3.013L-0,0.013Z" style="fill:rgb(49,207,0);fill-rule:nonzero;"/>
                </g>
                <g transform="matrix(0.878489,5.77817e-17,-4.87659e-17,1.0409,7.95942,-42.8889)">
                    <rect x="11.702" y="81.989" width="99.933" height="17.494" style="fill:rgb(100,47,19);"/>
                </g>
                <g transform="matrix(0.828602,2.46519e-32,-2.46519e-32,0.858823,9.02982,10.2427)">
                    <g id="Wate">
                        <g id="Layer4">
                            <g>
                                <path id="warning" d="M11.304,97.763C11.21,97.013 11.147,96.25 11.115,95.475L11.115,88.762C18.013,88.762 19.955,92.074 26.853,91.901C37.614,91.63 35.889,86.939 46.65,86.939C56.79,86.939 57.232,92.136 67.375,92.298C74.022,92.405 76.745,87.032 87.646,87.132C93.539,87.186 97.936,91.813 103.102,91.724C108.873,91.624 115.08,88.762 117.066,88.762L117.066,97.762C115.08,97.762 108.873,100.624 103.102,100.724C97.936,100.813 93.539,96.186 87.646,96.132C76.745,96.032 74.022,101.405 67.375,101.298C57.232,101.136 56.79,95.939 46.65,95.939C35.889,95.939 37.614,100.63 26.853,100.901C20.019,101.073 18.049,97.822 11.304,97.763Z" style="fill:rgb(57,194,255);"/>
                            </g>
                        </g>
                    </g>
                </g>
                <g transform="matrix(1.024,0,0,1.06135,3.49171,-12.32)">
                    <g transform="matrix(0.970352,-0.241696,0.241696,0.970352,-22.1937,12.4799)">
                        <path d="M33.267,56.405L27.78,59.541L34.246,64L39.537,61.5L36.99,59.737L36.01,55.23L33.267,56.405Z" style="fill:rgb(128,67,35);"/>
                    </g>
                    <g transform="matrix(1,0,0,1,-14.8127,-0.118183)">
                        <path d="M54.234,55.23L49.531,59.615L57.369,64L59.133,59.615L54.234,55.23Z" style="fill:rgb(128,67,35);"/>
                    </g>
                    <g transform="matrix(1,0,0,1,7.23592,2.30528)">
                        <path d="M87.155,55.23C86.717,53.915 75.006,64 75.006,64L82.844,64C82.844,64 91.466,60.277 90.29,59.615C89.115,58.953 87.351,55.817 87.155,55.23Z" style="fill:rgb(128,67,35);"/>
                    </g>
                    <g transform="matrix(0.850344,0.526227,-0.526227,0.850344,51.6962,-28.2206)">
                        <path d="M69.127,55.23L69.127,59.556L75.006,56.993L69.127,55.23Z" style="fill:rgb(128,67,35);"/>
                    </g>
                    <g transform="matrix(-0.584555,-0.291065,-0.304917,0.612375,123.439,36.0146)">
                        <path d="M42.281,66.159C43.311,65.549 46.984,61.696 46.984,61.696L52.862,67.754L49.531,68.411C49.531,68.411 41.693,66.508 42.281,66.159Z" style="fill:rgb(128,67,35);"/>
                    </g>
                </g>
                <g transform="matrix(8.10925e-17,-1.37264,1.43523,9.10881e-17,-26.3892,155.303)">
                    <g id="Facility-Empty" serif:id="Facility Empty">
                        <path d="M64.23,67.997L64.23,74.304L51.956,62.979L64.23,51.653L64.23,57.96L95.31,57.96L95.31,67.997L64.23,67.997Z" style="fill:rgb(218,84,7);"/>
                    </g>
                </g>
            </g>
        </g>
    </g>
</svg>
