<?xml version="1.0" encoding="UTF-8" standalone="no"?>
<!DOCTYPE svg PUBLIC "-//W3C//DTD SVG 1.1//EN" "http://www.w3.org/Graphics/SVG/1.1/DTD/svg11.dtd">
<svg width="100%" height="100%" viewBox="0 0 128 128" version="1.1" xmlns="http://www.w3.org/2000/svg" xmlns:xlink="http://www.w3.org/1999/xlink" xml:space="preserve" xmlns:serif="http://www.serif.com/" style="fill-rule:evenodd;clip-rule:evenodd;stroke-linecap:round;stroke-linejoin:round;stroke-miterlimit:1.5;">
    <g id="Vehicles" transform="matrix(0.976563,0,0,0.942198,1.5,1.5)">
        <path d="M64,0L119.426,33.167L119.426,99.501L64,132.668L8.574,99.501L8.574,33.167L64,0Z" style="fill:rgb(229,99,51);"/>
        <clipPath id="_clip1">
            <path d="M64,0L119.426,33.167L119.426,99.501L64,132.668L8.574,99.501L8.574,33.167L64,0Z"/>
        </clipPath>
        <g clip-path="url(#_clip1)">
            <g id="hearse" transform="matrix(1.53641,0,0,1.59245,13.7434,12.598)">
                <g>
                    <g id="Layer1" transform="matrix(1.07001,0,0,1.07001,-5.31886,7.01627)">
                        <g>
                            <g transform="matrix(0.991483,0,0,1.29777,0.106752,-12.2232)">
                                <path d="M18.814,17.078L47.491,17.046C47.993,17.1 48.289,17.284 48.391,17.593L51.701,28.403L57.257,29.369C58.363,29.78 58.775,30.215 59.126,31.201L59.052,40.216C59.026,40.678 58.752,40.928 58.328,41.049L13.618,40.95C13.02,40.95 12.534,40.464 12.534,39.866L12.398,30.801L17.096,17.824C17.539,17.212 18.216,17.078 18.814,17.078Z" style="fill:rgb(39,39,39);"/>
                            </g>
                            <g transform="matrix(1,0,0,1,2.581,-10.1255)">
                                <path d="M42.466,21.572L42.487,34.755L48.773,34.749L45.693,21.522L42.466,21.572Z" style="fill:rgb(145,207,255);"/>
                            </g>
                            <g transform="matrix(-1,0,0,1,86.0299,-10.2092)">
                                <path d="M42.466,21.572L42.487,34.755L48.773,34.749L46.444,21.576L42.466,21.572Z" style="fill:rgb(145,207,255);"/>
                            </g>
                            <g transform="matrix(1,0,0,1,2.581,-10.1255)">
                                <path d="M42.476,27.837L48.222,32.381L47.527,29.42L42.476,25.091L42.476,27.837Z" style="fill:rgb(188,226,255);"/>
                            </g>
                            <g transform="matrix(1,0,0,1,-3.90623,-11.6803)">
                                <path d="M42.67,27.89L47.449,32.187L47.439,29.297L43.074,25.425L42.67,27.89Z" style="fill:rgb(188,226,255);"/>
                            </g>
                            <g transform="matrix(0.934571,0,0,0.934571,4.30687,-9.13401)">
                                <path d="M30.074,24.927C30.161,24.845 30.28,24.795 30.411,24.795C30.676,24.795 30.891,25.001 30.891,25.254C30.891,25.507 30.676,25.713 30.411,25.713C30.291,25.713 30.181,25.671 30.097,25.601C29.379,25.544 26.326,25.341 25.229,25.922C23.982,26.582 24.104,28.964 22.769,29.576C21.576,30.122 18.124,30.001 16.926,29.94C16.818,30.057 16.659,30.131 16.483,30.131C16.158,30.131 15.895,29.881 15.895,29.574C15.895,29.266 16.158,29.017 16.483,29.017C16.654,29.017 16.808,29.086 16.916,29.198C18.051,29.263 21.214,29.39 22.353,28.853C23.69,28.222 23.577,25.884 24.89,25.213C25.847,24.723 29.19,24.876 30.074,24.927Z" style="fill:none;stroke:rgb(186,186,186);stroke-width:1.33px;"/>
                            </g>
                            <g transform="matrix(2.09027,0,0,0.850229,-58.25,-5.16246)">
                                <rect x="54.073" y="42.922" width="1.891" height="3.43" style="fill:rgb(255,196,0);"/>
                            </g>
                            <g transform="matrix(1.00242,0,0,1.00242,3.84411,-9.50718)">
                                <path d="M11.52,46.864C12.373,45.184 14.36,44.005 16.673,44.005C18.985,44.005 20.972,45.184 21.825,46.864L42.643,46.864C43.586,45.387 45.444,44.381 47.58,44.381C49.717,44.381 51.575,45.387 52.518,46.864L55.277,46.864L55.255,49.421C55.229,49.983 54.95,50.287 54.52,50.434L52.939,50.43C52.909,50.514 52.877,50.597 52.841,50.679L42.32,50.679C42.28,50.587 42.244,50.495 42.211,50.402L9.066,50.314C8.458,50.314 7.964,49.723 7.964,48.996L7.964,46.864L11.52,46.864Z" style="fill:rgb(177,177,177);"/>
                            </g>
                            <g transform="matrix(1.23327,0,0,1.36255,-6.3178,-14.5494)">
                                <ellipse cx="21.759" cy="41.001" rx="4.422" ry="4.269" style="fill:rgb(51,29,29);"/>
                            </g>
                            <g transform="matrix(1.38938,0,0,1.54183,-9.94713,-22.1421)">
                                <ellipse cx="22.015" cy="41.164" rx="2.056" ry="1.978" style="fill:rgb(206,206,206);"/>
                            </g>
                            <g transform="matrix(1.23327,0,0,1.36255,24.6698,-14.1892)">
                                <ellipse cx="21.759" cy="41.001" rx="4.422" ry="4.269" style="fill:rgb(51,29,29);"/>
                            </g>
                            <g transform="matrix(1.38938,0,0,1.54183,21.0404,-21.7819)">
                                <ellipse cx="22.015" cy="41.164" rx="2.056" ry="1.978" style="fill:rgb(206,206,206);"/>
                            </g>
                            <g transform="matrix(0.984578,0,0,1.01142,2.99255,-9.03711)">
                                <path d="M11.235,33.269L32.659,33.394L35.574,19.081L34.846,19.081L31.832,32.536L11.56,32.364L11.235,33.269Z" style="fill:none;stroke:rgb(88,88,88);stroke-width:1.25px;"/>
                            </g>
                        </g>
                    </g>
                    <g id="Layer2" transform="matrix(1,0,0,1,0.629145,-0.41943)">
                        <g>
                            <g id="Layer3" transform="matrix(0.798239,0,0,0.798239,4.65872,6.95913)">
                                <g>
                                    <g transform="matrix(0.0538589,1.03607,-0.986758,0.0512952,56.2342,-44.2925)">
                                        <path d="M52.834,5.557C53.504,8.469 49.48,8.389 49.48,11.382C49.48,13.325 50.983,14.903 52.834,14.903C54.685,14.903 56.187,13.325 56.187,11.382C56.187,8.389 54.51,6.709 52.834,5.557Z" style="fill:rgb(92,162,63);"/>
                                    </g>
                                    <path d="M44.426,10.403C44.71,8.853 46.027,7.642 47.668,7.557C50.621,7.403 50.759,11.576 53.596,10.732L53.579,10.762C53.055,11.002 51.799,11.518 50.572,11.567C49.64,11.604 49.011,11.033 48.167,10.725C47.183,10.365 46.246,10.312 45.564,10.274C45.277,10.259 44.852,10.319 44.426,10.403Z" style="fill:rgb(121,192,92);"/>
                                </g>
                            </g>
                            <g id="Layer31" serif:id="Layer3" transform="matrix(0.219447,-0.767482,0.767482,0.219447,15.7723,44.8028)">
                                <g>
                                    <g transform="matrix(0.0538589,1.03607,-0.986758,0.0512952,56.2342,-44.2925)">
                                        <path d="M52.834,5.557C53.504,8.469 49.48,8.389 49.48,11.382C49.48,13.325 50.983,14.903 52.834,14.903C54.685,14.903 56.187,13.325 56.187,11.382C56.187,8.389 54.51,6.709 52.834,5.557Z" style="fill:rgb(92,162,63);"/>
                                    </g>
                                    <path d="M44.426,10.403C44.71,8.853 46.027,7.642 47.668,7.557C50.621,7.403 50.759,11.576 53.596,10.732L53.579,10.762C53.055,11.002 51.799,11.518 50.572,11.567C49.64,11.604 49.011,11.033 48.167,10.725C47.183,10.365 46.246,10.312 45.564,10.274C45.277,10.259 44.852,10.319 44.426,10.403Z" style="fill:rgb(121,192,92);"/>
                                </g>
                            </g>
                            <g id="Layer32" serif:id="Layer3" transform="matrix(0.305481,-0.737474,0.737474,0.305481,3.08006,42.3778)">
                                <g>
                                    <g transform="matrix(0.0538589,1.03607,-0.986758,0.0512952,56.2342,-44.2925)">
                                        <path d="M52.834,5.557C53.504,8.469 49.48,8.389 49.48,11.382C49.48,13.325 50.983,14.903 52.834,14.903C54.685,14.903 56.187,13.325 56.187,11.382C56.187,8.389 54.51,6.709 52.834,5.557Z" style="fill:rgb(92,162,63);"/>
                                    </g>
                                    <path d="M44.426,10.403C44.71,8.853 46.027,7.642 47.668,7.557C50.621,7.403 50.759,11.576 53.596,10.732L53.579,10.762C53.055,11.002 51.799,11.518 50.572,11.567C49.64,11.604 49.011,11.033 48.167,10.725C47.183,10.365 46.246,10.312 45.564,10.274C45.277,10.259 44.852,10.319 44.426,10.403Z" style="fill:rgb(121,192,92);"/>
                                </g>
                            </g>
                            <g id="Layer33" serif:id="Layer3" transform="matrix(-0.773778,0.396468,-0.396468,-0.773778,57.18,5.31354)">
                                <g>
                                    <g transform="matrix(0.0538589,1.03607,-0.986758,0.0512952,56.2342,-44.2925)">
                                        <path d="M52.834,5.557C53.504,8.469 49.48,8.389 49.48,11.382C49.48,13.325 50.983,14.903 52.834,14.903C54.685,14.903 56.187,13.325 56.187,11.382C56.187,8.389 54.51,6.709 52.834,5.557Z" style="fill:rgb(92,162,63);"/>
                                    </g>
                                    <path d="M44.426,10.403C44.71,8.853 46.027,7.642 47.668,7.557C50.621,7.403 50.759,11.576 53.596,10.732L53.579,10.762C53.055,11.002 51.799,11.518 50.572,11.567C49.64,11.604 49.011,11.033 48.167,10.725C47.183,10.365 46.246,10.312 45.564,10.274C45.277,10.259 44.852,10.319 44.426,10.403Z" style="fill:rgb(121,192,92);"/>
                                </g>
                            </g>
                            <g id="Layer34" serif:id="Layer3" transform="matrix(0.622788,-0.402189,0.402189,0.622788,8.69859,23.3152)">
                                <g>
                                    <g transform="matrix(0.0538589,1.03607,-0.986758,0.0512952,56.2342,-44.2925)">
                                        <path d="M52.834,5.557C53.504,8.469 49.48,8.389 49.48,11.382C49.48,13.325 50.983,14.903 52.834,14.903C54.685,14.903 56.187,13.325 56.187,11.382C56.187,8.389 54.51,6.709 52.834,5.557Z" style="fill:rgb(92,162,63);"/>
                                    </g>
                                    <path d="M44.426,10.403C44.71,8.853 46.027,7.642 47.668,7.557C50.621,7.403 50.759,11.576 53.596,10.732L53.579,10.762C53.055,11.002 51.799,11.518 50.572,11.567C49.64,11.604 49.011,11.033 48.167,10.725C47.183,10.365 46.246,10.312 45.564,10.274C45.277,10.259 44.852,10.319 44.426,10.403Z" style="fill:rgb(121,192,92);"/>
                                </g>
                            </g>
                            <g id="Layer35" serif:id="Layer3" transform="matrix(0.771641,0.366759,-0.366759,0.771641,1.17768,-10.3473)">
                                <g>
                                    <g transform="matrix(0.0538589,1.03607,-0.986758,0.0512952,56.2342,-44.2925)">
                                        <path d="M52.834,5.557C53.504,8.469 49.48,8.389 49.48,11.382C49.48,13.325 50.983,14.903 52.834,14.903C54.685,14.903 56.187,13.325 56.187,11.382C56.187,8.389 54.51,6.709 52.834,5.557Z" style="fill:rgb(92,162,63);"/>
                                    </g>
                                    <path d="M44.426,10.403C44.71,8.853 46.027,7.642 47.668,7.557C50.621,7.403 50.759,11.576 53.596,10.732L53.579,10.762C53.055,11.002 51.799,11.518 50.572,11.567C49.64,11.604 49.011,11.033 48.167,10.725C47.183,10.365 46.246,10.312 45.564,10.274C45.277,10.259 44.852,10.319 44.426,10.403Z" style="fill:rgb(121,192,92);"/>
                                </g>
                            </g>
                            <g id="Layer36" serif:id="Layer3" transform="matrix(-0.561856,0.643631,-0.643631,-0.561856,59.7518,-9.11403)">
                                <g>
                                    <g transform="matrix(0.0538589,1.03607,-0.986758,0.0512952,56.2342,-44.2925)">
                                        <path d="M52.834,5.557C53.504,8.469 49.48,8.389 49.48,11.382C49.48,13.325 50.983,14.903 52.834,14.903C54.685,14.903 56.187,13.325 56.187,11.382C56.187,8.389 54.51,6.709 52.834,5.557Z" style="fill:rgb(92,162,63);"/>
                                    </g>
                                    <path d="M44.426,10.403C44.71,8.853 46.027,7.642 47.668,7.557C50.621,7.403 50.759,11.576 53.596,10.732L53.579,10.762C53.055,11.002 51.799,11.518 50.572,11.567C49.64,11.604 49.011,11.033 48.167,10.725C47.183,10.365 46.246,10.312 45.564,10.274C45.277,10.259 44.852,10.319 44.426,10.403Z" style="fill:rgb(121,192,92);"/>
                                </g>
                            </g>
                            <g id="Layer37" serif:id="Layer3" transform="matrix(-0.551972,-0.652127,-0.652127,0.551972,50.1524,36.1847)">
                                <g>
                                    <g transform="matrix(0.0538589,1.03607,-0.986758,0.0512952,56.2342,-44.2925)">
                                        <path d="M52.834,5.557C53.504,8.469 49.48,8.389 49.48,11.382C49.48,13.325 50.983,14.903 52.834,14.903C54.685,14.903 56.187,13.325 56.187,11.382C56.187,8.389 54.51,6.709 52.834,5.557Z" style="fill:rgb(92,162,63);"/>
                                    </g>
                                    <path d="M44.426,10.403C44.71,8.853 46.027,7.642 47.668,7.557C50.621,7.403 50.759,11.576 53.596,10.732L53.579,10.762C53.055,11.002 51.799,11.518 50.572,11.567C49.64,11.604 49.011,11.033 48.167,10.725C47.183,10.365 46.246,10.312 45.564,10.274C45.277,10.259 44.852,10.319 44.426,10.403Z" style="fill:rgb(121,192,92);"/>
                                </g>
                            </g>
                            <g id="Layer4" transform="matrix(0.809722,0,0,0.809722,-12.6169,5.22774)">
                                <g>
                                    <path d="M37.972,5.587C37.972,3.928 39.014,2.582 40.299,2.582C41.584,2.582 42.626,3.928 42.626,5.587C44.036,4.757 45.701,5.005 46.343,6.139C46.986,7.273 46.363,8.866 44.954,9.695C46.363,10.525 46.986,12.118 46.343,13.252C45.701,14.386 44.036,14.633 42.626,13.804C42.626,15.463 41.584,16.809 40.299,16.809C39.014,16.809 37.972,15.463 37.972,13.804C36.562,14.633 34.897,14.386 34.255,13.252C33.612,12.118 34.235,10.525 35.644,9.695C34.235,8.866 33.612,7.273 34.255,6.139C34.897,5.005 36.562,4.757 37.972,5.587Z" style="fill:white;"/>
                                    <g transform="matrix(1.32468,0,0,1.31481,-8.70975,1.50873)">
                                        <path d="M37.121,2.332L37.768,4.716L40.054,4.114L38.415,5.895L40.054,7.676L37.768,7.073L37.121,9.457L36.474,7.073L34.188,7.676L35.827,5.895L34.188,4.114L36.474,4.716L37.121,2.332Z" style="fill:rgb(249,234,183);"/>
                                    </g>
                                    <g transform="matrix(1.24103,0,0,1.2775,-10.8048,-3.71827)">
                                        <ellipse cx="41.225" cy="10.21" rx="2.144" ry="2.199" style="fill:rgb(255,196,0);"/>
                                    </g>
                                </g>
                            </g>
                            <g id="Layer41" serif:id="Layer4" transform="matrix(0.696688,0,0,0.696688,11.2981,7.03647)">
                                <g>
                                    <path d="M37.972,5.587C37.972,3.928 39.014,2.582 40.299,2.582C41.584,2.582 42.626,3.928 42.626,5.587C44.036,4.757 45.701,5.005 46.343,6.139C46.986,7.273 46.363,8.866 44.954,9.695C46.363,10.525 46.986,12.118 46.343,13.252C45.701,14.386 44.036,14.633 42.626,13.804C42.626,15.463 41.584,16.809 40.299,16.809C39.014,16.809 37.972,15.463 37.972,13.804C36.562,14.633 34.897,14.386 34.255,13.252C33.612,12.118 34.235,10.525 35.644,9.695C34.235,8.866 33.612,7.273 34.255,6.139C34.897,5.005 36.562,4.757 37.972,5.587Z" style="fill:white;"/>
                                    <g transform="matrix(1.32468,0,0,1.31481,-8.70975,1.50873)">
                                        <path d="M37.121,2.332L37.768,4.716L40.054,4.114L38.415,5.895L40.054,7.676L37.768,7.073L37.121,9.457L36.474,7.073L34.188,7.676L35.827,5.895L34.188,4.114L36.474,4.716L37.121,2.332Z" style="fill:rgb(249,234,183);"/>
                                    </g>
                                    <g transform="matrix(1.24103,0,0,1.2775,-10.8048,-3.71827)">
                                        <ellipse cx="41.225" cy="10.21" rx="2.144" ry="2.199" style="fill:rgb(255,196,0);"/>
                                    </g>
                                </g>
                            </g>
                            <g id="Layer42" serif:id="Layer4" transform="matrix(0.742681,0,0,0.742681,0.585151,5.33459)">
                                <g>
                                    <path d="M37.972,5.587C37.972,3.928 39.014,2.582 40.299,2.582C41.584,2.582 42.626,3.928 42.626,5.587C44.036,4.757 45.701,5.005 46.343,6.139C46.986,7.273 46.363,8.866 44.954,9.695C46.363,10.525 46.986,12.118 46.343,13.252C45.701,14.386 44.036,14.633 42.626,13.804C42.626,15.463 41.584,16.809 40.299,16.809C39.014,16.809 37.972,15.463 37.972,13.804C36.562,14.633 34.897,14.386 34.255,13.252C33.612,12.118 34.235,10.525 35.644,9.695C34.235,8.866 33.612,7.273 34.255,6.139C34.897,5.005 36.562,4.757 37.972,5.587Z" style="fill:white;"/>
                                    <g transform="matrix(1.32468,0,0,1.31481,-8.70975,1.50873)">
                                        <path d="M37.121,2.332L37.768,4.716L40.054,4.114L38.415,5.895L40.054,7.676L37.768,7.073L37.121,9.457L36.474,7.073L34.188,7.676L35.827,5.895L34.188,4.114L36.474,4.716L37.121,2.332Z" style="fill:rgb(249,234,183);"/>
                                    </g>
                                    <g transform="matrix(1.24103,0,0,1.2775,-10.8048,-3.71827)">
                                        <ellipse cx="41.225" cy="10.21" rx="2.144" ry="2.199" style="fill:rgb(255,196,0);"/>
                                    </g>
                                </g>
                            </g>
                        </g>
                    </g>
                </g>
            </g>
        </g>
    </g>
</svg>
