<?xml version="1.0" encoding="UTF-8" standalone="no"?>
<!DOCTYPE svg PUBLIC "-//W3C//DTD SVG 1.1//EN" "http://www.w3.org/Graphics/SVG/1.1/DTD/svg11.dtd">
<svg width="100%" height="100%" viewBox="0 0 128 128" version="1.1" xmlns="http://www.w3.org/2000/svg" xmlns:xlink="http://www.w3.org/1999/xlink" xml:space="preserve" xmlns:serif="http://www.serif.com/" style="fill-rule:evenodd;clip-rule:evenodd;stroke-linejoin:round;stroke-miterlimit:2;">
    <g id="Resources" transform="matrix(0.976563,0,0,0.976563,1.5,1.5)">
        <path d="M128,25.6C128,11.471 116.529,0 102.4,0L25.6,0C11.471,0 0,11.471 0,25.6L0,102.4C0,116.529 11.471,128 25.6,128L102.4,128C116.529,128 128,116.529 128,102.4L128,25.6Z" style="fill:rgb(255,231,185);"/>
    </g>
    <g id="LeveledUp" transform="matrix(2.3637,0,0,2.3637,-16.3396,-25.0993)">
        <g>
            <g transform="matrix(1.18103,0,0,1.22245,-13.301,-6.22421)">
                <path d="M39.816,21.231L45.145,30.118L55.508,32.287L48.439,39.948L49.514,50.175L39.816,46.024L30.117,50.175L31.192,39.948L24.123,32.287L34.486,30.118L39.816,21.231Z" style="fill:rgb(255,145,0);"/>
            </g>
            <g transform="matrix(1.06368,0,0,1.10701,-8.68019,-1.88844)">
                <path d="M39.816,21.231L45.145,30.118L55.508,32.287L48.439,39.948L49.514,50.175L39.816,46.024L30.117,50.175L31.192,39.948L24.123,32.287L34.486,30.118L39.816,21.231Z" style="fill:rgb(255,211,56);"/>
            </g>
            <g transform="matrix(1.03614,0,0,1.0428,-0.333974,-0.574336)">
                <path d="M42.153,31.478L48.238,32.778C48.238,32.778 48.833,32.854 48.908,33.129C49.006,33.484 48.715,33.751 48.715,33.751L41.947,41.266C41.947,41.266 42.833,49.71 43.015,51.622C43.03,51.788 42.806,51.91 42.69,51.969C42.471,52.08 42.191,51.902 42.041,51.833C40.419,51.084 32.94,47.819 32.94,47.819L23.628,51.938C23.628,51.938 23.318,52.13 23.01,51.846C22.826,51.676 22.907,51.262 22.907,51.262L23.757,43.084C25.267,43.663 26.971,44.008 28.686,44.008C35.783,44.008 41.594,38.389 42.153,31.478Z" style="fill:rgb(255,190,40);"/>
            </g>
            <g transform="matrix(0.444011,0.352021,-0.336949,0.425001,34.2109,0.0661712)">
                <path d="M40.914,19.99L42.158,35.319L53.815,25.364L43.918,37.088L59.159,38.34L43.918,39.591L53.815,51.315L42.158,41.361L40.914,56.69L39.669,41.361L28.012,51.315L37.91,39.591L22.668,38.34L37.91,37.088L28.012,25.364L39.669,35.319L40.914,19.99Z" style="fill:white;"/>
            </g>
            <g transform="matrix(0.980354,0.343902,-0.343902,0.980354,20.8893,-21.56)">
                <path d="M25.672,36.948L24.006,46.386L16.615,50.863C15.641,51.445 16.025,51.989 16.946,51.443C16.946,51.443 23.059,47.645 24.666,46.864L26.057,37.891C26.104,36.991 25.894,36.003 25.672,36.948Z" style="fill:rgb(255,251,236);"/>
            </g>
        </g>
    </g>
</svg>
