<?xml version="1.0" encoding="UTF-8" standalone="no"?>
<!DOCTYPE svg PUBLIC "-//W3C//DTD SVG 1.1//EN" "http://www.w3.org/Graphics/SVG/1.1/DTD/svg11.dtd">
<svg width="100%" height="100%" viewBox="0 0 128 128" version="1.1" xmlns="http://www.w3.org/2000/svg" xmlns:xlink="http://www.w3.org/1999/xlink" xml:space="preserve" xmlns:serif="http://www.serif.com/" style="fill-rule:evenodd;clip-rule:evenodd;stroke-linejoin:round;stroke-miterlimit:2;">
    <g id="While-Building" serif:id="While Building" transform="matrix(0.976563,0,0,0.976563,1.5,1.5)">
        <circle cx="64" cy="64" r="64" style="fill:rgb(255,231,185);"/>
        <clipPath id="_clip1">
            <circle cx="64" cy="64" r="64"/>
        </clipPath>
        <g clip-path="url(#_clip1)">
            <g id="LowElevation" transform="matrix(2.048,0,0,2.048,1.536,-20.207)">
                <g transform="matrix(0.536238,0,0,0.578375,3.65307,2.24603)">
                    <path d="M20.052,45.099L14.554,45.099L14.554,33.568L56.592,33.568L56.592,45.099L51.095,45.099L51.095,48.692L45.454,48.692L44.811,100.816L25.049,100.816L25.693,48.692L20.052,48.692L20.052,45.099Z" style="fill:rgb(128,128,128);"/>
                </g>
                <g transform="matrix(0.536238,0,0,0.578375,22.1953,26.7742)">
                    <path d="M20.052,45.099L14.554,45.099L14.554,33.568L56.592,33.568L56.592,45.099L51.095,45.099L51.095,48.692L45.454,48.692L45.344,58.437L25.583,58.437L25.693,48.692L20.052,48.692L20.052,45.099Z" style="fill:rgb(229,99,51);"/>
                </g>
            </g>
        </g>
    </g>
</svg>
