<?xml version="1.0" encoding="UTF-8" standalone="no"?>
<!DOCTYPE svg PUBLIC "-//W3C//DTD SVG 1.1//EN" "http://www.w3.org/Graphics/SVG/1.1/DTD/svg11.dtd">
<svg width="100%" height="100%" viewBox="0 0 128 128" version="1.1" xmlns="http://www.w3.org/2000/svg" xmlns:xlink="http://www.w3.org/1999/xlink" xml:space="preserve" xmlns:serif="http://www.serif.com/" style="fill-rule:evenodd;clip-rule:evenodd;stroke-linejoin:round;stroke-miterlimit:2;">
    <g id="Vehicles" transform="matrix(0.976563,0,0,0.942198,1.5,1.5)">
        <path d="M64,0L119.426,33.167L119.426,99.501L64,132.668L8.574,99.501L8.574,33.167L64,0Z" style="fill:rgb(229,99,51);"/>
        <clipPath id="_clip1">
            <path d="M64,0L119.426,33.167L119.426,99.501L64,132.668L8.574,99.501L8.574,33.167L64,0Z"/>
        </clipPath>
        <g clip-path="url(#_clip1)">
            <g id="Layer1" transform="matrix(1.60352,0,0,1.662,7.70332,25.1489)">
                <g>
                    <g transform="matrix(1.48833,0,0,1.28603,-18.0142,-12.3356)">
                        <path d="M41.293,16.481C41.293,15.06 40.297,13.907 39.069,13.907C37.842,13.907 36.846,15.06 36.846,16.481L36.846,21.499C36.846,22.919 37.842,24.072 39.069,24.072C40.297,24.072 41.293,22.919 41.293,21.499L41.293,16.481Z" style="fill:rgb(165,1,1);"/>
                    </g>
                    <g transform="matrix(1.13684,0,0,1.16275,-1.68567,-11.7748)">
                        <path d="M45.295,11.652C45.658,11.365 45.7,10.855 45.387,10.514C45.075,10.173 44.526,10.13 44.163,10.417L39.995,13.711C39.632,13.999 39.59,14.509 39.902,14.849C40.215,15.19 40.764,15.233 41.127,14.946L45.295,11.652ZM30.274,9.675C29.964,9.322 29.409,9.264 29.035,9.546C28.662,9.829 28.61,10.345 28.919,10.698L32.343,14.606C32.653,14.959 33.208,15.017 33.582,14.734C33.955,14.452 34.007,13.936 33.698,13.583L30.274,9.675ZM37.953,7.922C37.962,7.44 37.577,7.043 37.096,7.036C36.614,7.029 36.216,7.414 36.207,7.896L36.122,12.837C36.113,13.319 36.498,13.716 36.98,13.724C37.461,13.731 37.859,13.345 37.868,12.864L37.953,7.922Z" style="fill:rgb(255,214,77);"/>
                    </g>
                    <g transform="matrix(0.991483,0,0,1.29777,0.106752,-12.2232)">
                        <path d="M13.618,17.062L47.491,17.046C47.993,17.1 48.289,17.284 48.391,17.593L51.701,28.403L57.257,29.369C58.363,29.78 58.775,30.215 59.126,31.201L59.052,40.216C59.026,40.678 58.752,40.928 58.328,41.049L13.618,40.95C13.02,40.95 12.534,40.464 12.534,39.866L12.534,18.147C12.534,17.548 13.02,17.062 13.618,17.062Z" style="fill:white;"/>
                    </g>
                    <g transform="matrix(1,0,0,1,2.581,-10.1255)">
                        <path d="M42.466,21.572L42.487,34.755L48.773,34.749L45.693,21.522L42.466,21.572Z" style="fill:rgb(145,207,255);"/>
                    </g>
                    <g transform="matrix(1,0,0,1,2.581,-10.1255)">
                        <path d="M42.476,27.837L48.222,32.381L47.527,29.42L42.476,25.091L42.476,27.837Z" style="fill:rgb(186,224,253);"/>
                    </g>
                    <g transform="matrix(2.09027,0,0,0.850229,-58.25,-5.16246)">
                        <rect x="54.073" y="42.922" width="1.891" height="3.43" style="fill:rgb(255,196,0);"/>
                    </g>
                    <g transform="matrix(0.99357,0,0,0.99357,3.79894,-9.13343)">
                        <path d="M11.668,46.906C12.529,45.211 14.533,44.021 16.867,44.021C19.2,44.021 21.205,45.211 22.065,46.906L43.068,46.906C44.019,45.415 45.894,44.4 48.05,44.4C50.205,44.4 52.08,45.415 53.032,46.906L55.815,46.906L55.793,49.485C55.766,50.052 55.485,50.359 55.051,50.507L53.456,50.503C53.426,50.588 53.393,50.671 53.357,50.754L42.742,50.754C42.702,50.662 42.666,50.569 42.633,50.475L9.193,50.386C8.579,50.386 8.08,49.79 8.08,49.056L8.08,46.906L11.668,46.906Z" style="fill:rgb(177,177,177);"/>
                    </g>
                    <g transform="matrix(0.914376,0,0,0.914376,18.5395,12.9735)">
                        <g>
                            <g transform="matrix(1.14239,0.472166,-0.453478,1.09718,-6.90906,-35.6856)">
                                <path d="M27.828,21.738L30.846,23.066L29.337,26.939L32.98,25.335L34.23,28.543L30.587,30.147L34.23,31.75L32.98,34.958L29.337,33.354L30.846,37.227L27.828,38.555L26.319,34.683L24.81,38.555L21.792,37.227L23.301,33.354L19.658,34.958L18.408,31.75L22.051,30.147L18.408,28.543L19.658,25.335L23.301,26.939L21.792,23.066L24.81,21.738L26.319,25.61L27.828,21.738Z" style="fill:rgb(210,0,0);"/>
                            </g>
                            <g transform="matrix(1,0,0,1,-9472.68,36.0929)">
                                <path d="M9478.84,-29.477L9481.39,-29.477L9481.39,-31L9482.66,-31L9482.66,-29.48L9485.77,-29.48L9485.77,-28.092L9483.08,-28.092L9482.66,-26.506L9483.08,-25.184C9483.08,-25.184 9483.58,-25.118 9483.79,-24.391C9484,-23.664 9483.58,-22.21 9482.66,-22.077C9481.88,-21.856 9481.16,-21.473 9480.54,-20.953C9480.75,-21.375 9481.04,-21.755 9481.39,-22.077C9482.17,-22.936 9482.94,-23.135 9482.66,-23.994C9482.38,-24.853 9481.53,-25.448 9481.39,-26.109C9481.31,-26.768 9481.31,-27.433 9481.39,-28.092L9478.84,-28.092L9478.84,-29.477Z" style="fill:white;fill-rule:nonzero;"/>
                            </g>
                        </g>
                    </g>
                    <g transform="matrix(1.23327,0,0,1.36255,-6.3178,-14.5494)">
                        <ellipse cx="21.759" cy="41.001" rx="4.422" ry="4.269" style="fill:rgb(51,29,29);"/>
                    </g>
                    <g transform="matrix(1.38938,0,0,1.54183,-9.94713,-22.1421)">
                        <ellipse cx="22.015" cy="41.164" rx="2.056" ry="1.978" style="fill:rgb(206,206,206);"/>
                    </g>
                    <g transform="matrix(1.23327,0,0,1.36255,24.6698,-14.1892)">
                        <ellipse cx="21.759" cy="41.001" rx="4.422" ry="4.269" style="fill:rgb(51,29,29);"/>
                    </g>
                    <g transform="matrix(1.38938,0,0,1.54183,21.0404,-21.7819)">
                        <ellipse cx="22.015" cy="41.164" rx="2.056" ry="1.978" style="fill:rgb(206,206,206);"/>
                    </g>
                </g>
            </g>
        </g>
    </g>
</svg>
