<?xml version="1.0" encoding="UTF-8" standalone="no"?>
<!DOCTYPE svg PUBLIC "-//W3C//DTD SVG 1.1//EN" "http://www.w3.org/Graphics/SVG/1.1/DTD/svg11.dtd">
<svg width="100%" height="100%" viewBox="0 0 128 128" version="1.1" xmlns="http://www.w3.org/2000/svg" xmlns:xlink="http://www.w3.org/1999/xlink" xml:space="preserve" xmlns:serif="http://www.serif.com/" style="fill-rule:evenodd;clip-rule:evenodd;stroke-linecap:round;stroke-linejoin:round;stroke-miterlimit:1.5;">
    <g id="Event" transform="matrix(0.976563,0,0,0.976563,1.5,1.5)">
        <path d="M64,0L128,64L64,128L0,64L64,0Z" style="fill:rgb(255,231,185);"/>
        <clipPath id="_clip1">
            <path d="M64,0L128,64L64,128L0,64L64,0Z"/>
        </clipPath>
        <g clip-path="url(#_clip1)">
            <g transform="matrix(0.83246,0.0604232,-0.0598398,0.824422,23.1616,-7.02496)">
                <g transform="matrix(0.934243,-0.067811,0.067811,0.934243,-10.8279,15.275)">
                    <rect x="56.206" y="19.699" width="17.246" height="26.229" style="fill:rgb(97,129,156);"/>
                </g>
                <g transform="matrix(2.62956,-0.190864,0.190491,2.62442,-129.79,-20.1485)">
                    <rect x="64" y="23.712" width="6.127" height="1.884" style="fill:rgb(83,83,83);"/>
                </g>
                <g transform="matrix(0.934243,-0.067811,0.0746981,1.02913,-10.891,4.71554)">
                    <path d="M90.067,41.163L64,37.249L38.098,41.775L37.868,74.966L90.297,74.966L90.067,41.163Z" style="fill:rgb(57,194,255);"/>
                </g>
                <g transform="matrix(0.934243,-0.067811,0.067811,0.934243,-10.2973,11.823)">
                    <path d="M55.377,42.052L46.547,43.426L46.547,52.5L55.377,51.288L55.377,42.052ZM72.623,41.89L72.623,51.129L82.925,52.352L82.925,43.279L72.623,41.89ZM69.055,41.409L63.938,40.719L58.615,41.548L58.615,50.844L64,50.105L69.055,50.705L69.055,41.409Z" style="fill:rgb(231,239,241);"/>
                </g>
                <g transform="matrix(0.145112,1.71934,-1.35199,0.117107,125.169,5.85279)">
                    <path d="M31.456,30.806C25.726,38.275 24.062,56.222 24.062,56.222C24.062,56.222 25.635,73.361 31.365,80.83L55.813,71.175C61.235,65.114 62.911,47.647 56.124,41.305L31.456,30.806Z" style="fill:rgb(97,129,156);"/>
                </g>
                <g transform="matrix(0.934243,-0.0684721,0.0738842,1.02784,-9.49492,18.3704)">
                    <path d="M62.331,38.855L62.331,99.691C71.479,100.4 80.971,98.261 85.8,92.126L100.443,50.641C89.493,41.178 63.457,38.704 63.457,38.704C63.457,38.704 63.055,38.752 62.331,38.855Z" style="fill:rgb(129,155,173);"/>
                </g>
                <g transform="matrix(0.934243,-0.067811,0.067811,0.934243,-9.07653,34.8835)">
                    <path d="M25.279,85.162C25.279,85.162 30.328,92.216 38.552,92.148C46.408,92.083 51.728,83.728 51.728,83.728C51.728,83.728 57.235,91.976 64.766,92.153C73.594,92.36 78.908,82.992 78.908,82.992C78.908,82.992 83.858,91.985 90.981,91.596C99.573,91.127 105.072,83.58 105.072,83.58" style="fill:none;stroke:rgb(57,194,255);stroke-width:10.52px;"/>
                </g>
            </g>
            <g id="No-access" serif:id="No access" transform="matrix(2.05193,0,0,1.82113,-3.65066,5.87759)">
                <g transform="matrix(1.0274,0,0,1.45133,-0.748329,-14.6782)">
                    <rect x="11.212" y="28.837" width="43.491" height="6.754" style="fill:rgb(70,57,35);"/>
                </g>
                <g transform="matrix(1.0274,0,0,1.45133,-0.748329,-14.6782)">
                    <path d="M21.773,35.591L15.939,35.591L21.521,28.837L27.354,28.837L21.773,35.591ZM32.907,35.591L27.419,35.591L33,28.837L38.488,28.837L32.907,35.591ZM44.041,35.591L38.553,35.591L44.134,28.837L49.622,28.837L44.041,35.591ZM54.703,35.591L49.686,35.591L54.703,29.52L54.703,35.591ZM15.875,28.837L11.212,34.48L11.212,28.837L15.875,28.837Z" style="fill:rgb(255,156,0);"/>
                </g>
            </g>
        </g>
    </g>
</svg>
