<?xml version="1.0" encoding="UTF-8" standalone="no"?>
<!DOCTYPE svg PUBLIC "-//W3C//DTD SVG 1.1//EN" "http://www.w3.org/Graphics/SVG/1.1/DTD/svg11.dtd">
<svg width="100%" height="100%" viewBox="0 0 128 128" version="1.1" xmlns="http://www.w3.org/2000/svg" xmlns:xlink="http://www.w3.org/1999/xlink" xml:space="preserve" xmlns:serif="http://www.serif.com/" style="fill-rule:evenodd;clip-rule:evenodd;stroke-linejoin:round;stroke-miterlimit:2;">
    <g id="Event" transform="matrix(0.976563,0,0,0.976563,1.5,1.5)">
        <path d="M64,0L128,64L64,128L0,64L64,0Z" style="fill:rgb(255,231,185);"/>
        <clipPath id="_clip1">
            <path d="M64,0L128,64L64,128L0,64L64,0Z"/>
        </clipPath>
        <g clip-path="url(#_clip1)">
            <g id="Car" transform="matrix(1.90009,0,0,1.90009,3.83106,-5.23336)">
                <g transform="matrix(1,0,0,1,-2.97333,-3.92577)">
                    <path d="M24.944,48.952C24.944,48.12 24.268,47.443 23.435,47.443L20.417,47.443C19.584,47.443 18.907,48.12 18.907,48.952L18.907,54.701C18.907,55.534 19.584,56.21 20.417,56.21L23.435,56.21C24.268,56.21 24.944,55.534 24.944,54.701L24.944,48.952Z" style="fill:rgb(83,83,83);"/>
                </g>
                <g transform="matrix(1,0,0,1,23.234,-3.60563)">
                    <path d="M24.944,48.952C24.944,48.12 24.268,47.443 23.435,47.443L20.417,47.443C19.584,47.443 18.907,48.12 18.907,48.952L18.907,54.701C18.907,55.534 19.584,56.21 20.417,56.21L23.435,56.21C24.268,56.21 24.944,55.534 24.944,54.701L24.944,48.952Z" style="fill:rgb(83,83,83);"/>
                </g>
                <g transform="matrix(1.13503,0,0,0.937338,-7.69373,3.45621)">
                    <path d="M50.507,39.882L19.434,39.846C19.434,39.846 19.297,37.622 20.139,35.636C20.628,34.482 23.811,19.23 25.206,18.648C27.992,17.485 42.913,17.928 44.977,18.703C47.012,19.466 49.031,32.881 49.982,35.065C50.268,35.722 50.426,36.933 50.485,37.995C50.542,39.004 50.507,39.882 50.507,39.882Z" style="fill:rgb(57,194,255);"/>
                </g>
                <g transform="matrix(1.15775,0,0,1,-0.818301,-6.22848)">
                    <path d="M15.885,37.388C15.885,37.018 15.625,36.717 15.305,36.717L12.932,36.717C12.612,36.717 12.353,37.018 12.353,37.388L12.353,38.731C12.353,39.101 12.612,39.402 12.932,39.402L15.305,39.402C15.625,39.402 15.885,39.101 15.885,38.731L15.885,37.388Z" style="fill:rgb(57,194,255);"/>
                </g>
                <g transform="matrix(1.15775,0,0,1,32.1052,-6.22848)">
                    <path d="M15.885,37.388C15.885,37.018 15.625,36.717 15.305,36.717L12.932,36.717C12.612,36.717 12.353,37.018 12.353,37.388L12.353,38.731C12.353,39.101 12.612,39.402 12.932,39.402L15.305,39.402C15.625,39.402 15.885,39.101 15.885,38.731L15.885,37.388Z" style="fill:rgb(57,194,255);"/>
                </g>
                <g transform="matrix(1.03169,0,0,0.482377,-3.81896,13.4952)">
                    <path d="M48.238,44.371C47.728,44.62 21.976,45.941 20.885,44.371C20.263,43.477 23.368,19.876 25.013,18.348C26.502,16.965 42.772,17.367 44.703,18.66C46.511,19.869 49.638,43.689 48.238,44.371Z" style="fill:rgb(231,239,241);"/>
                </g>
                <g transform="matrix(1.02678,0,0,1.20915,-0.856901,-15.1997)">
                    <path d="M49.174,45.45C49.174,45.043 48.785,44.713 48.306,44.713L15.694,44.713C15.215,44.713 14.826,45.043 14.826,45.45L14.826,51.349C14.826,51.756 15.215,52.086 15.694,52.086L48.306,52.086C48.785,52.086 49.174,51.756 49.174,51.349L49.174,45.45Z" style="fill:rgb(57,194,255);"/>
                </g>
                <g transform="matrix(1,0,0,1.55454,-0.345216,-24.5626)">
                    <path d="M24.858,43.311C24.858,43.054 24.533,42.844 24.132,42.844L19.146,42.844C18.745,42.844 18.419,43.054 18.419,43.311L18.419,44.246C18.419,44.503 18.745,44.713 19.146,44.713L24.132,44.713C24.533,44.713 24.858,44.503 24.858,44.246L24.858,43.311Z" style="fill:rgb(255,231,159);"/>
                </g>
                <g transform="matrix(1,0,0,1.55454,21.0678,-24.5626)">
                    <path d="M24.858,43.311C24.858,43.054 24.533,42.844 24.132,42.844L19.146,42.844C18.745,42.844 18.419,43.054 18.419,43.311L18.419,44.246C18.419,44.503 18.745,44.713 19.146,44.713L24.132,44.713C24.533,44.713 24.858,44.503 24.858,44.246L24.858,43.311Z" style="fill:rgb(255,231,159);"/>
                </g>
                <g transform="matrix(1,0,0,1,-0.138996,4.43131)">
                    <rect x="25.612" y="39.486" width="13.413" height="0.518" style="fill:rgb(83,83,83);"/>
                </g>
            </g>
            <g id="No-access" serif:id="No access" transform="matrix(2.05193,0,0,1.82113,-3.65066,5.87759)">
                <g transform="matrix(1.0274,0,0,1.45133,-0.748329,-14.6782)">
                    <rect x="11.212" y="28.837" width="43.491" height="6.754" style="fill:rgb(70,57,35);"/>
                </g>
                <g transform="matrix(1.0274,0,0,1.45133,-0.748329,-14.6782)">
                    <path d="M21.773,35.591L15.939,35.591L21.521,28.837L27.354,28.837L21.773,35.591ZM32.907,35.591L27.419,35.591L33,28.837L38.488,28.837L32.907,35.591ZM44.041,35.591L38.553,35.591L44.134,28.837L49.622,28.837L44.041,35.591ZM54.703,35.591L49.686,35.591L54.703,29.52L54.703,35.591ZM15.875,28.837L11.212,34.48L11.212,28.837L15.875,28.837Z" style="fill:rgb(255,156,0);"/>
                </g>
            </g>
        </g>
    </g>
</svg>
