<?xml version="1.0" encoding="UTF-8" standalone="no"?>
<!DOCTYPE svg PUBLIC "-//W3C//DTD SVG 1.1//EN" "http://www.w3.org/Graphics/SVG/1.1/DTD/svg11.dtd">
<svg width="100%" height="100%" viewBox="0 0 128 128" version="1.1" xmlns="http://www.w3.org/2000/svg" xmlns:xlink="http://www.w3.org/1999/xlink" xml:space="preserve" xmlns:serif="http://www.serif.com/" style="fill-rule:evenodd;clip-rule:evenodd;stroke-linejoin:round;stroke-miterlimit:2;">
    <g id="Event" transform="matrix(0.976563,0,0,0.976563,1.5,1.5)">
        <path d="M64,0L128,64L64,128L0,64L64,0Z" style="fill:rgb(255,231,185);"/>
        <clipPath id="_clip1">
            <path d="M64,0L128,64L64,128L0,64L64,0Z"/>
        </clipPath>
        <g clip-path="url(#_clip1)">
            <g id="Cargo" transform="matrix(1.49684,0,0,1.49684,16.3942,17.0244)">
                <g transform="matrix(1.10648,0,0,1.05306,-5.7772,-7.06421)">
                    <path d="M49.663,16.24C49.663,14.98 48.69,13.957 47.49,13.957L20.793,13.957C19.594,13.957 18.62,14.98 18.62,16.24L18.62,46.885C18.62,48.145 19.594,49.168 20.793,49.168L47.49,49.168C48.69,49.168 49.663,48.145 49.663,46.885L49.663,16.24Z" style="fill:rgb(97,129,156);"/>
                </g>
                <g transform="matrix(1,0,0,1,-0.227876,-0.948547)">
                    <path d="M24.944,48.952C24.944,48.12 24.268,47.443 23.435,47.443L20.417,47.443C19.584,47.443 18.907,48.12 18.907,48.952L18.907,54.701C18.907,55.534 19.584,56.21 20.417,56.21L23.435,56.21C24.268,56.21 24.944,55.534 24.944,54.701L24.944,48.952Z" style="fill:rgb(83,83,83);"/>
                </g>
                <g transform="matrix(1,0,0,1,19.8928,-0.689578)">
                    <path d="M24.944,48.952C24.944,48.12 24.268,47.443 23.435,47.443L20.417,47.443C19.584,47.443 18.907,48.12 18.907,48.952L18.907,54.701C18.907,55.534 19.584,56.21 20.417,56.21L23.435,56.21C24.268,56.21 24.944,55.534 24.944,54.701L24.944,48.952Z" style="fill:rgb(83,83,83);"/>
                </g>
                <g transform="matrix(1.13503,0,0,1,-7.69224,0)">
                    <path d="M49.174,42.844L20.776,42.844C20.776,42.844 20.677,41.299 20.776,38.987C21.057,32.425 21.902,19.685 23.119,18.556C24.608,17.173 44.9,17.263 46.832,18.556C48.192,19.466 48.941,32.77 49.174,39.292C49.251,41.434 49.174,42.844 49.174,42.844Z" style="fill:rgb(57,194,255);"/>
                </g>
                <g transform="matrix(1.03169,0,0,0.56579,-3.81896,10.2888)">
                    <path d="M49.174,42.844L20.776,42.844C20.776,42.844 21.474,20.084 23.119,18.556C24.608,17.173 44.9,17.263 46.832,18.556C48.639,19.765 49.174,42.844 49.174,42.844Z" style="fill:rgb(231,239,241);"/>
                </g>
                <g transform="matrix(0.93841,0,0,1.29746,1.97658,-19.9238)">
                    <path d="M49.174,46.556C49.174,45.539 48.032,44.713 46.626,44.713L17.374,44.713C15.968,44.713 14.826,45.539 14.826,46.556L14.826,50.243C14.826,51.26 15.968,52.086 17.374,52.086L46.626,52.086C48.032,52.086 49.174,51.26 49.174,50.243L49.174,46.556Z" style="fill:rgb(57,194,255);"/>
                </g>
                <g transform="matrix(1,0,0,1.55454,-0.339512,-25.4416)">
                    <path d="M24.858,43.311C24.858,43.054 24.533,42.844 24.132,42.844L19.146,42.844C18.745,42.844 18.419,43.054 18.419,43.311L18.419,44.246C18.419,44.503 18.745,44.713 19.146,44.713L24.132,44.713C24.533,44.713 24.858,44.503 24.858,44.246L24.858,43.311Z" style="fill:rgb(255,231,159);"/>
                </g>
                <g transform="matrix(1,0,0,1.55454,21.0735,-25.4416)">
                    <path d="M24.858,43.311C24.858,43.054 24.533,42.844 24.132,42.844L19.146,42.844C18.745,42.844 18.419,43.054 18.419,43.311L18.419,44.246C18.419,44.503 18.745,44.713 19.146,44.713L24.132,44.713C24.533,44.713 24.858,44.503 24.858,44.246L24.858,43.311Z" style="fill:rgb(255,231,159);"/>
                </g>
                <g transform="matrix(1,0,0,1,-0.312583,1.67531)">
                    <rect x="25.612" y="39.486" width="13.413" height="0.518" style="fill:rgb(83,83,83);"/>
                </g>
                <g transform="matrix(1,0,0,1,-0.312583,2.78139)">
                    <rect x="25.612" y="39.486" width="13.413" height="0.518" style="fill:rgb(83,83,83);"/>
                </g>
                <g transform="matrix(1,0,0,1,-0.312583,3.88748)">
                    <rect x="25.612" y="39.486" width="13.413" height="0.518" style="fill:rgb(83,83,83);"/>
                </g>
            </g>
            <g id="No-access" serif:id="No access" transform="matrix(2.05193,0,0,1.82113,-3.65066,5.87759)">
                <g transform="matrix(1.0274,0,0,1.45133,-0.748329,-14.6782)">
                    <rect x="11.212" y="28.837" width="43.491" height="6.754" style="fill:rgb(70,57,35);"/>
                </g>
                <g transform="matrix(1.0274,0,0,1.45133,-0.748329,-14.6782)">
                    <path d="M21.773,35.591L15.939,35.591L21.521,28.837L27.354,28.837L21.773,35.591ZM32.907,35.591L27.419,35.591L33,28.837L38.488,28.837L32.907,35.591ZM44.041,35.591L38.553,35.591L44.134,28.837L49.622,28.837L44.041,35.591ZM54.703,35.591L49.686,35.591L54.703,29.52L54.703,35.591ZM15.875,28.837L11.212,34.48L11.212,28.837L15.875,28.837Z" style="fill:rgb(255,156,0);"/>
                </g>
            </g>
        </g>
    </g>
</svg>
