<?xml version="1.0" encoding="UTF-8" standalone="no"?>
<!DOCTYPE svg PUBLIC "-//W3C//DTD SVG 1.1//EN" "http://www.w3.org/Graphics/SVG/1.1/DTD/svg11.dtd">
<svg width="100%" height="100%" viewBox="0 0 128 128" version="1.1" xmlns="http://www.w3.org/2000/svg" xmlns:xlink="http://www.w3.org/1999/xlink" xml:space="preserve" xmlns:serif="http://www.serif.com/" style="fill-rule:evenodd;clip-rule:evenodd;stroke-linejoin:round;stroke-miterlimit:2;">
    <g id="RentTooHigh" transform="matrix(0.93747,0,0,0.917643,6.5039,9.04172)">
        <path d="M128,20.294C128,4.558 115.494,-8.219 100.09,-8.219L22.572,-8.219C7.168,-8.219 -5.338,4.558 -5.338,20.294L-5.338,77.32C-5.338,93.056 7.168,105.832 22.572,105.832L60.791,105.832L100.622,128L100.09,105.832C115.494,105.832 128,93.056 128,77.32L128,20.294Z" style="fill:rgb(37,93,149);"/>
        <clipPath id="_clip1">
            <path d="M128,20.294C128,4.558 115.494,-8.219 100.09,-8.219L22.572,-8.219C7.168,-8.219 -5.338,4.558 -5.338,20.294L-5.338,77.32C-5.338,93.056 7.168,105.832 22.572,105.832L60.791,105.832L100.622,128L100.09,105.832C115.494,105.832 128,93.056 128,77.32L128,20.294Z"/>
        </clipPath>
        <g clip-path="url(#_clip1)">
            <g id="no-workers" serif:id="no workers" transform="matrix(2.66468,0,0,2.96771,-34.5577,0.315828)">
                <g>
                    <g transform="matrix(0.400312,0,0,0.367201,10.3653,-3.42655)">
                        <path d="M18.388,104.463L18.388,99.056C18.388,83.369 30.742,70.46 45.755,70.46L82.245,70.46C97.258,70.46 109.612,83.369 109.612,99.056L109.612,104.463C106.729,105.558 103.602,106.158 100.335,106.158L100.834,126.5L63.494,106.158L27.665,106.158C24.398,106.158 21.271,105.558 18.388,104.463Z" style="fill:rgb(136,241,255);fill-rule:nonzero;"/>
                        <path d="M17.958,104.463C17.958,104.642 18.068,104.802 18.235,104.865C21.165,105.978 24.344,106.588 27.665,106.588L63.384,106.588C63.384,106.588 100.628,126.878 100.628,126.878C100.763,126.951 100.927,126.947 101.058,126.867C101.189,126.787 101.267,126.643 101.263,126.489L100.776,106.584C103.937,106.533 106.965,105.929 109.765,104.865C109.932,104.802 110.042,104.642 110.042,104.463L110.042,99.056C110.042,83.128 97.489,70.03 82.245,70.03L45.755,70.03C30.511,70.03 17.958,83.128 17.958,99.056L17.958,104.463ZM18.388,104.463L18.388,99.056C18.388,83.369 30.742,70.46 45.755,70.46L82.245,70.46C97.258,70.46 109.612,83.369 109.612,99.056L109.612,104.463C106.729,105.558 103.602,106.158 100.335,106.158L100.834,126.5L63.494,106.158L27.665,106.158C24.398,106.158 21.271,105.558 18.388,104.463Z" style="fill:rgb(37,93,149);"/>
                    </g>
                    <g transform="matrix(0.430086,0,0,0.367201,8.46477,-3.42655)">
                        <path d="M31.298,106.158L63.494,106.158L95.708,124.454L94.817,73.034C91.897,71.594 87.923,70.634 84.733,70.453L79.696,77.334L78.534,96.48L47.835,96.48L47.354,77.475C47.354,77.475 43.997,72.789 42.3,70.592C39.112,70.661 34.904,71.537 32.148,73.098L31.298,106.158Z" style="fill:rgb(37,93,149);fill-rule:nonzero;"/>
                    </g>
                    <g transform="matrix(0.400312,0,0,0.367201,10.3653,-3.42655)">
                        <path d="M33.16,106.158L63.494,106.158L94.498,123.048L93.887,73.034C90.967,71.594 87.923,70.634 84.733,70.453L83.169,100.375L43.156,100.375L42.3,70.592C39.112,70.661 36.765,71.537 34.01,73.098L33.16,106.158Z" style="fill:rgb(203,107,47);fill-rule:nonzero;"/>
                        <path d="M32.82,106.149C32.817,106.241 32.852,106.33 32.916,106.396C32.98,106.461 33.068,106.499 33.16,106.499L63.407,106.499C63.407,106.499 94.335,123.348 94.335,123.348C94.441,123.405 94.57,123.403 94.674,123.34C94.777,123.278 94.84,123.165 94.838,123.044L94.227,73.03C94.226,72.902 94.152,72.785 94.037,72.729C91.075,71.268 87.988,70.296 84.752,70.113C84.661,70.108 84.573,70.139 84.505,70.199C84.438,70.26 84.397,70.345 84.392,70.435L82.846,100.035C82.846,100.035 43.487,100.035 43.487,100.035C43.487,100.035 42.64,70.582 42.64,70.582C42.635,70.395 42.48,70.248 42.293,70.252C39.044,70.322 36.65,71.211 33.842,72.802C33.738,72.861 33.672,72.97 33.669,73.089L32.82,106.149ZM33.16,106.158L63.494,106.158L94.498,123.048L93.887,73.034C90.967,71.594 87.923,70.634 84.733,70.453L83.169,100.375L43.156,100.375L42.3,70.592C39.112,70.661 36.765,71.537 34.01,73.098L33.16,106.158Z" style="fill:rgb(37,93,149);"/>
                    </g>
                    <g transform="matrix(2.74168,0,0,2.95925,-11.4963,-142.665)">
                        <ellipse cx="17.242" cy="53.287" rx="4.045" ry="3.878" style="fill:rgb(136,241,255);"/>
                        <path d="M17.242,48.911C14.706,48.911 12.61,50.856 12.61,53.287C12.61,55.718 14.706,57.664 17.242,57.664C19.777,57.664 21.873,55.718 21.873,53.287C21.873,50.856 19.777,48.911 17.242,48.911ZM17.242,49.409C19.474,49.409 21.287,51.147 21.287,53.287C21.287,55.427 19.474,57.165 17.242,57.165C15.009,57.165 13.197,55.427 13.197,53.287C13.197,51.147 15.009,49.409 17.242,49.409Z" style="fill:rgb(37,93,149);"/>
                    </g>
                    <g transform="matrix(0.341084,0,0,0.367201,15.0129,-3.42655)">
                        <rect x="27.173" y="50.248" width="67.325" height="3.735" style="fill:rgb(37,93,149);"/>
                    </g>
                    <g transform="matrix(0.400312,0,0,0.367201,10.3653,-3.42655)">
                        <path d="M24.323,30.883C24.323,30.883 63.332,47.236 63.412,46.418C63.491,45.6 106.002,29.137 106.002,29.137C106.002,29.137 63.647,9.838 64,9.985C64.353,10.132 24.323,30.883 24.323,30.883Z" style="fill:rgb(37,93,149);"/>
                    </g>
                    <g transform="matrix(0.400312,0,0,0.367201,10.0102,-3.53031)">
                        <path d="M35.96,50.531L92.967,50.531C93.229,43.953 92.376,38.763 90.706,34.838L64.887,46.321L37.853,34.603C36.452,37.096 35,51.204 35.96,50.531Z"/>
                    </g>
                    <g transform="matrix(0.400312,0,0,0.367201,10.3653,-3.42655)">
                        <path d="M24.323,25.585C24.323,25.585 63.899,43.703 63.979,42.886C64.059,42.068 103.794,25.879 103.794,25.879C103.794,25.879 63.647,9.838 64,9.985C64.353,10.132 24.323,25.585 24.323,25.585Z"/>
                    </g>
                    <g transform="matrix(0.400312,0,0,0.367201,10.3653,-3.42655)">
                        <path d="M41.996,18.735C50.337,15.475 64.151,10.048 64,9.985C63.647,9.838 103.794,25.879 103.794,25.879C103.794,25.879 88.82,32.07 79.65,35.884C77.935,36 76.178,36.061 74.387,36.061C56.119,36.061 41.287,29.774 41.287,22.031C41.287,20.95 41.449,19.745 41.996,18.735Z" style="fill:rgb(43,51,59);"/>
                    </g>
                    <g transform="matrix(0.400312,0,0,0.367201,10.3653,-3.42655)">
                        <path d="M48.556,16.177C56.898,12.917 64.151,10.048 64,9.985C63.647,9.838 103.794,25.879 103.794,25.879C103.794,25.879 96.095,29.049 86.925,32.863C85.1,33.199 82.611,33.35 80.821,33.35C62.553,33.35 47.721,27.063 47.721,19.32C47.721,18.239 48.01,17.188 48.556,16.177Z" style="fill:rgb(63,72,82);"/>
                    </g>
                    <g transform="matrix(0.400312,0,0,0.367201,10.3653,-3.42655)">
                        <ellipse cx="64.606" cy="23.507" rx="3.909" ry="2.025"/>
                    </g>
                    <g transform="matrix(0.400312,0,0,0.367201,10.3653,-3.42655)">
                        <path d="M101.556,38.134C101.91,47.844 101.749,56.763 97.079,64.865C99.873,66.491 101.87,66.593 108.482,64C108.966,53.615 108.124,45.072 104.589,37.701C104.589,37.701 101.368,37.946 101.556,38.134Z"/>
                    </g>
                    <g transform="matrix(0.400312,0,0,0.367201,10.3653,-3.42655)">
                        <path d="M66.673,24.209C75.802,25.588 97.438,27.455 99.174,28.315C100.131,28.789 100.951,34.129 100.24,35.61L102.843,35.498C103.175,30.2 102.002,27.62 101.191,26.943C99.335,25.395 68.177,23.006 66.797,22.863C62.977,22.467 63.35,23.502 66.673,24.209Z"/>
                    </g>
                    <g transform="matrix(0.486299,0,0,0.367201,1.01202,-3.42655)">
                        <path d="M103.794,38.549C106.328,48.573 105.554,57.818 102.039,66.028C104.398,66.551 106.309,65.332 108.607,64C109.485,52.634 106.728,40.482 104.808,37.701C104.274,36.928 104.183,37.867 103.794,38.549Z" style="fill:rgb(43,51,59);"/>
                    </g>
                    <g transform="matrix(0.400312,0,0,0.367201,10.3653,-3.42655)">
                        <path d="M103.794,38.549C107.422,47.67 107.309,57.696 103.794,65.906C106.479,65.468 106.46,64.888 108.607,64C109.485,52.634 106.728,40.482 104.808,37.701C104.274,36.928 104.183,37.867 103.794,38.549Z" style="fill:rgb(63,72,82);"/>
                    </g>
                    <g transform="matrix(0.353717,0,0,0.297718,15.1378,-1.10932)">
                        <ellipse cx="102.328" cy="36.693" rx="4.144" ry="3.344"/>
                    </g>
                </g>
            </g>
        </g>
    </g>
</svg>
