<?xml version="1.0" encoding="UTF-8" standalone="no"?>
<!DOCTYPE svg PUBLIC "-//W3C//DTD SVG 1.1//EN" "http://www.w3.org/Graphics/SVG/1.1/DTD/svg11.dtd">
<svg width="100%" height="100%" viewBox="0 0 128 128" version="1.1" xmlns="http://www.w3.org/2000/svg" xmlns:xlink="http://www.w3.org/1999/xlink" xml:space="preserve" xmlns:serif="http://www.serif.com/" style="fill-rule:evenodd;clip-rule:evenodd;stroke-linejoin:round;stroke-miterlimit:2;">
    <g id="Vehicles" transform="matrix(0.976563,0,0,0.942198,1.5,1.5)">
        <path d="M64,0L119.426,33.167L119.426,99.501L64,132.668L8.574,99.501L8.574,33.167L64,0Z" style="fill:rgb(229,99,51);"/>
        <clipPath id="_clip1">
            <path d="M64,0L119.426,33.167L119.426,99.501L64,132.668L8.574,99.501L8.574,33.167L64,0Z"/>
        </clipPath>
        <g clip-path="url(#_clip1)">
            <g id="NoFuel" transform="matrix(1.95513,-0.659811,0.636593,2.02643,-26.8442,31.4506)">
                <g transform="matrix(1,0,0,1,12.791,6.03619)">
                    <path d="M23.058,6.919L39.792,6.845L39.792,11.516L25.121,11.589L14.239,22.092L10.969,18.757L23.058,6.919Z" style="fill:rgb(183,183,183);"/>
                </g>
                <g transform="matrix(0.832972,0.271217,-0.271217,0.832972,16.4522,-7.08318)">
                    <path d="M43.705,10.749C44.675,10.413 44.791,11.219 43.944,11.513L29.987,16.118L28.324,19.193C27.688,20.359 26.871,19.932 27.422,18.654L28.988,15.5L43.705,10.749Z" style="fill:rgb(221,221,221);"/>
                </g>
                <g transform="matrix(0.576117,-0.563642,0.699326,0.714803,-20.105,17.7103)">
                    <rect x="8.334" y="36.114" width="9.4" height="3.826" style="fill:rgb(100,100,99);"/>
                </g>
                <g transform="matrix(0.832972,0.271217,-0.271217,0.832972,16.4522,-7.08318)">
                    <path d="M18.531,46.303L17.864,47.755C16.604,48.787 10.949,45.884 11.433,44.851C13.141,41.212 15.383,36.124 17.252,31.816C17.54,31.152 16.773,28.067 17.23,27.016C18.264,24.636 18.492,24.401 19.169,23.467C19.721,22.705 21.631,23.122 21.631,23.122C22.115,22.088 23.347,21.642 24.38,22.126L30.199,24.188C31.232,24.672 32.145,25.071 31.661,26.104L29.582,32.443L29.587,32.441C29.587,32.441 26.148,44.834 23.997,46.755C23.185,47.481 20.432,46.856 18.531,46.303ZM19.822,43.492C21.142,43.813 22.693,44.164 22.818,44.077C23.288,43.75 25.56,37.412 26.513,34.708C25.974,34.658 24.527,34.525 23.967,34.469L19.822,43.492Z" style="fill:rgb(254,206,68);"/>
                </g>
                <g transform="matrix(0.832972,0.271217,-0.271217,0.832972,16.0189,-7.48459)">
                    <path d="M13.77,44.602C13.455,45.436 14.217,45.7 14.594,44.838C21.172,29.827 19.798,32.852 19.798,32.852C20.088,32.079 19.442,31.842 19.092,32.558L13.77,44.602Z" style="fill:rgb(255,244,186);"/>
                </g>
                <g id="water" transform="matrix(1.18147,0.384689,-0.384689,1.18147,40.6835,9.31197)">
                    <g>
                        <g id="Path_63" transform="matrix(0.950454,0,0,0.950454,-9446.84,43.5471)">
                            <path d="M9952.54,-41.21C9952.54,-41.21 9948.57,-32.874 9948.27,-31.459C9948.03,-30.284 9947.61,-25.744 9952.53,-25.744C9957.45,-25.744 9957.09,-30.499 9956.91,-31.343C9956.5,-33.178 9952.54,-41.21 9952.54,-41.21Z" style="fill:rgb(59,25,2);fill-rule:nonzero;"/>
                        </g>
                        <g id="Ellipse_120" transform="matrix(0.950454,0,0,0.950454,10.0125,12.7352)">
                            <ellipse cx="1.5" cy="2" rx="1.5" ry="2" style="fill:rgb(172,141,121);"/>
                        </g>
                        <g id="Ellipse_121" transform="matrix(0.950454,0,0,0.950454,14.7648,16.5371)">
                            <circle cx="0.5" cy="0.5" r="0.5" style="fill:rgb(172,141,121);"/>
                        </g>
                    </g>
                </g>
                <g transform="matrix(0.832972,0.271217,-0.271217,0.832972,16.4522,-7.08318)">
                    <path d="M19.976,23.625C19.976,23.625 19.674,24.665 19.054,25.779C18.626,26.546 17.94,28.489 17.777,28.422C17.612,28.354 17.339,27.272 18.444,25.328C19.374,23.693 19.976,23.625 19.976,23.625Z" style="fill:rgb(255,244,186);"/>
                </g>
            </g>
        </g>
    </g>
</svg>
