<?xml version="1.0" encoding="UTF-8" standalone="no"?>
<!DOCTYPE svg PUBLIC "-//W3C//DTD SVG 1.1//EN" "http://www.w3.org/Graphics/SVG/1.1/DTD/svg11.dtd">
<svg width="100%" height="100%" viewBox="0 0 128 128" version="1.1" xmlns="http://www.w3.org/2000/svg" xmlns:xlink="http://www.w3.org/1999/xlink" xml:space="preserve" xmlns:serif="http://www.serif.com/" style="fill-rule:evenodd;clip-rule:evenodd;stroke-linejoin:round;stroke-miterlimit:2;">
    <g id="Vehicles" transform="matrix(0.976563,0,0,0.942198,1.5,1.5)">
        <path d="M64,0L119.426,33.167L119.426,99.501L64,132.668L8.574,99.501L8.574,33.167L64,0Z" style="fill:rgb(229,99,51);"/>
        <clipPath id="_clip1">
            <path d="M64,0L119.426,33.167L119.426,99.501L64,132.668L8.574,99.501L8.574,33.167L64,0Z"/>
        </clipPath>
        <g clip-path="url(#_clip1)">
            <g id="NoGroundwater" transform="matrix(1,0,0,1,1.86448,3.58597)">
                <g transform="matrix(0.982278,0,0,1.89419,0.15208,-28.989)">
                    <path d="M107.789,36.051C107.789,35.736 107.314,35.481 106.728,35.481L19.475,35.481C18.89,35.481 18.414,35.736 18.414,36.051L18.414,63.43C18.414,63.744 18.89,64 19.475,64L106.728,64C107.314,64 107.789,63.744 107.789,63.43L107.789,36.051Z" style="fill:rgb(81,30,3);"/>
                </g>
                <g transform="matrix(-1.84348,0,6.68479e-31,2.22248,106.031,36.8657)">
                    <path d="M-0,0.013L4.782,0C4.727,-0.661 4.515,-1.299 4.164,-1.861C3.737,-2.482 3.24,-3.053 2.683,-3.561C3.902,-3.399 5.078,-3.001 6.145,-2.389C6.241,-3.248 6.637,-4.047 7.263,-4.643C8.207,-5.433 9.265,-6.076 10.4,-6.551C9.725,-5.852 9.161,-5.055 8.727,-4.186C8.382,-3.367 8.194,-2.489 8.175,-1.6C8.647,-2.508 9.441,-3.208 10.4,-3.565C11.67,-3.833 12.516,-3.602 12.898,-2.4C12.069,-2.684 11.352,-2.689 10.883,-2.367C10.362,-2.009 9.857,-1.244 10.169,-0.819C10.949,0.242 13.388,0 13.388,0L47.622,-0.259L47.622,2.741L-0,3.013L-0,0.013Z" style="fill:rgb(49,207,0);fill-rule:nonzero;"/>
                </g>
                <g transform="matrix(0.878489,5.77817e-17,-4.87659e-17,1.0409,7.95942,-42.8889)">
                    <rect x="11.702" y="81.989" width="99.933" height="17.494" style="fill:rgb(100,47,19);"/>
                </g>
                <g id="warning" transform="matrix(0.828602,2.34804e-32,-1.87827e-32,0.858823,9.02982,10.2427)">
                    <path d="M11.304,97.763C11.21,97.013 11.147,96.25 11.115,95.475L11.115,88.762C18.013,88.762 19.955,92.074 26.853,91.901C37.614,91.63 35.889,86.939 46.65,86.939C56.79,86.939 57.232,92.136 67.375,92.298C74.022,92.405 76.745,87.032 87.646,87.132C93.539,87.186 97.936,91.813 103.102,91.724C108.873,91.624 115.08,88.762 117.066,88.762L117.066,97.762C115.08,97.762 108.873,100.624 103.102,100.724C97.936,100.813 93.539,96.186 87.646,96.132C76.745,96.032 74.022,101.405 67.375,101.298C57.232,101.136 56.79,95.939 46.65,95.939C35.889,95.939 37.614,100.63 26.853,100.901C20.019,101.073 18.049,97.822 11.304,97.763Z" style="fill:rgb(57,194,255);"/>
                </g>
                <g transform="matrix(1.024,0,0,1.06135,-3.40048,-5.17799)">
                    <path d="M30.45,52.443L25.884,56.812L33.236,59.576L37.766,55.872L34.868,54.776L32.828,50.639L30.45,52.443ZM101.122,50.806C100.683,49.491 88.972,59.576 88.972,59.576L96.811,59.576C96.811,59.576 105.433,55.853 104.257,55.191C103.081,54.529 101.318,51.393 101.122,50.806ZM85.282,57.493C84.865,56.82 83.893,53.391 83.893,53.391L78.61,55.39L80.357,56.762C80.357,56.762 85.519,57.878 85.282,57.493ZM46.152,48.382L41.449,52.767L49.287,57.153L51.051,52.767L46.152,48.382ZM88.145,48.391L85.869,52.069L92.216,52.984L88.145,48.391Z" style="fill:rgb(128,67,35);"/>
                </g>
                <g transform="matrix(1.33404,0,0,1.28687,-27.7377,-11.3513)">
                    <path d="M75.812,45.9L80.034,50.436L71.59,59.509L80.034,68.581L75.812,73.117L67.368,64.045L58.925,73.117L54.703,68.581L63.147,59.509L54.703,50.436L58.925,45.9L67.368,54.973L75.812,45.9Z" style="fill:white;"/>
                </g>
            </g>
        </g>
    </g>
</svg>
