<?xml version="1.0" encoding="UTF-8" standalone="no"?>
<!DOCTYPE svg PUBLIC "-//W3C//DTD SVG 1.1//EN" "http://www.w3.org/Graphics/SVG/1.1/DTD/svg11.dtd">
<svg width="100%" height="100%" viewBox="0 0 128 128" version="1.1" xmlns="http://www.w3.org/2000/svg" xmlns:xlink="http://www.w3.org/1999/xlink" xml:space="preserve" xmlns:serif="http://www.serif.com/" style="fill-rule:evenodd;clip-rule:evenodd;stroke-linejoin:round;stroke-miterlimit:2;">
    <g id="Vehicles" transform="matrix(0.976563,0,0,0.942198,1.5,1.5)">
        <path d="M64,0L119.426,33.167L119.426,99.501L64,132.668L8.574,99.501L8.574,33.167L64,0Z" style="fill:rgb(255,231,185);"/>
        <clipPath id="_clip1">
            <path d="M64,0L119.426,33.167L119.426,99.501L64,132.668L8.574,99.501L8.574,33.167L64,0Z"/>
        </clipPath>
        <g clip-path="url(#_clip1)">
            <g id="NoInputs" transform="matrix(2.37579,0,0,2.46244,-11.9155,-22.7148)">
                <g transform="matrix(5.74007e-17,0.933972,0.616314,-0.372527,16.771,18.7412)">
                    <rect x="26.302" y="24.5" width="21.448" height="22.137" style="fill:rgb(118,86,50);"/>
                </g>
                <g transform="matrix(-5.27581e-17,0.912923,-0.622096,-0.376023,47.2645,19.9171)">
                    <rect x="26.302" y="24.5" width="21.448" height="22.137" style="fill:rgb(171,128,80);"/>
                </g>
                <g transform="matrix(-5.71893e-17,0.781155,-0.615177,-0.287903,60.5601,12.4025)">
                    <rect x="26.302" y="24.5" width="21.448" height="22.137" style="fill:rgb(118,86,50);"/>
                </g>
                <g transform="matrix(5.78496e-17,0.789307,0.621968,-0.314433,3.01688,13.3503)">
                    <rect x="26.302" y="24.5" width="21.448" height="22.137" style="fill:rgb(171,128,80);"/>
                </g>
                <g id="Not-Enough-Money" serif:id="Not Enough Money" transform="matrix(0.339945,0,-4.25157e-17,0.339945,20.1389,13.4596)">
                    <g>
                        <g id="Layer8" transform="matrix(2.11127,0,0,2.26241,-47.9204,-46.1107)">
                            <g>
                                <path d="M26.677,43.769L41.3,33.53L52.089,35.028L38.771,46.174L26.677,43.769Z" style="fill:rgb(88,233,78);"/>
                                <path d="M26.685,43.752L26.719,45.436L38.834,48.082L51.988,36.382L52.083,35.031L38.78,46.169L26.685,43.752Z" style="fill:rgb(28,154,11);"/>
                            </g>
                        </g>
                        <g id="Layer81" serif:id="Layer8" transform="matrix(2.11127,0,0,2.26241,-48.6459,-52.1741)">
                            <g>
                                <path d="M26.677,43.769L41.3,33.53L52.089,35.028L38.771,46.174L26.677,43.769Z" style="fill:rgb(88,233,78);"/>
                                <path d="M26.685,43.752L26.719,45.436L38.834,48.082L51.988,36.382L52.083,35.031L38.78,46.169L26.685,43.752Z" style="fill:rgb(28,154,11);"/>
                            </g>
                        </g>
                        <g id="Layer82" serif:id="Layer8" transform="matrix(2.11127,0,0,2.26241,-49.3543,-58.2472)">
                            <g>
                                <path d="M26.677,43.769L41.3,33.53L52.089,35.028L38.771,46.174L26.677,43.769Z" style="fill:rgb(88,233,78);"/>
                                <path d="M26.685,43.752L26.719,45.436L38.834,48.082L51.988,36.382L52.083,35.031L38.78,46.169L26.685,43.752Z" style="fill:rgb(28,154,11);"/>
                                <g transform="matrix(0.980831,0.194863,-0.183479,0.923532,5.76401,-5.36377)">
                                    <path d="M43.283,36.846C45.548,36.846 46.808,37.994 46.54,39.489C46.311,40.765 44.036,41.962 41.77,41.962C39.504,41.962 37.921,40.784 38.33,39.326C38.813,37.605 41.017,36.846 43.283,36.846Z" style="fill:rgb(28,154,11);"/>
                                </g>
                            </g>
                        </g>
                    </g>
                </g>
                <g transform="matrix(1.00894,0.6076,-1.19366,0.930502,36.2742,-1.08593)">
                    <path d="M23.278,23.237L9.651,23.228L9.236,28.05L23.492,29.185L23.278,23.237Z" style="fill:rgb(206,168,125);"/>
                </g>
                <g transform="matrix(-0.930216,0.696203,1.19696,0.888074,25.836,-2.3472)">
                    <path d="M23.348,23.314L9.892,24.106L9.488,28.56L23.284,28.825L23.348,23.314Z" style="fill:rgb(206,168,125);"/>
                </g>
                <g transform="matrix(1.17802,-1.0748,0.457465,0.478889,-8.32799,39.2247)">
                    <path d="M23.281,9.548C23.281,8.323 22.868,7.329 22.36,7.329C21.851,7.329 21.439,8.323 21.439,9.548L21.439,14.876C21.439,16.1 21.851,17.095 22.36,17.095C22.868,17.095 23.281,16.1 23.281,14.876L23.281,9.548Z" style="fill:rgb(229,99,51);"/>
                </g>
                <g transform="matrix(1.6062,0.0105692,-0.00481194,0.695365,-3.68634,9.58434)">
                    <path d="M23.281,9.457C23.281,8.282 22.868,7.329 22.36,7.329C21.851,7.329 21.439,8.282 21.439,9.457L21.439,14.967C21.439,16.141 21.851,17.095 22.36,17.095C22.868,17.095 23.281,16.141 23.281,14.967L23.281,9.457Z" style="fill:rgb(229,99,51);"/>
                </g>
                <g transform="matrix(1.13101,1.12642,-0.436857,0.41986,20.6403,-9.51644)">
                    <path d="M23.281,9.756C23.281,8.417 22.868,7.329 22.36,7.329C21.851,7.329 21.439,8.417 21.439,9.756L21.439,14.667C21.439,16.007 21.851,17.095 22.36,17.095C22.868,17.095 23.281,16.007 23.281,14.667L23.281,9.756Z" style="fill:rgb(229,99,51);"/>
                </g>
            </g>
        </g>
    </g>
</svg>
