<?xml version="1.0" encoding="UTF-8" standalone="no"?>
<!DOCTYPE svg PUBLIC "-//W3C//DTD SVG 1.1//EN" "http://www.w3.org/Graphics/SVG/1.1/DTD/svg11.dtd">
<svg width="100%" height="100%" viewBox="0 0 128 128" version="1.1" xmlns="http://www.w3.org/2000/svg" xmlns:xlink="http://www.w3.org/1999/xlink" xml:space="preserve" xmlns:serif="http://www.serif.com/" style="fill-rule:evenodd;clip-rule:evenodd;stroke-linejoin:round;stroke-miterlimit:2;">
    <g id="Event" transform="matrix(0.976563,0,0,0.976563,1.5,1.5)">
        <path d="M64,0L128,64L64,128L0,64L64,0Z" style="fill:rgb(255,231,185);"/>
        <clipPath id="_clip1">
            <path d="M64,0L128,64L64,128L0,64L64,0Z"/>
        </clipPath>
        <g clip-path="url(#_clip1)">
            <g id="pedestrian" transform="matrix(2.10087,0,0,2.10087,-5.66732,0.223772)">
                <circle cx="33.925" cy="16.397" r="5.398" style="fill:rgb(57,194,255);"/>
                <g transform="matrix(0.944419,0,0,1.01638,2.35515,-3.29349)">
                    <path d="M39.323,27.393C39.323,25.738 38.929,24.424 37.148,24.424L28.659,24.422C26.877,24.422 26.414,25.738 26.414,27.393L26.414,39.389C26.414,41.044 27.86,42.388 29.641,42.388L36.096,42.388C37.877,42.388 39.323,41.044 39.323,39.389L39.323,27.393Z" style="fill:rgb(57,194,255);"/>
                </g>
                <g transform="matrix(0.736873,0,0,1.07424,4.66328,-10.7348)">
                    <path d="M36.659,45.161C36.659,44.037 35.329,43.124 33.69,43.124C32.051,43.124 30.721,44.037 30.721,45.161L30.721,54.493C30.721,55.617 32.051,56.53 33.69,56.53C35.329,56.53 36.659,55.617 36.659,54.493L36.659,45.161Z" style="fill:rgb(57,194,255);"/>
                </g>
                <g transform="matrix(0.736873,0,0,1.07424,12.4798,-10.7348)">
                    <path d="M36.659,45.161C36.659,44.037 35.329,43.124 33.69,43.124C32.051,43.124 30.721,44.037 30.721,45.161L30.721,54.493C30.721,55.617 32.051,56.53 33.69,56.53C35.329,56.53 36.659,55.617 36.659,54.493L36.659,45.161Z" style="fill:rgb(57,194,255);"/>
                </g>
                <g transform="matrix(0.685385,-0.270609,0.482413,1.22183,-7.05892,-21.8994)">
                    <path d="M36.659,44.79C36.659,43.871 35.329,43.124 33.69,43.124C32.051,43.124 30.721,43.871 30.721,44.79L30.721,54.865C30.721,55.784 32.051,56.53 33.69,56.53C35.329,56.53 36.659,55.784 36.659,54.865L36.659,44.79Z" style="fill:rgb(57,194,255);"/>
                </g>
                <g transform="matrix(-0.677236,-0.290402,-0.522188,1.21778,75.6101,-21.0264)">
                    <path d="M36.659,44.776C36.659,43.864 35.329,43.124 33.69,43.124C32.051,43.124 30.721,43.864 30.721,44.776L30.721,54.879C30.721,55.79 32.051,56.53 33.69,56.53C35.329,56.53 36.659,55.79 36.659,54.879L36.659,44.776Z" style="fill:rgb(57,194,255);"/>
                </g>
            </g>
            <g id="No-access" serif:id="No access" transform="matrix(2.05193,0,0,1.82113,-3.65066,5.87759)">
                <g transform="matrix(1.0274,0,0,1.45133,-0.748329,-14.6782)">
                    <rect x="11.212" y="28.837" width="43.491" height="6.754" style="fill:rgb(70,57,35);"/>
                </g>
                <g transform="matrix(1.0274,0,0,1.45133,-0.748329,-14.6782)">
                    <path d="M21.773,35.591L15.939,35.591L21.521,28.837L27.354,28.837L21.773,35.591ZM32.907,35.591L27.419,35.591L33,28.837L38.488,28.837L32.907,35.591ZM44.041,35.591L38.553,35.591L44.134,28.837L49.622,28.837L44.041,35.591ZM54.703,35.591L49.686,35.591L54.703,29.52L54.703,35.591ZM15.875,28.837L11.212,34.48L11.212,28.837L15.875,28.837Z" style="fill:rgb(255,156,0);"/>
                </g>
            </g>
        </g>
    </g>
</svg>
