<?xml version="1.0" encoding="UTF-8" standalone="no"?>
<!DOCTYPE svg PUBLIC "-//W3C//DTD SVG 1.1//EN" "http://www.w3.org/Graphics/SVG/1.1/DTD/svg11.dtd">
<svg width="100%" height="100%" viewBox="0 0 128 128" version="1.1" xmlns="http://www.w3.org/2000/svg" xmlns:xlink="http://www.w3.org/1999/xlink" xml:space="preserve" xmlns:serif="http://www.serif.com/" style="fill-rule:evenodd;clip-rule:evenodd;stroke-linejoin:round;stroke-miterlimit:2;">
    <g id="Vehicles" transform="matrix(0.976563,0,0,0.942198,1.5,1.5)">
        <path d="M64,0L119.426,33.167L119.426,99.501L64,132.668L8.574,99.501L8.574,33.167L64,0Z" style="fill:rgb(229,99,51);"/>
        <clipPath id="_clip1">
            <path d="M64,0L119.426,33.167L119.426,99.501L64,132.668L8.574,99.501L8.574,33.167L64,0Z"/>
        </clipPath>
        <g clip-path="url(#_clip1)">
            <g id="water" transform="matrix(5.57289,0,0,5.77615,-6.32811,-1.4126)">
                <g>
                    <g id="Path_63" transform="matrix(0.950454,0,0,0.950454,-9446.84,43.5471)">
                        <path d="M9952.54,-41.21C9952.54,-41.21 9948.57,-32.874 9948.27,-31.459C9948.03,-30.284 9947.61,-25.744 9952.53,-25.744C9957.45,-25.744 9957.09,-30.499 9956.91,-31.343C9956.5,-33.178 9952.54,-41.21 9952.54,-41.21Z" style="fill:rgb(57,194,255);fill-rule:nonzero;"/>
                    </g>
                    <g id="Ellipse_120" transform="matrix(0.950454,0,0,0.950454,10.0125,12.7352)">
                        <ellipse cx="1.5" cy="2" rx="1.5" ry="2" style="fill:rgb(210,249,255);"/>
                    </g>
                    <g id="Ellipse_121" transform="matrix(0.950454,0,0,0.950454,14.7648,16.5371)">
                        <circle cx="0.5" cy="0.5" r="0.5" style="fill:rgb(164,236,255);"/>
                    </g>
                </g>
            </g>
        </g>
    </g>
</svg>
