<?xml version="1.0" encoding="UTF-8" standalone="no"?>
<!DOCTYPE svg PUBLIC "-//W3C//DTD SVG 1.1//EN" "http://www.w3.org/Graphics/SVG/1.1/DTD/svg11.dtd">
<svg width="100%" height="100%" viewBox="0 0 128 128" version="1.1" xmlns="http://www.w3.org/2000/svg" xmlns:xlink="http://www.w3.org/1999/xlink" xml:space="preserve" xmlns:serif="http://www.serif.com/" style="fill-rule:evenodd;clip-rule:evenodd;stroke-linejoin:round;stroke-miterlimit:2;">
    <g id="Vehicles" transform="matrix(0.976563,0,0,0.942198,1.5,1.5)">
        <path d="M64,0L119.426,33.167L119.426,99.501L64,132.668L8.574,99.501L8.574,33.167L64,0Z" style="fill:rgb(255,184,14);"/>
        <clipPath id="_clip1">
            <path d="M64,0L119.426,33.167L119.426,99.501L64,132.668L8.574,99.501L8.574,33.167L64,0Z"/>
        </clipPath>
        <g clip-path="url(#_clip1)">
            <g id="NotEnoughElectricity" transform="matrix(1.67444,0,0,1.73551,11.1699,8.35755)">
                <g transform="matrix(0.937255,0,0,1,1.61148,-0.00958142)">
                    <path d="M56.375,19.983C56.376,20.018 56.376,20.053 56.376,20.088L56.376,44.262C56.376,50.933 50.96,56.349 44.289,56.349L19.599,56.349C12.927,56.349 7.511,50.933 7.511,44.262L7.511,20.088C7.511,20.053 7.512,20.018 7.512,19.983L11.816,19.983L11.816,42.505C11.816,48.033 16.304,52.521 21.832,52.521L41.864,52.521C47.392,52.521 51.88,48.033 51.88,42.505L51.88,19.983L56.375,19.983Z"/>
                    <path d="M57.68,19.972C57.674,19.301 57.091,18.76 56.375,18.76L51.88,18.76C51.159,18.76 50.575,19.307 50.575,19.983L50.575,42.505C50.575,47.337 46.696,51.298 41.864,51.298L21.832,51.298C17,51.298 13.121,47.337 13.121,42.505C13.121,42.505 13.121,19.983 13.121,19.983C13.121,19.307 12.537,18.76 11.816,18.76L7.512,18.76C6.796,18.76 6.214,19.301 6.207,19.972C6.207,20.01 6.207,20.049 6.207,20.088L6.207,44.262C6.207,51.629 12.231,57.572 19.599,57.572C19.599,57.572 44.289,57.572 44.289,57.572C51.656,57.572 57.681,51.629 57.681,44.262L57.681,20.088C57.681,20.049 57.681,20.01 57.68,19.972ZM56.375,19.983C56.376,20.018 56.376,20.053 56.376,20.088L56.376,44.262C56.376,50.933 50.96,56.349 44.289,56.349L19.599,56.349C12.927,56.349 7.511,50.933 7.511,44.262L7.511,20.088C7.511,20.053 7.512,20.018 7.512,19.983L11.816,19.983L11.816,42.505C11.816,48.033 16.304,52.521 21.832,52.521L41.864,52.521C47.392,52.521 51.88,48.033 51.88,42.505L51.88,19.983L56.375,19.983Z"/>
                </g>
                <g transform="matrix(0.902075,0,0,0.933808,3.5855,21.8371)">
                    <path d="M48.521,23.722L13.875,23.722C13.875,23.722 14.328,25.195 15.518,26.584C16.394,27.607 18.821,28.933 20.045,29.115C22.257,29.445 31.185,29.548 31.185,29.548C31.185,29.548 40.002,29.887 43.569,29.058C45.476,28.614 47.011,26.538 47.485,25.844C47.846,25.316 48.521,23.722 48.521,23.722Z" style="fill:rgb(172,0,0);"/>
                </g>
                <g id="electric" transform="matrix(2.71994,0,0,2.71994,13.4055,8.49114)">
                    <g>
                        <g transform="matrix(0.958373,0,0,0.898748,-9401.1,26.6126)">
                            <path d="M9816.23,-28.8L9811.53,-22.776L9816.23,-22.776L9823.17,-28.8L9816.23,-28.8Z" style="fill:rgb(247,246,241);fill-rule:nonzero;"/>
                        </g>
                        <g transform="matrix(0.958373,0,0,0.898748,-9398.06,14.7716)">
                            <path d="M9813.07,-9.6L9817.32,-9.6L9806.58,-2.507L9813.07,-9.6Z" style="fill:rgb(247,246,241);fill-rule:nonzero;"/>
                        </g>
                    </g>
                </g>
            </g>
        </g>
    </g>
</svg>
