<?xml version="1.0" encoding="UTF-8" standalone="no"?>
<!DOCTYPE svg PUBLIC "-//W3C//DTD SVG 1.1//EN" "http://www.w3.org/Graphics/SVG/1.1/DTD/svg11.dtd">
<svg width="100%" height="100%" viewBox="0 0 128 128" version="1.1" xmlns="http://www.w3.org/2000/svg" xmlns:xlink="http://www.w3.org/1999/xlink" xml:space="preserve" xmlns:serif="http://www.serif.com/" style="fill-rule:evenodd;clip-rule:evenodd;stroke-linejoin:round;stroke-miterlimit:2;">
    <g id="Event" transform="matrix(0.976563,0,0,0.976563,1.5,1.5)">
        <path d="M64,0L128,64L64,128L0,64L64,0Z" style="fill:rgb(255,184,14);"/>
        <clipPath id="_clip1">
            <path d="M64,0L128,64L64,128L0,64L64,0Z"/>
        </clipPath>
        <g clip-path="url(#_clip1)">
            <g transform="matrix(0.773055,0,0,0.773055,14.0694,12.2816)">
                <g transform="matrix(1,0,0,1,0,4.59902)">
                    <path d="M54.891,20.807C54.891,17.709 52.376,15.193 49.277,15.193C46.179,15.193 43.663,17.709 43.663,20.807L43.663,53.787C43.663,56.885 46.179,59.401 49.277,59.401C52.376,59.401 54.891,56.885 54.891,53.787L54.891,20.807ZM85.251,20.807C85.251,17.709 82.735,15.193 79.637,15.193C76.538,15.193 74.023,17.709 74.023,20.807L74.023,53.787C74.023,56.885 76.538,59.401 79.637,59.401C82.735,59.401 85.251,56.885 85.251,53.787L85.251,20.807Z" style="fill:rgb(84,102,113);"/>
                </g>
                <g transform="matrix(1,0,0,1,0,4.59902)">
                    <path d="M51.726,84.215C51.759,86.947 53.987,89.154 56.727,89.154L58.568,89.154C58.432,91.739 58.18,99.558 59.902,102.506C61.886,105.902 64.458,106.889 66.747,111.616C67.38,112.922 66.747,121.162 66.747,121.162C66.727,128.321 81.079,127.884 80.993,121.162C80.993,121.162 81.547,114.335 80.517,111.024C79.434,107.54 74.94,102.753 72.382,99.75C70.352,97.367 70.787,91.338 71.022,89.154L71.453,89.154C74.168,89.154 76.381,86.985 76.452,84.287L80.883,84.3C80.883,84.3 82.914,83.966 84.464,82.745C86.211,81.369 86.652,80.016 86.652,80.016C86.652,80.016 91.612,59.738 95.008,45.906C96.916,45.789 98.428,44.258 98.428,42.389C98.428,40.445 96.79,38.866 94.773,38.866L34.405,38.866C32.387,38.866 30.75,40.445 30.75,42.389C30.75,44.334 32.387,45.913 34.405,45.913L34.549,45.913L42.82,79.554C42.82,79.554 42.964,81.352 44.808,82.691C46.626,84.011 49.315,84.208 49.315,84.208L51.726,84.215Z" style="fill:rgb(225,231,235);"/>
                </g>
                <g transform="matrix(1,0,0,1,0,4.59902)">
                    <path d="M84.625,64C84.625,62.879 83.716,61.97 82.595,61.97L47.777,61.97C46.656,61.97 45.747,62.879 45.747,64C45.747,65.121 46.656,66.03 47.777,66.03L82.595,66.03C83.716,66.03 84.625,65.121 84.625,64ZM86.509,56.731C86.509,55.611 85.599,54.701 84.479,54.701L45.767,54.701C44.647,54.701 43.737,55.611 43.737,56.731C43.737,57.852 44.647,58.762 45.767,58.762L84.479,58.762C85.599,58.762 86.509,57.852 86.509,56.731Z" style="fill:rgb(190,203,211);"/>
                </g>
            </g>
        </g>
    </g>
</svg>
