<?xml version="1.0" encoding="UTF-8" standalone="no"?>
<!DOCTYPE svg PUBLIC "-//W3C//DTD SVG 1.1//EN" "http://www.w3.org/Graphics/SVG/1.1/DTD/svg11.dtd">
<svg width="100%" height="100%" viewBox="0 0 128 128" version="1.1" xmlns="http://www.w3.org/2000/svg" xmlns:xlink="http://www.w3.org/1999/xlink" xml:space="preserve" xmlns:serif="http://www.serif.com/" style="fill-rule:evenodd;clip-rule:evenodd;stroke-linejoin:round;stroke-miterlimit:2;">
    <g id="Vehicles" transform="matrix(0.976563,0,0,0.942198,2.82451,1.5)">
        <path d="M64,0L119.426,33.167L119.426,99.501L64,132.668L8.574,99.501L8.574,33.167L64,0Z" style="fill:rgb(255,231,185);"/>
        <clipPath id="_clip1">
            <path d="M64,0L119.426,33.167L119.426,99.501L64,132.668L8.574,99.501L8.574,33.167L64,0Z"/>
        </clipPath>
        <g clip-path="url(#_clip1)">
            <g id="NotEnoughIndustrialGoods" transform="matrix(1.83624,0,0,1.90321,4.2988,7.09046)">
                <g transform="matrix(6.14587e-17,1,0.659884,-0.398863,16.2918,14.9791)">
                    <rect x="26.302" y="24.5" width="21.448" height="22.137" style="fill:rgb(118,86,50);"/>
                </g>
                <g transform="matrix(-6.10483e-17,1,-0.659884,-0.398863,48.617,15.4572)">
                    <rect x="26.302" y="24.5" width="21.448" height="22.137" style="fill:rgb(171,128,80);"/>
                </g>
                <g transform="matrix(-6.12323e-17,0.836379,-0.658667,-0.308256,63.1414,8.17864)">
                    <rect x="26.302" y="24.5" width="21.448" height="22.137" style="fill:rgb(118,86,50);"/>
                </g>
                <g transform="matrix(6.12323e-17,0.836379,0.658667,-0.332986,1.70826,9.33294)">
                    <rect x="26.302" y="24.5" width="21.448" height="22.137" style="fill:rgb(171,128,80);"/>
                </g>
                <g transform="matrix(1.0689,0.643709,-0.981262,1.17501,30.3518,-10.3504)">
                    <rect x="9.647" y="23.314" width="13.702" height="5.289" style="fill:rgb(206,168,125);"/>
                </g>
                <g transform="matrix(-1.0659,0.68501,1.01743,1.14856,33.6104,-10.7205)">
                    <rect x="9.647" y="23.314" width="13.702" height="5.289" style="fill:rgb(206,168,125);"/>
                </g>
                <g transform="matrix(1.04052,-0.715772,0.669506,1.11242,-6.46968,19.7896)">
                    <path d="M23.281,8.227C23.281,7.731 22.868,7.329 22.36,7.329C21.851,7.329 21.439,7.731 21.439,8.227L21.439,16.197C21.439,16.692 21.851,17.095 22.36,17.095C22.868,17.095 23.281,16.692 23.281,16.197L23.281,8.227Z" style="fill:rgb(229,99,51);"/>
                </g>
                <g transform="matrix(1.23727,0.00892606,-0.0083491,1.32277,5.02374,-1.06373)">
                    <path d="M23.281,8.19C23.281,7.715 22.868,7.329 22.36,7.329C21.851,7.329 21.439,7.715 21.439,8.19L21.439,16.233C21.439,16.709 21.851,17.095 22.36,17.095C22.868,17.095 23.281,16.709 23.281,16.233L23.281,8.19Z" style="fill:rgb(229,99,51);"/>
                </g>
                <g transform="matrix(1.06974,0.664716,-0.62175,1.14366,23.5653,-11.653)">
                    <path d="M23.281,8.222C23.281,7.729 22.868,7.329 22.36,7.329C21.851,7.329 21.439,7.729 21.439,8.222L21.439,16.202C21.439,16.695 21.851,17.095 22.36,17.095C22.868,17.095 23.281,16.695 23.281,16.202L23.281,8.222Z" style="fill:rgb(229,99,51);"/>
                </g>
            </g>
        </g>
    </g>
</svg>
