<?xml version="1.0" encoding="UTF-8" standalone="no"?>
<!DOCTYPE svg PUBLIC "-//W3C//DTD SVG 1.1//EN" "http://www.w3.org/Graphics/SVG/1.1/DTD/svg11.dtd">
<svg width="100%" height="100%" viewBox="0 0 128 128" version="1.1" xmlns="http://www.w3.org/2000/svg" xmlns:xlink="http://www.w3.org/1999/xlink" xml:space="preserve" xmlns:serif="http://www.serif.com/" style="fill-rule:evenodd;clip-rule:evenodd;stroke-linecap:round;stroke-linejoin:round;stroke-miterlimit:1.5;">
    <g id="While-Building" serif:id="While Building" transform="matrix(0.976563,0,0,0.976563,1.5,1.5)">
        <circle cx="64" cy="64" r="64" style="fill:rgb(255,231,185);"/>
        <clipPath id="_clip1">
            <circle cx="64" cy="64" r="64"/>
        </clipPath>
        <g clip-path="url(#_clip1)">
            <g id="NotOnShoreline" transform="matrix(2.94698,0,0,2.95487,-10.1471,-17.727)">
                <g transform="matrix(0.347474,0,0,0.286766,3.27071,9.87388)">
                    <path d="M67.384,-29.368C57.426,-21.22 44.472,8.978 50.598,24.144C55.674,36.715 71.003,39.16 71.165,61.212C71.314,81.407 46.477,89.992 48.232,109.343C50.04,129.27 60.745,138.757 71.979,153.403" style="fill:none;stroke:rgb(57,194,255);stroke-width:13.07px;"/>
                </g>
                <g transform="matrix(0.768887,0,0,0.768887,14.8449,7.25028)">
                    <g transform="matrix(0.528996,6.01163e-19,0,0.549323,-20.1456,-6.40018)">
                        <path d="M91.964,41.713C91.964,41.24 91.564,40.856 91.071,40.856C90.579,40.856 90.179,41.24 90.179,41.713L90.179,67.384C90.179,67.857 90.579,68.241 91.071,68.241C91.564,68.241 91.964,67.857 91.964,67.384L91.964,41.713Z" style="fill:rgb(204,153,94);"/>
                    </g>
                    <g transform="matrix(0.493428,2.26661e-17,-2.27267e-17,-0.307029,-22.9036,49.055)">
                        <path d="M120.725,64.667L87.64,64.667L95.911,51.085L112.453,51.085L120.725,64.667Z" style="fill:rgb(97,129,156);"/>
                    </g>
                    <g transform="matrix(-0.00513358,0.508837,-0.454758,-0.00456354,52.5512,-28.9028)">
                        <path d="M108.506,34.137L108.506,50.244L88.781,50.244L108.506,34.137Z" style="fill:white;"/>
                    </g>
                    <g transform="matrix(0.00351488,0.348392,0.299679,-0.00300731,11.4777,-10.6751)">
                        <path d="M108.506,34.137L108.506,50.244L88.781,50.244L108.506,34.137Z" style="fill:white;"/>
                    </g>
                </g>
                <g transform="matrix(1,0,0,1,1.73737,0)">
                    <g transform="matrix(0.269775,0,0,0.286938,4.90508,18.0374)">
                        <path d="M8.099,26.432L32.691,5.395L55.951,26.136L50.556,26.169L50.556,51.826L14.852,51.826L14.852,26.39L8.099,26.432Z" style="fill:rgb(214,81,81);"/>
                    </g>
                    <g transform="matrix(0.347474,0,0,0.346547,2.92202,5.47943)">
                        <rect x="26.216" y="59.927" width="10.348" height="10.255" style="fill:white;"/>
                    </g>
                </g>
                <g transform="matrix(0.395555,0,0,0.376252,-0.406461,3.07733)">
                    <path d="M64.635,6.384C95.664,6.384 120.856,32.798 120.856,65.332C120.856,97.865 95.664,124.279 64.635,124.279C33.606,124.279 8.415,97.865 8.415,65.332C8.415,32.798 33.606,6.384 64.635,6.384ZM64.635,14.718C91.277,14.718 112.908,37.397 112.908,65.332C112.908,93.266 91.277,115.945 64.635,115.945C37.993,115.945 16.363,93.266 16.363,65.332C16.363,37.397 37.993,14.718 64.635,14.718Z" style="fill:rgb(255,231,185);"/>
                </g>
            </g>
        </g>
    </g>
</svg>
