<?xml version="1.0" encoding="UTF-8" standalone="no"?>
<!DOCTYPE svg PUBLIC "-//W3C//DTD SVG 1.1//EN" "http://www.w3.org/Graphics/SVG/1.1/DTD/svg11.dtd">
<svg width="100%" height="100%" viewBox="0 0 128 128" version="1.1" xmlns="http://www.w3.org/2000/svg" xmlns:xlink="http://www.w3.org/1999/xlink" xml:space="preserve" xmlns:serif="http://www.serif.com/" style="fill-rule:evenodd;clip-rule:evenodd;stroke-linejoin:round;stroke-miterlimit:2;">
    <g id="Event" transform="matrix(0.976563,0,0,0.976563,1.5,1.5)">
        <path d="M64,0L128,64L64,128L0,64L64,0Z" style="fill:rgb(255,231,185);"/>
        <clipPath id="_clip1">
            <path d="M64,0L128,64L64,128L0,64L64,0Z"/>
        </clipPath>
        <g clip-path="url(#_clip1)">
            <g id="Train" transform="matrix(1.57928,0,0,1.57928,13.463,13.26)">
                <g transform="matrix(0.515521,0,0,0.398221,-1.06472,8.94101)">
                    <path d="M81.309,98.008L79.883,95.295C79.539,94.64 79.791,93.829 80.446,93.485L82.819,92.238C83.474,91.894 84.285,92.146 84.629,92.801L95.687,113.64C96.031,114.295 96.977,115.622 96.322,115.966L92.36,116.126C91.335,116.13 90.863,116.187 90.519,115.532L89.233,113.085L39.395,113.072C39.283,113.072 39.175,113.059 39.071,113.035L37.758,115.532C37.414,116.187 36.942,116.13 35.917,116.126L31.955,115.966C31.3,115.622 32.246,114.295 32.59,113.64L43.648,92.801C43.992,92.146 44.803,91.894 45.458,92.238L47.831,93.485C48.486,93.829 48.738,94.64 48.394,95.295L46.973,97.999L81.309,98.008ZM42.023,107.417L86.26,107.428L84.127,103.37L44.155,103.36L42.023,107.417Z" style="fill:rgb(83,83,83);"/>
                </g>
                <g transform="matrix(0.727819,0,0,0.198232,6.63676,2.71326)">
                    <path d="M49.174,42.844L20.776,42.844C20.776,42.844 20.677,41.299 20.776,38.987C21.057,32.425 21.902,19.685 23.119,18.556C24.608,17.173 44.9,17.263 46.832,18.556C48.192,19.466 48.941,32.77 49.174,39.292C49.251,41.434 49.174,42.844 49.174,42.844Z" style="fill:rgb(129,155,173);"/>
                </g>
                <g transform="matrix(0.93841,0,0,5.33218,1.97658,-230.077)">
                    <path d="M49.174,46.224C49.174,45.39 45.327,44.713 40.587,44.713L23.413,44.713C18.673,44.713 14.826,45.39 14.826,46.224L14.826,50.575C14.826,51.409 18.673,52.086 23.413,52.086L40.587,52.086C45.327,52.086 49.174,51.409 49.174,50.575L49.174,46.224Z" style="fill:rgb(57,194,255);"/>
                </g>
                <g transform="matrix(0.736746,0,0,3.0332,8.2719,-124.416)">
                    <path d="M49.174,46.556C49.174,45.539 45.774,44.713 41.585,44.713L22.415,44.713C18.226,44.713 14.826,45.539 14.826,46.556L14.826,50.243C14.826,51.26 18.226,52.086 22.415,52.086L41.585,52.086C45.774,52.086 49.174,51.26 49.174,50.243L49.174,46.556Z" style="fill:rgb(240,247,252);"/>
                </g>
                <g transform="matrix(0.5,0,0,0.5,-0.455673,0.264157)">
                    <circle cx="83.675" cy="83.372" r="5.004" style="fill:rgb(249,234,183);"/>
                </g>
                <g transform="matrix(0.5,0,0,0.5,-18.7046,0.264157)">
                    <circle cx="83.675" cy="83.372" r="5.004" style="fill:rgb(249,234,183);"/>
                </g>
            </g>
            <g id="No-access" serif:id="No access" transform="matrix(2.05193,0,0,1.82113,-3.65066,5.87759)">
                <g transform="matrix(1.0274,0,0,1.45133,-0.748329,-14.6782)">
                    <rect x="11.212" y="28.837" width="43.491" height="6.754" style="fill:rgb(70,57,35);"/>
                </g>
                <g transform="matrix(1.0274,0,0,1.45133,-0.748329,-14.6782)">
                    <path d="M21.773,35.591L15.939,35.591L21.521,28.837L27.354,28.837L21.773,35.591ZM32.907,35.591L27.419,35.591L33,28.837L38.488,28.837L32.907,35.591ZM44.041,35.591L38.553,35.591L44.134,28.837L49.622,28.837L44.041,35.591ZM54.703,35.591L49.686,35.591L54.703,29.52L54.703,35.591ZM15.875,28.837L11.212,34.48L11.212,28.837L15.875,28.837Z" style="fill:rgb(255,156,0);"/>
                </g>
            </g>
        </g>
    </g>
</svg>
