<?xml version="1.0" encoding="UTF-8" standalone="no"?>
<!DOCTYPE svg PUBLIC "-//W3C//DTD SVG 1.1//EN" "http://www.w3.org/Graphics/SVG/1.1/DTD/svg11.dtd">
<svg width="100%" height="100%" viewBox="0 0 128 128" version="1.1" xmlns="http://www.w3.org/2000/svg" xmlns:xlink="http://www.w3.org/1999/xlink" xml:space="preserve" xmlns:serif="http://www.serif.com/" style="fill-rule:evenodd;clip-rule:evenodd;stroke-linejoin:round;stroke-miterlimit:2;">
    <g id="Vehicles" transform="matrix(0.976563,0,0,0.942198,1.5,1.5)">
        <path d="M64,0L119.426,33.167L119.426,99.501L64,132.668L8.574,99.501L8.574,33.167L64,0Z" style="fill:rgb(255,184,14);"/>
        <clipPath id="_clip1">
            <path d="M64,0L119.426,33.167L119.426,99.501L64,132.668L8.574,99.501L8.574,33.167L64,0Z"/>
        </clipPath>
        <g clip-path="url(#_clip1)">
            <g id="no-vehicles" serif:id="no vehicles" transform="matrix(0.911062,0,0,0.94429,5.69546,10.5275)">
                <path d="M33.503,33.73L32.858,33.725C27.063,33.849 22.901,35.951 19.97,38.864L21,38L114.325,37.866L114.317,58.303L31.534,57.584C30.876,57.594 29.254,57.94 28.152,58.521C24.171,60.621 15.076,66.149 13.61,67.013L13.591,76.878C13.742,79.992 13.796,80.111 18.151,79.972L110.863,80.591C114.351,80.553 114.175,80.489 114.289,73.435L114.383,37.855C114.477,34.062 114.574,34.239 109.616,34.325L63.725,33.967C62.956,33.171 60.782,31 60,31L38,31C37.286,31 34.748,32.81 33.503,33.73Z" style="fill:rgb(57,194,255);"/>
                <path d="M13.589,76.671L13.589,78.876C13.67,79.553 14.023,79.899 15.366,79.964C15.6,79.976 15.949,79.998 16.353,80.008L110.91,80.591C114.398,80.553 114.175,80.489 114.289,73.435L114.309,65.715L32.831,65.205C32.173,65.215 30.71,65.245 29.342,66.106C25.959,68.236 20.73,71.521 18.703,72.833C18.41,73.022 17.934,73.21 17.632,73.263C17.249,73.33 13.597,73.711 13.597,73.711C13.608,74.326 13.598,75.724 13.589,76.671Z" style="fill:rgb(57,194,255);"/>
                <path d="M13.584,77.626L13.584,78.724C13.597,79.006 13.63,79.192 13.709,79.317C13.841,79.526 13.963,79.69 14.496,79.853C14.891,79.974 15.504,79.997 15.988,80.002C32.253,80.189 111.596,80.58 111.596,80.58C111.596,80.58 112.999,80.616 113.505,80.163C113.625,80.055 113.882,79.814 114,79.337C114.212,78.483 114.256,77.238 114.256,77.238L13.584,77.626Z" style="fill:rgb(44,132,160);"/>
                <path d="M18.18,40.999L18.71,40.279C18.71,40.279 19.626,39.237 20.003,38.864C20.348,38.522 20.933,38.004 20.933,38.004L114.358,37.866L114.328,58.647L31.666,58.313C30.399,58.402 28.885,58.949 27.783,59.53C23.802,61.63 15.075,66.678 13.609,67.542L13.648,64.226L13.666,63.651L30.018,54.634C30.572,54.323 30.712,53.686 30.713,53.284C30.714,52.497 30.741,41.884 30.741,41.884C30.72,41.301 30.486,41.051 29.997,40.924L18.18,40.999Z" style="fill:rgb(44,132,160);"/>
                <g transform="matrix(0.5534,0,0,1.27197,17.2409,-9.02338)">
                    <path d="M41.603,32.23C41.603,32.056 41.277,31.914 40.877,31.914L39.118,31.914C38.717,31.914 38.392,32.056 38.392,32.23L38.392,32.862C38.392,33.036 38.717,33.178 39.118,33.178L40.877,33.178C41.277,33.178 41.603,33.036 41.603,32.862L41.603,32.23Z" style="fill:rgb(44,132,160);"/>
                </g>
                <g transform="matrix(0.5534,0,0,1.27197,19.757,-9.02338)">
                    <path d="M41.603,32.23C41.603,32.056 41.277,31.914 40.877,31.914L39.118,31.914C38.717,31.914 38.392,32.056 38.392,32.23L38.392,32.862C38.392,33.036 38.717,33.178 39.118,33.178L40.877,33.178C41.277,33.178 41.603,33.036 41.603,32.862L41.603,32.23Z" style="fill:rgb(44,132,160);"/>
                </g>
                <g transform="matrix(1.01999,0,0,1.14787,2.06007,-4.90618)">
                    <path d="M44.575,32.128C44.575,31.934 44.398,31.777 44.181,31.777L41.04,31.777C40.823,31.777 40.646,31.934 40.646,32.128L40.646,32.828C40.646,33.021 40.823,33.178 41.04,33.178L44.181,33.178C44.398,33.178 44.575,33.021 44.575,32.828L44.575,32.128Z" style="fill:rgb(44,132,160);"/>
                </g>
                <g transform="matrix(1,0,0,1,-2.92509,7.10543e-15)">
                    <path d="M21.845,40.005C21.852,39.997 32.729,39.928 32.729,39.928C33.218,40.055 33.646,40.228 33.667,40.81C33.667,40.81 33.559,53.758 33.557,54.545C33.556,54.947 33.416,55.583 32.862,55.895L16.539,64.971C16.673,57.506 17.158,50.767 17.981,47.006C18.677,43.826 21.596,40.288 21.845,40.005Z" style="fill:rgb(240,247,252);"/>
                </g>
                <g transform="matrix(0.306546,0,0,1.14866,51.8755,-5.44446)">
                    <path d="M107.752,40.247C107.752,39.862 106.579,39.549 105.134,39.549L34.079,39.549C32.634,39.549 31.461,39.862 31.461,40.247L31.461,52.821C31.461,53.207 32.634,53.52 34.079,53.52L105.134,53.52C106.579,53.52 107.752,53.207 107.752,52.821L107.752,40.247Z" style="fill:rgb(240,247,252);"/>
                </g>
                <g transform="matrix(0.306546,0,0,1.14866,24.8939,-5.44446)">
                    <path d="M107.752,40.247C107.752,39.862 106.579,39.549 105.134,39.549L34.079,39.549C32.634,39.549 31.461,39.862 31.461,40.247L31.461,52.821C31.461,53.207 32.634,53.52 34.079,53.52L105.134,53.52C106.579,53.52 107.752,53.207 107.752,52.821L107.752,40.247Z" style="fill:rgb(240,247,252);"/>
                </g>
                <g transform="matrix(0.306546,0,0,1.14866,78.8572,-5.44446)">
                    <path d="M107.752,40.247C107.752,39.862 106.579,39.549 105.134,39.549L34.079,39.549C32.634,39.549 31.461,39.862 31.461,40.247L31.461,52.821C31.461,53.207 32.634,53.52 34.079,53.52L105.134,53.52C106.579,53.52 107.752,53.207 107.752,52.821L107.752,40.247Z" style="fill:rgb(240,247,252);"/>
                </g>
                <g transform="matrix(1,0,0,1,-5.59938,-2.94332)">
                    <circle cx="37.223" cy="81.312" r="8.83" style="fill:rgb(72,72,72);"/>
                </g>
                <g transform="matrix(1,0,0,1,51.1537,-2.94332)">
                    <circle cx="37.223" cy="81.312" r="8.83" style="fill:rgb(72,72,72);"/>
                </g>
                <g transform="matrix(0.845297,0,0,0.845297,4.75664,12.0925)">
                    <circle cx="31.762" cy="78.531" r="5.073" style="fill:rgb(128,128,128);"/>
                </g>
                <g transform="matrix(0.845297,0,0,0.845297,61.8209,12.0925)">
                    <circle cx="31.762" cy="78.531" r="5.073" style="fill:rgb(128,128,128);"/>
                </g>
                <g transform="matrix(1.29385,0,0,1.17998,-1.72584,-13.3167)">
                    <path d="M15.154,70.004C15.154,69.548 14.784,69.178 14.328,69.178L11.85,69.205L11.84,74.406L14.328,74.402C14.784,74.402 15.154,74.032 15.154,73.576L15.154,70.004Z" style="fill:rgb(254,233,127);"/>
                </g>
                <g transform="matrix(2.06137,0,0,0.815923,83.9115,14.739)">
                    <path d="M14.722,74.447C14.738,72.562 14.745,70.988 14.739,69.148C14.739,69.148 12.687,69.159 12.197,69.182C12.057,69.188 11.872,69.541 11.872,69.943C11.872,71.485 11.879,72.194 11.887,73.47C11.891,74.206 12.063,74.394 12.277,74.421C12.817,74.489 14.732,74.427 14.722,74.447Z" style="fill:rgb(229,99,51);"/>
                </g>
            </g>
        </g>
    </g>
</svg>
