<?xml version="1.0" encoding="UTF-8" standalone="no"?>
<!DOCTYPE svg PUBLIC "-//W3C//DTD SVG 1.1//EN" "http://www.w3.org/Graphics/SVG/1.1/DTD/svg11.dtd">
<svg width="100%" height="100%" viewBox="0 0 128 128" version="1.1" xmlns="http://www.w3.org/2000/svg" xmlns:xlink="http://www.w3.org/1999/xlink" xml:space="preserve" xmlns:serif="http://www.serif.com/" style="fill-rule:evenodd;clip-rule:evenodd;stroke-linejoin:round;stroke-miterlimit:2;">
    <g id="Event" transform="matrix(0.976563,0,0,0.976563,1.5,1.5)">
        <path d="M64,0L128,64L64,128L0,64L64,0Z" style="fill:rgb(255,231,185);"/>
    </g>
    <g id="Event1" serif:id="Event" transform="matrix(0.976563,0,0,0.976563,1.5,1.5)">
        <path d="M64,0L128,64L64,128L0,64L64,0Z" style="fill:rgb(229,99,51);"/>
        <clipPath id="_clip1">
            <path d="M64,0L128,64L64,128L0,64L64,0Z"/>
        </clipPath>
        <g clip-path="url(#_clip1)">
            <g id="OutOffCapacityElectricity" transform="matrix(0.766292,0,0,0.766292,14.9573,12.1006)">
                <rect x="27.748" y="48.127" width="70.961" height="35.812" style="fill:rgb(247,246,241);"/>
                <path d="M65.517,30.735C92.421,31.517 114.015,53.004 114.015,79.357C114.015,80.903 113.941,82.433 113.795,83.94L88.563,83.94C88.855,82.455 89.008,80.923 89.008,79.357C89.008,66.149 78.16,55.387 64.666,55.043C64.91,46.435 65.201,37.802 65.517,30.735Z" style="fill:rgb(186,33,2);"/>
                <path d="M63.028,30.722C63.139,37.854 63.271,46.47 63.401,55.042C49.875,55.352 38.992,66.128 38.992,79.357C38.992,80.923 39.145,82.455 39.437,83.94L14.205,83.94C14.059,82.433 13.985,80.903 13.985,79.357C13.985,52.826 35.87,31.228 63.028,30.722Z" style="fill:rgb(73,190,18);"/>
                <path d="M77.74,59.037C73.796,56.508 69.074,55.035 64,55.035C58.583,55.035 53.565,56.714 49.467,59.567L36.894,38.479C44.705,33.566 54.013,30.713 64,30.713C73.926,30.713 83.181,33.532 90.963,38.39L77.74,59.037Z" style="fill:rgb(255,202,1);"/>
                <g transform="matrix(0.367452,0.717642,-1.33375,0.682918,166.387,-28.9645)">
                    <path d="M62.786,64L68.391,93.458L57.181,93.458L62.786,64Z" style="fill:rgb(77,77,77);"/>
                </g>
                <g transform="matrix(1,0,0,1,0.26275,13.6226)">
                    <path d="M9.944,69.153C9.915,68.439 9.9,67.719 9.9,66.995C9.9,37.613 34.024,13.759 63.737,13.759C93.451,13.759 117.574,37.613 117.574,66.995C117.574,67.589 117.564,68.182 117.545,68.77L117.545,73.893L9.944,73.893L9.944,69.153ZM71.987,67.712L111.006,67.712C111.009,67.473 111.011,67.234 111.011,66.995C111.011,41.195 89.828,20.249 63.737,20.249C37.646,20.249 16.463,41.195 16.463,66.995C16.463,67.234 16.465,67.473 16.469,67.712L56.013,67.712C56.267,63.621 59.749,60.374 64,60.374C68.251,60.374 71.733,63.621 71.987,67.712Z" style="fill:rgb(77,77,77);"/>
                </g>
            </g>
        </g>
    </g>
</svg>
