<?xml version="1.0" encoding="UTF-8" standalone="no"?>
<!DOCTYPE svg PUBLIC "-//W3C//DTD SVG 1.1//EN" "http://www.w3.org/Graphics/SVG/1.1/DTD/svg11.dtd">
<svg width="100%" height="100%" viewBox="0 0 128 128" version="1.1" xmlns="http://www.w3.org/2000/svg" xmlns:xlink="http://www.w3.org/1999/xlink" xml:space="preserve" xmlns:serif="http://www.serif.com/" style="fill-rule:evenodd;clip-rule:evenodd;stroke-linejoin:round;stroke-miterlimit:2;">
    <g id="Event" transform="matrix(0.976563,0,0,0.976563,1.5,1.5)">
        <path d="M64,0L128,64L64,128L0,64L64,0Z" style="fill:rgb(255,184,14);"/>
        <clipPath id="_clip1">
            <path d="M64,0L128,64L64,128L0,64L64,0Z"/>
        </clipPath>
        <g clip-path="url(#_clip1)">
            <g id="Pathfind-failed" serif:id="Pathfind failed" transform="matrix(1.07669,0,0,1.07669,28.6992,28.8597)">
                <g id="Ellipse_462" transform="matrix(0.75471,0.656059,-0.656059,0.75471,35.6694,4.10539)">
                    <ellipse cx="4" cy="4.5" rx="4" ry="4.5" style="fill:rgb(97,129,156);stroke:rgb(97,129,156);stroke-width:5.71px;"/>
                </g>
                <g id="Ellipse_465" transform="matrix(0.922033,0.532295,-0.469462,0.813194,26.8599,49.5918)">
                    <ellipse cx="4" cy="4.5" rx="4" ry="4.5" style="fill:rgb(97,129,156);stroke:rgb(97,129,156);stroke-width:5.68px;"/>
                </g>
                <g transform="matrix(1.19348,0,0,1.19348,-5.65506,-5.80531)">
                    <path d="M10.525,26.543L12.839,27.725C10.813,30.483 9.541,32.338 8.785,33.855C7.825,35.782 8.46,38.908 10.295,40.033C15.079,42.967 32.646,52.121 33.904,52.372C35.841,52.758 38.199,52.123 39.236,50.653C40.396,49.009 41.805,47.198 44.044,44.11L46.532,45.381C43.747,49.212 41.816,51.775 40.501,53.684C38.935,55.958 36.017,56.163 34.805,55.777C32.158,54.935 12.415,45.841 7.713,41.976C5.274,39.972 4.504,36.495 5.862,33.644C6.721,31.841 8.233,29.643 10.525,26.543ZM33.739,14.432C34.076,14.441 35.25,11.865 35.25,11.865C35.25,11.865 51.222,19.248 55.662,21.872C57.561,22.995 59.284,26.933 56.946,30.602C56.076,31.967 55.103,33.343 53.452,35.665L50.876,34.349C52.354,32.166 53.144,30.886 53.827,29.546C54.827,27.581 54.207,24.498 52.308,23.42C48.324,21.157 35.376,15.273 35.361,15.259L33.739,14.432ZM17.846,17.085C20.174,14.16 21.444,12.548 22.446,11.301C23.776,9.645 27.233,8.836 29.994,9.458C32.217,9.958 35.25,11.865 35.25,11.865L33.739,14.432C33.739,14.432 31.693,13.154 29.749,12.6C27.487,11.955 25.027,12.604 23.792,13.931C22.899,14.889 22.036,15.944 20.162,18.269L17.846,17.085Z" style="fill:rgb(97,129,156);"/>
                    <path d="M10.836,25.935C10.539,25.783 10.175,25.868 9.976,26.137C7.649,29.284 6.118,31.52 5.245,33.351C3.754,36.482 4.599,40.301 7.279,42.504C12.021,46.402 31.928,55.578 34.598,56.428C35.972,56.866 39.287,56.65 41.064,54.071C42.376,52.166 44.304,49.607 47.084,45.783C47.202,45.621 47.243,45.416 47.196,45.222C47.15,45.028 47.021,44.864 46.843,44.773L44.355,43.502C44.055,43.348 43.689,43.436 43.491,43.709C41.249,46.8 39.84,48.614 38.678,50.26C37.779,51.535 35.718,52.037 34.037,51.702C33.802,51.655 32.962,51.26 31.723,50.659C26.443,48.101 14.468,41.791 10.653,39.451C9.881,38.978 9.383,38.07 9.158,37.091C8.926,36.086 8.982,34.993 9.397,34.16C10.14,32.667 11.396,30.843 13.389,28.13C13.508,27.968 13.55,27.763 13.504,27.568C13.458,27.373 13.328,27.208 13.15,27.117L10.836,25.935ZM10.525,26.543L12.839,27.725C10.813,30.483 9.541,32.338 8.785,33.855C7.825,35.782 8.46,38.908 10.295,40.033C15.079,42.967 32.646,52.121 33.904,52.372C35.841,52.758 38.199,52.123 39.236,50.653C40.396,49.009 41.805,47.198 44.044,44.11L46.532,45.381C43.747,49.212 41.816,51.775 40.501,53.684C38.935,55.958 36.017,56.163 34.805,55.777C32.158,54.935 12.415,45.841 7.713,41.976C5.274,39.972 4.504,36.495 5.862,33.644C6.721,31.841 8.233,29.643 10.525,26.543ZM33.377,15.011L33.429,15.04L35.051,15.867L34.878,15.742C34.881,15.744 35.069,15.877 35.447,16.051C37.584,17.031 48.396,21.984 51.971,24.014C52.763,24.463 53.266,25.345 53.489,26.305C53.72,27.298 53.65,28.388 53.218,29.236C52.546,30.556 51.766,31.816 50.311,33.966C50.201,34.128 50.166,34.329 50.215,34.519C50.264,34.708 50.391,34.868 50.566,34.957L53.142,36.273C53.443,36.427 53.813,36.337 54.009,36.061C55.669,33.726 56.647,32.342 57.522,30.969C60.119,26.893 58.119,22.532 56.009,21.284C51.68,18.725 36.415,11.652 35.573,11.262C35.198,11.031 32.302,9.277 30.144,8.791C28.367,8.391 26.321,8.542 24.66,9.111C23.493,9.512 22.515,10.123 21.913,10.873C20.911,12.121 19.64,13.734 17.312,16.66C17.184,16.82 17.135,17.029 17.179,17.23C17.222,17.43 17.353,17.6 17.535,17.693L19.852,18.877C20.14,19.024 20.491,18.949 20.694,18.697C22.552,16.392 23.407,15.346 24.291,14.396C25.383,13.224 27.563,12.687 29.562,13.257C31.4,13.781 33.332,14.983 33.377,15.011ZM33.739,14.432C34.076,14.441 35.25,11.865 35.25,11.865C35.25,11.865 51.222,19.248 55.662,21.872C57.561,22.995 59.284,26.933 56.946,30.602C56.076,31.967 55.103,33.343 53.452,35.665L50.876,34.349C52.354,32.166 53.144,30.886 53.827,29.546C54.827,27.581 54.207,24.498 52.308,23.42C48.324,21.157 35.376,15.273 35.361,15.259L33.739,14.432ZM17.846,17.085C20.174,14.16 21.444,12.548 22.446,11.301C23.776,9.645 27.233,8.836 29.994,9.458C32.217,9.958 35.25,11.865 35.25,11.865L33.739,14.432C33.739,14.432 31.693,13.154 29.749,12.6C27.487,11.955 25.027,12.604 23.792,13.931C22.899,14.889 22.036,15.944 20.162,18.269L17.846,17.085Z" style="fill:rgb(97,129,156);"/>
                </g>
                <g transform="matrix(1.44414,-2.21415,1.50231,0.979852,-61.1984,34.9053)">
                    <path d="M20.498,22.92C20.498,22.33 20.173,21.85 19.773,21.85C19.372,21.85 19.047,22.33 19.047,22.92L19.047,26.417C19.047,27.007 19.372,27.487 19.773,27.487C20.173,27.487 20.498,27.007 20.498,26.417L20.498,22.92Z" style="fill:rgb(229,99,51);"/>
                    <path d="M20.498,22.92C20.498,22.33 20.173,21.85 19.773,21.85C19.372,21.85 19.047,22.33 19.047,22.92L19.047,26.417C19.047,27.007 19.372,27.487 19.773,27.487C20.173,27.487 20.498,27.007 20.498,26.417L20.498,22.92Z" style="fill:rgb(229,99,51);"/>
                </g>
                <g transform="matrix(2.68226,-0.505683,0.316232,1.67737,-49.3692,-20.7834)">
                    <path d="M20.498,23.011C20.498,22.37 20.173,21.85 19.773,21.85C19.372,21.85 19.047,22.37 19.047,23.011L19.047,26.326C19.047,26.967 19.372,27.487 19.773,27.487C20.173,27.487 20.498,26.967 20.498,26.326L20.498,23.011Z" style="fill:rgb(229,99,51);"/>
                </g>
                <g transform="matrix(-0.453909,-2.61161,1.88146,-0.327006,-35.168,82.8007)">
                    <path d="M20.498,22.858C20.498,22.302 20.173,21.85 19.773,21.85C19.372,21.85 19.047,22.302 19.047,22.858L19.047,26.479C19.047,27.035 19.372,27.487 19.773,27.487C20.173,27.487 20.498,27.035 20.498,26.479L20.498,22.858Z" style="fill:rgb(229,99,51);"/>
                </g>
                <g transform="matrix(-1.44414,2.21415,-1.50231,-0.979852,126.617,28.3039)">
                    <path d="M20.498,22.92C20.498,22.33 20.173,21.85 19.773,21.85C19.372,21.85 19.047,22.33 19.047,22.92L19.047,26.417C19.047,27.007 19.372,27.487 19.773,27.487C20.173,27.487 20.498,27.007 20.498,26.417L20.498,22.92Z" style="fill:rgb(229,99,51);"/>
                    <path d="M20.498,22.92C20.498,22.33 20.173,21.85 19.773,21.85C19.372,21.85 19.047,22.33 19.047,22.92L19.047,26.417C19.047,27.007 19.372,27.487 19.773,27.487C20.173,27.487 20.498,27.007 20.498,26.417L20.498,22.92Z" style="fill:rgb(229,99,51);"/>
                </g>
                <g transform="matrix(-2.68226,0.505683,-0.316232,-1.67737,114.788,83.9926)">
                    <path d="M20.498,23.011C20.498,22.37 20.173,21.85 19.773,21.85C19.372,21.85 19.047,22.37 19.047,23.011L19.047,26.326C19.047,26.967 19.372,27.487 19.773,27.487C20.173,27.487 20.498,26.967 20.498,26.326L20.498,23.011Z" style="fill:rgb(229,99,51);"/>
                </g>
                <g transform="matrix(0.453909,2.61161,-1.88146,0.327006,100.587,-19.5915)">
                    <path d="M20.498,22.858C20.498,22.302 20.173,21.85 19.773,21.85C19.372,21.85 19.047,22.302 19.047,22.858L19.047,26.479C19.047,27.035 19.372,27.487 19.773,27.487C20.173,27.487 20.498,27.035 20.498,26.479L20.498,22.858Z" style="fill:rgb(229,99,51);"/>
                </g>
            </g>
        </g>
    </g>
</svg>
