<?xml version="1.0" encoding="UTF-8" standalone="no"?>
<!DOCTYPE svg PUBLIC "-//W3C//DTD SVG 1.1//EN" "http://www.w3.org/Graphics/SVG/1.1/DTD/svg11.dtd">
<svg width="100%" height="100%" viewBox="0 0 128 128" version="1.1" xmlns="http://www.w3.org/2000/svg" xmlns:xlink="http://www.w3.org/1999/xlink" xml:space="preserve" xmlns:serif="http://www.serif.com/" style="fill-rule:evenodd;clip-rule:evenodd;stroke-linejoin:round;stroke-miterlimit:2;">
    <g id="Event" transform="matrix(0.976563,0,0,0.976563,1.5,1.5)">
        <path d="M64,0L128,64L64,128L0,64L64,0Z" style="fill:rgb(255,184,14);"/>
        <clipPath id="_clip1">
            <path d="M64,0L128,64L64,128L0,64L64,0Z"/>
        </clipPath>
        <g clip-path="url(#_clip1)">
            <g id="PowerlineDisconnected" transform="matrix(1.43362,0,0,1.43362,16.6905,19.9131)">
                <g transform="matrix(1,0,0,1,-2007.01,496)">
                    <path d="M2025,-442.293C2025,-438.209 2032.89,-434.043 2040.47,-434.043C2048.04,-434.043 2055.29,-438.209 2055.29,-442.293C2055.29,-446.377 2048.04,-449.066 2040.47,-449.066C2032.89,-449.066 2025,-446.377 2025,-442.293Z" style="fill:rgb(63,63,63);fill-rule:nonzero;"/>
                </g>
                <g transform="matrix(1,0,0,1,-1824,494)">
                    <path d="M1850.01,-439.714L1851.46,-440.435L1853.43,-461.909L1852.03,-482.401L1851.23,-481.339L1852.41,-461.148" style="fill:rgb(76,76,76);fill-rule:nonzero;"/>
                </g>
                <g transform="matrix(1,0,0,1,40,36)">
                    <path d="M2,0.714C2,0.32 1.68,0 1.286,0L0.714,0C0.32,0 0,0.32 0,0.714L0,3.286C0,3.68 0.32,4 0.714,4L1.286,4C1.68,4 2,3.68 2,3.286L2,0.714Z" style="fill:rgb(197,109,42);"/>
                </g>
                <g transform="matrix(1,0,0,1,44,31)">
                    <path d="M2,0.714C2,0.32 1.68,0 1.286,0L0.714,0C0.32,0 0,0.32 0,0.714L0,3.286C0,3.68 0.32,4 0.714,4L1.286,4C1.68,4 2,3.68 2,3.286L2,0.714Z" style="fill:rgb(197,109,42);"/>
                </g>
                <g transform="matrix(1,0,0,1,49,25)">
                    <path d="M2,0.714C2,0.32 1.68,0 1.286,0L0.714,0C0.32,0 0,0.32 0,0.714L0,3.286C0,3.68 0.32,4 0.714,4L1.286,4C1.68,4 2,3.68 2,3.286L2,0.714Z" style="fill:rgb(197,109,42);"/>
                </g>
                <g transform="matrix(1,0,0,1,15,7)">
                    <path d="M2,0.714C2,0.32 1.68,0 1.286,0L0.714,0C0.32,0 0,0.32 0,0.714L0,3.286C0,3.68 0.32,4 0.714,4L1.286,4C1.68,4 2,3.68 2,3.286L2,0.714Z" style="fill:rgb(169,90,30);"/>
                </g>
                <g transform="matrix(1,0,0,1,19,17)">
                    <path d="M2,0.714C2,0.32 1.68,0 1.286,0L0.714,0C0.32,0 0,0.32 0,0.714L0,3.286C0,3.68 0.32,4 0.714,4L1.286,4C1.68,4 2,3.68 2,3.286L2,0.714Z" style="fill:rgb(169,90,30);"/>
                </g>
                <g transform="matrix(1,0,0,1,22,26)">
                    <path d="M2,0.714C2,0.32 1.68,0 1.286,0L0.714,0C0.32,0 0,0.32 0,0.714L0,3.286C0,3.68 0.32,4 0.714,4L1.286,4C1.68,4 2,3.68 2,3.286L2,0.714Z" style="fill:rgb(169,90,30);"/>
                </g>
                <g transform="matrix(1,0,0,1,25.079,4.815)">
                    <path d="M8.775,54.985L7.421,53.631L6.4,10.562L2.3,8.507L3.523,27.651L0.96,49.474L0,48.2L2.3,27.651L0.96,7.037L6.171,0.844L7.421,0L12.672,6.269L13.565,30.78L16.58,46.91L15.169,48.2L12.029,31.946L11.4,7.681L8.324,10.562L9.984,53.631L8.776,54.984L8.775,54.985ZM5.568,3.514L2.812,7.355L6.278,9.149L5.568,3.513L5.568,3.514ZM7.555,2.5L8.007,8.644L11.012,6.532L7.555,2.5Z" style="fill:rgb(116,115,115);fill-rule:nonzero;"/>
                </g>
                <g transform="matrix(1,0,0,1,15.161,6.802)">
                    <path d="M35.072,19.193L16.572,12.924L12.8,11L0,0L15.679,1.085L22.85,4.992L35.716,18.559L35.073,19.192L35.072,19.193ZM4.351,2.429L12.933,9.729L18.118,12.475L29.889,16.258L17.715,9.32L11.015,5.82L4.351,2.429ZM4.171,1.44L11.653,4.831L17.977,7.716L30.57,15.188L21.253,5.188L14.59,1.86L4.171,1.44Z" style="fill:rgb(116,115,115);fill-rule:nonzero;"/>
                </g>
                <g transform="matrix(1,0,0,1,19.161,16.802)">
                    <path d="M26.234,15.192L12.4,10.229L9.573,8.709L0,0L11.728,0.859L17.092,3.952L26.716,14.691L26.235,15.191L26.234,15.192ZM3.254,1.922L9.673,7.7L13.551,9.874L22.351,12.868L13.022,7.5L8.471,4.739L3.254,1.922ZM3.12,1.14L8.135,3.55L13.694,6.643L22.867,12.021L15.9,4.109L10.913,1.473L3.12,1.14Z" style="fill:rgb(116,115,115);fill-rule:nonzero;"/>
                </g>
                <g transform="matrix(1,0,0,1,22.161,25.802)">
                    <path d="M19.361,11.192L9.148,7.537L7.065,6.416L0,0L8.655,0.633L12.613,2.912L19.713,10.823L19.359,11.192L19.361,11.192ZM2.4,1.417L7.139,5.672L10,7.273L16.5,9.479L9.6,5.672L6.144,3.682L2.4,1.417ZM2.3,0.84L6.191,3.027L9.933,5.141L16.876,8.858L11.732,3.027L8.054,1.085L2.3,0.84Z" style="fill:rgb(116,115,115);fill-rule:nonzero;"/>
                </g>
                <g transform="matrix(1,0,0,1,26.19,40.323)">
                    <path d="M7.346,8.862L0,4.2L7.346,0L13.634,4.2L7.346,8.862ZM7.118,1.324L2.005,4.164L6.778,7.158L11.4,4.164L7.118,1.324Z" style="fill:rgb(116,115,115);fill-rule:nonzero;"/>
                </g>
                <g transform="matrix(1,0,0,1,27.19,32.323)">
                    <path d="M6.268,7.862L0,3.73L6.268,0L11.634,3.73L6.269,7.862L6.268,7.862ZM6.074,1.175L1.711,3.694L5.784,6.35L9.724,3.694L6.074,1.175Z" style="fill:rgb(116,115,115);fill-rule:nonzero;"/>
                </g>
                <g transform="matrix(1,0,0,1,-1824,494)">
                    <path d="M1855.3,-488.41L1856.23,-478.447L1855.47,-478.791L1854.82,-484.912L1853.8,-485.326L1851.09,-481.621L1850.01,-482.209" style="fill:rgb(140,138,138);fill-rule:nonzero;"/>
                </g>
            </g>
        </g>
    </g>
</svg>
