<?xml version="1.0" encoding="UTF-8" standalone="no"?>
<!DOCTYPE svg PUBLIC "-//W3C//DTD SVG 1.1//EN" "http://www.w3.org/Graphics/SVG/1.1/DTD/svg11.dtd">
<svg width="100%" height="100%" viewBox="0 0 128 128" version="1.1" xmlns="http://www.w3.org/2000/svg" xmlns:xlink="http://www.w3.org/1999/xlink" xml:space="preserve" xmlns:serif="http://www.serif.com/" style="fill-rule:evenodd;clip-rule:evenodd;stroke-linejoin:round;stroke-miterlimit:2;">
    <g id="Event" transform="matrix(0.976563,0,0,0.976563,1.5,1.5)">
        <path d="M64,0L128,64L64,128L0,64L64,0Z" style="fill:rgb(255,184,14);"/>
        <clipPath id="_clip1">
            <path d="M64,0L128,64L64,128L0,64L64,0Z"/>
        </clipPath>
        <g clip-path="url(#_clip1)">
            <g id="PowerlineDisconnectedLow" transform="matrix(1.67184,0,0,1.67184,11.18,9.66531)">
                <g transform="matrix(1,0,0,1,22,45)">
                    <ellipse cx="9.5" cy="6" rx="9.5" ry="6" style="fill:rgb(63,63,63);"/>
                </g>
                <g transform="matrix(1,0,0,1,28,8)">
                    <path d="M4,0C6.209,0 8.031,2.315 8.031,2.315L8,40C8,42.194 6.194,44 4,44C1.806,44 0,42.194 0,40L0.047,2.49C0.047,2.49 1.791,0 4,0Z" style="fill:rgb(129,111,87);fill-rule:nonzero;"/>
                </g>
                <g transform="matrix(1,0,0,1,28,9)">
                    <path d="M3.193,-0.14L2.993,42.9C2.993,42.9 0,42.209 0,40L0.078,2.421C0.078,0.211 3.193,-0.14 3.193,-0.14Z" style="fill:rgb(140,122,98);fill-rule:nonzero;"/>
                </g>
                <g transform="matrix(1,0,0,1,28,8)">
                    <ellipse cx="4" cy="2.5" rx="4" ry="2.5" style="fill:rgb(200,171,138);"/>
                </g>
                <g transform="matrix(1,0,0,1,-1936,498)">
                    <path d="M1965.13,-479.858C1968.71,-476.446 1972.49,-473.261 1976.46,-470.324C1984.26,-464.371 1994.71,-465.904 1994.71,-465.904L1994.71,-467.882C1994.71,-467.882 1984.85,-466.325 1977.23,-472.311C1969.61,-478.297 1965.59,-482.229 1965.59,-482.229L1965.13,-479.858Z" style="fill:rgb(102,102,102);fill-rule:nonzero;"/>
                </g>
                <g transform="matrix(1,0,0,1,27,15)">
                    <ellipse cx="1.5" cy="2" rx="1.5" ry="2" style="fill:rgb(78,78,78);"/>
                </g>
            </g>
        </g>
    </g>
</svg>
