<?xml version="1.0" encoding="UTF-8" standalone="no"?>
<!DOCTYPE svg PUBLIC "-//W3C//DTD SVG 1.1//EN" "http://www.w3.org/Graphics/SVG/1.1/DTD/svg11.dtd">
<svg width="100%" height="100%" viewBox="0 0 128 128" version="1.1" xmlns="http://www.w3.org/2000/svg" xmlns:xlink="http://www.w3.org/1999/xlink" xml:space="preserve" xmlns:serif="http://www.serif.com/" style="fill-rule:evenodd;clip-rule:evenodd;stroke-linejoin:round;stroke-miterlimit:2;">
    <g id="RentTooHigh" transform="matrix(0.93747,0,0,0.917643,6.5039,9.04172)">
        <path d="M128,20.294C128,4.558 115.494,-8.219 100.09,-8.219L22.572,-8.219C7.168,-8.219 -5.338,4.558 -5.338,20.294L-5.338,77.32C-5.338,93.056 7.168,105.832 22.572,105.832L60.791,105.832L100.622,128L100.09,105.832C115.494,105.832 128,93.056 128,77.32L128,20.294Z" style="fill:rgb(37,93,149);"/>
        <clipPath id="_clip1">
            <path d="M128,20.294C128,4.558 115.494,-8.219 100.09,-8.219L22.572,-8.219C7.168,-8.219 -5.338,4.558 -5.338,20.294L-5.338,77.32C-5.338,93.056 7.168,105.832 22.572,105.832L60.791,105.832L100.622,128L100.09,105.832C115.494,105.832 128,93.056 128,77.32L128,20.294Z"/>
        </clipPath>
        <g clip-path="url(#_clip1)">
            <g transform="matrix(1.0667,0,0,1.08975,-6.93771,-9.8532)">
                <g id="building-base" serif:id="building base" transform="matrix(1.6325,0,0,1.6325,10.7733,1.92294)">
                    <g>
                        <path d="M8.099,26.432L32.691,5.395L55.951,26.136L50.556,26.169L50.556,57.865L14.852,57.865L14.852,26.39L8.099,26.432Z" style="fill:rgb(136,241,255);"/>
                        <g transform="matrix(1.01938,0,0,1.01938,-0.560149,-1.05449)">
                            <path d="M24.645,13.056L32.608,6.201L55.569,26.709L50.192,26.741L32.56,11.388L15.122,26.905L8.431,27.014L18.477,18.366L18.477,9.433L24.645,9.433L24.645,13.056Z" style="fill:rgb(136,241,255);"/>
                        </g>
                    </g>
                </g>
                <g id="Layer10" transform="matrix(0.93361,0,0,0.880911,31.7872,28.6399)">
                    <g>
                        <g id="Layer8" transform="matrix(2.11127,0,0,2.26241,-47.9204,-46.1107)">
                            <g>
                                <path d="M26.677,43.769L41.3,33.53L52.089,35.028L38.771,46.174L26.677,43.769Z" style="fill:white;"/>
                                <path d="M26.685,43.752L26.719,45.436L38.834,48.082L51.988,36.382L52.083,35.031L38.78,46.169L26.685,43.752Z" style="fill:rgb(229,99,51);"/>
                            </g>
                        </g>
                        <g id="Layer81" serif:id="Layer8" transform="matrix(2.11127,0,0,2.26241,-48.6459,-52.1741)">
                            <g>
                                <path d="M26.677,43.769L41.3,33.53L52.089,35.028L38.771,46.174L26.677,43.769Z" style="fill:white;"/>
                                <path d="M26.685,43.752L26.719,45.436L38.834,48.082L51.988,36.382L52.083,35.031L38.78,46.169L26.685,43.752Z" style="fill:rgb(229,99,51);"/>
                            </g>
                        </g>
                        <g id="Layer82" serif:id="Layer8" transform="matrix(2.11127,0,0,2.26241,-49.3543,-58.2472)">
                            <g>
                                <path d="M26.677,43.769L41.3,33.53L52.089,35.028L38.771,46.174L26.677,43.769Z" style="fill:rgb(229,99,51);"/>
                                <path d="M26.685,43.752L26.719,45.436L38.834,48.082L51.988,36.382L52.083,35.031L38.78,46.169L26.685,43.752Z" style="fill:rgb(229,99,51);"/>
                                <g transform="matrix(0.980831,0.194863,-0.183479,0.923532,5.76401,-5.36377)">
                                    <path d="M43.283,36.846C45.548,36.846 46.808,37.994 46.54,39.489C46.311,40.765 44.036,41.962 41.77,41.962C39.504,41.962 37.921,40.784 38.33,39.326C38.813,37.605 41.017,36.846 43.283,36.846Z" style="fill:white;"/>
                                </g>
                            </g>
                        </g>
                    </g>
                </g>
            </g>
        </g>
    </g>
</svg>
