<?xml version="1.0" encoding="UTF-8" standalone="no"?>
<!DOCTYPE svg PUBLIC "-//W3C//DTD SVG 1.1//EN" "http://www.w3.org/Graphics/SVG/1.1/DTD/svg11.dtd">
<svg width="100%" height="100%" viewBox="0 0 128 128" version="1.1" xmlns="http://www.w3.org/2000/svg" xmlns:xlink="http://www.w3.org/1999/xlink" xml:space="preserve" xmlns:serif="http://www.serif.com/" style="fill-rule:evenodd;clip-rule:evenodd;stroke-linejoin:round;stroke-miterlimit:2;">
    <g id="Vehicles" transform="matrix(0.976563,0,0,0.942198,1.5,1.5)">
        <path d="M64,0L119.426,33.167L119.426,99.501L64,132.668L8.574,99.501L8.574,33.167L64,0Z" style="fill:rgb(255,184,14);"/>
        <clipPath id="_clip1">
            <path d="M64,0L119.426,33.167L119.426,99.501L64,132.668L8.574,99.501L8.574,33.167L64,0Z"/>
        </clipPath>
        <g clip-path="url(#_clip1)">
            <g id="SewageNotEnoughProduction" transform="matrix(5.57289,0,0,5.77615,-6.32811,-1.4126)">
                <g>
                    <g id="Path_63" transform="matrix(0.712841,0,0,0.712841,-7081.98,38.4326)">
                        <path d="M9952.54,-41.21C9952.54,-41.21 9948.57,-32.874 9948.27,-31.459C9948.03,-30.284 9947.61,-25.744 9952.53,-25.744C9957.45,-25.744 9957.09,-30.499 9956.91,-31.343C9956.5,-33.178 9952.54,-41.21 9952.54,-41.21Z" style="fill:rgb(96,59,37);fill-rule:nonzero;"/>
                    </g>
                    <g id="Ellipse_120" transform="matrix(0.712841,0,0,0.712841,10.6643,15.3237)">
                        <ellipse cx="1.5" cy="2" rx="1.5" ry="2" style="fill:rgb(216,165,128);"/>
                    </g>
                    <g id="Ellipse_121" transform="matrix(0.712841,0,0,0.712841,14.2285,18.1751)">
                        <circle cx="0.5" cy="0.5" r="0.5" style="fill:rgb(203,145,102);"/>
                    </g>
                    <g transform="matrix(0.561865,0,0,0.178388,-22.4696,1.29731)">
                        <path d="M64,17.492C64,14.805 63.307,12.623 62.454,12.623C61.601,12.623 60.908,14.805 60.908,17.492L60.908,32.319C60.908,35.006 61.601,37.188 62.454,37.188C63.307,37.188 64,35.006 64,32.319L64,17.492Z" style="fill:rgb(218,84,7);"/>
                    </g>
                    <g transform="matrix(0.445403,0.342503,-0.108684,0.141337,-8.05864,-17.7651)">
                        <path d="M64,17.495C64,14.806 63.307,12.623 62.454,12.623C61.601,12.623 60.908,14.806 60.908,17.495L60.908,32.316C60.908,35.005 61.601,37.188 62.454,37.188C63.307,37.188 64,35.005 64,32.316L64,17.495Z" style="fill:rgb(218,84,7);"/>
                    </g>
                    <g transform="matrix(-0.444671,0.343453,0.108932,0.141035,33.2476,-17.8195)">
                        <path d="M64,17.497C64,14.807 63.307,12.623 62.454,12.623C61.601,12.623 60.908,14.807 60.908,17.497L60.908,32.314C60.908,35.004 61.601,37.188 62.454,37.188C63.307,37.188 64,35.004 64,32.314L64,17.497Z" style="fill:rgb(218,84,7);"/>
                    </g>
                </g>
            </g>
        </g>
    </g>
</svg>
