<?xml version="1.0" encoding="UTF-8" standalone="no"?>
<!DOCTYPE svg PUBLIC "-//W3C//DTD SVG 1.1//EN" "http://www.w3.org/Graphics/SVG/1.1/DTD/svg11.dtd">
<svg width="100%" height="100%" viewBox="0 0 128 128" version="1.1" xmlns="http://www.w3.org/2000/svg" xmlns:xlink="http://www.w3.org/1999/xlink" xml:space="preserve" xmlns:serif="http://www.serif.com/" style="fill-rule:evenodd;clip-rule:evenodd;stroke-linejoin:round;stroke-miterlimit:2;">
    <g id="Event" transform="matrix(0.976563,0,0,0.976563,1.5,1.5)">
        <path d="M64,0L128,64L64,128L0,64L64,0Z" style="fill:rgb(255,184,14);"/>
        <clipPath id="_clip1">
            <path d="M64,0L128,64L64,128L0,64L64,0Z"/>
        </clipPath>
        <g clip-path="url(#_clip1)">
            <g id="SewagePipeDisconnected" transform="matrix(1.54898,0,0,1.54898,18.0416,7.20786)">
                <g>
                    <g id="Path_1126" transform="matrix(1,0,0,1,1189.71,-5.21772)">
                        <path d="M-1175.86,35.566L-1152.88,21.637C-1152.09,20.872 -1151.14,20.289 -1150.1,19.93C-1145.4,18.312 -1139.99,21.656 -1138.01,27.4C-1136.12,32.879 -1138.04,38.561 -1142.3,40.479L-1166.17,55.208L-1175.86,35.566Z" style="fill:rgb(137,98,46);fill-rule:nonzero;"/>
                    </g>
                    <g id="Path_1125" transform="matrix(1,0,0,1,1189.71,-5.21772)">
                        <path d="M-1175.86,35.566L-1152.88,21.637C-1152.09,20.872 -1151.14,20.289 -1150.1,19.93C-1144.44,18.13 -1140.54,22.993 -1140.54,22.993L-1170.69,41.882L-1175.86,35.566Z" style="fill:rgb(207,161,99);fill-rule:nonzero;"/>
                    </g>
                    <g id="Path_1127" transform="matrix(0.945519,-0.325568,0.325568,0.945519,6.909,32.529)">
                        <path d="M9,0C13.971,0 18,4.925 18,11C18,17.075 13.971,22 9,22C4.029,22 0,17.075 0,11C0,4.925 4.029,0 9,0Z" style="fill:rgb(169,119,53);fill-rule:nonzero;"/>
                    </g>
                    <g id="Ellipse_455" transform="matrix(0.945519,-0.325568,0.325568,0.945519,10.909,34.529)">
                        <ellipse cx="6" cy="7.5" rx="6" ry="7.5" style="fill:rgb(108,62,39);"/>
                    </g>
                    <g id="InfoIconWater" transform="matrix(1,0,0,1,6.208,43.947)">
                        <g id="Water">
                            <g id="Path_63" transform="matrix(1,0,0,1,-9944.08,42.634)">
                                <path d="M9955.33,-41.21C9955.33,-41.21 9948.33,-34.889 9948.2,-33.523C9948.07,-32.157 9947.26,-29.114 9955.32,-29.114C9963.39,-29.114 9962.81,-32.014 9962.86,-33.523C9962.92,-35.032 9955.33,-41.21 9955.33,-41.21Z" style="fill:rgb(119,81,61);fill-rule:nonzero;"/>
                            </g>
                            <g id="Ellipse_120" transform="matrix(1,0,0,1,6.792,8.053)">
                                <ellipse cx="2.5" cy="1.5" rx="2.5" ry="1.5" style="fill:rgb(148,100,74);"/>
                            </g>
                            <g id="Ellipse_121" transform="matrix(1,0,0,1,14.792,11.053)">
                                <circle cx="0.5" cy="0.5" r="0.5" style="fill:rgb(148,100,74);"/>
                            </g>
                        </g>
                    </g>
                </g>
            </g>
        </g>
    </g>
</svg>
