<?xml version="1.0" encoding="UTF-8" standalone="no"?>
<!DOCTYPE svg PUBLIC "-//W3C//DTD SVG 1.1//EN" "http://www.w3.org/Graphics/SVG/1.1/DTD/svg11.dtd">
<svg width="100%" height="100%" viewBox="0 0 128 128" version="1.1" xmlns="http://www.w3.org/2000/svg" xmlns:xlink="http://www.w3.org/1999/xlink" xml:space="preserve" xmlns:serif="http://www.serif.com/" style="fill-rule:evenodd;clip-rule:evenodd;stroke-linejoin:round;stroke-miterlimit:2;">
    <g id="Vehicles" transform="matrix(0.976563,0,0,0.942198,1.5,1.5)">
        <path d="M64,0L119.426,33.167L119.426,99.501L64,132.668L8.574,99.501L8.574,33.167L64,0Z" style="fill:rgb(229,99,51);"/>
        <clipPath id="_clip1">
            <path d="M64,0L119.426,33.167L119.426,99.501L64,132.668L8.574,99.501L8.574,33.167L64,0Z"/>
        </clipPath>
        <g clip-path="url(#_clip1)">
            <g id="SewageFacilityOverload" transform="matrix(5.57289,0,0,5.77615,-6.32811,-1.4126)">
                <g>
                    <g id="Path_63" transform="matrix(0.950454,0,0,0.950454,-9446.84,43.5471)">
                        <path d="M9952.54,-41.21C9952.54,-41.21 9948.57,-32.874 9948.27,-31.459C9948.03,-30.284 9947.61,-25.744 9952.53,-25.744C9957.45,-25.744 9957.09,-30.499 9956.91,-31.343C9956.5,-33.178 9952.54,-41.21 9952.54,-41.21Z" style="fill:rgb(96,59,37);fill-rule:nonzero;"/>
                    </g>
                    <g id="Ellipse_120" transform="matrix(0.950454,0,0,0.950454,10.0125,12.7352)">
                        <ellipse cx="1.5" cy="2" rx="1.5" ry="2" style="fill:rgb(216,165,128);"/>
                    </g>
                    <g id="Ellipse_121" transform="matrix(0.950454,0,0,0.950454,14.7648,16.5371)">
                        <circle cx="0.5" cy="0.5" r="0.5" style="fill:rgb(203,145,102);"/>
                    </g>
                    <g transform="matrix(0.311748,1.84889e-32,-1.54074e-32,0.27609,2.11936,-2.26139)">
                        <g id="Wate">
                            <g id="Layer4">
                                <g>
                                    <g id="warning" transform="matrix(0.476938,-1.26636e-32,1.26636e-32,0.538535,3.13644,-15.7954)">
                                        <path d="M11.304,97.763C11.21,97.013 11.147,96.25 11.115,95.475L11.115,88.762C18.013,88.762 19.955,92.074 26.853,91.901C37.614,91.63 35.889,86.939 46.65,86.939C56.79,86.939 57.232,92.136 67.375,92.298C74.022,92.405 76.745,87.032 87.646,87.132C93.539,87.186 97.936,91.813 103.102,91.724C108.873,91.624 115.08,88.762 117.066,88.762L117.066,97.762C115.08,97.762 108.873,100.624 103.102,100.724C97.936,100.813 93.539,96.186 87.646,96.132C76.745,96.032 74.022,101.405 67.375,101.298C57.232,101.136 56.79,95.939 46.65,95.939C35.889,95.939 37.614,100.63 26.853,100.901C20.019,101.073 18.049,97.822 11.304,97.763Z" style="fill:rgb(52,28,14);"/>
                                    </g>
                                    <g id="warning1" serif:id="warning" transform="matrix(0.476938,-1.26636e-32,1.26636e-32,0.538535,3.13644,-8.01555)">
                                        <path d="M11.304,97.763C11.21,97.013 11.147,96.25 11.115,95.475L11.115,88.762C18.013,88.762 19.955,92.074 26.853,91.901C37.614,91.63 35.889,86.939 46.65,86.939C56.79,86.939 57.232,92.136 67.375,92.298C74.022,92.405 76.745,87.032 87.646,87.132C93.539,87.186 97.936,91.813 103.102,91.724C108.873,91.624 115.08,88.762 117.066,88.762L117.066,97.762C115.08,97.762 108.873,100.624 103.102,100.724C97.936,100.813 93.539,96.186 87.646,96.132C76.745,96.032 74.022,101.405 67.375,101.298C57.232,101.136 56.79,95.939 46.65,95.939C35.889,95.939 37.614,100.63 26.853,100.901C20.019,101.073 18.049,97.822 11.304,97.763Z" style="fill:rgb(52,28,14);"/>
                                    </g>
                                    <g id="warning2" serif:id="warning" transform="matrix(0.476938,-1.26636e-32,1.26636e-32,0.538535,3.09316,-0.235729)">
                                        <path d="M11.304,97.763C11.21,97.013 11.147,96.25 11.115,95.475L11.115,88.762C18.013,88.762 19.955,92.074 26.853,91.901C37.614,91.63 35.889,86.939 46.65,86.939C56.79,86.939 57.232,92.136 67.375,92.298C74.022,92.405 76.745,87.032 87.646,87.132C93.539,87.186 97.936,91.813 103.102,91.724C108.873,91.624 115.08,88.762 117.066,88.762L117.066,97.762C115.08,97.762 108.873,100.624 103.102,100.724C97.936,100.813 93.539,96.186 87.646,96.132C76.745,96.032 74.022,101.405 67.375,101.298C57.232,101.136 56.79,95.939 46.65,95.939C35.889,95.939 37.614,100.63 26.853,100.901C20.019,101.073 18.049,97.822 11.304,97.763Z" style="fill:rgb(52,28,14);"/>
                                    </g>
                                </g>
                            </g>
                        </g>
                    </g>
                </g>
            </g>
        </g>
    </g>
</svg>
