<?xml version="1.0" encoding="UTF-8" standalone="no"?>
<!DOCTYPE svg PUBLIC "-//W3C//DTD SVG 1.1//EN" "http://www.w3.org/Graphics/SVG/1.1/DTD/svg11.dtd">
<svg width="100%" height="100%" viewBox="0 0 128 128" version="1.1" xmlns="http://www.w3.org/2000/svg" xmlns:xlink="http://www.w3.org/1999/xlink" xml:space="preserve" xmlns:serif="http://www.serif.com/" style="fill-rule:evenodd;clip-rule:evenodd;stroke-linejoin:round;stroke-miterlimit:2;">
    <g id="Vehicles" transform="matrix(0.976563,0,0,0.942198,1.5,1.5)">
        <path d="M64,0L119.426,33.167L119.426,99.501L64,132.668L8.574,99.501L8.574,33.167L64,0Z" style="fill:rgb(229,99,51);"/>
        <clipPath id="_clip1">
            <path d="M64,0L119.426,33.167L119.426,99.501L64,132.668L8.574,99.501L8.574,33.167L64,0Z"/>
        </clipPath>
        <g clip-path="url(#_clip1)">
            <g id="Sewage" transform="matrix(0.785151,0,0,0.785151,11.957,11.8365)">
                <g id="pipe" transform="matrix(1.65379,0,0,1.7141,10.3554,2.49516)">
                    <g>
                        <g transform="matrix(1.2895,0,0,1.2525,-32.6285,-2.01202)">
                            <path d="M36.245,10.737C40.668,10.737 44.259,17.599 44.259,26.051C44.259,34.503 40.668,41.365 36.245,41.365C31.821,41.365 28.23,34.503 28.23,26.051C28.23,17.599 31.821,10.737 36.245,10.737ZM36.245,14.566C39.562,14.566 42.255,19.712 42.255,26.051C42.255,32.39 39.562,37.537 36.245,37.537C32.927,37.537 30.234,32.39 30.234,26.051C30.234,19.712 32.927,14.566 36.245,14.566Z" style="fill:rgb(77,69,69);"/>
                        </g>
                        <g transform="matrix(0.767919,0,0,0.964615,10.5504,0.49481)">
                            <path d="M31.399,12.681C31.399,12.681 5.374,13.315 3.781,13.954C-8.095,18.716 -9.571,42.605 3.7,48.763C5.141,49.432 31.431,49.606 31.431,49.606L31.399,12.681Z" style="fill:rgb(131,122,122);"/>
                        </g>
                        <g transform="matrix(1.23837,0,0,1.23837,-5.92334,-0.569259)">
                            <path d="M24.238,21.502L10.088,21.444C10.016,21.887 9.948,22.281 9.924,22.79L24.392,22.871C24.378,22.426 24.22,21.937 24.238,21.502ZM25.7,15.867L11.717,16.099C11.111,17.337 10.536,19.077 10.217,20.684L24.124,20.708C24.117,18.986 25.203,17.305 25.7,15.867Z" style="fill:rgb(196,196,196);"/>
                        </g>
                        <g transform="matrix(1.47399,0,0,1.28926,-15.4454,-2.45224)">
                            <ellipse cx="34.42" cy="25.109" rx="7.363" ry="11.891" style="fill:rgb(24,24,24);"/>
                        </g>
                        <g transform="matrix(1.51704,0,0,1.16293,-19.7838,0.240723)">
                            <path d="M36.245,10.737C40.668,10.737 44.259,17.599 44.259,26.051C44.259,34.503 40.668,41.365 36.245,41.365C31.821,41.365 28.23,34.503 28.23,26.051C28.23,17.599 31.821,10.737 36.245,10.737ZM36.245,14.566C39.562,14.566 42.255,19.712 42.255,26.051C42.255,32.39 39.562,37.537 36.245,37.537C32.927,37.537 30.234,32.39 30.234,26.051C30.234,19.712 32.927,14.566 36.245,14.566Z" style="fill:rgb(174,174,174);"/>
                        </g>
                        <g transform="matrix(1.23837,0,0,1.23837,-5.92334,-0.569259)">
                            <path d="M19.907,39.196C19.907,39.196 17.749,41.314 14.915,40.495C11.054,39.381 9.412,34.262 9.412,34.262L8.712,32.12C9.38,32.259 10.049,32.248 10.718,32.055C10.718,32.055 11.805,34.222 12.426,35.21C13.19,36.425 14.935,37.838 16.182,38.502C17.297,39.096 19.855,39.242 19.907,39.196Z" style="fill:rgb(80,77,77);"/>
                        </g>
                        <g transform="matrix(1.23837,0,0,1.23837,-5.92334,-0.569259)">
                            <path d="M10.72,32.061L24.525,31.889C24.525,31.889 26.174,35.272 27.526,36.518C28.902,37.786 32.779,39.497 32.779,39.497C28.566,39.491 21.618,39.385 19.66,39.218C19.66,39.218 16.3,39.116 15.709,38.889C15.005,38.619 14.033,37.687 13.562,37.208C11.42,35.026 10.74,32.101 10.72,32.061Z" style="fill:rgb(98,91,91);"/>
                        </g>
                        <g transform="matrix(1.23837,0,0,1.23837,-5.92334,-0.569259)">
                            <path d="M24.533,31.867C24.533,31.867 25.159,34.233 27.395,36.84C30.108,40.005 33.735,39.465 33.735,39.465L33.654,37.251C33.654,37.251 31.523,37.547 29.53,35.489C28.214,34.131 27.166,31.753 27.166,31.753L24.533,31.867Z" style="fill:rgb(113,113,113);"/>
                        </g>
                    </g>
                </g>
                <g id="poop" transform="matrix(1.64021,0,0,1.7141,12.9425,16.1552)">
                    <g>
                        <path d="M25.077,25.919C25.077,25.919 40.982,22.99 48.834,27.909C54.676,31.569 53.562,43.123 53.417,48.43C53.388,49.498 54.167,48.035 56.197,49.126C57.745,49.957 57.402,51.498 57.655,51.636C57.892,51.765 58.493,50.999 59.889,51.473C61.86,52.144 61.494,54.104 62.014,54.462C63.867,55.737 61.919,58.671 61.919,58.671L26.806,58.52C26.806,58.52 25.1,55.331 27.681,53.964C28.633,53.46 28.182,51.104 30.955,50.264C33.709,49.429 34.412,51.26 34.66,51.037C34.949,50.778 34.377,37.565 34.377,37.565C34.377,37.565 31.547,38 28.663,34.643C25.487,30.947 25.077,25.919 25.077,25.919Z" style="fill:rgb(96,59,37);"/>
                        <g transform="matrix(1,0,0,1,0.114532,-0.801726)">
                            <path d="M25.269,28.502C25.269,28.502 30.155,27.917 35.108,27.851C39.045,27.799 43.382,29.005 44.205,29.385C48.728,31.477 48.739,46.75 47.662,52.755C47.35,54.493 50.705,55.748 51.6,54.521C52.222,53.668 50.477,52.809 50.421,51.932C49.975,45.038 51.019,31.328 46.348,28.527C44.819,27.61 40.878,26.821 37.253,26.583C31.703,26.219 25.002,27.04 25.002,27.04C25.08,27.54 25.101,27.77 25.269,28.502Z" style="fill:rgb(203,145,102);"/>
                        </g>
                        <g transform="matrix(0.852953,0,0,0.828471,2.33866,6.02676)">
                            <path d="M27.587,28.368C27.587,28.368 30.085,28.128 35.038,28.062C38.975,28.01 43.637,28.819 44.476,29.159C47.363,30.326 48.764,47.024 47.686,53.03C47.374,54.767 46.19,56.847 47.706,56.933C49.753,57.048 50.686,53.699 50.856,51.659C51.431,44.767 51.019,31.222 46.348,28.421C44.819,27.504 40.936,27.008 37.312,26.77C31.761,26.406 27.197,26.949 27.197,26.949C27.3,27.453 27.377,27.598 27.587,28.368Z" style="fill:rgb(147,93,53);"/>
                        </g>
                        <path d="M26.235,30.422C26.235,30.422 35.324,29.379 37.25,32.248C39.411,35.47 40.005,47.336 38.973,50.08C38.598,51.078 37.437,49.538 36.797,49.764C35.943,50.065 34.73,51.072 34.73,51.072C34.73,51.072 34.714,48.143 34.685,46.764C34.638,44.524 34.393,37.576 34.393,37.576C34.393,37.576 32.109,37.985 29.574,35.671C27.154,33.46 26.235,30.422 26.235,30.422Z" style="fill:rgb(147,93,53);"/>
                        <g transform="matrix(1.24862,0,0,1.23837,-7.54964,-8.53844)">
                            <path d="M50.861,50.42C51.587,49.786 52.65,49.825 53.235,50.506C53.819,51.187 53.705,52.254 52.98,52.887C52.254,53.52 51.191,53.481 50.606,52.8C50.022,52.12 50.136,51.053 50.861,50.42ZM35.508,50.29C36.223,49.666 37.275,49.708 37.855,50.384C38.435,51.06 38.326,52.115 37.611,52.739C36.897,53.363 35.845,53.321 35.265,52.645C34.684,51.969 34.794,50.914 35.508,50.29ZM47.937,50.646C48.39,50.25 49.059,50.28 49.431,50.712C49.802,51.145 49.735,51.817 49.282,52.212C48.829,52.608 48.159,52.578 47.788,52.146C47.417,51.714 47.484,51.041 47.937,50.646ZM32.575,48.818C32.867,48.563 33.292,48.575 33.523,48.844C33.754,49.113 33.704,49.539 33.412,49.794C33.12,50.049 32.695,50.037 32.464,49.768C32.233,49.499 32.283,49.073 32.575,48.818Z" style="fill:rgb(203,145,102);"/>
                        </g>
                        <g transform="matrix(1.24862,0,0,1.23837,-7.54964,-8.53844)">
                            <path d="M40.852,50.55C41.217,50.231 41.751,50.248 42.043,50.588C42.335,50.929 42.275,51.463 41.91,51.782C41.545,52.101 41.011,52.084 40.719,51.744C40.427,51.403 40.487,50.869 40.852,50.55ZM50.64,48.32C51.078,48.32 51.433,48.665 51.433,49.091C51.433,49.517 51.078,49.863 50.64,49.863C50.202,49.863 49.847,49.517 49.847,49.091C49.847,48.665 50.202,48.32 50.64,48.32ZM37.418,48.268C37.783,47.949 38.316,47.966 38.608,48.307C38.9,48.647 38.841,49.182 38.476,49.5C38.111,49.819 37.577,49.802 37.285,49.462C36.993,49.122 37.052,48.587 37.418,48.268Z" style="fill:rgb(186,110,66);"/>
                        </g>
                    </g>
                </g>
            </g>
        </g>
    </g>
</svg>
