<?xml version="1.0" encoding="UTF-8" standalone="no"?>
<!DOCTYPE svg PUBLIC "-//W3C//DTD SVG 1.1//EN" "http://www.w3.org/Graphics/SVG/1.1/DTD/svg11.dtd">
<svg width="100%" height="100%" viewBox="0 0 128 128" version="1.1" xmlns="http://www.w3.org/2000/svg" xmlns:xlink="http://www.w3.org/1999/xlink" xml:space="preserve" xmlns:serif="http://www.serif.com/" style="fill-rule:evenodd;clip-rule:evenodd;stroke-linejoin:round;stroke-miterlimit:2;">
    <g id="While-Building" serif:id="While Building" transform="matrix(0.976563,0,0,0.976563,1.5,1.5)">
        <circle cx="64" cy="64" r="64" style="fill:rgb(255,231,185);"/>
        <clipPath id="_clip1">
            <circle cx="64" cy="64" r="64"/>
        </clipPath>
        <g clip-path="url(#_clip1)">
            <g id="SmallArea" transform="matrix(1.57918,0,0,1.57918,13.7008,13.5589)">
                <g transform="matrix(1.06268,0,0,1.02389,-1.32986,1.90244)">
                    <path d="M53.901,11.111C53.901,8.587 51.927,6.539 49.495,6.539L12.586,6.539C10.155,6.539 8.181,8.587 8.181,11.111L8.181,47.687C8.181,50.21 10.155,52.259 12.586,52.259L49.495,52.259C51.927,52.259 53.901,50.21 53.901,47.687L53.901,11.111Z" style="fill:rgb(129,155,173);"/>
                    <path d="M53.901,11.111C53.901,8.587 51.927,6.539 49.495,6.539L12.586,6.539C10.155,6.539 8.181,8.587 8.181,11.111L8.181,47.687C8.181,50.21 10.155,52.259 12.586,52.259L49.495,52.259C51.927,52.259 53.901,50.21 53.901,47.687L53.901,11.111ZM52.07,11.111L52.07,47.687C52.07,49.161 50.916,50.359 49.495,50.359L12.586,50.359C11.165,50.359 10.011,49.161 10.011,47.687L10.011,11.111C10.011,9.636 11.165,8.439 12.586,8.439C12.586,8.439 49.495,8.439 49.495,8.439C50.916,8.439 52.07,9.636 52.07,11.111Z" style="fill:white;"/>
                </g>
                <g transform="matrix(0.592694,0,0,0.586003,20.1562,20.5137)">
                    <path d="M53.901,11.111C53.901,8.587 51.875,6.539 49.38,6.539L12.701,6.539C10.206,6.539 8.181,8.587 8.181,11.111L8.181,47.687C8.181,50.21 10.206,52.259 12.701,52.259L49.38,52.259C51.875,52.259 53.901,50.21 53.901,47.687L53.901,11.111Z" style="fill:rgb(229,99,51);"/>
                    <path d="M53.901,11.111C53.901,8.587 51.875,6.539 49.38,6.539L12.701,6.539C10.206,6.539 8.181,8.587 8.181,11.111L8.181,47.687C8.181,50.21 10.206,52.259 12.701,52.259L49.38,52.259C51.875,52.259 53.901,50.21 53.901,47.687L53.901,11.111ZM50.618,11.111L50.618,47.687C50.618,48.378 50.064,48.939 49.38,48.939C49.38,48.939 12.701,48.939 12.701,48.939C12.018,48.939 11.463,48.378 11.463,47.687C11.463,47.687 11.463,11.111 11.463,11.111C11.463,10.42 12.018,9.858 12.701,9.858L49.38,9.858C50.064,9.858 50.618,10.42 50.618,11.111Z" style="fill:white;"/>
                </g>
            </g>
        </g>
    </g>
</svg>
