<?xml version="1.0" encoding="UTF-8" standalone="no"?>
<!DOCTYPE svg PUBLIC "-//W3C//DTD SVG 1.1//EN" "http://www.w3.org/Graphics/SVG/1.1/DTD/svg11.dtd">
<svg width="100%" height="100%" viewBox="0 0 128 128" version="1.1" xmlns="http://www.w3.org/2000/svg" xmlns:xlink="http://www.w3.org/1999/xlink" xml:space="preserve" xmlns:serif="http://www.serif.com/" style="fill-rule:evenodd;clip-rule:evenodd;stroke-linejoin:round;stroke-miterlimit:2;">
    <g id="Vehicles" transform="matrix(0.976563,0,0,0.942198,1.5,1.5)">
        <path d="M64,0L119.426,33.167L119.426,99.501L64,132.668L8.574,99.501L8.574,33.167L64,0Z" style="fill:rgb(255,184,14);"/>
        <clipPath id="_clip1">
            <path d="M64,0L119.426,33.167L119.426,99.501L64,132.668L8.574,99.501L8.574,33.167L64,0Z"/>
        </clipPath>
        <g clip-path="url(#_clip1)">
            <g id="SurfaceWaterLevelLow" transform="matrix(1,0,0,1,1.86448,3.58597)">
                <g id="warning" transform="matrix(1.024,0,0,1.06135,-3.40048,-5.17799)">
                    <path d="M95.331,82.818C94.225,82.818 90.767,84.412 87.552,84.468C84.675,84.518 82.225,81.94 78.942,81.91C72.87,81.855 71.353,84.848 67.65,84.788C62,84.698 61.754,81.803 56.105,81.803C50.111,81.803 51.071,84.416 45.077,84.567C41.27,84.662 40.173,82.852 36.415,82.819C36.363,82.401 36.328,81.976 36.31,81.544L36.31,74.754C40.153,74.754 41.235,76.599 45.077,76.503C51.071,76.352 50.111,73.739 56.105,73.739C61.754,73.739 62,76.634 67.65,76.724C71.353,76.784 72.87,73.791 78.942,73.846C82.225,73.876 84.675,76.454 87.552,76.404C90.767,76.348 94.225,74.754 95.331,74.754L95.331,82.818Z" style="fill:rgb(57,194,255);"/>
                </g>
                <g transform="matrix(1.024,0,0,1.06135,-3.40048,-5.17799)">
                    <path d="M87.47,40.888L87.47,69.458C87.47,76.022 82.141,81.351 75.577,81.351L51.791,81.351C45.227,81.351 39.898,76.022 39.898,69.458L39.898,40.888L22.151,40.888C21.589,40.888 21.133,41.344 21.133,41.906L21.133,90.768C21.133,91.33 21.589,91.786 22.151,91.786L105.849,91.786C106.411,91.786 106.867,91.33 106.867,90.768L106.867,41.906C106.867,41.344 106.411,40.888 105.849,40.888L87.47,40.888Z" style="fill:rgb(81,30,3);"/>
                </g>
                <g transform="matrix(1.024,0,0,1.06135,-3.40048,-5.17799)">
                    <path d="M85.35,32.189C86.607,32.836 87.415,34.158 87.642,34.339C87.698,34.384 89.089,37.062 88.561,37.898C88.29,38.325 87.909,38.652 87.47,38.901L87.47,38.965L87.47,45.794L106.867,45.923L106.867,39.641L98.258,39.614C98.358,38.23 98.739,36.894 99.371,35.717C100.14,34.416 101.034,33.221 102.037,32.157C99.842,32.495 97.725,33.329 95.804,34.611C95.632,32.812 94.919,31.14 93.792,29.891C92.092,28.237 90.188,26.89 88.144,25.896C89.359,27.359 90.374,29.029 91.156,30.848C91.778,32.564 92.115,34.401 92.15,36.263C91.299,34.362 89.871,32.895 88.144,32.148C87.028,31.874 86.094,31.849 85.35,32.189ZM39.898,39.236L21.135,39.071L21.135,45.353L39.898,45.478L39.898,39.236Z" style="fill:rgb(49,207,0);fill-rule:nonzero;"/>
                </g>
                <g transform="matrix(1.024,0,0,1.06135,-3.40048,-5.17799)">
                    <path d="M39.898,44.879L21.133,44.879L21.133,62.035L39.898,62.035L39.898,44.879ZM87.47,44.879L87.47,62.035L106.865,62.035L106.865,44.879L87.47,44.879Z" style="fill:rgb(100,47,19);"/>
                </g>
                <g transform="matrix(1.024,0,0,1.06135,-3.40048,-5.17799)">
                    <path d="M27.199,53.623L23.483,57.188L29.472,59.449L33.158,56.427L30.798,55.531L29.134,52.152L27.199,53.623ZM103.396,53.07C103.113,52.114 95.556,59.449 95.556,59.449L100.614,59.449C100.614,59.449 106.178,56.741 105.419,56.26C104.66,55.778 103.522,53.498 103.396,53.07ZM91.485,49.743L89.209,53.421L95.556,54.336L91.485,49.743ZM35.088,48.391L31.979,50.687L37.16,52.984L38.326,50.687L35.088,48.391ZM102.228,51.753C101.812,51.08 100.84,47.651 100.84,47.651L95.556,49.65L97.303,51.022C97.303,51.022 102.465,52.138 102.228,51.753Z" style="fill:rgb(128,67,35);"/>
                </g>
                <g transform="matrix(6.36029e-17,-1.0766,1.43523,9.10881e-17,-28.2537,126.541)">
                    <path d="M67.605,67.997L67.605,74.304L51.956,62.979L67.605,51.653L67.605,57.96L95.31,57.96L95.31,67.997L67.605,67.997Z" style="fill:rgb(218,84,7);"/>
                </g>
            </g>
        </g>
    </g>
</svg>
