<?xml version="1.0" encoding="UTF-8" standalone="no"?>
<!DOCTYPE svg PUBLIC "-//W3C//DTD SVG 1.1//EN" "http://www.w3.org/Graphics/SVG/1.1/DTD/svg11.dtd">
<svg width="100%" height="100%" viewBox="0 0 128 128" version="1.1" xmlns="http://www.w3.org/2000/svg" xmlns:xlink="http://www.w3.org/1999/xlink" xml:space="preserve" xmlns:serif="http://www.serif.com/" style="fill-rule:evenodd;clip-rule:evenodd;stroke-linejoin:round;stroke-miterlimit:2;">
    <g id="While-Building" serif:id="While Building" transform="matrix(0.976563,0,0,0.976563,1.5,1.5)">
        <circle cx="64" cy="64" r="64" style="fill:rgb(255,231,185);"/>
        <clipPath id="_clip1">
            <circle cx="64" cy="64" r="64"/>
        </clipPath>
        <g clip-path="url(#_clip1)">
            <g id="TightCurve" transform="matrix(2.15397,0,0,2.07718,-7.61889,-2.21496)">
                <g transform="matrix(0.4754,0,0,0.492976,2.82403,0.326866)">
                    <path d="M15.343,105.558C9.045,76.191 18.101,46.723 41.11,30.926C64.285,15.015 95.32,17.298 120.568,34.059C125.311,42.991 128,53.184 128,64C128,73.141 126.079,81.838 122.619,89.708C121.289,86.232 119.513,82.821 117.28,79.569C104.283,60.637 80.704,54.211 64.659,65.227C48.614,76.243 46.139,100.556 59.136,119.487C61.321,122.67 63.805,125.499 66.504,127.952C65.671,127.984 64.837,128 64,128C44.534,128 27.086,119.29 15.343,105.558Z" style="fill:rgb(128,128,128);"/>
                </g>
                <g transform="matrix(0.4754,0,0,0.492976,2.82403,0.326866)">
                    <path d="M40.649,123.599C25.2,94.301 30.055,60.244 53.225,44.337C74.979,29.402 105.862,35.281 127.587,56.695C127.752,58.148 127.869,59.613 127.935,61.092C107.226,38.961 76.542,32.458 55.152,47.144C32.46,62.723 28.263,96.63 44.632,125.012C43.285,124.584 41.956,124.113 40.649,123.599Z" style="fill:white;"/>
                </g>
                <g transform="matrix(0.380212,-0.270684,0.291395,0.440127,-22.4369,29.1807)">
                    <path d="M142.079,56.289C129.859,43.865 113.284,36.885 96.002,36.885C77.138,36.885 59.2,45.197 46.824,59.671L62.965,59.534L63.053,74.015C71.345,64.317 83.363,58.748 96.002,58.748C107.581,58.748 118.686,63.424 126.874,71.749L139.883,67.228L142.079,56.289Z" style="fill:rgb(255,184,14);"/>
                </g>
                <g transform="matrix(0.4754,0,0,0.492976,2.82403,0.326866)">
                    <path d="M22.75,73.418C27.355,69.955 32.047,67.255 36.921,66.203C40.243,68.776 42.865,72.747 45.115,77.461C43.726,81.382 42.888,85.595 42.659,89.989L33.713,77.109C33.713,77.109 20.897,85.93 20.897,85.93C21.131,81.627 21.757,77.44 22.75,73.418Z" style="fill:rgb(71,71,71);"/>
                </g>
                <g transform="matrix(0.4754,0,0,0.492976,2.82403,0.326866)">
                    <path d="M31.582,53.495C31.617,53.462 32.186,53.14 41.468,50.991C48.347,49.399 48.889,50.705 48.889,50.705C51.988,54.072 53.547,58.208 54.264,62.765C52.118,64.928 50.238,67.347 48.649,69.975C47.787,65.269 46.225,60.999 42.693,57.949C36.894,59.124 31.242,61.478 25.671,64.475C27.275,60.581 29.254,56.904 31.582,53.495Z" style="fill:rgb(71,71,71);"/>
                </g>
                <g transform="matrix(0.4754,0,0,0.492976,2.82403,0.326866)">
                    <path d="M50.272,36.232C53.26,36.399 56.771,36.695 58.167,37.197C65.916,39.982 66.34,41.603 66.34,41.603C66.34,41.603 66.063,50.301 65.247,55.097C63.303,55.988 61.432,57.045 59.653,58.267C59.299,58.509 58.95,58.758 58.606,59.013C58.88,54.055 58.485,49.264 56.101,44.971C51.054,43.664 45.232,43.753 38.876,44.802C41.148,42.587 43.611,40.561 46.252,38.747C47.56,37.85 48.901,37.011 50.272,36.232Z" style="fill:rgb(71,71,71);"/>
                </g>
                <g transform="matrix(0.4754,0,0,0.492976,2.82403,0.326866)">
                    <path d="M75.091,28.897C76.656,30.038 78.712,31.648 79.702,32.89C82.31,36.161 83.287,39.445 83.287,39.445L78.269,51.719C75.951,51.91 73.672,52.299 71.456,52.881L73.897,39.71C71.3,36.05 67.417,33.29 62.903,30.971C66.847,29.862 70.929,29.168 75.091,28.897Z" style="fill:rgb(71,71,71);"/>
                </g>
                <g transform="matrix(0.4754,0,0,0.492976,2.82403,0.326866)">
                    <path d="M84.241,28.979C87.809,29.271 91.406,29.867 94.997,30.772L99.946,41.744L92.312,52.923C90.03,52.348 87.744,51.959 85.473,51.753C88.043,48.222 90.016,44.792 91.909,40.776C90.934,36.357 88.001,32.541 84.241,28.979Z" style="fill:rgb(71,71,71);"/>
                </g>
            </g>
        </g>
    </g>
</svg>
