<?xml version="1.0" encoding="UTF-8" standalone="no"?>
<!DOCTYPE svg PUBLIC "-//W3C//DTD SVG 1.1//EN" "http://www.w3.org/Graphics/SVG/1.1/DTD/svg11.dtd">
<svg width="100%" height="100%" viewBox="0 0 128 128" version="1.1" xmlns="http://www.w3.org/2000/svg" xmlns:xlink="http://www.w3.org/1999/xlink" xml:space="preserve" xmlns:serif="http://www.serif.com/" style="fill-rule:evenodd;clip-rule:evenodd;stroke-linejoin:round;stroke-miterlimit:2;">
    <g id="While-Building" serif:id="While Building" transform="matrix(0.976563,0,0,0.976563,1.5,1.5)">
        <circle cx="64" cy="64" r="64" style="fill:rgb(255,231,185);"/>
        <clipPath id="_clip1">
            <circle cx="64" cy="64" r="64"/>
        </clipPath>
        <g clip-path="url(#_clip1)">
            <g transform="matrix(0.868361,0,0,0.868361,8.42489,8.42489)">
                <path d="M45.831,93.275L38.828,100.572L49.421,111.169L16.819,111.163L16.825,78.561L27.419,89.159L34.394,81.89L45.831,93.275ZM59.312,79.946L51.91,87.494L40.473,76.109L47.875,68.562L59.312,79.946ZM74.156,65.256L65.833,73.577L54.396,62.192L62.718,53.872L74.156,65.256ZM87.527,51.891L79.793,59.328L68.356,47.944L76.09,40.506L87.527,51.891ZM81.985,34.983L89.172,27.428L78.579,16.831L111.181,16.837L111.175,49.439L100.581,38.841L93.422,46.368L81.985,34.983Z" style="fill:rgb(229,99,51);"/>
            </g>
        </g>
    </g>
</svg>
