<?xml version="1.0" encoding="UTF-8" standalone="no"?>
<!DOCTYPE svg PUBLIC "-//W3C//DTD SVG 1.1//EN" "http://www.w3.org/Graphics/SVG/1.1/DTD/svg11.dtd">
<svg width="100%" height="100%" viewBox="0 0 128 128" version="1.1" xmlns="http://www.w3.org/2000/svg" xmlns:xlink="http://www.w3.org/1999/xlink" xml:space="preserve" xmlns:serif="http://www.serif.com/" style="fill-rule:evenodd;clip-rule:evenodd;stroke-linejoin:round;stroke-miterlimit:2;">
    <g id="Vehicles" transform="matrix(0.976563,0,0,0.942198,1.5,1.5)">
        <path d="M64,0L119.426,33.167L119.426,99.501L64,132.668L8.574,99.501L8.574,33.167L64,0Z" style="fill:rgb(229,99,51);"/>
        <clipPath id="_clip1">
            <path d="M64,0L119.426,33.167L119.426,99.501L64,132.668L8.574,99.501L8.574,33.167L64,0Z"/>
        </clipPath>
        <g clip-path="url(#_clip1)">
            <g id="garbage" transform="matrix(4.36615,0,0,4.5254,30.3606,27.1924)">
                <g>
                    <g transform="matrix(1,0,0,1,-9898.19,-54.382)">
                        <path d="M9912.66,59.586L9901.9,56.565C9900.48,56.741 9899.23,57.594 9898.55,58.851C9897.69,60.851 9898.59,61.512 9898.92,61.708C9899.19,61.859 9899.47,61.991 9899.76,62.102C9899.64,62.718 9899.74,63.358 9900.06,63.902C9900.43,64.556 9901.15,64.936 9901.9,64.875C9902.44,64.923 9902.99,64.792 9903.45,64.502C9903.37,63.701 9903.7,62.913 9904.33,62.413C9905.36,61.742 9912.03,60.359 9912.03,60.359L9912.66,59.586Z" style="fill:rgb(215,222,4);fill-rule:nonzero;"/>
                    </g>
                    <g transform="matrix(0.415132,0,0,0.415132,-4.95578,-6.4996)">
                        <path d="M20.749,29.431L45.725,29.431L45.725,52.505C45.607,54.675 43.732,56.367 41.562,56.261L24.317,56.261C22.147,56.367 20.272,54.675 20.155,52.505L20.155,29.968C20.171,29.658 20.439,29.416 20.749,29.431ZM47.776,28.52L20.557,20.924L21.093,19.385C21.925,17.343 24.204,16.26 26.313,16.904L46.161,22.442C46.264,22.464 46.365,22.491 46.466,22.523C48.392,23.124 49.483,25.204 48.882,27.13L48.522,28.168C48.403,28.459 48.077,28.613 47.776,28.52Z" style="fill:rgb(178,164,148);fill-rule:nonzero;"/>
                    </g>
                    <g transform="matrix(0.415132,0,0,0.415132,-4.95578,-6.4996)">
                        <path d="M23.724,32.73C23.724,32.526 23.559,32.36 23.354,32.36L22.309,32.36C22.105,32.36 21.939,32.526 21.939,32.73L21.939,53.205C21.939,53.409 22.105,53.575 22.309,53.575L23.354,53.575C23.559,53.575 23.724,53.409 23.724,53.205L23.724,32.73ZM43.942,32.73C43.942,32.526 43.776,32.36 43.572,32.36L42.527,32.36C42.323,32.36 42.157,32.526 42.157,32.73L42.157,53.205C42.157,53.409 42.323,53.575 42.527,53.575L43.572,53.575C43.776,53.575 43.942,53.409 43.942,53.205L43.942,32.73ZM38.587,32.977C38.587,32.636 38.311,32.36 37.97,32.36L36.232,32.36C35.891,32.36 35.615,32.636 35.615,32.977L35.615,52.958C35.615,53.298 35.891,53.575 36.232,53.575L37.97,53.575C38.311,53.575 38.587,53.298 38.587,52.958L38.587,32.977ZM30.857,32.977C30.857,32.636 30.581,32.36 30.24,32.36L28.502,32.36C28.161,32.36 27.885,32.636 27.885,32.977L27.885,52.958C27.885,53.298 28.161,53.575 28.502,53.575L30.24,53.575C30.581,53.575 30.857,53.298 30.857,52.958L30.857,32.977Z" style="fill:rgb(91,88,85);"/>
                    </g>
                </g>
            </g>
        </g>
    </g>
</svg>
