<?xml version="1.0" encoding="UTF-8" standalone="no"?>
<!DOCTYPE svg PUBLIC "-//W3C//DTD SVG 1.1//EN" "http://www.w3.org/Graphics/SVG/1.1/DTD/svg11.dtd">
<svg width="100%" height="100%" viewBox="0 0 128 128" version="1.1" xmlns="http://www.w3.org/2000/svg" xmlns:xlink="http://www.w3.org/1999/xlink" xml:space="preserve" xmlns:serif="http://www.serif.com/" style="fill-rule:evenodd;clip-rule:evenodd;stroke-linejoin:round;stroke-miterlimit:2;">
    <g id="Event" transform="matrix(0.976563,0,0,0.976563,1.5,1.5)">
        <path d="M64,0L128,64L64,128L0,64L64,0Z" style="fill:rgb(255,231,185);"/>
        <clipPath id="_clip1">
            <path d="M64,0L128,64L64,128L0,64L64,0Z"/>
        </clipPath>
        <g clip-path="url(#_clip1)">
            <g id="Dead-End-track" serif:id="Dead End track" transform="matrix(1.53593,0,0,1.53593,12.9318,15.3669)">
                <g transform="matrix(1.66802,0,0,1.14174,28.0485,-16.9665)">
                    <path d="M15.939,27.974C15.939,27.008 15.403,26.224 14.741,26.224C14.08,26.224 13.543,27.008 13.543,27.974L13.543,49.567C13.543,50.533 14.08,51.317 14.741,51.317C15.403,51.317 15.939,50.533 15.939,49.567L15.939,27.974Z" style="fill:rgb(159,159,159);"/>
                </g>
                <g transform="matrix(1.66802,0,0,1.14174,-10.7286,-16.9665)">
                    <g>
                        <path d="M15.939,27.974C15.939,27.008 15.403,26.224 14.741,26.224C14.08,26.224 13.543,27.008 13.543,27.974L13.543,49.567C13.543,50.533 14.08,51.317 14.741,51.317C15.403,51.317 15.939,50.533 15.939,49.567L15.939,27.974Z" style="fill:rgb(159,159,159);"/>
                    </g>
                </g>
                <g transform="matrix(1.11639,0,0,1.21759,-3.73378,-12.739)">
                    <g transform="matrix(-1,0,0,1.74977,66.1887,-25.8086)">
                        <rect x="11.212" y="28.837" width="43.491" height="6.754" style="fill:rgb(251,251,251);"/>
                    </g>
                    <g transform="matrix(-1,0,0,1.74977,66.1887,-25.8086)">
                        <path d="M21.773,35.591L15.939,35.591L21.521,28.837L27.354,28.837L21.773,35.591ZM32.907,35.591L27.419,35.591L33,28.837L38.488,28.837L32.907,35.591ZM44.041,35.591L38.553,35.591L44.134,28.837L49.622,28.837L44.041,35.591ZM54.703,35.591L49.686,35.591L54.703,29.52L54.703,35.591ZM15.875,28.837L11.212,34.48L11.212,28.837L15.875,28.837Z" style="fill:rgb(218,43,7);"/>
                    </g>
                </g>
                <g transform="matrix(0.959176,-1.95905e-16,0,1.02157,0.2283,-11.708)">
                    <path d="M49.045,52.207L19.807,52.116C19.807,52.116 20.629,45.899 23.056,45.463C24.122,45.271 44.776,45.327 45.882,45.393C48.075,45.525 49.045,52.207 49.045,52.207Z" style="fill:rgb(104,104,104);"/>
                </g>
                <g transform="matrix(0.374088,0.384454,-0.376962,0.366505,19.9518,-18.7819)">
                    <path d="M89.9,18.112C89.9,15.993 88.214,14.272 86.137,14.272L54.002,14.272C51.925,14.272 50.238,15.993 50.238,18.112L50.238,49.792C50.238,51.911 51.925,53.632 54.002,53.632L86.137,53.632C88.214,53.632 89.9,51.911 89.9,49.792L89.9,18.112Z" style="fill:rgb(224,146,42);"/>
                    <path d="M92.833,18.113C92.833,14.342 89.832,11.28 86.136,11.28C86.136,11.28 54.001,11.28 54.001,11.28C50.306,11.28 47.306,14.341 47.306,18.111C47.306,18.111 47.306,49.791 47.306,49.791C47.306,53.562 50.307,56.624 54.003,56.624C54.003,56.624 86.138,56.624 86.138,56.624C89.833,56.624 92.833,53.563 92.833,49.793C92.833,49.793 92.833,18.113 92.833,18.113ZM89.9,18.112C89.9,15.993 88.214,14.272 86.137,14.272L54.002,14.272C51.925,14.272 50.238,15.993 50.238,18.112L50.238,49.792C50.238,51.911 51.925,53.632 54.002,53.632L86.137,53.632C88.214,53.632 89.9,51.911 89.9,49.792L89.9,18.112Z" style="fill:rgb(251,165,50);"/>
                </g>
                <g transform="matrix(0.337794,0.347154,-0.347293,0.337659,21.4876,-15.16)">
                    <path d="M89.9,18.112C89.9,15.993 88.18,14.272 86.061,14.272L54.078,14.272C51.959,14.272 50.238,15.993 50.238,18.112L50.238,49.792C50.238,51.911 51.959,53.632 54.078,53.632L86.061,53.632C88.18,53.632 89.9,51.911 89.9,49.792L89.9,18.112Z" style="fill:rgb(251,165,50);"/>
                    <path d="M93.148,18.113C93.148,14.201 89.972,11.024 86.059,11.024C86.059,11.024 54.077,11.024 54.077,11.024C50.166,11.024 46.99,14.2 46.99,18.111L46.99,49.791C46.99,53.703 50.167,56.88 54.08,56.88L86.062,56.88C89.973,56.88 93.148,53.704 93.148,49.793L93.148,18.113ZM89.9,18.112C89.9,15.993 88.18,14.272 86.061,14.272L54.078,14.272C51.959,14.272 50.238,15.993 50.238,18.112L50.238,49.792C50.238,51.911 51.959,53.632 54.078,53.632L86.061,53.632C88.18,53.632 89.9,51.911 89.9,49.792L89.9,18.112Z"/>
                </g>
                <g transform="matrix(0.484476,0,0,0.484282,2.35885,0.712242)">
                    <path d="M59.809,40.16L52.171,32.14C51.596,31.537 51.62,30.582 52.222,30.007L54.407,27.927C55.01,27.353 55.965,27.376 56.539,27.979L64.146,35.965L71.955,28.413C72.554,27.834 73.509,27.85 74.088,28.449L76.185,30.617C76.764,31.216 76.748,32.171 76.15,32.75L68.308,40.334L75.829,48.231C76.404,48.834 76.38,49.79 75.778,50.364L73.593,52.444C72.99,53.018 72.035,52.995 71.461,52.392L63.97,44.529L56.045,52.194C55.446,52.772 54.491,52.756 53.912,52.158L51.815,49.99C51.236,49.391 51.252,48.435 51.85,47.857L59.809,40.16Z"/>
                </g>
                <g transform="matrix(0.532995,0,0,0.419437,-0.82015,1.57179)">
                    <path d="M81.309,98.008L79.883,95.295C79.539,94.64 79.949,93.683 80.565,93.571C81.306,93.435 83.051,93.452 83.051,93.452C83.914,93.468 84.516,93.36 84.861,94.015L95.687,113.64C96.031,114.295 96.977,115.622 96.322,115.966L92.36,116.126C91.335,116.13 90.863,116.187 90.519,115.532L89.233,113.085L39.395,113.072C39.283,113.072 39.175,113.059 39.071,113.035L37.758,115.532C37.414,116.187 36.942,116.13 35.917,116.126L31.955,115.966C31.3,115.622 32.246,114.295 32.59,113.64L43.352,94.141C43.696,93.486 44.003,93.314 45.428,93.337C45.428,93.337 47.366,93.293 47.861,93.619C48.35,93.942 48.738,94.64 48.394,95.295L46.973,97.999L81.309,98.008ZM42.023,107.417L86.26,107.428L84.127,103.37L44.155,103.36L42.023,107.417Z" style="fill:rgb(83,83,83);"/>
                </g>
            </g>
        </g>
    </g>
</svg>
