<?xml version="1.0" encoding="UTF-8" standalone="no"?>
<!DOCTYPE svg PUBLIC "-//W3C//DTD SVG 1.1//EN" "http://www.w3.org/Graphics/SVG/1.1/DTD/svg11.dtd">
<svg width="100%" height="100%" viewBox="0 0 128 128" version="1.1" xmlns="http://www.w3.org/2000/svg" xmlns:xlink="http://www.w3.org/1999/xlink" xml:space="preserve" xmlns:serif="http://www.serif.com/" style="fill-rule:evenodd;clip-rule:evenodd;stroke-linejoin:round;stroke-miterlimit:2;">
    <g id="Vehicles" transform="matrix(0.976563,0,0,0.942198,1.5,1.5)">
        <path d="M64,0L119.426,33.167L119.426,99.501L64,132.668L8.574,99.501L8.574,33.167L64,0Z" style="fill:rgb(255,184,14);"/>
        <clipPath id="_clip1">
            <path d="M64,0L119.426,33.167L119.426,99.501L64,132.668L8.574,99.501L8.574,33.167L64,0Z"/>
        </clipPath>
        <g clip-path="url(#_clip1)">
            <g id="TrafficBottleneck" transform="matrix(1.54513,0,0,1.60148,13.8333,15.0393)">
                <g id="car-3" serif:id="car 3" transform="matrix(0.841641,0,0,0.835025,-4.20257,-13.9009)">
                    <g transform="matrix(1,0,0,1,-2.97333,-3.92577)">
                        <path d="M24.944,48.964C24.944,48.125 24.268,47.443 23.435,47.443L20.417,47.443C19.584,47.443 18.907,48.125 18.907,48.964L18.907,54.689C18.907,55.529 19.584,56.21 20.417,56.21L23.435,56.21C24.268,56.21 24.944,55.529 24.944,54.689L24.944,48.964Z" style="fill:rgb(83,83,83);"/>
                    </g>
                    <g transform="matrix(1,0,0,1,23.234,-3.60563)">
                        <path d="M24.944,48.964C24.944,48.125 24.268,47.443 23.435,47.443L20.417,47.443C19.584,47.443 18.907,48.125 18.907,48.964L18.907,54.689C18.907,55.529 19.584,56.21 20.417,56.21L23.435,56.21C24.268,56.21 24.944,55.529 24.944,54.689L24.944,48.964Z" style="fill:rgb(83,83,83);"/>
                    </g>
                    <g transform="matrix(1.13503,0,0,0.801117,-7.69224,8.88893)">
                        <path d="M50.507,39.882L19.434,39.846C19.434,39.846 19.297,37.622 20.139,35.636C20.628,34.482 23.811,19.23 25.206,18.648C27.992,17.485 42.913,17.928 44.977,18.703C47.012,19.466 49.031,32.881 49.982,35.065C50.268,35.722 50.426,36.933 50.485,37.995C50.542,39.004 50.507,39.882 50.507,39.882Z" style="fill:rgb(105,218,255);"/>
                    </g>
                    <g transform="matrix(1,0,0,1,0.16049,-1.9171)">
                        <path d="M15.885,37.388C15.885,37.018 15.586,36.717 15.219,36.717L13.018,36.717C12.651,36.717 12.353,37.018 12.353,37.388L12.353,38.731C12.353,39.101 12.651,39.402 13.018,39.402L15.219,39.402C15.586,39.402 15.885,39.101 15.885,38.731L15.885,37.388Z" style="fill:rgb(105,218,255);"/>
                    </g>
                    <g transform="matrix(1,0,0,1,35.2435,-1.9171)">
                        <path d="M15.885,37.388C15.885,37.018 15.586,36.717 15.219,36.717L13.018,36.717C12.651,36.717 12.353,37.018 12.353,37.388L12.353,38.731C12.353,39.101 12.651,39.402 13.018,39.402L15.219,39.402C15.586,39.402 15.885,39.101 15.885,38.731L15.885,37.388Z" style="fill:rgb(105,218,255);"/>
                    </g>
                    <g transform="matrix(0.919841,0,0,0.390879,0.175282,17.8542)">
                        <path d="M49.641,44.748C49.53,45.374 20.587,46.308 20.362,44.371C19.988,41.148 22.728,20.064 24.373,18.536C25.862,17.153 43.492,17.367 45.423,18.66C47.231,19.869 50.19,41.643 49.641,44.748Z" style="fill:rgb(231,239,241);"/>
                    </g>
                    <g transform="matrix(1.02678,0,0,1.20915,-0.856901,-15.1997)">
                        <path d="M49.174,45.45C49.174,45.043 48.788,44.713 48.313,44.713L15.687,44.713C15.212,44.713 14.826,45.043 14.826,45.45L14.826,51.349C14.826,51.756 15.212,52.086 15.687,52.086L48.313,52.086C48.788,52.086 49.174,51.756 49.174,51.349L49.174,45.45Z" style="fill:rgb(105,218,255);"/>
                    </g>
                    <g transform="matrix(1,0,0,1.55454,-0.345216,-26.1794)">
                        <path d="M24.858,43.311C24.858,43.054 24.535,42.844 24.138,42.844L19.14,42.844C18.742,42.844 18.419,43.054 18.419,43.311L18.419,44.246C18.419,44.503 18.742,44.713 19.14,44.713L24.138,44.713C24.535,44.713 24.858,44.503 24.858,44.246L24.858,43.311Z" style="fill:rgb(255,231,159);"/>
                    </g>
                    <g transform="matrix(1,0,0,1.55454,21.0678,-26.1794)">
                        <path d="M24.858,43.311C24.858,43.054 24.535,42.844 24.138,42.844L19.14,42.844C18.742,42.844 18.419,43.054 18.419,43.311L18.419,44.246C18.419,44.503 18.742,44.713 19.14,44.713L24.138,44.713C24.535,44.713 24.858,44.503 24.858,44.246L24.858,43.311Z" style="fill:rgb(255,231,159);"/>
                    </g>
                    <g transform="matrix(1,0,0,1,-0.138996,4.43131)">
                        <rect x="25.612" y="39.486" width="13.413" height="0.518" style="fill:rgb(83,83,83);"/>
                    </g>
                </g>
                <g id="car-2" serif:id="car 2" transform="matrix(0.906383,0,0,0.906383,12.2648,-9.87065)">
                    <g transform="matrix(1,0,0,1,-2.97333,-3.92577)">
                        <path d="M24.944,48.952C24.944,48.12 24.268,47.443 23.435,47.443L20.417,47.443C19.584,47.443 18.907,48.12 18.907,48.952L18.907,54.701C18.907,55.534 19.584,56.21 20.417,56.21L23.435,56.21C24.268,56.21 24.944,55.534 24.944,54.701L24.944,48.952Z" style="fill:rgb(69,69,69);"/>
                    </g>
                    <g transform="matrix(1,0,0,1,23.234,-3.60563)">
                        <path d="M24.944,48.952C24.944,48.12 24.268,47.443 23.435,47.443L20.417,47.443C19.584,47.443 18.907,48.12 18.907,48.952L18.907,54.701C18.907,55.534 19.584,56.21 20.417,56.21L23.435,56.21C24.268,56.21 24.944,55.534 24.944,54.701L24.944,48.952Z" style="fill:rgb(69,69,69);"/>
                    </g>
                    <g transform="matrix(1.13503,0,0,0.801117,-7.69224,8.88893)">
                        <path d="M50.507,39.882L19.434,39.846C19.434,39.846 19.297,37.622 20.139,35.636C20.628,34.482 23.811,19.23 25.206,18.648C27.992,17.485 42.913,17.928 44.977,18.703C47.012,19.466 49.031,32.881 49.982,35.065C50.268,35.722 50.426,36.933 50.485,37.995C50.542,39.004 50.507,39.882 50.507,39.882Z" style="fill:rgb(0,191,254);"/>
                    </g>
                    <g transform="matrix(1,0,0,1,0.16049,-1.9171)">
                        <path d="M15.885,37.388C15.885,37.018 15.584,36.717 15.214,36.717L13.024,36.717C12.653,36.717 12.353,37.018 12.353,37.388L12.353,38.731C12.353,39.101 12.653,39.402 13.024,39.402L15.214,39.402C15.584,39.402 15.885,39.101 15.885,38.731L15.885,37.388Z" style="fill:rgb(0,191,254);"/>
                    </g>
                    <g transform="matrix(1,0,0,1,35.2435,-1.9171)">
                        <path d="M15.885,37.388C15.885,37.018 15.584,36.717 15.214,36.717L13.024,36.717C12.653,36.717 12.353,37.018 12.353,37.388L12.353,38.731C12.353,39.101 12.653,39.402 13.024,39.402L15.214,39.402C15.584,39.402 15.885,39.101 15.885,38.731L15.885,37.388Z" style="fill:rgb(0,191,254);"/>
                    </g>
                    <g transform="matrix(1.03169,0,0,0.453264,-3.81896,16.7635)">
                        <path d="M48.048,41.125C47.537,41.374 22.256,42.694 21.165,41.125C20.543,40.23 24.26,19.876 25.905,18.348C27.394,16.965 42.148,17.367 44.079,18.66C45.887,19.869 49.447,40.442 48.048,41.125Z" style="fill:rgb(215,234,239);"/>
                    </g>
                    <g transform="matrix(1.02678,0,0,1.20915,-0.856901,-15.1997)">
                        <path d="M49.174,45.45C49.174,45.043 48.785,44.713 48.306,44.713L15.694,44.713C15.215,44.713 14.826,45.043 14.826,45.45L14.826,51.349C14.826,51.756 15.215,52.086 15.694,52.086L48.306,52.086C48.785,52.086 49.174,51.756 49.174,51.349L49.174,45.45Z" style="fill:rgb(0,191,254);"/>
                    </g>
                    <g transform="matrix(1,0,0,1.55454,-0.345216,-26.1794)">
                        <path d="M24.858,43.311C24.858,43.054 24.533,42.844 24.132,42.844L19.146,42.844C18.745,42.844 18.419,43.054 18.419,43.311L18.419,44.246C18.419,44.503 18.745,44.713 19.146,44.713L24.132,44.713C24.533,44.713 24.858,44.503 24.858,44.246L24.858,43.311Z" style="fill:rgb(255,217,102);"/>
                    </g>
                    <g transform="matrix(1,0,0,1.55454,21.0678,-26.1794)">
                        <path d="M24.858,43.311C24.858,43.054 24.533,42.844 24.132,42.844L19.146,42.844C18.745,42.844 18.419,43.054 18.419,43.311L18.419,44.246C18.419,44.503 18.745,44.713 19.146,44.713L24.132,44.713C24.533,44.713 24.858,44.503 24.858,44.246L24.858,43.311Z" style="fill:rgb(255,217,102);"/>
                    </g>
                    <g transform="matrix(1,0,0,1,-0.138996,4.43131)">
                        <rect x="25.612" y="39.486" width="13.413" height="0.518" style="fill:rgb(69,69,69);"/>
                    </g>
                </g>
                <g id="car-1" serif:id="car 1" transform="matrix(1.03587,0,0,1.03587,-0.961912,4.0476)">
                    <g transform="matrix(1,0,0,1,-2.97333,-3.92577)">
                        <path d="M24.944,48.952C24.944,48.12 24.268,47.443 23.435,47.443L20.417,47.443C19.584,47.443 18.907,48.12 18.907,48.952L18.907,54.701C18.907,55.534 19.584,56.21 20.417,56.21L23.435,56.21C24.268,56.21 24.944,55.534 24.944,54.701L24.944,48.952Z" style="fill:rgb(53,53,53);"/>
                    </g>
                    <g transform="matrix(1,0,0,1,23.234,-3.60563)">
                        <path d="M24.944,48.952C24.944,48.12 24.268,47.443 23.435,47.443L20.417,47.443C19.584,47.443 18.907,48.12 18.907,48.952L18.907,54.701C18.907,55.534 19.584,56.21 20.417,56.21L23.435,56.21C24.268,56.21 24.944,55.534 24.944,54.701L24.944,48.952Z" style="fill:rgb(53,53,53);"/>
                    </g>
                    <g transform="matrix(1.13503,0,0,0.801117,-7.69224,8.88893)">
                        <path d="M50.507,39.882L19.434,39.846C19.434,39.846 19.297,37.622 20.139,35.636C20.628,34.482 23.811,19.23 25.206,18.648C27.992,17.485 42.913,17.928 44.977,18.703C47.012,19.466 49.031,32.881 49.982,35.065C50.268,35.722 50.426,36.933 50.485,37.995C50.542,39.004 50.507,39.882 50.507,39.882Z" style="fill:rgb(0,137,182);"/>
                    </g>
                    <g transform="matrix(1,0,0,1,0.16049,-1.9171)">
                        <path d="M15.885,37.388C15.885,37.018 15.584,36.717 15.214,36.717L13.024,36.717C12.653,36.717 12.353,37.018 12.353,37.388L12.353,38.731C12.353,39.101 12.653,39.402 13.024,39.402L15.214,39.402C15.584,39.402 15.885,39.101 15.885,38.731L15.885,37.388Z" style="fill:rgb(0,137,182);"/>
                    </g>
                    <g transform="matrix(1,0,0,1,35.2435,-1.9171)">
                        <path d="M15.885,37.388C15.885,37.018 15.584,36.717 15.214,36.717L13.024,36.717C12.653,36.717 12.353,37.018 12.353,37.388L12.353,38.731C12.353,39.101 12.653,39.402 13.024,39.402L15.214,39.402C15.584,39.402 15.885,39.101 15.885,38.731L15.885,37.388Z" style="fill:rgb(0,137,182);"/>
                    </g>
                    <g transform="matrix(1.03169,0,0,0.453264,-3.81896,16.7635)">
                        <path d="M48.093,40.298C48.206,41.459 22.475,40.911 21.888,39.982C21.376,39.17 24.258,19.559 24.853,18.655C26.19,16.622 43.2,17.387 45.133,18.66C45.709,19.038 47.119,30.265 48.093,40.298Z" style="fill:rgb(191,227,237);"/>
                    </g>
                    <g transform="matrix(1.02678,0,0,1.20915,-0.856901,-15.1997)">
                        <path d="M49.174,45.45C49.174,45.043 48.785,44.713 48.306,44.713L15.694,44.713C15.215,44.713 14.826,45.043 14.826,45.45L14.826,51.349C14.826,51.756 15.215,52.086 15.694,52.086L48.306,52.086C48.785,52.086 49.174,51.756 49.174,51.349L49.174,45.45Z" style="fill:rgb(0,137,182);"/>
                    </g>
                    <g transform="matrix(1,0,0,1.55454,-0.345216,-26.1794)">
                        <path d="M24.858,43.311C24.858,43.054 24.533,42.844 24.132,42.844L19.146,42.844C18.745,42.844 18.419,43.054 18.419,43.311L18.419,44.246C18.419,44.503 18.745,44.713 19.146,44.713L24.132,44.713C24.533,44.713 24.858,44.503 24.858,44.246L24.858,43.311Z" style="fill:rgb(254,204,52);"/>
                    </g>
                    <g transform="matrix(1,0,0,1.55454,21.0678,-26.1794)">
                        <path d="M24.858,43.311C24.858,43.054 24.533,42.844 24.132,42.844L19.146,42.844C18.745,42.844 18.419,43.054 18.419,43.311L18.419,44.246C18.419,44.503 18.745,44.713 19.146,44.713L24.132,44.713C24.533,44.713 24.858,44.503 24.858,44.246L24.858,43.311Z" style="fill:rgb(254,204,52);"/>
                    </g>
                    <g transform="matrix(1,0,0,1,-0.138996,4.43131)">
                        <rect x="25.612" y="39.486" width="13.413" height="0.518" style="fill:rgb(53,53,53);"/>
                    </g>
                </g>
            </g>
        </g>
    </g>
</svg>
