<?xml version="1.0" encoding="UTF-8" standalone="no"?>
<!DOCTYPE svg PUBLIC "-//W3C//DTD SVG 1.1//EN" "http://www.w3.org/Graphics/SVG/1.1/DTD/svg11.dtd">
<svg width="100%" height="100%" viewBox="0 0 128 128" version="1.1" xmlns="http://www.w3.org/2000/svg" xmlns:xlink="http://www.w3.org/1999/xlink" xml:space="preserve" xmlns:serif="http://www.serif.com/" style="fill-rule:evenodd;clip-rule:evenodd;stroke-linejoin:round;stroke-miterlimit:2;">
    <g id="Vehicles" transform="matrix(0.976563,0,0,0.942198,1.5,1.5)">
        <path d="M64,0L119.426,33.167L119.426,99.501L64,132.668L8.574,99.501L8.574,33.167L64,0Z" style="fill:rgb(255,184,14);"/>
        <clipPath id="_clip1">
            <path d="M64,0L119.426,33.167L119.426,99.501L64,132.668L8.574,99.501L8.574,33.167L64,0Z"/>
        </clipPath>
        <g clip-path="url(#_clip1)">
            <g id="TrafficAccident" transform="matrix(1.69636,0,0,2.46122,6.80917,20.9274)">
                <g transform="matrix(1.78928,0.17572,-0.206338,1.07223,-26.8979,-22.8655)">
                    <path d="M42.419,14.949L43.326,26.11L50.147,20.817L46.896,28.535L54.197,28.675L52.025,29.809C52.025,29.809 49.249,31.25 47.953,31.935C49.332,32.776 52.299,34.449 52.299,34.449L53.832,35.404L48.138,36.157L51.535,43.21L44.129,37.436L42.641,44.03L40.708,37.436L33.572,42.394L37.941,35.335L29.913,36.182L35.926,32.334L26.332,26.156L36.498,27.632L34.69,20.817L40.097,25.281L42.419,14.949Z" style="fill:rgb(229,99,51);"/>
                </g>
                <g transform="matrix(0.501181,0,0,0.368498,-0.199218,-0.611197)">
                    <path d="M37.333,17.937C36.507,16.475 36.041,14.818 36.041,13.063C36.041,10.774 36.457,8.3 39.092,4.863C43.885,-1.389 49.425,-2.137 54.546,-2.137C61.92,-2.136 66.963,2.844 68.668,6.864C69.448,8.702 69.407,9.928 69.778,11.983C71.873,12.017 73.82,12.687 75.446,13.813C76.565,13.347 77.792,13.089 79.08,13.089C84.297,13.089 88.533,17.325 88.533,22.543C88.533,25.326 87.328,27.831 85.411,29.561C85.648,29.753 85.875,29.955 86.091,30.169C87.053,29.818 88.108,29.624 89.214,29.624C93.716,29.624 97.371,32.837 97.371,36.794C97.371,39.077 96.155,41.112 94.261,42.426C94.102,43.536 93.422,44.506 92.442,45.141C92.669,45.793 92.794,46.497 92.794,47.231C92.794,47.631 92.757,48.022 92.686,48.401C94.211,49.057 95.312,50.104 95.66,51.325C96.552,52.718 95.686,56.041 96.119,56.25C97.161,56.755 102.005,58.321 102.005,61.694C102.005,65.631 96.872,68.106 93.924,67.813C93.015,67.722 96.97,65.402 97.545,62.193C95.084,61.464 91.268,60.279 90.397,57.906C90.254,57.519 90.2,57.058 90.22,56.56C89.813,56.61 89.393,56.636 88.964,56.636C87.538,56.636 86.214,56.347 85.12,55.854C84.33,56.295 83.399,56.55 82.402,56.55C80.399,56.55 78.661,55.521 77.803,54.017C77.515,54.035 77.223,54.043 76.928,54.043C71.833,54.043 67.696,51.393 67.696,48.128C67.696,45.747 69.894,43.693 73.059,42.755C71.287,41.141 70.182,38.862 70.182,36.337C70.182,35.397 70.335,34.49 70.619,33.64C70.287,33.673 69.949,33.69 69.608,33.69C68.101,33.69 66.668,33.361 65.372,32.77C64.59,33.986 63.201,34.795 61.62,34.795C60.792,34.795 60.017,34.573 59.354,34.187C57.151,35.892 54.288,36.922 51.16,36.922C44.203,36.922 38.555,31.823 38.555,25.543C38.555,24.823 38.63,24.118 38.772,23.435C37.549,22.754 36.725,21.475 36.725,20.011C36.725,19.25 36.948,18.539 37.333,17.937Z" style="fill:white;"/>
                </g>
                <g transform="matrix(-1.06791,0.0820331,0.0611081,1.23139,65.1179,-20.0024)">
                    <path d="M22.434,32.792L22.8,24.697C22.8,24.697 23.788,24.826 24.175,25.389C24.774,26.261 25.574,32.568 25.574,32.568C25.574,32.568 31.02,26.047 33.025,25.393C34.559,24.894 44.968,24.32 46.708,24.718C47.913,24.993 51.789,30.164 52.094,30.325C52.698,30.644 55.311,30.394 56.14,30.897C56.99,31.413 57.026,35.504 57.026,35.504L16.004,38.122L16.014,37.415L17.184,31.852L18.814,34.001L20.333,28.619L22.434,32.792Z" style="fill:rgb(57,194,255);"/>
                </g>
                <g transform="matrix(0.586211,0,0,0.438443,-5.29406,-10.1964)">
                    <path d="M77.758,84.131C79.414,82.195 81.864,80.968 84.596,80.968C87.337,80.968 89.794,82.203 91.45,84.15L94.44,84.154C95.58,84.154 95.534,84.982 95.534,86.122L95.534,90.252C95.534,91.392 95.58,92.415 94.44,92.415L21.171,92.317C20.031,92.317 19.105,91.392 19.105,90.252L19.105,86.122C19.105,84.982 20.031,84.056 21.171,84.056L26.75,84.064C28.403,82.21 30.8,81.043 33.464,81.043C36.137,81.043 38.541,82.217 40.194,84.082L77.758,84.131ZM85.342,84.141L83.867,84.14C84.106,84.11 84.349,84.095 84.596,84.095C84.849,84.095 85.097,84.111 85.342,84.141Z" style="fill:rgb(57,194,255);"/>
                </g>
                <g transform="matrix(0.952086,0,0,0.885323,-1.56298,-7.10676)">
                    <path d="M26.706,25.585C28.637,25.576 31.383,25.49 32.541,25.92C34.988,26.83 39.179,32.329 39.179,32.329L26.752,32.207L26.706,25.585ZM25.641,25.608L25.687,32.228L17.344,32.181C17.344,32.181 19.678,26.9 21.107,26.105C21.817,25.71 23.44,25.643 25.641,25.608Z" style="fill:rgb(218,245,255);"/>
                </g>
                <g transform="matrix(1.39003,0,0,0.987031,-5.13211,-2.72913)">
                    <ellipse cx="13.842" cy="33.223" rx="3.908" ry="3.865" style="fill:rgb(51,29,29);"/>
                </g>
                <g transform="matrix(1.39003,0,0,1.00404,24.9443,-3.35982)">
                    <ellipse cx="13.842" cy="33.223" rx="3.908" ry="3.865" style="fill:rgb(51,29,29);"/>
                </g>
                <g transform="matrix(1.34165,0,0,0.958441,-6.88397,-9.75855)">
                    <circle cx="15.584" cy="41.569" r="2.302" style="fill:rgb(206,208,209);"/>
                </g>
                <g transform="matrix(1.34165,0,0,0.958441,23.3537,-9.75855)">
                    <circle cx="15.584" cy="41.569" r="2.302" style="fill:rgb(206,208,209);"/>
                </g>
            </g>
        </g>
    </g>
</svg>
