<?xml version="1.0" encoding="UTF-8" standalone="no"?>
<!DOCTYPE svg PUBLIC "-//W3C//DTD SVG 1.1//EN" "http://www.w3.org/Graphics/SVG/1.1/DTD/svg11.dtd">
<svg width="100%" height="100%" viewBox="0 0 128 128" version="1.1" xmlns="http://www.w3.org/2000/svg" xmlns:xlink="http://www.w3.org/1999/xlink" xml:space="preserve" xmlns:serif="http://www.serif.com/" style="fill-rule:evenodd;clip-rule:evenodd;stroke-linejoin:round;stroke-miterlimit:2;">
    <g id="Citizens" transform="matrix(0.93747,0,0,0.917643,6.5039,9.04172)">
        <path d="M128,20.294C128,4.558 115.494,-8.219 100.09,-8.219L22.572,-8.219C7.168,-8.219 -5.338,4.558 -5.338,20.294L-5.338,77.32C-5.338,93.056 7.168,105.832 22.572,105.832L60.791,105.832L100.622,128L100.09,105.832C115.494,105.832 128,93.056 128,77.32L128,20.294Z" style="fill:rgb(37,93,149);"/>
        <clipPath id="_clip1">
            <path d="M128,20.294C128,4.558 115.494,-8.219 100.09,-8.219L22.572,-8.219C7.168,-8.219 -5.338,4.558 -5.338,20.294L-5.338,77.32C-5.338,93.056 7.168,105.832 22.572,105.832L60.791,105.832L100.622,128L100.09,105.832C115.494,105.832 128,93.056 128,77.32L128,20.294Z"/>
        </clipPath>
        <g clip-path="url(#_clip1)">
            <g id="Unemployed" transform="matrix(2.49805,0,0,2.7233,-28.5618,5.53658)">
                <g>
                    <g transform="matrix(3.65183,0,0,3.50013,17.7261,18.4449)">
                        <path d="M3,0L7,0C8.646,-0 10,1.354 10,3L10,9C10,9.549 9.549,10 9,10L1,10C0.451,10 0,9.549 0,9L0,3C-0,1.354 1.354,0 3,0Z" style="fill:rgb(136,241,255);fill-rule:nonzero;"/>
                        <path d="M3,-0.425C1.118,-0.425 -0.435,1.118 -0.435,3L-0.435,9C-0.435,9.784 0.216,10.425 1,10.425C1,10.425 9,10.425 9,10.425C9.784,10.425 10.435,9.784 10.435,9C10.435,9 10.435,3 10.435,3C10.435,1.118 8.882,-0.425 7,-0.425L3,-0.425ZM3,0L7,0C8.646,0 10,1.354 10,3L10,9C10,9.549 9.549,10 9,10L1,10C0.451,10 0,9.549 0,9L0,3C0,1.354 1.354,0 3,0Z" style="fill:rgb(37,93,149);"/>
                    </g>
                    <g transform="matrix(3.6949,0,0,3.50977,-1142.79,850.368)">
                        <path d="M315.778,-236.755L315.52,-227.059L322.388,-227.059L322.265,-236.761C321.949,-236.912 321.619,-237.013 321.273,-237.032L321.104,-233.901L316.769,-233.901L316.676,-237.017C316.331,-237.01 316.077,-236.918 315.778,-236.755Z" style="fill:rgb(203,107,47);fill-rule:nonzero;"/>
                        <path d="M315.612,-237.051C315.506,-236.993 315.438,-236.883 315.435,-236.764L315.177,-227.068C315.175,-226.977 315.21,-226.888 315.274,-226.823C315.339,-226.758 315.427,-226.721 315.52,-226.721L322.388,-226.721C322.48,-226.721 322.568,-226.757 322.632,-226.821C322.696,-226.886 322.732,-226.973 322.731,-227.063L322.608,-236.766C322.606,-236.894 322.531,-237.01 322.414,-237.066C322.057,-237.236 321.683,-237.348 321.292,-237.369C321.201,-237.374 321.112,-237.343 321.044,-237.283C320.977,-237.223 320.936,-237.139 320.931,-237.05L320.779,-234.239C320.779,-234.239 317.102,-234.239 317.102,-234.239C317.102,-234.239 317.019,-237.027 317.019,-237.027C317.013,-237.213 316.857,-237.359 316.669,-237.355C316.263,-237.347 315.963,-237.243 315.612,-237.051ZM315.778,-236.755L315.52,-227.059L322.388,-227.059L322.265,-236.761C321.949,-236.912 321.619,-237.013 321.273,-237.032L321.104,-233.901L316.769,-233.901L316.676,-237.017C316.331,-237.01 316.077,-236.918 315.778,-236.755Z" style="fill:rgb(37,93,149);"/>
                    </g>
                    <g transform="matrix(2.74168,0,0,2.95925,-11.4963,-146.666)">
                        <ellipse cx="17.242" cy="53.287" rx="4.045" ry="3.878" style="fill:rgb(136,241,255);"/>
                        <path d="M17.242,48.906C14.706,48.906 12.617,50.856 12.617,53.287C12.617,55.718 14.706,57.668 17.242,57.668C19.777,57.668 21.866,55.718 21.866,53.287C21.866,50.856 19.777,48.906 17.242,48.906ZM17.242,49.409C19.474,49.409 21.287,51.147 21.287,53.287C21.287,55.427 19.474,57.165 17.242,57.165C15.009,57.165 13.197,55.427 13.197,53.287C13.197,51.147 15.009,49.409 17.242,49.409Z" style="fill:rgb(37,93,149);"/>
                    </g>
                    <g transform="matrix(1,0,0,1,-6.35027,16.6241)">
                        <g transform="matrix(1.12574,0,0,1.1587,14.2091,-45.0874)">
                            <path d="M17.402,38.715L21.041,38.719L23.455,40.488L24.839,40.841L26.077,40.933L26.626,41.653C26.626,41.653 28.224,43.239 29.669,46.321C30.518,48.131 30.703,50.47 30.65,50.081L32.211,50.272L32.46,52.34L5.799,52.798L5.705,50.827L7.267,50.445C7.267,50.445 7.885,48.127 8.538,46.642C10.309,42.612 12.13,41.653 12.13,41.653L12.492,40.923L13.9,40.755L14.704,40.556L17.402,38.715Z" style="fill:rgb(255,192,46);fill-opacity:0.98;fill-rule:nonzero;"/>
                            <path d="M31.699,49.131C31.552,48.27 31.263,46.998 30.749,45.901C29.376,42.972 27.862,41.316 27.549,40.99C27.55,40.991 27.041,40.324 27.041,40.324C26.841,40.061 26.522,39.893 26.172,39.867L25.047,39.784C25.047,39.784 24.003,39.518 24.003,39.518C24.003,39.518 21.777,37.886 21.777,37.886C21.569,37.734 21.31,37.65 21.042,37.65L17.404,37.646C17.149,37.645 16.901,37.72 16.698,37.859L14.18,39.578C14.18,39.578 13.67,39.704 13.67,39.704C13.67,39.704 12.339,39.863 12.339,39.863C11.936,39.911 11.588,40.146 11.421,40.483L11.19,40.951C10.507,41.441 8.937,42.855 7.448,46.245C6.984,47.3 6.537,48.758 6.3,49.575C6.3,49.574 5.4,49.794 5.4,49.794C4.869,49.924 4.508,50.373 4.532,50.874L4.626,52.844C4.654,53.424 5.185,53.878 5.822,53.867L32.482,53.409C32.812,53.403 33.123,53.272 33.341,53.046C33.559,52.821 33.663,52.522 33.627,52.224L33.378,50.156C33.32,49.667 32.903,49.278 32.368,49.213L31.699,49.131ZM30.656,50.082L32.211,50.272L32.46,52.34L5.799,52.798L5.705,50.827L7.267,50.445C7.267,50.445 7.885,48.127 8.538,46.642C10.309,42.612 12.13,41.653 12.13,41.653L12.492,40.923L13.9,40.755L14.704,40.556L17.402,38.715L21.041,38.719L23.455,40.488L24.839,40.841L26.077,40.933L26.626,41.653C26.626,41.653 28.224,43.239 29.669,46.321C30.389,47.858 30.632,49.775 30.656,50.082ZM30.656,50.082L30.65,50.081C30.658,50.14 30.661,50.136 30.656,50.082Z" style="fill:rgb(37,93,149);fill-opacity:0.98;"/>
                        </g>
                        <g transform="matrix(0.427013,0,0,0.400157,10.1948,-5.40387)">
                            <path d="M90.084,44.617L28.878,45.639L28.559,46.899L90.221,45.847L90.084,44.617Z" style="fill:rgb(235,158,7);"/>
                        </g>
                        <g transform="matrix(0.398113,0.144711,0.154423,-0.373074,13.583,9.42182)">
                            <path d="M58.418,27.685L61.01,40.571L59.061,41.888L58.418,27.685Z" style="fill:rgb(235,158,7);"/>
                        </g>
                        <g transform="matrix(0.427013,0,0,0.400157,13.9254,-3.64034)">
                            <path d="M69.411,14.948L66.147,14.682L63.675,27.957L69.411,14.948Z" style="fill:rgb(255,220,109);"/>
                        </g>
                        <g transform="matrix(-0.606627,0.263665,-0.235304,-0.679743,73.5409,15.2643)">
                            <path d="M58.378,33.434L59.629,40.82L58.459,41.687L58.378,33.434Z" style="fill:rgb(235,158,7);"/>
                        </g>
                        <g transform="matrix(-0.650665,0,0,0.729088,73.0193,-8.53498)">
                            <path d="M68.782,14.918L66.575,14.661L65.716,22.583L68.782,14.918Z" style="fill:rgb(255,220,109);"/>
                        </g>
                        <g transform="matrix(-0.398113,0.220754,-0.154423,-0.569118,61.4415,10.5127)">
                            <path d="M59.882,25.605L61.885,39.129L53.989,39.816L59.882,25.605Z" style="fill:rgb(235,158,7);"/>
                        </g>
                        <g transform="matrix(0.398113,0.220754,0.154423,-0.569118,9.95214,10.5127)">
                            <path d="M59.882,25.605L61.798,39.234L54.651,40.059L59.882,25.605Z" style="fill:rgb(235,158,7);"/>
                        </g>
                        <g transform="matrix(0.427013,0,0,0.610433,8.65637,-8.50039)">
                            <path d="M68.474,13.563L58.881,13.563L58.526,28.93C61.276,32.551 64.717,32.437 68.123,28.93L68.474,13.563Z" style="fill:rgb(255,220,109);"/>
                        </g>
                    </g>
                    <g transform="matrix(1.57585,0,0,1.4909,2.17023,-43.5027)">
                        <ellipse cx="17.242" cy="53.287" rx="4.045" ry="3.878" style="fill:rgb(136,241,255);"/>
                        <path d="M17.242,48.874C14.707,48.874 12.657,50.856 12.657,53.287C12.657,55.718 14.707,57.7 17.242,57.7C19.777,57.7 21.826,55.718 21.826,53.287C21.826,50.856 19.777,48.874 17.242,48.874ZM17.242,49.409C19.474,49.409 21.287,51.147 21.287,53.287C21.287,55.427 19.474,57.165 17.242,57.165C15.009,57.165 13.197,55.427 13.197,53.287C13.197,51.147 15.009,49.409 17.242,49.409Z" style="fill:rgb(37,93,149);"/>
                    </g>
                </g>
            </g>
        </g>
    </g>
</svg>
