<?xml version="1.0" encoding="UTF-8" standalone="no"?>
<!DOCTYPE svg PUBLIC "-//W3C//DTD SVG 1.1//EN" "http://www.w3.org/Graphics/SVG/1.1/DTD/svg11.dtd">
<svg width="100%" height="100%" viewBox="0 0 128 128" version="1.1" xmlns="http://www.w3.org/2000/svg" xmlns:xlink="http://www.w3.org/1999/xlink" xml:space="preserve" xmlns:serif="http://www.serif.com/" style="fill-rule:evenodd;clip-rule:evenodd;stroke-linejoin:round;stroke-miterlimit:2;">
    <g id="Resources" transform="matrix(0.976563,0,0,0.976563,1.5,1.5)">
        <path d="M128,25.6C128,11.471 116.529,0 102.4,0L25.6,0C11.471,0 0,11.471 0,25.6L0,102.4C0,116.529 11.471,128 25.6,128L102.4,128C116.529,128 128,116.529 128,102.4L128,25.6Z" style="fill:rgb(255,231,185);"/>
    </g>
    <g id="Building-base" serif:id="Building base" transform="matrix(1.82158,0,0,1.82158,5.59994,10.5004)">
        <g>
            <path d="M14.199,29.37L33.082,14.921L50.702,29.37L47.918,34.718L51.589,40.17L46.916,46.593L50.556,51.826L14.852,51.826L18.725,45.679L14.006,40.176L18.172,34.718L14.199,29.37Z" style="fill:rgb(173,121,82);"/>
            <g transform="matrix(0.997578,0.209702,-0.209702,0.997578,5.77043,-3.579)">
                <path d="M24.645,13.056L32.608,6.201L55.569,26.709L50.192,26.741L32.56,11.388L15.122,26.905L8.431,27.014L18.477,18.366L18.477,9.433L24.645,9.433L24.645,13.056Z" style="fill:rgb(29,7,0);"/>
            </g>
            <g transform="matrix(0.935702,0,0,0.918525,-16.7838,-32.4099)">
                <rect x="43.362" y="64.117" width="17.601" height="17.93" style="fill:rgb(57,194,255);"/>
            </g>
            <g transform="matrix(0.935702,0,0,0.918525,-16.7838,-32.4099)">
                <rect x="43.362" y="64.117" width="17.601" height="17.93" style="fill:rgb(42,55,83);"/>
            </g>
        </g>
    </g>
    <g transform="matrix(2.09671,9.86076e-32,-9.86076e-32,1.85689,-6.10945,-35.1665)">
        <g id="WaterDestroyed">
            <g id="Layer4">
                <g>
                    <g id="warning" transform="matrix(0.476938,-1.26636e-32,1.26636e-32,0.538535,3.13644,-15.7954)">
                        <path d="M11.304,97.763C11.21,97.013 11.147,96.25 11.115,95.475L11.115,88.762C18.013,88.762 19.955,92.074 26.853,91.901C37.614,91.63 35.889,86.939 46.65,86.939C56.79,86.939 57.232,92.136 67.375,92.298C74.022,92.405 76.745,87.032 87.646,87.132C93.539,87.186 97.936,91.813 103.102,91.724C108.873,91.624 115.08,88.762 117.066,88.762L117.066,97.762C115.08,97.762 108.873,100.624 103.102,100.724C97.936,100.813 93.539,96.186 87.646,96.132C76.745,96.032 74.022,101.405 67.375,101.298C57.232,101.136 56.79,95.939 46.65,95.939C35.889,95.939 37.614,100.63 26.853,100.901C20.019,101.073 18.049,97.822 11.304,97.763Z" style="fill:rgb(57,194,255);"/>
                    </g>
                    <g id="warning1" serif:id="warning" transform="matrix(0.476938,-1.26636e-32,1.26636e-32,0.538535,3.13644,-8.01555)">
                        <path d="M11.304,97.763C11.21,97.013 11.147,96.25 11.115,95.475L11.115,88.762C18.013,88.762 19.955,92.074 26.853,91.901C37.614,91.63 35.889,86.939 46.65,86.939C56.79,86.939 57.232,92.136 67.375,92.298C74.022,92.405 76.745,87.032 87.646,87.132C93.539,87.186 97.936,91.813 103.102,91.724C108.873,91.624 115.08,88.762 117.066,88.762L117.066,97.762C115.08,97.762 108.873,100.624 103.102,100.724C97.936,100.813 93.539,96.186 87.646,96.132C76.745,96.032 74.022,101.405 67.375,101.298C57.232,101.136 56.79,95.939 46.65,95.939C35.889,95.939 37.614,100.63 26.853,100.901C20.019,101.073 18.049,97.822 11.304,97.763Z" style="fill:rgb(57,194,255);"/>
                    </g>
                    <g id="warning2" serif:id="warning" transform="matrix(0.476938,-1.26636e-32,1.26636e-32,0.538535,3.09316,-0.235729)">
                        <path d="M11.304,97.763C11.21,97.013 11.147,96.25 11.115,95.475L11.115,88.762C18.013,88.762 19.955,92.074 26.853,91.901C37.614,91.63 35.889,86.939 46.65,86.939C56.79,86.939 57.232,92.136 67.375,92.298C74.022,92.405 76.745,87.032 87.646,87.132C93.539,87.186 97.936,91.813 103.102,91.724C108.873,91.624 115.08,88.762 117.066,88.762L117.066,97.762C115.08,97.762 108.873,100.624 103.102,100.724C97.936,100.813 93.539,96.186 87.646,96.132C76.745,96.032 74.022,101.405 67.375,101.298C57.232,101.136 56.79,95.939 46.65,95.939C35.889,95.939 37.614,100.63 26.853,100.901C20.019,101.073 18.049,97.822 11.304,97.763Z" style="fill:rgb(57,194,255);"/>
                    </g>
                </g>
            </g>
        </g>
    </g>
</svg>
