<?xml version="1.0" encoding="UTF-8" standalone="no"?>
<!DOCTYPE svg PUBLIC "-//W3C//DTD SVG 1.1//EN" "http://www.w3.org/Graphics/SVG/1.1/DTD/svg11.dtd">
<svg width="100%" height="100%" viewBox="0 0 128 128" version="1.1" xmlns="http://www.w3.org/2000/svg" xmlns:xlink="http://www.w3.org/1999/xlink" xml:space="preserve" xmlns:serif="http://www.serif.com/" style="fill-rule:evenodd;clip-rule:evenodd;stroke-linejoin:round;stroke-miterlimit:2;">
    <g id="Resources" transform="matrix(0.976563,0,0,0.976563,1.5,1.5)">
        <path d="M128,25.6C128,11.471 116.529,0 102.4,0L25.6,0C11.471,0 0,11.471 0,25.6L0,102.4C0,116.529 11.471,128 25.6,128L102.4,128C116.529,128 128,116.529 128,102.4L128,25.6Z" style="fill:rgb(255,231,185);"/>
    </g>
    <g id="Destroyed" transform="matrix(1.85689,-1.03078e-16,1.03078e-16,1.85689,5.59504,-0.670184)">
        <g>
            <g transform="matrix(-1.24561e-16,1.32605,1.33136,-0.372678,-16.9697,26.314)">
                <path d="M27.396,24.049L10.724,24.07L11.467,26.192L13.749,27.339L14.045,31.192L21.064,31.18L23.421,40.445L16.386,40.605L15.224,44.143L12.118,45.561L12.453,50.267L32.731,50.158L27.396,24.049Z" style="fill:rgb(173,121,82);"/>
            </g>
            <g transform="matrix(-0.989308,-0.145838,-0.145838,0.989308,71.9613,27.4691)">
                <path d="M22.697,14.914L32.608,6.201L55.569,26.709L50.192,26.741L32.56,11.388L15.122,26.905L8.431,27.014L18.526,18.345L17.088,14.446L21.747,12.499L22.697,14.914Z" style="fill:rgb(29,7,0);"/>
            </g>
            <g transform="matrix(0.538535,2.98947e-17,-2.98947e-17,0.538535,-1.48184,7.17994)">
                <path d="M111.635,90.736C111.635,85.909 107.716,81.989 102.888,81.989L20.449,81.989C15.622,81.989 11.702,85.909 11.702,90.736C11.702,95.564 15.622,99.483 20.449,99.483L102.888,99.483C107.716,99.483 111.635,95.564 111.635,90.736Z" style="fill:rgb(67,33,15);"/>
            </g>
            <g transform="matrix(0.894296,4.96434e-17,-1.05155e-16,1,2.36489,-1.94925)">
                <path d="M5.186,55.648C5.767,57.338 6.956,59.423 9.148,60.865C11.08,62.137 13.462,62.667 15.534,62.656C20.624,62.628 44.404,62.777 51.125,62.656C52.48,62.631 54.807,62.265 56.519,61.126C58.028,60.122 58.876,59.344 59.692,58.196C60.724,56.744 60.963,55.554 60.963,55.554L59.696,52.203L54.642,51.545L52.3,47.031L46.097,47.991L42.634,50.497L41.235,46.951L36.804,46.23L33.785,49.752L22.392,52.252L19.128,47.663L14.024,46.641L11.17,48.676L7.12,49.531L3.228,56.023C3.228,56.023 4.975,55.037 5.186,55.648Z" style="fill:rgb(67,33,15);"/>
            </g>
        </g>
    </g>
    <g transform="matrix(2.09671,9.86076e-32,-9.86076e-32,1.85689,-6.10945,-35.1665)">
        <g id="WaterDestroyed">
            <g id="Layer4">
                <g>
                    <g id="warning" transform="matrix(0.476938,-1.26636e-32,1.26636e-32,0.538535,3.13644,-15.7954)">
                        <path d="M11.304,97.763C11.21,97.013 11.147,96.25 11.115,95.475L11.115,88.762C18.013,88.762 19.955,92.074 26.853,91.901C37.614,91.63 35.889,86.939 46.65,86.939C56.79,86.939 57.232,92.136 67.375,92.298C74.022,92.405 76.745,87.032 87.646,87.132C93.539,87.186 97.936,91.813 103.102,91.724C108.873,91.624 115.08,88.762 117.066,88.762L117.066,97.762C115.08,97.762 108.873,100.624 103.102,100.724C97.936,100.813 93.539,96.186 87.646,96.132C76.745,96.032 74.022,101.405 67.375,101.298C57.232,101.136 56.79,95.939 46.65,95.939C35.889,95.939 37.614,100.63 26.853,100.901C20.019,101.073 18.049,97.822 11.304,97.763Z" style="fill:rgb(57,194,255);"/>
                    </g>
                    <g id="warning1" serif:id="warning" transform="matrix(0.476938,-1.26636e-32,1.26636e-32,0.538535,3.13644,-8.01555)">
                        <path d="M11.304,97.763C11.21,97.013 11.147,96.25 11.115,95.475L11.115,88.762C18.013,88.762 19.955,92.074 26.853,91.901C37.614,91.63 35.889,86.939 46.65,86.939C56.79,86.939 57.232,92.136 67.375,92.298C74.022,92.405 76.745,87.032 87.646,87.132C93.539,87.186 97.936,91.813 103.102,91.724C108.873,91.624 115.08,88.762 117.066,88.762L117.066,97.762C115.08,97.762 108.873,100.624 103.102,100.724C97.936,100.813 93.539,96.186 87.646,96.132C76.745,96.032 74.022,101.405 67.375,101.298C57.232,101.136 56.79,95.939 46.65,95.939C35.889,95.939 37.614,100.63 26.853,100.901C20.019,101.073 18.049,97.822 11.304,97.763Z" style="fill:rgb(57,194,255);"/>
                    </g>
                    <g id="warning2" serif:id="warning" transform="matrix(0.476938,-1.26636e-32,1.26636e-32,0.538535,3.09316,-0.235729)">
                        <path d="M11.304,97.763C11.21,97.013 11.147,96.25 11.115,95.475L11.115,88.762C18.013,88.762 19.955,92.074 26.853,91.901C37.614,91.63 35.889,86.939 46.65,86.939C56.79,86.939 57.232,92.136 67.375,92.298C74.022,92.405 76.745,87.032 87.646,87.132C93.539,87.186 97.936,91.813 103.102,91.724C108.873,91.624 115.08,88.762 117.066,88.762L117.066,97.762C115.08,97.762 108.873,100.624 103.102,100.724C97.936,100.813 93.539,96.186 87.646,96.132C76.745,96.032 74.022,101.405 67.375,101.298C57.232,101.136 56.79,95.939 46.65,95.939C35.889,95.939 37.614,100.63 26.853,100.901C20.019,101.073 18.049,97.822 11.304,97.763Z" style="fill:rgb(57,194,255);"/>
                    </g>
                </g>
            </g>
        </g>
    </g>
</svg>
