<?xml version="1.0" encoding="UTF-8" standalone="no"?>
<!DOCTYPE svg PUBLIC "-//W3C//DTD SVG 1.1//EN" "http://www.w3.org/Graphics/SVG/1.1/DTD/svg11.dtd">
<svg width="100%" height="100%" viewBox="0 0 128 128" version="1.1" xmlns="http://www.w3.org/2000/svg" xmlns:xlink="http://www.w3.org/1999/xlink" xml:space="preserve" xmlns:serif="http://www.serif.com/" style="fill-rule:evenodd;clip-rule:evenodd;stroke-linejoin:round;stroke-miterlimit:2;">
    <g id="Resources" transform="matrix(0.976563,0,0,0.976563,1.5,1.5)">
        <path d="M128,25.6C128,11.471 116.529,0 102.4,0L25.6,0C11.471,0 0,11.471 0,25.6L0,102.4C0,116.529 11.471,128 25.6,128L102.4,128C116.529,128 128,116.529 128,102.4L128,25.6Z" style="fill:rgb(255,231,185);"/>
    </g>
    <g id="Building-base" serif:id="Building base" transform="matrix(1.82158,0,0,1.82158,5.59994,10.5004)">
        <g>
            <path d="M14.199,29.37L33.082,14.921L50.702,29.37L47.918,34.718L51.589,40.17L46.916,46.593L50.556,51.826L14.852,51.826L18.725,45.679L14.006,40.176L18.172,34.718L14.199,29.37Z" style="fill:rgb(173,121,82);"/>
            <g transform="matrix(0.997578,0.209702,-0.209702,0.997578,5.77043,-3.579)">
                <path d="M24.645,13.056L32.608,6.201L55.569,26.709L50.192,26.741L32.56,11.388L15.122,26.905L8.431,27.014L18.477,18.366L18.477,9.433L24.645,9.433L24.645,13.056Z" style="fill:rgb(29,7,0);"/>
            </g>
            <g transform="matrix(0.935702,0,0,0.918525,-16.7838,-32.4099)">
                <rect x="43.362" y="64.117" width="17.601" height="17.93" style="fill:rgb(57,194,255);"/>
            </g>
            <g transform="matrix(0.935702,0,0,0.918525,-16.7838,-32.4099)">
                <rect x="43.362" y="64.117" width="17.601" height="17.93" style="fill:rgb(42,55,83);"/>
            </g>
        </g>
    </g>
    <g id="WeatherDamage" transform="matrix(1,0,0,1,3.63423,10.355)">
        <g transform="matrix(0.725935,0,0,0.721741,8.19011,22.6264)">
            <path d="M55.34,35.295C57.923,37.894 61.427,39.353 65.08,39.353C72.683,39.353 78.856,33.145 78.856,25.498C78.856,17.846 72.688,11.643 65.08,11.643L65.08,19.606C68.316,19.606 70.939,22.244 70.939,25.498C70.939,28.75 68.314,31.391 65.08,31.391C63.526,31.391 62.036,30.77 60.938,29.665L55.34,35.295Z" style="fill:rgb(57,194,255);"/>
        </g>
        <g transform="matrix(0.725935,0,0,-0.721741,16.7256,37.776)">
            <path d="M55.34,35.295C57.923,37.894 61.427,39.353 65.08,39.353C72.683,39.353 78.856,33.145 78.856,25.498C78.856,17.846 72.688,11.643 65.08,11.643L65.08,19.606C68.316,19.606 70.939,22.244 70.939,25.498C70.939,28.75 68.314,31.391 65.08,31.391C63.526,31.391 62.036,30.77 60.938,29.665L55.34,35.295Z" style="fill:rgb(57,194,255);"/>
        </g>
        <g transform="matrix(0.725935,0,0,-0.721741,-2.73067,29.903)">
            <path d="M55.34,35.295C57.923,37.894 61.427,39.353 65.08,39.353C72.683,39.353 78.856,33.145 78.856,25.498C78.856,17.846 72.688,11.643 65.08,11.643L65.08,19.606C68.316,19.606 70.939,22.244 70.939,25.498C70.939,28.75 68.314,31.391 65.08,31.391C63.526,31.391 62.036,30.77 60.938,29.665L55.34,35.295Z" style="fill:rgb(57,194,255);"/>
        </g>
        <g transform="matrix(1.03447,0,0,1,-1.92971,0)">
            <rect x="28.139" y="31.029" width="27.838" height="5.747" style="fill:rgb(57,194,255);"/>
        </g>
        <g transform="matrix(1,0,0,1,-11.3469,-15.2766)">
            <rect x="28.139" y="31.029" width="27.838" height="5.747" style="fill:rgb(57,194,255);"/>
        </g>
        <g transform="matrix(0.561709,0,0,1,32.5568,-7.40357)">
            <rect x="28.139" y="31.029" width="27.838" height="5.747" style="fill:rgb(57,194,255);"/>
        </g>
        <g transform="matrix(0.208402,0,0,1,33.673,-7.40357)">
            <rect x="28.139" y="31.029" width="27.838" height="5.747" style="fill:rgb(57,194,255);"/>
        </g>
        <g transform="matrix(0.208402,0,0,1,24.8474,-7.40357)">
            <rect x="28.139" y="31.029" width="27.838" height="5.747" style="fill:rgb(57,194,255);"/>
        </g>
        <g transform="matrix(0.893253,0,0,1,-22.8225,-7.40357)">
            <rect x="28.139" y="31.029" width="27.838" height="5.747" style="fill:rgb(57,194,255);"/>
        </g>
        <g transform="matrix(0.208402,0,0,1,12.4226,0)">
            <rect x="28.139" y="31.029" width="27.838" height="5.747" style="fill:rgb(57,194,255);"/>
        </g>
        <g transform="matrix(0.208402,0,0,1,3.52979,0)">
            <rect x="28.139" y="31.029" width="27.838" height="5.747" style="fill:rgb(57,194,255);"/>
        </g>
    </g>
</svg>
