<?xml version="1.0" encoding="UTF-8" standalone="no"?>
<!DOCTYPE svg PUBLIC "-//W3C//DTD SVG 1.1//EN" "http://www.w3.org/Graphics/SVG/1.1/DTD/svg11.dtd">
<svg width="100%" height="100%" viewBox="0 0 128 128" version="1.1" xmlns="http://www.w3.org/2000/svg" xmlns:xlink="http://www.w3.org/1999/xlink" xml:space="preserve" xmlns:serif="http://www.serif.com/" style="fill-rule:evenodd;clip-rule:evenodd;stroke-linejoin:round;stroke-miterlimit:2;">
    <g id="Resources" transform="matrix(0.976563,0,0,0.976563,1.5,1.5)">
        <path d="M128,25.6C128,11.471 116.529,0 102.4,0L25.6,0C11.471,0 0,11.471 0,25.6L0,102.4C0,116.529 11.471,128 25.6,128L102.4,128C116.529,128 128,116.529 128,102.4L128,25.6Z" style="fill:rgb(255,231,185);"/>
    </g>
    <g id="Destroyed" transform="matrix(1.85689,-1.03078e-16,1.03078e-16,1.85689,5.59504,-0.670184)">
        <g>
            <g transform="matrix(-1.24561e-16,1.32605,1.33136,-0.372678,-16.9697,26.314)">
                <path d="M27.396,24.049L10.724,24.07L11.467,26.192L13.749,27.339L14.045,31.192L21.064,31.18L23.421,40.445L16.386,40.605L15.224,44.143L12.118,45.561L12.453,50.267L32.731,50.158L27.396,24.049Z" style="fill:rgb(173,121,82);"/>
            </g>
            <g transform="matrix(-0.989308,-0.145838,-0.145838,0.989308,71.9613,27.4691)">
                <path d="M22.697,14.914L32.608,6.201L55.569,26.709L50.192,26.741L32.56,11.388L15.122,26.905L8.431,27.014L18.526,18.345L17.088,14.446L21.747,12.499L22.697,14.914Z" style="fill:rgb(29,7,0);"/>
            </g>
            <g transform="matrix(0.538535,2.98947e-17,-2.98947e-17,0.538535,-1.48184,7.17994)">
                <path d="M111.635,90.736C111.635,85.909 107.716,81.989 102.888,81.989L20.449,81.989C15.622,81.989 11.702,85.909 11.702,90.736C11.702,95.564 15.622,99.483 20.449,99.483L102.888,99.483C107.716,99.483 111.635,95.564 111.635,90.736Z" style="fill:rgb(67,33,15);"/>
            </g>
            <g transform="matrix(0.894296,4.96434e-17,-1.05155e-16,1,2.36489,-1.94925)">
                <path d="M5.186,55.648C5.767,57.338 6.956,59.423 9.148,60.865C11.08,62.137 13.462,62.667 15.534,62.656C20.624,62.628 44.404,62.777 51.125,62.656C52.48,62.631 54.807,62.265 56.519,61.126C58.028,60.122 58.876,59.344 59.692,58.196C60.724,56.744 60.963,55.554 60.963,55.554L59.696,52.203L54.642,51.545L52.3,47.031L46.097,47.991L42.634,50.497L41.235,46.951L36.804,46.23L33.785,49.752L22.392,52.252L19.128,47.663L14.024,46.641L11.17,48.676L7.12,49.531L3.228,56.023C3.228,56.023 4.975,55.037 5.186,55.648Z" style="fill:rgb(67,33,15);"/>
            </g>
        </g>
    </g>
    <g id="WeatherDestroyed" transform="matrix(1,0,0,1,3.63423,10.355)">
        <g transform="matrix(0.725935,0,0,0.721741,8.19011,22.6264)">
            <path d="M55.34,35.295C57.923,37.894 61.427,39.353 65.08,39.353C72.683,39.353 78.856,33.145 78.856,25.498C78.856,17.846 72.688,11.643 65.08,11.643L65.08,19.606C68.316,19.606 70.939,22.244 70.939,25.498C70.939,28.75 68.314,31.391 65.08,31.391C63.526,31.391 62.036,30.77 60.938,29.665L55.34,35.295Z" style="fill:rgb(57,194,255);"/>
        </g>
        <g transform="matrix(0.725935,0,0,-0.721741,16.7256,37.776)">
            <path d="M55.34,35.295C57.923,37.894 61.427,39.353 65.08,39.353C72.683,39.353 78.856,33.145 78.856,25.498C78.856,17.846 72.688,11.643 65.08,11.643L65.08,19.606C68.316,19.606 70.939,22.244 70.939,25.498C70.939,28.75 68.314,31.391 65.08,31.391C63.526,31.391 62.036,30.77 60.938,29.665L55.34,35.295Z" style="fill:rgb(57,194,255);"/>
        </g>
        <g transform="matrix(0.725935,0,0,-0.721741,-2.73067,29.903)">
            <path d="M55.34,35.295C57.923,37.894 61.427,39.353 65.08,39.353C72.683,39.353 78.856,33.145 78.856,25.498C78.856,17.846 72.688,11.643 65.08,11.643L65.08,19.606C68.316,19.606 70.939,22.244 70.939,25.498C70.939,28.75 68.314,31.391 65.08,31.391C63.526,31.391 62.036,30.77 60.938,29.665L55.34,35.295Z" style="fill:rgb(57,194,255);"/>
        </g>
        <g transform="matrix(1.03447,0,0,1,-1.92971,0)">
            <rect x="28.139" y="31.029" width="27.838" height="5.747" style="fill:rgb(57,194,255);"/>
        </g>
        <g transform="matrix(1,0,0,1,-11.3469,-15.2766)">
            <rect x="28.139" y="31.029" width="27.838" height="5.747" style="fill:rgb(57,194,255);"/>
        </g>
        <g transform="matrix(0.561709,0,0,1,32.5568,-7.40357)">
            <rect x="28.139" y="31.029" width="27.838" height="5.747" style="fill:rgb(57,194,255);"/>
        </g>
        <g transform="matrix(0.208402,0,0,1,33.673,-7.40357)">
            <rect x="28.139" y="31.029" width="27.838" height="5.747" style="fill:rgb(57,194,255);"/>
        </g>
        <g transform="matrix(0.208402,0,0,1,24.8474,-7.40357)">
            <rect x="28.139" y="31.029" width="27.838" height="5.747" style="fill:rgb(57,194,255);"/>
        </g>
        <g transform="matrix(0.893253,0,0,1,-22.8225,-7.40357)">
            <rect x="28.139" y="31.029" width="27.838" height="5.747" style="fill:rgb(57,194,255);"/>
        </g>
        <g transform="matrix(0.208402,0,0,1,12.4226,0)">
            <rect x="28.139" y="31.029" width="27.838" height="5.747" style="fill:rgb(57,194,255);"/>
        </g>
        <g transform="matrix(0.208402,0,0,1,3.52979,0)">
            <rect x="28.139" y="31.029" width="27.838" height="5.747" style="fill:rgb(57,194,255);"/>
        </g>
    </g>
</svg>
