<svg xmlns="http://www.w3.org/2000/svg" viewBox="0 0 1499.18 1499.18"><defs><style>.cls-1{fill:#6aff4e;}.cls-1,.cls-2,.cls-3,.cls-4,.cls-5,.cls-6{fill-rule:evenodd;}.cls-2{fill:#274100;}.cls-3{fill:#8b8b8b;}.cls-4{fill:#737373;}.cls-5{fill:#c8c8c8;}.cls-6{fill:#fffd8f;}</style></defs><g id="Layer_2" data-name="Layer 2"><g id="Layer_1-2" data-name="Layer 1"><g id="pohja---panel"><g id="Border"><path class="cls-1" d="M1499.18,299.84C1499.18,134.35,1364.84,0,1199.35,0H299.84C134.35,0,0,134.35,0,299.84v899.51c0,165.49,134.35,299.83,299.84,299.83h899.51c165.49,0,299.83-134.34,299.83-299.83Z"/></g><g id="BG"><path class="cls-2" d="M1417.4,321c0-132.8-107.83-240.61-240.62-240.61H321.27C188.48,80.41,80.66,188.22,80.66,321v857.79c0,132.8,107.82,240.61,240.61,240.61h855.51c132.79,0,240.62-107.81,240.62-240.61Z"/></g></g><g id="AdvancedLightningRods"><path class="cls-3" d="M1138.2,292.78c0-10.51-22.69-105.43-33.3-105.43l-7,.37c-10.6,0-36.58,94.55-36.58,105.06L1060.8,1419h76.86Z"/><path class="cls-3" d="M932.58,434.09c-1.41-3.48-25.54-30.36-30.88-28.2l-3.47,1.54c-5.34,2.15-5.76,38.8-4.35,42.29L1044.15,822c1.4,3.47,6.87,4.56,12.21,2.41l19.37-7.82c5.34-2.16,8.52-6.74,7.12-10.22Z"/><path class="cls-3" d="M1307.18,439.66c1.38-3.5,2.38-39.61-3-41.72l-3.58-1.27c-5.35-2.11-30.89,24.18-32.27,27.68L1121.1,797.78c-1.37,3.49,1.84,8.05,7.2,10.16l19.43,7.66c5.36,2.12,10.82,1,12.2-2.51Z"/><path class="cls-4" d="M1290.43,1015.05a17.62,17.62,0,0,0-17.58-17.61H932.23a17.61,17.61,0,0,0-17.59,17.61v35.17a17.56,17.56,0,0,0,17.59,17.56h340.62a17.57,17.57,0,0,0,17.58-17.56Z"/><path class="cls-3" d="M1276.14,1008.31c0-72.35-78.49-131-175.31-131s-175.28,58.64-175.28,131Z"/><path class="cls-3" d="M1275.44,1061.15c0,72.36-78.5,131-175.31,131s-175.28-58.63-175.28-131Z"/><path class="cls-3" d="M1202.44,895.81c0-55.72-44.4-100.87-99.16-100.87s-99.14,45.15-99.14,100.87Z"/><path class="cls-5" d="M1206.14,888.79a4.84,4.84,0,0,0-4.84-4.83H1000.05a4.87,4.87,0,0,0-4.86,4.83v9.73a4.89,4.89,0,0,0,4.86,4.86H1201.3a4.87,4.87,0,0,0,4.84-4.86Z"/><path class="cls-5" d="M1290.14,1053.55H915s.76,5,3.65,7.83,4.13,4,6.56,4.84l349.89,1.3c1.66,0,6.84-1.67,10.12-5A20,20,0,0,0,1290.14,1053.55Z"/><path class="cls-5" d="M1290.52,1011.7H915.36s.76-5,3.66-7.83,4.12-4,6.55-4.84l349.89-1.3c1.66,0,6.84,1.67,10.12,5A19.85,19.85,0,0,1,1290.52,1011.7Z"/><path class="cls-6" d="M613,469.42l105.24-50.77L748.06,428l77.34-76.53,98.32,116.32L807.29,413.9l-53.74,89.2-30.4-42.05L610,554.51Z"/><path class="cls-6" d="M363.44,289.79s34.62,390.06,39.61,390,99.08,82.08,99.08,82.08l7.26,168,28.93-209L433,606,409.13,348.25S366.13,305,363.44,289.79Z"/><path class="cls-6" d="M548.61,476.63l76.92-12.81,2.3,137.94,228.25-42.12L889.78,789l64.89,10.44,64.2,121.54-85.48-52.24-84.72-6.19L834.85,628.94l-216,71.24L592.1,548.69l-74.75-6.44-304.29-436s20.19-11,49.5-18.56c40.89-10.56,86.35-7.07,86.35-7.07"/></g></g></g></svg>