<svg xmlns="http://www.w3.org/2000/svg" viewBox="0 0 1499.18 1499.18"><defs><style>.cls-1{fill:#6aff4e;}.cls-1,.cls-2,.cls-3,.cls-4,.cls-5,.cls-6{fill-rule:evenodd;}.cls-2{fill:#274100;}.cls-3{fill:#eee0cc;}.cls-4{fill:#de2700;}.cls-5{fill:#99ff69;}.cls-6{fill:#5bc02b;}</style></defs><g id="Layer_2" data-name="Layer 2"><g id="Layer_1-2" data-name="Layer 1"><g id="pohja---panel"><g id="Border"><path class="cls-1" d="M1499.18,299.84C1499.18,134.35,1364.84,0,1199.35,0H299.84C134.35,0,0,134.35,0,299.84v899.51c0,165.49,134.35,299.83,299.84,299.83h899.51c165.49,0,299.83-134.34,299.83-299.83Z"/></g><g id="BG"><path class="cls-2" d="M1417.4,321c0-132.8-107.83-240.61-240.62-240.61H321.27C188.48,80.41,80.66,188.22,80.66,321v857.79c0,132.8,107.82,240.61,240.61,240.61h855.51c132.79,0,240.62-107.81,240.62-240.61Z"/></g></g><g id="AdvancedPollutionManagement"><path class="cls-3" d="M1043.71,1419.43H450.9l85.86-701.71H957.84Z"/><path class="cls-4" d="M993.43,1011.7H501.64l9.5-80.05H983.92Z"/><path class="cls-4" d="M978.2,876.47H518.52l8.88-80.05H969.32Z"/><path class="cls-5" d="M978.19,125.29c-121.45,18.18-260,62.21-343.59,188.35C579,397.54,602,510.78,685.85,566.38S883,599,938.63,515.13C1022.23,389,852,249.71,978.19,125.29Z"/><path class="cls-6" d="M977.46,125.41C924.39,174.62,837.86,207.62,736.24,361c-34.17,51.51-44.81,166.5-23.81,220a186.91,186.91,0,0,1-26.58-14.62c-83.91-55.6-106.88-168.9-51.28-252.75C718,187.75,856.19,143.64,977.46,125.41Zm-.33,1,.42-1,.66-.1Z"/><path class="cls-5" d="M749.36,515.78c-2.27,46.19-22.76,90.54-57,123.33a188,188,0,0,1-59.82,38.58l-14.36-40.31A140.56,140.56,0,0,0,663,608.48c25.71-24.59,41.09-57.88,42.78-92.47Z"/></g></g></g></svg>