<svg xmlns="http://www.w3.org/2000/svg" viewBox="0 0 1499.18 1499.18"><defs><style>.cls-1{fill:#6aff4e;}.cls-1,.cls-2,.cls-5{fill-rule:evenodd;}.cls-2{fill:#274100;}.cls-3{fill:#ebf9ff;}.cls-4{fill:#f5b524;}.cls-5{fill:#8b9ba1;}.cls-6{fill:#d4f2ff;}.cls-7{fill:#a8e5ff;}.cls-8{fill:#bcbcbc;}</style></defs><g id="Layer_2" data-name="Layer 2"><g id="Layer_1-2" data-name="Layer 1"><g id="pohja---panel"><g id="Border"><path class="cls-1" d="M1499.18,299.84C1499.18,134.35,1364.84,0,1199.35,0H299.84C134.35,0,0,134.35,0,299.84v899.51c0,165.49,134.35,299.83,299.84,299.83h899.51c165.49,0,299.83-134.34,299.83-299.83Z"/></g><g id="BG"><path class="cls-2" d="M1417.4,321c0-132.8-107.83-240.61-240.62-240.61H321.27C188.48,80.41,80.66,188.22,80.66,321v857.79c0,132.8,107.82,240.61,240.61,240.61h855.51c132.79,0,240.62-107.81,240.62-240.61Z"/></g></g><g id="AdvancedVaccinationProgram"><rect class="cls-3" x="361.65" y="592.64" width="811.86" height="337.87" transform="translate(-307.57 876.59) rotate(-50.88)"/><rect class="cls-4" x="677.4" y="499.88" width="370.33" height="289.8" transform="translate(-181.9 907.18) rotate(-50.88)"/><path class="cls-5" d="M633.69,983.59l103,83.71,19.45-23.92-103-83.76Zm64.88-79.81,103,83.76L821,963.62,718,879.86ZM763.44,824l103,83.76,19.45-23.92-103-83.76Zm64.88-79.76,103,83.76,19.45-23.92-103-83.76Zm64.87-79.81,103,83.76,19.45-23.92-103-83.76Z"/><rect class="cls-6" x="451.9" y="846.64" width="73.04" height="516.38" transform="translate(-676.91 786.69) rotate(-50.88)"/><rect class="cls-7" x="372.16" y="1095.13" width="114.3" height="164.75" transform="translate(-755.1 767.66) rotate(-50.88)"/><rect class="cls-6" x="348.8" y="1107.54" width="54.51" height="270.99" transform="translate(-825.61 750.52) rotate(-50.88)"/><rect class="cls-7" x="1005.19" y="298.83" width="100.19" height="217.87" transform="translate(73.11 969.22) rotate(-50.88)"/><rect class="cls-8" x="1036.14" y="249.34" width="275.15" height="25.56" transform="translate(229.82 1007.36) rotate(-50.88)"/></g></g></g></svg>