<svg xmlns="http://www.w3.org/2000/svg" viewBox="0 0 1499.18 1499.18"><defs><style>.cls-1{fill:#6aff4e;}.cls-1,.cls-11,.cls-12,.cls-13,.cls-2,.cls-7,.cls-9{fill-rule:evenodd;}.cls-2{fill:#274100;}.cls-3{fill:#efb20e;}.cls-4{fill:#ffe24e;}.cls-5{fill:#fdc733;}.cls-6{fill:#ffed6a;}.cls-7{fill:#559d39;}.cls-8{fill:#3a6b27;}.cls-9{fill:#6ac646;}.cls-10{fill:#378b17;}.cls-11{fill:#d3ae4a;}.cls-12{fill:#678cac;}.cls-13{fill:#a3bfd8;}</style></defs><g id="Layer_2" data-name="Layer 2"><g id="Layer_1-2" data-name="Layer 1"><g id="pohja---panel"><g id="Border"><path class="cls-1" d="M1499.18,299.84C1499.18,134.35,1364.84,0,1199.35,0H299.84C134.35,0,0,134.35,0,299.84v899.51c0,165.49,134.35,299.83,299.84,299.83h899.51c165.49,0,299.83-134.34,299.83-299.83Z"/></g><g id="BG"><path class="cls-2" d="M1417.4,321c0-132.8-107.83-240.61-240.62-240.61H321.27C188.48,80.41,80.66,188.22,80.66,321v857.79c0,132.8,107.82,240.61,240.61,240.61h855.51c132.79,0,240.62-107.81,240.62-240.61Z"/></g></g><g id="BigBusinessBenefactor"><g id="Layer25"><ellipse class="cls-3" cx="799.9" cy="234.61" rx="116.49" ry="119.1" transform="matrix(0.14, -0.99, 0.99, 0.14, 453.91, 993.01)"/><ellipse class="cls-4" cx="799.9" cy="234.61" rx="96.78" ry="93.97" transform="translate(230.63 843.56) rotate(-63.28)"/><ellipse class="cls-5" cx="874.62" cy="382.75" rx="116.49" ry="119.1" transform="translate(371.37 1194.05) rotate(-81.82)"/><ellipse class="cls-6" cx="874.62" cy="382.75" rx="96.78" ry="93.97" transform="translate(139.44 991.83) rotate(-63.28)"/></g><g id="Layer24"><polygon class="cls-7" points="773.35 623.5 1171.09 261.2 1360.24 452.3 962.5 814.6 773.35 623.5"/><ellipse class="cls-8" cx="1072.98" cy="540.33" rx="99.64" ry="106.84" transform="translate(89.58 1230.37) rotate(-61.79)"/></g><g id="Layer241"><polygon class="cls-9" points="709.48 708.9 970.06 244.02 1208.73 372.89 948.15 837.77 709.48 708.9"/><ellipse class="cls-10" cx="965.7" cy="541.43" rx="99.33" ry="107.17" transform="translate(92.39 1221.91) rotate(-67.2)"/></g><g id="Layer26"><path class="cls-11" d="M804.45,835.86c11.67-35.53,35.94-77.66,17-110.47-20.59-35.65-86.77-61.12-132.74-76.22-45-14.79-108.53-35.23-146-19.47-33.26,14-42.28,61.35-55.38,94.17L527,735.81c9.17-22.91,13.89-61.35,36.47-72.55,26.17-13,78.36,7.67,114.22,19.45,37.05,12.17,94.65,29.38,104.75,50.55,11.11,23.35-9.89,65-17.94,89.47Z"/><path class="cls-12" d="M1008.31,952A35,35,0,0,0,986,907.85L296.66,681.37a35,35,0,0,0-44.13,22.28l-134,407.84a35,35,0,0,0,22.31,44.11L830.2,1382.07a35,35,0,0,0,44.13-22.28Z"/><path class="cls-13" d="M1025.34,900.14c2.92-8.88-5.84-19.75-19.55-24.25l-706.1-232c-13.7-4.5-27.2-.95-30.12,7.93L204.69,849.32c-2.91,8.85,5.86,19.72,19.56,24.23L555.4,1056.2l375,49.32c13.7,4.51,27.2,1,30.11-7.9Z"/><path class="cls-11" d="M592.19,1035a19.9,19.9,0,0,0-12.7-25.12l-37.81-12.42a19.91,19.91,0,0,0-25.12,12.69l-21.65,65.9a19.91,19.91,0,0,0,12.7,25.11l37.81,12.43a19.9,19.9,0,0,0,25.12-12.7Z"/></g></g></g></g></svg>