<svg xmlns="http://www.w3.org/2000/svg" viewBox="0 0 1499.18 1499.18"><defs><style>.cls-1{fill:#6aff4e;}.cls-1,.cls-2,.cls-3,.cls-4{fill-rule:evenodd;}.cls-2{fill:#274100;}.cls-3{fill:#f68cc2;}.cls-4{fill:#b7c6cb;}</style></defs><g id="Layer_2" data-name="Layer 2"><g id="Layer_1-2" data-name="Layer 1"><g id="pohja---panel"><g id="Border"><path class="cls-1" d="M1499.18,299.84C1499.18,134.35,1364.84,0,1199.35,0H299.84C134.35,0,0,134.35,0,299.84v899.51c0,165.49,134.35,299.83,299.84,299.83h899.51c165.49,0,299.83-134.34,299.83-299.83Z"/></g><g id="BG"><path class="cls-2" d="M1417.4,321c0-132.8-107.83-240.61-240.62-240.61H321.27C188.48,80.41,80.66,188.22,80.66,321v857.79c0,132.8,107.82,240.61,240.61,240.61h855.51c132.79,0,240.62-107.81,240.62-240.61Z"/></g></g><g id="EncourageBiking"><path class="cls-3" d="M739.46,198.42c43.24-72,129.72-72,172.92-36.14s43.24,107.66,0,179.4C882.14,395.51,804.3,449.34,739.46,485.21c-64.85-35.87-142.69-89.7-172.93-143.53-43.24-71.74-43.24-143.52,0-179.4S696.21,126.41,739.46,198.42Z"/><path class="cls-4" d="M833.66,592H773.75a33.75,33.75,0,0,1,0-67.5H911.19a33.75,33.75,0,0,1,0,67.5h-8.67l133.87,219.61A231.57,231.57,0,0,1,1125.08,794c132.52,0,240.14,111.89,240.14,249.66s-107.62,249.65-240.14,249.65S884.89,1181.5,884.89,1043.69c0-82.13,38.25-155.07,97.27-200.58l-27.71-45.42L836.28,991.42a87.17,87.17,0,0,1,22.27,58.36c0,48-38.53,87-86,87a85.94,85.94,0,0,1-76.31-46.87H616.49c-20.86,115.78-118.69,203.48-236.07,203.48-132.51,0-240.14-111.84-240.14-249.65S247.91,794,380.42,794a231.48,231.48,0,0,1,119.39,33.05l67-109.92a23.14,23.14,0,0,1,1.5-2.25L552.41,688.7a30.54,30.54,0,0,1-3.89-9.56h-41a49.43,49.43,0,1,1,0-98.86H613.58a49.43,49.43,0,0,1,6.19,98.48L786.6,952.51,907.49,754.28a30.49,30.49,0,0,1,13.26-11.91L838.3,607.09A32.21,32.21,0,0,1,833.66,592Zm-366,287.86a173.72,173.72,0,0,0-87.19-23.39c-99.42,0-180.09,83.86-180.09,187.22S281,1231,380.42,1231c84.1,0,154.78-60,174.61-141.09H421.63a46.19,46.19,0,0,1-46.18-46.08,34.81,34.81,0,0,1,4.93-20.91l.18-.28a47,47,0,0,1,3.43-5.67ZM1014.41,896c-42.28,34.32-69.47,87.75-69.47,147.71,0,103.36,80.72,187.26,180.14,187.26s180.09-83.9,180.09-187.26-80.72-187.22-180.09-187.22a173.17,173.17,0,0,0-55.78,9.14l84.84,139.22a32.52,32.52,0,0,1-9.94,43.87,30.32,30.32,0,0,1-42.65-9.65Zm-287,79.83L608.05,780l-55,90.19a252.62,252.62,0,0,1,63.43,127.31h87.37A87.38,87.38,0,0,1,727.39,975.81ZM519.64,925l-44.25,72.56H555A189.38,189.38,0,0,0,519.64,925Z"/></g></g></g></svg>