<?xml version="1.0" encoding="UTF-8" standalone="no"?>
<!DOCTYPE svg PUBLIC "-//W3C//DTD SVG 1.1//EN" "http://www.w3.org/Graphics/SVG/1.1/DTD/svg11.dtd">
<svg width="100%" height="100%" viewBox="0 0 32 32" version="1.1" xmlns="http://www.w3.org/2000/svg" xmlns:xlink="http://www.w3.org/1999/xlink" xml:space="preserve" xmlns:serif="http://www.serif.com/" style="fill-rule:evenodd;clip-rule:evenodd;stroke-linejoin:round;stroke-miterlimit:2;">
    <g id="pohja---panel" serif:id="pohja - panel" transform="matrix(0.499727,0,0,0.499727,0.0135965,0.000691596)">
        <g id="Border" transform="matrix(1.03226,0,0,1.03226,-2.05688,-2.0659)">
            <path d="M64,14.4C64,7.556 58.444,2 51.6,2L14.4,2C7.556,2 2,7.556 2,14.4L2,51.6C2,58.444 7.556,64 14.4,64L51.6,64C58.444,64 64,58.444 64,51.6L64,14.4Z" style="fill:rgb(106,255,78);"/>
        </g>
        <g id="BG" transform="matrix(0.920409,0,0,0.921969,1.60241,1.58887)">
            <path d="M64,13.141C64,6.992 58.999,2 52.84,2L13.16,2C7.001,2 2,6.992 2,13.141L2,52.859C2,59.008 7.001,64 13.16,64L52.84,64C58.999,64 64,59.008 64,52.859L64,13.141Z" style="fill:rgb(39,65,0);"/>
        </g>
    </g>
    <g id="CityPromotion" transform="matrix(1.10639,0,0,1.10639,-0.968771,-0.383634)">
        <g transform="matrix(0.919192,0,0,1.04908,0.576819,2.42848)">
            <path d="M24.987,15.727C24.987,12.318 22.373,10.915 19.232,10.915L12.829,10.915C9.688,10.915 7.202,12.318 7.202,15.727L7.138,24.105L24.923,24.105L24.987,15.727Z" style="fill:rgb(153,240,244);"/>
        </g>
        <g transform="matrix(1,0,0,0.843608,1.44329e-15,2.17061)">
            <path d="M7.192,20.663L7.197,19.863C7.197,15.624 9.482,13.879 12.37,13.879L18.255,13.879C21.142,13.879 23.545,15.624 23.545,19.863L23.54,20.663L19.858,20.663L19.858,30.282L10.825,30.282L10.825,20.663L7.192,20.663Z" style="fill:rgb(217,26,34);"/>
            <clipPath id="_clip1">
                <path d="M7.192,20.663L7.197,19.863C7.197,15.624 9.482,13.879 12.37,13.879L18.255,13.879C21.142,13.879 23.545,15.624 23.545,19.863L23.54,20.663L19.858,20.663L19.858,30.282L10.825,30.282L10.825,20.663L7.192,20.663Z"/>
            </clipPath>
            <g clip-path="url(#_clip1)">
                <g id="Layer32" transform="matrix(0.885722,0,0,1.00894,0.321495,-5.6452)">
                    <path d="M12.687,21.255C12.989,20.781 13.66,20.323 13.66,20.323L13.986,20.61C14.021,20.275 14.145,19.984 14.376,19.747C14.843,19.391 15.494,19.075 15.862,19.145C15.572,19.579 15.56,19.886 15.638,20.152C15.602,20.103 16.112,19.222 16.287,19.13C16.582,18.975 18.045,18.942 17.991,19.063C17.749,19.301 17.656,19.55 17.649,19.805C17.91,19.543 18.176,19.316 18.454,19.172C19.344,19.2 20.115,19.526 20.678,20.372C20.385,20.789 19.918,21.09 19.33,21.311L18.55,21.109L19.106,21.703C18.992,21.932 18.438,22.128 17.374,22.324L16.763,21.288C16.87,21.63 16.973,22.071 16.874,22.483C16.38,22.723 15.745,22.843 15.219,22.757C15.348,22.362 15.223,21.957 14.894,21.628C14.889,22.095 14.751,22.488 14.452,22.792C14.452,22.792 13.525,22.721 13.125,22.836C12.724,22.951 12.048,23.501 12.048,23.481C12.048,23.465 12.146,22.687 12.21,22.402C12.222,22.352 12.519,21.518 12.687,21.255Z" style="fill:rgb(128,133,48);"/>
                    <path d="M15.637,20.146C15.631,20.053 16.117,19.219 16.287,19.13C16.582,18.975 18.045,18.942 17.991,19.063C17.749,19.301 17.656,19.55 17.649,19.805C17.91,19.543 18.176,19.316 18.454,19.172C19.344,19.2 20.115,19.526 20.678,20.372L20.672,20.379C20.476,20.313 20.274,20.257 20.119,20.241C19.448,20.171 18.187,20.141 17.355,20.236C16.595,20.323 15.838,20.532 15.132,20.81C14.425,21.088 13.654,21.403 13.116,21.904C12.74,22.253 12.318,23.011 12.082,23.46C12.06,23.476 12.048,23.484 12.048,23.481C12.048,23.465 12.146,22.687 12.21,22.402C12.222,22.352 12.519,21.518 12.687,21.255C12.989,20.781 13.66,20.323 13.66,20.323L13.986,20.61C14.021,20.275 14.145,19.984 14.376,19.747C14.843,19.391 15.494,19.075 15.862,19.145C15.574,19.575 15.56,19.881 15.637,20.146C15.637,20.149 15.637,20.151 15.638,20.152L15.637,20.146Z" style="fill:rgb(158,164,47);"/>
                    <g transform="matrix(-1,0,0,1,28.4351,3.09092)">
                        <path d="M12.687,21.255C12.989,20.781 13.66,20.323 13.66,20.323L13.986,20.61C14.021,20.275 14.145,19.984 14.376,19.747C14.843,19.391 15.494,19.075 15.862,19.145C15.572,19.579 15.56,19.886 15.638,20.152C15.602,20.103 16.112,19.222 16.287,19.13C16.582,18.975 18.045,18.942 17.991,19.063C17.749,19.301 17.656,19.55 17.649,19.805C17.91,19.543 18.176,19.316 18.454,19.172C19.344,19.2 20.115,19.526 20.678,20.372C20.385,20.789 19.918,21.09 19.33,21.311L18.55,21.109L19.106,21.703C18.992,21.932 18.438,22.128 17.374,22.324L16.763,21.288C16.87,21.63 16.973,22.071 16.874,22.483C16.38,22.723 15.745,22.843 15.219,22.757C15.348,22.362 15.223,21.957 14.894,21.628C14.889,22.095 14.751,22.488 14.452,22.792C14.452,22.792 13.525,22.721 13.125,22.836C12.724,22.951 12.048,23.501 12.048,23.481C12.048,23.465 12.146,22.687 12.21,22.402C12.222,22.352 12.519,21.518 12.687,21.255Z" style="fill:rgb(128,133,48);"/>
                    </g>
                    <g transform="matrix(-1,0,0,1,28.4351,3.09092)">
                        <path d="M15.637,20.146C15.631,20.053 16.117,19.219 16.287,19.13C16.582,18.975 18.045,18.942 17.991,19.063C17.749,19.301 17.656,19.55 17.649,19.805C17.91,19.543 18.176,19.316 18.454,19.172C19.344,19.2 20.115,19.526 20.678,20.372L20.672,20.379C20.476,20.313 20.274,20.257 20.119,20.241C19.448,20.171 18.187,20.141 17.355,20.236C16.595,20.323 15.838,20.532 15.132,20.81C14.425,21.088 13.654,21.403 13.116,21.904C12.74,22.253 12.318,23.011 12.082,23.46C12.06,23.476 12.048,23.484 12.048,23.481C12.048,23.465 12.146,22.687 12.21,22.402C12.222,22.352 12.519,21.518 12.687,21.255C12.989,20.781 13.66,20.323 13.66,20.323L13.986,20.61C14.021,20.275 14.145,19.984 14.376,19.747C14.843,19.391 15.494,19.075 15.862,19.145C15.574,19.575 15.56,19.881 15.637,20.146C15.637,20.149 15.637,20.151 15.638,20.152L15.637,20.146Z" style="fill:rgb(158,164,47);"/>
                    </g>
                    <g id="Layer33">
                        <g transform="matrix(0.831944,0.381042,-0.408482,0.891853,10.6391,-1.18719)">
                            <path d="M12.108,19.39C12.146,19.39 11.024,20.246 10.943,20.454C10.843,20.71 11.05,20.877 11.15,20.882C11.296,20.889 11.504,20.663 11.504,20.663L11.206,21.017C11.228,21.451 11.661,21.61 12.037,21.399L12.219,21.011C12.219,21.011 12.429,21.252 12.55,21.17C12.88,20.947 12.676,19.54 12.676,19.54C12.676,19.54 12.071,19.39 12.108,19.39Z" style="fill:rgb(133,118,226);"/>
                        </g>
                        <g transform="matrix(1,0,0,0.756037,0.671209,6.31469)">
                            <ellipse cx="12.803" cy="18.261" rx="1.402" ry="1.99" style="fill:rgb(133,118,226);"/>
                        </g>
                        <g transform="matrix(-0.445827,-0.725302,0.851927,-0.523661,2.58302,38.4149)">
                            <path d="M12.22,16.883C12.22,16.883 11.207,18.158 11.207,18.705C11.207,19.173 11.661,19.552 12.22,19.552C12.779,19.552 13.233,19.173 13.233,18.705C13.233,18.158 12.22,16.883 12.22,16.883Z" style="fill:rgb(155,141,238);"/>
                        </g>
                        <g transform="matrix(1,0,0,1,0.810194,2.33389)">
                            <ellipse cx="13.001" cy="16" rx="0.953" ry="0.882" style="fill:rgb(155,141,238);"/>
                        </g>
                        <g transform="matrix(1.33351,0,0,1.07443,-4.08911,0.0027787)">
                            <ellipse cx="13.671" cy="16.988" rx="0.422" ry="0.54" style="fill:rgb(230,228,245);"/>
                        </g>
                        <g transform="matrix(1,0,0,1,0.671209,1.37438)">
                            <ellipse cx="13.489" cy="16.933" rx="0.24" ry="0.231" style="fill:rgb(79,79,79);"/>
                        </g>
                        <g transform="matrix(1,0,0,1,0.671209,2.53772)">
                            <path d="M14.099,15.795C14.172,15.813 14.3,15.859 14.367,15.934C14.438,16.013 14.526,16.215 14.524,16.271C14.522,16.327 14.419,16.331 14.355,16.271C14.334,16.252 14.164,16.321 14.064,16.34C13.962,16.36 13.861,16.365 13.866,16.365C13.868,16.365 13.649,16.207 13.661,16.085C13.676,15.939 13.923,15.824 13.923,15.821C13.923,15.815 14.041,15.78 14.099,15.795Z" style="fill:rgb(79,79,79);"/>
                        </g>
                    </g>
                </g>
                <g id="Layer321" serif:id="Layer32" transform="matrix(0.885722,0,0,1.00894,2.22155,1.68187)">
                    <path d="M12.687,21.255C12.989,20.781 13.66,20.323 13.66,20.323L13.986,20.61C14.021,20.275 14.145,19.984 14.376,19.747C14.843,19.391 15.494,19.075 15.862,19.145C15.572,19.579 15.56,19.886 15.638,20.152C15.602,20.103 16.112,19.222 16.287,19.13C16.582,18.975 18.045,18.942 17.991,19.063C17.749,19.301 17.656,19.55 17.649,19.805C17.91,19.543 18.176,19.316 18.454,19.172C19.344,19.2 20.115,19.526 20.678,20.372C20.385,20.789 19.918,21.09 19.33,21.311L18.55,21.109L19.106,21.703C18.992,21.932 18.438,22.128 17.374,22.324L16.763,21.288C16.87,21.63 16.973,22.071 16.874,22.483C16.38,22.723 15.745,22.843 15.219,22.757C15.348,22.362 15.223,21.957 14.894,21.628C14.889,22.095 14.751,22.488 14.452,22.792C14.452,22.792 13.525,22.721 13.125,22.836C12.724,22.951 12.048,23.501 12.048,23.481C12.048,23.465 12.146,22.687 12.21,22.402C12.222,22.352 12.519,21.518 12.687,21.255Z" style="fill:rgb(128,133,48);"/>
                    <path d="M15.637,20.146C15.631,20.053 16.117,19.219 16.287,19.13C16.582,18.975 18.045,18.942 17.991,19.063C17.749,19.301 17.656,19.55 17.649,19.805C17.91,19.543 18.176,19.316 18.454,19.172C19.344,19.2 20.115,19.526 20.678,20.372L20.672,20.379C20.476,20.313 20.274,20.257 20.119,20.241C19.448,20.171 18.187,20.141 17.355,20.236C16.595,20.323 15.838,20.532 15.132,20.81C14.425,21.088 13.654,21.403 13.116,21.904C12.74,22.253 12.318,23.011 12.082,23.46C12.06,23.476 12.048,23.484 12.048,23.481C12.048,23.465 12.146,22.687 12.21,22.402C12.222,22.352 12.519,21.518 12.687,21.255C12.989,20.781 13.66,20.323 13.66,20.323L13.986,20.61C14.021,20.275 14.145,19.984 14.376,19.747C14.843,19.391 15.494,19.075 15.862,19.145C15.574,19.575 15.56,19.881 15.637,20.146C15.637,20.149 15.637,20.151 15.638,20.152L15.637,20.146Z" style="fill:rgb(158,164,47);"/>
                    <g transform="matrix(-1,0,0,1,28.4351,3.09092)">
                        <path d="M12.687,21.255C12.989,20.781 13.66,20.323 13.66,20.323L13.986,20.61C14.021,20.275 14.145,19.984 14.376,19.747C14.843,19.391 15.494,19.075 15.862,19.145C15.572,19.579 15.56,19.886 15.638,20.152C15.602,20.103 16.112,19.222 16.287,19.13C16.582,18.975 18.045,18.942 17.991,19.063C17.749,19.301 17.656,19.55 17.649,19.805C17.91,19.543 18.176,19.316 18.454,19.172C19.344,19.2 20.115,19.526 20.678,20.372C20.385,20.789 19.918,21.09 19.33,21.311L18.55,21.109L19.106,21.703C18.992,21.932 18.438,22.128 17.374,22.324L16.763,21.288C16.87,21.63 16.973,22.071 16.874,22.483C16.38,22.723 15.745,22.843 15.219,22.757C15.348,22.362 15.223,21.957 14.894,21.628C14.889,22.095 14.751,22.488 14.452,22.792C14.452,22.792 13.525,22.721 13.125,22.836C12.724,22.951 12.048,23.501 12.048,23.481C12.048,23.465 12.146,22.687 12.21,22.402C12.222,22.352 12.519,21.518 12.687,21.255Z" style="fill:rgb(128,133,48);"/>
                    </g>
                    <g transform="matrix(-1,0,0,1,28.4351,3.09092)">
                        <path d="M15.637,20.146C15.631,20.053 16.117,19.219 16.287,19.13C16.582,18.975 18.045,18.942 17.991,19.063C17.749,19.301 17.656,19.55 17.649,19.805C17.91,19.543 18.176,19.316 18.454,19.172C19.344,19.2 20.115,19.526 20.678,20.372L20.672,20.379C20.476,20.313 20.274,20.257 20.119,20.241C19.448,20.171 18.187,20.141 17.355,20.236C16.595,20.323 15.838,20.532 15.132,20.81C14.425,21.088 13.654,21.403 13.116,21.904C12.74,22.253 12.318,23.011 12.082,23.46C12.06,23.476 12.048,23.484 12.048,23.481C12.048,23.465 12.146,22.687 12.21,22.402C12.222,22.352 12.519,21.518 12.687,21.255C12.989,20.781 13.66,20.323 13.66,20.323L13.986,20.61C14.021,20.275 14.145,19.984 14.376,19.747C14.843,19.391 15.494,19.075 15.862,19.145C15.574,19.575 15.56,19.881 15.637,20.146C15.637,20.149 15.637,20.151 15.638,20.152L15.637,20.146Z" style="fill:rgb(158,164,47);"/>
                    </g>
                    <g id="Layer331" serif:id="Layer33">
                        <g transform="matrix(0.831944,0.381042,-0.408482,0.891853,10.6391,-1.18719)">
                            <path d="M12.108,19.39C12.146,19.39 11.024,20.246 10.943,20.454C10.843,20.71 11.05,20.877 11.15,20.882C11.296,20.889 11.504,20.663 11.504,20.663L11.206,21.017C11.228,21.451 11.661,21.61 12.037,21.399L12.219,21.011C12.219,21.011 12.429,21.252 12.55,21.17C12.88,20.947 12.676,19.54 12.676,19.54C12.676,19.54 12.071,19.39 12.108,19.39Z" style="fill:rgb(133,118,226);"/>
                        </g>
                        <g transform="matrix(1,0,0,0.756037,0.671209,6.31469)">
                            <ellipse cx="12.803" cy="18.261" rx="1.402" ry="1.99" style="fill:rgb(133,118,226);"/>
                        </g>
                        <g transform="matrix(-0.445827,-0.725302,0.851927,-0.523661,2.58302,38.4149)">
                            <path d="M12.22,16.883C12.22,16.883 11.207,18.158 11.207,18.705C11.207,19.173 11.661,19.552 12.22,19.552C12.779,19.552 13.233,19.173 13.233,18.705C13.233,18.158 12.22,16.883 12.22,16.883Z" style="fill:rgb(155,141,238);"/>
                        </g>
                        <g transform="matrix(1,0,0,1,0.810194,2.33389)">
                            <ellipse cx="13.001" cy="16" rx="0.953" ry="0.882" style="fill:rgb(155,141,238);"/>
                        </g>
                        <g transform="matrix(1.33351,0,0,1.07443,-4.08911,0.0027787)">
                            <ellipse cx="13.671" cy="16.988" rx="0.422" ry="0.54" style="fill:rgb(230,228,245);"/>
                        </g>
                        <g transform="matrix(1,0,0,1,0.671209,1.37438)">
                            <ellipse cx="13.489" cy="16.933" rx="0.24" ry="0.231" style="fill:rgb(79,79,79);"/>
                        </g>
                        <g transform="matrix(1,0,0,1,0.671209,2.53772)">
                            <path d="M14.099,15.795C14.172,15.813 14.3,15.859 14.367,15.934C14.438,16.013 14.526,16.215 14.524,16.271C14.522,16.327 14.419,16.331 14.355,16.271C14.334,16.252 14.164,16.321 14.064,16.34C13.962,16.36 13.861,16.365 13.866,16.365C13.868,16.365 13.649,16.207 13.661,16.085C13.676,15.939 13.923,15.824 13.923,15.821C13.923,15.815 14.041,15.78 14.099,15.795Z" style="fill:rgb(79,79,79);"/>
                        </g>
                    </g>
                </g>
                <g id="Layer322" serif:id="Layer32" transform="matrix(0.885722,0,0,1.00894,6.0436,7.14065)">
                    <path d="M12.687,21.255C12.989,20.781 13.66,20.323 13.66,20.323L13.986,20.61C14.021,20.275 14.145,19.984 14.376,19.747C14.843,19.391 15.494,19.075 15.862,19.145C15.572,19.579 15.56,19.886 15.638,20.152C15.602,20.103 16.112,19.222 16.287,19.13C16.582,18.975 18.045,18.942 17.991,19.063C17.749,19.301 17.656,19.55 17.649,19.805C17.91,19.543 18.176,19.316 18.454,19.172C19.344,19.2 20.115,19.526 20.678,20.372C20.385,20.789 19.918,21.09 19.33,21.311L18.55,21.109L19.106,21.703C18.992,21.932 18.438,22.128 17.374,22.324L16.763,21.288C16.87,21.63 16.973,22.071 16.874,22.483C16.38,22.723 15.745,22.843 15.219,22.757C15.348,22.362 15.223,21.957 14.894,21.628C14.889,22.095 14.751,22.488 14.452,22.792C14.452,22.792 13.525,22.721 13.125,22.836C12.724,22.951 12.048,23.501 12.048,23.481C12.048,23.465 12.146,22.687 12.21,22.402C12.222,22.352 12.519,21.518 12.687,21.255Z" style="fill:rgb(128,133,48);"/>
                    <path d="M15.637,20.146C15.631,20.053 16.117,19.219 16.287,19.13C16.582,18.975 18.045,18.942 17.991,19.063C17.749,19.301 17.656,19.55 17.649,19.805C17.91,19.543 18.176,19.316 18.454,19.172C19.344,19.2 20.115,19.526 20.678,20.372L20.672,20.379C20.476,20.313 20.274,20.257 20.119,20.241C19.448,20.171 18.187,20.141 17.355,20.236C16.595,20.323 15.838,20.532 15.132,20.81C14.425,21.088 13.654,21.403 13.116,21.904C12.74,22.253 12.318,23.011 12.082,23.46C12.06,23.476 12.048,23.484 12.048,23.481C12.048,23.465 12.146,22.687 12.21,22.402C12.222,22.352 12.519,21.518 12.687,21.255C12.989,20.781 13.66,20.323 13.66,20.323L13.986,20.61C14.021,20.275 14.145,19.984 14.376,19.747C14.843,19.391 15.494,19.075 15.862,19.145C15.574,19.575 15.56,19.881 15.637,20.146C15.637,20.149 15.637,20.151 15.638,20.152L15.637,20.146Z" style="fill:rgb(158,164,47);"/>
                    <g transform="matrix(-1,0,0,1,28.4351,3.09092)">
                        <path d="M12.687,21.255C12.989,20.781 13.66,20.323 13.66,20.323L13.986,20.61C14.021,20.275 14.145,19.984 14.376,19.747C14.843,19.391 15.494,19.075 15.862,19.145C15.572,19.579 15.56,19.886 15.638,20.152C15.602,20.103 16.112,19.222 16.287,19.13C16.582,18.975 18.045,18.942 17.991,19.063C17.749,19.301 17.656,19.55 17.649,19.805C17.91,19.543 18.176,19.316 18.454,19.172C19.344,19.2 20.115,19.526 20.678,20.372C20.385,20.789 19.918,21.09 19.33,21.311L18.55,21.109L19.106,21.703C18.992,21.932 18.438,22.128 17.374,22.324L16.763,21.288C16.87,21.63 16.973,22.071 16.874,22.483C16.38,22.723 15.745,22.843 15.219,22.757C15.348,22.362 15.223,21.957 14.894,21.628C14.889,22.095 14.751,22.488 14.452,22.792C14.452,22.792 13.525,22.721 13.125,22.836C12.724,22.951 12.048,23.501 12.048,23.481C12.048,23.465 12.146,22.687 12.21,22.402C12.222,22.352 12.519,21.518 12.687,21.255Z" style="fill:rgb(128,133,48);"/>
                    </g>
                    <g transform="matrix(-1,0,0,1,28.4351,3.09092)">
                        <path d="M15.637,20.146C15.631,20.053 16.117,19.219 16.287,19.13C16.582,18.975 18.045,18.942 17.991,19.063C17.749,19.301 17.656,19.55 17.649,19.805C17.91,19.543 18.176,19.316 18.454,19.172C19.344,19.2 20.115,19.526 20.678,20.372L20.672,20.379C20.476,20.313 20.274,20.257 20.119,20.241C19.448,20.171 18.187,20.141 17.355,20.236C16.595,20.323 15.838,20.532 15.132,20.81C14.425,21.088 13.654,21.403 13.116,21.904C12.74,22.253 12.318,23.011 12.082,23.46C12.06,23.476 12.048,23.484 12.048,23.481C12.048,23.465 12.146,22.687 12.21,22.402C12.222,22.352 12.519,21.518 12.687,21.255C12.989,20.781 13.66,20.323 13.66,20.323L13.986,20.61C14.021,20.275 14.145,19.984 14.376,19.747C14.843,19.391 15.494,19.075 15.862,19.145C15.574,19.575 15.56,19.881 15.637,20.146C15.637,20.149 15.637,20.151 15.638,20.152L15.637,20.146Z" style="fill:rgb(158,164,47);"/>
                    </g>
                    <g id="Layer332" serif:id="Layer33">
                        <g transform="matrix(0.831944,0.381042,-0.408482,0.891853,10.6391,-1.18719)">
                            <path d="M12.108,19.39C12.146,19.39 11.024,20.246 10.943,20.454C10.843,20.71 11.05,20.877 11.15,20.882C11.296,20.889 11.504,20.663 11.504,20.663L11.206,21.017C11.228,21.451 11.661,21.61 12.037,21.399L12.219,21.011C12.219,21.011 12.429,21.252 12.55,21.17C12.88,20.947 12.676,19.54 12.676,19.54C12.676,19.54 12.071,19.39 12.108,19.39Z" style="fill:rgb(133,118,226);"/>
                        </g>
                        <g transform="matrix(1,0,0,0.756037,0.671209,6.31469)">
                            <ellipse cx="12.803" cy="18.261" rx="1.402" ry="1.99" style="fill:rgb(133,118,226);"/>
                        </g>
                        <g transform="matrix(-0.445827,-0.725302,0.851927,-0.523661,2.58302,38.4149)">
                            <path d="M12.22,16.883C12.22,16.883 11.207,18.158 11.207,18.705C11.207,19.173 11.661,19.552 12.22,19.552C12.779,19.552 13.233,19.173 13.233,18.705C13.233,18.158 12.22,16.883 12.22,16.883Z" style="fill:rgb(155,141,238);"/>
                        </g>
                        <g transform="matrix(1,0,0,1,0.810194,2.33389)">
                            <ellipse cx="13.001" cy="16" rx="0.953" ry="0.882" style="fill:rgb(155,141,238);"/>
                        </g>
                        <g transform="matrix(1.33351,0,0,1.07443,-4.08911,0.0027787)">
                            <ellipse cx="13.671" cy="16.988" rx="0.422" ry="0.54" style="fill:rgb(230,228,245);"/>
                        </g>
                        <g transform="matrix(1,0,0,1,0.671209,1.37438)">
                            <ellipse cx="13.489" cy="16.933" rx="0.24" ry="0.231" style="fill:rgb(79,79,79);"/>
                        </g>
                        <g transform="matrix(1,0,0,1,0.671209,2.53772)">
                            <path d="M14.099,15.795C14.172,15.813 14.3,15.859 14.367,15.934C14.438,16.013 14.526,16.215 14.524,16.271C14.522,16.327 14.419,16.331 14.355,16.271C14.334,16.252 14.164,16.321 14.064,16.34C13.962,16.36 13.861,16.365 13.866,16.365C13.868,16.365 13.649,16.207 13.661,16.085C13.676,15.939 13.923,15.824 13.923,15.821C13.923,15.815 14.041,15.78 14.099,15.795Z" style="fill:rgb(79,79,79);"/>
                        </g>
                    </g>
                </g>
                <g id="Layer323" serif:id="Layer32" transform="matrix(0.885722,0,0,1.00894,8.93912,-5.58221)">
                    <path d="M12.687,21.255C12.989,20.781 13.66,20.323 13.66,20.323L13.986,20.61C14.021,20.275 14.145,19.984 14.376,19.747C14.843,19.391 15.494,19.075 15.862,19.145C15.572,19.579 15.56,19.886 15.638,20.152C15.602,20.103 16.112,19.222 16.287,19.13C16.582,18.975 18.045,18.942 17.991,19.063C17.749,19.301 17.656,19.55 17.649,19.805C17.91,19.543 18.176,19.316 18.454,19.172C19.344,19.2 20.115,19.526 20.678,20.372C20.385,20.789 19.918,21.09 19.33,21.311L18.55,21.109L19.106,21.703C18.992,21.932 18.438,22.128 17.374,22.324L16.763,21.288C16.87,21.63 16.973,22.071 16.874,22.483C16.38,22.723 15.745,22.843 15.219,22.757C15.348,22.362 15.223,21.957 14.894,21.628C14.889,22.095 14.751,22.488 14.452,22.792C14.452,22.792 13.525,22.721 13.125,22.836C12.724,22.951 12.048,23.501 12.048,23.481C12.048,23.465 12.146,22.687 12.21,22.402C12.222,22.352 12.519,21.518 12.687,21.255Z" style="fill:rgb(128,133,48);"/>
                    <path d="M15.637,20.146C15.631,20.053 16.117,19.219 16.287,19.13C16.582,18.975 18.045,18.942 17.991,19.063C17.749,19.301 17.656,19.55 17.649,19.805C17.91,19.543 18.176,19.316 18.454,19.172C19.344,19.2 20.115,19.526 20.678,20.372L20.672,20.379C20.476,20.313 20.274,20.257 20.119,20.241C19.448,20.171 18.187,20.141 17.355,20.236C16.595,20.323 15.838,20.532 15.132,20.81C14.425,21.088 13.654,21.403 13.116,21.904C12.74,22.253 12.318,23.011 12.082,23.46C12.06,23.476 12.048,23.484 12.048,23.481C12.048,23.465 12.146,22.687 12.21,22.402C12.222,22.352 12.519,21.518 12.687,21.255C12.989,20.781 13.66,20.323 13.66,20.323L13.986,20.61C14.021,20.275 14.145,19.984 14.376,19.747C14.843,19.391 15.494,19.075 15.862,19.145C15.574,19.575 15.56,19.881 15.637,20.146C15.637,20.149 15.637,20.151 15.638,20.152L15.637,20.146Z" style="fill:rgb(158,164,47);"/>
                    <g transform="matrix(-1,0,0,1,28.4351,3.09092)">
                        <path d="M12.687,21.255C12.989,20.781 13.66,20.323 13.66,20.323L13.986,20.61C14.021,20.275 14.145,19.984 14.376,19.747C14.843,19.391 15.494,19.075 15.862,19.145C15.572,19.579 15.56,19.886 15.638,20.152C15.602,20.103 16.112,19.222 16.287,19.13C16.582,18.975 18.045,18.942 17.991,19.063C17.749,19.301 17.656,19.55 17.649,19.805C17.91,19.543 18.176,19.316 18.454,19.172C19.344,19.2 20.115,19.526 20.678,20.372C20.385,20.789 19.918,21.09 19.33,21.311L18.55,21.109L19.106,21.703C18.992,21.932 18.438,22.128 17.374,22.324L16.763,21.288C16.87,21.63 16.973,22.071 16.874,22.483C16.38,22.723 15.745,22.843 15.219,22.757C15.348,22.362 15.223,21.957 14.894,21.628C14.889,22.095 14.751,22.488 14.452,22.792C14.452,22.792 13.525,22.721 13.125,22.836C12.724,22.951 12.048,23.501 12.048,23.481C12.048,23.465 12.146,22.687 12.21,22.402C12.222,22.352 12.519,21.518 12.687,21.255Z" style="fill:rgb(128,133,48);"/>
                    </g>
                    <g transform="matrix(-1,0,0,1,28.4351,3.09092)">
                        <path d="M15.637,20.146C15.631,20.053 16.117,19.219 16.287,19.13C16.582,18.975 18.045,18.942 17.991,19.063C17.749,19.301 17.656,19.55 17.649,19.805C17.91,19.543 18.176,19.316 18.454,19.172C19.344,19.2 20.115,19.526 20.678,20.372L20.672,20.379C20.476,20.313 20.274,20.257 20.119,20.241C19.448,20.171 18.187,20.141 17.355,20.236C16.595,20.323 15.838,20.532 15.132,20.81C14.425,21.088 13.654,21.403 13.116,21.904C12.74,22.253 12.318,23.011 12.082,23.46C12.06,23.476 12.048,23.484 12.048,23.481C12.048,23.465 12.146,22.687 12.21,22.402C12.222,22.352 12.519,21.518 12.687,21.255C12.989,20.781 13.66,20.323 13.66,20.323L13.986,20.61C14.021,20.275 14.145,19.984 14.376,19.747C14.843,19.391 15.494,19.075 15.862,19.145C15.574,19.575 15.56,19.881 15.637,20.146C15.637,20.149 15.637,20.151 15.638,20.152L15.637,20.146Z" style="fill:rgb(158,164,47);"/>
                    </g>
                    <g id="Layer333" serif:id="Layer33">
                        <g transform="matrix(0.831944,0.381042,-0.408482,0.891853,10.6391,-1.18719)">
                            <path d="M12.108,19.39C12.146,19.39 11.024,20.246 10.943,20.454C10.843,20.71 11.05,20.877 11.15,20.882C11.296,20.889 11.504,20.663 11.504,20.663L11.206,21.017C11.228,21.451 11.661,21.61 12.037,21.399L12.219,21.011C12.219,21.011 12.429,21.252 12.55,21.17C12.88,20.947 12.676,19.54 12.676,19.54C12.676,19.54 12.071,19.39 12.108,19.39Z" style="fill:rgb(133,118,226);"/>
                        </g>
                        <g transform="matrix(1,0,0,0.756037,0.671209,6.31469)">
                            <ellipse cx="12.803" cy="18.261" rx="1.402" ry="1.99" style="fill:rgb(133,118,226);"/>
                        </g>
                        <g transform="matrix(-0.445827,-0.725302,0.851927,-0.523661,2.58302,38.4149)">
                            <path d="M12.22,16.883C12.22,16.883 11.207,18.158 11.207,18.705C11.207,19.173 11.661,19.552 12.22,19.552C12.779,19.552 13.233,19.173 13.233,18.705C13.233,18.158 12.22,16.883 12.22,16.883Z" style="fill:rgb(155,141,238);"/>
                        </g>
                        <g transform="matrix(1,0,0,1,0.810194,2.33389)">
                            <ellipse cx="13.001" cy="16" rx="0.953" ry="0.882" style="fill:rgb(155,141,238);"/>
                        </g>
                        <g transform="matrix(1.33351,0,0,1.07443,-4.08911,0.0027787)">
                            <ellipse cx="13.671" cy="16.988" rx="0.422" ry="0.54" style="fill:rgb(230,228,245);"/>
                        </g>
                        <g transform="matrix(1,0,0,1,0.671209,1.37438)">
                            <ellipse cx="13.489" cy="16.933" rx="0.24" ry="0.231" style="fill:rgb(79,79,79);"/>
                        </g>
                        <g transform="matrix(1,0,0,1,0.671209,2.53772)">
                            <path d="M14.099,15.795C14.172,15.813 14.3,15.859 14.367,15.934C14.438,16.013 14.526,16.215 14.524,16.271C14.522,16.327 14.419,16.331 14.355,16.271C14.334,16.252 14.164,16.321 14.064,16.34C13.962,16.36 13.861,16.365 13.866,16.365C13.868,16.365 13.649,16.207 13.661,16.085C13.676,15.939 13.923,15.824 13.923,15.821C13.923,15.815 14.041,15.78 14.099,15.795Z" style="fill:rgb(79,79,79);"/>
                        </g>
                    </g>
                </g>
            </g>
        </g>
        <g transform="matrix(1,0,0,1,-1.12281,-0.0898245)">
            <circle cx="16.435" cy="9.523" r="5.345" style="fill:rgb(153,240,244);"/>
        </g>
        <g transform="matrix(1,0,0,1.40982,-0.029996,0.0746432)">
            <path d="M20.687,5.465C20.547,4.699 20.167,3.341 19.269,2.847C18.307,2.317 16.812,2.017 15.398,2.017C14.161,2.017 12.544,2.172 11.633,2.589C10.53,3.093 10.156,4.628 9.998,5.496L20.687,5.465Z" style="fill:rgb(94,79,184);"/>
        </g>
        <path d="M10.727,7.822C10.727,7.891 12.251,7.41 12.344,7.386C14.543,6.823 18.387,6.144 20.091,6.092C21.356,6.054 22.401,6.45 22.626,6.739C22.851,7.027 22.093,7.717 21.441,7.822C21.224,7.858 10.727,7.754 10.727,7.822Z" style="fill:rgb(155,141,238);"/>
        <path d="M10.491,8.724C10.506,8.694 10.523,8.668 10.542,8.647C10.81,8.349 13.716,8.465 14.472,8.559C14.788,8.599 15.076,9.212 15.076,9.212L15.731,9.194C15.731,9.194 16.11,8.539 16.47,8.479C17.239,8.352 20.024,8.208 20.346,8.432C20.392,8.464 20.424,8.57 20.442,8.724L20.76,8.724C20.857,8.724 20.937,8.803 20.937,8.901L20.937,9.256C20.937,9.353 20.857,9.433 20.76,9.433L20.444,9.433C20.398,10.025 20.245,10.707 19.966,10.977C19.451,11.473 17.963,11.584 17.261,11.412C16.56,11.241 15.759,9.946 15.759,9.946L15.086,9.95C15.086,9.95 14.442,11.228 13.769,11.454C13.089,11.682 11.54,11.791 11.002,11.323C10.649,11.016 10.419,10.118 10.396,9.433L9.964,9.433C9.866,9.433 9.787,9.353 9.787,9.256L9.787,8.901C9.787,8.803 9.866,8.724 9.964,8.724L10.491,8.724Z" style="fill:rgb(65,73,73);"/>
        <g transform="matrix(0.90384,0,0,0.90384,0.875614,0.346744)">
            <path d="M21.206,9.578C21.078,9.256 20.649,9.209 20.222,9.197C19.642,9.182 18.289,9.256 17.767,9.398C17.464,9.481 17.192,9.676 17.09,10.053C17.007,10.364 17.085,10.769 17.289,11.032C17.523,11.333 18.023,11.783 18.492,11.86C18.754,11.903 19.777,11.886 20.181,11.744C20.586,11.602 20.853,11.381 20.995,11.081C21.164,10.723 21.335,9.901 21.206,9.578Z" style="fill:rgb(72,89,124);"/>
            <clipPath id="_clip2">
                <path d="M21.206,9.578C21.078,9.256 20.649,9.209 20.222,9.197C19.642,9.182 18.289,9.256 17.767,9.398C17.464,9.481 17.192,9.676 17.09,10.053C17.007,10.364 17.085,10.769 17.289,11.032C17.523,11.333 18.023,11.783 18.492,11.86C18.754,11.903 19.777,11.886 20.181,11.744C20.586,11.602 20.853,11.381 20.995,11.081C21.164,10.723 21.335,9.901 21.206,9.578Z"/>
            </clipPath>
            <g clip-path="url(#_clip2)">
                <path d="M17.057,12.095C18.842,11.306 20.215,10.251 20.855,8.719L23.749,9.705L21.584,12.877L17.057,12.095Z" style="fill:rgb(93,119,173);"/>
            </g>
        </g>
        <g transform="matrix(-0.901452,0.065668,0.065668,0.901452,29.2383,-0.789675)">
            <path d="M21.139,9.555C21.01,9.232 20.649,9.209 20.222,9.197C19.642,9.182 18.277,9.302 17.755,9.444C17.453,9.527 17.192,9.676 17.09,10.053C17.007,10.364 17.123,10.898 17.327,11.161C17.561,11.462 17.982,11.862 18.451,11.938C18.712,11.981 19.722,12.026 20.283,11.879C20.697,11.77 20.912,11.405 21.053,11.105C21.223,10.747 21.268,9.878 21.139,9.555Z" style="fill:rgb(72,89,124);"/>
            <clipPath id="_clip3">
                <path d="M21.139,9.555C21.01,9.232 20.649,9.209 20.222,9.197C19.642,9.182 18.277,9.302 17.755,9.444C17.453,9.527 17.192,9.676 17.09,10.053C17.007,10.364 17.123,10.898 17.327,11.161C17.561,11.462 17.982,11.862 18.451,11.938C18.712,11.981 19.722,12.026 20.283,11.879C20.697,11.77 20.912,11.405 21.053,11.105C21.223,10.747 21.268,9.878 21.139,9.555Z"/>
            </clipPath>
            <g clip-path="url(#_clip3)">
                <g transform="matrix(-0.989443,0.144925,0.144925,0.989443,37.1505,-2.6872)">
                    <path d="M17.057,12.095C18.842,11.306 20.65,10.488 21.034,8.706L22.598,9.24L21.296,12.85L17.057,12.095Z" style="fill:rgb(93,119,173);"/>
                </g>
            </g>
        </g>
    </g>
</svg>
