<svg xmlns="http://www.w3.org/2000/svg" viewBox="0 0 1499.18 1499.18"><defs><style>.cls-1{fill:#6aff4e;}.cls-1,.cls-2,.cls-3,.cls-5,.cls-6,.cls-7{fill-rule:evenodd;}.cls-2{fill:#274100;}.cls-3{fill:#8e8e8e;}.cls-4,.cls-5{fill:#fffefe;}.cls-6{fill:#bfbfbf;}.cls-7{fill:red;}</style></defs><g id="Layer_2" data-name="Layer 2"><g id="Layer_1-2" data-name="Layer 1"><g id="pohja---panel"><g id="Border"><path class="cls-1" d="M1499.18,299.84C1499.18,134.35,1364.84,0,1199.35,0H299.84C134.35,0,0,134.35,0,299.84v899.51c0,165.49,134.35,299.83,299.84,299.83h899.51c165.49,0,299.83-134.34,299.83-299.83Z"/></g><g id="BG"><path class="cls-2" d="M1417.4,321c0-132.8-107.83-240.61-240.62-240.61H321.27C188.48,80.41,80.66,188.22,80.66,321v857.79c0,132.8,107.82,240.61,240.61,240.61h855.51c132.79,0,240.62-107.81,240.62-240.61Z"/></g></g><g id="CombustionEngineBan"><g id="Layer7"><path class="cls-3" d="M1159.31,1045.51c-12.69,19.42-32.57,42.7-59.47,69.48l-373.19,4.59-113.89-84.21s-154.33,1-199.84,0c-40.82-.85-64-41.45-64.29-70.27-.81-78,2.57-396.72,2.57-396.72,0-53.34,31.19-96.61,69.64-96.61l47.76,1V446.24S507.33,403,527.41,403c0,0,476.22.4,515.94.45,15.14,0,29.14,11,29,25.37-.29,26.28-.69,108.44.57,138.06.37,8.94,7.47,14.44,16.12,15.17,9.27.74,32.13-.45,49.68,0,16,.4,22.53,15.91,23,29.39C1164,677.67,1159.31,1045.51,1159.31,1045.51Z"/><path class="cls-3" d="M657.61,397.06a44.82,44.82,0,1,0-89.63,0v140.2a44.82,44.82,0,0,0,89.63,0Zm113.86,0a44.82,44.82,0,1,0-89.63,0v140.2a44.82,44.82,0,0,0,89.63,0Zm113.81,0a44.79,44.79,0,1,0-89.58,0v140.2a44.79,44.79,0,1,0,89.58,0Zm113.86,0a44.82,44.82,0,1,0-89.63,0v140.2a44.82,44.82,0,0,0,89.63,0Z"/><rect class="cls-4" x="468.62" y="446.26" width="603.6" height="26.57"/><path class="cls-5" d="M448,725.5c-1.69,34.74-3.57,107.63,13.64,143.49,16.59,34.54,51.56,68,89.67,71.81,116.3,11.81,613.69-1.08,608.07-1.08s0-84.09,0-84.09-445.55,7.64-548,1.12c-25.87-1.68-54.18-18.19-66.61-40.22-9.89-17.67-10.68-67.26-9.75-91,1.18-32.06.71-57.79-43.73-58.12C447.63,667.05,449,703.47,448,725.5Z"/><path class="cls-6" d="M461.62,730.76c-.16,47,.76,102.77,15.7,131.54,16.31,31.43,44.1,61.85,75.69,65.55,95.09,11.15,494.88,1.31,494.88,1.31l-1.42-60.24s-368.74,5.18-454.76-2.75c-24.3-2.22-51.4-24.2-61.54-44.7-8.13-16.36-9.9-65.81-9.17-87.92,1-29.73,2.3-54.37-27.87-54.5C460.73,678.92,461.69,710.26,461.62,730.76Z"/><path class="cls-5" d="M580.8,725.14c-1.69,34.74-3.56,107.63,13.64,143.49,16.6,34.55,51.71,67,89.68,71.81,94.17,12,481.12.33,475.5.33s0-84,0-84-335.07,6.42-415.41-.33c-25.83-2.2-54.19-18.18-66.61-40.21-9.89-17.68-10.69-67.27-9.75-91,1.17-32.06.7-57.79-43.73-58.12C580.43,666.69,581.83,703.11,580.8,725.14Z"/><path class="cls-6" d="M594.41,730.4c-.15,47,.77,102.77,15.7,131.54,16.32,31.43,44.11,61.86,75.7,65.56,95.08,11.14,476,2.43,476,2.43l-1.42-60.24s-349.89,4-435.92-3.87c-24.29-2.22-51.4-24.2-61.53-44.71-8.14-16.36-9.9-65.81-9.17-87.92,1-29.73,2.3-54.37-27.87-54.5C593.53,678.56,594.49,709.9,594.41,730.4Z"/><path class="cls-5" d="M720.5,725.14c-1.69,34.74-3.57,107.63,13.64,143.49,16.59,34.55,51.89,65.48,89.67,71.81,70.88,11.91,341.35-.37,335.72-.37s0-84.1,0-84.1-218.58,7-275.63.42c-25.78-3-54.18-18.18-66.61-40.21-9.89-17.68-10.68-67.27-9.75-91,1.18-32.06.71-57.79-43.73-58.12C720.12,666.69,721.53,703.11,720.5,725.14Z"/><path class="cls-6" d="M734.11,730.4c-.16,47,.77,102.77,15.7,131.54,16.31,31.43,44.1,61.86,75.69,65.56,64.69,7.57,395.19,3.3,395.19,3.3a360.89,360.89,0,0,0,19-61.37s-314.84,2-375.53-3.61c-24.3-2.22-51.4-24.2-61.53-44.71-8.14-16.36-9.91-65.81-9.18-87.92,1-29.73,2.3-54.37-27.87-54.5C733.22,678.56,734.18,709.9,734.11,730.4Z"/><path class="cls-5" d="M865.37,725.14c-1.69,34.74-3.57,107.63,13.64,143.49,16.59,34.55,52.54,62.34,89.67,71.81,46.73,11.91,196.31-.28,190.73-.28s0-84,0-84-97.78,6.94-130.64.28c-25.4-5.15-54.19-18.18-66.61-40.21-9.89-17.68-10.68-67.27-9.75-91,1.17-32.06.71-57.79-43.73-58.12C865,666.69,866.4,703.11,865.37,725.14Z"/><path class="cls-6" d="M879,730.4c-.15,47,.77,102.77,15.7,131.54,16.32,31.43,44.23,60.68,75.7,65.56,68.37,10.57,191.93,3,191.93,3l-1.42-60.29s-92.51,2.92-151.81-4.39c-24.23-3-51.4-24.2-61.54-44.71-8.14-16.36-9.9-65.81-9.17-87.92,1-29.73,2.3-54.37-27.87-54.5C878.09,678.56,879.05,709.9,879,730.4Z"/></g><path class="cls-7" d="M743.27,139c336.89,0,610.45,273.52,610.45,610.41s-273.56,610.45-610.45,610.45S132.82,1086.25,132.82,749.36,406.38,139,743.27,139Zm-454,376.78a508.08,508.08,0,0,0-56.57,233.63c0,281.81,228.75,510.56,510.56,510.56,171.42,0,323.2-84.61,415.83-214.36Zm925.83,429a508.09,508.09,0,0,0,38.72-195.33c0-281.77-228.8-510.56-510.56-510.56-156.24,0-296.16,70.31-389.81,181Z"/><path class="cls-5" d="M179.69,672.67V427.23a23.88,23.88,0,0,1,23.91-23.9h3.09a23.91,23.91,0,0,1,23.91,23.9V672.67l120,.33v91.69l-120-.38v241.08a24,24,0,0,1-23.91,23.95H203.6a23.93,23.93,0,0,1-23.91-23.95V764.31h-1a45.82,45.82,0,1,1,0-91.64Z"/></g></g></g></svg>