<svg xmlns="http://www.w3.org/2000/svg" viewBox="0 0 1499.18 1499.18"><defs><style>.cls-1{fill:#6aff4e;}.cls-1,.cls-2,.cls-3,.cls-4,.cls-5{fill-rule:evenodd;}.cls-2{fill:#274100;}.cls-3{fill:#737373;}.cls-4{fill:red;}.cls-5{fill:#b7c6cb;}</style></defs><g id="Layer_2" data-name="Layer 2"><g id="Layer_1-2" data-name="Layer 1"><g id="pohja---panel"><g id="Border"><path class="cls-1" d="M1499.18,299.84C1499.18,134.35,1364.84,0,1199.35,0H299.84C134.35,0,0,134.35,0,299.84v899.51c0,165.49,134.35,299.83,299.84,299.83h899.51c165.49,0,299.83-134.34,299.83-299.83Z"/></g><g id="BG"><path class="cls-2" d="M1417.4,321c0-132.8-107.83-240.61-240.62-240.61H321.27C188.48,80.41,80.66,188.22,80.66,321v857.79c0,132.8,107.82,240.61,240.61,240.61h855.51c132.79,0,240.62-107.81,240.62-240.61Z"/></g></g><g id="BikeBanOnSidewalks"><path class="cls-3" d="M1281.3,972.46c-66.62,207.57-286.48,351.32-537.24,351.32S273.39,1180,206.77,972.46Z"/><path class="cls-4" d="M743.29,139c336.89,0,610.4,273.52,610.4,610.41s-273.51,610.45-610.4,610.45S132.83,1086.26,132.83,749.37,406.4,139,743.29,139Zm0,99.85c281.76,0,510.56,228.79,510.56,510.56s-228.8,510.56-510.56,510.56S232.73,1031.18,232.73,749.37,461.48,238.81,743.29,238.81Z"/><path class="cls-5" d="M803.82,371.43H744.54c-18.41,0-33.4-15.52-33.4-34.59s15-34.6,33.4-34.6h136c18.42,0,33.4,15.47,33.4,34.6s-15,34.59-33.4,34.59H872l132.47,225.13a222.46,222.46,0,0,1,87.75-18c131.12,0,237.62,114.71,237.62,255.94s-106.5,255.93-237.62,255.93S854.51,975.75,854.51,834.48c0-84.19,37.85-159,96.24-205.62l-27.41-46.57L806.41,780.9a91.16,91.16,0,0,1,22,59.82c0,49.21-38.12,89.14-85.06,89.14-32.79,0-61.32-19.51-75.51-48.05H588.93c-20.64,118.69-117.44,208.6-233.58,208.6-131.12,0-237.62-114.66-237.62-255.93s106.5-255.94,237.62-255.94a223.16,223.16,0,0,1,118.13,33.88l66.33-112.68a26.13,26.13,0,0,1,1.48-2.31l-15.77-26.86a32.5,32.5,0,0,1-3.85-9.8H481.09c-27,0-48.93-22.69-48.93-50.65s21.94-50.7,48.93-50.7h105c27,0,48.94,22.73,48.94,50.7,0,25.8-18.7,47.14-42.81,50.26L757.25,741,876.87,537.8A30.53,30.53,0,0,1,890,525.59L808.41,386.91A33.84,33.84,0,0,1,803.82,371.43Zm-362.2,295.1a167.37,167.37,0,0,0-86.27-24c-98.38,0-178.2,86-178.2,191.93s79.82,192,178.2,192c83.21,0,153.15-61.56,172.77-144.64h-132c-25.19,0-45.64-21.14-45.69-47.24a36.79,36.79,0,0,1,4.87-21.43l.19-.29a47.5,47.5,0,0,1,3.38-5.81Zm541,16.53c-41.83,35.18-68.73,90-68.73,151.42,0,105.95,79.87,192,178.24,192s178.2-86,178.2-192-79.87-191.93-178.2-191.93a165.92,165.92,0,0,0-55.19,9.37l84,142.72c8.9,15.14,4.5,35.32-9.83,45s-33.26,5.24-42.21-9.9Zm-284,81.84L580.58,564.18l-54.41,92.45c31.68,35.27,54,80.35,62.76,130.51h86.45A87.63,87.63,0,0,1,698.67,764.9ZM493.1,712.76l-43.78,74.38h78.8A197,197,0,0,0,493.1,712.76Z"/><path class="cls-4" d="M1251.41,1034.28a57.66,57.66,0,0,0-19.24-79.22l-892-543.33a57.65,57.65,0,1,0-60,98.46l892,543.33A57.68,57.68,0,0,0,1251.41,1034.28Z"/><path class="cls-4" d="M367.44,1230.4a610.5,610.5,0,0,0,375.85,129.42c336.89,0,610.4-273.56,610.4-610.45S1080.18,139,743.29,139A610.45,610.45,0,0,0,209.38,453.45l87.33,48.42A510.61,510.61,0,0,1,743.29,238.81c281.76,0,510.56,228.79,510.56,510.56s-228.8,510.56-510.56,510.56A510.61,510.61,0,0,1,428.94,1151.7Z"/></g></g></g></svg>