<svg xmlns="http://www.w3.org/2000/svg" viewBox="0 0 1499.18 1499.18"><defs><style>.cls-1{fill:#6aff4e;}.cls-1,.cls-2,.cls-5,.cls-6{fill-rule:evenodd;}.cls-2{fill:#274100;}.cls-3{fill:#ffe282;}.cls-4{fill:#ebc64d;}.cls-5{fill:#b2b2b2;}.cls-6{fill:#fffbe5;}</style></defs><g id="Layer_2" data-name="Layer 2"><g id="Layer_1-2" data-name="Layer 1"><g id="pohja---panel"><g id="Border"><path class="cls-1" d="M1499.18,299.84C1499.18,134.35,1364.84,0,1199.35,0H299.84C134.35,0,0,134.35,0,299.84v899.51c0,165.49,134.35,299.83,299.84,299.83h899.51c165.49,0,299.83-134.34,299.83-299.83Z"/></g><g id="BG"><path class="cls-2" d="M1417.73,321.08c0-132.8-107.82-240.61-240.61-240.61H321.61C188.82,80.47,81,188.28,81,321.08v857.78c0,132.8,107.83,240.61,240.62,240.61h855.51c132.79,0,240.61-107.81,240.61-240.61Z"/></g></g><g id="EnergyConsumptionAwareness"><g id="electric"><path class="cls-3" d="M535,135.85,232,524.29H535L982.49,135.85Z"/><path class="cls-4" d="M535.65,524.35H809.7L117.15,981.72Z"/></g><path class="cls-5" d="M1273,360.44a44,44,0,1,0-88,0V514.75a44,44,0,0,0,88,0Zm-246.61-.19a44,44,0,1,0-88,0V514.56a44,44,0,1,0,88,0Z"/><path class="cls-6" d="M1070.22,929.17c-27.37-.23-51.51-.75-64.59-1.64-9.61-.61-21.24-9.23-23.25-15.19C946.47,806.41,912,708.53,875.69,603H863.27A22.19,22.19,0,0,1,841.1,580.8V536.36a22.19,22.19,0,0,1,22.17-22.22h478.31a22.22,22.22,0,0,1,22.17,22.22V580.8A22.22,22.22,0,0,1,1341.58,603h-12.42c-36.8,107.4-83.58,253-104.25,306.94-3,7.78-11,16.22-20.16,17-10.45.84-28.22,1.45-49.12,1.83a330.06,330.06,0,0,1-136.55,274.5,339.84,339.84,0,0,1-211.78,64.26v0a255.36,255.36,0,0,0-157.83,48.19c-37.17,27-82.69,103.74-82.69,103.74H475.71s62.86-128.77,122.43-172A340.65,340.65,0,0,1,810,1183.19v0A254.76,254.76,0,0,0,967.8,1135,247.79,247.79,0,0,0,1070.22,929.17Z"/></g></g></g></svg>