<svg xmlns="http://www.w3.org/2000/svg" xmlns:xlink="http://www.w3.org/1999/xlink" viewBox="0 0 1499.18 1499.18"><defs><style>.cls-1{fill:none;}.cls-2{fill:#6aff4e;}.cls-10,.cls-11,.cls-13,.cls-14,.cls-2,.cls-3,.cls-4,.cls-6,.cls-7,.cls-8{fill-rule:evenodd;}.cls-3{fill:#274100;}.cls-4{fill:#aa7850;}.cls-5{fill:#73a7c7;}.cls-6{fill:#893d00;}.cls-7{fill:#ffb048;}.cls-8{fill:#ffa227;}.cls-9{clip-path:url(#clip-path);}.cls-10{fill:#ffd49b;}.cls-11{fill:#e8972b;}.cls-12{clip-path:url(#clip-path-2);}.cls-13{fill:#efcd9f;}.cls-14{fill:#c57710;}.cls-15{clip-path:url(#clip-path-3);}</style><clipPath id="clip-path"><path class="cls-1" d="M308.19,174.91C333.67,163,454,172.51,603.61,270.72c67.3,44.12,208,123.21,253.41,195.1,51.94,82.3,76.45,215.67,83.49,257.62l-262.15,8.73c25-33.67-18.77-128.83-132.42-200.33-84.68-53.28-173.82-19.37-216.79-.7-26.71,11.59-52.22-94.58-51.21-190.76C278.9,253.58,305.16,176.33,308.19,174.91Z"/></clipPath><clipPath id="clip-path-2"><path class="cls-1" d="M299.08,960c25.69,32.58,909.61,7.45,909.61,7.45,37.08-6.94,38.43-243.79,8.67-252.84-57.24-17.35-889.92-12.94-921,11.9C266.69,750.16,276.81,931.8,299.08,960Z"/></clipPath><clipPath id="clip-path-3"><path class="cls-1" d="M188.65,1197.83c-15.52-34.24,62.69-217,172.86-357.39,73.55-93.77,168.16-165.53,233.22-159.73,20.92-2.87,66.6,22.41,113.54,11.78,66.52-15,114.82-15.58,159.08,11.64-81.89-6-265.2,93.37-296.37,283.42-5.11,31.08-2.23,143,9,161.86C599,1181.17,204.51,1232.81,188.65,1197.83Z"/></clipPath></defs><g id="Layer_2" data-name="Layer 2"><g id="Layer_1-2" data-name="Layer 1"><g id="pohja---panel"><g id="Border"><path class="cls-2" d="M1499.18,299.84C1499.18,134.35,1364.84,0,1199.35,0H299.84C134.35,0,0,134.35,0,299.84v899.51c0,165.49,134.35,299.83,299.84,299.83h899.51c165.49,0,299.83-134.34,299.83-299.83Z"/></g><g id="BG"><path class="cls-3" d="M1417.4,321c0-132.8-107.83-240.61-240.62-240.61H321.27C188.48,80.41,80.66,188.22,80.66,321v857.79c0,132.8,107.82,240.61,240.61,240.61h855.51c132.79,0,240.62-107.81,240.62-240.61Z"/></g></g><g id="ExtraInsulation"><g id="Layer11"><path class="cls-4" d="M1190.22,541.16,745.63,216.68,324.08,541.16v718.73h866.14Z"/><rect class="cls-5" x="504.02" y="576.66" width="500.33" height="458.79"/><path class="cls-6" d="M749.33,152.5l605.1,466.84h-121.1l-483-360.7L283.08,619.34H144.31Z"/></g><path class="cls-7" d="M298.58,295.64c4.78,0,9.58-15.3,4.8-15.26-35.48-12.62-71-12.45-106.5-3.82-9.33,1.29-4.71,28.48,6.35,26.68C230.48,284.92,263.53,288.53,298.58,295.64Zm-1-40.92c4.73.51,10.6-15.73,5.87-16.21-31.32-.14-60.51-6.18-88.26-16.47-7-14.56-32.22,26-13.19,28C233.83,257.19,265.66,259.73,297.54,254.72Zm1.15,84.94c4.78,0,4.8-21.67,0-21.68-34.47,16.9-94.36-2-94.36-2-9,7.9-6.72,18-.07,28.95C204.28,344.9,267.74,354.83,298.69,339.66Zm-93.27,52.53c.74,5,107.81-4.95,106.7-14l-4.87-14.92c2.58,5.79-100.23,14-103.31,3.59C198.26,371.38,196.66,378.54,205.42,392.19Zm106.66,29.47c4.69-.62,4.7-18.41,0-17.78-35.36,21.93-96.34,13.82-96.71,8.27-10.65,5.14-12.76,13.29,5.55,28.57C253.05,440.35,283.81,432.54,312.08,421.66ZM308,208.15c4.54,1.06,11.91-13.88,7.37-15-18.09-13.94-45.6-22.77-91.39-21.59-15-4-25.2,26.78-9.35,27.85C247.09,196.1,277.89,200.33,308,208.15ZM325,465c4.68-.63,9.23-1.29,8.48-5.27l-3.79-3.93c-.75-4-2.29-7.56-7-6.93-31.23,12.72-92.63,4.85-92.63,4.85-12.1,8-10,17.53,5.56,28.6C235.68,482.31,296.67,476.1,325,465Zm15.2,45.65c4.59-1,7.31-5,6.05-8.89L344,495.1c-1.26-3.86-7.87-6.26-12.47-5.24-33.32-1.95-93.71,9.65-91.93,13.78-9.62,17.07-3.95,24.74,9.07,27.94C246,523.39,305.41,501.92,340.24,510.64Z"/><path class="cls-8" d="M308.19,174.91C333.67,163,454,172.51,603.61,270.72c67.3,44.12,208,123.21,253.41,195.1,51.94,82.3,76.45,215.67,83.49,257.62l-262.15,8.73c25-33.67-18.77-128.83-132.42-200.33-84.68-53.28-173.82-19.37-216.79-.7-26.71,11.59-52.22-94.58-51.21-190.76C278.9,253.58,305.16,176.33,308.19,174.91Z"/><g class="cls-9"><path class="cls-10" d="M384.93,538.24,474,540.18c-48-126.46-22.52-243.73,35-362.64l-99.44-6.68C357.11,290.82,349.51,413.27,384.93,538.24Z"/><path class="cls-10" d="M501.63,562.18l62.88,35.59C629,447.28,644.44,328.21,736.58,303.3L622.91,229.9C522.08,281.1,554.71,423,501.63,562.18Z"/><path class="cls-10" d="M609.23,614.22l17.28,58.36C724.2,634.69,770.09,545.08,848,495c25.32-16.29,67.2-27.13,92.53-43.42L815.38,332c-61.22,58.34-87.47,143.52-128.81,208.18C666.65,571.43,628.75,597.86,609.23,614.22Z"/><path class="cls-10" d="M609.2,689.49,643.68,783,989.16,655.64,963.5,530.86s-75.79,86.33-126.18,108.91C778.27,666.2,609.2,689.49,609.2,689.49Z"/></g><path class="cls-11" d="M299.08,960c25.69,32.58,909.61,7.45,909.61,7.45,37.08-6.94,38.43-243.79,8.67-252.84-57.24-17.35-889.92-12.94-921,11.9C266.69,750.16,276.81,931.8,299.08,960Z"/><g class="cls-12"><path class="cls-13" d="M453.36,704.17h-99.7s-24.51,90.14-24.51,136.26c0,49.32,24.51,159.47,24.51,159.47h99.7Zm534.75,0H888.46c37.36,73.64,28.59,178.08,0,295.73h99.65c5.82-29.53,15-63.79,17.91-93.33C1012.68,837.53,1005.41,773.21,988.11,704.17Zm-180.18,0H708.27S725.9,838.28,725.9,887.54c0,36.42-17.63,112.36-17.63,112.36h99.66s21.18-110.34,21.18-159.47S807.93,704.17,807.93,704.17Zm364.17,0h-99.66c16.08,55.5,30.52,129.52,27.89,186.14-1.92,42.19-6.75,68.72-27.89,109.55h99.66c22-61,26.3-95.86,23.2-159.38C1193.57,805.84,1178.43,738.34,1172.1,704.12Zm-551.06,0H521.38V999.81H621c9.42-37.41,17.62-92.44,17.62-127.5C638.66,808.79,637.49,758.21,621,704.12Z"/><path class="cls-14" d="M580,976.75S615.51,869.31,654.6,826c38-42,69.94-64.41,103.5-83.3,64.31-36.19,126.66-42.19,130.36-38.53,5.62,5.58-89.91-34.6-81.56-23.77s-299.68,23.77-299.68,23.77-21.89-5.35-116,95.11c-63.43,67.68-122.44,172-122.44,172Z"/></g><path class="cls-7" d="M313.38,1199c-.05-4.78-18.24-9.56-18.19-4.78-15,35.49-14.77,71-4.45,106.5,1.54,9.33,33.93,4.69,31.78-6.37C300.67,1267.09,304.94,1234.05,313.38,1199Zm-48.75,1.08c.61-4.73-18.75-10.59-19.32-5.86-.14,31.31-7.31,60.52-19.54,88.27-17.35,7,30.94,32.2,33.37,13.17C267.63,1263.76,270.63,1231.94,264.63,1200.06Zm101.2-1.22c0-4.78-25.83-4.78-25.83,0,20.16,34.46-2.34,94.36-2.34,94.36,9.42,9,21.47,6.71,34.5,0C372.16,1293.25,383.92,1229.78,365.83,1198.84Zm62.67,93.24c6-.75-6-107.82-16.83-106.69l-17.76,4.87c6.89-2.57,16.83,100.22,4.36,103.32C403.71,1299.25,412.24,1300.84,428.5,1292.08Zm35-106.69c-.75-4.69-21.94-4.69-21.19,0,26.16,35.34,16.55,96.33,9.94,96.7,6.14,10.64,15.84,12.75,34-5.58C485.83,1244.41,476.5,1213.66,463.52,1185.39Zm-254.39,4.27c1.26-4.55-16.55-11.91-17.86-7.36-16.6,18.09-27.1,45.61-25.64,91.4-4.74,15,31.92,25.17,33.18,9.33C194.83,1250.55,199.85,1219.75,209.13,1189.66Zm306-17.25c-.75-4.69-1.55-9.24-6.28-8.49l-4.69,3.8c-4.74.75-9,2.29-8.25,7,15.19,31.22,5.86,92.63,5.86,92.63,9.56,12.09,20.9,10,34.08-5.58C535.85,1261.75,528.39,1200.76,515.13,1172.41Zm54.37-15.24a8.61,8.61,0,0,0-10.59-6.05l-7.92,2.3c-4.6,1.27-7.46,7.88-6.24,12.47-2.29,33.33,11.58,93.7,16.5,91.92,20.35,9.61,29.49,3.94,33.28-9.09C584.78,1251.44,559.14,1192,569.5,1157.17Z"/><path class="cls-7" d="M188.65,1197.83c-15.52-34.24,62.69-217,172.86-357.39,73.55-93.77,168.16-165.53,233.22-159.73,20.92-2.87,66.6,22.41,113.54,11.78,66.52-15,114.82-15.58,159.08,11.64-81.89-6-265.2,93.37-296.37,283.42-5.11,31.08-2.23,143,9,161.86C599,1181.17,204.51,1232.81,188.65,1197.83Z"/><g class="cls-15"><path class="cls-10" d="M615.09,1028.11c-17,15.19-124.12,7.1-331.68-3-44.3-2.16-93.15,6.41-146.68,3v106.81c155.77,16.09,329.82-22.09,493.08-38.6Z"/><path class="cls-10" d="M669.27,873c-68.34,0-158.62,6.62-226.92,6.62-91.13,0-164-31.13-255.14-31.13l3.7,118.45s255.89,7.53,335.63,7.53c47.62,0,142.73-7.53,142.73-7.53Z"/><path class="cls-10" d="M806.92,740s-34.33-33.8-102.07-21.84c-62.06,10.92-151.78,8.48-189,5.81C441.49,718.68,337.63,750,337.63,750l-54.26,54.7c89.24,9.19,154.25-8.86,232.47-6,116.26,4.12,195.29,59.15,273.41,40.87Z"/></g></g></g></g></svg>