<svg xmlns="http://www.w3.org/2000/svg" viewBox="0 0 1499.18 1499.18"><defs><style>.cls-1{fill:#6aff4e;}.cls-1,.cls-2,.cls-3,.cls-4,.cls-5,.cls-6,.cls-8{fill-rule:evenodd;}.cls-2{fill:#274100;}.cls-3{fill:#ffcf2f;}.cls-4{fill:#ffdf72;}.cls-5{fill:#558e2f;}.cls-6{fill:#ff311f;}.cls-7{fill:#ffe0e0;}.cls-8{fill:#737373;}.cls-9{fill:#a9a9a9;}</style></defs><g id="Layer_2" data-name="Layer 2"><g id="Layer_1-2" data-name="Layer 1"><g id="pohja---panel"><g id="Border"><path class="cls-1" d="M1499.18,299.84C1499.18,134.35,1364.84,0,1199.35,0H299.84C134.35,0,0,134.35,0,299.84v899.51c0,165.49,134.35,299.83,299.84,299.83h899.51c165.49,0,299.83-134.34,299.83-299.83Z"/></g><g id="BG"><path class="cls-2" d="M1417.4,321c0-132.8-107.83-240.61-240.62-240.61H321.27C188.48,80.41,80.66,188.22,80.66,321v857.79c0,132.8,107.82,240.61,240.61,240.61h855.51c132.79,0,240.62-107.81,240.62-240.61Z"/></g></g><g id="FireSafetyInspections"><g id="Layer14"><path class="cls-3" d="M1028.51,138.2c76.23,2.85,307.41,73.53,307.41,73.53s9,388-54.68,485.71C1219.69,791.79,1029.78,909,1029.78,909S817.14,796.65,768.44,699.5c-59.54-118.65-49.29-487.77-49.29-487.77S951.06,135.29,1028.51,138.2Z"/><path class="cls-4" d="M1027.43,138.15a8.25,8.25,0,0,1,1.11,0c76.18,2.86,307.36,73.54,307.36,73.54s9,388-54.68,485.7C1219.67,791.79,1029.81,909,1029.81,909s-.84-.42-2.38-1.27Z"/><path class="cls-5" d="M837.41,523.58l190,162.82,251.62-354.48-72.63-30.64-179,260.13L894.83,462Z"/></g><g id="Layer13"><path class="cls-6" d="M801.12,1272.55c0,37.49-31.09,68-69.36,68H408.09c-38.27,0-69.36-30.46-69.36-68V695.94c0-97.46,80.79-176.61,180.34-176.61H620.78c99.55,0,180.34,79.15,180.34,176.61Z"/><rect class="cls-7" x="338.72" y="1161.72" width="462.4" height="65.53"/><rect class="cls-7" x="338.71" y="693.29" width="462.4" height="65.53"/><path class="cls-8" d="M308.8,1069.36H139.14l34.35-260h101Z"/><path class="cls-8" d="M630.14,436.78a27.53,27.53,0,0,0-27.47-27.52H518a27.54,27.54,0,0,0-27.52,27.52v55A27.54,27.54,0,0,0,518,519.34h84.63a27.53,27.53,0,0,0,27.47-27.52Z"/><path class="cls-8" d="M887.58,342.47a17.36,17.36,0,0,0-17.37-17.37H567.46a17.36,17.36,0,0,0-17.37,17.37v34.79c0,9.6,10.25,32,19.85,32L870.21,368.6a17.36,17.36,0,0,0,17.37-17.37Z"/><path class="cls-8" d="M715.91,397.13l114,51.17a9,9,0,0,1,4.5,11.93l-7.37,16.48a9,9,0,0,1-11.93,4.56L649.19,406.73C666,404,696.66,399.7,715.91,397.13Z"/><ellipse class="cls-9" cx="569.92" cy="386.74" rx="60.92" ry="61.67"/><path class="cls-8" d="M188.77,572.8c1.59-79.13,66.62-142.48,146.35-142.48l155.16-.45.25,71.62c-.45-.05-155,1.48-155.41,1.48-39.94,0-72.5,31.77-73.2,71.42h-.05v235h-73.1V572.8Z"/></g></g></g></g></svg>