<svg xmlns="http://www.w3.org/2000/svg" viewBox="0 0 1499.18 1499.18"><defs><style>.cls-1{fill:#6aff4e;}.cls-1,.cls-2,.cls-3,.cls-5,.cls-6,.cls-8,.cls-9{fill-rule:evenodd;}.cls-2{fill:#274100;}.cls-3{fill:#ad7e59;}.cls-4{fill:#8cbbd9;}.cls-5{fill:#43230a;}.cls-6{fill:#8a5428;}.cls-7{fill:#73a7c7;}.cls-8{fill:#311a08;}.cls-9{fill:#e7e7e7;}</style></defs><g id="Layer_2" data-name="Layer 2"><g id="Layer_1-2" data-name="Layer 1"><g id="pohja---panel"><g id="Border"><path class="cls-1" d="M1499.18,299.84C1499.18,134.35,1364.84,0,1199.35,0H299.84C134.35,0,0,134.35,0,299.84v899.51c0,165.49,134.35,299.83,299.84,299.83h899.51c165.49,0,299.83-134.34,299.83-299.83Z"/></g><g id="BG"><path class="cls-2" d="M1417.4,321c0-132.8-107.83-240.61-240.62-240.61H321.27C188.48,80.41,80.66,188.22,80.66,321v857.79c0,132.8,107.82,240.61,240.61,240.61h855.51c132.79,0,240.62-107.81,240.62-240.61Z"/></g></g><g id="Layer10"><g id="Layer101"><path class="cls-3" d="M622.36,317.85,405,159.25,199,317.85V669.17H622.36Z"/><rect class="cls-4" x="293.34" y="356.07" width="227.06" height="221.67"/><path class="cls-5" d="M406.84,127.87l295.78,228.2H643.43L407.35,179.75,178.94,356.07H111.11Z"/></g><g id="Layer102"><path class="cls-3" d="M1302.58,313.94l-217.32-158.6L879.2,313.94V665.26h423.38Z"/><rect class="cls-4" x="977.38" y="354.51" width="227.06" height="221.67"/><path class="cls-5" d="M1087.07,124l295.77,228.2h-59.19L1087.57,175.84,859.16,352.16H791.33Z"/></g><g id="Layer11"><path class="cls-6" d="M1004.71,347.67,733.27,149.57,475.91,347.67v438.8h528.8Z"/><rect class="cls-7" x="585.77" y="369.35" width="305.46" height="280.1"/><path class="cls-8" d="M735.53,110.39,1105,395.4H1031L736.16,175.19,450.88,395.4H366.16Z"/></g><g id="Layer12"><path class="cls-9" d="M150.56,745.39H131.21V698.7H280.69v46.69H261.33v20H246.66v492.28h19.78v33.8h-121v-33.8h19.78V765.41H150.56Z"/><path class="cls-9" d="M1237.39,745.39H1218V698.7h149.49v46.69h-19.36v20h-14.67v492.28h19.78v33.8h-121v-33.8h19.78V765.41h-14.67Z"/><path class="cls-9" d="M754,618.31h.24v6.24l.47,15.33h-.47v631.17H724.45v-61.36H207.19v-64.5h39.47V890.56H206V857.19h38.76c36-136.27,250.13-240.47,509.16-242.91ZM290.86,890.56v254.63h67.08V890.56Zm113.34,0v254.63H483V890.56Zm125,0v254.63H612V890.56Zm129,0v254.63h66.23V890.56ZM483,689.05a495.45,495.45,0,0,0-78.75,39V857.19H483Zm129.05-36A734.28,734.28,0,0,0,529.22,673V857.19H612Zm112.17-12.38q-16.45.71-32.86,2.07t-32.81,3.32l-.28.05V857.19h66.23V640.67ZM357.94,761.89c-32.63,28.5-55.32,60.75-65.35,95.3h65.35Z"/><path class="cls-9" d="M744.74,618.31h-.23v6.24L744,639.88h.47v631.17h29.76v-61.36h517.27v-64.5h-39.47V890.56h40.69V857.19H1254c-36-136.27-250.12-240.47-509.16-242.91Zm463.13,272.25v254.63h-67.08V890.56Zm-113.35,0v254.63h-78.75V890.56Zm-125,0v254.63H886.73V890.56Zm-129,0v254.63H774.27V890.56Zm175.26-201.51a494.6,494.6,0,0,1,78.75,39V857.19h-78.75Zm-129-36A734.81,734.81,0,0,1,969.51,673V857.19H886.73ZM774.55,640.67q16.46.71,32.86,2.07t32.82,3.32l.28.05V857.19H774.27V640.67Zm366.24,121.22c32.62,28.5,55.31,60.75,65.34,95.3h-65.34Z"/></g></g></g></g></svg>