<svg xmlns="http://www.w3.org/2000/svg" viewBox="0 0 1499.18 1499.18"><defs><style>.cls-1{fill:#6aff4e;}.cls-1,.cls-2,.cls-3{fill-rule:evenodd;}.cls-2{fill:#274100;}.cls-3{fill:#aeaeae;}</style></defs><g id="Layer_2" data-name="Layer 2"><g id="Layer_1-2" data-name="Layer 1"><g id="pohja---panel"><g id="Border"><path class="cls-1" d="M1499.18,299.84C1499.18,134.35,1364.84,0,1199.35,0H299.84C134.35,0,0,134.35,0,299.84v899.51c0,165.49,134.35,299.83,299.84,299.83h899.51c165.49,0,299.83-134.34,299.83-299.83Z"/></g><g id="BG"><path class="cls-2" d="M1417.4,321c0-132.8-107.83-240.61-240.62-240.61H321.27C188.48,80.41,80.66,188.22,80.66,321v857.79c0,132.8,107.82,240.61,240.61,240.61h855.51c132.79,0,240.62-107.81,240.62-240.61Z"/></g></g><g id="HarshPrisonSentences"><g id="Layer3"><path class="cls-3" d="M1071.6,431.77c160,.84,289.24,131.42,288.39,291.4s-131.41,289.23-291.44,288.39S779.36,880.14,780.21,720.11,911.62,430.93,1071.6,431.77Zm-.49,93.56c108.37.57,195.85,89,195.28,197.35S1177.42,918.52,1069,918s-195.8-89-195.23-197.34S962.78,524.76,1071.11,525.33Z"/><path class="cls-3" d="M1242.85,947.42a23.44,23.44,0,0,0-23.31-23.58l-306.89-1.61a23.44,23.44,0,0,0-23.56,23.33L888.51,1055a23.48,23.48,0,0,0,23.32,23.58l306.88,1.62a23.46,23.46,0,0,0,23.56-23.33Z"/><path class="cls-3" d="M1126.18,1070.18a12.36,12.36,0,0,0-12.31-12.44l-87-.46a12.37,12.37,0,0,0-12.44,12.31l-.13,24.7a12.36,12.36,0,0,0,12.31,12.44l87,.46a12.37,12.37,0,0,0,12.44-12.31Z"/><ellipse cx="1071.85" cy="1002.93" rx="34.2" ry="35.13" transform="translate(63.28 2069.48) rotate(-89.7)"/></g><g id="Layer31"><path class="cls-3" d="M630.79,135.6c148.82,58.84,221.85,227.4,163,376.17s-227.4,221.85-376.22,163-221.8-227.38-163-376.2S482,76.77,630.79,135.6Zm-34.41,87c100.79,39.85,150.21,154,110.38,254.74S552.8,627.58,452,587.73,301.83,433.78,341.68,333,495.64,182.78,596.38,222.61Z"/><path class="cls-3" d="M603.29,678.25a23.44,23.44,0,0,0-13.17-30.43L304.73,535a23.45,23.45,0,0,0-30.42,13.2L234.08,649.92a23.47,23.47,0,0,0,13.17,30.43L532.64,793.19A23.47,23.47,0,0,0,563.06,780Z"/><path class="cls-3" d="M450,750.31a12.36,12.36,0,0,0-7-16.06l-80.9-32a12.37,12.37,0,0,0-16.06,7l-9.08,23a12.36,12.36,0,0,0,7,16.06l80.91,32a12.36,12.36,0,0,0,16.06-7Z"/><ellipse cx="423.8" cy="667.93" rx="34.2" ry="35.13" transform="translate(-353.17 816.44) rotate(-68.43)"/></g><path class="cls-3" d="M947.78,1311.06c4.74,50.58-3.42,64.17-89.15,71.53-76.92,6.66-91.69-.28-97.27-54-5.43-52.17,11.72-66.47,87.42-72.09C929.78,1250.55,943.05,1260.48,947.78,1311.06Zm-222.51,17.49c-10.64,49.68-22.5,60.14-106.5,41.48-75.38-16.73-87.42-27.75-76.64-80.72,10.5-51.33,31.17-59.86,105-42.51C726.25,1265.36,735.91,1278.86,725.27,1328.55Zm185.67-13.41c3.47,29.44-8.06,30.8-53.62,35.11s-54-2.81-56.72-27.09c-3.14-27.19,3-33,48.61-37.27S907.38,1285,910.94,1315.14Zm-222.05,6.19c-5.53,29.15-16.92,27-61.64,17.43s-50.62-18.84-46-42.84c5.16-26.91,12.8-30.56,57.52-21S694.52,1291.47,688.89,1321.33Zm382.18-192.8c46.45,20.53,54.32,34.31,18.89,112.73-31.74,70.36-45,79.88-94.64,58.55-48.14-20.76-52.27-42.7-20.21-111.51C1009.43,1114.7,1024.57,1108,1071.07,1128.53ZM527.55,1269.39c-21.94,45.8-35.91,53.25-113.25,15.47-69.37-33.89-78.52-47.39-55.64-96.38,22.17-47.48,44.25-51,112.08-16.82C543.25,1208.17,549.49,1223.55,527.55,1269.39Zm-33.7-15.52c-12.14,27.05-22.74,22.32-64,2.58s-44.86-30.19-34.73-52.4c11.3-25,19.59-26.77,60.84-7S506.32,1226.17,493.85,1253.87Zm562.73-91.21c27.42,11.34,23,22.07,4.5,63.93s-28.78,45.71-51.33,36.28c-25.26-10.54-27.32-18.75-8.81-60.61S1028.5,1151.08,1056.58,1162.66Zm-694.22-10.79c-46.4,20.68-61.87,17.25-96.28-61.64-30.89-70.78-29.06-87,20.06-109.45,47.68-21.8,66.75-10.12,96.29,59.81C414,1115.41,408.77,1131.16,362.36,1151.87Zm-15.61-33.65c-26.81,12.7-31.82,2.2-50.43-39.56s-14.58-52,7.54-62.44c24.75-11.67,32.25-7.64,50.86,34.17S374.18,1105.19,346.75,1118.22Zm-43.5-165.8c-46.92-19.5-55.07-33.09-21.47-112.31,30.15-71.06,43.18-80.91,93.29-60.66,48.61,19.6,53.25,41.49,22.73,111C365.22,964.8,350.22,971.87,303.25,952.42Zm13.69-34.5c-27.66-10.69-23.48-21.56-5.95-63.8s27.75-46.36,50.48-37.45c25.5,9.94,27.75,18.14,10.22,60.38S345.3,928.89,316.94,917.92Z"/><path class="cls-3" d="M725.46,1307a11,11,0,0,0-11.21,10.69l-.47,21.89a11,11,0,0,0,10.69,11.2l37.74.85A10.9,10.9,0,0,0,773.36,1341l.52-21.94a11,11,0,0,0-10.74-11.16Zm203.15-15a10.91,10.91,0,0,0-4.4,14.86l10.4,19.26a11,11,0,0,0,14.86,4.41l53.3-28.88a10.94,10.94,0,0,0,4.41-14.86l-10.41-19.26a10.93,10.93,0,0,0-14.86-4.41ZM524.5,1249.23a10.94,10.94,0,0,0-14,6.66l-7.35,20.62a11,11,0,0,0,6.65,14l35.53,12.61a11,11,0,0,0,14-6.66l7.31-20.62a11,11,0,0,0-6.66-14ZM374.88,1132.37a11,11,0,0,0-14.95-4.07l-19,10.92a11,11,0,0,0-4,15l18.71,32.72a11,11,0,0,0,14.95,4l19-10.87a11,11,0,0,0,4.08-15ZM1052.55,1145a10.93,10.93,0,0,0,11.11,10.78l21.94-.32a11,11,0,0,0,10.78-11.11l-.61-41a10.94,10.94,0,0,0-11.11-10.78l-21.94.33a11,11,0,0,0-10.78,11.11ZM329.22,956.83A10.93,10.93,0,0,0,321,943.7l-21.37-4.87a10.91,10.91,0,0,0-13.08,8.25l-8.39,36.79A10.94,10.94,0,0,0,286.38,997l21.37,4.88a11,11,0,0,0,13.13-8.25ZM405.39,770a10.64,10.64,0,0,0-5.95-13.87l-20.91-8.3a10.72,10.72,0,0,0-13.87,5.95l-7.88,19.83a10.72,10.72,0,0,0,6,13.87l20.9,8.3a10.67,10.67,0,0,0,13.88-5.95Z"/></g></g></g></svg>