<svg xmlns="http://www.w3.org/2000/svg" viewBox="0 0 1499.18 1499.18"><defs><style>.cls-1{fill:#6aff4e;}.cls-1,.cls-10,.cls-2,.cls-3,.cls-6,.cls-7,.cls-8{fill-rule:evenodd;}.cls-2{fill:#274100;}.cls-3{fill:#93c5d5;}.cls-4{fill:#d9d9d9;}.cls-5,.cls-7{fill:#878787;}.cls-6{fill:#474747;}.cls-8{fill:#fff;}.cls-9{fill:#979797;}.cls-10{fill:red;}</style></defs><g id="Layer_2" data-name="Layer 2"><g id="Layer_1-2" data-name="Layer 1"><g id="pohja---panel"><g id="Border"><path class="cls-1" d="M1499.18,299.84C1499.18,134.35,1364.84,0,1199.35,0H299.84C134.35,0,0,134.35,0,299.84v899.51c0,165.49,134.35,299.83,299.84,299.83h899.51c165.49,0,299.83-134.34,299.83-299.83Z"/></g><g id="BG"><path class="cls-2" d="M1417.4,321c0-132.8-107.83-240.61-240.62-240.61H321.27C188.48,80.41,80.66,188.22,80.66,321v857.79c0,132.8,107.82,240.61,240.61,240.61h855.51c132.79,0,240.62-107.81,240.62-240.61Z"/></g></g><g id="Cargo"><g id="Layer9"><path class="cls-3" d="M831.7,411.52a28.27,28.27,0,0,0-28.26-28.22H280.79a28.28,28.28,0,0,0-28.27,28.22V920.18a28.28,28.28,0,0,0,28.27,28.22H803.44a28.27,28.27,0,0,0,28.26-28.22Z"/><rect class="cls-4" x="252.53" y="749.38" width="580.16" height="73.03"/><rect class="cls-5" x="252.53" y="897.47" width="579.16" height="101.87"/><path class="cls-6" d="M534.24,999.35c0-49-49.31-88.69-110.15-88.69S314,950.37,314,999.35Z"/><rect class="cls-5" x="831.72" y="737.71" width="319.72" height="261.62"/><path class="cls-7" d="M1151.4,737.73H831.72V518.9h239.75Z"/><path class="cls-8" d="M1106.6,722.94H900.36V554.2H1044Z"/><path class="cls-6" d="M1138,999.35c0-49-49.31-88.69-110.15-88.69s-110.09,39.71-110.09,88.69Z"/><ellipse class="cls-9" cx="422.87" cy="1020.01" rx="94.89" ry="93.08"/><ellipse class="cls-4" cx="422.87" cy="1020.03" rx="50.43" ry="50.2"/><ellipse class="cls-9" cx="1030.09" cy="1021.2" rx="94.89" ry="94.27"/><ellipse class="cls-4" cx="1030.09" cy="1021.23" rx="50.43" ry="50.84"/></g><path class="cls-10" d="M743.29,139c336.89,0,610.41,273.52,610.41,610.41s-273.52,610.45-610.41,610.45S132.83,1086.26,132.83,749.37,406.4,139,743.29,139Zm0,99.85c281.76,0,510.56,228.79,510.56,510.56s-228.8,510.56-510.56,510.56S232.73,1031.18,232.73,749.37,461.48,238.81,743.29,238.81Z"/><path class="cls-10" d="M1251.41,1034.28a57.66,57.66,0,0,0-19.24-79.22l-892-543.33a57.65,57.65,0,1,0-60,98.46l892,543.33A57.68,57.68,0,0,0,1251.41,1034.28Z"/></g></g></g></svg>