<svg xmlns="http://www.w3.org/2000/svg" viewBox="0 0 1499.18 1499.18"><defs><style>.cls-1{fill:#6aff4e;}.cls-1,.cls-2,.cls-3,.cls-4,.cls-5,.cls-8{fill-rule:evenodd;}.cls-2{fill:#274100;}.cls-3,.cls-7{fill:#72c4ff;}.cls-4{fill:#ad7952;}.cls-5{fill:#1d0700;}.cls-6,.cls-8{fill:#dcdcdc;}</style></defs><g id="Layer_2" data-name="Layer 2"><g id="Layer_1-2" data-name="Layer 1"><g id="pohja---panel"><g id="Border"><path class="cls-1" d="M1499.18,299.84C1499.18,134.35,1364.84,0,1199.35,0H299.84C134.35,0,0,134.35,0,299.84v899.51c0,165.49,134.35,299.83,299.84,299.83h899.51c165.49,0,299.83-134.34,299.83-299.83Z"/></g><g id="BG"><path class="cls-2" d="M1417.4,321c0-132.8-107.83-240.61-240.62-240.61H321.27C188.48,80.41,80.66,188.22,80.66,321v857.79c0,132.8,107.82,240.61,240.61,240.61h855.51c132.79,0,240.62-107.81,240.62-240.61Z"/></g></g><g id="Layer29"><g id="Layer31"><path class="cls-3" d="M397.89,541.75c-51-51.55-62.27-137.48-21.09-206.87S500.2,232,571.5,249.17C591.88,180.52,662.79,128,745.17,128S898.4,180.52,918.78,249.17c71.36-17.16,153.56,16.31,194.75,85.71s29.9,155.32-21.09,206.87Z"/><path class="cls-3" d="M670.36,610.62C630.2,576.26,621.31,519,653.75,472.74s97.18-68.56,153.34-57.12c16-45.76,71.9-80.76,136.78-80.76s120.68,35,136.73,80.76c56.2-11.44,121,10.87,153.38,57.12s23.55,103.52-16.6,137.88Z"/><path class="cls-3" d="M279.9,610.62c-40.16-34.36-49-91.63-16.61-137.88s97.18-68.56,153.34-57.12c16.05-45.76,71.9-80.76,136.78-80.76s120.68,35,136.73,80.76c56.2-11.44,121,10.87,153.38,57.12s23.55,103.52-16.61,137.88Z"/></g><g id="building-base"><path class="cls-4" d="M280.52,749,761.71,337.39l455.12,405.83-105.56.65v620.19H412.66V748.19Z"/><path class="cls-5" d="M602.66,471.61,761.49,334.88l458,409-107.25.64L760.53,438.34,412.71,747.84,279.26,750,479.63,577.52V399.34h123Z"/></g><g id="Layer30"><rect class="cls-6" x="76.8" y="997.63" width="510.45" height="47.17"/><ellipse class="cls-7" cx="614.94" cy="1021.2" rx="59.52" ry="61.89"/><rect class="cls-6" x="567.5" y="1153.36" width="335.93" height="47.17"/><ellipse class="cls-7" cx="924.23" cy="1176.93" rx="59.52" ry="61.89"/><rect class="cls-6" x="547.66" y="788.19" width="136.03" height="47.17"/><polygon class="cls-8" points="125.68 999.76 547.8 788.19 567.5 830.68 145.38 1042.26 125.68 999.76"/><polygon class="cls-8" points="252.06 1042.45 567.45 1200.53 587.15 1158.03 271.77 999.96 252.06 1042.45"/><ellipse class="cls-7" cx="723.46" cy="811.77" rx="59.52" ry="61.89"/><rect class="cls-6" x="1028.42" y="841.9" width="385.1" height="47.17"/><ellipse class="cls-7" cx="988.66" cy="865.42" rx="59.52" ry="61.89"/><rect class="cls-6" x="865.73" y="997.63" width="188.9" height="47.17"/><polygon class="cls-8" points="1265.28 844.6 1029.55 1005.36 1054.43 1044.81 1290.16 884.04 1265.28 844.6"/><ellipse class="cls-7" cx="825.96" cy="1021.16" rx="59.52" ry="61.89"/></g></g></g></g></svg>