<svg xmlns="http://www.w3.org/2000/svg" viewBox="0 0 1499.18 1499.18"><defs><style>.cls-1{fill:#6aff4e;}.cls-1,.cls-2,.cls-3,.cls-4,.cls-5{fill-rule:evenodd;}.cls-2{fill:#274100;}.cls-3{fill:red;}.cls-4{fill:#85878a;}.cls-5{fill:#fff4dd;}</style></defs><g id="Layer_2" data-name="Layer 2"><g id="Layer_1-2" data-name="Layer 1"><g id="pohja---panel"><g id="Border"><path class="cls-1" d="M1499.18,299.84C1499.18,134.35,1364.84,0,1199.35,0H299.84C134.35,0,0,134.35,0,299.84v899.51c0,165.49,134.35,299.83,299.84,299.83h899.51c165.49,0,299.83-134.34,299.83-299.83Z"/></g><g id="BG"><path class="cls-2" d="M1417.4,321c0-132.8-107.83-240.61-240.62-240.61H321.27C188.48,80.41,80.66,188.22,80.66,321v857.79c0,132.8,107.82,240.61,240.61,240.61h855.51c132.79,0,240.62-107.81,240.62-240.61Z"/></g></g><g id="HighriseBan"><path class="cls-3" d="M743.29,139c336.89,0,610.4,273.52,610.4,610.41s-273.51,610.45-610.4,610.45S132.83,1086.26,132.83,749.37,406.4,139,743.29,139Zm0,99.85c281.76,0,510.56,228.79,510.56,510.56s-228.8,510.56-510.56,510.56S232.73,1031.18,232.73,749.37,461.48,238.81,743.29,238.81Z"/><path class="cls-4" d="M681.85,112.84l493.09,262.64v1044H673.27Z"/><path class="cls-4" d="M448.52,284.22H458V192.06h24.52v92.16h76.36v43.87h21.75V1419.53H375.3V328.09h29.39V284.22h18.66V192.06h25.17Z"/><path class="cls-5" d="M904,716.26v55.22H830.5V716.26Zm112.88,55.22h-70V716.26h70Zm42.84-55.22h115.13v55.22H1059.72ZM904,618.11v55.21H830.5V618.11Zm112.88,55.21h-70V618.11h70Zm42.84-55.21h115.13v55.21H1059.72ZM904,519.9v55.27H830.5V519.9Zm112.88,55.27h-70V519.9h70Zm42.84-55.27h115.13v55.27H1059.72Z"/><path class="cls-5" d="M566.36,951.39h-43v54.89h43Zm-64.68,0h-43v54.89h43Zm-64.69,0H394v54.89h43Zm129.37-78.33h-43V928h43Zm-64.68,0h-43V928h43Zm-64.69,0H394V928h43Zm129.37-78.33h-43v54.84h43Zm-64.68,0h-43v54.84h43Zm-64.69,0H394v54.84h43Zm129.37-78.37h-43v54.89h43Zm-64.68,0h-43v54.89h43Zm-64.69,0H394v54.89h43ZM566.36,638h-43v54.89h43Zm-64.68,0h-43v54.89h43ZM437,638H394v54.89h43Zm129.37-78.38h-43v54.89h43Zm-64.68,0h-43v54.89h43Zm-64.69,0H394v54.89h43Zm129.37-78.32h-43v54.89h43Zm-64.68,0h-43v54.89h43Zm-64.69,0H394v54.89h43ZM566.36,403h-43v54.89h43Zm-64.68,0h-43v54.89h43ZM437,403H394v54.89h43Z"/><path class="cls-3" d="M1251.41,1034.27a57.64,57.64,0,0,0-19.24-79.21l-892-543.33a57.65,57.65,0,1,0-60,98.46l892,543.33A57.68,57.68,0,0,0,1251.41,1034.27Z"/><path class="cls-3" d="M1353.49,765.62c-8.63,329.39-278.72,594.19-610.22,594.19S141.68,1095,133.05,765.62H233c8.58,274.27,234,494.3,510.28,494.3s501.7-220,510.33-494.3Z"/></g></g></g></svg>