<svg xmlns="http://www.w3.org/2000/svg" viewBox="0 0 1499.18 1499.18"><defs><style>.cls-1{fill:#6aff4e;}.cls-1,.cls-10,.cls-2,.cls-3,.cls-4,.cls-6,.cls-8,.cls-9{fill-rule:evenodd;}.cls-2{fill:#274100;}.cls-3{fill:#8b8b8b;}.cls-4{fill:#e3e3e3;}.cls-5{fill:#b1b1b1;}.cls-6{fill:#272727;}.cls-10,.cls-7{fill:#d91318;}.cls-8{fill:#f3ae00;}.cls-9{fill:#4c3600;}</style></defs><g id="Layer_2" data-name="Layer 2"><g id="Layer_1-2" data-name="Layer 1"><g id="pohja---panel"><g id="Border"><path class="cls-1" d="M1499.18,299.84C1499.18,134.35,1364.84,0,1199.35,0H299.84C134.35,0,0,134.35,0,299.84v899.51c0,165.49,134.35,299.83,299.84,299.83h899.51c165.49,0,299.83-134.34,299.83-299.83Z"/></g><g id="BG"><path class="cls-2" d="M1417.4,321c0-132.8-107.83-240.61-240.62-240.61H321.27C188.48,80.41,80.66,188.22,80.66,321v857.79c0,132.8,107.82,240.61,240.61,240.61h855.51c132.79,0,240.62-107.81,240.62-240.61Z"/></g></g><g id="HighSpeedHighways"><g id="BG1"><path class="cls-3" d="M1417.4,321c0-103.25-65.2-191.41-156.64-225.51a238,238,0,0,0-52-13c-10.46-1.4-509.36-2.12-520.21-2.12L80.66,382.6v796.21c0,108.35,71.77,200.07,170.32,230.15a237.92,237.92,0,0,0,37.63,8.26c10.67,1.44,529.22,2.2,540.3,2.2L1417.4,1067Z"/></g><path class="cls-4" d="M1417.4,1043.94l0-64.87-752,440.37,110.8,0Z"/><path class="cls-4" d="M850.1,80.42l-124.69-.13-644.73,323,0,62.62Z"/><path class="cls-4" d="M480.39,859.56,326.14,943.39,149.07,1054.56l186.1-95.69L489.41,875Z"/><path class="cls-4" d="M564.1,873l-297,174.31L88.76,1151.5l184.36-93.86,297-174.3Z"/><path class="cls-4" d="M416.8,583.14,213.78,702,113.36,763.71l149.78-76.5,161.94-89.89Z"/><path class="cls-4" d="M803.07,907.44l-253.42,152C550.88,1061.54,169,1283.8,169,1283.8s386.92-213.65,388.19-211.47l253.43-152Z"/><path class="cls-4" d="M446.1,716.87l-203,118.84L142.65,897.44l149.79-76.51,161.93-89.88Z"/><g id="Layer16"><rect class="cls-5" x="1007.36" y="232.35" width="59.35" height="518.02" transform="translate(-103.99 613.59) rotate(-31.47)"/><rect class="cls-5" x="591.23" y="488.91" width="59.35" height="518.02" transform="matrix(0.85, -0.52, 0.52, 0.85, -299.11, 434.1)"/><path class="cls-6" d="M1017.68,300.08a30.82,30.82,0,0,0,10.19-42.35l-32.12-52.48a30.82,30.82,0,0,0-42.35-10.2L824.57,273.89a30.82,30.82,0,0,0-10.15,42.33l32.12,52.48a30.82,30.82,0,0,0,42.32,10.22Z"/><path class="cls-6" d="M1267.35,713.49a30.83,30.83,0,0,0,10.19-42.35l-32.12-52.49a30.82,30.82,0,0,0-42.35-10.2l-128.83,78.84a30.82,30.82,0,0,0-10.15,42.33l32.12,52.49a30.82,30.82,0,0,0,42.32,10.22Z"/><path class="cls-6" d="M593.14,555.2a30.83,30.83,0,0,0,10.19-42.35l-32.12-52.49a30.83,30.83,0,0,0-42.35-10.2L400,529a30.83,30.83,0,0,0-10.15,42.34L422,623.82A30.81,30.81,0,0,0,464.31,634Z"/><path class="cls-6" d="M845.89,973.7a30.81,30.81,0,0,0,10.18-42.35L824,878.86a30.83,30.83,0,0,0-42.35-10.2L652.78,947.5a30.83,30.83,0,0,0-10.15,42.34l32.12,52.48a30.81,30.81,0,0,0,42.31,10.22Z"/><rect class="cls-7" x="1155.86" y="173.33" width="126.06" height="443.06" transform="translate(-26.87 694.33) rotate(-31.47)"/><path class="cls-8" d="M1311.52,367.69c2.24,6.8.6,16.56-1.85,21.8-2.38,5-9.26,16.11-9.26,16.11S1061.67,595.85,1022,642.2c-19.2,22.4,10.51,83.74,10.51,83.74L827,852.18s-49.45-9.07-72.16,0C715.15,868,588.73,947.22,588.73,947.22L485.46,929.78,390.33,774.34c16.73-42.27,33.1-68.77,33.1-68.77s147.56-89,182-120.69c18.47-17,24.74-69.24,24.74-69.24L834.47,398s46,57.71,78.16,51.67c60.51-11.36,337.9-124.49,337.9-124.49s16.69-.35,21,.45a39.37,39.37,0,0,1,20.86,11.3C1299,344,1308.65,359,1311.52,367.69Z"/><path class="cls-9" d="M914.75,633.63a23.88,23.88,0,0,0,7.91-32.79l-24.88-40.65A23.86,23.86,0,0,0,865,552.31L718.21,642.13a23.83,23.83,0,0,0-7.88,32.77l24.88,40.66A23.85,23.85,0,0,0,768,723.45Z"/><rect class="cls-7" x="491.51" y="737.56" width="248.72" height="42.93" transform="translate(-303.71 427.68) rotate(-31.13)"/><path class="cls-10" d="M510.85,1090.34,271.44,699.15,415.23,649.9l204.9,334.81Z"/></g></g></g></g></svg>