<svg xmlns="http://www.w3.org/2000/svg" viewBox="0 0 1499.18 1499.18"><defs><style>.cls-1{fill:#6aff4e;}.cls-1,.cls-2,.cls-3,.cls-4,.cls-5,.cls-6,.cls-8{fill-rule:evenodd;}.cls-2{fill:#274100;}.cls-3{fill:#d59b42;}.cls-4{fill:#fbf4d5;}.cls-5{fill:#515151;}.cls-6{fill:#aaa;}.cls-7{fill:#d8d8d8;}.cls-8{fill:#ffd900;}</style></defs><g id="Layer_2" data-name="Layer 2"><g id="Layer_1-2" data-name="Layer 1"><g id="pohja---panel"><g id="Border"><path class="cls-1" d="M1499.18,299.84C1499.18,134.35,1364.84,0,1199.35,0H299.84C134.35,0,0,134.35,0,299.84v899.51c0,165.49,134.35,299.83,299.84,299.83h899.51c165.49,0,299.83-134.34,299.83-299.83Z"/></g><g id="BG"><path class="cls-2" d="M1417.4,321c0-132.8-107.83-240.61-240.62-240.61H321.27C188.48,80.41,80.66,188.22,80.66,321v857.79c0,132.8,107.82,240.61,240.61,240.61h855.51c132.79,0,240.62-107.81,240.62-240.61Z"/></g></g><g id="LogisticUpgrade"><polygon class="cls-3" points="480.67 692.9 1062.05 522.4 1207.33 1008.72 625.95 1179.21 480.67 692.9"/><polygon class="cls-4" points="708.15 626.21 834.58 589.13 890.54 776.46 764.11 813.54 708.15 626.21"/><path class="cls-5" d="M1151.64,951.94l-224.07,65.71,9.09,30.43,224.07-65.71Zm-16.57-55.48L911,962.17l9.09,30.43,224.07-65.71ZM1118.49,841,894.42,906.69l9.09,30.42,224.07-65.71Z"/><polygon class="cls-6" points="555.61 1199.87 1239.29 999.37 1260.62 1070.78 576.94 1271.27 555.61 1199.87"/><polygon class="cls-6" points="574.76 1271.89 311.27 389.85 383.78 368.58 647.28 1250.63 574.76 1271.89"/><polygon class="cls-6" points="158.1 371.78 379.52 371.74 379.28 446.24 157.87 446.29 158.1 371.78"/><ellipse class="cls-7" cx="585.55" cy="1281.69" rx="101.16" ry="97.18" transform="translate(-142.07 74.97) rotate(-6.54)"/><path class="cls-5" d="M534.5,1129.29c79.13-23.21,162.35,21.56,185.77,100s-21.79,160.86-100.92,184.07-162.37-21.61-185.78-100S455.37,1152.49,534.5,1129.29Zm21.21,71c39.57-11.6,81.18,10.78,92.88,50s-10.88,80.45-50.45,92.06-81.19-10.83-92.9-50S516.14,1211.88,555.71,1200.28Z"/><path class="cls-8" d="M749.37,132.19l73.54,120.47,137.35,32.62L868.33,392.34,879.72,533,749.37,478.73,619,533,630.4,392.34,538.48,285.28l137.34-32.62Z"/></g></g></g></svg>