<svg xmlns="http://www.w3.org/2000/svg" viewBox="0 0 1499.18 1499.18"><defs><style>.cls-1{fill:#6aff4e;}.cls-1,.cls-2,.cls-3,.cls-4{fill-rule:evenodd;}.cls-2{fill:#274100;}.cls-3{fill:#f9eab7;}.cls-4,.cls-6{fill:#577cb0;}.cls-5{fill:#aaa187;}</style></defs><g id="Layer_2" data-name="Layer 2"><g id="Layer_1-2" data-name="Layer 1"><g id="pohja---panel"><g id="Border"><path class="cls-1" d="M1499.18,299.84C1499.18,134.35,1364.84,0,1199.35,0H299.84C134.35,0,0,134.35,0,299.84v899.51c0,165.49,134.35,299.83,299.84,299.83h899.51c165.49,0,299.83-134.34,299.83-299.83Z"/></g><g id="BG"><path class="cls-2" d="M1417.4,321c0-132.8-107.83-240.61-240.62-240.61H321.27C188.48,80.41,80.66,188.22,80.66,321v857.79c0,132.8,107.82,240.61,240.61,240.61h855.51c132.79,0,240.62-107.81,240.62-240.61Z"/></g></g><g id="LotParkingFee"><path class="cls-3" d="M821.15,187H1035a80.61,80.61,0,0,1,80.59,80.59v964.79A80.61,80.61,0,0,1,1035,1313H820.53a67.43,67.43,0,0,0,.62-9.56c0-39.18-32.16-71-71.79-71s-71.79,31.86-71.79,71a67.44,67.44,0,0,0,.63,9.56H463.71a80.62,80.62,0,0,1-80.59-80.6V267.57A80.61,80.61,0,0,1,463.71,187H677.57c0,39.22,32.17,71,71.79,71S821.15,226.2,821.15,187Z"/><path class="cls-4" d="M749.38,339.39c114.92,0,208.21,94.45,208.21,210.72S864.3,760.83,749.38,760.83,541.12,666.38,541.12,550.11,634.45,339.39,749.38,339.39Zm0,27.38c100,0,181.17,82.14,181.17,183.34S849.37,733.45,749.38,733.45,568.16,651.31,568.16,550.11,649.38,366.77,749.38,366.77Z"/><rect class="cls-5" x="429.51" y="924.67" width="639.75" height="37.91"/><rect class="cls-5" x="429.51" y="847.37" width="639.75" height="41.11"/><rect class="cls-5" x="804.93" y="1058.62" width="264.32" height="87.3"/><path class="cls-6" d="M652.66,419.54H786q43.47,0,65.2,20.79c14.49,13.85,21.74,33.91,21.74,59.43,0,26.26-8,47-23.55,61.62-15.94,15-39.85,22.25-72.09,22.25H733.08v97H652.66Zm80.42,111.22H753c15.22,0,26.08-2.56,32.24-8,6.52-5.47,9.42-12.39,9.42-20.78a29.3,29.3,0,0,0-8-20.78c-5.43-5.84-15.58-8.39-30.79-8.39H733.08Z"/></g></g></g></svg>