<svg xmlns="http://www.w3.org/2000/svg" viewBox="0 0 1499.18 1499.18"><defs><style>.cls-1{fill:#6aff4e;}.cls-1,.cls-2,.cls-3,.cls-4,.cls-5,.cls-6,.cls-7,.cls-9{fill-rule:evenodd;}.cls-2{fill:#274100;}.cls-3{fill:#ffcf2f;}.cls-4{fill:#ffdf72;}.cls-5{fill:#cf9f03;}.cls-6{fill:#315f13;}.cls-7{fill:#558e2f;}.cls-8{fill:#a3e07a;}.cls-9{fill:#314821;}</style></defs><g id="Layer_2" data-name="Layer 2"><g id="Layer_1-2" data-name="Layer 1"><g id="pohja---panel"><g id="Border"><path class="cls-1" d="M1499.18,299.84C1499.18,134.35,1364.84,0,1199.35,0H299.84C134.35,0,0,134.35,0,299.84v899.51c0,165.49,134.35,299.83,299.84,299.83h899.51c165.49,0,299.83-134.34,299.83-299.83Z"/></g><g id="BG"><path class="cls-2" d="M1417.4,321c0-132.8-107.83-240.61-240.62-240.61H321.27C188.48,80.41,80.66,188.22,80.66,321v857.79c0,132.8,107.82,240.61,240.61,240.61h855.51c132.79,0,240.62-107.81,240.62-240.61Z"/></g></g><g id="Layer14"><path class="cls-3" d="M754.81,161.57c116.37,5.06,468.69,115.11,468.69,115.11s10.22,592.54-88,741.1c-94.84,143.49-385.9,320.73-385.9,320.73S426,1165,352.55,1016.2C262.74,834.49,281.78,271,281.78,271S636.59,156.42,754.81,161.57Z"/><path class="cls-4" d="M753.17,161.49a12,12,0,0,1,1.69.09c116.29,5.06,468.61,115.11,468.61,115.11s10.22,592.54-88,741.09c-94.84,143.5-385.82,320.74-385.82,320.74s-1.28-.66-3.62-2Z"/><path class="cls-3" d="M749.09,161.58c127.54,5.14,513.73,115.68,513.73,115.68s11.54,594.12-96,743C1063,1164.1,744.1,1341.65,744.1,1341.65s-354.78-174.17-435.39-323.39C210.17,836,230.73,271,230.73,271S619.52,156.35,749.09,161.58Z"/><path class="cls-4" d="M747.29,161.49a14.49,14.49,0,0,1,1.86.1c127.44,5.13,513.64,115.68,513.64,115.68s11.54,594.12-96,743C1063,1164.11,744.15,1341.66,744.15,1341.66s-1.41-.66-4-2Z"/><path class="cls-5" d="M499.28,850.14c-11.14-43.85-20.84-93.39-19.39-128.2,2.65-63,47.82-164.65,47.82-164.65H469.4c-60.47,0-98.55-58.44-98.55-116.88s49.08-106,109.49-106c0,0,23.29-6.39,32.53-10,13.34-5.22,66.31-50.52,121.38-50.52,80.11,0,144.72,47.62,144.72,126.85,0,33.79,1.25,73.14-21.39,99.05-31.78,36.45-37.63,109-11.54,109,134.32,0,188.94,56.61,209.38,84.79C975.7,721.55,972.16,798,985,822.34c6.25,11.94,47.17,19.29,68.36,18.81,81.35-2,135.07-8.66,130.87,5.46-4.64,15.86-96.29,110.51-150.86,128.34-35.53,11.61-99.19,11.9-136.52,6.34l-2.3,84.25c0,14.84-12.44,18-27.73,18H811.3c-15.29,0-44.57-3.91-44.57-18.7l-.1-3.44-19-.19c-23.79.68-35.38-6.14-35.13-14.89l1.9-61.68c-19.24.48-29.89-1.5-48.08-8.31l-.7,85.94c0,15.57-17.24,18.66-33.28,18.66l-64.56.68c-16,0-29.08-3.77-29.08-19.34v-.43l-24.49-.63c-9-.24-19.64-12.42-19.39-21.17Z"/><path class="cls-6" d="M614.44,821.8A15.37,15.37,0,0,0,599.51,806l-71.59-1.91a15.37,15.37,0,0,0-15.71,14.94l-5.7,213.3a15.38,15.38,0,0,0,14.89,15.76L593,1050a15.38,15.38,0,0,0,15.75-14.94Z"/><path class="cls-6" d="M833.36,821.8A15.36,15.36,0,0,0,818.43,806l-71.59-1.92a15.36,15.36,0,0,0-15.7,15l-5.71,213.29a15.36,15.36,0,0,0,14.89,15.76l71.59,1.92a15.37,15.37,0,0,0,15.75-14.94Z"/><path class="cls-7" d="M520.14,333.62c12.52-5.06,62.21-49,113.86-49,75.14,0,130.5,48.23,130.5,125,0,32.81-6.75,69.56-28,94.73-29.86,35.3-26.25,117.24-1.78,117.24,126,0,188.57,52.17,207.79,79.5,19,27.09,27.43,116.43,30.8,124.31,5.2,12,28.08,23.2,47.91,24.84,66.42,5.63,140.11-5.67,136.22,8-4.36,15.33-87,85.78-138.15,103.08-33.32,11.25-103.59,10.21-138.6,4.82l-2.58,86.07c0,14.39-11.67,17.48-26,17.48h-52c-14.34,0-26-3.09-26-17.48l-2-80.3a294.2,294.2,0,0,1-39.38,2.62A285.76,285.76,0,0,1,651.53,963l2.07,86.11c0,15.09-12.24,18.75-27.33,18.75H571.66c-15,0-27.28-3.66-27.28-18.75V923.55c-28.64-31.41-50.44-143.25-48-204.47s48-170.3,48-170.3H489.63a102.73,102.73,0,0,1,0-205.45S511.47,337.14,520.14,333.62Z"/><ellipse class="cls-8" cx="751.96" cy="707.71" rx="40.45" ry="37.73"/><ellipse class="cls-8" cx="845.09" cy="701.13" rx="24" ry="23.96"/><ellipse class="cls-8" cx="864.98" cy="773.38" rx="25.37" ry="23.43"/><path class="cls-9" d="M659.82,415.83a42,42,0,0,0-8.64-29.67c-13.71-17.8-38.53-21.71-55.36-8.74a37.31,37.31,0,0,0-10.3,12.35l17.57,10a18.46,18.46,0,0,1,5.14-6.19c8.42-6.48,20.85-4.53,27.71,4.38a20.84,20.84,0,0,1,4.29,14.83Z"/></g></g></g></svg>