<svg xmlns="http://www.w3.org/2000/svg" viewBox="0 0 1499.18 1499.18"><defs><style>.cls-1{fill:#6aff4e;}.cls-1,.cls-2,.cls-3,.cls-8{fill-rule:evenodd;}.cls-2{fill:#274100;}.cls-3{fill:red;}.cls-4{fill:#d7ceb9;}.cls-5{fill:#c9bb9b;}.cls-6{fill:#c40000;}.cls-7{fill:#960000;}.cls-8{fill:#afa284;}.cls-9{fill:#ffbb43;}.cls-10{fill:#e4a840;}</style></defs><g id="Layer_2" data-name="Layer 2"><g id="Layer_1-2" data-name="Layer 1"><g id="pohja---panel"><g id="Border"><path class="cls-1" d="M1499.18,299.84C1499.18,134.35,1364.84,0,1199.35,0H299.84C134.35,0,0,134.35,0,299.84v899.51c0,165.49,134.35,299.83,299.84,299.83h899.51c165.49,0,299.83-134.34,299.83-299.83Z"/></g><g id="BG"><path class="cls-2" d="M1417.4,321c0-132.8-107.83-240.61-240.62-240.61H321.27C188.48,80.41,80.66,188.22,80.66,321v857.79c0,132.8,107.82,240.61,240.61,240.61h855.51c132.79,0,240.62-107.81,240.62-240.61Z"/></g></g><g id="NoSmoking"><path class="cls-3" d="M743.29,139c336.89,0,610.4,273.52,610.4,610.41s-273.51,610.45-610.4,610.45S132.83,1086.26,132.83,749.37,406.4,139,743.29,139Zm0,99.85c281.76,0,510.56,228.79,510.56,510.56s-228.8,510.56-510.56,510.56S232.73,1031.18,232.73,749.37,461.48,238.81,743.29,238.81Z"/><rect class="cls-4" x="569.16" y="632.59" width="560.81" height="172.11" transform="matrix(0.98, -0.2, 0.2, 0.98, -125.67, 182.81)"/><rect class="cls-5" x="287.72" y="799.63" width="925.28" height="26.58" transform="translate(-146.35 165) rotate(-11.44)"/><rect class="cls-6" x="1120.46" y="570.73" width="69.57" height="172.11" transform="translate(-107.33 242.21) rotate(-11.44)"/><rect class="cls-7" x="1134.88" y="714.76" width="69.57" height="26.59" transform="translate(-121.18 246.49) rotate(-11.44)"/><path class="cls-8" d="M1102.8,553.75s83.48-75.24,85.59-126.61c1.55-37.5-30-69.75-30-106.13.09-38.39,50.72-80.43,30.47-124.17-32.39-69.84-161.72-91.73-161.72-91.73s67.92,84.47,74.2,121.92c5.91,35.34-32.43,62.44-36.65,102.8-3.14,30,26.48,54.09,42.75,93.89C1128.53,475.23,1102.8,553.75,1102.8,553.75ZM1075.89,552s21.52-78.18-2.86-126.14c-13.54-26.62-46.59-52.4-46.07-84.42s56.9-78.19,49.22-107.76C1060.38,173.08,1006,129,1006,129s31.64,71.53,25.27,107.15-48.66,57.47-63.38,106.64c-9.18,30.75,32,69.8,54.29,109.93C1050.16,503.12,1075.89,552,1075.89,552Z"/><rect class="cls-9" x="279.48" y="717.53" width="300.84" height="172.11" transform="translate(-150.86 101.25) rotate(-11.44)"/><rect class="cls-10" x="293.86" y="861.08" width="300.84" height="27.07" transform="translate(-164.67 105.51) rotate(-11.44)"/><path class="cls-3" d="M1251.41,1034.28a57.66,57.66,0,0,0-19.24-79.22l-892-543.33a57.65,57.65,0,1,0-60,98.46l892,543.33A57.68,57.68,0,0,0,1251.41,1034.28Z"/><path class="cls-3" d="M1353.49,765.62c-8.63,329.39-278.72,594.19-610.22,594.19S141.68,1095,133.05,765.62H233c8.58,274.27,234,494.3,510.28,494.3s501.7-220,510.33-494.3Z"/></g></g></g></svg>