<svg xmlns="http://www.w3.org/2000/svg" viewBox="0 0 1499.18 1499.18"><defs><style>.cls-1{fill:#6aff4e;}.cls-1,.cls-2,.cls-3,.cls-4,.cls-6,.cls-8{fill-rule:evenodd;}.cls-2{fill:#274100;}.cls-3{fill:#f2cb1d;}.cls-4{fill:#2d2912;}.cls-5,.cls-6{fill:#fff6d0;}.cls-7{fill:#211e12;}.cls-8{fill:#e5080d;}</style></defs><g id="Layer_2" data-name="Layer 2"><g id="Layer_1-2" data-name="Layer 1"><g id="pohja---panel"><g id="Border"><path class="cls-1" d="M1499.18,299.84C1499.18,134.35,1364.84,0,1199.35,0H299.84C134.35,0,0,134.35,0,299.84v899.51c0,165.49,134.35,299.83,299.84,299.83h899.51c165.49,0,299.83-134.34,299.83-299.83Z"/></g><g id="BG"><path class="cls-2" d="M1417.4,321c0-132.8-107.83-240.61-240.62-240.61H321.27C188.48,80.41,80.66,188.22,80.66,321v857.79c0,132.8,107.82,240.61,240.61,240.61h855.51c132.79,0,240.62-107.81,240.62-240.61Z"/></g></g><g id="OutOfService"><path class="cls-3" d="M1223,437.57a72.43,72.43,0,0,0-84.21-58.2l-908.93,166a72.42,72.42,0,0,0-58.2,84.22l104,569.6a72.41,72.41,0,0,0,84.21,58.21l908.93-166a72.42,72.42,0,0,0,58.19-84.21Z"/><path class="cls-4" d="M1184.21,474.76a64.71,64.71,0,0,0-75.24-52l-843.19,154a64.69,64.69,0,0,0-52,75.25l93,509A64.68,64.68,0,0,0,382,1213l843.18-154a64.7,64.7,0,0,0,52-75.25Z"/><path class="cls-3" d="M1155.54,507.64A58,58,0,0,0,1088.06,461L298.64,605.18A58,58,0,0,0,252,672.67l83.37,456.46a58,58,0,0,0,67.45,46.65l789.41-144.18a58,58,0,0,0,46.64-67.49Z"/><circle class="cls-5" cx="772.1" cy="192.67" r="74.11" transform="translate(89.9 602.39) rotate(-45)"/><path class="cls-6" d="M290.08,539.78l482-378,307.4,234.05-79.68,14.34S765.35,216.39,772.1,216.39s-409,312.37-409,312.37Z"/><ellipse class="cls-7" cx="772.1" cy="192.68" rx="40.55" ry="39.98"/><path class="cls-8" d="M870.63,542l102.09,64-141,195.52L1036,929.62l-70.5,97.72L761.24,899.26l-141,195.52-102.09-64,141-195.52L454.94,707.17l70.5-97.72L729.65,737.53Z"/></g></g></g></svg>