<svg xmlns="http://www.w3.org/2000/svg" viewBox="0 0 1499.18 1499.18"><defs><style>.cls-1{fill:#6aff4e;}.cls-1,.cls-2,.cls-4,.cls-5,.cls-6,.cls-7{fill-rule:evenodd;}.cls-2{fill:#274100;}.cls-3{fill:#cdcece;}.cls-4{fill:#7e8183;}.cls-5{fill:#fdfeff;}.cls-6{fill:#515151;}.cls-7{fill:#ffb300;}.cls-8{fill:#51a3d3;}.cls-9{fill:#fff;}</style></defs><g id="Layer_2" data-name="Layer 2"><g id="Layer_1-2" data-name="Layer 1"><g id="pohja---panel"><g id="Border"><path class="cls-1" d="M1499.18,299.84C1499.18,134.35,1364.84,0,1199.35,0H299.84C134.35,0,0,134.35,0,299.84v899.51c0,165.49,134.35,299.83,299.84,299.83h899.51c165.49,0,299.83-134.34,299.83-299.83Z"/></g><g id="BG"><path class="cls-2" d="M1417.4,321c0-132.8-107.83-240.61-240.62-240.61H321.27C188.48,80.41,80.66,188.22,80.66,321v857.79c0,132.8,107.82,240.61,240.61,240.61h855.51c132.79,0,240.62-107.81,240.62-240.61Z"/></g></g><g id="PaidParking"><rect class="cls-3" x="612.82" y="995.74" width="263.91" height="422.15"/><path class="cls-4" d="M410.86,915.75c-62.71-85.16-117.67-185.87-117.67-316.56,0-272,180.94-473.68,451.63-473.68S1200.54,296,1200.54,568.08c0,130.19-53.84,270.8-118.74,345.58,0,0-9.59,127.6-35.11,175.84-47.17,89.21-74.26,153.35-170,153.35l-263.9,2.59c-95.63,0-130.58-80-167.37-154.53C415.8,1030.83,410.86,915.75,410.86,915.75Z"/><path class="cls-5" d="M1130.35,565.65c0-203.72-172.37-368.91-385.09-368.91S360.17,361.93,360.17,565.65Z"/><path class="cls-6" d="M1015.25,381a16.35,16.35,0,0,0,1.89-23l-20.9-24.9a16.15,16.15,0,0,0-22.8-1.91L796.13,481.46a16.33,16.33,0,0,0-2,22.9l20.91,24.9a16.16,16.16,0,0,0,22.87,2Z"/><path class="cls-7" d="M905.65,568.1c0-75.57-71.75-136.85-160.42-136.85S584.92,492.53,584.92,568.1Z"/><ellipse class="cls-8" cx="744.27" cy="911.83" rx="213.17" ry="215.48"/><path class="cls-9" d="M648.78,766.42H788.12c32.22,0,48.33,6.92,64.44,22.39s24.16,37.45,24.16,66.35c0,29.31-8.86,52.11-26.18,68.8-17.72,16.69-36.24,25.64-72.09,25.64H729.32v108.29H648.78Zm80.54,124.16h22.15c16.92,0,29-2.85,35.84-9,7.25-6.1,10.48-13.84,10.48-23.2a32.81,32.81,0,0,0-8.86-23.21c-6-6.51-17.32-9.36-34.24-9.36H729.32Z"/></g></g></g></svg>