<?xml version="1.0" encoding="UTF-8" standalone="no"?>
<!DOCTYPE svg PUBLIC "-//W3C//DTD SVG 1.1//EN" "http://www.w3.org/Graphics/SVG/1.1/DTD/svg11.dtd">
<svg width="100%" height="100%" viewBox="0 0 32 32" version="1.1" xmlns="http://www.w3.org/2000/svg" xmlns:xlink="http://www.w3.org/1999/xlink" xml:space="preserve" xmlns:serif="http://www.serif.com/" style="fill-rule:evenodd;clip-rule:evenodd;stroke-linejoin:round;stroke-miterlimit:2;">
    <g id="pohja---panel" serif:id="pohja - panel" transform="matrix(0.499727,0,0,0.499727,0.0135965,0.000691596)">
        <g id="Border" transform="matrix(1.03226,0,0,1.03226,-2.06452,-2.06452)">
            <path d="M64,14.4C64,7.556 58.444,2 51.6,2L14.4,2C7.556,2 2,7.556 2,14.4L2,51.6C2,58.444 7.556,64 14.4,64L51.6,64C58.444,64 64,58.444 64,51.6L64,14.4Z" style="fill:rgb(106,255,78);"/>
        </g>
        <g id="BG" transform="matrix(0.920409,0,0,0.921969,1.60241,1.58887)">
            <path d="M64,13.141C64,6.992 58.999,2 52.84,2L13.16,2C7.001,2 2,6.992 2,13.141L2,52.859C2,59.008 7.001,64 13.16,64L52.84,64C58.999,64 64,59.008 64,52.859L64,13.141Z" style="fill:rgb(39,65,0);"/>
        </g>
    </g>
    <g id="Paid-services" serif:id="Paid services">
        <g transform="matrix(1.23343,0,0,1.23343,-4.04808,-2.6537)">
            <path d="M7.651,23.267C7.788,23.462 7.929,23.484 11.774,23.54C14.01,23.572 16.346,23.643 16.48,23.615C16.91,23.525 19.827,20.584 20.407,19.822C20.559,19.622 20.409,19.17 20.236,19.042C20.063,18.914 19.63,18.842 19.409,18.984C18.708,19.435 17.111,21.193 16.549,21.544C16.287,21.708 14.14,21.609 13.233,21.322C12.966,21.237 12.975,20.67 13.183,20.483C13.402,20.286 14.423,20.187 14.546,20.141C15.091,19.934 15.168,19.476 15.052,19.099C14.979,18.86 14.674,18.686 14.164,18.786C13.772,18.863 13.156,19.05 12.652,19.164C12.149,19.277 11.341,19.373 11.137,19.469C10.733,19.658 9.968,20.252 9.387,20.509C8.836,20.753 7.908,20.849 7.651,21.012C7.546,21.078 7.482,21.41 7.482,22.116C7.483,22.736 7.526,23.089 7.651,23.267Z" style="fill:rgb(197,225,244);"/>
        </g>
        <g transform="matrix(2.21727,0,0,2.09554,-2.50392,-15.3956)">
            <path d="M9.25,9.408C8.882,9.351 8.508,9.351 8.14,9.408C8.079,9.843 7.848,10.119 7.448,10.236C7.086,10.453 6.738,10.43 6.405,10.168C6.107,10.403 5.842,10.683 5.62,10.998C5.868,11.351 5.889,11.719 5.684,12.102C5.574,12.526 5.313,12.77 4.901,12.834C4.847,13.223 4.847,13.619 4.901,14.008C5.313,14.072 5.574,14.316 5.684,14.741C5.889,15.123 5.868,15.491 5.62,15.844C5.842,16.159 6.107,16.439 6.405,16.674C6.738,16.412 7.086,16.389 7.448,16.606C7.848,16.723 8.079,16.999 8.14,17.435C8.508,17.492 8.882,17.492 9.25,17.435C9.31,16.999 9.541,16.723 9.942,16.606C10.303,16.389 10.651,16.412 10.984,16.674C11.283,16.439 11.547,16.159 11.769,15.844C11.521,15.491 11.5,15.123 11.705,14.741C11.816,14.316 12.077,14.072 12.488,14.008C12.542,13.619 12.542,13.223 12.488,12.834C12.077,12.77 11.816,12.526 11.705,12.102C11.5,11.719 11.521,11.351 11.769,10.998C11.547,10.683 11.283,10.403 10.984,10.168C10.651,10.43 10.303,10.453 9.942,10.236C9.541,10.119 9.31,9.843 9.25,9.408ZM8.695,11.159C9.875,11.159 10.833,12.173 10.833,13.421C10.833,14.67 9.875,15.683 8.695,15.683C7.515,15.683 6.557,14.67 6.557,13.421C6.557,12.173 7.515,11.159 8.695,11.159Z" style="fill:white;"/>
        </g>
        <g transform="matrix(0.523223,0,0,0.523223,7.94746,2.91464)">
            <path d="M14.388,20.96L24.216,15.992L24.216,19.315L14.39,24.491L14.388,20.96Z" style="fill:rgb(114,171,94);"/>
        </g>
        <g transform="matrix(0.523223,0,0,0.523223,7.94746,2.91464)">
            <path d="M9.535,17.828L14.388,20.96L14.358,24.491L9.535,20.959C9.535,20.959 9.511,17.834 9.535,17.828Z" style="fill:rgb(154,223,75);"/>
        </g>
        <g transform="matrix(0.523223,0,0,0.523223,7.94746,2.91464)">
            <path d="M9.535,17.828L19.734,13.023L24.2,16L14.39,20.959L9.535,17.828Z" style="fill:rgb(193,255,103);"/>
        </g>
        <g transform="matrix(0.523223,0,0,0.562384,7.84808,2.15769)">
            <ellipse cx="17.113" cy="17.147" rx="2.533" ry="1.155" style="fill:rgb(106,177,25);"/>
        </g>
    </g>
</svg>
