<svg xmlns="http://www.w3.org/2000/svg" viewBox="0 0 1499.18 1499.18"><defs><style>.cls-1{fill:#6aff4e;}.cls-1,.cls-2,.cls-3,.cls-4{fill-rule:evenodd;}.cls-2{fill:#274100;}.cls-3{fill:red;}.cls-4{fill:#ecac5d;}</style></defs><g id="Layer_2" data-name="Layer 2"><g id="Layer_1-2" data-name="Layer 1"><g id="pohja---panel"><g id="Border"><path class="cls-1" d="M1499.18,299.84C1499.18,134.35,1364.84,0,1199.35,0H299.84C134.35,0,0,134.35,0,299.84v899.51c0,165.49,134.35,299.83,299.84,299.83h899.51c165.49,0,299.83-134.34,299.83-299.83Z"/></g><g id="BG"><path class="cls-2" d="M1417.4,321c0-132.8-107.83-240.61-240.62-240.61H321.27C188.48,80.41,80.66,188.22,80.66,321v857.79c0,132.8,107.82,240.61,240.61,240.61h855.51c132.79,0,240.62-107.81,240.62-240.61Z"/></g></g><g id="PetBan"><path class="cls-3" d="M743.29,139c336.89,0,610.4,273.52,610.4,610.41s-273.51,610.45-610.4,610.45S132.83,1086.26,132.83,749.37,406.4,139,743.29,139Zm0,99.85c281.76,0,510.56,228.79,510.56,510.56s-228.8,510.56-510.56,510.56S232.73,1031.18,232.73,749.37,461.48,238.81,743.29,238.81Z"/><path class="cls-4" d="M953.19,250.22s80.45,13.21,120,23.34c50,12.8,179.84,53.49,179.84,53.49S1225.76,430.52,1186,456.71c-43.27,28.41-192.62,40.86-192.62,40.86s-22.22,43.42-9.1,72.63c6.93,15.37,21,49,18.93,94.17C998.75,759.82,949,885,949,885s-36.12,146.67-35.39,171c.72,24.67,4.18,52.49,6.92,55.28,2.23,2.22,32.94,16.13,35.12,33.35,2.57,20.61-.5,30.62-9.44,37.54-2.73,2.16-110.88-1.05-110.88-1.05l-10-276.5c-62.2,29.45-107.15,40.45-107.15,40.45,13.8,77.23-9.88,124.14-72.74,167.67-5.14,3.55,46.34,8.26,53.37,24.09,5.19,11.76,4.52,24.27-4,44.59l-233.43-.59c-35.62-3.2-116.75-52.32-140.2-81.13-31.6-38.7-16-161.62-22.72-179.66s-37.85-56.34-45.89-95.5c-8.66-42.14-1.51-75.78,25-128,48.41-95.44,111.78-88.11,111.78-88.11-31.55,88.17-59.75,156.62-31.1,263.64,0,0,91.51-189.49,155.15-257.53,62.59-66.87,225-148.06,226.68-150.74s14-104.87,27.41-136.76c21.11-49.82,70.24-82.82,73-92.54,9.38-32.77,79.62-106.16,118-94.28C962.35,141.45,953.19,250.22,953.19,250.22Z"/><path class="cls-3" d="M1251.41,1034.28a57.66,57.66,0,0,0-19.24-79.22l-892-543.33a57.65,57.65,0,1,0-60,98.46l892,543.33A57.68,57.68,0,0,0,1251.41,1034.28Z"/><path class="cls-3" d="M1353.49,765.62c-8.63,329.39-278.72,594.19-610.22,594.19S141.68,1095,133.05,765.62H233c8.58,274.27,234,494.3,510.28,494.3s501.7-220,510.33-494.3Z"/></g></g></g></svg>