<svg xmlns="http://www.w3.org/2000/svg" viewBox="0 0 1499.18 1499.18"><defs><style>.cls-1{fill:#6aff4e;}.cls-1,.cls-2,.cls-3{fill-rule:evenodd;}.cls-2{fill:#274100;}.cls-3{fill:#f68cc2;}.cls-4{fill:#4a4a4a;}.cls-5{fill:#976c4f;}.cls-6{fill:#367c01;}.cls-7{fill:#54b60b;}.cls-8{fill:#83e637;}.cls-9{fill:#e0b98c;}</style></defs><g id="Layer_2" data-name="Layer 2"><g id="Layer_1-2" data-name="Layer 1"><g id="pohja---panel"><g id="Border"><path class="cls-1" d="M1499.18,299.84C1499.18,134.35,1364.84,0,1199.35,0H299.84C134.35,0,0,134.35,0,299.84v899.51c0,165.49,134.35,299.83,299.84,299.83h899.51c165.49,0,299.83-134.34,299.83-299.83Z"/></g><g id="BG"><path class="cls-2" d="M1417.4,321c0-132.8-107.83-240.61-240.62-240.61H321.27C188.48,80.41,80.66,188.22,80.66,321v857.79c0,132.8,107.82,240.61,240.61,240.61h855.51c132.79,0,240.62-107.81,240.62-240.61Z"/></g></g><g id="parkPreferParks"><path class="cls-3" d="M1015.56,343.43c62.22-95.9,186.66-95.9,248.89-43.75s62.24,156.45,0,260.75c-43.56,78.21-155.56,156.45-248.89,208.6-93.33-52.15-205.35-130.39-248.88-208.6-62.25-104.3-62.25-208.6,0-260.75S953.34,247.53,1015.56,343.43Z"/><g id="Ellipse_205" data-name="Ellipse 205"><ellipse class="cls-4" cx="510.6" cy="1242.86" rx="221.9" ry="75.84"/></g><g id="Path_475" data-name="Path 475"><path class="cls-4" d="M991.39,1193.57c122.56,0,218.46,28.59,218.46,60s-95.9,65.11-218.46,65.11S768.16,1285,768.16,1253.63,868.83,1193.57,991.39,1193.57Z"/></g><g id="Path_473" data-name="Path 473"><path class="cls-5" d="M436.63,977.43H573.92v250.64a139.28,139.28,0,0,1-69.27,25.44,132.8,132.8,0,0,1-68-25.44Z"/></g><g id="Path_470" data-name="Path 470"><path class="cls-6" d="M510.6,522.4l215,372,117.87,121a931.56,931.56,0,0,1-332.86,75.27,931.51,931.51,0,0,1-332.85-75.27c-105.63-45.43,18.05,2.27,101.26-121S510.6,522.4,510.6,522.4Z"/></g><g id="Path_471" data-name="Path 471"><path class="cls-7" d="M511.64,427s93.49,155.2,167.46,249.81A585.66,585.66,0,0,0,806.58,805.35,928.82,928.82,0,0,1,511.64,863,929.1,929.1,0,0,1,216.8,805.35,723.69,723.69,0,0,0,336.74,676.77C410.45,582.16,511.64,427,511.64,427Z"/></g><g id="Path_472" data-name="Path 472"><path class="cls-8" d="M516.37,165.28a1186.74,1186.74,0,0,0,76.56,214.28A727.67,727.67,0,0,0,705,540.41a422.88,422.88,0,0,1-188.62,57.15,422.84,422.84,0,0,1-188.61-57.15A804.33,804.33,0,0,0,435.64,379.56,1396.35,1396.35,0,0,0,516.37,165.28Z"/></g><g id="Path_474" data-name="Path 474"><path class="cls-5" d="M925.12,1108.7v124.68a96.51,96.51,0,0,0,67.79,18.54,91.62,91.62,0,0,0,66.57-18.54V1108.7a1017.93,1017.93,0,0,0,143-17.52,419.52,419.52,0,0,0,117.16-44.36l3.48-74.66-664.56,1.93v64.46a442.3,442.3,0,0,0,122.75,52.63A777.42,777.42,0,0,0,925.12,1108.7Z"/></g><g id="Ellipse_204" data-name="Ellipse 204"><ellipse class="cls-9" cx="991.39" cy="977.43" rx="332.85" ry="75.84"/></g></g></g></g></svg>