<svg xmlns="http://www.w3.org/2000/svg" viewBox="0 0 1499.18 1499.18"><defs><style>.cls-1{fill:#6aff4e;}.cls-1,.cls-2,.cls-3,.cls-4{fill-rule:evenodd;}.cls-2{fill:#274100;}.cls-3{fill:#9fff8d;}.cls-4{fill:#31cf00;}</style></defs><g id="Layer_2" data-name="Layer 2"><g id="Layer_1-2" data-name="Layer 1"><g id="pohja---panel"><g id="Border"><path class="cls-1" d="M1499.18,299.84C1499.18,134.35,1364.84,0,1199.35,0H299.84C134.35,0,0,134.35,0,299.84v899.51c0,165.49,134.35,299.83,299.84,299.83h899.51c165.49,0,299.83-134.34,299.83-299.83Z"/></g><g id="BG"><path class="cls-2" d="M1417.4,321c0-132.8-107.83-240.61-240.62-240.61H321.27C188.48,80.41,80.66,188.22,80.66,321v857.79c0,132.8,107.82,240.61,240.61,240.61h855.51c132.79,0,240.62-107.81,240.62-240.61Z"/></g></g><g id="Recycling"><g id="Layer5"><path class="cls-3" d="M416.71,486.71c24.46-44.5,93.94-163.36,138.42-240.88,10.27-17.94,14.89-37.47,45.36-52.28s46.33-12.67,55.79-13.19c90.55-5,85.77,38.59,153,59.18L608.3,592Z"/><path class="cls-4" d="M669.48,179.47c38.67.75,142.83-2.25,190.23-2.87,14-.18,42.38,3.45,52.4,19,10.13,15.73,63.79,122.65,96.24,179.76,0,0,94.63-48.37,104.05-52.85,6.94-3.3,13.21,1.87,11.15,8.22-1.08,3.34-95.43,315.2-95.43,315.2s-244.95-75.16-300.9-92.49c-16.51-5.1-17.69-14.72-7.81-19.88,22.35-11.71,98.06-49.71,98.06-49.71s-83.06-180.3-122.24-234.23c-25.63-35.27-67.57-65.93-67.57-65.93S638.62,178.86,669.48,179.47Z"/></g><g id="Layer51"><path class="cls-3" d="M1136.44,612.09c28.81,41.82,103.89,157.23,153.23,231.75,11.43,17.23,26.81,30.11,26.38,64s-9.46,47.09-13.23,55.79c-36.16,83.17-73,59.34-121.51,110.18L956.42,736.12Z"/><path class="cls-4" d="M1297.69,975.81c-18,34.22-62,128.67-82.76,171.31-6.1,12.55-22.08,36.33-40.48,38.32-18.6,2-138.23,2-203.83,5.39,0,0,.79,106.28.57,116.7-.16,7.68-7.59,11-12.35,6.27-2.49-2.46-238.92-226.65-238.92-226.65S897,901.93,937.54,859.69c12-12.46,21.09-9.21,21.27,1.94.45,25.23.46,109.94.46,109.94s198.39,6.63,264.17-4.21c43-7.09,89.23-30.82,89.23-30.82S1312.07,948.5,1297.69,975.81Z"/></g><g id="Layer52"><path class="cls-3" d="M662.09,1223.41c-50.79.11-188.43-3.25-277.79-4.7-20.67-.32-40,5.08-67.69-14.43s-33.49-34.44-38.52-42.47c-48.15-76.85-7.69-93.73-22.15-162.51l405.67,5.51Z"/><path class="cls-4" d="M270.93,1150.69c-18-34.21-71-123.94-94.48-165.13-6.9-12.13-17.47-38.77-8.7-55.06,8.87-16.47,76.53-115.13,110.83-171.16,0,0-88.1-59.44-96.57-65.52-6.24-4.48-4.75-12.47,1.81-13.73,3.44-.67,322-68.86,322-68.86S558.49,862,570.38,919.35c3.51,16.91-4.33,22.6-13.63,16.44-21.06-13.9-90.93-61.8-90.93-61.8s-117.67,159.87-145.93,220.24c-18.48,39.5-25.05,91-25.05,91S285.32,1178,270.93,1150.69Z"/></g></g></g></g></svg>