<svg xmlns="http://www.w3.org/2000/svg" viewBox="0 0 1499.18 1499.18"><defs><style>.cls-1{fill:#6aff4e;}.cls-1,.cls-10,.cls-2,.cls-5,.cls-6,.cls-8{fill-rule:evenodd;}.cls-2{fill:#274100;}.cls-3,.cls-5{fill:#394763;}.cls-4{fill:#95caf1;}.cls-6{fill:#3b455a;}.cls-7{fill:#221716;}.cls-8,.cls-9{fill:#cbedf1;}.cls-10{fill:#f9eab7;}</style></defs><g id="Layer_2" data-name="Layer 2"><g id="Layer_1-2" data-name="Layer 1"><g id="pohja---panel"><g id="Border"><path class="cls-1" d="M1499.18,299.84C1499.18,134.35,1364.84,0,1199.35,0H299.84C134.35,0,0,134.35,0,299.84v899.51c0,165.49,134.35,299.83,299.84,299.83h899.51c165.49,0,299.83-134.34,299.83-299.83Z"/></g><g id="BG"><path class="cls-2" d="M1417.4,321c0-132.8-107.83-240.61-240.62-240.61H321.27C188.48,80.41,80.66,188.22,80.66,321v857.79c0,132.8,107.82,240.61,240.61,240.61h855.51c132.79,0,240.62-107.81,240.62-240.61Z"/></g></g><g id="RouteVehicleCount"><g id="Path_288" data-name="Path 288"><path class="cls-3" d="M1068.92,521.82l-17.25-39.05c0-3-1.91-5.52-3.84-7.27s-5.74-2.24-7.65-2.24H729.85c-3.84-.26-7.67.5-9.58,2.24-3.83,1.25-5.74,4-5.74,7.27l-15.34,39.05Z"/></g><g id="Path_282" data-name="Path 282"><path class="cls-4" d="M1207.23,510.68l-967.65-2.83c-57,0-86.59,12.14-86.17,59.06L153.07,857c0,53.57-1.92,105.14-1.92,135,0,8-.88,9.46,1.92,13.29s9.29,2,9.29,2l1017.06-2h122.92c7.09,0,18.43-4,23.85-10,5.17-5.71,7.89-12.72,8.09-21.65.55-28.19.57-133.71.57-133.71,0-24-31.66-118.54-41.87-154.24C1269.05,601.91,1247.25,510.68,1207.23,510.68Z"/></g><path class="cls-5" d="M1249.85,597.79c-13.1-33.82-50.94-30.95-50.94-30.95H153.4l-.3,182.41c287.67,0,568.71,6.13,856.4,6.13,3.87,0,8.68-.52,13.06.39,10,2.22,228.83,53.67,299.19,72.47C1321.75,828.24,1262.39,630.3,1249.85,597.79Z"/><g id="Ellipse_170" data-name="Ellipse 170"><path class="cls-6" d="M517.49,1006c0,.47-2.83.47-2.83.47l-213.32.47s-2.49.31-2.49-.47c0-65.71,49.06-119.53,109.37-119.53S517.49,940.26,517.49,1006Z"/></g><g id="Ellipse_1701" data-name="Ellipse 1701"><ellipse class="cls-7" cx="408.67" cy="1002.67" rx="81.56" ry="85.1"/></g><g id="Ellipse_1702" data-name="Ellipse 1702"><path class="cls-6" d="M923.91,1005.56h-.71c-3.4-56.16,48.58-116.81,108.88-116.81s116.64,55,109.27,116c-.09.58-1.81.47-1.81.47Z"/></g><g id="Ellipse_1703" data-name="Ellipse 1703"><ellipse class="cls-7" cx="1033.09" cy="1003.01" rx="81.56" ry="85.1"/></g><g id="Rectangle_873" data-name="Rectangle 873"><path class="cls-8" d="M365.23,602.67a15.58,15.58,0,0,0-15.57-15.59H230.53A15.59,15.59,0,0,0,215,602.67V713.16a15.59,15.59,0,0,0,15.58,15.58H349.66a15.58,15.58,0,0,0,15.57-15.58Z"/></g><g id="Rectangle_874" data-name="Rectangle 874"><path class="cls-8" d="M474.1,597.28a10.2,10.2,0,0,0-10.19-10.2H399.38a10.2,10.2,0,0,0-10.19,10.2V718.54a10.2,10.2,0,0,0,10.19,10.2h64.53a10.2,10.2,0,0,0,10.19-10.2Z"/></g><g id="Rectangle_875" data-name="Rectangle 875"><path class="cls-8" d="M658.12,599.83a12.77,12.77,0,0,0-12.75-12.75H510.06a12.77,12.77,0,0,0-12.75,12.75V716a12.76,12.76,0,0,0,12.75,12.74H645.37A12.76,12.76,0,0,0,658.12,716Z"/></g><g id="Rectangle_8751" data-name="Rectangle 8751"><path class="cls-8" d="M966.79,599.83A12.78,12.78,0,0,0,954,587.08H818.72A12.77,12.77,0,0,0,806,599.83V716a12.76,12.76,0,0,0,12.75,12.74H954A12.77,12.77,0,0,0,966.79,716Z"/></g><g id="Rectangle_876" data-name="Rectangle 876"><path class="cls-8" d="M781.21,599.41a12.34,12.34,0,0,0-12.33-12.33h-78a12.34,12.34,0,0,0-12.33,12.33v117a12.33,12.33,0,0,0,12.33,12.32h78a12.33,12.33,0,0,0,12.33-12.32Z"/></g><g id="Path_287" data-name="Path 287"><path class="cls-9" d="M1115.3,597.67c-.47-5.91-4-10.06-10.6-10.06-25.91,0-45.06-.68-70-.5-4.41,0-7,3.43-7,10.56,0,47.14.31,84.84.22,131.08l89.2,16.4S1117.38,623.91,1115.3,597.67Z"/></g><g id="Path_286" data-name="Path 286"><path class="cls-9" d="M1206.87,587.77c-5-.53-46.51-1.23-61.41,0-6.25.5-6.13,7.05-6.11,10.18.31,62.92,2.37,90.1,3.75,152l138.33,38.66c-22.51-78.49-43-162-51.55-185.28C1226.62,594.45,1218.33,588.94,1206.87,587.77Z"/></g><path class="cls-10" d="M1334.61,938.58V871.35h-28a14,14,0,0,0-14,14v39.21a14,14,0,0,0,14,14Z"/></g></g></g></svg>