<svg xmlns="http://www.w3.org/2000/svg" viewBox="0 0 1499.18 1499.18"><defs><style>.cls-1{fill:#6aff4e;}.cls-1,.cls-2,.cls-3,.cls-4{fill-rule:evenodd;}.cls-2,.cls-6{fill:#274100;}.cls-3{fill:#e5cc7d;}.cls-4{fill:#f9eab7;}.cls-5{fill:#a08e55;}</style></defs><g id="Layer_2" data-name="Layer 2"><g id="Layer_1-2" data-name="Layer 1"><g id="pohja---panel"><g id="Border"><path class="cls-1" d="M1499.18,299.84C1499.18,134.35,1364.84,0,1199.35,0H299.84C134.35,0,0,134.35,0,299.84v899.51c0,165.49,134.35,299.83,299.84,299.83h899.51c165.49,0,299.83-134.34,299.83-299.83Z"/></g><g id="BG"><path class="cls-2" d="M1417.4,321c0-132.8-107.83-240.61-240.62-240.61H321.27C188.48,80.41,80.66,188.22,80.66,321v857.79c0,132.8,107.82,240.61,240.61,240.61h855.51c132.79,0,240.62-107.81,240.62-240.61Z"/></g></g><g id="RouteTicketPrice"><path class="cls-3" d="M185.19,817.09l-52.1-191,962.77-262.39,165.28,538.7L281.34,1169.6l-52.1-191c45.09-12.3,71.8-58.45,59.64-103S230.28,804.79,185.19,817.09Z"/><path class="cls-4" d="M1269.53,521.59a83.88,83.88,0,0,0-62.15,80.81c0,46.18,37.69,83.68,84,83.68a84.06,84.06,0,0,0,22.17-3l52,190.74-221.72,60.47L987,393.34l230.39-63Z"/><rect class="cls-5" x="352.3" y="674.63" width="635.62" height="54.17" transform="matrix(0.96, -0.26, 0.26, 0.96, -161.02, 201.05)"/><rect class="cls-5" x="605.97" y="753.94" width="402.87" height="43.92" transform="translate(-175.71 239.79) rotate(-15.26)"/><rect class="cls-5" x="631.43" y="848.58" width="402.87" height="43.92" transform="translate(-199.71 249.82) rotate(-15.26)"/><circle class="cls-6" cx="1004.18" cy="452.59" r="29.44"/><circle class="cls-6" cx="1033.61" cy="550.09" r="29.44"/><circle class="cls-6" cx="1063.04" cy="647.59" r="29.44"/><circle class="cls-6" cx="1092.48" cy="749.98" r="29.44"/><circle class="cls-6" cx="1121.91" cy="857.3" r="29.44"/></g></g></g></svg>