<svg xmlns="http://www.w3.org/2000/svg" viewBox="0 0 1499.18 1499.18"><defs><style>.cls-1{fill:#6aff4e;}.cls-1,.cls-2,.cls-3,.cls-4,.cls-6,.cls-7,.cls-8{fill-rule:evenodd;}.cls-2{fill:#274100;}.cls-3{fill:#646464;}.cls-4{fill:#8c8c8c;}.cls-5,.cls-6{fill:#2c2c2c;}.cls-7{fill:#91c0da;}.cls-8{fill:#74afd0;}</style></defs><g id="Layer_2" data-name="Layer 2"><g id="Layer_1-2" data-name="Layer 1"><g id="pohja---panel"><g id="Border"><path class="cls-1" d="M1499.18,299.84C1499.18,134.35,1364.84,0,1199.35,0H299.84C134.35,0,0,134.35,0,299.84v899.51c0,165.49,134.35,299.83,299.84,299.83h899.51c165.49,0,299.83-134.34,299.83-299.83Z"/></g><g id="BG"><path class="cls-2" d="M1417.4,321c0-132.8-107.83-240.61-240.62-240.61H321.27C188.48,80.41,80.66,188.22,80.66,321v857.79c0,132.8,107.82,240.61,240.61,240.61h855.51c132.79,0,240.62-107.81,240.62-240.61Z"/></g></g><g id="SchoolsOut"><g id="Layer27"><path class="cls-3" d="M1082.91,1320c32.14-29.53,84.84-131.79,84.84-165.88,0-107.15-194.54-198.81-396.67-198.81-130.2,0-360.6,145.3-360.6,145.3l124.38,53.51H283.48l181.43,41.74-219,60.78,169.94,26.69L448.55,1320Z"/><path class="cls-4" d="M839.75,891.48l530,219.54L809.23,1233.19,279.32,1013.61Z"/><ellipse class="cls-5" cx="841.96" cy="1030.98" rx="70.47" ry="23.39"/><path class="cls-6" d="M879.4,1044c6.71,4.62,158.35,74.46,192.88,95.91,10.11,6.27,20.57,22.51,14.35,32.63-8.86,14.3-67.31,53.2-67.31,53.2l25.77,8.76s64-43.77,71.59-62c6.91-16.44-10.75-37.3-25.78-46.93-36.13-23.2-181.35-92.65-191.07-92.21C898,1033.41,877.21,1042.45,879.4,1044Z"/><path class="cls-6" d="M992.13,1247.15s-1.94-16.05,2.34-21.45,12-10.75,23.49-11.18c11.08-.49,22.8,4.62,26,11.18s2.63,22.42-6.8,27.92c-6.42,3.74-24.66,6.46-24.66,6.46S988,1307.5,936.84,1336c-34.39,19.16-100.72,37.4-128.29,38.61-16.15.69-29.09-23.48-37-31.41-4.92-5-22.18-46.4-22.18-46.4s76.35,3.12,112.54-2.28c35.84-5.35,82.77-22.18,104.46-30.06C976.08,1260.86,992.13,1247.15,992.13,1247.15Z"/></g><g id="Layer28"><path class="cls-7" d="M463.59,80.41l11.2,490.78s-32.15,183.28-25.4,235c8.76,66.89,83.11,87.28,138.19,91.36,45.65,3.38,80.25-31,147.42-49.55,37.92-10.45,72.19-8.39,107.81-10.07,99.7-4.79,251.77,31.54,318.19,16.87,43-9.47,67.26-86.25,80.2-104.86,16.55-23.86,40.59-33.09,53.72-51,15.37-21.09,19.78-40.82,9.7-72.32-3.42-10.6-14.34-31-46.64-30.8-7.12,0-24.37,5.86-24.37,5.86s-10.6,24.28-15.61,35.3c-8.06,17.57-13.31,36.51-29,37.21-37.92,1.74-135.79-3.65-198.42-26.81C919,620.83,768.33,530.5,759.79,515.36c-10.92-19.45,36.9-434.95,36.9-434.95Z"/><path class="cls-8" d="M554.67,565.85c-3.87,39,21.22,73.46,56,76.92s66.19-25.39,70.07-64.4c-12.44,18.48-38.66,31.86-66.56,29.09S563.23,586.42,554.67,565.85Z"/></g></g></g></g></svg>