<svg xmlns="http://www.w3.org/2000/svg" viewBox="0 0 1499.18 1499.18"><defs><style>.cls-1{fill:#6aff4e;}.cls-1,.cls-11,.cls-12,.cls-13,.cls-15,.cls-2,.cls-7,.cls-9{fill-rule:evenodd;}.cls-2{fill:#274100;}.cls-3{fill:#efb20e;}.cls-4{fill:#ffe24e;}.cls-5{fill:#fdc733;}.cls-6{fill:#ffed6a;}.cls-7{fill:#559d39;}.cls-8{fill:#3a6b27;}.cls-9{fill:#6ac646;}.cls-10{fill:#378b17;}.cls-11,.cls-14{fill:#678cac;}.cls-12{fill:#a3bfd8;}.cls-13{fill:#d3ae4a;}.cls-15{fill:#676767;}</style></defs><g id="Layer_2" data-name="Layer 2"><g id="Layer_1-2" data-name="Layer 1"><g id="pohja---panel"><g id="Border"><path class="cls-1" d="M1499.18,299.84C1499.18,134.35,1364.84,0,1199.35,0H299.84C134.35,0,0,134.35,0,299.84v899.51c0,165.49,134.35,299.83,299.84,299.83h899.51c165.49,0,299.83-134.34,299.83-299.83Z"/></g><g id="BG"><path class="cls-2" d="M1417.4,321c0-132.8-107.83-240.61-240.62-240.61H321.27C188.48,80.41,80.66,188.22,80.66,321v857.79c0,132.8,107.82,240.61,240.61,240.61h855.51c132.79,0,240.62-107.81,240.62-240.61Z"/></g></g><g id="BigBusinessBenefactor"><g id="Layer25"><ellipse class="cls-3" cx="799.9" cy="234.61" rx="116.49" ry="119.1" transform="matrix(0.14, -0.99, 0.99, 0.14, 453.91, 993.01)"/><ellipse class="cls-4" cx="799.9" cy="234.61" rx="96.78" ry="93.97" transform="translate(230.63 843.56) rotate(-63.28)"/><ellipse class="cls-5" cx="874.62" cy="382.75" rx="116.49" ry="119.1" transform="translate(371.37 1194.05) rotate(-81.82)"/><ellipse class="cls-6" cx="874.62" cy="382.75" rx="96.78" ry="93.97" transform="translate(139.44 991.83) rotate(-63.28)"/></g><g id="Layer24"><polygon class="cls-7" points="773.35 623.5 1171.09 261.2 1360.24 452.3 962.5 814.6 773.35 623.5"/><ellipse class="cls-8" cx="1072.98" cy="540.33" rx="99.64" ry="106.84" transform="translate(89.58 1230.37) rotate(-61.79)"/></g><g id="Layer241"><polygon class="cls-9" points="709.48 708.9 970.06 244.02 1208.73 372.89 948.15 837.77 709.48 708.9"/><ellipse class="cls-10" cx="965.7" cy="541.43" rx="99.33" ry="107.17" transform="translate(92.39 1221.91) rotate(-67.2)"/></g><g id="SmallBusinessEnthusiast"><path class="cls-11" d="M961.2,1048.85a61.74,61.74,0,0,0-61.76-61.69l-672.07.4a61.76,61.76,0,0,0-61.69,61.76l.1,170.49a61.76,61.76,0,0,0,61.76,61.69l672.07-.4a61.74,61.74,0,0,0,61.69-61.76Z"/><path class="cls-12" d="M165.69,1039.89,961.32,1044l-68-380c.1-16.38-11.54-29.69-26-29.78L264.8,633c-14.47-.09-42,21.68-42.12,38.06Z"/><path class="cls-12" d="M728.42,1147.11a22.36,22.36,0,0,0-22.36-22.41H443.61a22.33,22.33,0,0,0-22.36,22.42v11.14a22.3,22.3,0,0,0,22.36,22.28H706.06a22.34,22.34,0,0,0,22.36-22.28Z"/><path class="cls-11" d="M553.22,451a38.63,38.63,0,0,0-38.65-38.64h-237A38.62,38.62,0,0,0,239,451v77.22a38.66,38.66,0,0,0,38.6,38.64h237a38.67,38.67,0,0,0,38.65-38.64Z"/><path class="cls-13" d="M518.39,467.66a23.29,23.29,0,0,0-23.26-23.3H301.68a23.28,23.28,0,0,0-23.26,23.3v46.53a23.22,23.22,0,0,0,23.26,23.23H495.13a23.23,23.23,0,0,0,23.26-23.23Z"/><rect class="cls-14" x="363.77" y="545.9" width="79.78" height="87.05"/><rect class="cls-14" x="639.01" y="633.09" width="190.27" height="117.06"/><path class="cls-15" d="M487.46,806.74a18.62,18.62,0,0,0-18.56-18.61H414.66a18.59,18.59,0,0,0-18.56,18.61v37.13a18.55,18.55,0,0,0,18.56,18.56H468.9a18.57,18.57,0,0,0,18.56-18.56Zm-127.83,0a18.58,18.58,0,0,0-18.56-18.61H286.84a18.59,18.59,0,0,0-18.57,18.61v37.13a18.55,18.55,0,0,0,18.57,18.56h54.23a18.54,18.54,0,0,0,18.56-18.56Zm255.66,0a18.63,18.63,0,0,0-18.61-18.61H542.49a18.63,18.63,0,0,0-18.61,18.61v37.13a18.59,18.59,0,0,0,18.61,18.56h54.19a18.59,18.59,0,0,0,18.61-18.56Z"/><path class="cls-15" d="M487.46,913.84a18.62,18.62,0,0,0-18.56-18.61H414.67a18.59,18.59,0,0,0-18.57,18.61V951a18.55,18.55,0,0,0,18.57,18.56H468.9A18.57,18.57,0,0,0,487.46,951Zm-127.83,0a18.58,18.58,0,0,0-18.56-18.61H286.84a18.58,18.58,0,0,0-18.56,18.61V951a18.54,18.54,0,0,0,18.56,18.56h54.23A18.54,18.54,0,0,0,359.63,951Zm255.66,0a18.63,18.63,0,0,0-18.61-18.61H542.49a18.63,18.63,0,0,0-18.61,18.61V951a18.59,18.59,0,0,0,18.61,18.56h54.19A18.58,18.58,0,0,0,615.29,951Z"/><path class="cls-15" d="M867.12,913.84a18.61,18.61,0,0,0-18.59-18.61H675.93a18.6,18.6,0,0,0-18.55,18.61V951a18.57,18.57,0,0,0,18.55,18.57h172.6A18.58,18.58,0,0,0,867.12,951Z"/></g></g></g></g></svg>