<svg xmlns="http://www.w3.org/2000/svg" viewBox="0 0 1499.18 1499.18"><defs><style>.cls-1{fill:#6aff4e;}.cls-1,.cls-2,.cls-3,.cls-4,.cls-5,.cls-6{fill-rule:evenodd;}.cls-2{fill:#274100;}.cls-3{fill:#5f6458;}.cls-4{fill:#b0b0b0;}.cls-5{fill:#1a1a1a;}.cls-6{fill:#ffc316;}</style></defs><g id="Layer_2" data-name="Layer 2"><g id="Layer_1-2" data-name="Layer 1"><g id="pohja---panel"><g id="Border"><path class="cls-1" d="M1499.18,299.84C1499.18,134.35,1364.84,0,1199.35,0H299.84C134.35,0,0,134.35,0,299.84v899.51c0,165.49,134.35,299.83,299.84,299.83h899.51c165.49,0,299.83-134.34,299.83-299.83Z"/></g><g id="BG"><path class="cls-2" d="M1417.4,321c0-132.8-107.83-240.61-240.62-240.61H321.27C188.48,80.41,80.66,188.22,80.66,321v857.79c0,132.8,107.82,240.61,240.61,240.61h855.51c132.79,0,240.62-107.81,240.62-240.61Z"/></g></g><g id="SpeedBumps"><g id="BG1"><path class="cls-3" d="M1417.4,321c0-103.25-65.2-191.41-156.63-225.51a238.23,238.23,0,0,0-52-13c-10.46-1.4-509.36-2.12-520.21-2.12L80.66,382.6v796.21c0,108.35,71.77,200.08,170.32,230.16a237.9,237.9,0,0,0,37.63,8.25c10.67,1.45,655.58,2.2,666.67,2.2l462.12-352.37Z"/></g><path class="cls-4" d="M105.09,1035.91l55.68,36.89-80,56.11-.07-82Zm276.07-107.3L220.57,1033.52,164.84,996.6,325.47,891.72ZM587.74,794.42,440.9,885.87,385.21,849l146.85-91.45ZM1055,474.48l-169.19,114-55.73-36.92,169.19-114Zm234.7-154.3-156.2,103.5-55.69-36.89L1234,283.26Zm9-79.72,77.43-53.53c10,13.46,19.68,32.17,28.47,55.95l-50.17,34.5Z"/><path class="cls-5" d="M155.64,469.43s913.56,578,937.92,588.73c43.1,18.92,113.45,33.89,204.41-.75,33.2-12.64,66.6-40.9,79.21-69.36,32.3-73.08-43.11-129.15-43.11-129.15L373.55,372.14s-48.3-22.82-108.06-18.47c-52.75,3.85-108.4,28.45-127.86,55.08C108.38,448.87,155.64,469.43,155.64,469.43Z"/><path class="cls-6" d="M1027.4,1018.23c-2.75-10.62,59-77.17,121.31-127.51,53.1-42.84,107-72,118.26-66.06L940.74,660.83c-13.4-9.39-74.3,10.47-126.86,43.72-64.4,40.76-120.1,102.27-108,111.32C707.23,816.9,1028,1020.51,1027.4,1018.23Z"/><path class="cls-6" d="M445.91,652.18c0-.94,81.45-76.48,121-97C602,536.87,683,529,683,529L472.66,422.05s-54-7.61-112.06,17.68c-54.45,23.72-115.86,85.48-115.86,85.48S445.91,653.12,445.91,652.18Z"/></g></g></g></svg>