<svg xmlns="http://www.w3.org/2000/svg" viewBox="0 0 1499.18 1499.18"><defs><style>.cls-1{fill:#6aff4e;}.cls-1,.cls-2,.cls-3,.cls-4,.cls-5,.cls-6,.cls-7{fill-rule:evenodd;}.cls-2{fill:#274100;}.cls-3{fill:#e4bb7b;}.cls-4{fill:#c67736;}.cls-5{fill:#754600;}.cls-6{fill:#c2c2c2;}.cls-7{fill:#717171;}</style></defs><g id="Layer_2" data-name="Layer 2"><g id="Layer_1-2" data-name="Layer 1"><g id="pohja---panel"><g id="Border"><path class="cls-1" d="M1499.18,299.84C1499.18,134.35,1364.84,0,1199.35,0H299.84C134.35,0,0,134.35,0,299.84v899.51c0,165.49,134.35,299.83,299.84,299.83h899.51c165.49,0,299.83-134.34,299.83-299.83Z"/></g><g id="BG"><path class="cls-2" d="M1417.4,321c0-132.8-107.83-240.61-240.62-240.61H321.27C188.48,80.41,80.66,188.22,80.66,321v857.79c0,132.8,107.82,240.61,240.61,240.61h855.51c132.79,0,240.62-107.81,240.62-240.61Z"/></g></g><g id="SurvivalistMovement"><g id="Layer22"><path class="cls-3" d="M1163,540.47c0-114.23-92.74-207-207-207H542c-114.23,0-207,92.75-207,207v534.94c0,114.24,92.75,207,207,207H956c114.24,0,207-92.74,207-207Z"/><path class="cls-4" d="M1085.24,905a97.12,97.12,0,0,0-97.1-97H539.29a97.15,97.15,0,0,0-97.1,97v194.2a97.15,97.15,0,0,0,97.1,97H988.14a97.12,97.12,0,0,0,97.1-97Z"/><path class="cls-4" d="M573.19,249.55a32.73,32.73,0,0,0-32.73-32.73H475a32.73,32.73,0,0,0-32.73,32.73v80.37A32.78,32.78,0,0,0,475,362.7h65.51a32.78,32.78,0,0,0,32.73-32.78Z"/><path class="cls-4" d="M573.19,249.55a32.73,32.73,0,0,0-32.73-32.73H475a32.73,32.73,0,0,0-32.73,32.73v80.37A32.78,32.78,0,0,0,475,362.7h65.51a32.78,32.78,0,0,0,32.73-32.78Z"/><path class="cls-4" d="M1028.68,251.77a35,35,0,0,0-35-35h-70a35,35,0,0,0-35,35v75.92a35,35,0,0,0,35,35h70a35,35,0,0,0,35-35Z"/><path class="cls-5" d="M1304.4,425.27c0-42.59,5-77.19-29.5-77.19-360.46,78.72-704.23,87.6-1052.9,6.8-34.58,0-27.34,34.6-27.34,77.19V586.44c0,42.58-7.24,77.18,27.34,77.18,372.31-69,711.43-83.75,1048.49-15,34.54,0,33.91-26.44,33.91-69Z"/><path class="cls-4" d="M1163,419.66a86.21,86.21,0,0,0-86.22-86.17H421.25A86.21,86.21,0,0,0,335,419.66V592.05a86.21,86.21,0,0,0,86.22,86.17h655.54A86.21,86.21,0,0,0,1163,592.05Z"/><path class="cls-4" d="M838.63,633.32a37.41,37.41,0,0,0-37.48-37.4H726.26a37.4,37.4,0,0,0-37.42,37.4v89.8a37.45,37.45,0,0,0,37.42,37.46h74.89a37.46,37.46,0,0,0,37.48-37.46Z"/></g><g id="Layer21"><path class="cls-5" d="M1245.59,784.55a58.84,58.84,0,0,0-76.9-31.59l-966,402.91A58.82,58.82,0,0,0,171,1232.73L181,1256.6a58.82,58.82,0,0,0,76.89,31.59l966-402.9a58.82,58.82,0,0,0,31.66-76.87Z"/><path class="cls-6" d="M800.83,428S896.66,562.56,919.26,603.9c37.11,67.82,232.13,487.71,275.5,614.5,16.37,48.18,15.56,137.26,15.56,137.26s84.13-147.71,86.07-237.43c1.74-79.6-211.28-547-264.69-586.91C975.6,489.5,798.37,441.38,800.83,428Z"/><path class="cls-7" d="M1202.52,759.27a49.94,49.94,0,0,0-65.32-26.82l-105.51,44a49.94,49.94,0,0,0-26.91,65.28l38.44,92.17a50,50,0,0,0,65.35,26.89l105.52-44A50,50,0,0,0,1241,851.44Z"/></g></g></g></g></svg>