<?xml version="1.0" encoding="UTF-8" standalone="no"?>
<!DOCTYPE svg PUBLIC "-//W3C//DTD SVG 1.1//EN" "http://www.w3.org/Graphics/SVG/1.1/DTD/svg11.dtd">
<svg width="100%" height="100%" viewBox="0 0 32 32" version="1.1" xmlns="http://www.w3.org/2000/svg" xmlns:xlink="http://www.w3.org/1999/xlink" xml:space="preserve" xmlns:serif="http://www.serif.com/" style="fill-rule:evenodd;clip-rule:evenodd;stroke-linejoin:round;stroke-miterlimit:2;">
    <g id="pohja---panel" serif:id="pohja - panel" transform="matrix(0.499727,0,0,0.499727,0.0135965,0.000691596)">
        <g id="Border" transform="matrix(1.03226,0,0,1.03226,-2.06452,-2.06452)">
            <path d="M64,14.4C64,7.556 58.444,2 51.6,2L14.4,2C7.556,2 2,7.556 2,14.4L2,51.6C2,58.444 7.556,64 14.4,64L51.6,64C58.444,64 64,58.444 64,51.6L64,14.4Z" style="fill:rgb(106,255,78);"/>
        </g>
        <g id="BG" transform="matrix(0.920409,0,0,0.921969,1.60241,1.58887)">
            <path d="M64,13.141C64,6.992 58.999,2 52.84,2L13.16,2C7.001,2 2,6.992 2,13.141L2,52.859C2,59.008 7.001,64 13.16,64L52.84,64C58.999,64 64,59.008 64,52.859L64,13.141Z" style="fill:rgb(39,65,0);"/>
        </g>
    </g>
    <g id="a" transform="matrix(0.5,0,0,0.5,-0.00717942,3.55271e-15)">
        <g transform="matrix(0.920913,0,0,0.920913,2.53192,2.35256)">
            <g transform="matrix(2,0,0,2,16.58,-7.10543e-15)">
                <circle cx="7.717" cy="25.127" r="4.886" style="fill:rgb(255,198,14);"/>
            </g>
            <g transform="matrix(2,0,0,2,-0.856335,-0.309759)">
                <ellipse cx="16.435" cy="25.282" rx="3.75" ry="3.744" style="fill:rgb(255,247,208);"/>
            </g>
            <g transform="matrix(2.4996,0,0,2.4996,-8.73644,-12.8338)">
                <path d="M16.777,23.52L16.777,23.023C16.777,23.023 16.787,22.96 16.709,22.894C16.64,22.834 16.56,22.839 16.56,22.839L16.196,22.839C16.196,22.839 16.145,22.834 16.075,22.896C16.001,22.962 16,23.032 16,23.032L16,23.592C15.597,23.724 15.244,24.002 15.028,24.401C14.575,25.237 14.897,26.289 15.746,26.749C15.828,26.794 15.913,26.831 16,26.862L16,27.447C16,27.447 15.997,27.517 16.053,27.576C16.113,27.64 16.19,27.64 16.19,27.64L16.582,27.639C16.582,27.639 16.693,27.642 16.743,27.593C16.792,27.544 16.782,27.473 16.782,27.473L16.777,26.953C16.996,26.93 17.212,26.865 17.411,26.758L16.989,25.996C16.73,26.135 16.417,26.133 16.156,25.992C15.732,25.762 15.571,25.236 15.797,24.818C16.024,24.399 16.552,24.247 16.977,24.477L17.387,23.72C17.191,23.613 16.985,23.548 16.777,23.52Z" style="fill:rgb(255,198,14);"/>
            </g>
        </g>
        <g transform="matrix(0.533333,0,0,0.533333,16.1306,6.13078)">
            <g transform="matrix(1,0,0,1,-2887.95,-2111.74)">
                <path d="M2905.53,2162.16L2918.67,2171.74L2930.24,2162.16L2905.53,2162.16Z" style="fill:rgb(255,168,0);fill-rule:nonzero;"/>
            </g>
            <g transform="matrix(1,0,0,1,2.441,0)">
                <circle cx="27.341" cy="27.341" r="27.341" style="fill:rgb(255,168,0);"/>
            </g>
        </g>
        <g transform="matrix(0.702586,0,0,0.702586,5.6087,-1.29086)">
            <g transform="matrix(1,0,0,1,24.415,38.181)">
                <path d="M0,0L4,0L4,4C4,5.097 3.097,6 2,6C0.903,6 0,5.097 0,4L0,0Z" style="fill:white;fill-rule:nonzero;"/>
            </g>
            <g transform="matrix(1,0,0,1,47.415,38.181)">
                <path d="M0,0L4,0L4,4C4,5.097 3.097,6 2,6C0.903,6 0,5.097 0,4L0,0Z" style="fill:white;fill-rule:nonzero;"/>
            </g>
            <g transform="matrix(1,0,0,1,23.916,18.606)">
                <path d="M5.444,0L22.45,0C24.887,0.039 26.861,2.076 26.823,4.513L27.7,19.558C27.71,20.369 27.053,21.045 26.242,21.058L1.458,21.058C0.647,21.045 -0.01,20.369 -0,19.558L1.071,4.513C1.033,2.076 3.007,0.039 5.444,0Z" style="fill:white;fill-rule:nonzero;"/>
            </g>
            <g transform="matrix(1.05635,0,0,1,49.93,28.235)">
                <path d="M0.633,0L3.378,0C3.692,-0.028 3.976,0.203 4.011,0.516L4.011,2.235C3.997,2.338 3.904,2.414 3.8,2.407L0.211,2.407C0.107,2.414 0.014,2.338 0,2.235L0,0.516C0.035,0.203 0.319,-0.028 0.633,0Z" style="fill:white;fill-rule:nonzero;"/>
            </g>
            <g transform="matrix(1.19018,0,0,1,21,28.235)">
                <path d="M0.562,0L3,0C3.295,-0.011 3.547,0.221 3.56,0.516L3.56,2.235C3.556,2.333 3.471,2.411 3.373,2.407L0.187,2.407C0.089,2.411 0.004,2.333 0,2.235L0,0.516C0.013,0.22 0.266,-0.012 0.562,0Z" style="fill:white;fill-rule:nonzero;"/>
            </g>
            <g transform="matrix(0.998,-0.07,0.07,0.998,26.331,32.166)">
                <path d="M2.437,-0.005C3.771,-0.011 4.875,1.08 4.884,2.414C4.878,3.741 3.784,4.83 2.457,4.83C2.452,4.83 2.446,4.83 2.441,4.83C1.107,4.836 0.004,3.744 -0.005,2.41C0.002,1.083 1.095,-0.005 2.422,-0.005C2.427,-0.005 2.432,-0.005 2.437,-0.005Z" style="fill:rgb(255,168,0);fill-rule:nonzero;"/>
            </g>
            <g transform="matrix(0.998,-0.07,0.07,0.998,44.91,32.166)">
                <path d="M2.437,-0.005C3.771,-0.011 4.875,1.08 4.884,2.414C4.878,3.741 3.784,4.83 2.457,4.83C2.452,4.83 2.446,4.83 2.441,4.83C1.107,4.836 0.004,3.744 -0.005,2.41C0.002,1.083 1.095,-0.005 2.422,-0.005C2.427,-0.005 2.432,-0.005 2.437,-0.005Z" style="fill:rgb(255,168,0);fill-rule:nonzero;"/>
            </g>
            <g transform="matrix(1,0,0,1,26.331,20.595)">
                <path d="M3.01,0L19.674,0C21.188,0.049 22.394,1.333 22.348,2.847L22.731,5.694C22.777,7.208 21.571,8.492 20.057,8.541L2.674,8.541C1.161,8.492 -0.045,7.208 0,5.695L0.335,2.847C0.289,1.333 1.496,0.049 3.01,0Z" style="fill:rgb(255,168,0);fill-rule:nonzero;"/>
            </g>
            <g transform="matrix(1,0,0,1.12292,31.206,11.7767)">
                <path d="M1.456,1.817L11.714,1.817L13.12,6.606L0,6.606L1.456,1.817Z" style="fill:white;fill-rule:nonzero;"/>
            </g>
            <g transform="matrix(1,0,0,1,32.415,33.181)">
                <path d="M10,1.5C10,0.672 9.328,0 8.5,0L1.5,0C0.672,0 0,0.672 0,1.5C0,2.328 0.672,3 1.5,3L8.5,3C9.328,3 10,2.328 10,1.5Z" style="fill:rgb(255,168,0);"/>
            </g>
        </g>
    </g>
</svg>
