<svg xmlns="http://www.w3.org/2000/svg" viewBox="0 0 1499.18 1499.18"><defs><style>.cls-1{fill:#6aff4e;}.cls-1,.cls-2,.cls-4{fill-rule:evenodd;}.cls-2{fill:#274100;}.cls-3{fill:#2d6aff;}.cls-4,.cls-5{fill:#fff;}</style></defs><g id="Layer_2" data-name="Layer 2"><g id="Layer_1-2" data-name="Layer 1"><g id="pohja---panel"><g id="Border"><path class="cls-1" d="M1499.18,299.84C1499.18,134.35,1364.84,0,1199.35,0H299.84C134.35,0,0,134.35,0,299.84v899.51c0,165.49,134.35,299.83,299.84,299.83h899.51c165.49,0,299.83-134.34,299.83-299.83Z"/></g><g id="BG"><path class="cls-2" d="M1417.4,321c0-132.8-107.83-240.61-240.62-240.61H321.27C188.48,80.41,80.66,188.22,80.66,321v857.79c0,132.8,107.82,240.61,240.61,240.61h855.51c132.79,0,240.62-107.81,240.62-240.61Z"/></g></g><g id="TouristInformation"><circle class="cls-3" cx="747.09" cy="749.24" r="563.72"/><path class="cls-4" d="M747.11,241.9c277.76,0,503.27,225.51,503.27,503.3s-225.51,503.3-503.27,503.3S243.77,1023,243.77,745.2,469.29,241.9,747.11,241.9Zm0,46c252.32,0,457.26,204.88,457.26,457.25s-204.94,457.25-457.26,457.25S289.85,997.56,289.85,745.2,494.73,288,747.11,288Z"/><path class="cls-5" d="M848.85,980.55h69.44v114.2H617.07V980.55h69.44V699.3H617.07V604.92H848.85Z"/><ellipse class="cls-5" cx="751.92" cy="459.89" rx="109.18" ry="110.79"/></g></g></g></svg>