<svg version="1.1" viewBox="0 0 36 36" xmlns="http://www.w3.org/2000/svg">
  <defs>
    <clipPath id="clip-PSN">
      <rect width="202" height="192"/>
    </clipPath>
  </defs>
  <g id="PSN" transform="matrix(.1749 0 0 .1749 .33514 1.2098)" clip-path="url(#clip-PSN)" fill="#fff">
    <path transform="translate(-330.75 145.6)" d="m466.41-4.064 2.052-6.088v6.088h0.975v-7.493h-1.354l-2.168 6.383-2.161-6.383h-1.37v7.493h0.987v-6.088l2.05 6.088zm-8.405 0h0.982v-6.641h2.446v-0.852h-5.9v0.852h2.469zm-73.627-17.464a58.591 58.591 0 0 0 28 2.267c0.582-0.093 1.22-0.192 1.794-0.3v-9.493l-8.991 3.281c-3.31 1.192-8.183 1.441-10.873 0.555s-2.19-2.573 1.126-3.776l18.739-6.733v-10.615l-26.037 9.314s-6.3 2.065-10.009 4.846c-4.014 2.974-2.544 8.165 6.255 10.654m54.921 1.1v10.582l39.684-14.339s5.338-1.975 7.515-4.73 1.215-6.775-7.349-9.5a57.631 57.631 0 0 0-25.194-3.014 65.9 65.9 0 0 0-13.533 2.887l-1.123 0.386v10.968l19.463-6.9c3.321-1.2 8.187-1.449 10.882-0.555s2.175 2.569-1.136 3.758l-29.213 10.458m-21.607-74.71v80.727l18.161 5.8v-67.712c0-3.173 1.407-5.3 3.681-4.573 2.961 0.846 3.54 3.766 3.54 6.923v27.055c11.32 5.5 20.227-9e-3 20.227-14.521 0-14.9-5.212-21.507-20.59-26.819a216.83 216.83 0 0 0-25.019-6.88m105.54 45.537a91.482 91.482 0 0 1-91.481 91.483 91.482 91.482 0 0 1-91.482-91.483 91.481 91.481 0 0 1 91.481-91.481 91.481 91.481 0 0 1 91.482 91.481" fill="#fff" data-name="Path 3520"/>
  </g>
</svg>
