<svg width="31" height="30" xmlns="http://www.w3.org/2000/svg">
  <g fill="#fff">
    <path
      d="M14.7 0C7 0 .6 6 0 13.7L8 17a4.1 4.1 0 0 1 2.5-.7L14 11c0-3.1 2.5-5.7 5.6-5.7 3 0 5.6 2.6 5.6 5.7 0 3-2.5 5.6-5.6 5.6h-.1l-5 3.6v.2c0 2.3-2 4.2-4.2 4.2-2 0-3.7-1.4-4.1-3.4L.5 19a14.8 14.8 0 0 0 14.2 10.8c8.2 0 14.8-6.7 14.8-14.9S22.9 0 14.7 0" />
    <path
      d="M9.3 22.6L7.4 22c.4.6 1 1.2 1.7 1.5 1.6.7 3.4 0 4-1.7a3.2 3.2 0 0 0-1.6-4.1c-.8-.4-1.6-.3-2.3 0l1.8.7c1.2.5 1.8 1.9 1.3 3a2.3 2.3 0 0 1-3 1.3m14-11.7c0-2-1.7-3.7-3.7-3.7s-3.7 1.7-3.7 3.8c0 2 1.6 3.7 3.7 3.7 2 0 3.7-1.7 3.7-3.7m-6.5 0c0-1.6 1.3-2.9 2.8-2.9 1.5 0 2.8 1.3 2.8 2.9 0 1.5-1.3 2.8-2.8 2.8a2.8 2.8 0 0 1-2.8-2.8m13.3-6.9c0 1-.7 1.5-1.5 1.5s-1.5-.6-1.5-1.5c0-1 .7-1.5 1.5-1.5s1.5.6 1.5 1.5zm-2.7 0c0 .8.6 1.3 1.2 1.3.7 0 1.3-.5 1.3-1.3s-.6-1.3-1.3-1.3c-.6 0-1.2.5-1.2 1.3zm1.3-.8c.3 0 .5.2.5.5 0 .2-.1.3-.3.4l.4.6H29l-.3-.6h-.3V5H28V3.4h.6zm-.3.7h.2c.2 0 .3 0 .3-.2s0-.2-.3-.2h-.2V4z" />
  </g>
</svg>