<svg width="30" height="30" xmlns="http://www.w3.org/2000/svg">
  <path
    d="M6.608 14.666c-2.168 3.166-3.252 6.266-3.252 9.302C1.404 21.323.429 18.395.429 15.186c0-4.423 1.67-8.088 5.008-10.993l.196.065c.997.347 1.995.889 2.992 1.626.997.737 1.756 1.388 2.277 1.951l.78.846c-1.648 1.431-3.339 3.426-5.074 5.985zm22.963.52c0 3.21-.975 6.137-2.927 8.782 0-3.036-1.084-6.136-3.252-9.302a41.098 41.098 0 0 0-2.44-3.188c-.846-.997-1.485-1.713-1.919-2.146l-.715-.65c1.821-2.17 3.838-3.644 6.05-4.424l.195-.065c3.339 2.905 5.008 6.57 5.008 10.993zM11.422 3.802c-1.778-.824-3.34-1.04-4.683-.65C9.167 1.46 11.92.615 15 .615c3.08 0 5.833.845 8.261 2.537-1.257-.347-2.818-.13-4.683.65a15.2 15.2 0 0 0-1.724.943c-.586.37-1.03.684-1.334.944l-.52.39a15.09 15.09 0 0 0-3.578-2.277zM21.7 17.593c1.865 2.255 3.21 4.597 4.033 7.026l.13.325C23.002 28.153 19.38 29.758 15 29.758s-8.001-1.605-10.864-4.814l.066-.325c.824-2.342 2.19-4.684 4.098-7.026a27.015 27.015 0 0 1 2.992-3.155c1.128-1.019 2.017-1.767 2.667-2.244L15 11.478c2.472 1.605 4.705 3.643 6.7 6.115z"
    fill="#fff" />
</svg>