<?xml version="1.0" encoding="UTF-8"?>
<svg id="Calque_1" data-name="Calque 1" xmlns="http://www.w3.org/2000/svg" version="1.1" viewBox="0 0 32 32">
  <defs>
    <style>
      .cls-1 {
        fill: #00580d;
      }

      .cls-1, .cls-2, .cls-3, .cls-4, .cls-5, .cls-6, .cls-7, .cls-8, .cls-9 {
        stroke-width: 0px;
      }

      .cls-2 {
        fill: #73d0ff;
      }

      .cls-3 {
        fill: #00b41a;
      }

      .cls-4 {
        fill: #0071a9;
      }

      .cls-5 {
        fill: #006117;
      }

      .cls-6 {
        fill: #00c1ff;
      }

      .cls-7 {
        fill: #03243e;
      }

      .cls-8 {
        fill: #02ff26;
      }

      .cls-9 {
        fill: #0089cf;
      }
    </style>
  </defs>
  <path class="cls-6" d="M1.488,16.354l16.188,10.105,13.515-10.105L14.68,8.196,1.488,16.354Z"/>
  <g>
    <path class="cls-3" d="M4.92,15.889l4.311,2.622v-5.178l-4.311-2.271v4.827Z"/>
    <path class="cls-1" d="M5.237,13.573l1.085.646v-1.368l-1.085-.608v1.33Z"/>
    <path class="cls-1" d="M7.706,14.98l1.085.646v-1.365l-1.085-.607v1.326Z"/>
    <path class="cls-1" d="M6.488,14.293l1.085.646v-1.368l-1.085-.607v1.329Z"/>
    <path class="cls-5" d="M9.231,18.512l8.211-6.31.083-3.819-8.294,4.99v5.139Z"/>
    <path class="cls-8" d="M4.92,11.062l4.312,2.312,8.294-4.99-4.001-1.933-8.604,4.611Z"/>
  </g>
  <path class="cls-4" d="M9.227,18.515l8.126-6.188.121-1.888-8.245,5.733-.002,2.344Z"/>
  <path class="cls-9" d="M4.916,15.892l4.311,2.622v-2.343l-4.311-2.514v2.234Z"/>
  <path class="cls-4" d="M4.916,14.201l4.311,2.534v-.564l-4.311-2.514v.544Z"/>
  <path class="cls-2" d="M4.842,14.229l4.311,2.534v-.564l-4.311-2.514v.544Z"/>
  <path class="cls-4" d="M4.916,13.657l-.037.043,4.237,2.471h.113"/>
  <path class="cls-4" d="M4.916,13.657l-.074.028,4.274,2.486"/>
  <path class="cls-4" d="M9.226,16.735l-.074.028v-.564"/>
  <g>
    <path class="cls-7" d="M5.202,16.066l1.085.66v-1.283l-1.085-.608v1.231Z"/>
    <path class="cls-7" d="M7.67,17.572l1.085.646v-1.365l-1.085-.607v1.326Z"/>
    <path class="cls-7" d="M6.453,16.827l1.085.66v-1.324l-1.085-.607v1.272Z"/>
  </g>
  <g>
    <path class="cls-3" d="M9.832,18.672l4.311,2.622v-5.178l-4.311-2.271v4.827Z"/>
    <path class="cls-1" d="M10.149,16.356l1.085.646v-1.368l-1.085-.608v1.33Z"/>
    <path class="cls-1" d="M12.618,17.764l1.085.646v-1.365l-1.085-.607v1.326Z"/>
    <path class="cls-1" d="M11.4,17.076l1.085.646v-1.368l-1.085-.607v1.329Z"/>
    <path class="cls-5" d="M14.145,21.295l8.592-6.6-.038-3.814-8.553,5.23v5.184Z"/>
    <path class="cls-8" d="M9.832,13.845l4.311,2.271,8.555-5.235-4.542-2.194-8.324,5.157Z"/>
  </g>
  <path class="cls-4" d="M14.143,21.294l8.126-6.188.121-1.888-8.245,5.733-.002,2.344Z"/>
  <path class="cls-9" d="M9.831,18.671l4.311,2.622v-2.343l-4.311-2.514v2.234Z"/>
  <path class="cls-4" d="M9.831,16.98l4.311,2.534v-.564l-4.311-2.514v.544Z"/>
  <path class="cls-2" d="M9.757,17.008l4.311,2.534v-.564l-4.311-2.514v.544Z"/>
  <path class="cls-4" d="M9.831,16.437l-.037.043,4.237,2.471h.113"/>
  <path class="cls-4" d="M9.831,16.437l-.074.028,4.274,2.486"/>
  <path class="cls-4" d="M14.142,19.514l-.074.028v-.564"/>
  <g>
    <path class="cls-7" d="M10.117,18.845l1.085.66v-1.283l-1.085-.608v1.231Z"/>
    <path class="cls-7" d="M12.586,20.351l1.085.646v-1.365l-1.085-.607v1.326Z"/>
    <path class="cls-7" d="M11.368,19.606l1.085.66v-1.324l-1.085-.607v1.272Z"/>
  </g>
  <path class="cls-3" d="M14.744,21.453l4.311,2.622v-5.178l-4.311-2.271v4.827Z"/>
  <path class="cls-1" d="M15.062,19.138l1.085.646v-1.368l-1.085-.608v1.33Z"/>
  <path class="cls-1" d="M17.53,20.545l1.085.646v-1.365l-1.085-.607v1.326Z"/>
  <path class="cls-1" d="M16.312,19.857l1.085.646v-1.368l-1.085-.607v1.329Z"/>
  <path class="cls-5" d="M19.056,24.076l8.126-6.188.335-4.679-8.457,5.729-.004,5.139Z"/>
  <path class="cls-8" d="M14.744,16.626l4.29,2.383,8.482-5.8-4.1-1.981-8.672,5.398Z"/>
  <path class="cls-4" d="M19.056,24.076l8.126-6.188.121-1.888-8.245,5.733-.002,2.344Z"/>
  <path class="cls-9" d="M14.744,21.453l4.311,2.622v-2.343l-4.311-2.514v2.234Z"/>
  <path class="cls-4" d="M14.744,19.763l4.311,2.534v-.564l-4.311-2.514v.544Z"/>
  <path class="cls-2" d="M14.67,19.791l4.311,2.534v-.564l-4.311-2.514v.544Z"/>
  <path class="cls-4" d="M14.744,19.219l-.037.043,4.237,2.471h.113"/>
  <path class="cls-4" d="M14.744,19.219l-.074.028,4.274,2.486"/>
  <path class="cls-4" d="M19.055,22.296l-.074.028v-.564"/>
  <g>
    <path class="cls-7" d="M15.03,21.627l1.085.66v-1.283l-1.085-.608v1.231Z"/>
    <path class="cls-7" d="M17.499,23.133l1.085.646v-1.365l-1.085-.607v1.326Z"/>
    <path class="cls-7" d="M16.281,22.388l1.085.66v-1.324l-1.085-.607v1.272Z"/>
  </g>
</svg>