<svg version="1.1" viewBox="0 0 36 36" xmlns="http://www.w3.org/2000/svg" xmlns:xlink="http://www.w3.org/1999/xlink">
 <defs>
  <linearGradient id="linearGradient844" x1="8.2881" x2="26.73" y1="2.2836" y2="32.919" gradientUnits="userSpaceOnUse">
   <stop stop-color="#6b6b6b" offset="0"/>
   <stop stop-color="#cbcbcb" offset="1"/>
  </linearGradient>
 </defs>
 <path d="m29.746 31.106c-0.16834 0.10115-0.35452 0.20404-0.56924 0.31446l-0.12308 0.06334c-1.2028 0.6192-2.566 1.321-3.7679 1.6003-1.1401 0.26492-1.9305 0.10888-2.4633-0.49225 0.16525-0.52765 0.51154-1.7755 0.60858-3.2345 0.17231-2.591-0.53891-4.5907-2.0568-5.7832-1.1363-0.89211-2.5475-1.2801-4.1816-1.7293-2.5711-0.70685-5.7692-1.5861-9.0649-4.9631-1.9902-2.8439-2.7388-4.9429-3.0162-6.2046-0.28917-1.3154-0.138-2.0109-0.12651-2.06l0.01811-0.059407-0.0007288 -0.054044c0.013841-0.36715 0.02456-0.70579 0.03446-1.019 0.088937-2.8115 0.14103-3.3005 1.4551-4.0901 0.18285-0.10987 0.3966-0.22752 0.65348-0.35968 2.1787-1.1209 5.7313-1.9248 7.1902-0.41008-0.33892 0.55557-1.0045 1.7858-1.3917 3.425-0.48661 2.0602-0.60403 5.1753 1.5999 8.316 1.0192 1.4523 2.8983 1.8568 5.0741 2.3251 1.9848 0.42721 4.2342 0.91138 6.5056 2.2546 2.2279 1.3931 3.4472 3.534 4.0778 5.0851 0.64397 1.5842 0.82491 2.8977 0.84867 3.0883 0.00028 0.31138 0.0049 0.60125 0.009 0.85789 0.02848 1.7805 0.03708 2.3178-1.3131 3.1291z" fill="url(#linearGradient844)"/>
 <path d="m11.715 1.3652c-1.9268 0.030596-3.8214 0.70922-5.4805 1.6641-0.40311 0.24352-0.79957 0.52319-1.0801 0.9082-0.66217 0.99118-0.53203 2.2438-0.61133 3.377 0.028238 0.81948-0.14328 1.6313-0.078125 2.4473-0.027091 0.384-0.041416 0.7689 0.013672 1.1543 0.3604 2.6489 1.727 5.0308 3.2148 7.2031 1.5833 1.6985 3.5299 3.069 5.6699 3.9766 2.0249 0.90578 4.2458 1.227 6.2988 2.0488 1.3247 0.51792 2.4585 1.5702 2.9043 2.9414 0.23184 0.69028 0.34028 1.4011 0.37305 2.1191-0.057165 1.152-0.29782 2.3039-0.625 3.3945 0.005309 0.13939 0.059091 0.26505 0.13672 0.38086-0.048307 0.17947-0.083764 0.36449-0.13672 0.54102 0.023382 0.61394 0.8739 1.0048 1.4492 1.123 1.5688 0.22011 3.0561-0.53762 4.4355-1.1816 1.0628-0.59012 2.3492-0.99656 3.0391-2.0684 0.38314-0.75478 0.35024-1.5933 0.32227-2.4258 0.017355-0.60507-0.038122-1.2223-0.011719-1.8164-0.43103-2.8617-1.71-5.6791-3.8945-7.625-1.8964-1.651-4.3616-2.4428-6.7695-3.0059-1.69-0.4263-3.5027-0.58714-5.0195-1.5117-1.0082-0.67111-1.5378-1.8253-2.0254-2.8906-0.41517-0.98929-0.6142-2.0362-0.66016-3.0918 0.095735-1.9274 0.72581-3.8421 1.7734-5.4531-0.093435-0.13607-0.20252-0.25483-0.31836-0.36719 0.10585-0.18522 0.20247-0.37647 0.31836-0.55469-0.53973-0.786-1.4923-1.1655-2.4121-1.2598-0.276-0.023142-0.55092-0.031714-0.82617-0.027344zm0.044922 1.9062c0.53601-0.0088043 1.0633 0.065746 1.5566 0.26953-0.36918 0.78701-0.65856 1.6113-0.85938 2.457-0.24043 0.95761-0.3248 1.9448-0.28711 2.9277-0.11339 2.3238 0.53428 4.6805 1.8789 6.5898 0.87664 1.3779 2.5028 1.9646 4.0176 2.3242 2.5103 0.57417 5.1093 1.007 7.3848 2.2832 2.5882 1.3869 4.1874 4.1118 4.877 6.8926 0.20727 0.6789 0.2275 1.3806 0.22852 2.084 0.007436 0.60925-0.27092 1.1989-0.82812 1.4883-1.2057 0.71547-2.4717 1.3438-3.7832 1.8418-0.73246 0.23147-1.6163 0.52582-2.3496 0.18359 0.20642-0.90349 0.33384-1.8253 0.35742-2.752 0.008987-0.264 0.005453-0.53123-0.007813-0.79883 0.00145-0.041131 0.006766-0.081897 0.007813-0.12305 0.068042-1.9989-0.47246-4.1666-2.0469-5.5117-1.787-1.5231-4.2033-1.8005-6.3594-2.5156-2.6317-0.77939-5.049-2.2422-6.959-4.2129-0.97784-1.3262-1.8065-2.7759-2.4297-4.3047-0.31082-0.82632-0.60259-1.6997-0.68359-2.5859 0.0046375-0.043782 0.005662-0.087074 0.011719-0.13086 0.073672-1.0301 0.04263-2.0828 0.14844-3.1172 0.0004926 -0.75341 0.42933-1.4361 1.1152-1.752 0.93775-0.55617 1.9554-0.97479 3.0117-1.2441 0.6379-0.14706 1.3235-0.28189 1.998-0.29297z" fill="#707070"/>
</svg>
