<svg version="1.1" viewBox="0 0 36 36" xmlns="http://www.w3.org/2000/svg" xmlns:xlink="http://www.w3.org/1999/xlink">
 <defs>
  <linearGradient id="linearGradient844" x1="7.803" x2="25.638" y1="3.4974" y2="33.008" gradientUnits="userSpaceOnUse">
   <stop stop-color="#6b6b6b" offset="0"/>
   <stop stop-color="#cbcbcb" offset="1"/>
  </linearGradient>
 </defs>
 <path d="m27.551 31.814c-0.41303 0.24817-0.87534 0.48403-1.3741 0.701-0.27547 0.11985-0.53088 0.23295-0.76847 0.33816-1.1318 0.50116-1.8794 0.83225-2.3419 0.79531-0.29753-0.02378-0.59304-0.21409-1.1197-1.0604 0.09299-0.85821 0.30958-4.3834-2.0896-6.3767-0.83057-0.68902-1.8797-0.94667-3.0945-1.245-1.9685-0.48342-4.1986-1.0312-6.3692-3.6135-1.0721-1.8642-0.6437-3.9166-0.22934-5.9018 0.29217-1.3998 0.56814-2.7219 0.26823-3.872-0.3736-1.4268-1.5341-2.3782-2.558-3.2175-0.9014-0.73893-1.6799-1.3771-1.7519-2.1361-0.07656-0.8062 0.095072-1.3493 0.5924-1.8744 0.54024-0.57045 1.4722-1.1304 2.6521-1.8394 1.2687-0.76233 2.3816-1.1536 3.3076-1.1628 0.96394-0.00964 1.6824 0.40146 2.1963 1.2568l0.05706 0.094957 0.09184 0.061973c0.02329 0.015913 2.4331 1.6986 2.9473 5.215-0.11841 1.1378-0.315 2.1362-0.48879 3.0188-0.48206 2.4481-0.86283 4.3817 0.85639 6.9356l0.03301 0.04903 0.04353 0.03999c1.2193 1.12 2.6904 1.4148 4.1129 1.6998 1.2022 0.24089 2.3377 0.46841 3.2829 1.1725 2.5775 1.9246 3.663 6.566 3.6736 6.6127l0.01777 0.07775 0.04108 0.06837c1.1397 1.8968-0.75669 3.4217-1.9885 4.1619z" fill="url(#linearGradient844)"/>
 <path d="m12.951 0.92578c-1.3581-0.09574-2.6912 0.54934-3.8418 1.2207-0.66278 0.40119-1.3336 0.79298-1.9629 1.2461-0.83664 0.56286-1.58 1.4398-1.541 2.5039-0.016075 0.17634-0.0007799 0.34576 0.029297 0.51172-0.022203 0.13826-0.034629 0.2802-0.029297 0.42578-0.08157 0.89484 0.48854 1.6649 1.1328 2.2188 1.1921 1.0834 2.7582 1.9997 3.2109 3.6523 0.036951 0.16654 0.060596 0.3335 0.078125 0.5-0.066713 1.0273-0.3514 2.0514-0.52734 3.0605-0.18943 0.92232-0.3129 1.8984-0.25977 2.8516-0.065825 1.1942 0.086694 2.3904 0.69727 3.4434 1.3451 1.7483 3.3022 2.9829 5.4258 3.5566 1.4493 0.45653 3.0934 0.54973 4.2891 1.5781 1.2465 1.1249 1.7445 2.7805 1.8223 4.4277-0.005579 0.12233-0.006006 0.24638-0.015625 0.36719-0.004939 0.09217 0.00888 0.18142 0.029297 0.26953-0.003767 0.22418-0.011799 0.44818-0.029297 0.66797-0.033896 0.63252 0.58905 1.1753 1.0488 1.5566 0.80995 0.43027 1.6959-0.10034 2.459-0.39062 1.7689-0.77632 3.7196-1.5126 4.8828-3.1484 0.44615-0.59373 0.61591-1.3613 0.49219-2.082 0.11661-0.6521 0.002045-1.3426-0.37305-1.9062-0.53056-2.0304-1.3318-4.0346-2.6367-5.6973-0.82949-1.0853-2.0276-1.868-3.3633-2.168-1.7826-0.45945-3.8042-0.55169-5.2188-1.877-0.64177-0.92608-1.0577-2.0133-1.1445-3.1387 0.1436-1.8888 0.71119-3.7191 0.86523-5.6094-0.017861-0.13061-0.048592-0.25878-0.072265-0.38867 0.022341-0.18316 0.057251-0.3646 0.072265-0.54883-0.29797-2.1788-1.4103-4.2785-3.1719-5.6191-0.38608-0.66297-1.0097-1.2076-1.7637-1.3965-0.19456-0.045961-0.38996-0.074213-0.58398-0.087891zm-0.041016 1.9199c0.70635 0.054291 1.3215 0.54381 1.6309 1.1797 1.4935 1.0777 2.4877 2.7793 2.8477 4.582-0.20298 1.5391-0.5996 3.0477-0.76953 4.5918-0.057937 0.45774-0.066901 0.9179-0.033203 1.375-0.10075 1.643 0.38538 3.299 1.3379 4.6426 0.63621 0.717 1.5346 1.166 2.4297 1.4805 1.6895 0.61467 3.6446 0.52284 5.1543 1.5977 1.6329 1.2941 2.4998 3.2805 3.1602 5.2012 0.18082 0.44686 0.22734 0.94631 0.42383 1.3809 0.098844 0.13523 0.16452 0.28387 0.21289 0.43555-0.078931 0.3042-0.21206 0.59684-0.42774 0.83008-1.2016 1.4234-3.0365 2.0114-4.6797 2.7539-0.60743 0.37926-1.3953 0.43234-1.7051-0.30469-0.000028 -0.15346-0.009041-0.30705-0.015626-0.46094 0.088174-2.0889-0.38313-4.3071-1.8711-5.8457-1.2167-1.3209-3.0763-1.5437-4.7168-1.9961-1.9727-0.48876-3.7964-1.5768-5.084-3.1602-0.33423-0.58735-0.49693-1.2221-0.55469-1.873 0.033047-0.70408 0.1389-1.4105 0.27734-2.084 0.2453-1.2817 0.62558-2.6385 0.51367-3.9512 0.050182-0.77049-0.010139-1.5364-0.31641-2.2734-0.6898-1.6912-2.3382-2.6215-3.5918-3.8418-0.22895-0.18823-0.38448-0.44028-0.4668-0.71484 0.04586-0.15959 0.11042-0.31338 0.20508-0.45117 0.72857-0.88914 1.8066-1.385 2.7539-2 0.90958-0.53295 1.9051-1.0274 2.9766-1.0879 0.104-0.010852 0.20769-0.013615 0.30859-0.0058594z" fill="#707070"/>
</svg>
