<svg xmlns="http://www.w3.org/2000/svg" xmlns:xlink="http://www.w3.org/1999/xlink" width="32" height="32" viewBox="0 0 32 32"><defs><clipPath id="b"><rect width="32" height="32"/></clipPath></defs><g id="a"><path d="M1355.7-570.147s-5.858.755-8.445-1.072-1.9-7.206-1.9-7.206h-2.76l3.855-4.975,4.769,4.975h-3.044s-.758,3.351,1.124,4.478,6.4.7,6.4.7Z" transform="translate(-1340 598.4)" fill="#f4f4f4"/><path d="M1355.7-570.147s-5.858.755-8.445-1.072-1.9-7.206-1.9-7.206h-2.76l3.855-4.975,4.769,4.975h-3.044s-.758,3.351,1.124,4.478,6.4.7,6.4.7Z" transform="translate(1371.286 -565.992) rotate(180)" fill="#f4f4f4"/><g transform="translate(3 3)" fill="#b5b5b5" stroke="#acabab" stroke-width="1"><rect width="11" height="11" rx="2" stroke="none"/><rect x="0.5" y="0.5" width="10" height="10" rx="1.5" fill="none"/></g><g transform="translate(18 19)" fill="#b5b5b5" stroke="#acabab" stroke-width="1"><rect width="11" height="11" rx="2" stroke="none"/><rect x="0.5" y="0.5" width="10" height="10" rx="1.5" fill="none"/></g></g></svg>