<svg version="1.1" viewBox="0 0 36 36" xmlns="http://www.w3.org/2000/svg" xmlns:xlink="http://www.w3.org/1999/xlink">
 <defs>
  <linearGradient id="linearGradient901" x1="7.808" x2="25.999" y1="2.9109" y2="33.13" gradientUnits="userSpaceOnUse">
   <stop stop-color="#6b6b6b" offset="0"/>
   <stop stop-color="#cbcbcb" offset="1"/>
  </linearGradient>
 </defs>
 <path d="m28.606 31.497c-1.7077 1.0779-4.2629 1.6657-5.8642 0.08399-0.59568-0.9161-1.6488-1.3054-2.4868-1.9589-4.8529-3.4395-9.6027-7.4596-12.238-12.921-1.3495-2.741-2.4733-5.6479-2.9826-8.6647 0.0000463 -1.4668-0.28075-3.351 1.2181-4.2226 2.0085-1.2356 4.7-1.9041 6.9271-0.86895 1.4411 0.64204 0.6874 2.4519 1.0688 3.6964 0.6145 5.0293 2.4897 10.12 6.2778 13.63 2.92 2.8086 6.3835 5.0117 10.03 6.752 1.23 1.7605-0.45617 3.6283-1.9503 4.4736z" fill="url(#linearGradient901)"/>
 <path d="m11.002 1.9414c-2.0685 0.03601-4.3133 0.61454-5.79 2.1402-1.0908 1.4928-0.5572 3.4455-0.67678 5.1626 1.3032 6.2025 4.2421 12.19 8.953 16.509 2.5544 2.4209 5.3634 4.5694 8.3263 6.4658 1.1629 1.836 3.6643 2.2025 5.5572 1.3857 1.8941-0.74476 4.1176-2.2016 4.0937-4.4821 0.40299-1.784-0.89091-2.9327-2.4399-3.4244-4.7877-2.6259-9.5754-5.9951-12.004-11.056-1.6472-3.473-2.4175-7.3287-2.492-11.16-0.78392-1.1227-2.2218-1.5261-3.5273-1.541zm-0.30273 0.99609c1.0623 0.00326 3.0166 0.16647 2.8586 1.608 0.34374 5.8256 2.1697 11.88 6.514 15.989 2.9418 2.8647 6.4539 5.0942 10.137 6.8794 0.86692 1.5095-0.64722 2.9575-1.8613 3.6543-1.5735 1.008-4.0233 1.5936-5.4248-0.01962-0.59919-0.92648-1.7405-1.2591-2.5589-1.9597-4.8598-3.4431-9.563-7.5278-12.112-13.034-1.2161-2.5599-2.2419-5.2581-2.7181-8.0555 0.033946-1.2975-0.32576-3.0228 1.0274-3.792 1.229-0.78375 2.683-1.218 4.1377-1.2703z" fill="#707070"/>
</svg>
