<svg version="1.1" viewBox="0 0 36 36" xmlns="http://www.w3.org/2000/svg" xmlns:xlink="http://www.w3.org/1999/xlink">
 <defs>
  <linearGradient id="linearGradient848" x1="8.4557" x2="27.481" y1="1.7543" y2="33.294" gradientUnits="userSpaceOnUse">
   <stop stop-color="#6b6b6b" offset="0"/>
   <stop stop-color="#cbcbcb" offset="1"/>
  </linearGradient>
 </defs>
 <path d="m29.141 32.301c-2.4153 1.4874-5.9985 0.79757-7.4284-1.7323-5.4536-7.6447-10.947-15.263-16.376-22.924-1.1162-1.7688-0.11867-4.1764 1.6844-5.0382 2.4103-1.3668 5.8677-0.64516 7.2657 1.8259 5.4536 7.6447 10.947 15.263 16.376 22.924 1.0768 1.7369 0.19682 4.0065-1.5218 4.9446z" fill="url(#linearGradient848)"/>
 <path d="m10.002 1.4336c-2.5819-0.18804-5.5314 1.5877-5.6161 4.3796-0.074812 1.2698 0.060396 2.6299 0.94437 3.6276 5.5029 7.6852 10.992 15.381 16.503 23.059 2.4165 3.0471 8.1654 2.5459 9.5693-1.2429 0.3025-1.2969 0.38483-2.7784-0.22865-4.0077-1.9963-2.9483-4.1339-5.8048-6.186-8.7169-3.6228-5.0527-7.2236-10.122-10.86-15.164-1.0009-1.2171-2.5732-1.867-4.126-1.9347zm-0.068359 1.9121c1.6579 0.020199 3.1986 0.95938 4.0168 2.3888 5.4008 7.5576 10.813 15.107 16.207 22.67 0.85611 1.0474 0.1433 2.4303-0.79772 3.1355-2.1817 1.7683-5.8801 1.2249-7.2601-1.2886-5.4174-7.5808-10.846-15.154-16.257-22.739-0.81549-0.98773-0.21697-2.3007 0.65385-3.0161 0.93396-0.81848 2.2057-1.2019 3.4369-1.15z" fill="#707070"/>
</svg>
