<svg xmlns="http://www.w3.org/2000/svg" xmlns:xlink="http://www.w3.org/1999/xlink" width="32" height="32" viewBox="0 0 32 32"><defs><clipPath id="b"><rect width="32" height="32"/></clipPath></defs><g id="a"><path d="M-114.928-129.794v0h0l.788-8.884A6.515,6.515,0,0,0-112-143.5a6.507,6.507,0,0,0-6.5-6.5,6.507,6.507,0,0,0-6.5,6.5,6.461,6.461,0,0,0,1.172,3.725l-6.732,5.02A13.415,13.415,0,0,1-133-142.5a13.412,13.412,0,0,1,3.955-9.546A13.411,13.411,0,0,1-119.5-156a13.412,13.412,0,0,1,9.546,3.954A13.412,13.412,0,0,1-106-142.5a13.407,13.407,0,0,1-2.512,7.845A13.469,13.469,0,0,1-114.928-129.794Z" transform="translate(136 159)" fill="#fff"/><path d="M77.711,124.526l14.517-11.9h4.678l-1.8,11.9Z" transform="translate(-76 -95)" fill="#fff"/></g></svg>