<svg xmlns="http://www.w3.org/2000/svg" xmlns:xlink="http://www.w3.org/1999/xlink" width="64" height="64" viewBox="0 0 64 64"><defs><filter id="a" x="28.335" y="27" width="25.649" height="30.518" filterUnits="userSpaceOnUse"><feOffset dy="3" input="SourceAlpha"/><feGaussianBlur stdDeviation="3" result="b"/><feFlood flood-opacity="0.161"/><feComposite operator="in" in2="b"/><feComposite in="SourceGraphic"/></filter><clipPath id="d"><rect width="64" height="64"/></clipPath></defs><g id="c"><rect width="38" height="54" rx="5" transform="translate(13 4)" fill="#4f8198"/><rect width="9" height="10" transform="translate(24 38)" fill="#d1f8ff"/><rect width="9" height="5" transform="translate(24 34)" fill="#afcfd5"/><path d="M5244,1909.264h5.954s2.878-.435,4.121,1.276.85,5.569.85,5.569v4.206h-4.971l-.006-3.459a2.855,2.855,0,0,0-.526-1.59,2.258,2.258,0,0,0-1.462-.515h-3.966Z" transform="translate(-5211 -1889)" fill="#d1f8ff"/><rect width="13" height="20" rx="3" transform="translate(22 16)" fill="#edfcff"/><g transform="translate(39.156 32.538)"><g transform="matrix(1, 0, 0, 1, -39.16, -32.54)" filter="url(#a)"><path d="M12.869,6.335A12.659,12.659,0,0,0,10.7,3.429a.172.172,0,0,0-.249,0,12.511,12.511,0,0,0-2.163,2.9,10.639,10.639,0,0,0-1.535,5.143c0,.036,0,.075,0,.111a4.818,4.818,0,0,0,.261,1.568,4.6,4.6,0,0,0,.363.791,3.731,3.731,0,0,0,3.2,1.95A4.09,4.09,0,0,0,14.4,11.583,10.706,10.706,0,0,0,12.869,6.335Z" transform="translate(30.59 29.63)" fill="#39c2ff"/></g></g></g></svg>