<svg xmlns="http://www.w3.org/2000/svg" xmlns:xlink="http://www.w3.org/1999/xlink" width="26" height="26" viewBox="0 0 26 26"><defs><clipPath id="a"><rect width="26" height="26"/></clipPath></defs><g id="b"><text transform="translate(-8 43)" fill="#707070" font-size="18" font-family="SegoeUI, Segoe UI"><tspan x="0" y="0">new</tspan></text><g><g transform="translate(0 1)"><path d="M0,0H16V2H0Z" transform="translate(5 10)" fill="#d7e3f0"/><rect width="16" height="3" transform="translate(5 17)" fill="#d7e3f0"/><rect width="14" height="5" transform="translate(6 12)" fill="#61819c"/><path d="M4,0H6a4,4,0,0,1,4,4V5H0V4A4,4,0,0,1,4,0Z" transform="translate(8 5)" fill="#819bad"/><rect width="2" height="5" transform="translate(6 12)" fill="#9fb8c8"/><rect width="2" height="5" transform="translate(18 12)" fill="#9fb8c8"/><rect width="2" height="5" transform="translate(10 12)" fill="#9fb8c8"/><rect width="2" height="5" transform="translate(14 12)" fill="#9fb8c8"/><rect width="2" height="3" transform="translate(12 2)" fill="#d7e3f0"/></g></g></g></svg>