<svg xmlns="http://www.w3.org/2000/svg" xmlns:xlink="http://www.w3.org/1999/xlink" width="64" height="64" viewBox="0 0 64 64"><defs><clipPath id="b"><rect width="64" height="64"/></clipPath></defs><g id="a"><rect width="38" height="54" rx="5" transform="translate(13 4)" fill="#4f8198"/><g transform="translate(22.742 23.58)"><path d="M433.632-1698.708a18.508,18.508,0,0,0,7.2,1.3,23.356,23.356,0,0,0,6.333-1.241,2.941,2.941,0,0,0,2.544-2.206,3.993,3.993,0,0,0-1.949-4.436,4.634,4.634,0,0,0-3.238-.259s.613-3.255-1.674-4.783a5.252,5.252,0,0,0-6.567.376c-1.989,1.546-1.347,5.207-1.347,5.207s-2.515.388-2.868,2.515S432.435-1699.436,433.632-1698.708Z" transform="translate(-520.216 1686.363) rotate(3)" fill="#e8fcff"/></g><g transform="translate(18 18)" fill="none" stroke="#fff" stroke-width="2"><circle cx="14" cy="14" r="14" stroke="none"/><circle cx="14" cy="14" r="13" fill="none"/></g><path d="M3.132,1.519a1,1,0,0,1,1.736,0L7.145,5.5A1,1,0,0,1,6.277,7H1.723A1,1,0,0,1,.855,5.5Z" transform="translate(36.5 14.55) rotate(90)" fill="#fff"/><path d="M3.132,1.519a1,1,0,0,1,1.736,0L7.145,5.5A1,1,0,0,1,6.277,7H1.723A1,1,0,0,1,.855,5.5Z" transform="translate(27 48.55) rotate(-90)" fill="#fff"/></g></svg>