<svg xmlns="http://www.w3.org/2000/svg" xmlns:xlink="http://www.w3.org/1999/xlink" width="64" height="64" viewBox="0 0 64 64"><defs><clipPath id="b"><rect width="64" height="64"/></clipPath></defs><g id="a"><rect width="38" height="54" rx="5" transform="translate(13 4)" fill="#4f8198"/><g transform="translate(17.588 5.052)"><rect width="17.484" height="11.24" transform="translate(0.079 5.314)" fill="#f3f3f3"/><path d="M19.342,28.371l9.062-5.34,8.672,5.34Z" transform="translate(-19.282 -11.774)" fill="#c9c9c9"/><path d="M27.587,57.918,35.992,50.8H18.51Z" transform="translate(-18.482 -45.505)" fill="#fff"/></g><g transform="translate(28.588 20.052)"><rect width="17.484" height="11.24" transform="translate(0.079 5.314)" fill="#f3f3f3"/><path d="M19.342,28.371l9.062-5.34,8.672,5.34Z" transform="translate(-19.282 -11.774)" fill="#c9c9c9"/><path d="M27.587,57.918,35.992,50.8H18.51Z" transform="translate(-18.482 -45.505)" fill="#fff"/></g><g transform="translate(17.588 35.052)"><rect width="17.484" height="11.24" transform="translate(0.079 5.314)" fill="#f3f3f3"/><path d="M19.342,28.371l9.062-5.34,8.672,5.34Z" transform="translate(-19.282 -11.774)" fill="#c9c9c9"/><path d="M27.587,57.918,35.992,50.8H18.51Z" transform="translate(-18.482 -45.505)" fill="#fff"/></g></g></svg>