<svg xmlns="http://www.w3.org/2000/svg" xmlns:xlink="http://www.w3.org/1999/xlink" width="64" height="64" viewBox="0 0 64 64"><defs><clipPath id="b"><rect width="64" height="64"/></clipPath></defs><g id="a"><rect width="38" height="54" rx="5" transform="translate(13 4)" fill="#61ceff"/><rect width="4" height="14" rx="2" transform="translate(29.839 9)" fill="#fff"/><path d="M1.729.043A1.825,1.825,0,0,1,3.5,1.793L3.768,12.5a1.618,1.618,0,0,1-1.686,1.664,1.825,1.825,0,0,1-1.771-1.75L.043,1.707A1.618,1.618,0,0,1,1.729.043Z" transform="matrix(0.616, 0.788, -0.788, 0.616, 28.124, 27.179)" fill="#fff"/><path d="M1.728-.043A1.618,1.618,0,0,1,3.414,1.622L3.146,12.33a1.825,1.825,0,0,1-1.771,1.75A1.618,1.618,0,0,1-.311,12.415L-.043,1.707A1.825,1.825,0,0,1,1.728-.043Z" transform="matrix(-0.616, 0.788, -0.788, -0.616, 46.787, 36.153)" fill="#fff"/><ellipse cx="3" cy="3.5" rx="3" ry="3.5" transform="translate(28.839 23)" fill="#7b7b7b"/><path d="M4337.381,1847.946v-23.07h2.824v23.07Z" transform="translate(-4307 -1793)" fill="#d1d1d1"/></g></svg>