<?xml version="1.0" encoding="UTF-8" standalone="no"?>
<!DOCTYPE svg PUBLIC "-//W3C//DTD SVG 1.1//EN" "http://www.w3.org/Graphics/SVG/1.1/DTD/svg11.dtd">
<svg width="100%" height="100%" viewBox="0 0 128 128" version="1.1" xmlns="http://www.w3.org/2000/svg" xmlns:xlink="http://www.w3.org/1999/xlink" xml:space="preserve" xmlns:serif="http://www.serif.com/" style="fill-rule:evenodd;clip-rule:evenodd;stroke-linejoin:round;stroke-miterlimit:2;">
    <g id="pohja---panel" serif:id="pohja - panel" transform="matrix(2,0,0,2,0,0)">
        <g>
            <g id="notification">
                <g>
                    <g id="border" transform="matrix(1.03226,0,0,1.03226,-2.06452,-2.06452)">
                        <path d="M64,14.4C64,7.556 58.444,2 51.6,2L14.4,2C7.556,2 2,7.556 2,14.4L2,51.6C2,58.444 7.556,64 14.4,64L51.6,64C58.444,64 64,58.444 64,51.6L64,14.4Z" style="fill:rgb(255,199,82);"/>
                    </g>
                    <g id="notification1" serif:id="notification" transform="matrix(0.920409,0,0,0.921969,1.6265,1.57502)">
                        <path d="M64,13.141C64,6.992 58.999,2 52.84,2L13.16,2C7.001,2 2,6.992 2,13.141L2,52.859C2,59.008 7.001,64 13.16,64L52.84,64C58.999,64 64,59.008 64,52.859L64,13.141Z" style="fill:rgb(255,244,221);"/>
                    </g>
                </g>
            </g>
        </g>
    </g>
    <g transform="matrix(1,0,0,1,0.893801,2.38924)">
        <g transform="matrix(-1.5677,-0.00450156,0.00253163,-0.881657,161.472,98.4307)">
            <path d="M62.877,11.677C62.877,11.677 53.446,60.614 53.446,81.587C53.446,90.843 57.672,98.358 62.877,98.358C68.083,98.358 72.309,90.843 72.309,81.587C72.309,60.614 62.877,11.677 62.877,11.677Z" style="fill:rgb(174,70,6);"/>
        </g>
        <g transform="matrix(1,0,0,1,2.78456,2.06596)">
            <circle cx="60.182" cy="99.306" r="10.42" style="fill:rgb(174,70,6);"/>
        </g>
    </g>
</svg>
