<?xml version="1.0" encoding="UTF-8" standalone="no"?>
<!DOCTYPE svg PUBLIC "-//W3C//DTD SVG 1.1//EN" "http://www.w3.org/Graphics/SVG/1.1/DTD/svg11.dtd">
<svg width="100%" height="100%" viewBox="0 0 128 128" version="1.1" xmlns="http://www.w3.org/2000/svg" xmlns:xlink="http://www.w3.org/1999/xlink" xml:space="preserve" xmlns:serif="http://www.serif.com/" style="fill-rule:evenodd;clip-rule:evenodd;stroke-linejoin:round;stroke-miterlimit:2;">
    <g id="pohja---panel" serif:id="pohja - panel" transform="matrix(2,0,0,2,0,0)">
        <g>
            <g id="notification">
                <g>
                    <g id="border" transform="matrix(1.03226,0,0,1.03226,-2.06452,-2.06452)">
                        <path d="M64,14.4C64,7.556 58.444,2 51.6,2L14.4,2C7.556,2 2,7.556 2,14.4L2,51.6C2,58.444 7.556,64 14.4,64L51.6,64C58.444,64 64,58.444 64,51.6L64,14.4Z" style="fill:rgb(255,199,82);"/>
                    </g>
                    <g id="notification1" serif:id="notification" transform="matrix(0.920409,0,0,0.921969,1.6265,1.57502)">
                        <path d="M64,13.141C64,6.992 58.999,2 52.84,2L13.16,2C7.001,2 2,6.992 2,13.141L2,52.859C2,59.008 7.001,64 13.16,64L52.84,64C58.999,64 64,59.008 64,52.859L64,13.141Z" style="fill:rgb(255,244,221);"/>
                    </g>
                </g>
            </g>
        </g>
    </g>
    <g>
        <g transform="matrix(1.05728,0,0,1,-7.33186,0)">
            <path d="M128,22.934C128,10.276 118.28,0 106.309,0L28.626,0C16.654,0 6.935,10.276 6.935,22.934L6.935,105.066C6.935,117.724 16.654,128 28.626,128L106.309,128C118.28,128 128,117.724 128,105.066L128,22.934Z" style="fill:rgb(75,195,241);"/>
        </g>
        <g transform="matrix(0.848533,0,0,0.881977,6.272,4.90752)">
            <path d="M68.033,16C97.302,16 121.065,38.852 121.065,67C121.065,95.148 97.302,118 68.033,118C38.763,118 15,95.148 15,67C15,38.852 38.763,16 68.033,16ZM68.033,26.113C91.498,26.113 110.55,44.434 110.55,67C110.55,89.566 91.498,107.887 68.033,107.887C44.567,107.887 25.516,89.566 25.516,67C25.516,44.434 44.567,26.113 68.033,26.113Z" style="fill:white;"/>
        </g>
        <g transform="matrix(0.785714,0,0,0.666667,12.9286,19.6667)">
            <rect x="58" y="59" width="14" height="39" style="fill:white;"/>
        </g>
        <g transform="matrix(0.785714,0,0,0.785714,12.9286,11.5714)">
            <rect x="58" y="40" width="14" height="14" style="fill:white;"/>
        </g>
    </g>
</svg>
