<?xml version="1.0" encoding="UTF-8" standalone="no"?>
<!DOCTYPE svg PUBLIC "-//W3C//DTD SVG 1.1//EN" "http://www.w3.org/Graphics/SVG/1.1/DTD/svg11.dtd">
<svg width="100%" height="100%" viewBox="0 0 128 128" version="1.1" xmlns="http://www.w3.org/2000/svg" xmlns:xlink="http://www.w3.org/1999/xlink" xml:space="preserve" xmlns:serif="http://www.serif.com/" style="fill-rule:evenodd;clip-rule:evenodd;stroke-linejoin:round;stroke-miterlimit:2;">
    <g>
        <path d="M35,117C35,115.896 34.104,115 33,115L18,115C16.896,115 16,115.896 16,117L16,121C16,122.104 16.896,123 18,123L33,123C34.104,123 35,122.104 35,121L35,117Z" style="fill:rgb(32,39,54);"/>
        <g transform="matrix(1,0,0,1,79,0)">
            <path d="M35,117C35,115.896 34.104,115 33,115L18,115C16.896,115 16,115.896 16,117L16,121C16,122.104 16.896,123 18,123L33,123C34.104,123 35,122.104 35,121L35,117Z" style="fill:rgb(32,39,54);"/>
        </g>
        <g transform="matrix(1.03846,0,0,1,3.25,6)">
            <path d="M117,44.606C117,38.201 111.992,33 105.824,33L11.176,33C5.008,33 0,38.201 0,44.606L0,100.394C0,106.799 5.008,112 11.176,112L105.824,112C111.992,112 117,106.799 117,100.394L117,44.606Z" style="fill:rgb(57,194,255);"/>
        </g>
        <circle cx="26" cy="32" r="7" style="fill:rgb(193,219,231);"/>
        <g transform="matrix(0.971152,-0.238463,0.238463,0.971152,1.51157,21.1789)">
            <rect x="22" y="11" width="92" height="4" style="fill:rgb(193,219,231);"/>
        </g>
        <circle cx="117" cy="6" r="3" style="fill:rgb(193,219,231);"/>
        <path d="M35,35.25C35,33.456 33.544,32 31.75,32L19.25,32C17.456,32 16,33.456 16,35.25L16,41.75C16,43.544 17.456,45 19.25,45L31.75,45C33.544,45 35,43.544 35,41.75L35,35.25Z" style="fill:rgb(57,194,255);"/>
        <g transform="matrix(1.2,0,0,1.2,-14.5501,-16)">
            <circle cx="46" cy="80" r="25" style="fill:rgb(32,39,54);"/>
            <clipPath id="_clip1">
                <circle cx="46" cy="80" r="25"/>
            </clipPath>
            <g clip-path="url(#_clip1)">
                <g>
                    <g transform="matrix(0.145413,0.123874,-0.578607,0.679216,68.7083,7.80402)">
                        <rect x="64" y="29" width="6.65" height="99" style="fill:rgb(60,71,96);"/>
                    </g>
                    <g transform="matrix(-0.145413,0.123874,0.578607,0.679216,22.1869,7.80402)">
                        <rect x="64" y="29" width="6.65" height="99" style="fill:rgb(60,71,96);"/>
                    </g>
                    <g transform="matrix(0.145413,0.123874,-0.578607,0.679216,76.955,14.8292)">
                        <rect x="64" y="29" width="6.65" height="99" style="fill:rgb(60,71,96);"/>
                    </g>
                    <g transform="matrix(-0.145413,0.123874,0.578607,0.679216,13.9402,14.8292)">
                        <rect x="64" y="29" width="6.65" height="99" style="fill:rgb(60,71,96);"/>
                    </g>
                    <g transform="matrix(0.145413,0.123874,-0.578607,0.679216,85.2017,21.8543)">
                        <rect x="64" y="29" width="6.65" height="99" style="fill:rgb(60,71,96);"/>
                    </g>
                    <g transform="matrix(-0.145413,0.123874,0.578607,0.679216,5.6935,21.8543)">
                        <rect x="64" y="29" width="6.65" height="99" style="fill:rgb(60,71,96);"/>
                    </g>
                    <g transform="matrix(0.145413,0.123874,-0.578607,0.679216,93.4484,28.8795)">
                        <rect x="64" y="29" width="6.65" height="99" style="fill:rgb(60,71,96);"/>
                    </g>
                    <g transform="matrix(-0.145413,0.123874,0.578607,0.679216,-2.55321,28.8795)">
                        <rect x="64" y="29" width="6.65" height="99" style="fill:rgb(60,71,96);"/>
                    </g>
                </g>
            </g>
            <path d="M46,53.034C31.117,53.034 19.034,65.117 19.034,80C19.034,94.883 31.117,106.966 46,106.966C60.883,106.966 72.966,94.883 72.966,80C72.966,65.117 60.883,53.034 46,53.034ZM46,55C59.798,55 71,66.202 71,80C71,93.798 59.798,105 46,105C32.202,105 21,93.798 21,80C21,66.202 32.202,55 46,55Z" style="fill:rgb(193,219,231);"/>
        </g>
        <g transform="matrix(1.10256,0,0,1,-9.52165,0)">
            <path d="M117,53.5C117,51.568 115.578,50 113.826,50L81.174,50C79.422,50 78,51.568 78,53.5L78,60.5C78,62.432 79.422,64 81.174,64L113.826,64C115.578,64 117,62.432 117,60.5L117,53.5Z" style="fill:white;"/>
            <clipPath id="_clip2">
                <path d="M117,53.5C117,51.568 115.578,50 113.826,50L81.174,50C79.422,50 78,51.568 78,53.5L78,60.5C78,62.432 79.422,64 81.174,64L113.826,64C115.578,64 117,62.432 117,60.5L117,53.5Z"/>
            </clipPath>
            <g clip-path="url(#_clip2)">
                <g transform="matrix(1.2093,0,0,1.28571,-21.1628,-18.2857)">
                    <rect x="106" y="57" width="3" height="7" style="fill:rgb(32,39,54);"/>
                </g>
            </g>
            <path d="M119.14,53.5C119.14,50.266 116.759,47.64 113.826,47.64C113.826,47.64 81.174,47.64 81.174,47.64C78.241,47.64 75.86,50.266 75.86,53.5C75.86,53.5 75.86,60.5 75.86,60.5C75.86,63.734 78.241,66.36 81.174,66.36C81.174,66.36 113.826,66.36 113.826,66.36C116.759,66.36 119.14,63.734 119.14,60.5C119.14,60.5 119.14,53.5 119.14,53.5ZM117,53.5C117,51.568 115.578,50 113.826,50L81.174,50C79.422,50 78,51.568 78,53.5L78,60.5C78,62.432 79.422,64 81.174,64L113.826,64C115.578,64 117,62.432 117,60.5L117,53.5Z" style="fill:rgb(193,219,231);"/>
        </g>
        <g transform="matrix(0.884728,0,0,1,13.4869,-1)">
            <rect x="74" y="75" width="43" height="3.5"/>
        </g>
        <g transform="matrix(0.884728,0,0,1,13.4869,7)">
            <rect x="74" y="75" width="43" height="3.5"/>
        </g>
        <g transform="matrix(0.884728,0,0,1,13.4869,15)">
            <rect x="74" y="75" width="43" height="3.5"/>
        </g>
    </g>
</svg>
