<?xml version="1.0" encoding="UTF-8" standalone="no"?>
<!DOCTYPE svg PUBLIC "-//W3C//DTD SVG 1.1//EN" "http://www.w3.org/Graphics/SVG/1.1/DTD/svg11.dtd">
<svg width="100%" height="100%" viewBox="0 0 128 128" version="1.1" xmlns="http://www.w3.org/2000/svg" xmlns:xlink="http://www.w3.org/1999/xlink" xml:space="preserve" xmlns:serif="http://www.serif.com/" style="fill-rule:evenodd;clip-rule:evenodd;stroke-linejoin:round;stroke-miterlimit:2;">
    <g transform="matrix(1.08108,0,0,1.09091,-14.3784,-9.09091)">
        <ellipse cx="72.5" cy="67" rx="55.5" ry="55" style="fill:rgb(0,75,0);"/>
        <path d="M72.5,12C103.131,12 128,36.645 128,67C128,97.355 103.131,122 72.5,122C41.869,122 17,97.355 17,67C17,36.645 41.869,12 72.5,12ZM72.5,23.458C96.75,23.458 116.438,42.969 116.438,67C116.438,91.031 96.75,110.542 72.5,110.542C48.25,110.542 28.563,91.031 28.563,67C28.563,42.969 48.25,23.458 72.5,23.458Z" style="fill:rgb(0,175,0);"/>
    </g>
    <path d="M59,40L79,35L66,60L78,58C78,58 51.414,92.551 52,93C52.586,93.449 64,62 64,62L50,65L59,40Z" style="fill:rgb(0,175,0);"/>
</svg>
