<?xml version="1.0" encoding="UTF-8" standalone="no"?>
<!DOCTYPE svg PUBLIC "-//W3C//DTD SVG 1.1//EN" "http://www.w3.org/Graphics/SVG/1.1/DTD/svg11.dtd">
<svg width="100%" height="100%" viewBox="0 0 128 128" version="1.1" xmlns="http://www.w3.org/2000/svg" xmlns:xlink="http://www.w3.org/1999/xlink" xml:space="preserve" xmlns:serif="http://www.serif.com/" style="fill-rule:evenodd;clip-rule:evenodd;stroke-linejoin:round;stroke-miterlimit:2;">
    <g transform="matrix(1,0,0,1,-0.627875,0.624434)">
        <g transform="matrix(1.04451,0,0,1,-5.38819,0)">
            <ellipse cx="67.033" cy="63.376" rx="54.033" ry="56.538" style="fill:rgb(57,194,255);"/>
            <clipPath id="_clip1">
                <ellipse cx="67.033" cy="63.376" rx="54.033" ry="56.538"/>
            </clipPath>
            <g clip-path="url(#_clip1)">
                <g transform="matrix(1.05065,0,0,0.846154,-2.91134,21.0769)">
                    <ellipse cx="66" cy="111" rx="52" ry="26" style="fill:rgb(67,174,0);"/>
                </g>
            </g>
        </g>
        <g transform="matrix(1.08621,0,0,1.03448,-11.5345,-4.48276)">
            <path d="M70,43L99,72L41,72L70,43Z" style="fill:rgb(97,129,156);"/>
        </g>
        <rect x="72" y="37" width="9" height="21" style="fill:rgb(97,129,156);"/>
        <g transform="matrix(1,0,0,1,-0.5,0)">
            <rect x="46" y="67" width="38" height="29" style="fill:rgb(97,129,156);"/>
        </g>
    </g>
</svg>
