<svg xmlns="http://www.w3.org/2000/svg" xmlns:xlink="http://www.w3.org/1999/xlink" width="58" height="28" viewBox="0 0 58 28"><defs><clipPath id="b"><rect width="58" height="28"/></clipPath></defs><g id="a"><g transform="translate(5.253 2.923)"><path d="M16070.325,4412.133c1.172,1.286,3.7,1.116,3.7,1.116h29.725a40.668,40.668,0,0,0,7.234-2.913,26.583,26.583,0,0,0,5.488-4.113l2.023-11.944h-4.787l-6.49,8.431h-27.807a12.864,12.864,0,0,0-5.811,1.192c-2.518,1.349-3.32,1.567-4.26,4.2S16069.153,4410.847,16070.325,4412.133Z" transform="translate(-16068.859 -4394.279)" fill="#fff"/><path d="M16092.908,4414.5a.67.67,0,0,1,.17-.119,1.514,1.514,0,0,1,.24-.091h5.613l3.219,2.169-2.535.22Z" transform="translate(-16050.707 -4410.961)" fill="#ee9e50"/><path d="M16069.468,4412.113h4.295s1.193.072,1.227-.921-.6-1.105-.6-1.105l-3.885-.072a6.141,6.141,0,0,0-.57.966C16069.663,4411.549,16069.468,4412.113,16069.468,4412.113Z" transform="translate(-16069.077 -4398.115)" fill="#182237"/><ellipse cx="1" cy="0.5" rx="1" ry="0.5" transform="translate(7.747 12.077)" fill="#374052"/><circle cx="0.5" cy="0.5" r="0.5" transform="translate(17.747 12.077)" fill="#374052"/><circle cx="0.5" cy="0.5" r="0.5" transform="translate(14.747 12.077)" fill="#374052"/><circle cx="0.5" cy="0.5" r="0.5" transform="translate(23.747 12.077)" fill="#374052"/><circle cx="0.5" cy="0.5" r="0.5" transform="translate(30.747 12.077)" fill="#374052"/><circle cx="0.5" cy="0.5" r="0.5" transform="translate(26.747 12.077)" fill="#374052"/><circle cx="0.5" cy="0.5" r="0.5" transform="translate(20.747 12.077)" fill="#374052"/><path d="M16069.146,4414.143h44.486l-1.033.693-.527.331-43.02-.044a1.3,1.3,0,0,1-.045-.482A2.7,2.7,0,0,1,16069.146,4414.143Z" transform="translate(-16068.999 -4399.705)" fill="#be7a38"/><path d="M16102.08,4426.015s-5.455-.425-8.051-.323-2.3.448-2.467.758-.176.38-.2,1.6.328,1.569.328,1.569.063.621,2.66.621,7.727-.621,7.727-.621a4.3,4.3,0,0,0,.367-1.846A2.774,2.774,0,0,0,16102.08,4426.015Z" transform="translate(-16072.58 -4407.697)" fill="#cec8c8"/><g transform="translate(20.747 19.077)" fill="#fff" stroke="#707070" stroke-width="1"><ellipse cy="1" ry="1" stroke="none"/><ellipse cy="1" rx="0.5" ry="0.5" fill="none"/></g><path d="M16092.908,4414.765a1.23,1.23,0,0,1,.252-.27,1.728,1.728,0,0,1,.363-.206h8.406l4.822,4.924-3.8.5Z" transform="translate(-16075.395 -4398.178)" fill="#f59e4d"/><circle cx="2.5" cy="2.5" r="2.5" transform="translate(41.747 6.077)" fill="#00c2ff"/><path d="M-.344-.158c.166,0,.235.257.235.418S-.178.7-.344.7-.589.42-.589.26-.511-.158-.344-.158Z" transform="translate(42.888 7.874)" fill="#231e2e"/><path d="M-.344-.158c.166,0,.235.257.235.418S-.178.7-.344.7-.589.42-.589.26-.511-.158-.344-.158Z" transform="translate(45.297 7.874)" fill="#231e2e"/><path d="M16141.564,4403.217l-2.041.626,2.17.345.369-.5Z" transform="translate(-16099.362 -4394.702)" fill="#9ee2fc"/></g></g></svg>