<svg xmlns="http://www.w3.org/2000/svg" xmlns:xlink="http://www.w3.org/1999/xlink" width="64" height="64" viewBox="0 0 64 64"><defs><filter id="a" x="-0.259" y="22.604" width="64.518" height="22.596" filterUnits="userSpaceOnUse"><feOffset dy="3" input="SourceAlpha"/><feGaussianBlur stdDeviation="3" result="b"/><feFlood flood-opacity="0.161"/><feComposite operator="in" in2="b"/><feComposite in="SourceGraphic"/></filter><clipPath id="d"><rect width="64" height="64"/></clipPath></defs><g id="c"><g transform="translate(2.218 2)"><path d="M2905.533,2162.162l13.14,9.576,11.571-9.576Z" transform="translate(-2887.955 -2111.738)" fill="#2dabff"/><circle cx="27.341" cy="27.341" r="27.341" transform="translate(2.441)" fill="#2dabff"/></g><g transform="translate(-0.332 -15)"><g transform="matrix(1, 0, 0, 1, 0.33, 15)" filter="url(#a)"><path d="M.211,2.553C1.527,2.007,21.831-.61,21.831-.61L24.124-.3c4.559.627,17.41,2.409,19.6,2.849,2.719.546,1.509,1.211,0,1.336S21.831,2.553,21.831,2.553,2.534,4.425.211,3.89-1.1,3.1.211,2.553Z" transform="translate(9.92 29.21)" fill="#fff"/></g><path d="M-.4.108C.345.382,11.779,1.694,11.779,1.694S22.575.382,24.106.108s.85-.607,0-.67-12.327.67-12.327.67S.912-.83-.4-.562-1.137-.166-.4.108Z" transform="translate(20.47 40.782)" fill="#fff"/><circle cx="6.564" cy="6.564" r="6.564" transform="translate(25.675 37.81)" fill="#fff"/><circle cx="3.176" cy="3.176" r="3.176" transform="translate(18.052 47.126)" fill="#fff"/><circle cx="3.176" cy="3.176" r="3.176" transform="translate(40.072 47.126)" fill="#fff"/><circle cx="1.906" cy="1.906" r="1.906" transform="translate(19.323 48.396)" fill="#2dabff"/><circle cx="1.906" cy="1.906" r="1.906" transform="translate(41.342 48.396)" fill="#2dabff"/><path d="M1.1.59a.637.637,0,0,1,.637.637V8.865a.637.637,0,0,1-1.273,0V1.226A.637.637,0,0,1,1.1.59Z" transform="translate(31.104 29.002)" fill="#fff"/><path d="M.078,0H12.625l-.452,1.492L11.4,2.546H1.3L.5,1.359Z" transform="translate(25.906 45.693)" fill="#fff"/><circle cx="3.811" cy="3.811" r="3.811" transform="translate(28.639 40.351)" fill="#fff"/><rect width="7.622" height="2.541" rx="1.27" transform="translate(28.639 40.351)" fill="#2dabff"/></g></g></svg>