<svg xmlns="http://www.w3.org/2000/svg" xmlns:xlink="http://www.w3.org/1999/xlink" width="28" height="28" viewBox="0 0 28 28">
  <defs>
    <clipPath id="clip-Airplane">
      <rect width="28" height="28"/>
    </clipPath>
  </defs>
  <g id="Airplane" clip-path="url(#clip-Airplane)">
    <rect id="Rectangle_4563" data-name="Rectangle 4563" width="6.99" height="4.052" rx="2.026" transform="matrix(0.719, -0.695, 0.695, 0.719, 15.002, 21.626)" fill="#cec8c8"/>
    <rect id="Rectangle_4564" data-name="Rectangle 4564" width="6.99" height="4.052" rx="2.026" transform="matrix(0.719, -0.695, 0.695, 0.719, 1.599, 16.626)" fill="#cec8c8"/>
    <path id="Path_3811" data-name="Path 3811" d="M.99.458a1.314,1.314,0,0,1,1.147,1.4c0,.828-.444,1.266-1,1.266s-1-.437-1-1.266S.438.458.99.458Z" transform="translate(16.032 20.2) rotate(-3)" fill="#707070"/>
    <path id="Path_3812" data-name="Path 3812" d="M.99.458a1.314,1.314,0,0,1,1.147,1.4c0,.828-.444,1.266-1,1.266s-1-.437-1-1.266S.438.458.99.458Z" transform="translate(2.63 15.2) rotate(-3)" fill="#707070"/>
    <path id="Path_3810" data-name="Path 3810" d="M2302.693,447.663l-7.934-3.4-2.628,1.669,8.16,5.161Z" transform="translate(-2291.891 -433.266)" fill="#ee9e50"/>
    <path id="Path_3808" data-name="Path 3808" d="M2311.31,441.11l-3.835-1.379-1.884,1.379,3.463,2.3Z" transform="translate(-2292.472 -432.79)" fill="#ee9e50"/>
    <path id="Path_3805" data-name="Path 3805" d="M3.563.069C5.72-.612,18.279-.2,18.279-.2c1.969-.014,4.413.6,4.4,2.159s-3.327,2.782-7.491,3.518L3.5,5.721c-1.969.014-3.551-1.24-3.533-2.8S1.407.75,3.563.069Z" transform="matrix(0.788, -0.616, 0.616, 0.788, 2.527, 20.978)" fill="#fff"/>
    <path id="Path_3806" data-name="Path 3806" d="M2310.978,442.544l1.55-6.6,2.177-1.149v6.367Z" transform="translate(-2293.977 -432.305)" fill="#fff"/>
    <path id="Path_3807" data-name="Path 3807" d="M2315.485,442.624l3.9,1.379-1.872,1.529-4.365-.919Z" transform="translate(-2294.227 -433.074)" fill="#ee9e50"/>
    <path id="Path_3809" data-name="Path 3809" d="M2306.012,453.145l3.688-3.218,11.465,4.8-2.256,2.3Z" transform="translate(-2293.405 -433.792)" fill="#ee9e50"/>
    <path id="Path_3813" data-name="Path 3813" d="M2299.035,453.876a5.815,5.815,0,0,0,2.959,1.316,3.347,3.347,0,0,0,2.353-1.3l-.114,1.3a3.507,3.507,0,0,1-2.606,1.38,5.918,5.918,0,0,1-3.226-1.393,5.25,5.25,0,0,1,.282-.766A2.584,2.584,0,0,1,2299.035,453.876Z" transform="translate(-2293.891 -434.854)" fill="#182237"/>
    <ellipse id="Ellipse_932" data-name="Ellipse 932" cx="0.5" cy="1" rx="0.5" ry="1" transform="translate(12.109 17.146)" fill="#182237"/>
    <ellipse id="Ellipse_933" data-name="Ellipse 933" cx="0.5" cy="1" rx="0.5" ry="1" transform="translate(14.109 15.146)" fill="#182237"/>
    <ellipse id="Ellipse_934" data-name="Ellipse 934" cx="0.5" cy="1" rx="0.5" ry="1" transform="translate(16.109 13.146)" fill="#182237"/>
  </g>
</svg>
