<svg xmlns="http://www.w3.org/2000/svg" xmlns:xlink="http://www.w3.org/1999/xlink" width="26" height="26" viewBox="0 0 26 26">
  <defs>
    <clipPath id="clip-AirPollution">
      <rect width="26" height="26"/>
    </clipPath>
  </defs>
  <g id="AirPollution" clip-path="url(#clip-AirPollution)">
    <path id="Path_3712" data-name="Path 3712" d="M130.882-524.311a12.886,12.886,0,0,0,5.134,1.91,3.189,3.189,0,0,0,3.379-.932c.736-.652-.122-.883-.471-1.7a2.8,2.8,0,0,0-1.4-1.239,2.666,2.666,0,0,0-.913-2.2,3.031,3.031,0,0,0-2.892-.706c-1.276.261-1.478.527-1.864,1.279a2.1,2.1,0,0,0,0,1.626s-.337-.387-.976,0S129.449-525.324,130.882-524.311Z" transform="translate(-124.783 532.032)" fill="#92be00"/>
    <path id="Path_3711" data-name="Path 3711" d="M131.117-522.132a15.655,15.655,0,0,0,6.633,2.747,3.88,3.88,0,0,0,4.365-1.341c.951-.937-.157-1.269-.608-2.451a3.739,3.739,0,0,0-1.8-1.782,4.091,4.091,0,0,0-1.18-3.161c-1.333-1.081-2.088-1.39-3.736-1.015s-1.91.757-2.408,1.839a3.333,3.333,0,0,0,0,2.338s-.435-.556-1.261,0S129.265-523.589,131.117-522.132Z" transform="translate(-119.783 536.032)" fill="#acde04"/>
    <path id="Path_3710" data-name="Path 3710" d="M131.347-517.774a17.038,17.038,0,0,0,8.1,4.42c3.173.907,4.171-.649,5.332-2.157s-.192-2.042-.743-3.944a5.333,5.333,0,0,0-2.2-2.867s.186-3.347-1.442-5.087-2.55-2.236-4.564-1.633-2.333,1.219-2.942,2.958a6.957,6.957,0,0,0,0,3.761s-.532-.895-1.541,0S129.085-520.119,131.347-517.774Z" transform="translate(-126.783 537)" fill="#cbff1a"/>
  </g>
</svg>
