<svg xmlns="http://www.w3.org/2000/svg" xmlns:xlink="http://www.w3.org/1999/xlink" width="64" height="64" viewBox="0 0 64 64"><defs><clipPath id="b"><rect width="64" height="64"/></clipPath></defs><g id="a"><rect width="7" height="15" rx="3" transform="translate(28.176 45.461)" fill="#c3c2c2"/><path d="M33.234,0,47,13.18V31.82L33.234,45H13.766L0,31.82V13.18L13.766,0Z" transform="matrix(0.591, 0.314, -0.022, 0.927, 16.826, 3.224)" fill="#f5efef"/><path d="M28.991,0,41,11.423V27.577L28.991,39H12.009L0,27.577V11.423L12.009,0Z" transform="matrix(0.591, 0.314, -0.022, 0.927, 18.531, 6.947)" fill="#d50d0d"/><path d="M4.187,2.558a3.064,3.064,0,0,0,3.236-3.3c0-2.252-1.6-3.084-2.983-3.688C3.329-4.9,2.316-5.372,2.316-6.433a1.473,1.473,0,0,1,1.674-1.5A1.863,1.863,0,0,1,5.834-6.776l1.126-.441a2.767,2.767,0,0,0-2.885-2.04A2.8,2.8,0,0,0,1.049-6.433c0,1.991,1.506,2.725,2.885,3.313,1.154.49,2.223,1.093,2.223,2.415A1.769,1.769,0,0,1,4.216,1.22a2.465,2.465,0,0,1-2.308-1.7L.754.013A3.5,3.5,0,0,0,4.187,2.558ZM13.08-7.706h2.744V-9.06H9.112v1.354h2.744V2.362H13.08ZM21.073,2.558c3.11,0,4.193-3.084,4.193-5.907s-1.083-5.907-4.193-5.907-4.179,3.084-4.179,5.907S17.977,2.558,21.073,2.558Zm0-1.338c-2.153,0-2.913-2.333-2.913-4.569,0-2.072.76-4.585,2.913-4.585s2.913,2.35,2.913,4.585C23.986-1.293,23.24,1.22,21.073,1.22Zm6.515,1.142h1.224V-2.223h2.547a3.138,3.138,0,0,0,3.18-3.41c0-1.7-.788-3.427-3.18-3.427H27.588Zm3.856-5.907H28.812V-7.738h2.631a1.867,1.867,0,0,1,1.871,2.1A1.865,1.865,0,0,1,31.444-3.545Z" transform="matrix(0.591, 0.314, -0.022, 0.927, 19.53, 29.058)" fill="#fff" stroke="#fff" stroke-width="1"/><path d="M1809.59-388.971l3.453-1.471,11.236,5.525,8.239,16.712-.5,17.127-3.225,2.4.463-17.728-8.149-16.8Z" transform="translate(-1784.792 396.466)" fill="#fff"/><path d="M1832.518-368.205l-.5,17.127-3.225,2.4.463-17.728Z" transform="translate(-1784.792 396.466)" fill="#e0e0e0"/></g></svg>