<svg xmlns="http://www.w3.org/2000/svg" xmlns:xlink="http://www.w3.org/1999/xlink" width="26" height="26" viewBox="0 0 26 26"><defs><clipPath id="b"><rect width="26" height="26"/></clipPath></defs><g id="a"><path d="M192.308-240.431l-.542-5.237,3.431,3.824Z" transform="translate(-187 252)" fill="#c8ab8a"/><path d="M192.038-239.993l-.542-5.237,3.431,3.824Z" transform="matrix(0.921, 0.391, -0.391, 0.921, -261.586, 153.079)" fill="#c8ab8a"/><path d="M192.038-239.993l-.542-5.237,3.431,3.824Z" transform="matrix(0.921, 0.391, -0.391, 0.921, -256.586, 153.079)" fill="#c8ab8a"/><path d="M191.976-239.112l-.542-5.237,3.431,3.824Z" transform="translate(-283.879 64.633) rotate(41)" fill="#c8ab8a"/><g transform="translate(2 1.5)"><path d="M7.855,12.991a2.46,2.46,0,0,1-2.428,2.491,2.492,2.492,0,0,1,0-4.983,2.46,2.46,0,0,1,2.428,2.491Z" transform="translate(-0.775 -2.736)" fill="#8b6f4b"/><path d="M14.8,6.841a2.273,2.273,0,1,1-2.272-2.205A2.24,2.24,0,0,1,14.8,6.841Z" transform="translate(-4.078 -0.331)" fill="#8b6f4b"/><path d="M23.295,6.705a2.273,2.273,0,0,1-4.545,0,2.273,2.273,0,0,1,4.545,0Z" transform="translate(-7.624 -0.331)" fill="#8b6f4b"/><path d="M29.82,13.135a2.482,2.482,0,1,1-2.48-2.6,2.541,2.541,0,0,1,2.48,2.6Z" transform="translate(-10.261 -2.736)" fill="#8b6f4b"/><path d="M17.109,19.023c-.71-.832-1.534-1.258-2.252-2.09a3.462,3.462,0,0,0-1.428-1.077,1.652,1.652,0,0,0-.269-.073,4.107,4.107,0,0,0-.636-.033,3.423,3.423,0,0,0-.645.041,1.652,1.652,0,0,0-.269.073,4.632,4.632,0,0,0-1.751,1.069c-.71.832-1.471.988-2.189,1.82A5.539,5.539,0,0,0,6.02,23.224a2.562,2.562,0,0,0,1.9,1.893c.6.122,2.5-.359,4.52-.359h.147c2.024,0,3.925.473,4.52.359a2.574,2.574,0,0,0,1.9-1.893C19.263,21.56,18.178,20.092,17.109,19.023Z" transform="translate(-1.364 -5.13)" fill="#8b6f4b"/></g></g></svg>