<svg xmlns="http://www.w3.org/2000/svg" xmlns:xlink="http://www.w3.org/1999/xlink" width="26" height="26" viewBox="0 0 26 26"><defs><clipPath id="b"><rect width="26" height="26"/></clipPath></defs><g id="a"><circle cx="4" cy="4" r="4" transform="translate(16 12)" fill="#5f6b7a"/><circle cx="4" cy="4" r="4" transform="translate(2 12)" fill="#5f6b7a"/><path d="M69.835-239.944a18.146,18.146,0,0,0,0,2.389c.1-.05,1.173-.562,1.173-1.159S69.835-239.944,69.835-239.944Z" transform="translate(-62.715 246.927)" fill="#858383"/><rect width="5" height="2" rx="1" transform="translate(15 8)" fill="#5f6b7a"/><rect width="4" height="1" rx="0.5" transform="translate(8 6)" fill="#5f6b7a"/><circle cx="3" cy="3" r="3" transform="translate(3 13)" fill="#8f8f8f"/><circle cx="3" cy="3" r="3" transform="translate(17 13)" fill="#8f8f8f"/><path d="M71.581-257.333l2.276-6.87.828-2.931.688.239-.688,2.692h9.5s2.639,5.914,2.4,6.547a.567.567,0,0,1-.828.323l-2.276-6-2.008,5.167h4.077l.207.837H80.434l-6.34-5.337.59-1.082,6.164,4.584,1.595-4.169H74.412l-2,6Z" transform="translate(-66.241 273.562)" fill="#d59453"/><rect width="7" height="3" rx="1" transform="translate(14 14)" fill="#e0e0e0"/></g></svg>