<svg xmlns="http://www.w3.org/2000/svg" xmlns:xlink="http://www.w3.org/1999/xlink" width="64" height="64" viewBox="0 0 64 64"><defs><clipPath id="b"><rect width="64" height="64"/></clipPath></defs><g id="a"><path d="M5,0H33a5,5,0,0,1,5,5V28a0,0,0,0,1,0,0H0a0,0,0,0,1,0,0V5A5,5,0,0,1,5,0Z" transform="translate(13 4)" fill="#07a"/><path d="M0,0H38a0,0,0,0,1,0,0V23a5,5,0,0,1-5,5H5a5,5,0,0,1-5-5V0A0,0,0,0,1,0,0Z" transform="translate(13 31)" fill="#843f17"/><path d="M.185.311A1.34,1.34,0,0,1,.923,0H5.239V3.4h-1.4a.912.912,0,0,0-.7.152C2.822,3.787,3,5.036,3,5.036V28H0V1.039A1.1,1.1,0,0,1,.185.311Z" transform="translate(18.883 23.5)" fill="#ffa33a"/><path d="M.185,27.689A1.34,1.34,0,0,0,.923,28H5.239V24.6h-1.4a.912.912,0,0,1-.7-.152C2.822,24.213,3,22.964,3,22.964V18.621H5.914V15.787H1.428a1.476,1.476,0,0,0-1,.2,1.727,1.727,0,0,0-.431.98v10A1.1,1.1,0,0,0,.185,27.689Z" transform="translate(18.883 -5.5)" fill="#ffa33a"/><path d="M5.051.311A1.34,1.34,0,0,0,4.312,0H0V3.4h1.4a.912.912,0,0,1,.7.152c.324.24.146,1.489.146,1.489V28h3V1.039A1.1,1.1,0,0,0,5.051.311Z" transform="translate(39.883 23.5)" fill="#4bb1ff"/><rect width="16" height="11" rx="2" transform="translate(24 18)" fill="#c3c2c2"/><path d="M5.726,27.689A1.34,1.34,0,0,1,4.987,28H.672V24.6h1.4a.912.912,0,0,0,.7-.152c.324-.24.146-1.489.146-1.489V18.621H0V15.787H4.483a1.476,1.476,0,0,1,1,.2,1.727,1.727,0,0,1,.431.98v10A1.1,1.1,0,0,1,5.726,27.689Z" transform="translate(39.208 -5.5)" fill="#4bb1ff"/><rect width="16" height="10" rx="2" transform="translate(24 7)" fill="#c3c2c2"/></g></svg>