<svg version="1.1" viewBox="0 0 64 64" xmlns="http://www.w3.org/2000/svg">
  <defs>
    <clipPath id="b">
      <rect width="64" height="64"/>
    </clipPath>
  </defs>
  <g id="a">
    <path transform="translate(18.906 15.055)" d="M33.286,7.928c-.14-.569-1.1-1.087-1.517-.672L27.107,11.94l-4.256-.712-.709-4.276L26.8,2.268c.415-.417.57-2.774,0-2.916-2.97-.739-6.6,1.7-8.918,4.035-2.485,2.5-2.532,6.948-1.5,10.1L-.161,27.037c-1.567,1.574-1.254,5.477.313,7.051a4,4,0,0,0,5.674,0L20.7,17.4c3.142,1.053,7.454,1.325,9.956-1.188a8.666,8.666,0,0,0,2.632-8.287Z" fill="#475766"/>
    <path transform="translate(18.971 13.903)" d="M33.01,6.913a.751.751,0,0,0-1.264-.349l-4.671,4.711-4.264-.717-.71-4.3,4.671-4.711A.764.764,0,0,0,26.417.269a8.987,8.987,0,0,0-8.579,2.4c-2.49,2.512-2.537,6.989-1.5,10.163L.07,27.82a4.08,4.08,0,0,0,0,5.734,4,4,0,0,0,5.685,0l14.9-16.783c3.148,1.059,7.469,1.333,9.975-1.2A9.174,9.174,0,0,0,33.01,6.913Z" fill="#d7e3f0"/>
    <path transform="translate(14.084 16.769)" d="M-3.924,10.855,10.135-1.731,18,2.193,10.639,9.026,31.767,27.615a4.08,4.08,0,0,1,0,5.734,4,4,0,0,1-5.685,0L6.321,12.962l-4.716,3.6Z" fill="#475766"/>
    <path transform="translate(14.084 14.981)" d="M-3.924,10.855,10.135-1.731,18,2.515,10.639,9.026,31.767,27.615a4.08,4.08,0,0,1,0,5.734,4,4,0,0,1-5.685,0L6.321,12.962l-4.716,3.6Z" fill="#d7e3f0"/>
  </g>
</svg>
