<svg xmlns="http://www.w3.org/2000/svg" xmlns:xlink="http://www.w3.org/1999/xlink" width="26" height="26" viewBox="0 0 26 26">
  <defs>
    <clipPath id="clip-Bulldozer">
      <rect width="26" height="26"/>
    </clipPath>
  </defs>
  <g id="Bulldozer" clip-path="url(#clip-Bulldozer)">
    <path id="Path_3646" data-name="Path 3646" d="M409.551-952.225c-.341,0-4.1-1.8-4.1-1.8l1.251,2.877,1.211.5Z" transform="translate(-388.508 960.435)" fill="#ffca4c"/>
    <path id="Path_3647" data-name="Path 3647" d="M408.75-952.564l.228-6.269a1.071,1.071,0,0,0-.569,0,1.191,1.191,0,0,0-.569.323l-.267,5.946s.21.7.609.557A1.07,1.07,0,0,0,408.75-952.564Z" transform="translate(-388.39 960.435)" fill="#777"/>
    <path id="Path_3637" data-name="Path 3637" d="M397.158-949.494l6.417-4.178,5.5,2.45-7.5,4.569Z" transform="translate(-388.97 960.435)" fill="#ffca4c"/>
    <path id="Path_3634" data-name="Path 3634" d="M393.378-950.2c-.087-1.018-.5,7.031-.5,7.031l-1.087,1.977,9.247,5.2,2.087-2.521v-6.628Z" transform="translate(-389.269 960.435)" fill="#ffb80e"/>
    <path id="Path_3638" data-name="Path 3638" d="M402.52-947.6l2.018-1.157.569-6.287,3.071-1.363v5.225l1.536-.97-.865,6.848-6.329,3.942Z" transform="translate(-388.671 960.435)" fill="#de9e06"/>
    <path id="Path_3635" data-name="Path 3635" d="M394.969-951.305l9.747,4.818-1.749,1.338-9.909-5.054Z" transform="translate(-389.199 960.435)" fill="#ffca4c"/>
    <path id="Path_3639" data-name="Path 3639" d="M399.757-951.305l1.329-5.065,4.175,1.4-.581,6.212Z" transform="translate(-388.825 960.435)" fill="#ffb80e"/>
    <path id="Path_3640" data-name="Path 3640" d="M401-956.446l2.559-1.4,4.7,1.4-3.071,1.616Z" transform="translate(-388.756 960.435)" fill="#ffca4c"/>
    <path id="Path_3641" data-name="Path 3641" d="M403.193-947c.455-.018,5.875-3.466,5.875-3.466a12.152,12.152,0,0,1,2.048,1.007c.307.165,1.211,1.686.95,2.155a3.67,3.67,0,0,1-1.177,2.909l-7.394,4.31Z" transform="translate(-388.634 960.435)" fill="#707070"/>
    <path id="Path_3642" data-name="Path 3642" d="M403.193-944.647l7.394-3.841s.529,0,.489,1.293a1.974,1.974,0,0,1-.83,1.724l-7.053,4.095Z" transform="translate(-388.634 960.435)" fill="#de9e06"/>
    <path id="Path_3636" data-name="Path 3636" d="M400.621-936.155l4.011-2.924v-7.339l-2.249,1.267-.587,6.072Z" transform="translate(-388.777 960.435)" fill="#de9e06"/>
    <path id="Path_3643" data-name="Path 3643" d="M403.193-943.963l4.323-2.263v2.263l-4.323,2.478Z" transform="translate(-388.634 960.435)" fill="#ffca4c"/>
    <path id="Path_3644" data-name="Path 3644" d="M400.246-951.474l1.138-4.342,3.145,1.185-.6,5.064Z" transform="translate(-388.798 960.435)" fill="#61819c"/>
    <path id="Path_3645" data-name="Path 3645" d="M405.448-954.485l2.2-1.153v5.1l-2.77,1.724Z" transform="translate(-388.54 960.435)" fill="#4f687e"/>
  </g>
</svg>
