<svg xmlns="http://www.w3.org/2000/svg" xmlns:xlink="http://www.w3.org/1999/xlink" width="26" height="26" viewBox="0 0 26 26"><defs><clipPath id="a"><rect width="26" height="26"/></clipPath></defs><g id="b"><text transform="translate(-8 43)" fill="#707070" font-size="18" font-family="SegoeUI, Segoe UI"><tspan x="0" y="0">new</tspan></text><g><g transform="translate(0.44 5.64)"><rect width="4.162" height="0.863" rx="0.431" transform="translate(5.753 9.956)" fill="#626262"/><path d="M1.269,0,.312.457,0,1.023v5.2H1.269Z" transform="translate(19.582)" fill="#777"/><path d="M0,.688,5.676,0h7.608V5.967H0Z" transform="translate(8.418 5.623)" fill="#ffb80e"/><path d="M0,5.177,13.284,3.949V9.434H0Z" transform="translate(8.418 3.615)" fill="#dc9c03"/><path d="M2,19.178v-.595l2.031-.842,2.526-7.394H8.528v7.616Z" transform="translate(-2 -4.124)" fill="#ffb80e"/><path d="M.965,0H5.634V5.809H0V4.74Z" transform="translate(13.237 0.384)" fill="#ffb80e"/><path d="M.117-.795A1.179,1.179,0,0,1,.595-.911H3.086a.986.986,0,0,1,.495.116A.444.444,0,0,1,3.7-.426l-.085,4.48a.581.581,0,0,1-.123.392.6.6,0,0,1-.406.066H-.629s-.219.024-.292-.133a1.064,1.064,0,0,1,0-.493l.834-4.37a.494.494,0,0,1,.2-.31Z" transform="translate(14.714 1.955)" fill="#61819c"/><path d="M.289,0l5.83.208c.162.006.3.388.3.853s-.126.838-.289.832L.3,1.685C.14,1.679,0,1.294,0,.832S.126-.006.289,0Z" transform="matrix(0.342, -0.94, 0.94, 0.342, 5.128, 11.163)" fill="#7d7d7d"/><g transform="translate(8.497 10.61)" fill="#de9e06" stroke="#707070" stroke-width="2"><rect width="13" height="4.063" rx="2.031" stroke="none"/><rect x="-1" y="-1" width="15" height="6.063" rx="3.031" fill="none"/></g><path d="M1.477-.558a1.654,1.654,0,0,1,1.687,1.62A1.654,1.654,0,0,1,1.477,2.681,1.654,1.654,0,0,1-.21,1.062,1.654,1.654,0,0,1,1.477-.558Z" transform="translate(8.989 11.505)" fill="#ffb80e"/><path d="M1.477-.558a1.654,1.654,0,0,1,1.687,1.62A1.654,1.654,0,0,1,1.477,2.681,1.654,1.654,0,0,1-.21,1.062,1.654,1.654,0,0,1,1.477-.558Z" transform="translate(17.927 11.505)" fill="#ffb80e"/><path d="M.382-.521h5.4c.184,0,.335.345.335.772V.342c0,.427-.149.772-.335.772H.382C.2,1.114.047.768.047.342V.251C.047-.179.2-.521.382-.521Z" transform="translate(4.931 12.39)" fill="#ffca4c"/></g></g></g></svg>