<svg xmlns="http://www.w3.org/2000/svg" xmlns:xlink="http://www.w3.org/1999/xlink" width="58" height="28" viewBox="0 0 58 28"><defs><clipPath id="b"><rect width="58" height="28"/></clipPath></defs><g id="a"><g transform="translate(1 3.007)"><path d="M15325.586,4393.366l.884-1.556a.782.782,0,0,1,.259-.294.808.808,0,0,1,.386-.087h16.011a1.618,1.618,0,0,1,.573.087.413.413,0,0,1,.228.294l.829,1.556Z" transform="translate(-15314.589 -4391.429)" fill="#4bc3f1"/><path d="M3.9-.087,53.974-.2c2.95,0,3.172-.317,3.172,2.892V13.745c0,2.14.1,4.2.1,5.392,0,.321.046.378-.1.531s-.48.079-.48.079L5.342,19.668H.677c-.367,0-.339-.027-.508-.217A.958.958,0,0,1,0,18.906V11.238C0,8.029.952-.087,3.9-.087Z" transform="translate(0 1.582)" fill="#3a97bb"/><path d="M15382.733,4424.335s.279-2.728-.91-4.135-4.336-1.111-5.385,0-.9,4.135-.9,4.135Z" transform="translate(-15338.049 -4403.086)" fill="#231e2e"/><path d="M15382.159,4424.335s.258-2.728-.837-4.135-3.99-1.111-4.957,0-.826,4.135-.826,4.135Z" transform="translate(-15366.853 -4403.086)" fill="#231e2e"/><g transform="translate(38 16.993)" fill="#96a6b9" stroke="#3e454d" stroke-width="2"><circle cx="3" cy="3" r="3" stroke="none"/><circle cx="3" cy="3" r="2" fill="none"/></g><g transform="translate(9 16.993)" fill="#96a6b9" stroke="#3e454d" stroke-width="2"><circle cx="3" cy="3" r="3" stroke="none"/><circle cx="3" cy="3" r="2" fill="none"/></g><path d="M15305.8,4407.284l12.1-4.147h42.781v-7.258h-50.326a4.23,4.23,0,0,0-1.889.192c-.713.337-1.749,3.27-2.138,5.225A52.33,52.33,0,0,0,15305.8,4407.284Z" transform="translate(-15305.374 -4393.28)" fill="#231e2e"/><rect width="41" height="5" transform="translate(13 3.993)" fill="#b9e4f6"/><rect width="6" height="5" transform="translate(38 3.993)" fill="#b9e4f6"/><rect width="6" height="5" transform="translate(32 3.993)" fill="#b9e4f6"/><rect width="6" height="5" transform="translate(26 3.993)" fill="#b9e4f6"/><rect width="6" height="5" transform="translate(19 3.993)" fill="#b9e4f6"/><rect width="6" height="5" transform="translate(13 3.993)" fill="#b9e4f6"/><path d="M0,0H4.808V5.81L0,7.31Z" transform="translate(6.944 3.237)" fill="#b9e4f6"/><path d="M-9.814,0l3.032.072v7.34L-12.168,9.3a29.336,29.336,0,0,1,.616-5.305A13.446,13.446,0,0,1-9.814,0Z" transform="translate(13.147 3.237)" fill="#b9e4f6"/><rect width="1" height="2" transform="translate(3 14.993)" fill="#363636"/><rect width="2" height="1" transform="translate(14 -0.007)" fill="#363636"/><rect width="2" height="1" transform="translate(17 -0.007)" fill="#363636"/><rect width="2" height="1" transform="translate(19 -0.007)" fill="#363636"/><line x2="4.561" transform="translate(51.015 15.73)" fill="none" stroke="#1d3041" stroke-width="1"/><line x2="4.561" transform="translate(51.015 16.892)" fill="none" stroke="#1d3041" stroke-width="1"/><line x2="4.561" transform="translate(51.015 18.054)" fill="none" stroke="#1d3041" stroke-width="1"/></g></g></svg>