<svg xmlns="http://www.w3.org/2000/svg" xmlns:xlink="http://www.w3.org/1999/xlink" width="64" height="64" viewBox="0 0 64 64"><defs><clipPath id="b"><rect width="64" height="64"/></clipPath></defs><g id="a"><path d="M7.966,8.037,38.361-.069a8.121,8.121,0,0,1,8.175,7.7L49,40.477a7.548,7.548,0,0,1-7.915,7.486L9.819,55.215a8.121,8.121,0,0,1-8.175-7.7L-.034,17.288C-.106,13.1,3.523,7.979,7.966,8.037Z" transform="translate(31.373 -4.475) rotate(40)" fill="#42c7ff"/><path d="M6.922,6.895,33.349-.069a7.024,7.024,0,0,1,7.108,6.613l2.138,28.221A6.528,6.528,0,0,1,35.713,41.2L8.532,47.425a7.024,7.024,0,0,1-7.108-6.613L-.035,14.843C-.1,11.241,3.059,6.845,6.922,6.895Z" transform="translate(30.93 0.569) rotate(40)" fill="#2c2e2e"/><ellipse cx="4" cy="4.5" rx="4" ry="4.5" transform="translate(36.187 4.832) rotate(41)" fill="#42c7ff"/><ellipse cx="4" cy="4.5" rx="4" ry="4.5" transform="translate(28.187 47.832) rotate(41)" fill="#42c7ff"/><g transform="translate(23 20.593)"><rect width="3" height="4" rx="1.5" transform="translate(1 19.407)" fill="#6f6c6c"/><rect width="3" height="4" rx="1.5" transform="translate(15 19.407)" fill="#6f6c6c"/><path d="M3,0H16a3,3,0,0,1,3,3V19a1,1,0,0,1-1,1H1a1,1,0,0,1-1-1V3A3,3,0,0,1,3,0Z" transform="translate(0 0.407)" fill="#3a97bb"/><path d="M1.673,0A1.655,1.655,0,0,1,3.354,1.613a1.631,1.631,0,0,1-1.672,1.6A1.655,1.655,0,0,1,0,1.6,1.631,1.631,0,0,1,1.673,0Z" transform="matrix(0.998, -0.07, 0.07, 0.998, 1.656, 14.42)" fill="#d1f9ff"/><path d="M1.673,0A1.655,1.655,0,0,1,3.354,1.613a1.631,1.631,0,0,1-1.672,1.6A1.655,1.655,0,0,1,0,1.6,1.631,1.631,0,0,1,1.673,0Z" transform="matrix(0.998, -0.07, 0.07, 0.998, 14.401, 14.42)" fill="#d1f9ff"/><rect width="17" height="8" rx="2" transform="translate(1 4.407)" fill="#83cbfb"/><rect width="9" transform="translate(6 2.407)" fill="#f3e195"/></g></g></svg>