<svg xmlns="http://www.w3.org/2000/svg" xmlns:xlink="http://www.w3.org/1999/xlink" width="64" height="64" viewBox="0 0 64 64"><defs><clipPath id="b"><rect width="64" height="64"/></clipPath></defs><g id="a"><g transform="translate(2.218 2)"><path d="M2905.533,2162.162l13.14,9.576,11.571-9.576Z" transform="translate(-2887.955 -2111.738)" fill="#42c7ff"/><circle cx="27.341" cy="27.341" r="27.341" transform="translate(2.441)" fill="#42c7ff"/></g><g transform="translate(19.047 14.05)"><rect width="4.09" height="5.454" rx="2" transform="translate(1.364 25.905)" fill="#fff"/><rect width="4.09" height="5.454" rx="2" transform="translate(20.452 25.905)" fill="#fff"/><path d="M3,0H22.905a3,3,0,0,1,3,3V26.269a1,1,0,0,1-1,1H1a1,1,0,0,1-1-1V3A3,3,0,0,1,3,0Z" transform="translate(0 0)" fill="#fff"/><path d="M2.279,0A2.256,2.256,0,0,1,4.572,2.2,2.224,2.224,0,0,1,2.293,4.383,2.256,2.256,0,0,1,0,2.185,2.224,2.224,0,0,1,2.279,0Z" transform="matrix(0.998, -0.07, 0.07, 0.998, 2.26, 19.107)" fill="#42c7ff"/><path d="M2.279,0A2.256,2.256,0,0,1,4.572,2.2,2.224,2.224,0,0,1,2.293,4.383,2.256,2.256,0,0,1,0,2.185,2.224,2.224,0,0,1,2.279,0Z" transform="matrix(0.998, -0.07, 0.07, 0.998, 19.636, 19.107)" fill="#42c7ff"/><rect width="23.178" height="10.907" rx="2" transform="translate(1.364 5.454)" fill="#42c7ff"/><rect width="12.271" transform="translate(8.181 2.727)" fill="#f3e195"/></g></g></svg>