<svg xmlns="http://www.w3.org/2000/svg" xmlns:xlink="http://www.w3.org/1999/xlink" width="64" height="64" viewBox="0 0 64 64"><defs><clipPath id="b"><rect width="64" height="64"/></clipPath></defs><g id="a"><path d="M3167.481-1121.545l-6.49,11.069-.68-.411,7.17-12.319Z" transform="translate(-3122.801 1143)" fill="#202020"/><path d="M3167.481-1121.545l-6.49,11.069-.68-.411,7.17-12.319Z" transform="translate(-3143.801 1131)" fill="#202020"/><path d="M3165.387-1116.692l-3.561,6.032-.68-.411,4.241-7.282Z" transform="translate(-3120.801 1145)" fill="#202020"/><path d="M3165.387-1116.692l-3.561,6.032-.68-.411,4.241-7.282Z" transform="translate(-3141.801 1133)" fill="#202020"/><path d="M3155.533-1115.021v-31.7l1.081-.262,1.541.876.919,4.032v27.727l-1.613.7Z" transform="translate(-3111 1162.624)" fill="#acacac"/><path d="M3155.533-1115.021v-31.7l1.081-.262,1.541.876.919,4.032v27.727l-1.613.7Z" transform="translate(-3132 1150.349)" fill="#acacac"/><path d="M2517.031-1004.649a.908.908,0,0,0-.089.478l.233,3.4s2.906,3.085,3.628,3.066l13.291-6.511s.771-.326.87-.548a3.933,3.933,0,0,0,.1-.956v-2.627a1.167,1.167,0,0,0-.1-.564.713.713,0,0,0-.4-.279l-3.438-1.824-9.67,4.1-4.051,2A.776.776,0,0,0,2517.031-1004.649Z" transform="translate(-2485.51 1055.291)" fill="#4d4d4d"/><path d="M2517.031-1004.649a.908.908,0,0,0-.089.478l.233,3.4s2.906,3.085,3.628,3.066l13.291-6.511s.771-.326.87-.548a3.933,3.933,0,0,0,.1-.956v-2.627a1.167,1.167,0,0,0-.1-.564.713.713,0,0,0-.4-.279l-3.438-1.824-9.67,4.1-4.051,2A.776.776,0,0,0,2517.031-1004.649Z" transform="translate(-2506.51 1042.291)" fill="#4d4d4d"/><path d="M2519.111-1005.344l.234,3.51s-.2-.011,1.307,1.464a5.248,5.248,0,0,0,2.321,1.6l-.237-4.226a12.313,12.313,0,0,1-2.35-1.253A9,9,0,0,1,2519.111-1005.344Z" transform="translate(-2487.51 1056.291)" fill="#828282"/><path d="M2519.111-1005.344l.234,3.51s-.2-.011,1.307,1.464a5.248,5.248,0,0,0,2.321,1.6l-.237-4.226a12.313,12.313,0,0,1-2.35-1.253A9,9,0,0,1,2519.111-1005.344Z" transform="translate(-2508.51 1043.291)" fill="#828282"/><path d="M2370.292-1217.685l-10.569,4.187-44.767-29.122v-1.689l10.866-3.529,44.469,27.949Z" transform="translate(-2309.041 1267.121)" fill="#3a3a3a"/><path d="M2323.049-1242.155l43.41,27.778,4.5-1.7-43.487-27.515Z" transform="translate(-2314.371 1264.04)" fill="#666363"/><path d="M2334.293-1240.848l43.279,27.754.69-.209-43.394-27.711Z" transform="translate(-2323.489 1261.951)" fill="#887842"/><path d="M3155.533-1115.021v-31.7l1.081-.262,1.541.876.919,4.032v27.727l-1.613.7Z" transform="translate(-3143 1153.103)" fill="#acacac"/><path d="M3159.073-1139.973l10.682-3.232v2.594l-10.682,3.224Z" transform="translate(-3122 1163.788)" fill="#acacac"/><path d="M3159.073-1139.973l10.682-3.232v2.594l-10.682,3.224Z" transform="translate(-3143 1151.514)" fill="#acacac"/><path d="M3159.073-1139.973l10.682-3.232v2.594l-10.682,3.224Z" transform="translate(-3122 1172.049)" fill="#acacac"/><path d="M3159.073-1139.973l10.682-3.232v2.594l-10.682,3.224Z" transform="translate(-3143 1159.774)" fill="#acacac"/><path d="M3155.533-1114.993v-31.668l1.927,1.012v32.034Z" transform="translate(-3143 1153.077)" fill="#c6c6c6"/><path d="M3154.014-1122.456l5.64,12.688,1.173.623-6.813-14.972Z" transform="translate(-3139 1143)" fill="#202020"/><path d="M3154.014-1122.456l4.406,10.687,1.554,1.062-5.959-13.409Z" transform="translate(-3107 1153)" fill="#202020"/><path d="M3154.014-1122.456l4.542,10.707,1.554,1.062-6.1-13.429Z" transform="translate(-3128 1140)" fill="#202020"/><path d="M3154.014-1122.456l10.115,22.817.9.534-11.013-25.012Z" transform="translate(-3139 1135)" fill="#202020"/><path d="M3154.014-1122.456l8.968,21.423,1.351.817-10.319-23.9Z" transform="translate(-3107 1145)" fill="#202020"/><path d="M3154.014-1122.456l9.345,21.418,1.351.817-10.7-23.9Z" transform="translate(-3128 1132)" fill="#202020"/><path d="M3155.533-1115.021v-31.7l1.081-.262,1.541.876.919,4.032v27.727l-1.613.7Z" transform="translate(-3122 1165.378)" fill="#acacac"/><path d="M3155.533-1114.993v-31.668l1.927,1.012v32.034Z" transform="translate(-3122 1165.351)" fill="#c6c6c6"/><path d="M3154.014-1122.456l4.955,12.253,1.554,1.062-6.508-14.976Z" transform="translate(-3118 1156)" fill="#202020"/><path d="M3154.014-1122.456l10.452,23.464h1.111l-11.563-25.125Z" transform="translate(-3118 1148)" fill="#202020"/><path d="M3167.481-1121.545l-6.49,11.069-.68-.411,7.17-12.319Z" transform="translate(-3133.801 1147)" fill="#202020"/><path d="M3167.481-1121.545l-6.49,11.069-.176-.981,6.666-11.748Z" transform="translate(-3154.801 1135)" fill="#202020"/><path d="M3165.387-1116.692l-3.561,6.032-.68-.411,4.241-7.282Z" transform="translate(-3131.801 1149)" fill="#202020"/><path d="M3165.387-1116.692l-3.561,6.032-.68-.411,4.241-7.282Z" transform="translate(-3152.801 1137)" fill="#202020"/></g></svg>