<svg version="1.1" viewBox="0 0 48 48" xmlns="http://www.w3.org/2000/svg" xmlns:xlink="http://www.w3.org/1999/xlink">
 <defs>
  <linearGradient id="linearGradient908" x1="23" x2="23" y1="9" y2="40" gradientUnits="userSpaceOnUse">
   <stop stop-color="#dc3a10" offset="0"/>
   <stop stop-color="#de4b25" offset=".29032"/>
   <stop stop-color="#eee9e9" offset=".29032"/>
   <stop stop-color="#eee" offset="1"/>
  </linearGradient>
 </defs>
 <rect x="6.5" y="9.5" width="34" height="30" rx="4.5" ry="4.5" fill="url(#linearGradient908)" stroke="#707070"/>
 <rect x="14" y="6" width="3" height="7" rx="1" ry="1" fill="#d1d1d1"/>
 <rect x="12" y="20" width="5" height="5" fill="#a4bfd4"/>
 <rect x="12" y="26" width="5" height="5" fill="#a4bfd4"/>
 <rect x="12" y="32" width="5" height="5" fill="#47afff"/>
 <rect x="18" y="20" width="5" height="5" fill="#a4bfd4"/>
 <rect x="18" y="26" width="5" height="5" fill="#a4bfd4"/>
 <rect x="18" y="32" width="5" height="5" fill="#a4bfd4"/>
 <rect x="24" y="20" width="5" height="5" fill="#47afff"/>
 <rect x="24" y="26" width="5" height="5" fill="#a4bfd4"/>
 <rect x="24" y="32" width="5" height="5" fill="#a4bfd4"/>
 <rect x="30" y="20" width="5" height="5" fill="#a4bfd4"/>
 <rect x="30" y="26" width="5" height="5" fill="#a4bfd4"/>
 <rect x="30" y="32" width="5" height="5" fill="#a4bfd4"/>
 <rect x="30" y="6" width="3" height="7" rx="1" ry="1" fill="#d1d1d1"/>
</svg>
