<?xml version="1.0" encoding="UTF-8" standalone="no"?>
<!DOCTYPE svg PUBLIC "-//W3C//DTD SVG 1.1//EN" "http://www.w3.org/Graphics/SVG/1.1/DTD/svg11.dtd">
<svg width="100%" height="100%" viewBox="0 0 128 128" version="1.1" xmlns="http://www.w3.org/2000/svg" xmlns:xlink="http://www.w3.org/1999/xlink" xml:space="preserve" xmlns:serif="http://www.serif.com/" style="fill-rule:evenodd;clip-rule:evenodd;stroke-linejoin:round;stroke-miterlimit:2;">
    <g id="Camera-Controls" serif:id="Camera Controls">
        <path d="M41.331,17.267C41.141,17.068 40.893,17.067 40.893,17.067L14.731,17.067C9.823,17.067 5.839,21.051 5.839,25.959L5.839,97.1C5.839,102.008 9.823,105.993 14.731,105.993L40.786,105.993C40.786,105.993 41.121,105.981 41.318,105.766C41.515,105.552 41.499,105.361 41.499,105.361L41.499,97.921C41.499,97.921 41.508,97.841 41.419,97.743C41.339,97.654 41.229,97.65 41.229,97.65L18.044,97.65C15.651,97.65 13.709,95.708 13.709,93.316L13.709,29.744C13.709,27.352 15.651,25.41 18.044,25.41L40.679,25.41C40.679,25.41 40.964,25.458 41.256,25.106C41.534,24.772 41.499,24.547 41.499,24.547L41.499,17.704C41.499,17.704 41.501,17.447 41.331,17.267ZM86.416,17.38C86.102,17.7 86.052,18.037 86.052,18.037L86.052,24.505C86.052,24.505 85.988,24.799 86.345,25.147C86.677,25.469 87.069,25.41 87.069,25.41L108.817,25.41C111.21,25.41 113.152,27.352 113.152,29.744L113.152,93.316C113.152,95.708 111.21,97.65 108.817,97.65L86.344,97.65C86.344,97.65 86.248,97.643 86.15,97.735C86.04,97.839 86.052,97.921 86.052,97.921L86.052,105.501C86.052,105.501 86.028,105.676 86.214,105.831C86.45,106.028 86.573,105.993 86.573,105.993L112.82,105.993C117.728,105.993 121.712,102.008 121.712,97.1L121.712,25.959C121.712,21.051 117.728,17.067 112.82,17.067L87.02,17.067C87.02,17.067 86.709,17.081 86.416,17.38Z" style="fill:white;"/>
        <g transform="matrix(0.854493,0,0,0.854493,8.37513,9.69842)">
            <circle cx="65.097" cy="63.548" r="20.48" style="fill:rgb(78,173,243);"/>
            <clipPath id="_clip1">
                <circle cx="65.097" cy="63.548" r="20.48"/>
            </clipPath>
            <g clip-path="url(#_clip1)">
                <g transform="matrix(0.862745,0,0,1.09615,1.39666,-26.1896)">
                    <ellipse cx="63.839" cy="74.327" rx="27.486" ry="18.683" style="fill:rgb(149,202,241);"/>
                </g>
            </g>
            <path d="M65.097,31.723C47.532,31.723 33.271,45.983 33.271,63.548C33.271,81.113 47.532,95.374 65.097,95.374C82.662,95.374 96.923,81.113 96.923,63.548C96.923,45.983 82.662,31.723 65.097,31.723ZM65.097,43.068C76.4,43.068 85.577,52.245 85.577,63.548C85.577,74.852 76.4,84.028 65.097,84.028C53.794,84.028 44.617,74.852 44.617,63.548C44.617,52.245 53.794,43.068 65.097,43.068Z" style="fill:white;"/>
        </g>
    </g>
</svg>
