<svg xmlns="http://www.w3.org/2000/svg" xmlns:xlink="http://www.w3.org/1999/xlink" width="58" height="28" viewBox="0 0 58 28"><defs><clipPath id="b"><rect width="58" height="28"/></clipPath></defs><g id="a"><g transform="translate(-676.872 -467.867)"><rect width="16.092" height="3.958" transform="translate(689.607 484.505)" fill="#4c4c50"/><rect width="15.035" height="3.958" transform="translate(717.09 484.305)" fill="#4c4c50"/><rect width="15.035" height="2.179" transform="translate(704.799 484.305)" fill="#4c4c50"/><path d="M-3506.3-4411.867c.488.358,10.5.143,10.5.143v-10.048s.1-1.386-.189-1.729-.663-.344-1.2-.344h-7.136c-2.132,0-2.185,6.251-2.185,6.251S-3506.789-4412.226-3506.3-4411.867Z" transform="translate(4185.519 4899.949)" fill="#55bbe2"/><path d="M-3503.775-4422.768c-.933.3-1.195,2.067-1.195,2.067s-.586,2.488,0,2.792a21.515,21.515,0,0,0,5.9,0,14.923,14.923,0,0,0,0-4.858A13.085,13.085,0,0,0-3503.775-4422.768Z" transform="translate(4185.297 4899.902)" fill="#474f5f"/><path d="M-3502.535-4411.2s.085-3.841,3.2-3.466a3.505,3.505,0,0,1,3.116,3.466Z" transform="translate(4183.859 4899.459)" fill="#182237"/><circle cx="2.638" cy="2.638" r="2.638" transform="translate(681.692 485.824)" fill="#5f6b7a"/><path d="M-1.025.028s.97-.12,1.084.214a2.693,2.693,0,0,1,0,1.414c-.137.264-1.084.171-1.084.171a2.848,2.848,0,0,1-.144-.87A3.533,3.533,0,0,1-1.025.028Z" transform="translate(680 484.475)" fill="#fff"/><rect width="40.71" height="11.873" transform="translate(692.202 472.632)" fill="#cbcbcb"/><path d="M-3502.535-4411.2s.089-3.841,3.335-3.466a3.536,3.536,0,0,1,3.251,3.466Z" transform="translate(4227.322 4899.459)" fill="#182237"/><path d="M-3502.535-4411.2s.089-3.841,3.322-3.466a3.532,3.532,0,0,1,3.238,3.466Z" transform="translate(4200.775 4899.459)" fill="#182237"/><path d="M-3502.535-4411.2s.088-3.841,3.3-3.466a3.527,3.527,0,0,1,3.218,3.466Z" transform="translate(4220.804 4899.459)" fill="#182237"/><path d="M-3502.535-4411.2s.088-3.841,3.3-3.466a3.527,3.527,0,0,1,3.218,3.466Z" transform="translate(4194.256 4899.459)" fill="#182237"/><circle cx="2.638" cy="2.638" r="2.638" transform="translate(725.268 485.824)" fill="#5f6b7a"/><circle cx="2.638" cy="2.638" r="2.638" transform="translate(698.721 485.824)" fill="#5f6b7a"/><circle cx="2.638" cy="2.638" r="2.638" transform="translate(718.749 485.824)" fill="#5f6b7a"/><circle cx="2.638" cy="2.638" r="2.638" transform="translate(692.202 485.824)" fill="#5f6b7a"/></g></g></svg>