<svg xmlns="http://www.w3.org/2000/svg" xmlns:xlink="http://www.w3.org/1999/xlink" width="28" height="28" viewBox="0 0 28 28">
  <defs>
    <clipPath id="clip-CargoAirplane">
      <rect width="28" height="28"/>
    </clipPath>
  </defs>
  <g id="CargoAirplane" clip-path="url(#clip-CargoAirplane)">
    <rect id="Rectangle_4563" data-name="Rectangle 4563" width="6.99" height="4.052" rx="2.026" transform="matrix(0.719, -0.695, 0.695, 0.719, 15.002, 21.626)" fill="#88978f"/>
    <rect id="Rectangle_4565" data-name="Rectangle 4565" width="6.99" height="4.052" rx="2.026" transform="matrix(0.719, -0.695, 0.695, 0.719, 12.271, 20.656)" fill="#88978f"/>
    <rect id="Rectangle_4564" data-name="Rectangle 4564" width="6.99" height="4.052" rx="2.026" transform="matrix(0.719, -0.695, 0.695, 0.719, 1.599, 16.626)" fill="#88978f"/>
    <rect id="Rectangle_4566" data-name="Rectangle 4566" width="6.99" height="4.052" rx="2.026" transform="matrix(0.719, -0.695, 0.695, 0.719, 3.858, 17.631)" fill="#88978f"/>
    <path id="Path_3811" data-name="Path 3811" d="M.99.458a1.314,1.314,0,0,1,1.147,1.4c0,.828-.444,1.266-1,1.266s-1-.437-1-1.266S.438.458.99.458Z" transform="translate(16.032 20.2) rotate(-3)" fill="#3e3c3c"/>
    <path id="Path_3814" data-name="Path 3814" d="M.99.458a1.314,1.314,0,0,1,1.147,1.4c0,.828-.444,1.266-1,1.266s-1-.437-1-1.266S.438.458.99.458Z" transform="translate(13.302 19.23) rotate(-3)" fill="#3e3c3c"/>
    <path id="Path_3812" data-name="Path 3812" d="M.99.458a1.314,1.314,0,0,1,1.147,1.4c0,.828-.444,1.266-1,1.266s-1-.437-1-1.266S.438.458.99.458Z" transform="translate(2.63 15.2) rotate(-3)" fill="#3e3c3c"/>
    <path id="Path_3815" data-name="Path 3815" d="M.99.458a1.314,1.314,0,0,1,1.147,1.4c0,.828-.444,1.266-1,1.266s-1-.437-1-1.266S.438.458.99.458Z" transform="translate(4.889 16.206) rotate(-3)" fill="#3e3c3c"/>
    <path id="Path_3810" data-name="Path 3810" d="M2302.693,447.663l-7.934-3.4-2.628,1.669,8.16,5.161Z" transform="translate(-2291.891 -433.266)" fill="#a1b8ac"/>
    <path id="Path_3808" data-name="Path 3808" d="M2311.31,441.11l-3.835-1.379-1.884,1.379,3.463,2.3Z" transform="translate(-2292.472 -432.79)" fill="#a1b8ac"/>
    <path id="Path_3805" data-name="Path 3805" d="M3.563.114c2.157-.759,14.716-.3,14.716-.3,1.969-.016,4.413.667,4.4,2.406s-3.327,3.1-7.491,3.92L3.5,6.411A3.3,3.3,0,0,1-.034,3.291C-.016,1.552,1.407.873,3.563.114Z" transform="matrix(0.788, -0.616, 0.616, 0.788, 2.528, 20.705)" fill="#88978f"/>
    <path id="Path_3806" data-name="Path 3806" d="M2310.978,442.544l1.55-6.6,2.177-1.149v6.367Z" transform="translate(-2293.977 -432.305)" fill="#88978f"/>
    <path id="Path_3807" data-name="Path 3807" d="M2315.485,442.624l3.9,1.379-1.872,1.529-4.365-.919Z" transform="translate(-2294.227 -433.074)" fill="#a1b8ac"/>
    <path id="Path_3809" data-name="Path 3809" d="M2306.012,453.145l3.688-3.218,11.465,4.8-2.256,2.3Z" transform="translate(-2293.405 -433.792)" fill="#a1b8ac"/>
    <path id="Path_3813" data-name="Path 3813" d="M2298.81,453.724a4.817,4.817,0,0,0,2.293.95,2.658,2.658,0,0,0,1.77-.79l-.086.79a2.8,2.8,0,0,1-1.96.836,4.9,4.9,0,0,1-2.494-1,2.8,2.8,0,0,1,.212-.464A1.607,1.607,0,0,1,2298.81,453.724Z" transform="translate(-2293.475 -434.854)" fill="#182237"/>
  </g>
</svg>
