<svg xmlns="http://www.w3.org/2000/svg" xmlns:xlink="http://www.w3.org/1999/xlink" width="64" height="64" viewBox="0 0 64 64"><defs><clipPath id="b"><rect width="64" height="64"/></clipPath></defs><g id="a"><path d="M7.966,8.037,38.361-.069a8.121,8.121,0,0,1,8.175,7.7L49,40.477a7.548,7.548,0,0,1-7.915,7.486L9.819,55.215a8.121,8.121,0,0,1-8.175-7.7L-.034,17.288C-.106,13.1,3.523,7.979,7.966,8.037Z" transform="translate(31.373 -4.475) rotate(40)" fill="#b3ebff"/><path d="M6.922,6.895,33.349-.069a7.024,7.024,0,0,1,7.108,6.613l2.138,28.221A6.528,6.528,0,0,1,35.713,41.2L8.532,47.425a7.024,7.024,0,0,1-7.108-6.613L-.035,14.843C-.1,11.241,3.059,6.845,6.922,6.895Z" transform="translate(30.93 0.569) rotate(40)" fill="#2c2e2e"/><ellipse cx="4" cy="4.5" rx="4" ry="4.5" transform="translate(36.187 4.832) rotate(41)" fill="#b3ebff"/><ellipse cx="4" cy="4.5" rx="4" ry="4.5" transform="translate(28.187 47.832) rotate(41)" fill="#b3ebff"/><path d="M.089,1.828C1.289,1.407,19.807-.61,19.807-.61S37.293,1.407,39.772,1.828s1.376.933,0,1.03-19.965-1.03-19.965-1.03S2.207,3.27.089,2.858-1.111,2.249.089,1.828Z" transform="translate(12.042 32)" fill="#88978f"/><path d="M-.575-.056C0,.155,8.808,1.166,8.808,1.166S17.13.155,18.31-.056s.655-.468,0-.516-9.5.516-9.5.516S.433-.78-.575-.573-1.146-.267-.575-.056Z" transform="translate(23 29.355)" fill="#6a766f"/><path d="M5,0a5,5,0,0,1,5,5c0,2.761.341,6.644-5,6.644S0,7.761,0,5A5,5,0,0,1,5,0Z" transform="translate(27 27)" fill="#88978f"/><circle cx="2.5" cy="2.5" r="2.5" transform="translate(22 34)" fill="#88978f"/><circle cx="2.5" cy="2.5" r="2.5" transform="translate(16 34)" fill="#88978f"/><circle cx="2.5" cy="2.5" r="2.5" transform="translate(37 34)" fill="#88978f"/><circle cx="2.5" cy="2.5" r="2.5" transform="translate(43 34)" fill="#88978f"/><circle cx="1.5" cy="1.5" r="1.5" transform="translate(23 35)" fill="#4d4d4d"/><circle cx="1.5" cy="1.5" r="1.5" transform="translate(17 35)" fill="#4d4d4d"/><circle cx="1.5" cy="1.5" r="1.5" transform="translate(38 35)" fill="#4d4d4d"/><circle cx="1.5" cy="1.5" r="1.5" transform="translate(44 35)" fill="#4d4d4d"/><path d="M.964.59a.5.5,0,0,1,.5.5v6a.5.5,0,0,1-1,0v-6A.5.5,0,0,1,.964.59Z" transform="translate(31 20)" fill="#88978f"/><circle cx="3" cy="3" r="3" transform="translate(29 29)" fill="#dcdcdc"/><rect width="6" height="1" rx="0.5" transform="translate(29 29)" fill="#3b424d"/></g></svg>