<svg xmlns="http://www.w3.org/2000/svg" xmlns:xlink="http://www.w3.org/1999/xlink" width="28" height="28" viewBox="0 0 28 28">
  <defs>
    <clipPath id="clip-Cargoship">
      <rect width="28" height="28"/>
    </clipPath>
  </defs>
  <g id="Cargoship" clip-path="url(#clip-Cargoship)">
    <path id="Path_3790" data-name="Path 3790" d="M2160.653,453.335l3.535,2.557h6.674l13.055-10.426,1.216-4.4L2168.886,453.8Z" transform="translate(-2158.144 -429.671)" fill="#7b2d2d"/>
    <path id="Path_3789" data-name="Path 3789" d="M2176.212,436.058l-17.005,11.923,1.4,5.581,8.768.525,15.837-12.77Z" transform="translate(-2158.208 -429.897)" fill="#8f5c4f"/>
    <path id="Path_3791" data-name="Path 3791" d="M2161.161,447.967l.755,3.538,6.524.764,14.855-11.136-7.118-3.981Z" transform="translate(-2158.122 -429.771)" fill="#728091"/>
    <path id="Path_3816" data-name="Path 3816" d="M22.016,14.363l3.512-2.549V6.392L22.016,9.068Z" transform="translate(-0.55 -0.255)" fill="#d4d4d4"/>
    <path id="Path_3817" data-name="Path 3817" d="M15,9.94l7.068,4.439V9L15,4.653Z" transform="translate(-0.55 -0.255)" fill="#b1b1b1"/>
    <path id="Path_3818" data-name="Path 3818" d="M15,4.653l3.525-1.946,7.14,3.731L22.12,9.023Z" transform="translate(-0.55 -0.255)" fill="#e6e6e6"/>
    <path id="Path_3796" data-name="Path 3796" d="M2173.766,438.283l1.661-3.013,1.378-.941,2,.941-.376,2.706-2.293,1.675Z" transform="translate(-2156.508 -432.518)" fill="#96a6b9"/>
    <path id="Path_3797" data-name="Path 3797" d="M2175.808,439.49l1.139-3.464,1.537-.921-.423,2.752Z" transform="translate(-2156.176 -432.367)" fill="#728091"/>
    <path id="Path_3798" data-name="Path 3798" d="M2175.2,435.262l1.853.958,1.55-.958-2-.96Z" transform="translate(-2156.298 -432.523)" fill="#3d3d3d"/>
    <path id="Path_3819" data-name="Path 3819" d="M2487,422.831l7.047,4.458,1.795-1.163v.962l-1.795,1.207L2487,423.668Z" transform="translate(-2472.55 -417.221)" fill="#1a6bd5"/>
    <path id="Path_3820" data-name="Path 3820" d="M2477.089,434.362l5.918,4.227v-4.227l-5.918-3.942Z" transform="translate(-2467.106 -421.055)" fill="#ff8002"/>
    <path id="Path_3823" data-name="Path 3823" d="M2477.089,434.362l5.918,4.227v-4.227l-5.918-3.942Z" transform="translate(-2470.572 -418.765)" fill="#e9e986"/>
    <path id="Path_3826" data-name="Path 3826" d="M2477.089,434.362l5.918,4.227v-4.227l-5.918-3.942Z" transform="translate(-2474.05 -416.151)" fill="#5b97ff"/>
    <path id="Path_3821" data-name="Path 3821" d="M2477.089,430.42l2.992-1.983,5.932,4.215-3.006,1.921Z" transform="translate(-2467.106 -421.055)" fill="#ffb368"/>
    <path id="Path_3825" data-name="Path 3825" d="M2477.089,430.42l2.992-1.983,5.932,4.215-3.006,1.921Z" transform="translate(-2470.572 -418.765)" fill="#f9f9bb"/>
    <path id="Path_3828" data-name="Path 3828" d="M2477.089,430.42l2.992-1.983,5.932,4.215-3.006,1.921Z" transform="translate(-2474.05 -416.151)" fill="#98bdfc"/>
    <path id="Path_3822" data-name="Path 3822" d="M2483.007,434.573l3.016-1.94v3.722l-3.016,2.294Z" transform="translate(-2467.106 -421.055)" fill="#b95c00"/>
    <path id="Path_3824" data-name="Path 3824" d="M2483.007,434.573l3.016-1.94v3.722l-3.016,2.294Z" transform="translate(-2470.572 -418.765)" fill="#b3b363"/>
    <path id="Path_3827" data-name="Path 3827" d="M2483.007,434.573l3.016-1.94v3.722l-3.016,2.294Z" transform="translate(-2474.05 -416.151)" fill="#406ab3"/>
  </g>
</svg>
