<svg xmlns="http://www.w3.org/2000/svg" xmlns:xlink="http://www.w3.org/1999/xlink" width="64" height="64" viewBox="0 0 64 64">
  <defs>
    <clipPath id="clip-CargoTrain_Stop">
      <rect width="64" height="64"/>
    </clipPath>
  </defs>
  <g id="CargoTrain_Stop" data-name="CargoTrain Stop" clip-path="url(#clip-CargoTrain_Stop)">
    <g id="Group_2502" data-name="Group 2502" transform="translate(2.218 2)">
      <path id="Path_3054" data-name="Path 3054" d="M2905.533,2162.162l13.14,9.576,11.571-9.576Z" transform="translate(-2887.955 -2111.738)" fill="#3c9442"/>
      <circle id="Ellipse_807" data-name="Ellipse 807" cx="27.341" cy="27.341" r="27.341" transform="translate(2.441)" fill="#3c9442"/>
    </g>
    <path id="Path_1191" data-name="Path 1191" d="M1039.911,244,1036,250.424h5.917l2-6.424Z" transform="translate(-1016.629 -200.904)" fill="#fff"/>
    <path id="Path_1190" data-name="Path 1190" d="M1040.007,244l3.913,6.424H1038L1036,244Z" transform="translate(-998.878 -200.904)" fill="#fff"/>
    <path id="Path_1192" data-name="Path 1192" d="M3.941,0h14.45a3.941,3.941,0,0,1,3.941,3.941V22.332c0,2.177-3.941,3.941-3.941,3.941a26.055,26.055,0,0,1-7.039,1.107,30.723,30.723,0,0,1-7.411-1.107S0,24.509,0,22.332V3.941A3.941,3.941,0,0,1,3.941,0Z" transform="translate(20.737 16.729)" fill="#fff"/>
    <path id="Path_381" data-name="Path 381" d="M2.081-.005A2.117,2.117,0,0,1,4.152,2.176a2.155,2.155,0,0,1-2.087,2.2A2.117,2.117,0,0,1-.005,2.191,2.155,2.155,0,0,1,2.081-.005Z" transform="matrix(0.998, -0.07, 0.07, 0.998, 23.921, 35.815)" fill="#3c9442"/>
    <path id="Path_382" data-name="Path 382" d="M2.081-.005A2.117,2.117,0,0,1,4.152,2.176a2.155,2.155,0,0,1-2.087,2.2A2.117,2.117,0,0,1-.005,2.191,2.155,2.155,0,0,1,2.081-.005Z" transform="matrix(0.998, -0.07, 0.07, 0.998, 35.986, 35.815)" fill="#3c9442"/>
    <rect id="Rectangle_861" data-name="Rectangle 861" width="19.978" height="5.061" rx="2" transform="translate(22.103 22.374)" fill="#3c9442"/>
    <rect id="Rectangle_869" data-name="Rectangle 869" width="9.558" transform="translate(28.93 23.541)" fill="#f3e195"/>
    <rect id="Rectangle_1799" data-name="Rectangle 1799" width="9.558" height="6.827" rx="2" transform="translate(27.564 12.641)" fill="#fff"/>
    <circle id="Ellipse_464" data-name="Ellipse 464" cx="2.048" cy="2.048" r="2.048" transform="translate(30.295 14.004)" fill="#3c9442"/>
  </g>
</svg>
