<svg xmlns="http://www.w3.org/2000/svg" xmlns:xlink="http://www.w3.org/1999/xlink" width="58" height="28" viewBox="0 0 58 28"><defs><clipPath id="b"><rect width="58" height="28"/></clipPath></defs><g id="a"><g transform="translate(4.268 1.923)"><path d="M16070.533,4413.249a3.839,3.839,0,0,0,3.281.845l31.777.41s4.057-2.412,7.393-4.168a27.7,27.7,0,0,0,5.75-4.113l2.123-11.944h-5.018l-6.8,8.431H16079.9a14.055,14.055,0,0,0-6.09,1.192c-2.637,1.349-3.479,1.567-4.463,4.2S16069.3,4411.963,16070.533,4413.249Z" transform="translate(-16068.863 -4394.279)" fill="#88978f"/><path d="M16092.909,4414.5a.723.723,0,0,1,.178-.119,1.6,1.6,0,0,1,.252-.091h5.881l3.373,2.169-2.656.22Z" transform="translate(-16048.704 -4410.961)" fill="#a1b8ac"/><path d="M16069.471,4411.679h4.5s1.25.057,1.287-.73a.775.775,0,0,0-.633-.876l-4.066-.057a4.917,4.917,0,0,0-.6.766A8.291,8.291,0,0,0,16069.471,4411.679Z" transform="translate(-16069.074 -4398.115)" fill="#182237"/><path d="M16102.59,4426.015s-5.715-.425-8.434-.323-2.414.448-2.584.758-.187.38-.209,1.6.344,1.569.344,1.569.066.621,2.789.621,8.094-.621,8.094-.621a4.142,4.142,0,0,0,.385-1.846A2.663,2.663,0,0,0,16102.59,4426.015Z" transform="translate(-16072.876 -4407.697)" fill="#5f6562"/><path d="M16102.59,4426.015s-5.715-.425-8.434-.323-2.414.448-2.584.758-.187.38-.209,1.6.344,1.569.344,1.569.066.621,2.789.621,8.094-.621,8.094-.621a4.142,4.142,0,0,0,.385-1.846A2.663,2.663,0,0,0,16102.59,4426.015Z" transform="translate(-16071.694 -4406.697)" fill="#88978f"/><g transform="translate(18.732 18.077)" fill="#fff" stroke="#707070" stroke-width="1"><ellipse cy="1" ry="1" stroke="none"/><ellipse cy="1" rx="0.5" ry="0.5" fill="none"/></g><path d="M16092.909,4414.765a1.233,1.233,0,0,1,.264-.27,1.854,1.854,0,0,1,.381-.206h8.807l5.051,4.924-3.979.5Z" transform="translate(-16074.572 -4398.178)" fill="#a1b8ac"/></g></g></svg>