<svg xmlns="http://www.w3.org/2000/svg" xmlns:xlink="http://www.w3.org/1999/xlink" width="58" height="28" viewBox="0 0 58 28"><defs><clipPath id="b"><rect width="58" height="28"/></clipPath></defs><g id="a"><path d="M15727.088,4423.893l-.951,2.07,49.754.228.3-2.3Z" transform="translate(-15720.637 -4402.147)" fill="#231e2e"/><rect width="18" height="5" rx="2" transform="translate(24 2)" fill="#867463"/><path d="M5.741.356c1.13.006,45.929,0,45.929,0,2.765.1,2.406.95,2.406,2.545V17.193L36,17.159,33.8,20.04H20.349l-1.394-2.913L4.59,17.1,3.441,20.04h-3.5S.44,9.1.41,7.937,2.955,6.783,2.955,6.783L4.346,2.168C4.591,1.118,4.611.351,5.741.356Z" transform="translate(2 4.654)" fill="#ab4835"/><path d="M1.41,0H3C4.1,0,5,.635,5,1.418V2.836c0,.783-.9,1.418-2,1.418H-.045Z" transform="translate(5 7)" fill="#83cbfb"/><rect width="7" transform="translate(8 9)" fill="#f3e195"/><rect width="7" height="5" rx="2" transform="translate(10 2)" fill="#867463"/><path d="M15726.139,4423.893l.988,3.282h6.457l1.193-3.282Z" transform="translate(-15717.944 -4402.147)" fill="#231e2e"/><path d="M15726.141,4423.993l.986,3.182h6.457l1.2-3.182Z" transform="translate(-15685.944 -4402.147)" fill="#231e2e"/><g transform="translate(7 22)" fill="#1d3041" stroke="#707070" stroke-width="1"><circle cx="2" cy="2" r="2" stroke="none"/><circle cx="2" cy="2" r="1.5" fill="none"/></g><g transform="translate(39 22)" fill="#1d3041" stroke="#707070" stroke-width="1"><circle cx="2" cy="2" r="2" stroke="none"/><circle cx="2" cy="2" r="1.5" fill="none"/></g><g transform="translate(15 22)" fill="#1d3041" stroke="#707070" stroke-width="1"><circle cx="2" cy="2" r="2" stroke="none"/><circle cx="2" cy="2" r="1.5" fill="none"/></g><g transform="translate(47 22)" fill="#1d3041" stroke="#707070" stroke-width="1"><circle cx="2" cy="2" r="2" stroke="none"/><circle cx="2" cy="2" r="1.5" fill="none"/></g><rect width="1" height="7" rx="0.5" transform="translate(32 8)" fill="#231e2e"/><rect width="1" height="7" rx="0.5" transform="translate(34 8)" fill="#231e2e"/><rect width="1" height="7" rx="0.5" transform="translate(36 8)" fill="#231e2e"/><rect width="1" height="7" rx="0.5" transform="translate(38 8)" fill="#231e2e"/><rect width="1" height="7" rx="0.5" transform="translate(40 8)" fill="#231e2e"/><path d="M54.077,13.2v3.995L36,17.159,33.8,20.04H20.349l-1.394-2.913L4.59,17.1,3.441,20.04h-3.5L.327,13.2Z" transform="translate(2 4.654)" fill="#a33722"/></g></svg>