<svg xmlns="http://www.w3.org/2000/svg" xmlns:xlink="http://www.w3.org/1999/xlink" width="28" height="28" viewBox="0 0 28 28">
  <defs>
    <clipPath id="clip-Cargotrain">
      <rect width="28" height="28"/>
    </clipPath>
  </defs>
  <g id="Cargotrain" clip-path="url(#clip-Cargotrain)">
    <path id="Path_3780" data-name="Path 3780" d="M2000.491,447.166l1.927.88,1.358-.88v-2.74Z" transform="translate(-1989 -423)" fill="#363636"/>
    <path id="Path_3781" data-name="Path 3781" d="M2000.491,447.166l1.927.88,1.358-.88v-2.74Z" transform="translate(-1980.583 -429.128)" fill="#363636"/>
    <path id="Path_3772" data-name="Path 3772" d="M1.238,0c.684,0,1.239.747,1.241,1.666S1.927,3.331,1.243,3.33,0,2.583,0,1.664.554,0,1.238,0Z" transform="matrix(0.985, 0.174, -0.174, 0.985, 10.559, 23.314)" fill="#313131"/>
    <path id="Path_3774" data-name="Path 3774" d="M1.238,0c.684,0,1.239.747,1.241,1.666S1.927,3.331,1.243,3.33,0,2.583,0,1.664.554,0,1.238,0Z" transform="matrix(0.985, 0.174, -0.174, 0.985, 14.958, 20.087)" fill="#313131"/>
    <path id="Path_3775" data-name="Path 3775" d="M1.238,0c.684,0,1.239.747,1.241,1.666S1.927,3.331,1.243,3.33,0,2.583,0,1.664.554,0,1.238,0Z" transform="matrix(0.985, 0.174, -0.174, 0.985, 23.406, 14.298)" fill="#313131"/>
    <path id="Path_3776" data-name="Path 3776" d="M1.238,0c.684,0,1.239.747,1.241,1.666S1.927,3.331,1.243,3.33,0,2.583,0,1.664.554,0,1.238,0Z" transform="matrix(0.985, 0.174, -0.174, 0.985, 18.975, 17.063)" fill="#313131"/>
    <path id="Ellipse_915_-_Outline" data-name="Ellipse 915 - Outline" d="M1.239.834c-.146,0-.412.315-.412.831s.268.832.414.833.412-.315.412-.831S1.385.834,1.239.834m0-.832c.684,0,1.239.747,1.241,1.666S1.927,3.331,1.243,3.33,0,2.583,0,1.664.554,0,1.238,0Z" transform="matrix(0.985, 0.174, -0.174, 0.985, 10.436, 23.314)" fill="#616664"/>
    <path id="Ellipse_915_-_Outline-2" data-name="Ellipse 915 - Outline" d="M1.239.834c-.146,0-.412.315-.412.831s.268.832.414.833.412-.315.412-.831S1.385.834,1.239.834m0-.832c.684,0,1.239.747,1.241,1.666S1.927,3.331,1.243,3.33,0,2.583,0,1.664.554,0,1.238,0Z" transform="matrix(0.985, 0.174, -0.174, 0.985, 14.958, 20.087)" fill="#616664"/>
    <path id="Ellipse_915_-_Outline-3" data-name="Ellipse 915 - Outline" d="M1.239.834c-.146,0-.412.315-.412.831s.268.832.414.833.412-.315.412-.831S1.385.834,1.239.834m0-.832c.684,0,1.239.747,1.241,1.666S1.927,3.331,1.243,3.33,0,2.583,0,1.664.554,0,1.238,0Z" transform="matrix(0.985, 0.174, -0.174, 0.985, 23.406, 14.298)" fill="#616664"/>
    <path id="Ellipse_915_-_Outline-4" data-name="Ellipse 915 - Outline" d="M1.239.834c-.146,0-.412.315-.412.831s.268.832.414.833.412-.315.412-.831S1.385.834,1.239.834m0-.832c.684,0,1.239.747,1.241,1.666S1.927,3.331,1.243,3.33,0,2.583,0,1.664.554,0,1.238,0Z" transform="matrix(0.985, 0.174, -0.174, 0.985, 18.975, 17.23)" fill="#616664"/>
    <path id="Path_3735" data-name="Path 3735" d="M214.928-942.356c-.646.507-.814,4.625-.814,4.625l-1.333,1.649s-.39,4.621,0,5.444,6.693,4.335,6.693,4.335v-3.858l2.242-9.781S216.082-943.261,214.928-942.356Z" transform="translate(-211.154 953.327)" fill="#ab4835"/>
    <path id="Path_3736" data-name="Path 3736" d="M218.47-925.655c.586.082,17.947-12.3,17.947-12.3v-9.01l-16.061,9.318s-1.6,5.156-2.135,8.189S217.884-925.737,218.47-925.655Z" transform="translate(-210.043 952.539)" fill="#a33722"/>
    <path id="Path_3778" data-name="Path 3778" d="M1918.676,441.507s.56-3.825.767-5.538c.223-.678,1.465-1.1,1.795-2.17.5-1.624.748-3.782,1.288-4.583.919-1.126,13.925-8.548,13.925-8.548l-7.369-3.467-15.262,8.689,4.4,9.778-.4,4.632a4.571,4.571,0,0,0,.188,1.552C1918.225,442.154,1918.676,441.507,1918.676,441.507Z" transform="translate(-1910 -415)" fill="#ab4835"/>
    <path id="Path_3787" data-name="Path 3787" d="M2082.035,436.254v4.639l.609-.57v-4.57Z" transform="translate(-2059.814 -425.827)" fill="#314750"/>
    <path id="Path_3829" data-name="Path 3829" d="M2082.035,436.254v4.639l.609-.57v-4.57Z" transform="translate(-2061.228 -424.827)" fill="#314750"/>
    <path id="Path_3830" data-name="Path 3830" d="M2082.035,436.254v4.639l.609-.57v-4.57Z" transform="translate(-2062.642 -424.023)" fill="#314750"/>
    <path id="Rectangle_4567" data-name="Rectangle 4567" d="M1.086.385l1.571.768a1.12,1.12,0,0,1,.3.216,1.381,1.381,0,0,1,.228.3,1.359,1.359,0,0,1,.137.352,1.07,1.07,0,0,1,.024.361l-.1.852a.723.723,0,0,1-.1.3.526.526,0,0,1-.2.189.541.541,0,0,1-.271.061.764.764,0,0,1-.314-.082L.788,2.942a1.122,1.122,0,0,1-.3-.216,1.382,1.382,0,0,1-.229-.3,1.358,1.358,0,0,1-.137-.354A1.069,1.069,0,0,1,.1,1.7L.2.852A.72.72,0,0,1,.3.55.525.525,0,0,1,.5.362.543.543,0,0,1,.772.3.769.769,0,0,1,1.086.385Z" transform="translate(3.276 12.496)" fill="#83cbfb"/>
    <path id="Rectangle_4568" data-name="Rectangle 4568" d="M1.085.385l1.571.768a1.12,1.12,0,0,1,.3.216,1.381,1.381,0,0,1,.228.3,1.359,1.359,0,0,1,.137.352,1.07,1.07,0,0,1,.024.361l-.1.852a.723.723,0,0,1-.1.3.526.526,0,0,1-.2.189.541.541,0,0,1-.271.061.764.764,0,0,1-.314-.082L.788,2.942a1.122,1.122,0,0,1-.3-.216,1.382,1.382,0,0,1-.229-.3,1.358,1.358,0,0,1-.137-.354A1.069,1.069,0,0,1,.1,1.7L.2.852A.72.72,0,0,1,.3.55.525.525,0,0,1,.5.362.543.543,0,0,1,.772.3.769.769,0,0,1,1.085.385Z" transform="translate(7.122 14.301)" fill="#83cbfb"/>
    <ellipse id="Ellipse_935" data-name="Ellipse 935" cx="0.5" cy="1" rx="0.5" ry="1" transform="translate(4 19)" fill="#f2e9c9"/>
    <path id="Path_3831" data-name="Path 3831" d="M2575.866,436.926l4.453,2.163,2.42-1.626-4.133-2.082Z" transform="translate(-2568 -427)" fill="#867463"/>
    <path id="Path_3832" data-name="Path 3832" d="M2581,434.13l4.4,2.082,5.546-3.127a1.433,1.433,0,0,0,0-1.251c-.332-.625-4.412-2.339-4.752-2.332s-4.586,2.532-5.031,2.782S2581,434.13,2581,434.13Z" transform="translate(-2568 -427)" fill="#867463"/>
  </g>
</svg>
