<svg xmlns="http://www.w3.org/2000/svg" xmlns:xlink="http://www.w3.org/1999/xlink" width="58" height="28" viewBox="0 0 58 28"><defs><clipPath id="b"><rect width="58" height="28"/></clipPath></defs><g id="a"><path d="M0,0H3V3.289H0Z" transform="translate(6 17)" fill="#ff8002"/><path d="M0,0H3V3.289H0Z" transform="translate(21 17)" fill="#ff8002"/><path d="M0,0H3V3.289H0Z" transform="translate(36 17)" fill="#ff8002"/><path d="M0,0H3V3.861H0Z" transform="translate(6 10.428)" fill="#ff8002"/><path d="M0,0H3V3.861H0Z" transform="translate(21 10.428)" fill="#ff8002"/><path d="M0,0H3V3.861H0Z" transform="translate(36 10.428)" fill="#ff8002"/><path d="M0,0H3V3.289H0Z" transform="translate(12 17)" fill="#ff8002"/><path d="M0,0H3V3.289H0Z" transform="translate(27 17)" fill="#ff8002"/><path d="M0,0H3V3.861H0Z" transform="translate(12 10.428)" fill="#ff8002"/><path d="M0,0H3V3.861H0Z" transform="translate(27 10.428)" fill="#ff8002"/><path d="M0,0H3V3.289H0Z" transform="translate(6 14)" fill="#5b97ff"/><path d="M0,0H3V3.289H0Z" transform="translate(21 14)" fill="#5b97ff"/><path d="M0,0H3V3.289H0Z" transform="translate(36 14)" fill="#5b97ff"/><path d="M0,0H3V3.289H0Z" transform="translate(9 17)" fill="#5b97ff"/><path d="M0,0H3V3.289H0Z" transform="translate(24 17)" fill="#5b97ff"/><path d="M0,0H3V3.289H0Z" transform="translate(39 17)" fill="#5b97ff"/><path d="M0,0H3V3.289H0Z" transform="translate(9 17)" fill="#5b97ff"/><path d="M0,0H3V3.289H0Z" transform="translate(24 17)" fill="#5b97ff"/><path d="M0,0H3V3.289H0Z" transform="translate(39 17)" fill="#5b97ff"/><path d="M0,0H3V3.861H0Z" transform="translate(9 10.428)" fill="#5b97ff"/><path d="M0,0H3V3.861H0Z" transform="translate(24 10.428)" fill="#5b97ff"/><path d="M0,0H3V3.861H0Z" transform="translate(39 10.428)" fill="#5b97ff"/><path d="M0,0H3V3.289H0Z" transform="translate(15 17)" fill="#5b97ff"/><path d="M0,0H3V3.289H0Z" transform="translate(30 17)" fill="#5b97ff"/><path d="M0,0H3V3.861H0Z" transform="translate(15 10.428)" fill="#5b97ff"/><path d="M0,0H3V3.861H0Z" transform="translate(30 10.428)" fill="#5b97ff"/><path d="M0,0H3V3.289H0Z" transform="translate(18 17)" fill="#6fc907"/><path d="M0,0H3V3.289H0Z" transform="translate(33 17)" fill="#6fc907"/><path d="M0,0H3V3.861H0Z" transform="translate(18 10.428)" fill="#6fc907"/><path d="M0,0H3V3.861H0Z" transform="translate(33 10.428)" fill="#6fc907"/><path d="M0,0H3V3.289H0Z" transform="translate(9 14)" fill="#e9e986"/><path d="M0,0H3V3.289H0Z" transform="translate(24 14)" fill="#e9e986"/><path d="M0,0H3V3.289H0Z" transform="translate(39 14)" fill="#e9e986"/><path d="M0,0H3V3.289H0Z" transform="translate(15 14)" fill="#e9e986"/><path d="M0,0H3V3.289H0Z" transform="translate(30 14)" fill="#e9e986"/><path d="M0,0H3V3.289H0Z" transform="translate(18 14)" fill="#5b97ff"/><path d="M0,0H3V3.289H0Z" transform="translate(33 14)" fill="#5b97ff"/><path d="M0,0H3V3.289H0Z" transform="translate(12 14)" fill="#6fc907"/><path d="M0,0H3V3.289H0Z" transform="translate(27 14)" fill="#6fc907"/><path d="M3.732,6.745l49.167-.2v8.189H21.173s-10.181.769-13.9-.578C4.383,11.5,3.732,6.745,3.732,6.745Z" transform="translate(0.844 12.577)" fill="#203137"/><path d="M3.711,6.569l48.664-.1v6.594l-31.984-.185s-10.079.652-13.782-.7A8.375,8.375,0,0,1,3.711,6.569Z" transform="translate(1.367 14.576)" fill="#7b2d2d"/><rect width="9" height="4" transform="translate(42 5)" fill="#fff"/><path d="M2509.784-15.437H2508.2a10.873,10.873,0,0,1,0-1.359h10.115v1.359h-1.8v9.753h-6.737Z" transform="translate(-2466.326 24.846)" fill="#d4d4d4"/><rect width="2" height="1" transform="translate(42 6)" fill="#1a6bd5"/><path d="M0,0H3.195V4H0Z" transform="translate(45 1)" fill="#9d6464"/></g></svg>