<svg xmlns="http://www.w3.org/2000/svg" xmlns:xlink="http://www.w3.org/1999/xlink" width="64" height="64" viewBox="0 0 64 64"><defs><clipPath id="b"><rect width="64" height="64"/></clipPath></defs><g id="a"><path d="M7.966,8.037,38.361-.069a8.121,8.121,0,0,1,8.175,7.7L49,40.477a7.548,7.548,0,0,1-7.915,7.486L9.819,55.215a8.121,8.121,0,0,1-8.175-7.7L-.034,17.288C-.106,13.1,3.523,7.979,7.966,8.037Z" transform="translate(31.373 -4.475) rotate(40)" fill="#4255ff"/><path d="M6.922,6.895,33.349-.069a7.024,7.024,0,0,1,7.108,6.613l2.138,28.221A6.528,6.528,0,0,1,35.713,41.2L8.532,47.425a7.024,7.024,0,0,1-7.108-6.613L-.035,14.843C-.1,11.241,3.059,6.845,6.922,6.895Z" transform="translate(30.93 0.569) rotate(40)" fill="#2c2e2e"/><ellipse cx="4" cy="4.5" rx="4" ry="4.5" transform="translate(36.187 4.832) rotate(41)" fill="#4255ff"/><ellipse cx="4" cy="4.5" rx="4" ry="4.5" transform="translate(28.187 47.832) rotate(41)" fill="#4255ff"/><path d="M0,0H3V3.289H0Z" transform="translate(25 33)" fill="#ff8002"/><path d="M0,0H3V3.861H0Z" transform="translate(25 26.428)" fill="#ff8002"/><path d="M0,0H3V3.289H0Z" transform="translate(31 33)" fill="#ff8002"/><path d="M0,0H3V3.861H0Z" transform="translate(31 26.428)" fill="#ff8002"/><path d="M0,0H3V3.289H0Z" transform="translate(25 30)" fill="#5b97ff"/><path d="M0,0H3V3.289H0Z" transform="translate(28 33)" fill="#5b97ff"/><path d="M0,0H3V3.289H0Z" transform="translate(28 33)" fill="#5b97ff"/><path d="M0,0H3V3.861H0Z" transform="translate(28 26.428)" fill="#5b97ff"/><path d="M0,0H3V3.289H0Z" transform="translate(34 33)" fill="#5b97ff"/><path d="M0,0H3V3.861H0Z" transform="translate(34 26.428)" fill="#5b97ff"/><path d="M0,0H3V3.289H0Z" transform="translate(37 33)" fill="#6fc907"/><path d="M0,0H3V3.861H0Z" transform="translate(37 26.428)" fill="#6fc907"/><path d="M0,0H3V3.289H0Z" transform="translate(28 30)" fill="#e9e986"/><path d="M0,0H3V3.289H0Z" transform="translate(34 30)" fill="#e9e986"/><path d="M0,0H3V3.289H0Z" transform="translate(37 30)" fill="#5b97ff"/><path d="M0,0H3V3.289H0Z" transform="translate(31 30)" fill="#6fc907"/><path d="M1.081,6.651l7.977-.1v8.6l-5.843-.364s-1.006.717-1.675-.63A48.937,48.937,0,0,1,1.081,6.651Z" transform="translate(23 28.577)" fill="#3d525a"/><path d="M1.052,6.574l7.963-.131V12.8L3.26,12.645S2.183,13.8,1.514,12.451A32.909,32.909,0,0,1,1.052,6.574Z" transform="translate(23 30.577)" fill="#9c5555"/><path d="M12.586,6.745l-8.855-.2v8.19H9.445s1.834.769,2.5-.578A58.864,58.864,0,0,0,12.586,6.745Z" transform="translate(28.304 28.576)" fill="#203137"/><path d="M12.5,6.569l-8.792-.1v6.594l5.779-.185s1.821.652,2.49-.7A34.006,34.006,0,0,0,12.5,6.569Z" transform="translate(28.304 30.576)" fill="#7b2d2d"/><path d="M0,0A11.7,11.7,0,0,0,4.529,1.172,10.363,10.363,0,0,0,8.879,0,10.916,10.916,0,0,0,13,1.172,5.979,5.979,0,0,0,16.339,0,12.236,12.236,0,0,0,21.1,1.172,13.359,13.359,0,0,0,26,0V6H0Z" transform="translate(19 38)" fill="#42a0ff"/><rect width="9" height="4" transform="translate(28 21)" fill="#fff"/><path d="M2511.158-15.437h-2.933a5.853,5.853,0,0,1,0-1.359h18.768v1.359h-3.334l-.656,1.02h-11.067Z" transform="translate(-2485 40.846)" fill="#d4d4d4"/><rect width="7" height="1" transform="translate(29 22)" fill="#1a6bd5"/><path d="M0,0H3.195V4H0Z" transform="translate(31 17)" fill="#9d6464"/></g></svg>