<svg xmlns="http://www.w3.org/2000/svg" xmlns:xlink="http://www.w3.org/1999/xlink" width="64" height="64" viewBox="0 0 64 64">
  <defs>
    <clipPath id="clip-Cargoship_Stop">
      <rect width="64" height="64"/>
    </clipPath>
  </defs>
  <g id="Cargoship_Stop" data-name="Cargoship Stop" clip-path="url(#clip-Cargoship_Stop)">
    <g id="Group_2502" data-name="Group 2502" transform="translate(2.218 2)">
      <path id="Path_3054" data-name="Path 3054" d="M2905.533,2162.162l13.14,9.576,11.571-9.576Z" transform="translate(-2887.955 -2111.738)" fill="#4255ff"/>
      <circle id="Ellipse_807" data-name="Ellipse 807" cx="27.341" cy="27.341" r="27.341" transform="translate(2.441)" fill="#4255ff"/>
    </g>
    <path id="Path_2855" data-name="Path 2855" d="M0,7.7H12.217V19.446l-7.975-.929S1.785,19.668.872,17.828A80.387,80.387,0,0,1,0,7.7Z" transform="translate(19.783 22.466)" fill="#fff"/>
    <path id="Path_2858" data-name="Path 2858" d="M15.857,7.715H3.849V19.37l7.975-.929a10.321,10.321,0,0,0,3.2-3.307A52.769,52.769,0,0,0,15.857,7.715Z" transform="translate(28.151 22.452)" fill="#e5e5e5"/>
    <path id="Path_2859" data-name="Path 2859" d="M0,0A15.883,15.883,0,0,0,6.149,1.591,14.07,14.07,0,0,0,12.055,0a14.82,14.82,0,0,0,5.592,1.591A8.118,8.118,0,0,0,22.182,0a16.613,16.613,0,0,0,6.464,1.591A18.136,18.136,0,0,0,35.3,0V8.146H0Z" transform="translate(14.35 35.994)" fill="#fff"/>
    <rect id="Rectangle_4381" data-name="Rectangle 4381" width="6" height="6" transform="translate(22 23)" fill="#fff"/>
    <rect id="Rectangle_4384" data-name="Rectangle 4384" width="6" height="6" transform="translate(22 16)" fill="#fff"/>
    <rect id="Rectangle_4382" data-name="Rectangle 4382" width="6" height="6" transform="translate(29 23)" fill="#fff"/>
    <rect id="Rectangle_4385" data-name="Rectangle 4385" width="6" height="6" transform="translate(29 16)" fill="#fff"/>
    <rect id="Rectangle_4383" data-name="Rectangle 4383" width="6" height="6" transform="translate(36 23)" fill="#fff"/>
    <rect id="Rectangle_4386" data-name="Rectangle 4386" width="6" height="6" transform="translate(36 16)" fill="#fff"/>
  </g>
</svg>
