<svg xmlns="http://www.w3.org/2000/svg" xmlns:xlink="http://www.w3.org/1999/xlink" width="64" height="64" viewBox="0 0 64 64">
  <defs>
    <clipPath id="clip-CarWash">
      <rect width="64" height="64"/>
    </clipPath>
  </defs>
  <g id="CarWash" clip-path="url(#clip-CarWash)">
    <rect id="Rectangle_4189" data-name="Rectangle 4189" width="38" height="54" rx="5" transform="translate(13 4)" fill="#4f8198"/>
    <g id="Group_2603" data-name="Group 2603" transform="translate(1.781 12.223)">
      <path id="Rectangle_856" data-name="Rectangle 856" d="M0,0H2.431a0,0,0,0,1,0,0V2.026A1.216,1.216,0,0,1,1.216,3.242h0A1.216,1.216,0,0,1,0,2.026V0A0,0,0,0,1,0,0Z" transform="translate(22.621 27.536)" fill="#545454"/>
      <path id="Rectangle_1790" data-name="Rectangle 1790" d="M0,0H2.431a0,0,0,0,1,0,0V2.026A1.216,1.216,0,0,1,1.216,3.242h0A1.216,1.216,0,0,1,0,2.026V0A0,0,0,0,1,0,0Z" transform="translate(35.588 27.536)" fill="#545454"/>
      <path id="Path_1169" data-name="Path 1169" d="M3.027,0h9.454a2.431,2.431,0,0,1,2.431,2.431l.486,8.1a.81.81,0,0,1-.81.81H.81a.81.81,0,0,1-.81-.81l.6-8.1A2.431,2.431,0,0,1,3.027,0Z" transform="translate(22.621 17)" fill="#d4efff"/>
      <path id="Path_1170" data-name="Path 1170" d="M.352,0H1.878A.322.322,0,0,1,2.23.278V1.2a.107.107,0,0,1-.117.093h-2A.107.107,0,0,1,0,1.2V.278A.322.322,0,0,1,.352,0Z" transform="translate(37.209 22.187)" fill="#d4efff"/>
      <path id="Path_1171" data-name="Path 1171" d="M.312,0H1.666a.3.3,0,0,1,.312.278V1.2a.1.1,0,0,1-.1.093H.1A.1.1,0,0,1,0,1.2V.278A.3.3,0,0,1,.312,0Z" transform="translate(21 22.187)" fill="#d4efff"/>
      <path id="Path_381" data-name="Path 381" d="M1.355,0A1.341,1.341,0,0,1,2.717,1.307a1.322,1.322,0,0,1-1.355,1.3A1.341,1.341,0,0,1,0,1.3,1.322,1.322,0,0,1,1.355,0Z" transform="matrix(0.998, -0.07, 0.07, 0.998, 23.964, 24.305)" fill="#fff"/>
      <path id="Path_382" data-name="Path 382" d="M1.355,0A1.341,1.341,0,0,1,2.717,1.307a1.322,1.322,0,0,1-1.355,1.3A1.341,1.341,0,0,1,0,1.3,1.322,1.322,0,0,1,1.355,0Z" transform="matrix(0.998, -0.07, 0.07, 0.998, 34.292, 24.305)" fill="#fff"/>
      <path id="Path_1172" data-name="Path 1172" d="M1.673,0h9.264a1.511,1.511,0,0,1,1.487,1.534l.213,1.534A1.511,1.511,0,0,1,11.15,4.6H1.487A1.511,1.511,0,0,1,0,3.068L.186,1.534A1.511,1.511,0,0,1,1.673,0Z" transform="translate(23.964 18.072)" fill="#83cbfb"/>
      <rect id="Rectangle_1789" data-name="Rectangle 1789" width="5.673" height="1.621" rx="0.81" transform="translate(27.483 25.104)" fill="#595959"/>
    </g>
    <rect id="Rectangle_4422" data-name="Rectangle 4422" width="6" height="23" transform="translate(43 20)" fill="#ffe282"/>
    <rect id="Rectangle_4423" data-name="Rectangle 4423" width="6" height="23" transform="translate(15 20)" fill="#ffe282"/>
    <rect id="Rectangle_4424" data-name="Rectangle 4424" width="8.596" height="20" transform="translate(42 14.904) rotate(90)" fill="#ffe282"/>
  </g>
</svg>
