<svg xmlns="http://www.w3.org/2000/svg" xmlns:xlink="http://www.w3.org/1999/xlink" width="56" height="56" viewBox="0 0 56 56">
  <defs>
    <clipPath id="clip-ZoneCP6CommercialLow">
      <rect width="56" height="56"/>
    </clipPath>
  </defs>
  <g id="ZoneCP6CommercialLow" clip-path="url(#clip-ZoneCP6CommercialLow)">
    <g id="a" transform="translate(0.26 1.101)">
      <g id="Group_2881" data-name="Group 2881">
        <path id="Path_4125" data-name="Path 4125" d="M1.75,26.747,30.079,44.431,53.73,26.747l-28.9-14.275Z" fill="#00c1ff"/>
        <path id="Path_4126" data-name="Path 4126" d="M15.248,26.056l15.03,9.29V29.757l-15.03-8.868Z" fill="#909090"/>
        <path id="Path_4127" data-name="Path 4127" d="M30.279,35.346l9.857-7.511V22.668l-9.857,7.089Z" fill="#0071a9"/>
        <path id="Path_4128" data-name="Path 4128" d="M18.22,17.723l11.445,6.312,7.5-4.958L25.272,14.122Z" fill="#b8b8b8"/>
        <path id="Path_4129" data-name="Path 4129" d="M26.7,21.169l2.965,1.391,5.542-3.491-3.333-1.287Z" fill="#9f9f9f"/>
        <path id="Path_4130" data-name="Path 4130" d="M14.027,20.517a.325.325,0,0,0-.324-.346h-.98a.325.325,0,0,0-.324.346c.043.656.136,2.068.175,2.657a.285.285,0,0,0,.284.267h.71a.286.286,0,0,0,.285-.267C13.892,22.585,13.984,21.173,14.027,20.517Z" fill="#df3d3d" fill-rule="evenodd"/>
        <path id="Path_4131" data-name="Path 4131" d="M43.021,22.064a.328.328,0,0,0-.088-.242.322.322,0,0,0-.237-.1h-.982a.325.325,0,0,0-.324.345c.043.687.138,2.213.176,2.831a.286.286,0,0,0,.285.268h.708a.286.286,0,0,0,.285-.268C42.883,24.277,42.978,22.751,43.021,22.064Z" fill="#df3d3d" fill-rule="evenodd"/>
        <path id="Path_4132" data-name="Path 4132" d="M37.164,19.077A15.751,15.751,0,0,0,39.5,20.831a16.1,16.1,0,0,0,2.822.838L30.279,30.1,12.919,19.96a28.23,28.23,0,0,0,3.129-.883,14.278,14.278,0,0,0,2.172-1.354l11.445,6.312Z" fill="#9a8f4a"/>
        <path id="Path_4133" data-name="Path 4133" d="M18.22,17.723a14.278,14.278,0,0,1-2.172,1.354,28.23,28.23,0,0,1-3.129.883L30.279,30.1l-.614-6.066Z" fill="#c6b23f"/>
        <path id="Path_4134" data-name="Path 4134" d="M18.353,12.26l7.211,3.371,4.547-2.744-7.52-3.52Z" fill="#b8b8b8"/>
        <path id="Path_4135" data-name="Path 4135" d="M24.782,21.423l5.329-3.712V14.689l-5.329,3.44Z" fill="#555"/>
        <path id="Path_4136" data-name="Path 4136" d="M18.353,17.938l6.429,3.485V18.129l-6.429-3.19Z" fill="#909090"/>
        <path id="Path_4137" data-name="Path 4137" d="M19.634,12.22,25.582,14.8l3.3-1.829-6.244-2.8Z" fill="#9f9f9f"/>
        <path id="Path_4138" data-name="Path 4138" d="M16.421,14.136a.329.329,0,0,0-.083-.249.326.326,0,0,0-.241-.107h-.958a.325.325,0,0,0-.24.107.322.322,0,0,0-.083.249c.044.446.117,1.2.155,1.593a.286.286,0,0,0,.284.258h.727a.286.286,0,0,0,.284-.258C16.3,15.335,16.377,14.582,16.421,14.136Z" fill="#df3d3d" fill-rule="evenodd"/>
        <path id="Path_4139" data-name="Path 4139" d="M33.807,14.686a.326.326,0,0,0-.323-.356h-.959a.326.326,0,0,0-.323.356c.044.446.117,1.2.155,1.593a.285.285,0,0,0,.284.257h.727a.285.285,0,0,0,.284-.257C33.69,15.885,33.763,15.132,33.807,14.686Z" fill="#df3d3d" fill-rule="evenodd"/>
        <path id="Path_4140" data-name="Path 4140" d="M26.669,19.082a.326.326,0,0,0-.324-.354H25.166a.324.324,0,0,0-.323.354c.049.549.143,1.595.187,2.081a.285.285,0,0,0,.284.26H26.2a.285.285,0,0,0,.284-.26C26.525,20.677,26.619,19.631,26.669,19.082Z" fill="#df3d3d" fill-rule="evenodd"/>
        <path id="Path_4141" data-name="Path 4141" d="M31.253,30.227a.325.325,0,0,0-.324-.345h-1.2a.325.325,0,0,0-.324.345c.048.76.161,2.567.2,3.25a.286.286,0,0,0,.285.267h.869a.286.286,0,0,0,.285-.267C31.092,32.794,31.2,30.987,31.253,30.227Z" fill="#df3d3d" fill-rule="evenodd"/>
        <path id="Path_4142" data-name="Path 4142" d="M30.111,12.887a9.493,9.493,0,0,0,1.415.969,10.46,10.46,0,0,0,1.709.464l-7.29,4.749L15.167,13.487A18.371,18.371,0,0,0,17.047,13a8.747,8.747,0,0,0,1.306-.743l7.211,3.371Z" fill="#9a854a"/>
        <path id="Path_4143" data-name="Path 4143" d="M18.353,12.26A8.747,8.747,0,0,1,17.047,13a18.371,18.371,0,0,1-1.88.484l10.778,5.582-.381-3.438Z" fill="#c6a63f"/>
      </g>
      <path id="Path_879" d="M18.393,28V24.288l7.8,4.657v3.878Z" fill="#034464"/>
    </g>
  </g>
</svg>
