<?xml version="1.0" encoding="UTF-8" standalone="no"?>
<!DOCTYPE svg PUBLIC "-//W3C//DTD SVG 1.1//EN" "http://www.w3.org/Graphics/SVG/1.1/DTD/svg11.dtd">
<svg width="100%" height="100%" viewBox="0 0 40 40" version="1.1" xmlns="http://www.w3.org/2000/svg" xmlns:xlink="http://www.w3.org/1999/xlink" xml:space="preserve" xmlns:serif="http://www.serif.com/" style="fill-rule:evenodd;clip-rule:evenodd;stroke-linejoin:round;stroke-miterlimit:2;">
    <g transform="matrix(0.866871,0,0,0.874065,-1.2963,-0.32645)">
        <g transform="matrix(0.0781039,0,0,0.0774611,-38.7383,-1.25605)">
            <path d="M729.72,134.277C729.592,118.589 737.327,102.498 745.129,89.165C758.098,64.447 800.769,41.354 811.835,43.307C813.844,43.662 805.853,51.79 800.405,66.046C796.605,75.991 792.782,86.167 795.386,99.158C796.338,103.907 800.375,90.494 822.006,74.61C838.782,62.292 902.851,75.996 901.639,79.751C899.22,81.402 888.673,79.222 873.575,80.176C857.01,81.224 847.416,93.562 838.901,105.63C849.37,99.88 868.948,93.187 880.256,98.002C894.846,104.214 894.608,121.086 923.673,124.325C949.25,127.176 969.355,116.254 972.273,115.503C973.234,117.194 967.051,139.2 959.519,145.587C952.914,151.189 947.085,154.145 926.047,156.34C923.664,156.589 921.291,156.667 918.927,156.606C979.08,195.588 1018.96,263.658 1018.96,341.045C1018.96,461.963 921.598,560.132 801.676,560.132C681.753,560.132 584.392,461.963 584.392,341.045C584.392,245.557 645.109,164.254 729.72,134.277Z" style="fill:url(#_Radial1);"/>
        </g>
        <g>
            <g transform="matrix(0.257132,0,0,0.257132,-38.7383,-1.25605)">
                <ellipse cx="258.734" cy="101.419" rx="3.754" ry="9.742" style="fill:rgb(3,42,63);"/>
            </g>
            <g transform="matrix(0.257132,0,0,0.279328,-38.7383,-3.72335)">
                <ellipse cx="185.268" cy="102.193" rx="3.932" ry="8.968" style="fill:rgb(3,42,63);"/>
            </g>
        </g>
        <g transform="matrix(0.257132,0,0,0.257132,-38.7383,-1.25605)">
            <path d="M173.915,123.844L208.32,107.499L225.016,121.987C225.016,121.987 173.557,123.844 173.915,123.844Z" style="fill:rgb(216,240,250);"/>
        </g>
        <g transform="matrix(0.257132,0,0,0.257132,-38.7383,-1.25605)">
            <path d="M225.016,121.987C224.943,121.77 209.865,139.559 209.865,139.559L175.377,123.844C175.377,123.844 225.13,122.33 225.016,121.987Z" style="fill:rgb(22,102,127);"/>
        </g>
    </g>
    <defs>
        <radialGradient id="_Radial1" cx="0" cy="0" r="1" gradientUnits="userSpaceOnUse" gradientTransform="matrix(-1.12364,318.463,-323.77,-1.20478,795.756,236.258)"><stop offset="0" style="stop-color:rgb(160,220,238);stop-opacity:1"/><stop offset="1" style="stop-color:rgb(77,202,244);stop-opacity:1"/></radialGradient>
    </defs>
</svg>
