<svg xmlns="http://www.w3.org/2000/svg" xmlns:xlink="http://www.w3.org/1999/xlink" width="26" height="26" viewBox="0 0 26 26">
  <defs>
    <clipPath id="clip-CitizenWealth">
      <rect width="26" height="26"/>
    </clipPath>
  </defs>
  <g id="CitizenWealth" clip-path="url(#clip-CitizenWealth)">
    <g id="ZoneResidential" transform="translate(0.488 4.725)">
      <path id="Path_780" data-name="Path 780" d="M-10008-10483.238l13.47,9.613,11.246-9.613-13.739-7.762Z" transform="translate(10007.999 10492.358)" fill="#00ff25"/>
      <path id="Path_781" data-name="Path 781" d="M-9991.4-10483.771l5.753,4.076.073-5.636-5.826-3.857Z" transform="translate(9999.012 10492.896)" fill="#f9f3dd"/>
      <path id="Path_782" data-name="Path 782" d="M-9977.381-10480.8l4.206-3.6v-4.375l-1.609-2.164-2.6,4.523Z" transform="translate(9990.733 10493.942)" fill="#008f15"/>
      <path id="Path_783" data-name="Path 783" d="M-9991.32-10492.913l5.724,3.653,2.641-4.535-5.916-3.026Z" transform="translate(9998.963 10496.821)" fill="#bc8459"/>
    </g>
    <g id="InfoIconCompanyProfit" transform="translate(5.476 2.789)">
      <g id="Group_241" data-name="Group 241">
        <path id="Path_264" data-name="Path 264" d="M9951.752,111.707l-5.064,3.778-9.982-5.721,4.691-3.631Z" transform="translate(-9936.704 -106.133)" fill="#c1ff67"/>
        <path id="Path_267" data-name="Path 267" d="M9958.815,118.5v3.7l9.892,5.77v-3.9Z" transform="translate(-9958.815 -114.916)" fill="#72ab5e"/>
        <path id="Path_265" data-name="Path 265" d="M9936.674,133.829l4.7-3.924.064-3.473-4.76,3.473Z" transform="translate(-9926.78 -120.779)" fill="#9adf4b"/>
        <ellipse id="Ellipse_165" data-name="Ellipse 165" cx="3" cy="1.5" rx="3" ry="1.5" transform="translate(4.036 3.032)" fill="#458100"/>
      </g>
    </g>
  </g>
</svg>
