<svg xmlns="http://www.w3.org/2000/svg" xmlns:xlink="http://www.w3.org/1999/xlink" width="40" height="40" viewBox="0 0 40 40">
  <defs>
    <clipPath id="clip-CityBeach">
      <rect width="40" height="40"/>
    </clipPath>
  </defs>
  <g id="CityBeach" clip-path="url(#clip-CityBeach)">
    <g id="ResourceRecreation" transform="translate(0.534 -0.795)">
      <path id="Path_639" data-name="Path 639" d="M0,.017A5.1,5.1,0,0,1,2.141,2.542c.851,1.909.947,1.543,1.262,3.476a16.937,16.937,0,0,1,0,4.254S5.833,7.434,5.93,5.043A4.27,4.27,0,0,0,3.79.7,7.38,7.38,0,0,0,0,.017Z" transform="translate(22.466 7.089) rotate(21)" fill="#97f120"/>
      <path id="Path_638" data-name="Path 638" d="M0,.026A6.426,6.426,0,0,1,2.144,3.391C3,5.936,3.093,5.449,3.411,8.024a30.023,30.023,0,0,1,0,5.666S5.842,9.915,5.936,6.729,5.159,2.125,3.79.947,0,.026,0,.026Z" transform="translate(22.883 7.29) rotate(-41)" fill="#97f120"/>
      <path id="Path_636" data-name="Path 636" d="M11.053,1.06s-4.1-2.45-6.814.005S-.036,9.35-.036,9.35A43.417,43.417,0,0,1,5.136,3.465,9.408,9.408,0,0,1,11.053,1.06Z" transform="matrix(0.819, 0.574, -0.574, 0.819, 15.316, 0.426)" fill="#97f120"/>
      <path id="Path_631" data-name="Path 631" d="M5760.236-5534.152h31.335a19.894,19.894,0,0,1-15.8,8.169A18.872,18.872,0,0,1,5760.236-5534.152Z" transform="translate(-5756.438 5562.516)" fill="#1abbff"/>
      <path id="Path_632" data-name="Path 632" d="M5764.962-5539.978h27.418s-8.943-5.508-15.8-5.508S5764.962-5539.978,5764.962-5539.978Z" transform="translate(-5759.139 5568.99)" fill="#fbba78"/>
      <path id="Path_633" data-name="Path 633" d="M5789.511-5567.535a42.568,42.568,0,0,1,1.8-7.573,56.708,56.708,0,0,1,4.559-9.308l.427.4s-1.928,4.771-3.082,8.9a25.158,25.158,0,0,0-.931,7.573Z" transform="translate(-5773.165 5591.233)" fill="#845920"/>
      <path id="Path_634" data-name="Path 634" d="M5799.021-5583.547s-4.383-2.453-7.272,0-4.556,8.276-4.556,8.276a44.268,44.268,0,0,1,5.515-5.877A10.451,10.451,0,0,1,5799.021-5583.547Z" transform="translate(-5775.564 5590.596)" fill="#97f120"/>
      <path id="Path_635" data-name="Path 635" d="M13.321,1.608s-4.91-3.086-7.8-.635S.031,9.61.031,9.61,4.417,6.675,7.306,4.224A11.128,11.128,0,0,1,13.321,1.608Z" transform="matrix(0.899, -0.438, 0.438, 0.899, 10.678, 11.289)" fill="#9fff21"/>
      <path id="Path_637" data-name="Path 637" d="M5804.914-5583.6a6.4,6.4,0,0,1,2.144,3.361c.851,2.543.947,2.055,1.263,4.629a29.859,29.859,0,0,1,0,5.66s2.432-3.773,2.529-6.956-.775-4.6-2.143-5.776S5804.914-5583.6,5804.914-5583.6Z" transform="translate(-5781.723 5590.74)" fill="#97f120"/>
    </g>
  </g>
</svg>
