<svg xmlns="http://www.w3.org/2000/svg" xmlns:xlink="http://www.w3.org/1999/xlink" width="40" height="40" viewBox="0 0 40 40"><defs><clipPath id="b"><rect width="40" height="40"/></clipPath></defs><g id="a"><g transform="translate(-2.015)"><path d="M733.505-302.172l20.122,17.839,18.7-12.691v-1.956l-38.826-5.048Z" transform="translate(-731 323.634)" fill="#84735f"/><path d="M1223.505-1132.038l20.088,17.21,18.749-12.147-20.253-17Z" transform="translate(-1221 1151.599)" fill="#585858"/><path d="M-112.516-248.1l4.523-2.884v-3.2l-4.523,2.777-3.15-2.567v3.3Z" transform="translate(146.866 274.412)" fill="#b6b6b6"/><path d="M-112.516-248.1l4.523-2.884v-3.2l-4.523,2.777-3.15-2.567v3.3Z" transform="translate(134.153 264.01)" fill="#b6b6b6"/><path d="M-108-253.861l-3.223-2.317-4.46,2.5,3.129,2.613Z" transform="translate(146.864 274.1)" fill="#e1a48d"/><path d="M-108-253.861l-3.223-2.317-4.46,2.5,3.129,2.613Z" transform="translate(138.774 276.412)" fill="#e6e6e6"/><path d="M-108-253.861l-3.223-2.317-4.46,2.5,3.129,2.613Z" transform="translate(134.151 263.699)" fill="#e1a48d"/><path d="M-112.941-248.1l4.523-2.884v-3.2l-4.523,2.777Z" transform="translate(147.29 274.412)" fill="#9d9b9b"/><path d="M-112.941-248.1l4.523-2.884v-3.2l-4.523,2.777Z" transform="translate(134.578 264.01)" fill="#9d9b9b"/><path d="M-112.516-248.1l4.523-2.884v-3.2l-4.523,2.777-3.15-2.567v3.3Z" transform="translate(138.776 267.478)" fill="#b6b6b6"/><path d="M-112.516-248.1l4.523-2.884v-3.2l-4.523,2.777-3.15-2.567v3.3Z" transform="translate(122.596 272.1)" fill="#b6b6b6"/><path d="M-127.035-241.826l6.134-4.025,6.348,4.6.763-.571s-7.676-5.115-7.263-5.249l5.411-3.365,6.888,5.321,1.138-.732-8.588-6.29-6.763,3.888-10.742-9.959,4.721,6.071-5.8,3.684,1.526,1.21,5.024-3.193,4.72,3.365-5.472,3.482Z" transform="translate(143.889 273.784)" fill="#807d7d"/><path d="M-112.516-248.239l4.523-2.884v-2.136l-4.523,2.777-1.527-2.567h-1.623v2.243Z" transform="translate(135.309 282.645)" fill="#b6b6b6"/><path d="M-112.516-247.089l4.523-2.884.243-9.75-4.371,2.688-2.2-3.234-1.178,1.53-.165,9.084Z" transform="translate(127.219 268.782)" fill="#ccc"/><path d="M-108-253.861l-3.223-2.317-4.46,2.5,3.129,2.613Z" transform="translate(138.774 267.166)" fill="#e6e6e6"/><path d="M-108-253.861l-3.223-2.317-4.46,2.5,3.129,2.613Z" transform="translate(122.594 271.789)" fill="#e9baa8"/><path d="M-109.8-253.461l-1.674-3.258L-116.586-254l1.883,3.465Z" transform="translate(129.468 262.459)" fill="#a9a9a9"/><path d="M-112.941-248.1l4.523-2.884v-3.2l-4.523,2.777Z" transform="translate(139.2 267.478)" fill="#9d9b9b"/><path d="M-112.941-248.1l4.523-2.884v-3.2l-4.523,2.777Z" transform="translate(123.021 272.1)" fill="#9d9b9b"/><path d="M-112.941-248.227l4.523-2.884v-2.227l-4.523,2.777Z" transform="translate(135.733 282.632)" fill="#9d9b9b"/><path d="M-112.941-247.2l4.523-2.884.374-9.857-4.9,2.932Z" transform="translate(127.643 268.892)" fill="#9d9b9b"/><path d="M-112.516-247.088l4.523-2.884.243-9.75-4.523,2.777-1.831-3.4-1.562,1.1v9.589Z" transform="translate(132.997 272.248)" fill="#ccc"/><path d="M-112.516-248.006l4.523-2.884-.246-3.459-4.276,2.071-3.15-2.483v4.188Z" transform="translate(128.375 276.633)" fill="#b6b6b6"/><path d="M-107.955-253.633l-3.223-2.317-4.46,2.5,3.129,2.613Z" transform="translate(128.379 275.292)" fill="#e6e6e6"/><path d="M-112.941-247.963l4.523-2.884v-4.188l-4.523,2.777Z" transform="translate(128.799 276.59)" fill="#9d9b9b"/><path d="M-109.913-253.592l-1.613-3.1-4.819,2.65,1.843,3.4Z" transform="translate(135.261 265.93)" fill="#a9a9a9"/><path d="M-112.941-247.2l4.523-2.884.374-9.857-4.723,2.742Z" transform="translate(133.422 272.359)" fill="#9d9b9b"/><path d="M-110.957-245.1l2.964-4.167v-3.2l-3.115-11.429-5.42-3.873-.241,18.208Z" transform="translate(138.776 275.005)" fill="#d2e1e6"/><path d="M-111.708-244.559l4.812-2.924.529-23.147-5.341,7.209Z" transform="translate(139.392 274.468)" fill="#768997"/><path d="M-123.539-262.6l4.851-6.993,5.915,3.5-5.311,7.236Z" transform="translate(145.786 270)" fill="#eaf9ff"/><path d="M1.609-.626c.638,0,1.156.259,1.156.578S2.247.529,1.609.529.453.271.453-.048.97-.626,1.609-.626Z" transform="translate(35.445 26.169)" fill="#595d57"/><path d="M.778-.345c.638,0,1.156.259,1.156.578S1.416.811.778.811-.378.552-.378.233.14-.345.778-.345Z" transform="translate(30.823 29.637)" fill="#595d57"/><path d="M1.211-.312c.638,0,1.156.259,1.156.578S1.849.844,1.211.844.055.585.055.266.573-.312,1.211-.312Z" transform="translate(28.511 29.792)" fill="#595d57"/><path d="M1.554-.76c.638,0,1.156.259,1.156.578S2.192.4,1.554.4.4.137.4-.182.915-.76,1.554-.76Z" transform="translate(21.577 35.259)" fill="#595d57"/><path d="M1.119-.828c.638,0,1.156.259,1.156.578S1.757.328,1.119.328-.037.069-.037-.25.48-.828,1.119-.828Z" transform="translate(4.241 20.391)" fill="#595d57"/><path d="M-123.469-261.635l5.42,3.946,5.092-4.712-.247,10.142-4.844,2.6-5.42-3.763Z" transform="translate(145.774 273.132)" fill="#1ec2ff" opacity="0.39"/><path d="M-108-253.861l-1.758-2.317h-1.465l-4.46,2.5h1.5l1.633,2.613Z" transform="translate(135.307 283.346)" fill="#e9baa8"/><circle cx="1" cy="1" r="1" transform="translate(28.015 28)" fill="#71c93f"/><circle cx="1.5" cy="1.5" r="1.5" transform="translate(30.015 27)" fill="#81f340"/><circle cx="1" cy="1" r="1" transform="translate(36.015 24)" fill="#71c93f"/><circle cx="1" cy="1" r="1" transform="translate(4.015 18)" fill="#71c93f"/><circle cx="1.5" cy="1.5" r="1.5" transform="translate(21.015 32)" fill="#65ff0e"/></g></g></svg>