<svg xmlns="http://www.w3.org/2000/svg" xmlns:xlink="http://www.w3.org/1999/xlink" width="64" height="64" viewBox="0 0 64 64"><defs><clipPath id="b"><rect width="64" height="64"/></clipPath></defs><g id="a"><path d="M-1178.7,35.717l20.7-14.415a6.031,6.031,0,0,1,2.235-1.436c3.778-1.362,8.129,1.453,9.718,6.286,1.516,4.611-.027,9.392-3.45,11.006L-1170.761,51.5Z" transform="translate(1190.025 -6.389)" fill="#7fc3ff"/><path d="M-1178.882,35.271l20.877-13.968a6.031,6.031,0,0,1,2.235-1.436c4.547-1.514,7.684,2.578,7.684,2.578s-7.276,3.86-23.642,17.132Z" transform="translate(1190.025 -6.39)" fill="#92ccff"/><path d="M7.3-.078c4.015-.058,7.213,4.02,7.142,9.108s-3.383,9.26-7.4,9.318S-.166,14.328-.1,9.24,3.287-.02,7.3-.078Z" transform="translate(4.87 31.075) rotate(-19)" fill="#479ce6"/><path d="M4.869-.052C7.545-.09,9.676,2.691,9.628,6.16s-2.257,6.313-4.934,6.351S-.113,9.769-.065,6.3,2.192-.013,4.869-.052Z" transform="translate(8.098 32.764) rotate(-19)" fill="#0b406e"/><path d="M9951.681-41.21l-3.494,8.271s-.463,4.744,3.492,4.744,3.7-4.744,3.7-4.744Z" transform="translate(-9938.895 80.445)" fill="#39c2ff"/><ellipse cx="1" cy="1.5" rx="1" ry="1.5" transform="translate(11 47)" fill="#d2f9ff"/><ellipse cy="0.5" ry="0.5" transform="translate(15 50)" fill="#a4ecff"/><rect width="11.219" height="17.61" transform="translate(7.273 37.703)" fill="none"/><path d="M-1179,35.086l20.995-13.784a6.031,6.031,0,0,1,2.235-1.436c3.778-1.362,8.129,1.453,9.718,6.286,1.516,4.611-.027,9.392-3.45,11.006L-1170.761,51.5Z" transform="translate(1204.493 -5.547)" fill="#e4bf8d"/><path d="M-1179,35.088l20.995-13.784a6.031,6.031,0,0,1,2.235-1.436c4.547-1.514,7.684,2.578,7.684,2.578s-7.276,3.86-23.642,17.132Z" transform="translate(1204.493 -5.549)" fill="#f9d49c"/><path d="M7.3-.078c4.015-.058,7.213,4.02,7.142,9.108s-3.383,9.26-7.4,9.318S-.166,14.328-.1,9.24,3.287-.02,7.3-.078Z" transform="translate(19.338 31.917) rotate(-19)" fill="#a97735"/><path d="M4.869-.052C7.545-.09,9.676,2.691,9.628,6.16s-2.257,6.313-4.934,6.351S-.113,9.769-.065,6.3,2.192-.013,4.869-.052Z" transform="translate(22.566 33.605) rotate(-19)" fill="#6c3e27"/><path d="M9953.912-41.21s-5.62,5.32-5.726,6.469-.759,3.71,5.724,3.71,6.017-2.444,6.06-3.71S9953.912-41.21,9953.912-41.21Z" transform="translate(-9926.063 83.949)" fill="#77513d"/><ellipse cx="2" cy="1" rx="2" ry="1" transform="translate(24 49)" fill="#94644a"/><circle cx="0.5" cy="0.5" r="0.5" transform="translate(31 51)" fill="#94644a"/><rect width="18.387" height="13.773" transform="translate(18.813 41.54)" fill="none"/></g></svg>