<svg xmlns="http://www.w3.org/2000/svg" xmlns:xlink="http://www.w3.org/1999/xlink" width="64" height="64" viewBox="0 0 64 64"><defs><clipPath id="b"><path d="M0,0,6.649.023l.028,8.143L.028,8.143Z" fill="none"/></clipPath><clipPath id="c"><rect width="5.007" height="5.66" fill="none"/></clipPath><clipPath id="g"><rect width="64" height="64"/></clipPath></defs><g id="f"><path d="M0,16.534,23.359,1.849A6.77,6.77,0,0,1,25.84.36c4.192-1.413,9.019,1.5,10.781,6.51,1.681,4.777-.033,9.732-3.833,11.406L9.193,33.146Z" transform="matrix(1, 0.017, -0.017, 1, 8.146, 10.639)" fill="#7fc3ff"/><path d="M0,16.713,23.877,1.842A6.77,6.77,0,0,1,26.357.353C31.4-1.218,34.882,3.02,34.882,3.02s-8.075,4-26.241,17.762Z" transform="matrix(1, 0.017, -0.017, 1, 7.628, 10.637)" fill="#92ccff"/><g transform="matrix(1, 0.017, -0.017, 1, 6.216, 46.306)"><g transform="translate(0 0)"><path d="M1.4,0,.007,2.441A1.237,1.237,0,0,0,1.4,3.841a1.318,1.318,0,0,0,1.472-1.4Z" transform="translate(0.798 0.452)" fill="#39c2ff"/><ellipse cx="0.48" cy="0.497" rx="0.48" ry="0.497" transform="translate(1.328 2.636)" fill="#d2f9ff"/><ellipse cx="0.16" cy="0.124" rx="0.16" ry="0.124" transform="translate(2.929 3.63)" fill="#a4ecff"/></g></g><ellipse cx="7.822" cy="9.56" rx="7.822" ry="9.56" transform="translate(4.627 27.205) rotate(-18)" fill="#d5ebff" opacity="0.66"/><ellipse cx="7.822" cy="9.56" rx="7.822" ry="9.56" transform="translate(1.092 29.142) rotate(-18)" fill="#479ce6"/><ellipse cx="5.215" cy="6.518" rx="5.215" ry="6.518" transform="translate(4.627 30.947) rotate(-18)" fill="#0b406e"/><path d="M1183.685,121.5c-1.471-2.083-2.392-3.548-.921-6.077a6.493,6.493,0,0,1,4.23-2.969s.236-4.589,1.655-6.434,5.674-2.142,5.674-2.142,3.517-.21,4.374,1.428-.089,3.637-.946,5.124-1.773,1.012-2.482,2.023a17.584,17.584,0,0,0-1.418,4.046s-3.546-1.405-5.2,1.064,0,6.189,0,6.189S1185.156,123.578,1183.685,121.5Z" transform="translate(-1181.673 -70.39)" fill="#39c2ff"/><path d="M1185.074,122.741c-.916-1.488-2.778-2.95-1.891-5.163s5.438-3.689,5.438-3.689-.118-4.731,1.655-6.784,5.438-1.428,5.438-1.428-3.014.8-4.255,2.975-.709,5.713-.709,5.713-4.108,1.636-5.083,3.927,1.182,5.237,1.182,5.237S1185.99,124.229,1185.074,122.741Z" transform="translate(-1182.063 -72.112)" fill="#d2f9ff"/><g transform="matrix(0.719, 0.695, -0.695, 0.719, 3.637, 33.922)"><g transform="translate(0 0)"><path d="M2.081.007.022,3.825A1.926,1.926,0,0,0,2.1,6.025,2.015,2.015,0,0,0,4.284,3.839Z" transform="translate(1.19 0.713)" fill="#39c2ff"/><path d="M.715,0a.755.755,0,0,1,.717.781.742.742,0,0,1-.712.776A.755.755,0,0,1,0,.778.742.742,0,0,1,.715,0Z" transform="translate(1.991 4.137)" fill="#d2f9ff"/><path d="M.238,0A.222.222,0,0,1,.477.2.218.218,0,0,1,.24.39.222.222,0,0,1,0,.195.218.218,0,0,1,.238,0Z" transform="translate(4.378 5.701)" fill="#a4ecff"/></g></g><g transform="translate(9.597 30.565) rotate(94)"><g transform="translate(0 0)"><path d="M1.567,0,.007,2.66S-.2,4.185,1.565,4.184A1.452,1.452,0,0,0,3.217,2.658Z" transform="translate(0.894 0.492)" fill="#39c2ff"/><ellipse cx="0.538" cy="0.541" rx="0.538" ry="0.541" transform="translate(1.454 3.219)" fill="#d2f9ff"/><ellipse cx="0.39" cy="0.564" rx="0.39" ry="0.564" transform="translate(2.558 2.235)" fill="#a4ecff"/></g></g><path d="M1194.572,104.321c-2.246,0-4.255,4.523-1.891,5.594a11.114,11.114,0,0,0,7.441,0c.816-.373.994-1.863,1.117-3.23C1200.37,103.768,1196.818,104.321,1194.572,104.321Z" transform="translate(-1183.811 -70.83)" fill="#1083b7" opacity="0.23"/><path d="M0,16.534,23.359,1.849A6.77,6.77,0,0,1,25.84.36c4.192-1.413,9.019,1.5,10.781,6.51,1.681,4.777-.033,9.732-3.833,11.406L9.193,33.146Z" transform="matrix(1, 0.017, -0.017, 1, 25.244, 10.652)" fill="#e4bf8d"/><path d="M0,16.713,23.877,1.842A6.77,6.77,0,0,1,26.357.353C31.4-1.218,34.882,3.02,34.882,3.02s-8.075,4-26.241,17.762Z" transform="matrix(1, 0.017, -0.017, 1, 24.727, 10.65)" fill="#f9d49c"/><ellipse cx="7.822" cy="9.56" rx="7.822" ry="9.56" transform="translate(21.211 27.555) rotate(-18)" fill="#f6f6f6" opacity="0.66"/><ellipse cx="7.822" cy="9.56" rx="7.822" ry="9.56" transform="translate(18.19 29.155) rotate(-18)" fill="#a97735"/><ellipse cx="5.215" cy="6.518" rx="5.215" ry="6.518" transform="translate(21.726 30.96) rotate(-18)" fill="#6c3e27"/><path d="M1183.685,121.5c-1.471-2.083-2.392-3.548-.921-6.077a6.493,6.493,0,0,1,4.23-2.969s.236-4.589,1.655-6.434,5.674-2.142,5.674-2.142,3.517-.21,4.374,1.428-.089,3.637-.946,5.124-1.773,1.012-2.482,2.023a17.584,17.584,0,0,0-1.418,4.046s-3.546-1.405-5.2,1.064,0,6.189,0,6.189S1185.156,123.578,1183.685,121.5Z" transform="translate(-1164.689 -70.403)" fill="#77513d"/><path d="M1185.074,122.741c-.916-1.488-2.778-2.95-1.891-5.163s5.438-3.689,5.438-3.689-.118-4.731,1.655-6.784,5.438-1.428,5.438-1.428-3.014.8-4.255,2.975-.709,5.713-.709,5.713-4.108,1.636-5.083,3.927,1.182,5.237,1.182,5.237S1185.99,124.229,1185.074,122.741Z" transform="translate(-1164.965 -72.099)" fill="#94644a"/><path d="M1194.572,104.321c-2.246,0-4.255,4.523-1.891,5.594a11.114,11.114,0,0,0,7.441,0c.816-.373.994-1.863,1.117-3.23C1200.37,103.768,1196.818,104.321,1194.572,104.321Z" transform="translate(-1166.893 -70.817)" fill="#20120b" opacity="0.13"/><g transform="matrix(0.719, 0.695, -0.695, 0.719, 19.958, 32.041)"><g transform="translate(0 0)"><path d="M2.081.015C.47.216.022,3.832.022,3.832A1.926,1.926,0,0,0,2.1,6.033,2.015,2.015,0,0,0,4.284,3.847S3.69-.187,2.081.015Z" transform="translate(1.19 0.705)" fill="#77513d"/><path d="M.715,0a.755.755,0,0,1,.717.781.742.742,0,0,1-.712.776A.755.755,0,0,1,0,.778.742.742,0,0,1,.715,0Z" transform="translate(1.991 4.137)" fill="#94644a"/><path d="M.238,0A.222.222,0,0,1,.477.2.218.218,0,0,1,.24.39.222.222,0,0,1,0,.195.218.218,0,0,1,.238,0Z" transform="translate(4.378 5.701)" fill="#94644a"/></g></g><g transform="matrix(1, 0.017, -0.017, 1, 24.092, 46.32)"><g transform="translate(0 0)"><path d="M1.4,0C.37.006.007,2.441.007,2.441A1.237,1.237,0,0,0,1.4,3.841a1.318,1.318,0,0,0,1.472-1.4S2.425-.005,1.4,0Z" transform="translate(0.798 0.452)" fill="#77513d"/><ellipse cx="0.48" cy="0.497" rx="0.48" ry="0.497" transform="translate(1.328 2.636)" fill="#94644a"/><ellipse cx="0.16" cy="0.124" rx="0.16" ry="0.124" transform="translate(2.929 3.63)" fill="#94644a"/></g></g></g></svg>