<svg xmlns="http://www.w3.org/2000/svg" xmlns:xlink="http://www.w3.org/1999/xlink" width="40" height="40" viewBox="0 0 40 40">
  <defs>
    <clipPath id="clip-Commercial">
      <rect width="40" height="40"/>
    </clipPath>
  </defs>
  <g id="Commercial" clip-path="url(#clip-Commercial)">
    <g id="ZoneCommercial" transform="translate(3.618 9.676)">
      <path id="Path_760" data-name="Path 760" d="M-10008-10481.777l17.855,11.426,14.908-11.426-18.214-9.223Z" transform="translate(10008 10491)" fill="#00c1ff"/>
      <path id="Path_761" data-name="Path 761" d="M-9906.379-10480.411l9.512,5.633.159-5.633-9.676-5.407Z" transform="translate(9914.85 10490.52)" fill="#0089cf"/>
      <path id="Path_762" data-name="Path 762" d="M-9888.85-10473.92l6.377-4.684v-5.279l-6.377,4.35Z" transform="translate(9906.835 10489.765)" fill="#0071a9"/>
      <path id="Path_763" data-name="Path 763" d="M-9906.281-10488.562l9.595,5.414,6.191-4.339-9.546-4.9Z" transform="translate(9914.813 10493.379)" fill="#73e0fc"/>
      <path id="Path_764" data-name="Path 764" d="M-9902.631-10487.7l7.563,3.955,4.154-2.826-7.31-3.717Z" transform="translate(9913.146 10492.44)" fill="#3ed2ff"/>
      <path id="Path_766" data-name="Path 766" d="M-9894.63-10482.259l4.217,2.333v-2.693l-4.217-2.334Z" transform="translate(9903.98 10487.368)" fill="#0089cf"/>
      <path id="Path_877" data-name="Path 877" d="M7.675,5.42l8.655,4.846V8.927L7.675,4.2Z" transform="translate(1.116 0.821)" fill="#05a3f4"/>
      <path id="Path_878" data-name="Path 878" d="M16.329,8.941l5.727-3.7V6.555l-5.727,3.774Z" transform="translate(2.085 0.949)" fill="#0089cf"/>
      <path id="Path_879" data-name="Path 879" d="M8.722,9.534v-3.1l6.2,3.477V13.15Z" transform="translate(1.136 1.33)" fill="#034464"/>
    </g>
  </g>
</svg>
