<svg xmlns="http://www.w3.org/2000/svg" xmlns:xlink="http://www.w3.org/1999/xlink" width="26" height="26" viewBox="0 0 26 26"><defs><clipPath id="b"><rect width="26" height="26"/></clipPath></defs><g id="a"><g transform="translate(7 3)"><path d="M3.3,0H7.7A3.161,3.161,0,0,1,11,3V9a1.054,1.054,0,0,1-1.1,1H1.1A1.054,1.054,0,0,1,0,9V3A3.161,3.161,0,0,1,3.3,0Z" transform="translate(0 5.002)" fill="#bee0eb"/><ellipse cx="3.5" cy="3" rx="3.5" ry="3" transform="translate(2)" fill="#c2f0ff"/></g><path d="M-164.779-792.484c-.966,0-1.55-.058-1.865-.364-.384-.375-.386-1.125-.355-2.65v-1.665h2.442v.583h1.221v-.583h5.493v.583h1.221v-.583h2.44v1.665c0,.06,0,.12,0,.178v.014c0,.059,0,.116,0,.172v.013c-.014,2.434-.015,2.633-2.21,2.633-.18,0-.376,0-.586,0h-.092l-.253,0h-6.531C-164.232-792.488-164.516-792.484-164.779-792.484Zm6.935-5.262h-5.493v-.583h-1.221v.583H-167v-.5c.01-2.971.01-2.971,2.49-3l.652-.008h.519v-.047a3.451,3.451,0,0,1,.124-1.206.819.819,0,0,1,.87-.5h3.682a.844.844,0,0,1,.618.191c.235.232.221.658.206,1.151v.058c0,.107-.008.228-.008.351h.639l.5,0c1.364,0,1.984.049,2.289.352s.291.891.254,1.949v.036c-.007.2-.015.429-.022.671v.5h-2.44v-.584h-1.22v.584Zm-4.481-4.3v.794h3.463v-.794Z" transform="translate(172.999 814.503)" fill="#696060"/></g></svg>