<svg xmlns="http://www.w3.org/2000/svg" xmlns:xlink="http://www.w3.org/1999/xlink" width="40" height="40" viewBox="0 0 40 40">
  <defs>
    <clipPath id="clip-Communications">
      <rect width="40" height="40"/>
    </clipPath>
  </defs>
  <g id="Communications" clip-path="url(#clip-Communications)">
    <path id="Path_3633" data-name="Path 3633" d="M292.908-951.844s3.785-2.724,4.549-2.477,13.463,8.922,14.663,11.2,0,10.542,0,10.542l-4.77,3.658Z" transform="translate(-282.304 958.599)" fill="#c9c6c6"/>
    <g id="Group_2728" data-name="Group 2728" transform="translate(9.651 5.464)">
      <path id="Path_1395" data-name="Path 1395" d="M13.606,10.684,2.619,1.915A2.687,2.687,0,0,0,1.68,1.4a1.154,1.154,0,0,0-.771.026,1.054,1.054,0,0,0-.525.53,2.349,2.349,0,0,0-.2,1L.09,10.271a4.92,4.92,0,0,0,.172,1.281,7.339,7.339,0,0,0,.5,1.334A7.624,7.624,0,0,0,1.5,14.121a5.54,5.54,0,0,0,.921.981l4.642,3.786,3.721,7.43.1-4.314,2.385,1.945a2.922,2.922,0,0,0,.959.548,1.247,1.247,0,0,0,.8.011,1.024,1.024,0,0,0,.553-.5,2.2,2.2,0,0,0,.225-.982l.2-7.379a4.864,4.864,0,0,0-.163-1.315,7.318,7.318,0,0,0-.507-1.374,7.663,7.663,0,0,0-.773-1.27A5.612,5.612,0,0,0,13.606,10.684Z" transform="translate(0 0)" fill="#f3f3f3"/>
      <path id="Ellipse_598" data-name="Ellipse 598" d="M1.247.964a2.6,2.6,0,0,1,.465.5,3.843,3.843,0,0,1,.376.651,3.946,3.946,0,0,1,.249.717,2.826,2.826,0,0,1,.084.7,1.392,1.392,0,0,1-.105.546.6.6,0,0,1-.266.3.549.549,0,0,1-.387.034,1.229,1.229,0,0,1-.468-.252,2.612,2.612,0,0,1-.464-.5,3.845,3.845,0,0,1-.374-.648A3.948,3.948,0,0,1,.109,2.3a2.834,2.834,0,0,1-.084-.7,1.4,1.4,0,0,1,.1-.546.6.6,0,0,1,.264-.3A.546.546,0,0,1,.778.714,1.219,1.219,0,0,1,1.247.964Z" transform="translate(2.873 7.063)" fill="#8d8d8d"/>
      <path id="Ellipse_599" data-name="Ellipse 599" d="M1.27.973a2.628,2.628,0,0,1,.469.506,3.855,3.855,0,0,1,.379.655,3.937,3.937,0,0,1,.25.719,2.807,2.807,0,0,1,.082.7,1.381,1.381,0,0,1-.108.546.6.6,0,0,1-.27.3.56.56,0,0,1-.392.031,1.253,1.253,0,0,1-.473-.255,2.638,2.638,0,0,1-.468-.505,3.857,3.857,0,0,1-.377-.652A3.939,3.939,0,0,1,.113,2.3,2.816,2.816,0,0,1,.03,1.6a1.392,1.392,0,0,1,.106-.547A.6.6,0,0,1,.4.755.557.557,0,0,1,.8.72,1.242,1.242,0,0,1,1.27.973Z" transform="translate(6.469 9.965)" fill="#8d8d8d"/>
      <path id="Ellipse_600" data-name="Ellipse 600" d="M1.292.983a2.655,2.655,0,0,1,.473.51,3.867,3.867,0,0,1,.381.658,3.929,3.929,0,0,1,.25.722,2.789,2.789,0,0,1,.081.7,1.37,1.37,0,0,1-.112.547.6.6,0,0,1-.275.3.572.572,0,0,1-.4.029,1.276,1.276,0,0,1-.478-.258,2.664,2.664,0,0,1-.472-.509,3.869,3.869,0,0,1-.379-.656,3.93,3.93,0,0,1-.25-.719,2.8,2.8,0,0,1-.082-.7,1.381,1.381,0,0,1,.11-.547.6.6,0,0,1,.273-.3.569.569,0,0,1,.4-.032A1.266,1.266,0,0,1,1.292.983Z" transform="translate(10.099 12.895)" fill="#8d8d8d"/>
    </g>
  </g>
</svg>
