<svg xmlns="http://www.w3.org/2000/svg" xmlns:xlink="http://www.w3.org/1999/xlink" width="32" height="32" viewBox="0 0 32 32"><defs><clipPath id="b"><rect width="32" height="32"/></clipPath></defs><g id="a"><path d="M5.527-.167c3,.226,5.64,5.057,5.893,10.79S9.767,20.786,6.765,20.56a8.123,8.123,0,0,0-2.153.226L-.411,9.732,1.995.2A13.91,13.91,0,0,1,5.527-.167Z" transform="matrix(-0.105, 0.995, -0.995, -0.105, 25.758, 15.733)" fill="#f1a800"/><path d="M4.61-.137C7.626.088,10.277,4.941,10.529,10.7s-1.988,10.248-5,10.023S-.143,15.647-.4,9.887,1.593-.362,4.61-.137Z" transform="matrix(-0.105, 0.995, -0.995, -0.105, 25.861, 14.448)" fill="#fff565"/><path d="M5.527-.167c3,.226,5.64,5.057,5.893,10.79S9.767,20.786,6.765,20.56a8.123,8.123,0,0,0-2.153.226L-.411,9.732,1.995.2A13.91,13.91,0,0,1,5.527-.167Z" transform="matrix(-0.105, 0.995, -0.995, -0.105, 25.82, 12.733)" fill="#f1a800"/><path d="M4.61-.137C7.626.088,10.277,4.941,10.529,10.7s-1.988,10.248-5,10.023S-.143,15.647-.4,9.887,1.593-.362,4.61-.137Z" transform="matrix(-0.105, 0.995, -0.995, -0.105, 25.923, 11.448)" fill="#fff565"/><path d="M5.527-.167c3,.226,5.64,5.057,5.893,10.79S9.767,20.786,6.765,20.56a8.123,8.123,0,0,0-2.153.226L-.411,9.732,1.995.2A13.91,13.91,0,0,1,5.527-.167Z" transform="matrix(-0.105, 0.995, -0.995, -0.105, 27.82, 8.733)" fill="#f1a800"/><path d="M4.61-.137C7.626.088,10.277,4.941,10.529,10.7s-1.988,10.248-5,10.023S-.143,15.647-.4,9.887,1.593-.362,4.61-.137Z" transform="matrix(-0.105, 0.995, -0.995, -0.105, 27.923, 7.448)" fill="#fff565"/><ellipse cx="4.135" cy="8.857" rx="4.135" ry="8.857" transform="translate(25.888 7.141) rotate(90)" fill="#ffdb65"/><path d="M110.205,499.869l15.939-3.229,1.889.994-17.828,4.093Z" transform="translate(-102.145 -489.128)" fill="#fff565"/><path d="M109.746,500.521l16.4-3.881.412,1.266-15.294,3.628Z" transform="translate(-100.995 -487.218)" fill="#fff565"/></g></svg>