<svg xmlns="http://www.w3.org/2000/svg" xmlns:xlink="http://www.w3.org/1999/xlink" width="32" height="32" viewBox="0 0 32 32"><defs><clipPath id="b"><rect width="32" height="32"/></clipPath></defs><g id="a"><path d="M10.979,0c5.153,0,9.331,4.669,9.331,10.428s-4.178,10.428-9.331,10.428S0,16.188,0,10.428,5.826,0,10.979,0Z" transform="translate(15.131 1.663) rotate(40)" fill="#de9c04"/><path d="M9.378,0c5.179,0,9.376,4.688,9.373,10.475s-4.2,10.481-9.382,10.483S-.007,16.267,0,10.479,4.2,0,9.378,0Z" transform="translate(14.784 1.311) rotate(40)" fill="#fff233"/><ellipse cx="7.135" cy="8.233" rx="7.135" ry="8.233" transform="translate(14.982 4.404) rotate(40)" fill="#f4c838"/><path d="M48.179,507.7l7.9-12.746h2.294l-9.521,14.53Z" transform="translate(-40 -488)" fill="#fff233"/><path d="M50.473,510.853l9.776-14.53,1.772,1.619-9.763,14.186Z" transform="translate(-40 -488)" fill="#fff233"/></g></svg>