<svg xmlns="http://www.w3.org/2000/svg" xmlns:xlink="http://www.w3.org/1999/xlink" width="32" height="32" viewBox="0 0 32 32"><defs><clipPath id="b"><rect width="32" height="32"/></clipPath></defs><g id="a"><path d="M221.242,496.2h8.571l2.5,6.446-16.465-.153Z" transform="translate(-213.185 -489.799)" fill="#f9f9f9"/><path d="M231.075,496.2h5.608l5.848,6.384h-11.27Z" transform="translate(-213.185 -489.799)" fill="#ace4f9"/><path d="M215.853,502.459,228.8,515.344Z" transform="translate(-213.185 -489.799)" fill="#c8ecfa"/><path d="M233.524,502.547h9.167l-13.528,12.808Z" transform="translate(-213.366 -489.799)" fill="#82dcff"/><path d="M237.965,502.547H228.8L242,515.521Z" transform="translate(-226.144 -489.843)" fill="#ceeefb"/><path d="M221.5,496.2l1.557,6.377h13.4l.362-6.377Z" transform="translate(-213.185 -489.799)" fill="#ceeefb"/><path d="M223.057,502.58l5.9,12.857,7.455-12.857Z" transform="translate(-213.185 -489.799)" fill="#ace4f9"/><path d="M229.88,495.1l-6.338,6.337,13.414.121Z" transform="translate(-213.647 -488.777)" fill="#e6f8ff"/></g></svg>