<svg xmlns="http://www.w3.org/2000/svg" xmlns:xlink="http://www.w3.org/1999/xlink" width="32" height="32" viewBox="0 0 32 32"><defs><clipPath id="b"><rect width="32" height="32"/></clipPath></defs><g id="a"><path d="M1.638,512.94l1.486,1.218,3.78-9.965-1.669-1.37-1.607-.714,1.848-4.82-1.1-1.964-2.736,8.033Z" transform="translate(7.876 -489.341)" fill="#c48c0b"/><path d="M3.717,514.042,5.833,515.5s6.957.982,10.264-3.686c4.552-5.538,1.4-11.692,1.4-11.692l-2.142-2.771-4.569,11.722Z" transform="translate(7.876 -489.341)" fill="#ba8c20"/><path d="M21.837-463.6a9.078,9.078,0,0,1-2.911-.47l6.758-6.673-1.724-2.435,3.726-9.719a8.483,8.483,0,0,1,1.973,1.237,8.84,8.84,0,0,1,3.107,6.61,11.054,11.054,0,0,1-2.661,7.439A10.864,10.864,0,0,1,21.837-463.6ZM17.018-465h0a8.527,8.527,0,0,1-.837-.619,8.841,8.841,0,0,1-3.108-6.61,11.053,11.053,0,0,1,2.66-7.439,11.477,11.477,0,0,1,4.147-3.128L17.93-476.2l2.865,1.141L17.019-465Z" transform="translate(-7.502 488.659)" fill="#f6ea3e"/><path d="M5.235,512.208a7.876,7.876,0,0,0,9.276-4.5c3.22-6.387-2.76-11.176-2.76-11.176L8.6,504.773l1.6,2.482Z" transform="translate(7.876 -489.341)" fill="#f2c83d"/><path d="M2.208,511.518s-4.516-1.782-3.279-7.668,5-6.841,5-6.841l-1.366,4.687,2.852,1.267Z" transform="translate(7.876 -489.341)" fill="#f2c83d"/></g></svg>