<svg xmlns="http://www.w3.org/2000/svg" xmlns:xlink="http://www.w3.org/1999/xlink" width="32" height="32" viewBox="0 0 32 32"><defs><linearGradient id="a" x1="0.5" x2="0.682" y2="1" gradientUnits="objectBoundingBox"><stop offset="0" stop-color="#feefdd"/><stop offset="1" stop-color="#f1e9dd"/></linearGradient><clipPath id="c"><rect width="32" height="32"/></clipPath></defs><g id="b"><g transform="translate(0.017 2.027)"><g transform="translate(0 1.599)"><g transform="translate(3.661 2.547)"><circle cx="12" cy="12" r="12" transform="translate(0.323 -0.172)" fill="#bfa25d"/><path d="M4.511,0V1.049A2.194,2.194,0,0,1,2.256,3.234,2.194,2.194,0,0,1,0,1.049,5.021,5.021,0,0,1,.257,0Z" transform="translate(4.88 10.534)" fill="#000c1e"/><path d="M0,.018,0,1.068A2.135,2.135,0,0,0,2.177,3.245a2.187,2.187,0,0,0,2.2-2.2A5.12,5.12,0,0,0,4.133,0Z" transform="translate(14.379 9.892) rotate(10)" fill="#000c1e"/></g><path d="M.745,0,7.5.052A.755.755,0,0,1,8.253.79a.728.728,0,0,1-.745.726L.757,1.464A.755.755,0,0,1,0,.727.728.728,0,0,1,.745,0Z" transform="translate(11.508 20.476) rotate(-16)" fill="#29241e"/><path d="M-6393.456-4941.065s5.5-5.99,11.509-6.562,12.528,4.276,12.528,4.276a10.48,10.48,0,0,0-1.675-8.093c-2.754-3.683-6.09-5.606-10.5-5.63s-7.516,1.644-10.758,5.874S-6393.456-4941.065-6393.456-4941.065Z" transform="translate(6397.315 4959.559)" fill="#564838" opacity="0.49" style="mix-blend-mode:multiply;isolation:isolate"/><path d="M-6397.88-4952.078l1.168,8.348,20.182-8.348,8.339,5.488,2.934,1.289-8.489-9.627-8.174-5.55-8.242,5.03Z" transform="translate(6398.24 4960.478)" fill="#b9ac8f"/><path d="M-6382.467-4960.478l5.965,8.181-9.441,5-10.935,3.653-1.48-8.916,8.045-2.893Z" transform="translate(6398.359 4960.478)" fill="url(#a)"/><path d="M80.571,89.641,88.1,87.273l-1.969-3.446L79.8,85.815Z" transform="translate(-78.177 -75.572)" fill="#7f7f7f"/><path d="M92.684,78.885l5.262-2.953-1.283-1.95-4.747,3.078Z" transform="translate(-81.183 -72.917)" fill="#847474"/><path d="M97.009,77.684,98.74,80l-.85.371L95.391,80l1.006,1.4-1.28.655-1.554-2.627,1.554-.659,1.494.446-.672-1.053Z" transform="translate(-78.584 -72.116)" fill="#7c7979"/></g><path d="M1.65-3.782S3.3-.68,3.3.441A1.6,1.6,0,0,1,1.65,2.18,1.6,1.6,0,0,1,0,.441C0-.68,1.65-3.782,1.65-3.782Z" transform="translate(3.278 5.243)" fill="#2e82ff"/><path d="M1.65-3.782S3.3-.68,3.3.441A1.6,1.6,0,0,1,1.65,2.18,1.6,1.6,0,0,1,0,.441C0-.68,1.65-3.782,1.65-3.782Z" transform="translate(10.045 3.782)" fill="#2e82ff"/><path d="M1.65-3.782S3.3-.68,3.3.441A1.6,1.6,0,0,1,1.65,2.18,1.6,1.6,0,0,1,0,.441C0-.68,1.65-3.782,1.65-3.782Z" transform="translate(25.835 5.243)" fill="#2e82ff"/></g></g></svg>