<svg xmlns="http://www.w3.org/2000/svg" xmlns:xlink="http://www.w3.org/1999/xlink" width="32" height="32" viewBox="0 0 32 32"><defs><linearGradient id="a" x1="0.617" y1="1.007" x2="0.541" y2="-0.062" gradientUnits="objectBoundingBox"><stop offset="0" stop-color="#e26546"/><stop offset="1" stop-color="#972e00"/></linearGradient><clipPath id="c"><rect width="32" height="32"/></clipPath></defs><g id="b"><g transform="translate(2 1)"><circle cx="14.5" cy="14.5" r="14.5" transform="translate(0 0)" fill="#8ce900"/><path d="M5.361.005V1.295A2.652,2.652,0,0,1,2.68,3.981,2.646,2.646,0,0,1,0,1.3,6.349,6.349,0,0,1,.307.008Z" transform="matrix(0.995, -0.105, 0.105, 0.995, 6.057, 12.051)" fill="#000c1e"/><path d="M0,0V1.289a2.6,2.6,0,1,0,5.2,0A6.506,6.506,0,0,0,4.909,0Z" transform="translate(17.578 10.961) rotate(11)" fill="#000c1e"/><path d="M-5800.3-4724.29a26.607,26.607,0,0,1,6.281,0,4,4,0,0,1,3.239,1.768c.253.273-1.369-.547-2.158-.285-.875.435-.272.769-2.456.765-1.834,0-3.336-.944-6.663-.622-1.384.12-2.513.714-2.1.356A7.875,7.875,0,0,1-5800.3-4724.29Z" transform="translate(5812.063 4743.504)" fill="#000c1e"/><g transform="translate(8.931 4.184)" fill="#09c9f4"><path d="M 1.866879463195801 3.101986169815063 C 1.113179445266724 3.101986169815063 0.4999994933605194 2.481896162033081 0.4999994933605194 1.719706177711487 C 0.4999994933605194 1.369516134262085 0.8618894815444946 0.409276157617569 1.467479467391968 -0.5914938449859619 C 2.158382177352905 -1.733229041099548 2.688061952590942 -2.147160291671753 2.862160205841064 -2.184343099594116 C 2.911759614944458 -2.132158994674683 3.099064350128174 -1.873847126960754 3.190719604492188 -0.8865538239479065 C 3.26004958152771 -0.1397738456726074 3.247029542922974 0.7223961353302002 3.238409519195557 1.292916178703308 C 3.235909461975098 1.458646178245544 3.233749389648438 1.603466153144836 3.233749389648438 1.719706177711487 C 3.233749389648438 2.481896162033081 2.620569467544556 3.101986169815063 1.866879463195801 3.101986169815063 Z" stroke="none"/><path d="M 2.626207113265991 -1.352825880050659 C 2.402564287185669 -1.10038685798645 2.110418319702148 -0.7091743946075439 1.790149450302124 -0.1548640727996826 C 1.243419408798218 0.7913858890533447 1.00572943687439 1.534235954284668 0.9999995231628418 1.719705939292908 C 0.9999995231628418 2.206195831298828 1.388879537582397 2.601985931396484 1.866879463195801 2.601985931396484 C 2.344869613647461 2.601985931396484 2.733749389648438 2.206195831298828 2.733749389648438 1.719705939292908 C 2.733749389648438 1.601415872573853 2.73591947555542 1.454025983810425 2.73846960067749 1.28536593914032 C 2.746369361877441 0.7620059251785278 2.75719952583313 0.04525589942932129 2.710749626159668 -0.6193240880966187 C 2.688813209533691 -0.9332126379013062 2.658105373382568 -1.172351837158203 2.626207113265991 -1.352825880050659 M 2.880769491195679 -2.687014102935791 C 3.911819458007813 -2.687014102935791 3.733749389648438 0.6801559329032898 3.733749389648438 1.719705939292908 C 3.733749389648438 2.759255886077881 2.897919654846191 3.601985931396484 1.866879463195801 3.601985931396484 C 0.835829496383667 3.601985931396484 -4.76837158203125e-07 2.759255886077881 -4.76837158203125e-07 1.719705939292908 C -4.76837158203125e-07 0.6801559329032898 1.849729537963867 -2.687014102935791 2.880769491195679 -2.687014102935791 Z" stroke="none" fill="#31aad9"/></g><path d="M.34.436a1.6,1.6,0,0,0-.232,1.55A1.915,1.915,0,0,0,1.373,3.4,3.281,3.281,0,0,0,4.04,3.057,1.755,1.755,0,0,0,4.548.828C4.128-.036,2.5.121,2.5.121S.923-.3.34.436Z" transform="matrix(0.978, -0.208, 0.208, 0.978, 14.697, 20.065)" fill="url(#a)"/></g></g></svg>