<svg xmlns="http://www.w3.org/2000/svg" xmlns:xlink="http://www.w3.org/1999/xlink" width="32" height="32" viewBox="0 0 32 32"><defs><clipPath id="b"><rect width="32" height="32"/></clipPath></defs><g id="a"><g transform="translate(0.678 1)"><g transform="translate(0 0)"><ellipse cx="15" cy="14.5" rx="15" ry="14.5" transform="translate(0.323 0)" fill="#beaa70"/><path d="M5.364.01s0,1.275,0,1.854A2.655,2.655,0,0,1,2.681,4.55,2.644,2.644,0,0,1,0,1.868,6.35,6.35,0,0,1,.309.579l3.382,0Z" transform="translate(6.472 12.646) rotate(-11)" fill="#000c1e"/><path d="M0,0V1.289a2.6,2.6,0,1,0,5.2,0A6.506,6.506,0,0,0,4.909,0Z" transform="translate(18.241 11.859) rotate(11)" fill="#000c1e"/><path d="M3.574.19a26.6,26.6,0,0,1,6.281,0c2.255.154,2.72.564,2.973.837s-.788.586-1.872.465-7.914-.125-9.3-.006-1.94-.11-1.523-.468S.844.374,3.574.19Z" transform="translate(9.017 19.032) rotate(8)" fill="#000c1e"/></g></g></g></svg>