<svg xmlns="http://www.w3.org/2000/svg" xmlns:xlink="http://www.w3.org/1999/xlink" width="32" height="32" viewBox="0 0 32 32"><defs><clipPath id="b"><rect width="32" height="32"/></clipPath></defs><g id="a"><g transform="translate(4.73 0.847) rotate(11)"><path d="M13.695-.024c8.14.007,14.853,8.059,15.952,16.087.814,5.949-3.8,7.941-9.832,9.692a32.68,32.68,0,0,1-7.345,1.428c-8.14-.007-12.494-.6-12.5-8.778S5.554-.032,13.695-.024Z" transform="translate(0 0)" fill="#d8c388"/><path d="M5.364.013s0,.822,0,1.194c0,.989-1.2,1.731-2.682,1.733S0,2.2,0,1.214A2.967,2.967,0,0,1,.309.383l3.383,0Z" transform="matrix(0.899, -0.438, 0.438, 0.899, 5.21, 15.621)" fill="#6f541e"/><path d="M0,0V.875C0,1.917,1.17,2.7,2.608,2.7s2.6-.776,2.6-1.818a3.3,3.3,0,0,0-.3-.875Z" transform="translate(16.547 11.134) rotate(11)" fill="#6f541e"/><path d="M1.856.218a6.831,6.831,0,0,1,3.258,0c1.17.161,1.41.6,1.541.884s-.409.621-.971.494a30.668,30.668,0,0,0-4.822,0C.143,1.724-.145,1.483.071,1.1S.441.415,1.856.218Z" transform="translate(10.661 21.491) rotate(-16)" fill="#000c1e"/></g></g></svg>