<svg xmlns="http://www.w3.org/2000/svg" xmlns:xlink="http://www.w3.org/1999/xlink" width="32" height="32" viewBox="0 0 32 32"><defs><clipPath id="b"><rect width="32" height="32"/></clipPath></defs><g id="a"><g transform="translate(-3.272 -0.811)"><g transform="translate(4.616 2.81)"><ellipse cx="15" cy="14.5" rx="15" ry="14.5" transform="translate(-0.343 0)" fill="#9f6dcb"/><path d="M5.36,0s0,1.275,0,1.854A2.651,2.651,0,0,1,2.68,4.545,2.647,2.647,0,0,1,0,1.861,6.348,6.348,0,0,1,.307.571l3.382,0Z" transform="matrix(0.996, -0.087, 0.087, 0.996, 5.389, 12.341)" fill="#000c1e"/><path d="M0,0V1.289a2.6,2.6,0,1,0,5.2,0A6.506,6.506,0,0,0,4.909,0Z" transform="translate(16.958 11.859) rotate(11)" fill="#000c1e"/><path d="M2.4.276a8.853,8.853,0,0,1,4.217,0c1.514.209,1.825.771,2,1.144s-.529.8-1.257.639a39.692,39.692,0,0,0-6.243,0c-.929.164-1.3-.148-1.023-.639S.568.531,2.4.276Z" transform="translate(9.351 19.91)" fill="#000c1e"/></g><g transform="translate(3.996 5.514)"><path d="M15.783,3.337a23.417,23.417,0,0,1,11.08,2.445,14.371,14.371,0,0,1,3.414,9.368c-3.1-.9-4.223-3.348-12.134-3.4C10.917,11.7,3.481,14.607,0,15.151A14.722,14.722,0,0,1,3.056,6.228C4.912,5.512,10.75,3.337,15.783,3.337Z" transform="translate(0 -3.337)" fill="#d6c18a"/></g><g transform="translate(0 12.445) rotate(-25)"><path d="M14.619.053c5.539-.01,11.485,2.769,13.2,4.473a15.007,15.007,0,0,1,1.9,7.083C26.975,8.926,21.7,7.322,14.344,7.474a26.9,26.9,0,0,0-14.3,4.073C.05,7.47,1.9,4.906,4.014,2.343A30.723,30.723,0,0,1,14.619.053Z" transform="translate(0 0)" fill="#ede5cf"/></g></g></g></svg>