<svg xmlns="http://www.w3.org/2000/svg" xmlns:xlink="http://www.w3.org/1999/xlink" width="32" height="32" viewBox="0 0 32 32"><defs><clipPath id="b"><rect width="32" height="32"/></clipPath></defs><g id="a"><g transform="translate(0.224)"><g transform="translate(-0.223 0)"><g transform="translate(0 0)" fill="#2f2d2d" stroke="#707070" stroke-width="4"><rect width="32" height="32" rx="9" stroke="none"/><rect x="2" y="2" width="28" height="28" rx="7" fill="none"/></g><g transform="translate(2.667 2.743)"><circle cx="13" cy="13" r="13" transform="translate(0.333 0.257)" fill="#ffc640"/><path d="M0,0,7.941-.024A1.629,1.629,0,0,1,6.348,1.622l-4.765.017A1.6,1.6,0,0,1,0,0Z" transform="matrix(0.995, -0.105, 0.105, 0.995, 9.83, 18.218)" fill="#000c1e"/><ellipse cx="2" cy="2.5" rx="2" ry="2.5" transform="translate(6.333 9.257)" fill="#000c1e"/><ellipse cx="1.5" cy="2.5" rx="1.5" ry="2.5" transform="translate(16.333 9.257)" fill="#000c1e"/></g></g></g></g></svg>