<svg xmlns="http://www.w3.org/2000/svg" xmlns:xlink="http://www.w3.org/1999/xlink" width="32" height="32" viewBox="0 0 32 32"><defs><clipPath id="b"><rect width="32" height="32"/></clipPath></defs><g id="a"><g transform="translate(1.432 1)"><g transform="translate(0 0)"><ellipse cx="15" cy="14.5" rx="15" ry="14.5" transform="translate(-0.431 0)" fill="#ff871f"/><path d="M4.72-.012c2.714,0,4.526,3.927,5.131,6.989S7.2,9.068,4.489,9.065s-4.36,3.175-4.5-1.87S2.006-.016,4.72-.012Z" transform="translate(12.181 14.731) rotate(17)" fill="#000c1e"/><g transform="translate(6.569 10)" fill="#c2d2ea" stroke="rgba(133,67,0,0.1)" stroke-width="1"><ellipse cx="3.5" cy="2.5" rx="3.5" ry="2.5" stroke="none"/><ellipse cx="3.5" cy="2.5" rx="4" ry="3" fill="none"/></g><g transform="translate(18.569 10)" fill="#c2d2ea" stroke="rgba(133,67,0,0.07)" stroke-width="1"><circle cx="2.5" cy="2.5" r="2.5" stroke="none"/><circle cx="2.5" cy="2.5" r="3" fill="none"/></g><circle cx="2" cy="2" r="2" transform="translate(8.569 10)" fill="#000c1e"/><circle cx="1.5" cy="1.5" r="1.5" transform="translate(19.569 11)" fill="#000c1e"/></g><path d="M-6382.43-4739.828a3.5,3.5,0,0,0,2.842-.459c1.144-.932,1.029-3.084,1.029-3.084a7.019,7.019,0,0,1-1.735,2.206A9.389,9.389,0,0,1-6382.43-4739.828Z" transform="translate(6391.373 4748.131)" fill="#733333"/><path d="M-6378.4-4739.828a3.774,3.774,0,0,1-2.958-.459c-1.19-.932-1.071-3.084-1.071-3.084a7.042,7.042,0,0,0,1.805,2.206A9.873,9.873,0,0,0-6378.4-4739.828Z" transform="translate(6399.712 4747.234)" fill="#733333"/></g></g></svg>