<svg xmlns="http://www.w3.org/2000/svg" xmlns:xlink="http://www.w3.org/1999/xlink" width="32" height="32" viewBox="0 0 32 32"><defs><clipPath id="b"><rect width="32" height="32"/></clipPath></defs><g id="a"><circle cx="14.5" cy="14.5" r="14.5" transform="translate(2 1)" fill="#eef356"/><path d="M1,0A13.735,13.735,0,0,0,5.811,1,17.4,17.4,0,0,0,11,0a1,1,0,0,1,0,2A17.107,17.107,0,0,1,5.811,3.02,13.508,13.508,0,0,1,1,2,1,1,0,0,1,1,0Z" transform="translate(10 20)" fill="#111"/><ellipse cx="2" cy="3" rx="2" ry="3" transform="translate(9 10)" fill="#2d2d2d"/><ellipse cx="2" cy="3" rx="2" ry="3" transform="translate(19 10)" fill="#2d2d2d"/></g></svg>