<svg xmlns="http://www.w3.org/2000/svg" xmlns:xlink="http://www.w3.org/1999/xlink" width="64" height="64" viewBox="0 0 64 64"><defs><clipPath id="b"><rect width="64" height="64"/></clipPath></defs><g id="a"><path d="M2329.172-1628.718l-11.916-8.432v-4.775l14.177,9.184v4.023Z" transform="translate(-2272 1667)" fill="#1d1d1d"/><path d="M2519.077-1005.73l.268,3.9,3.628,3.066,10.3-5.266v-4.195l-3.9-1.964-7.916,3.271Z" transform="translate(-2474.51 1057.291)" fill="#4f3e2d"/><path d="M2519.077-1005.73l.268,3.9,3.628,3.066,10.3-5.266v-4.195l-3.9-1.964-7.916,3.271Z" transform="translate(-2514.51 1031.291)" fill="#4f3e2d"/><path d="M2520.117-1098.683l.3,12.705,2.5,1.843,9.282-4.164v-12.763l-3.008-1.665Z" transform="translate(-2474.51 1137.539)" fill="#444141"/><path d="M2520.117-1098.683l.3,12.705,2.5,1.843,9.282-4.164v-12.763l-3.008-1.665Z" transform="translate(-2514.51 1111.539)" fill="#444141"/><path d="M2368.316-1217.247l-7.074,3.5-44.767-29.122v-1.941l7.372-2.586,44.469,27.949Z" transform="translate(-2310.041 1256.121)" fill="#4f4f4f"/><path d="M2519.077-1005.73l.268,3.9,3.628,3.066-.237-4.226Z" transform="translate(-2474.51 1057.291)" fill="#7c644c"/><path d="M2519.077-1005.73l.268,3.9,3.628,3.066-.237-4.226Z" transform="translate(-2514.51 1031.291)" fill="#7c644c"/><path d="M2520.226-1093.735l.19,7.757,2.5,1.843v-8.042Z" transform="translate(-2474.51 1137.539)" fill="#615e5e"/><path d="M2520.226-1093.735l.19,7.757,2.5,1.843v-7.69Z" transform="translate(-2514.51 1111.539)" fill="#615e5e"/><path d="M2690.825-1104.437l9.471-4.472v2.36l-9.471,5.109Z" transform="translate(-2641 1146)" fill="#5d5c5c"/><rect width="2" height="5" transform="translate(8 9)" fill="#222"/><rect width="2" height="6" transform="translate(46 32)" fill="#222"/><rect width="2" height="6" transform="translate(54 29)" fill="#222"/><path d="M0-.975H2V5H0Z" transform="translate(25 20)" fill="#222"/><path d="M2321.825-1624.63v-2.52l-43.463-28.041v3.726l3.726,2.677,1.765-.657,30.914,20.07.853,2.814,2.48,1.441v-2.03l2.157,1.108v2.814l1.569.853Z" transform="translate(-2272 1667)" fill="#8e8a8a"/><path d="M2322.447-1632.151l1.291-2.407,5.628-2.36,2.45.908-43.932-24.295-2.57-1.485-5.328,1.485-1.761,1.192Z" transform="translate(-2272 1667)" fill="#797979"/></g></svg>