<svg xmlns="http://www.w3.org/2000/svg" xmlns:xlink="http://www.w3.org/1999/xlink" width="34" height="34" viewBox="0 0 34 34">
  <defs>
    <clipPath id="clip-CulDeSacs">
      <rect width="34" height="34"/>
    </clipPath>
  </defs>
  <g id="CulDeSacs" clip-path="url(#clip-CulDeSacs)">
    <path id="Path_1137" data-name="Path 1137" d="M11.149,0C17.306.006,22.3,3.446,22.3,7.686s-4.989,7.676-11.146,7.674c-.326,0-.649-.01-1.283-.051C9.5,15.287,5.529,18.8,5.529,18.8l-8.973-5.473s-.18-1.689.14-2c.43-.4,3.308-1.4,3.307-3.652C0,3.437,4.992,0,11.149,0Z" transform="matrix(0.998, -0.07, 0.07, 0.998, 5.339, 10.968)" fill="#595959"/>
    <path id="Path_1136" data-name="Path 1136" d="M11.149,0C17.306.006,22.3,3.446,22.3,7.686c0,3.049-2.578,5.682-6.614,7.014a14.95,14.95,0,0,1-4.532.659c-.326,0-.649-.01-1.283-.051A42.942,42.942,0,0,0,5.4,18.326L-3.59,13.02S.71,10.047.668,9.475C.64,9.123,0,8.25,0,7.678,0,3.437,4.992,0,11.149,0Z" transform="matrix(0.998, -0.07, 0.07, 0.998, 5.339, 9.262)" fill="#c3c2c2"/>
    <path id="Path_3941" data-name="Path 3941" d="M9.436,0c5.211,0,9.436,2.675,9.436,5.975S14.647,11.95,9.436,11.95L7.55,11.818,2.075,16.05l-6.6-3.636L.769,8.44A9.4,9.4,0,0,1,0,5.975C0,2.675,4.225,0,9.436,0Z" transform="matrix(0.998, -0.07, 0.07, 0.998, 7.144, 10.801)" fill="#686767"/>
  </g>
</svg>
