<svg xmlns="http://www.w3.org/2000/svg" xmlns:xlink="http://www.w3.org/1999/xlink" width="64" height="64" viewBox="0 0 64 64"><defs><clipPath id="b"><rect width="64" height="64"/></clipPath></defs><g id="a"><path d="M1946.242-727.45l19.1-11s-4.657,20.235-5.861,21.988-10.99,10.807-10.99,10.807Z" transform="translate(-1905 761)" fill="#11b7e8"/><path d="M1917.092-744.88c.611.239,3.258-.7,6.2-1.878a18.657,18.657,0,0,0,5.519-4.143l4.512-.339,5.751-2.22c.707.89,26.691,15.2,26.691,15.2l-19.887,12.377Z" transform="translate(-1905 761)" fill="#71dfff"/><path d="M1911.1-729l36.943,27.662v-18.369L1911.1-744.88Z" transform="translate(-1905 761)" fill="#97a4b6"/><path d="M1948.043-701.338l6.361-4.009v-17.524l-6.361,3.4Z" transform="translate(-1905 761)" fill="#545f71"/><path d="M1917.092-744.88c1.24.485,6.541,3.523,11.879,3.408,5.3-.113,10.628-3.408,10.628-3.408a49.369,49.369,0,0,0,12.094,5.058,63.574,63.574,0,0,0,14.071,1.565l-19.887,12.377Z" transform="translate(-1905 761)" fill="#88e4ff"/><path d="M1911.1-744.88l37.02,25.543,6.373-3.343-36.974-24.564Z" transform="translate(-1905 761)" fill="#a3b7c8"/></g></svg>