<svg xmlns="http://www.w3.org/2000/svg" xmlns:xlink="http://www.w3.org/1999/xlink" width="32" height="32" viewBox="0 0 32 32"><defs><clipPath id="b"><rect width="32" height="32"/></clipPath></defs><g id="a"><path d="M14.5-2.415C22.508-2.415,29,2.91,29,6.5S22.508,13,14.5,13,0,10.09,0,6.5,6.492-2.415,14.5-2.415Z" transform="translate(2 16)" fill="#83e700"/><ellipse cx="10.5" cy="4" rx="10.5" ry="4" transform="translate(6 16)" fill="#64b000"/><path d="M837.7,36.886l5.235-2.273V22.36L837.7,25.053Z" transform="translate(-817.901 -14.488)" fill="#545454"/><path d="M838.744,25.978l-3.793-4.562,5.2-2.478,3.856,4.16Z" transform="translate(-818.946 -15.196)" fill="#959595"/><path d="M836.455,18.389l5.261.731-5.261,2.451-5.269-1.131Z" transform="translate(-820.377 -15.309)" fill="#bab9b9"/><path d="M829.765,34.308a25.2,25.2,0,0,1,5.076.813,51.149,51.149,0,0,1,5.995,2.136l.038-11.5-3.737-4.574-5.32-1.107-2.271,2.992Z" transform="translate(-821 -14.96)" fill="#797979"/><path d="M825.815,32.612,836.8,30.475v7.89s-3.588-1.476-6.335-2.268a15.009,15.009,0,0,0-4.653-.668Z" transform="translate(-817 -16)" fill="#727272"/></g></svg>