<svg xmlns="http://www.w3.org/2000/svg" xmlns:xlink="http://www.w3.org/1999/xlink" width="26" height="26" viewBox="0 0 26 26"><defs><clipPath id="b"><rect width="26" height="26"/></clipPath></defs><g id="a"><g transform="translate(-678 -464.632)"><rect width="13" height="3" transform="translate(687 481.632)" fill="#4c4c50"/><path d="M-3506.371-4414.765c.37.271,7.96.108,7.96.108v-7.617s.073-1.051-.143-1.311-.5-.26-.91-.26h-5.409c-1.616,0-1.656,4.739-1.656,4.739S-3506.74-4415.037-3506.371-4414.765Z" transform="translate(4185.495 4899.108)" fill="#55bbe2"/><path d="M-3504.128-4422.818c-.707.23-.906,1.566-.906,1.566s-.445,1.886,0,2.116a16.327,16.327,0,0,0,4.472,0,11.311,11.311,0,0,0,0-3.683A9.9,9.9,0,0,0-3504.128-4422.818Z" transform="translate(4184.998 4898.864)" fill="#474f5f"/><path d="M-3502.535-4412.042s.072-2.912,2.687-2.627a2.722,2.722,0,0,1,2.619,2.627Z" transform="translate(4183.256 4896.522)" fill="#182237"/><circle cx="2" cy="2" r="2" transform="translate(681 482.632)" fill="#3a4654"/><path d="M-1.06.023s.735-.091.822.163a2.042,2.042,0,0,1,0,1.072c-.1.2-.822.13-.822.13A2.159,2.159,0,0,1-1.169.728,2.678,2.678,0,0,1-1.06.023Z" transform="translate(680 481.608)" fill="#fff"/><rect width="16" height="9" transform="translate(687 472.632)" fill="#cbcbcb"/><path d="M-3502.535-4412.042s.072-2.912,2.687-2.627a2.722,2.722,0,0,1,2.619,2.627Z" transform="translate(4196.171 4896.522)" fill="#182237"/><circle cx="2" cy="2" r="2" transform="translate(694 482.632)" fill="#3a4654"/></g></g></svg>