<svg xmlns="http://www.w3.org/2000/svg" xmlns:xlink="http://www.w3.org/1999/xlink" width="32" height="32" viewBox="0 0 32 32"><defs><clipPath id="b"><rect width="32" height="32"/></clipPath></defs><g id="a"><g transform="translate(0.678 1)"><ellipse cx="15" cy="14.5" rx="15" ry="14.5" transform="translate(0.323)" fill="#72abcc"/><path d="M0,0V1.289a2.6,2.6,0,1,0,5.2,0A6.506,6.506,0,0,0,4.909,0Z" transform="translate(18.241 12.859) rotate(11)" fill="#000c1e"/><path d="M3.574.19a26.6,26.6,0,0,1,6.281,0c2.255.154,2.72.564,2.973.837s-.788.586-1.872.465-7.914-.125-9.3-.006-1.94-.11-1.523-.468S.844.374,3.574.19Z" transform="translate(9.017 20.032) rotate(8)" fill="#000c1e"/><path d="M0,3.976V2.687a2.6,2.6,0,1,1,5.2,0,6.506,6.506,0,0,1-.3,1.289Z" transform="translate(13.352 16.761) rotate(169)" fill="#000c1e"/></g></g></svg>