<svg xmlns="http://www.w3.org/2000/svg" xmlns:xlink="http://www.w3.org/1999/xlink" width="32" height="32" viewBox="0 0 32 32"><defs><linearGradient id="a" x1="0.5" x2="0.5" y2="1" gradientUnits="objectBoundingBox"><stop offset="0" stop-color="#73808f"/><stop offset="1" stop-color="#5b636d"/></linearGradient><clipPath id="c"><rect width="32" height="32"/></clipPath></defs><g id="b"><path d="M497.421-1690.983h16.327v-9.765l-7.607,2.615v2.79l-8.72,1.569Z" transform="translate(-488.78 1718.21)" fill="url(#a)"/><path d="M4.712,18.8c-.166-.173,6.917-4.439,6.917-4.439l-2.2-1.9,9.481-3.417L16.16,6.457l1.765-1.7L12.854,4.53,10.733-.017,7.859,1.177l1.1,3.244L3.778,4.138-.028,17.522l1.819-.96Z" transform="translate(6.24 0.75) rotate(10)" fill="#73808f"/><path d="M-.007,2.326,2.656-.008,5.867,3.048,2.987,5.386Z" transform="translate(12.224 9.578) rotate(19)" fill="#2a3753"/><path d="M-.044,15.365l1.678-.032L2.972,3.021,15.186,1.994l.621-2.039L1.583,1.449Z" transform="translate(8.169 3.462) rotate(19)" fill="#9fb8c8"/><path d="M19.418,4.424c-.084-.34-.66-.65-.907-.4l-2.787,2.8L13.181,6.4l-.424-2.556,2.787-2.8c.248-.249.341-1.658,0-1.743C13.768-1.144,11.6.316,10.213,1.71,8.728,3.2,8.7,5.863,9.318,7.75l-9.893,8.1c-.937.941-.749,3.274.187,4.215a2.391,2.391,0,0,0,3.392,0l8.89-9.974c1.878.629,4.456.792,5.952-.71a5.18,5.18,0,0,0,1.573-4.954Z" transform="translate(7 6.415)" fill="#475766"/><path d="M19.288,4.132a.449.449,0,0,0-.755-.209L15.74,6.74l-2.549-.428-.425-2.571L15.559.924a.457.457,0,0,0-.213-.764A5.372,5.372,0,0,0,10.218,1.6C8.729,3.1,8.7,5.775,9.321,7.673L-.4,16.631a2.439,2.439,0,0,0,0,3.428,2.388,2.388,0,0,0,3.4,0L11.9,10.025c1.882.633,4.465.8,5.963-.714a5.484,5.484,0,0,0,1.423-5.179Z" transform="translate(7 5.415)" fill="#d7e3f0"/></g></svg>