<svg xmlns="http://www.w3.org/2000/svg" xmlns:xlink="http://www.w3.org/1999/xlink" width="26" height="26" viewBox="0 0 26 26"><defs><linearGradient id="a" x1="4588.512773722636" x2="4588.512773722636" y2="-24286.980212217037" gradientUnits="userSpaceOnUse" y1="-24386.980212217037"><stop offset="0" stop-color="#73808f"/><stop offset="1" stop-color="#5b636d"/></linearGradient><clipPath id="c"><rect width="26" height="26"/></clipPath></defs><g id="b"><g transform="translate(4.023 2.918)"><path d="M4538.512773722636-24286.980212217037H4638.512773722636V-24386.980212217037L4591.92518248176-24360.195010037514V-24331.617436191802L4538.521897810227-24315.54344708942Z" transform="translate(-492.023 1710.082) scale(0.1095999999999998,0.06973999999999933) translate(0,0)" fill="url(#a)"/><path d="M528.421-1698.756c-.113-.125,4.619-3.114,4.619-3.114l-1.495-1.37,6.352-2.366-1.868-1.868,1.175-1.2-3.412-.2-1.46-3.257-1.924.83.761,2.321-3.484-.239-2.462,9.514,1.216-.671Z" transform="translate(-250.921 1775.196) rotate(-9)" fill="#73808f"/><path d="M529.047-1704.756l1.769-1.621,2.211,2.211-1.916,1.621Z" transform="translate(-525.023 1712.082)" fill="#2a3753"/><path d="M526.933-1696.833h1.134l.741-8.721,8.241-.567.392-1.439-9.593.872Z" transform="translate(-525.023 1711.082)" fill="#bcd9ec"/></g></g></svg>