<svg xmlns="http://www.w3.org/2000/svg" xmlns:xlink="http://www.w3.org/1999/xlink" width="26" height="26" viewBox="0 0 26 26">
  <defs>
    <clipPath id="clip-DisasterControl">
      <rect width="26" height="26"/>
    </clipPath>
  </defs>
  <g id="DisasterControl" clip-path="url(#clip-DisasterControl)">
    <path id="Path_781" data-name="Path 781" d="M-9980.776-10480.951l-10.49,6.2-.134-8.566,10.624-5.288Z" transform="translate(10002.555 10499.538)" fill="#797463"/>
    <path id="Path_782" data-name="Path 782" d="M-9969.71-10475.521l-7.672-5.469v-6.653l2.754-2.771,4.918,6.355Z" transform="translate(9981.021 10500.323)" fill="#b1a98e"/>
    <path id="Path_783" data-name="Path 783" d="M-9975.94-10491.1l-10.569,5.776-4.812-6.9,6.944,1.122,5.723-3.771Z" transform="translate(9997.794 10502.066)" fill="#bc8459"/>
    <g id="Group_2740" data-name="Group 2740" transform="translate(23.292 4.108) rotate(90)">
      <path id="Path_2983" data-name="Path 2983" d="M17.678,13.682c-.072.285-.566.544-.778.335L14.51,11.673l-2.181.355-.364,2.139,2.391,2.344c.213.208.293,1.388,0,1.459-1.523.372-3.383-.85-4.573-2.016-1.274-1.247-1.3-3.476-.768-5.055L.528,4.118A2.891,2.891,0,0,1,.689.591a2.087,2.087,0,0,1,2.91,0l7.626,8.348c1.611-.526,3.822-.663,5.106.594a4.271,4.271,0,0,1,1.349,4.146Z" transform="translate(0 0)" fill="#475766"/>
      <path id="Path_2984" data-name="Path 2984" d="M17.467,13.824a.379.379,0,0,1-.271.271.393.393,0,0,1-.376-.1l-2.392-2.341-2.183.356-.364,2.136,2.392,2.341a.372.372,0,0,1,.1.369.386.386,0,0,1-.281.266,4.7,4.7,0,0,1-4.392-1.2c-1.275-1.246-1.3-3.469-.768-5.046L.6,3.439A1.983,1.983,0,0,1,.6.591a2.09,2.09,0,0,1,2.912,0l7.623,8.337c1.612-.526,3.825-.665,5.108.593a4.464,4.464,0,0,1,1.219,4.3Z" transform="translate(0.087 1.001)" fill="#d7e3f0"/>
    </g>
  </g>
</svg>
