<svg xmlns="http://www.w3.org/2000/svg" xmlns:xlink="http://www.w3.org/1999/xlink" width="64" height="64" viewBox="0 0 64 64"><defs><clipPath id="b"><rect width="64" height="64"/></clipPath></defs><g id="a"><rect width="38" height="54" rx="5" transform="translate(13 4)" fill="#4f8198"/><path d="M5.028,1.136A7.244,7.244,0,0,0,10.98,3.765c4.415.073,5.7-2.955,6.463-2.629,4.466,1.823,4.868,7.289,4.876,9.452s0,6.347,0,6.347a2.125,2.125,0,0,1-2.125,2.125H2.127A2.125,2.125,0,0,1,0,16.934s-.069-4.111,0-6.347S-.02,2.978,5.028,1.136Z" transform="translate(20.853 28.927)" fill="#d4efff"/><circle cx="7.164" cy="7.164" r="7.164" transform="translate(24.836 16.672)" fill="#d4efff"/><path d="M2.986-.027C4.073-.027,4.143.8,4.143,1.8V3.969c0,1-.069,1.788-1.157,1.788A1.925,1.925,0,0,1,.967,3.969V1.8A1.956,1.956,0,0,1,2.986-.027Z" transform="translate(19.857 20)" fill="#d4efff"/><path d="M2.123-.027C1.036-.027.967.8.967,1.8V3.969c0,1,.069,1.788,1.156,1.788A1.924,1.924,0,0,0,4.142,3.969V1.8A1.956,1.956,0,0,0,2.123-.027Z" transform="translate(39.034 19.864)" fill="#d4efff"/><path d="M4808.935,1813.285s.421-6.041,7.835-6.041,8.519,6.041,8.519,6.041l1.3-.611a9.9,9.9,0,0,0-9.818-7.187,8.867,8.867,0,0,0-9.292,7.187Z" transform="translate(-4785 -1792)" fill="#d4efff"/><rect width="1" height="4" transform="translate(40 24)" fill="#d4efff"/><circle cx="1.5" cy="1.5" r="1.5" transform="translate(39 27)" fill="#d4efff"/></g></svg>