<svg xmlns="http://www.w3.org/2000/svg" xmlns:xlink="http://www.w3.org/1999/xlink" width="40" height="40" viewBox="0 0 40 40"><defs><clipPath id="b"><rect width="40" height="40"/></clipPath></defs><g id="a"><path d="M733.5-302.422l17.411,15.436L767.1-297.967v-1.62l-33.595-4.44Z" transform="translate(-731 321.306)" fill="#434343"/><path d="M1223.5-1133.647l17.382,14.892,16.223-10.511-17.525-14.714Z" transform="translate(-1221 1150.886)" fill="#59b6ff"/><path d="M11.695-90.083v-8.488L5.68-94.9l5.561,4.45Z" transform="translate(1 112)" fill="#39394d"/><path d="M13.445-89.17v-4.547l17.794,3.361L19.178-83.04Z" transform="translate(1 112)" fill="#39394d"/><path d="M13.445-98.571l4.35-2.857,11.467,8.7L13.445-95.892Z" transform="translate(1 112)" fill="#39394d"/><path d="M2,0H18a2,2,0,0,1,2,2V6a2,2,0,0,1-2,2H9.094L4.939,10.815V8H2A2,2,0,0,1,0,6V2A2,2,0,0,1,2,0Z" transform="translate(15 9.185)" fill="#fff"/><rect width="12" height="2" transform="translate(19 12.185)" fill="#6b6b6b"/></g></svg>