<svg xmlns="http://www.w3.org/2000/svg" xmlns:xlink="http://www.w3.org/1999/xlink" width="64" height="64" viewBox="0 0 64 64">
  <defs>
    <clipPath id="clip-DoublePublicTransportLane">
      <rect width="64" height="64"/>
    </clipPath>
  </defs>
  <g id="DoublePublicTransportLane" clip-path="url(#clip-DoublePublicTransportLane)">
    <path id="Path_2201" data-name="Path 2201" d="M1192-423.5l-6.59-8.59s-4.616,2.209-4.367,2.646,8.131,10.088,8.131,10.088Z" transform="translate(-1079.633 614.44) rotate(-7)" fill="#b47300"/>
    <path id="Path_2202" data-name="Path 2202" d="M1193.068-423.414l-6.83-8.592s-2.307.506-2.058.943,7.528,8.878,7.528,8.878Z" transform="translate(-1080.472 614.521) rotate(-7)" fill="#e39c03"/>
    <path id="Path_2203" data-name="Path 2203" d="M1185.44-423.674a4.27,4.27,0,0,1,2.516-2.358c1.767-.486,2.245,0,2.245,0L1188.186-428l-5.493,1.624Z" transform="translate(-1139.99 473.025)" fill="rgba(59,59,59,0.61)"/>
    <g id="Path_2204" data-name="Path 2204" transform="translate(48.692 48.179) rotate(13)" fill="#748991">
      <path d="M 2.563201904296875 4.448550701141357 C 1.581541895866394 4.448550701141357 0.7829018831253052 3.483330726623535 0.7829018831253052 2.296920776367188 C 0.7829018831253052 1.11051082611084 1.581541895866394 0.1452907770872116 2.563201904296875 0.1452907770872116 C 3.544861793518066 0.1452907770872116 4.343502044677734 1.11051082611084 4.343502044677734 2.296920776367188 C 4.343502044677734 3.483330726623535 3.544861793518066 4.448550701141357 2.563201904296875 4.448550701141357 Z" stroke="none"/>
      <path d="M 2.563201904296875 0.6452908515930176 C 1.869211912155151 0.6452908515930176 1.282902002334595 1.401640892028809 1.282902002334595 2.296920776367188 C 1.282902002334595 3.192200660705566 1.869211912155151 3.948550701141357 2.563201904296875 3.948550701141357 C 3.257191896438599 3.948550701141357 3.843502044677734 3.192200660705566 3.843502044677734 2.296920776367188 C 3.843502044677734 1.401640892028809 3.257191896438599 0.6452908515930176 2.563201904296875 0.6452908515930176 M 2.563201904296875 -0.3547091484069824 C 3.822581768035889 -0.3547091484069824 4.843502044677734 0.8324708938598633 4.843502044677734 2.296920776367188 C 4.843502044677734 3.761370658874512 3.822581768035889 4.948550701141357 2.563201904296875 4.948550701141357 C 1.303821802139282 4.948550701141357 0.2829017639160156 3.761370658874512 0.2829017639160156 2.296920776367188 C 0.2829017639160156 0.8324708938598633 1.303821802139282 -0.3547091484069824 2.563201904296875 -0.3547091484069824 Z" stroke="none" fill="#8d5b03"/>
    </g>
    <path id="Path_2191" data-name="Path 2191" d="M1249.1-1108.867l11.313-6.694Z" transform="translate(-1201.926 1151.895)" fill="gray"/>
    <path id="Path_2186" data-name="Path 2186" d="M733.426-302.733l29.61,25.369,23.135-14.243v-1.623l-52.745-11.55Z" transform="translate(-728.04 330.13)" fill="#434343"/>
    <path id="Path_2190" data-name="Path 2190" d="M735.865-304.107l34.087,22.391,13.869-8.215-28.775-25.8Z" transform="translate(-729.951 329.31)" fill="#fff"/>
    <path id="Path_2192" data-name="Path 2192" d="M1224.4-1129.661l29.871,25.1,10.9-6.448-30.016-25.114Z" transform="translate(-1219.047 1155.002)" fill="#f69380"/>
    <path id="Path_2193" data-name="Path 2193" d="M1224.4-1129.661l29.871,25.1,10.9-6.448-30.016-25.114Z" transform="translate(-1206.995 1147.886)" fill="#f69380"/>
  </g>
</svg>
