<svg xmlns="http://www.w3.org/2000/svg" xmlns:xlink="http://www.w3.org/1999/xlink" width="64" height="64" viewBox="0 0 64 64"><defs><clipPath id="b"><rect width="64" height="64"/></clipPath></defs><g id="a"><g transform="translate(-1.064 17.354)"><g transform="translate(3.276 8.117)"><path d="M733.484-305.8l3.379,2.65,16.626-10.236v-1.167l-20,7.281Z" transform="translate(-733.443 318.455)" fill="#61544c"/><path d="M733.484-305.8l3.379,2.65,16.626-10.236v-1.167l-20,7.281Z" transform="translate(-716.913 333.565)" fill="#61544c"/><path d="M733.484-305.8l3.379,2.65,16.626-10.236v-1.167l-20,7.281Z" transform="translate(-725.771 325.914)" fill="#61544c"/><path d="M1212.373-1126.152l3.432,2.7,16.608-9.963-3.669-2.716-.747.455Z" transform="translate(-1212.373 1137.285)" fill="#a1886c"/><path d="M1212.373-1126.152l3.432,2.7,16.608-9.963-3.669-2.716-.747.455Z" transform="translate(-1195.844 1152.395)" fill="#887056"/><path d="M1212.373-1126.152l3.432,2.7,16.608-9.963-3.669-2.716-.747.455Z" transform="translate(-1204.702 1144.744)" fill="#987e61"/><path d="M773.633-296.286l-21.1-18.309Z" transform="translate(-745.836 319.625)" fill="#e9bc29"/><path d="M773.633-296.286l-21.1-18.309Z" transform="translate(-738.633 314.595)" fill="#e9bc29"/><path d="M734.453-302.963l20.665,17.707,1.251-1.122v-2L734.453-304.8Z" transform="translate(-731.612 312.781)" fill="gray"/><path d="M1224.466-1131.337l20.717,17.595,1.6-1.129-20.4-17.725Z" transform="translate(-1221.616 1139.152)" fill="#d8d5d5"/><path d="M43.545,52.177V50l1.6-1.151v2.113Z" transform="translate(-19.993 -24.651)" fill="#575656"/><path d="M734.453-302.963l20.665,17.707,1.251-1.122v-2L734.453-304.8Z" transform="translate(-723.336 307.382)" fill="gray"/><path d="M1224.466-1131.337l20.717,17.595,1.6-1.129-20.4-17.725Z" transform="translate(-1213.339 1133.753)" fill="#d8d5d5"/><path d="M43.545,52.177V50l1.6-1.151v2.113Z" transform="translate(-11.716 -30.05)" fill="#575656"/></g><path d="M771.226-298.374l-18.693-16.22Z" transform="translate(-741.238 328.903)" fill="#e9bc29"/><path d="M771.226-298.374l-18.693-16.22Z" transform="translate(-734.856 324.446)" fill="#e9bc29"/></g><g transform="translate(21.936 3.354)"><g transform="translate(3.276 8.117)"><path d="M733.484-305.8l3.379,2.65,16.626-10.236v-1.167l-20,7.281Z" transform="translate(-733.443 318.455)" fill="#61544c"/><path d="M733.484-305.8l3.379,2.65,16.626-10.236v-1.167l-20,7.281Z" transform="translate(-716.913 333.565)" fill="#61544c"/><path d="M733.484-305.8l3.379,2.65,16.626-10.236v-1.167l-20,7.281Z" transform="translate(-725.771 325.914)" fill="#61544c"/><path d="M1212.373-1126.152l3.432,2.7,16.608-9.963-3.669-2.716-.747.455Z" transform="translate(-1212.373 1137.285)" fill="#a1886c"/><path d="M1212.373-1126.152l3.432,2.7,16.608-9.963-3.669-2.716-.747.455Z" transform="translate(-1195.844 1152.395)" fill="#887056"/><path d="M1212.373-1126.152l3.432,2.7,16.608-9.963-3.669-2.716-.747.455Z" transform="translate(-1204.702 1144.744)" fill="#987e61"/><path d="M773.633-296.286l-21.1-18.309Z" transform="translate(-745.836 319.625)" fill="#e9bc29"/><path d="M773.633-296.286l-21.1-18.309Z" transform="translate(-738.633 314.595)" fill="#e9bc29"/><path d="M734.453-302.963l20.665,17.707,1.251-1.122v-2L734.453-304.8Z" transform="translate(-731.612 312.781)" fill="gray"/><path d="M1224.466-1131.337l20.717,17.595,1.6-1.129-20.4-17.725Z" transform="translate(-1221.616 1139.152)" fill="#d8d5d5"/><path d="M43.545,52.177V50l1.6-1.151v2.113Z" transform="translate(-19.993 -24.651)" fill="#575656"/><path d="M734.453-302.963l20.665,17.707,1.251-1.122v-2L734.453-304.8Z" transform="translate(-723.336 307.382)" fill="gray"/><path d="M1224.466-1131.337l20.717,17.595,1.6-1.129-20.4-17.725Z" transform="translate(-1213.339 1133.753)" fill="#d8d5d5"/><path d="M43.545,52.177V50l1.6-1.151v2.113Z" transform="translate(-11.716 -30.05)" fill="#575656"/></g><path d="M771.226-298.374l-18.693-16.22Z" transform="translate(-741.238 328.903)" fill="#e9bc29"/><path d="M771.226-298.374l-18.693-16.22Z" transform="translate(-734.856 324.446)" fill="#e9bc29"/></g></g></svg>