<svg xmlns="http://www.w3.org/2000/svg" xmlns:xlink="http://www.w3.org/1999/xlink" width="40" height="40" viewBox="0 0 40 40">
  <defs>
    <clipPath id="clip-Economy">
      <rect width="40" height="40"/>
    </clipPath>
  </defs>
  <g id="Economy" clip-path="url(#clip-Economy)">
    <g id="Economy-2" data-name="Economy" transform="translate(6 11.272)">
      <g id="Group_2352" data-name="Group 2352" transform="translate(0 0)">
        <path id="Path_264" data-name="Path 264" d="M33,19.538l-9.427,5.906L4,16.02l9.036-5.484Z" transform="translate(-3.999 -10.536)" fill="#95d13e"/>
        <path id="Path_267" data-name="Path 267" d="M11.8,15.229v6.28l19.579,9.811,0-6.667Z" transform="translate(-11.797 -9.744)" fill="#5e9a49"/>
        <path id="Path_265" data-name="Path 265" d="M4,30.816l9.427-6.672V18.239L4,24.145Z" transform="translate(15.572 -9.236)" fill="#7ab23a"/>
      </g>
      <ellipse id="Ellipse_535" data-name="Ellipse 535" cx="5.084" cy="2.214" rx="5.084" ry="2.214" transform="translate(9.416 5.32)" fill="#6ab119"/>
    </g>
    <g id="Group_2374" data-name="Group 2374" transform="translate(2 2)">
      <path id="Path_2182" data-name="Path 2182" d="M10.493-5.428c3.528,0,5.621-1.51,6.654-3.38L14.47-10.953a4.231,4.231,0,0,1-3.977,2.145c-4.015,0-4.514-2.792-4.651-5.3.2-2.338.349-5.334,4.651-5.334,2.208,0,3.031.586,3.977,1.761l2.5-2.085c-.889-1.51-2.782-3.021-6.482-3.021-5.965,0-8.317,4.459-8.317,8.678C2.176-9.839,4.413-5.428,10.493-5.428Z" transform="translate(9.99 34.437)" fill="#848383"/>
      <rect id="Rectangle_3960" data-name="Rectangle 3960" width="3" height="5" transform="translate(19 8)" fill="#848383"/>
      <rect id="Rectangle_3961" data-name="Rectangle 3961" width="3" height="5" transform="translate(19 27)" fill="#848383"/>
    </g>
    <g id="Group_2373" data-name="Group 2373">
      <path id="Path_2182-2" data-name="Path 2182" d="M10.493-5.428c3.528,0,5.621-1.51,6.654-3.38L14.47-10.953a4.231,4.231,0,0,1-3.977,2.145c-4.015,0-4.514-2.792-4.651-5.3.2-2.338.349-5.334,4.651-5.334,2.208,0,3.031.586,3.977,1.761l2.5-2.085c-.889-1.51-2.782-3.021-6.482-3.021-5.965,0-8.317,4.459-8.317,8.678C2.176-9.839,4.413-5.428,10.493-5.428Z" transform="translate(9.99 34.437)" fill="#f6f0f0"/>
      <rect id="Rectangle_3960-2" data-name="Rectangle 3960" width="3" height="5" transform="translate(19 8)" fill="#f6f0f0"/>
      <rect id="Rectangle_3961-2" data-name="Rectangle 3961" width="3" height="5" transform="translate(19 27)" fill="#f6f0f0"/>
    </g>
  </g>
</svg>
