<svg xmlns="http://www.w3.org/2000/svg" xmlns:xlink="http://www.w3.org/1999/xlink" width="40" height="40" viewBox="0 0 40 40"><defs><clipPath id="b"><rect width="40" height="40"/></clipPath></defs><g id="a"><g transform="translate(6 11.272)"><g transform="translate(0 0)"><path d="M4,19.538l9.427,5.906L33,16.02l-9.036-5.484Z" transform="translate(-4 -10.536)" fill="#95d13e"/><path d="M31.376,15.229v6.28L11.8,31.321l0-6.667Z" transform="translate(-2.376 -9.744)" fill="#5e9a49"/><path d="M13.427,30.816,4,24.145V18.239l9.427,5.906Z" transform="translate(-4 -9.236)" fill="#7ab23a"/></g><ellipse cx="5.084" cy="2.214" rx="5.084" ry="2.214" transform="translate(9.416 5.32)" fill="#6ab119"/></g><g transform="translate(2 2)"><path d="M10.493-5.428c3.528,0,5.621-1.51,6.654-3.38L14.47-10.953a4.231,4.231,0,0,1-3.977,2.145c-4.015,0-4.514-2.792-4.651-5.3.2-2.338.349-5.334,4.651-5.334,2.208,0,3.031.586,3.977,1.761l2.5-2.085c-.889-1.51-2.782-3.021-6.482-3.021-5.965,0-8.317,4.459-8.317,8.678C2.176-9.839,4.413-5.428,10.493-5.428Z" transform="translate(9.99 34.437)" fill="#848383"/><rect width="3" height="5" transform="translate(19 8)" fill="#848383"/><rect width="3" height="5" transform="translate(19 27)" fill="#848383"/></g><path d="M10.493-5.428c3.528,0,5.621-1.51,6.654-3.38L14.47-10.953a4.231,4.231,0,0,1-3.977,2.145c-4.015,0-4.514-2.792-4.651-5.3.2-2.338.349-5.334,4.651-5.334,2.208,0,3.031.586,3.977,1.761l2.5-2.085c-.889-1.51-2.782-3.021-6.482-3.021-5.965,0-8.317,4.459-8.317,8.678C2.176-9.839,4.413-5.428,10.493-5.428Z" transform="translate(9.99 34.437)" fill="#f6f0f0"/><rect width="3" height="5" transform="translate(19 8)" fill="#f6f0f0"/><rect width="3" height="5" transform="translate(19 27)" fill="#f6f0f0"/></g></svg>