<svg xmlns="http://www.w3.org/2000/svg" xmlns:xlink="http://www.w3.org/1999/xlink" width="26" height="26" viewBox="0 0 26 26">
  <defs>
    <clipPath id="clip-Education">
      <rect width="26" height="26"/>
    </clipPath>
  </defs>
  <g id="Education" clip-path="url(#clip-Education)">
    <path id="Path_1298" data-name="Path 1298" d="M-.387-3.149,4.5-.773,9.751-4.427V1.1S7.03,4.054,4.5,4.054-.387,1.1-.387,1.1Z" transform="translate(8.377 17.512)" fill="#61819c"/>
    <path id="Path_1297" data-name="Path 1297" d="M.674,1.356l13,2.385,3.182,11.333-12.516-2Z" transform="translate(0.84 10.958) rotate(-45)" fill="#819bad"/>
    <path id="Path_1299" data-name="Path 1299" d="M0,.523,1.08,0V6.811H0Z" transform="translate(21.565 9.598)" fill="#959595"/>
    <path id="Path_1300" data-name="Path 1300" d="M1.654-.513c.895,0,1.62.967,1.62,2.16s-1.62,2.721-1.62,2.721S.034,2.84.034,1.647.759-.513,1.654-.513Z" transform="translate(20.452 17.197)" fill="#aabbc0"/>
  </g>
</svg>
