<svg xmlns="http://www.w3.org/2000/svg" xmlns:xlink="http://www.w3.org/1999/xlink" width="64" height="64" viewBox="0 0 64 64"><defs><clipPath id="b"><rect width="64" height="64"/></clipPath></defs><g id="a"><rect width="38" height="54" rx="5" transform="translate(13 4)" fill="#4f8198"/><path d="M9819.934-28.8l-8.4,11.848h9.74l12.4-11.848Z" transform="translate(-9789.205 38.004)" fill="#ffe282"/><path d="M9816.742-9.6h8.311L9806.584,2.619Z" transform="translate(-9787.045 30.654)" fill="#ffe282"/><g transform="translate(17.683 36.464)"><path d="M15325.589,4392.4l.442-.78a.41.41,0,0,1,.129-.148.425.425,0,0,1,.2-.044h8.026a.831.831,0,0,1,.288.044.211.211,0,0,1,.115.148l.414.78Z" transform="translate(-15320.073 -4391.425)" fill="#4bc3f1"/><path d="M1.957-.148,27.07-.2c1.48,0,1.591-.159,1.591,1.451V6.79c0,1.073.05,2.107.05,2.7,0,.161.023.19-.05.266s-.241.04-.241.04L2.679,9.76H.34c-.184,0-.17-.013-.255-.109A.481.481,0,0,1,0,9.378V5.532C0,3.923.477-.148,1.957-.148Z" transform="translate(0 0.901)" fill="#69d5ff"/><path d="M15379.146,4421.8a3.283,3.283,0,0,0-.458-2.074,2.161,2.161,0,0,0-2.7,0c-.527.558-.451,2.074-.451,2.074Z" transform="translate(-15356.734 -4411.14)" fill="#231e2e"/><path d="M15378.855,4421.8a3.513,3.513,0,0,0-.418-2.074,1.869,1.869,0,0,0-2.486,0,3.93,3.93,0,0,0-.414,2.074Z" transform="translate(-15371.181 -4411.14)" fill="#231e2e"/><g transform="translate(19.098 8.353)" fill="#96a6b9" stroke="#3e454d" stroke-width="2"><circle cx="1.592" cy="1.592" r="1.592" stroke="none"/><circle cx="1.592" cy="1.592" r="0.592" fill="none"/></g><g transform="translate(4.244 8.353)" fill="#96a6b9" stroke="#3e454d" stroke-width="2"><circle cx="1.592" cy="1.592" r="1.592" stroke="none"/><circle cx="1.592" cy="1.592" r="0.592" fill="none"/></g><path d="M15305.8,4401.584l6.072-2.08h21.454v-3.64h-25.238a2.134,2.134,0,0,0-.948.1,5.737,5.737,0,0,0-1.072,2.621A26.246,26.246,0,0,0,15305.8,4401.584Z" transform="translate(-15305.589 -4394.556)" fill="#231e2e"/><rect width="21.22" height="2.122" transform="translate(6.366 1.987)" fill="#b9e4f6"/><rect width="3.183" height="2.122" transform="translate(19.098 1.987)" fill="#b9e4f6"/><rect width="3.183" height="2.122" transform="translate(15.915 1.987)" fill="#b9e4f6"/><rect width="3.183" height="2.122" transform="translate(12.732 1.987)" fill="#b9e4f6"/><rect width="3.183" height="2.122" transform="translate(9.549 1.987)" fill="#b9e4f6"/><rect width="3.183" height="2.122" transform="translate(6.366 1.987)" fill="#b9e4f6"/><path d="M0,0H2.411V2.914L0,3.666Z" transform="translate(3.483 1.628)" fill="#b9e4f6"/><path d="M-10.988,0l1.52.036V3.717l-2.7.947A14.713,14.713,0,0,1-11.859,2,6.744,6.744,0,0,1-10.988,0Z" transform="translate(12.659 1.628)" fill="#b9e4f6"/><rect width="1.061" height="1.061" transform="translate(1.061 7.292)" fill="#363636"/><rect width="1.061" height="1.061" transform="translate(7.427 -0.135)" fill="#363636"/><rect width="1.061" height="1.061" transform="translate(8.488 -0.135)" fill="#363636"/><rect width="1.061" height="1.061" transform="translate(9.549 -0.135)" fill="#363636"/><line x2="2.288" transform="translate(25.586 7.893)" fill="none" stroke="#1d3041" stroke-width="1"/><line x2="2.288" transform="translate(25.586 8.476)" fill="none" stroke="#1d3041" stroke-width="1"/><line x2="2.288" transform="translate(25.586 9.059)" fill="none" stroke="#1d3041" stroke-width="1"/></g></g></svg>