<svg xmlns="http://www.w3.org/2000/svg" xmlns:xlink="http://www.w3.org/1999/xlink" width="32" height="32" viewBox="0 0 32 32"><defs><clipPath id="b"><rect width="32" height="32"/></clipPath></defs><g id="a"><path d="M-9906.369-10483.994l18.642,11.539,12.212-9.331-18.6-10.627Z" transform="translate(9906.942 10504.455)" fill="#7a9858"/><path d="M-147.369-197.589l4.845,2.733v-6.073l-4.845-2.733Z" transform="translate(162.998 216.14)" fill="#c9c9c9"/><path d="M-144.6-196.215l3.111-2.509.156-4.819-3.267,2.1Z" transform="translate(165.075 216.967)" fill="#6b6b6b"/><path d="M-147.369-202.687l3.9-2.272,4.849,2.59-3.919,2.571Z" transform="translate(162.998 215.12)" fill="#e2e2e2"/><path d="M1.586,12.713l-.9-.9a.971.971,0,0,1,0-1.378l7.9-7.9a.971.971,0,0,1,1.378,0l7.9,7.9a.971.971,0,0,1,0,1.378l-.9.9a.976.976,0,0,1-1.394-.016L10.9,7.8V19.479a.973.973,0,0,1-.975.975H8.62a.973.973,0,0,1-.975-.975V7.8L2.98,12.7a.969.969,0,0,1-1.394.016Z" transform="translate(6.732 -2.246)" fill="#fff"/><path d="M-147.369-197.589l4.845,2.733v-6.073l-4.845-2.733Z" transform="translate(162.998 223.284)" fill="#c9c9c9"/><path d="M-147.369-197.589l4.845,2.733v-6.073l-4.845-2.733Z" transform="translate(154.245 217.926)" fill="#c9c9c9"/><path d="M-144.6-194.945l3.65-2.943.183-5.653-3.833,2.462Z" transform="translate(165.075 223.378)" fill="#6b6b6b"/><path d="M-144.6-194.945l3.65-2.943.183-5.653-3.833,2.462Z" transform="translate(156.322 218.02)" fill="#6b6b6b"/><path d="M-147.369-202.687l3.9-2.272,4.849,2.59-3.919,2.571Z" transform="translate(162.998 222.264)" fill="#e2e2e2"/><path d="M-147.369-202.687l3.9-2.272,4.849,2.59-3.919,2.571Z" transform="translate(154.245 216.906)" fill="#e2e2e2"/></g></svg>