<svg xmlns="http://www.w3.org/2000/svg" xmlns:xlink="http://www.w3.org/1999/xlink" width="64" height="64" viewBox="0 0 64 64"><defs><clipPath id="b"><rect width="64" height="64"/></clipPath></defs><g id="a"><rect width="38" height="54" rx="5" transform="translate(13 4)" fill="#61ceff"/><rect width="18" height="3" transform="translate(23 53)" fill="#747474"/><path d="M4187.707,1848.807v-28.5h21.507v28.5Z" transform="translate(-4166.46 -1794.307)" fill="#e7d474"/><path d="M4199.42,1815.395s-3.1-3.136-2.811-5.7,3.967-1.782,3.967-4.561-3.967-6.557-3.967-6.557a6.744,6.744,0,0,1,0,5.146c-1.144,2.779-5.279,3.054-4.577,5.972S4199.42,1815.395,4199.42,1815.395Z" transform="translate(-4164.912 -1793)" fill="#fff"/><circle cx="1.5" cy="1.5" r="1.5" transform="translate(22.54 28)" fill="#616161"/><circle cx="1.5" cy="1.5" r="1.5" transform="translate(26.54 30)" fill="#616161"/><circle cx="1.5" cy="1.5" r="1.5" transform="translate(30.54 28)" fill="#616161"/><circle cx="1.5" cy="1.5" r="1.5" transform="translate(34.54 30)" fill="#616161"/><circle cx="1.5" cy="1.5" r="1.5" transform="translate(38.54 28)" fill="#616161"/><circle cx="1.5" cy="1.5" r="1.5" transform="translate(22.54 33)" fill="#616161"/><circle cx="1.5" cy="1.5" r="1.5" transform="translate(26.54 35)" fill="#616161"/><circle cx="1.5" cy="1.5" r="1.5" transform="translate(30.54 33)" fill="#616161"/><circle cx="1.5" cy="1.5" r="1.5" transform="translate(34.54 35)" fill="#616161"/><circle cx="1.5" cy="1.5" r="1.5" transform="translate(38.54 33)" fill="#616161"/><circle cx="1.5" cy="1.5" r="1.5" transform="translate(22.54 38)" fill="#616161"/><circle cx="1.5" cy="1.5" r="1.5" transform="translate(26.54 40)" fill="#616161"/><circle cx="1.5" cy="1.5" r="1.5" transform="translate(30.54 38)" fill="#616161"/><circle cx="1.5" cy="1.5" r="1.5" transform="translate(34.54 40)" fill="#616161"/><circle cx="1.5" cy="1.5" r="1.5" transform="translate(38.54 38)" fill="#616161"/><circle cx="1.5" cy="1.5" r="1.5" transform="translate(22.54 43)" fill="#616161"/><circle cx="1.5" cy="1.5" r="1.5" transform="translate(26.54 45)" fill="#616161"/><circle cx="1.5" cy="1.5" r="1.5" transform="translate(30.54 43)" fill="#616161"/><circle cx="1.5" cy="1.5" r="1.5" transform="translate(34.54 45)" fill="#616161"/><circle cx="1.5" cy="1.5" r="1.5" transform="translate(38.54 43)" fill="#616161"/><circle cx="1.5" cy="1.5" r="1.5" transform="translate(22.54 48)" fill="#616161"/><circle cx="1.5" cy="1.5" r="1.5" transform="translate(26.54 50)" fill="#616161"/><circle cx="1.5" cy="1.5" r="1.5" transform="translate(30.54 48)" fill="#616161"/><circle cx="1.5" cy="1.5" r="1.5" transform="translate(34.54 50)" fill="#616161"/><circle cx="1.5" cy="1.5" r="1.5" transform="translate(38.54 48)" fill="#616161"/><rect width="18" height="3" transform="translate(23 23)" fill="#747474"/></g></svg>