<svg xmlns="http://www.w3.org/2000/svg" xmlns:xlink="http://www.w3.org/1999/xlink" width="64" height="64" viewBox="0 0 64 64"><defs><clipPath id="b"><rect width="64" height="64"/></clipPath></defs><g id="a"><rect width="38" height="54" rx="5" transform="translate(13 4)" fill="#4f8198"/><path d="M6.667,0h7.667A6.667,6.667,0,0,1,21,6.667v0A.333.333,0,0,1,20.667,7H.333A.333.333,0,0,1,0,6.667v0A6.667,6.667,0,0,1,6.667,0Z" transform="translate(21.76 22.776)" fill="#ffd182"/><path d="M1,0H20a1,1,0,0,1,1,1V2.7a2,2,0,0,1-2,2H2a2,2,0,0,1-2-2V1A1,1,0,0,1,1,0Z" transform="translate(21.76 34.522)" fill="#ffd182"/><rect width="21" height="3" rx="1.5" transform="translate(21.76 31.522)" fill="#bd7e2a"/><path d="M5089.426,1920.146h20.322l-6.556,3.181-8.824-2.1h-5.951Z" transform="translate(-5067.24 -1889.4)" fill="#ffe282"/><path d="M5089,1919.012l4.242,1.609,6.35-1.324,4.893,1.324,2.627-1.324,2.409,1.324,2.559-1.609Z" transform="translate(-5068.54 -1888.295)" fill="#6fc907"/><rect width="19" height="1" transform="translate(22.76 29.776)" fill="#f9682b"/><circle cx="0.5" cy="0.5" r="0.5" transform="translate(28 24.224)" fill="#e5b562"/><circle cx="0.5" cy="0.5" r="0.5" transform="translate(30 25.224)" fill="#e5b562"/><circle cx="0.5" cy="0.5" r="0.5" transform="translate(26 25.224)" fill="#e5b562"/></g></svg>