<svg xmlns="http://www.w3.org/2000/svg" xmlns:xlink="http://www.w3.org/1999/xlink" width="32" height="32" viewBox="0 0 32 32"><defs><clipPath id="b"><rect width="32" height="32"/></clipPath></defs><g id="a"><g transform="translate(10 4.068)"><path d="M6056.55-4794.594s-3.623-1.7-4.657-3.6a7.01,7.01,0,0,1-.519-4.283s3.882,1.876,5.176,3.846A3.938,3.938,0,0,1,6056.55-4794.594Z" transform="translate(-6051.246 4818.275)" fill="#d4ab64"/><path d="M6051.873-4794.594s3.943-1.7,5.07-3.6a6.48,6.48,0,0,0,.564-4.283s-4.226,1.876-5.634,3.846A3.67,3.67,0,0,0,6051.873-4794.594Z" transform="translate(-6044.753 4818.275)" fill="#d4ab64"/><path d="M6056.55-4794.594s-3.623-1.7-4.657-3.6a7.01,7.01,0,0,1-.519-4.283s3.882,1.876,5.176,3.846A3.938,3.938,0,0,1,6056.55-4794.594Z" transform="translate(-6051.246 4813.094)" fill="#e1b66b"/><path d="M6051.873-4794.594s3.943-1.7,5.07-3.6a6.48,6.48,0,0,0,.564-4.283s-4.226,1.876-5.634,3.846A3.67,3.67,0,0,0,6051.873-4794.594Z" transform="translate(-6044.753 4812.749)" fill="#e1b66b"/><path d="M6056.55-4794.594s-3.623-1.7-4.657-3.6a7.01,7.01,0,0,1-.519-4.283s3.882,1.876,5.176,3.846A3.938,3.938,0,0,1,6056.55-4794.594Z" transform="translate(-6051.246 4807.741)" fill="#f4c36d"/><path d="M6051.873-4794.594s3.943-1.7,5.07-3.6a6.48,6.48,0,0,0,.564-4.283s-4.226,1.876-5.634,3.846A3.67,3.67,0,0,0,6051.873-4794.594Z" transform="translate(-6044.753 4807.396)" fill="#f4c36d"/><path d="M6066.118-4876.77s-2.428-.617-2.428-2.672,2.428-5.545,2.428-5.545,2.318,3.49,2.318,5.545S6066.118-4876.77,6066.118-4876.77Z" transform="translate(-6059.915 4884.986)" fill="#f4c36d"/></g></g></svg>