<svg xmlns="http://www.w3.org/2000/svg" xmlns:xlink="http://www.w3.org/1999/xlink" width="64" height="64" viewBox="0 0 64 64"><defs><clipPath id="b"><rect width="64" height="64"/></clipPath></defs><g id="a"><rect width="38" height="54" rx="5" transform="translate(13 4)" fill="#4f8198"/><g transform="translate(18.312 22.114)"><path d="M10028.8-24.632l13.334,1.343,14.043-1.343V-26.1l-4.6-1.245s-.472-4.929-1.868-7.178a11.9,11.9,0,0,0-4.422-3.669l-2.351-2.871h-2.007l-1.875,2.871a13.852,13.852,0,0,0-4.407,3.669c-2.116,2.612-1.791,7.178-1.791,7.178l-4.035,1.245Z" transform="translate(-10028.8 41.061)" fill="#ec8e7e"/><path d="M10054.9-25.836h6.544v5.284l-3.312,3.2-3.231-3.2Z" transform="translate(-10044.724 32.322)" fill="#ffed47" stroke="#908085" stroke-width="1"/></g></g></svg>