<svg xmlns="http://www.w3.org/2000/svg" xmlns:xlink="http://www.w3.org/1999/xlink" width="26" height="26" viewBox="0 0 26 26">
  <defs>
    <clipPath id="clip-FireSafety">
      <rect width="26" height="26"/>
    </clipPath>
  </defs>
  <g id="FireSafety" clip-path="url(#clip-FireSafety)">
    <path id="Path_3617" data-name="Path 3617" d="M151.488-944.177c-4.3,1.7-6.1,3.276-7.6,6.541s-.165,3.566,2.8,5.6,4,2.365,8.4.8,8.152-4.406,9.482-8.142-5.081-5.741-5.081-5.741A15.388,15.388,0,0,0,151.488-944.177Z" transform="translate(-141.01 953.285)" fill="#e56333"/>
    <path id="Path_3618" data-name="Path 3618" d="M146.167-937.256s-2.52-10.262,6.4-10.522,7.321,8.942,7.321,8.942-3.891,4.712-7.321,4.921S146.167-937.256,146.167-937.256Z" transform="translate(-141.01 953.285)" fill="#fc8a5f"/>
    <path id="Path_3620" data-name="Path 3620" d="M145.912-947.064l2.116-1.255,6.261,2.541s-1.2,7.882-2,7.742S145.912-947.064,145.912-947.064Z" transform="translate(-141.01 953.285)" fill="#fc8a5f"/>
    <path id="Path_3619" data-name="Path 3619" d="M145.839-939.237l2.449,2.92,3.741-1.46v-6.661l-6.19-2.541Z" transform="translate(-141.01 953.285)" fill="#fff"/>
  </g>
</svg>
