<svg xmlns="http://www.w3.org/2000/svg" xmlns:xlink="http://www.w3.org/1999/xlink" width="64" height="64" viewBox="0 0 64 64"><defs><clipPath id="b"><rect width="64" height="64"/></clipPath></defs><g id="a"><path d="M3167.481-1121.545l-6.49,11.069-.68-.411,7.17-12.319Z" transform="translate(-3119.801 1145)" fill="#202020"/><path d="M3167.481-1121.545l-6.49,11.069-.68-.411,7.17-12.319Z" transform="translate(-3141.801 1131)" fill="#202020"/><path d="M3165.387-1116.692l-3.561,6.032-.68-.411,4.241-7.282Z" transform="translate(-3117.801 1147)" fill="#202020"/><path d="M3165.387-1116.692l-3.561,6.032-.68-.411,4.241-7.282Z" transform="translate(-3139.801 1133)" fill="#202020"/><path d="M3155.533-1115.021v-27.613l.46-4.133.9-.411,2.178,1.063v31.77l-1.613.7Z" transform="translate(-3109 1163.624)" fill="#2d2d2d"/><path d="M3155.533-1115.021v-27.052l.659-4.579,1.268-.411,1.613.817v31.9l-1.613.7Z" transform="translate(-3130 1150.349)" fill="#2d2d2d"/><path d="M2517.035-1004.648a.877.877,0,0,0-.093.478l.243,3.4s3.021,3.085,3.772,3.066l13.817-6.511s.8-.326.9-.548a3.79,3.79,0,0,0,.1-.956v-2.627a1.124,1.124,0,0,0-.1-.564.744.744,0,0,0-.415-.279l-3.575-1.824-10.054,4.1-4.212,2A.809.809,0,0,0,2517.035-1004.648Z" transform="translate(-2486.228 1056.291)" fill="#5f5f5f"/><path d="M2517.035-1004.648a.877.877,0,0,0-.093.478l.243,3.4s3.021,3.085,3.772,3.066l13.817-6.511s.8-.326.9-.548a3.79,3.79,0,0,0,.1-.956v-2.627a1.124,1.124,0,0,0-.1-.564.744.744,0,0,0-.415-.279l-3.575-1.824-10.054,4.1-4.212,2A.809.809,0,0,0,2517.035-1004.648Z" transform="translate(-2508.061 1043.291)" fill="#5f5f5f"/><path d="M2519.111-1005.344l.243,3.51s-.205-.011,1.359,1.464a5.492,5.492,0,0,0,2.413,1.6l-.246-4.226a12.989,12.989,0,0,1-2.443-1.253A9.244,9.244,0,0,1,2519.111-1005.344Z" transform="translate(-2488.221 1057.291)" fill="#828282"/><path d="M2519.111-1005.344l.243,3.51s-.205-.011,1.359,1.464a5.492,5.492,0,0,0,2.413,1.6l-.246-4.226a12.989,12.989,0,0,1-2.443-1.253A9.244,9.244,0,0,1,2519.111-1005.344Z" transform="translate(-2510.054 1044.291)" fill="#828282"/><path d="M2371.656-1217.76l-12.74,4.969-44.767-29.122v-1.689l13.037-4.311,44.469,27.949Z" transform="translate(-2309.041 1267.121)" fill="#3a3a3a"/><path d="M2319.917-1241.112l43.966,28.27,9.948-3.888-43.91-27.52Z" transform="translate(-2313.371 1264.04)" fill="#666363"/><path d="M2322.513-1241.369l43.812,27.783.86-.411-43.769-27.7Z" transform="translate(-2314.371 1264.04)" fill="#ddb062"/><path d="M2326.9-1242.77l43.812,27.783.86-.411-43.769-27.7Z" transform="translate(-2312.371 1263.04)" fill="#ddb062"/><path d="M2324.7-1242.112l43.812,27.783.86-.411-43.769-27.7Z" transform="translate(-2314.371 1264.04)" fill="#ddb062"/><path d="M2324.4-1242.028l44.168,27.827.86-.411-44.125-27.741Z" transform="translate(-2312.371 1263.04)" fill="#ddb062"/><path d="M3155.533-1115.021v-31.7l1.081-.262,1.541.876.919,4.032v27.727l-1.613.7Z" transform="translate(-3144 1154.103)" fill="#2d2d2d"/><path d="M3157.429-1139.481l11.867-3.723v2.641l-11.492,3.59Z" transform="translate(-3121.719 1170.553)" fill="#2d2d2d"/><path d="M3157.533-1139.808l11.763-3.4v2.641l-11.763,3.574Z" transform="translate(-3121.719 1164.445)" fill="#2d2d2d"/><path d="M3159.074-1139.844l13.156-3.907v2.555l-13.156,4.042Z" transform="translate(-3146.001 1157.794)" fill="#2d2d2d"/><path d="M3159.074-1139.844l13.156-4.055v2.555l-13.156,4.189Z" transform="translate(-3146.001 1151.555)" fill="#2d2d2d"/><path d="M3157.533-1139.527l11.763-3.677v2.641l-11.763,3.647Z" transform="translate(-3121.719 1177.944)" fill="#2d2d2d"/><path d="M3159.074-1139.844l13.156-4.237v2.6l-13.156,4.324Z" transform="translate(-3144.507 1164.303)" fill="#2d2d2d"/><path d="M3155.533-1114.993v-31.668l1.927,1.012v32.034Z" transform="translate(-3144 1154.077)" fill="#515151"/><path d="M3154.014-1122.456l5.4,12.045,1.173.623-6.572-14.328Z" transform="translate(-3140 1143)" fill="#202020"/><path d="M3154.014-1122.456l4.406,10.687,1.554,1.062-5.959-13.409Z" transform="translate(-3104 1154)" fill="#202020"/><path d="M3154.014-1122.456l4.542,10.707,1.554,1.062-6.1-13.429Z" transform="translate(-3126 1140)" fill="#202020"/><path d="M3154.014-1122.456l10.115,22.817.9.534-11.013-25.012Z" transform="translate(-3140 1135)" fill="#202020"/><path d="M3154.014-1122.456l8.968,21.423,1.351.817-10.319-23.9Z" transform="translate(-3104 1146)" fill="#202020"/><path d="M3154.014-1122.456l9.345,21.418,1.351.817-10.7-23.9Z" transform="translate(-3126 1132)" fill="#202020"/><path d="M3155.533-1115.021v-31.7l1.081-.262,1.541.876.919,4.032v27.727l-1.613.7Z" transform="translate(-3123 1167.378)" fill="#2d2d2d"/><path d="M3155.533-1114.993v-31.668l1.927,1.012v32.034Z" transform="translate(-3123 1167.351)" fill="#515151"/><path d="M3154.014-1122.456l4.955,12.253,1.554,1.062-6.508-14.976Z" transform="translate(-3119 1156)" fill="#202020"/><path d="M3154.014-1122.456l10.452,23.464h1.111l-11.563-25.125Z" transform="translate(-3119 1148)" fill="#202020"/><path d="M3167.481-1121.545l-6.49,11.069-.68-.411,7.17-12.319Z" transform="translate(-3134.801 1147)" fill="#202020"/><path d="M3167.481-1121.545l-5.266,10.781-.176-.981,5.442-11.46Z" transform="translate(-3155.801 1135)" fill="#202020"/><path d="M3165.387-1116.692l-3.561,6.032-.68-.411,4.241-7.282Z" transform="translate(-3132.801 1149)" fill="#202020"/><path d="M3165.387-1116.692l-3.027,5.184-.68-.411,3.706-6.434Z" transform="translate(-3153.801 1137)" fill="#202020"/></g></svg>