<svg xmlns="http://www.w3.org/2000/svg" xmlns:xlink="http://www.w3.org/1999/xlink" width="32" height="32" viewBox="0 0 32 32"><defs><clipPath id="b"><rect width="32" height="32"/></clipPath></defs><g id="a"><path d="M3.568,1.129A5.152,5.152,0,0,0,7.8,3c3.14.052,4.056-2.1,4.6-1.87a7.506,7.506,0,0,1,2.436,2.264c.322.661.3.684.3.684s-3.756-.263-4.408.321-.721,3.264,0,3.974,5.145.492,5.145.492v3.5a1.512,1.512,0,0,1-1.512,1.512H1.5A1.512,1.512,0,0,1-.007,12.365s-.049-2.924,0-4.514S-.022,2.439,3.568,1.129Z" transform="translate(4 12.123)" fill="#e5f9ff"/><circle cx="5" cy="5" r="5" transform="translate(7 4)" fill="#e5f9ff"/><path d="M13.321,8.535H8.71V3.393A1.089,1.089,0,0,0,7.685,2.25H6.66A1.089,1.089,0,0,0,5.636,3.393V8.535H1.025A1.089,1.089,0,0,0,0,9.678v1.143a1.089,1.089,0,0,0,1.025,1.143H5.636v5.142A1.089,1.089,0,0,0,6.66,18.249H7.685A1.089,1.089,0,0,0,8.71,17.106V11.964h4.611a1.089,1.089,0,0,0,1.025-1.143V9.678A1.089,1.089,0,0,0,13.321,8.535Z" transform="translate(15.022 8.143)" fill="#fff"/></g></svg>