<svg xmlns="http://www.w3.org/2000/svg" xmlns:xlink="http://www.w3.org/1999/xlink" width="64" height="64" viewBox="0 0 64 64"><defs><clipPath id="b"><rect width="64" height="64"/></clipPath></defs><g id="a"><rect width="7" height="15" rx="3" transform="translate(27.968 43.718)" fill="#c3c2c2"/><path d="M16.349.118c9.029.065,16.428,10.2,16.526,22.633S25.732,45.214,16.7,45.149.275,34.95.177,22.515,7.32.053,16.349.118Z" transform="matrix(0.996, -0.087, 0.087, 0.996, 14.517, 8.03)" fill="#e68787"/><g transform="matrix(0.996, -0.087, 0.087, 0.996, 12.612, 9.201)" fill="#f5efef"><path d="M 16.79023361206055 42.64929962158203 C 16.7670841217041 42.64929962158203 16.74396324157715 42.64920806884766 16.72077369689941 42.6490478515625 C 13.16558361053467 42.62337875366211 9.752293586730957 40.61600875854492 7.109663963317871 36.99668884277344 C 5.752933979034424 35.13851928710938 4.678303718566895 32.96591949462891 3.915643930435181 30.53924942016602 C 3.115633964538574 27.99374008178711 2.698863983154297 25.28754997253418 2.676913976669312 22.49584007263184 C 2.650954008102417 19.19359016418457 3.20159387588501 15.92304992675781 4.269293785095215 13.03777980804443 C 5.280133724212646 10.3061695098877 6.748983860015869 7.920389652252197 8.517053604125977 6.138369560241699 C 10.80227375030518 3.835119724273682 13.48016357421875 2.617679595947266 16.26123428344727 2.617679595947266 C 16.28438377380371 2.617679595947266 16.30750465393066 2.617769718170166 16.3306941986084 2.617929697036743 C 19.88588333129883 2.643599510192871 23.29917335510254 4.650969505310059 25.94180488586426 8.270289421081543 C 27.29853439331055 10.12845993041992 28.37315368652344 12.30105972290039 29.13582420349121 14.72772979736328 C 29.93583488464355 17.27323913574219 30.35259437561035 19.97942924499512 30.37454414367676 22.77113914489746 C 30.40050315856934 26.07338905334473 29.84986305236816 29.34392929077148 28.78216361999512 32.22919845581055 C 27.77132415771484 34.96080780029297 26.3024730682373 37.34658813476563 24.53440475463867 39.12862014770508 C 22.24919319152832 41.43185806274414 19.57130432128906 42.64929962158203 16.79023361206055 42.64929962158203 Z" stroke="none"/><path d="M 16.26123237609863 5.117691040039063 C 13.60832023620605 5.117691040039063 11.55072021484375 6.630279541015625 10.2917423248291 7.899177551269531 C 7.042943954467773 11.17363357543945 5.130832672119141 16.62297821044922 5.176843643188477 22.47618865966797 C 5.196844100952148 25.02003479003906 5.574943542480469 27.48064422607422 6.300632476806641 29.7896900177002 C 6.981454849243164 31.95595550537109 7.932966232299805 33.88474655151367 9.128742218017578 35.52246856689453 C 10.38199806213379 37.23889923095703 13.03715515136719 40.12239074707031 16.73886489868164 40.14911270141602 L 16.79023170471191 40.14928817749023 C 19.44314193725586 40.14928817749023 21.5007438659668 38.63669967651367 22.75971984863281 37.36780166625977 C 26.00852203369141 34.09334564208984 27.92063140869141 28.64400100708008 27.87462043762207 22.79079055786133 C 27.85462188720703 20.24694442749023 27.47652053833008 17.78633499145508 26.75083160400391 15.4772891998291 C 26.07000923156738 13.3110237121582 25.11849975585938 11.38223266601563 23.92272186279297 9.744510650634766 C 22.66946411132813 8.028079986572266 20.01430892944336 5.144588470458984 16.31259918212891 5.117866516113281 L 16.26123237609863 5.117691040039063 M 16.26123237609863 0.1176834106445313 C 16.29040336608887 0.1176834106445313 16.31952476501465 0.1177902221679688 16.34873199462891 0.1180000305175781 C 25.37788772583008 0.18316650390625 32.77671051025391 10.31652450561523 32.87446594238281 22.75148963928223 C 32.97190475463867 35.14622116088867 25.77858543395996 45.14929580688477 16.79023170471191 45.14929580688477 C 16.76106071472168 45.14929580688477 16.7319393157959 45.14918899536133 16.70273208618164 45.14897918701172 C 7.673576354980469 45.08381271362305 0.2747535705566406 34.95045471191406 0.1769981384277344 22.51548957824707 C 0.079559326171875 10.12075805664063 7.272878646850586 0.1176834106445313 16.26123237609863 0.1176834106445313 Z" stroke="none" fill="#d50d0d"/></g><path d="M1977.138-355.395l4.517,2.781s.977-16.82,0-19.158-7.359-5.175-7.359-5.175v-4.734l-5.777,4.734,5.777,10.081v-4.906a3.539,3.539,0,0,1,2.842,2.321C1977.882-367.333,1977.138-355.395,1977.138-355.395Z" transform="translate(-1945 397.522)" fill="#343434"/><path d="M0,6.665,16.077,34.359l3.41-6.333L2.051,0Z" transform="matrix(0.996, -0.087, 0.087, 0.996, 19.704, 16.226)" fill="#d50d0d"/></g></svg>