<svg version="1.1" viewBox="0 0 32 32" xmlns="http://www.w3.org/2000/svg">
 <defs>
  <clipPath id="b">
   <rect width="32" height="32"/>
  </clipPath>
 </defs>
 <g id="a" transform="matrix(.94454 0 0 .94454 .9059 .8856)" stroke-width="1.1209">
  <ellipse transform="translate(11,26)" cx="5" cy="1.5" rx="5" ry="1.5" fill="#2f2f2f"/>
  <path transform="translate(14.704,21.289)" d="m0 0h3.025v5.663a3.033 3.033 0 0 1-1.525 0.576 2.888 2.888 0 0 1-1.5-0.576z" fill="#976c4f"/>
  <path transform="translate(9,11.008)" d="m7.334 0 4.736 8.4 2.6 2.733a20.119 20.119 0 0 1-7.334 1.7 20.119 20.119 0 0 1-7.336-1.695s0.4 0.051 2.231-2.733 5.103-8.405 5.103-8.405z" fill="#367c01"/>
  <path transform="translate(9.86,8.851)" d="m 6.5,0 c 0,0 2.063,3.507 3.687,5.644 A 13.023,13.023 0 0 0 12.992,8.55 20.054,20.054 0 0 1 6.5,9.855 20.054,20.054 0 0 1 0,8.55 16.117,16.117 0 0 0 2.643,5.644 C 4.267,3.507 6.5,0 6.5,0 Z" fill="#54b60b"/>
  <path transform="translate(12.305,2.938)" d="M 4.156,0 A 27.325,27.325 0 0 0 5.843,4.841 16.427,16.427 0 0 0 8.311,8.476 9.173,9.173 0 0 1 4.156,9.77 9.173,9.173 0 0 1 0,8.476 18.177,18.177 0 0 0 2.377,4.841 32.086,32.086 0 0 0 4.156,0 Z" fill="#83e637"/>
 </g>
</svg>
