<svg xmlns="http://www.w3.org/2000/svg" xmlns:xlink="http://www.w3.org/1999/xlink" width="64" height="64" viewBox="0 0 64 64"><defs><clipPath id="b"><rect width="64" height="64"/></clipPath></defs><g id="a"><path d="M0,0H1V17l-1-.679Z" transform="translate(29 6)" fill="#313131"/><path d="M0,3.919l1-.352V17l-1-.679Z" transform="translate(23 3)" fill="#313131"/><path d="M0-.835,1-.107V17l-1-.679Z" transform="translate(35 10)" fill="#313131"/><path d="M0,2.454,1,3.868V17l-1-.679Z" transform="translate(41 14)" fill="#313131"/><path d="M2729.643-1675.955s-14.612-22.61-23.8-30.706-18.544,4.214-18.544,4.214l-1.321-.854s10.63-12.656,20.531-4.347,24.657,31.692,24.657,31.692Z" transform="translate(-2672.888 1715.412)" fill="#8d8d8d"/><path d="M2519.2-1005.708a.908.908,0,0,0-.089.478l.233,3.4s2.906,3.085,3.628,3.066l9.327-4.738s.771-.326.87-.548a3.933,3.933,0,0,0,.1-.956v-2.627a1.167,1.167,0,0,0-.1-.564.713.713,0,0,0-.4-.279l-3.4-1.713-7.916,3.271-1.882.943A.776.776,0,0,0,2519.2-1005.708Z" transform="translate(-2514.51 1034.291)" fill="#4f3e2d"/><path d="M2519.111-1005.344l.234,3.51s-.2-.011,1.307,1.464a5.248,5.248,0,0,0,2.321,1.6l-.237-4.226a12.313,12.313,0,0,1-2.35-1.253A9,9,0,0,1,2519.111-1005.344Z" transform="translate(-2514.51 1034.291)" fill="#65513c"/><path d="M2519.2-1005.708a.908.908,0,0,0-.089.478l.233,3.4s2.906,3.085,3.628,3.066l9.327-4.738s.771-.326.87-.548a3.933,3.933,0,0,0,.1-.956v-2.627a1.167,1.167,0,0,0-.1-.564.713.713,0,0,0-.4-.279l-3.4-1.713-7.916,3.271-1.882.943A.776.776,0,0,0,2519.2-1005.708Z" transform="translate(-2474.51 1060.291)" fill="#4f3e2d"/><path d="M2520.117-1098.683l.3,12.705,2.5,1.843,9.282-4.164v-12.763l-3.008-1.665Z" transform="translate(-2474.51 1140.539)" fill="#444141"/><path d="M2520.117-1098.683l.3,12.705,2.5,1.843,9.282-4.164v-12.763l-3.008-1.665Z" transform="translate(-2514.51 1114.539)" fill="#444141"/><path d="M2519.111-1005.344l.234,3.51s-.2-.011,1.307,1.464a5.248,5.248,0,0,0,2.321,1.6l-.237-4.226a12.313,12.313,0,0,1-2.35-1.253A9,9,0,0,1,2519.111-1005.344Z" transform="translate(-2474.51 1060.291)" fill="#65513c"/><path d="M2520.226-1093.735l.19,7.757,2.5,1.843v-8.042Z" transform="translate(-2474.51 1140.539)" fill="#615e5e"/><path d="M2520.226-1093.735l.19,7.757,2.5,1.843v-7.69Z" transform="translate(-2514.51 1114.539)" fill="#615e5e"/><path d="M2368.316-1217.247l-7.074,3.5-44.767-29.122v-1.941l7.372-2.586,44.469,27.949Z" transform="translate(-2310.041 1259.121)" fill="#3a3a3a"/><path d="M2323.049-1242.155l43.41,27.778,4.5-1.7-43.487-27.515Z" transform="translate(-2315.371 1256.04)" fill="#555454"/><path d="M2334.293-1240.848l43.279,27.754.69-.209-43.394-27.711Z" transform="translate(-2324.489 1253.951)" fill="#887842"/><path d="M2793.911-1610.9l7.04-2.886-.865-1.161-6.983,2.5Z" transform="translate(-2749.38 1643.233)" fill="#8d8d8d"/><path d="M2707.18-1705.568c.805-.12,5.175-1.7,5.175-1.7l-1.657-.289-4.7,1.456Z" transform="translate(-2684.764 1713.26)" fill="#8d8d8d"/><path d="M2698.885-1668.891s-10.713-24.729-19.648-32.452-21.013,6.046-21.013,6.046l-1.083-.913s12.648-15.192,23.047-6.5,20.789,35.514,20.789,35.514Z" transform="translate(-2651 1711.615)" fill="#8d8d8d"/><path d="M2775.591-1640.563l5.737-2.055-1.125-1.219-5.447,1.845Z" transform="translate(-2735.56 1664.765)" fill="#8d8d8d"/><path d="M2758.008-1666.334l4.594-1.519-.982-1.014-4.755,1.429Z" transform="translate(-2722.082 1683.42)" fill="#8d8d8d"/><path d="M2738.573-1686.338l4.179-1.371-.891-.925-4.413,1.251Z" transform="translate(-2707.455 1698.154)" fill="#8d8d8d"/><path d="M2724.542-1696.978l4.383-1.161-1.064-.773-4.443,1.371Z" transform="translate(-2696.884 1705.814)" fill="#8d8d8d"/><path d="M0,0H1V17l-1-.679Z" transform="translate(23 8)" fill="#313131"/><path d="M0,3.919l1-.352V17l-1-.679Z" transform="translate(17 5)" fill="#313131"/><path d="M0-1.133,1-.107V17l-1-.679Z" transform="translate(29 12)" fill="#313131"/><path d="M0,2.454,1,3.868V17l-1-.679Z" transform="translate(35 16)" fill="#313131"/></g></svg>