<svg xmlns="http://www.w3.org/2000/svg" xmlns:xlink="http://www.w3.org/1999/xlink" width="64" height="64" viewBox="0 0 64 64">
  <defs>
    <clipPath id="clip-FourlaneAngledParkingRoad">
      <rect width="64" height="64"/>
    </clipPath>
  </defs>
  <g id="FourlaneAngledParkingRoad" clip-path="url(#clip-FourlaneAngledParkingRoad)">
    <path id="Path_3882" data-name="Path 3882" d="M1192-423.5l-6.59-8.59s-4.616,2.209-4.367,2.646,8.131,10.088,8.131,10.088Z" transform="translate(-1077.758 607.584) rotate(-7)" fill="#706428"/>
    <path id="Path_3878" data-name="Path 3878" d="M1192-423.5l-6.59-8.59s-4.616,2.209-4.367,2.646,8.131,10.088,8.131,10.088Z" transform="translate(-1082.758 611.584) rotate(-7)" fill="#b47300"/>
    <path id="Path_3880" data-name="Path 3880" d="M1192-423.5l-6.59-8.59s-4.616,2.209-4.367,2.646,8.131,10.088,8.131,10.088Z" transform="translate(-1088.758 614.584) rotate(-7)" fill="#61a2d3"/>
    <path id="Path_3883" data-name="Path 3883" d="M1193.068-423.414l-6.83-8.592s-2.307.506-2.058.943,7.528,8.878,7.528,8.878Z" transform="translate(-1078.598 608.665) rotate(-7)" fill="#9a8a39"/>
    <path id="Path_3879" data-name="Path 3879" d="M1193.068-423.414l-6.83-8.592s-2.307.506-2.058.943,7.528,8.878,7.528,8.878Z" transform="translate(-1083.598 611.665) rotate(-7)" fill="#e39c03"/>
    <path id="Path_3881" data-name="Path 3881" d="M1193.068-423.414l-6.83-8.592s-2.307.506-2.058.943,7.528,8.878,7.528,8.878Z" transform="translate(-1089.598 614.665) rotate(-7)" fill="#7ac6ff"/>
    <path id="Path_3884" data-name="Path 3884" d="M1185.44-423.674a4.27,4.27,0,0,1,2.516-2.358c1.767-.486,2.245,0,2.245,0L1188.186-428l-5.493,1.624Z" transform="translate(-1138.115 466.169)" fill="rgba(59,59,59,0.61)"/>
    <path id="Path_3885" data-name="Path 3885" d="M1185.44-423.674a4.27,4.27,0,0,1,2.516-2.358c1.767-.486,2.245,0,2.245,0L1188.186-428l-5.493,1.624Z" transform="translate(-1143.115 470.169)" fill="rgba(59,59,59,0.61)"/>
    <g id="Path_3886" data-name="Path 3886" transform="translate(50.566 41.322) rotate(13)" fill="#4d4324">
      <path d="M 2.563201904296875 4.448550701141357 C 1.581541895866394 4.448550701141357 0.7829018831253052 3.483330726623535 0.7829018831253052 2.296920776367188 C 0.7829018831253052 1.11051082611084 1.581541895866394 0.1452907770872116 2.563201904296875 0.1452907770872116 C 3.544861793518066 0.1452907770872116 4.343502044677734 1.11051082611084 4.343502044677734 2.296920776367188 C 4.343502044677734 3.483330726623535 3.544861793518066 4.448550701141357 2.563201904296875 4.448550701141357 Z" stroke="none"/>
      <path d="M 2.563201904296875 0.6452908515930176 C 1.869211912155151 0.6452908515930176 1.282902002334595 1.401640892028809 1.282902002334595 2.296920776367188 C 1.282902002334595 3.192200660705566 1.869211912155151 3.948550701141357 2.563201904296875 3.948550701141357 C 3.257191896438599 3.948550701141357 3.843502044677734 3.192200660705566 3.843502044677734 2.296920776367188 C 3.843502044677734 1.401640892028809 3.257191896438599 0.6452908515930176 2.563201904296875 0.6452908515930176 M 2.563201904296875 -0.3547091484069824 C 3.822581768035889 -0.3547091484069824 4.843502044677734 0.8324708938598633 4.843502044677734 2.296920776367188 C 4.843502044677734 3.761370658874512 3.822581768035889 4.948550701141357 2.563201904296875 4.948550701141357 C 1.303821802139282 4.948550701141357 0.2829017639160156 3.761370658874512 0.2829017639160156 2.296920776367188 C 0.2829017639160156 0.8324708938598633 1.303821802139282 -0.3547091484069824 2.563201904296875 -0.3547091484069824 Z" stroke="none" fill="#755902"/>
    </g>
    <g id="Path_3887" data-name="Path 3887" transform="translate(45.566 45.322) rotate(13)" fill="#748991">
      <path d="M 2.563201904296875 4.448550701141357 C 1.581541895866394 4.448550701141357 0.7829018831253052 3.483330726623535 0.7829018831253052 2.296920776367188 C 0.7829018831253052 1.11051082611084 1.581541895866394 0.1452907770872116 2.563201904296875 0.1452907770872116 C 3.544861793518066 0.1452907770872116 4.343502044677734 1.11051082611084 4.343502044677734 2.296920776367188 C 4.343502044677734 3.483330726623535 3.544861793518066 4.448550701141357 2.563201904296875 4.448550701141357 Z" stroke="none"/>
      <path d="M 2.563201904296875 0.6452908515930176 C 1.869211912155151 0.6452908515930176 1.282902002334595 1.401640892028809 1.282902002334595 2.296920776367188 C 1.282902002334595 3.192200660705566 1.869211912155151 3.948550701141357 2.563201904296875 3.948550701141357 C 3.257191896438599 3.948550701141357 3.843502044677734 3.192200660705566 3.843502044677734 2.296920776367188 C 3.843502044677734 1.401640892028809 3.257191896438599 0.6452908515930176 2.563201904296875 0.6452908515930176 M 2.563201904296875 -0.3547091484069824 C 3.822581768035889 -0.3547091484069824 4.843502044677734 0.8324708938598633 4.843502044677734 2.296920776367188 C 4.843502044677734 3.761370658874512 3.822581768035889 4.948550701141357 2.563201904296875 4.948550701141357 C 1.303821802139282 4.948550701141357 0.2829017639160156 3.761370658874512 0.2829017639160156 2.296920776367188 C 0.2829017639160156 0.8324708938598633 1.303821802139282 -0.3547091484069824 2.563201904296875 -0.3547091484069824 Z" stroke="none" fill="#8d5b03"/>
    </g>
    <g id="Path_3888" data-name="Path 3888" transform="translate(39.566 48.322) rotate(13)" fill="#4a6068">
      <path d="M 2.563201904296875 4.448550701141357 C 1.581541895866394 4.448550701141357 0.7829018831253052 3.483330726623535 0.7829018831253052 2.296920776367188 C 0.7829018831253052 1.11051082611084 1.581541895866394 0.1452907770872116 2.563201904296875 0.1452907770872116 C 3.544861793518066 0.1452907770872116 4.343502044677734 1.11051082611084 4.343502044677734 2.296920776367188 C 4.343502044677734 3.483330726623535 3.544861793518066 4.448550701141357 2.563201904296875 4.448550701141357 Z" stroke="none"/>
      <path d="M 2.563201904296875 0.6452908515930176 C 1.869211912155151 0.6452908515930176 1.282902002334595 1.401640892028809 1.282902002334595 2.296920776367188 C 1.282902002334595 3.192200660705566 1.869211912155151 3.948550701141357 2.563201904296875 3.948550701141357 C 3.257191896438599 3.948550701141357 3.843502044677734 3.192200660705566 3.843502044677734 2.296920776367188 C 3.843502044677734 1.401640892028809 3.257191896438599 0.6452908515930176 2.563201904296875 0.6452908515930176 M 2.563201904296875 -0.3547091484069824 C 3.822581768035889 -0.3547091484069824 4.843502044677734 0.8324708938598633 4.843502044677734 2.296920776367188 C 4.843502044677734 3.761370658874512 3.822581768035889 4.948550701141357 2.563201904296875 4.948550701141357 C 1.303821802139282 4.948550701141357 0.2829017639160156 3.761370658874512 0.2829017639160156 2.296920776367188 C 0.2829017639160156 0.8324708938598633 1.303821802139282 -0.3547091484069824 2.563201904296875 -0.3547091484069824 Z" stroke="none" fill="#4e7989"/>
    </g>
    <path id="Path_3889" data-name="Path 3889" d="M1185.44-423.674a4.27,4.27,0,0,1,2.516-2.358c1.767-.486,2.245,0,2.245,0L1188.186-428l-5.493,1.624Z" transform="translate(-1149.115 473.045)" fill="rgba(59,59,59,0.61)"/>
    <path id="Path_2186" data-name="Path 2186" d="M724.336-299.35l25.026,22.573,37.711-23.293v-.83l-36.194-14.583-26.542,14.94Z" transform="translate(-723.744 331.201)" fill="#434343"/>
    <path id="Path_2191" data-name="Path 2191" d="M1249.1-1109.689l9.925-5.872Z" transform="translate(-1204.75 1151.478)" fill="gray"/>
    <path id="Path_2193" data-name="Path 2193" d="M1261.486-1114.095l-26.332-22.032Z" transform="translate(-1206.609 1149.144)" fill="#929191"/>
    <path id="Path_2215" data-name="Path 2215" d="M1216.634-1124.816l24.869,22.682,37.767-22.93-26.4-20.8Z" transform="translate(-1215.861 1155.436)" fill="#716e6e"/>
    <path id="Path_3874" data-name="Path 3874" d="M1510.89-1069.578l7.5-8.3.7.536-7.544,8.446Z" transform="translate(-1480.077 1089.102)" fill="#bababa"/>
    <path id="Path_4154" data-name="Path 4154" d="M1510.89-1069.578l7.5-8.3.7.536-7.544,8.446Z" transform="translate(-1474.077 1093.232)" fill="#bababa"/>
    <path id="Path_4155" data-name="Path 4155" d="M1510.89-1069.578l7.5-8.3.7.536-7.544,8.446Z" transform="translate(-1468.732 1098.554)" fill="#bababa"/>
    <path id="Path_4156" data-name="Path 4156" d="M1510.89-1069.578l7.5-8.3.7.536-7.544,8.446Z" transform="translate(-1462.858 1102.548)" fill="#bababa"/>
    <path id="Path_3873" data-name="Path 3873" d="M1510.867-1069.3l7.448-8.575.7.536-7.489,8.724Z" transform="translate(-1486.606 1120.277)" fill="#bababa"/>
    <path id="Path_4157" data-name="Path 4157" d="M1510.867-1069.3l7.448-8.575.7.536-7.489,8.724Z" transform="translate(-1491.606 1115.647)" fill="#bababa"/>
    <path id="Path_4158" data-name="Path 4158" d="M1510.867-1069.3l7.448-8.575.7.536-7.489,8.724Z" transform="translate(-1496.571 1109.875)" fill="#bababa"/>
    <path id="Path_4159" data-name="Path 4159" d="M1510.867-1069.3l7.448-8.575.7.536-7.489,8.724Z" transform="translate(-1501.873 1105.245)" fill="#bababa"/>
    <path id="Path_2192" data-name="Path 2192" d="M1224.855-1130.706l26.221,22.229,18.5-11.366-25.86-21.588Z" transform="translate(-1215.861 1156.122)" fill="#929191"/>
    <path id="Path_2281" data-name="Path 2281" d="M15819.9,3491.032l26.677,21.818,1.081-.606-26.985-21.6Z" transform="translate(-15801.774 -3471.061)" fill="#ffc916"/>
    <path id="Path_4166" data-name="Path 4166" d="M15819.9,3491.032l26.677,21.818,1.081-.606-26.985-21.6Z" transform="translate(-15806.825 -3468.094)" fill="rgba(212,212,212,0.61)"/>
    <path id="Path_4167" data-name="Path 4167" d="M15819.9,3491.032l26.677,21.818,1.081-.606-26.985-21.6Z" transform="translate(-15797.925 -3473.997)" fill="rgba(212,212,212,0.61)"/>
    <path id="Path_3893" data-name="Path 3893" d="M1556.653-1076.557l2.549-1.575-26.04-21.06-2.479,1.422Z" transform="translate(-1496 1108.553)" fill="#929191"/>
    <path id="Path_3894" data-name="Path 3894" d="M1555.544-1075.108l2.549-1.575-24.931-22.509-2.479,1.422Z" transform="translate(-1530.091 1128.355)" fill="#929191"/>
  </g>
</svg>
