<svg xmlns="http://www.w3.org/2000/svg" xmlns:xlink="http://www.w3.org/1999/xlink" width="40" height="40" viewBox="0 0 40 40">
  <defs>
    <clipPath id="clip-Garbage">
      <rect width="40" height="40"/>
    </clipPath>
  </defs>
  <g id="Garbage" clip-path="url(#clip-Garbage)">
    <path id="Path_3704" data-name="Path 3704" d="M74.215-942.183l3.634-1.74,3.788.71v6.392l-1.657.71s-2.131,2.9-2.131,4.261,1.737.334,2.131,1.184-.556,2.213-.556,2.213l-3.551,2.131-2.841-6.072,2.841-6.392Z" transform="translate(52.353 957.909) rotate(-7)" fill="#27a600"/>
    <path id="Path_3703" data-name="Path 3703" d="M85.7-934.606l3.752-2.049s1.713-4.261,1.574-5.682-2.131,0-2.131,0a21.226,21.226,0,0,0-1.574-5.291c-.947-1.6-2.213-1.1-2.213-1.1l-4.332,1.1-.639,5.291,3.314-.876Z" transform="translate(52.353 957.909) rotate(-7)" fill="#27a600"/>
    <path id="Path_3702" data-name="Path 3702" d="M81.553-930.666s2.193-1.867,2.924-1.491,0,2.995,0,2.995H85.9l1.1-2.995,2.45-1.42a10.488,10.488,0,0,1,1.338,4.415c0,2.11.024,2.427-1.338,4.024a9.751,9.751,0,0,1-4.107,2.367l-1.5-.556L80.606-921.2Z" transform="translate(52.353 957.909) rotate(-7)" fill="#27a600"/>
    <path id="Icon_awesome-recycle" data-name="Icon awesome-recycle" d="M5.918,15.145a1.2,1.2,0,0,1-.025.486.607.607,0,0,1-.182.305.319.319,0,0,1-.272.073.521.521,0,0,1-.3-.21l-1.3-1.674L2.2,17.8a2.006,2.006,0,0,0-.158.8,2.783,2.783,0,0,0,.128.841,2.236,2.236,0,0,0,.357.7,1.08,1.08,0,0,0,.53.391l1.658.483a.365.365,0,0,1,.149.091.658.658,0,0,1,.121.166.945.945,0,0,1,.081.217,1.024,1.024,0,0,1,.029.245L5.09,23.766a.82.82,0,0,1-.031.227.506.506,0,0,1-.083.169.283.283,0,0,1-.122.094.231.231,0,0,1-.149,0l-1.652-.485A3.251,3.251,0,0,1,1.464,22.6,6.686,6.686,0,0,1,.395,20.494a8.329,8.329,0,0,1-.384-2.516,6.039,6.039,0,0,1,.471-2.4L2.112,11.9l-1.3-1.673a1.139,1.139,0,0,1-.2-.43,1.373,1.373,0,0,1-.031-.466.866.866,0,0,1,.124-.38.356.356,0,0,1,.266-.173l3.539-.307a.352.352,0,0,1,.2.049.631.631,0,0,1,.184.165,1.053,1.053,0,0,1,.143.256,1.365,1.365,0,0,1,.083.322l.792,5.886ZM9.155,6.637l1.315,3.793-1.329.939a.576.576,0,0,0-.205.317,1.218,1.218,0,0,0-.036.45,1.363,1.363,0,0,0,.122.452.788.788,0,0,0,.267.326l3.561,2.327a.383.383,0,0,0,.207.068.319.319,0,0,0,.187-.061.494.494,0,0,0,.147-.174.874.874,0,0,0,.088-.272l.885-5.461a1.317,1.317,0,0,0-.018-.5,1.206,1.206,0,0,0-.179-.416.615.615,0,0,0-.275-.234.316.316,0,0,0-.305.042l-1.338.945-1.315-3.8A6.229,6.229,0,0,0,9.774,3.288a3.131,3.131,0,0,0-1.472-1,1.884,1.884,0,0,0-1.477.176A2.97,2.97,0,0,0,5.651,3.9L5.064,5.224a.725.725,0,0,0-.055.215,1,1,0,0,0,0,.239,1.035,1.035,0,0,0,.059.234.793.793,0,0,0,.111.2l1.089,1.4a.465.465,0,0,0,.144.127.264.264,0,0,0,.148.034A.244.244,0,0,0,6.7,7.617a.407.407,0,0,0,.107-.149L7.4,6.145a.983.983,0,0,1,.4-.478.626.626,0,0,1,.493-.052,1.063,1.063,0,0,1,.488.336A2.069,2.069,0,0,1,9.155,6.637Zm6.856,13.424-.871-2.519a.831.831,0,0,0-.1-.209A.517.517,0,0,0,14.9,17.2a.293.293,0,0,0-.15-.051.238.238,0,0,0-.146.045l-1.111.77a.37.37,0,0,0-.114.136.66.66,0,0,0-.063.2.946.946,0,0,0-.007.234,1.027,1.027,0,0,0,.052.244l.872,2.515a2.7,2.7,0,0,1,.15.894,2.115,2.115,0,0,1-.14.77,1.07,1.07,0,0,1-.371.5.624.624,0,0,1-.542.081l-3.1-.9.019-2.443a1.345,1.345,0,0,0-.088-.495.967.967,0,0,0-.224-.35.438.438,0,0,0-.287-.136.341.341,0,0,0-.276.149l-2.594,3.32a.683.683,0,0,0-.114.235,1.11,1.11,0,0,0-.039.294,1.367,1.367,0,0,0,.036.316,1.257,1.257,0,0,0,.111.3l2.535,4.8a.737.737,0,0,0,.27.306.341.341,0,0,0,.286.034.424.424,0,0,0,.228-.214.956.956,0,0,0,.1-.438l.018-2.427,3.087.907a1.877,1.877,0,0,0,1.626-.234,3.188,3.188,0,0,0,1.115-1.487,6.311,6.311,0,0,0,.424-2.309A8.112,8.112,0,0,0,16.011,20.061Z" transform="translate(10.245 4.959)" fill="#31cf00"/>
  </g>
</svg>
