<svg xmlns="http://www.w3.org/2000/svg" xmlns:xlink="http://www.w3.org/1999/xlink" width="26" height="26" viewBox="0 0 26 26"><defs><clipPath id="b"><rect width="26" height="26"/></clipPath></defs><g id="a"><path d="M15946.109,4411.985a9.33,9.33,0,0,1,.98.819l19.469-.094,1.866-.612s.751-.042.863-.265a1.434,1.434,0,0,0,.122-.5v-.635l-.554-.131a26.427,26.427,0,0,0-.432-3.018c-.157-.268-3.252-.3-3.252-.3l-1.873-2.919s-7.333-.289-8.032.228-2.862,2.787-2.862,2.787-5.506.888-5.92,1.381a4.168,4.168,0,0,0-.242,1.844c0,.021-.418.032-.562.353C15945.67,4411.513,15945.686,4411.7,15946.109,4411.985Z" transform="translate(-15944.71 -4396.273)" fill="#d8d8d8"/><path d="M15956.214,4419.494s-.064-2.231,1.182-2.584a3.472,3.472,0,0,1,2.75.114c.938.5.945,2.47.945,2.47Z" transform="translate(-15952.637 -4402.967)" fill="#1d3041"/><circle cx="2" cy="2" r="2" transform="translate(4 14)" fill="#3a4654"/><path d="M15968.52,4408.037l1.974-2.346a.769.769,0,0,1,.4-.279c.131-.041.5-.142.5-.142h2l-.284,2.766Z" transform="translate(-15959.824 -4396.368)" fill="#809ba5"/><path d="M15964.855,4407.6l1.266.2,2.229-2.419-.44-.274Z" transform="translate(-15957.726 -4396.472)" fill="#809ba5"/><path d="M15983.8,4405.271v2.754h3.658s.393.015.521-.106,0-.381,0-.381l-1-2.267Z" transform="translate(-15969.863 -4396.368)" fill="#809ba5"/><path d="M15947.4,4415.639h.865l.113.112-.079.9h-.982Z" transform="translate(-15945.829 -4402.426)" fill="#fff"/><rect width="1" transform="translate(12 14)"/><path d="M15956.388,4419.494s-.083-2.406,1.169-2.758a3.436,3.436,0,0,1,2.735.114c.943.5.974,2.644.974,2.644Z" transform="translate(-15939.819 -4402.967)" fill="#1d3041"/><circle cx="2" cy="2" r="2" transform="translate(17 14)" fill="#3a4654"/><path d="M15994.578,4404.878s-.347.172-.414.221-.145.106-.144.17a1.28,1.28,0,0,0,.058.238l1.081,1.806a.712.712,0,0,0,.208.178.421.421,0,0,0,.374,0c.181-.074.407-.178.407-.178Z" transform="translate(-15975.659 -4396.352)" fill="#809ba5"/><path d="M16007.381,4413.7l-.379.075a.786.786,0,0,0-.326.127.306.306,0,0,0-.089.239v.524s-.042.249.053.359.323.079.323.079l.612.045Z" transform="translate(-15983.409 -4401.219)" fill="#f70"/><rect transform="translate(18 14)"/></g></svg>