<svg xmlns="http://www.w3.org/2000/svg" xmlns:xlink="http://www.w3.org/1999/xlink" width="32" height="32" viewBox="0 0 32 32"><defs><clipPath id="b"><rect width="32" height="32"/></clipPath></defs><g id="a"><g transform="translate(-4.686 -4.037)"><path d="M0,0,16.232,6.568l6.4,16.06L5.679,17.12Z" transform="translate(4.686 17.686) rotate(-45)" fill="#ebf2f4"/><path d="M-.387-1.582,6.006,1.53l6.882-3.111V3.484A15.721,15.721,0,0,1,6.006,5.657,12.749,12.749,0,0,1-.387,3.484Z" transform="translate(14.869 25.516)" fill="#d5e1e8"/><path d="M0,.685,1.414,0V9.9H0Z" transform="translate(33.414 19.101)" fill="#959595"/><path d="M2.155-.513c1.172,0,2.121,1.266,2.121,2.828S2.155,5.879,2.155,5.879.034,3.878.034,2.316.983-.513,2.155-.513Z" transform="translate(32.014 30.202)" fill="#cde0ed"/></g></g></svg>