<svg xmlns="http://www.w3.org/2000/svg" xmlns:xlink="http://www.w3.org/1999/xlink" width="64" height="64" viewBox="0 0 64 64"><defs><clipPath id="b"><rect width="64" height="64"/></clipPath></defs><g id="a"><path d="M3795.431-1675.383l4.185,2.578,4.274-1.481-4.071-2.518Z" transform="translate(-3777.14 1692.798)" fill="#9d9898"/><path d="M3795.416-1670.683l4.195,2.577v-6.809l-4.195-2.6Z" transform="translate(-3777.141 1694.908)" fill="#828282"/><path d="M3799.862-1674.911l4.274-1.46-.168,7.021-4.079,1.351Z" transform="translate(-3777.42 1694.86)" fill="#4d4d4d"/><path d="M3796.523-1674.46l2.861,1.743,3.49-.88-3.165-1.662Z" transform="translate(-3777.056 1686.417)" fill="#9d9898"/><path d="M3795.558-1671.013l2.844,1.909v-5.692l-2.844-1.76Z" transform="translate(-3776.054 1688.477)" fill="#828282"/><path d="M3795.085-1671.325l2.3,1.323v-2.646l-2.3-1.447Z" transform="translate(-3775.013 1683.26)" fill="#828282"/><path d="M3799.791-1674.724l3.473-.906-.167,5.466-3.356,1.089Z" transform="translate(-3777.429 1688.411)" fill="#4d4d4d"/><path d="M3799.787-1674.591l2.67-.589v2.566l-2.67.678Z" transform="translate(-3777.426 1685.193)" fill="#4d4d4d"/><path d="M3797.085-1682.983l2.373,1.5,2.659-.6-1.515-1.481-1.75-.838Z" transform="translate(-3777.013 1692.149)" fill="#505050"/><path d="M3795.416-1670.683l4.195,2.577v-6.809l-4.195-2.6Z" transform="translate(-3746.987 1713.36)" fill="#828282"/><path d="M3799.862-1674.911l4.274-1.46-.168,7.021-4.079,1.351Z" transform="translate(-3747.266 1713.312)" fill="#4d4d4d"/><path d="M3795.431-1675.383l4.185,2.578,4.274-1.481-4.071-2.518Z" transform="translate(-3746.986 1711.25)" fill="#9d9898"/><path d="M3796.523-1674.46l2.861,1.743,3.49-.88-3.165-1.662Z" transform="translate(-3746.902 1704.87)" fill="#9d9898"/><path d="M3795.558-1671.013l2.844,1.909v-5.692l-2.844-1.76Z" transform="translate(-3745.9 1706.93)" fill="#828282"/><path d="M3795.085-1671.325l2.3,1.323v-2.646l-2.3-1.447Z" transform="translate(-3744.859 1701.713)" fill="#828282"/><path d="M3799.791-1674.724l3.473-.906-.167,5.466-3.356,1.089Z" transform="translate(-3747.275 1706.863)" fill="#4d4d4d"/><path d="M3799.787-1674.591l2.67-.589v2.566l-2.67.678Z" transform="translate(-3747.272 1703.645)" fill="#4d4d4d"/><path d="M3797.085-1682.983l2.373,1.5,2.659-.6-1.515-1.481-1.75-.838Z" transform="translate(-3746.859 1710.601)" fill="#505050"/><path d="M2517.038-1004.1a.994.994,0,0,0-.1.518l.251,3.687s4.281,2.23,5.058,2.209l13.162-5.949s.83-.354.937-.595a4.292,4.292,0,0,0,.106-1.037v-2.852a1.273,1.273,0,0,0-.106-.612.767.767,0,0,0-.43-.3l-3.7-1.98-10.414,4.445-4.363,2.174A.837.837,0,0,0,2517.038-1004.1Z" transform="translate(-2487.88 1054.232)" fill="#4d4d4d"/><path d="M2517.038-1004.1a.994.994,0,0,0-.1.518l.251,3.687s4.281,2.23,5.058,2.209l13.162-5.949s.83-.354.937-.595a4.292,4.292,0,0,0,.106-1.037v-2.852a1.273,1.273,0,0,0-.106-.612.767.767,0,0,0-.43-.3l-3.7-1.98-10.414,4.445-4.363,2.174A.837.837,0,0,0,2517.038-1004.1Z" transform="translate(-2513.727 1034.694)" fill="#4d4d4d"/><path d="M2519.111-1005.344l.252,3.81s-.213-.012,1.408,1.589,4.161.356,4.161.356l-.215-3.515s-3.246-.307-4.231-1.049A9.707,9.707,0,0,1,2519.111-1005.344Z" transform="translate(-2489.867 1055.802)" fill="#828282"/><path d="M2519.111-1005.344l.252,3.81s-.213-.012,1.408,1.589a3.215,3.215,0,0,0,3.564.656l.382-3.815s-3.246-.307-4.231-1.049A9.707,9.707,0,0,1,2519.111-1005.344Z" transform="translate(-2515.714 1036.264)" fill="#828282"/><path d="M2374.549-1215.109l-11.382,4.544-48.211-31.61v-1.833l11.7-3.83,47.89,30.336Z" transform="translate(-2312.298 1267.183)" fill="#3a3a3a"/><path d="M2321.622-1241.39l47.42,30.032,7.723-2.683-45.916-30.129Z" transform="translate(-2317.525 1264.152)" fill="#666363"/><path d="M2334.293-1240.833l46.608,30.125.743-.227-46.733-30.079Z" transform="translate(-2326.37 1262.154)" fill="#887842"/><path d="M3795.416-1670.683l4.195,2.577v-6.809l-4.195-2.6Z" transform="translate(-3763.141 1719.873)" fill="#828282"/><path d="M3795.416-1670.683l4.195,2.577v-6.809l-4.195-2.6Z" transform="translate(-3790.064 1700.335)" fill="#828282"/><path d="M3799.862-1674.911l4.274-1.46-.168,7.021-4.079,1.351Z" transform="translate(-3763.42 1719.825)" fill="#4d4d4d"/><path d="M3799.862-1674.911l4.274-1.46-.168,7.021-4.079,1.351Z" transform="translate(-3790.343 1700.287)" fill="#4d4d4d"/><path d="M3795.431-1675.383l4.185,2.578,4.274-1.481-4.071-2.518Z" transform="translate(-3763.14 1717.763)" fill="#9d9898"/><path d="M3795.431-1675.383l4.185,2.578,4.274-1.481-4.071-2.518Z" transform="translate(-3790.063 1698.225)" fill="#9d9898"/><path d="M3796.523-1674.46l2.861,1.743,3.49-.88-3.165-1.662Z" transform="translate(-3763.056 1711.382)" fill="#9d9898"/><path d="M3795.558-1671.013l2.844,1.909v-5.692l-2.844-1.76Z" transform="translate(-3762.054 1713.442)" fill="#828282"/><path d="M3802.644-1678.115l12.73-3.822-3.161-1.725-12.708,3.615Z" transform="translate(-3762.827 1717.177)" fill="#9d9898"/><path d="M3802.644-1678.115l12.73-3.822-3.161-1.725-12.708,3.615Z" transform="translate(-3792.981 1697.639)" fill="#9d9898"/><path d="M3802.42-1676.913l12.73-3.856v-1.385l-12.73,3.948Z" transform="translate(-3762.602 1717.306)" fill="#4d4d4d"/><path d="M3802.42-1676.913l12.73-3.856v-1.385l-12.73,3.948Z" transform="translate(-3792.756 1697.768)" fill="#4d4d4d"/><path d="M3799.791-1674.724l3.473-.906-.167,5.466-3.356,1.089Z" transform="translate(-3763.429 1713.376)" fill="#4d4d4d"/><path d="M3796.523-1674.46l2.861,1.743,3.49-.88-3.165-1.662Z" transform="translate(-3789.979 1691.845)" fill="#9d9898"/><path d="M3795.558-1671.013l2.844,1.909v-5.692l-2.844-1.76Z" transform="translate(-3788.977 1693.905)" fill="#828282"/><path d="M3795.085-1671.325l2.3,1.323v-2.646l-2.3-1.447Z" transform="translate(-3787.936 1688.688)" fill="#828282"/><path d="M3799.791-1674.724l3.473-.906-.167,5.466-3.356,1.089Z" transform="translate(-3790.353 1693.838)" fill="#4d4d4d"/><path d="M3799.787-1674.591l2.67-.589v2.566l-2.67.678Z" transform="translate(-3790.349 1690.62)" fill="#4d4d4d"/><path d="M3797.085-1682.983l2.373,1.5,2.659-.6-1.515-1.481-1.75-.838Z" transform="translate(-3789.936 1697.576)" fill="#505050"/><path d="M0,0S5.856,8,11.779,12.072a24.186,24.186,0,0,0,11.913,4.209" transform="translate(10.826 19.58)" fill="none" stroke="#707070" stroke-width="1"/><path d="M0,0S5.856,8,11.779,12.072s14.173,4.333,14.173,4.333" transform="translate(23.75 15.239)" fill="none" stroke="#707070" stroke-width="1"/><path d="M3795.085-1671.325l2.3,1.323v-2.646l-2.3-1.447Z" transform="translate(-3761.013 1708.225)" fill="#828282"/><path d="M3799.787-1674.591l2.67-.589v2.566l-2.67.678Z" transform="translate(-3763.426 1710.158)" fill="#4d4d4d"/><path d="M3797.085-1682.983l2.373,1.5,2.659-.6-1.515-1.481-1.75-.838Z" transform="translate(-3763.013 1717.114)" fill="#505050"/></g></svg>