<svg xmlns="http://www.w3.org/2000/svg" xmlns:xlink="http://www.w3.org/1999/xlink" width="26" height="26" viewBox="0 0 26 26"><defs><clipPath id="b"><rect width="26" height="26"/></clipPath></defs><g id="a"><path d="M0,0H18a0,0,0,0,1,0,0V5a2,2,0,0,1-2,2H2A2,2,0,0,1,0,5V0A0,0,0,0,1,0,0Z" transform="translate(4 12)" fill="#9d662e"/><path d="M0,0H4.782a4.178,4.178,0,0,0-.618-1.861,9.9,9.9,0,0,0-1.481-1.7A9.455,9.455,0,0,1,6.145-2.389,3.675,3.675,0,0,1,7.263-4.643,12.27,12.27,0,0,1,10.4-6.551,9.55,9.55,0,0,0,8.727-4.186,7.054,7.054,0,0,0,8.175-1.6,4.13,4.13,0,0,1,10.4-3.565a9.321,9.321,0,0,1,3.853,0,11.254,11.254,0,0,0-3,1.177A1.784,1.784,0,0,0,10.4-.82L13.388,0H18V3H0Z" transform="translate(4 9)" fill="#baed0d"/><circle cx="2.5" cy="2.5" r="2.5" transform="translate(14 10)" fill="#baed0d"/></g></svg>