<svg xmlns="http://www.w3.org/2000/svg" xmlns:xlink="http://www.w3.org/1999/xlink" width="26" height="26" viewBox="0 0 26 26">
  <defs>
    <clipPath id="clip-GroundPollution_3">
      <rect width="26" height="26"/>
    </clipPath>
  </defs>
  <g id="GroundPollution_3" data-name="GroundPollution – 3" clip-path="url(#clip-GroundPollution_3)">
    <g id="Group_2743" data-name="Group 2743">
      <g id="Group_2737" data-name="Group 2737" transform="translate(3.973 3.462)">
        <path id="Path_3713" data-name="Path 3713" d="M10.433,21.72V17.407L20.392,10.9l-.1,4.323Z" transform="translate(-0.052 -0.019)" fill="#583716"/>
        <path id="Path_2217" data-name="Path 2217" d="M733.551-300.106,746.5-289.014v-4.341l-8.562-7.034-4.429-3.638Z" transform="translate(-736 310.715)" fill="#9d662e"/>
        <path id="Path_2218" data-name="Path 2218" d="M1223.46-1136.162l4.328,3.651s1.231,4,2.518,5.146,2.628-.58,2.628-.58l3.41,2.587,2.266-1.5s1.757,1.364,3.171.43,2.486-4.168,2.486-4.168l2.074-1.37-12.822-10.463Z" transform="translate(-1226 1142.887)" fill="#cdff08"/>
      </g>
    </g>
    <g id="InfoIconNaturalResources" transform="translate(15.521 4.056) rotate(17)">
      <path id="Path_758" data-name="Path 758" d="M.239,5.24A2.886,2.886,0,0,1,.312,2.477a5.45,5.45,0,0,1,2.076-1.4A6.514,6.514,0,0,0,3.9-.095S4.28,2.893,3.4,4.058.239,5.24.239,5.24Z" fill="#94c900"/>
    </g>
    <g id="InfoIconNaturalResources-2" data-name="InfoIconNaturalResources" transform="translate(13.418 6.688) rotate(163)">
      <path id="Path_758-2" data-name="Path 758" d="M.5.014S-.515,2.161.519,3.688A6.237,6.237,0,0,0,3,5.491,7.586,7.586,0,0,1,4.8,7.01S5.339,3.024,4.3,1.5.5.014.5.014Z" transform="translate(0 0)" fill="#a3db06"/>
    </g>
    <path id="Path_2277" data-name="Path 2277" d="M-.1,3.968A8.181,8.181,0,0,1,.922,1.839a11.327,11.327,0,0,1,1.784-1.9,11.249,11.249,0,0,0-1.492,2,7.822,7.822,0,0,0-.756,2.1Z" transform="translate(14.77 5.701) rotate(17)" fill="#815d38"/>
    <path id="Path_2279" data-name="Path 2279" d="M131.1-603.044a4,4,0,0,0,2.893,1.53,5.709,5.709,0,0,0,3.156-1.1,3.3,3.3,0,0,0-3.156-1.866C131.7-604.354,131.1-603.044,131.1-603.044Z" transform="translate(-121.268 614.653)" fill="#7d9c25"/>
    <path id="Path_2278" data-name="Path 2278" d="M2.1.09S1.036.183.288,2.114c-.724,1.867.724,4.684,1.123,5.3a8.591,8.591,0,0,0,2.656,2.16,13.176,13.176,0,0,1-2.46-2.8,4.472,4.472,0,0,1-.379-3.823C2.04,1,3.286,1.286,3.286,1.286S3.577.78,2.945.347,2.1.09,2.1.09Z" transform="translate(14.933 11.478) rotate(163)" fill="#a8825b"/>
  </g>
</svg>
