<svg xmlns="http://www.w3.org/2000/svg" xmlns:xlink="http://www.w3.org/1999/xlink" width="26" height="28" viewBox="0 0 26 28">
  <defs>
    <clipPath id="clip-Healthcare">
      <rect width="26" height="28"/>
    </clipPath>
  </defs>
  <g id="Healthcare" clip-path="url(#clip-Healthcare)">
    <g id="Group_2727" data-name="Group 2727" transform="translate(4.327 4.486)">
      <path id="Path_3616" data-name="Path 3616" d="M39.628-943.487l2.184-.892,2.9,1.857-2.152,1.458Z" transform="translate(-39.628 948.331)" fill="#8a3414"/>
      <path id="Path_3615" data-name="Path 3615" d="M38.466-931.183l2.906-1.86s-1.075-1.44-1.223-1.249S38.466-931.183,38.466-931.183Z" transform="translate(-34.993 947.417)" fill="#b74e28"/>
      <path id="Path_3614" data-name="Path 3614" d="M34.211-927.549l3.173-2.171-3.739-2.618Z" transform="translate(-25.628 947.238)" fill="#8a3414"/>
      <path id="Path_3613" data-name="Path 3613" d="M36.629-947.862l2.847-1.36,2.6,3.764L38.785-943.6Z" transform="translate(-33.156 948.771)" fill="#8a3414"/>
      <path id="Path_3612" data-name="Path 3612" d="M37.847-947.691v3.5l-3.759,2.818v-4.829Z" transform="translate(-25.837 948.632)" fill="#8a3414"/>
      <path id="Path_3611" data-name="Path 3611" d="M36.447-937.945l-4.112-1.414-2.969,1.832,3.673,1.586Z" transform="translate(-19.101 947.876)" fill="#8a3414"/>
      <path id="Path_3610" data-name="Path 3610" d="M32.693-929.193,35.227-931l-1.531-3.39-3.324,1.162Z" transform="translate(-19.466 947.425)" fill="#8a3414"/>
      <path id="Path_3605" data-name="Path 3605" d="M45.65-932.9v-4.09l-2.9-1.216,2.02-1.507-2.02-4.09-2.64,1.507v-3.734l-3.261-1.722v3.229L35-947.75l-2.64,1.722L35-942.293,31.485-943.8v4.09l2.983,1.507-2.112,1.216L35-932.4l1.848-2v3.95l3.261,1.507V-932.4l2.64,3.455,2.02-1.507-2.02-3.95Z" transform="translate(-31.485 948.637)" fill="#e56333"/>
      <path id="Path_3606" data-name="Path 3606" d="M40.57-937.849v-1.561l-1.584-.646v-1.367l-1.677-.646v1.442l-1.848-.8v1.367l1.848.646v1.937a5.283,5.283,0,0,1,.985,1.7c.617,1.4-3.167,1.862-3.167,1.862s4.686-.171,4.488-1.568a4.827,4.827,0,0,0-.63-2v-.9Z" transform="translate(-30.801 948.121)" fill="#fff"/>
      <path id="Path_3607" data-name="Path 3607" d="M29.342-931.979l3.1-2.263v-3.515l-3.1,1.687Z" transform="translate(-15.177 947.73)" fill="#8a3414"/>
      <path id="Path_3608" data-name="Path 3608" d="M32.105-939.415l3.321-1.772-1.991-4.1L30.1-943.553Z" transform="translate(-18.9 948.414)" fill="#8a3414"/>
      <path id="Path_3609" data-name="Path 3609" d="M37.3-946.236l3.472-1.62-3.472-1.6-3.231,1.6Z" transform="translate(-28.76 948.792)" fill="#faa182"/>
    </g>
  </g>
</svg>
