<svg xmlns="http://www.w3.org/2000/svg" xmlns:xlink="http://www.w3.org/1999/xlink" width="34" height="34" viewBox="0 0 34 34"><defs><clipPath id="b"><rect width="34" height="34"/></clipPath></defs><g id="a"><path d="M733.5-302.422l18.073,15.486,14.1-9.392v-1.62L733.5-304.027Z" transform="translate(-732.621 317.139)" fill="#a1886c"/><path d="M1223.5-1133.647l18.118,15.388,14.114-9.271-18.165-15.392Z" transform="translate(-1222.621 1146.719)" fill="gray"/><path d="M739.261-309.632l17.892,15.621,1.385-.915-17.882-15.59Z" transform="translate(-732.035 318.455)" fill="#64df30"/><path d="M739.01-309.314,756.9-293.693l.8-.459-17.882-15.59Z" transform="translate(-735.38 320.455)" fill="#d4d4d4"/><path d="M739.007-308.99l17.859,15.478.674-.405-17.726-15.5Z" transform="translate(-727.69 315.136)" fill="#d4d4d4"/><rect width="2" height="11" rx="1" transform="translate(11 11)" fill="#b6b6b6"/><rect width="2" height="11" rx="1" transform="translate(22 2)" fill="#b6b6b6"/><g transform="translate(-1008 248)" fill="#58dcbe"><path d="M 1019.984436035156 -231.1708068847656 L 1019.984436035156 -237.2911224365234 L 1032.1005859375 -246.7467041015625 L 1032.1005859375 -241.1826019287109 L 1019.984436035156 -231.1708068847656 Z" stroke="none"/><path d="M 1020.484436035156 -232.2325744628906 L 1031.6005859375 -241.4180450439453 L 1031.6005859375 -245.7222442626953 L 1020.484436035156 -237.0470886230469 L 1020.484436035156 -232.2325744628906 M 1019.484436035156 -230.1090393066406 L 1019.484436035156 -237.53515625 L 1032.6005859375 -247.7711486816406 L 1032.6005859375 -240.9471435546875 L 1019.484436035156 -230.1090393066406 Z" stroke="none" fill="#e7e7e7"/></g></g></svg>