<svg xmlns="http://www.w3.org/2000/svg" xmlns:xlink="http://www.w3.org/1999/xlink" width="64" height="64" viewBox="0 0 64 64"><defs><clipPath id="b"><rect width="64" height="64"/></clipPath></defs><g id="a"><path d="M733.426-302.733l29.61,25.369,23.135-14.243v-1.623l-52.745-11.55Z" transform="translate(-728.04 330.13)" fill="#c4c4c4"/><path d="M735.865-304.107l34.087,22.391,13.869-8.215-28.775-25.8Z" transform="translate(-729.951 329.31)" fill="#d4d4d4"/><path d="M1224.4-1129.661l29.871,25.1,10.9-6.448-30.016-25.114Z" transform="translate(-1219.047 1155.002)" fill="#949494"/><path d="M1224.4-1129.661l29.871,25.1,10.9-6.448-30.016-25.114Z" transform="translate(-1206.995 1147.886)" fill="#949494"/><path d="M15735.836,2434.139l.937,6.54,1.877-1.049,6.6,6.079,3.01-1.765-6.471-5.883,2.157-1.245Z" transform="translate(-15715.158 -2406.452)" fill="#fff"/><path d="M15735.836,2434.139l.937,6.54,1.877-1.049,6.6,6.079,3.01-1.765-6.471-5.883,2.157-1.245Z" transform="translate(-15706.158 -2411.452)" fill="#fff"/></g></svg>