<svg xmlns="http://www.w3.org/2000/svg" xmlns:xlink="http://www.w3.org/1999/xlink" width="64" height="64" viewBox="0 0 64 64"><defs><clipPath id="b"><rect width="64" height="64"/></clipPath></defs><g id="a"><path d="M722.072-295.333l29.712,25.316,34.037-20.612.35-2.6-64.1-4.686Z" transform="translate(-722.04 327.13)" fill="#c4c4c4"/><path d="M737.026-304.839l24.051,28.178,22.492-13.148-27.59-26.139Z" transform="translate(-728.951 329.31)" fill="#d4d4d4"/><path d="M1224.123-1129.9l29.871,25.1,10.9-6.448-30.016-25.114Z" transform="translate(-1224.047 1159.002)" fill="#949494"/><path d="M1225.038-1129.768l29.871,25.1,10.261-6.341-30.016-25.114Z" transform="translate(-1212.995 1151.886)" fill="#949494"/><path d="M1224.4-1129.661l29.871,25.1,10.9-6.448-30.016-25.114Z" transform="translate(-1200.995 1144.886)" fill="#949494"/><path d="M1249.1-1108.867l11.313-6.694Z" transform="translate(-1201.926 1152.895)" fill="gray"/><path d="M15735.836,2434.139l.937,6.54,1.877-1.049,6.6,6.079,3.01-1.765-6.471-5.883,2.157-1.245Z" transform="translate(-15720.158 -2403.452)" fill="#fff"/><path d="M15735.836,2434.139l.937,6.54,1.877-1.049,6.6,6.079,3.01-1.765-6.471-5.883,2.157-1.245Z" transform="translate(-15710.158 -2409.452)" fill="#fff"/><path d="M15735.836,2434.139l.937,6.54,1.877-1.049,6.6,6.079,3.01-1.765-6.471-5.883,2.157-1.245Z" transform="translate(-15701.158 -2415.452)" fill="#fff"/></g></svg>