<svg xmlns="http://www.w3.org/2000/svg" xmlns:xlink="http://www.w3.org/1999/xlink" width="64" height="64" viewBox="0 0 64 64"><defs><clipPath id="b"><rect width="64" height="64"/></clipPath></defs><g id="a"><path d="M722.072-295.333l29.712,25.316,34.037-20.612.35-2.6-64.1-4.686Z" transform="translate(-722.04 327.13)" fill="#c4c4c4"/><path d="M737.026-304.839l24.051,28.178,25.135-14.784-30.233-24.5Z" transform="translate(-728.951 329.31)" fill="#d4d4d4"/><path d="M1224.123-1129.9l29.871,25.1,33.872-20.155-29.7-24.869Z" transform="translate(-1224.047 1159.002)" fill="#929191"/><path d="M15820,3491.44l30.408,24.87,1.232-.691-30.76-24.619Z" transform="translate(-15811.93 -3467.122)" fill="#d4d4d4"/><path d="M15820.364,3491.4l30.287,24.649,1.232-.691-30.639-24.4Z" transform="translate(-15806.667 -3470.317)" fill="#d4d4d4"/><path d="M15820.324,3491.3l30.229,24.7,1.232-.691-30.58-24.444Z" transform="translate(-15801.152 -3473.414)" fill="#d4d4d4"/><path d="M15820,3491.44l30.2,24.651,1.232-.691-30.555-24.4Z" transform="translate(-15794.771 -3477.006)" fill="#d4d4d4"/><path d="M15735.836,2434.139l.762,4.973,1.527-.8,5.368,4.623,2.448-1.342-5.264-4.473,1.755-.947Z" transform="translate(-15722.139 -2400.358)" fill="#fff"/><path d="M15735.836,2434.139l.762,4.973,1.527-.8,5.368,4.623,2.448-1.342-5.264-4.473,1.755-.947Z" transform="translate(-15715.139 -2404.128)" fill="#fff"/><path d="M15735.836,2434.139l.762,4.973,1.527-.8,5.368,4.623,2.448-1.342-5.264-4.473,1.755-.947Z" transform="translate(-15708.889 -2407.599)" fill="#fff"/><path d="M15735.836,2434.139l.762,4.973,1.527-.8,5.368,4.623,2.448-1.342-5.264-4.473,1.755-.947Z" transform="translate(-15703.168 -2410.936)" fill="#fff"/><path d="M15735.836,2434.139l.762,4.973,1.527-.8,5.368,4.623,2.448-1.342-5.264-4.473,1.755-.947Z" transform="translate(-15697.168 -2414.659)" fill="#fff"/></g></svg>