<svg xmlns="http://www.w3.org/2000/svg" xmlns:xlink="http://www.w3.org/1999/xlink" width="64" height="64" viewBox="0 0 64 64"><defs><clipPath id="b"><rect width="64" height="64"/></clipPath></defs><g id="a"><path d="M722.072-295.333l29.712,25.316,34.037-20.612.35-2.6-64.1-4.686Z" transform="translate(-722.072 327.13)" fill="#c4c4c4"/><path d="M737.026-304.839l24.051,28.178,25.135-14.784-30.233-24.5Z" transform="translate(-728.982 329.31)" fill="#d4d4d4"/><path d="M1224.123-1129.9l29.871,25.1,9-5.463-29.7-24.869Z" transform="translate(-1224.078 1159.002)" fill="#949494"/><path d="M1223.129-1128.57,1253-1103.719l14.472-8.426-29.84-24.934Z" transform="translate(-1213.027 1151.886)" fill="#949494"/><path d="M1226.582-1130.891l29.871,25.1,8.717-5.218-30.016-25.114Z" transform="translate(-1201.027 1144.886)" fill="#949494"/><path d="M15820,3491.44l30.408,24.87,1.232-.691-30.76-24.619Z" transform="translate(-15803.473 -3472.092)" fill="#d4d4d4"/><path d="M15735.836,2434.139l.937,6.54,1.877-1.049,6.6,6.079,3.01-1.765-6.471-5.883,2.157-1.245Z" transform="translate(-15722.702 -2401.133)" fill="#fff"/><path d="M15735.836,2434.139l.937,6.54,1.877-1.049,6.6,6.079,3.01-1.765-6.471-5.883,2.157-1.245Z" transform="translate(-15713.702 -2406.617)" fill="#fff"/><path d="M15735.836,2434.139l.937,6.54,1.877-1.049,6.6,6.079,3.01-1.765-6.471-5.883,2.157-1.245Z" transform="translate(-15705.702 -2410.71)" fill="#fff"/><path d="M15735.836,2434.139l.937,6.54,1.877-1.049,6.6,6.079,3.01-1.765-6.471-5.883,2.157-1.245Z" transform="translate(-15697.197 -2415.998)" fill="#fff"/></g></svg>