<svg xmlns="http://www.w3.org/2000/svg" xmlns:xlink="http://www.w3.org/1999/xlink" width="26" height="26" viewBox="0 0 26 26"><defs><clipPath id="b"><rect width="26" height="26"/></clipPath></defs><g id="a"><path d="M2.335,1.123A3.386,3.386,0,0,0,5.117,2.352C7.181,2.386,7.783.97,8.139,1.123c.021.009.042.017.345.165a2.624,2.624,0,0,0-.345,3.218A3.252,3.252,0,0,0,6.678,5.99a6.346,6.346,0,0,0-.5,3.511H.979a.994.994,0,0,1-.994-.994s-.032-1.922,0-2.967S-.025,1.984,2.335,1.123Z" transform="translate(2.712 9.898)" fill="#97b4be"/><circle cx="3.518" cy="3.518" r="3.518" transform="translate(4.389 4.81)" fill="#97b4be"/><path d="M1.745,1.12a2.54,2.54,0,0,0,2.087.922c1.548.026,2-1.036,2.267-.922,1.566.639,1.707,2.556,1.71,3.315s0,2.226,0,2.226a.745.745,0,0,1-.745.745H.727A.745.745,0,0,1-.018,6.66s-.024-1.442,0-2.226S-.026,1.766,1.745,1.12Z" transform="translate(9.429 13.785)" fill="#c2f0ff"/><circle cx="2.592" cy="2.592" r="2.592" transform="translate(10.815 10.328)" fill="#c2f0ff"/><path d="M5.814,1.173A3.386,3.386,0,0,1,3.032,2.4C.968,2.436.366,1.02.01,1.173c-.021.009-.042.017-.345.165A2.624,2.624,0,0,1,.01,4.556,4.391,4.391,0,0,1,1.531,5.9c.669.842.513,2.2.443,3.654h5.2a.994.994,0,0,0,.994-.994s.032-1.922,0-2.967S8.174,2.034,5.814,1.173Z" transform="translate(15.941 9.898)" fill="#97b4be"/><path d="M3.2.075A3.518,3.518,0,1,1-.314,3.593,3.518,3.518,0,0,1,3.2.075Z" transform="translate(15.683 4.81)" fill="#97b4be"/></g></svg>