<svg xmlns="http://www.w3.org/2000/svg" xmlns:xlink="http://www.w3.org/1999/xlink" width="26" height="26" viewBox="0 0 26 26"><defs><clipPath id="b"><rect width="26" height="26"/></clipPath></defs><g id="a"><g transform="translate(8.177 3.829)"><path d="M27.843,7.92s-1.971-4.574,0-7.812a11.985,11.985,0,0,1,4.744-3.816,14.929,14.929,0,0,0,3.436-3.215S37.1,1.557,35.13,4.795,27.843,7.92,27.843,7.92Z" transform="translate(-26.967 6.923)" fill="#4eff18"/></g><path d="M389.734-562.895a24.51,24.51,0,0,1,2.258-5.953,28.053,28.053,0,0,1,4.035-5.267,29.818,29.818,0,0,0-3.348,5.554,24.572,24.572,0,0,0-1.631,5.893Z" transform="translate(-382 583)" fill="#815d38"/></g></svg>