<svg xmlns="http://www.w3.org/2000/svg" xmlns:xlink="http://www.w3.org/1999/xlink" width="34" height="34" viewBox="0 0 34 34"><defs><clipPath id="b"><rect width="34" height="34"/></clipPath></defs><g id="a"><path d="M759.421-302.422l-18.073,15.486-7.843-5.626v-1.62l25.916-9.846Z" transform="matrix(0.995, 0.105, -0.105, 0.995, -756.552, 235.614)" fill="#434343"/><path d="M733.5-302.422l18.073,15.486,7.843-5.626v-1.62L733.5-304.027Z" transform="translate(-729.463 315.274)" fill="#434343"/><path d="M1223.5-1133.647l18.118,15.388,7.781-5.434-17.843-15.5Z" transform="translate(-1219.463 1144.855)" fill="gray"/><path d="M1249.4-1133.647l-18.118,15.388-7.781-5.434,17.843-15.5Z" transform="matrix(0.995, 0.105, -0.105, 0.995, -1330.565, 1009.432)" fill="gray"/><path d="M986.79-161.854l4.206-3,1.109,1.022-4.351,2.893Z" transform="translate(-980 183.999)" fill="#d7d4d4"/><path d="M992.1-161.854l-4.206-3-1.109,1.022,4.351,2.893Z" transform="translate(-978.09 63.111) rotate(7)" fill="#d7d4d4"/><path d="M986.79-161.854l4.206-3,1.109,1.022-4.351,2.893Z" transform="translate(-965 173.999)" fill="#d7d4d4"/><path d="M992.1-161.854l-4.206-3-1.109,1.022,4.351,2.893Z" transform="translate(-991.759 51.357) rotate(7)" fill="#d7d4d4"/></g></svg>