<svg xmlns="http://www.w3.org/2000/svg" xmlns:xlink="http://www.w3.org/1999/xlink" width="26" height="26" viewBox="0 0 26 26"><defs><clipPath id="b"><rect width="26" height="26"/></clipPath></defs><g id="a"><g transform="translate(5.452 4.667)"><path d="M733.5-303.025l11.284,9.669,8.8-5.864v-1.011l-20.087-3.8Z" transform="translate(-736 309.875)" fill="#434343"/><path d="M1223.5-1137.125l11.189,9.5,8.716-5.726-11.277-9.393Z" transform="translate(-1226 1142.887)" fill="#94c900"/></g><path d="M309.834-572.746a10.224,10.224,0,0,0,1.361,4c1.059,1.453,2.184.608,3.482,2.158s1.833,6.227,1.833,6.227l3.048-1.988a21.886,21.886,0,0,0-2.709-5.089c-1.486-1.806-2.342-1.088-3.346-2.328s-1.151-4.578-1.151-4.578Z" transform="translate(-301.924 580)" fill="#0086e0"/><g transform="translate(9.757 4.337)"><path d="M6.335-14.106A3.527,3.527,0,0,0,9.661-15.8L8.323-16.868A2.115,2.115,0,0,1,6.335-15.8c-2.008,0-2.257-1.4-2.325-2.649.1-1.169.174-2.667,2.325-2.667a2.115,2.115,0,0,1,1.989.881l1.252-1.042a3.459,3.459,0,0,0-3.241-1.51c-2.983,0-4.159,2.229-4.159,4.339C2.176-16.311,3.295-14.106,6.335-14.106Z" transform="translate(-2.176 24.611)" fill="#848383"/><rect width="1.5" height="2.5" transform="translate(3.417 0)" fill="#848383"/><rect width="1.5" height="2.5" transform="translate(3.417 9.5)" fill="#848383"/></g><g transform="translate(8.757 3.116)"><path d="M6.335-14.106A3.527,3.527,0,0,0,9.661-15.8L8.323-16.868A2.115,2.115,0,0,1,6.335-15.8c-2.008,0-2.257-1.4-2.325-2.649.1-1.169.174-2.667,2.325-2.667a2.115,2.115,0,0,1,1.989.881l1.252-1.042a3.459,3.459,0,0,0-3.241-1.51c-2.983,0-4.159,2.229-4.159,4.339C2.176-16.311,3.295-14.106,6.335-14.106Z" transform="translate(-2.176 24.611)" fill="#f6f0f0"/><rect width="1.5" height="2.5" transform="translate(3.417 0)" fill="#f6f0f0"/><rect width="1.5" height="2.5" transform="translate(3.417 9.5)" fill="#f6f0f0"/></g></g></svg>