<svg xmlns="http://www.w3.org/2000/svg" xmlns:xlink="http://www.w3.org/1999/xlink" width="40" height="40" viewBox="0 0 40 40">
  <defs>
    <clipPath id="clip-Landscaping">
      <rect width="40" height="40"/>
    </clipPath>
  </defs>
  <g id="Landscaping" clip-path="url(#clip-Landscaping)">
    <path id="Rectangle_4590" data-name="Rectangle 4590" d="M16.11,1.387l12,7.313a2.227,2.227,0,0,1,.709.663,1.655,1.655,0,0,1,.278.8,1.683,1.683,0,0,1-.16.834,2.3,2.3,0,0,1-.6.771l-9.9,8.464a3.228,3.228,0,0,1-.937.549,4.079,4.079,0,0,1-2.223.19,3.247,3.247,0,0,1-1.019-.382l-11.985-7.1a2.325,2.325,0,0,1-.73-.658,1.694,1.694,0,0,1-.3-.8,1.651,1.651,0,0,1,.133-.834,2.21,2.21,0,0,1,.583-.774l9.88-8.669a3.253,3.253,0,0,1,.956-.573A4.081,4.081,0,0,1,15.067.986,3.278,3.278,0,0,1,16.11,1.387Z" transform="translate(4.83 15.556)" fill="#83e700"/>
    <g id="Group_2902" data-name="Group 2902" transform="translate(18.126 11.235)">
      <path id="Path_4205" data-name="Path 4205" d="M4.283.5,8.6,2.239a6.7,6.7,0,0,1,.751.351.678.678,0,0,1,.317.311.657.657,0,0,1-.016.422c-.049.176-.137.4-.247.684L8.23,7.443a3.548,3.548,0,0,1-.581.871A9.028,9.028,0,0,1,6.467,9.49a5.379,5.379,0,0,1-1.481.9,1.991,1.991,0,0,1-1.479.043A2.488,2.488,0,0,1,2.379,9.306a7.156,7.156,0,0,1-.671-1.779,10.8,10.8,0,0,1-.282-1.764,3.456,3.456,0,0,1,.039-1.084L2.628,1.26c.107-.282.181-.5.252-.667A.667.667,0,0,1,3.118.263.546.546,0,0,1,3.524.239,5.752,5.752,0,0,1,4.283.5Z" transform="translate(0 8.872)" fill="#9f9f9f"/>
      <path id="Path_4204" data-name="Path 4204" d="M2.206,12.794c-.09-.037-.106-.292-.08-.654s.1-.831.177-1.3.173-.924.244-1.268S2.671,9,2.671,9L4.693,3.068s-.066-.076-.161-.21A4.541,4.541,0,0,1,4.2,2.3a3.5,3.5,0,0,1-.3-.785,2.242,2.242,0,0,1-.039-.9c.054-.308.149-.456.26-.5a.378.378,0,0,1,.362.1A1.872,1.872,0,0,1,4.8.537c.085.107.139.191.139.191s0,.108,0,.273a5.044,5.044,0,0,0,.065.624,2.578,2.578,0,0,0,.2.678.836.836,0,0,0,.417.438.748.748,0,0,0,.58-.041,2.233,2.233,0,0,0,.561-.376A4.5,4.5,0,0,0,7.2,1.894c.105-.122.168-.206.168-.206s.1-.025.237-.045a1.953,1.953,0,0,1,.465-.021c.152.016.28.064.322.174s0,.281-.192.541a3.1,3.1,0,0,1-.644.644,3.853,3.853,0,0,1-.671.4,4.111,4.111,0,0,1-.527.205c-.133.041-.214.058-.214.058L4.116,9.588s-.1.21-.248.522-.356.727-.572,1.137-.444.815-.64,1.109S2.3,12.83,2.206,12.794Z" transform="translate(3.094 1.009)" fill="#e1c569"/>
      <path id="Path_4203" data-name="Path 4203" d="M1.007.22,4.9,1.758a1.21,1.21,0,0,1,.353.207.32.32,0,0,1,.112.205.517.517,0,0,1-.038.221c-.028.078-.065.162-.1.254s-.057.18-.089.256a.5.5,0,0,1-.119.187.315.315,0,0,1-.212.077,1.044,1.044,0,0,1-.366-.075L.555,1.549a1.071,1.071,0,0,1-.317-.2.366.366,0,0,1-.114-.206A.536.536,0,0,1,.143.921C.164.842.2.757.227.665S.285.484.317.405a.536.536,0,0,1,.12-.2A.3.3,0,0,1,.648.131.935.935,0,0,1,1.007.22Z" transform="translate(6.71)" fill="#908c8c"/>
    </g>
    <path id="Path_4206" data-name="Path 4206" d="M12.2,22.116c.986-.686,1.612-.371,2.783-.441.827-.013,1.114.841,2.04,1.229.087.028,1.8-1.062,2.235-.828a1.6,1.6,0,0,1,1.012,1.671s-.653,2.166-4.591,2.319-4.33-2.263-4.33-2.263l.851-1.687" transform="translate(10.406 3.191) rotate(9)" fill="#755330"/>
    <ellipse id="Ellipse_957" data-name="Ellipse 957" cx="4.5" cy="2.5" rx="4.5" ry="2.5" transform="translate(10 23)" fill="#327302"/>
    <path id="Path_2965" data-name="Path 2965" d="M0,0H3.1V5.517a3.194,3.194,0,0,1-1.563.56A3.04,3.04,0,0,1,0,5.517Z" transform="translate(13.179 19.285)" fill="#a1886c"/>
    <path id="Path_2966" data-name="Path 2966" d="M7.037,0l4.545,7.67,2.492,2.494s-1.434,3.152-6.657,3.548C1.856,13.485.4,10.165.4,10.165s-.014.047,1.745-2.494S7.037,0,7.037,0Z" transform="translate(7.337 9.903)" fill="#54b60b"/>
    <path id="Path_2967" data-name="Path 2967" d="M6.233,0S8.21,3.2,9.774,5.151a12.224,12.224,0,0,0,2.7,2.651c-2,.724-4.107,2.76-6.236,2.823C4.106,10.562,2,8.527,0,7.8A15.05,15.05,0,0,0,2.536,5.151C4.094,3.2,6.233,0,6.233,0Z" transform="translate(8.218 7.935)" fill="#54b60b"/>
    <path id="Path_2968" data-name="Path 2968" d="M3.988,0A24.1,24.1,0,0,0,5.606,4.418,15.012,15.012,0,0,0,7.975,7.735C6.755,8.43,5.39,9.816,3.988,9.9,2.585,9.816,1.221,8.43,0,7.735A16.571,16.571,0,0,0,2.281,4.418,28.352,28.352,0,0,0,3.988,0Z" transform="translate(10.722 2.539)" fill="#54b60b"/>
  </g>
</svg>
