<svg xmlns="http://www.w3.org/2000/svg" xmlns:xlink="http://www.w3.org/1999/xlink" width="26" height="26" viewBox="0 0 26 26">
  <defs>
    <clipPath id="clip-Landvalue">
      <rect width="26" height="26"/>
    </clipPath>
  </defs>
  <g id="Landvalue" clip-path="url(#clip-Landvalue)">
    <path id="Path_2217" data-name="Path 2217" d="M733.551-300.106,746.5-289.014v-4.341L733.5-304.027Z" transform="translate(-732.027 314.177)" fill="#9d662e"/>
    <path id="Path_2218" data-name="Path 2218" d="M1223.46-1136.162l12.883,10.8,10-6.606-12.822-10.463Z" transform="translate(-1222.026 1146.349)" fill="#6fb900"/>
    <path id="Path_3713" data-name="Path 3713" d="M10.433,21.72V17.407L20.392,10.9l-.1,4.323Z" transform="translate(3.973 3.462)" fill="#583716"/>
    <g id="Group_2374" data-name="Group 2374" transform="translate(9.263 2.349)">
      <path id="Path_2182" data-name="Path 2182" d="M7.024-12.668a4.111,4.111,0,0,0,3.878-1.97l-1.56-1.25a2.466,2.466,0,0,1-2.318,1.25c-2.34,0-2.631-1.628-2.711-3.088.114-1.363.2-3.109,2.711-3.109a2.465,2.465,0,0,1,2.318,1.027l1.46-1.215c-.518-.88-1.621-1.761-3.778-1.761-3.477,0-4.848,2.6-4.848,5.058C2.176-15.239,3.48-12.668,7.024-12.668Z" transform="translate(-2.176 24.913)" fill="#848383"/>
      <rect id="Rectangle_3960" data-name="Rectangle 3960" width="1.749" height="2.914" transform="translate(3.983 0)" fill="#848383"/>
      <rect id="Rectangle_3961" data-name="Rectangle 3961" width="1.749" height="2.914" transform="translate(3.983 11.074)" fill="#848383"/>
    </g>
    <g id="Group_2373" data-name="Group 2373" transform="translate(8.011 0.924)">
      <path id="Path_2182-2" data-name="Path 2182" d="M7.024-12.668a4.111,4.111,0,0,0,3.878-1.97l-1.56-1.25a2.466,2.466,0,0,1-2.318,1.25c-2.34,0-2.631-1.628-2.711-3.088.114-1.363.2-3.109,2.711-3.109a2.465,2.465,0,0,1,2.318,1.027l1.46-1.215c-.518-.88-1.621-1.761-3.778-1.761-3.477,0-4.848,2.6-4.848,5.058C2.176-15.239,3.48-12.668,7.024-12.668Z" transform="translate(-2.176 24.913)" fill="#f6f0f0"/>
      <rect id="Rectangle_3960-2" data-name="Rectangle 3960" width="1.749" height="2.914" transform="translate(3.983 0)" fill="#f6f0f0"/>
      <rect id="Rectangle_3961-2" data-name="Rectangle 3961" width="1.749" height="2.914" transform="translate(3.983 11.074)" fill="#f6f0f0"/>
    </g>
  </g>
</svg>
