<svg xmlns="http://www.w3.org/2000/svg" xmlns:xlink="http://www.w3.org/1999/xlink" width="40" height="40" viewBox="0 0 40 40">
  <defs>
    <clipPath id="clip-Landscaping">
      <rect width="40" height="40"/>
    </clipPath>
  </defs>
  <g id="Landscaping" clip-path="url(#clip-Landscaping)">
    <path id="Path_473" data-name="Path 473" d="M0,0H2.74V4.88a2.825,2.825,0,0,1-1.382.5A2.689,2.689,0,0,1,0,4.88Z" transform="translate(13.968 24.914)" fill="#976c4f"/>
    <path id="Path_470" data-name="Path 470" d="M7.626,0l4.925,8.312,2.7,2.7A21.787,21.787,0,0,1,7.626,12.7,21.787,21.787,0,0,1,0,11.015s.413.051,2.32-2.7S7.626,0,7.626,0Z" transform="translate(7.712 15.942)" fill="#54b60b"/>
    <path id="Path_471" data-name="Path 471" d="M6.755,0S8.9,3.468,10.589,5.582A13.247,13.247,0,0,0,13.51,8.455,21.765,21.765,0,0,1,6.755,9.746,21.765,21.765,0,0,1,0,8.455,16.309,16.309,0,0,0,2.748,5.582C4.437,3.468,6.755,0,6.755,0Z" transform="translate(8.491 13.808)" fill="#54b60b"/>
    <path id="Path_472" data-name="Path 472" d="M4.321,0A26.121,26.121,0,0,0,6.076,4.788,16.272,16.272,0,0,0,8.642,8.382a9.868,9.868,0,0,1-4.321,1.28A9.868,9.868,0,0,1,0,8.382,17.957,17.957,0,0,0,2.472,4.788,30.724,30.724,0,0,0,4.321,0Z" transform="translate(10.706 7.961)" fill="#54b60b"/>
    <path id="Path_463" data-name="Path 463" d="M15.539,25.293c-.869-3.6,2.647-10.368,2.647-10.368l4.233,2.5,6.092-9.842L26.461,6.375,27.453,4.9,33.54,8.388l-.992,1.476-2.3-1.292-6.305,9.8L27.858,21s-4.974,6.429-7.362,7.267a30.777,30.777,0,0,1-4.115,1.15l-.842-4.124" transform="translate(4.599 4.714)" fill="#ababab"/>
    <path id="Path_464" data-name="Path 464" d="M12.938,22.685a12.522,12.522,0,0,1,5.96-1.542,10.881,10.881,0,0,1,5.611,1.542c2.075.913,2.806,3.571,2.806,3.571H11.174l1.764-3.571" transform="translate(3.853 6.745)" fill="#755330"/>
    <path id="Path_465" data-name="Path 465" d="M5.566,30.843a46.856,46.856,0,0,0,13.612,2.44,42.377,42.377,0,0,0,13.187-2.44s-1.3-3.324-13.187-3.171S5.359,30.843,5.359,30.843" transform="translate(0.399 1.972)" fill="#83e700"/>
  </g>
</svg>
