<svg xmlns="http://www.w3.org/2000/svg" xmlns:xlink="http://www.w3.org/1999/xlink" width="64" height="64" viewBox="0 0 64 64"><defs><clipPath id="b"><rect width="64" height="64"/></clipPath></defs><g id="a"><g transform="translate(-30.37 143.586)"><path d="M48.086-130.226c9.585-7.233,19.316-5.348,20.771-4.065,1.789,1.577,5.64,11.046-.964,21.551a31.177,31.177,0,0,1-7.245,7.879C50.1-97.789,42.165-99.53,40.43-100.939c-1.7-1.384-4.914-9.735.43-20.673A28.254,28.254,0,0,1,48.086-130.226Z" transform="translate(0 0)" fill="#785d3e" fill-rule="evenodd"/><path d="M73.457-132.279c1.79,1.582,5.636,11.048-.965,21.55a31.177,31.177,0,0,1-7.245,7.879c-10.092,6.766-17.789,5.467-19.957,4.107,3.965-.348,9.319-1.972,15.545-6.3a38.318,38.318,0,0,0,8.323-9.1C73.69-121.212,74.2-127.748,73.457-132.279Z" transform="translate(-4.599 -2.011)" fill="#624e38" fill-rule="evenodd"/><path d="M68.737-134.385c-5.121.926-8.692,2.631-14.743,7.957a33.3,33.3,0,0,0-7.837,9.049c-4.238,6.877-5.592,12.127-5.884,16.3-1.732-1.746-4.6-9.921.587-20.53a28.253,28.253,0,0,1,7.226-8.613C57.439-137.285,66.931-135.66,68.737-134.385Z" fill="#8c6f4f" fill-rule="evenodd"/><path d="M56.922-101.873a29.224,29.224,0,0,1-4.9,1.959L38.274-111.552a26.433,26.433,0,0,1,1.109-5.168Zm14.9-21.785a21.541,21.541,0,0,1-.87,5.37L53.816-132.8a24.7,24.7,0,0,1,5.276-1.641Z" transform="translate(-0.229 -0.666)" fill="#f6f0e4" fill-rule="evenodd"/><path d="M71.76-90.727,74.985-88l-.014.007-.056.028-.035.018-.057.029-.081.04-.067.033-.023.011-.069.034-.012.006-.072.035-.08.039-.077.037-.006,0a28.726,28.726,0,0,1-4.25,1.641L67.27-88.422A38.777,38.777,0,0,0,71.76-90.727Zm15.315-21.437,2.813,2.382v.005l0,.073c0,.026,0,.052,0,.078l0,.073v.007l0,.066v.023l0,.063v.021l0,.063,0,.08,0,.058,0,.034,0,.055,0,.037,0,.053,0,.043,0,.04,0,.046,0,.045,0,.048,0,.047,0,.046,0,.055,0,.037,0,.016-.007.072,0,.041-.005.055,0,.041-.006.059,0,.035-.01.091,0,.03-.008.067,0,.037-.007.063-.005.042,0,.012-.009.076-.009.075,0,.014-.01.075v.008l-.009.068,0,.015-.01.073,0,.014-.009.064,0,.015-.011.072,0,.018-.009.063,0,.013-.011.072,0,.02-.011.066v.009l-.012.072,0,.021-.012.071,0,.012-.011.063,0,.022-.012.071,0,.018-.011.059,0,.021-.013.07,0,.021-.011.058,0,.019-.014.071,0,.022-.012.061,0,.015-.014.071,0,.023-.014.067,0,.015-.014.066,0,.023-.015.072,0,.016-.013.061,0,.022-.016.072,0,.019-.014.06,0,.02-.017.073,0,.021-.014.062,0,.016-.018.074-.005.021-.016.068,0,.009-.019.075,0,.021-.019.076,0,.009-.018.07,0,.02-.02.076,0,.013-.018.068,0,.017-.02.077,0,.015-.019.069,0,.013-.021.078,0,.016-.021.074,0,.007-.023.08,0,.016-.023.08-3.313-2.8A26.361,26.361,0,0,0,87.076-112.164Z" transform="translate(-18.292 -14.542)" fill="#ecdfcb" fill-rule="evenodd"/><path d="M44.134-112.7a40.223,40.223,0,0,0-1.934,4.47l-3.926-3.323q.008-.074.017-.149v0l.008-.069,0-.014.008-.067.009-.076.008-.063,0-.019.008-.062,0-.025.008-.061.01-.077.008-.056,0-.031.008-.055.005-.035.008-.054.012-.077.008-.051.006-.041.008-.05.007-.044.008-.048.013-.081.008-.046.008-.048.008-.046.009-.052.007-.041.015-.085.007-.042.01-.054.008-.042.011-.06.007-.036.016-.086.007-.039.011-.058.008-.04.013-.069.005-.026.018-.091.008-.037.013-.061.008-.038.016-.077,0-.017,0-.013.017-.081.008-.037.014-.063.008-.036.019-.087,0-.007,0-.019.018-.078.008-.037.015-.065.008-.036.022-.094.006-.024.018-.074.009-.038.016-.065.009-.036.023-.094.007-.029.018-.07.01-.04.017-.064.01-.037.025-.094L39-115.4l.017-.065.011-.042.017-.062.011-.039.026-.093.011-.04.017-.06.013-.046.017-.058.012-.043.026-.091.014-.047.016-.054.015-.05.016-.052.015-.049.027-.089.016-.054.014-.046.017-.056.014-.044.017-.054.017-.053.01-.033ZM62.409-131.63a28.432,28.432,0,0,0-4.158,2.586L53.816-132.8h0a24.733,24.733,0,0,1,5.109-1.608l.016,0,.06-.012.03-.006.052-.01.008,0Z" transform="translate(-0.229 -0.666)" fill="#fefdfb" fill-rule="evenodd"/><path d="M67.668-116.719a.8.8,0,0,0,.216-1.213c-.409-.406-1.139-.127-1.454.1-3.244,2.365-6.03,5.169-9.727,11.148-.205.332-.452,1.064.049,1.415a.763.763,0,0,0,1.189-.305A36.912,36.912,0,0,1,67.668-116.719Z" transform="translate(-11.555 -10.821)" fill="#f6f0e4" fill-rule="evenodd"/><path d="M77.288-113.464a.688.688,0,0,0-.08-.969l-3.787-3.206a.688.688,0,0,0-.969.08.688.688,0,0,0,.08.969l3.787,3.206A.688.688,0,0,0,77.288-113.464Z" transform="translate(-21.419 -11.031)" fill="#f6f0e4" fill-rule="evenodd"/><path d="M71.928-107.132a.687.687,0,0,0-.08-.968l-3.787-3.206a.688.688,0,0,0-.969.08.688.688,0,0,0,.081.969l3.787,3.206A.688.688,0,0,0,71.928-107.132Z" transform="translate(-18.08 -14.975)" fill="#f6f0e4" fill-rule="evenodd"/><path d="M66.568-100.8a.688.688,0,0,0-.08-.969L62.7-104.975a.688.688,0,0,0-.969.08.688.688,0,0,0,.081.969L65.6-100.72A.688.688,0,0,0,66.568-100.8Z" transform="translate(-14.74 -18.92)" fill="#f6f0e4" fill-rule="evenodd"/><path d="M61.208-94.468a.688.688,0,0,0-.081-.969L57.34-98.643a.688.688,0,0,0-.969.08.688.688,0,0,0,.08.969l3.787,3.206A.688.688,0,0,0,61.208-94.468Z" transform="translate(-11.401 -22.864)" fill="#f6f0e4" fill-rule="evenodd"/></g><g transform="translate(3.197 146.889)"><path d="M52.058-112.653A18.015,18.015,0,0,1,40.651-89.887a18.014,18.014,0,0,1-22.766-11.407A18.014,18.014,0,0,1,29.292-124.06,18.015,18.015,0,0,1,52.058-112.653Z" transform="translate(0 0)" fill="#fbfcfc" fill-rule="evenodd"/><path d="M63.968-101.656A17.985,17.985,0,0,1,66.234-97.1,18.015,18.015,0,0,1,54.827-74.338a17.993,17.993,0,0,1-16.6-2.77,20.331,20.331,0,0,0,12.316-.177A20.54,20.54,0,0,0,63.968-101.656Z" transform="translate(-14.176 -15.549)" fill="#bebebe" fill-rule="evenodd"/><path d="M46-96.761a3.577,3.577,0,0,0,.454-.473l3.026,5.751-.584.241S46.25-96.393,46-96.761Zm-7.388-1.505c-.008-.013,0-.021.016-.022,0,0,0,.007-.016.022a3.524,3.524,0,0,0,.546.357l-5.021,4.12-.344-.531S38.3-97.951,38.616-98.267ZM46-96.761c-.007,0-.013,0-.016,0s0-.009,0-.019S45.993-96.778,46-96.761Zm4.06-6.581a3.55,3.55,0,0,0-.407-.512l6.043-2.328.162.614s-5.4,2.025-5.8,2.226c0,.015,0,.022-.022.016C50.039-103.328,50.046-103.333,50.064-103.343Zm-12.325-2.68a3.6,3.6,0,0,0-.218.62l-5.13-3.948.432-.464S37.363-106.254,37.739-106.023Zm0,0c.005-.006.01-.008.014-.007s.008.007.01.017S37.756-106.012,37.739-106.023Zm7.009-3.128a3.516,3.516,0,0,0-.645.092l1.126-6.424.606.172s-1.055,5.715-1.087,6.159c.015,0,.017.013,0,.027S44.747-109.13,44.749-109.151Zm7.468-9.323c.57-.72,5.974,4.641,5.352,5.308l.48-.414a9.281,9.281,0,0,0-5.525-5.474A5.247,5.247,0,0,0,52.216-118.474Z" transform="translate(-10.285 -3.952)" fill="#d9d9d9" fill-rule="evenodd"/><path d="M109.33-67.922c.181,2.538-2.134,7.826-5.814,11.777-.143.154.361.513.513.367,3.682-3.531,6.168-9.726,5.932-11.987C109.938-67.981,109.314-68.139,109.33-67.922Z" transform="translate(-57.676 -37.965)" fill="#b4b4b4" fill-rule="evenodd"/><path d="M37.839-74.594l3.637-6.837L49.446-80l.144,1.066a17.937,17.937,0,0,1-6.045,3.418A17.966,17.966,0,0,1,37.839-74.594ZM26.906-84l.271,5.888a17.905,17.905,0,0,1-5.873-7.42Zm25.355-19.421a17.955,17.955,0,0,1,2.691,5.141,17.947,17.947,0,0,1,.9,6.506l-.944.785-6.824-4.383,2.043-7.916Z" transform="translate(-2.894 -14.37)" fill="#151515" fill-rule="evenodd"/><path d="M54.385-90.623l5.657,5.832-3.766,7.249-7.985-1.352-1.169-8.084Z" transform="translate(-20.104 -22.903)" fill="#2c2b2a" fill-rule="evenodd"/><path d="M23.815-113.024l-5.327,1.817a18.1,18.1,0,0,1,5.264-8.978Zm7.106-11.227a17.937,17.937,0,0,1,12.424.847l.141.975-7.262,3.644Z" transform="translate(-1.017)" fill="#3e3c3b" fill-rule="evenodd"/></g></g></svg>