<svg xmlns="http://www.w3.org/2000/svg" xmlns:xlink="http://www.w3.org/1999/xlink" width="34" height="34" viewBox="0 0 34 34"><defs><clipPath id="b"><rect width="34" height="34"/></clipPath></defs><g id="a"><path d="M733.5-302.422l18.073,15.486,14.1-9.392v-1.62L733.5-304.027Z" transform="translate(-732.621 317.139)" fill="#434343"/><path d="M1223.5-1133.647l18.118,15.388,14.114-9.271-18.165-15.392Z" transform="translate(-1222.621 1146.719)" fill="gray"/><path d="M739.261-309.632l17.892,15.621,1.385-.915-17.882-15.59Z" transform="translate(-732.035 318.455)" fill="#6f6969"/><path d="M738.779-308.951l17.787,15.637.448-.312-17.912-15.6Z" transform="translate(-737.035 321.455)" fill="#d4d4d4"/><path d="M737.9-308.136l17.8,15.666.5-.281-17.876-15.554Z" transform="translate(-734.38 319.455)" fill="#d4d4d4"/><path d="M737.9-308.21l17.906,15.552.417-.281L738.34-308.475Z" transform="translate(-732.654 318.455)" fill="#d4d4d4"/><path d="M737.827-307.6l17.832,15.741.573-.364-17.978-15.546Z" transform="translate(-727.654 314.455)" fill="#d4d4d4"/><path d="M737.925-307.882l17.98,15.516.58-.312L738.32-308.1Z" transform="translate(-725.654 313.398)" fill="#d4d4d4"/><path d="M739.235-309.109l17.736,15.666.5-.345-17.882-15.59Z" transform="translate(-725.035 313.455)" fill="#d4d4d4"/></g></svg>