<svg xmlns="http://www.w3.org/2000/svg" xmlns:xlink="http://www.w3.org/1999/xlink" width="64" height="64" viewBox="0 0 64 64"><defs><clipPath id="b"><rect width="64" height="64"/></clipPath></defs><g id="a"><g transform="translate(11.931 117.282)"><path d="M74.978-53.29a2.248,2.248,0,0,0-2.148-2.335h-4.3a2.248,2.248,0,0,0-2.148,2.335c1.068,6.241.3,12.757.556,19.251.022.557-1.065,1.731-2.216,2.466-.74.473-1.541.527-1.98.906-.573.884-.407,1.266.778,1.266a8.922,8.922,0,0,1,2.239-.567,10.011,10.011,0,0,1,2.883-.772c1.908.164,3.231-1.146,6.592.778.688.394,2.417.79,1.589-.427-.657-.965-1.956-1.669-2.42-2.579C70.53-40.555,73.65-46.584,74.978-53.29Z" transform="translate(-49.083 -33.446)" fill="#9c794b" fill-rule="evenodd"/><path d="M49.192-96.664a11.664,11.664,0,0,1,11.114-11.048A11.7,11.7,0,0,1,72.15-96.171a12.3,12.3,0,0,1-.264,2.934A12.105,12.105,0,0,1,74.51-85.1c-.546,5.6-6.231,10.383-13.874,10.383-5.515,0-9.983-.422-12.482-4.416a9.319,9.319,0,0,1-5.7-8.579A9.323,9.323,0,0,1,49.192-96.664Z" transform="translate(-38.434 -5.913)" fill="#4b9711" fill-rule="evenodd"/><path d="M63.405-107.072A11.835,11.835,0,0,1,72.323-95.83,12.3,12.3,0,0,1,72.06-92.9a12.105,12.105,0,0,1,2.623,8.132c-.546,5.6-6.231,10.383-13.874,10.383-5.515,0-9.983-.422-12.482-4.416a9.337,9.337,0,0,1-5.547-6.9,8.757,8.757,0,0,0,2.837,1.823C47.945-80.369,52.108-80,57.248-80c7.123,0,12.421-4.2,12.93-9.115a10.226,10.226,0,0,0-2.445-7.139,10.185,10.185,0,0,0,.246-2.576A10.382,10.382,0,0,0,63.405-107.072Z" transform="translate(-38.607 -6.254)" fill="#3a7f06" fill-rule="evenodd"/><path d="M71.78-53.935a1.648,1.648,0,0,0-1.6-1.69h-3.2a1.648,1.648,0,0,0-1.6,1.69c.8,4.517.226,9.233.414,13.934.016.4-.793,1.253-1.651,1.785-.552.342-1.148.381-1.476.656-.427.639-.3.916.58.916a6.809,6.809,0,0,1,1.669-.41,7.634,7.634,0,0,1,2.148-.559c1.421.119,2.407-.83,4.912.563.513.285,1.8.572,1.184-.309-.489-.7-1.457-1.208-1.8-1.866C68.465-44.717,70.79-49.081,71.78-53.935Z" transform="translate(-61.579 -26.203)" fill="#b28e5e" fill-rule="evenodd"/><path d="M47.475-99.717a8.573,8.573,0,0,1,8.282-8,8.606,8.606,0,0,1,8.826,8.353,8.656,8.656,0,0,1-.2,2.124,8.6,8.6,0,0,1,1.955,5.886C65.934-87.3,61.7-83.835,56-83.835c-4.11,0-7.439-.306-9.3-3.2a6.746,6.746,0,0,1-4.246-6.21A6.78,6.78,0,0,1,47.475-99.717Z" transform="translate(-48.554 8.113)" fill="#54b60b" fill-rule="evenodd"/><path d="M58.149-107.072a8.624,8.624,0,0,1,6.645,8.137,8.656,8.656,0,0,1-.2,2.124,8.6,8.6,0,0,1,1.955,5.886c-.407,4.051-4.643,7.515-10.339,7.515-4.11,0-7.439-.306-9.3-3.2a6.8,6.8,0,0,1-4.134-5,6.551,6.551,0,0,0,2.114,1.319c1.736,2.537,4.838,2.806,8.668,2.806,5.308,0,9.255-3.041,9.635-6.6a7.269,7.269,0,0,0-1.822-5.167,7.168,7.168,0,0,0,.183-1.864A7.467,7.467,0,0,0,58.149-107.072Z" transform="translate(-48.765 7.688)" fill="#367c01" fill-rule="evenodd"/><path d="M73.626-53.562a2,2,0,0,0-1.917-2.063H67.877a2,2,0,0,0-1.917,2.063c.953,5.514.27,11.271.5,17.009.019.492-.95,1.53-1.977,2.179-.661.418-1.375.465-1.767.8-.511.781-.363,1.119.694,1.119a8.025,8.025,0,0,1,2-.5,9,9,0,0,1,2.572-.682c1.7.145,2.883-1.013,5.882.688.614.348,2.157.7,1.418-.377-.586-.853-1.745-1.475-2.16-2.278C69.658-42.309,72.442-47.637,73.626-53.562Z" transform="translate(-36.423 -30.393)" fill="#b28e5e" fill-rule="evenodd"/><path d="M48.466-97.951a10.358,10.358,0,0,1,9.917-9.762,10.393,10.393,0,0,1,10.568,10.2,10.765,10.765,0,0,1-.235,2.593,10.626,10.626,0,0,1,2.341,7.185c-.487,4.945-5.56,9.174-12.38,9.174-4.921,0-8.907-.373-11.138-3.9a8.233,8.233,0,0,1-5.085-7.58A8.25,8.25,0,0,1,48.466-97.951Z" transform="translate(-24.77 0)" fill="#83e637" fill-rule="evenodd"/><path d="M61.184-107.072a10.48,10.48,0,0,1,7.958,9.933,10.765,10.765,0,0,1-.235,2.593,10.626,10.626,0,0,1,2.341,7.185c-.487,4.945-5.56,9.174-12.38,9.174-4.921,0-8.907-.373-11.138-3.9a8.267,8.267,0,0,1-4.95-6.1,7.823,7.823,0,0,0,2.531,1.61c2.079,3.1,5.794,3.425,10.38,3.425,6.356,0,11.083-3.712,11.537-8.054a8.98,8.98,0,0,0-2.181-6.308,8.914,8.914,0,0,0,.219-2.276A9.153,9.153,0,0,0,61.184-107.072Z" transform="translate(-24.959 -0.376)" fill="#54b60b" fill-rule="evenodd"/><path d="M6.317-27.439H8.228v-9.685H6.317Z" transform="translate(3.584 -40.821)" fill-rule="evenodd"/><path d="M51.09-26.258H53v-7.77H51.09Z" transform="translate(-22.539 -42.628)" fill-rule="evenodd"/><path d="M53.385-8.46H55.3v-5.413H53.385Z" transform="translate(-23.878 -54.387)" fill-rule="evenodd"/><path d="M4.022-8.46H5.933v-5.413H4.022Z" transform="translate(4.923 -54.387)" fill-rule="evenodd"/><path d="M1.878-34.544H25.913v-2.58H1.878Z" transform="translate(6.174 -40.821)" fill="#e0b98c" fill-rule="evenodd"/><path d="M1.878-25.865H25.913v-2.58H1.878Z" transform="translate(6.174 -45.885)" fill="#e0b98c" fill-rule="evenodd"/><path d="M0-15.223H25.6v-3.323H0Z" transform="translate(7.269 -51.661)" fill="#e0b98c" fill-rule="evenodd"/></g></g></svg>