<svg xmlns="http://www.w3.org/2000/svg" xmlns:xlink="http://www.w3.org/1999/xlink" width="64" height="64" viewBox="0 0 64 64">
  <defs>
    <clipPath id="clip-LargeRoundabout09">
      <rect width="64" height="64"/>
    </clipPath>
  </defs>
  <g id="LargeRoundabout09" clip-path="url(#clip-LargeRoundabout09)">
    <path id="Path_1137" data-name="Path 1137" d="M20.573.172C31.981.325,41.315,5.631,41.421,12.024s-9.057,11.452-20.465,11.3S.214,17.864.109,11.471,9.165.019,20.573.172Z" transform="matrix(0.998, -0.07, 0.07, 0.998, 10.466, 23.014)" fill="#595959"/>
    <path id="Path_1136" data-name="Path 1136" d="M20.573.172C31.981.325,41.315,5.631,41.421,12.024s-9.057,11.452-20.465,11.3S.214,17.864.109,11.471,9.165.019,20.573.172Z" transform="matrix(0.998, -0.07, 0.07, 0.998, 10.466, 20.445)" fill="#c3c2c2"/>
    <path id="Path_1138" data-name="Path 1138" d="M17.414.146c9.653.129,17.545,4.265,17.627,9.237s-7.676,8.9-17.329,8.769S.167,13.887.084,8.915,7.761.016,17.414.146Z" transform="matrix(0.998, -0.07, 0.07, 0.998, 13.793, 22.748)" fill="#c8ab8a"/>
    <path id="Path_3934" data-name="Path 3934" d="M1330.645-2493.774c1.772,1.162-.519,2.925,1.018,3.142s1.84-1.486,5.129-2.271,6.55-.01,8.028-.871-2.408-.893-2.115-2.575S1346-2500.5,1346-2500.5l-5.091-.7-.783-3.759a10.643,10.643,0,0,1-4.856,2.415c-2.976.6-5.71-1.075-7.049,0s2.6,2.484,1.693,4.3-5.518,1.85-5.334,2.969S1328.873-2494.936,1330.645-2493.774Z" transform="translate(-1304.625 2527.897)" fill="#327a27"/>
  </g>
</svg>
