<svg xmlns="http://www.w3.org/2000/svg" xmlns:xlink="http://www.w3.org/1999/xlink" width="64" height="64" viewBox="0 0 64 64">
  <defs>
    <clipPath id="clip-LargeRoadOneway">
      <rect width="64" height="64"/>
    </clipPath>
  </defs>
  <g id="LargeRoadOneway" clip-path="url(#clip-LargeRoadOneway)">
    <path id="Path_2053" data-name="Path 2053" d="M1192-423.5l-6.59-8.59s-4.616,2.209-4.367,2.646,8.131,10.088,8.131,10.088Z" transform="translate(-1074.633 611.44) rotate(-7)" fill="#706428"/>
    <path id="Path_2201" data-name="Path 2201" d="M1192-423.5l-6.59-8.59s-4.616,2.209-4.367,2.646,8.131,10.088,8.131,10.088Z" transform="translate(-1079.633 615.44) rotate(-7)" fill="#b47300"/>
    <path id="Path_2205" data-name="Path 2205" d="M1192-423.5l-6.59-8.59s-4.616,2.209-4.367,2.646,8.131,10.088,8.131,10.088Z" transform="translate(-1085.633 618.44) rotate(-7)" fill="#61a2d3"/>
    <path id="Path_2054" data-name="Path 2054" d="M1193.068-423.414l-6.83-8.592s-2.307.506-2.058.943,7.528,8.878,7.528,8.878Z" transform="translate(-1075.472 612.521) rotate(-7)" fill="#9a8a39"/>
    <path id="Path_2202" data-name="Path 2202" d="M1193.068-423.414l-6.83-8.592s-2.307.506-2.058.943,7.528,8.878,7.528,8.878Z" transform="translate(-1080.472 615.521) rotate(-7)" fill="#e39c03"/>
    <path id="Path_2206" data-name="Path 2206" d="M1193.068-423.414l-6.83-8.592s-2.307.506-2.058.943,7.528,8.878,7.528,8.878Z" transform="translate(-1086.472 618.521) rotate(-7)" fill="#7ac6ff"/>
    <path id="Path_2055" data-name="Path 2055" d="M1185.44-423.674a4.27,4.27,0,0,1,2.516-2.358c1.767-.486,2.245,0,2.245,0L1188.186-428l-5.493,1.624Z" transform="translate(-1134.99 470.025)" fill="rgba(59,59,59,0.61)"/>
    <path id="Path_2203" data-name="Path 2203" d="M1185.44-423.674a4.27,4.27,0,0,1,2.516-2.358c1.767-.486,2.245,0,2.245,0L1188.186-428l-5.493,1.624Z" transform="translate(-1139.99 474.025)" fill="rgba(59,59,59,0.61)"/>
    <path id="Path_2207" data-name="Path 2207" d="M1185.44-423.674a4.27,4.27,0,0,1,2.516-2.358c1.767-.486,2.245,0,2.245,0L1188.186-428l-5.493,1.624Z" transform="translate(-1145.99 477.025)" fill="rgba(59,59,59,0.61)"/>
    <g id="Path_2200" data-name="Path 2200" transform="translate(53.692 45.179) rotate(13)" fill="#4d4324">
      <path d="M 2.563201904296875 4.448550701141357 C 1.581541895866394 4.448550701141357 0.7829018831253052 3.483330726623535 0.7829018831253052 2.296920776367188 C 0.7829018831253052 1.11051082611084 1.581541895866394 0.1452907770872116 2.563201904296875 0.1452907770872116 C 3.544861793518066 0.1452907770872116 4.343502044677734 1.11051082611084 4.343502044677734 2.296920776367188 C 4.343502044677734 3.483330726623535 3.544861793518066 4.448550701141357 2.563201904296875 4.448550701141357 Z" stroke="none"/>
      <path d="M 2.563201904296875 0.6452908515930176 C 1.869211912155151 0.6452908515930176 1.282902002334595 1.401640892028809 1.282902002334595 2.296920776367188 C 1.282902002334595 3.192200660705566 1.869211912155151 3.948550701141357 2.563201904296875 3.948550701141357 C 3.257191896438599 3.948550701141357 3.843502044677734 3.192200660705566 3.843502044677734 2.296920776367188 C 3.843502044677734 1.401640892028809 3.257191896438599 0.6452908515930176 2.563201904296875 0.6452908515930176 M 2.563201904296875 -0.3547091484069824 C 3.822581768035889 -0.3547091484069824 4.843502044677734 0.8324708938598633 4.843502044677734 2.296920776367188 C 4.843502044677734 3.761370658874512 3.822581768035889 4.948550701141357 2.563201904296875 4.948550701141357 C 1.303821802139282 4.948550701141357 0.2829017639160156 3.761370658874512 0.2829017639160156 2.296920776367188 C 0.2829017639160156 0.8324708938598633 1.303821802139282 -0.3547091484069824 2.563201904296875 -0.3547091484069824 Z" stroke="none" fill="#755902"/>
    </g>
    <g id="Path_2204" data-name="Path 2204" transform="translate(48.692 49.179) rotate(13)" fill="#748991">
      <path d="M 2.563201904296875 4.448550701141357 C 1.581541895866394 4.448550701141357 0.7829018831253052 3.483330726623535 0.7829018831253052 2.296920776367188 C 0.7829018831253052 1.11051082611084 1.581541895866394 0.1452907770872116 2.563201904296875 0.1452907770872116 C 3.544861793518066 0.1452907770872116 4.343502044677734 1.11051082611084 4.343502044677734 2.296920776367188 C 4.343502044677734 3.483330726623535 3.544861793518066 4.448550701141357 2.563201904296875 4.448550701141357 Z" stroke="none"/>
      <path d="M 2.563201904296875 0.6452908515930176 C 1.869211912155151 0.6452908515930176 1.282902002334595 1.401640892028809 1.282902002334595 2.296920776367188 C 1.282902002334595 3.192200660705566 1.869211912155151 3.948550701141357 2.563201904296875 3.948550701141357 C 3.257191896438599 3.948550701141357 3.843502044677734 3.192200660705566 3.843502044677734 2.296920776367188 C 3.843502044677734 1.401640892028809 3.257191896438599 0.6452908515930176 2.563201904296875 0.6452908515930176 M 2.563201904296875 -0.3547091484069824 C 3.822581768035889 -0.3547091484069824 4.843502044677734 0.8324708938598633 4.843502044677734 2.296920776367188 C 4.843502044677734 3.761370658874512 3.822581768035889 4.948550701141357 2.563201904296875 4.948550701141357 C 1.303821802139282 4.948550701141357 0.2829017639160156 3.761370658874512 0.2829017639160156 2.296920776367188 C 0.2829017639160156 0.8324708938598633 1.303821802139282 -0.3547091484069824 2.563201904296875 -0.3547091484069824 Z" stroke="none" fill="#8d5b03"/>
    </g>
    <g id="Path_2208" data-name="Path 2208" transform="translate(42.692 52.179) rotate(13)" fill="#4a6068">
      <path d="M 2.563201904296875 4.448550701141357 C 1.581541895866394 4.448550701141357 0.7829018831253052 3.483330726623535 0.7829018831253052 2.296920776367188 C 0.7829018831253052 1.11051082611084 1.581541895866394 0.1452907770872116 2.563201904296875 0.1452907770872116 C 3.544861793518066 0.1452907770872116 4.343502044677734 1.11051082611084 4.343502044677734 2.296920776367188 C 4.343502044677734 3.483330726623535 3.544861793518066 4.448550701141357 2.563201904296875 4.448550701141357 Z" stroke="none"/>
      <path d="M 2.563201904296875 0.6452908515930176 C 1.869211912155151 0.6452908515930176 1.282902002334595 1.401640892028809 1.282902002334595 2.296920776367188 C 1.282902002334595 3.192200660705566 1.869211912155151 3.948550701141357 2.563201904296875 3.948550701141357 C 3.257191896438599 3.948550701141357 3.843502044677734 3.192200660705566 3.843502044677734 2.296920776367188 C 3.843502044677734 1.401640892028809 3.257191896438599 0.6452908515930176 2.563201904296875 0.6452908515930176 M 2.563201904296875 -0.3547091484069824 C 3.822581768035889 -0.3547091484069824 4.843502044677734 0.8324708938598633 4.843502044677734 2.296920776367188 C 4.843502044677734 3.761370658874512 3.822581768035889 4.948550701141357 2.563201904296875 4.948550701141357 C 1.303821802139282 4.948550701141357 0.2829017639160156 3.761370658874512 0.2829017639160156 2.296920776367188 C 0.2829017639160156 0.8324708938598633 1.303821802139282 -0.3547091484069824 2.563201904296875 -0.3547091484069824 Z" stroke="none" fill="#4e7989"/>
    </g>
    <path id="Path_2191" data-name="Path 2191" d="M1249.1-1108.867l11.313-6.694Z" transform="translate(-1201.926 1152.895)" fill="gray"/>
    <path id="Path_2186" data-name="Path 2186" d="M722.072-295.333l29.712,25.316,34.037-20.612v-2.464l-63.749-4.824Z" transform="translate(-722.04 327.13)" fill="#434343"/>
    <path id="Path_2190" data-name="Path 2190" d="M737.026-304.839l24.051,28.178,25.135-14.784-30.233-24.5Z" transform="translate(-728.951 329.31)" fill="#d4d4d4"/>
    <path id="Path_2192" data-name="Path 2192" d="M1224.123-1129.9l29.871,25.1,32.351-19.2-29.7-24.869Z" transform="translate(-1224.047 1159.002)" fill="#929191"/>
    <path id="Path_2215" data-name="Path 2215" d="M1224.175-1129.047l29.871,25.1,2.476-1.249-30.016-25.114Z" transform="translate(-1224.047 1158.002)" fill="#716e6e"/>
    <path id="Path_2216" data-name="Path 2216" d="M1233.545-1134.723l29.761,24.968,1.611-1.095-29.833-24.951Z" transform="translate(-1200.995 1144.886)" fill="#716e6e"/>
    <path id="Path_2281" data-name="Path 2281" d="M15820.933,3491.466l30.408,24.87,1.232-.691-30.76-24.619Z" transform="translate(-15814.941 -3465.959)" fill="rgba(212,212,212,0.61)"/>
    <path id="Path_2287" data-name="Path 2287" d="M15820.3,3491.9l30.287,24.649,1.232-.691-30.639-24.4Z" transform="translate(-15809.18 -3469.291)" fill="rgba(212,212,212,0.61)"/>
    <path id="Path_2294" data-name="Path 2294" d="M15819.916,3491.919l30.287,24.649,1.232-.691-30.639-24.4Z" transform="translate(-15797.18 -3476.019)" fill="rgba(212,212,212,0.61)"/>
    <path id="Path_2288" data-name="Path 2288" d="M15819.281,3491.385l30.229,24.7,1.232-.691-30.58-24.444Z" transform="translate(-15802.115 -3472.237)" fill="rgba(212,212,212,0.61)"/>
    <path id="Path_2289" data-name="Path 2289" d="M15819.377,3491.821l30.2,24.651,1.232-.691-30.555-24.4Z" transform="translate(-15791.771 -3478.788)" fill="rgba(212,212,212,0.61)"/>
    <path id="Path_2212" data-name="Path 2212" d="M15735.836,2434.139l.465,3,.934-.481,3.279,2.785,1.494-.809-3.215-2.7,1.072-.57Z" transform="translate(-15720.271 -2398.102)" fill="#fff"/>
    <path id="Path_2295" data-name="Path 2295" d="M15735.836,2434.139l.465,3,.934-.481,3.279,2.785,1.494-.809-3.215-2.7,1.072-.57Z" transform="translate(-15715.129 -2401.133)" fill="#fff"/>
    <path id="Path_2296" data-name="Path 2296" d="M15735.836,2434.139l.465,3,.934-.481,3.279,2.785,1.494-.809-3.215-2.7,1.072-.57Z" transform="translate(-15709.34 -2404.308)" fill="#fff"/>
    <path id="Path_2297" data-name="Path 2297" d="M15735.836,2434.139l.465,3,.934-.481,3.279,2.785,1.494-.809-3.215-2.7,1.072-.57Z" transform="translate(-15703.168 -2407.439)" fill="#fff"/>
    <path id="Path_2298" data-name="Path 2298" d="M15735.836,2434.139l.465,3,.934-.481,3.279,2.785,1.494-.809-3.215-2.7,1.072-.57Z" transform="translate(-15697.797 -2410.226)" fill="#fff"/>
    <path id="Path_2299" data-name="Path 2299" d="M15735.836,2434.139l.465,3,.934-.481,3.279,2.785,1.494-.809-3.215-2.7,1.072-.57Z" transform="translate(-15692.765 -2412.74)" fill="#fff"/>
  </g>
</svg>
