<svg xmlns="http://www.w3.org/2000/svg" xmlns:xlink="http://www.w3.org/1999/xlink" width="64" height="64" viewBox="0 0 64 64"><defs><clipPath id="a"><rect width="5.747" height="6.642" fill="none"/></clipPath><clipPath id="b"><rect width="8.527" height="10.441" fill="none"/></clipPath><clipPath id="c"><rect width="6.402" height="7.285" fill="none"/></clipPath><clipPath id="e"><rect width="64" height="64"/></clipPath></defs><g id="d"><path d="M-.011,21.11,30.044,2.341a8.725,8.725,0,0,1,3.192-1.9c5.394-1.806,11.6,1.918,13.87,8.317,2.162,6.1-.045,12.437-4.933,14.577L11.812,42.338Z" transform="matrix(1, 0.017, -0.017, 1, 13.065, 8.148)" fill="#7fc3ff"/><path d="M-.011,21.339,30.71,2.331A8.725,8.725,0,0,1,33.9.428C40.395-1.58,44.87,3.836,44.87,3.836S34.479,8.952,11.1,26.538Z" transform="matrix(1, 0.017, -0.017, 1, 12.398, 8.146)" fill="#92ccff"/><g transform="matrix(1, 0.017, -0.017, 1, 10.571, 53.71)"><g transform="translate(0 0)"><path d="M9949.967-41.21l-1.789,3.119a1.584,1.584,0,0,0,1.789,1.789,1.689,1.689,0,0,0,1.895-1.789Z" transform="translate(-9947.143 41.788)" fill="#39c2ff"/><ellipse cx="0.618" cy="0.635" rx="0.618" ry="0.635" transform="translate(1.709 3.369)" fill="#d2f9ff"/><ellipse cx="0.206" cy="0.159" rx="0.206" ry="0.159" transform="translate(3.768 4.638)" fill="#a4ecff"/></g></g><ellipse cx="10.058" cy="12.293" rx="10.058" ry="12.293" transform="translate(8.527 29.3) rotate(-18)" fill="#d5ebff" opacity="0.66"/><ellipse cx="10.058" cy="12.293" rx="10.058" ry="12.293" transform="translate(3.978 31.775) rotate(-18)" fill="#479ce6"/><ellipse cx="6.705" cy="8.381" rx="6.705" ry="8.381" transform="translate(8.527 34.081) rotate(-18)" fill="#0b406e"/><path d="M1184.162,126.394c-1.893-2.662-3.078-4.533-1.185-7.765a8.361,8.361,0,0,1,5.443-3.793s.3-5.864,2.129-8.222,7.3-2.738,7.3-2.738,4.525-.268,5.627,1.825-.114,4.647-1.217,6.549-2.281,1.293-3.194,2.586-1.825,5.171-1.825,5.171-4.563-1.8-6.692,1.36,0,7.909,0,7.909S1186.056,129.056,1184.162,126.394Z" transform="translate(-1179 -66.552)" fill="#39c2ff"/><path d="M1185.683,127.508c-1.179-1.9-3.574-3.77-2.433-6.6s7-4.715,7-4.715-.152-6.046,2.129-8.669,7-1.825,7-1.825-3.878,1.027-5.475,3.8-.912,7.3-.912,7.3-5.285,2.091-6.54,5.019,1.521,6.692,1.521,6.692S1186.862,129.409,1185.683,127.508Z" transform="translate(-1179.236 -68.274)" fill="#d2f9ff"/><g transform="matrix(0.719, 0.695, -0.695, 0.719, 7.253, 37.883)"><g transform="translate(0 0)"><path d="M9950.837-41.21l-2.655,4.9a2.451,2.451,0,0,0,2.654,2.812,2.6,2.6,0,0,0,2.811-2.812Z" transform="translate(-9946.646 42.119)" fill="#39c2ff"/><ellipse cx="0.916" cy="0.998" rx="0.916" ry="0.998" transform="translate(2.535 5.295)" fill="#d2f9ff"/><ellipse cx="0.305" cy="0.249" rx="0.305" ry="0.249" transform="translate(5.59 7.291)" fill="#a4ecff"/></g></g><g transform="translate(14.921 33.594) rotate(94)"><g transform="translate(0 0)"><path d="M9950.172-41.21l-1.993,3.422s-.265,1.963,1.993,1.963a1.862,1.862,0,0,0,2.109-1.963Z" transform="translate(-9947.026 41.844)" fill="#39c2ff"/><ellipse cx="0.688" cy="0.696" rx="0.688" ry="0.696" transform="translate(1.86 4.142)" fill="#d2f9ff"/><ellipse cx="0.498" cy="0.726" rx="0.498" ry="0.726" transform="translate(3.27 2.877)" fill="#a4ecff"/></g></g><path d="M1195.418,104.333c-2.89,0-5.475,5.779-2.433,7.148,1.983.892,6.817,1.285,9.573,0,1.05-.476,1.279-2.381,1.438-4.128C1202.878,103.626,1198.308,104.333,1195.418,104.333Z" transform="translate(-1179 -67)" fill="#1083b7" opacity="0.23"/></g></svg>