<svg xmlns="http://www.w3.org/2000/svg" xmlns:xlink="http://www.w3.org/1999/xlink" width="64" height="64" viewBox="0 0 64 64">
  <defs>
    <clipPath id="clip-LargeRoundabout08">
      <rect width="64" height="64"/>
    </clipPath>
  </defs>
  <g id="LargeRoundabout08" clip-path="url(#clip-LargeRoundabout08)">
    <path id="Path_1137" data-name="Path 1137" d="M20.148.072C31.348.211,40.507,5.5,40.6,11.877S31.7,23.318,20.5,23.178.139,17.753.042,11.372,8.947-.068,20.148.072Z" transform="matrix(0.998, -0.07, 0.07, 0.998, 10.916, 23.104)" fill="#595959"/>
    <path id="Path_1136" data-name="Path 1136" d="M20.148.072C31.348.211,40.507,5.5,40.6,11.877S31.7,23.318,20.5,23.178.139,17.753.042,11.372,8.947-.068,20.148.072Z" transform="matrix(0.998, -0.07, 0.07, 0.998, 10.916, 20.539)" fill="#c3c2c2"/>
    <path id="Path_1138" data-name="Path 1138" d="M17.057.061c9.477.118,17.221,4.237,17.3,9.2s-7.547,8.89-17.025,8.772S.108,13.8.033,8.833,7.58-.057,17.057.061Z" transform="matrix(0.998, -0.07, 0.07, 0.998, 14.17, 22.826)" fill="#595959"/>
    <g id="Group_2753" data-name="Group 2753" transform="translate(18.945 21.939)">
      <path id="Rectangle_4573" data-name="Rectangle 4573" d="M0,5.139,18.227,0l9.078,12.594L8.857,17.935Z" transform="translate(0 0)" fill="#965f5f"/>
      <path id="Rectangle_4574" data-name="Rectangle 4574" d="M6.443,0,24.662,4.941,18.505,17.074,0,11.986Z" transform="translate(1.195 0.41)" fill="#965f5f"/>
      <path id="Path_3905" data-name="Path 3905" d="M.024,2.18s.148.248.433.659.708.984,1.257,1.635a22.009,22.009,0,0,0,2.02,2.1,17.712,17.712,0,0,0,2.72,2.044A20.866,20.866,0,0,0,9.7,10.175a32.732,32.732,0,0,0,3.181,1.033c.972.264,1.817.451,2.418.572s.96.176.96.176-.162-.252-.469-.669-.757-1-1.335-1.651a23.976,23.976,0,0,0-2.094-2.1A18.768,18.768,0,0,0,9.616,5.5,21.373,21.373,0,0,0,6.407,3.955C5.319,3.53,4.246,3.192,3.3,2.928S1.536,2.478.954,2.357.024,2.18.024,2.18Z" transform="translate(5.543 1.757)" fill="#595959"/>
      <path id="Path_3906" data-name="Path 3906" d="M7.727.007s.193.234.485.641S8.9,1.635,9.3,2.325A15.873,15.873,0,0,1,10.421,4.67a9.051,9.051,0,0,1,.6,2.643A7.893,7.893,0,0,1,10.7,9.892,11.829,11.829,0,0,1,9.808,12.1a14.282,14.282,0,0,1-.934,1.543c-.258.371-.432.58-.432.58s-.19-.245-.477-.67-.671-1.026-1.059-1.739a16.681,16.681,0,0,1-1.086-2.4,9.456,9.456,0,0,1-.565-2.665,8.06,8.06,0,0,1,.319-2.552,11.66,11.66,0,0,1,.859-2.15A13.719,13.719,0,0,1,7.32.56C7.563.206,7.727.007,7.727.007Z" transform="translate(5.654 1.883)" fill="#595959"/>
      <path id="Path_3907" data-name="Path 3907" d="M3.632,10.148s.368-.088.974-.26S6.054,9.46,7,9.124a31.881,31.881,0,0,0,3.035-1.242,17.353,17.353,0,0,0,2.888-1.692,11.886,11.886,0,0,0,2.118-2.042,13,13,0,0,0,1.337-2.008,12.416,12.416,0,0,0,.7-1.528c.142-.38.2-.607.2-.607s-.357.09-.945.263S14.929.7,14,1.037s-1.963.752-2.979,1.241a18.016,18.016,0,0,0-2.87,1.684A12.525,12.525,0,0,0,6.005,5.994,13.779,13.779,0,0,0,4.611,8a13.165,13.165,0,0,0-.753,1.536C3.7,9.919,3.632,10.148,3.632,10.148Z" transform="translate(2.979 3.56)" fill="#595959"/>
      <path id="Path_3908" data-name="Path 3908" d="M.011,4.923s.346-.116.947-.288,1.455-.4,2.473-.628,2.2-.451,3.45-.614a27.7,27.7,0,0,1,3.885-.251,26.2,26.2,0,0,1,3.805.343c1.2.193,2.32.445,3.273.695s1.743.5,2.295.684.866.309.866.309-.345.111-.944.276-1.454.385-2.473.6-2.2.435-3.464.594a28.92,28.92,0,0,1-3.909.243A27.044,27.044,0,0,1,6.4,6.555c-1.2-.187-2.316-.431-3.262-.673S1.408,5.4.864,5.221.011,4.923.011,4.923Z" transform="translate(2.979 3.56)" fill="#595959"/>
      <path id="Ellipse_938" data-name="Ellipse 938" d="M3.981,1.127A6.1,6.1,0,0,1,5.679.9a6.576,6.576,0,0,1,1.677.228,5.534,5.534,0,0,1,1.47.629,3.725,3.725,0,0,1,1.073.98A2.352,2.352,0,0,1,10.352,3.9a2.04,2.04,0,0,1-.227,1.122,2.791,2.791,0,0,1-.845.957,4.416,4.416,0,0,1-1.4.664,6.087,6.087,0,0,1-1.71.229A6.574,6.574,0,0,1,4.48,6.642,5.518,5.518,0,0,1,3,6a3.7,3.7,0,0,1-1.07-.989,2.335,2.335,0,0,1-.44-1.165,2.045,2.045,0,0,1,.241-1.119,2.814,2.814,0,0,1,.852-.949A4.441,4.441,0,0,1,3.981,1.127Z" transform="translate(7.905 5.026)" fill="#965f5f"/>
    </g>
  </g>
</svg>
