<svg xmlns="http://www.w3.org/2000/svg" xmlns:xlink="http://www.w3.org/1999/xlink" width="26" height="26" viewBox="0 0 26 26">
  <defs>
    <clipPath id="clip-Leisure">
      <rect width="26" height="26"/>
    </clipPath>
  </defs>
  <g id="Leisure" clip-path="url(#clip-Leisure)">
    <path id="Path_2965" data-name="Path 2965" d="M0,0H2.413V4.3A2.488,2.488,0,0,1,1.2,4.733,2.367,2.367,0,0,1,0,4.3Z" transform="translate(8.415 17.77)" fill="#a1886c"/>
    <path id="Path_2966" data-name="Path 2966" d="M5.85,0,9.628,6.377,11.7,8.45S10.508,11.07,6.166,11.4C1.543,11.21,0,8.45,0,8.45s.317.039,1.78-2.073S5.85,0,5.85,0Z" transform="translate(3.865 9.97)" fill="#54b60b"/>
    <path id="Path_2967" data-name="Path 2967" d="M5.182,0S6.825,2.66,8.125,4.282a10.162,10.162,0,0,0,2.241,2.2C8.7,7.089,6.951,8.78,5.182,8.833,3.413,8.78,1.664,7.088,0,6.486a12.511,12.511,0,0,0,2.108-2.2C3.4,2.66,5.182,0,5.182,0Z" transform="translate(4.552 8.334)" fill="#54b60b"/>
    <path id="Path_3629" data-name="Path 3629" d="M259.72-934.775l-.007,3.938.463.248.631-.548.007-3.638Z" transform="translate(-245.153 953.279)" fill="#666"/>
    <path id="Path_3630" data-name="Path 3630" d="M259.72-934.775l-.007,3.938.463.248.631-.548.007-3.638Z" transform="translate(-242.153 951.135)" fill="#666"/>
    <path id="Path_3631" data-name="Path 3631" d="M259.72-934.775l-.007,3.938.463.248.631-.548.007-3.638Z" transform="translate(-242.153 954.741)" fill="#666"/>
    <path id="Path_3632" data-name="Path 3632" d="M259.72-934.775l-.007,3.938.463.248.631-.548.007-3.638Z" transform="translate(-239.153 952.632)" fill="#666"/>
    <path id="Path_3628" data-name="Path 3628" d="M259.79-932.308l2.694,1.185,4.6-3.125v-1.325L259.79-933.4Z" transform="translate(-244.386 952.786)" fill="#8e6739"/>
    <path id="Path_3627" data-name="Path 3627" d="M263.974-940.422c-.234.108-1.129-.361-1.129-.361l-4.709,3.017.544,2.947,1.18.571,4.113-3.518Z" transform="translate(-245.005 953.308)" fill="#8e6739"/>
    <path id="Path_2968" data-name="Path 2968" d="M3.315,0A20.038,20.038,0,0,0,4.661,3.673,12.48,12.48,0,0,0,6.63,6.43c-1.015.578-2.149,1.73-3.315,1.8C2.149,8.16,1.015,7.008,0,6.43A13.775,13.775,0,0,0,1.9,3.673,23.57,23.57,0,0,0,3.315,0Z" transform="translate(6.502 3.848)" fill="#54b60b"/>
    <path id="Path_2986" data-name="Path 2986" d="M26,26h0Z" transform="translate(1 -1.161)" fill="#54b60b"/>
    <path id="Path_3625" data-name="Path 3625" d="M259.86-934.21l-.571-3.087,4.7-3.125.717,3.125Z" transform="translate(-245.005 953.308)" fill="#cc995e"/>
    <path id="Path_3626" data-name="Path 3626" d="M260.183-933.025,264.934-936l2.83.859-4.849,3.233Z" transform="translate(-245.005 952.46)" fill="#cc995e"/>
  </g>
</svg>
