<svg xmlns="http://www.w3.org/2000/svg" xmlns:xlink="http://www.w3.org/1999/xlink" width="64" height="64" viewBox="0 0 64 64"><defs><clipPath id="b"><rect width="64" height="64"/></clipPath></defs><g id="a"><circle cx="1.5" cy="1.5" r="1.5" transform="translate(43.224 21.409)" fill="#fff"/><circle cx="1.5" cy="1.5" r="1.5" transform="translate(24.277 6.409)" fill="#fff"/><path d="M733.426-302.733l29.61,25.369,23.135-14.243v-1.623l-52.745-11.55Z" transform="translate(-728.04 330.13)" fill="#c4c4c4"/><path d="M1212.373-1122.247l29.686,25.1,23.11-13.863-30.016-25.114Z" transform="translate(-1206.995 1147.886)" fill="#949494"/><path d="M751.223-313.769l29.264,25.4,1.407-.745-29.36-25.477Z" transform="translate(-734.836 332.744)" fill="#e9bc29"/><path d="M2179.723-593.683v-15.277l-.884-.45-3.168,2.047-2.468.911-1.044.79s-.486,1.069,0,1.555,1.88.365,1.88.365l.882-.624,1.724-2.347,1.792-1.2-.638,14.226a1.367,1.367,0,0,0,1.04.588A.91.91,0,0,0,2179.723-593.683Z" transform="translate(-2128.776 627.559)" fill="#b6b6b6"/><path d="M2179.723-593.683v-15.277l-.884-.45-3.168,2.047-2.468.911-1.044.79s-.486,1.069,0,1.555,1.88.365,1.88.365l.882-.624,1.724-2.347,1.792-1.2-.638,14.226a1.367,1.367,0,0,0,1.04.588A.91.91,0,0,0,2179.723-593.683Z" transform="translate(-2147.723 612.559)" fill="#b6b6b6"/></g></svg>