<svg xmlns="http://www.w3.org/2000/svg" xmlns:xlink="http://www.w3.org/1999/xlink" width="64" height="64" viewBox="0 0 64 64"><defs><clipPath id="a"><rect width="48" height="48" transform="translate(0 0.805)"/></clipPath><filter id="b" x="10.103" y="24.916" width="44.343" height="25.932" filterUnits="userSpaceOnUse"><feOffset dy="3" input="SourceAlpha"/><feGaussianBlur stdDeviation="3" result="c"/><feFlood flood-opacity="0.161"/><feComposite operator="in" in2="c"/><feComposite in="SourceGraphic"/></filter><clipPath id="e"><rect width="64" height="64"/></clipPath></defs><g id="d"><path d="M2905.533,2162.162l13.14,9.576,11.571-9.576Z" transform="translate(-2886.114 -2107.738)" fill="#e5867f"/><circle cx="29.164" cy="29.164" r="29.164" transform="translate(2.441)" fill="#e5867f"/><g transform="translate(8 3.195)"><g transform="translate(11.055 10.998)"><rect width="26" height="17" transform="translate(-0.055 7.806)" fill="#fff"/><path d="M19.933,29.842,33.29,22.017l12.532,7.825Z" transform="translate(-19.933 -22.017)" fill="#e5e5e5"/><g transform="matrix(1, 0, 0, 1, -19.05, -14.19)" filter="url(#b)"><path d="M19.342,30.963,32.8,23.031l12.882,7.932Z" transform="translate(-0.24 7.88)" fill="#e5e5e5"/></g><path d="M32.014,59.738,44.478,50.8H18.51Z" transform="translate(-18.51 -42.933)" fill="#e5867f"/></g></g></g></svg>