<svg xmlns="http://www.w3.org/2000/svg" xmlns:xlink="http://www.w3.org/1999/xlink" width="40" height="40" viewBox="0 0 40 40"><defs><clipPath id="b"><rect width="40" height="40"/></clipPath></defs><g id="a"><path d="M733.5-302.422l17.411,15.436L767.1-297.967v-1.62l-33.595-4.44Z" transform="translate(-731 321.306)" fill="#434343"/><path d="M1223.5-1133.647l17.382,14.892,16.223-10.511-17.525-14.714Z" transform="translate(-1221 1150.886)" fill="#43ae00"/><path d="M1223.119-1141.856l4.656,3.954,4.19-2.778-4.692-3.908Z" transform="translate(-1219 1159.22)" fill="#0568ca"/><path d="M1223.086-1142.121l4.656,3.954,4.19-2.778-4.692-3.908Z" transform="translate(-1214 1156.22)" fill="#0568ca"/><path d="M1223.119-1142.348l4.656,3.954,4.19-2.778-4.692-3.908Z" transform="translate(-1209 1153.22)" fill="#65e111"/><path d="M1223.711-1142.246l4.656,3.954,4.19-2.778-4.692-3.908Z" transform="translate(-1214 1164.22)" fill="#0568ca"/><path d="M1223.736-1142.476l4.656,3.954,4.19-2.778-4.692-3.908Z" transform="translate(-1209 1161.22)" fill="#65e111"/><path d="M1223.656-1142.655l4.656,3.954,4.19-2.778-4.692-3.908Z" transform="translate(-1204 1158.22)" fill="#65e111"/><path d="M1223.33-1142.67l4.656,3.954,4.19-2.778-4.692-3.908Z" transform="translate(-1208 1169.22)" fill="#65e111"/><path d="M1223.274-1142.828l4.656,3.954,4.19-2.778-4.692-3.908Z" transform="translate(-1203 1166.22)" fill="#65e111"/><path d="M1223.265-1143.079l4.656,3.954,4.19-2.778-4.692-3.908Z" transform="translate(-1198 1163.22)" fill="#65e111"/></g></svg>