<svg xmlns="http://www.w3.org/2000/svg" xmlns:xlink="http://www.w3.org/1999/xlink" width="128" height="128" viewBox="0 0 128 128">
  <defs>
    <filter id="Path_2850" x="0.073" y="56.683" width="127.854" height="28.853" filterUnits="userSpaceOnUse">
      <feOffset dy="3" input="SourceAlpha"/>
      <feGaussianBlur stdDeviation="3" result="blur"/>
      <feFlood flood-opacity="0.161"/>
      <feComposite operator="in" in2="blur"/>
      <feComposite in="SourceGraphic"/>
    </filter>
    <filter id="Ellipse_692" x="39.278" y="43" width="49" height="48" filterUnits="userSpaceOnUse">
      <feOffset dy="3" input="SourceAlpha"/>
      <feGaussianBlur stdDeviation="3" result="blur-2"/>
      <feFlood flood-opacity="0.161"/>
      <feComposite operator="in" in2="blur-2"/>
      <feComposite in="SourceGraphic"/>
    </filter>
    <filter id="Ellipse_694" x="21.278" y="65" width="33" height="33" filterUnits="userSpaceOnUse">
      <feOffset dy="3" input="SourceAlpha"/>
      <feGaussianBlur stdDeviation="3" result="blur-3"/>
      <feFlood flood-opacity="0.161"/>
      <feComposite operator="in" in2="blur-3"/>
      <feComposite in="SourceGraphic"/>
    </filter>
    <filter id="Ellipse_695" x="73.278" y="65" width="33" height="33" filterUnits="userSpaceOnUse">
      <feOffset dy="3" input="SourceAlpha"/>
      <feGaussianBlur stdDeviation="3" result="blur-4"/>
      <feFlood flood-opacity="0.161"/>
      <feComposite operator="in" in2="blur-4"/>
      <feComposite in="SourceGraphic"/>
    </filter>
    <clipPath id="clip-MarkerOutsideConnectionAirplane">
      <rect width="128" height="128"/>
    </clipPath>
  </defs>
  <g id="MarkerOutsideConnectionAirplane" clip-path="url(#clip-MarkerOutsideConnectionAirplane)">
    <circle id="Ellipse_691" data-name="Ellipse 691" cx="64" cy="64" r="64" fill="#79d9fc"/>
    <g transform="matrix(1, 0, 0, 1, 0, 0)" filter="url(#Path_2850)">
      <path id="Path_2850-2" data-name="Path 2850" d="M2.1,6.86C5.21,5.571,53.161-.61,53.161-.61s1.722.235,5.414.743C69.341,1.614,99.689,5.822,104.857,6.86c6.421,1.29,3.563,2.859,0,3.156s-51.7-3.156-51.7-3.156S7.589,11.279,2.1,10.016-1,8.15,2.1,6.86Z" transform="translate(10.25 63.29)" fill="#fff"/>
    </g>
    <path id="Path_2849" data-name="Path 2849" d="M.669,1.086c1.749.647,28.751,3.745,28.751,3.745s25.5-3.1,29.111-3.745,2.007-1.433,0-1.582S29.421,1.086,29.421,1.086,3.759-1.129.669-.5-1.08.439.669,1.086Z" transform="translate(34.383 55.188)" fill="#fff"/>
    <g transform="matrix(1, 0, 0, 1, 0, 0)" filter="url(#Ellipse_692)">
      <ellipse id="Ellipse_692-2" data-name="Ellipse 692" cx="15.5" cy="15" rx="15.5" ry="15" transform="translate(48.28 49)" fill="#fff"/>
    </g>
    <g transform="matrix(1, 0, 0, 1, 0, 0)" filter="url(#Ellipse_694)">
      <circle id="Ellipse_694-2" data-name="Ellipse 694" cx="7.5" cy="7.5" r="7.5" transform="translate(30.28 71)" fill="#fff"/>
    </g>
    <g transform="matrix(1, 0, 0, 1, 0, 0)" filter="url(#Ellipse_695)">
      <circle id="Ellipse_695-2" data-name="Ellipse 695" cx="7.5" cy="7.5" r="7.5" transform="translate(82.28 71)" fill="#fff"/>
    </g>
    <circle id="Ellipse_696" data-name="Ellipse 696" cx="4.5" cy="4.5" r="4.5" transform="translate(33.278 74)" fill="#4d4d4d"/>
    <g id="Ellipse_697" data-name="Ellipse 697" transform="translate(85.278 74)" fill="#4d4d4d" stroke="#e4e4e4" stroke-width="1">
      <circle cx="4.5" cy="4.5" r="4.5" stroke="none"/>
      <circle cx="4.5" cy="4.5" r="4" fill="none"/>
    </g>
    <path id="Path_2848" data-name="Path 2848" d="M1.967.59a1.5,1.5,0,0,1,1.5,1.5v18.04a1.5,1.5,0,0,1-3.007,0V2.093A1.5,1.5,0,0,1,1.967.59Z" transform="translate(61.732 29.002)" fill="#fff"/>
    <path id="Path_2851" data-name="Path 2851" d="M.078,0H29.707L28.641,3.523l-1.818,2.49H2.958l-1.879-2.8Z" transform="translate(48.931 67.616)" fill="#fff"/>
    <circle id="Ellipse_693" data-name="Ellipse 693" cx="9" cy="9" r="9" transform="translate(55.278 55)" fill="#fff"/>
    <rect id="Rectangle_4175" data-name="Rectangle 4175" width="18" height="6" rx="3" transform="translate(55.278 55)" fill="#3b424d"/>
  </g>
</svg>
