<svg xmlns="http://www.w3.org/2000/svg" xmlns:xlink="http://www.w3.org/1999/xlink" width="64" height="64" viewBox="0 0 64 64"><defs><clipPath id="b"><rect width="64" height="64"/></clipPath></defs><g id="a"><rect width="38" height="54" rx="5" transform="translate(13 4)" fill="#4f8198"/><g transform="translate(21.218 20.552)"><path d="M0,0H5.39V22.353H0Z" transform="translate(8.086 0.271)" fill="#f54e4e"/><path d="M1.572.521l5.485.1.395,21.973-5.485-.1Z" transform="matrix(0.719, 0.695, -0.695, 0.719, 15.565, 0)" fill="#f54e4e"/><path d="M0,0H5.588V21.564H0Z" transform="translate(21.564 8.653) rotate(90)" fill="#f54e4e"/><path d="M0,0,5.493-.093,5.1,21.845l-5.493.1Z" transform="matrix(-0.695, 0.719, -0.719, -0.695, 20.411, 17.203)" fill="#f54e4e"/><path d="M9478.84-29.276h2.88V-31h1.44v1.721h3.517v1.571h-3.038a3.433,3.433,0,0,0-.478,1.523,2.984,2.984,0,0,0,.478,1.449,2.392,2.392,0,0,1,.8,1.22c.24.822-.237,2.469-1.277,2.623a6.493,6.493,0,0,0-2.4,1.272,4.589,4.589,0,0,1,.961-1.272c.88-.973,1.758-1.192,1.44-2.17s-1.281-1.647-1.44-2.394a9.92,9.92,0,0,1,0-2.245h-2.88Z" transform="translate(-9471.998 37.341)" fill="#fff"/></g></g></svg>