<svg xmlns="http://www.w3.org/2000/svg" xmlns:xlink="http://www.w3.org/1999/xlink" width="64" height="64" viewBox="0 0 64 64"><defs><clipPath id="b"><rect width="64" height="64"/></clipPath></defs><g id="a"><path d="M733.426-302.733l29.61,25.369,23.135-14.243v-1.623l-52.745-11.55Z" transform="translate(-728.04 330.13)" fill="#007fff"/><path d="M1224.4-1129.661l29.871,25.1,22.966-13.733-30.016-25.114Z" transform="translate(-1219.047 1155.002)" fill="#42a0ff"/><path d="M1249.1-1108.867l11.313-6.694Z" transform="translate(-1201.926 1152.895)" fill="gray"/><path d="M2068.44,323.588l.814,3.26,5.76,5.483,4.066-2.4.229-1.941Z" transform="translate(-2026 -294.432)" fill="#9ee2fc"/><path d="M2068.44,323.588l.814,3.26,5.76,5.483,4.066-2.4.229-1.941Z" transform="translate(-2039 -298.8)" fill="#9ee2fc"/><path d="M2068.972,321.478a12.972,12.972,0,0,1,3.709,1.048,78.185,78.185,0,0,1,5.975,5.556l-4.633,2.842s-5.825-5.117-6.111-6.787A2.861,2.861,0,0,1,2068.972,321.478Z" transform="translate(-2025.432 -294.559)" fill="#d3b47f"/><path d="M2068.972,321.478a12.972,12.972,0,0,1,3.709,1.048,78.185,78.185,0,0,1,5.975,5.556l-4.633,2.842s-5.825-5.117-6.111-6.787A2.861,2.861,0,0,1,2068.972,321.478Z" transform="translate(-2038.432 -298.927)" fill="#d3b47f"/><path d="M2069.635,322.154l2.907-1.283,1.94,1.709-2.991,1.355Z" transform="translate(-2025.776 -294.77)" fill="#fff"/><path d="M2069.635,322.154l2.907-1.283,1.94,1.709-2.991,1.355Z" transform="translate(-2038.776 -299.137)" fill="#fff"/><path d="M2073.757,329.656l3.844-2.3-.523-1.84-3.092,1.6Z" transform="translate(-2025.004 -294.193)" fill="#d5d5d5"/><path d="M2073.757,329.656l3.844-2.3-.523-1.84-3.092,1.6Z" transform="translate(-2038.004 -298.56)" fill="#d5d5d5"/><path d="M2071.1,323.738l3.157-1.354.056,1.155,1.631,1.418-2.9,2.238-1.944-1.871Z" transform="translate(-2025.502 -294.582)" fill="#ddd"/><path d="M2071.1,323.738l3.157-1.354.056,1.155,1.631,1.418-2.9,2.238-1.944-1.871Z" transform="translate(-2038.502 -298.949)" fill="#ddd"/><path d="M2074.225,327.323l3.051-1.625-1.586-1.324L2072.7,325.9Z" transform="translate(-2025.203 -294.335)" fill="#fff"/><path d="M2074.225,327.323l3.051-1.625-1.586-1.324L2072.7,325.9Z" transform="translate(-2038.203 -298.702)" fill="#fff"/><path d="M2068.721,323.743l5.935,6.489.314-2.574-1.465-1.484-.373.373-1.531-1.595v-1.21l-1.8-1.763Z" transform="translate(-2025.947 -294.632)" fill="#f3eded"/><path d="M2068.721,323.743l5.935,6.489.314-2.574-1.465-1.484-.373.373-1.531-1.595v-1.21l-1.8-1.763Z" transform="translate(-2038.947 -298.999)" fill="#f3eded"/><path d="M2070.375,322l1.634-.708,1.489,1.259-1.677.678Z" transform="translate(-2025.661 -294.715)" fill="#64c1ff"/><path d="M2070.375,322l1.634-.708,1.489,1.259-1.677.678Z" transform="translate(-2038.661 -299.082)" fill="#64c1ff"/><path d="M2070.375,322l1.634-.708,1.059.773-1.616.792Z" transform="translate(-2023.705 -291.593)" fill="#64c1ff"/><path d="M2070.375,322l1.634-.708,1.059.773-1.616.792Z" transform="translate(-2036.705 -295.96)" fill="#64c1ff"/><path d="M2063.547,321.52l1.322,1.278v.975l-1.748-1.586Z" transform="translate(-2020 -293.684)" fill="#305ca8" opacity="0.46"/><path d="M2063.547,321.52l1.322,1.278v.975l-1.748-1.586Z" transform="translate(-2033 -298.051)" fill="#305ca8" opacity="0.46"/><path d="M2065.9,324.917l2.987,2.77,3.406-1.938.158.688-3.687,2.228-2.864-2.916Z" transform="translate(-2020 -293.684)" fill="#305ca8" opacity="0.47"/><path d="M2065.9,324.917l2.987,2.77,3.406-1.938.158.688-3.687,2.228-2.864-2.916Z" transform="translate(-2033 -298.051)" fill="#305ca8" opacity="0.47"/><path d="M2105.822,315l-.463-.388-.6.248-.547,1.159.914.792.693-.33Z" transform="translate(-2055.918 -284.375)" fill="#96a6b9"/><path d="M2105.822,315l-.463-.388-.6.248-.547,1.159.914.792.693-.33Z" transform="translate(-2068.918 -288.742)" fill="#96a6b9"/><path d="M2105.822,315l-.463-.388-.6.248-.547,1.159.914.792.693-.33Z" transform="translate(-2054.579 -284.981)" fill="#96a6b9"/><path d="M2105.822,315l-.463-.388-.6.248-.547,1.159.914.792.693-.33Z" transform="translate(-2067.579 -289.348)" fill="#96a6b9"/><path d="M2101.717,318.642l.464,1.835s3.824,4.548,6.6,5.654a4.337,4.337,0,0,0,4.419-.321l-7.621-10.026Z" transform="translate(-2084 -294.551)" fill="#9ee2fc"/><path d="M2101.717,318.642l.464,1.835s3.824,4.548,6.6,5.654a4.337,4.337,0,0,0,4.419-.321l-7.621-10.026Z" transform="translate(-2078.228 -282.2)" fill="#9ee2fc"/><path d="M1874.129,296.328s5.031,5.675,7.04,6.38a36.861,36.861,0,0,0,4.173,1.149s.882-1.418-.414-3.626-6.716-6.539-6.716-6.539Z" transform="translate(-1856.353 -272.409)" fill="#d3b47f"/><path d="M1874.129,296.328s5.031,5.675,7.04,6.38a36.861,36.861,0,0,0,4.173,1.149s.882-1.418-.414-3.626-6.716-6.539-6.716-6.539Z" transform="translate(-1850.581 -260.058)" fill="#d3b47f"/><path d="M2108.788,323.918l2.836-1.722-.206-2.286-2.786,1.541Z" transform="translate(-2083 -293.467)" fill="#d5d5d5"/><path d="M2108.788,323.918l2.836-1.722-.206-2.286-2.786,1.541Z" transform="translate(-2077.228 -281.116)" fill="#d5d5d5"/><path d="M2103.251,316.851c.148-.064,2.908-1.374,2.908-1.374l1.33,1.147-3,1.387Z" transform="translate(-2084 -294.551)" fill="#fff"/><path d="M2103.251,316.851c.148-.064,2.908-1.374,2.908-1.374l1.33,1.147-3,1.387Z" transform="translate(-2078.228 -282.2)" fill="#fff"/><path d="M2104.491,318.012l2.91-1.387.464,1,1.658,1.112-2.791,2.256-1.886-1.644Z" transform="translate(-2084 -294.551)" fill="#ddd"/><path d="M2104.491,318.012l2.91-1.387.464,1,1.658,1.112-2.791,2.256-1.886-1.644Z" transform="translate(-2078.228 -282.2)" fill="#ddd"/><path d="M2102.98,318.774l6.845,6.182V322.5l-2.795-2.543-.749.118-1.451-1.306-.34-.827-1.177-1.047Z" transform="translate(-2084 -294.551)" fill="#f3eded"/><path d="M2102.98,318.774l6.845,6.182V322.5l-2.795-2.543-.749.118-1.451-1.306-.34-.827-1.177-1.047Z" transform="translate(-2078.228 -282.2)" fill="#f3eded"/><path d="M2103.006,316.8c.148-.064,2.853-1.547,2.853-1.547l2.623,2.612-2.758,1.6Z" transform="translate(-2080 -291.418)" fill="#fff"/><path d="M2103.006,316.8c.148-.064,2.853-1.547,2.853-1.547l2.623,2.612-2.758,1.6Z" transform="translate(-2074.228 -279.067)" fill="#fff"/><path d="M2106.941,320.46l2.062,1.867,2.665-1.607v.988L2109,323.293l-2.062-1.734Z" transform="translate(-2083.178 -293.718)" fill="#305ca8" opacity="0.37"/><path d="M2106.941,320.46l2.062,1.867,2.665-1.607v.988L2109,323.293l-2.062-1.734Z" transform="translate(-2077.406 -281.367)" fill="#305ca8" opacity="0.37"/><path d="M2104.491,315.847l.824.786.759-.426-.341-1.711-.543-.418-.446.147Z" transform="translate(-2084.792 -293.725)" fill="#96a6b9"/><path d="M2104.491,315.847l.824.786.759-.426-.341-1.711-.543-.418-.446.147Z" transform="translate(-2079.02 -281.373)" fill="#96a6b9"/><path d="M2104.491,315.847l.824.786.759-.426-.341-1.711-.543-.418-.446.147Z" transform="translate(-2083.366 -294.429)" fill="#96a6b9"/><path d="M2104.491,315.847l.824.786.759-.426-.341-1.711-.543-.418-.446.147Z" transform="translate(-2077.594 -282.078)" fill="#96a6b9"/><path d="M2107.9,319.88l2.108,1.97,1.579-.9-2.039-1.967Z" transform="translate(-2084 -294.551)" fill="#64c1ff"/><path d="M2107.9,319.88l2.108,1.97,1.579-.9-2.039-1.967Z" transform="translate(-2078.228 -282.2)" fill="#64c1ff"/><path d="M2108.4,320.215l.8.738,1.579-.9-.872-.621Z" transform="translate(-2086.356 -295.916)" fill="#64c1ff"/><path d="M2108.4,320.215l.8.738,1.579-.9-.872-.621Z" transform="translate(-2080.584 -283.565)" fill="#64c1ff"/><path d="M2103.028,318.427l3.471,3.238v-.917l-3.348-3.061Z" transform="translate(-2084 -294.551)" fill="#305ca8" opacity="0.43"/><path d="M2103.028,318.427l3.471,3.238v-.917l-3.348-3.061Z" transform="translate(-2078.228 -282.2)" fill="#305ca8" opacity="0.43"/><path d="M1979.315,299.52c.249.044,14.171,14.17,14.126,13.868a13.2,13.2,0,0,1,0-1.358l1.561-1Z" transform="translate(-1970 -276)" fill="#fff" opacity="0.2"/><path d="M2006.784,309.108l12.45,8.051-9.752-9.8Z" transform="translate(-1970 -276)" fill="#fff" opacity="0.15"/></g></svg>