<svg xmlns="http://www.w3.org/2000/svg" xmlns:xlink="http://www.w3.org/1999/xlink" width="34" height="34" viewBox="0 0 34 34"><defs><clipPath id="b"><rect width="34" height="34"/></clipPath></defs><g id="a"><path d="M733.5-302.422l18.073,15.486,14.1-9.392v-1.62L733.5-304.027Z" transform="translate(-732.621 317.139)" fill="#434343"/><path d="M1223.5-1133.647l18.118,15.388,14.114-9.271-18.165-15.392Z" transform="translate(-1222.621 1146.719)" fill="gray"/><path d="M739.261-309.632l17.892,15.621,1.385-.915-17.882-15.59Z" transform="translate(-732.035 318.455)" fill="#6f6969"/><path d="M738.779-308.951l17.892,15.621.8-.459-17.882-15.59Z" transform="translate(-737.035 321.455)" fill="#d4d4d4"/><path d="M738.779-308.951l17.892,15.621.8-.459-17.882-15.59Z" transform="translate(-734.38 319.455)" fill="#d4d4d4"/><path d="M738.657-308.956l17.859,15.478.674-.405-17.726-15.5Z" transform="translate(-727.69 315.455)" fill="#d4d4d4"/><path d="M738.779-308.951l17.892,15.621.8-.459-17.882-15.59Z" transform="translate(-725.035 313.455)" fill="#d4d4d4"/></g></svg>