<svg xmlns="http://www.w3.org/2000/svg" xmlns:xlink="http://www.w3.org/1999/xlink" width="64" height="64" viewBox="0 0 64 64"><defs><clipPath id="b"><rect width="64" height="64"/></clipPath></defs><g id="a"><path d="M15574.47,2629.549V2626.8l-53.157-26.8h-5.528v3.4l22.114,26.079Z" transform="translate(-15512.756 -2582.678)" fill="#4c4c4c"/><path d="M15668.52,3491.366l22.444,26.779h36.388l-25-26.779Z" transform="translate(-15665.559 -3473.932)" fill="gray"/><path d="M15824.789,3491.366l22.715,26.713h1.684l-23.2-26.713Z" transform="translate(-15815.919 -3473.932)" fill="#fff"/><path d="M15824.789,3491.366l22.715,26.713h1.684l-23.2-26.713Z" transform="translate(-15809.315 -3473.932)" fill="#fff"/><path d="M15824.789,3491.366l22.715,26.713h1.684l-23.2-26.713Z" transform="translate(-15801.697 -3473.932)" fill="#fff"/><path d="M15824.789,3491.366l22.715,26.713h1.684l-23.2-26.713Z" transform="translate(-15794.332 -3473.932)" fill="#fff"/><path d="M15736.772,2433.419v3.341h1.589l3.105,3.585h2.021l-3.25-3.585h1.95Z" transform="translate(-15722.826 -2406.656)" fill="#fff"/><path d="M15736.772,2433.419v3.341h1.589l3.105,3.585h2.021l-3.25-3.585h1.95Z" transform="translate(-15715.716 -2406.656)" fill="#fff"/><path d="M15736.772,2433.419v3.341h1.589l3.105,3.585h2.021l-3.25-3.585h1.95Z" transform="translate(-15708.605 -2406.656)" fill="#fff"/><path d="M15736.772,2433.419v3.341h1.589l3.105,3.585h2.021l-3.25-3.585h1.95Z" transform="translate(-15701.494 -2406.656)" fill="#fff"/><path d="M15736.772,2433.419v3.341h1.589l3.105,3.585h2.021l-3.25-3.585h1.95Z" transform="translate(-15693.621 -2406.656)" fill="#fff"/></g></svg>