<svg xmlns="http://www.w3.org/2000/svg" xmlns:xlink="http://www.w3.org/1999/xlink" width="64" height="64" viewBox="0 0 64 64">
  <defs>
    <clipPath id="clip-MediumRoadOneway">
      <rect width="64" height="64"/>
    </clipPath>
  </defs>
  <g id="MediumRoadOneway" clip-path="url(#clip-MediumRoadOneway)">
    <path id="Path_2053" data-name="Path 2053" d="M1192-423.5l-6.59-8.59s-4.616,2.209-4.367,2.646,8.131,10.088,8.131,10.088Z" transform="translate(-1074.633 611.44) rotate(-7)" fill="#706428"/>
    <path id="Path_2201" data-name="Path 2201" d="M1192-423.5l-6.59-8.59s-4.616,2.209-4.367,2.646,8.131,10.088,8.131,10.088Z" transform="translate(-1079.633 615.44) rotate(-7)" fill="#b47300"/>
    <path id="Path_2205" data-name="Path 2205" d="M1192-423.5l-6.59-8.59s-4.616,2.209-4.367,2.646,8.131,10.088,8.131,10.088Z" transform="translate(-1085.633 618.44) rotate(-7)" fill="#61a2d3"/>
    <path id="Path_2054" data-name="Path 2054" d="M1193.068-423.414l-6.83-8.592s-2.307.506-2.058.943,7.528,8.878,7.528,8.878Z" transform="translate(-1075.472 612.521) rotate(-7)" fill="#9a8a39"/>
    <path id="Path_2202" data-name="Path 2202" d="M1193.068-423.414l-6.83-8.592s-2.307.506-2.058.943,7.528,8.878,7.528,8.878Z" transform="translate(-1080.472 615.521) rotate(-7)" fill="#e39c03"/>
    <path id="Path_2206" data-name="Path 2206" d="M1193.068-423.414l-6.83-8.592s-2.307.506-2.058.943,7.528,8.878,7.528,8.878Z" transform="translate(-1086.472 618.521) rotate(-7)" fill="#7ac6ff"/>
    <path id="Path_2055" data-name="Path 2055" d="M1185.44-423.674a4.27,4.27,0,0,1,2.516-2.358c1.767-.486,2.245,0,2.245,0L1188.186-428l-5.493,1.624Z" transform="translate(-1134.99 470.025)" fill="rgba(59,59,59,0.61)"/>
    <path id="Path_2203" data-name="Path 2203" d="M1185.44-423.674a4.27,4.27,0,0,1,2.516-2.358c1.767-.486,2.245,0,2.245,0L1188.186-428l-5.493,1.624Z" transform="translate(-1139.99 474.025)" fill="rgba(59,59,59,0.61)"/>
    <path id="Path_2207" data-name="Path 2207" d="M1185.44-423.674a4.27,4.27,0,0,1,2.516-2.358c1.767-.486,2.245,0,2.245,0L1188.186-428l-5.493,1.624Z" transform="translate(-1145.99 477.025)" fill="rgba(59,59,59,0.61)"/>
    <g id="Path_2200" data-name="Path 2200" transform="translate(53.692 45.179) rotate(13)" fill="#4d4324">
      <path d="M 2.563201904296875 4.448550701141357 C 1.581541895866394 4.448550701141357 0.7829018831253052 3.483330726623535 0.7829018831253052 2.296920776367188 C 0.7829018831253052 1.11051082611084 1.581541895866394 0.1452907770872116 2.563201904296875 0.1452907770872116 C 3.544861793518066 0.1452907770872116 4.343502044677734 1.11051082611084 4.343502044677734 2.296920776367188 C 4.343502044677734 3.483330726623535 3.544861793518066 4.448550701141357 2.563201904296875 4.448550701141357 Z" stroke="none"/>
      <path d="M 2.563201904296875 0.6452908515930176 C 1.869211912155151 0.6452908515930176 1.282902002334595 1.401640892028809 1.282902002334595 2.296920776367188 C 1.282902002334595 3.192200660705566 1.869211912155151 3.948550701141357 2.563201904296875 3.948550701141357 C 3.257191896438599 3.948550701141357 3.843502044677734 3.192200660705566 3.843502044677734 2.296920776367188 C 3.843502044677734 1.401640892028809 3.257191896438599 0.6452908515930176 2.563201904296875 0.6452908515930176 M 2.563201904296875 -0.3547091484069824 C 3.822581768035889 -0.3547091484069824 4.843502044677734 0.8324708938598633 4.843502044677734 2.296920776367188 C 4.843502044677734 3.761370658874512 3.822581768035889 4.948550701141357 2.563201904296875 4.948550701141357 C 1.303821802139282 4.948550701141357 0.2829017639160156 3.761370658874512 0.2829017639160156 2.296920776367188 C 0.2829017639160156 0.8324708938598633 1.303821802139282 -0.3547091484069824 2.563201904296875 -0.3547091484069824 Z" stroke="none" fill="#755902"/>
    </g>
    <g id="Path_2204" data-name="Path 2204" transform="translate(48.692 49.179) rotate(13)" fill="#748991">
      <path d="M 2.563201904296875 4.448550701141357 C 1.581541895866394 4.448550701141357 0.7829018831253052 3.483330726623535 0.7829018831253052 2.296920776367188 C 0.7829018831253052 1.11051082611084 1.581541895866394 0.1452907770872116 2.563201904296875 0.1452907770872116 C 3.544861793518066 0.1452907770872116 4.343502044677734 1.11051082611084 4.343502044677734 2.296920776367188 C 4.343502044677734 3.483330726623535 3.544861793518066 4.448550701141357 2.563201904296875 4.448550701141357 Z" stroke="none"/>
      <path d="M 2.563201904296875 0.6452908515930176 C 1.869211912155151 0.6452908515930176 1.282902002334595 1.401640892028809 1.282902002334595 2.296920776367188 C 1.282902002334595 3.192200660705566 1.869211912155151 3.948550701141357 2.563201904296875 3.948550701141357 C 3.257191896438599 3.948550701141357 3.843502044677734 3.192200660705566 3.843502044677734 2.296920776367188 C 3.843502044677734 1.401640892028809 3.257191896438599 0.6452908515930176 2.563201904296875 0.6452908515930176 M 2.563201904296875 -0.3547091484069824 C 3.822581768035889 -0.3547091484069824 4.843502044677734 0.8324708938598633 4.843502044677734 2.296920776367188 C 4.843502044677734 3.761370658874512 3.822581768035889 4.948550701141357 2.563201904296875 4.948550701141357 C 1.303821802139282 4.948550701141357 0.2829017639160156 3.761370658874512 0.2829017639160156 2.296920776367188 C 0.2829017639160156 0.8324708938598633 1.303821802139282 -0.3547091484069824 2.563201904296875 -0.3547091484069824 Z" stroke="none" fill="#8d5b03"/>
    </g>
    <g id="Path_2208" data-name="Path 2208" transform="translate(42.692 52.179) rotate(13)" fill="#4a6068">
      <path d="M 2.563201904296875 4.448550701141357 C 1.581541895866394 4.448550701141357 0.7829018831253052 3.483330726623535 0.7829018831253052 2.296920776367188 C 0.7829018831253052 1.11051082611084 1.581541895866394 0.1452907770872116 2.563201904296875 0.1452907770872116 C 3.544861793518066 0.1452907770872116 4.343502044677734 1.11051082611084 4.343502044677734 2.296920776367188 C 4.343502044677734 3.483330726623535 3.544861793518066 4.448550701141357 2.563201904296875 4.448550701141357 Z" stroke="none"/>
      <path d="M 2.563201904296875 0.6452908515930176 C 1.869211912155151 0.6452908515930176 1.282902002334595 1.401640892028809 1.282902002334595 2.296920776367188 C 1.282902002334595 3.192200660705566 1.869211912155151 3.948550701141357 2.563201904296875 3.948550701141357 C 3.257191896438599 3.948550701141357 3.843502044677734 3.192200660705566 3.843502044677734 2.296920776367188 C 3.843502044677734 1.401640892028809 3.257191896438599 0.6452908515930176 2.563201904296875 0.6452908515930176 M 2.563201904296875 -0.3547091484069824 C 3.822581768035889 -0.3547091484069824 4.843502044677734 0.8324708938598633 4.843502044677734 2.296920776367188 C 4.843502044677734 3.761370658874512 3.822581768035889 4.948550701141357 2.563201904296875 4.948550701141357 C 1.303821802139282 4.948550701141357 0.2829017639160156 3.761370658874512 0.2829017639160156 2.296920776367188 C 0.2829017639160156 0.8324708938598633 1.303821802139282 -0.3547091484069824 2.563201904296875 -0.3547091484069824 Z" stroke="none" fill="#4e7989"/>
    </g>
    <path id="Path_2191" data-name="Path 2191" d="M1249.1-1108.867l11.313-6.694Z" transform="translate(-1201.926 1152.895)" fill="gray"/>
    <path id="Path_2186" data-name="Path 2186" d="M722.072-295.333l29.712,25.316,34.037-20.612.35-2.6-64.1-4.686Z" transform="translate(-722.04 327.13)" fill="#434343"/>
    <path id="Path_2190" data-name="Path 2190" d="M737.026-304.839l24.051,28.178,25.135-14.784-30.233-24.5Z" transform="translate(-728.951 329.31)" fill="#bababa"/>
    <path id="Path_2192" data-name="Path 2192" d="M1224.123-1129.9l29.871,25.1,9-5.463-29.7-24.869Z" transform="translate(-1224.047 1159.002)" fill="#929191"/>
    <path id="Path_2193" data-name="Path 2193" d="M1223.129-1128.57,1253-1103.719l14.472-8.426-29.84-24.934Z" transform="translate(-1212.995 1151.886)" fill="#929191"/>
    <path id="Path_2211" data-name="Path 2211" d="M1226.582-1130.891l29.871,25.1,8.717-5.218-30.016-25.114Z" transform="translate(-1200.995 1144.886)" fill="#929191"/>
    <path id="Path_2215" data-name="Path 2215" d="M1224.175-1129.047l29.871,25.1,3.7-2.1-30.016-25.114Z" transform="translate(-1224.047 1158.002)" fill="#716e6e"/>
    <path id="Path_2216" data-name="Path 2216" d="M1232.063-1133.973l29.871,25.1,3.236-2.137-30.016-25.114Z" transform="translate(-1200.995 1144.886)" fill="#716e6e"/>
    <path id="Path_2281" data-name="Path 2281" d="M15820,3491.44l30.408,24.87,1.232-.691-30.76-24.619Z" transform="translate(-15803.44 -3472.092)" fill="rgba(212,212,212,0.61)"/>
    <path id="Path_2212" data-name="Path 2212" d="M15735.836,2434.139l.747,5.229,1.5-.839,5.265,4.861,2.4-1.411-5.161-4.7,1.721-1Z" transform="translate(-15719.271 -2401.201)" fill="#fff"/>
    <path id="Path_2284" data-name="Path 2284" d="M15735.836,2434.139l.747,5.229,1.5-.839,5.265,4.861,2.4-1.411-5.161-4.7,1.721-1Z" transform="translate(-15712.045 -2404.926)" fill="#fff"/>
    <path id="Path_2285" data-name="Path 2285" d="M15735.836,2434.139l.747,5.229,1.5-.839,5.265,4.861,2.4-1.411-5.161-4.7,1.721-1Z" transform="translate(-15703.836 -2409.551)" fill="#fff"/>
    <path id="Path_2286" data-name="Path 2286" d="M15735.836,2434.139l.747,5.229,1.5-.839,5.265,4.861,2.4-1.411-5.161-4.7,1.721-1Z" transform="translate(-15696.758 -2413.551)" fill="#fff"/>
  </g>
</svg>
