<svg xmlns="http://www.w3.org/2000/svg" xmlns:xlink="http://www.w3.org/1999/xlink" width="64" height="64" viewBox="0 0 64 64">
  <defs>
    <clipPath id="clip-MediumRoundabout08">
      <rect width="64" height="64"/>
    </clipPath>
  </defs>
  <g id="MediumRoundabout08" clip-path="url(#clip-MediumRoundabout08)">
    <path id="Path_1137" data-name="Path 1137" d="M15.72.032C24.4.049,31.45,4.8,31.462,10.634s-7.016,10.556-15.7,10.539S.034,16.409.022,10.571,7.038.014,15.72.032Z" transform="matrix(0.998, -0.07, 0.07, 0.998, 15.414, 23.831)" fill="#595959"/>
    <path id="Path_1136" data-name="Path 1136" d="M15.72.032C24.4.049,31.45,4.8,31.462,10.634s-7.016,10.556-15.7,10.539S.034,16.409.022,10.571,7.038.014,15.72.032Z" transform="matrix(0.998, -0.07, 0.07, 0.998, 15.414, 21.482)" fill="#c3c2c2"/>
    <g id="Group_2745" data-name="Group 2745" transform="translate(-2.943 -1.724)">
      <ellipse id="Ellipse_457" data-name="Ellipse 457" cx="12.215" cy="7.735" rx="12.215" ry="7.735" transform="matrix(0.998, -0.07, 0.07, 0.998, 22.219, 25.82)" fill="#595959"/>
    </g>
    <g id="Group_2747" data-name="Group 2747" transform="translate(19.515 23.295)">
      <path id="Rectangle_4573" data-name="Rectangle 4573" d="M0,6.577,13.166,0,24.829,8.346l-13.22,6.762Z" transform="translate(0 0)" fill="#965f5f"/>
      <path id="Path_3909" data-name="Path 3909" d="M1.833,0,19.478,1.177,18.4,12.016.444,10.8Z" transform="translate(2.361 1.511)" fill="#965f5f"/>
      <path id="Path_3905" data-name="Path 3905" d="M.019,2.989s.207.172.585.449S1.53,4.1,2.212,4.523A25.284,25.284,0,0,0,4.628,5.849a20.383,20.383,0,0,0,3,1.165,23.247,23.247,0,0,0,3.295.693c1.093.155,2.147.242,3.067.29s1.706.056,2.261.052.881-.02.881-.02-.219-.172-.615-.449S15.55,6.92,14.845,6.5a27.485,27.485,0,0,0-2.469-1.313A21.563,21.563,0,0,0,9.363,4.034,23.912,23.912,0,0,0,6.1,3.343c-1.075-.157-2.11-.248-3.011-.3S1.423,2.977.88,2.977.019,2.989.019,2.989Z" transform="translate(3.613 1.725)" fill="#595959"/>
      <path id="Path_3906" data-name="Path 3906" d="M5.986.009s.241.154.623.427.906.667,1.469,1.146A16.831,16.831,0,0,1,9.793,3.248a8.63,8.63,0,0,1,1.356,1.986,6.159,6.159,0,0,1,.544,2.085,8.061,8.061,0,0,1-.069,1.887,9.258,9.258,0,0,1-.314,1.37c-.1.335-.188.528-.188.528s-.241-.162-.624-.449-.9-.7-1.466-1.2a17.517,17.517,0,0,1-1.7-1.715A8.955,8.955,0,0,1,6,5.735a6.285,6.285,0,0,1-.537-2.067,7.965,7.965,0,0,1,.057-1.839A8.87,8.87,0,0,1,5.81.513C5.907.193,5.986.009,5.986.009Z" transform="translate(3.755 1.811)" fill="#595959"/>
      <path id="Path_3907" data-name="Path 3907" d="M5.037,10.416s.291-.13.759-.366,1.114-.578,1.824-1a22.341,22.341,0,0,0,2.21-1.491,11.315,11.315,0,0,0,1.921-1.833,7.348,7.348,0,0,0,1.125-2,8.318,8.318,0,0,0,.456-1.845A8.537,8.537,0,0,0,13.4.53,5.185,5.185,0,0,0,13.364,0s-.279.129-.731.362-1.076.572-1.765.991a22.687,22.687,0,0,0-2.16,1.478A11.743,11.743,0,0,0,6.8,4.66,7.752,7.752,0,0,0,5.64,6.654,8.77,8.77,0,0,0,5.131,8.51a8.932,8.932,0,0,0-.114,1.371C5.016,10.219,5.037,10.416,5.037,10.416Z" transform="translate(2.973 2.105)" fill="#595959"/>
      <path id="Path_3908" data-name="Path 3908" d="M.015,6.726s.262-.149.727-.384,1.131-.557,1.942-.9,1.762-.714,2.8-1.044A24.111,24.111,0,0,1,8.789,3.58a25.305,25.305,0,0,1,3.442-.317c1.118-.032,2.179,0,3.1.052s1.693.132,2.239.2.862.116.862.116-.261.144-.724.373-1.129.542-1.94.879-1.767.7-2.808,1.028a25.167,25.167,0,0,1-3.324.813,26.113,26.113,0,0,1-3.451.329c-1.119.037-2.177.013-3.091-.035S1.408,6.895.868,6.834.015,6.726.015,6.726Z" transform="translate(2.973 2.105)" fill="#595959"/>
      <path id="Ellipse_938" data-name="Ellipse 938" d="M3.079,1.541a5.219,5.219,0,0,1,1.394-.456,6.523,6.523,0,0,1,1.52-.1,6.1,6.1,0,0,1,1.467.255,4.277,4.277,0,0,1,1.236.6,2.4,2.4,0,0,1,.758.841,1.529,1.529,0,0,1,.161.922,1.785,1.785,0,0,1-.424.893,3.159,3.159,0,0,1-.994.754,5.2,5.2,0,0,1-1.4.462,6.521,6.521,0,0,1-1.532.1,6.092,6.092,0,0,1-1.477-.259,4.251,4.251,0,0,1-1.239-.6A2.376,2.376,0,0,1,1.8,4.1a1.524,1.524,0,0,1-.149-.924,1.8,1.8,0,0,1,.434-.89A3.188,3.188,0,0,1,3.079,1.541Z" transform="translate(6.865 3.989)" fill="#965f5f"/>
    </g>
  </g>
</svg>
