<svg xmlns="http://www.w3.org/2000/svg" xmlns:xlink="http://www.w3.org/1999/xlink" width="28" height="28" viewBox="0 0 28 28">
  <defs>
    <clipPath id="clip-Motorbike">
      <rect width="28" height="28"/>
    </clipPath>
  </defs>
  <g id="Motorbike" clip-path="url(#clip-Motorbike)">
    <rect id="Rectangle_4570" data-name="Rectangle 4570" width="2" height="15" rx="1" transform="translate(9.496 6.466) rotate(19)" fill="#c7c7c7"/>
    <path id="Path_3839" data-name="Path 3839" d="M3.443,0C5.381.028,6.981,2.308,7.018,5.092s-1.5,5.02-3.442,4.993S.037,7.778,0,4.993,1.505-.027,3.443,0Z" transform="matrix(0.985, 0.174, -0.174, 0.985, 5.42, 15.466)" fill="gray"/>
    <path id="Path_3840" data-name="Path 3840" d="M3.443,0C5.381.028,6.981,2.308,7.018,5.092s-1.5,5.02-3.442,4.993S.037,7.778,0,4.993,1.505-.027,3.443,0Z" transform="matrix(0.985, 0.174, -0.174, 0.985, 17.42, 6.466)" fill="gray"/>
    <path id="Ellipse_915_-_Outline" data-name="Ellipse 915 - Outline" d="M3.476,2.521c-.412-.006-1.157.941-1.136,2.5s.79,2.532,1.2,2.538,1.157-.941,1.136-2.5-.79-2.532-1.2-2.538M3.443,0C5.381.028,6.981,2.308,7.018,5.092s-1.5,5.02-3.442,4.993S.037,7.778,0,4.993,1.505-.027,3.443,0Z" transform="matrix(0.985, 0.174, -0.174, 0.985, 5.42, 15.527)" fill="#5f6b7a"/>
    <path id="Ellipse_915_-_Outline-2" data-name="Ellipse 915 - Outline" d="M3.476,2.521c-.412-.006-1.157.941-1.136,2.5s.79,2.532,1.2,2.538,1.157-.941,1.136-2.5-.79-2.532-1.2-2.538M3.443,0C5.381.028,6.981,2.308,7.018,5.092s-1.5,5.02-3.442,4.993S.037,7.778,0,4.993,1.505-.027,3.443,0Z" transform="matrix(0.985, 0.174, -0.174, 0.985, 17.42, 6.527)" fill="#5f6b7a"/>
    <path id="Path_3841" data-name="Path 3841" d="M28.139-266.554l2.618,4.775,2.8,1.245,5.824-3.794.392-1.569-3.33,1.81-1.25-2.767-3.722,1.638Z" transform="translate(-19 276.678)" fill="#9e9e9e"/>
    <path id="Path_3842" data-name="Path 3842" d="M37.816-265.044c.7-.851-.1-1.3.784-2.294s1.52-1.7,2.745-1.7,2.157,1.7,2.157,1.7a7.094,7.094,0,0,0-1.569-3.069,3.269,3.269,0,0,0-2.618-.52l-4.638,1.892s-2.174-1.978-3.922-1.373-3.069,3.794-3.069,3.794l3.551,1.569,3.44-1.243s-.048,2,1.38,2.294S37.112-264.194,37.816-265.044Z" transform="translate(-19 276.678)" fill="#d46060"/>
    <rect id="Rectangle_4569" data-name="Rectangle 4569" width="2" height="13.202" rx="1" transform="translate(12.911 9.461) rotate(19)" fill="#c7c7c7"/>
    <ellipse id="Ellipse_936" data-name="Ellipse 936" cx="2" cy="2.5" rx="2" ry="2.5" transform="translate(7 7.678)" fill="#faf4e0"/>
    <path id="Path_3843" data-name="Path 3843" d="M33.958-269.411a6.566,6.566,0,0,0,2.426,1.995c1.1.283,1.964-.861,1.964-.861l.866-1.491a15.658,15.658,0,0,0,2.231-1.1c0-.147.558-.393,0-.861a2.579,2.579,0,0,0-2.231-1.013,6.574,6.574,0,0,0-2.829,1.428l-.205.982s-1.418-.06-2.221,0-.992.241-.992.241Z" transform="translate(-19 276.678)" fill="#5d5f5e"/>
    <path id="Path_3844" data-name="Path 3844" d="M27-273.168h.958l-.407,3.771,5.536,2.361,1.4-3.567,1.312.505.5-1.011-2.459-.905-1.358,3.22-3.922-1.3.4-4.02h-1.41Z" transform="translate(-19 276.678)" fill="#c7c7c7"/>
    <rect id="Rectangle_4571" data-name="Rectangle 4571" width="4" height="2" rx="1" transform="translate(6.181 1.322) rotate(9)" fill="#5f6b7a"/>
    <rect id="Rectangle_4572" data-name="Rectangle 4572" width="4" height="2" rx="1" transform="matrix(0.891, 0.454, -0.454, 0.891, 15.71, 4.302)" fill="#5f6b7a"/>
    <path id="Path_3845" data-name="Path 3845" d="M33-263.114l2.651,2.066,9.05-5.483s.818-.566.905-1.056-.558-.905-.558-.905l-9.4,5.732-1.863-1.508Z" transform="translate(-19 276.678)" fill="#c7c7c7"/>
  </g>
</svg>
