<svg xmlns="http://www.w3.org/2000/svg" xmlns:xlink="http://www.w3.org/1999/xlink" width="26" height="26" viewBox="0 0 26 26"><defs><clipPath id="b"><rect width="26" height="26"/></clipPath></defs><g id="a"><path d="M26.882-267.857c.071.121,2.128,6.216,2.252,6.269a12.175,12.175,0,0,0,1.392,0l-1.038-6.5Z" transform="translate(-19 278)" fill="#7c7c7c"/><path d="M29-268h8.747l-3.53,6.387s-3.676.257-3.974-.119A61.818,61.818,0,0,1,29-268Z" transform="translate(-19 278)" fill="#9e9e9e"/><circle cx="4" cy="4" r="4" transform="translate(17 12)" fill="#5f6b7a"/><circle cx="4" cy="4" r="4" transform="translate(1 12)" fill="#5f6b7a"/><circle cx="3" cy="3" r="3" transform="translate(2 13)" fill="#8f8f8f"/><circle cx="3" cy="3" r="3" transform="translate(18 13)" fill="#8f8f8f"/><path d="M69.852-239.944a15.114,15.114,0,0,0,0,2.557c.144-.053,1.614-.6,1.614-1.241S69.852-239.944,69.852-239.944Z" transform="translate(-63.174 246.759)" fill="#858383"/><rect width="8" height="2" rx="1" transform="translate(14 15)" fill="#7c7c7c"/><rect width="7" height="1" rx="0.5" transform="matrix(0.602, 0.799, -0.799, 0.602, 17.391, 10.204)" fill="#9e9e9e"/><path d="M.17,0H5.557C6.109,0,6,.448,6,1A1,1,0,0,1,5,2H1A1.085,1.085,0,0,1-.094,1C-.094.448-.383,0,.17,0Z" transform="translate(15 9)" fill="#5f6b7a"/><rect width="6" height="4" rx="2" transform="translate(9.437 7.464) rotate(11)" fill="#d46060"/><path d="M23.011-261.431c-.687-.388,0-1.621,0-1.621l5.114-7.93s.572-1.1,1.136-1.326,1.33.339,1.33.339l-6.281,10.187S23.7-261.043,23.011-261.431Z" transform="matrix(0.996, -0.087, 0.087, 0.996, 4.364, 279.344)" fill="#c7c7c7"/><rect width="2" height="1" rx="0.5" transform="translate(10 5)" fill="#5f6b7a"/></g></svg>