<svg xmlns="http://www.w3.org/2000/svg" xmlns:xlink="http://www.w3.org/1999/xlink" width="64" height="64" viewBox="0 0 64 64"><defs><clipPath id="b"><rect width="64" height="64"/></clipPath></defs><g id="a"><path d="M733.5-301.473l28.755,24.639,12.479-8.951v-2.724L733.5-304.418Z" transform="translate(-722.122 327.055)" fill="#007fff"/><path d="M1223.505-1130.368l28.827,24.483,12.379-8.646-28.39-24.664Z" transform="translate(-1212.122 1152.974)" fill="#42a0ff"/><path d="M2101.717,318.642l.464,1.835s3.824,4.548,6.6,5.654a4.337,4.337,0,0,0,4.419-.321l-7.621-10.026Z" transform="translate(-2081.283 -293)" fill="#9ee2fc"/><path d="M1874.129,296.328s5.031,5.675,7.04,6.38a36.861,36.861,0,0,0,4.173,1.149s.882-1.418-.414-3.626-6.716-6.539-6.716-6.539Z" transform="translate(-1853.635 -270.858)" fill="#d3b47f"/><path d="M2108.788,323.918l2.925-1.588-.294-2.421-2.786,1.541Z" transform="translate(-2080.283 -291.916)" fill="#d5d5d5"/><path d="M2103.251,316.851c.148-.064,2.908-1.374,2.908-1.374l1.33,1.147-3,1.387Z" transform="translate(-2081.283 -293)" fill="#fff"/><path d="M2104.491,318.012l2.91-1.387.464,1,1.658,1.112-2.791,2.256-1.886-1.644Z" transform="translate(-2081.283 -293)" fill="#ddd"/><path d="M2102.98,318.774l6.845,6.182V322.5l-2.795-2.543-.749.118-1.451-1.306-.34-.827-1.177-1.047Z" transform="translate(-2081.283 -293)" fill="#f3eded"/><path d="M2103.006,316.8c.148-.064,2.853-1.547,2.853-1.547l2.623,2.612-2.758,1.6Z" transform="translate(-2077.283 -289.866)" fill="#fff"/><path d="M2106.941,320.46l2.062,1.867,2.553-1.634.112.867L2109,323.293l-2.062-1.734Z" transform="translate(-2080.461 -292.167)" fill="#305ca8" opacity="0.37"/><path d="M2104.491,315.847l.824.786.759-.426-.341-1.711-.543-.418-.446.147Z" transform="translate(-2082.074 -292.173)" fill="#96a6b9"/><path d="M2104.491,315.847l.824.786.759-.426-.341-1.711-.543-.418-.446.147Z" transform="translate(-2080.649 -292.878)" fill="#96a6b9"/><path d="M2107.9,319.88l2.108,1.97,1.579-.9-2.039-1.967Z" transform="translate(-2081.283 -293)" fill="#64c1ff"/><path d="M2108.4,320.215l.8.738,1.579-.9-.872-.621Z" transform="translate(-2083.639 -294.364)" fill="#64c1ff"/><path d="M2103.028,318.427l3.471,3.238v-.917l-3.348-3.061Z" transform="translate(-2081.283 -293)" fill="#305ca8" opacity="0.43"/><path d="M2068.44,323.588l.814,3.26,5.76,5.483,4.066-2.4.229-1.941Z" transform="translate(-2035 -295.748)" fill="#9ee2fc"/><path d="M2068.972,321.478a12.972,12.972,0,0,1,3.709,1.048,78.185,78.185,0,0,1,5.975,5.556l-4.633,2.842s-5.825-5.117-6.111-6.787A2.861,2.861,0,0,1,2068.972,321.478Z" transform="translate(-2034.432 -295.875)" fill="#d3b47f"/><path d="M2069.635,322.154l2.907-1.283,1.94,1.709-2.991,1.355Z" transform="translate(-2034.776 -296.086)" fill="#fff"/><path d="M2073.757,329.656l3.844-2.3-.523-1.84-3.092,1.6Z" transform="translate(-2034.004 -295.509)" fill="#d5d5d5"/><path d="M2071.1,323.738l3.157-1.354.056,1.155,1.631,1.418-2.9,2.238-1.944-1.871Z" transform="translate(-2034.502 -295.898)" fill="#ddd"/><path d="M2074.225,327.323l3.051-1.625-1.586-1.324L2072.7,325.9Z" transform="translate(-2034.203 -295.651)" fill="#fff"/><path d="M2068.721,323.743l5.935,6.489.314-2.574-1.465-1.484-.373.373-1.531-1.595v-1.21l-1.8-1.763Z" transform="translate(-2034.947 -295.948)" fill="#f3eded"/><path d="M2070.375,322l1.634-.708,1.489,1.259-1.677.678Z" transform="translate(-2034.661 -296.031)" fill="#64c1ff"/><path d="M2070.375,322l1.634-.708,1.059.773-1.616.792Z" transform="translate(-2032.705 -292.909)" fill="#64c1ff"/><path d="M2063.547,321.52l1.322,1.278v.975l-1.748-1.586Z" transform="translate(-2029 -295)" fill="#305ca8" opacity="0.46"/><path d="M2065.9,324.917l2.987,2.77,3.406-1.938.158.688-3.687,2.228-2.864-2.916Z" transform="translate(-2029 -295)" fill="#305ca8" opacity="0.47"/><path d="M2105.822,315l-.463-.388-.6.248-.547,1.159.914.792.693-.33Z" transform="translate(-2064.918 -285.691)" fill="#96a6b9"/><path d="M2105.822,315l-.463-.388-.6.248-.547,1.159.914.792.693-.33Z" transform="translate(-2063.579 -286.297)" fill="#96a6b9"/><path d="M2116.494,303.419l-4.584-7.2,6.02,4.118-1.436,1.049Z" transform="translate(-2096 -276)" fill="#fff" opacity="0.19"/><path d="M2136.9,311.909l7.889,4.971-5.491-6.147Z" transform="translate(-2096 -276)" fill="#fff" opacity="0.23"/></g></svg>