<svg xmlns="http://www.w3.org/2000/svg" xmlns:xlink="http://www.w3.org/1999/xlink" width="26" height="26" viewBox="0 0 26 26"><defs><clipPath id="b"><rect width="26" height="26"/></clipPath></defs><g id="a"><g transform="translate(16.134 7.332) rotate(17)"><path d="M27.488.9s-1.173-2.411,0-4.118A7.03,7.03,0,0,1,30.31-5.228a8.509,8.509,0,0,0,2.044-1.695S33-2.453,31.823-.746,27.488.9,27.488.9Z" transform="translate(-26.967 6.923)" fill="#94c900"/></g><g transform="translate(13.19 11.288) rotate(163)"><path d="M.638-.012S-.846,3.229.53,5.468A8.1,8.1,0,0,0,3.9,8.068a9.994,9.994,0,0,1,2.432,2.2s.894-5.965-.482-8.2S.638-.012.638-.012Z" transform="translate(0 0)" fill="#a3db06"/></g><path d="M389.734-568.2a12,12,0,0,1,1.343-3.138,15.222,15.222,0,0,1,2.4-2.776,15.55,15.55,0,0,0-1.992,2.928,11.789,11.789,0,0,0-.97,3.107Z" transform="translate(-525.457 444.885) rotate(17)" fill="#815d38"/><path d="M3.234-7.836S1.753-7.658.647-4.751c-1.07,2.811.832,6.96,1.362,7.871a11.206,11.206,0,0,0,3.6,3.126A17.855,17.855,0,0,1,2.3,2.155a7,7,0,0,1-.386-5.688A5.846,5.846,0,0,1,6.051-6.974Z" transform="translate(13.33 10.84) rotate(163)" fill="#a8825b"/><path d="M130.165-600.775a19.633,19.633,0,0,0,4.906.755,17.318,17.318,0,0,0,4.717-.755s-1.576-3.151-4.717-2.962A6.845,6.845,0,0,0,130.165-600.775Z" transform="translate(-122.778 621)" fill="#94c900"/></g></svg>