<svg xmlns="http://www.w3.org/2000/svg" xmlns:xlink="http://www.w3.org/1999/xlink" width="26" height="26" viewBox="0 0 26 26"><defs><clipPath id="b"><rect width="26" height="26"/></clipPath></defs><g id="a"><g transform="translate(4 5.889)"><path d="M0,2.744s.154-8.57,7.92-8.351,7.648,8.351,7.648,8.351" transform="translate(0.974 5.611)" fill="none" stroke="#776432" stroke-width="2"/><rect width="3" height="8" rx="1.5" transform="translate(4 5.111)" fill="#4b3232"/><rect width="3" height="8" rx="1.5" transform="translate(11 5.111)" fill="#4b3232"/><path d="M3,0H4A1,1,0,0,1,5,1V7A1,1,0,0,1,4,8H3A3,3,0,0,1,0,5V3A3,3,0,0,1,3,0Z" transform="translate(0 5.111)" fill="#ffcc67"/><path d="M1,0H2A3,3,0,0,1,5,3V5A3,3,0,0,1,2,8H1A1,1,0,0,1,0,7V1A1,1,0,0,1,1,0Z" transform="translate(13 5.111)" fill="#ffcc67"/></g></g></svg>