<svg xmlns="http://www.w3.org/2000/svg" xmlns:xlink="http://www.w3.org/1999/xlink" width="26" height="26" viewBox="0 0 26 26">
  <defs>
    <clipPath id="clip-NoisePollution">
      <rect width="26" height="26"/>
    </clipPath>
  </defs>
  <g id="NoisePollution" clip-path="url(#clip-NoisePollution)">
    <g id="Group_2736" data-name="Group 2736" transform="translate(1.661 1.253)">
      <path id="Path_3708" data-name="Path 3708" d="M4.256,0A4.627,4.627,0,0,0,0,4.579,4.627,4.627,0,0,0,4.256,9.159c2.064,0,3.737-2.05,3.737-4.579S6.32,0,4.256,0Z" transform="translate(2.222 7.711)" fill="#ffcc67"/>
      <path id="Path_3705" data-name="Path 3705" d="M3.663,0C5.686,0,7.834,2.31,7.834,5.16s-2.148,5.16-4.171,5.16S0,8.01,0,5.16,1.64,0,3.663,0Z" transform="translate(11.339 10.426)" fill="#6a5656"/>
      <path id="Path_3707" data-name="Path 3707" d="M3.737,0C5.8,0,7.2,2.255,7.2,5.037s-1.4,5.037-3.459,5.037S0,7.82,0,5.037,1.673,0,3.737,0Z" transform="translate(4.091 7.711)" fill="#6a5656"/>
      <path id="Path_3706" data-name="Path 3706" d="M3.663,0C5.686,0,7.834,2.1,7.834,4.691S5.686,9.382,3.663,9.382,0,7.282,0,4.691,1.64,0,3.663,0Z" transform="translate(13.171 10.895)" fill="#ffcc67"/>
      <path id="Path_3709" data-name="Path 3709" d="M264.747-519.941s1.242-7.949,8.668-6,6.65,8.419,6.65,8.419.5,4.056.187,4.681a3.007,3.007,0,0,1-2.156,1.181c-.384-.129-.394-4.526-.394-4.526s-.215-5.985-5.192-7.945-5.627,2.921-5.627,2.921a3.026,3.026,0,0,0-1.239.52A4.9,4.9,0,0,0,264.747-519.941Z" transform="translate(-261.121 529)" fill="#776432"/>
    </g>
  </g>
</svg>
