<svg version="1.1" viewBox="0 0 64 64" xmlns="http://www.w3.org/2000/svg">
  <path d="m17.615 30.448 9.4584 7.0554 18.641-10.683-8.7615-6.781-19.338 10.409" fill="#c1ff67" />
  <path d="m45.71 26.73v6.9038l-18.471 10.775v-7.2861l18.471-10.393" fill="#72ab5e" />
  <path d="m27.242 44.408-8.7695-7.3275-0.12056-6.4859 8.8901 6.4859v7.3275" fill="#9adf4b" />
  <ellipse cx="32.574" cy="27.981" rx="6.3148" ry="2.8704" fill="#458100" />
  <path d="m17.302 14.695 35.37 28.272s-4.8741 6.3306-4.8741 6.3306l-36.801-29.452 6.3055-5.1504" fill="#f53516" />
  <path
    d="m32 63c-4.1453 0.0080923-8.2496-0.82058-12.067-2.4364-3.6834-1.5559-7.0298-3.812-9.8534-6.6432-2.8311-2.8236-5.0873-6.17-6.6432-9.8534-1.6157-3.8175-2.4444-7.9217-2.4364-12.067-0.0079663-4.1453 0.8207-8.2495 2.4364-12.067 1.5559-3.6834 3.812-7.0298 6.6432-9.8534 2.8236-2.8311 6.17-5.0873 9.8534-6.6432 3.8175-1.6157 7.9217-2.4444 12.067-2.4364 4.1449-0.0078748 8.2488 0.82079 12.066 2.4364 3.6834 1.5559 7.0297 3.812 9.8534 6.6432 2.8311 2.8237 5.0872 6.17 6.6432 9.8534 1.6161 3.8174 2.4452 7.9216 2.4375 12.067 0.0079062 4.1449-0.82076 8.2488-2.4364 12.066-1.556 3.6834-3.8121 7.0297-6.6432 9.8534-2.8237 2.8311-6.17 5.0872-9.8534 6.6432-3.8173 1.6162-7.9216 2.4453-12.067 2.4375m0-52.366c-11.952 0.17446-21.508 9.988-21.365 21.94-0.14305 11.952 9.4132 21.765 21.365 21.94 11.952-0.17384 21.509-9.9875 21.366-21.94 0.14304-11.952-9.4139-21.766-21.366-21.94"
    fill="#f53516" />
</svg>