<svg xmlns="http://www.w3.org/2000/svg" xmlns:xlink="http://www.w3.org/1999/xlink" width="64" height="64" viewBox="0 0 64 64">
  <defs>
    <clipPath id="clip-OnelaneOnewayPerpendicularParkingRoad">
      <rect width="64" height="64"/>
    </clipPath>
  </defs>
  <g id="OnelaneOnewayPerpendicularParkingRoad" clip-path="url(#clip-OnelaneOnewayPerpendicularParkingRoad)">
    <path id="Path_2053" data-name="Path 2053" d="M1192-423.5l-6.59-8.59s-4.616,2.209-4.367,2.646,8.131,10.088,8.131,10.088Z" transform="translate(-1071.633 609.44) rotate(-7)" fill="#706428"/>
    <path id="Path_2201" data-name="Path 2201" d="M1192-423.5l-6.59-8.59s-4.616,2.209-4.367,2.646,8.131,10.088,8.131,10.088Z" transform="translate(-1076.633 613.44) rotate(-7)" fill="#b47300"/>
    <path id="Path_2205" data-name="Path 2205" d="M1192-423.5l-6.59-8.59s-4.616,2.209-4.367,2.646,8.131,10.088,8.131,10.088Z" transform="translate(-1082.633 616.44) rotate(-7)" fill="#61a2d3"/>
    <path id="Path_2054" data-name="Path 2054" d="M1193.068-423.414l-6.83-8.592s-2.307.506-2.058.943,7.528,8.878,7.528,8.878Z" transform="translate(-1072.472 610.521) rotate(-7)" fill="#9a8a39"/>
    <path id="Path_2202" data-name="Path 2202" d="M1193.068-423.414l-6.83-8.592s-2.307.506-2.058.943,7.528,8.878,7.528,8.878Z" transform="translate(-1077.472 613.521) rotate(-7)" fill="#e39c03"/>
    <path id="Path_2206" data-name="Path 2206" d="M1193.068-423.414l-6.83-8.592s-2.307.506-2.058.943,7.528,8.878,7.528,8.878Z" transform="translate(-1083.472 616.521) rotate(-7)" fill="#7ac6ff"/>
    <path id="Path_2055" data-name="Path 2055" d="M1185.44-423.674a4.27,4.27,0,0,1,2.516-2.358c1.767-.486,2.245,0,2.245,0L1188.186-428l-5.493,1.624Z" transform="translate(-1131.99 468.025)" fill="rgba(59,59,59,0.61)"/>
    <path id="Path_2203" data-name="Path 2203" d="M1185.44-423.674a4.27,4.27,0,0,1,2.516-2.358c1.767-.486,2.245,0,2.245,0L1188.186-428l-5.493,1.624Z" transform="translate(-1136.99 472.025)" fill="rgba(59,59,59,0.61)"/>
    <path id="Path_2207" data-name="Path 2207" d="M1185.44-423.674a4.27,4.27,0,0,1,2.516-2.358c1.767-.486,2.245,0,2.245,0L1188.186-428l-5.493,1.624Z" transform="translate(-1142.99 475.025)" fill="rgba(59,59,59,0.61)"/>
    <g id="Path_2200" data-name="Path 2200" transform="translate(56.692 43.179) rotate(13)" fill="#4d4324">
      <path d="M 2.563201904296875 4.448550701141357 C 1.581541895866394 4.448550701141357 0.7829018831253052 3.483330726623535 0.7829018831253052 2.296920776367188 C 0.7829018831253052 1.11051082611084 1.581541895866394 0.1452907770872116 2.563201904296875 0.1452907770872116 C 3.544861793518066 0.1452907770872116 4.343502044677734 1.11051082611084 4.343502044677734 2.296920776367188 C 4.343502044677734 3.483330726623535 3.544861793518066 4.448550701141357 2.563201904296875 4.448550701141357 Z" stroke="none"/>
      <path d="M 2.563201904296875 0.6452908515930176 C 1.869211912155151 0.6452908515930176 1.282902002334595 1.401640892028809 1.282902002334595 2.296920776367188 C 1.282902002334595 3.192200660705566 1.869211912155151 3.948550701141357 2.563201904296875 3.948550701141357 C 3.257191896438599 3.948550701141357 3.843502044677734 3.192200660705566 3.843502044677734 2.296920776367188 C 3.843502044677734 1.401640892028809 3.257191896438599 0.6452908515930176 2.563201904296875 0.6452908515930176 M 2.563201904296875 -0.3547091484069824 C 3.822581768035889 -0.3547091484069824 4.843502044677734 0.8324708938598633 4.843502044677734 2.296920776367188 C 4.843502044677734 3.761370658874512 3.822581768035889 4.948550701141357 2.563201904296875 4.948550701141357 C 1.303821802139282 4.948550701141357 0.2829017639160156 3.761370658874512 0.2829017639160156 2.296920776367188 C 0.2829017639160156 0.8324708938598633 1.303821802139282 -0.3547091484069824 2.563201904296875 -0.3547091484069824 Z" stroke="none" fill="#755902"/>
    </g>
    <g id="Path_2204" data-name="Path 2204" transform="translate(51.692 47.179) rotate(13)" fill="#748991">
      <path d="M 2.563201904296875 4.448550701141357 C 1.581541895866394 4.448550701141357 0.7829018831253052 3.483330726623535 0.7829018831253052 2.296920776367188 C 0.7829018831253052 1.11051082611084 1.581541895866394 0.1452907770872116 2.563201904296875 0.1452907770872116 C 3.544861793518066 0.1452907770872116 4.343502044677734 1.11051082611084 4.343502044677734 2.296920776367188 C 4.343502044677734 3.483330726623535 3.544861793518066 4.448550701141357 2.563201904296875 4.448550701141357 Z" stroke="none"/>
      <path d="M 2.563201904296875 0.6452908515930176 C 1.869211912155151 0.6452908515930176 1.282902002334595 1.401640892028809 1.282902002334595 2.296920776367188 C 1.282902002334595 3.192200660705566 1.869211912155151 3.948550701141357 2.563201904296875 3.948550701141357 C 3.257191896438599 3.948550701141357 3.843502044677734 3.192200660705566 3.843502044677734 2.296920776367188 C 3.843502044677734 1.401640892028809 3.257191896438599 0.6452908515930176 2.563201904296875 0.6452908515930176 M 2.563201904296875 -0.3547091484069824 C 3.822581768035889 -0.3547091484069824 4.843502044677734 0.8324708938598633 4.843502044677734 2.296920776367188 C 4.843502044677734 3.761370658874512 3.822581768035889 4.948550701141357 2.563201904296875 4.948550701141357 C 1.303821802139282 4.948550701141357 0.2829017639160156 3.761370658874512 0.2829017639160156 2.296920776367188 C 0.2829017639160156 0.8324708938598633 1.303821802139282 -0.3547091484069824 2.563201904296875 -0.3547091484069824 Z" stroke="none" fill="#8d5b03"/>
    </g>
    <g id="Path_2208" data-name="Path 2208" transform="translate(45.692 50.179) rotate(13)" fill="#4a6068">
      <path d="M 2.563201904296875 4.448550701141357 C 1.581541895866394 4.448550701141357 0.7829018831253052 3.483330726623535 0.7829018831253052 2.296920776367188 C 0.7829018831253052 1.11051082611084 1.581541895866394 0.1452907770872116 2.563201904296875 0.1452907770872116 C 3.544861793518066 0.1452907770872116 4.343502044677734 1.11051082611084 4.343502044677734 2.296920776367188 C 4.343502044677734 3.483330726623535 3.544861793518066 4.448550701141357 2.563201904296875 4.448550701141357 Z" stroke="none"/>
      <path d="M 2.563201904296875 0.6452908515930176 C 1.869211912155151 0.6452908515930176 1.282902002334595 1.401640892028809 1.282902002334595 2.296920776367188 C 1.282902002334595 3.192200660705566 1.869211912155151 3.948550701141357 2.563201904296875 3.948550701141357 C 3.257191896438599 3.948550701141357 3.843502044677734 3.192200660705566 3.843502044677734 2.296920776367188 C 3.843502044677734 1.401640892028809 3.257191896438599 0.6452908515930176 2.563201904296875 0.6452908515930176 M 2.563201904296875 -0.3547091484069824 C 3.822581768035889 -0.3547091484069824 4.843502044677734 0.8324708938598633 4.843502044677734 2.296920776367188 C 4.843502044677734 3.761370658874512 3.822581768035889 4.948550701141357 2.563201904296875 4.948550701141357 C 1.303821802139282 4.948550701141357 0.2829017639160156 3.761370658874512 0.2829017639160156 2.296920776367188 C 0.2829017639160156 0.8324708938598633 1.303821802139282 -0.3547091484069824 2.563201904296875 -0.3547091484069824 Z" stroke="none" fill="#4e7989"/>
    </g>
    <path id="Path_2191" data-name="Path 2191" d="M1249.1-1108.867l11.313-6.694Z" transform="translate(-1198.926 1150.895)" fill="gray"/>
    <path id="Path_2186" data-name="Path 2186" d="M724.336-297.089l28.526,25.731,34.6-20.887v-2l-29.767-24.114-33.355,19.506Z" transform="translate(-724.04 329.13)" fill="#434343"/>
    <path id="Path_2192" data-name="Path 2192" d="M1227.192-1130.793l29.871,25.1,14.647-8.788-30.026-24.533Z" transform="translate(-1221.925 1158.086)" fill="#929191"/>
    <path id="Path_2193" data-name="Path 2193" d="M1265.17-1111.013l-30.016-25.114Z" transform="translate(-1202.995 1146.886)" fill="#929191"/>
    <path id="Path_3868" data-name="Path 3868" d="M1537.489-1052.917l-6.9,4.049-28.417-26.095,5.457-3.148,6.388,5.389Z" transform="translate(-1502 1105)" fill="#716e6e"/>
    <path id="Path_4151" data-name="Path 4151" d="M1543.3-1057.791l-13.22,8.335-27.911-25.506,11.4-7.388Z" transform="translate(-1482.237 1094.143)" fill="#716e6e"/>
    <path id="Path_4148" data-name="Path 4148" d="M1502.129-1076.981l11.912-7.221.8.611-11.959,7.39Z" transform="translate(-1476.833 1101.297)" fill="#bababa"/>
    <path id="Path_4152" data-name="Path 4152" d="M1502.874-1076.3l11.912-7.221.8.611-11.959,7.39Z" transform="translate(-1470.129 1107.092)" fill="#bababa"/>
    <path id="Path_4153" data-name="Path 4153" d="M1501.479-1076.558l12.563-7.644.8.611-12.609,7.813Z" transform="translate(-1461.633 1113.721)" fill="#bababa"/>
    <path id="Path_3891" data-name="Path 3891" d="M1499-1079.791l28.7,26.07,3.76-2.486-29.045-25.851Z" transform="translate(-1499 1110)" fill="#929191"/>
    <path id="Path_3892" data-name="Path 3892" d="M1560.05-1073.479l2.549-1.575-30-24.549-2.479,1.422Z" transform="translate(-1499 1110)" fill="#929191"/>
    <path id="Path_3897" data-name="Path 3897" d="M15735.836,2434.139l.937,6.54,1.877-1.049,6.6,6.079,3.01-1.765-6.471-5.883,2.157-1.245Z" transform="translate(-15716.258 -2404.62)" fill="#fff"/>
  </g>
</svg>
