<svg xmlns="http://www.w3.org/2000/svg" xmlns:xlink="http://www.w3.org/1999/xlink" width="38" height="38" viewBox="0 0 38 38"><defs><clipPath id="b"><rect width="38" height="38"/></clipPath></defs><g id="a" clip-path="url(#b)"><rect width="38" height="38" rx="6" fill="rgba(78,86,90,0.18)"/><g transform="translate(7 7)" fill="none"><path d="M12.5,0A12.5,12.5,0,1,1,0,12.5,12.5,12.5,0,0,1,12.5,0Z" stroke="none"/><path d="M 12.5 3 C 7.261680603027344 3 3 7.261680603027344 3 12.5 C 3 17.73831939697266 7.261680603027344 22 12.5 22 C 17.73831939697266 22 22 17.73831939697266 22 12.5 C 22 7.261680603027344 17.73831939697266 3 12.5 3 M 12.5 0 C 19.40356063842773 0 25 5.596439361572266 25 12.5 C 25 19.40356063842773 19.40356063842773 25 12.5 25 C 5.596439361572266 25 0 19.40356063842773 0 12.5 C 0 5.596439361572266 5.596439361572266 0 12.5 0 Z" stroke="none" fill="#fff"/></g><circle cx="4.5" cy="4.5" r="4.5" transform="translate(15 15)" fill="#fff"/><circle cx="3.5" cy="3.5" r="3.5" transform="translate(23 8)" fill="#fff"/></g></svg>