<svg xmlns="http://www.w3.org/2000/svg" xmlns:xlink="http://www.w3.org/1999/xlink" width="40" height="40" viewBox="0 0 40 40">
  <defs>
    <clipPath id="clip-ParksAndRecreation">
      <rect width="40" height="40"/>
    </clipPath>
  </defs>
  <g id="ParksAndRecreation" clip-path="url(#clip-ParksAndRecreation)">
    <path id="Path_4180" data-name="Path 4180" d="M-304.806,204.5V182.789h2.861V204.5a4.109,4.109,0,0,1-1.42.305A4.3,4.3,0,0,1-304.806,204.5Z" transform="translate(334.838 -170.553)" fill="#9eb8b9"/>
    <g id="Group_2887" data-name="Group 2887" transform="translate(-1689.947 594.519)">
      <circle id="Ellipse_542" data-name="Ellipse 542" cx="2.901" cy="2.901" r="2.901" transform="translate(1702.866 -570.451)" fill="#54b60b"/>
      <ellipse id="Ellipse_537" data-name="Ellipse 537" cx="7.072" cy="5.078" rx="7.072" ry="5.078" transform="translate(1694.524 -570.814)" fill="#54b60b"/>
      <ellipse id="Ellipse_540" data-name="Ellipse 540" cx="4.352" cy="4.534" rx="4.352" ry="4.534" transform="translate(1694.524 -572.264)" fill="#54b60b"/>
      <path id="Path_1530" data-name="Path 1530" d="M4.9,0a4.648,4.648,0,0,1,4.9,4.352c0,2.4-2.192,4.133-4.9,4.133S0,6.756,0,4.352A4.648,4.648,0,0,1,4.9,0Z" transform="translate(1696.7 -571.902)" fill="#79dd2c"/>
      <ellipse id="Ellipse_539" data-name="Ellipse 539" cx="4.352" cy="3.99" rx="4.352" ry="3.99" transform="translate(1694.524 -572.264)" fill="#79dd2c"/>
      <ellipse id="Ellipse_541" data-name="Ellipse 541" cx="5.44" cy="4.21" rx="5.44" ry="4.21" transform="translate(1696.337 -574.519)" fill="#79dd2c"/>
      <ellipse id="Ellipse_538" data-name="Ellipse 538" cx="2.901" cy="2.176" rx="2.901" ry="2.176" transform="translate(1702.14 -570.814)" fill="#79dd2c"/>
    </g>
    <g id="Group_2884" data-name="Group 2884" transform="translate(-2.309 -4.517)">
      <path id="Path_2693" data-name="Path 2693" d="M2.207-.075,14.776-.3a1.829,1.829,0,0,1,1.8,1.945,1.991,1.991,0,0,1-1.862,2.012l-12.568.23c-1.01.018-1.013-1.149-.995-2.242S1.2-.056,2.207-.075Z" transform="translate(26.766 40.371) rotate(-90)" fill="#877159"/>
      <path id="Path_4183" data-name="Path 4183" d="M2.207-.075,14.776-.3a1.829,1.829,0,0,1,1.8,1.945,1.991,1.991,0,0,1-1.862,2.012l-12.568.23c-1.01.018-1.013-1.149-.995-2.242S1.2-.056,2.207-.075Z" transform="translate(14.766 40.371) rotate(-90)" fill="#877159"/>
      <rect id="Rectangle_4018" data-name="Rectangle 4018" width="20.977" height="6.365" rx="2" transform="translate(11.783 21.35)" fill="#cc995e"/>
      <rect id="Rectangle_4019" data-name="Rectangle 4019" width="23.728" height="3.6" rx="1.8" transform="translate(10.408 30.54)" fill="#cc995e"/>
    </g>
    <path id="Path_4182" data-name="Path 4182" d="M-304.806,185.646v-2.856h7.982v2.856s-1.967.04-3.962.04S-304.806,185.646-304.806,185.646Z" transform="translate(332.248 -176.227)" fill="#9eb8b9"/>
    <path id="Path_4181" data-name="Path 4181" d="M-305.183,182.686h6.513v5.555h-6.513" transform="translate(333.359 -173.227)" fill="#f1edb4"/>
  </g>
</svg>
