<svg xmlns="http://www.w3.org/2000/svg" xmlns:xlink="http://www.w3.org/1999/xlink" width="64" height="64" viewBox="0 0 64 64"><defs><clipPath id="b"><rect width="64" height="64"/></clipPath></defs><g id="a"><ellipse cx="10" cy="3" rx="10" ry="3" transform="translate(10.991 51.028)" fill="#2f2f2f"/><path d="M10.085-.3c5.556,0,9.9,1.264,9.9,2.654s-4.348,2.878-9.9,2.878S-.036,3.744-.036,2.355,4.529-.3,10.085-.3Z" transform="translate(32.814 51.875)" fill="#2f2f2f"/><path d="M0,0H6.224V11.084a6.418,6.418,0,0,1-3.14,1.126A6.108,6.108,0,0,1,0,11.084Z" transform="translate(17.747 42.183)" fill="#b28e5e"/><path d="M15.091,0l9.747,16.449L30.183,21.8s-7.546,3.328-15.091,3.328S0,21.8,0,21.8s.818.1,4.591-5.349S15.091,0,15.091,0Z" transform="translate(6.009 22.41)" fill="#367c01"/><path d="M13.368,0s4.246,6.864,7.588,11.047a26.216,26.216,0,0,0,5.78,5.686,43.073,43.073,0,0,1-13.368,2.555A43.073,43.073,0,0,1,0,16.733a32.275,32.275,0,0,0,5.438-5.686C8.78,6.864,13.368,0,13.368,0Z" transform="translate(7.78 18.262)" fill="#54b60b"/><path d="M8.551,0a51.692,51.692,0,0,0,3.472,9.475A32.2,32.2,0,0,0,17.1,16.588a19.529,19.529,0,0,1-8.551,2.533A19.529,19.529,0,0,1,0,16.588,35.536,35.536,0,0,0,4.892,9.475,60.8,60.8,0,0,0,8.551,0Z" transform="translate(12.81 6.892)" fill="#83e637"/><path d="M30.089,32.9V38.41a4.46,4.46,0,0,0,3.073.82c2.253,0,3.023-.82,3.023-.82V32.9a47.411,47.411,0,0,0,6.478-.77,19.333,19.333,0,0,0,5.313-1.961l.157-3.3L18,26.945v2.846a20.324,20.324,0,0,0,5.571,2.336A36.1,36.1,0,0,0,30.089,32.9Z" transform="translate(9.806 15.095)" fill="#b28e5e"/><ellipse cx="15" cy="3.5" rx="15" ry="3.5" transform="translate(27.991 39.028)" fill="#e0b98c"/><path d="M38.344,9.206c-.161-.652-1.266-1.246-1.739-.771l-5.346,5.371-4.88-.817-.813-4.9,5.346-5.371c.476-.478.654-3.18,0-3.344C27.505-1.476,23.348,1.325,20.686,4c-2.85,2.863-2.9,7.967-1.718,11.586L-.01,31.119c-1.8,1.8-1.437,6.28.359,8.085a4.586,4.586,0,0,0,6.506,0L23.909,20.071c3.6,1.207,8.548,1.52,11.417-1.362,2.665-2.678,3.866-6.079,3.018-9.5Z" transform="translate(15.805 10.471)" fill="#475766"/><path d="M38.016,7.927a.861.861,0,0,0-1.449-.4l-5.356,5.4-4.889-.822-.815-4.932,5.356-5.4A.876.876,0,0,0,30.455.308a10.306,10.306,0,0,0-9.838,2.756c-2.855,2.88-2.909,8.014-1.721,11.654L.243,31.9a4.678,4.678,0,0,0,0,6.575,4.581,4.581,0,0,0,6.519,0L23.847,19.231c3.61,1.214,8.564,1.528,11.438-1.37a10.52,10.52,0,0,0,2.731-9.934Z" transform="translate(15.937 9.271)" fill="#d7e3f0"/></g></svg>