<svg xmlns="http://www.w3.org/2000/svg" xmlns:xlink="http://www.w3.org/1999/xlink" width="64" height="64" viewBox="0 0 64 64"><defs><clipPath id="b"><rect width="64" height="64"/></clipPath></defs><g id="a"><path d="M7.966,8.037,38.361-.069a8.121,8.121,0,0,1,8.175,7.7L49,40.477a7.548,7.548,0,0,1-7.915,7.486L9.819,55.215a8.121,8.121,0,0,1-8.175-7.7L-.034,17.288C-.106,13.1,3.523,7.979,7.966,8.037Z" transform="translate(31.373 -4.475) rotate(40)" fill="#3c9442"/><path d="M6.922,6.895,33.349-.069a7.024,7.024,0,0,1,7.108,6.613l2.138,28.221A6.528,6.528,0,0,1,35.713,41.2L8.532,47.425a7.024,7.024,0,0,1-7.108-6.613L-.035,14.843C-.1,11.241,3.059,6.845,6.922,6.895Z" transform="translate(30.93 0.569) rotate(40)" fill="#2c2e2e"/><ellipse cx="4" cy="4.5" rx="4" ry="4.5" transform="translate(36.187 4.832) rotate(41)" fill="#3c9442"/><ellipse cx="4" cy="4.5" rx="4" ry="4.5" transform="translate(28.187 47.832) rotate(41)" fill="#3c9442"/><path d="M1038.864,244,1036,248.7h4.334l1.468-4.7Z" transform="translate(-1013 -201.648)" fill="#77838d"/><path d="M1038.934,244l2.866,4.7h-4.334L1036,244Z" transform="translate(-1000 -201.648)" fill="#77838d"/><path d="M3,0H14a3,3,0,0,1,3,3V17c0,1.657-3,3-3,3a19.834,19.834,0,0,1-5.359.842A23.387,23.387,0,0,1,3,20s-3-1.343-3-3V3A3,3,0,0,1,3,0Z" transform="translate(24 23)" fill="#c09900"/><path d="M2,0H13c1.1,0,2,1.279,2,2.856V5.712c0,1.577-.92,2.05-2,2.856,0,0-2.62,2.324-5.37,2.324S2,8.568,2,8.568C.713,7.615,0,7.29,0,5.712V2.856C0,1.279.9,0,2,0Z" transform="translate(25 27)" fill="#1f587f"/><rect width="7" transform="translate(30 27)" fill="#f3e195"/><rect width="7" height="5" rx="2" transform="translate(29 22)" fill="#c09900"/><circle cx="1.5" cy="1.5" r="1.5" transform="translate(31 23)" fill="#fff"/><rect width="4" height="2" rx="1" transform="translate(34.783 38.706) rotate(-19)" fill="#fff"/><rect width="4" height="2" rx="1" transform="translate(26.38 37.459) rotate(17)" fill="#fff"/></g></svg>