<svg xmlns="http://www.w3.org/2000/svg" xmlns:xlink="http://www.w3.org/1999/xlink" width="64" height="64" viewBox="0 0 64 64"><defs><clipPath id="b"><rect width="64" height="64"/></clipPath></defs><g id="a"><path d="M7.966,8.037,38.361-.069a8.121,8.121,0,0,1,8.175,7.7L49,40.477a7.548,7.548,0,0,1-7.915,7.486L9.819,55.215a8.121,8.121,0,0,1-8.175-7.7L-.034,17.288C-.106,13.1,3.523,7.979,7.966,8.037Z" transform="translate(31.373 -4.475) rotate(40)" fill="#4255ff"/><path d="M6.922,6.895,33.349-.069a7.024,7.024,0,0,1,7.108,6.613l2.138,28.221A6.528,6.528,0,0,1,35.713,41.2L8.532,47.425a7.024,7.024,0,0,1-7.108-6.613L-.035,14.843C-.1,11.241,3.059,6.845,6.922,6.895Z" transform="translate(30.93 0.569) rotate(40)" fill="#2c2e2e"/><ellipse cx="4" cy="4.5" rx="4" ry="4.5" transform="translate(36.187 4.832) rotate(41)" fill="#4255ff"/><ellipse cx="4" cy="4.5" rx="4" ry="4.5" transform="translate(28.187 47.832) rotate(41)" fill="#4255ff"/><path d="M0,0H12.025V4H0Z" transform="translate(26 24)" fill="#92d7ec"/><rect width="14" height="6" transform="translate(25 27)" fill="#c9ebf5"/><path d="M0,6.731,8.946,4.08V17.266l-5.84-.68A7.561,7.561,0,0,1,.638,14.147,58.864,58.864,0,0,1,0,6.731Z" transform="translate(23 26.577)" fill="#badfed"/><path d="M0,6.731,8.946,4.08V15.332l-5.84-.68s-1.8.843-2.467-.5A58.864,58.864,0,0,1,0,6.731Z" transform="translate(23 28.577)" fill="#87a5b1"/><path d="M12.586,6.745,3.641,4.094V17.28l5.84-.68a7.561,7.561,0,0,0,2.467-2.439A58.864,58.864,0,0,0,12.586,6.745Z" transform="translate(28.304 26.576)" fill="#80acbc"/><path d="M12.586,6.745,3.641,4.094,3.793,15.28l5.84-.68a7.558,7.558,0,0,0,2.347-2.421A38.641,38.641,0,0,0,12.586,6.745Z" transform="translate(28.304 28.576)" fill="#52717d"/><path d="M.6,0H3V3H.6Z" transform="translate(30 21)" fill="#58a1bd"/><rect width="14" height="1" transform="translate(25 28)" fill="#3f518f"/><rect width="14" height="1" transform="translate(25 30)" fill="#3f518f"/><path d="M0,0H12.025V1H0Z" transform="translate(26 25)" fill="#3f518f"/><path d="M0,0A11.7,11.7,0,0,0,4.529,1.172,10.363,10.363,0,0,0,8.879,0,10.916,10.916,0,0,0,13,1.172,5.979,5.979,0,0,0,16.339,0,12.236,12.236,0,0,0,21.1,1.172,13.359,13.359,0,0,0,26,0V6H0Z" transform="translate(19 38)" fill="#42a0ff"/></g></svg>