<?xml version="1.0" encoding="UTF-8" standalone="no"?>
<!DOCTYPE svg PUBLIC "-//W3C//DTD SVG 1.1//EN" "http://www.w3.org/Graphics/SVG/1.1/DTD/svg11.dtd">
<svg width="100%" height="100%" viewBox="0 0 128 128" version="1.1" xmlns="http://www.w3.org/2000/svg" xmlns:xlink="http://www.w3.org/1999/xlink" xml:space="preserve" xmlns:serif="http://www.serif.com/" style="fill-rule:evenodd;clip-rule:evenodd;stroke-linejoin:round;stroke-miterlimit:2;">
    <g>
        <g transform="matrix(1.05728,0,0,1,-7.33186,0)">
            <path d="M128,22.934C128,10.276 118.28,0 106.309,0L28.626,0C16.654,0 6.935,10.276 6.935,22.934L6.935,105.066C6.935,117.724 16.654,128 28.626,128L106.309,128C118.28,128 128,117.724 128,105.066L128,22.934Z" style="fill:rgb(75,195,241);"/>
        </g>
        <g id="Gear.svg" transform="matrix(3.91667,0,0,3.91667,64,64)">
            <g transform="matrix(1,0,0,1,-16,-16)">
                <path d="M25.598,20.074C26.117,18.853 27.342,18.073 28.668,18.12C28.892,16.789 28.903,15.432 28.701,14.098C28.251,14.104 27.804,14.017 27.389,13.842C26.204,13.341 25.43,12.174 25.43,10.888C25.43,9.997 25.801,9.146 26.453,8.539C25.673,7.441 24.724,6.473 23.64,5.672C23.035,6.3 22.2,6.655 21.328,6.655C19.566,6.655 18.116,5.205 18.116,3.443C18.116,3.405 18.117,3.367 18.118,3.328C16.788,3.104 15.43,3.093 14.096,3.295C14.097,3.315 14.097,3.335 14.097,3.354C14.097,5.114 12.649,6.562 10.889,6.562C10.457,6.562 10.029,6.475 9.631,6.305C9.215,6.131 8.842,5.87 8.536,5.539C7.44,6.326 6.473,7.279 5.669,8.363C6.297,8.968 6.651,9.804 6.651,10.675C6.651,12.438 5.201,13.889 3.438,13.889C3.402,13.889 3.367,13.888 3.331,13.887C3.107,15.218 3.096,16.575 3.298,17.909C3.316,17.909 3.333,17.909 3.351,17.909C5.111,17.909 6.56,19.357 6.56,21.118C6.56,22.006 6.191,22.856 5.542,23.462C6.324,24.562 7.275,25.53 8.359,26.333C8.963,25.708 9.795,25.355 10.664,25.355C12.423,25.355 13.87,26.802 13.87,28.561C13.87,28.598 13.87,28.635 13.869,28.672C15.199,28.896 16.557,28.907 17.891,28.705C17.89,28.691 17.89,28.676 17.89,28.662C17.89,26.9 19.34,25.449 21.103,25.449C21.989,25.449 22.837,25.816 23.444,26.462C24.543,25.68 25.512,24.729 26.315,23.645C25.366,22.717 25.08,21.296 25.598,20.074L25.598,20.074ZM14.021,20.806C12.102,19.992 10.85,18.1 10.85,16.015C10.85,13.16 13.2,10.811 16.055,10.811C18.91,10.811 21.26,13.16 21.26,16.015C21.26,16.714 21.119,17.406 20.846,18.049C20.032,19.968 18.14,21.221 16.056,21.221C15.357,21.221 14.665,21.08 14.021,20.806Z" style="fill:white;fill-rule:nonzero;"/>
            </g>
        </g>
    </g>
</svg>
