<svg xmlns="http://www.w3.org/2000/svg" xmlns:xlink="http://www.w3.org/1999/xlink" width="26" height="26" viewBox="0 0 26 26">
  <defs>
    <clipPath id="clip-Police">
      <rect width="26" height="26"/>
    </clipPath>
  </defs>
  <g id="Police" clip-path="url(#clip-Police)">
    <path id="Path_3623" data-name="Path 3623" d="M188.678-942.871l2.93-2.155,2.3,2.472-2.677,2v8.741l-2.555,2.282Z" transform="translate(-173.061 950.563)" fill="#d89900"/>
    <path id="Path_3622" data-name="Path 3622" d="M179.441-945.72l2.382-1.387s.7,1.2,1.438,1.2,1.781-1.2,1.781-1.2,1.5,2.492,2.915,2.826a5.941,5.941,0,0,0,3.016-.475c.279-.092.631-.241.631-.241l-2.73,2.282L186.5-941.1l-5.356.276Z" transform="translate(-173.061 950.563)" fill="#ffdf92"/>
    <path id="Path_3621" data-name="Path 3621" d="M179.464-942.792v8.417l4.108,6.355,5.232-1.539v-9.125l2.354-1.754-2.354-2.354s-1.462,1.516-2.77.923-2.462-3.293-2.462-3.293-1.019,1.4-2.046,1.4-2.063-2-2.063-2l-1.252,1.548Z" transform="translate(-173.061 950.563)" fill="#ffb80e"/>
    <g id="Police-2" data-name="Police" transform="translate(7.439 9.02)">
      <g id="Group_2377" data-name="Group 2377">
        <path id="Path_2572" data-name="Path 2572" d="M1.154,4.154C1.12,4,1.05,3.66.963,3.242s-.189-.918-.288-1.4L.412.562.3,0,2.605.935Z" transform="translate(2.064 5.669)" fill="#fff"/>
        <path id="Path_2573" data-name="Path 2573" d="M0,3.1c.1-.082.306-.257.565-.473L1.435,1.9l.8-.663.35-.291L3.718,3.679Z" transform="translate(0 3.198)" fill="#fff"/>
        <path id="Path_2574" data-name="Path 2574" d="M.25,0l.763.569,1.169.875,1.072.8.47.352L2.216,4.066Z" transform="translate(0.214 1.692)" fill="#fff"/>
        <path id="Path_2575" data-name="Path 2575" d="M1.574.508c.038.162.117.512.215.946S2,2.4,2.114,2.9l.3,1.324.13.579L0,3.78Z" transform="translate(2.421)" fill="#fff"/>
        <path id="Path_2576" data-name="Path 2576" d="M3.9,1.47c-.1.081-.313.255-.579.47l-.886.715-.81.653-.354.285L.174.941Z" transform="translate(3.554 3.043)" fill="#fff"/>
        <path id="Path_2577" data-name="Path 2577" d="M3.593,4.65l-.772-.567L1.642,3.212l-1.079-.8L.091,2.066,1.641.558Z" transform="translate(3.121 4.674)" fill="#fff"/>
      </g>
      <path id="Ellipse_656" data-name="Ellipse 656" d="M1.218.419a1.387,1.387,0,0,1,.4.25,1.689,1.689,0,0,1,.312.371,1.674,1.674,0,0,1,.194.442,1.351,1.351,0,0,1,.047.464.952.952,0,0,1-.117.4A.719.719,0,0,1,1.8,2.6a.731.731,0,0,1-.35.1.985.985,0,0,1-.412-.077,1.388,1.388,0,0,1-.4-.25,1.706,1.706,0,0,1-.5-.811,1.352,1.352,0,0,1-.047-.463.953.953,0,0,1,.116-.4A.719.719,0,0,1,.456.447a.73.73,0,0,1,.35-.1A.983.983,0,0,1,1.218.419Z" transform="translate(2.467 3.816)" fill="#945b22"/>
    </g>
  </g>
</svg>
