<svg xmlns="http://www.w3.org/2000/svg" xmlns:xlink="http://www.w3.org/1999/xlink" width="64" height="64" viewBox="0 0 64 64"><defs><clipPath id="b"><rect width="64" height="64"/></clipPath></defs><g id="a"><rect width="38" height="54" rx="5" transform="translate(13 4)" fill="#4f8198"/><path d="M-17.478-687.544s-6.8-3.411-8.043-6.825.483-8.387,0-9.852-1.391-1.474-1.391-1.474l2.265-2.128a3.833,3.833,0,0,0,3.219,1.42c1.87-.286,4.257-2.566,4.257-2.566s2.287,2.28,4.04,2.566a3.406,3.406,0,0,0,2.971-1.42l2.211,2.128A2.514,2.514,0,0,0-9.4-704.221c-.537,1.222,1.319,6.915,0,9.852S-17.478-687.544-17.478-687.544Z" transform="translate(49.978 730.775)" fill="#e3a63e"/><g transform="translate(27.443 25.849)"><path d="M13.524,18.18c-.266-.75-1.724-4.98-1.724-4.98h3.431Z" transform="translate(-8.462 -5.628)" fill="#fff"/><path d="M9,15.609c.521-.634,3.485-4.18,3.485-4.18l1.951,2.97Z" transform="translate(-9 -5.968)" fill="#fff"/><path d="M9.125,9.684c.8.23,5.3,1.563,5.3,1.563l-1.995,2.708Z" transform="translate(-8.976 -6.304)" fill="#fff"/><path d="M13.573,6.849c.291.764,1.891,5.074,1.891,5.074H11.692Z" transform="translate(-8.482 -6.849)" fill="#fff"/><path d="M18.69,9.692c-.525.628-3.51,4.14-3.51,4.14l-1.892-2.875Z" transform="translate(-8.175 -6.302)" fill="#fff"/><path d="M18.271,15.962c-.806-.223-5.334-1.518-5.334-1.518l2.051-2.784Z" transform="translate(-8.243 -5.924)" fill="#fff"/><ellipse cx="1.544" cy="1.489" rx="1.544" ry="1.489" transform="translate(3.538 5.003)" fill="#945b22"/></g></g></svg>