<svg xmlns="http://www.w3.org/2000/svg" xmlns:xlink="http://www.w3.org/1999/xlink" width="40" height="40" viewBox="0 0 40 40"><defs><clipPath id="b"><rect width="40" height="40"/></clipPath></defs><g id="a"><g transform="translate(0 0.18)"><path d="M40,7.8a8,8,0,0,0-8-8H8a8,8,0,0,0-8,8v24a8,8,0,0,0,8,8H32a8,8,0,0,0,8-8Z" fill="#6aff4e" fill-rule="evenodd"/><g transform="translate(2.152 2.145)"><path d="M116.425,86.57a6.423,6.423,0,0,0-6.42-6.42H87.179a6.424,6.424,0,0,0-6.42,6.42v22.887a6.423,6.423,0,0,0,6.42,6.42h22.826a6.423,6.423,0,0,0,6.42-6.42Z" transform="translate(-80.66 -80.39)" fill="#274100" fill-rule="evenodd"/></g></g><g transform="translate(8 6)"><rect width="16" height="2" transform="translate(5 10)" fill="#decfb4"/><rect width="16" height="3" transform="translate(5 17)" fill="#decfb4"/><rect width="14" height="5" transform="translate(6 12)" fill="#786d5a"/><path d="M4,0H6a4,4,0,0,1,4,4V5a0,0,0,0,1,0,0H0A0,0,0,0,1,0,5V4A4,4,0,0,1,4,0Z" transform="translate(8 5)" fill="#3f777e"/><rect width="2" height="5" transform="translate(6 12)" fill="#c5b69b"/><rect width="2" height="5" transform="translate(18 12)" fill="#c5b69b"/><rect width="2" height="5" transform="translate(10 12)" fill="#c5b69b"/><rect width="2" height="5" transform="translate(14 12)" fill="#c5b69b"/><rect width="2" height="3" transform="translate(12 2)" fill="#decfb4"/></g><path d="M0-.686H10V5c0,2.761-3.7,5.948-5.074,5.948S0,7.761,0,5Z" transform="translate(7 22)" fill="#e9ffd1"/><path d="M2.5,7.841l2.431,2.578L9.1,6" transform="translate(6 19.081)" fill="none" stroke="#376306" stroke-linecap="round" stroke-linejoin="round" stroke-width="2"/></g></svg>