<svg xmlns="http://www.w3.org/2000/svg" xmlns:xlink="http://www.w3.org/1999/xlink" width="64" height="64" viewBox="0 0 64 64">
  <defs>
    <clipPath id="clip-PropsDecals">
      <rect width="64" height="64"/>
    </clipPath>
  </defs>
  <g id="PropsDecals" clip-path="url(#clip-PropsDecals)">
    <path id="Path_3576" data-name="Path 3576" d="M37.583,11.7a41.384,41.384,0,0,1,3.646,3.013,24.6,24.6,0,0,1,2.7,2.934,14.477,14.477,0,0,1,1.747,2.858,9.266,9.266,0,0,1,.787,2.784,8.076,8.076,0,0,1-.14,2.676A8.489,8.489,0,0,1,45.286,28.5a11.9,11.9,0,0,1-1.942,2.391,19.318,19.318,0,0,1-2.863,2.247L33.1,37.967,0,12.856,8.406,7.9a21.615,21.615,0,0,1,2.116-1.1A20.905,20.905,0,0,1,14.991,5.37a21.981,21.981,0,0,1,2.356-.341,22.483,22.483,0,0,1,2.417-.087,23.851,23.851,0,0,1,2.458.172q1.239.15,2.5.43t2.547.688q1.285.409,2.571.954t2.574,1.228q1.288.683,2.579,1.5T37.583,11.7Zm-5.4,3.6q-1.348-1.006-2.634-1.806a27.7,27.7,0,0,0-2.509-1.4,20.237,20.237,0,0,0-2.388-.988,15.115,15.115,0,0,0-2.271-.582,13.286,13.286,0,0,0-2.163-.2,11.484,11.484,0,0,0-2.063.17,10.924,10.924,0,0,0-1.967.538,11.549,11.549,0,0,0-1.873.909l-3,1.8,21.454,16.18,2.368-1.52a7.92,7.92,0,0,0,2.778-2.733,4.256,4.256,0,0,0,.413-3.1,8.505,8.505,0,0,0-1.919-3.459A25.48,25.48,0,0,0,32.186,15.3Z" transform="translate(8.129 11.198)" fill="#fff"/>
  </g>
</svg>
