<svg xmlns="http://www.w3.org/2000/svg" xmlns:xlink="http://www.w3.org/1999/xlink" width="64" height="64" viewBox="0 0 64 64">
  <defs>
    <linearGradient id="linear-gradient" x1="1" y1="0.5" x2="0" y2="0.5" gradientUnits="objectBoundingBox">
      <stop offset="0" stop-color="#c1bebe"/>
      <stop offset="1" stop-color="#dcdbdb"/>
    </linearGradient>
    <clipPath id="clip-PropsPlants">
      <rect width="64" height="64"/>
    </clipPath>
  </defs>
  <g id="PropsPlants" clip-path="url(#clip-PropsPlants)">
    <path id="Path_3566" data-name="Path 3566" d="M920.653-976.538a42.333,42.333,0,0,0,14.7-3.1l2.711-13.942H901.928l3.35,13.942S913.135-976.538,920.653-976.538Z" transform="translate(-887.995 1032.445)" fill="url(#linear-gradient)"/>
    <ellipse id="Ellipse_890" data-name="Ellipse 890" cx="18" cy="4.5" rx="18" ry="4.5" transform="translate(14.005 34.445)" fill="#ececec"/>
    <g id="InfoIconNaturalResources" transform="translate(39.556 11.23) rotate(17)">
      <path id="Path_758" data-name="Path 758" d="M1.189,15.308S-1.076,10.6,1.13,7.3C2.189,5.716,4.279,4.455,6.47,3.431A15.936,15.936,0,0,0,10.335.164s1.284,8.7-.923,12S1.189,15.308,1.189,15.308Z" transform="translate(0 0)" fill="#94c900"/>
    </g>
    <g id="InfoIconNaturalResources-2" data-name="InfoIconNaturalResources" transform="translate(34.082 19.047) rotate(163)">
      <path id="Path_758-2" data-name="Path 758" d="M1.269-.017S-1.6,6.3.987,10.638c1.241,2.081,3.739,3.7,6.368,5.008,2.085,1.04,4.6,4.243,4.6,4.243s1.786-11.611-.8-15.946S1.269-.017,1.269-.017Z" transform="translate(0 0)" fill="#a3db06"/>
    </g>
    <path id="Path_2277" data-name="Path 2277" d="M.175,11.561a23.282,23.282,0,0,1,2.51-6.083A28.763,28.763,0,0,1,7.212.115,29.635,29.635,0,0,0,3.465,5.779a23.036,23.036,0,0,0-1.8,6.026Z" transform="translate(37.585 16.07) rotate(17)" fill="#815d38"/>
    <path id="Path_2278" data-name="Path 2278" d="M5.456-.087S2.636.279.492,5.948c-2.076,5.481,1.485,13.52,2.48,15.283,1.836,3.252,6.8,6.027,6.8,6.027s-4.792-4.575-6.225-7.907C2.94,17.942.806,13.457,2.893,8.3A11.367,11.367,0,0,1,10.8,1.548Z" transform="translate(37.962 32.942) rotate(163)" fill="#a8825b"/>
    <path id="Path_2279" data-name="Path 2279" d="M130.165-600.775a51.562,51.562,0,0,0,12.967,2.01,45.486,45.486,0,0,0,12.468-2.01s-4.165-3.151-12.468-2.962S130.165-600.775,130.165-600.775Z" transform="translate(-110.328 637.955)" fill="#94c900"/>
  </g>
</svg>
