<svg xmlns="http://www.w3.org/2000/svg" xmlns:xlink="http://www.w3.org/1999/xlink" width="64" height="64" viewBox="0 0 64 64"><defs><filter id="a" x="16.335" y="27.841" width="31.33" height="39.817" filterUnits="userSpaceOnUse"><feOffset dy="3" input="SourceAlpha"/><feGaussianBlur stdDeviation="3" result="b"/><feFlood flood-opacity="0.161"/><feComposite operator="in" in2="b"/><feComposite in="SourceGraphic"/></filter><clipPath id="d"><rect width="64" height="64"/></clipPath></defs><g id="c"><path d="M5,0H33a5,5,0,0,1,5,5V28a0,0,0,0,1,0,0H0a0,0,0,0,1,0,0V5A5,5,0,0,1,5,0Z" transform="translate(13 4)" fill="#e2e2e2"/><path d="M0,0H38a0,0,0,0,1,0,0V23a5,5,0,0,1-5,5H5a5,5,0,0,1-5-5V0A0,0,0,0,1,0,0Z" transform="translate(13 31)" fill="#bbeaff"/><g transform="translate(15.5 8.804)"><path d="M11.731,5.718a10.04,10.04,0,0,0-1.766-2.3.143.143,0,0,0-.2,0A9.923,9.923,0,0,0,8,5.712,8.243,8.243,0,0,0,6.749,9.78c0,.029,0,.06,0,.088a3.713,3.713,0,0,0,.212,1.24,3.59,3.59,0,0,0,.3.626,3.049,3.049,0,0,0,2.6,1.542,3.272,3.272,0,0,0,3.115-3.409,8.292,8.292,0,0,0-1.245-4.151Z" transform="translate(7.188 -3.377)" fill="#a1886c"/><path d="M11.731,5.718a10.04,10.04,0,0,0-1.766-2.3.143.143,0,0,0-.2,0A9.923,9.923,0,0,0,8,5.712,8.243,8.243,0,0,0,6.749,9.78c0,.029,0,.06,0,.088a3.713,3.713,0,0,0,.212,1.24,3.59,3.59,0,0,0,.3.626,3.049,3.049,0,0,0,2.6,1.542,3.272,3.272,0,0,0,3.115-3.409,8.292,8.292,0,0,0-1.245-4.151Z" transform="translate(-4.719 -3.377)" fill="#a1886c"/><path d="M11.731,5.718a10.04,10.04,0,0,0-1.766-2.3.143.143,0,0,0-.2,0A9.923,9.923,0,0,0,8,5.712,8.243,8.243,0,0,0,6.749,9.78c0,.029,0,.06,0,.088a3.713,3.713,0,0,0,.212,1.24,3.59,3.59,0,0,0,.3.626,3.049,3.049,0,0,0,2.6,1.542,3.272,3.272,0,0,0,3.115-3.409,8.292,8.292,0,0,0-1.245-4.151Z" transform="translate(19.095 -3.377)" fill="#a1886c"/><circle cx="2" cy="2" r="2" transform="translate(0 11.633)" fill="#818181"/><circle cx="2" cy="2" r="2" transform="translate(3 16.633)" fill="#818181"/><circle cx="2" cy="2" r="2" transform="translate(7 11.633)" fill="#818181"/><circle cx="2" cy="2" r="2" transform="translate(11 16.633)" fill="#818181"/><circle cx="2" cy="2" r="2" transform="translate(15 11.633)" fill="#818181"/><circle cx="2" cy="2" r="2" transform="translate(18 16.633)" fill="#818181"/><circle cx="2" cy="2" r="2" transform="translate(22 11.633)" fill="#818181"/><circle cx="2" cy="2" r="2" transform="translate(25 16.633)" fill="#818181"/><circle cx="2" cy="2" r="2" transform="translate(29 11.633)" fill="#818181"/></g><g transform="translate(27.156 33.379)"><g transform="matrix(1, 0, 0, 1, -27.16, -33.38)" filter="url(#a)"><path d="M17.414,8.535a22.061,22.061,0,0,0-3.782-5.066.3.3,0,0,0-.433-.005,21.8,21.8,0,0,0-3.77,5.061,18.541,18.541,0,0,0-2.674,8.962c0,.063,0,.131,0,.194A8.4,8.4,0,0,0,7.2,20.413a8.015,8.015,0,0,0,.633,1.379,6.5,6.5,0,0,0,5.574,3.4c3.682,0,6.669-3.362,6.669-7.51A18.658,18.658,0,0,0,17.414,8.535Z" transform="translate(18.59 30.47)" fill="#39c2ff"/></g></g></g></svg>