<svg xmlns="http://www.w3.org/2000/svg" xmlns:xlink="http://www.w3.org/1999/xlink" width="64" height="64" viewBox="0 0 64 64"><defs><clipPath id="b"><rect width="64" height="64"/></clipPath></defs><g id="a"><rect width="38" height="54" rx="5" transform="translate(13 4)" fill="#4f8198"/><rect width="3" height="13" rx="1" transform="translate(30.5 18)" fill="#fff"/><rect width="3" height="13" rx="1" transform="matrix(-0.485, 0.875, -0.875, -0.485, 44.097, 35.991)" fill="#fff"/><rect width="3" height="13" rx="1" transform="matrix(-0.485, -0.875, 0.875, -0.485, 32.727, 32.312)" fill="#fff"/><rect width="3" height="13" rx="1" transform="translate(30.5 31)" fill="#fff"/><rect width="3" height="13" rx="1" transform="matrix(-0.485, 0.875, -0.875, -0.485, 32.727, 29.688)" fill="#fff"/><rect width="3" height="13" rx="1" transform="matrix(-0.485, -0.875, 0.875, -0.485, 21.357, 38.615)" fill="#fff"/><rect width="2" height="7" rx="1" transform="translate(27.136 20.732) rotate(-45)" fill="#fff"/><rect width="2" height="7" rx="1" transform="translate(43.338 31.724) rotate(74)" fill="#fff"/><rect width="2" height="7" rx="1" transform="translate(36.61 28.346) rotate(-74)" fill="#fff"/><rect width="2" height="7" rx="1" transform="translate(32.086 36.318) rotate(45)" fill="#fff"/><rect width="2" height="7" rx="1" transform="translate(27.307 28.497) rotate(164)" fill="#fff"/><rect width="2" height="7" rx="1" transform="translate(25.378 40.232) rotate(-164)" fill="#fff"/><rect width="2" height="7" rx="1" transform="translate(31.914 25.682) rotate(-135)" fill="#fff"/><rect width="2" height="7" rx="1" transform="translate(36.693 33.503) rotate(-16)" fill="#fff"/><rect width="2" height="7" rx="1" transform="translate(38.623 21.768) rotate(16)" fill="#fff"/><rect width="2" height="7" rx="1" transform="translate(36.864 41.268) rotate(135)" fill="#fff"/><rect width="2" height="7" rx="1" transform="translate(20.662 30.276) rotate(-106)" fill="#fff"/><rect width="2" height="7" rx="1" transform="translate(27.39 33.653) rotate(106)" fill="#fff"/></g></svg>