<?xml version="1.0" encoding="UTF-8" standalone="no"?>
<!DOCTYPE svg PUBLIC "-//W3C//DTD SVG 1.1//EN" "http://www.w3.org/Graphics/SVG/1.1/DTD/svg11.dtd">
<svg width="100%" height="100%" viewBox="0 0 128 128" version="1.1" xmlns="http://www.w3.org/2000/svg" xmlns:xlink="http://www.w3.org/1999/xlink" xml:space="preserve" xmlns:serif="http://www.serif.com/" style="fill-rule:evenodd;clip-rule:evenodd;stroke-linejoin:round;stroke-miterlimit:2;">
    <g transform="matrix(2.20876,0,0,2.20876,-78.0834,-82.76)">
        <path d="M91.569,67.086L90.973,70.658L64.848,89.082L37.397,65.023L37.085,60.646L62.436,43.807L91.569,67.086Z" style="fill:rgb(67,67,67);"/>
        <path d="M37.912,61.08L64.888,85.049L90.173,67.278L62.364,44.997L37.912,61.08Z" style="fill:rgb(111,111,111);"/>
        <path d="M76.956,73.834L72.791,70.271L83.774,69.023L76.956,73.834Z" style="fill:rgb(210,63,255);"/>
        <path d="M79.539,61.134L75.378,57.697L65.914,64.388L66.4,64.804L74.552,62.6L79.539,61.134Z" style="fill:rgb(210,63,255);"/>
        <path d="M86.642,67L83.774,69.023L72.791,70.271L66.4,64.804L74.552,62.6L79.539,61.134L86.642,67Z" style="fill:rgb(147,93,164);"/>
        <path d="M72.232,55.099L73.59,56.221L64.154,62.882L62.527,61.49L69.433,56.911L72.232,55.099Z" style="fill:rgb(77,186,214);"/>
        <path d="M55.731,55.676C59.173,54.964 61.619,54.59 61.748,54.889C61.868,55.165 60.498,56.288 58.275,57.852L55.731,55.676Z" style="fill:rgb(77,186,214);"/>
        <path d="M66.349,50.241L60.095,51.49L53.759,52.808L62.298,46.895L66.349,50.241Z" style="fill:rgb(77,186,214);"/>
        <path d="M66.349,50.241L72.232,55.099L69.433,56.911L62.527,61.49L58.275,57.852C60.498,56.288 61.868,55.165 61.748,54.889C61.619,54.59 59.173,54.964 55.731,55.676L52.996,53.336L53.759,52.808L60.095,51.49L66.349,50.241Z" style="fill:rgb(95,141,153);"/>
        <path d="M62.594,63.982L58.633,66.779C56.353,67.322 54.891,67.535 54.764,67.289C54.59,66.951 57.167,65.059 60.888,62.577L62.594,63.982Z" style="fill:rgb(255,183,101);"/>
        <path d="M46.896,57.586L53.184,56.227L56.597,59.04L47.115,65.363L46.984,65.446L41.954,61.034L46.896,57.586Z" style="fill:rgb(255,183,101);"/>
        <path d="M56.597,59.04L60.888,62.577C57.167,65.059 54.59,66.951 54.764,67.289C54.891,67.535 56.353,67.322 58.633,66.779L53.02,70.74L46.984,65.446L47.115,65.363L56.597,59.04Z" style="fill:rgb(175,137,93);"/>
        <path d="M53.184,56.227L46.896,57.586L51.194,54.587L53.184,56.227Z" style="fill:rgb(175,137,93);"/>
        <path d="M70.534,70.527L54.813,72.312L65.646,81.815L75.658,74.75L70.534,70.527Z" style="fill:rgb(140,183,21);"/>
        <path d="M70.534,70.527L64.392,65.464L54.764,72.27L54.813,72.312L70.534,70.527Z" style="fill:rgb(124,139,83);"/>
    </g>
</svg>
