<svg xmlns="http://www.w3.org/2000/svg" xmlns:xlink="http://www.w3.org/1999/xlink" width="32" height="32" viewBox="0 0 32 32"><defs><clipPath id="b"><rect width="32" height="32"/></clipPath></defs><g id="a"><path d="M835.9,106.946l4.421-2.55V90.272l-9.088-3.2-.312.092v.469l-3.743,1.053-.352-.145-.65.145Z" transform="translate(-809.265 -83.032)" fill="#7dce40"/><path d="M826.165,88.29v13.718l9.739,4.549V91.869Z" transform="translate(-809.269 -82.662)" fill="#61a32e"/><path d="M826.833,88.554c.153.015,8.982,3.233,8.982,3.233l3.389-1.431-8.389-3.07Z" transform="translate(-809.031 -82.968)" fill="#fff6d9"/><path d="M835.9,106.946l4.421-2.55V90.272l-9.088-3.2-.312.092v.469l-3.743,1.053-.352-.145-.65.145Z" transform="translate(-814.688 -80.422)" fill="#ce8240"/><path d="M826.165,88.29v13.718l9.739,4.549V91.869Z" transform="translate(-814.692 -80.052)" fill="#b16728"/><path d="M826.833,88.554c.153.015,8.982,3.233,8.982,3.233l3.389-1.431-8.389-3.07Z" transform="translate(-814.454 -80.358)" fill="#fff6d9"/><path d="M835.9,106.946l4.421-2.55V90.272l-9.088-3.2-.312.092v.469l-3.743,1.053-.352-.145-.65.145Z" transform="translate(-820.111 -77.812)" fill="#40b1ce"/><path d="M826.165,88.29v13.718l9.739,4.549V91.869Z" transform="translate(-820.115 -77.441)" fill="#69c8e0"/><path d="M826.833,88.554c.153.015,8.982,3.233,8.982,3.233l3.389-1.431-8.389-3.07Z" transform="translate(-819.877 -77.748)" fill="#fff6d9"/><path d="M6.781,0A6.646,6.646,0,0,1,13.555,6.52a6.665,6.665,0,0,1-6.783,6.529A6.646,6.646,0,0,1,0,6.528,6.665,6.665,0,0,1,6.781,0Z" transform="matrix(1, 0.017, -0.017, 1, 1.875, 6.462)" fill="#2e85be"/><path d="M7.705-.023A7.675,7.675,0,0,0,0,7.6a7.675,7.675,0,0,0,7.705,7.628,7.677,7.677,0,0,0,3.654-.894,2.19,2.19,0,0,0,.286.283l5.63,5.212a2.26,2.26,0,0,0,2.217.681,2.234,2.234,0,0,0,1.641-1.625,2.209,2.209,0,0,0-.688-2.195l-5.63-5.212a2.2,2.2,0,0,0-.352-.283,7.467,7.467,0,0,0,.969-3.618A7.675,7.675,0,0,0,7.727-.045Zm0,2.179a5.48,5.48,0,0,1,4.051,9.2l-.066.065a2.19,2.19,0,0,0-.286.283,5.541,5.541,0,0,1-3.72,1.373,5.449,5.449,0,1,1,0-10.9Z" transform="translate(0.79 6.338)" fill="#ddecf4"/></g></svg>