<svg xmlns="http://www.w3.org/2000/svg" xmlns:xlink="http://www.w3.org/1999/xlink" width="34" height="34" viewBox="0 0 34 34"><defs><clipPath id="b"><rect width="34" height="34"/></clipPath></defs><g id="a"><path d="M733.5-302.438l17.89,15.33,13.957-9.3v-1.6L733.5-304.027Z" transform="translate(-732.458 317.572)" fill="#434343"/><path d="M1223.505-1133.739l17.935,15.232,13.971-9.177-18.076-15.056Z" transform="translate(-1222.458 1147.244)" fill="gray"/><path d="M740.478-308.616l3.13,2.636,1.385-.915-3.12-2.605Z" transform="translate(-731.872 318.93)" fill="#d4d4d4"/><path d="M740.386-308.926l3.13,2.636,1.385-.915-3.12-2.605Z" transform="translate(-718.594 329.995)" fill="#d4d4d4"/><path d="M741.151-309.033l3.13,2.636,1.385-.915-3.12-2.605Z" transform="translate(-726.218 324.483)" fill="#d4d4d4"/><path d="M23.855,5.336c-.1-.4-.8-.763-1.1-.472l-3.387,3.29-3.092-.5-.515-3,3.387-3.29c.3-.293.414-1.948,0-2.048-2.158-.519-4.792,1.2-6.478,2.834-1.805,1.754-1.84,4.88-1.088,7.1L-.443,18.758c-1.138,1.106-.911,3.847.228,4.953a2.976,2.976,0,0,0,4.122,0l10.8-11.72c2.283.739,5.415.931,7.233-.835a5.963,5.963,0,0,0,1.912-5.821Z" transform="translate(7.047 4.574)" fill="#475766"/><path d="M23.678,4.856a.552.552,0,0,0-.918-.245L19.367,7.92l-3.1-.5L15.753,4.4l3.393-3.309a.531.531,0,0,0-.258-.9,6.681,6.681,0,0,0-6.232,1.688c-1.809,1.764-1.843,4.909-1.09,7.139L-.252,19.541a2.8,2.8,0,0,0,0,4.028,2.973,2.973,0,0,0,4.13,0L14.7,11.78c2.287.744,5.426.936,7.246-.839a6.3,6.3,0,0,0,1.73-6.085Z" transform="translate(7.065 3.536)" fill="#d7e3f0"/></g></svg>