<svg xmlns="http://www.w3.org/2000/svg" xmlns:xlink="http://www.w3.org/1999/xlink" width="34" height="34" viewBox="0 0 34 34"><defs><clipPath id="b"><rect width="34" height="34"/></clipPath></defs><g id="a"><path d="M11.149,0C17.306.006,22.3,3.446,22.3,7.686s-4.989,7.676-11.146,7.674S0,11.918,0,7.678,4.992,0,11.149,0Z" transform="matrix(0.998, -0.07, 0.07, 0.998, 5.339, 10.968)" fill="#595959"/><path d="M11.149,0C17.306.006,22.3,3.446,22.3,7.686s-4.989,7.676-11.146,7.674S0,11.918,0,7.678,4.992,0,11.149,0Z" transform="matrix(0.998, -0.07, 0.07, 0.998, 5.339, 9.262)" fill="#c3c2c2"/><ellipse cx="9.436" cy="5.975" rx="9.436" ry="5.975" transform="matrix(0.998, -0.07, 0.07, 0.998, 7.144, 10.801)" fill="#686767"/></g></svg>