<svg xmlns="http://www.w3.org/2000/svg" xmlns:xlink="http://www.w3.org/1999/xlink" width="32" height="32" viewBox="0 0 32 32"><defs><clipPath id="b"><rect width="32" height="32"/></clipPath></defs><g id="a"><path d="M14.5,0A14.5,14.5,0,1,1,0,14.5,14.5,14.5,0,0,1,14.5,0Z" transform="translate(2 1)" fill="#96cdd5"/><path d="M1,0A16.307,16.307,0,0,1,5.9-.875,18.522,18.522,0,0,1,11,0a1,1,0,0,1,0,2A16.491,16.491,0,0,0,5.9,1,14.545,14.545,0,0,0,1,2,1,1,0,0,1,1,0Z" transform="translate(10 20)" fill="#111"/><path d="M2,0S4,1.343,4,3,3.1,6,2,6,0,4.657,0,3A3.245,3.245,0,0,1,.847,1.052,5.425,5.425,0,0,1,2,0Z" transform="translate(10.086 9.512) rotate(19)" fill="#2d2d2d"/><path d="M2,6S4,4.657,4,3,3.1,0,2,0,0,1.343,0,3A3.245,3.245,0,0,0,.847,4.948,5.425,5.425,0,0,0,2,6Z" transform="translate(23.868 15.185) rotate(161)" fill="#2d2d2d"/></g></svg>