<svg xmlns="http://www.w3.org/2000/svg" xmlns:xlink="http://www.w3.org/1999/xlink" width="26" height="26" viewBox="0 0 26 26"><defs><clipPath id="b"><rect width="26" height="26"/></clipPath></defs><g id="a"><circle cx="2.5" cy="2.5" r="2.5" transform="translate(17 17)" fill="#5f6b7a"/><circle cx="2.5" cy="2.5" r="2.5" transform="translate(4 17)" fill="#5f6b7a"/><path d="M67.431-231.447a2.7,2.7,0,0,1,.415-1.98,5.691,5.691,0,0,1,2.2-1.711,29.351,29.351,0,0,1,2.423-5.641c1.112-1.559,2.026-.594,2.026-.594s-1.4,5.537-.955,6.962.924,2.919,4.106,2.963,1.927-.648,2.691-1.457-1.185-3.237-1.185-3.237h4.334a6.459,6.459,0,0,1,2.479,2.24,10.309,10.309,0,0,1,1.09,3.712H70.938Z" transform="translate(-64 250)" fill="#ccdf8d"/><path d="M69.867-239.944a16.924,16.924,0,0,0,0,3.008c.179-.062,1.995-.707,1.995-1.459S69.867-239.944,69.867-239.944Z" transform="translate(-63 249)" fill="#858383"/><rect width="7" height="3" rx="1.5" transform="translate(14 12)" fill="#5f6b7a"/><rect width="3" height="1" rx="0.5" transform="translate(9 9)" fill="#5f6b7a"/></g></svg>