<svg xmlns="http://www.w3.org/2000/svg" xmlns:xlink="http://www.w3.org/1999/xlink" width="64" height="64" viewBox="0 0 64 64"><defs><clipPath id="b"><rect width="64" height="64"/></clipPath></defs><g id="a"><rect width="38" height="54" rx="5" transform="translate(13 4)" fill="#4f8198"/><path d="M4571.134,1842.961c1.641.018,1.529-1.712,1.529-1.712v-37.062s-1.325-.421-2.409,2.649a28.417,28.417,0,0,0-1.926,9.633c-.22,4.516,1.926,5.78,1.926,5.78l-.871,18.8S4569.494,1842.943,4571.134,1842.961Z" transform="translate(-4532 -1792.656)" fill="#fff"/><path d="M4570.353,1840.829a1.936,1.936,0,0,1-1.825-1.178l.611-24.986h2.323l.574,24.986A1.662,1.662,0,0,1,4570.353,1840.829Z" transform="translate(-4544.282 -1790.25)" fill="#fff"/><path d="M-.471.13s.158-.688.731-.688.753.688.753.688-.041,9.617.234,11.1a2.179,2.179,0,0,0,1.03.8c.731-.03,2.32.024,3.982,0,.806-.032.631-.058.95-.483.148-1.439,0-11.42,0-11.42a1.044,1.044,0,0,1,.946-.688A.831.831,0,0,1,8.98.13v10.6c0,1.362-1.541,2.646-1.541,2.646L4.315,14.929l-3.3-1.548A4.356,4.356,0,0,1-.471,10.734Z" transform="translate(21.764 12.069)" fill="#fff"/><path d="M0,1.032S.239-.045,1.083,0,2,1.032,2,1.032V13.7H0Z" transform="translate(25 11.422)" fill="#fff"/></g></svg>