<svg xmlns="http://www.w3.org/2000/svg" xmlns:xlink="http://www.w3.org/1999/xlink" width="64" height="64" viewBox="0 0 64 64"><defs><clipPath id="b"><rect width="64" height="64"/></clipPath></defs><g id="a"><rect width="38" height="54" rx="5" transform="translate(13 4)" fill="#4f8198"/><rect width="24" height="8" rx="1" transform="translate(20 36)" fill="#dedede"/><rect width="24" height="8" rx="1" transform="translate(20 27)" fill="#dedede"/><rect width="24" height="8" rx="1" transform="translate(20 18)" fill="#dedede"/><circle cx="1" cy="1" r="1" transform="translate(40 39)"/><circle cx="1" cy="1" r="1" transform="translate(40 30)"/><circle cx="1" cy="1" r="1" transform="translate(40 21)"/><circle cx="1" cy="1" r="1" transform="translate(37 39)"/><circle cx="1" cy="1" r="1" transform="translate(37 30)"/><circle cx="1" cy="1" r="1" transform="translate(37 21)"/><circle cx="1" cy="1" r="1" transform="translate(34 39)"/><circle cx="1" cy="1" r="1" transform="translate(34 30)"/><circle cx="1" cy="1" r="1" transform="translate(34 21)"/></g></svg>