<svg xmlns="http://www.w3.org/2000/svg" xmlns:xlink="http://www.w3.org/1999/xlink" width="32" height="32" viewBox="0 0 32 32">
  <defs>
    <filter id="Icon_ionic-ios-settings" x="-1.967" y="-5.103" width="41.935" height="41.938" filterUnits="userSpaceOnUse">
      <feOffset dy="3" input="SourceAlpha"/>
      <feGaussianBlur stdDeviation="3" result="blur"/>
      <feFlood flood-opacity="0.161"/>
      <feComposite operator="in" in2="blur"/>
      <feComposite in="SourceGraphic"/>
    </filter>
    <clipPath id="clip-ServiceUpkeep">
      <rect width="32" height="32"/>
    </clipPath>
  </defs>
  <g id="ServiceUpkeep" clip-path="url(#clip-ServiceUpkeep)">
    <path id="Icon_awesome-hand-holding" data-name="Icon awesome-hand-holding" d="M22.711,21.6a1.293,1.293,0,0,0-1.664,0c-4.051,3.242-4.642,4.6-5.212,4.6-4.965,0-5.676-.534-5.835-.572s-1.131-1.9,2.272-1.9c1.12-.38,1.133-.614,1.234-1.227a1.251,1.251,0,0,0-1.234-1.461L7.224,22.206a4.233,4.233,0,0,0-2.618,1.321l-1.894.889L.625,25A.627.627,0,0,0,0,25.625v3.15a.627.627,0,0,0,.625.625l14.527.547a2.5,2.5,0,0,0,1.562-.547l5.946-5.889A1.249,1.249,0,0,0,22.711,21.6Z" transform="translate(2.375 -0.659)" fill="#bdbdbd"/>
    <g transform="matrix(1, 0, 0, 1, 0, 0)" filter="url(#Icon_ionic-ios-settings)">
      <path id="Icon_ionic-ios-settings-2" data-name="Icon ionic-ios-settings" d="M21.246,13.626a2.349,2.349,0,0,1,1.507-2.191,9.31,9.31,0,0,0-1.127-2.714,2.38,2.38,0,0,1-.955.2,2.344,2.344,0,0,1-2.144-3.3A9.282,9.282,0,0,0,15.817,4.5a2.347,2.347,0,0,1-4.382,0A9.31,9.31,0,0,0,8.721,5.627a2.344,2.344,0,0,1-2.144,3.3,2.3,2.3,0,0,1-.955-.2A9.516,9.516,0,0,0,4.5,11.44a2.348,2.348,0,0,1,0,4.382,9.31,9.31,0,0,0,1.127,2.714,2.344,2.344,0,0,1,3.094,3.094,9.364,9.364,0,0,0,2.714,1.127,2.342,2.342,0,0,1,4.373,0,9.31,9.31,0,0,0,2.714-1.127,2.347,2.347,0,0,1,3.094-3.094,9.364,9.364,0,0,0,1.127-2.714A2.36,2.36,0,0,1,21.246,13.626Zm-7.577,3.8a3.8,3.8,0,1,1,3.8-3.8A3.8,3.8,0,0,1,13.669,17.424Z" transform="matrix(0.92, 0.39, -0.39, 0.92, 11.78, -5)" fill="#fff"/>
    </g>
  </g>
</svg>
