<svg xmlns="http://www.w3.org/2000/svg" xmlns:xlink="http://www.w3.org/1999/xlink" width="26" height="26" viewBox="0 0 26 26"><defs><clipPath id="b"><rect width="26" height="26"/></clipPath></defs><g id="a"><circle cx="0.5" cy="0.5" r="0.5" transform="translate(14 16)" fill="#e8ff54"/><path d="M13.955,9.492a1.761,1.761,0,0,0,.885-1.469,2.065,2.065,0,0,0-2.226-1.851h-.435a1.538,1.538,0,0,0,.682-1.234,1.835,1.835,0,0,0-1.979-1.646H10.7a2.087,2.087,0,0,0,.182-.823A2.753,2.753,0,0,0,7.915,0a3.572,3.572,0,0,0-.467.039,1.822,1.822,0,0,1,.467,1.2A2.294,2.294,0,0,1,5.441,3.291H4.947A1.835,1.835,0,0,0,2.968,4.937,1.538,1.538,0,0,0,3.65,6.171H3.215A2.065,2.065,0,0,0,.989,8.022a1.761,1.761,0,0,0,.885,1.469A1.991,1.991,0,0,0,0,11.314a2.065,2.065,0,0,0,2.226,1.851H13.6a2.065,2.065,0,0,0,2.226-1.851A1.991,1.991,0,0,0,13.955,9.492Z" transform="translate(4.96 6.3)" fill="#a1886c"/><path d="M13.955,7.787a1.761,1.761,0,0,0,.885-1.469s-.325,1.1-2.751,1.469a22.04,22.04,0,0,1-6.953,0A8.866,8.866,0,0,1,.989,6.318a1.761,1.761,0,0,0,.885,1.469A1.991,1.991,0,0,0,0,9.609,2.065,2.065,0,0,0,2.226,11.46a26.492,26.492,0,0,0,5.85.8,22.06,22.06,0,0,0,5.527-.8A2.065,2.065,0,0,0,15.83,9.609,1.991,1.991,0,0,0,13.955,7.787Z" transform="translate(4.96 8.005)" fill="#917557"/><ellipse cx="1" cy="0.5" rx="1" ry="0.5" transform="translate(11 10)" fill="#d6b997"/><path d="M0,9.609A2.065,2.065,0,0,0,2.226,11.46a26.492,26.492,0,0,0,5.85.8,22.06,22.06,0,0,0,5.527-.8A2.065,2.065,0,0,0,15.83,9.609s-2.3,1.267-7.753,1.314S0,9.609,0,9.609Z" transform="translate(4.96 8.005)" fill="#7d654b"/></g></svg>