<svg xmlns="http://www.w3.org/2000/svg" xmlns:xlink="http://www.w3.org/1999/xlink" width="64" height="64" viewBox="0 0 64 64"><defs><clipPath id="b"><rect width="64" height="64"/></clipPath></defs><g id="a"><g transform="translate(2.218 2)"><path d="M2905.533,2162.162l13.14,9.576,11.571-9.576Z" transform="translate(-2887.955 -2111.738)" fill="#4255ff"/><circle cx="27.341" cy="27.341" r="27.341" transform="translate(2.441)" fill="#4255ff"/></g><g transform="translate(-11.457 -11.899)"><path d="M0,0H16.422V5.463H0Z" transform="translate(35.367 25.863)" fill="#fff"/><rect width="19.668" height="8.429" transform="translate(33.897 30.727)" fill="#e5e5e5"/><path d="M0,7.7,12.217,4.08V22.088l-7.975-.929A10.325,10.325,0,0,1,.872,17.828,80.387,80.387,0,0,1,0,7.7Z" transform="translate(31.27 32.005)" fill="#fff"/><path d="M0,7.7,12.217,4.08V19.446l-7.975-.929S1.785,19.668.872,17.828A80.387,80.387,0,0,1,0,7.7Z" transform="translate(31.27 35.076)" fill="#fff"/><path d="M15.857,7.715,3.641,4.094V22.1l7.975-.929a10.325,10.325,0,0,0,3.369-3.331A80.388,80.388,0,0,0,15.857,7.715Z" transform="translate(39.845 32.01)" fill="#e5e5e5"/><path d="M15.857,7.715,3.641,4.094,3.849,19.37l7.975-.929a10.321,10.321,0,0,0,3.2-3.307A52.769,52.769,0,0,0,15.857,7.715Z" transform="translate(39.845 35.081)" fill="#e5e5e5"/><rect width="20.675" height="1.477" transform="translate(33.897 31.933)" fill="#3f518f"/><rect width="20.675" height="1.477" transform="translate(33.897 35.25)" fill="#3f518f"/><path d="M0,0A15.883,15.883,0,0,0,6.149,1.591,14.07,14.07,0,0,0,12.055,0a14.82,14.82,0,0,0,5.592,1.591A8.118,8.118,0,0,0,22.182,0a16.613,16.613,0,0,0,6.464,1.591A18.136,18.136,0,0,0,35.3,0V8.146H0Z" transform="translate(25.807 47.893)" fill="#fff"/><path d="M0,0H16.422V1.366H0Z" transform="translate(35.367 27.398)" fill="#3f518f"/></g></g></svg>