<svg xmlns="http://www.w3.org/2000/svg" xmlns:xlink="http://www.w3.org/1999/xlink" width="28" height="28" viewBox="0 0 28 28">
  <defs>
    <clipPath id="clip-Ship">
      <rect width="28" height="28"/>
    </clipPath>
  </defs>
  <g id="Ship" clip-path="url(#clip-Ship)">
    <g id="Group_2744" data-name="Group 2744" transform="translate(-1 -1.034)">
      <path id="Path_3790" data-name="Path 3790" d="M2160.653,453.335l3.535,2.557h7.07l12.659-10.426,1.216-4.4L2169.043,453.1Z" transform="translate(-2157.594 -429.416)" fill="#4bc3f1"/>
      <path id="Path_3789" data-name="Path 3789" d="M2176.212,436.058l-17.005,11.923,1.4,5.581h8.789l15.816-12.245Z" transform="translate(-2157.658 -429.642)" fill="#9ee2fc"/>
      <path id="Path_3791" data-name="Path 3791" d="M2161.161,447.967l.755,3.538h7.391l11.344-9.119-6.2-3.538Z" transform="translate(-2157.571 -429.516)" fill="#c8ab8a"/>
      <path id="Path_3792" data-name="Path 3792" d="M2163.4,443.743l9.32,5.816,1.459-6.157-8.854-4.571Z" transform="translate(-2159.023 -427.298)" fill="#f3f9ff"/>
      <path id="Path_3794" data-name="Path 3794" d="M2163.761,441.4l3.635-2.3.892.58,6.008-4.39v-.953l2.051-1.3,8.048,4.245-2.27,2.318-6.071,5.122-3.579,1.23Z" transform="translate(-2157.456 -429.779)" fill="#e3edf7"/>
      <path id="Path_3795" data-name="Path 3795" d="M2171.167,436.606l7.549,4.112-.264,1.273-7.549-4.258Z" transform="translate(-2154.088 -431.963)" fill="#f3f9ff"/>
      <path id="Path_3793" data-name="Path 3793" d="M2171.2,444.8l2.775-2.148v.825l6.508-4.867.271-1.179,2.371-1.563c.133.324,0,4.39,0,4.39l-13.29,10.7Z" transform="translate(-2156.116 -428.631)" fill="#b8d9fa"/>
      <path id="Path_3796" data-name="Path 3796" d="M2173.766,437.785l1.492-2.633,1.238-.822,1.8.822-.337,2.365-2.059,1.464Z" transform="translate(-2153.882 -431.744)" fill="#96a6b9"/>
      <path id="Path_3797" data-name="Path 3797" d="M2175.808,438.937l1.023-3.028,1.38-.805-.38,2.406Z" transform="translate(-2153.792 -431.709)" fill="#728091"/>
      <path id="Path_3798" data-name="Path 3798" d="M2175.2,435.141l1.664.838,1.392-.838-1.793-.839Z" transform="translate(-2153.84 -431.744)" fill="#3d3d3d"/>
      <path id="Path_3799" data-name="Path 3799" d="M2172.078,448.688l11.626-8.835v1.159l-11.977,9.332Z" transform="translate(-2157.104 -429.471)" fill="#1a5b95"/>
      <path id="Path_3800" data-name="Path 3800" d="M2163.881,441.987l8,4.2-.2.848-8.107-4.27Z" transform="translate(-2157.425 -429.375)" fill="#1a5b95"/>
      <path id="Path_3801" data-name="Path 3801" d="M2163.881,441.987l8,4.2-.2.848-8.107-4.27Z" transform="translate(-2157.954 -427.77)" fill="#1a5b95"/>
    </g>
  </g>
</svg>
