<svg xmlns="http://www.w3.org/2000/svg" xmlns:xlink="http://www.w3.org/1999/xlink" width="58" height="28" viewBox="0 0 58 28"><defs><clipPath id="b"><rect width="58" height="28"/></clipPath></defs><g id="a"><g transform="translate(2.559 4.301)"><path d="M15877.891,4399.893l3.8-4.238h3.545v4.238h-7.345Z" transform="translate(-15841.506 -4395.655)" fill="#96a6b9"/><path d="M15823.919,4414.5l10.7,6.709h42.239v-4.691l-2.913-2.018Z" transform="translate(-15823.919 -4402.388)" fill="#9ee2fc"/><path d="M15828.581,4418.164l20.983,4.7h-12.844Z" transform="translate(-15825.45 -4403.923)" fill="#4bc3f1"/><path d="M15837.232,4410.251l7.175-10.95h9.628v4.167l1.182.906h5.318l1.1-2.445h12.583l3.712,8.323Z" transform="translate(-15828.29 -4398.139)" fill="#f3f9ff"/><path d="M15842.751,4403.728l12.178.018v-1.1h-11.43Z" transform="translate(-15829.967 -4397.421)" fill="#1a5b95"/><path d="M15842.52,4403.614l10.992.034v-1h-10.337Z" transform="translate(-15828.548 -4399.165)" fill="#1a5b95"/><path d="M15843.264,4403.7l9.823.025v-1.081l-9.167.013Z" transform="translate(-15828.121 -4400.908)" fill="#1a5b95"/><rect width="43" height="1" rx="0.5" transform="translate(10.441 18.699)" fill="#4a4a4a"/><path d="M0,.55H17.461v.842a.631.631,0,0,1-.672.581H.672A.631.631,0,0,1,0,1.392Z" transform="translate(29.605 11.591)" fill="#54718b"/><rect width="34" height="1" rx="0.5" transform="translate(12.441 8.699)" fill="#1a5b95"/></g></g></svg>