<svg xmlns="http://www.w3.org/2000/svg" xmlns:xlink="http://www.w3.org/1999/xlink" width="64" height="64" viewBox="0 0 64 64"><defs><clipPath id="b"><rect width="64" height="64"/></clipPath></defs><g id="a"><path d="M-1179,38.017l26.12-16.38a7.551,7.551,0,0,1,2.781-1.707c4.7-1.618,10.113,1.726,12.091,7.47,1.887,5.479-.033,11.161-4.292,13.079l-26.448,17.043Z" transform="translate(1193.518 -8.331)" fill="#e4bf8d"/><path d="M-1179,38.017l26.12-16.38a7.551,7.551,0,0,1,2.781-1.707c5.657-1.8,9.559,3.063,9.559,3.063s-9.052,4.587-29.414,20.358Z" transform="translate(1193.518 -8.331)" fill="#f9d49c"/><path d="M9,0c4.971,0,9,4.925,9,11S13.971,22,9,22,0,17.075,0,11,4.029,0,9,0Z" transform="translate(6.909 32.529) rotate(-19)" fill="#a97735"/><ellipse cx="6" cy="7.5" rx="6" ry="7.5" transform="translate(10.909 34.529) rotate(-19)" fill="#6c3e27"/><path d="M9955.325-41.21s-6.991,6.321-7.123,7.687-.943,4.409,7.121,4.409,7.485-2.9,7.539-4.409S9955.325-41.21,9955.325-41.21Z" transform="translate(-9937.875 86.581)" fill="#77513d"/><ellipse cx="2.5" cy="1.5" rx="2.5" ry="1.5" transform="translate(13 52)" fill="#94644a"/><circle cx="0.5" cy="0.5" r="0.5" transform="translate(21 55)" fill="#94644a"/><rect width="22.876" height="16.366" transform="translate(6.208 43.947)" fill="none"/></g></svg>