<svg xmlns="http://www.w3.org/2000/svg" xmlns:xlink="http://www.w3.org/1999/xlink" width="64" height="64" viewBox="0 0 64 64">
  <defs>
    <clipPath id="clip-SmallRoundabout03">
      <rect width="64" height="64"/>
    </clipPath>
  </defs>
  <g id="SmallRoundabout03" clip-path="url(#clip-SmallRoundabout03)">
    <path id="Path_1137" data-name="Path 1137" d="M11.149,0C17.306.006,22.3,3.446,22.3,7.686s-4.989,7.676-11.146,7.674S0,11.918,0,7.678,4.992,0,11.149,0Z" transform="matrix(0.998, -0.07, 0.07, 0.998, 20.414, 25.6)" fill="#595959"/>
    <path id="Path_1136" data-name="Path 1136" d="M11.149,0C17.306.006,22.3,3.446,22.3,7.686s-4.989,7.676-11.146,7.674S0,11.918,0,7.678,4.992,0,11.149,0Z" transform="matrix(0.998, -0.07, 0.07, 0.998, 20.414, 23.893)" fill="#bda58a"/>
    <g id="Ellipse_457" data-name="Ellipse 457" transform="matrix(0.998, -0.07, 0.07, 0.998, 27.901, 28.584)" fill="#327a27" stroke="#707070" stroke-width="1">
      <ellipse cx="3.936" cy="2.475" rx="3.936" ry="2.475" stroke="none"/>
      <ellipse cx="3.936" cy="2.475" rx="3.436" ry="1.975" fill="none"/>
    </g>
    <g id="Group_2709" data-name="Group 2709" transform="translate(-4 53.145)">
      <ellipse id="Ellipse_884" data-name="Ellipse 884" cx="2" cy="0.5" rx="2" ry="0.5" transform="translate(34 -22.145)" fill="#010101"/>
      <path id="Path_3564" data-name="Path 3564" d="M.133,0H.949l.238,2.037a1.249,1.249,0,0,1-.6.207A1.188,1.188,0,0,1,0,2.037Z" transform="translate(35.402 -23.919)" fill="#976c4f"/>
      <circle id="Ellipse_885" data-name="Ellipse 885" cx="2" cy="2" r="2" transform="translate(34 -27.145)" fill="#54b60b"/>
      <circle id="Ellipse_886" data-name="Ellipse 886" cx="2" cy="2" r="2" transform="translate(33 -28.145)" fill="#54b60b"/>
      <path id="Path_3565" data-name="Path 3565" d="M2.092,0A1.986,1.986,0,0,1,4.184,1.86,1.915,1.915,0,0,1,2.092,3.625,1.915,1.915,0,0,1,0,1.86,1.986,1.986,0,0,1,2.092,0Z" transform="translate(33.93 -27.654)" fill="#79dd2c"/>
      <circle id="Ellipse_887" data-name="Ellipse 887" cx="2" cy="2" r="2" transform="translate(33 -28.145)" fill="#79dd2c"/>
      <ellipse id="Ellipse_883" data-name="Ellipse 883" cx="1" cy="1.5" rx="1" ry="1.5" transform="translate(37 -27.145)" fill="#54b60b"/>
      <circle id="Ellipse_888" data-name="Ellipse 888" cx="2" cy="2" r="2" transform="translate(34 -29.145)" fill="#79dd2c"/>
      <ellipse id="Ellipse_889" data-name="Ellipse 889" cx="1.5" cy="1" rx="1.5" ry="1" transform="translate(36 -27.145)" fill="#79dd2c"/>
    </g>
  </g>
</svg>
