<svg xmlns="http://www.w3.org/2000/svg" xmlns:xlink="http://www.w3.org/1999/xlink" width="64" height="64" viewBox="0 0 64 64"><defs><clipPath id="b"><rect width="64" height="64"/></clipPath></defs><g id="a"><path d="M-1179.062,38.467l26.182-16.83a7.551,7.551,0,0,1,2.781-1.707c4.7-1.618,10.113,1.726,12.091,7.47,1.887,5.479-.033,11.161-4.292,13.079l-26.448,17.043Z" transform="translate(1193.372 -8.583)" fill="#7fc3ff"/><path d="M-1179.642,38.68l26.762-17.043a7.551,7.551,0,0,1,2.781-1.707c5.657-1.8,9.559,3.063,9.559,3.063s-9.052,4.587-29.414,20.358Z" transform="translate(1193.372 -8.583)" fill="#92ccff"/><path d="M9,0c4.971,0,9,4.925,9,11S13.971,22,9,22,0,17.075,0,11,4.029,0,9,0Z" transform="translate(6.763 32.277) rotate(-19)" fill="#479ce6"/><path d="M6,0c3.314,0,6,3.358,6,7.5S9.314,15,6,15,0,11.642,0,7.5,2.686,0,6,0Z" transform="translate(10.763 34.277) rotate(-19)" fill="#0b406e"/><path d="M9952.536-41.21l-4.347,9.829s-.575,5.637,4.345,5.637,4.6-5.637,4.6-5.637Z" transform="translate(-9935.973 83.166)" fill="#39c2ff"/><ellipse cx="1.5" cy="2" rx="1.5" ry="2" transform="translate(13.854 50.747)" fill="#d2f9ff"/><circle cx="0.5" cy="0.5" r="0.5" transform="translate(18.854 54.747)" fill="#a4ecff"/><rect width="14" height="19" transform="translate(10 40)" fill="none"/></g></svg>