<svg xmlns="http://www.w3.org/2000/svg" xmlns:xlink="http://www.w3.org/1999/xlink" width="64" height="64" viewBox="0 0 64 64">
  <defs>
    <clipPath id="clip-SmallRoundabout08">
      <rect width="64" height="64"/>
    </clipPath>
  </defs>
  <g id="SmallRoundabout08" clip-path="url(#clip-SmallRoundabout08)">
    <path id="Path_1137" data-name="Path 1137" d="M11.149,0C17.306.006,22.3,3.446,22.3,7.686s-4.989,7.676-11.146,7.674S0,11.918,0,7.678,4.992,0,11.149,0Z" transform="matrix(0.998, -0.07, 0.07, 0.998, 20.414, 25.6)" fill="#595959"/>
    <path id="Path_1136" data-name="Path 1136" d="M11.149,0C17.306.006,22.3,3.446,22.3,7.686s-4.989,7.676-11.146,7.674S0,11.918,0,7.678,4.992,0,11.149,0Z" transform="matrix(0.998, -0.07, 0.07, 0.998, 20.414, 23.893)" fill="#c3c2c2"/>
    <ellipse id="Ellipse_457" data-name="Ellipse 457" cx="9.436" cy="5.975" rx="9.436" ry="5.975" transform="matrix(0.998, -0.07, 0.07, 0.998, 22.219, 25.433)" fill="#595959"/>
    <g id="Group_2748" data-name="Group 2748" transform="translate(24.797 25.302)">
      <path id="Rectangle_4573" data-name="Rectangle 4573" d="M0,3.727,10.271,0l4.215,7.16L4.13,10.941Z" transform="translate(0.221)" fill="#965f5f"/>
      <path id="Rectangle_4574" data-name="Rectangle 4574" d="M4.287,0l10,2.35-4.223,7.6L0,7.549Z" transform="translate(0 0.426)" fill="#965f5f"/>
      <path id="Path_3905" data-name="Path 3905" d="M.014,1.628s.069.147.206.387a10.749,10.749,0,0,0,.614.952A10.254,10.254,0,0,0,1.85,4.172,7.934,7.934,0,0,0,3.26,5.316a9.315,9.315,0,0,0,1.732.827,15.025,15.025,0,0,0,1.725.511c.53.125.993.207,1.324.259s.529.072.529.072-.075-.147-.222-.388-.365-.577-.65-.954a10.978,10.978,0,0,0-1.05-1.2A8.359,8.359,0,0,0,5.222,3.3a9.573,9.573,0,0,0-1.716-.824,15.08,15.08,0,0,0-1.69-.512C1.3,1.838.848,1.754.527,1.7S.014,1.628.014,1.628Z" transform="translate(2.906 1.04)" fill="#595959"/>
      <path id="Path_3906" data-name="Path 3906" d="M4.484.005s.1.137.236.375a10.248,10.248,0,0,1,.512.988,8.49,8.49,0,0,1,.493,1.394A5.458,5.458,0,0,1,5.9,4.354a5.573,5.573,0,0,1-.334,1.58A8.916,8.916,0,0,1,4.936,7.3a10.89,10.89,0,0,1-.615.967c-.166.233-.276.366-.276.366s-.092-.141-.228-.387a10.769,10.769,0,0,1-.492-1.013,8.953,8.953,0,0,1-.469-1.417,5.73,5.73,0,0,1-.162-1.6,5.71,5.71,0,0,1,.328-1.569A8.86,8.86,0,0,1,3.633,1.3,10.607,10.607,0,0,1,4.221.361C4.379.134,4.484.005,4.484.005Z" transform="translate(2.961 1.114)" fill="#595959"/>
      <path id="Path_3907" data-name="Path 3907" d="M1.743,6.686s.211-.066.559-.193.835-.311,1.386-.549,1.167-.528,1.774-.863A11.967,11.967,0,0,0,7.185,3.947,8.886,8.886,0,0,0,8.5,2.624a10.047,10.047,0,0,0,.877-1.277A9.575,9.575,0,0,0,9.868.384c.1-.239.152-.38.152-.38s-.207.068-.551.2S8.646.518,8.1.759s-1.153.534-1.755.871A12.445,12.445,0,0,0,4.632,2.766,9.269,9.269,0,0,0,3.308,4.081a10.461,10.461,0,0,0-.9,1.269,9.934,9.934,0,0,0-.508.957C1.794,6.545,1.743,6.686,1.743,6.686Z" transform="translate(1.213 1.886)" fill="#595959"/>
      <path id="Path_3908" data-name="Path 3908" d="M.005,3.65s.2-.083.547-.21.839-.3,1.423-.473,1.26-.356,1.974-.5a15.074,15.074,0,0,1,2.2-.3,13.179,13.179,0,0,1,2.124.069,16.477,16.477,0,0,1,1.8.3c.522.117.953.24,1.252.333s.469.157.469.157-.2.08-.55.2-.844.289-1.432.459-1.268.346-1.986.489a15.742,15.742,0,0,1-2.212.291A13.6,13.6,0,0,1,3.5,4.408,16.713,16.713,0,0,1,1.7,4.119C1.187,4.006.762,3.889.467,3.8S.005,3.65.005,3.65Z" transform="translate(1.213 1.886)" fill="#595959"/>
      <path id="Ellipse_938" data-name="Ellipse 938" d="M2.305.837a3.443,3.443,0,0,1,.97-.2,3.239,3.239,0,0,1,.932.077A2.493,2.493,0,0,1,5,1.044a1.7,1.7,0,0,1,.546.559,1.309,1.309,0,0,1,.184.691,1.476,1.476,0,0,1-.2.692A2.109,2.109,0,0,1,5,3.6a2.938,2.938,0,0,1-.826.455,3.443,3.443,0,0,1-.974.2,3.237,3.237,0,0,1-.935-.078,2.487,2.487,0,0,1-.792-.333,1.691,1.691,0,0,1-.544-.561,1.308,1.308,0,0,1-.18-.693,1.48,1.48,0,0,1,.2-.691,2.116,2.116,0,0,1,.534-.61A2.942,2.942,0,0,1,2.305.837Z" transform="translate(4.045 2.951)" fill="#965f5f"/>
    </g>
  </g>
</svg>
