<svg xmlns="http://www.w3.org/2000/svg" xmlns:xlink="http://www.w3.org/1999/xlink" width="64" height="64" viewBox="0 0 64 64"><defs><clipPath id="b"><rect width="64" height="64"/></clipPath></defs><g id="a"><g transform="translate(6.49 115.1)"><path d="M25.653-108.3A25.217,25.217,0,0,1,50.714-82.957,25.217,25.217,0,0,1,25.367-57.9,25.217,25.217,0,0,1,.306-83.243,25.217,25.217,0,0,1,25.653-108.3Z" transform="translate(0 0)" fill="#ab7d3e" fill-rule="evenodd"/><path d="M6.25-66.849A25.1,25.1,0,0,1,.306-83.243,25.217,25.217,0,0,1,25.653-108.3a25.085,25.085,0,0,1,14.915,5,25.4,25.4,0,0,1,4.144,14.078,25.847,25.847,0,0,1-26.1,25.56A26.025,26.025,0,0,1,6.25-66.849Z" transform="translate(0 0)" fill="#c3893b" fill-rule="evenodd"/><path d="M18.632-104.929a27,27,0,0,1,6.958-3.376h.063a25.147,25.147,0,0,1,7.527,1.19,24.431,24.431,0,0,0-13.16,4.141c2.233,2.028,6.127,2.51,10.572,1.958,3.485-.433,6.44-2.693,11.9.155a14.1,14.1,0,0,1,2.352,1.6A25.2,25.2,0,0,1,49.47-90.94c-3.6-5.893-9.211-8.865-12.182-8.644-3.845.287-6.311.846-8.413,1-4.3.305-7.8-.851-10.343-3.313a25.9,25.9,0,0,0-3.7,3.513,103.728,103.728,0,0,1,18.3,9.412A103.589,103.589,0,0,1,49.641-75.8a25.093,25.093,0,0,1-1,2.732,97.848,97.848,0,0,0-16.9-13.74,98.111,98.111,0,0,0-18.6-9.4,26.685,26.685,0,0,0-2.97,5.575c6.2.921,10.663,3.853,12.868,11.793.719,2.59.34,5.246,1.643,9.991,1.136,4.136,5.444,7.936,13.187,7.719a25.066,25.066,0,0,1-3.948,1.8c-1.865-.488-6.059-1.1-8.53-3.709-4.625-4.891-3.511-9.35-4.546-13.75-2.082-8.854-6.6-10.783-11.478-11.454A27.384,27.384,0,0,0,8.331-80.9,26.625,26.625,0,0,0,20.077-58.484a25.023,25.023,0,0,1-6.417-2.369A29.343,29.343,0,0,1,6-80.911a29.943,29.943,0,0,1,.971-7.419c-3.233.44-4.966,3.321-6.668,5.268,0-.061,0-.121,0-.181a25.4,25.4,0,0,1,.229-3.268c1.9-1.777,4.526-3.956,7.2-4.274a29.193,29.193,0,0,1,3.124-6.256q-2.59-.9-5.17-1.617a25.354,25.354,0,0,1,1.971-2.226q2.411.732,4.832,1.61a28.357,28.357,0,0,1,4.5-4.452A5.722,5.722,0,0,1,16-106.445q.917-.375,1.868-.678A12.805,12.805,0,0,0,18.632-104.929Z" transform="translate(0)" fill="#262220" fill-rule="evenodd"/><path d="M25.78-108.3h.308l.073,0h.056l.071,0,.057,0,.07,0,.057,0,.069,0,.057,0,.069,0,.057,0,.069,0,.057,0,.069,0,.057,0,.07,0,.056,0,.071,0,.055,0,.073,0,.053,0,.077.006.048,0,.1.008.029,0,.124.01.046,0,.079.007.054.005.07.007.057.006.067.007.059.006.065.007.06.007.064.007.06.007.063.007.061.007.062.007.062.008.061.007.062.008.06.008.063.008.059.008.063.009.058.008.064.009.056.008.066.01.053.008.069.011.044.007.077.012.118.019.084.014.036.006.077.014.044.007.074.013.046.008.073.013.047.009.073.014.047.009.073.014.046.009.074.014.045.009.074.015.044.009.076.016.042.009.077.016.04.008.08.017.035.008.084.018.029.007.09.021.016,0q.333.076.663.161l.012,0,.1.025.019.005.093.025.023.006.091.025.024.007.09.025.025.007.091.026.024.007.091.026.022.007.093.027.018.006.1.028.013,0,.1.031h0q.167.05.332.1a24.431,24.431,0,0,0-13.16,4.141c2.233,2.028,6.127,2.51,10.572,1.958,3.336-.414,6.185-2.5,11.213-.185a25.422,25.422,0,0,1,1.629,3.841,10.688,10.688,0,0,0-6.146-2.223c-3.845.287-6.311.846-8.413,1-4.3.305-7.8-.851-10.343-3.313a25.9,25.9,0,0,0-3.7,3.513,103.728,103.728,0,0,1,18.3,9.412,105.509,105.509,0,0,1,10.3,7.562,25.386,25.386,0,0,1-1,2.558,99.855,99.855,0,0,0-10.7-7.956,98.111,98.111,0,0,0-18.6-9.4,26.685,26.685,0,0,0-2.97,5.575c6.2.921,10.663,3.853,12.868,11.793.719,2.59.34,5.246,1.643,9.991A9.3,9.3,0,0,0,26.9-64.962a25.98,25.98,0,0,1-2.547.692c-3.4-4.417-2.55-8.5-3.5-12.526-2.082-8.854-6.6-10.783-11.478-11.454A27.384,27.384,0,0,0,8.331-80.9a26.939,26.939,0,0,0,5.682,16.8A25.972,25.972,0,0,1,10.5-65,29.52,29.52,0,0,1,6-80.911a29.943,29.943,0,0,1,.971-7.419c-3.233.44-4.966,3.321-6.668,5.268v-.5l0-.094v-.018l0-.077v-.03l0-.067v-.03l0-.08v-.014l0-.1v-.022l0-.074v-.028l0-.073v-.023l0-.1,0-.1v-.02l0-.077v-.022l.005-.086v-.008l.006-.1.007-.1V-84.9l.006-.087V-85l.008-.1.008-.1L.4-85.3V-85.3q.048-.556.121-1.106v-.005l.013-.1c1.9-1.777,4.526-3.956,7.2-4.274a29.193,29.193,0,0,1,3.124-6.256q-2.59-.9-5.17-1.617l.053-.067.012-.016.041-.052.016-.019.041-.051.014-.018.053-.066.013-.015.04-.05.023-.028.03-.037.026-.032.027-.033.028-.033.025-.03.027-.033L6.2-99.3l.033-.04.02-.024.034-.04.019-.023.035-.041.016-.019.037-.043.049-.057.04-.046.013-.015.038-.044.016-.019.038-.043.015-.017.04-.045.05-.056.052-.058.038-.042.018-.02.036-.04.02-.022.036-.039.019-.021.035-.038.052-.057.031-.034.027-.029.03-.032.03-.032.028-.029.035-.037.022-.024.057-.06.013-.013.047-.05.017-.018.045-.046.016-.016.052-.054.008-.008.194-.2q2.411.732,4.832,1.61a28.357,28.357,0,0,1,4.5-4.452A5.722,5.722,0,0,1,16-106.445l.115-.047.113-.045h0l.113-.045.116-.045.114-.044h0l.114-.043.113-.042.006,0,.114-.042.117-.042.113-.04.009,0,.112-.039.112-.038.01,0,.111-.037.008,0,.113-.038.111-.036.015-.005.111-.035a12.805,12.805,0,0,0,.766,2.194,27,27,0,0,1,6.958-3.376h.19Z" transform="translate(0)" fill="#342f2b" fill-rule="evenodd"/></g></g></svg>