<svg xmlns="http://www.w3.org/2000/svg" xmlns:xlink="http://www.w3.org/1999/xlink" width="32" height="32" viewBox="0 0 32 32">
  <defs>
    <clipPath id="clip-Subsidies">
      <rect width="32" height="32"/>
    </clipPath>
  </defs>
  <g id="Subsidies" clip-path="url(#clip-Subsidies)">
    <g id="Group_2599" data-name="Group 2599" transform="translate(-2.173 -3.606)">
      <path id="Path_3209" data-name="Path 3209" d="M-42.119,1371.6h19.958v-6.48h-2.064v-3.005h-1.806V1351.1H-33v-3.431h-3.869v6.526h-3.1v8.861h-2.159Z" transform="translate(50.314 -1340.025)" fill="#fff"/>
      <rect id="Rectangle_4368" data-name="Rectangle 4368" width="3" height="3" transform="translate(18 13.606)" fill="#b6b6b6"/>
      <rect id="Rectangle_4369" data-name="Rectangle 4369" width="2" height="2" transform="translate(12 16.106)" fill="#b6b6b6"/>
      <rect id="Rectangle_4371" data-name="Rectangle 4371" width="2" height="2" transform="translate(12 18.606)" fill="#b6b6b6"/>
    </g>
    <g id="Economy" transform="translate(10.433 16.15)">
      <g id="Group_2352" data-name="Group 2352" transform="translate(-0.013 0)">
        <path id="Path_264" data-name="Path 264" d="M4,14.2,7.639,16.61l7.555-3.84-3.488-2.234Z" transform="translate(-4 -10.536)" fill="#c1ff67"/>
        <path id="Path_267" data-name="Path 267" d="M19.354,15.229v2.559l-7.557,4,0-2.717Z" transform="translate(-8.16 -12.994)" fill="#72ab5e"/>
        <path id="Path_265" data-name="Path 265" d="M7.639,23.363,4,20.645V18.239l3.639,2.406Z" transform="translate(-4 -14.571)" fill="#9adf4b"/>
      </g>
      <ellipse id="Ellipse_535" data-name="Ellipse 535" cx="1.963" cy="0.902" rx="1.963" ry="0.902" transform="translate(3.621 2.167)" fill="#6ab119"/>
    </g>
  </g>
</svg>
