<svg xmlns="http://www.w3.org/2000/svg" xmlns:xlink="http://www.w3.org/1999/xlink" width="64" height="64" viewBox="0 0 64 64">
  <defs>
    <clipPath id="clip-SubwayLine">
      <rect width="64" height="64"/>
    </clipPath>
  </defs>
  <g id="SubwayLine" clip-path="url(#clip-SubwayLine)">
    <path id="Path_1164" data-name="Path 1164" d="M7.966,8.037,38.361-.069a8.121,8.121,0,0,1,8.175,7.7L49,40.477a7.548,7.548,0,0,1-7.915,7.486L9.819,55.215a8.121,8.121,0,0,1-8.175-7.7L-.034,17.288C-.106,13.1,3.523,7.979,7.966,8.037Z" transform="translate(31.373 -4.475) rotate(40)" fill="#da6f48"/>
    <path id="Path_1194" data-name="Path 1194" d="M6.922,6.895,33.349-.069a7.024,7.024,0,0,1,7.108,6.613l2.138,28.221A6.528,6.528,0,0,1,35.713,41.2L8.532,47.425a7.024,7.024,0,0,1-7.108-6.613L-.035,14.843C-.1,11.241,3.059,6.845,6.922,6.895Z" transform="translate(30.93 0.569) rotate(40)" fill="#2c2e2e"/>
    <ellipse id="Ellipse_462" data-name="Ellipse 462" cx="4" cy="4.5" rx="4" ry="4.5" transform="translate(36.187 4.832) rotate(41)" fill="#da6f48"/>
    <ellipse id="Ellipse_465" data-name="Ellipse 465" cx="4" cy="4.5" rx="4" ry="4.5" transform="translate(28.187 47.832) rotate(41)" fill="#da6f48"/>
    <path id="Path_1190" data-name="Path 1190" d="M1038.934,244l2.866,4.7h-4.334L1036,244Z" transform="translate(-1000 -202.648)" fill="#77838d"/>
    <path id="Path_381" data-name="Path 381" d="M1.523-.006a1.552,1.552,0,0,1,1.517,1.6A1.581,1.581,0,0,1,1.511,3.207a1.552,1.552,0,0,1-1.517-1.6A1.581,1.581,0,0,1,1.523-.006Z" transform="matrix(0.998, -0.07, 0.07, 0.998, 26.333, 36.009)" fill="#d1f9ff"/>
    <path id="Path_382" data-name="Path 382" d="M1.523-.006a1.552,1.552,0,0,1,1.517,1.6A1.581,1.581,0,0,1,1.511,3.207a1.552,1.552,0,0,1-1.517-1.6A1.581,1.581,0,0,1,1.523-.006Z" transform="matrix(0.998, -0.07, 0.07, 0.998, 35.902, 36.009)" fill="#d1f9ff"/>
    <rect id="Rectangle_861" data-name="Rectangle 861" width="15" height="6" rx="2" transform="translate(25 26)" fill="#83cbfb"/>
    <path id="Path_1190-2" data-name="Path 1190" d="M1038.934,244l2.866,4.7h-4.334L1036,244Z" transform="translate(-1000 -202.648)" fill="#77838d"/>
    <path id="Path_1195" data-name="Path 1195" d="M1038.864,244,1036,248.7h4.334l1.468-4.7Z" transform="translate(-1012 -202.648)" fill="#77838d"/>
    <path id="Path_1192" data-name="Path 1192" d="M3,0H14a2.867,2.867,0,0,1,3,2.712V15.369c0,1.5-3,2.712-3,2.712a21.743,21.743,0,0,1-5.359.761A25.666,25.666,0,0,1,3,18.081s-3-1.214-3-2.712V2.712A2.867,2.867,0,0,1,3,0Z" transform="translate(24 24)" fill="#8e939a"/>
    <path id="Path_381-2" data-name="Path 381" d="M1.827-.006A1.811,1.811,0,0,1,3.645,1.818,1.844,1.844,0,0,1,1.813,3.654,1.811,1.811,0,0,1-.006,1.831,1.844,1.844,0,0,1,1.827-.006Z" transform="matrix(0.998, -0.07, 0.07, 0.998, 30.333, 35.009)" fill="#d1f9ff"/>
    <rect id="Rectangle_861-2" data-name="Rectangle 861" width="15" height="6" rx="2" transform="translate(25 26)" fill="#83cbfb"/>
    <rect id="Rectangle_1799" data-name="Rectangle 1799" width="9" height="5" rx="2" transform="translate(28 21)" fill="#597079"/>
    <circle id="Ellipse_464" data-name="Ellipse 464" cx="1.5" cy="1.5" r="1.5" transform="translate(33 22)" fill="#fff"/>
    <circle id="Ellipse_466" data-name="Ellipse 466" cx="1.5" cy="1.5" r="1.5" transform="translate(29 22)" fill="#fff"/>
  </g>
</svg>
