<svg xmlns="http://www.w3.org/2000/svg" xmlns:xlink="http://www.w3.org/1999/xlink" width="58" height="28" viewBox="0 0 58 28"><defs><clipPath id="b"><rect width="58" height="28"/></clipPath></defs><g id="a"><g transform="translate(5.105 3.671)"><path d="M15946.54,4419.534a4.028,4.028,0,0,0,2.142.477l38.885.008,3.675-.262s1.506-.083,1.729-.524a2.755,2.755,0,0,0,.246-.986v-1.256l-1.109-.257a50.782,50.782,0,0,0-.866-5.961c-.313-.529-6.605-.411-6.605-.411l-3.657-5.954s-14.691-.571-16.091.448-5.735,5.506-5.735,5.506-11.03,1.754-11.856,2.729c-.388.456-.45,1.864-.486,3.644,0,.041-.838.062-1.124.7C15945.663,4418.6,15945.693,4418.972,15946.54,4419.534Z" transform="translate(-15945.681 -4401.769)" fill="#f7cd33"/><path d="M15956.016,4421.87s-.135-4.7,1.712-5.307a6.243,6.243,0,0,1,4.836.2c1.386.859,1.44,5.111,1.44,5.111Z" transform="translate(-15951.02 -4403.675)" fill="#1d3041"/><path d="M15956.017,4421.87s-.138-4.7,1.724-5.307a6.343,6.343,0,0,1,4.876.2c1.4.859,1.453,5.111,1.453,5.111Z" transform="translate(-15922.849 -4403.675)" fill="#1d3041"/><g transform="translate(5.895 13.329)" fill="#96a6b9" stroke="#3a4654" stroke-width="2"><circle cx="3.5" cy="3.5" r="3.5" stroke="none"/><circle cx="3.5" cy="3.5" r="2.5" fill="none"/></g><g transform="translate(33.895 13.329)" fill="#96a6b9" stroke="#3a4654" stroke-width="2"><circle cx="3.5" cy="3.5" r="3.5" stroke="none"/><circle cx="3.5" cy="3.5" r="2.5" fill="none"/></g><path d="M15968.52,4411.242l3.634-4.711a1.557,1.557,0,0,1,.792-.64c.26-.093.988-.325.988-.325h3.963l-.275,5.677Z" transform="translate(-15952.969 -4401.976)" fill="#36819d"/><path d="M15965.327,4410.5l1.579.438,4.424-5.554h-.631Z" transform="translate(-15951.95 -4401.947)" fill="#36819d"/><path d="M15994.836,4404.943s-.4.247-.528.358-.287.246-.285.392a3.334,3.334,0,0,0,.113.546l2.146,4.146a1.529,1.529,0,0,0,.413.409.739.739,0,0,0,.744,0c.357-.171.787-.327.787-.327Z" transform="translate(-15959.286 -4401.876)" fill="#36819d"/><path d="M15983.8,4405.565v5.648h7.259s.779.035,1.037-.244,0-.874,0-.874l-1.7-4.53Z" transform="translate(-15957.847 -4401.976)" fill="#36819d"/><path d="M15981.1,4403.728l.667-2.437H15983l.718,2.437Z" transform="translate(-15956.985 -4401.291)" fill="#f8b54d"/><path d="M16008.171,4413.7l-.753.172a1.452,1.452,0,0,0-.646.291.778.778,0,0,0-.176.549v1.2a1.443,1.443,0,0,0,.1.823c.188.251.643.183.643.183l1.216.1Z" transform="translate(-15962.296 -4403.28)" fill="#f70"/><path d="M15947.364,4416.517h2.687l.354.4v1.542h-3.189Z" transform="translate(-15946.17 -4403.731)" fill="#9ee2fc"/><rect width="2" height="1" rx="0.5" transform="translate(21.895 10.329)"/><rect width="2" height="1" rx="0.5" transform="translate(32.895 10.329)"/></g></g></svg>