<svg xmlns="http://www.w3.org/2000/svg" xmlns:xlink="http://www.w3.org/1999/xlink" width="64" height="64" viewBox="0 0 64 64">
  <defs>
    <clipPath id="clip-Taxi_Stand_2">
      <rect width="64" height="64"/>
    </clipPath>
  </defs>
  <g id="Taxi_Stand_2" data-name="Taxi Stand – 2" clip-path="url(#clip-Taxi_Stand_2)">
    <rect id="Rectangle_869" data-name="Rectangle 869" width="9" transform="translate(29 13)" fill="#f3e195"/>
    <g id="Group_473" data-name="Group 473" transform="translate(-5.583 0.819)">
      <path id="Rectangle_856" data-name="Rectangle 856" d="M0,0H4A0,0,0,0,1,4,0V4A2,2,0,0,1,2,6H2A2,2,0,0,1,0,4V0A0,0,0,0,1,0,0Z" transform="translate(24.415 38.181)" fill="#fff"/>
      <path id="Rectangle_1790" data-name="Rectangle 1790" d="M0,0H4A0,0,0,0,1,4,0V4A2,2,0,0,1,2,6H2A2,2,0,0,1,0,4V0A0,0,0,0,1,0,0Z" transform="translate(47.415 38.181)" fill="#fff"/>
      <path id="Path_1169" data-name="Path 1169" d="M5.444,0H22.45a4.445,4.445,0,0,1,4.373,4.513L27.7,19.558a1.482,1.482,0,0,1-1.458,1.5H1.458A1.482,1.482,0,0,1,0,19.558L1.071,4.513A4.445,4.445,0,0,1,5.444,0Z" transform="translate(23.916 18.606)" fill="#fff"/>
      <path id="Path_1170" data-name="Path 1170" d="M.633,0H3.378a.584.584,0,0,1,.633.516V2.235a.2.2,0,0,1-.211.172H.211A.2.2,0,0,1,0,2.235V.516A.584.584,0,0,1,.633,0Z" transform="translate(50.156 28.235)" fill="#fff"/>
      <path id="Path_1171" data-name="Path 1171" d="M.562,0H3A.54.54,0,0,1,3.56.516V2.235a.18.18,0,0,1-.187.172H.187A.18.18,0,0,1,0,2.235V.516A.54.54,0,0,1,.562,0Z" transform="translate(21 28.235)" fill="#fff"/>
      <path id="Path_381" data-name="Path 381" d="M2.437-.005A2.436,2.436,0,0,1,4.884,2.414,2.427,2.427,0,0,1,2.441,4.83,2.436,2.436,0,0,1-.005,2.41,2.427,2.427,0,0,1,2.437-.005Z" transform="matrix(0.998, -0.07, 0.07, 0.998, 26.331, 32.166)" fill="#ffa800"/>
      <path id="Path_382" data-name="Path 382" d="M2.437-.005A2.436,2.436,0,0,1,4.884,2.414,2.427,2.427,0,0,1,2.441,4.83,2.436,2.436,0,0,1-.005,2.41,2.427,2.427,0,0,1,2.437-.005Z" transform="matrix(0.998, -0.07, 0.07, 0.998, 44.91, 32.166)" fill="#ffa800"/>
      <path id="Path_1172" data-name="Path 1172" d="M3.01,0H19.674a2.765,2.765,0,0,1,2.674,2.847l.383,2.847a2.765,2.765,0,0,1-2.674,2.847H2.674A2.765,2.765,0,0,1,0,5.695L.335,2.847A2.765,2.765,0,0,1,3.01,0Z" transform="translate(26.331 20.595)" fill="#ffa800"/>
      <path id="Path_1168" data-name="Path 1168" d="M1.456,1.817H11.714L13.12,6.606H0Z" transform="translate(31.204 12)" fill="#fff"/>
      <rect id="Rectangle_1789" data-name="Rectangle 1789" width="10" height="3" rx="1.5" transform="translate(32.415 33.181)" fill="#ffa800"/>
    </g>
  </g>
</svg>
