<svg xmlns="http://www.w3.org/2000/svg" xmlns:xlink="http://www.w3.org/1999/xlink" width="64" height="64" viewBox="0 0 64 64"><defs><clipPath id="b"><rect width="64" height="64"/></clipPath></defs><g id="a"><path d="M2517.031-1004.649a.908.908,0,0,0-.089.478l.233,3.4s2.906,3.085,3.628,3.066l13.291-6.511s.771-.326.87-.548a3.933,3.933,0,0,0,.1-.956v-2.627a1.167,1.167,0,0,0-.1-.564.713.713,0,0,0-.4-.279l-3.438-1.824-9.67,4.1-4.051,2A.776.776,0,0,0,2517.031-1004.649Z" transform="translate(-2497.51 1048.291)" fill="#4f3e2d"/><path d="M2521.068-1099.752l.3,12.705,2.5,1.843,6.541-2.563v-12.763l-3.008-1.665Z" transform="translate(-2497.51 1128.539)" fill="#444141"/><path d="M2519.111-1005.344l.234,3.51s-.2-.011,1.307,1.464a5.248,5.248,0,0,0,2.321,1.6l-.237-4.226a12.313,12.313,0,0,1-2.35-1.253A9,9,0,0,1,2519.111-1005.344Z" transform="translate(-2499.51 1049.291)" fill="#65513c"/><path d="M2520.226-1093.735l.19,7.757,2.5,1.843v-8.042Z" transform="translate(-2496.51 1127.539)" fill="#615e5e"/><path d="M2368.316-1217.247l-7.074,3.5-44.767-29.122v-1.941l7.372-2.586,44.469,27.949Z" transform="translate(-2310.041 1262.121)" fill="#3a3a3a"/><path d="M2323.049-1242.155l43.41,27.778,4.5-1.7-43.487-27.515Z" transform="translate(-2315.371 1259.04)" fill="#555454"/><path d="M2334.293-1240.848l43.279,27.754.69-.209-43.394-27.711Z" transform="translate(-2324.489 1256.951)" fill="#887842"/><path d="M2521.068-1112.935v23.271l2.106,1.582.978-.349v-23.937l-1.956-.912Z" transform="translate(-2494.662 1116.539)" fill="#444141"/><path d="M3042.489-1151.168h0l19.9,36.03-1.261-.312-18.863-34.9" transform="translate(-3013 1156)" fill="#272727"/><path d="M3057.285-1150.025h0l-15.017,11.711.444.347,14.573-11.353" transform="translate(-3030.876 1155.177)" fill="#272727"/><path d="M3057.285-1150.025h0l-11.4,7.979.444.347,10.954-7.621" transform="translate(-3030.876 1161.177)" fill="#272727"/><path d="M3057.285-1150.025h0l-6.358,3.413.444.347,5.914-3.055" transform="translate(-3030.876 1169.177)" fill="#272727"/><path d="M3047.951-1141.149h0l14.441,26.012-1.261-.312-13.4-24.878" transform="translate(-3019 1152)" fill="#272727"/><path d="M3055.046-1128.741h0l7.346,13.6-1.261-.312-6.306-12.469" transform="translate(-3026 1148)" fill="#272727"/></g></svg>