<svg xmlns="http://www.w3.org/2000/svg" xmlns:xlink="http://www.w3.org/1999/xlink" width="26" height="26" viewBox="0 0 26 26">
  <defs>
    <clipPath id="clip-Tourism">
      <rect width="26" height="26"/>
    </clipPath>
  </defs>
  <g id="Tourism" clip-path="url(#clip-Tourism)">
    <ellipse id="Ellipse_928" data-name="Ellipse 928" cx="1" cy="1.5" rx="1" ry="1.5" transform="translate(16 20.939)" fill="#7f858d"/>
    <path id="Path_3747" data-name="Path 3747" d="M308.714-436.617c.287.46,6.724,4.24,6.724,4.24v-10.872s-6.332-4.267-6.724-3.917S308.427-437.077,308.714-436.617Z" transform="translate(-301.42 456.468)" fill="#3fc9d8"/>
    <path id="Path_3748" data-name="Path 3748" d="M316.225-432.286s4.512-2.376,4.811-3,0-10.92,0-10.92l-4.811,3.133Z" transform="translate(-302.207 456.376)" fill="#1c9dab"/>
    <path id="Path_3749" data-name="Path 3749" d="M308.743-447.482s4.017-3.158,4.811-3.085,6.723,4.011,6.723,4.011l-4.782,3.177Z" transform="translate(-301.449 456.784)" fill="#6be8f5"/>
    <path id="Path_3750" data-name="Path 3750" d="M318.443-429.757v-10.75l-7-4.02.7-.47,7.229,4.1v10.756Z" transform="translate(-303 452.939)" fill="#4d4d4d"/>
    <path id="Path_3751" data-name="Path 3751" d="M316.061-445.728v-4.2s-.011-.354.147-.457a.29.29,0,0,1,.31,0l3.671,2.191s.072.047.166.3a1.03,1.03,0,0,1,.063.464v4.374l-1-.624v-4.081l-2.518-1.5v4.077Z" transform="translate(-303 452.341)" fill="#9b9b9b"/>
    <path id="Path_3752" data-name="Path 3752" d="M317.3-450.922c-.231.007-.456.072-.53.524a1.611,1.611,0,0,0,.218.937l2.428,1.425v-.292a.589.589,0,0,1-.156-.344.4.4,0,0,1,.156-.375c.122-.094.333,0,.333,0l.3.156a1.168,1.168,0,0,0-.17-.57A12.882,12.882,0,0,0,317.3-450.922Z" transform="translate(-303 452.939)" fill="#3fc9d8"/>
  </g>
</svg>
