<svg xmlns="http://www.w3.org/2000/svg" xmlns:xlink="http://www.w3.org/1999/xlink" width="26" height="26" viewBox="0 0 26 26"><defs><clipPath id="b"><rect width="26" height="26"/></clipPath></defs><g id="a"><g transform="translate(7 2.27)"><path d="M3.3,0H7.7A3.161,3.161,0,0,1,11,3V9a1.054,1.054,0,0,1-1.1,1H1.1A1.054,1.054,0,0,1,0,9V3A3.161,3.161,0,0,1,3.3,0Z" transform="translate(0 5.732)" fill="#bee0eb"/><ellipse cx="3.5" cy="3" rx="3.5" ry="3" transform="translate(2 0.73)" fill="#c2f0ff"/><path d="M621.3-1702a28.425,28.425,0,0,0,5.125.464,38.776,38.776,0,0,0,5.625-.464l-2.188-1.067s-.125-2.721-3.438-2.664-3,2.438-3,2.438Z" transform="translate(-621 1705.732)" fill="#e1d9b9"/></g><rect width="2" height="2" rx="1" transform="translate(9 21)" fill="#8f98a6"/><rect width="2" height="3" rx="1" transform="translate(14 20)" fill="#8f98a6"/><rect width="9" height="9" rx="2" transform="translate(8 13)" fill="#3fc9d8"/><rect width="7" height="1" rx="0.5" transform="translate(9 10)" fill="#8f98a6"/><rect width="1" height="3" transform="translate(10 10)" fill="#8f98a6"/><rect width="1" height="3" transform="translate(14 10)" fill="#8f98a6"/><rect width="1" height="5" rx="0.5" transform="translate(10 15)" fill="#248b97"/><rect width="1" height="5" rx="0.5" transform="translate(12 15)" fill="#248b97"/><rect width="1" height="5" rx="0.5" transform="translate(14 15)" fill="#248b97"/></g></svg>