<svg xmlns="http://www.w3.org/2000/svg" xmlns:xlink="http://www.w3.org/1999/xlink" width="64" height="64" viewBox="0 0 64 64"><defs><clipPath id="b"><rect width="64" height="64"/></clipPath></defs><g id="a"><g transform="translate(14.972 5.337)"><path d="M8.518,1.153c.316.039,2.6,4.32,10.059,4.444S28.215.6,29.5,1.153c7.548,3.082,8.228,12.319,8.241,15.975s0,10.727,0,10.727a3.592,3.592,0,0,1-3.592,3.592H3.615A3.592,3.592,0,0,1,.023,27.854s-.117-6.948,0-10.727S-.013,4.267,8.518,1.153Z" transform="translate(-1.832 22.754)" fill="#b1e5f5"/><circle cx="11.364" cy="11.364" r="11.364" transform="translate(5.87 2.111)" fill="#b1e5f5"/><path d="M621.3-1693.082a91.086,91.086,0,0,0,16.884,1.572,124.228,124.228,0,0,0,18.53-1.572L649.5-1696.7s-.412-9.223-11.324-9.031-9.883,8.263-9.883,8.263Z" transform="translate(-621.975 1704.985)" fill="#e1d9b9"/><g transform="translate(3.665 25.729)"><path d="M.979,0H4.4a1.11,1.11,0,0,1,.979,1.205v2.41A1.11,1.11,0,0,1,4.4,4.821H.979A1.11,1.11,0,0,1,0,3.616V1.205A1.11,1.11,0,0,1,.979,0Z" transform="translate(3.017)" fill="#585a59"/><path d="M2.889,0H23.026c3.453,0,3.028,3.4,3.028,7.6v6.33c0,4.2.426,7.6-3.028,7.6H2.889c-3.453,0-2.887-3.4-2.887-7.6V7.6C0,3.4-.565,0,2.889,0Z" transform="translate(0.033 2.72)" fill="#768b8f"/><rect width="26.104" height="14.488" transform="translate(0 6.435)" fill="#3e4244"/><g transform="translate(6.38 6.435)" stroke="#bcdede" stroke-width="2"><circle cx="7.244" cy="7.244" r="7.244" stroke="none"/><circle cx="7.244" cy="7.244" r="6.244" fill="none"/></g><g transform="translate(10.838 14.237)" fill="#83b7eb" stroke="#334565" stroke-width="1"><ellipse cx="2.786" rx="2.786" stroke="none"/><ellipse cx="2.786" rx="2.286" ry="0.5" fill="none"/></g></g></g></g></svg>