<svg xmlns="http://www.w3.org/2000/svg" xmlns:xlink="http://www.w3.org/1999/xlink" width="64" height="64" viewBox="0 0 64 64"><defs><clipPath id="b"><rect width="64" height="64"/></clipPath></defs><g id="a"><rect width="7" height="15" rx="3" transform="translate(28.984 41.581)" fill="#c3c2c2"/><path d="M1762.792-398.324l-8.014,6.395L1742.8-399.4V-428.89l8.936-5.7,11.052,6.387Z" transform="translate(-1720.798 442.005)" fill="#6e6e6e"/><path d="M1740.535-345.886l-9.727-5.857v-27.113l9.727,5.659Z" transform="translate(-1707.359 393.581)" fill="#474545"/><path d="M3.286,8.057c1.815,0,3.286-1.8,3.286-4.028S5.1,0,3.286,0,0,1.8,0,4.028,1.471,8.057,3.286,8.057Z" transform="translate(32.731 25.414) rotate(161)" fill="#dd382c"/><path d="M3.265.031C5,.031,6.407,1.77,6.407,3.915S5,7.8,3.265,7.8.123,6.06.123,3.915,1.53.031,3.265.031Z" transform="translate(32.465 33.816) rotate(167)" fill="#e88900"/><path d="M3.317-.076c1.727,0,3.126,1.712,3.126,3.824s-1.4,3.824-3.126,3.824S.191,5.859.191,3.748,1.591-.076,3.317-.076Z" transform="translate(32.513 41.751) rotate(166)" fill="#79dd2c"/><path d="M1.383,3.2A1.5,1.5,0,0,0,2.767,1.6,1.5,1.5,0,0,0,1.383,0,1.5,1.5,0,0,0,0,1.6,1.5,1.5,0,0,0,1.383,3.2Z" transform="translate(30.382 21.774) rotate(161)" fill="#f76d4b"/><path d="M1.383,3.2A1.5,1.5,0,0,0,2.767,1.6,1.5,1.5,0,0,0,1.383,0,1.5,1.5,0,0,0,0,1.6,1.5,1.5,0,0,0,1.383,3.2Z" transform="translate(30.382 30.576) rotate(161)" fill="#f7b84b"/><path d="M1.383,3.2A1.5,1.5,0,0,0,2.767,1.6,1.5,1.5,0,0,0,1.383,0,1.5,1.5,0,0,0,0,1.6,1.5,1.5,0,0,0,1.383,3.2Z" transform="translate(30.382 38.576) rotate(161)" fill="#c3ff7e"/><path d="M1750.818-398.324l-8.014,6.395V-422.95l8.014-5.249Z" transform="translate(-1708.823 442.005)" fill="#5d5959"/></g></svg>