<svg xmlns="http://www.w3.org/2000/svg" xmlns:xlink="http://www.w3.org/1999/xlink" width="28" height="28" viewBox="0 0 28 28">
  <defs>
    <clipPath id="clip-Train">
      <rect width="28" height="28"/>
    </clipPath>
  </defs>
  <g id="Train" clip-path="url(#clip-Train)">
    <path id="Path_3772" data-name="Path 3772" d="M1.238,0c.684,0,1.239.747,1.241,1.666S1.927,3.331,1.243,3.33,0,2.583,0,1.664.554,0,1.238,0Z" transform="matrix(0.985, 0.174, -0.174, 0.985, 10.559, 23.314)" fill="#313131"/>
    <path id="Path_3773" data-name="Path 3773" d="M1.238,0c.684,0,1.239.747,1.241,1.666S1.927,3.331,1.243,3.33,0,2.583,0,1.664.554,0,1.238,0Z" transform="matrix(0.985, 0.174, -0.174, 0.985, 13.075, 21.161)" fill="#313131"/>
    <path id="Path_3774" data-name="Path 3774" d="M1.238,0c.684,0,1.239.747,1.241,1.666S1.927,3.331,1.243,3.33,0,2.583,0,1.664.554,0,1.238,0Z" transform="matrix(0.985, 0.174, -0.174, 0.985, 15.958, 19.606)" fill="#313131"/>
    <path id="Path_3775" data-name="Path 3775" d="M1.238,0c.684,0,1.239.747,1.241,1.666S1.927,3.331,1.243,3.33,0,2.583,0,1.664.554,0,1.238,0Z" transform="matrix(0.985, 0.174, -0.174, 0.985, 23.406, 14.298)" fill="#313131"/>
    <path id="Path_3776" data-name="Path 3776" d="M1.238,0c.684,0,1.239.747,1.241,1.666S1.927,3.331,1.243,3.33,0,2.583,0,1.664.554,0,1.238,0Z" transform="matrix(0.985, 0.174, -0.174, 0.985, 20.398, 16.227)" fill="#313131"/>
    <path id="Ellipse_915_-_Outline" data-name="Ellipse 915 - Outline" d="M1.239.834c-.146,0-.412.315-.412.831s.268.832.414.833.412-.315.412-.831S1.385.834,1.239.834m0-.832c.684,0,1.239.747,1.241,1.666S1.927,3.331,1.243,3.33,0,2.583,0,1.664.554,0,1.238,0Z" transform="matrix(0.985, 0.174, -0.174, 0.985, 10.436, 23.314)" fill="#616664"/>
    <path id="Ellipse_915_-_Outline-2" data-name="Ellipse 915 - Outline" d="M1.239.834c-.146,0-.412.315-.412.831s.268.832.414.833.412-.315.412-.831S1.385.834,1.239.834m0-.832c.684,0,1.239.747,1.241,1.666S1.927,3.331,1.243,3.33,0,2.583,0,1.664.554,0,1.238,0Z" transform="matrix(0.985, 0.174, -0.174, 0.985, 13.231, 21.161)" fill="#616664"/>
    <path id="Ellipse_915_-_Outline-3" data-name="Ellipse 915 - Outline" d="M1.239.834c-.146,0-.412.315-.412.831s.268.832.414.833.412-.315.412-.831S1.385.834,1.239.834m0-.832c.684,0,1.239.747,1.241,1.666S1.927,3.331,1.243,3.33,0,2.583,0,1.664.554,0,1.238,0Z" transform="matrix(0.985, 0.174, -0.174, 0.985, 15.958, 19.606)" fill="#616664"/>
    <path id="Ellipse_915_-_Outline-4" data-name="Ellipse 915 - Outline" d="M1.239.834c-.146,0-.412.315-.412.831s.268.832.414.833.412-.315.412-.831S1.385.834,1.239.834m0-.832c.684,0,1.239.747,1.241,1.666S1.927,3.331,1.243,3.33,0,2.583,0,1.664.554,0,1.238,0Z" transform="matrix(0.985, 0.174, -0.174, 0.985, 23.406, 14.298)" fill="#616664"/>
    <path id="Ellipse_915_-_Outline-5" data-name="Ellipse 915 - Outline" d="M1.239.834c-.146,0-.412.315-.412.831s.268.832.414.833.412-.315.412-.831S1.385.834,1.239.834m0-.832c.684,0,1.239.747,1.241,1.666S1.927,3.331,1.243,3.33,0,2.583,0,1.664.554,0,1.238,0Z" transform="matrix(0.985, 0.174, -0.174, 0.985, 20.398, 16.227)" fill="#616664"/>
    <path id="Path_3735" data-name="Path 3735" d="M214.928-942.356c-1.154.905-2.352,8.455-2.352,8.455a10.217,10.217,0,0,0,.2,3.263c.39.824,6.693,4.335,6.693,4.335v-3.858l2.242-9.781S216.082-943.261,214.928-942.356Z" transform="translate(-211.154 953.327)" fill="#ddd"/>
    <path id="Path_3736" data-name="Path 3736" d="M218.47-925.655c.586.082,17.947-12.3,17.947-12.3v-9.01l-16.061,9.318s-1.6,5.156-2.135,8.189S217.884-925.737,218.47-925.655Z" transform="translate(-210.043 952.539)" fill="#3c9442"/>
    <path id="Path_3738" data-name="Path 3738" d="M221.056-936.968l4.418-2.609,10.183-6.116v4.055l-7.691,4.749-8.131,4.8A47.439,47.439,0,0,1,221.056-936.968Z" transform="translate(-209.277 952.688)" fill="#475f73"/>
    <path id="Path_3742" data-name="Path 3742" d="M212.759-934.219l1.966,1.265v.741l-1.966-1.214Z" transform="translate(-209.118 956.112)" fill="#636363"/>
    <path id="Path_3777" data-name="Path 3777" d="M1919.741,441.2l2.142-5.152,14.459-8.948v2.5Z" transform="translate(-1910 -415)" fill="#1d3041"/>
    <path id="Path_3778" data-name="Path 3778" d="M1918.676,441.507l3.2-10.763,14.56-8.469v-1.9l-7.35-3.176-15.262,8.689,4.4,9.778-.4,4.632a4.571,4.571,0,0,0,.188,1.552C1918.225,442.154,1918.676,441.507,1918.676,441.507Z" transform="translate(-1910 -415)" fill="#ddd"/>
    <path id="Path_3737" data-name="Path 3737" d="M214.3-941.151c-.381.124-1.848,6.138-1.659,6.841s6.263,4.112,6.614,3.693a15.276,15.276,0,0,0,1.8-3.239,35.517,35.517,0,0,0,1.218-3.838,26.117,26.117,0,0,1-5.5-1.486A7.427,7.427,0,0,1,214.3-941.151Z" transform="translate(-211.079 953.478)" fill="#61819c"/>
  </g>
</svg>
