<svg xmlns="http://www.w3.org/2000/svg" xmlns:xlink="http://www.w3.org/1999/xlink" width="64" height="64" viewBox="0 0 64 64"><defs><clipPath id="b"><rect width="64" height="64"/></clipPath></defs><g id="a"><g transform="translate(2.218 2)"><path d="M2905.533,2162.162l13.14,9.576,11.571-9.576Z" transform="translate(-2887.955 -2111.738)" fill="#3c9442"/><circle cx="27.341" cy="27.341" r="27.341" transform="translate(2.441)" fill="#3c9442"/></g><g transform="translate(-20.653 -18.501)"><path d="M2411.99,196.008h9.456l-4.769,3.836Z" transform="translate(-2361.391 -144.409)" fill="#f2eeee"/><path d="M1040.5,244l-4.5,7.393h6.81l2.306-7.393Z" transform="translate(-996.386 -185.238)" fill="#fff"/><path d="M1040.611,244l4.5,7.393h-6.81L1036,244Z" transform="translate(-979.42 -185.133)" fill="#fff"/><path d="M4.021,0H18.765a4.021,4.021,0,0,1,4.021,4.021V22.786c0,2.221-4.021,4.021-4.021,4.021a26.585,26.585,0,0,1-7.182,1.129,31.347,31.347,0,0,1-7.561-1.129S0,25.007,0,22.786V4.021A4.021,4.021,0,0,1,4.021,0Z" transform="translate(41.186 32.824)" fill="#fff"/><path d="M2.681,0H17.424c1.48,0,2.681,1.714,2.681,3.828V7.656c0,2.114-1.233,2.748-2.681,3.828,0,0-3.512,3.114-7.2,3.114s-7.546-3.114-7.546-3.114C.956,10.207,0,9.771,0,7.656V3.828C0,1.714,1.2,0,2.681,0Z" transform="translate(42.758 38.185)" fill="#3c9442"/><rect width="10.94" transform="translate(50.553 38.338)" fill="#f3e195"/><rect width="10.94" height="7.814" rx="2" transform="translate(47.34 31.483)" fill="#fff"/><circle cx="2.127" cy="2.127" r="2.127" transform="translate(50.379 33.065)" fill="#3c9442"/><rect width="5.455" height="2.728" rx="1" transform="translate(55.327 53.98) rotate(-19)" fill="#3c9442"/><rect width="5.437" height="2.719" rx="1" transform="translate(44.926 52.204) rotate(17)" fill="#3c9442"/></g></g></svg>