<svg xmlns="http://www.w3.org/2000/svg" xmlns:xlink="http://www.w3.org/1999/xlink" width="58" height="28" viewBox="0 0 58 28"><defs><clipPath id="b"><rect width="58" height="28"/></clipPath></defs><g id="a"><g transform="translate(3.223 5.104)"><g transform="translate(12.777 13.896)" fill="#1d3041" stroke="#56616e" stroke-width="1"><circle cx="2" cy="2" r="2" stroke="none"/><circle cx="2" cy="2" r="1.5" fill="none"/></g><g transform="translate(17.777 13.896)" fill="#1d3041" stroke="#56616e" stroke-width="1"><circle cx="2" cy="2" r="2" stroke="none"/><circle cx="2" cy="2" r="1.5" fill="none"/></g><g transform="translate(22.777 13.896)" fill="#1d3041" stroke="#56616e" stroke-width="1"><ellipse cx="2.5" cy="2" rx="2.5" ry="2" stroke="none"/><ellipse cx="2.5" cy="2" rx="2" ry="1.5" fill="none"/></g><g transform="translate(28.777 13.896)" fill="#1d3041" stroke="#56616e" stroke-width="1"><circle cx="2" cy="2" r="2" stroke="none"/><circle cx="2" cy="2" r="1.5" fill="none"/></g><g transform="translate(46.777 13.896)" fill="#1d3041" stroke="#56616e" stroke-width="1"><ellipse cx="2.5" cy="2" rx="2.5" ry="2" stroke="none"/><ellipse cx="2.5" cy="2" rx="2" ry="1.5" fill="none"/></g><g transform="translate(41.777 13.896)" fill="#1d3041" stroke="#56616e" stroke-width="1"><circle cx="2" cy="2" r="2" stroke="none"/><circle cx="2" cy="2" r="1.5" fill="none"/></g><g transform="translate(36.777 13.896)" fill="#1d3041" stroke="#56616e" stroke-width="1"><circle cx="2" cy="2" r="2" stroke="none"/><circle cx="2" cy="2" r="1.5" fill="none"/></g><path d="M15492.139,4420.755h42.145v-5.967h-38.154Z" transform="translate(-15482.395 -4404.312)" fill="#1d3041"/><path d="M15525.926,4408.676h-38.6l-4.795,5.96h-4.028s-4.6.715-4.6-2.206,4.028-11.244,10.167-14.188c1.381-.663,4.26-1.1,8.051-1.4,8.637-.063,33.809-.086,33.809-.086Z" transform="translate(-15473.899 -4396.758)" fill="#f4f4f4"/><path d="M15481.439,4417.137l11.51-14.594h36.446v8.763h-38.748l-4.6,5.831Z" transform="translate(-15477.411 -4399.182)" fill="#3c9442"/><path d="M15499.412,4402.543h34.756v4.381H15495.8Z" transform="translate(-15483.72 -4399.182)" fill="#417484"/><path d="M15474.8,4411.782h2.78l8.824-9.6h-4.795a21.881,21.881,0,0,0-4.029,4.173A25.782,25.782,0,0,0,15474.8,4411.782Z" transform="translate(-15474.317 -4399.031)" fill="#3f646f"/></g></g></svg>