<svg xmlns="http://www.w3.org/2000/svg" xmlns:xlink="http://www.w3.org/1999/xlink" width="64" height="64" viewBox="0 0 64 64"><defs><clipPath id="b"><rect width="64" height="64"/></clipPath></defs><g id="a"><path d="M6.387,7.587,29.676.517A6.712,6.712,0,0,1,35.961,7.3l1.953,28.875a6.172,6.172,0,0,1-6.053,6.565L7.905,49.054a6.712,6.712,0,0,1-6.284-6.78L.272,15.7C.208,12.018,2.981,7.528,6.387,7.587Z" transform="translate(33.212 1.499) rotate(40)" fill="#42c7ff"/><path d="M5.738,7,26.613.491c3.055.056,5.582,2.857,5.645,6.255l1.791,26.627c.062,3.4-2.364,6.107-5.419,6.051L7.156,45.237c-3.055-.056-5.582-2.857-5.645-6.255L.265,14.48C.2,11.082,2.683,6.943,5.738,7Z" transform="translate(33.379 3.996) rotate(40)" fill="#99da86"/><path d="M1038.864,244,1036,248.7h4.334l1.468-4.7Z" transform="translate(-1013 -202.648)" fill="#444a4f"/><path d="M1038.934,244l2.866,4.7h-4.334L1036,244Z" transform="translate(-1000 -202.648)" fill="#444a4f"/><ellipse cx="2.5" cy="3" rx="2.5" ry="3" transform="translate(36.219 10.096) rotate(41)" fill="#42c7ff"/><ellipse cx="2.5" cy="3" rx="2.5" ry="3" transform="translate(28.603 48.921) rotate(41)" fill="#42c7ff"/><path d="M3,0H14a3,3,0,0,1,3,3V17c0,1.657-3,3-3,3a19.834,19.834,0,0,1-5.359.842A23.387,23.387,0,0,1,3,20s-3-1.343-3-3V3A3,3,0,0,1,3,0Z" transform="translate(24 22)" fill="#538fa5"/><path d="M1.523-.006a1.552,1.552,0,0,1,1.517,1.6A1.581,1.581,0,0,1,1.511,3.207a1.552,1.552,0,0,1-1.517-1.6A1.581,1.581,0,0,1,1.523-.006Z" transform="matrix(0.998, -0.07, 0.07, 0.998, 26.333, 36.009)" fill="#d1f9ff"/><path d="M1.523-.006a1.552,1.552,0,0,1,1.517,1.6A1.581,1.581,0,0,1,1.511,3.207a1.552,1.552,0,0,1-1.517-1.6A1.581,1.581,0,0,1,1.523-.006Z" transform="matrix(0.998, -0.07, 0.07, 0.998, 35.902, 36.009)" fill="#d1f9ff"/><rect width="15" height="6" rx="2" transform="translate(25 26)" fill="#83cbfb"/><rect width="7" transform="translate(30 24)" fill="#f3e195"/><rect width="7" height="5" rx="2" transform="translate(29 19)" fill="#867463"/><circle cx="1.5" cy="1.5" r="1.5" transform="translate(31 20)" fill="#fff"/></g></svg>