<svg xmlns="http://www.w3.org/2000/svg" xmlns:xlink="http://www.w3.org/1999/xlink" width="64" height="64" viewBox="0 0 64 64"><defs><clipPath id="b"><rect width="64" height="64"/></clipPath></defs><g id="a"><g transform="translate(2.218 2)"><path d="M2905.533,2162.162l13.14,9.576,11.571-9.576Z" transform="translate(-2887.955 -2111.738)" fill="#d942ff"/><circle cx="27.341" cy="27.341" r="27.341" transform="translate(2.441)" fill="#d942ff"/></g><g transform="translate(20.346 17.108)"><path d="M3,0H20a3,3,0,0,1,3,3V23a1,1,0,0,1-1,1H1a1,1,0,0,1-1-1V3A3,3,0,0,1,3,0Z" transform="translate(0.311 -0.108)" fill="#fff"/><path d="M2.012,0A1.991,1.991,0,0,1,4.035,1.94,1.963,1.963,0,0,1,2.023,3.868,1.991,1.991,0,0,1,0,1.928,1.963,1.963,0,0,1,2.012,0Z" transform="matrix(0.998, -0.07, 0.07, 0.998, 1.994, 16.864)" fill="#d942ff"/><path d="M2.012,0A1.991,1.991,0,0,1,4.035,1.94,1.963,1.963,0,0,1,2.023,3.868,1.991,1.991,0,0,1,0,1.928,1.963,1.963,0,0,1,2.012,0Z" transform="matrix(0.998, -0.07, 0.07, 0.998, 17.331, 16.864)" fill="#d942ff"/><rect width="19.317" height="10" rx="2" transform="translate(1.994 4.892)" fill="#d942ff"/><rect width="11" transform="translate(7.311 2.892)" fill="#f3e195"/></g><rect width="13" height="3" transform="translate(25.657 12)" fill="#fff"/><rect width="3" height="4" transform="translate(27.657 13)" fill="#fff"/><rect width="3" height="4" transform="translate(33.657 13)" fill="#fff"/><path d="M1039.514,244,1036,248.977h5.317l1.8-4.977Z" transform="translate(-1015.655 -203)" fill="#fff"/><path d="M1039.6,244l3.516,4.977H1037.8L1036,244Z" transform="translate(-999.705 -203)" fill="#fff"/></g></svg>