<svg xmlns="http://www.w3.org/2000/svg" xmlns:xlink="http://www.w3.org/1999/xlink" width="40" height="40" viewBox="0 0 40 40"><defs><clipPath id="b"><rect width="40" height="40"/></clipPath></defs><g id="a"><path d="M733.5-302.422l17.411,15.436L767.1-297.967v-1.62l-33.595-4.44Z" transform="translate(-731 321.306)" fill="#434343"/><path d="M1223.5-1133.647l17.382,14.892,16.223-10.511-17.525-14.714Z" transform="translate(-1221 1150.886)" fill="#e9e9e9"/><path d="M-.226,19.143s-.375-7.4-.208-7.772A40.122,40.122,0,0,1,3.878,8.53s-.6-4.912-.358-5.317S6.674-1.874,6.674-1.874l2.246.368s-2.9,4.7-3.17,5.021.563,5.716.417,5.927-4.406,2.219-4.614,2.533.454,7.581.454,7.581Z" transform="translate(9.128 16.499) rotate(-42)" fill="#42c7ff"/><path d="M11.058,18.595s-.631-8.425-.853-8.642S-.067,4.391-.283,4.126-1.524-5.519-1.524-5.519l2.362.445s.9,7.813,1.1,8.073,9.586,5.628,9.784,5.954,1.218,9.872,1.218,9.872Z" transform="translate(9.521 19.038) rotate(-42)" fill="#cc7108"/><path d="M.662,12.3c-.006-.088-.91-13.366-.91-13.366L10.363.8l.457,2.333L1.893,1.267l.467,11.266Z" transform="translate(17.551 19.348) rotate(-42)" fill="#72ec21"/><g transform="translate(15.318 20.461) rotate(-56)" fill="#fff" stroke="#707070" stroke-width="1"><ellipse cx="2.5" cy="3" rx="2.5" ry="3" stroke="none"/><ellipse cx="2.5" cy="3" rx="2" ry="2.5" fill="none"/></g></g></svg>