<svg xmlns="http://www.w3.org/2000/svg" xmlns:xlink="http://www.w3.org/1999/xlink" width="64" height="64" viewBox="0 0 64 64"><defs><clipPath id="b"><rect width="64" height="64"/></clipPath></defs><g id="a"><path d="M1912-817.867c1.544,2.06,26.077,15.329,26.077,15.329l.27-18.944L1912-836.907Z" transform="translate(-1900 862.227)" fill="#97a4b6"/><path d="M1940.686-801.33l14.12-11.431V-829.89l-13.849,9.493Z" transform="translate(-1902.606 861.078)" fill="#545f71"/><path d="M1912-838.112l14.1-6.828,26.2,12.823-14.019,9.416Z" transform="translate(-1900 863.431)" fill="#a3b7c8"/><path d="M1927.627-820l-2.647,5.346,2.647,1.487-2.647,4.369,7.344-4.369-2.741-1.487,2.741-3.279Z" transform="translate(-1904.802 855.605)" fill="#ffff47"/><path d="M1919.839-829.681l23.5,13.376,10.456-7.125-23.019-11.356Z" transform="translate(-1905 855)" fill="#545f71"/><rect width="6" height="19" rx="3" transform="translate(38 16)" fill="#222933"/><rect width="6" height="19" rx="3" transform="translate(21 9)" fill="#222933"/><rect width="6" height="19" rx="3" transform="translate(29 12)" fill="#222933"/><rect width="4" height="8" rx="2" transform="translate(39 11)" fill="#9eb9e1"/><rect width="4" height="8" rx="2" transform="translate(22 5)" fill="#9eb9e1"/><rect width="4" height="8" rx="2" transform="translate(30 8)" fill="#9eb9e1"/></g></svg>