<svg xmlns="http://www.w3.org/2000/svg" xmlns:xlink="http://www.w3.org/1999/xlink" width="26" height="26" viewBox="0 0 26 26">
  <defs>
    <clipPath id="clip-Transportation">
      <rect width="26" height="26"/>
    </clipPath>
  </defs>
  <g id="Transportation" clip-path="url(#clip-Transportation)">
    <path id="Path_3658" data-name="Path 3658" d="M219.9-928.871c-.206-.187-1.421-1.01-1.421-1.01s.92-1.878,1.009-1.716S219.9-928.871,219.9-928.871Z" transform="translate(-207.501 951.037)"/>
    <path id="Path_3659" data-name="Path 3659" d="M219.8-929.087a14.488,14.488,0,0,0-1.322-.795s.92-1.878,1.009-1.716S219.8-929.087,219.8-929.087Z" transform="translate(-199.836 946.057)"/>
    <path id="Path_3648" data-name="Path 3648" d="M213.359-941.919c-.525.062-.783,6.7-.783,6.7v2.77l5.764,3.578v-3.224l.651-6.966S213.883-941.981,213.359-941.919Z" transform="translate(-209.059 952.037)" fill="#54b60b"/>
    <path id="Path_3649" data-name="Path 3649" d="M217.99-938.447l12.934-7.416s-4.984-3.063-5.832-3.1-12.768,7.04-12.768,7.04Z" transform="translate(-208.059 952.037)" fill="#84e43d"/>
    <path id="Path_3650" data-name="Path 3650" d="M218.221-928.871l13.635-9.524v-7.529l-12.97,7.529-.665,6.23Z" transform="translate(-209.059 952.037)" fill="#50951d"/>
    <path id="Path_3651" data-name="Path 3651" d="M213.565-941.146c-.318.1-.735,5.377-.576,5.964s4.486,3.259,4.779,2.909a23.22,23.22,0,0,0,.525-6.035C218.071-938.846,213.883-941.25,213.565-941.146Z" transform="translate(-209.059 952.037)" fill="#61819c"/>
    <path id="Path_3652" data-name="Path 3652" d="M219.314-938l4.846-2.93,7.153-4.236v3.457l-6.77,4.38-5.555,3.238C218.681-934.589,219.064-937.612,219.314-938Z" transform="translate(-209.059 952.037)" fill="#475f73"/>
    <path id="Path_3653" data-name="Path 3653" d="M212.759-934.219l.877.636v.906l-.877-.573Z" transform="translate(-205.059 954.037)" fill="#fff"/>
    <path id="Path_3654" data-name="Path 3654" d="M212.759-934.219l.877.636v.906l-.877-.573Z" transform="translate(-209.059 951.633)" fill="#fff"/>
    <path id="Path_3655" data-name="Path 3655" d="M214.915-940.8c-.021-.161,0-1.328,0-1.328l2.7,1.64v1.542Z" transform="translate(-209.059 952.037)" fill="#54b60b"/>
    <path id="Path_3656" data-name="Path 3656" d="M217.527-939.214l1.2-.656-.7-.8-.437.147Z" transform="translate(-209.059 952.037)" fill="#50951d"/>
    <path id="Path_3657" data-name="Path 3657" d="M215.132-941.666l2.206,1.3v.664l-2.206-1.257Z" transform="translate(-209.059 952.037)" fill="#f3e195"/>
    <ellipse id="Ellipse_914" data-name="Ellipse 914" cx="1.5" cy="2" rx="1.5" ry="2" transform="translate(19.537 12.823) rotate(11)" fill="gray"/>
    <path id="Ellipse_914_-_Outline" data-name="Ellipse 914 - Outline" d="M1.5,1C1.324,1,1,1.38,1,2s.324,1,.5,1S2,2.62,2,2s-.324-1-.5-1m0-1C2.328,0,3,.9,3,2S2.328,4,1.5,4,0,3.1,0,2,.672,0,1.5,0Z" transform="translate(19.537 12.823) rotate(11)" fill="#2e3632"/>
    <ellipse id="Ellipse_915" data-name="Ellipse 915" cx="1.5" cy="2" rx="1.5" ry="2" transform="matrix(0.985, 0.174, -0.174, 0.985, 12.071, 18.13)" fill="gray"/>
    <path id="Ellipse_915_-_Outline" data-name="Ellipse 915 - Outline" d="M1.5,1C1.324,1,1,1.38,1,2s.324,1,.5,1S2,2.62,2,2s-.324-1-.5-1m0-1C2.328,0,3,.9,3,2S2.328,4,1.5,4,0,3.1,0,2,.672,0,1.5,0Z" transform="matrix(0.985, 0.174, -0.174, 0.985, 12.071, 18.13)" fill="#2e3632"/>
  </g>
</svg>
