<svg xmlns="http://www.w3.org/2000/svg" xmlns:xlink="http://www.w3.org/1999/xlink" width="64" height="64" viewBox="0 0 64 64">
  <defs>
    <clipPath id="clip-TraumaCenter">
      <rect width="64" height="64"/>
    </clipPath>
  </defs>
  <g id="TraumaCenter" clip-path="url(#clip-TraumaCenter)">
    <rect id="Rectangle_4189" data-name="Rectangle 4189" width="38" height="54" rx="5" transform="translate(13 4)" fill="#4f8198"/>
    <path id="Path_2869" data-name="Path 2869" d="M5.028,1.136A7.244,7.244,0,0,0,10.98,3.765c4.415.073,5.7-2.955,6.463-2.629,4.466,1.823,4.868,7.289,4.876,9.452s0,6.347,0,6.347a2.125,2.125,0,0,1-2.125,2.125H2.127A2.125,2.125,0,0,1,0,16.934s-.069-4.111,0-6.347S-.02,2.978,5.028,1.136Z" transform="translate(20.853 28.927)" fill="#d4efff"/>
    <path id="Path_3214" data-name="Path 3214" d="M13.783,9.908s-1.033,4.134-6.619,4.42A7.164,7.164,0,0,1,0,7.164c0-.178.048-.834.048-.834Z" transform="translate(24.836 16.672)" fill="#d4efff"/>
    <path id="Path_3213" data-name="Path 3213" d="M5041.836,2000.095l14.341,3.493s1.319-7.5-5.791-9.1S5041.836,2000.095,5041.836,2000.095Z" transform="translate(-5017 -1978)" fill="#fff"/>
    <path id="Rectangle_4376" data-name="Rectangle 4376" d="M0,0H12.5A3.5,3.5,0,0,1,16,3.5v0A3.5,3.5,0,0,1,12.5,7H0A0,0,0,0,1,0,7V0A0,0,0,0,1,0,0Z" transform="translate(24 41)" fill="#fff"/>
    <path id="Path_3216" data-name="Path 3216" d="M5051.746,2025.91l7.776-13.923-4.776-4-2.517,2.188-9.022,16.233Z" transform="translate(-5017 -1978)" fill="#4f8198"/>
    <path id="Path_3215" data-name="Path 3215" d="M5055.211,2008.038l-10.731,17.873h5.908l8.624-14.839a6.113,6.113,0,0,0-1.448-1.692A11.6,11.6,0,0,0,5055.211,2008.038Z" transform="translate(-5017 -1978)" fill="#fff"/>
  </g>
</svg>
