<svg xmlns="http://www.w3.org/2000/svg" xmlns:xlink="http://www.w3.org/1999/xlink" width="64" height="64" viewBox="0 0 64 64"><defs><clipPath id="b"><rect width="64" height="64"/></clipPath></defs><g id="a"><path d="M733.426-302.733l29.61,25.369,27.033-16.2v-2.474l-8.621.632-48.021-9.373Z" transform="translate(-729.729 335.842)" fill="#434343"/><path d="M735.865-304.107l34.087,22.391,13.869-8.215-28.775-25.8Z" transform="translate(-731.64 335.022)" fill="#d4d4d4"/><path d="M1224.4-1129.661l29.871,25.1,10.9-6.448-30.016-25.114Z" transform="translate(-1220.736 1160.714)" fill="#929191"/><path d="M1224.4-1129.661l29.871,25.1,7.66-4.456-26.773-27.106Z" transform="translate(-1208.684 1153.599)" fill="#929191"/><path d="M1249.1-1108.867l11.313-6.694Z" transform="translate(-1203.615 1158.607)" fill="gray"/><path d="M1224.4-1129.661l29.871,25.1,3.22-1.742-29.986-24.958Z" transform="translate(-1220.736 1160.714)" fill="#716e6e"/><path d="M1231.995-1134.992l29.876,25.051,7.153-3.857-29.987-25.279Z" transform="translate(-1208.684 1153.599)" fill="#79dd2c"/><path d="M1836.825-447.064l-30.108-25.156.095-1.066,30.013,25.138Z" transform="translate(-1783.689 491.713)" fill="#d4d4d4"/><ellipse cx="3.145" cy="1.836" rx="3.145" ry="1.836" transform="translate(28.721 19.706)" fill="#010101" opacity="0.17"/><ellipse cx="3.145" cy="1.836" rx="3.145" ry="1.836" transform="translate(38.452 27.391)" fill="#010101" opacity="0.17"/><ellipse cx="3.145" cy="1.836" rx="3.145" ry="1.836" transform="translate(48.584 35.732)" fill="#010101" opacity="0.17"/><path d="M.263,0H1.88L2.35,4.386a2.36,2.36,0,0,1-1.186.446A2.248,2.248,0,0,1,0,4.386Z" transform="translate(30.867 16.71)" fill="#976c4f"/><path d="M.263,0H1.88L2.35,4.386a2.36,2.36,0,0,1-1.186.446A2.248,2.248,0,0,1,0,4.386Z" transform="translate(40.598 24.395)" fill="#976c4f"/><path d="M.263,0H1.88L2.35,4.386a2.36,2.36,0,0,1-1.186.446A2.248,2.248,0,0,1,0,4.386Z" transform="translate(50.73 32.736)" fill="#976c4f"/><ellipse cx="4.145" cy="4.671" rx="4.145" ry="4.671" transform="translate(27.95 9.67)" fill="#54b60b"/><ellipse cx="4.145" cy="4.671" rx="4.145" ry="4.671" transform="translate(37.68 17.354)" fill="#54b60b"/><ellipse cx="4.145" cy="4.671" rx="4.145" ry="4.671" transform="translate(47.812 25.696)" fill="#54b60b"/><ellipse cx="3.684" cy="4.171" rx="3.684" ry="4.171" transform="translate(26.107 8.401)" fill="#54b60b"/><ellipse cx="3.684" cy="4.171" rx="3.684" ry="4.171" transform="translate(35.838 16.086)" fill="#54b60b"/><ellipse cx="3.684" cy="4.171" rx="3.684" ry="4.171" transform="translate(45.97 24.427)" fill="#54b60b"/><ellipse cx="2.456" cy="2.669" rx="2.456" ry="2.669" transform="translate(33.169 10.003)" fill="#54b60b"/><ellipse cx="2.456" cy="2.669" rx="2.456" ry="2.669" transform="translate(42.9 17.688)" fill="#54b60b"/><ellipse cx="2.456" cy="2.669" rx="2.456" ry="2.669" transform="translate(53.032 26.029)" fill="#54b60b"/><ellipse cx="3.531" cy="3.67" rx="3.531" ry="3.67" transform="translate(26.107 8.335)" fill="#79dd2c"/><ellipse cx="3.531" cy="3.67" rx="3.531" ry="3.67" transform="translate(35.838 16.02)" fill="#79dd2c"/><ellipse cx="3.531" cy="3.67" rx="3.531" ry="3.67" transform="translate(45.97 24.361)" fill="#79dd2c"/><ellipse cx="2.456" cy="2.002" rx="2.456" ry="2.002" transform="translate(32.555 9.67)" fill="#79dd2c"/><ellipse cx="2.456" cy="2.002" rx="2.456" ry="2.002" transform="translate(42.286 17.354)" fill="#79dd2c"/><ellipse cx="2.456" cy="2.002" rx="2.456" ry="2.002" transform="translate(52.418 25.696)" fill="#79dd2c"/><path d="M4.145,0A4.076,4.076,0,0,1,8.29,4a3.913,3.913,0,0,1-4.145,3.8A3.913,3.913,0,0,1,0,4,4.076,4.076,0,0,1,4.145,0Z" transform="translate(27.632 8.904)" fill="#79dd2c"/><path d="M4.145,0A4.076,4.076,0,0,1,8.29,4a3.913,3.913,0,0,1-4.145,3.8A3.913,3.913,0,0,1,0,4,4.076,4.076,0,0,1,4.145,0Z" transform="translate(37.363 16.589)" fill="#79dd2c"/><path d="M4.145,0A4.076,4.076,0,0,1,8.29,4a3.913,3.913,0,0,1-4.145,3.8A3.913,3.913,0,0,1,0,4,4.076,4.076,0,0,1,4.145,0Z" transform="translate(47.495 24.93)" fill="#79dd2c"/><ellipse cx="4.605" cy="4.171" rx="4.605" ry="4.171" transform="translate(27.643 5.666)" fill="#79dd2c"/><ellipse cx="4.605" cy="4.171" rx="4.605" ry="4.171" transform="translate(37.373 13.351)" fill="#79dd2c"/><ellipse cx="4.605" cy="4.171" rx="4.605" ry="4.171" transform="translate(47.505 21.692)" fill="#79dd2c"/></g></svg>