<svg xmlns="http://www.w3.org/2000/svg" xmlns:xlink="http://www.w3.org/1999/xlink" width="64" height="64" viewBox="0 0 64 64">
  <defs>
    <clipPath id="clip-TwolaneAngledParkingAlley">
      <rect width="64" height="64"/>
    </clipPath>
  </defs>
  <g id="TwolaneAngledParkingAlley" clip-path="url(#clip-TwolaneAngledParkingAlley)">
    <path id="Path_3882" data-name="Path 3882" d="M1192-423.5l-6.59-8.59s-4.616,2.209-4.367,2.646,8.131,10.088,8.131,10.088Z" transform="translate(-1077.758 607.584) rotate(-7)" fill="#706428"/>
    <path id="Path_3878" data-name="Path 3878" d="M1192-423.5l-6.59-8.59s-4.616,2.209-4.367,2.646,8.131,10.088,8.131,10.088Z" transform="translate(-1082.758 611.584) rotate(-7)" fill="#b47300"/>
    <path id="Path_3880" data-name="Path 3880" d="M1192-423.5l-6.59-8.59s-4.616,2.209-4.367,2.646,8.131,10.088,8.131,10.088Z" transform="translate(-1088.758 614.584) rotate(-7)" fill="#61a2d3"/>
    <path id="Path_3883" data-name="Path 3883" d="M1193.068-423.414l-6.83-8.592s-2.307.506-2.058.943,7.528,8.878,7.528,8.878Z" transform="translate(-1078.598 608.665) rotate(-7)" fill="#9a8a39"/>
    <path id="Path_3879" data-name="Path 3879" d="M1193.068-423.414l-6.83-8.592s-2.307.506-2.058.943,7.528,8.878,7.528,8.878Z" transform="translate(-1083.598 611.665) rotate(-7)" fill="#e39c03"/>
    <path id="Path_3881" data-name="Path 3881" d="M1193.068-423.414l-6.83-8.592s-2.307.506-2.058.943,7.528,8.878,7.528,8.878Z" transform="translate(-1089.598 614.665) rotate(-7)" fill="#7ac6ff"/>
    <path id="Path_3884" data-name="Path 3884" d="M1185.44-423.674a4.27,4.27,0,0,1,2.516-2.358c1.767-.486,2.245,0,2.245,0L1188.186-428l-5.493,1.624Z" transform="translate(-1138.115 466.169)" fill="rgba(59,59,59,0.61)"/>
    <path id="Path_3885" data-name="Path 3885" d="M1185.44-423.674a4.27,4.27,0,0,1,2.516-2.358c1.767-.486,2.245,0,2.245,0L1188.186-428l-5.493,1.624Z" transform="translate(-1143.115 470.169)" fill="rgba(59,59,59,0.61)"/>
    <g id="Path_3886" data-name="Path 3886" transform="translate(50.566 41.322) rotate(13)" fill="#4d4324">
      <path d="M 2.563201904296875 4.448550701141357 C 1.581541895866394 4.448550701141357 0.7829018831253052 3.483330726623535 0.7829018831253052 2.296920776367188 C 0.7829018831253052 1.11051082611084 1.581541895866394 0.1452907770872116 2.563201904296875 0.1452907770872116 C 3.544861793518066 0.1452907770872116 4.343502044677734 1.11051082611084 4.343502044677734 2.296920776367188 C 4.343502044677734 3.483330726623535 3.544861793518066 4.448550701141357 2.563201904296875 4.448550701141357 Z" stroke="none"/>
      <path d="M 2.563201904296875 0.6452908515930176 C 1.869211912155151 0.6452908515930176 1.282902002334595 1.401640892028809 1.282902002334595 2.296920776367188 C 1.282902002334595 3.192200660705566 1.869211912155151 3.948550701141357 2.563201904296875 3.948550701141357 C 3.257191896438599 3.948550701141357 3.843502044677734 3.192200660705566 3.843502044677734 2.296920776367188 C 3.843502044677734 1.401640892028809 3.257191896438599 0.6452908515930176 2.563201904296875 0.6452908515930176 M 2.563201904296875 -0.3547091484069824 C 3.822581768035889 -0.3547091484069824 4.843502044677734 0.8324708938598633 4.843502044677734 2.296920776367188 C 4.843502044677734 3.761370658874512 3.822581768035889 4.948550701141357 2.563201904296875 4.948550701141357 C 1.303821802139282 4.948550701141357 0.2829017639160156 3.761370658874512 0.2829017639160156 2.296920776367188 C 0.2829017639160156 0.8324708938598633 1.303821802139282 -0.3547091484069824 2.563201904296875 -0.3547091484069824 Z" stroke="none" fill="#755902"/>
    </g>
    <g id="Path_3887" data-name="Path 3887" transform="translate(45.566 45.322) rotate(13)" fill="#748991">
      <path d="M 2.563201904296875 4.448550701141357 C 1.581541895866394 4.448550701141357 0.7829018831253052 3.483330726623535 0.7829018831253052 2.296920776367188 C 0.7829018831253052 1.11051082611084 1.581541895866394 0.1452907770872116 2.563201904296875 0.1452907770872116 C 3.544861793518066 0.1452907770872116 4.343502044677734 1.11051082611084 4.343502044677734 2.296920776367188 C 4.343502044677734 3.483330726623535 3.544861793518066 4.448550701141357 2.563201904296875 4.448550701141357 Z" stroke="none"/>
      <path d="M 2.563201904296875 0.6452908515930176 C 1.869211912155151 0.6452908515930176 1.282902002334595 1.401640892028809 1.282902002334595 2.296920776367188 C 1.282902002334595 3.192200660705566 1.869211912155151 3.948550701141357 2.563201904296875 3.948550701141357 C 3.257191896438599 3.948550701141357 3.843502044677734 3.192200660705566 3.843502044677734 2.296920776367188 C 3.843502044677734 1.401640892028809 3.257191896438599 0.6452908515930176 2.563201904296875 0.6452908515930176 M 2.563201904296875 -0.3547091484069824 C 3.822581768035889 -0.3547091484069824 4.843502044677734 0.8324708938598633 4.843502044677734 2.296920776367188 C 4.843502044677734 3.761370658874512 3.822581768035889 4.948550701141357 2.563201904296875 4.948550701141357 C 1.303821802139282 4.948550701141357 0.2829017639160156 3.761370658874512 0.2829017639160156 2.296920776367188 C 0.2829017639160156 0.8324708938598633 1.303821802139282 -0.3547091484069824 2.563201904296875 -0.3547091484069824 Z" stroke="none" fill="#8d5b03"/>
    </g>
    <g id="Path_3888" data-name="Path 3888" transform="translate(39.566 48.322) rotate(13)" fill="#4a6068">
      <path d="M 2.563201904296875 4.448550701141357 C 1.581541895866394 4.448550701141357 0.7829018831253052 3.483330726623535 0.7829018831253052 2.296920776367188 C 0.7829018831253052 1.11051082611084 1.581541895866394 0.1452907770872116 2.563201904296875 0.1452907770872116 C 3.544861793518066 0.1452907770872116 4.343502044677734 1.11051082611084 4.343502044677734 2.296920776367188 C 4.343502044677734 3.483330726623535 3.544861793518066 4.448550701141357 2.563201904296875 4.448550701141357 Z" stroke="none"/>
      <path d="M 2.563201904296875 0.6452908515930176 C 1.869211912155151 0.6452908515930176 1.282902002334595 1.401640892028809 1.282902002334595 2.296920776367188 C 1.282902002334595 3.192200660705566 1.869211912155151 3.948550701141357 2.563201904296875 3.948550701141357 C 3.257191896438599 3.948550701141357 3.843502044677734 3.192200660705566 3.843502044677734 2.296920776367188 C 3.843502044677734 1.401640892028809 3.257191896438599 0.6452908515930176 2.563201904296875 0.6452908515930176 M 2.563201904296875 -0.3547091484069824 C 3.822581768035889 -0.3547091484069824 4.843502044677734 0.8324708938598633 4.843502044677734 2.296920776367188 C 4.843502044677734 3.761370658874512 3.822581768035889 4.948550701141357 2.563201904296875 4.948550701141357 C 1.303821802139282 4.948550701141357 0.2829017639160156 3.761370658874512 0.2829017639160156 2.296920776367188 C 0.2829017639160156 0.8324708938598633 1.303821802139282 -0.3547091484069824 2.563201904296875 -0.3547091484069824 Z" stroke="none" fill="#4e7989"/>
    </g>
    <path id="Path_3889" data-name="Path 3889" d="M1185.44-423.674a4.27,4.27,0,0,1,2.516-2.358c1.767-.486,2.245,0,2.245,0L1188.186-428l-5.493,1.624Z" transform="translate(-1149.115 473.045)" fill="rgba(59,59,59,0.61)"/>
    <path id="Path_2186" data-name="Path 2186" d="M724.336-299.35l25.026,22.573,37.711-23.293v-.83l-36.194-14.583-26.542,14.94Z" transform="translate(-723.744 331.201)" fill="#434343"/>
    <path id="Path_2191" data-name="Path 2191" d="M1249.1-1109.689l9.925-5.872Z" transform="translate(-1204.75 1151.478)" fill="gray"/>
    <path id="Path_2193" data-name="Path 2193" d="M1261.486-1114.095l-26.332-22.032Z" transform="translate(-1206.609 1149.144)" fill="#929191"/>
    <path id="Path_2215" data-name="Path 2215" d="M1216.634-1124.816l24.869,22.682,37.767-22.93-26.4-20.8Z" transform="translate(-1215.861 1155.436)" fill="#716e6e"/>
    <path id="Path_4156" data-name="Path 4156" d="M1513.121-1071.243l5.272-6.632.7.536-5.313,6.781Z" transform="translate(-1462.858 1102.548)" fill="#bababa"/>
    <path id="Path_4163" data-name="Path 4163" d="M1513.121-1071.243l5.272-6.632.7.536-5.313,6.781Z" transform="translate(-1468.392 1097.724)" fill="#bababa"/>
    <path id="Path_4164" data-name="Path 4164" d="M1513.121-1071.243l5.272-6.632.7.536-5.313,6.781Z" transform="translate(-1473.543 1093.538)" fill="#bababa"/>
    <path id="Path_4165" data-name="Path 4165" d="M1513.121-1071.243l5.272-6.632.7.536-5.313,6.781Z" transform="translate(-1480.009 1088.538)" fill="#bababa"/>
    <path id="Path_4158" data-name="Path 4158" d="M1510.867-1069.3l4.986-5.755.7.536-5.027,5.9Z" transform="translate(-1504.571 1104.716)" fill="#bababa"/>
    <path id="Path_4160" data-name="Path 4160" d="M1510.867-1069.3l4.986-5.755.7.536-5.027,5.9Z" transform="translate(-1498.88 1109.656)" fill="#bababa"/>
    <path id="Path_4161" data-name="Path 4161" d="M1510.867-1069.3l4.986-5.755.7.536-5.027,5.9Z" transform="translate(-1493.88 1114.513)" fill="#bababa"/>
    <path id="Path_4162" data-name="Path 4162" d="M1510.867-1069.3l4.986-5.755.7.536-5.027,5.9Z" transform="translate(-1488.19 1119.49)" fill="#bababa"/>
    <path id="Path_2192" data-name="Path 2192" d="M1226.377-1131.5l26.1,21.889,15.154-9.261-25.86-21.588Z" transform="translate(-1215.861 1156.122)" fill="#929191"/>
    <path id="Path_2281" data-name="Path 2281" d="M15819.9,3491.032l26.677,21.818,1.081-.606-26.985-21.6Z" transform="translate(-15801.774 -3470.798)" fill="rgba(212,212,212,0.61)"/>
    <path id="Path_4168" data-name="Path 4168" d="M15820.339,3492.319l25.1,22.887,1.082-.606-25.406-22.666Z" transform="translate(-15819.896 -3461.975)" fill="#d4d4d4"/>
    <path id="Path_4171" data-name="Path 4171" d="M15820.339,3492.319l25.7,20.982,1.082-.606-26.008-20.761Z" transform="translate(-15783.758 -3482.488)" fill="#d4d4d4"/>
  </g>
</svg>
