<svg xmlns="http://www.w3.org/2000/svg" xmlns:xlink="http://www.w3.org/1999/xlink" width="64" height="64" viewBox="0 0 64 64"><defs><clipPath id="b"><rect width="64" height="64"/></clipPath></defs><g id="a"><path d="M2169.913-1623.783l5.17-2.666-.539-1.174-5.569,2.755Z" transform="translate(-2128 1667)" fill="#282727"/><path d="M2169.913-1623.783l5.17-2.666-.539-1.174-5.569,2.755Z" transform="translate(-2133 1660)" fill="#282727"/><path d="M2170.237-1623.946l4.846-2.5-.539-1.174-5.569,2.755Z" transform="translate(-2142 1651)" fill="#282727"/><path d="M2169.913-1623.783l5.17-2.666-.539-1.174-5.569,2.755Z" transform="translate(-2150 1646)" fill="#282727"/><path d="M2170.132-1624.115l4.951-2.333-1.194-.632-4.914,2.213Z" transform="translate(-2157 1645)" fill="#282727"/><path d="M2521.616-1098.931v12.823l-2.306,2.118,6.2,4.3,7.828-3.883-2.805-5V-1100.7l-2.218-1.465Z" transform="translate(-2514.231 1108.26)" fill="#323232"/><path d="M2519.311-1006.742v3.53l5.961,4.536,7.9-4.218.158-3.487-7.643,3.822Z" transform="translate(-2514.231 1031.012)" fill="#111"/><path d="M2525.457-1058.975l-1.831-5.726v-10.407l-2.246-1.462v11.206l-2.355,2.125Z" transform="translate(-2514 1087.542)" fill="#6b6a6a"/><path d="M2369.2-1137.542s-8.88-15.938-17.821-23.128a25.312,25.312,0,0,0-18.171-5.816v-1.068s9.042-1.41,18.171,5.886,18.634,23.745,18.634,23.745Z" transform="translate(-2323.604 1187.568)" fill="#282727"/><path d="M2368.967-1137.725s-8.652-15.755-17.593-22.945a25.312,25.312,0,0,0-18.171-5.816v-1.068s9.042-1.41,18.171,5.886,18.346,23.3,18.346,23.3Z" transform="translate(-2317.93 1185.093)" fill="#1f1e1e"/><path d="M2371.107-1150.665s-9.86-16.562-19.222-23.812-18.227-5.185-18.227-5.185v-1.149s9.1-1.979,18.465,5.253,18.984,23.676,18.984,23.676Z" transform="translate(-2323.974 1198.413)" fill="#282727"/><path d="M2371.107-1150.665s-9.86-16.562-19.222-23.812-18.227-5.185-18.227-5.185v-1.149s9.1-1.979,18.465,5.253,18.984,23.676,18.984,23.676Z" transform="translate(-2318.299 1195.937)" fill="#1f1e1e"/><path d="M2521.616-1098.931v12.823l-2.306,2.118,6.2,4.3,7.828-3.883-2.805-5V-1100.7l-2.218-1.465Z" transform="translate(-2474.51 1134.539)" fill="#4e4e4e"/><path d="M2525.457-1058.975l-1.831-5.726v-10.407l-2.246-1.462v11.206l-2.355,2.125Z" transform="translate(-2474.278 1113.822)" fill="#787777"/><path d="M2519.311-1006.742v3.53l5.961,4.536,8.048-4.359v-3.353l-7.636,3.83Z" transform="translate(-2474.51 1057.291)" fill="#111"/><path d="M2368.316-1217.247l-7.074,3.5-44.767-29.122v-1.941l7.372-2.586,44.469,27.949Z" transform="translate(-2310.041 1252.121)" fill="#3a3a3a"/><path d="M2322.063-1241.818l44.26,28.418,7.286-2.986-44.308-27.927Z" transform="translate(-2315.371 1249.04)" fill="#837d7d"/><path d="M2334.293-1240.848l43.279,27.754.69-.209-43.394-27.711Z" transform="translate(-2324.489 1246.951)" fill="#c1beb3"/><path d="M2140.923-1646.411c.091-.336.135-6.948.135-6.948l1.19.83-.158,6.276Z" transform="translate(-2128 1667)" fill="#282727"/><path d="M2146.975-1645.455c.045-.15,0-4.164,0-4.164l1.568,1.167v3.607Z" transform="translate(-2128 1667)" fill="#282727"/><path d="M2156.975-1639.823c-.094-.178,0-3.294,0-3.294l1.317.965v3.292Z" transform="translate(-2130 1666)" fill="#282727"/><path d="M2163.975-1631.51c.143-.178,0-7.194,0-7.194l1.064.851v7.375Z" transform="translate(-2128 1667)" fill="#282727"/><path d="M2168.975-1624.854v-10.465l1.308.874-.135,11.114Z" transform="translate(-2128 1667)" fill="#282727"/><path d="M2169.629-1634.664l4.337,17.191.634-.739-4.2-16.185Z" transform="translate(-2128 1667)" fill="#282727"/><path d="M2164-1638.406l5.118,13.687,1.04,1.218-5.177-14.486Z" transform="translate(-2128 1667)" fill="#282727"/><path d="M2155.613-1643.623l8.6,11.822v-1.1l-6.484-9.666Z" transform="translate(-2128 1667)" fill="#282727"/><path d="M2154.933-1641.054l-7.882-8.368,1.491.875,6.948,7.107Z" transform="translate(-2128 1667)" fill="#282727"/><path d="M2146.729-1645.238l-5.392-7.636,1.072.277,5.154,6.841Z" transform="translate(-2128 1667)" fill="#282727"/><path d="M2140.718-1646.7c-.034-.167-2.849-6.893-2.849-6.893v-.755l.914.494,2.693,6.776Z" transform="translate(-2128 1667)" fill="#282727"/><path d="M2169.629-1624.452l5.367-6.573v1.544l-5,5.953Z" transform="translate(-2128 1667)" fill="#282727"/><path d="M2155.49-1640.7l8.441,2.147.531.512-8.257-1.8Z" transform="translate(-2128 1667)" fill="#282727"/><path d="M2147.564-1645.238l7.381.908.687.335-.14.758-6.884-1.3Z" transform="translate(-2128 1667)" fill="#282727"/><path d="M2141.475-1646.7c.179-.045,5.532-2.934,5.532-2.934l.721.634-5.424,2.765Z" transform="translate(-2128 1667)" fill="#282727"/></g></svg>