<svg xmlns="http://www.w3.org/2000/svg" xmlns:xlink="http://www.w3.org/1999/xlink" width="64" height="64" viewBox="0 0 64 64"><defs><clipPath id="b"><rect width="64" height="64"/></clipPath></defs><g id="a"><path d="M2329.688-1629.179l-12.432-7.971v-4.775l14.177,8.236-.716,4.971Z" transform="translate(-2272 1667)" fill="#1d1d1d"/><path d="M2519.077-1005.73l.268,3.9,3.628,3.066,10.3-5.266v-4.195l-3.9-1.964-7.916,3.271Z" transform="translate(-2474.51 1057.291)" fill="#5b4834"/><path d="M2519.077-1005.73l.268,3.9,3.628,3.066,10.3-5.266v-4.195l-3.9-1.964-7.916,3.271Z" transform="translate(-2514.51 1031.291)" fill="#5b4834"/><path d="M2520.117-1098.683l.3,12.705,2.5,1.843,9.282-4.164v-12.763l-3.008-1.665Z" transform="translate(-2474.51 1137.539)" fill="#4e4e4e"/><path d="M2520.117-1098.683l.3,12.705,2.5,1.843,9.282-4.164v-12.763l-3.008-1.665Z" transform="translate(-2514.51 1111.539)" fill="#4e4e4e"/><path d="M2368.316-1217.247l-7.074,3.5-44.767-29.122v-1.941l7.372-2.586,44.469,27.949Z" transform="translate(-2310.041 1256.121)" fill="#3a3a3a"/><path d="M2519.077-1005.73l.268,3.9,3.628,3.066-.237-4.226Z" transform="translate(-2474.51 1057.291)" fill="#7c644c"/><path d="M2519.077-1005.73l.268,3.9,3.628,3.066-.237-4.226Z" transform="translate(-2514.51 1031.291)" fill="#7c644c"/><path d="M2321.825-1624.63v-8.863l-43.463-25.815v7.844l3.726,2.677,1.765-.657,30.914,20.07.853,2.814,2.48,1.441v-2.03l2.157,1.108v2.814l1.569.853Z" transform="translate(-2272 1667)" fill="#807c7c"/><path d="M2321.825-1622.375v-11.246l4.51-3.726,5.49,1.448-.24,8.395-1.653,1v-7.118l-6.079,2.089v8.04Z" transform="translate(-2272 1667)" fill="#5c5858"/><path d="M2321.825-1633.424l4.463-3.673,5.3,1.2-43.7-24.407-4.953-1.68-4.706,2.873Z" transform="translate(-2272 1667)" fill="#262626"/><path d="M2520.226-1093.735l.19,7.757,2.5,1.843v-8.042Z" transform="translate(-2474.51 1137.539)" fill="#615e5e"/><path d="M2520.226-1093.735l.19,7.757,2.5,1.843v-7.69Z" transform="translate(-2514.51 1111.539)" fill="#615e5e"/></g></svg>