<svg xmlns="http://www.w3.org/2000/svg" xmlns:xlink="http://www.w3.org/1999/xlink" width="64" height="64" viewBox="0 0 64 64"><defs><clipPath id="b"><rect width="64" height="64"/></clipPath></defs><g id="a"><g transform="translate(-3.277 -2.724)"><path d="M733.484-300.808l5.307,4.162L764.9-312.724v-1.832L733.484-303.12Z" transform="translate(-726.866 331.521)" fill="#61544c"/><path d="M733.484-300.808l5.307,4.162L764.9-312.724v-1.832L733.484-303.12Z" transform="translate(-700.904 355.254)" fill="#61544c"/><path d="M733.484-300.808l5.307,4.162L764.9-312.724v-1.832L733.484-303.12Z" transform="translate(-714.817 343.237)" fill="#61544c"/><path d="M1212.373-1120.46l5.39,4.247,26.086-15.648-5.762-4.266-1.173.715Z" transform="translate(-1205.82 1148.786)" fill="#a1886c"/><path d="M1212.373-1120.46l5.39,4.247,26.086-15.648-5.762-4.266-1.173.715Z" transform="translate(-1179.859 1172.519)" fill="#887056"/><path d="M1212.373-1120.46l5.39,4.247,26.086-15.648-5.762-4.266-1.173.715Z" transform="translate(-1193.771 1160.503)" fill="#987e61"/><path d="M785.674-285.838l-33.14-28.757Z" transform="translate(-735.461 333.338)" fill="#e9bc29"/><path d="M785.674-285.838l-33.14-28.757Z" transform="translate(-724.148 325.436)" fill="#e9bc29"/><path d="M734.453-301.915,766.91-274.1l1.964-1.762V-279L734.453-304.8Z" transform="translate(-723.438 328.178)" fill="gray"/><path d="M1224.466-1130.618l32.539,27.635,2.515-1.773-32.045-27.839Z" transform="translate(-1213.437 1153.735)" fill="#d8d5d5"/><path d="M43.545,54.075V50.66l2.52-1.808v3.32Z" fill="#575656"/><path d="M734.453-301.915,766.91-274.1l1.964-1.762V-279L734.453-304.8Z" transform="translate(-710.438 319.698)" fill="gray"/><path d="M1224.466-1130.618l32.539,27.635,2.515-1.773-32.045-27.839Z" transform="translate(-1200.437 1145.255)" fill="#d8d5d5"/><path d="M43.545,54.075V50.66l2.52-1.808v3.32Z" transform="translate(13 -8.48)" fill="#575656"/></g><path d="M781.893-289.118l-29.36-25.477Z" transform="translate(-736.661 332.436)" fill="#e9bc29"/><path d="M781.893-289.118l-29.36-25.477Z" transform="translate(-726.638 325.436)" fill="#e9bc29"/></g></svg>