<svg xmlns="http://www.w3.org/2000/svg" xmlns:xlink="http://www.w3.org/1999/xlink" width="32" height="32" viewBox="0 0 32 32">
  <defs>
    <clipPath id="clip-UbPr_Residential_Mixed">
      <rect width="32" height="32"/>
    </clipPath>
  </defs>
  <g id="UbPr_Residential_Mixed" data-name="UbPr Residential Mixed" clip-path="url(#clip-UbPr_Residential_Mixed)">
    <g id="a" transform="translate(1 1.657)">
      <g id="Group_2846" data-name="Group 2846">
        <path id="Path_4062" data-name="Path 4062" d="M1.149,17.829l16.188,10.1,13.515-10.1L14.34,9.672Z" fill="#00c1ff"/>
      </g>
      <path id="Path_4063" data-name="Path 4063" d="M6.26,16.8l11.725,7.117.12-8.369L6.288,9.409Z" fill="#d2d2d2"/>
      <path id="Path_4064" data-name="Path 4064" d="M6.26,16.8l11.725,7.117.648-8.871L6.288,9.409Z" fill="#d2d2d2"/>
      <path id="Path_4065" data-name="Path 4065" d="M16,16.892l1.145.616V16.431L16,15.825m-7.934-4.2-.477-.252v.991l.477.257M13.89,15.76l.532.286V14.991l-.532-.281m-2.078-.071.894.481V14.083l-.894-.473m-1.312.323.858.462V13.37l-.858-.455M8.77,13l.525.282V12.278L8.77,12" fill="#769ba0"/>
      <path id="Path_4066" data-name="Path 4066" d="M14.653,16.159l1.146.616V15.7l-1.146-.606M7.1,11.112l-.477-.252v.991l.477.257m6.072,3.266.532.286V14.606l-.532-.282m-3.639-.907.625.345V12.736L9.534,12.4M7.8,12.487l.524.282V11.762L7.8,11.484" fill="#769ba0"/>
      <path id="Path_4067" data-name="Path 4067" d="M16,18.874l1.145.634V18.341L16,17.727M7.589,13.216l-.728-.39v.988l.728.4m7.082,3.92.835.463V17.462l-.835-.448m-1.965.036.537.3v-1.1l-.537-.288M10.5,15.828l.858.476V15.238l-.858-.461m-2.434-.3.7.39V13.85l-.7-.378" fill="#769ba0"/>
      <path id="Path_4068" data-name="Path 4068" d="M14.7,18.161l1.145.634V17.629L14.7,17.015M13.5,17.5l.835.462V16.821l-.835-.448m-1.781.155.537.3v-1.1l-.537-.288m-2.525-.323.859.475V14.525l-.859-.46m-2.434-.3.7.389V13.137l-.7-.377" fill="#769ba0"/>
      <path id="Path_4069" data-name="Path 4069" d="M6.274,17.018l11.757,7.009v-2.8L6.274,14.675Z" fill="#0089cf"/>
      <path id="Path_4070" data-name="Path 4070" d="M17.987,23.936l7.228-5.24.278-9.917L21.034,11.55v2.239L18.117,15.55Z" fill="#004b12"/>
      <path id="Path_4071" data-name="Path 4071" d="M6.288,9.4,18.112,15.55l.048-.279L13.617,5.72Z" fill="#f6f6f6"/>
      <path id="Path_4072" data-name="Path 4072" d="M17.986,21.2,25.2,16.622v2.2l-7.218,5.131Z" fill="#0071a9"/>
      <path id="Path_4073" data-name="Path 4073" d="M6.828,17.4v-1.81L17.149,21.24v2.289Z" fill="#03243e"/>
      <path id="Path_4074" data-name="Path 4074" d="M16.806,21.021l.231-.11V20.04L7.329,14.924l-.334.136Z" fill="#0071a9"/>
      <path id="Path_4075" data-name="Path 4075" d="M8.386,16.3v2.044l.922.51v-2.1Z" fill="#0089cf"/>
      <path id="Path_4076" data-name="Path 4076" d="M14.305,19.693v2.148l.966.581v-2.2Z" fill="#0089cf"/>
      <path id="Path_4077" data-name="Path 4077" d="M6.988,15.048v.67l9.818,5.3v-.77Z" fill="#73d0ff"/>
      <path id="Path_4078" data-name="Path 4078" d="M12.669,7.2,20.628,13.8,18.16,15.344,7.465,9.721Z" fill="#f6f6f6"/>
      <path id="Path_4079" data-name="Path 4079" d="M9.228,8.959,19.805,14.33l1.229-.541.023-2.227L9.24,5.421Z" fill="#d2d2d2"/>
      <path id="Path_4080" data-name="Path 4080" d="M19.049,11.685l-.495-.253v1.062l.495.257m-2.758-1.432.9.465v-1.05l-.9-.457M9.909,8l.728.378V7.39l-.728-.371Zm3.2.647-.763-.39V9.268l.763.4m1.3-.35-.859-.439V9.894l.859.446" fill="#769ba0"/>
      <path id="Path_4081" data-name="Path 4081" d="M7.925,9.941l1.6-.791V8.113L6.837,9.431Z" fill="#004b12"/>
      <path id="Path_4082" data-name="Path 4082" d="M18.155,15.271l2.66-1.586.216.1L18.117,15.55Z" fill="#f6f6f6"/>
      <path id="Path_4083" data-name="Path 4083" d="M6.288,9.424l2.951-1.5.285.2L6.835,9.443Z" fill="#f6f6f6"/>
      <path id="Path_4084" data-name="Path 4084" d="M20.194,12.263l-.5-.252v1.062l.5.257M17.437,11.9l.894.464v-1.05l-.894-.456M11.055,8.582l.727.378V7.969L11.055,7.6Zm3.2.647-.764-.389V9.846l.764.4m1.3-.35-.859-.438v1.017l.859.447" fill="#769ba0"/>
      <path id="Path_4085" data-name="Path 4085" d="M11.473,5.206l2.867-1.23L23.692,8.4l-2.724,1.683Z" fill="#01cf1e"/>
      <path id="Path_4086" data-name="Path 4086" d="M9.22,5.417,20.9,11.49l.153.081,4.439-2.8L13.6,3.426Z" fill="#fff"/>
      <path id="Path_4087" data-name="Path 4087" d="M13.592,3.847,24.843,8.956l-3.765,2.328L10.005,5.527Z" fill="#f6f6f6"/>
      <path id="Path_4088" data-name="Path 4088" d="M13.6,4.316l10.5,4.807L21.2,10.86,10.8,5.692Z" fill="#79ba00"/>
      <path id="Path_4089" data-name="Path 4089" d="M10.017,5.527,13.6,3.847V3.6L9.769,5.408Z" fill="#004b12"/>
      <path id="Path_4090" data-name="Path 4090" d="M24.843,8.955,13.6,3.847V3.6l11.533,5.19Z" fill="#d2d2d2"/>
      <path id="Path_4091" data-name="Path 4091" d="M9.22,5.419,13.6,3.426V3.6L9.769,5.408Z" fill="#fff"/>
    </g>
  </g>
</svg>
