<svg xmlns="http://www.w3.org/2000/svg" xmlns:xlink="http://www.w3.org/1999/xlink" width="42" height="42" viewBox="0 0 42 42"><defs><clipPath id="b"><rect width="42" height="42"/></clipPath></defs><g id="a"><path d="M12.2,3.745a2,2,0,0,1,3.6,0l1.924,4a2,2,0,0,0,1.559,1.118l4.407.541a2,2,0,0,1,1.107,3.46L21.624,15.77a2,2,0,0,0-.612,1.86l.828,4.223A2,2,0,0,1,18.93,24l-3.983-2.141a2,2,0,0,0-1.894,0L9.07,24a2,2,0,0,1-2.91-2.146l.828-4.223a2,2,0,0,0-.612-1.86L3.2,12.862A2,2,0,0,1,4.308,9.4l4.407-.541a2,2,0,0,0,1.559-1.118Z" transform="translate(7 8)" fill="#71ff5b"/></g></svg>