<svg xmlns="http://www.w3.org/2000/svg" xmlns:xlink="http://www.w3.org/1999/xlink" width="32" height="32" viewBox="0 0 32 32"><defs><clipPath id="b"><rect width="32" height="32"/></clipPath></defs><g id="a"><g transform="translate(0.794 2)"><path d="M-5117.03-8618.4v-11.491h-5.575l14.91-13.493,3.595,4.143v-5.608h4.171v8.675l7.709,6.284h-6.345v11.491Z" transform="translate(5122.604 8644.846)" fill="#7a7a7a"/></g><path d="M19.418,4.424c-.084-.34-.66-.65-.907-.4l-2.787,2.8L13.181,6.4l-.424-2.556,2.787-2.8c.248-.249.341-1.658,0-1.743C13.768-1.144,11.6.316,10.213,1.71,8.728,3.2,8.7,5.863,9.318,7.75l-9.893,8.1c-.937.941-.749,3.274.187,4.215a2.391,2.391,0,0,0,3.392,0l8.89-9.974c1.878.629,4.456.792,5.952-.71a5.18,5.18,0,0,0,1.573-4.954Z" transform="translate(7 5.415)" fill="#475766"/><path d="M19.288,4.132a.449.449,0,0,0-.755-.209L15.74,6.74l-2.549-.428-.425-2.571L15.559.924a.457.457,0,0,0-.213-.764A5.372,5.372,0,0,0,10.218,1.6C8.729,3.1,8.7,5.775,9.321,7.673L-.4,16.631a2.439,2.439,0,0,0,0,3.428,2.388,2.388,0,0,0,3.4,0L11.9,10.025c1.882.633,4.465.8,5.963-.714a5.484,5.484,0,0,0,1.423-5.179Z" transform="translate(7 4.415)" fill="#d7e3f0"/></g></svg>