<svg xmlns="http://www.w3.org/2000/svg" xmlns:xlink="http://www.w3.org/1999/xlink" width="26" height="26" viewBox="0 0 26 26">
  <defs>
    <clipPath id="clip-WaterPollution_4">
      <rect width="26" height="26"/>
    </clipPath>
  </defs>
  <g id="WaterPollution_4" data-name="WaterPollution – 4" clip-path="url(#clip-WaterPollution_4)">
    <g id="Group_2737" data-name="Group 2737" transform="translate(3.973 3.462)">
      <path id="Path_4216" data-name="Path 4216" d="M-2.495,6.688A7.62,7.62,0,0,0,.643,5.2,8.44,8.44,0,0,0,2.6,2.2a4.987,4.987,0,0,0,2.549.971A4.987,4.987,0,0,0,7.7,2.2a3.878,3.878,0,0,0,2.353,1.559,14.192,14.192,0,0,0,4.245,0L11.722,9.887,2.6,9.057H-.21Z" fill="#a3cc00"/>
      <path id="Path_3713" data-name="Path 3713" d="M10.433,21.72V17.407L20.392,10.9l-.1,4.323Z" fill="#0284be"/>
      <path id="Path_2217" data-name="Path 2217" d="M733.551-300.106,746.5-289.014v-4.341a32.666,32.666,0,0,1-5.165-4.345,12.435,12.435,0,0,1-2.549-4.334,4.126,4.126,0,0,1-2.638,0,8.394,8.394,0,0,1-2.639-1.993Z" transform="translate(-736 310.715)" fill="#6dd2ff"/>
      <path id="Path_2218" data-name="Path 2218" d="M1228.672-1134.026a26.616,26.616,0,0,0,3.392,5.236,17.46,17.46,0,0,0,4.279,3.431l2.877-1.9s1.549,1.424,2.815.587,2.25-3.934,2.25-3.934l2.054-1.358a9.689,9.689,0,0,1-3.506-2.861,27.043,27.043,0,0,1-2.465-4.622,5.852,5.852,0,0,1-2.5,1.87,7.113,7.113,0,0,1-3.318,0,9.332,9.332,0,0,1-2.49,2.361A10.859,10.859,0,0,1,1228.672-1134.026Z" transform="translate(-1226 1142.887)" fill="#cdff08"/>
    </g>
  </g>
</svg>
