<svg xmlns="http://www.w3.org/2000/svg" xmlns:xlink="http://www.w3.org/1999/xlink" width="26" height="26" viewBox="0 0 26 26"><defs><clipPath id="b"><rect width="26" height="26"/></clipPath></defs><g id="a"><path d="M15,4.684V12a4,4,0,0,1-4,4H4a4,4,0,0,1-4-4V4.684Z" transform="translate(6 6)" fill="#43515f"/><path d="M9.5,0,19,8H0Z" transform="translate(4 2)" fill="#1396d0"/><g transform="translate(2.659 7.518)"><path d="M10.906,4.208,8.353,9.127A2.435,2.435,0,0,0,10.9,11.948a2.581,2.581,0,0,0,2.7-2.821Z" fill="#39c2ff"/><ellipse cx="0.881" cy="1.001" rx="0.881" ry="1.001" transform="translate(9.315 8.608)" fill="#d2f9ff"/><ellipse cx="0.294" cy="0.25" rx="0.294" ry="0.25" transform="translate(12.251 10.61)" fill="#a4ecff"/></g><rect width="2" height="4" transform="translate(8 21)" fill="#43515f"/><rect width="1" height="10" transform="translate(19 23) rotate(90)" fill="#43515f"/><rect width="2" height="4" transform="translate(17 21)" fill="#43515f"/></g></svg>