<svg xmlns="http://www.w3.org/2000/svg" xmlns:xlink="http://www.w3.org/1999/xlink" width="26" height="26" viewBox="0 0 26 26"><defs><clipPath id="b"><rect width="26" height="26"/></clipPath></defs><g id="a"><path d="M0,0H18a0,0,0,0,1,0,0V5a2,2,0,0,1-2,2H2A2,2,0,0,1,0,5V0A0,0,0,0,1,0,0Z" transform="translate(4 12)" fill="#1aaced"/><path d="M0,0A11.606,11.606,0,0,0,4.147-.4C6.322-1.032,8.461-4.84,8.461-4.84S10.842-.633,13.167,0A10.847,10.847,0,0,0,18,0V3H0Z" transform="translate(4 9)" fill="#baed0d"/><circle cx="2.5" cy="2.5" r="2.5" transform="translate(14 10)" fill="#baed0d"/></g></svg>