<svg xmlns="http://www.w3.org/2000/svg" xmlns:xlink="http://www.w3.org/1999/xlink" width="26" height="26" viewBox="0 0 26 26"><defs><clipPath id="b"><rect width="26" height="26"/></clipPath></defs><g id="a"><circle cx="9" cy="9" r="9" transform="translate(4 4)" fill="#ecbd4f"/><path d="M.612,0A8.369,8.369,0,0,0,3.556.615,10.6,10.6,0,0,0,6.731,0a.615.615,0,0,1,0,1.23,10.422,10.422,0,0,1-3.175.628A8.231,8.231,0,0,1,.612,1.23.615.615,0,0,1,.612,0Z" transform="translate(8.895 15.686)" fill="#111"/><ellipse cx="1.5" cy="2" rx="1.5" ry="2" transform="translate(8 9)" fill="#2d2d2d"/><path d="M1.5,0A1.768,1.768,0,0,1,3,1.948,1.768,1.768,0,0,1,1.5,3.9,1.768,1.768,0,0,1,0,1.948,1.768,1.768,0,0,1,1.5,0Z" transform="translate(14 9.105)" fill="#2d2d2d"/></g></svg>