<svg xmlns="http://www.w3.org/2000/svg" xmlns:xlink="http://www.w3.org/1999/xlink" width="64" height="64" viewBox="0 0 64 64"><defs><clipPath id="b"><rect width="64" height="64"/></clipPath></defs><g id="a"><path d="M1185.44-423.674a4.27,4.27,0,0,1,2.516-2.358c1.767-.486,2.245,0,2.245,0L1188.186-428l-5.493,1.624Z" transform="translate(-1135.169 468.025)" fill="rgba(59,59,59,0.61)"/><path d="M722.072-295.333l29.712,25.316,34.037-20.612v-2.55l-63.749-4.737Z" transform="translate(-722.04 327.13)" fill="#007fff"/><path d="M1224.123-1129.9l29.871,25.1,34.079-20.276-29.7-24.869Z" transform="translate(-1224.047 1159.002)" fill="#42a0ff"/><path d="M1249.1-1108.867l11.313-6.694Z" transform="translate(-1201.926 1152.895)" fill="gray"/><path d="M2068.44,323.588l.814,3.26,5.76,5.483,4.066-2.4.229-1.941Z" transform="translate(-2019 -296.748)" fill="#9ee2fc"/><path d="M2068.44,323.588l.814,3.26,5.76,5.483,4.066-2.4.229-1.941Z" transform="translate(-2027.629 -298.003)" fill="#9ee2fc"/><path d="M2068.44,323.588l.814,3.26,5.76,5.483,4.066-2.4.229-1.941Z" transform="translate(-2028.34 -291.662)" fill="#9ee2fc"/><path d="M2068.44,323.588l.814,3.26,5.76,5.483,4.066-2.4.229-1.941Z" transform="translate(-2041.309 -298.489)" fill="#9ee2fc"/><path d="M2068.972,321.478a12.972,12.972,0,0,1,3.709,1.048,78.185,78.185,0,0,1,5.975,5.556l-4.633,2.842s-5.825-5.117-6.111-6.787A2.861,2.861,0,0,1,2068.972,321.478Z" transform="translate(-2018.432 -296.875)" fill="#d3b47f"/><path d="M2068.972,321.478a12.972,12.972,0,0,1,3.709,1.048,78.185,78.185,0,0,1,5.975,5.556l-4.633,2.842s-5.825-5.117-6.111-6.787A2.861,2.861,0,0,1,2068.972,321.478Z" transform="translate(-2027.061 -298.13)" fill="#d3b47f"/><path d="M2068.972,321.478a12.972,12.972,0,0,1,3.709,1.048,78.185,78.185,0,0,1,5.975,5.556l-4.633,2.842s-5.825-5.117-6.111-6.787A2.861,2.861,0,0,1,2068.972,321.478Z" transform="translate(-2027.772 -291.789)" fill="#d3b47f"/><path d="M2068.972,321.478a12.972,12.972,0,0,1,3.709,1.048,78.185,78.185,0,0,1,5.975,5.556l-4.633,2.842s-5.825-5.117-6.111-6.787A2.861,2.861,0,0,1,2068.972,321.478Z" transform="translate(-2040.741 -298.616)" fill="#d3b47f"/><path d="M2069.635,322.154l2.907-1.283,1.94,1.709-2.991,1.355Z" transform="translate(-2018.776 -297.086)" fill="#fff"/><path d="M2069.635,322.154l2.907-1.283,1.94,1.709-2.991,1.355Z" transform="translate(-2027.405 -298.34)" fill="#fff"/><path d="M2069.635,322.154l2.907-1.283,1.94,1.709-2.991,1.355Z" transform="translate(-2028.116 -292)" fill="#fff"/><path d="M2069.635,322.154l2.907-1.283,1.94,1.709-2.991,1.355Z" transform="translate(-2041.085 -298.826)" fill="#fff"/><path d="M2073.757,329.656l3.844-2.3-.523-1.84-3.092,1.6Z" transform="translate(-2018.004 -296.509)" fill="#d5d5d5"/><path d="M2073.757,329.656l3.844-2.3-.523-1.84-3.092,1.6Z" transform="translate(-2026.632 -297.763)" fill="#d5d5d5"/><path d="M2073.757,329.656l3.844-2.3-.523-1.84-3.092,1.6Z" transform="translate(-2027.344 -291.423)" fill="#d5d5d5"/><path d="M2073.757,329.656l3.844-2.3-.523-1.84-3.092,1.6Z" transform="translate(-2040.312 -298.249)" fill="#d5d5d5"/><path d="M2071.1,323.738l3.157-1.354.056,1.155,1.631,1.418-2.9,2.238-1.944-1.871Z" transform="translate(-2018.502 -296.898)" fill="#ddd"/><path d="M2071.1,323.738l3.157-1.354.056,1.155,1.631,1.418-2.9,2.238-1.944-1.871Z" transform="translate(-2027.131 -298.152)" fill="#ddd"/><path d="M2071.1,323.738l3.157-1.354.056,1.155,1.631,1.418-2.9,2.238-1.944-1.871Z" transform="translate(-2027.842 -291.812)" fill="#ddd"/><path d="M2071.1,323.738l3.157-1.354.056,1.155,1.631,1.418-2.9,2.238-1.944-1.871Z" transform="translate(-2040.811 -298.638)" fill="#ddd"/><path d="M2074.225,327.323l3.051-1.625-1.586-1.324L2072.7,325.9Z" transform="translate(-2018.203 -296.651)" fill="#fff"/><path d="M2074.225,327.323l3.051-1.625-1.586-1.324L2072.7,325.9Z" transform="translate(-2026.831 -297.905)" fill="#fff"/><path d="M2074.225,327.323l3.051-1.625-1.586-1.324L2072.7,325.9Z" transform="translate(-2027.543 -291.565)" fill="#fff"/><path d="M2074.225,327.323l3.051-1.625-1.586-1.324L2072.7,325.9Z" transform="translate(-2040.511 -298.391)" fill="#fff"/><path d="M2068.721,323.743l5.935,6.489.314-2.574-1.465-1.484-.373.373-1.531-1.595v-1.21l-1.8-1.763Z" transform="translate(-2018.947 -296.948)" fill="#f3eded"/><path d="M2068.721,323.743l5.935,6.489.314-2.574-1.465-1.484-.373.373-1.531-1.595v-1.21l-1.8-1.763Z" transform="translate(-2027.576 -298.203)" fill="#f3eded"/><path d="M2068.721,323.743l5.935,6.489.314-2.574-1.465-1.484-.373.373-1.531-1.595v-1.21l-1.8-1.763Z" transform="translate(-2028.287 -291.862)" fill="#f3eded"/><path d="M2068.721,323.743l5.935,6.489.314-2.574-1.465-1.484-.373.373-1.531-1.595v-1.21l-1.8-1.763Z" transform="translate(-2041.256 -298.688)" fill="#f3eded"/><path d="M2070.375,322l1.634-.708,1.489,1.259-1.677.678Z" transform="translate(-2018.661 -297.031)" fill="#64c1ff"/><path d="M2070.375,322l1.634-.708,1.489,1.259-1.677.678Z" transform="translate(-2027.289 -298.286)" fill="#64c1ff"/><path d="M2070.375,322l1.634-.708,1.489,1.259-1.677.678Z" transform="translate(-2028.001 -291.945)" fill="#64c1ff"/><path d="M2070.375,322l1.634-.708,1.489,1.259-1.677.678Z" transform="translate(-2040.969 -298.771)" fill="#64c1ff"/><path d="M2070.375,322l1.634-.708,1.059.773-1.616.792Z" transform="translate(-2016.705 -293.909)" fill="#64c1ff"/><path d="M2070.375,322l1.634-.708,1.059.773-1.616.792Z" transform="translate(-2025.333 -295.164)" fill="#64c1ff"/><path d="M2070.375,322l1.634-.708,1.059.773-1.616.792Z" transform="translate(-2026.045 -288.823)" fill="#64c1ff"/><path d="M2070.375,322l1.634-.708,1.059.773-1.616.792Z" transform="translate(-2039.013 -295.649)" fill="#64c1ff"/><path d="M2063.547,321.52l1.322,1.278v.975l-1.748-1.586Z" transform="translate(-2013 -296)" fill="#305ca8" opacity="0.46"/><path d="M2063.547,321.52l1.322,1.278v.975l-1.748-1.586Z" transform="translate(-2021.629 -297.255)" fill="#305ca8" opacity="0.46"/><path d="M2063.547,321.52l1.322,1.278v.975l-1.748-1.586Z" transform="translate(-2022.34 -290.914)" fill="#305ca8" opacity="0.46"/><path d="M2063.547,321.52l1.322,1.278v.975l-1.748-1.586Z" transform="translate(-2035.309 -297.74)" fill="#305ca8" opacity="0.46"/><path d="M2065.9,324.917l2.987,2.77,3.406-1.938.158.688-3.687,2.228-2.864-2.916Z" transform="translate(-2013 -296)" fill="#305ca8" opacity="0.47"/><path d="M2065.9,324.917l2.987,2.77,3.406-1.938.158.688-3.687,2.228-2.864-2.916Z" transform="translate(-2021.629 -297.255)" fill="#305ca8" opacity="0.47"/><path d="M2065.9,324.917l2.987,2.77,3.406-1.938.158.688-3.687,2.228-2.864-2.916Z" transform="translate(-2022.34 -290.914)" fill="#305ca8" opacity="0.47"/><path d="M2065.9,324.917l2.987,2.77,3.406-1.938.158.688-3.687,2.228-2.864-2.916Z" transform="translate(-2035.309 -297.74)" fill="#305ca8" opacity="0.47"/><path d="M2105.822,315l-.463-.388-.6.248-.547,1.159.914.792.693-.33Z" transform="translate(-2048.918 -286.691)" fill="#96a6b9"/><path d="M2105.822,315l-.463-.388-.6.248-.547,1.159.914.792.693-.33Z" transform="translate(-2057.546 -287.945)" fill="#96a6b9"/><path d="M2105.822,315l-.463-.388-.6.248-.547,1.159.914.792.693-.33Z" transform="translate(-2058.258 -281.605)" fill="#96a6b9"/><path d="M2105.822,315l-.463-.388-.6.248-.547,1.159.914.792.693-.33Z" transform="translate(-2071.226 -288.431)" fill="#96a6b9"/><path d="M2105.822,315l-.463-.388-.6.248-.547,1.159.914.792.693-.33Z" transform="translate(-2047.579 -287.297)" fill="#96a6b9"/><path d="M2105.822,315l-.463-.388-.6.248-.547,1.159.914.792.693-.33Z" transform="translate(-2056.208 -288.552)" fill="#96a6b9"/><path d="M2105.822,315l-.463-.388-.6.248-.547,1.159.914.792.693-.33Z" transform="translate(-2056.919 -282.211)" fill="#96a6b9"/><path d="M2105.822,315l-.463-.388-.6.248-.547,1.159.914.792.693-.33Z" transform="translate(-2069.887 -289.037)" fill="#96a6b9"/><path d="M2101.717,318.642l.464,1.835s3.824,4.548,6.6,5.654a4.337,4.337,0,0,0,4.419-.321l-7.621-10.026Z" transform="translate(-2088.228 -298.2)" fill="#9ee2fc"/><path d="M2101.717,318.642l.464,1.835s3.824,4.548,6.6,5.654a4.337,4.337,0,0,0,4.419-.321l-7.621-10.026Z" transform="translate(-2086.694 -291.818)" fill="#9ee2fc"/><path d="M2101.717,318.642l.464,1.835s3.824,4.548,6.6,5.654a4.337,4.337,0,0,0,4.419-.321l-7.621-10.026Z" transform="translate(-2094.853 -291.708)" fill="#9ee2fc"/><path d="M2101.717,318.642l.464,1.835s3.824,4.548,6.6,5.654a4.337,4.337,0,0,0,4.419-.321l-7.621-10.026Z" transform="translate(-2089.685 -282.2)" fill="#9ee2fc"/><path d="M1874.129,296.328s5.031,5.675,7.04,6.38a36.861,36.861,0,0,0,4.173,1.149s.882-1.418-.414-3.626-6.716-6.539-6.716-6.539Z" transform="translate(-1860.581 -276.058)" fill="#d3b47f"/><path d="M1874.129,296.328s5.031,5.675,7.04,6.38a36.861,36.861,0,0,0,4.173,1.149s.882-1.418-.414-3.626-6.716-6.539-6.716-6.539Z" transform="translate(-1859.047 -269.676)" fill="#d3b47f"/><path d="M1874.129,296.328s5.031,5.675,7.04,6.38a36.861,36.861,0,0,0,4.173,1.149s.882-1.418-.414-3.626-6.716-6.539-6.716-6.539Z" transform="translate(-1867.205 -269.566)" fill="#d3b47f"/><path d="M1874.129,296.328s5.031,5.675,7.04,6.38a36.861,36.861,0,0,0,4.173,1.149s.882-1.418-.414-3.626-6.716-6.539-6.716-6.539Z" transform="translate(-1862.038 -260.058)" fill="#d3b47f"/><path d="M2108.788,323.918l2.836-1.722-.206-2.286-2.786,1.541Z" transform="translate(-2087.228 -297.116)" fill="#d5d5d5"/><path d="M2108.788,323.918l2.836-1.722-.206-2.286-2.786,1.541Z" transform="translate(-2085.694 -290.734)" fill="#d5d5d5"/><path d="M2108.788,323.918l2.836-1.722-.206-2.286-2.786,1.541Z" transform="translate(-2093.853 -290.624)" fill="#d5d5d5"/><path d="M2108.788,323.918l2.836-1.722-.206-2.286-2.786,1.541Z" transform="translate(-2088.685 -281.116)" fill="#d5d5d5"/><path d="M2103.251,316.851c.148-.064,2.908-1.374,2.908-1.374l1.33,1.147-3,1.387Z" transform="translate(-2088.228 -298.2)" fill="#fff"/><path d="M2103.251,316.851c.148-.064,2.908-1.374,2.908-1.374l1.33,1.147-3,1.387Z" transform="translate(-2086.694 -291.818)" fill="#fff"/><path d="M2103.251,316.851c.148-.064,2.908-1.374,2.908-1.374l1.33,1.147-3,1.387Z" transform="translate(-2094.853 -291.708)" fill="#fff"/><path d="M2103.251,316.851c.148-.064,2.908-1.374,2.908-1.374l1.33,1.147-3,1.387Z" transform="translate(-2089.685 -282.2)" fill="#fff"/><path d="M2104.491,318.012l2.91-1.387.464,1,1.658,1.112-2.791,2.256-1.886-1.644Z" transform="translate(-2088.228 -298.2)" fill="#ddd"/><path d="M2104.491,318.012l2.91-1.387.464,1,1.658,1.112-2.791,2.256-1.886-1.644Z" transform="translate(-2086.694 -291.818)" fill="#ddd"/><path d="M2104.491,318.012l2.91-1.387.464,1,1.658,1.112-2.791,2.256-1.886-1.644Z" transform="translate(-2094.853 -291.708)" fill="#ddd"/><path d="M2104.491,318.012l2.91-1.387.464,1,1.658,1.112-2.791,2.256-1.886-1.644Z" transform="translate(-2089.685 -282.2)" fill="#ddd"/><path d="M2102.98,318.774l6.845,6.182V322.5l-2.795-2.543-.749.118-1.451-1.306-.34-.827-1.177-1.047Z" transform="translate(-2088.228 -298.2)" fill="#f3eded"/><path d="M2102.98,318.774l6.845,6.182V322.5l-2.795-2.543-.749.118-1.451-1.306-.34-.827-1.177-1.047Z" transform="translate(-2086.694 -291.818)" fill="#f3eded"/><path d="M2102.98,318.774l6.845,6.182V322.5l-2.795-2.543-.749.118-1.451-1.306-.34-.827-1.177-1.047Z" transform="translate(-2094.853 -291.708)" fill="#f3eded"/><path d="M2102.98,318.774l6.845,6.182V322.5l-2.795-2.543-.749.118-1.451-1.306-.34-.827-1.177-1.047Z" transform="translate(-2089.685 -282.2)" fill="#f3eded"/><path d="M2103.006,316.8c.148-.064,2.853-1.547,2.853-1.547l2.623,2.612-2.758,1.6Z" transform="translate(-2084.228 -295.067)" fill="#fff"/><path d="M2103.006,316.8c.148-.064,2.853-1.547,2.853-1.547l2.623,2.612-2.758,1.6Z" transform="translate(-2082.694 -288.685)" fill="#fff"/><path d="M2103.006,316.8c.148-.064,2.853-1.547,2.853-1.547l2.623,2.612-2.758,1.6Z" transform="translate(-2090.853 -288.574)" fill="#fff"/><path d="M2103.006,316.8c.148-.064,2.853-1.547,2.853-1.547l2.623,2.612-2.758,1.6Z" transform="translate(-2085.685 -279.067)" fill="#fff"/><path d="M2106.941,320.46l2.062,1.867,2.665-1.607v.988L2109,323.293l-2.062-1.734Z" transform="translate(-2087.406 -297.367)" fill="#305ca8" opacity="0.37"/><path d="M2106.941,320.46l2.062,1.867,2.665-1.607v.988L2109,323.293l-2.062-1.734Z" transform="translate(-2085.872 -290.985)" fill="#305ca8" opacity="0.37"/><path d="M2106.941,320.46l2.062,1.867,2.665-1.607v.988L2109,323.293l-2.062-1.734Z" transform="translate(-2094.03 -290.875)" fill="#305ca8" opacity="0.37"/><path d="M2106.941,320.46l2.062,1.867,2.665-1.607v.988L2109,323.293l-2.062-1.734Z" transform="translate(-2088.863 -281.367)" fill="#305ca8" opacity="0.37"/><path d="M2104.491,315.847l.824.786.759-.426-.341-1.711-.543-.418-.446.147Z" transform="translate(-2089.02 -297.373)" fill="#96a6b9"/><path d="M2104.491,315.847l.824.786.759-.426-.341-1.711-.543-.418-.446.147Z" transform="translate(-2087.486 -290.991)" fill="#96a6b9"/><path d="M2104.491,315.847l.824.786.759-.426-.341-1.711-.543-.418-.446.147Z" transform="translate(-2095.644 -290.881)" fill="#96a6b9"/><path d="M2104.491,315.847l.824.786.759-.426-.341-1.711-.543-.418-.446.147Z" transform="translate(-2090.477 -281.373)" fill="#96a6b9"/><path d="M2104.491,315.847l.824.786.759-.426-.341-1.711-.543-.418-.446.147Z" transform="translate(-2087.594 -298.078)" fill="#96a6b9"/><path d="M2104.491,315.847l.824.786.759-.426-.341-1.711-.543-.418-.446.147Z" transform="translate(-2086.061 -291.696)" fill="#96a6b9"/><path d="M2104.491,315.847l.824.786.759-.426-.341-1.711-.543-.418-.446.147Z" transform="translate(-2094.219 -291.586)" fill="#96a6b9"/><path d="M2104.491,315.847l.824.786.759-.426-.341-1.711-.543-.418-.446.147Z" transform="translate(-2089.051 -282.078)" fill="#96a6b9"/><path d="M2107.9,319.88l2.108,1.97,1.579-.9-2.039-1.967Z" transform="translate(-2088.228 -298.2)" fill="#64c1ff"/><path d="M2107.9,319.88l2.108,1.97,1.579-.9-2.039-1.967Z" transform="translate(-2086.694 -291.818)" fill="#64c1ff"/><path d="M2107.9,319.88l2.108,1.97,1.579-.9-2.039-1.967Z" transform="translate(-2094.853 -291.708)" fill="#64c1ff"/><path d="M2107.9,319.88l2.108,1.97,1.579-.9-2.039-1.967Z" transform="translate(-2089.685 -282.2)" fill="#64c1ff"/><path d="M2108.4,320.215l.8.738,1.579-.9-.872-.621Z" transform="translate(-2090.584 -299.565)" fill="#64c1ff"/><path d="M2108.4,320.215l.8.738,1.579-.9-.872-.621Z" transform="translate(-2089.051 -293.183)" fill="#64c1ff"/><path d="M2108.4,320.215l.8.738,1.579-.9-.872-.621Z" transform="translate(-2097.209 -293.072)" fill="#64c1ff"/><path d="M2108.4,320.215l.8.738,1.579-.9-.872-.621Z" transform="translate(-2092.042 -283.565)" fill="#64c1ff"/><path d="M2103.028,318.427l3.471,3.238v-.917l-3.348-3.061Z" transform="translate(-2088.228 -298.2)" fill="#305ca8" opacity="0.43"/><path d="M2103.028,318.427l3.471,3.238v-.917l-3.348-3.061Z" transform="translate(-2086.694 -291.818)" fill="#305ca8" opacity="0.43"/><path d="M2103.028,318.427l3.471,3.238v-.917l-3.348-3.061Z" transform="translate(-2094.853 -291.708)" fill="#305ca8" opacity="0.43"/><path d="M2103.028,318.427l3.471,3.238v-.917l-3.348-3.061Z" transform="translate(-2089.685 -282.2)" fill="#305ca8" opacity="0.43"/><path d="M1866.19,312.787l-9.31-8.356,14.913,6.959Z" transform="translate(-1855 -276)" fill="#fff" opacity="0.21"/><path d="M1889.6,309.184c.539.335,12.8,10.492,12.8,10.492l-10.157-12.261Z" transform="translate(-1855 -276)" fill="#fff" opacity="0.19"/></g></svg>