<svg xmlns="http://www.w3.org/2000/svg" xmlns:xlink="http://www.w3.org/1999/xlink" width="64" height="64" viewBox="0 0 64 64"><defs><clipPath id="b"><rect width="64" height="64"/></clipPath></defs><g id="a"><rect width="38" height="54" rx="5" transform="translate(13 4)" fill="#4f8198"/><path d="M4938.149,1931.945l.373-9.879,1.2-.9v-10.728h-1.2l.5-6.551h2.888l.406,6.551h-1.179v10.728l1.48.9.96,9.879a3.583,3.583,0,0,1-2.813,1.706A3.108,3.108,0,0,1,4938.149,1931.945Z" transform="matrix(0.743, -0.669, 0.669, 0.743, -4922.094, 1912.345)" fill="#475766"/><path d="M4938.149,1931.945l.373-9.879,1.2-.9v-10.728h-1.2l.5-6.551h2.888l.406,6.551h-1.179v10.728l1.48.9.96,9.879a3.583,3.583,0,0,1-2.813,1.706A3.108,3.108,0,0,1,4938.149,1931.945Z" transform="matrix(0.743, -0.669, 0.669, 0.743, -4923.094, 1910.786)" fill="#fff"/><path d="M23.352,5.213c-.1-.391-.786-.748-1.08-.463L18.954,7.974l-3.03-.49-.5-2.943,3.319-3.224c.3-.287.406-1.909,0-2.007C16.623-1.2,14.042.482,12.39,2.087c-1.769,1.719-1.8,4.782-1.066,6.954L-.458,18.366c-1.115,1.083-.892,3.77.223,4.853a2.916,2.916,0,0,0,4.039,0L14.391,11.735c2.237.724,5.307.912,7.087-.818a5.843,5.843,0,0,0,1.874-5.7Z" transform="translate(20.836 19.533)" fill="#475766"/><path d="M23.18,4.758a.541.541,0,0,0-.9-.24L18.956,7.761,15.92,7.267l-.506-2.96L18.74,1.064a.52.52,0,0,0-.253-.879,6.546,6.546,0,0,0-6.107,1.654c-1.773,1.729-1.806,4.81-1.068,7L-.269,19.149a2.742,2.742,0,0,0,0,3.947,2.913,2.913,0,0,0,4.047,0L14.384,11.543c2.241.729,5.317.917,7.1-.823a6.173,6.173,0,0,0,1.7-5.963Z" transform="translate(20.867 18.435)" fill="#fff"/></g></svg>