<svg xmlns="http://www.w3.org/2000/svg" xmlns:xlink="http://www.w3.org/1999/xlink" width="64" height="64" viewBox="0 0 64 64">
  <defs>
    <clipPath id="clip-XLRoundabout09">
      <rect width="64" height="64"/>
    </clipPath>
  </defs>
  <g id="XLRoundabout09" clip-path="url(#clip-XLRoundabout09)">
    <path id="Path_1137" data-name="Path 1137" d="M26.736.119C41.59.3,53.733,7.324,53.86,15.8S42.049,31,27.2,30.822.2,23.617.071,15.139,11.883-.064,26.736.119Z" transform="translate(3.546 20.48) rotate(-4.012)" fill="#595959"/>
    <path id="Path_1136" data-name="Path 1136" d="M26.736.119C41.59.3,53.733,7.324,53.86,15.8S42.049,31,27.2,30.822.2,23.617.071,15.139,11.883-.064,26.736.119Z" transform="translate(3.546 17.072) rotate(-4.012)" fill="#c3c2c2"/>
    <path id="Path_1138" data-name="Path 1138" d="M22.634.1C35.2.256,45.47,5.727,45.569,12.322S35.559,24.136,22.991,23.981.154,18.355.055,11.76,10.065-.054,22.634.1Z" transform="translate(7.865 20.116) rotate(-4.012)" fill="#c8ab8a"/>
    <path id="Path_3938" data-name="Path 3938" d="M1335.083-2488.5c3.066,1.709-.9,4.3,1.762,4.624s3.184-2.186,8.877-3.342,9.946,1.268,12.5,0-1.886-3.374-1.378-5.848,6.366-3.441,4.8-5.33-5.658.718-8.2-.925.135-4.89-1.966-5.644-4.006,2.665-9.156,3.553-9.128-1.583-11.445,0,2.6,3.88,1.029,6.555-7.649,2.5-7.33,4.142S1332.016-2490.209,1335.083-2488.5Z" transform="translate(-1312.109 2524.996)" fill="#327a27"/>
  </g>
</svg>
