<svg xmlns="http://www.w3.org/2000/svg" xmlns:xlink="http://www.w3.org/1999/xlink" width="64" height="64" viewBox="0 0 64 64">
  <defs>
    <clipPath id="clip-path">
      <rect id="Rectangle_4580" data-name="Rectangle 4580" width="64" height="64"/>
    </clipPath>
  </defs>
  <g id="XLRoundabout08" clip-path="url(#clip-path)">
    <g id="XLRoundabout08-2" data-name="XLRoundabout08" clip-path="url(#clip-path)">
      <path id="Path_1137" data-name="Path 1137" d="M26.736.119C41.59.3,53.733,7.324,53.86,15.8S42.049,31,27.2,30.822.2,23.617.071,15.139,11.883-.064,26.736.119Z" transform="translate(3.546 20.48) rotate(-4.012)" fill="#595959"/>
      <path id="Path_1136" data-name="Path 1136" d="M26.736.119C41.59.3,53.733,7.324,53.86,15.8S42.049,31,27.2,30.822.2,23.617.071,15.139,11.883-.064,26.736.119Z" transform="translate(3.546 17.072) rotate(-4.012)" fill="#c3c2c2"/>
      <path id="Path_1138" data-name="Path 1138" d="M22.634.1C35.2.256,45.47,5.727,45.569,12.322S35.559,24.136,22.991,23.981.154,18.355.055,11.76,10.065-.054,22.634.1Z" transform="translate(7.865 20.116) rotate(-4.012)" fill="#595959"/>
      <g id="Group_2753" data-name="Group 2753" transform="translate(13.398 19.083)">
        <path id="Rectangle_4573" data-name="Rectangle 4573" d="M0,7.574,26.673,0,36.756,14.661,9.394,22.575Z" transform="translate(0.073)" fill="#965f5f"/>
        <path id="Rectangle_4574" data-name="Rectangle 4574" d="M11.838,0,36.331,4.606,24.941,19.948,0,15.017Z" transform="translate(0 1.298)" fill="#965f5f"/>
        <path id="Path_3905" data-name="Path 3905" d="M.035,3.213s.149.289.451.764A19.131,19.131,0,0,0,1.864,5.866a19.979,19.979,0,0,0,2.346,2.4,17.757,17.757,0,0,0,3.354,2.3,24.464,24.464,0,0,0,4.224,1.67,43.043,43.043,0,0,0,4.266,1.037c1.318.254,2.473.422,3.3.527s1.323.147,1.323.147-.174-.3-.517-.789a22.106,22.106,0,0,0-1.526-1.931A22.427,22.427,0,0,0,16.141,8.8a19.107,19.107,0,0,0-3.416-2.276,25.027,25.027,0,0,0-4.16-1.64c-1.43-.434-2.856-.765-4.12-1.013S2.08,3.458,1.293,3.354.035,3.213.035,3.213Z" transform="translate(8.093 2.493)" fill="#595959"/>
        <path id="Path_3906" data-name="Path 3906" d="M11.314.01s.217.269.536.738A17.534,17.534,0,0,1,12.994,2.7a13.826,13.826,0,0,1,1.054,2.76,8.68,8.68,0,0,1,.25,3.178,9.821,9.821,0,0,1-1.031,3.179A18.114,18.114,0,0,1,11.5,14.593,24.358,24.358,0,0,1,9.83,16.56c-.45.475-.745.746-.745.746s-.212-.289-.521-.791a18.838,18.838,0,0,1-1.1-2.064,14.8,14.8,0,0,1-.978-2.868A9.189,9.189,0,0,1,6.3,8.37,10.023,10.023,0,0,1,7.342,5.24a17.668,17.668,0,0,1,1.7-2.671A23.051,23.051,0,0,1,10.618.709C11.039.263,11.314.01,11.314.01Z" transform="translate(8.218 2.638)" fill="#595959"/>
        <path id="Path_3907" data-name="Path 3907" d="M3.856,13.382s.539-.134,1.432-.389,2.14-.63,3.556-1.11,3-1.066,4.564-1.742A33.973,33.973,0,0,0,17.866,7.86a22.421,22.421,0,0,0,3.447-2.65,22.327,22.327,0,0,0,2.331-2.544A19.268,19.268,0,0,0,24.965.758c.284-.472.418-.751.418-.751S24.861.142,24,.4s-2.078.629-3.457,1.107-2.928,1.06-4.467,1.729A35.274,35.274,0,0,0,11.659,5.5,23.82,23.82,0,0,0,8.167,8.126a24.263,24.263,0,0,0-2.429,2.553,21.292,21.292,0,0,0-1.421,1.935C4.007,13.1,3.856,13.382,3.856,13.382Z" transform="translate(3.44 4.15)" fill="#595959"/>
        <path id="Path_3908" data-name="Path 3908" d="M.012,7.261s.512-.166,1.394-.42S3.538,6.247,5.017,5.9,8.2,5.19,10,4.9a47.363,47.363,0,0,1,5.516-.6,40.769,40.769,0,0,1,5.28.136c1.655.146,3.174.37,4.464.6s2.354.479,3.095.665,1.158.314,1.158.314-.512.161-1.4.407S25.969,7,24.48,7.343s-3.213.695-5.027.981a49.457,49.457,0,0,1-5.569.583,41.945,41.945,0,0,1-5.3-.129c-1.643-.136-3.148-.352-4.42-.578s-2.309-.46-3.03-.639S.012,7.261.012,7.261Z" transform="translate(3.44 4.149)" fill="#595959"/>
        <path id="Ellipse_938" data-name="Ellipse 938" d="M5.848,1.663a10.785,10.785,0,0,1,2.436-.4,9.89,9.89,0,0,1,2.307.152,6.74,6.74,0,0,1,1.928.656,3.566,3.566,0,0,1,1.294,1.114,2.132,2.132,0,0,1,.378,1.383,2.685,2.685,0,0,1-.572,1.388,5.1,5.1,0,0,1-1.408,1.233,8.579,8.579,0,0,1-2.126.916,10.78,10.78,0,0,1-2.466.4,9.863,9.863,0,0,1-2.333-.16,6.664,6.664,0,0,1-1.935-.672,3.5,3.5,0,0,1-1.278-1.13,2.119,2.119,0,0,1-.348-1.39,2.733,2.733,0,0,1,.6-1.381A5.186,5.186,0,0,1,3.737,2.563a8.63,8.63,0,0,1,2.111-.9Z" transform="translate(10.62 6.259)" fill="#965f5f"/>
      </g>
    </g>
  </g>
</svg>
