<svg xmlns="http://www.w3.org/2000/svg" xmlns:xlink="http://www.w3.org/1999/xlink" width="64" height="64" viewBox="0 0 64 64">
  <defs>
    <clipPath id="clip-path">
      <rect id="Rectangle_4576" data-name="Rectangle 4576" width="64" height="64"/>
    </clipPath>
  </defs>
  <g id="XLRoundabout04" clip-path="url(#clip-path)">
    <g id="XLRoundabout04-2" data-name="XLRoundabout04" clip-path="url(#clip-path)">
      <path id="Path_1137" data-name="Path 1137" d="M26.736.119C41.59.3,53.733,7.324,53.86,15.8S42.049,31,27.2,30.822.2,23.617.071,15.139,11.883-.064,26.736.119Z" transform="translate(3.546 20.48) rotate(-4.012)" fill="#595959"/>
      <path id="Path_1136" data-name="Path 1136" d="M26.736.119C41.59.3,53.733,7.324,53.86,15.8S42.049,31,27.2,30.822.2,23.617.071,15.139,11.883-.064,26.736.119Z" transform="translate(3.546 17.072) rotate(-4.012)" fill="#c3c2c2"/>
      <path id="Path_1138" data-name="Path 1138" d="M22.634.1C35.2.256,45.47,5.727,45.569,12.322S35.559,24.136,22.991,23.981.154,18.355.055,11.76,10.065-.054,22.634.1Z" transform="translate(7.865 20.116) rotate(-4.012)" fill="#f3d53e"/>
      <path id="Path_3933" data-name="Path 3933" d="M20.62.1c11.448.135,20.8,4.908,20.89,10.66S32.393,21.067,20.946,20.932.145,16.023.055,10.271,9.173-.035,20.62.1Z" transform="translate(10.15 21.417) rotate(-4.012)" fill="#9c9a90"/>
      <path id="Path_1138-2" data-name="Path 1138" d="M12.838.1c7.116.088,12.929,3.185,12.985,6.919s-5.667,6.689-12.783,6.6S.111,10.434.055,6.7,5.722.012,12.838.1Z" transform="translate(18.614 23.204) rotate(-4.012)" fill="#327a27"/>
      <g id="Group_2757" data-name="Group 2757" transform="translate(-9 40.097)">
        <ellipse id="Ellipse_884" data-name="Ellipse 884" cx="6" cy="1.5" rx="6" ry="1.5" transform="translate(35 -11.097)" fill="#010101"/>
        <path id="Path_3564" data-name="Path 3564" d="M.35,0H2.505l.627,5.38a3.3,3.3,0,0,1-1.58.547A3.139,3.139,0,0,1,0,5.38Z" transform="translate(39.345 -15.422)" fill="#976c4f"/>
        <ellipse id="Ellipse_885" data-name="Ellipse 885" cx="6" cy="5.5" rx="6" ry="5.5" transform="translate(35 -24.097)" fill="#54b60b"/>
        <ellipse id="Ellipse_886" data-name="Ellipse 886" cx="5" cy="5.5" rx="5" ry="5.5" transform="translate(33 -26.097)" fill="#54b60b"/>
        <path id="Path_3565" data-name="Path 3565" d="M5.525,0C8.576,0,11.05,2.2,11.05,4.911S8.576,9.574,5.525,9.574,0,7.623,0,4.911,2.474,0,5.525,0Z" transform="translate(35.456 -25.286)" fill="#79dd2c"/>
        <ellipse id="Ellipse_887" data-name="Ellipse 887" cx="5" cy="4.5" rx="5" ry="4.5" transform="translate(33 -26.097)" fill="#79dd2c"/>
        <circle id="Ellipse_883" data-name="Ellipse 883" cx="3" cy="3" r="3" transform="translate(43 -23.097)" fill="#54b60b"/>
        <ellipse id="Ellipse_888" data-name="Ellipse 888" cx="6" cy="5.5" rx="6" ry="5.5" transform="translate(35 -29.097)" fill="#79dd2c"/>
        <ellipse id="Ellipse_889" data-name="Ellipse 889" cx="3" cy="2.5" rx="3" ry="2.5" transform="translate(42 -24.097)" fill="#79dd2c"/>
      </g>
    </g>
  </g>
</svg>
