<svg xmlns="http://www.w3.org/2000/svg" xmlns:xlink="http://www.w3.org/1999/xlink" width="64" height="64" viewBox="0 0 64 64">
  <defs>
    <clipPath id="clip-path">
      <rect id="Rectangle_4578" data-name="Rectangle 4578" width="64" height="64"/>
    </clipPath>
  </defs>
  <g id="XLRoundabout06" clip-path="url(#clip-path)">
    <g id="XLRoundabout06-2" data-name="XLRoundabout06" clip-path="url(#clip-path)">
      <path id="Path_1137" data-name="Path 1137" d="M26.736.119C41.59.3,53.733,7.324,53.86,15.8S42.049,31,27.2,30.822.2,23.617.071,15.139,11.883-.064,26.736.119Z" transform="translate(3.546 20.48) rotate(-4.012)" fill="#595959"/>
      <path id="Path_1136" data-name="Path 1136" d="M26.736.119C41.59.3,53.733,7.324,53.86,15.8S42.049,31,27.2,30.822.2,23.617.071,15.139,11.883-.064,26.736.119Z" transform="translate(3.546 17.072) rotate(-4.012)" fill="#c3c2c2"/>
      <path id="Path_1138" data-name="Path 1138" d="M22.634.1C35.2.256,45.47,5.727,45.569,12.322S35.559,24.136,22.991,23.981.154,18.355.055,11.76,10.065-.054,22.634.1Z" transform="translate(7.865 20.116) rotate(-4.012)" fill="#7dbdcb"/>
    </g>
  </g>
</svg>
