<svg xmlns="http://www.w3.org/2000/svg" xmlns:xlink="http://www.w3.org/1999/xlink" width="32" height="32" viewBox="0 0 32 32">
  <defs>
    <clipPath id="clip-ZoneNACommercialHigh">
      <rect width="32" height="32"/>
    </clipPath>
  </defs>
  <g id="ZoneNACommercialHigh" clip-path="url(#clip-ZoneNACommercialHigh)">
    <g id="ZoneResidential" transform="translate(1.488 6.767)">
      <path id="Path_780" data-name="Path 780" d="M-10008-10482.843l16.188,10.105,13.515-10.105-16.512-8.157Z" transform="translate(10008 10492.43)" fill="#005f95"/>
    </g>
    <g id="Component_203_6" data-name="Component 203 – 6" transform="translate(0 1.145)">
      <path id="Path_724" data-name="Path 724" d="M-9991.4-10486.79l7.839,4.706v-10.665l-7.839-4.042Z" transform="translate(9999.998 10501.842)" fill="#ebd9c4"/>
      <path id="Path_725" data-name="Path 725" d="M-9975.6-10489.9l4-3.257.2-9.913-4.2,3.064Z" transform="translate(9996.563 10508.847)" fill="#0071a9"/>
      <path id="Path_880" data-name="Path 880" d="M16.438,9.228l4.648-.3V19.1l-4.648.478Z" fill="#067cb9"/>
      <path id="Path_883" data-name="Path 883" d="M8.618,13.213l7.827,4.334V19.8L8.618,15.11Z" fill="#024263"/>
      <path id="Path_884" data-name="Path 884" d="M16.438,17.329l4.679-.187v2.375l-4.679.25h0Z" fill="#032f47"/>
      <path id="Path_885" data-name="Path 885" d="M21.118,17.257,25.1,14.246v2.031l-3.981,3.25Z" fill="#021c29"/>
      <path id="Path_886" data-name="Path 886" d="M7.875,5.157,16.425,9.75l4.84-.3,4.79-3.731L15.35.877Z" fill="#ebd9c4"/>
      <path id="Path_726" data-name="Path 726" d="M-9991.345-10487.706l7.728,4.08,4.741-.269,4.132-3.227-9.76-4.453Z" transform="translate(9999.963 10492.854)" fill="#fff6d6"/>
      <path id="Path_881" data-name="Path 881" d="M10.827,5.033l4.9-2.709,7.5,3.6L20.7,7.8l-4.168.237Z" fill="#cec6ac"/>
      <path id="Path_882" data-name="Path 882" d="M14.393,4.23l1.765-1.145L18.65,4.23,16.624,5.39Z" fill="#fff6d6"/>
      <path id="Path_887" data-name="Path 887" d="M8.12,5.672l8.4,4.625V9.733L7.88,5.121Z" fill="#ebd9c4"/>
      <path id="Path_888" data-name="Path 888" d="M21.228,9.48l-4.717.3v.5l4.614-.228Z" fill="#0071a9"/>
      <path id="Path_889" data-name="Path 889" d="M26.041,5.73,21.219,9.491l-.094.594,4.552-3.48Z" fill="#005f95"/>
      <path id="Path_890" data-name="Path 890" d="M8.6,12.4,8.141,13l8.344,4.748v-.864Z" fill="#24b5ff"/>
      <path id="Path_891" data-name="Path 891" d="M16.446,16.886l1.149-.022.568-.348H19.58l.614.37.947-.089v.792H20.122L19.5,17.2l-1.222.083-.711.413-1.121.035Z" fill="#0089cf"/>
      <path id="Path_892" data-name="Path 892" d="M21.087,16.8l3.97-3.145.459.469-4.43,3.427Z" fill="#067cb9"/>
      <path id="Path_893" data-name="Path 893" d="M0-.567,1,0V6L0,5.453Z" transform="translate(9 6.855)" fill="#024263"/>
      <path id="Path_894" data-name="Path 894" d="M-.01-1.192l1,.567v6l-1-.547Z" transform="translate(15 10.855)" fill="#024263"/>
      <path id="Path_897" data-name="Path 897" d="M.834-1.7l-1,.776v6l1-.756Z" transform="translate(22 10.855)" fill="#024263"/>
      <path id="Path_898" data-name="Path 898" d="M.657-1.14l-1,.776v6l1-.756Z" transform="translate(24 8.855)" fill="#024263"/>
      <path id="Path_895" data-name="Path 895" d="M0-.4,1,.166v6L0,5.619Z" transform="translate(11 7.855)" fill="#024263"/>
      <path id="Path_896" data-name="Path 896" d="M.01-.306l1,.567v6l-1-.547Z" transform="translate(13 8.855)" fill="#024263"/>
      <path id="Path_899" data-name="Path 899" d="M.471-.287H3.183V5.47H.471Z" transform="translate(17 10.855)" fill="#24b5ff"/>
    </g>
  </g>
</svg>
