<svg xmlns="http://www.w3.org/2000/svg" xmlns:xlink="http://www.w3.org/1999/xlink" width="32" height="32" viewBox="0 0 32 32"><defs><clipPath id="b"><rect width="32" height="32"/></clipPath></defs><g id="a"><g transform="translate(0.796 4.408)"><path d="M-10008-10482.843l16.188,10.105,13.515-10.105-16.512-8.157Z" transform="translate(10008 10493.885)" fill="#ffdc00"/><path d="M-9908.062-10481.035l9.781,5.825v-4.525l-9.781-5.761Z" transform="translate(9914.058 10492.352)" fill="#d6a900"/><path d="M-9889.493-10474.244l7.733-5.791v-4.338a3.728,3.728,0,0,0-3.641.549c-1.934,1.372-4.093,4.939-4.093,4.939Z" transform="translate(9905.154 10491.461)" fill="#a48700"/><path d="M-9907.949-10488.719l9.581,5.654s2.016-3.527,3.972-4.882a4.189,4.189,0,0,1,3.852-.535l-9.791-4.284a4.465,4.465,0,0,0-3.565.33A17.184,17.184,0,0,0-9907.949-10488.719Z" transform="translate(9914.016 10495.641)" fill="#fff69f"/></g></g></svg>