<svg xmlns="http://www.w3.org/2000/svg" xmlns:xlink="http://www.w3.org/1999/xlink" width="32" height="32" viewBox="0 0 32 32">
  <defs>
    <clipPath id="clip-ZoneResidentialHigh">
      <rect width="32" height="32"/>
    </clipPath>
  </defs>
  <g id="ZoneResidentialHigh" clip-path="url(#clip-ZoneResidentialHigh)">
    <g id="ZoneResidential" transform="translate(1.488 8.767)">
      <path id="Path_780" data-name="Path 780" d="M-10008-10482.843l16.188,10.105,13.515-10.105-16.512-8.157Z" transform="translate(10008 10492.43)" fill="#156427"/>
    </g>
    <g id="Component_203_6" data-name="Component 203 – 6" transform="translate(0.07 7.378)">
      <path id="Path_724" data-name="Path 724" d="M-9991.4-10491.047l9.246,5.405v-12.851l-9.246-4.459Z" transform="translate(9999.999 10500.713)" fill="#dcd8cc"/>
      <path id="Path_750" data-name="Path 750" d="M-9989.369-10489.7l9.393,4.865v-.825l-9.393-4.784Z" transform="translate(9997.979 10494.326)" fill="#769ba0"/>
      <path id="Path_750-2" data-name="Path 750" d="M-9989.369-10486.715l9.393,4.873v-3.817l-9.393-4.784Z" transform="translate(9997.979 10489.326)" fill="#769ba0"/>
      <path id="Path_753" data-name="Path 753" d="M-9989.369-10489.7l9.393,4.865v-.825l-9.393-4.784Z" transform="translate(9997.979 10495.716)" fill="#769ba0"/>
      <path id="Path_754" data-name="Path 754" d="M-9989.369-10489.7l9.393,5.007.067-.864-9.46-4.887Z" transform="translate(9997.979 10497.104)" fill="#769ba0"/>
      <path id="Path_725" data-name="Path 725" d="M-9977.839-10492.07l5.7-3.98.236-12.183-5.937,3.422Z" transform="translate(9995.686 10507.154)" fill="#004b12"/>
      <path id="Path_726" data-name="Path 726" d="M-9991.34-10490.063l9.324,4.668,5.832-3.4-9.379-4.062Z" transform="translate(9999.961 10487.854)" fill="#ede5cc"/>
      <path id="Path_756" data-name="Path 756" d="M34.45,18.577l5.734-3.356-.077.828L34.45,19.42Z" transform="translate(-16.499 -9.941)" fill="#002612"/>
      <path id="Path_756-2" data-name="Path 756" d="M34.45,18.577l5.734-3.356v3.356L34.45,22.112Z" transform="translate(-16.499 -14.941)" fill="#002612"/>
      <path id="Path_757" data-name="Path 757" d="M34.45,18.577l5.734-3.356-.077.828L34.45,19.42Z" transform="translate(-16.499 -8.552)" fill="#002612"/>
      <path id="Path_758" data-name="Path 758" d="M34.45,18.577l5.734-3.356-.077.828L34.45,19.42Z" transform="translate(-16.499 -7.163)" fill="#002612"/>
      <path id="Path_759" data-name="Path 759" d="M34.45,18.577l5.734-3.356-.077.828L34.45,19.42Z" transform="translate(-16.499 -5.775)" fill="#002612"/>
      <path id="Path_821" data-name="Path 821" d="M10.044,10.117V8.992L13.1,10.7l.1,1.23Z" transform="translate(1 1)" fill="#769ba0"/>
      <path id="Path_724-2" data-name="Path 724" d="M-9991.4-10501.528l1.584.736v-1.512l-1.584-.647Z" transform="translate(10002.998 10499.874)" fill="#cec6ac"/>
      <path id="Path_724-3" data-name="Path 724" d="M-9991.4-10501.528l1.584.736v-1.512l-1.584-.647Z" transform="translate(10006.998 10501.874)" fill="#cec6ac"/>
      <path id="Path_725-2" data-name="Path 725" d="M-9977.839-10506.218l.977-.551v-1.5l-.977.563Z" transform="translate(9991.022 10505.302)" fill="#998f70"/>
      <path id="Path_725-3" data-name="Path 725" d="M-9977.839-10506.218l.977-.551v-1.5l-.977.563Z" transform="translate(9995.022 10507.302)" fill="#998f70"/>
      <path id="Path_726-2" data-name="Path 726" d="M-9991.34-10492.512l1.594.643.969-.511-1.584-.568Z" transform="translate(10002.942 10489.439)" fill="#f6f1e1"/>
      <path id="Path_726-3" data-name="Path 726" d="M-9991.34-10492.512l1.594.643.969-.511-1.584-.568Z" transform="translate(10006.942 10491.439)" fill="#f8f1d9"/>
    </g>
  </g>
</svg>
