<svg xmlns="http://www.w3.org/2000/svg" xmlns:xlink="http://www.w3.org/1999/xlink" width="32" height="32" viewBox="0 0 32 32">
  <defs>
    <clipPath id="clip-ZoneCommercialHigh">
      <rect width="32" height="32"/>
    </clipPath>
  </defs>
  <g id="ZoneCommercialHigh" clip-path="url(#clip-ZoneCommercialHigh)">
    <g id="ZoneResidential" transform="translate(1.488 8.767)">
      <path id="Path_780" data-name="Path 780" d="M-10008-10482.843l16.188,10.105,13.515-10.105-16.512-8.157Z" transform="translate(10008 10492.43)" fill="#005f95"/>
    </g>
    <g id="Component_203_6" data-name="Component 203 – 6" transform="translate(-2 4.599)">
      <path id="Path_724" data-name="Path 724" d="M-9991.4-10488.85l11.725,7.117.133-10.134-11.857-6.12Z" transform="translate(9999.999 10501.578)" fill="#e4d8b3"/>
      <path id="Path_750" data-name="Path 750" d="M-9989.369-10489.464l11.91,6.406v-1.086l-11.91-6.3Z" transform="translate(9997.982 10495.559)" fill="#03243e"/>
      <path id="Path_753" data-name="Path 753" d="M-9989.369-10489.464l11.91,6.406v-1.086l-11.91-6.3Z" transform="translate(9997.982 10497.388)" fill="#03243e"/>
      <path id="Path_754" data-name="Path 754" d="M-9989.369-10489.464l11.91,6.593.086-1.138-12-6.435Z" transform="translate(9997.982 10499.217)" fill="#03243e"/>
      <path id="Path_755" data-name="Path 755" d="M-9988.707-10487.747l9.987,5.894v-2.545l-9.987-5.58Z" transform="translate(9997.982 10501.044)" fill="#03243e"/>
      <path id="Path_725" data-name="Path 725" d="M-9977.839-10488.589l7.228-5.24.233-9.236-7.329,4.376Z" transform="translate(9998.165 10508.451)" fill="#0071a9"/>
      <path id="Path_726" data-name="Path 726" d="M-9991.34-10489.177l11.824,6.146,7.4-4.48-11.895-5.35Z" transform="translate(9999.967 10492.854)" fill="#faf7ec"/>
      <path id="Path_756" data-name="Path 756" d="M34.45,19.64l7.271-4.419-.1,1.09L34.45,20.749Z" transform="translate(-13.991 -8.267)" fill="#001209"/>
      <path id="Path_757" data-name="Path 757" d="M34.45,19.64l7.271-4.419-.1,1.09L34.45,20.749Z" transform="translate(-13.991 -6.438)" fill="#001209"/>
      <path id="Path_758" data-name="Path 758" d="M34.45,19.64l7.271-4.419-.1,1.09L34.45,20.749Z" transform="translate(-13.991 -4.609)" fill="#001209"/>
      <path id="Path_759" data-name="Path 759" d="M35.1,19.2,41,15.593v2.288l-5.9,4.206Z" transform="translate(-13.991 -2.781)" fill="#001209"/>
      <path id="Path_814" data-name="Path 814" d="M5.688,8.846l1.041-.583V3.825L.549,1.052-.4,1.493Z" transform="translate(11 2)" fill="#0071a9"/>
      <path id="Path_724-2" data-name="Path 724" d="M-9991.4-10493.844l6.02,3.223.068-4.59-6.088-2.773Z" transform="translate(10001.999 10501.467)" fill="#73d0ff"/>
    </g>
  </g>
</svg>
