<svg xmlns="http://www.w3.org/2000/svg" xmlns:xlink="http://www.w3.org/1999/xlink" width="32" height="32" viewBox="0 0 32 32">
  <defs>
    <clipPath id="clip-ZoneCP5ResidentialMedium">
      <rect width="32" height="32"/>
    </clipPath>
  </defs>
  <g id="ZoneCP5ResidentialMedium" clip-path="url(#clip-ZoneCP5ResidentialMedium)">
    <g id="a" transform="translate(-0.35 0.837)">
      <g id="Group_2847" data-name="Group 2847">
        <path id="Path_4092" data-name="Path 4092" d="M1.5,16.4,17.69,26.5,31.2,16.4,15.49,8.3Z" fill="#008f15"/>
      </g>
      <g id="Group_2880" data-name="Group 2880">
        <g id="Group_2848" data-name="Group 2848">
          <path id="Path_4093" data-name="Path 4093" d="M8.667,16.526l8.23,5.1v-10.1l-8.23-4.4Z" fill="#e8e0d5"/>
        </g>
        <g id="Group_2849" data-name="Group 2849">
          <path id="Path_4094" data-name="Path 4094" d="M8.667,16.526l8.23,5.1,7.37-5.4v-9.1l-7.37,4.4-8.23-4.4Z" fill="#e8e0d5"/>
        </g>
        <g id="Group_2850" data-name="Group 2850">
          <path id="Path_4095" data-name="Path 4095" d="M9.3,11.026l2.07,1.3v-2.7L9.3,8.426Z" fill="#769ba0"/>
        </g>
        <g id="Group_2851" data-name="Group 2851">
          <path id="Path_4096" data-name="Path 4096" d="M9.3,14.626l2.07,1.3v-2.7l-2.07-1.2Z" fill="#769ba0"/>
        </g>
        <g id="Group_2852" data-name="Group 2852">
          <path id="Path_4097" data-name="Path 4097" d="M14.027,13.826l2.07,1.3v-2.7l-2.07-1.1Z" fill="#769ba0"/>
        </g>
        <g id="Group_2853" data-name="Group 2853">
          <path id="Path_4098" data-name="Path 4098" d="M14.027,17.326l2.07,1.3v-2.7l-2.07-1.1Z" fill="#769ba0"/>
        </g>
        <g id="Group_2854" data-name="Group 2854">
          <path id="Path_4099" data-name="Path 4099" d="M11.667,12.426l2.07,1.3v-2.7l-2.07-1.2Z" fill="#769ba0"/>
        </g>
        <g id="Group_2855" data-name="Group 2855">
          <path id="Path_4100" data-name="Path 4100" d="M11.667,16.026l2.07,1.3v-2.7l-2.07-1.2Z" fill="#769ba0"/>
        </g>
        <g id="Group_2856" data-name="Group 2856">
          <path id="Path_4101" data-name="Path 4101" d="M16.917,21.626l7.37-5.2v-9.2l-7.37,4.5Z" fill="#007b1d"/>
        </g>
        <g id="Group_2857" data-name="Group 2857">
          <path id="Path_4102" data-name="Path 4102" d="M17.674,14.969l1.814-1.138v-2.6l-1.814,1.138Z" fill="#004009"/>
        </g>
        <g id="Group_2858" data-name="Group 2858">
          <path id="Path_4103" data-name="Path 4103" d="M17.674,18.522l1.814-1.138v-2.6l-1.814,1.138Z" fill="#004009"/>
        </g>
        <g id="Group_2859" data-name="Group 2859">
          <path id="Path_4104" data-name="Path 4104" d="M21.81,12.259l1.814-1.138v-2.5L21.81,9.859Z" fill="#004009"/>
        </g>
        <g id="Group_2860" data-name="Group 2860">
          <path id="Path_4105" data-name="Path 4105" d="M21.81,15.713l1.814-1.238v-2.3L21.81,13.313Z" fill="#004009"/>
        </g>
        <g id="Group_2861" data-name="Group 2861">
          <path id="Path_4106" data-name="Path 4106" d="M19.775,13.561l1.814-1.138v-2.5l-1.814,1.138Z" fill="#004009"/>
        </g>
        <g id="Group_2862" data-name="Group 2862">
          <path id="Path_4107" data-name="Path 4107" d="M19.775,17.114l1.814-1.238v-2.4l-1.814,1.138Z" fill="#004009"/>
        </g>
        <g id="Group_2863" data-name="Group 2863">
          <path id="Path_4108" data-name="Path 4108" d="M19.287,4.226l-2.4.6-4.95-1L8.7,7.226l8.23,4.6,7.24-4.6-2.85-2.8Z" fill="#de792a"/>
        </g>
        <g id="Group_2864" data-name="Group 2864">
          <path id="Path_4109" data-name="Path 4109" d="M8.7,7.226l8.23,4.6-.04-5.5-4.96-2.5Z" fill="#de792a"/>
        </g>
        <g id="Group_2865" data-name="Group 2865">
          <path id="Path_4110" data-name="Path 4110" d="M18.9,4.126l-2.01.7v1.6l4.43-2Z" fill="#de792a"/>
        </g>
        <g id="Group_2866" data-name="Group 2866">
          <path id="Path_4111" data-name="Path 4111" d="M11.937,3.826l4.95,2.6v-1.6l-2.07-1Z" fill="#bf651e"/>
        </g>
        <g id="Group_2867" data-name="Group 2867">
          <path id="Path_4112" data-name="Path 4112" d="M21.277,4.426l-4.39,2,.04,5.4,7.37-4.6Z" fill="#bf651e"/>
        </g>
        <g id="Group_2868" data-name="Group 2868">
          <path id="Path_4113" data-name="Path 4113" d="M20.427,5.526l.04.8,1.56.9.36-.6Z" fill="#de792a"/>
        </g>
        <g id="Group_2869" data-name="Group 2869">
          <path id="Path_4114" data-name="Path 4114" d="M19.747,9.626l.67-.4v-1.1l-.29-.2-.38.7-1.66-1Z" fill="#cbb79c"/>
        </g>
        <g id="Group_2870" data-name="Group 2870">
          <path id="Path_4115" data-name="Path 4115" d="M18.087,7.626l1.66,2v-1Z" fill="#e8e0d5"/>
        </g>
        <g id="Group_2871" data-name="Group 2871">
          <path id="Path_4116" data-name="Path 4116" d="M22.027,8.226l.64-.4v-1.1l-.28-.1-.36.6-1.56-.9Z" fill="#cbb79c"/>
        </g>
        <g id="Group_2872" data-name="Group 2872">
          <path id="Path_4117" data-name="Path 4117" d="M20.457,6.326l1.57,1.9v-1Z" fill="#e8e0d5"/>
        </g>
        <g id="Group_2873" data-name="Group 2873">
          <path id="Path_4118" data-name="Path 4118" d="M18.047,6.726l.04.9,1.66,1,.38-.7Z" fill="#de792a"/>
        </g>
        <g id="Group_2874" data-name="Group 2874">
          <path id="Path_4119" data-name="Path 4119" d="M12.935,5.223l-.042.846-1.667.953-.382-.635Z" fill="#bf651e"/>
        </g>
        <g id="Group_2875" data-name="Group 2875">
          <path id="Path_4120" data-name="Path 4120" d="M13.647,9.561l-.712-.423V7.974l.308-.212.4.741,1.762-1.058Z" fill="#e8e0d5"/>
        </g>
        <g id="Group_2876" data-name="Group 2876">
          <path id="Path_4121" data-name="Path 4121" d="M15.409,7.445,13.647,9.561V8.5Z" fill="#cbb79c"/>
        </g>
        <g id="Group_2877" data-name="Group 2877">
          <path id="Path_4122" data-name="Path 4122" d="M11.226,8.08l-.68-.424V6.6l.3-.211.382.635,1.667-.953Z" fill="#e8e0d5"/>
        </g>
        <g id="Group_2878" data-name="Group 2878">
          <path id="Path_4123" data-name="Path 4123" d="M12.893,6.069,11.226,8.08V7.022Z" fill="#cbb79c"/>
        </g>
        <g id="Group_2879" data-name="Group 2879">
          <path id="Path_4124" data-name="Path 4124" d="M15.451,6.493l-.042.952L13.647,8.5l-.4-.741Z" fill="#bf651e"/>
        </g>
      </g>
    </g>
  </g>
</svg>
