<svg xmlns="http://www.w3.org/2000/svg" xmlns:xlink="http://www.w3.org/1999/xlink" width="64" height="64" viewBox="0 0 64 64"><defs><clipPath id="b"><rect width="64" height="64"/></clipPath></defs><g id="a"><path d="M819.858-147.377l33.763,19.59,13.576-9.864L832-156.124Z" transform="translate(-811.528 189.042)" fill="#2c4401"/><path d="M824.113-134.164l11.392-7.2v-19.646l-12.117.643Z" transform="translate(-804.968 179.982)" fill="#878374"/><path d="M820.495-134.057l8.919,4.889v-17.916s.66-4.985,6.442-3.372,7.337,7.879,7.337,7.879v21.631l9.031,5.672.424-37.86-32.154-14.179Z" transform="translate(-810.346 175.09)" fill="#b8b0a7"/><path d="M833.019-119.873l11.457-7.9.871-36.641L833.4-157.849Z" transform="translate(-791.1 179.559)" fill="#878374"/><path d="M820.495-161.667l32.25,14.385,11.766-6.938L832.169-166.7Z" transform="translate(-810.346 169.444)" fill="#e0d9d0"/><path d="M820.875-161.954l6.658,3.172v8.018l-6.658-3.434Z" transform="translate(-809.638 181.791)" fill="#a49d95"/><path d="M820.875-161.954l6.658,3.172v8.018l-6.658-3.434Z" transform="translate(-786.769 193.205)" fill="#a49d95"/><path d="M820.511-162.5l32.04,14.594v3.006L820.511-159.9Z" transform="translate(-810.315 177.233)" fill="#8e8a85"/><path d="M831.742-153.292c.233-.058,11.591-6.338,11.591-6.338v2.707l-11.591,6.731Z" transform="translate(-789.44 182.545)" fill="#65635a"/><path d="M821.7-162.516l8.891-3.669,27.976,11.106-8.137,4.875Z" transform="translate(-808.102 170.396)" fill="#f9f2f2"/></g></svg>