<svg xmlns="http://www.w3.org/2000/svg" xmlns:xlink="http://www.w3.org/1999/xlink" width="32" height="32" viewBox="0 0 32 32"><defs><clipPath id="b"><rect width="32" height="32"/></clipPath></defs><g id="a"><g transform="translate(1.488 6.767)"><path d="M-10008-10482.843l16.188,10.105,13.515-10.105-16.512-8.157Z" transform="translate(10008 10492.43)" fill="#a8d061"/></g><path d="M679.815-278.425l11.722,7.117,7.438-5-11.5-6.21Z" transform="translate(-674 295.425)" fill="#6e8743"/><path d="M679.139-280.982l3.071,1.7,3.523-3.079.215-2.373-3.863,2.373-3.154-1.678Z" transform="translate(-671.8 297.389)" fill="#ff8205"/><path d="M678.931-283.871l3.264,1.809,3.644-2.424-3.1-1.57Z" transform="translate(-671.8 297.173)" fill="#e6e6e6"/><path d="M679.774-279.188v-8.336l4.294-1.243v6.864h-.676v-5.808l-2.616.882v7.641C680.776-278.416,679.774-279.188,679.774-279.188Z" transform="translate(-671.648 293.729)" fill="#a4a4a4"/><path d="M681.732-279.287v-3.081l3.243-2.15c.811-.537.326,2.978.326,2.978Z" transform="translate(-671.297 297.415)" fill="#af4305"/><path d="M684.6-276.469l1.226-.639.972-7.589,2.956-.634,1.9,8.862,1.377.348-2.16-10.361s-4.542.052-4.761,0S684.6-276.469,684.6-276.469Z" transform="translate(-671.962 295.94)" fill="#817777"/><path d="M683.841-278.668l.927.405,1.381-9.386,1.4.559.676,10.876,1.008.784L688.684-288l-3.292-1.33Z" transform="translate(-672.098 297.801)" fill="#ff8205"/><path d="M688.006-274.269l.861-.584-.5-9.612,1.666-.691,1.685,8.387.7-.433-2.136-10.593-3.211-1.518-2.968,1.118,3.345,1.494Z" transform="translate(-670.87 296.64)" fill="#af4305"/><path d="M681.066-286.539l1.781-.656,11.475-1.356.31,2.013-13.283,1.028Z" transform="translate(-728.652 -23.496) rotate(25)" fill="#8f8f8f"/><path d="M690.3-275.791a12.531,12.531,0,0,0,3.149-8.005,11.882,11.882,0,0,0-3.149-8.344Z" transform="translate(-670.868 294.609)" fill="#cbcbcb"/><path d="M690.3-275.042l4.6-2.928s2.332-3.888,2.138-7.667-2.913-7.447-2.913-7.447l-3.822,1.693s3.031,3.359,3.031,7.447S690.3-275.042,690.3-275.042Z" transform="translate(-670.868 293.86)" fill="#4e5462"/></g></svg>