<svg xmlns="http://www.w3.org/2000/svg" xmlns:xlink="http://www.w3.org/1999/xlink" width="32" height="32" viewBox="0 0 32 32"><defs><clipPath id="b"><rect width="32" height="32"/></clipPath></defs><g id="a"><g transform="translate(0.796 4.408)"><path d="M-10008-10482.843l16.188,10.105,13.515-10.105-16.512-8.157Z" transform="translate(10008 10493.885)" fill="#a8d061"/><path d="M-9906.379-10481.035l8.623,4.981.145-4.981-8.771-4.782Z" transform="translate(9914.058 10492.352)" fill="#d6a900"/><path d="M-9888.85-10475.07l5.781-4.144v-4.669l-5.781,3.848Z" transform="translate(9905.154 10491.461)" fill="#a48700"/><path d="M-9906.28-10489l8.7,4.788,5.612-3.837-8.653-4.337Z" transform="translate(9914.016 10495.641)" fill="#fff69f"/><path d="M-9902.63-10487.994l5.228,2.607,3.594-2.426-4.818-2.471Z" transform="translate(9912.163 10494.567)" fill="#f29d00"/></g><g transform="translate(6 1.582)"><ellipse cx="3" cy="1" rx="3" ry="1" transform="translate(2 15.418)" fill="#2f2f2f"/><path d="M0,0H1.916V3.785a1.868,1.868,0,0,1-.966.384A1.781,1.781,0,0,1,0,3.785Z" transform="translate(3.613 12.265)" fill="#976c4f"/><path d="M4.645,0l3,5.617L9.29,7.444A12.214,12.214,0,0,1,4.645,8.581,12.214,12.214,0,0,1,0,7.444s.252.034,1.413-1.827S4.645,0,4.645,0Z" transform="translate(0 5.393)" fill="#367c01"/><path d="M4.115,0S5.421,2.344,6.45,3.772A8.479,8.479,0,0,0,8.229,5.714a12.143,12.143,0,0,1-4.115.872A12.143,12.143,0,0,1,0,5.714,10.553,10.553,0,0,0,1.674,3.772C2.7,2.344,4.115,0,4.115,0Z" transform="translate(0.545 3.951)" fill="#54b60b"/><path d="M2.632,0A18.968,18.968,0,0,0,3.7,3.236,11,11,0,0,0,5.264,5.665a5.611,5.611,0,0,1-2.632.865A5.611,5.611,0,0,1,0,5.665,12.206,12.206,0,0,0,1.506,3.236,22.235,22.235,0,0,0,2.632,0Z" transform="translate(2.093 0)" fill="#83e637"/></g></g></svg>