<svg xmlns="http://www.w3.org/2000/svg" xmlns:xlink="http://www.w3.org/1999/xlink" width="32" height="32" viewBox="0 0 32 32">
  <defs>
    <clipPath id="clip-ZoneResidentialLowRent">
      <rect width="32" height="32"/>
    </clipPath>
  </defs>
  <g id="ZoneResidentialLowRent" clip-path="url(#clip-ZoneResidentialLowRent)">
    <g id="ZoneResidential" transform="translate(1.488 8.767)">
      <path id="Path_780" data-name="Path 780" d="M-10008-10482.843l16.188,10.105,13.515-10.105-16.512-8.157Z" transform="translate(10008 10492.43)" fill="#156427"/>
    </g>
    <g id="Component_203_6" data-name="Component 203 – 6" transform="translate(-2 4.599)">
      <path id="Path_724" data-name="Path 724" d="M-9991.4-10488.85l11.725,7.117.133-10.134-11.857-6.12Z" transform="translate(9999.999 10501.578)" fill="#c8c8c8"/>
      <path id="Path_750" data-name="Path 750" d="M-9989.369-10489.464l11.91,6.406v-1.086l-11.91-6.3Z" transform="translate(9997.982 10495.559)" fill="#769ba0"/>
      <path id="Path_753" data-name="Path 753" d="M-9989.369-10489.464l11.91,6.406v-1.086l-11.91-6.3Z" transform="translate(9997.982 10497.388)" fill="#769ba0"/>
      <path id="Path_754" data-name="Path 754" d="M-9989.369-10489.464l11.91,6.593.086-1.138-12-6.435Z" transform="translate(9997.982 10499.217)" fill="#769ba0"/>
      <path id="Path_755" data-name="Path 755" d="M-9989.369-10489.464l11.757,6.682v-1.109l-11.757-6.552Z" transform="translate(9997.982 10501.044)" fill="#769ba0"/>
      <path id="Path_725" data-name="Path 725" d="M-9977.839-10488.589l7.228-5.24.233-9.236-7.329,4.376Z" transform="translate(9998.165 10508.451)" fill="#007b1d"/>
      <path id="Path_726" data-name="Path 726" d="M-9991.34-10489.177l11.824,6.146,7.4-4.48-11.895-5.35Z" transform="translate(9999.967 10492.854)" fill="#a3aaaf"/>
      <path id="Path_756" data-name="Path 756" d="M34.45,19.64l7.271-4.419-.1,1.09L34.45,20.749Z" transform="translate(-13.991 -8.267)" fill="#035a2c"/>
      <path id="Path_757" data-name="Path 757" d="M34.45,19.64l7.271-4.419-.1,1.09L34.45,20.749Z" transform="translate(-13.991 -6.438)" fill="#035a2c"/>
      <path id="Path_758" data-name="Path 758" d="M34.45,19.64l7.271-4.419-.1,1.09L34.45,20.749Z" transform="translate(-13.991 -4.609)" fill="#035a2c"/>
      <path id="Path_759" data-name="Path 759" d="M34.45,19.64l7.271-4.419-.1,1.09L34.45,20.749Z" transform="translate(-13.991 -2.781)" fill="#035a2c"/>
    </g>
  </g>
</svg>
