<svg xmlns="http://www.w3.org/2000/svg" xmlns:xlink="http://www.w3.org/1999/xlink" width="32" height="32" viewBox="0 0 32 32"><defs><clipPath id="b"><rect width="32" height="32"/></clipPath></defs><g id="a"><g transform="translate(1.488 6.767)"><path d="M-10008-10482.843l16.188,10.105,13.515-10.105-16.512-8.157Z" transform="translate(10008 10492.43)" fill="#a8d061"/></g><path d="M674.56-228.657l6.783,4.315-1.7-8.74-4.678-6.539Z" transform="translate(-673 245)" fill="#39454b"/><path d="M680.312-223.311l13.86-7.9-4.41-6.628-2.893-5.353-12.893,4.5,2.142,8.363Z" transform="translate(-672 244)" fill="#5f6d76"/><path d="M3,0C4.657,0,6,2.686,6,6s-1.343,6-3,6c-.128,0-2.119.957-2.537.822C-.721,12.555,0,9.059,0,6,0,3.959-1.416,2.44-.443,1.107-.151.68,2.364,0,3,0Z" transform="matrix(0.995, -0.105, 0.105, 0.995, 13.329, 5.192)" fill="#ffb432"/><ellipse cx="3" cy="6" rx="3" ry="6" transform="matrix(0.995, -0.105, 0.105, 0.995, 10.45, 6.501)" fill="#ff8205"/><path d="M681.62-240.319l-.588-3.242,3.583-.725,1.45,1.052.777,1.755-3.388,1.161Z" transform="translate(-669 247)" fill="#ff8205"/><path d="M685.29-238.257l1.357-1.937,3.047-1.161v2.517l-.631,2-3.469,1.647C684.726-234.779,685.29-238.257,685.29-238.257Z" transform="translate(-669 247)" fill="#ff8205"/><path d="M685.593-231.9l3.324-1.545,2.27.675-3.815,2.075-3.148.878Z" transform="translate(-669 247)" fill="#ff8205"/><path d="M682.389-229.823l1.741,2.416,3.1-1.5-.921-1.494-2.176,1.059Z" transform="translate(-669 247)" fill="#ff8205"/><path d="M681.032-231.636l-3.141.987,2.756-4.062Z" transform="translate(-669 247)" fill="#ff8205"/><path d="M680.648-236.4l-2.725-.652,1.2-1.378,2.444-1.068Z" transform="translate(-669 247)" fill="#ff8205"/><path d="M686.671-238.319l.316,2.352-.827,2.611,3.047-1.5.675-2.22v-2.568Z" transform="translate(-669 245)" fill="#fa9e00"/><path d="M688.908-231.45l2.377.694-3.147,1.585-2.423-1.014Z" transform="translate(-669 245)" fill="#ffcf7d"/><path d="M683.777-238.375l-.66-2.087-1.974-1.146,3.52-.828,1.545,1.142.774,1.893Z" transform="translate(-669 245)" fill="#ffcf7d"/><path d="M693.889-224.422l-10.858-6.322c-2.715-1.58-.815-3.911-.3-4s5.207,2.06,5.207,2.06l1.175-.518-.175-1.542.4-.4,1.958.858,6.87,2.907-.811,4.79Z" transform="translate(-669 245)" fill="#b64d08"/><path d="M698.117-231.279v4.119l-4.164,2.815v-4.325Z" transform="translate(-669 245)" fill="#77360b"/><path d="M693.953-228.65l-11.967-5.605.687-.594,5.194,2.06,2.4-1.033-1.236-.731.594-.3,1.692.594,6.845,2.884Z" transform="translate(-669 245)" fill="#da5f0d"/></g></svg>