<?xml version="1.0" encoding="UTF-8" standalone="no"?>
<!DOCTYPE svg PUBLIC "-//W3C//DTD SVG 1.1//EN" "http://www.w3.org/Graphics/SVG/1.1/DTD/svg11.dtd">
<svg width="100%" height="100%" viewBox="0 0 128 128" version="1.1" xmlns="http://www.w3.org/2000/svg" xmlns:xlink="http://www.w3.org/1999/xlink" xml:space="preserve" xmlns:serif="http://www.serif.com/" style="fill-rule:evenodd;clip-rule:evenodd;stroke-linejoin:round;stroke-miterlimit:2;">
    <g transform="matrix(2.2242,0,0,2.2242,-10.3788,-86.7812)">
        <path d="M57.65,53.486C57.65,51.456 56.001,49.807 53.971,49.807L12.911,49.807C10.88,49.807 9.231,51.456 9.231,53.486C9.231,55.517 10.88,57.166 12.911,57.166L53.971,57.166C56.001,57.166 57.65,55.517 57.65,53.486Z" style="fill:rgb(139,219,70);"/>
    </g>
    <g transform="matrix(2.2242,0,0,2.2242,-10.3788,-65.5701)">
        <path d="M57.65,53.486C57.65,51.456 56.001,49.807 53.971,49.807L12.911,49.807C10.88,49.807 9.231,51.456 9.231,53.486C9.231,55.517 10.88,57.166 12.911,57.166L53.971,57.166C56.001,57.166 57.65,55.517 57.65,53.486Z" style="fill:rgb(70,178,219);"/>
    </g>
    <g transform="matrix(2.2242,0,0,2.2242,-10.3788,-44.3589)">
        <path d="M57.65,53.486C57.65,51.456 56.001,49.807 53.971,49.807L12.911,49.807C10.88,49.807 9.231,51.456 9.231,53.486C9.231,55.517 10.88,57.166 12.911,57.166L53.971,57.166C56.001,57.166 57.65,55.517 57.65,53.486Z" style="fill:rgb(219,194,70);"/>
    </g>
    <g transform="matrix(2.2242,0,0,2.2242,-10.3788,-23.1478)">
        <path d="M57.65,53.486C57.65,51.456 56.001,49.807 53.971,49.807L12.911,49.807C10.88,49.807 9.231,51.456 9.231,53.486C9.231,55.517 10.88,57.166 12.911,57.166L53.971,57.166C56.001,57.166 57.65,55.517 57.65,53.486Z" style="fill:rgb(141,68,173);"/>
    </g>
</svg>
