<?xml version="1.0" encoding="UTF-8" standalone="no"?>
<!DOCTYPE svg PUBLIC "-//W3C//DTD SVG 1.1//EN" "http://www.w3.org/Graphics/SVG/1.1/DTD/svg11.dtd">
<svg width="100%" height="100%" viewBox="0 0 400 300" version="1.1" xmlns="http://www.w3.org/2000/svg" xmlns:xlink="http://www.w3.org/1999/xlink" xml:space="preserve" xmlns:serif="http://www.serif.com/" style="fill-rule:evenodd;clip-rule:evenodd;stroke-linejoin:round;stroke-miterlimit:2;">
    <g transform="matrix(1.20459,0,0,1,-68.1377,0)">
        <path d="M78.579,280.651C77.088,280.894 51.708,285.763 66.941,287.597C86.025,289.895 122.131,287.683 124.163,289.123C131.725,294.478 139.572,297.092 153.585,293.293C159.471,291.697 163.121,287.346 164.543,287.537C172.418,288.592 178.022,289.507 182.421,289.579C191.744,289.732 203.315,289.292 211.554,289.884C216.04,290.207 218.084,291.686 221.584,291.776C245.616,292.394 256.947,291.426 280.107,290.632C322.138,289.189 357.281,289.086 363.288,286.893C373.475,283.175 331.221,277.226 324.465,275.994C297.458,271.07 287.423,278.215 203.673,262.407C147.352,251.776 126.714,249.942 119.026,251.863C116.689,252.446 136.359,271.159 109.157,277.604C101.535,279.41 96.904,280.185 78.579,280.651Z" style="fill:rgb(70,36,18);fill-opacity:0.73;"/>
    </g>
    <g transform="matrix(1,0,0,1,-668.187,-89.3996)">
        <g>
            <g transform="matrix(-0.0605234,0.0646167,-0.0734623,-0.0694853,819.883,304.513)">
                <path d="M402.364,116.074C305.699,290.185 508.001,299.262 578.29,446.38C613.062,519.161 514.972,1053.37 505.331,985.728C492.758,897.527 485.161,880.847 465.286,834.05C443.272,782.219 387.233,725.055 354.258,697.818C247.556,609.685 196.98,576.438 211.201,474.25C214.609,449.76 227.759,406.856 233.931,374.322C252.046,278.844 283.152,170.936 402.364,116.074Z" style="fill:rgb(66,123,11);"/>
            </g>
            <g transform="matrix(-0.0433235,0.0779698,-0.111159,-0.0656306,821.326,304.196)">
                <path d="M368.578,164.468C275.473,259.971 385.471,317.239 437.902,393.161C458.155,422.488 485.542,491.242 476.434,523.763C453.858,604.376 415.514,668.486 381.585,710.127C364.56,731.022 262.603,844.411 256.417,844.851C256.417,844.851 301.607,775.81 292.825,683.074C281.466,563.126 165.873,550.731 169.89,469.528C174.107,384.257 261.217,207.595 368.578,164.468Z" style="fill:rgb(91,169,16);"/>
            </g>
        </g>
        <g transform="matrix(1.19051,0.471322,-0.471322,1.19051,44.0012,-472.293)">
            <g transform="matrix(-0.0605234,0.0646167,-0.0734623,-0.0694853,819.883,304.513)">
                <path d="M402.364,116.074C305.699,290.185 508.001,299.262 578.29,446.38C613.062,519.161 438.429,939.701 417.21,874.068C375.876,746.21 340.501,641.495 291.52,597.233C275.172,582.46 201.926,535.378 182.548,400.28C167.395,294.637 242.531,189.63 402.364,116.074Z" style="fill:rgb(70,112,30);"/>
            </g>
            <g transform="matrix(-0.0433235,0.0779698,-0.111159,-0.0656306,821.326,304.196)">
                <path d="M368.578,164.468C275.473,259.971 385.471,317.239 437.902,393.161C458.155,422.488 473.981,451.783 464.873,484.304C442.297,564.917 216.398,745.544 210.212,745.984C210.212,745.984 240.05,689.23 235.341,627.035C227.778,527.173 208.423,525.431 186.287,445.157C141.986,284.5 261.217,207.595 368.578,164.468Z" style="fill:rgb(91,169,16);"/>
            </g>
        </g>
        <g transform="matrix(0.999022,-0.0442263,0.0442263,0.999022,30.6452,17.885)">
            <g transform="matrix(-0.0605234,0.0646167,-0.0734623,-0.0694853,819.883,304.513)">
                <path d="M402.364,116.074C305.699,290.185 508.001,299.262 578.29,446.38C613.062,519.161 488.92,1051.59 467.822,985.929C421.686,842.339 386.058,759.538 335.502,700.637C223.368,569.994 204.573,567.184 206.772,464.893C209.066,358.195 242.531,189.63 402.364,116.074Z" style="fill:rgb(70,112,30);"/>
            </g>
            <g transform="matrix(-0.0433235,0.0779698,-0.111159,-0.0656306,821.326,304.196)">
                <path d="M368.578,164.468C275.473,259.971 427.599,314.038 474.974,459.563C501.328,540.515 419.283,623.255 368.589,683.857C351.225,704.614 234.506,836.493 228.32,836.934C228.32,836.934 260.865,755.606 251.731,696.49C247.149,666.834 212,595.713 189.864,515.44C145.563,354.782 261.217,207.595 368.578,164.468Z" style="fill:rgb(105,198,15);"/>
            </g>
        </g>
        <g transform="matrix(1,0,0,1,668.187,89.3996)">
            <path d="M199.113,178.276C201.673,130.818 213.75,130.553 205.241,110.194C203.041,104.93 190.845,88.995 193.686,72.567C197.042,53.167 204.095,55.755 207.926,36.329C209.543,47.131 205.526,51.146 201.526,58.841C196.768,67.995 194.27,80.097 201.582,94.099C209.324,108.924 216.761,113.55 213.163,129.85C208.987,148.774 212.31,154.657 213.587,172.992C214.448,185.356 204.815,179.286 202.706,179.77" style="fill:rgb(70,112,30);"/>
        </g>
        <g transform="matrix(-1.67029,-0.156188,-0.156188,1.67029,1326.28,82.8163)">
            <path d="M199.113,178.276C201.673,130.818 214.697,126.202 208.317,105.079C204.197,91.44 197.416,88.532 195.405,76.222C193.065,61.902 198.346,60.676 203.436,51.568C205.109,48.575 204.323,43.425 204.205,37.228C205.822,48.03 207.302,51.269 201.526,58.841C195.269,67.044 199.81,81.171 207.784,91.511C217.998,104.755 216.761,113.55 213.163,129.85C208.987,148.774 212.31,154.657 213.587,172.992C214.448,185.356 204.815,179.286 202.706,179.77" style="fill:rgb(70,112,30);"/>
        </g>
        <g transform="matrix(0.792034,-0.610477,0.610477,0.792034,-47.3353,552.244)">
            <g transform="matrix(-0.0605234,0.0646167,-0.0734623,-0.0694853,819.883,304.513)">
                <path d="M402.364,116.074C305.699,290.185 437.956,344.557 578.29,446.38C737.197,561.68 613.954,1005.46 583.176,942.757C422.951,616.349 203.028,639.013 206.772,464.893C209.066,358.195 242.531,189.63 402.364,116.074Z" style="fill:rgb(75,140,12);"/>
            </g>
            <g transform="matrix(-0.0433235,0.0779698,-0.111159,-0.0656306,821.326,304.196)">
                <path d="M368.578,164.468C275.473,259.971 385.471,317.239 437.902,393.161C458.155,422.488 510.669,441.382 505.304,542.653C500.939,625.028 469.769,676.044 435.273,736.051C396.966,802.687 359.848,826.171 353.662,826.611C353.662,826.611 370.747,750.927 348.568,682.999C314.072,577.353 217.511,523.839 195.376,443.565C151.074,282.907 261.217,207.595 368.578,164.468Z" style="fill:rgb(105,198,15);"/>
            </g>
        </g>
        <g transform="matrix(-1.21368,-0.0632324,-0.0632324,1.21368,1934.42,-66.1693)">
            <g transform="matrix(-0.0605234,0.0646167,-0.0734623,-0.0694853,819.883,304.513)">
                <path d="M402.364,116.074C305.699,290.185 508.001,299.262 578.29,446.38C613.062,519.161 637.289,977.749 593.879,921.026C392.064,657.318 203.028,639.013 206.772,464.893C209.066,358.195 242.531,189.63 402.364,116.074Z" style="fill:rgb(70,112,30);"/>
            </g>
            <g transform="matrix(-0.0433235,0.0779698,-0.111159,-0.0656306,821.326,304.196)">
                <path d="M368.578,164.468C275.473,259.971 385.471,317.239 437.902,393.161C458.155,422.488 473.981,451.783 464.873,484.304C442.297,564.917 453.93,632.383 436.736,678.908C412.192,745.318 370.302,810.423 364.116,810.863C364.116,810.863 370.168,768.295 333.109,707.119C278.242,616.547 194.695,557.744 175.117,480.008C134.416,318.4 261.217,207.595 368.578,164.468Z" style="fill:rgb(105,198,15);"/>
            </g>
        </g>
        <g transform="matrix(-1.31011,-0.682046,-0.682046,1.31011,2198.59,413.145)">
            <g transform="matrix(-0.0605234,0.0646167,-0.0734623,-0.0694853,819.883,304.513)">
                <path d="M402.364,116.074C305.699,290.185 508.001,299.262 578.29,446.38C613.062,519.161 564.317,866.995 517.676,812.266C327.003,588.526 186.801,637.404 190.544,463.284C192.838,356.586 242.531,189.63 402.364,116.074Z" style="fill:rgb(70,112,30);"/>
            </g>
            <g transform="matrix(-0.0433235,0.0779698,-0.111159,-0.0656306,821.326,304.196)">
                <path d="M368.578,164.468C275.473,259.971 385.471,317.239 437.902,393.161C458.155,422.488 473.981,451.783 464.873,484.304C442.297,564.917 402.518,642.216 368.589,683.857C351.564,704.751 326.495,717.735 320.309,718.176C320.309,718.176 323.253,701.049 323.338,693.492C324.142,622.079 295.967,565.931 175.558,448.992C37.284,314.703 261.217,207.595 368.578,164.468Z" style="fill:rgb(105,198,15);"/>
            </g>
        </g>
        <g transform="matrix(-1.00347,-1.0838,-1.0838,1.00347,2076.69,870.747)">
            <g transform="matrix(-0.0605234,0.0646167,-0.0734623,-0.0694853,819.883,304.513)">
                <path d="M402.364,116.074C305.699,290.185 508.001,299.262 578.29,446.38C613.062,519.161 564.317,866.995 517.676,812.266C327.003,588.526 186.801,637.404 190.544,463.284C192.838,356.586 242.531,189.63 402.364,116.074Z" style="fill:rgb(70,112,30);"/>
            </g>
            <g transform="matrix(-0.0433235,0.0779698,-0.111159,-0.0656306,821.326,304.196)">
                <path d="M368.578,164.468C275.473,259.971 385.471,317.239 437.902,393.161C458.155,422.488 473.981,451.783 464.873,484.304C442.297,564.917 402.518,642.216 368.589,683.857C351.564,704.751 326.495,717.735 320.309,718.176C320.309,718.176 323.253,701.049 323.338,693.492C324.142,622.079 295.967,565.931 175.558,448.992C37.284,314.703 261.217,207.595 368.578,164.468Z" style="fill:rgb(105,198,15);"/>
            </g>
        </g>
        <g transform="matrix(0.728267,0.0862691,-0.0862691,0.728267,325.794,-63.5968)">
            <g transform="matrix(-0.0605234,0.0646167,-0.0734623,-0.0694853,819.883,304.513)">
                <path d="M402.364,116.074C305.699,290.185 508.001,299.262 578.29,446.38C613.062,519.161 556.364,1020.46 527.746,956.988C352.528,568.368 203.028,639.013 206.772,464.893C209.066,358.195 242.531,189.63 402.364,116.074Z" style="fill:rgb(70,112,30);"/>
            </g>
            <g transform="matrix(-0.0433235,0.0779698,-0.111159,-0.0656306,821.326,304.196)">
                <path d="M368.578,164.468C275.473,259.971 385.471,317.239 437.902,393.161C458.155,422.488 473.981,451.783 464.873,484.304C442.297,564.917 391.14,677.138 368.666,722.489C349.435,761.296 295.016,826.802 288.83,827.242C288.83,827.242 307.84,734.424 301.584,699.812C273.54,544.665 205.035,533.667 182.9,453.393C138.598,292.736 261.217,207.595 368.578,164.468Z" style="fill:rgb(105,198,15);"/>
            </g>
        </g>
        <g transform="matrix(-0.727063,-0.0958842,-0.0958842,0.727063,1565.76,64.4463)">
            <g transform="matrix(-0.0605234,0.0646167,-0.0734623,-0.0694853,819.883,304.513)">
                <path d="M402.364,116.074C305.699,290.185 508.001,299.262 578.29,446.38C613.062,519.161 556.364,1020.46 527.746,956.988C352.528,568.368 203.028,639.013 206.772,464.893C209.066,358.195 242.531,189.63 402.364,116.074Z" style="fill:rgb(70,112,30);"/>
            </g>
            <g transform="matrix(-0.0433235,0.0779698,-0.111159,-0.0656306,821.326,304.196)">
                <path d="M368.578,164.468C275.473,259.971 385.471,317.239 437.902,393.161C458.155,422.488 473.981,451.783 464.873,484.304C442.297,564.917 391.14,677.138 368.666,722.489C349.435,761.296 295.016,826.802 288.83,827.242C288.83,827.242 307.84,734.424 301.584,699.812C273.54,544.665 205.035,533.667 182.9,453.393C138.598,292.736 261.217,207.595 368.578,164.468Z" style="fill:rgb(105,198,15);"/>
            </g>
        </g>
        <g transform="matrix(0.638824,0.526292,-0.526292,0.638824,614.16,-378.071)">
            <g transform="matrix(-0.0605234,0.0646167,-0.0734623,-0.0694853,819.883,304.513)">
                <path d="M402.364,116.074C305.699,290.185 508.001,299.262 578.29,446.38C613.062,519.161 556.364,1020.46 527.746,956.988C352.528,568.368 203.028,639.013 206.772,464.893C209.066,358.195 242.531,189.63 402.364,116.074Z" style="fill:rgb(70,112,30);"/>
            </g>
            <g transform="matrix(-0.0433235,0.0779698,-0.111159,-0.0656306,821.326,304.196)">
                <path d="M368.578,164.468C275.473,259.971 385.471,317.239 437.902,393.161C458.155,422.488 473.981,451.783 464.873,484.304C442.297,564.917 391.14,677.138 368.666,722.489C349.435,761.296 295.016,826.802 288.83,827.242C288.83,827.242 307.84,734.424 301.584,699.812C273.54,544.665 205.035,533.667 182.9,453.393C138.598,292.736 261.217,207.595 368.578,164.468Z" style="fill:rgb(105,198,15);"/>
            </g>
        </g>
        <g transform="matrix(-0.700227,0.0135732,0.0135732,0.700227,1424.77,-31.1167)">
            <g transform="matrix(-0.0605234,0.0646167,-0.0734623,-0.0694853,819.883,304.513)">
                <path d="M402.364,116.074C305.699,290.185 508.001,299.262 578.29,446.38C613.062,519.161 579.134,854.31 517.676,812.266C410.944,739.249 203.028,639.013 206.772,464.893C209.066,358.195 242.531,189.63 402.364,116.074Z" style="fill:rgb(70,112,30);"/>
            </g>
            <g transform="matrix(-0.0433235,0.0779698,-0.111159,-0.0656306,821.326,304.196)">
                <path d="M368.578,164.468C275.473,259.971 385.471,317.239 437.902,393.161C458.155,422.488 473.981,451.783 464.873,484.304C442.297,564.917 402.518,642.216 368.589,683.857C351.564,704.751 331.262,715.338 325.076,715.778C325.076,715.778 325.947,703.413 321.552,695.539C305.925,667.543 212,595.713 189.864,515.44C145.563,354.782 261.217,207.595 368.578,164.468Z" style="fill:rgb(105,198,15);"/>
            </g>
        </g>
        <g transform="matrix(0.605992,-0.0407002,0.0407002,0.605992,382.455,33.9314)">
            <g transform="matrix(-0.0605234,0.0646167,-0.0734623,-0.0694853,819.883,304.513)">
                <path d="M402.364,116.074C305.699,290.185 508.001,299.262 578.29,446.38C613.062,519.161 579.134,854.31 517.676,812.266C410.944,739.249 203.028,639.013 206.772,464.893C209.066,358.195 242.531,189.63 402.364,116.074Z" style="fill:rgb(70,112,30);"/>
            </g>
            <g transform="matrix(-0.0433235,0.0779698,-0.111159,-0.0656306,821.326,304.196)">
                <path d="M368.578,164.468C275.473,259.971 385.471,317.239 437.902,393.161C458.155,422.488 473.981,451.783 464.873,484.304C442.297,564.917 402.518,642.216 368.589,683.857C351.564,704.751 331.262,715.338 325.076,715.778C325.076,715.778 325.947,703.413 321.552,695.539C305.925,667.543 212,595.713 189.864,515.44C145.563,354.782 261.217,207.595 368.578,164.468Z" style="fill:rgb(105,198,15);"/>
            </g>
        </g>
        <g transform="matrix(0.438429,0.0394323,-0.0394323,0.438429,529.395,-4.45611)">
            <g transform="matrix(-0.0605234,0.0646167,-0.0734623,-0.0694853,819.883,304.513)">
                <path d="M402.364,116.074C305.699,290.185 508.001,299.262 578.29,446.38C613.062,519.161 579.134,854.31 517.676,812.266C410.944,739.249 203.028,639.013 206.772,464.893C209.066,358.195 242.531,189.63 402.364,116.074Z" style="fill:rgb(70,112,30);"/>
            </g>
            <g transform="matrix(-0.0433235,0.0779698,-0.111159,-0.0656306,821.326,304.196)">
                <path d="M368.578,164.468C275.473,259.971 385.471,317.239 437.902,393.161C458.155,422.488 473.981,451.783 464.873,484.304C442.297,564.917 402.518,642.216 368.589,683.857C351.564,704.751 331.262,715.338 325.076,715.778C325.076,715.778 325.947,703.413 321.552,695.539C305.925,667.543 212,595.713 189.864,515.44C145.563,354.782 261.217,207.595 368.578,164.468Z" style="fill:rgb(105,198,15);"/>
            </g>
        </g>
        <g transform="matrix(-0.309405,0.0778382,0.0778382,0.309405,1084.29,-2.15994)">
            <g transform="matrix(-0.0605234,0.0646167,-0.0734623,-0.0694853,819.883,304.513)">
                <path d="M402.364,116.074C305.699,290.185 508.001,299.262 578.29,446.38C613.062,519.161 579.134,854.31 517.676,812.266C410.944,739.249 203.028,639.013 206.772,464.893C209.066,358.195 242.531,189.63 402.364,116.074Z" style="fill:rgb(70,112,30);"/>
            </g>
            <g transform="matrix(-0.0433235,0.0779698,-0.111159,-0.0656306,821.326,304.196)">
                <path d="M368.578,164.468C275.473,259.971 385.471,317.239 437.902,393.161C458.155,422.488 473.981,451.783 464.873,484.304C442.297,564.917 402.518,642.216 368.589,683.857C351.564,704.751 331.262,715.338 325.076,715.778C325.076,715.778 325.947,703.413 321.552,695.539C305.925,667.543 212,595.713 189.864,515.44C145.563,354.782 261.217,207.595 368.578,164.468Z" style="fill:rgb(105,198,15);"/>
            </g>
        </g>
        <g transform="matrix(0.184964,0.138775,-0.138775,0.184964,768.325,-24.718)">
            <g transform="matrix(-0.0605234,0.0646167,-0.0734623,-0.0694853,819.883,304.513)">
                <path d="M402.364,116.074C305.699,290.185 508.001,299.262 578.29,446.38C613.062,519.161 579.134,854.31 517.676,812.266C410.944,739.249 203.028,639.013 206.772,464.893C209.066,358.195 242.531,189.63 402.364,116.074Z" style="fill:rgb(70,112,30);"/>
            </g>
            <g transform="matrix(-0.0433235,0.0779698,-0.111159,-0.0656306,821.326,304.196)">
                <path d="M368.578,164.468C275.473,259.971 385.471,317.239 437.902,393.161C458.155,422.488 473.981,451.783 464.873,484.304C442.297,564.917 402.518,642.216 368.589,683.857C351.564,704.751 331.262,715.338 325.076,715.778C325.076,715.778 325.947,703.413 321.552,695.539C305.925,667.543 212,595.713 189.864,515.44C145.563,354.782 261.217,207.595 368.578,164.468Z" style="fill:rgb(105,198,15);"/>
            </g>
        </g>
        <g transform="matrix(0.200156,0.115793,-0.115793,0.200156,855.67,-28.0938)">
            <g transform="matrix(-0.0605234,0.0646167,-0.0734623,-0.0694853,819.883,304.513)">
                <path d="M402.364,116.074C305.699,290.185 508.001,299.262 578.29,446.38C613.062,519.161 579.134,854.31 517.676,812.266C410.944,739.249 203.028,639.013 206.772,464.893C209.066,358.195 242.531,189.63 402.364,116.074Z" style="fill:rgb(70,112,30);"/>
            </g>
            <g transform="matrix(-0.0433235,0.0779698,-0.111159,-0.0656306,821.326,304.196)">
                <path d="M368.578,164.468C275.473,259.971 385.471,317.239 437.902,393.161C458.155,422.488 473.981,451.783 464.873,484.304C442.297,564.917 402.518,642.216 368.589,683.857C351.564,704.751 331.262,715.338 325.076,715.778C325.076,715.778 325.947,703.413 321.552,695.539C305.925,667.543 212,595.713 189.864,515.44C145.563,354.782 261.217,207.595 368.578,164.468Z" style="fill:rgb(105,198,15);"/>
            </g>
        </g>
        <g transform="matrix(-0.226603,0.131092,0.131092,0.226603,1116.12,-35.2654)">
            <g transform="matrix(-0.0605234,0.0646167,-0.0734623,-0.0694853,819.883,304.513)">
                <path d="M402.364,116.074C305.699,290.185 508.001,299.262 578.29,446.38C613.062,519.161 579.134,854.31 517.676,812.266C410.944,739.249 203.028,639.013 206.772,464.893C209.066,358.195 242.531,189.63 402.364,116.074Z" style="fill:rgb(70,112,30);"/>
            </g>
            <g transform="matrix(-0.0433235,0.0779698,-0.111159,-0.0656306,821.326,304.196)">
                <path d="M368.578,164.468C275.473,259.971 385.471,317.239 437.902,393.161C458.155,422.488 473.981,451.783 464.873,484.304C442.297,564.917 402.518,642.216 368.589,683.857C351.564,704.751 331.262,715.338 325.076,715.778C325.076,715.778 325.947,703.413 321.552,695.539C305.925,667.543 212,595.713 189.864,515.44C145.563,354.782 261.217,207.595 368.578,164.468Z" style="fill:rgb(105,198,15);"/>
            </g>
        </g>
        <g transform="matrix(0.323525,-0.01056,0.01056,0.323525,724.441,57.6956)">
            <g transform="matrix(-0.0605234,0.0646167,-0.0734623,-0.0694853,819.883,304.513)">
                <path d="M402.364,116.074C305.699,290.185 508.001,299.262 578.29,446.38C613.062,519.161 579.134,854.31 517.676,812.266C410.944,739.249 203.028,639.013 206.772,464.893C209.066,358.195 242.531,189.63 402.364,116.074Z" style="fill:rgb(70,112,30);"/>
            </g>
            <g transform="matrix(-0.0433235,0.0779698,-0.111159,-0.0656306,821.326,304.196)">
                <path d="M368.578,164.468C275.473,259.971 385.471,317.239 437.902,393.161C458.155,422.488 473.981,451.783 464.873,484.304C442.297,564.917 402.518,642.216 368.589,683.857C351.564,704.751 331.262,715.338 325.076,715.778C325.076,715.778 325.947,703.413 321.552,695.539C305.925,667.543 212,595.713 189.864,515.44C145.563,354.782 261.217,207.595 368.578,164.468Z" style="fill:rgb(105,198,15);"/>
            </g>
        </g>
        <g transform="matrix(-0.400396,0.186719,0.186719,0.400396,1244.73,-106.286)">
            <g transform="matrix(-0.0605234,0.0646167,-0.0734623,-0.0694853,819.883,304.513)">
                <path d="M402.364,116.074C305.699,290.185 508.001,299.262 578.29,446.38C613.062,519.161 579.134,854.31 517.676,812.266C410.944,739.249 203.028,639.013 206.772,464.893C209.066,358.195 242.531,189.63 402.364,116.074Z" style="fill:rgb(70,112,30);"/>
            </g>
            <g transform="matrix(-0.0433235,0.0779698,-0.111159,-0.0656306,821.326,304.196)">
                <path d="M368.578,164.468C275.473,259.971 385.471,317.239 437.902,393.161C458.155,422.488 473.981,451.783 464.873,484.304C442.297,564.917 402.518,642.216 368.589,683.857C351.564,704.751 331.262,715.338 325.076,715.778C325.076,715.778 325.947,703.413 321.552,695.539C305.925,667.543 212,595.713 189.864,515.44C145.563,354.782 261.217,207.595 368.578,164.468Z" style="fill:rgb(105,198,15);"/>
            </g>
        </g>
        <g transform="matrix(0.328489,0.319593,-0.319593,0.328489,819.785,-167.594)">
            <g transform="matrix(-0.0605234,0.0646167,-0.0734623,-0.0694853,819.883,304.513)">
                <path d="M402.364,116.074C305.699,290.185 508.001,299.262 578.29,446.38C613.062,519.161 579.134,854.31 517.676,812.266C410.944,739.249 203.028,639.013 206.772,464.893C209.066,358.195 242.531,189.63 402.364,116.074Z" style="fill:rgb(70,112,30);"/>
            </g>
            <g transform="matrix(-0.0433235,0.0779698,-0.111159,-0.0656306,821.326,304.196)">
                <path d="M368.578,164.468C275.473,259.971 385.471,317.239 437.902,393.161C458.155,422.488 473.981,451.783 464.873,484.304C442.297,564.917 402.518,642.216 368.589,683.857C351.564,704.751 331.262,715.338 325.076,715.778C325.076,715.778 325.947,703.413 321.552,695.539C305.925,667.543 212,595.713 189.864,515.44C145.563,354.782 261.217,207.595 368.578,164.468Z" style="fill:rgb(105,198,15);"/>
            </g>
        </g>
        <g>
            <g transform="matrix(0.249323,0,0,0.249323,801.183,146.577)">
                <path d="M413.446,347.53C337.797,362.329 261.51,214.192 284.783,227.144C329.2,251.862 342.479,262.194 408.669,264.015C453.142,265.239 439.771,246.067 499.865,227.667C566.972,207.119 558.02,236.509 598.448,161.887C624.188,114.376 617.769,300.609 516.323,337.854C516.323,337.854 724.54,422.897 759.824,592.426C820.617,884.513 617.373,887.082 454.89,887.082C292.407,887.082 163.02,902.697 193.841,628.606C219.028,404.616 392.849,356.679 413.446,347.53Z" style="fill:rgb(175,104,62);"/>
            </g>
            <g transform="matrix(0.249323,0,0,0.249323,801.183,146.577)">
                <path d="M481.207,234.275C486.523,232.086 492.667,229.871 499.865,227.667C566.972,207.119 558.02,236.509 598.448,161.887C624.188,114.376 617.769,300.609 516.323,337.854C516.323,337.854 724.54,422.897 759.824,592.426C817.373,868.925 638.315,885.983 481.207,887.017L481.207,234.275Z" style="fill:rgb(200,124,79);"/>
            </g>
            <g transform="matrix(0.249323,0,0,0.249323,511.228,106.518)">
                <path d="M1770.38,315.935C1768.01,302.965 1741.46,304.609 1723.32,327.071C1691.07,366.997 1678.79,364.739 1608.1,347.553C1542.15,331.518 1545.46,382.934 1507.98,377.433C1507.43,377.352 1436.7,360.189 1443.65,390.724C1445.8,400.153 1447.61,397.38 1506.51,416.805C1547.63,430.364 1598.35,429.666 1608.63,421.007C1673.93,366.022 1707.5,397.87 1737.51,364.939C1755.88,344.785 1761.34,339.676 1770.38,315.935Z" style="fill:rgb(137,70,32);"/>
            </g>
            <g transform="matrix(0.249323,0,0,0.249323,511.228,106.518)">
                <path d="M1447.9,397.62C1572.03,423.746 1613.93,388.898 1621.1,385.403C1644.01,374.225 1670.05,378.31 1689.14,374.033C1710.09,369.342 1724.86,367.859 1751.31,349.447C1719.04,397.861 1678.85,378.682 1645.24,397.313C1626.89,407.488 1615.91,420.028 1600.22,425.557C1585.46,430.756 1561.28,429.446 1536.47,425.478C1527.04,423.969 1461.97,407.378 1447.9,397.62Z" style="fill:rgb(109,56,26);"/>
            </g>
            <g transform="matrix(0.382329,0.00428147,-0.00428147,0.382329,772.732,81.2925)">
                <path d="M371.666,657.695C357.598,654.912 350.452,650.3 346.171,647.04C343.687,645.148 329.858,634.615 323.022,615.609C317.624,600.6 317.56,578.929 317.55,575.707C317.475,550.097 323.155,538.454 324.586,535.521C330.524,523.353 341.718,511.096 351.934,503.617C353.388,502.553 360.215,497.556 372.532,494.514C372.596,492.509 373.047,478.393 373.243,469.444C373.273,468.093 374.62,466.718 376.016,466.667C377.95,466.597 394.261,466.003 400.201,466.525C401.903,466.675 403.58,468.359 403.761,469.75C404.02,471.734 404.018,471.578 407.237,494.517C408.117,494.785 412.422,496.094 417.991,498.608C420.159,499.587 432.848,505.317 443.374,514.08C442.844,515.812 439.212,527.658 436.036,535.498C434.432,534.435 426.974,529.491 414.734,524.306C403.595,519.588 395.851,519.738 394.767,519.724C378.669,519.522 367.236,526.331 360.628,533.834C358.311,536.466 349.043,546.99 348.234,575.882C347.968,585.374 348.363,605.903 357.963,618.358C363.835,625.976 377.805,632.46 395.969,632.311C397.724,632.296 406.29,632.493 417.903,628.299C419.907,627.576 431.55,623.371 441.734,616.421C441.597,618.598 440.993,628.133 438.215,643.459C436.508,644.701 427.531,651.231 414.835,655.688L408.721,657.563C408.372,660.013 405.196,682.329 404.581,688.212C404.442,689.537 402.857,691.083 401.086,691.118C399.099,691.156 386.125,691.407 376.248,690.712C374.518,690.59 372.962,689.011 372.896,687.752C372.769,685.349 372.311,676.658 371.666,657.695Z" style="fill:rgb(86,42,18);"/>
            </g>
            <g transform="matrix(0.999395,-0.0347746,0.0347746,0.999395,663.348,98.1251)">
                <path d="M253.94,145.122C247.221,145.977 239.861,146.86 228.464,146.455C226.082,146.371 227.743,142.703 227.815,142.535C227.943,142.236 233.663,143.758 236.87,143.66C241.155,143.529 254.168,143.664 259.805,141.953C262.701,141.073 264.702,140.455 264.184,142.335C263.858,143.522 258.308,144.565 253.94,145.122Z" style="fill:rgb(104,53,22);"/>
            </g>
            <g transform="matrix(0.999395,-0.0347746,0.0347746,0.999395,693.617,94.2005)">
                <path d="M259.825,159.018C259.084,160.001 244.442,147.141 233.045,146.736C230.663,146.652 231.259,144.627 231.975,144.165C232.248,143.988 233.009,142.995 236.13,143.742C244.022,145.63 257.721,152.305 263.536,151.366C264.558,151.201 261.989,156.148 259.825,159.018Z" style="fill:rgb(104,53,22);"/>
            </g>
            <g transform="matrix(1.20261,0.0571155,-0.0474396,0.998874,624.066,75.3442)">
                <path d="M259.109,145.438C252.39,146.294 247.238,146.023 235.841,145.619C233.459,145.534 232.582,144.299 232.654,144.131C232.782,143.832 233.663,143.758 236.87,143.66C241.155,143.529 254.747,142.989 260.383,141.278C263.28,140.399 264.369,140.248 264.783,142.164C265.392,144.988 263.477,144.882 259.109,145.438Z" style="fill:rgb(120,62,28);"/>
            </g>
            <g transform="matrix(0.917348,0.398087,-0.398087,0.917348,777.28,5.85081)">
                <path d="M257.648,160.093C256.775,160.96 242.808,149.794 234.593,146.323C232.398,145.395 229.807,145.417 230.188,144.655C230.63,143.77 233.009,142.995 236.13,143.742C244.022,145.63 252.705,151.186 261.699,151.75C262.362,151.791 261.874,155.897 257.648,160.093Z" style="fill:rgb(104,53,22);"/>
            </g>
        </g>
        <g transform="matrix(1,0,0,1,-41.422,-68.7102)">
            <g transform="matrix(0.161244,0,0,0.161244,979.246,241.735)">
                <path d="M338.039,426.468L363.733,473.035C376.163,477.248 388.031,482.964 399.075,490.054L451.502,481.109C464.062,493.227 474.989,506.929 484.008,521.87L463.621,570.992C468.076,583.337 471.007,596.18 472.35,609.235L512.031,644.647C510.388,662.021 506.488,679.108 500.43,695.475L449.314,710.162C442.44,721.343 434.226,731.642 424.856,740.831L421.911,793.934C407.302,803.482 391.512,811.086 374.939,816.555L331.585,785.748C318.558,787.345 305.385,787.345 292.358,785.748L249.005,816.555C232.431,811.086 216.641,803.482 202.033,793.934L199.088,740.831C189.717,731.642 181.504,721.343 174.63,710.162L123.514,695.475C117.456,679.108 113.556,662.021 111.913,644.647L151.594,609.235C152.936,596.18 155.868,583.337 160.323,570.992L139.936,521.87C148.955,506.929 159.882,493.227 172.441,481.109L224.868,490.054C235.912,482.964 247.781,477.248 260.21,473.035L285.904,426.468C303.209,424.204 320.735,424.204 338.039,426.468ZM311.972,531.092C364.2,531.092 406.603,573.494 406.603,625.722C406.603,677.951 364.2,720.353 311.972,720.353C259.744,720.353 217.341,677.951 217.341,625.722C217.341,573.494 259.744,531.092 311.972,531.092Z" style="fill:rgb(68,217,255);"/>
            </g>
            <g transform="matrix(0.161244,0,0,0.161244,979.246,241.735)">
                <path d="M311.694,424.77C320.494,424.758 329.295,425.324 338.039,426.468L363.733,473.035C376.163,477.248 388.031,482.964 399.075,490.054L451.502,481.109C464.062,493.227 474.989,506.929 484.008,521.87L463.621,570.992C468.076,583.337 471.007,596.18 472.35,609.235L512.031,644.647C510.388,662.021 506.488,679.108 500.43,695.475L449.314,710.162C442.44,721.343 434.226,731.642 424.856,740.831L421.911,793.934C407.302,803.482 391.512,811.086 374.939,816.555L331.585,785.748C324.98,786.558 318.336,786.957 311.694,786.945L311.694,720.353C311.786,720.353 311.879,720.353 311.972,720.353C364.2,720.353 406.603,677.951 406.603,625.722C406.603,573.494 364.2,531.092 311.972,531.092C311.879,531.092 311.786,531.092 311.694,531.092L311.694,424.77Z" style="fill:rgb(137,230,253);"/>
            </g>
            <g transform="matrix(0.142717,0,0,0.142576,910.179,219.521)">
                <path d="M836.481,740.865C903.898,740.865 958.632,795.925 958.632,863.744C958.632,931.563 903.898,986.623 836.481,986.623C769.064,986.623 714.33,931.563 714.33,863.744C714.33,795.925 769.064,740.865 836.481,740.865ZM836.481,756.03C895.578,756.03 943.557,804.295 943.557,863.744C943.557,923.193 895.578,971.458 836.481,971.458C777.384,971.458 729.405,923.193 729.405,863.744C729.405,804.295 777.384,756.03 836.481,756.03Z" style="fill:white;fill-opacity:0.48;"/>
            </g>
        </g>
        <g transform="matrix(1.25152,0,0,1.25152,-329.708,-94.8193)">
            <g transform="matrix(0.161244,0,0,0.161244,979.246,241.735)">
                <path d="M338.039,426.468L363.733,473.035C376.163,477.248 388.031,482.964 399.075,490.054L451.502,481.109C464.062,493.227 474.989,506.929 484.008,521.87L463.621,570.992C468.076,583.337 471.007,596.18 472.35,609.235L512.031,644.647C510.388,662.021 506.488,679.108 500.43,695.475L449.314,710.162C442.44,721.343 434.226,731.642 424.856,740.831L421.911,793.934C407.302,803.482 391.512,811.086 374.939,816.555L331.585,785.748C318.558,787.345 305.385,787.345 292.358,785.748L249.005,816.555C232.431,811.086 216.641,803.482 202.033,793.934L199.088,740.831C189.717,731.642 181.504,721.343 174.63,710.162L123.514,695.475C117.456,679.108 113.556,662.021 111.913,644.647L151.594,609.235C152.936,596.18 155.868,583.337 160.323,570.992L139.936,521.87C148.955,506.929 159.882,493.227 172.441,481.109L224.868,490.054C235.912,482.964 247.781,477.248 260.21,473.035L285.904,426.468C303.209,424.204 320.735,424.204 338.039,426.468ZM311.972,531.092C364.2,531.092 406.603,573.494 406.603,625.722C406.603,677.951 364.2,720.353 311.972,720.353C259.744,720.353 217.341,677.951 217.341,625.722C217.341,573.494 259.744,531.092 311.972,531.092Z" style="fill:rgb(58,215,255);"/>
            </g>
            <g transform="matrix(0.161244,0,0,0.161244,979.246,241.735)">
                <path d="M311.694,424.77C320.494,424.758 329.295,425.324 338.039,426.468L363.733,473.035C376.163,477.248 388.031,482.964 399.075,490.054L451.502,481.109C464.062,493.227 474.989,506.929 484.008,521.87L463.621,570.992C468.076,583.337 471.007,596.18 472.35,609.235L512.031,644.647C510.388,662.021 506.488,679.108 500.43,695.475L449.314,710.162C442.44,721.343 434.226,731.642 424.856,740.831L421.911,793.934C407.302,803.482 391.512,811.086 374.939,816.555L331.585,785.748C324.98,786.558 318.336,786.957 311.694,786.945L311.694,720.353C311.786,720.353 311.879,720.353 311.972,720.353C364.2,720.353 406.603,677.951 406.603,625.722C406.603,573.494 364.2,531.092 311.972,531.092C311.879,531.092 311.786,531.092 311.694,531.092L311.694,424.77Z" style="fill:rgb(137,230,253);"/>
            </g>
            <g transform="matrix(0.142717,0,0,0.142576,910.179,219.521)">
                <path d="M836.481,740.865C903.898,740.865 958.632,795.925 958.632,863.744C958.632,931.563 903.898,986.623 836.481,986.623C769.064,986.623 714.33,931.563 714.33,863.744C714.33,795.925 769.064,740.865 836.481,740.865ZM836.481,756.03C895.578,756.03 943.557,804.295 943.557,863.744C943.557,923.193 895.578,971.458 836.481,971.458C777.384,971.458 729.405,923.193 729.405,863.744C729.405,804.295 777.384,756.03 836.481,756.03Z" style="fill:white;fill-opacity:0.42;"/>
            </g>
        </g>
        <g transform="matrix(1,0,0,1,72.479,-0.07705)">
            <g transform="matrix(1.08916,0,0,0.996842,624.335,90.019)">
                <path d="M169.458,135.43C180.751,138.049 192.574,144.889 188.783,171.72C186.15,190.353 174.277,199.019 166.803,201.594C158.515,204.448 160.441,182.549 160.441,165.331C160.441,148.112 160.958,133.459 169.458,135.43Z" style="fill:rgb(82,69,35);fill-opacity:0.41;"/>
            </g>
            <g transform="matrix(-0.287011,0,0,0.268667,1040.92,99.5981)">
                <path d="M834.528,456.052C890.875,456.052 957.115,527.842 957.115,601.009C957.115,644.233 877.726,713.729 877.726,713.729C877.726,713.729 831.107,713.818 829.294,713.63C827.203,713.414 801.844,711.525 768.078,660.894C733.554,609.129 737.553,519.331 761.391,495.053C778.737,477.388 810.795,456.052 834.528,456.052Z" style="fill:rgb(215,153,0);"/>
            </g>
            <g transform="matrix(-0.776325,-0.256063,-0.0855687,0.152286,1468.35,348.487)">
                <path d="M756.173,892.95C757.175,897.922 803.909,860.198 803.796,737.708C803.68,610.985 799.082,527.504 786.278,521.725C785.205,521.24 780.663,525.207 780.475,525.407C779.713,526.22 778.308,528.497 777.19,530.308L784.392,531.873L784.581,536.317L772.54,538.576C770.552,543.903 769.376,547.58 768.554,551.418L766.174,561.217C765.404,565.049 764.344,570.085 763.434,575.606L779.239,565.786L779.293,575.67L761.676,585.881C760.683,592.107 759.894,597.935 759.184,602.883L757.63,614.708C756.586,623.12 755.971,628.623 755.18,635.652L773.449,627.169L773.247,638.844L753.9,647.71C753.109,655.486 751.622,673.635 751.542,674.648L750.58,687.603C749.98,696.271 749.399,704.76 748.982,713.286L779.026,699.601L778.805,712.363L748.371,726.521C748.021,735.59 747.709,744.667 747.561,753.457L747.413,764.749C747.354,773.765 747.506,782.85 747.659,791.433L780.38,776.546L780.178,788.222L748.018,803.041C748.258,811.188 748.596,819.089 749.028,826.702L749.546,836.755C750.081,844.251 750.566,852.463 751.292,859.268L782.529,844.718L782.367,854.071L752.066,867.107C752.917,874.221 753.55,879.35 754.671,885.771L756.173,892.95Z" style="fill:rgb(242,193,0);"/>
            </g>
            <g transform="matrix(-0.262896,0.0351626,0.0351626,0.262896,879.165,95.5175)">
                <path d="M378.771,431.972C434.62,437.498 490.864,491.668 505.153,557.39C520.268,626.908 483.218,684.206 426.364,687.919C363.073,692.052 300.738,628.988 289.053,553.006C277.974,480.969 316.968,425.856 378.771,431.972Z" style="fill:rgb(254,204,8);"/>
            </g>
            <g transform="matrix(0.0427251,-0.0286448,0.147703,0.220306,687.952,149.988)">
                <path d="M665.695,449.047C577.718,522.916 392.64,669.923 392.64,669.923L262.513,660.456C262.513,660.456 441.079,526.142 531.879,453.234C573.701,452.644 623.873,449.638 665.695,449.047Z" style="fill:rgb(255,216,86);"/>
            </g>
            <g transform="matrix(0.0187776,-0.0125893,0.147703,0.220306,707.285,136.298)">
                <path d="M657.469,451.193C461.569,525.695 319.871,577.903 63.113,671.863C17.251,671.871 -28.611,671.878 -74.473,671.886C186.409,578.08 333.091,525.695 532.081,451.558C574.38,451.28 615.17,451.47 657.469,451.193Z" style="fill:rgb(254,223,120);"/>
            </g>
            <g transform="matrix(0.274932,0.00307879,-0.00307879,0.274932,697.988,97.3908)">
                <path d="M346.207,622.324C339.361,620.459 335.553,616.866 334.798,616.154C327.092,608.882 325.602,597.934 325.547,597.617C323.526,585.991 325.67,572.839 326.016,570.714C328.443,555.825 333.672,546.301 334.741,544.354C341.032,532.895 349.02,527.342 350.602,526.243C355.831,522.608 360.95,521.127 361.913,520.848C362.835,514.911 363.756,508.974 364.678,503.037C364.868,501.81 365.991,500.818 366.783,500.787C371.663,500.594 376.543,500.401 381.423,500.208C382.18,500.178 383.08,501.051 382.886,502.345C382.017,508.132 381.148,513.919 380.279,519.706L385.099,520.787C391.192,522.543 395.719,525.184 396.581,525.687C393.765,531.569 390.949,537.451 388.132,543.333C383.752,540.667 379.962,539.049 379.224,538.734C374.73,536.814 370.87,536.866 370.127,536.876C360.202,537.009 354.748,544.028 353.178,546.144C346.418,555.254 344.255,568.945 343.923,571.045C343.611,573.023 341.389,587.084 344.952,596.065C348.51,605.032 357.368,605.45 359.676,605.533C360.53,605.563 364.813,605.716 370.297,604.452C371.282,604.225 375.828,603.178 382.372,600.756C381.464,606.966 380.556,613.176 379.648,619.386C373.539,621.915 368.751,622.791 367.775,622.969L364.754,623.417C363.634,630.879 362.514,638.341 361.395,645.803C361.194,647.139 360.007,648.063 359.206,648.01C354.205,647.681 349.204,647.352 344.203,647.022C343.442,646.972 342.54,645.957 342.75,644.607C343.902,637.179 345.055,629.752 346.207,622.324Z" style="fill:rgb(255,244,206);"/>
            </g>
            <g transform="matrix(-0.292619,0.039138,0.0402977,0.30129,886.171,70.4968)">
                <path d="M379.041,461.095C426.025,466.658 473.705,515.193 484.235,567.045C496.67,628.278 458.812,675.79 410.82,673.845C357.446,671.681 310.171,629.158 299.48,560.654C289.39,496.002 325.764,454.787 379.041,461.095ZM378.195,477.037C421.084,480.815 458.664,519.82 468.248,562.209C479.659,612.681 451.489,651.643 414.234,653.545C368.064,655.901 327.339,612.334 318.388,565.42C307.15,506.522 338.594,473.549 378.195,477.037Z" style="fill:rgb(215,153,0);"/>
            </g>
            <g transform="matrix(-0.307202,0.0410886,0.0423061,0.316305,890.722,61.2607)">
                <path d="M379.041,461.095C394.185,463.027 409.911,469.504 424.051,478.759C453.738,498.189 477.213,531.475 484.218,566.777C486.691,579.238 487.615,590.53 486.306,601.566C481.179,644.81 449.055,675.395 410.82,673.845C357.446,671.681 309.568,629.706 298.877,561.202C288.787,496.55 325.14,454.22 379.041,461.095ZM378.195,477.037C421.084,480.815 458.664,519.82 468.248,562.209C479.659,612.681 451.489,651.643 414.234,653.545C368.064,655.901 327.339,612.334 318.388,565.42C307.15,506.522 338.594,473.549 378.195,477.037Z" style="fill:rgb(254,217,71);"/>
            </g>
            <g transform="matrix(-0.285799,-5.55112e-17,-5.55112e-17,0.294632,922.08,2.33203)">
                <path d="M436.249,745.356C434.044,745.05 432.369,744.943 430.746,744.856L433.649,763.403L439.522,764.077L436.249,745.356ZM403.127,748.304C401.382,748.585 398.877,749.591 396.982,750.482L406.714,768.591L412.218,766.521L403.127,748.304ZM370.905,770.117L367.085,774.983L384.335,787.186L388.088,782.224L370.905,770.117ZM354.338,799.656L351.706,806.763L371.564,814.702L373.51,808.586L354.338,799.656ZM347.83,839.571L347.766,846.859L368.02,849.39L367.985,842.359L347.83,839.571ZM352.513,885.525L355.087,892.761L375.599,886.021L373.255,878.962L352.513,885.525ZM372.022,927.554L375.965,933.308L393.221,919.276L389.312,913.672L372.022,927.554ZM401.602,959.652L406.814,962.917L419.21,944.464L413.892,940.959L401.602,959.652ZM437.661,977.649L444.412,979.119L449.242,957.176L442.882,955.595L437.661,977.649ZM478.272,980.018L483.701,978.362L478.528,957.442L473.064,958.7L478.272,980.018ZM510.033,965.804L514.331,962.239L503.624,943.758L499.271,947.308L510.033,965.804ZM533.201,939.529L535.833,934.335L520.542,919.96L517.465,925.239L533.201,939.529ZM545.189,905.332C545.548,903.495 545.804,901.097 546.059,898.502L529.068,891.175L527.824,897.641L545.189,905.332ZM545.443,866.515L544.364,859.732L528.549,859.134L529.537,865.799L545.443,866.515ZM534.368,827.952L531.64,821.969L518.295,827.268L521.016,833.332L534.368,827.952ZM513.97,793.461C512.52,791.57 511.09,789.831 509.687,788.293L499.906,799.308L503.736,804.601L513.97,793.461ZM492.477,771.152L487.428,767.165L481.997,782.444L487.388,786.457L492.477,771.152ZM465.539,753.889C463.728,753.059 461.926,752.257 460.133,751.481L457.495,768.438L463.119,770.708L465.539,753.889Z" style="fill:rgb(245,195,1);"/>
            </g>
        </g>
        <g transform="matrix(1,0,0,1,44.4004,0.90037)">
            <g transform="matrix(1.08916,0,0,0.996842,624.335,90.019)">
                <path d="M168.382,135.131C179.675,137.75 191.677,142.66 187.885,169.492C185.253,188.125 174.277,199.019 166.803,201.594C158.515,204.448 160.441,182.549 160.441,165.331C160.441,148.112 159.882,133.16 168.382,135.131Z" style="fill:rgb(195,157,63);fill-opacity:0.41;"/>
            </g>
            <g transform="matrix(-0.287011,0,0,0.268667,1040.92,99.5981)">
                <path d="M834.528,456.052C890.875,456.052 957.115,527.842 957.115,601.009C957.115,644.233 877.726,713.729 877.726,713.729C877.726,713.729 831.107,713.818 829.294,713.63C827.203,713.414 801.844,711.525 768.078,660.894C733.554,609.129 737.553,519.331 761.391,495.053C778.737,477.388 810.795,456.052 834.528,456.052Z" style="fill:rgb(215,153,0);"/>
            </g>
            <g transform="matrix(-0.776325,-0.256063,-0.0855687,0.152286,1468.35,348.487)">
                <path d="M756.173,892.95C757.175,897.922 803.909,860.198 803.796,737.708C803.68,610.985 799.082,527.504 786.278,521.725C785.205,521.24 780.663,525.207 780.475,525.407C779.713,526.22 778.308,528.497 777.19,530.308L784.392,531.873L784.581,536.317L772.54,538.576C770.552,543.903 769.376,547.58 768.554,551.418L766.174,561.217C765.404,565.049 764.344,570.085 763.434,575.606L779.239,565.786L779.293,575.67L761.676,585.881C760.683,592.107 759.894,597.935 759.184,602.883L757.63,614.708C756.586,623.12 755.971,628.623 755.18,635.652L773.449,627.169L773.247,638.844L753.9,647.71C753.109,655.486 751.622,673.635 751.542,674.648L750.58,687.603C749.98,696.271 749.399,704.76 748.982,713.286L779.026,699.601L778.805,712.363L748.371,726.521C748.021,735.59 747.709,744.667 747.561,753.457L747.413,764.749C747.354,773.765 747.506,782.85 747.659,791.433L780.38,776.546L780.178,788.222L748.018,803.041C748.258,811.188 748.596,819.089 749.028,826.702L749.546,836.755C750.081,844.251 750.566,852.463 751.292,859.268L782.529,844.718L782.367,854.071L752.066,867.107C752.917,874.221 753.55,879.35 754.671,885.771L756.173,892.95Z" style="fill:rgb(242,193,0);"/>
            </g>
            <g transform="matrix(-0.262896,0.0351626,0.0351626,0.262896,879.165,95.5175)">
                <path d="M378.771,431.972C434.62,437.498 490.864,491.668 505.153,557.39C520.268,626.908 483.218,684.206 426.364,687.919C363.073,692.052 300.738,628.988 289.053,553.006C277.974,480.969 316.968,425.856 378.771,431.972Z" style="fill:rgb(254,204,8);"/>
            </g>
            <g transform="matrix(0.0427251,-0.0286448,0.147703,0.220306,687.952,149.988)">
                <path d="M665.695,449.047C577.718,522.916 392.64,669.923 392.64,669.923L262.513,660.456C262.513,660.456 441.079,526.142 531.879,453.234C573.701,452.644 623.873,449.638 665.695,449.047Z" style="fill:rgb(255,216,86);"/>
            </g>
            <g transform="matrix(0.0187776,-0.0125893,0.147703,0.220306,707.285,136.298)">
                <path d="M657.469,451.193C461.569,525.695 319.871,577.903 63.113,671.863C17.251,671.871 -28.611,671.878 -74.473,671.886C186.409,578.08 333.091,525.695 532.081,451.558C574.38,451.28 615.17,451.47 657.469,451.193Z" style="fill:rgb(254,223,120);"/>
            </g>
            <g transform="matrix(0.274932,0.00307879,-0.00307879,0.274932,697.988,97.3908)">
                <path d="M346.207,622.324C339.361,620.459 335.553,616.866 334.798,616.154C327.092,608.882 325.602,597.934 325.547,597.617C323.526,585.991 325.67,572.839 326.016,570.714C328.443,555.825 333.672,546.301 334.741,544.354C341.032,532.895 349.02,527.342 350.602,526.243C355.831,522.608 360.95,521.127 361.913,520.848C362.835,514.911 363.756,508.974 364.678,503.037C364.868,501.81 365.991,500.818 366.783,500.787C371.663,500.594 376.543,500.401 381.423,500.208C382.18,500.178 383.08,501.051 382.886,502.345C382.017,508.132 381.148,513.919 380.279,519.706L385.099,520.787C391.192,522.543 395.719,525.184 396.581,525.687C393.765,531.569 390.949,537.451 388.132,543.333C383.752,540.667 379.962,539.049 379.224,538.734C374.73,536.814 370.87,536.866 370.127,536.876C360.202,537.009 354.748,544.028 353.178,546.144C346.418,555.254 344.255,568.945 343.923,571.045C343.611,573.023 341.389,587.084 344.952,596.065C348.51,605.032 357.368,605.45 359.676,605.533C360.53,605.563 364.813,605.716 370.297,604.452C371.282,604.225 375.828,603.178 382.372,600.756C381.464,606.966 380.556,613.176 379.648,619.386C373.539,621.915 368.751,622.791 367.775,622.969L364.754,623.417C363.634,630.879 362.514,638.341 361.395,645.803C361.194,647.139 360.007,648.063 359.206,648.01C354.205,647.681 349.204,647.352 344.203,647.022C343.442,646.972 342.54,645.957 342.75,644.607C343.902,637.179 345.055,629.752 346.207,622.324Z" style="fill:rgb(255,244,206);"/>
            </g>
            <g transform="matrix(-0.292619,0.039138,0.0402977,0.30129,886.171,70.4968)">
                <path d="M379.041,461.095C426.025,466.658 473.705,515.193 484.235,567.045C496.67,628.278 458.812,675.79 410.82,673.845C357.446,671.681 310.171,629.158 299.48,560.654C289.39,496.002 325.764,454.787 379.041,461.095ZM378.195,477.037C421.084,480.815 458.664,519.82 468.248,562.209C479.659,612.681 451.489,651.643 414.234,653.545C368.064,655.901 327.339,612.334 318.388,565.42C307.15,506.522 338.594,473.549 378.195,477.037Z" style="fill:rgb(215,153,0);"/>
            </g>
            <g transform="matrix(-0.307202,0.0410886,0.0423061,0.316305,890.722,61.2607)">
                <path d="M379.041,461.095C394.185,463.027 409.911,469.504 424.051,478.759C453.738,498.189 477.213,531.475 484.218,566.777C486.691,579.238 487.615,590.53 486.306,601.566C481.179,644.81 449.055,675.395 410.82,673.845C357.446,671.681 309.568,629.706 298.877,561.202C288.787,496.55 325.14,454.22 379.041,461.095ZM378.195,477.037C421.084,480.815 458.664,519.82 468.248,562.209C479.659,612.681 451.489,651.643 414.234,653.545C368.064,655.901 327.339,612.334 318.388,565.42C307.15,506.522 338.594,473.549 378.195,477.037Z" style="fill:rgb(254,217,71);"/>
            </g>
            <g transform="matrix(-0.285799,-5.55112e-17,-5.55112e-17,0.294632,922.08,2.33203)">
                <path d="M436.249,745.356C434.044,745.05 432.369,744.943 430.746,744.856L433.649,763.403L439.522,764.077L436.249,745.356ZM403.127,748.304C401.382,748.585 398.877,749.591 396.982,750.482L406.714,768.591L412.218,766.521L403.127,748.304ZM370.905,770.117L367.085,774.983L384.335,787.186L388.088,782.224L370.905,770.117ZM354.338,799.656L351.706,806.763L371.564,814.702L373.51,808.586L354.338,799.656ZM347.83,839.571L347.766,846.859L368.02,849.39L367.985,842.359L347.83,839.571ZM352.513,885.525L355.087,892.761L375.599,886.021L373.255,878.962L352.513,885.525ZM372.022,927.554L375.965,933.308L393.221,919.276L389.312,913.672L372.022,927.554ZM401.602,959.652L406.814,962.917L419.21,944.464L413.892,940.959L401.602,959.652ZM437.661,977.649L444.412,979.119L449.242,957.176L442.882,955.595L437.661,977.649ZM478.272,980.018L483.701,978.362L478.528,957.442L473.064,958.7L478.272,980.018ZM510.033,965.804L514.331,962.239L503.624,943.758L499.271,947.308L510.033,965.804ZM533.201,939.529L535.833,934.335L520.542,919.96L517.465,925.239L533.201,939.529ZM545.189,905.332C545.548,903.495 545.804,901.097 546.059,898.502L529.068,891.175L527.824,897.641L545.189,905.332ZM545.443,866.515L544.364,859.732L528.549,859.134L529.537,865.799L545.443,866.515ZM534.368,827.952L531.64,821.969L518.295,827.268L521.016,833.332L534.368,827.952ZM513.97,793.461C512.52,791.57 511.09,789.831 509.687,788.293L499.906,799.308L503.736,804.601L513.97,793.461ZM492.477,771.152L487.428,767.165L481.997,782.444L487.388,786.457L492.477,771.152ZM465.539,753.889C463.728,753.059 461.926,752.257 460.133,751.481L457.495,768.438L463.119,770.708L465.539,753.889Z" style="fill:rgb(245,195,1);"/>
            </g>
        </g>
        <g transform="matrix(1,0,0,1,130.425,13.7478)">
            <g transform="matrix(0.179272,0,0,0.104735,615.234,304.735)">
                <path d="M740.62,399.109L740.62,490.077C740.62,493.369 739.058,496.042 737.135,496.042L329.384,496.042C327.461,496.042 325.899,493.369 325.899,490.077L325.899,399.109C325.899,395.817 327.461,393.144 329.384,393.144L737.135,393.144C739.058,393.144 740.62,395.817 740.62,399.109Z" style="fill:rgb(254,217,71);"/>
            </g>
            <g transform="matrix(1.15614,0,0,0.0671593,661.47,328.735)">
                <rect x="11.046" y="251.168" width="63.445" height="4.532" style="fill:rgb(105,82,25);fill-opacity:0.49;"/>
            </g>
            <g transform="matrix(1.1456,0,0,0.0671593,661.957,339.807)">
                <rect x="11.046" y="251.168" width="63.445" height="4.532" style="fill:rgb(118,92,29);fill-opacity:0.47;"/>
            </g>
            <g transform="matrix(0.237895,0,0,0.179272,580.991,271.422)">
                <path d="M400.402,415.498L400.901,475.721L395.633,475.721L395.134,415.498L400.402,415.498ZM435.088,415.498L435.586,475.721L430.318,475.721L429.819,415.498L435.088,415.498ZM469.773,415.498L470.272,475.721L465.004,475.721L464.505,415.498L469.773,415.498ZM504.459,415.498L504.957,475.721L499.689,475.721L499.19,415.498L504.459,415.498ZM534.94,415.498L535.439,475.721L530.171,475.721L529.672,415.498L534.94,415.498ZM564.894,415.498L565.393,475.721L560.124,475.721L559.626,415.498L564.894,415.498ZM595.376,415.498L595.875,475.721L590.606,475.721L590.108,415.498L595.376,415.498ZM625.858,415.498L626.356,475.721L621.088,475.721L620.59,415.498L625.858,415.498ZM660.543,415.498L661.042,475.721L655.774,475.721L655.275,415.498L660.543,415.498ZM695.229,415.498L695.727,475.721L690.459,475.721L689.961,415.498L695.229,415.498Z" style="fill:rgb(245,195,1);"/>
            </g>
        </g>
        <g transform="matrix(1,0,0,1,8.40003,17.0018)">
            <g transform="matrix(0.179272,0,0,0.104735,615.234,304.735)">
                <path d="M740.62,399.109L740.62,490.077C740.62,493.369 739.058,496.042 737.135,496.042L329.384,496.042C327.461,496.042 325.899,493.369 325.899,490.077L325.899,399.109C325.899,395.817 327.461,393.144 329.384,393.144L737.135,393.144C739.058,393.144 740.62,395.817 740.62,399.109Z" style="fill:rgb(254,217,71);"/>
            </g>
            <g transform="matrix(1.15614,0,0,0.0671593,661.47,328.735)">
                <rect x="11.046" y="251.168" width="63.445" height="4.532" style="fill:rgb(105,82,25);fill-opacity:0.49;"/>
            </g>
            <g transform="matrix(1.1456,0,0,0.0671593,661.957,339.807)">
                <rect x="11.046" y="251.168" width="63.445" height="4.532" style="fill:rgb(118,92,29);fill-opacity:0.47;"/>
            </g>
            <g transform="matrix(0.237895,0,0,0.179272,580.991,271.422)">
                <path d="M400.402,415.498L400.901,475.721L395.633,475.721L395.134,415.498L400.402,415.498ZM435.088,415.498L435.586,475.721L430.318,475.721L429.819,415.498L435.088,415.498ZM469.773,415.498L470.272,475.721L465.004,475.721L464.505,415.498L469.773,415.498ZM504.459,415.498L504.957,475.721L499.689,475.721L499.19,415.498L504.459,415.498ZM534.94,415.498L535.439,475.721L530.171,475.721L529.672,415.498L534.94,415.498ZM564.894,415.498L565.393,475.721L560.124,475.721L559.626,415.498L564.894,415.498ZM595.376,415.498L595.875,475.721L590.606,475.721L590.108,415.498L595.376,415.498ZM625.858,415.498L626.356,475.721L621.088,475.721L620.59,415.498L625.858,415.498ZM660.543,415.498L661.042,475.721L655.774,475.721L655.275,415.498L660.543,415.498ZM695.229,415.498L695.727,475.721L690.459,475.721L689.961,415.498L695.229,415.498Z" style="fill:rgb(245,195,1);"/>
            </g>
        </g>
        <g transform="matrix(1,0,0,1,1.72376,5.58912)">
            <g transform="matrix(0.179272,0,0,0.104735,615.234,304.735)">
                <path d="M740.62,399.109L740.62,490.077C740.62,493.369 739.058,496.042 737.135,496.042L329.384,496.042C327.461,496.042 325.899,493.369 325.899,490.077L325.899,399.109C325.899,395.817 327.461,393.144 329.384,393.144L737.135,393.144C739.058,393.144 740.62,395.817 740.62,399.109Z" style="fill:rgb(254,217,71);"/>
            </g>
            <g transform="matrix(1.15614,0,0,0.0671593,661.47,328.735)">
                <rect x="11.046" y="251.168" width="63.445" height="4.532" style="fill:rgb(105,82,25);fill-opacity:0.49;"/>
            </g>
            <g transform="matrix(1.1456,0,0,0.0671593,661.957,339.807)">
                <rect x="11.046" y="251.168" width="63.445" height="4.532" style="fill:rgb(118,92,29);fill-opacity:0.47;"/>
            </g>
            <g transform="matrix(0.237895,0,0,0.179272,580.991,271.422)">
                <path d="M400.402,415.498L400.901,475.721L395.633,475.721L395.134,415.498L400.402,415.498ZM435.088,415.498L435.586,475.721L430.318,475.721L429.819,415.498L435.088,415.498ZM469.773,415.498L470.272,475.721L465.004,475.721L464.505,415.498L469.773,415.498ZM504.459,415.498L504.957,475.721L499.689,475.721L499.19,415.498L504.459,415.498ZM534.94,415.498L535.439,475.721L530.171,475.721L529.672,415.498L534.94,415.498ZM564.894,415.498L565.393,475.721L560.124,475.721L559.626,415.498L564.894,415.498ZM595.376,415.498L595.875,475.721L590.606,475.721L590.108,415.498L595.376,415.498ZM625.858,415.498L626.356,475.721L621.088,475.721L620.59,415.498L625.858,415.498ZM660.543,415.498L661.042,475.721L655.774,475.721L655.275,415.498L660.543,415.498ZM695.229,415.498L695.727,475.721L690.459,475.721L689.961,415.498L695.229,415.498Z" style="fill:rgb(245,195,1);"/>
            </g>
        </g>
        <g transform="matrix(1,0,0,1,9.04749,-5.82352)">
            <g transform="matrix(0.179272,0,0,0.104735,615.234,304.735)">
                <path d="M740.62,399.109L740.62,490.077C740.62,493.369 739.058,496.042 737.135,496.042L329.384,496.042C327.461,496.042 325.899,493.369 325.899,490.077L325.899,399.109C325.899,395.817 327.461,393.144 329.384,393.144L737.135,393.144C739.058,393.144 740.62,395.817 740.62,399.109Z" style="fill:rgb(254,217,71);"/>
            </g>
            <g transform="matrix(1.15614,0,0,0.0671593,661.47,328.735)">
                <rect x="11.046" y="251.168" width="63.445" height="4.532" style="fill:rgb(105,82,25);fill-opacity:0.49;"/>
            </g>
            <g transform="matrix(1.1456,0,0,0.0671593,661.957,339.807)">
                <rect x="11.046" y="251.168" width="63.445" height="4.532" style="fill:rgb(118,92,29);fill-opacity:0.47;"/>
            </g>
            <g transform="matrix(0.237895,0,0,0.179272,580.991,271.422)">
                <path d="M400.402,415.498L400.901,475.721L395.633,475.721L395.134,415.498L400.402,415.498ZM435.088,415.498L435.586,475.721L430.318,475.721L429.819,415.498L435.088,415.498ZM469.773,415.498L470.272,475.721L465.004,475.721L464.505,415.498L469.773,415.498ZM504.459,415.498L504.957,475.721L499.689,475.721L499.19,415.498L504.459,415.498ZM534.94,415.498L535.439,475.721L530.171,475.721L529.672,415.498L534.94,415.498ZM564.894,415.498L565.393,475.721L560.124,475.721L559.626,415.498L564.894,415.498ZM595.376,415.498L595.875,475.721L590.606,475.721L590.108,415.498L595.376,415.498ZM625.858,415.498L626.356,475.721L621.088,475.721L620.59,415.498L625.858,415.498ZM660.543,415.498L661.042,475.721L655.774,475.721L655.275,415.498L660.543,415.498ZM695.229,415.498L695.727,475.721L690.459,475.721L689.961,415.498L695.229,415.498Z" style="fill:rgb(245,195,1);"/>
            </g>
        </g>
        <g transform="matrix(1,0,0,1,126.438,2.35182)">
            <g transform="matrix(0.179272,0,0,0.104735,615.234,304.735)">
                <path d="M740.62,399.109L740.62,490.077C740.62,493.369 739.058,496.042 737.135,496.042L329.384,496.042C327.461,496.042 325.899,493.369 325.899,490.077L325.899,399.109C325.899,395.817 327.461,393.144 329.384,393.144L737.135,393.144C739.058,393.144 740.62,395.817 740.62,399.109Z" style="fill:rgb(254,217,71);"/>
            </g>
            <g transform="matrix(1.15614,0,0,0.0671593,661.47,328.735)">
                <rect x="11.046" y="251.168" width="63.445" height="4.532" style="fill:rgb(105,82,25);fill-opacity:0.49;"/>
            </g>
            <g transform="matrix(1.1456,0,0,0.0671593,661.957,339.807)">
                <rect x="11.046" y="251.168" width="63.445" height="4.532" style="fill:rgb(118,92,29);fill-opacity:0.47;"/>
            </g>
            <g transform="matrix(0.237895,0,0,0.179272,580.991,271.422)">
                <path d="M400.402,415.498L400.901,475.721L395.633,475.721L395.134,415.498L400.402,415.498ZM435.088,415.498L435.586,475.721L430.318,475.721L429.819,415.498L435.088,415.498ZM469.773,415.498L470.272,475.721L465.004,475.721L464.505,415.498L469.773,415.498ZM504.459,415.498L504.957,475.721L499.689,475.721L499.19,415.498L504.459,415.498ZM534.94,415.498L535.439,475.721L530.171,475.721L529.672,415.498L534.94,415.498ZM564.894,415.498L565.393,475.721L560.124,475.721L559.626,415.498L564.894,415.498ZM595.376,415.498L595.875,475.721L590.606,475.721L590.108,415.498L595.376,415.498ZM625.858,415.498L626.356,475.721L621.088,475.721L620.59,415.498L625.858,415.498ZM660.543,415.498L661.042,475.721L655.774,475.721L655.275,415.498L660.543,415.498ZM695.229,415.498L695.727,475.721L690.459,475.721L689.961,415.498L695.229,415.498Z" style="fill:rgb(245,195,1);"/>
            </g>
        </g>
        <g transform="matrix(1,0,0,1,123.789,-9.13547)">
            <g transform="matrix(0.179272,0,0,0.104735,615.234,304.735)">
                <path d="M740.62,399.109L740.62,490.077C740.62,493.369 739.058,496.042 737.135,496.042L329.384,496.042C327.461,496.042 325.899,493.369 325.899,490.077L325.899,399.109C325.899,395.817 327.461,393.144 329.384,393.144L737.135,393.144C739.058,393.144 740.62,395.817 740.62,399.109Z" style="fill:rgb(254,217,71);"/>
            </g>
            <g transform="matrix(1.15614,0,0,0.0671593,661.47,328.735)">
                <rect x="11.046" y="251.168" width="63.445" height="4.532" style="fill:rgb(105,82,25);fill-opacity:0.49;"/>
            </g>
            <g transform="matrix(1.1456,0,0,0.0671593,661.957,339.807)">
                <rect x="11.046" y="251.168" width="63.445" height="4.532" style="fill:rgb(118,92,29);fill-opacity:0.47;"/>
            </g>
            <g transform="matrix(0.237895,0,0,0.179272,580.991,271.422)">
                <path d="M400.402,415.498L400.901,475.721L395.633,475.721L395.134,415.498L400.402,415.498ZM435.088,415.498L435.586,475.721L430.318,475.721L429.819,415.498L435.088,415.498ZM469.773,415.498L470.272,475.721L465.004,475.721L464.505,415.498L469.773,415.498ZM504.459,415.498L504.957,475.721L499.689,475.721L499.19,415.498L504.459,415.498ZM534.94,415.498L535.439,475.721L530.171,475.721L529.672,415.498L534.94,415.498ZM564.894,415.498L565.393,475.721L560.124,475.721L559.626,415.498L564.894,415.498ZM595.376,415.498L595.875,475.721L590.606,475.721L590.108,415.498L595.376,415.498ZM625.858,415.498L626.356,475.721L621.088,475.721L620.59,415.498L625.858,415.498ZM660.543,415.498L661.042,475.721L655.774,475.721L655.275,415.498L660.543,415.498ZM695.229,415.498L695.727,475.721L690.459,475.721L689.961,415.498L695.229,415.498Z" style="fill:rgb(245,195,1);"/>
            </g>
        </g>
        <g transform="matrix(1,0,0,1,126.611,-20.3926)">
            <g transform="matrix(0.179272,0,0,0.104735,615.234,304.735)">
                <path d="M740.62,399.109L740.62,490.077C740.62,493.369 739.058,496.042 737.135,496.042L329.384,496.042C327.461,496.042 325.899,493.369 325.899,490.077L325.899,399.109C325.899,395.817 327.461,393.144 329.384,393.144L737.135,393.144C739.058,393.144 740.62,395.817 740.62,399.109Z" style="fill:rgb(254,217,71);"/>
            </g>
            <g transform="matrix(1.15614,0,0,0.0671593,661.47,328.735)">
                <rect x="11.046" y="251.168" width="63.445" height="4.532" style="fill:rgb(105,82,25);fill-opacity:0.49;"/>
            </g>
            <g transform="matrix(1.1456,0,0,0.0671593,661.957,339.807)">
                <rect x="11.046" y="251.168" width="63.445" height="4.532" style="fill:rgb(118,92,29);fill-opacity:0.47;"/>
            </g>
            <g transform="matrix(0.237895,0,0,0.179272,580.991,271.422)">
                <path d="M400.402,415.498L400.901,475.721L395.633,475.721L395.134,415.498L400.402,415.498ZM435.088,415.498L435.586,475.721L430.318,475.721L429.819,415.498L435.088,415.498ZM469.773,415.498L470.272,475.721L465.004,475.721L464.505,415.498L469.773,415.498ZM504.459,415.498L504.957,475.721L499.689,475.721L499.19,415.498L504.459,415.498ZM534.94,415.498L535.439,475.721L530.171,475.721L529.672,415.498L534.94,415.498ZM564.894,415.498L565.393,475.721L560.124,475.721L559.626,415.498L564.894,415.498ZM595.376,415.498L595.875,475.721L590.606,475.721L590.108,415.498L595.376,415.498ZM625.858,415.498L626.356,475.721L621.088,475.721L620.59,415.498L625.858,415.498ZM660.543,415.498L661.042,475.721L655.774,475.721L655.275,415.498L660.543,415.498ZM695.229,415.498L695.727,475.721L690.459,475.721L689.961,415.498L695.229,415.498Z" style="fill:rgb(245,195,1);"/>
            </g>
        </g>
        <g transform="matrix(1,0,0,1,128.116,-31.738)">
            <g transform="matrix(0.179272,0,0,0.104735,615.234,304.735)">
                <path d="M740.62,399.109L740.62,490.077C740.62,493.369 739.058,496.042 737.135,496.042L329.384,496.042C327.461,496.042 325.899,493.369 325.899,490.077L325.899,399.109C325.899,395.817 327.461,393.144 329.384,393.144L737.135,393.144C739.058,393.144 740.62,395.817 740.62,399.109Z" style="fill:rgb(254,217,71);"/>
            </g>
            <g transform="matrix(1.15614,0,0,0.0671593,661.47,328.735)">
                <rect x="11.046" y="251.168" width="63.445" height="4.532" style="fill:rgb(105,82,25);fill-opacity:0.49;"/>
            </g>
            <g transform="matrix(1.1456,0,0,0.0671593,661.957,339.807)">
                <rect x="11.046" y="251.168" width="63.445" height="4.532" style="fill:rgb(118,92,29);fill-opacity:0.47;"/>
            </g>
            <g transform="matrix(0.237895,0,0,0.179272,580.991,271.422)">
                <path d="M400.402,415.498L400.901,475.721L395.633,475.721L395.134,415.498L400.402,415.498ZM435.088,415.498L435.586,475.721L430.318,475.721L429.819,415.498L435.088,415.498ZM469.773,415.498L470.272,475.721L465.004,475.721L464.505,415.498L469.773,415.498ZM504.459,415.498L504.957,475.721L499.689,475.721L499.19,415.498L504.459,415.498ZM534.94,415.498L535.439,475.721L530.171,475.721L529.672,415.498L534.94,415.498ZM564.894,415.498L565.393,475.721L560.124,475.721L559.626,415.498L564.894,415.498ZM595.376,415.498L595.875,475.721L590.606,475.721L590.108,415.498L595.376,415.498ZM625.858,415.498L626.356,475.721L621.088,475.721L620.59,415.498L625.858,415.498ZM660.543,415.498L661.042,475.721L655.774,475.721L655.275,415.498L660.543,415.498ZM695.229,415.498L695.727,475.721L690.459,475.721L689.961,415.498L695.229,415.498Z" style="fill:rgb(245,195,1);"/>
            </g>
        </g>
        <g transform="matrix(1,0,0,1,132.381,-43.0227)">
            <g transform="matrix(0.179272,0,0,0.104735,615.234,304.735)">
                <path d="M740.62,399.109L740.62,490.077C740.62,493.369 739.058,496.042 737.135,496.042L329.384,496.042C327.461,496.042 325.899,493.369 325.899,490.077L325.899,399.109C325.899,395.817 327.461,393.144 329.384,393.144L737.135,393.144C739.058,393.144 740.62,395.817 740.62,399.109Z" style="fill:rgb(254,217,71);"/>
            </g>
            <g transform="matrix(1.15614,0,0,0.0671593,661.47,328.735)">
                <rect x="11.046" y="251.168" width="63.445" height="4.532" style="fill:rgb(105,82,25);fill-opacity:0.49;"/>
            </g>
            <g transform="matrix(1.1456,0,0,0.0671593,661.957,339.807)">
                <rect x="11.046" y="251.168" width="63.445" height="4.532" style="fill:rgb(118,92,29);fill-opacity:0.47;"/>
            </g>
            <g transform="matrix(0.237895,0,0,0.179272,580.991,271.422)">
                <path d="M400.402,415.498L400.901,475.721L395.633,475.721L395.134,415.498L400.402,415.498ZM435.088,415.498L435.586,475.721L430.318,475.721L429.819,415.498L435.088,415.498ZM469.773,415.498L470.272,475.721L465.004,475.721L464.505,415.498L469.773,415.498ZM504.459,415.498L504.957,475.721L499.689,475.721L499.19,415.498L504.459,415.498ZM534.94,415.498L535.439,475.721L530.171,475.721L529.672,415.498L534.94,415.498ZM564.894,415.498L565.393,475.721L560.124,475.721L559.626,415.498L564.894,415.498ZM595.376,415.498L595.875,475.721L590.606,475.721L590.108,415.498L595.376,415.498ZM625.858,415.498L626.356,475.721L621.088,475.721L620.59,415.498L625.858,415.498ZM660.543,415.498L661.042,475.721L655.774,475.721L655.275,415.498L660.543,415.498ZM695.229,415.498L695.727,475.721L690.459,475.721L689.961,415.498L695.229,415.498Z" style="fill:rgb(245,195,1);"/>
            </g>
        </g>
        <g transform="matrix(1,0,0,1,131.172,-54.338)">
            <g transform="matrix(0.179272,0,0,0.104735,615.234,304.735)">
                <path d="M740.62,399.109L740.62,490.077C740.62,493.369 739.058,496.042 737.135,496.042L329.384,496.042C327.461,496.042 325.899,493.369 325.899,490.077L325.899,399.109C325.899,395.817 327.461,393.144 329.384,393.144L737.135,393.144C739.058,393.144 740.62,395.817 740.62,399.109Z" style="fill:rgb(254,217,71);"/>
            </g>
            <g transform="matrix(1.15614,0,0,0.0671593,661.47,328.735)">
                <rect x="11.046" y="251.168" width="63.445" height="4.532" style="fill:rgb(105,82,25);fill-opacity:0.49;"/>
            </g>
            <g transform="matrix(1.1456,0,0,0.0671593,661.957,339.807)">
                <rect x="11.046" y="251.168" width="63.445" height="4.532" style="fill:rgb(118,92,29);fill-opacity:0.47;"/>
            </g>
            <g transform="matrix(0.237895,0,0,0.179272,580.991,271.422)">
                <path d="M400.402,415.498L400.901,475.721L395.633,475.721L395.134,415.498L400.402,415.498ZM435.088,415.498L435.586,475.721L430.318,475.721L429.819,415.498L435.088,415.498ZM469.773,415.498L470.272,475.721L465.004,475.721L464.505,415.498L469.773,415.498ZM504.459,415.498L504.957,475.721L499.689,475.721L499.19,415.498L504.459,415.498ZM534.94,415.498L535.439,475.721L530.171,475.721L529.672,415.498L534.94,415.498ZM564.894,415.498L565.393,475.721L560.124,475.721L559.626,415.498L564.894,415.498ZM595.376,415.498L595.875,475.721L590.606,475.721L590.108,415.498L595.376,415.498ZM625.858,415.498L626.356,475.721L621.088,475.721L620.59,415.498L625.858,415.498ZM660.543,415.498L661.042,475.721L655.774,475.721L655.275,415.498L660.543,415.498ZM695.229,415.498L695.727,475.721L690.459,475.721L689.961,415.498L695.229,415.498Z" style="fill:rgb(245,195,1);"/>
            </g>
        </g>
        <g transform="matrix(2.33089,0,0,0.681836,441.605,182.182)">
            <path d="M213.106,201.338L213.074,217.445C213.074,217.445 213.083,217.767 212.998,218.079C212.913,218.394 212.868,218.483 212.868,218.483L212.63,218.481L212.618,233.474C212.618,233.474 212.588,234.072 212.478,234.489C212.385,234.836 212.147,235.056 212.147,235.056L211.697,235.093L211.752,248.097L212.279,248.09C212.279,248.09 212.449,248.138 212.56,248.412C212.664,248.668 212.68,249.066 212.68,249.066L212.766,265.733L213.46,265.732C213.46,265.732 213.711,265.721 213.929,266.193C214.152,266.676 214.192,267.26 214.192,267.26L214.249,280.671C214.249,282.207 213.884,283.455 213.434,283.455L181.343,283.449C180.894,283.449 180.529,282.202 180.529,280.665L180.525,269.572L179.916,269.548C179.916,269.548 179.775,269.518 179.681,269.175C179.577,268.794 179.587,268.243 179.587,268.243L179.551,252.678L178.525,252.672C178.525,252.672 178.412,252.698 178.308,252.358C178.202,252.009 178.221,251.596 178.221,251.596L178.18,233.852C178.18,233.852 178.162,233.249 178.311,232.807C178.453,232.384 178.588,232.411 178.588,232.411L178.96,232.398L179.028,217.035C179.028,217.035 179.06,216.29 179.12,216.064C179.224,215.671 179.343,215.564 179.343,215.564L179.557,215.562L179.572,201.218C179.572,199.681 179.937,198.433 180.386,198.433L212.291,198.554C212.741,198.554 213.106,199.801 213.106,201.338Z" style="fill-opacity:0.13;"/>
        </g>
        <g transform="matrix(0.790649,0,0,1,677.336,89.3996)">
            <rect x="43.699" y="250.795" width="17.422" height="33.451" style="fill:white;fill-opacity:0.24;"/>
        </g>
        <g transform="matrix(1,0,0,1,668.187,89.3996)">
            <rect x="65.199" y="250.579" width="22.301" height="33.996" style="fill:rgb(173,137,0);fill-opacity:0.2;"/>
        </g>
        <g transform="matrix(1.0622,0,0,1,651.325,89.3996)">
            <rect x="121.334" y="280.981" width="149.784" height="6.049" style="fill-opacity:0.13;"/>
        </g>
        <g transform="matrix(0.664543,0,0,0.999002,713.75,89.5789)">
            <path d="M165.674,202.161L165.674,281.355L137.809,281.355C137.376,281.355 137.024,281.121 137.024,280.833L137.024,202.684C137.024,202.395 137.376,202.161 137.809,202.161L165.674,202.161Z" style="fill:rgb(127,102,3);fill-opacity:0.11;"/>
        </g>
        <g transform="matrix(-0.719894,0,0,1.00143,979.005,89.1367)">
            <path d="M165.674,202.161L165.674,281.355L143.179,281.324C142.745,281.324 143.005,224.376 143.005,224.376L136.968,224.345L136.958,213.456L138.614,213.435L138.462,202.746C138.462,202.435 138.814,202.182 139.247,202.182L165.674,202.161Z" style="fill:rgb(127,102,3);fill-opacity:0.11;"/>
        </g>
        <g transform="matrix(1,0,0,1,668.187,89.3996)">
            <rect x="168.418" y="202.256" width="11.343" height="79.216" style="fill:white;fill-opacity:0.24;"/>
        </g>
        <g transform="matrix(1,0,0,1,191.515,18.7251)">
            <g transform="matrix(0.179272,0,0,0.104735,615.234,304.735)">
                <path d="M740.62,399.109L740.62,490.077C740.62,493.369 739.058,496.042 737.135,496.042L329.384,496.042C327.461,496.042 325.899,493.369 325.899,490.077L325.899,399.109C325.899,395.817 327.461,393.144 329.384,393.144L737.135,393.144C739.058,393.144 740.62,395.817 740.62,399.109Z" style="fill:rgb(254,217,71);"/>
            </g>
            <g transform="matrix(1.15614,0,0,0.0671593,661.47,328.735)">
                <rect x="11.046" y="251.168" width="63.445" height="4.532" style="fill:rgb(105,82,25);fill-opacity:0.49;"/>
            </g>
            <g transform="matrix(1.1456,0,0,0.0671593,661.957,339.807)">
                <rect x="11.046" y="251.168" width="63.445" height="4.532" style="fill:rgb(118,92,29);fill-opacity:0.47;"/>
            </g>
            <g transform="matrix(0.237895,0,0,0.179272,580.991,271.422)">
                <path d="M400.402,415.498L400.901,475.721L395.633,475.721L395.134,415.498L400.402,415.498ZM435.088,415.498L435.586,475.721L430.318,475.721L429.819,415.498L435.088,415.498ZM469.773,415.498L470.272,475.721L465.004,475.721L464.505,415.498L469.773,415.498ZM504.459,415.498L504.957,475.721L499.689,475.721L499.19,415.498L504.459,415.498ZM534.94,415.498L535.439,475.721L530.171,475.721L529.672,415.498L534.94,415.498ZM564.894,415.498L565.393,475.721L560.124,475.721L559.626,415.498L564.894,415.498ZM595.376,415.498L595.875,475.721L590.606,475.721L590.108,415.498L595.376,415.498ZM625.858,415.498L626.356,475.721L621.088,475.721L620.59,415.498L625.858,415.498ZM660.543,415.498L661.042,475.721L655.774,475.721L655.275,415.498L660.543,415.498ZM695.229,415.498L695.727,475.721L690.459,475.721L689.961,415.498L695.229,415.498Z" style="fill:rgb(245,195,1);"/>
            </g>
        </g>
        <g transform="matrix(1,0,0,1,187.528,7.32916)">
            <g transform="matrix(0.179272,0,0,0.104735,615.234,304.735)">
                <path d="M740.62,399.109L740.62,490.077C740.62,493.369 739.058,496.042 737.135,496.042L329.384,496.042C327.461,496.042 325.899,493.369 325.899,490.077L325.899,399.109C325.899,395.817 327.461,393.144 329.384,393.144L737.135,393.144C739.058,393.144 740.62,395.817 740.62,399.109Z" style="fill:rgb(254,217,71);"/>
            </g>
            <g transform="matrix(1.15614,0,0,0.0671593,661.47,328.735)">
                <rect x="11.046" y="251.168" width="63.445" height="4.532" style="fill:rgb(105,82,25);fill-opacity:0.49;"/>
            </g>
            <g transform="matrix(1.1456,0,0,0.0671593,661.957,339.807)">
                <rect x="11.046" y="251.168" width="63.445" height="4.532" style="fill:rgb(118,92,29);fill-opacity:0.47;"/>
            </g>
            <g transform="matrix(0.237895,0,0,0.179272,580.991,271.422)">
                <path d="M400.402,415.498L400.901,475.721L395.633,475.721L395.134,415.498L400.402,415.498ZM435.088,415.498L435.586,475.721L430.318,475.721L429.819,415.498L435.088,415.498ZM469.773,415.498L470.272,475.721L465.004,475.721L464.505,415.498L469.773,415.498ZM504.459,415.498L504.957,475.721L499.689,475.721L499.19,415.498L504.459,415.498ZM534.94,415.498L535.439,475.721L530.171,475.721L529.672,415.498L534.94,415.498ZM564.894,415.498L565.393,475.721L560.124,475.721L559.626,415.498L564.894,415.498ZM595.376,415.498L595.875,475.721L590.606,475.721L590.108,415.498L595.376,415.498ZM625.858,415.498L626.356,475.721L621.088,475.721L620.59,415.498L625.858,415.498ZM660.543,415.498L661.042,475.721L655.774,475.721L655.275,415.498L660.543,415.498ZM695.229,415.498L695.727,475.721L690.459,475.721L689.961,415.498L695.229,415.498Z" style="fill:rgb(245,195,1);"/>
            </g>
        </g>
        <g transform="matrix(1,0,0,1,184.879,-4.15814)">
            <g transform="matrix(0.179272,0,0,0.104735,615.234,304.735)">
                <path d="M740.62,399.109L740.62,490.077C740.62,493.369 739.058,496.042 737.135,496.042L329.384,496.042C327.461,496.042 325.899,493.369 325.899,490.077L325.899,399.109C325.899,395.817 327.461,393.144 329.384,393.144L737.135,393.144C739.058,393.144 740.62,395.817 740.62,399.109Z" style="fill:rgb(254,217,71);"/>
            </g>
            <g transform="matrix(1.15614,0,0,0.0671593,661.47,328.735)">
                <rect x="11.046" y="251.168" width="63.445" height="4.532" style="fill:rgb(105,82,25);fill-opacity:0.49;"/>
            </g>
            <g transform="matrix(1.1456,0,0,0.0671593,661.957,339.807)">
                <rect x="11.046" y="251.168" width="63.445" height="4.532" style="fill:rgb(118,92,29);fill-opacity:0.47;"/>
            </g>
            <g transform="matrix(0.237895,0,0,0.179272,580.991,271.422)">
                <path d="M400.402,415.498L400.901,475.721L395.633,475.721L395.134,415.498L400.402,415.498ZM435.088,415.498L435.586,475.721L430.318,475.721L429.819,415.498L435.088,415.498ZM469.773,415.498L470.272,475.721L465.004,475.721L464.505,415.498L469.773,415.498ZM504.459,415.498L504.957,475.721L499.689,475.721L499.19,415.498L504.459,415.498ZM534.94,415.498L535.439,475.721L530.171,475.721L529.672,415.498L534.94,415.498ZM564.894,415.498L565.393,475.721L560.124,475.721L559.626,415.498L564.894,415.498ZM595.376,415.498L595.875,475.721L590.606,475.721L590.108,415.498L595.376,415.498ZM625.858,415.498L626.356,475.721L621.088,475.721L620.59,415.498L625.858,415.498ZM660.543,415.498L661.042,475.721L655.774,475.721L655.275,415.498L660.543,415.498ZM695.229,415.498L695.727,475.721L690.459,475.721L689.961,415.498L695.229,415.498Z" style="fill:rgb(245,195,1);"/>
            </g>
        </g>
        <g transform="matrix(1,0,0,1,187.701,-15.4153)">
            <g transform="matrix(0.179272,0,0,0.104735,615.234,304.735)">
                <path d="M740.62,399.109L740.62,490.077C740.62,493.369 739.058,496.042 737.135,496.042L329.384,496.042C327.461,496.042 325.899,493.369 325.899,490.077L325.899,399.109C325.899,395.817 327.461,393.144 329.384,393.144L737.135,393.144C739.058,393.144 740.62,395.817 740.62,399.109Z" style="fill:rgb(254,217,71);"/>
            </g>
            <g transform="matrix(1.15614,0,0,0.0671593,661.47,328.735)">
                <rect x="11.046" y="251.168" width="63.445" height="4.532" style="fill:rgb(105,82,25);fill-opacity:0.49;"/>
            </g>
            <g transform="matrix(1.1456,0,0,0.0671593,661.957,339.807)">
                <rect x="11.046" y="251.168" width="63.445" height="4.532" style="fill:rgb(118,92,29);fill-opacity:0.47;"/>
            </g>
            <g transform="matrix(0.237895,0,0,0.179272,580.991,271.422)">
                <path d="M400.402,415.498L400.901,475.721L395.633,475.721L395.134,415.498L400.402,415.498ZM435.088,415.498L435.586,475.721L430.318,475.721L429.819,415.498L435.088,415.498ZM469.773,415.498L470.272,475.721L465.004,475.721L464.505,415.498L469.773,415.498ZM504.459,415.498L504.957,475.721L499.689,475.721L499.19,415.498L504.459,415.498ZM534.94,415.498L535.439,475.721L530.171,475.721L529.672,415.498L534.94,415.498ZM564.894,415.498L565.393,475.721L560.124,475.721L559.626,415.498L564.894,415.498ZM595.376,415.498L595.875,475.721L590.606,475.721L590.108,415.498L595.376,415.498ZM625.858,415.498L626.356,475.721L621.088,475.721L620.59,415.498L625.858,415.498ZM660.543,415.498L661.042,475.721L655.774,475.721L655.275,415.498L660.543,415.498ZM695.229,415.498L695.727,475.721L690.459,475.721L689.961,415.498L695.229,415.498Z" style="fill:rgb(245,195,1);"/>
            </g>
        </g>
        <g transform="matrix(1,0,0,1,189.206,-26.7607)">
            <g transform="matrix(0.179272,0,0,0.104735,615.234,304.735)">
                <path d="M740.62,399.109L740.62,490.077C740.62,493.369 739.058,496.042 737.135,496.042L329.384,496.042C327.461,496.042 325.899,493.369 325.899,490.077L325.899,399.109C325.899,395.817 327.461,393.144 329.384,393.144L737.135,393.144C739.058,393.144 740.62,395.817 740.62,399.109Z" style="fill:rgb(254,217,71);"/>
            </g>
            <g transform="matrix(1.15614,0,0,0.0671593,661.47,328.735)">
                <rect x="11.046" y="251.168" width="63.445" height="4.532" style="fill:rgb(105,82,25);fill-opacity:0.49;"/>
            </g>
            <g transform="matrix(1.1456,0,0,0.0671593,661.957,339.807)">
                <rect x="11.046" y="251.168" width="63.445" height="4.532" style="fill:rgb(118,92,29);fill-opacity:0.47;"/>
            </g>
            <g transform="matrix(0.237895,0,0,0.179272,580.991,271.422)">
                <path d="M400.402,415.498L400.901,475.721L395.633,475.721L395.134,415.498L400.402,415.498ZM435.088,415.498L435.586,475.721L430.318,475.721L429.819,415.498L435.088,415.498ZM469.773,415.498L470.272,475.721L465.004,475.721L464.505,415.498L469.773,415.498ZM504.459,415.498L504.957,475.721L499.689,475.721L499.19,415.498L504.459,415.498ZM534.94,415.498L535.439,475.721L530.171,475.721L529.672,415.498L534.94,415.498ZM564.894,415.498L565.393,475.721L560.124,475.721L559.626,415.498L564.894,415.498ZM595.376,415.498L595.875,475.721L590.606,475.721L590.108,415.498L595.376,415.498ZM625.858,415.498L626.356,475.721L621.088,475.721L620.59,415.498L625.858,415.498ZM660.543,415.498L661.042,475.721L655.774,475.721L655.275,415.498L660.543,415.498ZM695.229,415.498L695.727,475.721L690.459,475.721L689.961,415.498L695.229,415.498Z" style="fill:rgb(245,195,1);"/>
            </g>
        </g>
        <g transform="matrix(1,0,0,0.709099,726.789,175.988)">
            <rect x="168.418" y="202.256" width="11.343" height="79.216" style="fill:white;fill-opacity:0.24;"/>
        </g>
        <g transform="matrix(0.993939,-0.109934,0.109934,0.993939,-26.1109,92.0499)">
            <g transform="matrix(0.911217,0,0,0.992396,667.644,91.1408)">
                <path d="M151.168,210.706C174.78,210.233 192.369,227.386 192.25,247.209C192.208,254.094 190.62,259.06 188.848,262.962C186.213,268.762 180.675,273.908 176.119,276.443C170.4,279.625 165.323,279.301 159.21,277.891C141.917,273.904 127.054,263.166 127.054,245.027C127.054,226.889 133.424,211.061 151.168,210.706Z" style="fill:rgb(184,141,33);fill-opacity:0.41;"/>
            </g>
            <g transform="matrix(0.943769,1.15017e-16,-5.64968e-17,0.95096,682.453,109.157)">
                <ellipse cx="129.38" cy="239.752" rx="38.893" ry="38.737" style="fill:rgb(245,195,1);"/>
            </g>
            <g transform="matrix(0.920566,1.11022e-16,-5.51078e-17,0.917935,685.455,117.059)">
                <ellipse cx="129.38" cy="239.752" rx="38.893" ry="38.737" style="fill:rgb(254,204,8);"/>
            </g>
            <g transform="matrix(-0.0266452,-0.0257008,-0.116525,0.120807,887.517,282.937)">
                <rect x="386.805" y="368.744" width="202.287" height="410.969" style="fill:rgb(255,216,86);"/>
            </g>
            <g transform="matrix(-0.0117105,-0.0112954,-0.116912,0.121208,875.011,271.353)">
                <rect x="386.805" y="368.744" width="202.287" height="410.969" style="fill:rgb(254,223,120);"/>
            </g>
            <g transform="matrix(0.194395,0.0369714,-0.0369714,0.194395,750.288,210.262)">
                <path d="M371.778,650.145C363.347,648.709 356.017,646.066 349.787,642.217C339.848,636.076 332.499,627.439 327.739,616.306C322.98,605.172 320.6,592.182 320.6,577.337C320.6,562.762 323.33,549.874 328.789,538.673C334.248,527.472 342.193,518.7 352.622,512.357C358.29,508.909 364.65,506.399 371.703,504.825L371.703,478.754C371.703,476.986 373.138,475.551 374.906,475.551L401.239,475.551C403.006,475.551 404.441,476.986 404.441,478.754L404.441,503.842C407.39,504.277 410.345,504.855 413.305,505.575C420.794,507.397 427.969,509.86 434.828,512.964L424.539,537.863C418.94,535.299 413.305,533.072 407.636,531.183C401.966,529.293 396.402,528.349 390.943,528.349C378.764,528.349 369.455,532.735 363.015,541.507C356.576,550.279 353.356,562.29 353.356,577.54C353.356,592.925 356.331,604.834 362.281,613.269C368.23,621.704 377.784,625.921 390.943,625.921C396.962,625.921 403.051,625.246 409.211,623.897C415.37,622.547 422.019,620.658 429.159,618.229L429.159,643.938C422.579,646.502 416.07,648.391 409.631,649.606C407.976,649.918 406.271,650.19 404.516,650.422L404.516,681.351C404.516,683.119 403.081,684.554 401.313,684.554L374.98,684.554C373.213,684.554 371.778,683.119 371.778,681.351L371.778,650.145Z" style="fill:rgb(255,244,206);"/>
            </g>
            <g transform="matrix(0.231073,0.0739442,-0.0761352,0.23792,759.642,172.248)">
                <path d="M384.18,431.133C448.887,428.061 531.798,486.835 529.504,576.461C527.162,667.959 447.087,716.083 385.927,715.971C284.147,715.783 230.931,635.759 236.189,568.512C243.496,475.073 314.067,434.461 384.18,431.133ZM382.979,454C449.813,454 504.075,506.989 504.075,572.257C504.075,637.525 449.813,690.514 382.979,690.514C316.144,690.514 261.882,637.525 261.882,572.257C261.882,506.989 316.144,454 382.979,454Z" style="fill:rgb(215,153,0);"/>
            </g>
            <g transform="matrix(0.198349,0.0634723,-0.0653531,0.204226,765.954,196.094)">
                <path d="M382.979,403.686C478.249,403.686 555.189,476.982 554.776,572.17C554.36,667.91 473.469,741.254 381.755,739.203C288.936,737.128 210.36,665.294 210.36,572.257C210.36,479.22 287.708,403.686 382.979,403.686ZM378.559,427.771C446.516,422.895 527.382,483.353 528.946,566.159C530.638,655.783 454.483,713.648 387.648,713.864C288.061,714.185 235.792,635.843 235.792,570.576C235.792,505.308 279.135,434.906 378.559,427.771Z" style="fill:rgb(254,217,71);"/>
            </g>
            <g transform="matrix(0.202483,0.0361652,-0.037283,0.208741,748.318,140.414)">
                <path d="M288.917,876.28L263.101,877.405C262.897,874.169 262.788,870.914 262.776,867.641L288.46,866.522C288.499,869.76 288.651,873.014 288.917,876.28ZM294.215,824.906L270.328,817.375C271.302,814.243 272.365,811.153 273.514,808.107L297.312,815.61C296.175,818.667 295.142,821.767 294.215,824.906ZM317.741,778.557L298.559,763.714C300.595,761.119 302.705,758.585 304.885,756.114L323.992,770.899C321.82,773.383 319.735,775.937 317.741,778.557ZM356.574,743.141L344.201,723.046C347.033,721.301 349.918,719.635 352.852,718.049L365.217,738.131C362.269,739.709 359.387,741.38 356.574,743.141ZM405.861,723.511L401.531,700.36C404.805,699.691 408.109,699.113 411.439,698.628L415.778,721.827C413.954,722.075 412.128,722.358 410.3,722.674C408.811,722.932 407.331,723.211 405.861,723.511ZM459.005,722.172L463.391,698.722C466.729,699.216 470.032,699.801 473.296,700.472L468.89,724.028C465.628,723.302 462.331,722.682 459.005,722.172ZM508.97,739.204L521.898,718.208C524.832,719.805 527.711,721.481 530.532,723.233L517.547,744.321C514.748,742.522 511.888,740.816 508.97,739.204ZM549.494,771.953L569.583,756.408C571.752,758.894 573.847,761.439 575.867,764.041L555.713,779.635C553.725,777.002 551.65,774.44 549.494,771.953ZM575.743,816.176L602.364,807.334C603.508,810.388 604.679,814.103 605.645,817.23L578.834,825.473C577.905,822.322 576.874,819.222 575.743,816.176ZM584.699,866.448L611.134,867.6C611.106,870.84 610.984,874.095 610.764,877.363L584.326,876.211C584.562,872.977 584.688,869.722 584.699,866.448ZM575.222,916.757L600.044,926.932C598.851,929.989 597.572,933.001 596.209,935.965L571.377,925.786C572.76,922.824 574.043,919.813 575.222,916.757ZM548.199,960.929L568.698,979.275C566.479,981.724 563.82,984.676 561.465,986.992L541.356,968.096C543.721,965.782 546.003,963.391 548.199,960.929ZM506.707,993.259L519.404,1017.5C516.446,1019.03 512.665,1020.84 509.614,1022.2L497.685,997.595C500.755,996.246 503.764,994.799 506.707,993.259ZM455.853,1009.12L458.545,1036.38C455.228,1036.78 451.331,1037.08 447.969,1037.3L445.831,1010.04C449.16,1009.85 452.502,1009.54 455.853,1009.12ZM402.915,1005.41L395.239,1031.59C391.963,1030.81 388.728,1029.95 385.535,1028.99L393.099,1002.62C396.292,1003.6 399.646,1004.64 402.915,1005.41ZM353.632,985.135L337.735,1006.37C334.977,1004.5 332.279,1002.56 329.645,1000.55L345.522,979.346C348.159,981.364 350.864,983.295 353.632,985.135ZM308.501,935.482L285.689,950.516C283.794,947.83 280.979,944.578 279.242,941.788L303.982,926.766C305.726,929.561 306.578,932.825 308.501,935.482Z" style="fill:rgb(245,195,1);"/>
            </g>
        </g>
        <g transform="matrix(1,0,0,1,-33.3709,8.42164)">
            <g transform="matrix(0.911217,0,0,0.992396,667.644,91.1408)">
                <path d="M151.168,210.706C174.78,210.233 192.369,227.386 192.25,247.209C192.208,254.094 190.62,259.06 188.848,262.962C186.213,268.762 180.675,273.908 176.119,276.443C170.4,279.625 165.323,279.301 159.21,277.891C141.917,273.904 127.054,263.166 127.054,245.027C127.054,226.889 133.424,211.061 151.168,210.706Z" style="fill:rgb(190,150,49);fill-opacity:0.41;"/>
            </g>
            <g transform="matrix(0.943769,1.15017e-16,-5.64968e-17,0.95096,682.453,109.157)">
                <ellipse cx="129.38" cy="239.752" rx="38.893" ry="38.737" style="fill:rgb(245,195,1);"/>
            </g>
            <g transform="matrix(0.920566,1.11022e-16,-5.51078e-17,0.917935,685.455,117.059)">
                <ellipse cx="129.38" cy="239.752" rx="38.893" ry="38.737" style="fill:rgb(254,204,8);"/>
            </g>
            <g transform="matrix(-0.0266452,-0.0257008,-0.116525,0.120807,887.517,282.937)">
                <rect x="386.805" y="368.744" width="202.287" height="410.969" style="fill:rgb(255,216,86);"/>
            </g>
            <g transform="matrix(-0.0117105,-0.0112954,-0.116912,0.121208,875.011,271.353)">
                <rect x="386.805" y="368.744" width="202.287" height="410.969" style="fill:rgb(254,223,120);"/>
            </g>
            <g transform="matrix(0.194395,0.0369714,-0.0369714,0.194395,750.288,210.262)">
                <path d="M371.778,650.145C363.347,648.709 356.017,646.066 349.787,642.217C339.848,636.076 332.499,627.439 327.739,616.306C322.98,605.172 320.6,592.182 320.6,577.337C320.6,562.762 323.33,549.874 328.789,538.673C334.248,527.472 342.193,518.7 352.622,512.357C358.29,508.909 364.65,506.399 371.703,504.825L371.703,478.754C371.703,476.986 373.138,475.551 374.906,475.551L401.239,475.551C403.006,475.551 404.441,476.986 404.441,478.754L404.441,503.842C407.39,504.277 410.345,504.855 413.305,505.575C420.794,507.397 427.969,509.86 434.828,512.964L424.539,537.863C418.94,535.299 413.305,533.072 407.636,531.183C401.966,529.293 396.402,528.349 390.943,528.349C378.764,528.349 369.455,532.735 363.015,541.507C356.576,550.279 353.356,562.29 353.356,577.54C353.356,592.925 356.331,604.834 362.281,613.269C368.23,621.704 377.784,625.921 390.943,625.921C396.962,625.921 403.051,625.246 409.211,623.897C415.37,622.547 422.019,620.658 429.159,618.229L429.159,643.938C422.579,646.502 416.07,648.391 409.631,649.606C407.976,649.918 406.271,650.19 404.516,650.422L404.516,681.351C404.516,683.119 403.081,684.554 401.313,684.554L374.98,684.554C373.213,684.554 371.778,683.119 371.778,681.351L371.778,650.145Z" style="fill:rgb(255,244,206);"/>
            </g>
            <g transform="matrix(0.231073,0.0739442,-0.0761352,0.23792,759.642,172.248)">
                <path d="M384.18,431.133C448.887,428.061 531.798,486.835 529.504,576.461C527.162,667.959 447.087,716.083 385.927,715.971C284.147,715.783 230.931,635.759 236.189,568.512C243.496,475.073 314.067,434.461 384.18,431.133ZM382.979,454C449.813,454 504.075,506.989 504.075,572.257C504.075,637.525 449.813,690.514 382.979,690.514C316.144,690.514 261.882,637.525 261.882,572.257C261.882,506.989 316.144,454 382.979,454Z" style="fill:rgb(215,153,0);"/>
            </g>
            <g transform="matrix(0.198349,0.0634723,-0.0653531,0.204226,765.954,196.094)">
                <path d="M382.979,403.686C478.249,403.686 555.189,476.982 554.776,572.17C554.36,667.91 473.469,741.254 381.755,739.203C288.936,737.128 210.36,665.294 210.36,572.257C210.36,479.22 287.708,403.686 382.979,403.686ZM378.559,427.771C446.516,422.895 527.382,483.353 528.946,566.159C530.638,655.783 454.483,713.648 387.648,713.864C288.061,714.185 235.792,635.843 235.792,570.576C235.792,505.308 279.135,434.906 378.559,427.771Z" style="fill:rgb(254,217,71);"/>
            </g>
            <g transform="matrix(0.202483,0.0361652,-0.037283,0.208741,748.318,140.414)">
                <path d="M288.917,876.28L263.101,877.405C262.897,874.169 262.788,870.914 262.776,867.641L288.46,866.522C288.499,869.76 288.651,873.014 288.917,876.28ZM294.215,824.906L270.328,817.375C271.302,814.243 272.365,811.153 273.514,808.107L297.312,815.61C296.175,818.667 295.142,821.767 294.215,824.906ZM317.741,778.557L298.559,763.714C300.595,761.119 302.705,758.585 304.885,756.114L323.992,770.899C321.82,773.383 319.735,775.937 317.741,778.557ZM356.574,743.141L344.201,723.046C347.033,721.301 349.918,719.635 352.852,718.049L365.217,738.131C362.269,739.709 359.387,741.38 356.574,743.141ZM405.861,723.511L401.531,700.36C404.805,699.691 408.109,699.113 411.439,698.628L415.778,721.827C413.954,722.075 412.128,722.358 410.3,722.674C408.811,722.932 407.331,723.211 405.861,723.511ZM459.005,722.172L463.391,698.722C466.729,699.216 470.032,699.801 473.296,700.472L468.89,724.028C465.628,723.302 462.331,722.682 459.005,722.172ZM508.97,739.204L521.898,718.208C524.832,719.805 527.711,721.481 530.532,723.233L517.547,744.321C514.748,742.522 511.888,740.816 508.97,739.204ZM549.494,771.953L569.583,756.408C571.752,758.894 573.847,761.439 575.867,764.041L555.713,779.635C553.725,777.002 551.65,774.44 549.494,771.953ZM575.743,816.176L602.364,807.334C603.508,810.388 604.679,814.103 605.645,817.23L578.834,825.473C577.905,822.322 576.874,819.222 575.743,816.176ZM584.699,866.448L611.134,867.6C611.106,870.84 610.984,874.095 610.764,877.363L584.326,876.211C584.562,872.977 584.688,869.722 584.699,866.448ZM575.222,916.757L600.044,926.932C598.851,929.989 597.572,933.001 596.209,935.965L571.377,925.786C572.76,922.824 574.043,919.813 575.222,916.757ZM548.199,960.929L568.698,979.275C566.479,981.724 563.82,984.676 561.465,986.992L541.356,968.096C543.721,965.782 546.003,963.391 548.199,960.929ZM506.707,993.259L519.404,1017.5C516.446,1019.03 512.665,1020.84 509.614,1022.2L497.685,997.595C500.755,996.246 503.764,994.799 506.707,993.259ZM455.853,1009.12L458.545,1036.38C455.228,1036.78 451.331,1037.08 447.969,1037.3L445.831,1010.04C449.16,1009.85 452.502,1009.54 455.853,1009.12ZM402.915,1005.41L395.239,1031.59C391.963,1030.81 388.728,1029.95 385.535,1028.99L393.099,1002.62C396.292,1003.6 399.646,1004.64 402.915,1005.41ZM353.632,985.135L337.735,1006.37C334.977,1004.5 332.279,1002.56 329.645,1000.55L345.522,979.346C348.159,981.364 350.864,983.295 353.632,985.135ZM308.501,935.482L285.689,950.516C283.794,947.83 280.979,944.578 279.242,941.788L303.982,926.766C305.726,929.561 306.578,932.825 308.501,935.482Z" style="fill:rgb(245,195,1);"/>
            </g>
        </g>
    </g>
    <g transform="matrix(0.908014,0,0,1,2.61863,0)">
        <path d="M28.482,250.661L28.505,284.297L13.087,284.321C13.087,284.321 12.736,284.238 12.619,284.148C12.505,284.059 12.388,283.782 12.388,283.782L12.383,273.161L6.108,273.169C6.108,273.169 5.455,272.874 5.278,272.746C5.166,272.665 5.047,272.401 5.047,272.401L5.045,262.69C5.045,262.69 5.076,262.425 5.309,262.225C5.423,262.127 5.703,262.088 5.703,262.088L13.115,262.092L13.119,251.144C13.119,251.144 13.221,250.949 13.295,250.873C13.441,250.726 13.732,250.687 13.732,250.687L28.482,250.661Z" style="fill:rgb(173,137,0);fill-opacity:0.2;"/>
    </g>
</svg>
