<?xml version="1.0" encoding="UTF-8" standalone="no"?>
<!DOCTYPE svg PUBLIC "-//W3C//DTD SVG 1.1//EN" "http://www.w3.org/Graphics/SVG/1.1/DTD/svg11.dtd">
<svg width="100%" height="100%" viewBox="0 0 400 300" version="1.1" xmlns="http://www.w3.org/2000/svg" xmlns:xlink="http://www.w3.org/1999/xlink" xml:space="preserve" xmlns:serif="http://www.serif.com/" style="fill-rule:evenodd;clip-rule:evenodd;stroke-linejoin:round;stroke-miterlimit:2;">
    <g transform="matrix(1.20459,0,0,1,-68.1377,0)">
        <path d="M165.502,273.118C163.165,273.702 143.094,276.629 156.235,283.612C164.307,287.901 175.258,288.715 179.657,288.786C188.979,288.939 202.897,289.133 211.135,289.726C215.621,290.048 218.627,290.952 222.127,291.042C246.159,291.661 242.002,291.233 265.162,290.438C307.192,288.996 307.595,288.525 313.851,287.903C328.316,286.464 326.078,277.032 314.34,275.22C287.248,271.036 173.19,271.198 165.502,273.118Z" style="fill:rgb(70,36,18);fill-opacity:0.73;"/>
    </g>
    <g transform="matrix(1,0,0,1,-668.187,-89.3996)">
        <g transform="matrix(-1.67029,-0.156188,-0.156188,1.67029,1278.49,84.3287)">
            <path d="M199.113,178.276C201.673,130.818 214.697,126.202 208.317,105.079C204.197,91.44 197.416,88.532 195.405,76.222C193.065,61.902 198.346,60.676 203.436,51.568C205.109,48.575 204.323,43.425 204.205,37.228C205.822,48.03 207.302,51.269 201.526,58.841C195.269,67.044 199.81,81.171 207.784,91.511C217.998,104.755 216.761,113.55 213.163,129.85C208.987,148.774 212.31,154.657 213.587,172.992C214.448,185.356 204.815,179.286 202.706,179.77" style="fill:rgb(70,112,30);"/>
        </g>
        <g transform="matrix(-0.727063,-0.0958842,-0.0958842,0.727063,1517.97,65.9587)">
            <g transform="matrix(-0.0605234,0.0646167,-0.0734623,-0.0694853,819.883,304.513)">
                <path d="M402.364,116.074C305.699,290.185 508.001,299.262 578.29,446.38C613.062,519.161 556.364,1020.46 527.746,956.988C352.528,568.368 203.028,639.013 206.772,464.893C209.066,358.195 242.531,189.63 402.364,116.074Z" style="fill:rgb(70,112,30);"/>
            </g>
            <g transform="matrix(-0.0433235,0.0779698,-0.111159,-0.0656306,821.326,304.196)">
                <path d="M368.578,164.468C275.473,259.971 385.471,317.239 437.902,393.161C458.155,422.488 473.981,451.783 464.873,484.304C442.297,564.917 391.14,677.138 368.666,722.489C349.435,761.296 295.016,826.802 288.83,827.242C288.83,827.242 307.84,734.424 301.584,699.812C273.54,544.665 205.035,533.667 182.9,453.393C138.598,292.736 261.217,207.595 368.578,164.468Z" style="fill:rgb(105,198,15);"/>
            </g>
        </g>
        <g transform="matrix(0.638824,0.526292,-0.526292,0.638824,566.369,-376.559)">
            <g transform="matrix(-0.0605234,0.0646167,-0.0734623,-0.0694853,819.883,304.513)">
                <path d="M402.364,116.074C305.699,290.185 508.001,299.262 578.29,446.38C613.062,519.161 556.364,1020.46 527.746,956.988C352.528,568.368 203.028,639.013 206.772,464.893C209.066,358.195 242.531,189.63 402.364,116.074Z" style="fill:rgb(70,112,30);"/>
            </g>
            <g transform="matrix(-0.0433235,0.0779698,-0.111159,-0.0656306,821.326,304.196)">
                <path d="M368.578,164.468C275.473,259.971 385.471,317.239 437.902,393.161C458.155,422.488 473.981,451.783 464.873,484.304C442.297,564.917 391.14,677.138 368.666,722.489C349.435,761.296 295.016,826.802 288.83,827.242C288.83,827.242 307.84,734.424 301.584,699.812C273.54,544.665 205.035,533.667 182.9,453.393C138.598,292.736 261.217,207.595 368.578,164.468Z" style="fill:rgb(105,198,15);"/>
            </g>
        </g>
        <g transform="matrix(0.200156,0.115793,-0.115793,0.200156,807.879,-26.5814)">
            <g transform="matrix(-0.0605234,0.0646167,-0.0734623,-0.0694853,819.883,304.513)">
                <path d="M402.364,116.074C305.699,290.185 508.001,299.262 578.29,446.38C613.062,519.161 579.134,854.31 517.676,812.266C410.944,739.249 203.028,639.013 206.772,464.893C209.066,358.195 242.531,189.63 402.364,116.074Z" style="fill:rgb(70,112,30);"/>
            </g>
            <g transform="matrix(-0.0433235,0.0779698,-0.111159,-0.0656306,821.326,304.196)">
                <path d="M368.578,164.468C275.473,259.971 385.471,317.239 437.902,393.161C458.155,422.488 473.981,451.783 464.873,484.304C442.297,564.917 402.518,642.216 368.589,683.857C351.564,704.751 331.262,715.338 325.076,715.778C325.076,715.778 325.947,703.413 321.552,695.539C305.925,667.543 212,595.713 189.864,515.44C145.563,354.782 261.217,207.595 368.578,164.468Z" style="fill:rgb(105,198,15);"/>
            </g>
        </g>
        <g transform="matrix(-0.226603,0.131092,0.131092,0.226603,1068.33,-33.7531)">
            <g transform="matrix(-0.0605234,0.0646167,-0.0734623,-0.0694853,819.883,304.513)">
                <path d="M402.364,116.074C305.699,290.185 508.001,299.262 578.29,446.38C613.062,519.161 579.134,854.31 517.676,812.266C410.944,739.249 203.028,639.013 206.772,464.893C209.066,358.195 242.531,189.63 402.364,116.074Z" style="fill:rgb(70,112,30);"/>
            </g>
            <g transform="matrix(-0.0433235,0.0779698,-0.111159,-0.0656306,821.326,304.196)">
                <path d="M368.578,164.468C275.473,259.971 385.471,317.239 437.902,393.161C458.155,422.488 473.981,451.783 464.873,484.304C442.297,564.917 402.518,642.216 368.589,683.857C351.564,704.751 331.262,715.338 325.076,715.778C325.076,715.778 325.947,703.413 321.552,695.539C305.925,667.543 212,595.713 189.864,515.44C145.563,354.782 261.217,207.595 368.578,164.468Z" style="fill:rgb(105,198,15);"/>
            </g>
        </g>
        <g transform="matrix(0.323525,-0.01056,0.01056,0.323525,676.651,59.2079)">
            <g transform="matrix(-0.0605234,0.0646167,-0.0734623,-0.0694853,819.883,304.513)">
                <path d="M402.364,116.074C305.699,290.185 508.001,299.262 578.29,446.38C613.062,519.161 579.134,854.31 517.676,812.266C410.944,739.249 203.028,639.013 206.772,464.893C209.066,358.195 242.531,189.63 402.364,116.074Z" style="fill:rgb(70,112,30);"/>
            </g>
            <g transform="matrix(-0.0433235,0.0779698,-0.111159,-0.0656306,821.326,304.196)">
                <path d="M368.578,164.468C275.473,259.971 385.471,317.239 437.902,393.161C458.155,422.488 473.981,451.783 464.873,484.304C442.297,564.917 402.518,642.216 368.589,683.857C351.564,704.751 331.262,715.338 325.076,715.778C325.076,715.778 325.947,703.413 321.552,695.539C305.925,667.543 212,595.713 189.864,515.44C145.563,354.782 261.217,207.595 368.578,164.468Z" style="fill:rgb(105,198,15);"/>
            </g>
        </g>
        <g transform="matrix(-0.400396,0.186719,0.186719,0.400396,1196.94,-104.774)">
            <g transform="matrix(-0.0605234,0.0646167,-0.0734623,-0.0694853,819.883,304.513)">
                <path d="M402.364,116.074C305.699,290.185 508.001,299.262 578.29,446.38C613.062,519.161 579.134,854.31 517.676,812.266C410.944,739.249 203.028,639.013 206.772,464.893C209.066,358.195 242.531,189.63 402.364,116.074Z" style="fill:rgb(70,112,30);"/>
            </g>
            <g transform="matrix(-0.0433235,0.0779698,-0.111159,-0.0656306,821.326,304.196)">
                <path d="M368.578,164.468C275.473,259.971 385.471,317.239 437.902,393.161C458.155,422.488 473.981,451.783 464.873,484.304C442.297,564.917 402.518,642.216 368.589,683.857C351.564,704.751 331.262,715.338 325.076,715.778C325.076,715.778 325.947,703.413 321.552,695.539C305.925,667.543 212,595.713 189.864,515.44C145.563,354.782 261.217,207.595 368.578,164.468Z" style="fill:rgb(105,198,15);"/>
            </g>
        </g>
        <g transform="matrix(0.328489,0.319593,-0.319593,0.328489,771.994,-166.081)">
            <g transform="matrix(-0.0605234,0.0646167,-0.0734623,-0.0694853,819.883,304.513)">
                <path d="M402.364,116.074C305.699,290.185 508.001,299.262 578.29,446.38C613.062,519.161 579.134,854.31 517.676,812.266C410.944,739.249 203.028,639.013 206.772,464.893C209.066,358.195 242.531,189.63 402.364,116.074Z" style="fill:rgb(70,112,30);"/>
            </g>
            <g transform="matrix(-0.0433235,0.0779698,-0.111159,-0.0656306,821.326,304.196)">
                <path d="M368.578,164.468C275.473,259.971 385.471,317.239 437.902,393.161C458.155,422.488 473.981,451.783 464.873,484.304C442.297,564.917 402.518,642.216 368.589,683.857C351.564,704.751 331.262,715.338 325.076,715.778C325.076,715.778 325.947,703.413 321.552,695.539C305.925,667.543 212,595.713 189.864,515.44C145.563,354.782 261.217,207.595 368.578,164.468Z" style="fill:rgb(105,198,15);"/>
            </g>
        </g>
        <g transform="matrix(1,0,0,1,-62.5224,-119.235)">
            <g transform="matrix(0.161244,0,0,0.161244,979.246,241.735)">
                <path d="M338.039,426.468L363.733,473.035C376.163,477.248 388.031,482.964 399.075,490.054L451.502,481.109C464.062,493.227 474.989,506.929 484.008,521.87L463.621,570.992C468.076,583.337 471.007,596.18 472.35,609.235L512.031,644.647C510.388,662.021 506.488,679.108 500.43,695.475L449.314,710.162C442.44,721.343 434.226,731.642 424.856,740.831L421.911,793.934C407.302,803.482 391.512,811.086 374.939,816.555L331.585,785.748C318.558,787.345 305.385,787.345 292.358,785.748L249.005,816.555C232.431,811.086 216.641,803.482 202.033,793.934L199.088,740.831C189.717,731.642 181.504,721.343 174.63,710.162L123.514,695.475C117.456,679.108 113.556,662.021 111.913,644.647L151.594,609.235C152.936,596.18 155.868,583.337 160.323,570.992L139.936,521.87C148.955,506.929 159.882,493.227 172.441,481.109L224.868,490.054C235.912,482.964 247.781,477.248 260.21,473.035L285.904,426.468C303.209,424.204 320.735,424.204 338.039,426.468ZM311.972,531.092C364.2,531.092 406.603,573.494 406.603,625.722C406.603,677.951 364.2,720.353 311.972,720.353C259.744,720.353 217.341,677.951 217.341,625.722C217.341,573.494 259.744,531.092 311.972,531.092Z" style="fill:rgb(68,217,255);"/>
            </g>
            <g transform="matrix(0.161244,0,0,0.161244,979.246,241.735)">
                <path d="M311.694,424.77C320.494,424.758 329.295,425.324 338.039,426.468L363.733,473.035C376.163,477.248 388.031,482.964 399.075,490.054L451.502,481.109C464.062,493.227 474.989,506.929 484.008,521.87L463.621,570.992C468.076,583.337 471.007,596.18 472.35,609.235L512.031,644.647C510.388,662.021 506.488,679.108 500.43,695.475L449.314,710.162C442.44,721.343 434.226,731.642 424.856,740.831L421.911,793.934C407.302,803.482 391.512,811.086 374.939,816.555L331.585,785.748C324.98,786.558 318.336,786.957 311.694,786.945L311.694,720.353C311.786,720.353 311.879,720.353 311.972,720.353C364.2,720.353 406.603,677.951 406.603,625.722C406.603,573.494 364.2,531.092 311.972,531.092C311.879,531.092 311.786,531.092 311.694,531.092L311.694,424.77Z" style="fill:rgb(137,230,253);"/>
            </g>
            <g transform="matrix(0.142717,0,0,0.142576,910.179,219.521)">
                <path d="M836.481,740.865C903.898,740.865 958.632,795.925 958.632,863.744C958.632,931.563 903.898,986.623 836.481,986.623C769.064,986.623 714.33,931.563 714.33,863.744C714.33,795.925 769.064,740.865 836.481,740.865ZM836.481,756.03C895.578,756.03 943.557,804.295 943.557,863.744C943.557,923.193 895.578,971.458 836.481,971.458C777.384,971.458 729.405,923.193 729.405,863.744C729.405,804.295 777.384,756.03 836.481,756.03Z" style="fill:white;fill-opacity:0.48;"/>
            </g>
        </g>
        <g transform="matrix(1.61196,0,0,1.61196,-838.834,-271.238)">
            <g transform="matrix(0.161244,0,0,0.161244,979.246,241.735)">
                <path d="M338.039,426.468L363.733,473.035C376.163,477.248 388.031,482.964 399.075,490.054L451.502,481.109C464.062,493.227 474.989,506.929 484.008,521.87L463.621,570.992C468.076,583.337 471.007,596.18 472.35,609.235L512.031,644.647C510.388,662.021 506.488,679.108 500.43,695.475L449.314,710.162C442.44,721.343 434.226,731.642 424.856,740.831L421.911,793.934C407.302,803.482 391.512,811.086 374.939,816.555L331.585,785.748C318.558,787.345 305.385,787.345 292.358,785.748L249.005,816.555C232.431,811.086 216.641,803.482 202.033,793.934L199.088,740.831C189.717,731.642 181.504,721.343 174.63,710.162L123.514,695.475C117.456,679.108 113.556,662.021 111.913,644.647L151.594,609.235C152.936,596.18 155.868,583.337 160.323,570.992L139.936,521.87C148.955,506.929 159.882,493.227 172.441,481.109L224.868,490.054C235.912,482.964 247.781,477.248 260.21,473.035L285.904,426.468C303.209,424.204 320.735,424.204 338.039,426.468ZM311.972,531.092C364.2,531.092 406.603,573.494 406.603,625.722C406.603,677.951 364.2,720.353 311.972,720.353C259.744,720.353 217.341,677.951 217.341,625.722C217.341,573.494 259.744,531.092 311.972,531.092Z" style="fill:rgb(68,217,255);"/>
            </g>
            <g transform="matrix(0.161244,0,0,0.161244,979.246,241.735)">
                <path d="M311.694,424.77C320.494,424.758 329.295,425.324 338.039,426.468L363.733,473.035C376.163,477.248 388.031,482.964 399.075,490.054L451.502,481.109C464.062,493.227 474.989,506.929 484.008,521.87L463.621,570.992C468.076,583.337 471.007,596.18 472.35,609.235L512.031,644.647C510.388,662.021 506.488,679.108 500.43,695.475L449.314,710.162C442.44,721.343 434.226,731.642 424.856,740.831L421.911,793.934C407.302,803.482 391.512,811.086 374.939,816.555L331.585,785.748C324.98,786.558 318.336,786.957 311.694,786.945L311.694,720.353C311.786,720.353 311.879,720.353 311.972,720.353C364.2,720.353 406.603,677.951 406.603,625.722C406.603,573.494 364.2,531.092 311.972,531.092C311.879,531.092 311.786,531.092 311.694,531.092L311.694,424.77Z" style="fill:rgb(137,230,253);"/>
            </g>
            <g transform="matrix(0.142717,0,0,0.142576,910.179,219.521)">
                <path d="M836.481,740.865C903.898,740.865 958.632,795.925 958.632,863.744C958.632,931.563 903.898,986.623 836.481,986.623C769.064,986.623 714.33,931.563 714.33,863.744C714.33,795.925 769.064,740.865 836.481,740.865ZM836.481,756.03C895.578,756.03 943.557,804.295 943.557,863.744C943.557,923.193 895.578,971.458 836.481,971.458C777.384,971.458 729.405,923.193 729.405,863.744C729.405,804.295 777.384,756.03 836.481,756.03Z" style="fill:white;fill-opacity:0.48;"/>
            </g>
        </g>
        <g transform="matrix(2.1381,0,0,2.1381,-1271.09,-425.868)">
            <g transform="matrix(0.161244,0,0,0.161244,979.246,241.735)">
                <path d="M338.039,426.468L363.733,473.035C376.163,477.248 388.031,482.964 399.075,490.054L451.502,481.109C464.062,493.227 474.989,506.929 484.008,521.87L463.621,570.992C468.076,583.337 471.007,596.18 472.35,609.235L512.031,644.647C510.388,662.021 506.488,679.108 500.43,695.475L449.314,710.162C442.44,721.343 434.226,731.642 424.856,740.831L421.911,793.934C407.302,803.482 391.512,811.086 374.939,816.555L331.585,785.748C318.558,787.345 305.385,787.345 292.358,785.748L249.005,816.555C232.431,811.086 216.641,803.482 202.033,793.934L199.088,740.831C189.717,731.642 181.504,721.343 174.63,710.162L123.514,695.475C117.456,679.108 113.556,662.021 111.913,644.647L151.594,609.235C152.936,596.18 155.868,583.337 160.323,570.992L139.936,521.87C148.955,506.929 159.882,493.227 172.441,481.109L224.868,490.054C235.912,482.964 247.781,477.248 260.21,473.035L285.904,426.468C303.209,424.204 320.735,424.204 338.039,426.468ZM311.972,531.092C364.2,531.092 406.603,573.494 406.603,625.722C406.603,677.951 364.2,720.353 311.972,720.353C259.744,720.353 217.341,677.951 217.341,625.722C217.341,573.494 259.744,531.092 311.972,531.092Z" style="fill:rgb(58,215,255);"/>
            </g>
            <g transform="matrix(0.161244,0,0,0.161244,979.246,241.735)">
                <path d="M311.694,424.77C320.494,424.758 329.295,425.324 338.039,426.468L363.733,473.035C376.163,477.248 388.031,482.964 399.075,490.054L451.502,481.109C464.062,493.227 474.989,506.929 484.008,521.87L463.621,570.992C468.076,583.337 471.007,596.18 472.35,609.235L512.031,644.647C510.388,662.021 506.488,679.108 500.43,695.475L449.314,710.162C442.44,721.343 434.226,731.642 424.856,740.831L421.911,793.934C407.302,803.482 391.512,811.086 374.939,816.555L331.585,785.748C324.98,786.558 318.336,786.957 311.694,786.945L311.694,720.353C311.786,720.353 311.879,720.353 311.972,720.353C364.2,720.353 406.603,677.951 406.603,625.722C406.603,573.494 364.2,531.092 311.972,531.092C311.879,531.092 311.786,531.092 311.694,531.092L311.694,424.77Z" style="fill:rgb(137,230,253);"/>
            </g>
            <g transform="matrix(0.142717,0,0,0.142576,910.179,219.521)">
                <path d="M836.481,740.865C903.898,740.865 958.632,795.925 958.632,863.744C958.632,931.563 903.898,986.623 836.481,986.623C769.064,986.623 714.33,931.563 714.33,863.744C714.33,795.925 769.064,740.865 836.481,740.865ZM836.481,756.03C895.578,756.03 943.557,804.295 943.557,863.744C943.557,923.193 895.578,971.458 836.481,971.458C777.384,971.458 729.405,923.193 729.405,863.744C729.405,804.295 777.384,756.03 836.481,756.03Z" style="fill:white;fill-opacity:0.42;"/>
            </g>
        </g>
        <g transform="matrix(0.527535,0,0,1,796.281,89.3996)">
            <rect x="121.334" y="280.981" width="149.784" height="6.049" style="fill-opacity:0.13;"/>
        </g>
        <g transform="matrix(1,0,0,1,191.515,18.7251)">
            <g transform="matrix(0.179272,0,0,0.104735,615.234,304.735)">
                <path d="M740.62,399.109L740.62,490.077C740.62,493.369 739.058,496.042 737.135,496.042L329.384,496.042C327.461,496.042 325.899,493.369 325.899,490.077L325.899,399.109C325.899,395.817 327.461,393.144 329.384,393.144L737.135,393.144C739.058,393.144 740.62,395.817 740.62,399.109Z" style="fill:rgb(254,217,71);"/>
            </g>
            <g transform="matrix(1.15614,0,0,0.0671593,661.47,328.735)">
                <rect x="11.046" y="251.168" width="63.445" height="4.532" style="fill:rgb(105,82,25);fill-opacity:0.49;"/>
            </g>
            <g transform="matrix(1.1456,0,0,0.0671593,661.957,339.807)">
                <rect x="11.046" y="251.168" width="63.445" height="4.532" style="fill:rgb(118,92,29);fill-opacity:0.47;"/>
            </g>
            <g transform="matrix(0.237895,0,0,0.179272,580.991,271.422)">
                <path d="M400.402,415.498L400.901,475.721L395.633,475.721L395.134,415.498L400.402,415.498ZM435.088,415.498L435.586,475.721L430.318,475.721L429.819,415.498L435.088,415.498ZM469.773,415.498L470.272,475.721L465.004,475.721L464.505,415.498L469.773,415.498ZM504.459,415.498L504.957,475.721L499.689,475.721L499.19,415.498L504.459,415.498ZM534.94,415.498L535.439,475.721L530.171,475.721L529.672,415.498L534.94,415.498ZM564.894,415.498L565.393,475.721L560.124,475.721L559.626,415.498L564.894,415.498ZM595.376,415.498L595.875,475.721L590.606,475.721L590.108,415.498L595.376,415.498ZM625.858,415.498L626.356,475.721L621.088,475.721L620.59,415.498L625.858,415.498ZM660.543,415.498L661.042,475.721L655.774,475.721L655.275,415.498L660.543,415.498ZM695.229,415.498L695.727,475.721L690.459,475.721L689.961,415.498L695.229,415.498Z" style="fill:rgb(245,195,1);"/>
            </g>
        </g>
        <g transform="matrix(1,0,0,1,187.528,7.32916)">
            <g transform="matrix(0.179272,0,0,0.104735,615.234,304.735)">
                <path d="M740.62,399.109L740.62,490.077C740.62,493.369 739.058,496.042 737.135,496.042L329.384,496.042C327.461,496.042 325.899,493.369 325.899,490.077L325.899,399.109C325.899,395.817 327.461,393.144 329.384,393.144L737.135,393.144C739.058,393.144 740.62,395.817 740.62,399.109Z" style="fill:rgb(254,217,71);"/>
            </g>
            <g transform="matrix(1.15614,0,0,0.0671593,661.47,328.735)">
                <rect x="11.046" y="251.168" width="63.445" height="4.532" style="fill:rgb(105,82,25);fill-opacity:0.49;"/>
            </g>
            <g transform="matrix(1.1456,0,0,0.0671593,661.957,339.807)">
                <rect x="11.046" y="251.168" width="63.445" height="4.532" style="fill:rgb(118,92,29);fill-opacity:0.47;"/>
            </g>
            <g transform="matrix(0.237895,0,0,0.179272,580.991,271.422)">
                <path d="M400.402,415.498L400.901,475.721L395.633,475.721L395.134,415.498L400.402,415.498ZM435.088,415.498L435.586,475.721L430.318,475.721L429.819,415.498L435.088,415.498ZM469.773,415.498L470.272,475.721L465.004,475.721L464.505,415.498L469.773,415.498ZM504.459,415.498L504.957,475.721L499.689,475.721L499.19,415.498L504.459,415.498ZM534.94,415.498L535.439,475.721L530.171,475.721L529.672,415.498L534.94,415.498ZM564.894,415.498L565.393,475.721L560.124,475.721L559.626,415.498L564.894,415.498ZM595.376,415.498L595.875,475.721L590.606,475.721L590.108,415.498L595.376,415.498ZM625.858,415.498L626.356,475.721L621.088,475.721L620.59,415.498L625.858,415.498ZM660.543,415.498L661.042,475.721L655.774,475.721L655.275,415.498L660.543,415.498ZM695.229,415.498L695.727,475.721L690.459,475.721L689.961,415.498L695.229,415.498Z" style="fill:rgb(245,195,1);"/>
            </g>
        </g>
        <g transform="matrix(1,0,0,1,184.879,-4.15814)">
            <g transform="matrix(0.179272,0,0,0.104735,615.234,304.735)">
                <path d="M740.62,399.109L740.62,490.077C740.62,493.369 739.058,496.042 737.135,496.042L329.384,496.042C327.461,496.042 325.899,493.369 325.899,490.077L325.899,399.109C325.899,395.817 327.461,393.144 329.384,393.144L737.135,393.144C739.058,393.144 740.62,395.817 740.62,399.109Z" style="fill:rgb(254,217,71);"/>
            </g>
            <g transform="matrix(1.15614,0,0,0.0671593,661.47,328.735)">
                <rect x="11.046" y="251.168" width="63.445" height="4.532" style="fill:rgb(105,82,25);fill-opacity:0.49;"/>
            </g>
            <g transform="matrix(1.1456,0,0,0.0671593,661.957,339.807)">
                <rect x="11.046" y="251.168" width="63.445" height="4.532" style="fill:rgb(118,92,29);fill-opacity:0.47;"/>
            </g>
            <g transform="matrix(0.237895,0,0,0.179272,580.991,271.422)">
                <path d="M400.402,415.498L400.901,475.721L395.633,475.721L395.134,415.498L400.402,415.498ZM435.088,415.498L435.586,475.721L430.318,475.721L429.819,415.498L435.088,415.498ZM469.773,415.498L470.272,475.721L465.004,475.721L464.505,415.498L469.773,415.498ZM504.459,415.498L504.957,475.721L499.689,475.721L499.19,415.498L504.459,415.498ZM534.94,415.498L535.439,475.721L530.171,475.721L529.672,415.498L534.94,415.498ZM564.894,415.498L565.393,475.721L560.124,475.721L559.626,415.498L564.894,415.498ZM595.376,415.498L595.875,475.721L590.606,475.721L590.108,415.498L595.376,415.498ZM625.858,415.498L626.356,475.721L621.088,475.721L620.59,415.498L625.858,415.498ZM660.543,415.498L661.042,475.721L655.774,475.721L655.275,415.498L660.543,415.498ZM695.229,415.498L695.727,475.721L690.459,475.721L689.961,415.498L695.229,415.498Z" style="fill:rgb(245,195,1);"/>
            </g>
        </g>
        <g transform="matrix(1,0,0,0.430084,726.789,254.523)">
            <rect x="168.418" y="202.256" width="11.343" height="79.216" style="fill:white;fill-opacity:0.24;"/>
        </g>
        <g transform="matrix(1,0,0,1,52.1529,85.099)">
            <g transform="matrix(1.04038,0,0,0.631309,633.579,163.8)">
                <path d="M169.458,135.43C175.528,136.838 185.877,147.073 185.877,147.073L188.668,147.083C188.668,147.083 187.424,159.748 186.039,166.069C182.096,184.062 175.935,196.741 166.364,202.048C158.339,206.497 160.441,182.549 160.441,165.331C160.441,148.112 160.958,133.459 169.458,135.43Z" style="fill:rgb(82,69,35);fill-opacity:0.41;"/>
            </g>
            <g transform="matrix(-0.287011,0,0,0.268667,1040.92,99.5981)">
                <path d="M834.528,456.052C890.875,456.052 957.115,527.842 957.115,601.009C957.115,644.233 877.726,713.729 877.726,713.729C877.726,713.729 831.107,713.818 829.294,713.63C827.203,713.414 801.844,711.525 768.078,660.894C733.554,609.129 737.553,519.331 761.391,495.053C778.737,477.388 810.795,456.052 834.528,456.052Z" style="fill:rgb(215,153,0);"/>
            </g>
            <g transform="matrix(-0.776325,-0.256063,-0.0855687,0.152286,1468.35,348.487)">
                <path d="M756.173,892.95C757.175,897.922 803.909,860.198 803.796,737.708C803.68,610.985 799.082,527.504 786.278,521.725C785.205,521.24 780.663,525.207 780.475,525.407C779.713,526.22 778.308,528.497 777.19,530.308L784.392,531.873L784.581,536.317L772.54,538.576C770.552,543.903 769.376,547.58 768.554,551.418L766.174,561.217C765.404,565.049 764.344,570.085 763.434,575.606L779.239,565.786L779.293,575.67L761.676,585.881C760.683,592.107 759.894,597.935 759.184,602.883L757.63,614.708C756.586,623.12 755.971,628.623 755.18,635.652L773.449,627.169L773.247,638.844L753.9,647.71C753.109,655.486 751.622,673.635 751.542,674.648L750.58,687.603C749.98,696.271 749.399,704.76 748.982,713.286L779.026,699.601L778.805,712.363L748.371,726.521C748.021,735.59 747.709,744.667 747.561,753.457L747.413,764.749C747.354,773.765 747.506,782.85 747.659,791.433L780.38,776.546L780.178,788.222L748.018,803.041C748.258,811.188 748.596,819.089 749.028,826.702L749.546,836.755C750.081,844.251 750.566,852.463 751.292,859.268L782.529,844.718L782.367,854.071L752.066,867.107C752.917,874.221 753.55,879.35 754.671,885.771L756.173,892.95Z" style="fill:rgb(242,193,0);"/>
            </g>
            <g transform="matrix(-0.262896,0.0351626,0.0351626,0.262896,879.165,95.5175)">
                <path d="M378.771,431.972C434.62,437.498 490.864,491.668 505.153,557.39C520.268,626.908 483.218,684.206 426.364,687.919C363.073,692.052 300.738,628.988 289.053,553.006C277.974,480.969 316.968,425.856 378.771,431.972Z" style="fill:rgb(254,204,8);"/>
            </g>
            <g transform="matrix(0.0427251,-0.0286448,0.147703,0.220306,687.952,149.988)">
                <path d="M665.695,449.047C577.718,522.916 392.64,669.923 392.64,669.923L262.513,660.456C262.513,660.456 441.079,526.142 531.879,453.234C573.701,452.644 623.873,449.638 665.695,449.047Z" style="fill:rgb(255,216,86);"/>
            </g>
            <g transform="matrix(0.0187776,-0.0125893,0.147703,0.220306,707.285,136.298)">
                <path d="M657.469,451.193C461.569,525.695 319.871,577.903 63.113,671.863C17.251,671.871 -28.611,671.878 -74.473,671.886C186.409,578.08 333.091,525.695 532.081,451.558C574.38,451.28 615.17,451.47 657.469,451.193Z" style="fill:rgb(254,223,120);"/>
            </g>
            <g transform="matrix(0.274932,0.00307879,-0.00307879,0.274932,697.988,97.3908)">
                <path d="M346.207,622.324C339.361,620.459 335.553,616.866 334.798,616.154C327.092,608.882 325.602,597.934 325.547,597.617C323.526,585.991 325.67,572.839 326.016,570.714C328.443,555.825 333.672,546.301 334.741,544.354C341.032,532.895 349.02,527.342 350.602,526.243C355.831,522.608 360.95,521.127 361.913,520.848C362.835,514.911 363.756,508.974 364.678,503.037C364.868,501.81 365.991,500.818 366.783,500.787C371.663,500.594 376.543,500.401 381.423,500.208C382.18,500.178 383.08,501.051 382.886,502.345C382.017,508.132 381.148,513.919 380.279,519.706L385.099,520.787C391.192,522.543 395.719,525.184 396.581,525.687C393.765,531.569 390.949,537.451 388.132,543.333C383.752,540.667 379.962,539.049 379.224,538.734C374.73,536.814 370.87,536.866 370.127,536.876C360.202,537.009 354.748,544.028 353.178,546.144C346.418,555.254 344.255,568.945 343.923,571.045C343.611,573.023 341.389,587.084 344.952,596.065C348.51,605.032 357.368,605.45 359.676,605.533C360.53,605.563 364.813,605.716 370.297,604.452C371.282,604.225 375.828,603.178 382.372,600.756C381.464,606.966 380.556,613.176 379.648,619.386C373.539,621.915 368.751,622.791 367.775,622.969L364.754,623.417C363.634,630.879 362.514,638.341 361.395,645.803C361.194,647.139 360.007,648.063 359.206,648.01C354.205,647.681 349.204,647.352 344.203,647.022C343.442,646.972 342.54,645.957 342.75,644.607C343.902,637.179 345.055,629.752 346.207,622.324Z" style="fill:rgb(255,244,206);"/>
            </g>
            <g transform="matrix(-0.292619,0.039138,0.0402977,0.30129,886.171,70.4968)">
                <path d="M379.041,461.095C426.025,466.658 473.705,515.193 484.235,567.045C496.67,628.278 458.812,675.79 410.82,673.845C357.446,671.681 310.171,629.158 299.48,560.654C289.39,496.002 325.764,454.787 379.041,461.095ZM378.195,477.037C421.084,480.815 458.664,519.82 468.248,562.209C479.659,612.681 451.489,651.643 414.234,653.545C368.064,655.901 327.339,612.334 318.388,565.42C307.15,506.522 338.594,473.549 378.195,477.037Z" style="fill:rgb(215,153,0);"/>
            </g>
            <g transform="matrix(-0.307202,0.0410886,0.0423061,0.316305,890.722,61.2607)">
                <path d="M379.041,461.095C394.185,463.027 409.911,469.504 424.051,478.759C453.738,498.189 477.213,531.475 484.218,566.777C486.691,579.238 487.615,590.53 486.306,601.566C481.179,644.81 449.055,675.395 410.82,673.845C357.446,671.681 309.568,629.706 298.877,561.202C288.787,496.55 325.14,454.22 379.041,461.095ZM378.195,477.037C421.084,480.815 458.664,519.82 468.248,562.209C479.659,612.681 451.489,651.643 414.234,653.545C368.064,655.901 327.339,612.334 318.388,565.42C307.15,506.522 338.594,473.549 378.195,477.037Z" style="fill:rgb(254,217,71);"/>
            </g>
            <g transform="matrix(-0.285799,-5.55112e-17,-5.55112e-17,0.294632,922.08,2.33203)">
                <path d="M436.249,745.356C434.044,745.05 432.369,744.943 430.746,744.856L433.649,763.403L439.522,764.077L436.249,745.356ZM403.127,748.304C401.382,748.585 398.877,749.591 396.982,750.482L406.714,768.591L412.218,766.521L403.127,748.304ZM370.905,770.117L367.085,774.983L384.335,787.186L388.088,782.224L370.905,770.117ZM354.338,799.656L351.706,806.763L371.564,814.702L373.51,808.586L354.338,799.656ZM347.83,839.571L347.766,846.859L368.02,849.39L367.985,842.359L347.83,839.571ZM352.513,885.525L355.087,892.761L375.599,886.021L373.255,878.962L352.513,885.525ZM372.022,927.554L375.965,933.308L393.221,919.276L389.312,913.672L372.022,927.554ZM401.602,959.652L406.814,962.917L419.21,944.464L413.892,940.959L401.602,959.652ZM437.661,977.649L444.412,979.119L449.242,957.176L442.882,955.595L437.661,977.649ZM478.272,980.018L483.701,978.362L478.528,957.442L473.064,958.7L478.272,980.018ZM510.033,965.804L514.331,962.239L503.624,943.758L499.271,947.308L510.033,965.804ZM533.201,939.529L535.833,934.335L520.542,919.96L517.465,925.239L533.201,939.529ZM545.189,905.332C545.548,903.495 545.804,901.097 546.059,898.502L529.068,891.175L527.824,897.641L545.189,905.332ZM545.443,866.515L544.364,859.732L528.549,859.134L529.537,865.799L545.443,866.515ZM534.368,827.952L531.64,821.969L518.295,827.268L521.016,833.332L534.368,827.952ZM513.97,793.461C512.52,791.57 511.09,789.831 509.687,788.293L499.906,799.308L503.736,804.601L513.97,793.461ZM492.477,771.152L487.428,767.165L481.997,782.444L487.388,786.457L492.477,771.152ZM465.539,753.889C463.728,753.059 461.926,752.257 460.133,751.481L457.495,768.438L463.119,770.708L465.539,753.889Z" style="fill:rgb(245,195,1);"/>
            </g>
        </g>
        <g transform="matrix(1,0,0,1,24.4614,83.947)">
            <g transform="matrix(1.08916,0,0,0.996842,624.335,90.019)">
                <path d="M168.382,135.131C179.675,137.75 191.677,142.66 187.885,169.492C185.253,188.125 174.277,199.019 166.803,201.594C158.515,204.448 160.441,182.549 160.441,165.331C160.441,148.112 159.882,133.16 168.382,135.131Z" style="fill:rgb(195,157,63);fill-opacity:0.41;"/>
            </g>
            <g transform="matrix(-0.287011,0,0,0.268667,1040.92,99.5981)">
                <path d="M834.528,456.052C890.875,456.052 957.115,527.842 957.115,601.009C957.115,644.233 877.726,713.729 877.726,713.729C877.726,713.729 831.107,713.818 829.294,713.63C827.203,713.414 801.844,711.525 768.078,660.894C733.554,609.129 737.553,519.331 761.391,495.053C778.737,477.388 810.795,456.052 834.528,456.052Z" style="fill:rgb(215,153,0);"/>
            </g>
            <g transform="matrix(-0.776325,-0.256063,-0.0855687,0.152286,1468.35,348.487)">
                <path d="M756.173,892.95C757.175,897.922 803.909,860.198 803.796,737.708C803.68,610.985 799.082,527.504 786.278,521.725C785.205,521.24 780.663,525.207 780.475,525.407C779.713,526.22 778.308,528.497 777.19,530.308L784.392,531.873L784.581,536.317L772.54,538.576C770.552,543.903 769.376,547.58 768.554,551.418L766.174,561.217C765.404,565.049 764.344,570.085 763.434,575.606L779.239,565.786L779.293,575.67L761.676,585.881C760.683,592.107 759.894,597.935 759.184,602.883L757.63,614.708C756.586,623.12 755.971,628.623 755.18,635.652L773.449,627.169L773.247,638.844L753.9,647.71C753.109,655.486 751.622,673.635 751.542,674.648L750.58,687.603C749.98,696.271 749.399,704.76 748.982,713.286L779.026,699.601L778.805,712.363L748.371,726.521C748.021,735.59 747.709,744.667 747.561,753.457L747.413,764.749C747.354,773.765 747.506,782.85 747.659,791.433L780.38,776.546L780.178,788.222L748.018,803.041C748.258,811.188 748.596,819.089 749.028,826.702L749.546,836.755C750.081,844.251 750.566,852.463 751.292,859.268L782.529,844.718L782.367,854.071L752.066,867.107C752.917,874.221 753.55,879.35 754.671,885.771L756.173,892.95Z" style="fill:rgb(242,193,0);"/>
            </g>
            <g transform="matrix(-0.262896,0.0351626,0.0351626,0.262896,879.165,95.5175)">
                <path d="M378.771,431.972C434.62,437.498 490.864,491.668 505.153,557.39C520.268,626.908 483.218,684.206 426.364,687.919C363.073,692.052 300.738,628.988 289.053,553.006C277.974,480.969 316.968,425.856 378.771,431.972Z" style="fill:rgb(254,204,8);"/>
            </g>
            <g transform="matrix(0.0427251,-0.0286448,0.147703,0.220306,687.952,149.988)">
                <path d="M665.695,449.047C577.718,522.916 392.64,669.923 392.64,669.923L262.513,660.456C262.513,660.456 441.079,526.142 531.879,453.234C573.701,452.644 623.873,449.638 665.695,449.047Z" style="fill:rgb(255,216,86);"/>
            </g>
            <g transform="matrix(0.0187776,-0.0125893,0.147703,0.220306,707.285,136.298)">
                <path d="M657.469,451.193C461.569,525.695 319.871,577.903 63.113,671.863C17.251,671.871 -28.611,671.878 -74.473,671.886C186.409,578.08 333.091,525.695 532.081,451.558C574.38,451.28 615.17,451.47 657.469,451.193Z" style="fill:rgb(254,223,120);"/>
            </g>
            <g transform="matrix(0.274932,0.00307879,-0.00307879,0.274932,697.988,97.3908)">
                <path d="M346.207,622.324C339.361,620.459 335.553,616.866 334.798,616.154C327.092,608.882 325.602,597.934 325.547,597.617C323.526,585.991 325.67,572.839 326.016,570.714C328.443,555.825 333.672,546.301 334.741,544.354C341.032,532.895 349.02,527.342 350.602,526.243C355.831,522.608 360.95,521.127 361.913,520.848C362.835,514.911 363.756,508.974 364.678,503.037C364.868,501.81 365.991,500.818 366.783,500.787C371.663,500.594 376.543,500.401 381.423,500.208C382.18,500.178 383.08,501.051 382.886,502.345C382.017,508.132 381.148,513.919 380.279,519.706L385.099,520.787C391.192,522.543 395.719,525.184 396.581,525.687C393.765,531.569 390.949,537.451 388.132,543.333C383.752,540.667 379.962,539.049 379.224,538.734C374.73,536.814 370.87,536.866 370.127,536.876C360.202,537.009 354.748,544.028 353.178,546.144C346.418,555.254 344.255,568.945 343.923,571.045C343.611,573.023 341.389,587.084 344.952,596.065C348.51,605.032 357.368,605.45 359.676,605.533C360.53,605.563 364.813,605.716 370.297,604.452C371.282,604.225 375.828,603.178 382.372,600.756C381.464,606.966 380.556,613.176 379.648,619.386C373.539,621.915 368.751,622.791 367.775,622.969L364.754,623.417C363.634,630.879 362.514,638.341 361.395,645.803C361.194,647.139 360.007,648.063 359.206,648.01C354.205,647.681 349.204,647.352 344.203,647.022C343.442,646.972 342.54,645.957 342.75,644.607C343.902,637.179 345.055,629.752 346.207,622.324Z" style="fill:rgb(255,244,206);"/>
            </g>
            <g transform="matrix(-0.292619,0.039138,0.0402977,0.30129,886.171,70.4968)">
                <path d="M379.041,461.095C426.025,466.658 473.705,515.193 484.235,567.045C496.67,628.278 458.812,675.79 410.82,673.845C357.446,671.681 310.171,629.158 299.48,560.654C289.39,496.002 325.764,454.787 379.041,461.095ZM378.195,477.037C421.084,480.815 458.664,519.82 468.248,562.209C479.659,612.681 451.489,651.643 414.234,653.545C368.064,655.901 327.339,612.334 318.388,565.42C307.15,506.522 338.594,473.549 378.195,477.037Z" style="fill:rgb(215,153,0);"/>
            </g>
            <g transform="matrix(-0.307202,0.0410886,0.0423061,0.316305,890.722,61.2607)">
                <path d="M379.041,461.095C394.185,463.027 409.911,469.504 424.051,478.759C453.738,498.189 477.213,531.475 484.218,566.777C486.691,579.238 487.615,590.53 486.306,601.566C481.179,644.81 449.055,675.395 410.82,673.845C357.446,671.681 309.568,629.706 298.877,561.202C288.787,496.55 325.14,454.22 379.041,461.095ZM378.195,477.037C421.084,480.815 458.664,519.82 468.248,562.209C479.659,612.681 451.489,651.643 414.234,653.545C368.064,655.901 327.339,612.334 318.388,565.42C307.15,506.522 338.594,473.549 378.195,477.037Z" style="fill:rgb(254,217,71);"/>
            </g>
            <g transform="matrix(-0.285799,-5.55112e-17,-5.55112e-17,0.294632,922.08,2.33203)">
                <path d="M436.249,745.356C434.044,745.05 432.369,744.943 430.746,744.856L433.649,763.403L439.522,764.077L436.249,745.356ZM403.127,748.304C401.382,748.585 398.877,749.591 396.982,750.482L406.714,768.591L412.218,766.521L403.127,748.304ZM370.905,770.117L367.085,774.983L384.335,787.186L388.088,782.224L370.905,770.117ZM354.338,799.656L351.706,806.763L371.564,814.702L373.51,808.586L354.338,799.656ZM347.83,839.571L347.766,846.859L368.02,849.39L367.985,842.359L347.83,839.571ZM352.513,885.525L355.087,892.761L375.599,886.021L373.255,878.962L352.513,885.525ZM372.022,927.554L375.965,933.308L393.221,919.276L389.312,913.672L372.022,927.554ZM401.602,959.652L406.814,962.917L419.21,944.464L413.892,940.959L401.602,959.652ZM437.661,977.649L444.412,979.119L449.242,957.176L442.882,955.595L437.661,977.649ZM478.272,980.018L483.701,978.362L478.528,957.442L473.064,958.7L478.272,980.018ZM510.033,965.804L514.331,962.239L503.624,943.758L499.271,947.308L510.033,965.804ZM533.201,939.529L535.833,934.335L520.542,919.96L517.465,925.239L533.201,939.529ZM545.189,905.332C545.548,903.495 545.804,901.097 546.059,898.502L529.068,891.175L527.824,897.641L545.189,905.332ZM545.443,866.515L544.364,859.732L528.549,859.134L529.537,865.799L545.443,866.515ZM534.368,827.952L531.64,821.969L518.295,827.268L521.016,833.332L534.368,827.952ZM513.97,793.461C512.52,791.57 511.09,789.831 509.687,788.293L499.906,799.308L503.736,804.601L513.97,793.461ZM492.477,771.152L487.428,767.165L481.997,782.444L487.388,786.457L492.477,771.152ZM465.539,753.889C463.728,753.059 461.926,752.257 460.133,751.481L457.495,768.438L463.119,770.708L465.539,753.889Z" style="fill:rgb(245,195,1);"/>
            </g>
        </g>
    </g>
</svg>
