<svg xmlns="http://www.w3.org/2000/svg" xmlns:xlink="http://www.w3.org/1999/xlink" width="64" height="64" viewBox="0 0 64 64">
  <defs>
    <clipPath id="clip-PerpendicularParkingAlley">
      <rect width="64" height="64"/>
    </clipPath>
  </defs>
  <g id="PerpendicularParkingAlley" clip-path="url(#clip-PerpendicularParkingAlley)">
    <path id="Path_3882" data-name="Path 3882" d="M1192-423.5l-6.59-8.59s-4.616,2.209-4.367,2.646,8.131,10.088,8.131,10.088Z" transform="translate(-1077.758 607.584) rotate(-7)" fill="#706428"/>
    <path id="Path_3878" data-name="Path 3878" d="M1192-423.5l-6.59-8.59s-4.616,2.209-4.367,2.646,8.131,10.088,8.131,10.088Z" transform="translate(-1082.758 611.584) rotate(-7)" fill="#b47300"/>
    <path id="Path_3880" data-name="Path 3880" d="M1192-423.5l-6.59-8.59s-4.616,2.209-4.367,2.646,8.131,10.088,8.131,10.088Z" transform="translate(-1088.758 614.584) rotate(-7)" fill="#61a2d3"/>
    <path id="Path_3883" data-name="Path 3883" d="M1193.068-423.414l-6.83-8.592s-2.307.506-2.058.943,7.528,8.878,7.528,8.878Z" transform="translate(-1078.598 608.665) rotate(-7)" fill="#9a8a39"/>
    <path id="Path_3879" data-name="Path 3879" d="M1193.068-423.414l-6.83-8.592s-2.307.506-2.058.943,7.528,8.878,7.528,8.878Z" transform="translate(-1083.598 611.665) rotate(-7)" fill="#e39c03"/>
    <path id="Path_3881" data-name="Path 3881" d="M1193.068-423.414l-6.83-8.592s-2.307.506-2.058.943,7.528,8.878,7.528,8.878Z" transform="translate(-1089.598 614.665) rotate(-7)" fill="#7ac6ff"/>
    <path id="Path_3884" data-name="Path 3884" d="M1185.44-423.674a4.27,4.27,0,0,1,2.516-2.358c1.767-.486,2.245,0,2.245,0L1188.186-428l-5.493,1.624Z" transform="translate(-1138.115 466.169)" fill="rgba(59,59,59,0.61)"/>
    <path id="Path_3885" data-name="Path 3885" d="M1185.44-423.674a4.27,4.27,0,0,1,2.516-2.358c1.767-.486,2.245,0,2.245,0L1188.186-428l-5.493,1.624Z" transform="translate(-1143.115 470.169)" fill="rgba(59,59,59,0.61)"/>
    <g id="Path_3886" data-name="Path 3886" transform="translate(50.566 41.322) rotate(13)" fill="#4d4324">
      <path d="M 2.563201904296875 4.448550701141357 C 1.581541895866394 4.448550701141357 0.7829018831253052 3.483330726623535 0.7829018831253052 2.296920776367188 C 0.7829018831253052 1.11051082611084 1.581541895866394 0.1452907770872116 2.563201904296875 0.1452907770872116 C 3.544861793518066 0.1452907770872116 4.343502044677734 1.11051082611084 4.343502044677734 2.296920776367188 C 4.343502044677734 3.483330726623535 3.544861793518066 4.448550701141357 2.563201904296875 4.448550701141357 Z" stroke="none"/>
      <path d="M 2.563201904296875 0.6452908515930176 C 1.869211912155151 0.6452908515930176 1.282902002334595 1.401640892028809 1.282902002334595 2.296920776367188 C 1.282902002334595 3.192200660705566 1.869211912155151 3.948550701141357 2.563201904296875 3.948550701141357 C 3.257191896438599 3.948550701141357 3.843502044677734 3.192200660705566 3.843502044677734 2.296920776367188 C 3.843502044677734 1.401640892028809 3.257191896438599 0.6452908515930176 2.563201904296875 0.6452908515930176 M 2.563201904296875 -0.3547091484069824 C 3.822581768035889 -0.3547091484069824 4.843502044677734 0.8324708938598633 4.843502044677734 2.296920776367188 C 4.843502044677734 3.761370658874512 3.822581768035889 4.948550701141357 2.563201904296875 4.948550701141357 C 1.303821802139282 4.948550701141357 0.2829017639160156 3.761370658874512 0.2829017639160156 2.296920776367188 C 0.2829017639160156 0.8324708938598633 1.303821802139282 -0.3547091484069824 2.563201904296875 -0.3547091484069824 Z" stroke="none" fill="#755902"/>
    </g>
    <g id="Path_3887" data-name="Path 3887" transform="translate(45.566 45.322) rotate(13)" fill="#748991">
      <path d="M 2.563201904296875 4.448550701141357 C 1.581541895866394 4.448550701141357 0.7829018831253052 3.483330726623535 0.7829018831253052 2.296920776367188 C 0.7829018831253052 1.11051082611084 1.581541895866394 0.1452907770872116 2.563201904296875 0.1452907770872116 C 3.544861793518066 0.1452907770872116 4.343502044677734 1.11051082611084 4.343502044677734 2.296920776367188 C 4.343502044677734 3.483330726623535 3.544861793518066 4.448550701141357 2.563201904296875 4.448550701141357 Z" stroke="none"/>
      <path d="M 2.563201904296875 0.6452908515930176 C 1.869211912155151 0.6452908515930176 1.282902002334595 1.401640892028809 1.282902002334595 2.296920776367188 C 1.282902002334595 3.192200660705566 1.869211912155151 3.948550701141357 2.563201904296875 3.948550701141357 C 3.257191896438599 3.948550701141357 3.843502044677734 3.192200660705566 3.843502044677734 2.296920776367188 C 3.843502044677734 1.401640892028809 3.257191896438599 0.6452908515930176 2.563201904296875 0.6452908515930176 M 2.563201904296875 -0.3547091484069824 C 3.822581768035889 -0.3547091484069824 4.843502044677734 0.8324708938598633 4.843502044677734 2.296920776367188 C 4.843502044677734 3.761370658874512 3.822581768035889 4.948550701141357 2.563201904296875 4.948550701141357 C 1.303821802139282 4.948550701141357 0.2829017639160156 3.761370658874512 0.2829017639160156 2.296920776367188 C 0.2829017639160156 0.8324708938598633 1.303821802139282 -0.3547091484069824 2.563201904296875 -0.3547091484069824 Z" stroke="none" fill="#8d5b03"/>
    </g>
    <g id="Path_3888" data-name="Path 3888" transform="translate(39.566 48.322) rotate(13)" fill="#4a6068">
      <path d="M 2.563201904296875 4.448550701141357 C 1.581541895866394 4.448550701141357 0.7829018831253052 3.483330726623535 0.7829018831253052 2.296920776367188 C 0.7829018831253052 1.11051082611084 1.581541895866394 0.1452907770872116 2.563201904296875 0.1452907770872116 C 3.544861793518066 0.1452907770872116 4.343502044677734 1.11051082611084 4.343502044677734 2.296920776367188 C 4.343502044677734 3.483330726623535 3.544861793518066 4.448550701141357 2.563201904296875 4.448550701141357 Z" stroke="none"/>
      <path d="M 2.563201904296875 0.6452908515930176 C 1.869211912155151 0.6452908515930176 1.282902002334595 1.401640892028809 1.282902002334595 2.296920776367188 C 1.282902002334595 3.192200660705566 1.869211912155151 3.948550701141357 2.563201904296875 3.948550701141357 C 3.257191896438599 3.948550701141357 3.843502044677734 3.192200660705566 3.843502044677734 2.296920776367188 C 3.843502044677734 1.401640892028809 3.257191896438599 0.6452908515930176 2.563201904296875 0.6452908515930176 M 2.563201904296875 -0.3547091484069824 C 3.822581768035889 -0.3547091484069824 4.843502044677734 0.8324708938598633 4.843502044677734 2.296920776367188 C 4.843502044677734 3.761370658874512 3.822581768035889 4.948550701141357 2.563201904296875 4.948550701141357 C 1.303821802139282 4.948550701141357 0.2829017639160156 3.761370658874512 0.2829017639160156 2.296920776367188 C 0.2829017639160156 0.8324708938598633 1.303821802139282 -0.3547091484069824 2.563201904296875 -0.3547091484069824 Z" stroke="none" fill="#4e7989"/>
    </g>
    <path id="Path_3889" data-name="Path 3889" d="M1185.44-423.674a4.27,4.27,0,0,1,2.516-2.358c1.767-.486,2.245,0,2.245,0L1188.186-428l-5.493,1.624Z" transform="translate(-1149.115 473.045)" fill="rgba(59,59,59,0.61)"/>
    <path id="Path_2186" data-name="Path 2186" d="M724.336-299.35l25.026,22.573,37.711-23.293v-.83l-36.194-14.583-26.542,14.94Z" transform="translate(-723.744 331.201)" fill="#434343"/>
    <path id="Path_2191" data-name="Path 2191" d="M1249.1-1109.689l9.925-5.872Z" transform="translate(-1204.75 1151.478)" fill="gray"/>
    <path id="Path_2193" data-name="Path 2193" d="M1261.486-1114.095l-26.332-22.032Z" transform="translate(-1206.609 1149.144)" fill="#929191"/>
    <path id="Path_2215" data-name="Path 2215" d="M1216.634-1124.816l24.869,22.682,37.767-22.93-26.4-20.8Z" transform="translate(-1215.861 1155.436)" fill="#716e6e"/>
    <path id="Path_3870" data-name="Path 3870" d="M1507.831-1071.416l10.563-6.46.7.536-10.6,6.608Z" transform="translate(-1502.442 1106.167)" fill="#bababa"/>
    <path id="Path_3874" data-name="Path 3874" d="M1508.31-1071.609l10.084-6.267.7.536-10.125,6.415Z" transform="translate(-1477.873 1090.25)" fill="#bababa"/>
    <path id="Path_3871" data-name="Path 3871" d="M1508.088-1071.207l10.288-6.668.7.536-10.329,6.817Z" transform="translate(-1497.171 1110.916)" fill="#bababa"/>
    <path id="Path_3875" data-name="Path 3875" d="M1508.163-1071.409l10.212-6.466.7.536-10.253,6.615Z" transform="translate(-1472.602 1094.998)" fill="#bababa"/>
    <path id="Path_3872" data-name="Path 3872" d="M1508.1-1071.353l10.519-6.7.7.536-10.56,6.844Z" transform="translate(-1491.911 1115.975)" fill="#bababa"/>
    <path id="Path_3877" data-name="Path 3877" d="M1508.1-1071.353l10.519-6.7.7.536-10.56,6.844Z" transform="translate(-1467.52 1098.847)" fill="#bababa"/>
    <path id="Path_3873" data-name="Path 3873" d="M1507.675-1071.049l10.641-6.827.7.536-10.682,6.975Z" transform="translate(-1486.606 1120.277)" fill="#bababa"/>
    <path id="Path_3876" data-name="Path 3876" d="M1507.675-1071.049l10.641-6.827.7.536-10.682,6.975Z" transform="translate(-1461.639 1103.589)" fill="#bababa"/>
    <path id="Path_2192" data-name="Path 2192" d="M1224.855-1130.706l26.221,22.229,17.418-10.7-25.86-21.588Z" transform="translate(-1215.861 1156.122)" fill="#929191"/>
    <path id="Path_2281" data-name="Path 2281" d="M15819.9,3491.032l26.677,21.818,1.081-.606-26.985-21.6Z" transform="translate(-15801.617 -3471.297)" fill="rgba(212,212,212,0.61)"/>
    <path id="Path_4168" data-name="Path 4168" d="M15820.339,3492.319l25.1,22.887,1.082-.606-25.406-22.666Z" transform="translate(-15819.896 -3461.975)" fill="#d4d4d4"/>
    <path id="Path_4171" data-name="Path 4171" d="M15820.339,3492.319l25.7,20.982,1.082-.606-26.008-20.761Z" transform="translate(-15783.758 -3482.487)" fill="#d4d4d4"/>
  </g>
  <g id="Reversed_Text" enable-background="new    ">
	<path display="inline" fill="#666666" d="M13.572,8.669L11.692,6.17h-0.939v2.499H9.354V1.673h4.697c0.5,0,0.899,0.399,0.899,0.899v2.698
		c0,0.5-0.399,0.899-0.899,0.899h-0.709l1.879,2.499H13.572z M10.753,2.922v1.999h2.799V2.922H10.753z"/>
	<path display="inline" fill="#666666" d="M20.971,6.57h-3.858c0.15,0.64,0.62,1.049,1.349,1.049c0.41,0,0.78-0.13,1.009-0.449h1.41
		c-0.38,0.97-1.31,1.599-2.349,1.599c-1.739,0-2.778-1.199-2.778-2.698s1.1-2.698,2.619-2.698
		C19.981,3.372,21.211,4.602,20.971,6.57z M17.113,5.57h2.519c-0.08-0.649-0.58-1.049-1.199-1.049
		C17.733,4.522,17.263,4.931,17.113,5.57z"/>
	<path display="inline" fill="#666666" d="M25.502,3.472h1.5l-2.199,5.197h-1.399l-2.199-5.197h1.499l1.429,3.559L25.502,3.472z"/>
	<path display="inline" fill="#666666" d="M32.421,6.57h-3.858c0.15,0.64,0.62,1.049,1.349,1.049c0.41,0,0.78-0.13,1.009-0.449h1.41
		c-0.38,0.97-1.31,1.599-2.349,1.599c-1.739,0-2.778-1.199-2.778-2.698s1.1-2.698,2.619-2.698
		C31.432,3.372,32.661,4.602,32.421,6.57z M28.563,5.57h2.519c-0.08-0.649-0.58-1.049-1.199-1.049
		C29.183,4.522,28.713,4.931,28.563,5.57z"/>
	<path display="inline" fill="#666666" d="M33.354,8.669V4.371c0-0.499,0.399-0.899,0.899-0.899h2.398v1.249h-1.898v3.948H33.354z"/>
	<path display="inline" fill="#666666" d="M37.354,8.669V7.47h2.999v-0.8h-2.1c-0.499,0-0.899-0.399-0.899-0.899V4.371c0-0.499,0.4-0.899,0.899-0.899
		h3.398v1.199h-2.898v0.8h2.099c0.5,0,0.899,0.399,0.899,0.899V7.77c0,0.5-0.399,0.899-0.899,0.899H37.354z"/>
	<path display="inline" fill="#666666" d="M47.781,6.57h-3.857c0.149,0.64,0.619,1.049,1.349,1.049c0.41,0,0.78-0.13,1.01-0.449h1.409
		c-0.38,0.97-1.31,1.599-2.349,1.599c-1.739,0-2.778-1.199-2.778-2.698s1.1-2.698,2.618-2.698
		C46.792,3.372,48.021,4.602,47.781,6.57z M43.924,5.57h2.519c-0.08-0.649-0.58-1.049-1.199-1.049
		C44.543,4.522,44.073,4.931,43.924,5.57z"/>
	<path display="inline" fill="#666666" d="M52.562,1.173h1.398v7.496h-1.398v-0.59c-0.42,0.45-1,0.689-1.659,0.689c-1.42,0-2.489-1.089-2.489-2.698
		s1.069-2.698,2.489-2.698c0.659,0,1.239,0.239,1.659,0.689V1.173z M52.562,6.07c0-0.829-0.601-1.449-1.399-1.449
		c-0.77,0-1.35,0.62-1.35,1.449c0,0.83,0.58,1.449,1.35,1.449C51.962,7.52,52.562,6.901,52.562,6.07z"/>
  </g>
</svg>
