<?xml version="1.0" encoding="UTF-8"?>
<svg xmlns="http://www.w3.org/2000/svg" version="1.1" xmlns:xlink="http://www.w3.org/1999/xlink" viewBox="0 0 28 28">
  <defs>
    <style>
      .cls-1 {
        fill: #313131;
      }

      .cls-2 {
        fill: #657880;
      }

      .cls-3 {
        fill: none;
      }

      .cls-4 {
        fill: #363636;
      }

      .cls-5 {
        fill: #abaeb1;
      }

      .cls-6 {
        fill: #eb9163;
      }

      .cls-7 {
        fill: #545850;
      }

      .cls-8 {
        fill: #da6f48;
      }

      .cls-9 {
        fill: #ff867f;
        stroke: #000;
        stroke-miterlimit: 10;
        stroke-width: .2px;
      }

      .cls-10 {
        fill: #616664;
      }

      .cls-11 {
        fill: #314750;
      }

      .cls-12 {
        fill: #f0e9d3;
      }

      .cls-13 {
        clip-path: url(#clippath);
      }
    </style>
    <clipPath id="clippath">
      <rect class="cls-3" width="28" height="28"/>
    </clipPath>
  </defs>
  <!-- Generator: Adobe Illustrator 28.6.0, SVG Export Plug-In . SVG Version: 1.2.0 Build 709)  -->
  <g>
    <g id="Layer_1">
      <g class="cls-13">
        <g id="Subway">
          <path id="Path_3780" class="cls-4" d="M11.5,24.2l1.9.9,1.4-.9v-2.7l-3.3,2.7Z"/>
          <path id="Path_3781" class="cls-4" d="M19.9,18l1.9.9,1.4-.9v-2.7l-3.3,2.7Z"/>
          <path id="Path_3772" class="cls-1" d="M11.8,23.5c.7.1,1.1,1,.9,1.9s-.8,1.5-1.5,1.4-1.1-1-.9-1.9.8-1.5,1.5-1.4Z"/>
          <path id="Path_3774" class="cls-1" d="M16.2,20.3c.7.1,1.1,1,.9,1.9s-.8,1.5-1.5,1.4-1.1-1-.9-1.9.8-1.5,1.5-1.4Z"/>
          <path id="Path_3775" class="cls-1" d="M24.6,14.5c.7.1,1.1,1,.9,1.9s-.8,1.5-1.5,1.4-1.1-1-.9-1.9.8-1.5,1.5-1.4Z"/>
          <path id="Path_3776" class="cls-1" d="M20.2,17.3c.7.1,1.1,1,.9,1.9s-.8,1.5-1.5,1.4-1.1-1-.9-1.9.8-1.5,1.5-1.4Z"/>
          <path id="Ellipse_915_-_Outline" class="cls-10" d="M11.5,24.4c-.1,0-.5.2-.6.7s.1.9.3.9.5-.2.6-.7-.1-.9-.3-.9M11.7,23.5c.7.1,1.1,1,.9,1.9-.2.9-.8,1.5-1.5,1.4s-1.1-1-.9-1.9.8-1.5,1.5-1.4h0Z"/>
          <path id="Ellipse_915_-_Outline-2" class="cls-10" d="M16,21.1c-.1,0-.5.2-.6.7s.1.9.3.9.5-.2.6-.7-.1-.9-.3-.9M16.2,20.3c.7.1,1.1,1,.9,1.9-.2.9-.8,1.5-1.5,1.4s-1.1-1-.9-1.9.8-1.5,1.5-1.4h0Z"/>
          <path id="Ellipse_915_-_Outline-3" class="cls-10" d="M24.5,15.3c-.1,0-.5.2-.6.7s.1.9.3.9.5-.2.6-.7-.1-.9-.3-.9M24.6,14.5c.7.1,1.1,1,.9,1.9-.2.9-.8,1.5-1.5,1.4s-1.1-1-.9-1.9.8-1.5,1.5-1.4h0Z"/>
          <path id="Ellipse_915_-_Outline-4" class="cls-10" d="M20.1,18.3c-.1,0-.5.2-.6.7s.1.9.3.9.5-.2.6-.7-.1-.9-.3-.9M20.2,17.4c.7.1,1.1,1,.9,1.9-.2.9-.8,1.5-1.5,1.4s-1.1-1-.9-1.9.8-1.5,1.5-1.4h0Z"/>
          <path id="Path_3735" class="cls-6" d="M3.8,11c-1.2.9-2.4,8.5-2.4,8.5-.1,1.1,0,2.2.2,3.3.4.8,6.7,4.3,6.7,4.3v-3.9l2.2-9.8s-5.6-3.3-6.8-2.4Z"/>
          <path id="Path_3736" class="cls-8" d="M8.4,26.9c.6,0,17.9-12.3,17.9-12.3V5.6L10.3,14.9s-1.6,5.2-2.1,8.2-.3,3.7.2,3.8Z"/>
          <path id="Path_3778" class="cls-6" d="M8.7,26.5l3.2-10.8,14.6-8.5v-1.9l-7.3-3.2L3.8,10.9l4.4,9.8-.4,4.6c0,.5,0,1,.2,1.6.2.3.7-.3.7-.3Z"/>
          <path id="Path_3737" class="cls-2" d="M2.8,13.2c-.4.1-1.4,5.3-1.2,6s6.3,4.1,6.6,3.7c.7-1,1.3-2.1,1.8-3.2.4-1,.7-2,.9-3-1.9-.3-3.7-.8-5.5-1.5-1-.5-1.8-1.1-2.6-1.9Z"/>
          <path id="Path_3783" class="cls-7" d="M8.8,8.9l5.5,2.6,8.9-5.2-5.4-2.5-9,5Z"/>
          <path id="Path_3784" class="cls-5" d="M14.2,6.1l1.4-3.3-1.4-.7c0-.2,0-.3,0-.5,0-.2.2-.3.3-.5l5.9,2.7c.1.2.2.4.2.7,0,.3-.5.4-.5.4l-1.8-.8-1.4,3.2c-.2,0-.4,0-.5,0-.2,0-.2-.4-.2-.4l1.4-3.3-1.3-.6-1.4,3.2s-.3.3-.5.2-.3-.5-.3-.5Z"/>
          <path id="Path_3785" class="cls-11" d="M12.4,15.8l-1.6,5.7,3.4-2.3v-4.3l-1.8.9Z"/>
          <path id="Path_3786" class="cls-11" d="M15.9,14v4.6l3.8-2.3v-4.6l-3.8,2.2Z"/>
          <path id="Path_3787" class="cls-11" d="M20.6,11.2v4.6l3.8-2.3v-4.6l-3.8,2.2Z"/>
          <path id="Path_3788" class="cls-12" d="M3.8,12.7c.7.7,1.4,1.3,2.3,1.7,1.2.6,2.5,1.1,3.8,1.5l.7-1.5-5.9-3.2-.8,1.5Z"/>
        </g>
      </g>
      <g>
        <path class="cls-9" d="M20.5,27.2v-6.2c0-.4.3-.9.6-.9h.6v7.1h-1.1Z"/>
        <path class="cls-9" d="M22.4,27.2v-1.3h3.5v-1.6h-2.6c-.4,0-.9-.5-.9-1h0v-2.4c0-.5.4-1,.9-1h3.9v1.3h-3.5v1.6h2.6c.4,0,.9.5.9,1h0v2.4c0,.5-.4,1-.9,1h-3.9Z"/>
      </g>
    </g>
  </g>
</svg>