<?xml version="1.0" encoding="UTF-8"?>
<svg xmlns="http://www.w3.org/2000/svg" version="1.1" xmlns:xlink="http://www.w3.org/1999/xlink" viewBox="0 0 32 32">
  <defs>
    <style>
      .cls-1 {
        fill: #426028;
      }

      .cls-2 {
        fill: #0d1ab5;
      }

      .cls-3 {
        fill: none;
      }

      .cls-4 {
        fill: #976c4f;
      }

      .cls-5 {
        fill: #aa2dc9;
      }

      .cls-6 {
        fill: #e8332a;
      }

      .cls-7 {
        fill: #4ca40b;
      }

      .cls-8 {
        fill: #b28e5e;
      }

      .cls-9 {
        clip-path: url(#clippath);
      }
    </style>
    <clipPath id="clippath">
      <rect class="cls-3" width="32" height="32"/>
    </clipPath>
  </defs>
  <!-- Generator: Adobe Illustrator 28.6.0, SVG Export Plug-In . SVG Version: 1.2.0 Build 709)  -->
  <g>
    <g id="Layer_1">
      <g class="cls-9">
        <g id="Vegetation">
          <path id="Path_3564" class="cls-4" d="M20.5,22.7h1.8l.5,4.4c-.4.3-.8.4-1.3.4-.5,0-.9-.2-1.3-.4l.3-4.4Z"/>
          <ellipse id="Ellipse_885" class="cls-7" cx="21.6" cy="22.3" rx="5.6" ry="4.3"/>
          <ellipse id="Ellipse_886" class="cls-7" cx="18.8" cy="20.2" rx="3.9" ry="4.5"/>
          <path id="Path_3565" class="cls-7" d="M21.2,16.5c2.4-.1,4.4,1.7,4.5,4,0,2.2-2,3.8-4.5,3.8s-4.5-1.6-4.5-3.8c.1-2.4,2.2-4.2,4.5-4Z"/>
          <ellipse id="Ellipse_887" class="cls-7" cx="18.8" cy="19.1" rx="3.9" ry="3.3"/>
          <circle id="Ellipse_883" class="cls-1" cx="25.5" cy="20.7" r="2.8"/>
          <ellipse id="Ellipse_888" class="cls-1" cx="21.6" cy="17.9" rx="5.6" ry="4.3"/>
          <ellipse id="Ellipse_889" class="cls-1" cx="24.4" cy="20" rx="2.8" ry="2.1"/>
          <path id="Path_473" class="cls-8" d="M10,21.7h3.1v5.5c-.5.3-1,.5-1.6.6-.5,0-1.1-.2-1.5-.6v-5.5Z"/>
          <path id="Path_470" class="cls-5" d="M11.5,11.9l4.7,8,2.6,2.6c-2.3,1-4.8,1.5-7.3,1.6-2.5,0-5-.6-7.3-1.6,0,0,.4,0,2.2-2.6,1.8-2.6,5.1-8,5.1-8Z"/>
          <path id="Path_471" class="cls-2" d="M11.6,9.9s2.1,3.3,3.7,5.3c.8,1.1,1.7,2,2.8,2.7-2.1.8-4.3,1.2-6.5,1.2-2.2,0-4.4-.5-6.5-1.2,1-.8,1.9-1.7,2.6-2.7,1.6-2,3.8-5.3,3.8-5.3Z"/>
          <path id="Path_472" class="cls-6" d="M11.7,4.3c.4,1.6,1,3.1,1.7,4.6.7,1.3,1.5,2.4,2.5,3.4-1.3.7-2.7,1.1-4.1,1.2-1.5,0-2.9-.5-4.1-1.2.9-1,1.7-2.2,2.4-3.4.7-1.5,1.3-3,1.8-4.6Z"/>
        </g>
      </g>
    </g>
  </g>
</svg>