<?xml version="1.0" encoding="UTF-8"?>
<svg id="Camada_1" xmlns="http://www.w3.org/2000/svg" version="1.1" viewBox="0 0 64.1 64.1">
  <!-- Generator: Adobe Illustrator 29.1.0, SVG Export Plug-In . SVG Version: 2.1.0 Build 142)  -->
  <defs>
    <style>
      .st0, .st1, .st2, .st3, .st4, .st5, .st6, .st7, .st8 {
        fill-rule: evenodd;
      }

      .st0, .st9 {
        fill: #c2bdbd;
      }

      .st10 {
        fill: #434343;
      }

      .st1 {
        fill: #ababab;
      }

      .st2 {
        fill: #6e6e6e;
      }

      .st3 {
        fill: #bdbdbd;
      }

      .st4 {
        fill: #444;
      }

      .st11 {
        fill: #929191;
      }

      .st12, .st8 {
        fill: #909090;
      }

      .st5 {
        fill: #707070;
      }

      .st13 {
        fill: #b0acac;
      }

      .st6 {
        fill: #575757;
      }

      .st7 {
        fill: #525252;
      }

      .st14 {
        fill: #d4d4d4;
      }

      .st15 {
        fill: #716e6e;
      }
    </style>
  </defs>
  <g id="a">
    <path class="st10" d="M3.75,28.8l29.6,25.4,27-16.2v-2.5l-8.6.6L3.75,26.7v2.1Z"/>
    <path class="st14" d="M4.25,26.6l34.1,22.4,13.9-8.2L23.45,15S4.25,26.6,4.25,26.6Z"/>
    <path class="st11" d="M3.75,26.8l29.9,25.1,10.9-6.4L14.55,20.4l-10.8,6.5v-.1Z"/>
    <path class="st11" d="M15.75,19.6l29.9,25.1,7.5-4.4L26.45,13.1l-10.8,6.5h.1Z"/>
    <path class="st15" d="M3.75,26.8l29.8,25.1,2.9-1.7L6.65,25.1s-2.9,1.7-2.9,1.7Z"/>
    <path class="st13" d="M23.15,14.1l30,25.1,7.2-3.8L30.15,9.9l-7,4.1v.1Z"/>
    <path class="st14" d="M53.15,40.3L23.05,15.1v-1.1l30.1,25.1v1.2Z"/>
  </g>
  <g id="grey">
    <path class="st0" d="M24.35,35.2v4.9c0,.2,0,.4-.3.6-.1,0-.3.1-.5.1v-5.1l.8-.5Z"/>
    <path class="st7" d="M22.75,40.6c-.1,0-.2-.1-.3-.2-.3-.2-.4-.5-.4-.7v-4.2l.7-.4v5.5Z"/>
    <path class="st5" d="M23.65,40.8c-.2,0-.6,0-.9-.2v-5.5l.8-.5v6.2h.1Z"/>
    <path class="st8" d="M23.55,34.6l.8-.5v1.1l-.8.5v-1.1Z"/>
    <path class="st7" d="M23.55,35.7l-.4.2h-.5v-.8l.9-.5v1.1Z"/>
    <path class="st0" d="M46.25,21.5l-.4.2h0l1.3-.9h0c0,.1-.8.6-.8.6l-.1.1ZM47.05,22.1v4.9c0,.2,0,.4-.3.6-.1,0-.3.1-.5.1v-5.1l.8-.5Z"/>
    <path class="st7" d="M45.55,27.5c-.1,0-.2-.1-.3-.2-.3-.2-.4-.5-.4-.7v-4.4l.7-.4s0,5.7,0,5.7Z"/>
    <path class="st5" d="M46.35,27.7c-.2,0-.6,0-.9-.2v-5.5l.8-.5v6.2h.1Z"/>
    <path class="st8" d="M46.25,21.5l.8-.5v1.1l-.8.5v-1.1Z"/>
    <path class="st7" d="M46.25,22.6l-.356.2h-.444v-.8l.8-.5s0,1.1,0,1.1Z"/>
    <path class="st9" d="M49.45,18.5l-30,17.4-3.1-2.6v1.1l3.1,2.6,30-17.3s0-1.2,0-1.2Z"/>
    <path class="st11" d="M46.45,15.8l-30.1,17.5,3.1,2.6,30-17.442-2.9-2.658h-.1Z"/>
    <path class="st5" d="M39.45,23.9l-.4.2v-5h0l-.4-.3.4-.3.4.3v5.1ZM47.75,19.1l-.4.2v-5h0l-.4-.3.4-.3.4.3v5.1ZM31.55,28.5l-.4.2v-5h0l-.4-.3.4-.3.4.3v5.1ZM20.95,34.6l-.4.2v-5h0l-.4-.3.4-.3.4.3v5.1Z"/>
    <path class="st6" d="M38.95,19.1v5l-.4-.3v-5l.4.3ZM47.25,14.3v5l-.4-.3v-5s.4.3.4.3ZM31.15,23.7v5l-.4-.3v-5l.4.3ZM20.55,29.8v5l-.4-.3v-5l.4.3Z"/>
    <path class="st1" d="M46.45,14.3v1.6l-30.1,17.4v-1.6l30.1-17.4Z"/>
    <path class="st3" d="M49.45,16.9v1.6l-30,17.4v-1.6s30-17.4,30-17.4Z"/>
    <path class="st2" d="M18.45,32.8l-.4.2v-5h0l-.4-.3.4-.3.4.3v5.1Z"/>
    <path class="st6" d="M17.95,28v5l-.4-.3v-5s.4.3.4.3Z"/>
    <path class="st5" d="M15.75,27.9l30.1-17.4,4.4,3.6.5.9-30.1,17.4-.5-.9-4.4-3.6Z"/>
    <path class="st12" d="M49.95,13.9l-30.1,17.4.3.3,30.1-17.5-.3-.3v.1Z"/>
    <path class="st1" d="M44.05,11.6l.3-.2,4.4,3.6.5.9-.3.2-.5-.9-4.4-3.6ZM38.15,15l.3-.2,4.4,3.6.5.9-.3.2-.5-.9-4.4-3.6ZM31.45,18.9l.3-.2,4.4,3.6.5.9-.3.2-.5-.9-4.4-3.6ZM23.75,23.3l.3-.2,4.4,3.6.5.9-.3.2-.5-.9-4.4-3.6ZM16.25,27.6l.3-.2,4.4,3.6.5.9-.3.2-.5-.9-4.4-3.6Z"/>
    <path class="st4" d="M15.75,27.9l-.3.4.6-.2s-.3-.2-.3-.2Z"/>
  </g>
</svg>