<svg xmlns="http://www.w3.org/2000/svg" xmlns:xlink="http://www.w3.org/1999/xlink" width="32" height="32" viewBox="0 0 32 32">
  <defs>
    <clipPath id="clip-FloodFill">
      <rect width="32" height="32"/>
    </clipPath>
  </defs>
  <g id="FloodFill" clip-path="url(#clip-FloodFill)">
    <path id="Icon_awesome-fill" data-name="Icon awesome-fill" d="M21.081,8.9,12.37.384a1.364,1.364,0,0,0-1.9,0L7.051,3.731,3.436.2a.681.681,0,0,0-.949,0l-.949.927a.647.647,0,0,0,0,.928L5.154,5.586,1.179,9.474a3.876,3.876,0,0,0,0,5.568l4.915,4.807a4.09,4.09,0,0,0,5.694,0l9.293-9.089a1.293,1.293,0,0,0,0-1.857Zm-4.874,2.911H2.765a1.269,1.269,0,0,1,.312-.485l.552-.539,7.793-7.621,6.813,6.663Z" transform="translate(4 4.283)" fill="#fff"/>
    <path id="Path_1173" data-name="Path 1173" d="M3.107-4.563S6.214.984,6.214,2.733A3.138,3.138,0,0,1,3.107,5.9,3.138,3.138,0,0,1,0,2.733C0,.984,3.107-4.563,3.107-4.563Z" transform="translate(21.755 22.099)" fill="#fff"/>
  </g>
</svg>
