<svg version="1.1" viewBox="0 0 32 32" xmlns="http://www.w3.org/2000/svg">
  <defs>
    <clipPath id="clip-Advisor">
      <rect width="32" height="32"/>
    </clipPath>
  </defs>
  <g id="Advisor" clip-path="url(#clip-Advisor)">
    <g id="Info" transform="translate(.03 -.058)">
      <circle cx="15.97" cy="16.058" r="11.5" fill="none" stroke="#000" stroke-width="3" data-name="Ellipse 554"/>
    </g>
    <path transform="translate(12.169 25.375)" d="M2.441-7.032a3.619,3.619,0,0,1,.22-1.3,3.793,3.793,0,0,1,.535-.98q.315-.405.831-.946a9.508,9.508,0,0,0,.64-.714,3.068,3.068,0,0,0,.387-.642,1.842,1.842,0,0,0,.158-.764v-.008a1.2,1.2,0,0,0-.32-.891,1.228,1.228,0,0,0-.9-.317,1.148,1.148,0,0,0-.893.35,1.44,1.44,0,0,0-.329.984v.008H.054v-.008a3.949,3.949,0,0,1,.525-1.9,3.086,3.086,0,0,1,1.342-1.2,4.726,4.726,0,0,1,2.058-.414,5.506,5.506,0,0,1,2.13.372A2.9,2.9,0,0,1,7.46-14.332a3.03,3.03,0,0,1,.463,1.7v.008a3.192,3.192,0,0,1-.205,1.174,3.744,3.744,0,0,1-.506.916,10.931,10.931,0,0,1-.8.908q-.468.5-.731.836a3.3,3.3,0,0,0-.444.781,2.551,2.551,0,0,0-.181.975Zm.01,1.343H5.068v2.314H2.451Z" data-name="Path 1764"/>
  </g>
</svg>
