<?xml version="1.0" encoding="UTF-8"?>
<svg width="32" height="32" version="1.1" viewBox="0 0 32 32" xmlns="http://www.w3.org/2000/svg">
 <path d="m16.264 3.182c-0.39909 0-0.79792 0.17717-1.0566 0.53125l-1.0332 1.2598-2e-3 0.00391c-0.54013 0.69718-0.53134 1.6781 0.02148 2.3652l0.0039 0.00391 5.1934 6.0391h-12.783l-0.017578 2e-3c-0.86044 0.09211-1.4935 0.86681-1.4141 1.7285v1.7715c-0.079481 0.8617 0.55362 1.6344 1.4141 1.7266l0.017578 2e-3h12.785l-5.1953 6.041-0.0039 0.0039c-0.54601 0.68846-0.55603 1.6644-0.02344 2.3633l0.0039 0.0039 1.0332 1.2617c0.51745 0.70816 1.5958 0.70816 2.1133 0l9.1035-11.119 0.0039-0.0039c0.52984-0.68759 0.52984-1.6483 0-2.3359l-0.0039-0.0039-9.1035-11.113c-0.25872-0.35408-0.65755-0.53125-1.0566-0.53125z"/>
</svg>
