<svg xmlns="http://www.w3.org/2000/svg" xmlns:xlink="http://www.w3.org/1999/xlink" width="40" height="40" viewBox="0 0 40 40">
  <defs>
    <clipPath id="clip-Beta">
      <rect width="40" height="40"/>
    </clipPath>
  </defs>
  <g id="Beta" clip-path="url(#clip-Beta)">
    <rect id="Rectangle_4435" data-name="Rectangle 4435" width="32" height="16" rx="5" transform="translate(4 12)" fill="#ffc400"/>
    <path id="Path_3364" data-name="Path 3364" d="M.9-7.14H3.12a4.615,4.615,0,0,1,2.155.4A1.466,1.466,0,0,1,6.01-5.33,1.792,1.792,0,0,1,5.725-4.3a1.179,1.179,0,0,1-.815.51v.05a2.229,2.229,0,0,1,.645.255,1.208,1.208,0,0,1,.465.515,2.024,2.024,0,0,1,.17.9,1.821,1.821,0,0,1-.7,1.52A3.035,3.035,0,0,1,3.57,0H.9ZM2.41-4.31h.88a1.509,1.509,0,0,0,.915-.2A.742.742,0,0,0,4.46-5.13a.634.634,0,0,0-.3-.59,1.914,1.914,0,0,0-.95-.18h-.8Zm0,1.2v1.86H3.4a1.343,1.343,0,0,0,.95-.265.943.943,0,0,0,.27-.705.822.822,0,0,0-.275-.645,1.52,1.52,0,0,0-1-.245ZM11.73,0H7.62V-7.14h4.11V-5.9H9.13v1.57h2.42v1.24H9.13v1.84h2.6Zm4.24,0H14.46V-5.88H12.52V-7.14h5.39v1.26H15.97Zm6.71,0-.52-1.7h-2.6L19.04,0H17.41l2.52-7.17h1.85L24.31,0ZM21.8-2.97l-.52-1.66q-.05-.17-.13-.43t-.16-.53q-.08-.27-.13-.47-.05.2-.135.495t-.16.56q-.075.265-.115.375l-.51,1.66Z" transform="translate(8 24)" fill="#252524"/>
  </g>
</svg>
