<svg xmlns="http://www.w3.org/2000/svg" xmlns:xlink="http://www.w3.org/1999/xlink" width="40" height="40"
  viewBox="0 0 40 40">
  <path
    d="M17.648,10.287H11.539V3.711A1.412,1.412,0,0,0,10.181,2.25H8.824A1.412,1.412,0,0,0,7.466,3.711v6.576H1.358A1.412,1.412,0,0,0,0,11.749V13.21a1.412,1.412,0,0,0,1.358,1.461H7.466v6.576a1.412,1.412,0,0,0,1.358,1.461h1.358a1.412,1.412,0,0,0,1.358-1.461V14.671h6.109a1.412,1.412,0,0,0,1.358-1.461V11.749A1.412,1.412,0,0,0,17.648,10.287Z"
    transform="translate(27.152 4.457) rotate(45)" />
  <path d="M14.9,2,2.729,15.138,14.894,28.222H38V2H14.9m-.874-2H40V30.222H14.023L0,15.141Z"
    transform="translate(0 4.848)" />
</svg>