<svg xmlns="http://www.w3.org/2000/svg" xmlns:xlink="http://www.w3.org/1999/xlink" width="32" height="32"
  viewBox="0 0 32 32">
  <path
    d="M156.59,174.645l-11.731-6.74a2.329,2.329,0,0,1-1.169-2.018V160.6l12.9,7.412Zm-7.2-19.871,7.2-4.149V144l-11.74,6.81a2.33,2.33,0,0,0-1.16,2.015v5.107a1.683,1.683,0,0,0,.831,1.452l4.87,2.862Zm8.716-4.146,12.9,7.412v-5.281a2.329,2.329,0,0,0-1.169-2.02L158.111,144Zm7.195,13.242-7.195,4.15v6.625l11.74-6.81a2.33,2.33,0,0,0,1.16-2.015v-5.107a1.683,1.683,0,0,0-.831-1.452l-4.87-2.862Z"
    transform="translate(-141.689 -143.152)" />
</svg>