<svg version="1.1" viewBox="0 0 32 32" xmlns="http://www.w3.org/2000/svg">
 <path d="m17.902 5.081h-12.186c-1.3616 0.015924-2.4526 1.1324-2.437 2.494v12.469c-0.015554 1.3616 1.0754 2.4781 2.437 2.494h12.186c1.3616-0.01592 2.4526-1.1324 2.437-2.494v-12.469c0.01555-1.3616-1.0754-2.4781-2.437-2.494m-9.749 13.716c-0.50676 0.011382-0.96998-0.28512-1.1718-0.75007s-0.1022-1.0058 0.25213-1.3683c0.35433-0.36247 0.89281-0.47439 1.3622-0.28313 0.46942 0.19126 0.77636 0.64763 0.77649 1.1545 0.0037342 0.32702-0.1226 0.64212-0.35121 0.87599-0.22861 0.23386-0.54077 0.36732-0.86779 0.37101m0-7.482c-0.50685 0.011384-0.97014-0.28522-1.1719-0.7503-0.20181-0.46508-0.10196-1.006 0.25258-1.3684 0.35454-0.36239 0.89319-0.47407 1.3626-0.28249 0.46939 0.19157 0.77607 0.64825 0.77579 1.1552 0.0037342 0.32702-0.1226 0.64212-0.35121 0.87599-0.22861 0.23386-0.54077 0.36732-0.86779 0.37101v-0.001m3.656 3.741c-0.50676 0.01138-0.96998-0.28512-1.1718-0.75007s-0.1022-1.0058 0.25213-1.3683c0.35433-0.36247 0.89281-0.47439 1.3622-0.28313 0.46942 0.19126 0.77636 0.64763 0.77649 1.1545 0.0037 0.32702-0.1226 0.64212-0.35121 0.87599-0.22861 0.23386-0.54077 0.36732-0.86779 0.37101m3.656 3.741c-0.50715 0.01343-0.97188-0.28174-1.1753-0.74648s-0.10506-1.0064 0.24883-1.3699c0.35389-0.36351 0.89274-0.47639 1.3628-0.28547 0.47004 0.19092 0.77755 0.64757 0.77773 1.1549 0.0078 0.67906-0.53498 1.2366-1.214 1.247m0-7.482c-0.50724 0.013428-0.97204-0.28184-1.1754-0.74671-0.2034-0.46487-0.10482-1.0066 0.24928-1.3701 0.3541-0.36344 0.89312-0.47607 1.3631-0.28483 0.47001 0.19123 0.77726 0.64819 0.77704 1.1556 0.0078 0.67906-0.53498 1.2366-1.214 1.247v-0.001"/>
 <path fill-opacity="0.8" d="m28.168 14.642-6.6502-2.476s-0.02948 7.4946-0.02948 7.4946c0.06004 0.97387-0.1529 1.9452-0.61485 2.8046-0.50318 0.49855-1.1208 0.86624-1.7989 1.0709 0 0-7.1128 0.000836 -7.1128 0.000836s-0.85234 1.2865 0.20932 1.809l4.0969 1.3841 6.7123 2.4985c0.54384 0.19884 1.1448 0.1703 1.6674-0.07917 0.52255-0.24947 0.92262-0.69887 1.1099-1.2468l3.7056-10.419c0.41335-1.1418-0.16215-2.4046-1.2951-2.8417m-6.1119 10.702c-0.56645-0.21883-0.85408-0.85032-0.64737-1.4213 0.09328-0.27451 0.29328-0.49983 0.55477-0.62503s0.56242-0.13973 0.83475-0.04029c0.56645 0.21883 0.85408 0.85032 0.64737 1.4213-0.09328 0.27451-0.29328 0.49983-0.55477 0.62503s-0.56242 0.13973-0.83475 0.04029"/>
</svg>
