<svg xmlns="http://www.w3.org/2000/svg" xmlns:xlink="http://www.w3.org/1999/xlink" width="32" height="32" viewBox="0 0 32 32"><defs><clipPath id="b"><rect width="32" height="32"/></clipPath></defs><g id="a" clip-path="url(#b)"><path d="M-1447.131-790.918h-16.438c-3.546,0-6.431-3.4-6.431-7.58a7.624,7.624,0,0,1,4.3-7.154l0-.062c0-.12-.007-.243-.007-.364a10.763,10.763,0,0,1,2.219-6.667,9.112,9.112,0,0,1,7.4-3.255c.159,0,.321,0,.482.009,5.156.382,8.628,1.915,10.32,4.559a7.566,7.566,0,0,1,.64,6.5c3.039,1.774,3.22,3.065,3.58,5.636.088.631.188,1.344.345,2.153a7.565,7.565,0,0,1-2.189,4.434A6.058,6.058,0,0,1-1447.131-790.918ZM-1455-804.355l-1.391,1.2c-2.474,2.134-4.727,5.018-4.727,6.051,0,.776,2.205,2.193,4.214,2.706a7.048,7.048,0,0,0,1.742.2,9.283,9.283,0,0,0,5.178-1.55c1.508-1.085,1.559-1.472.423-3.187a35.218,35.218,0,0,0-4.816-4.989l-.624-.434Zm5.463-4.4h0l-.722.387a10.748,10.748,0,0,0-1.7,1.286l-.979.9,1.093,1.359c2.256,2.805,3.51,5.227,3.532,6.818l.011.761.57-.851a7.293,7.293,0,0,0,1.12-4.751,5.891,5.891,0,0,0-.695-3.078,8.984,8.984,0,0,0-1.427-2.051l-.8-.779Zm-10.746.119a.924.924,0,0,0-.493.213,9.262,9.262,0,0,0-2.226,3.388,8.557,8.557,0,0,0,.941,7.089c.307.45.461.643.513.643a.015.015,0,0,0,.013-.007c.02-.027,0-.134-.064-.329-.328-1.035,1.379-4.46,3.581-7.187l1.1-1.362-1.026-.919a11.713,11.713,0,0,0-1.689-1.276A1.537,1.537,0,0,0-1460.285-808.637Zm5.315-2a8.644,8.644,0,0,0-2.612.4,6.717,6.717,0,0,0-1.474.589.023.023,0,0,0,0,.021,3.089,3.089,0,0,0,1.139.453,9.845,9.845,0,0,1,2.007.795l.06.036c.478.283.7.412.9.412a1.478,1.478,0,0,0,.7-.316l.046-.028a9.833,9.833,0,0,1,3.417-1.1.68.68,0,0,1,.154.015.235.235,0,0,0,.05.008c.009,0,.015,0,.016-.006a3.9,3.9,0,0,0-.9-.515A7.972,7.972,0,0,0-1454.97-810.641Z" transform="translate(1471 818.418)" fill="#fff"/></g></svg>