<svg version="1.1" viewBox="0 0 32 32" xmlns="http://www.w3.org/2000/svg">
  <path d="m25.598 20.074a3.2144 3.2144 0 0 1 3.0703-1.9544 12.743 12.743 0 0 0 0.03281-4.022 3.258 3.258 0 0 1-1.312-0.2554 3.2079 3.2079 0 0 1-0.93624-5.3029 12.705 12.705 0 0 0-2.8129-2.8669 3.2116 3.2116 0 0 1-5.5216-2.3442 12.743 12.743 0 0 0-4.022-0.03281 3.2079 3.2079 0 0 1-4.4654 3.0098 3.1515 3.1515 0 0 1-1.095-0.76643 13.025 13.025 0 0 0-2.8666 2.8241 3.2135 3.2135 0 0 1-2.3382 5.5242 12.743 12.743 0 0 0-0.032811 4.022 3.2089 3.2089 0 0 1 2.2433 5.5533 12.817 12.817 0 0 0 2.8172 2.8708 3.2061 3.2061 0 0 1 5.5097 2.3391 12.743 12.743 0 0 0 4.022 0.03281 3.2126 3.2126 0 0 1 5.5533-2.2433 12.817 12.817 0 0 0 2.8708-2.8172 3.2302 3.2302 0 0 1-0.71687-3.5703zm-11.577 0.73228a5.2048 5.2048 0 1 1 6.8248-2.7569 5.203 5.203 0 0 1-6.8248 2.7569z"/>
</svg>
