<svg xmlns="http://www.w3.org/2000/svg" viewBox="0 0 42.65 38.5"><defs><style>.cls-1{fill-rule:evenodd;}</style></defs><g id="Layer_2" data-name="Layer 2"><g id="Layer_1-2" data-name="Layer 1"><path d="M10.77,20.2a1.37,1.37,0,0,0-.64.55,1,1,0,0,0,1,1.42,1,1,0,0,0,.48-1.71A1.34,1.34,0,0,0,10.77,20.2Z"/><path d="M41.87,16.34,34.12,2.91a5.84,5.84,0,0,0-5-2.91H13.57a5.82,5.82,0,0,0-5,2.91L.78,16.34a5.82,5.82,0,0,0,0,5.82L8.53,35.58a5.83,5.83,0,0,0,4,2.82l0,.1H29.07a5.83,5.83,0,0,0,5-2.92l7.75-13.42A5.82,5.82,0,0,0,41.87,16.34Zm-2.76,4.23L31.36,34a2.63,2.63,0,0,1-2.29,1.32H17l3.49-13a.25.25,0,0,1-.18.12c-.51.15-.79-.46-1.24-.46a3.49,3.49,0,0,1,.51,1.76c-.62-.17-.76-.63-1.07-1.13-.09-.08-.28-.23-.28-.34-.37.23-.28.84-.28,1.27-1-.35-.23-1.1-.51-1.74-.11-.23-.45-.29-.65-.43s-.17-.15-.17-.26c-.05-.52.4-.9.17-1.45s-.76-.35-.9-.78.17-.73.2-1.1c.08-.81-1.38-1.25-2-1.31a1.36,1.36,0,0,0-1,.41c-1.32,1.3.85,1.51.68,2.58-.09.49-.76.43-1,.78a.49.49,0,0,0,.17.69.8.8,0,0,0,.54.21c.14,0,.36,0,.36-.15L14,21c1,.78,0,2.61,0,3.68a27.08,27.08,0,0,0,.79,3c.2,1.24-.51,3.27-1.75,3.65-.28.08-.45,0-.7,0a6.25,6.25,0,0,0,.42-2.06,3.24,3.24,0,0,0-1-1.82c-.56-.55-2-1.33-2-2.2s2.48-.81,2-2c-.59-1.42-1.91,2-2.7.72-.28-.43-.14-1-.28-1.48s-.4-.69-.37-1.07.28-.81.25-1.27c-.05-.73-.76-2-.14-2.58s2.17,1.07,2.59-.46c.14-.47-.16-.73-.16-1.13,0-.84.92-1.54.5-2.52-.22-.41-1-.35-1.1-.78a.74.74,0,0,1,.29-.64c1-1,2.36.61,3.49.61a2.35,2.35,0,0,0,0-1c-.23-.63-1.69-1.53-1.38-2.17a.66.66,0,0,1,.5-.4c1.35-.26,1.83,2.4,3,2.26a.93.93,0,0,0,.56-.35c.76-1.07-1.46-2.29-1.46-3.25C18,6.1,17.82,9.69,19.39,9.63a2.43,2.43,0,0,0,.09-1.42c-.09-.35-.48-1.27-.29-1.56s.46-.26.68-.35c1.38.32.87,2.9,1.83,2.9s.37-2.47.37-2.84a6.19,6.19,0,0,1,2.11.2l.51.09.93-3.47h3.45A2.65,2.65,0,0,1,31.36,4.5l7.75,13.43A2.65,2.65,0,0,1,39.11,20.57Z"/><path d="M20.83,13.51c-.06.43.17.67.31,1a1.69,1.69,0,0,1-.4,1.65,2.06,2.06,0,0,1-.9.67c-.79.23-1.91-.35-2.22.64a.7.7,0,0,0,.25.69c.51.49,2.14.93,2.34,1.57s-.25,1.13.05,1.76a1.81,1.81,0,0,1,.28.63l2.7-10.08C22.11,12,21,12.41,20.83,13.51Z"/><path class="cls-1" d="M33.47,20c-.14-.78.62-1.45.25-2.23s-2.16-.75-2.19-1.65c0-1.05,1.43-.52,2-.49,0-1.68-.64-3.13-2.39-2-.28,0-.7-.06-.84-.32-.54-1,1.07-1.22,1.12-2,0-.46-.53-.75-.7-1.13a2.16,2.16,0,0,1,0-.84c0-.12-.14-.12-.23-.14-.34-.09-.64.11-1,0s-.59-.43-.93-.6c0,.14-.26.31-.31.43-.26.35-1.13,1.59-1.69,1.07-.23-.2-.17-.58-.14-.87.28-1.95-.32-2.33-1.8-2.6l-1.45,5.4a4.35,4.35,0,0,1,1.81.42,1.51,1.51,0,0,1,.87,1.85c-.28.67-1.07.29-1.63.52A4,4,0,0,0,23,16.55c-.26.72.45,1.27.47,2,.09,1.53-.59,2.92-.9,4.31-.05.27.17.61,0,.84s-.65.24-1,.38-.4.32-.65.49c-.51.32-1.13.5-1.18,1.22.34,0,.56-.17.93-.2,0,0,0,0,.08.05-.08.7-.56,1.25-.28,1.92.45,0,.54-1.05,1.27-.79.08,0,.08,0,.08.09a4.41,4.41,0,0,0,.48,1.33c.06,0,.31-.05.28-.26a4.36,4.36,0,0,1,.06-1.5c.22-.58.59-.5.51-1.28.11,0,.25-.2.36-.23.9-.32,1-.84,2.17-.81a1.85,1.85,0,0,1,.79.14c.2,0,.11-.31.05-.55a15,15,0,0,1-.9-4.25h.23a11,11,0,0,0,.79,1.33c.17.29.7,1.56,1.18,1.27.22-.14.37-1.73.48-2.11.48-1.33,1.83-1.62,2.62-.35a4.68,4.68,0,0,1-.68,4.72c-.36.35-.9.38-1.27.7s0,1-.11,1.47a2.12,2.12,0,0,1-.65,1.16c-.7.7-1.6,1-2.31,1.65-.3.26-.36.73-.73.9s-.81-.06-1.18.06l-.82.52c-.5.26-1.32.72-1.6.81,0,1.1,2.59.52,3.12.23.37-.2.48-.72.88-.89s.73.23,1.18.08a5.36,5.36,0,0,0,1.13-.72,21.59,21.59,0,0,0,2-1.42c.23-.2.57-.46.65-.72.17-.47-.56-1.63.73-1.45,1,.14,2-1.91,2.17-2.64l.34-1.68c.14-.35.28-.66.42-1C34.32,20.55,33.58,20.58,33.47,20Z"/></g></g></svg>