<svg xmlns="http://www.w3.org/2000/svg" xmlns:xlink="http://www.w3.org/1999/xlink" width="32" height="32"
  viewBox="0 0 32 32">
  <path
    d="M-1392.131-638.918h-16.438c-3.546,0-6.431-3.4-6.431-7.58a7.623,7.623,0,0,1,4.3-7.154l0-.059c0-.121-.007-.245-.007-.367a10.762,10.762,0,0,1,2.219-6.666,9.113,9.113,0,0,1,7.4-3.255c.159,0,.321,0,.482.009,5.156.382,8.628,1.915,10.32,4.559a7.565,7.565,0,0,1,.64,6.5c3.04,1.775,3.221,3.066,3.581,5.638.088.63.188,1.342.344,2.151a7.565,7.565,0,0,1-2.189,4.434A6.057,6.057,0,0,1-1392.131-638.918Zm-6.1-3.788a.711.711,0,0,0-.2.024q-.29.173-.583.345l-.212.106a9.123,9.123,0,0,1-.917.424.329.329,0,0,0,.1.238.988.988,0,0,0,.684.182,4.041,4.041,0,0,0,1.421-.275.918.918,0,0,0,.3-.288.782.782,0,0,1,.311-.286.385.385,0,0,1,.151-.03.924.924,0,0,1,.265.054.936.936,0,0,0,.274.054.457.457,0,0,0,.141-.022,2.577,2.577,0,0,0,.588-.33c.067-.046.136-.093.2-.136.157-.1.321-.2.48-.292a8.007,8.007,0,0,0,.959-.633l.062-.05.008-.007a1.235,1.235,0,0,0,.383-.41.77.77,0,0,0-.01-.363c-.03-.181-.062-.367.033-.479a.382.382,0,0,1,.307-.1,1.345,1.345,0,0,1,.18.014.538.538,0,0,0,.068,0c.676,0,1.331-1.245,1.465-1.719.073-.337.144-.676.214-1.015l.017-.08c.049-.11.1-.221.146-.331l.008-.019.136-.309a.486.486,0,0,0-.21-.575.621.621,0,0,1-.244-.342,1.12,1.12,0,0,1,.12-.65.922.922,0,0,0,.063-.8c-.119-.232-.452-.354-.774-.471-.391-.143-.76-.277-.771-.594a.378.378,0,0,1,.092-.288.6.6,0,0,1,.447-.133,3.968,3.968,0,0,1,.566.058,3.384,3.384,0,0,0,.357.042,1.889,1.889,0,0,0-.391-1.336.711.711,0,0,0-.52-.215,1.6,1.6,0,0,0-.786.263c-.176,0-.486-.028-.592-.216-.214-.371.077-.578.357-.778.209-.15.425-.3.438-.526.011-.186-.134-.33-.274-.47a1.108,1.108,0,0,1-.22-.268.653.653,0,0,1-.024-.375,1.436,1.436,0,0,0,.014-.172c0-.061-.063-.073-.118-.083l-.032-.007a.545.545,0,0,0-.132-.015,1.336,1.336,0,0,0-.211.023l-.009,0a1.4,1.4,0,0,1-.223.024.6.6,0,0,1-.118-.011.922.922,0,0,1-.384-.213,1.264,1.264,0,0,0-.269-.178c0,.063-.077.139-.145.205a.819.819,0,0,0-.081.086c-.394.516-.72.777-.969.777a.315.315,0,0,1-.219-.087.622.622,0,0,1-.1-.569,1.6,1.6,0,0,0-.13-1.211c-.247-.336-.755-.435-1.5-.548l-.2-.035a6.242,6.242,0,0,0-.994-.122,1.114,1.114,0,0,0-.3.034c0,.044.011.138.025.257.052.442.148,1.264-.073,1.512a.207.207,0,0,1-.16.073.275.275,0,0,1-.042,0c-.314,0-.4-.351-.506-.758-.121-.475-.258-1.012-.79-1.126-.038.013-.08.025-.12.036a.623.623,0,0,0-.363.19c-.107.147.028.52.126.793.03.084.058.161.073.217a1.451,1.451,0,0,1-.067.924v.046c-.448,0-.7-.383-.948-.753s-.505-.759-.96-.759a1.574,1.574,0,0,0-.835.316c0,.259.266.542.547.842.4.424.808.862.489,1.266a.648.648,0,0,1-.4.231.609.609,0,0,1-.067,0c-.374,0-.643-.351-.927-.723l-.018-.023c-.268-.349-.572-.745-1-.745a.736.736,0,0,0-.118.01.522.522,0,0,0-.358.265c-.135.247.194.561.514.865a1.925,1.925,0,0,1,.463.543.882.882,0,0,1,0,.513c-.009.041-.017.083-.024.125a2.381,2.381,0,0,1-.943-.308,2.421,2.421,0,0,0-.967-.314.8.8,0,0,0-.566.228c-.108.1-.247.247-.2.419.04.151.206.208.382.269a.707.707,0,0,1,.4.238l.018.033a1.021,1.021,0,0,1-.153.962,1.461,1.461,0,0,0-.222.634.727.727,0,0,0,.075.3.565.565,0,0,1,.051.422c-.094.3-.254.44-.5.44a1.823,1.823,0,0,1-.517-.113,1.844,1.844,0,0,0-.512-.112.425.425,0,0,0-.3.1c-.3.271-.158.745-.028,1.164a2.482,2.482,0,0,1,.122.5,1.156,1.156,0,0,1-.085.456,1.452,1.452,0,0,0-.088.367.828.828,0,0,0,.139.453,1.382,1.382,0,0,1,.115.255,1.766,1.766,0,0,1,.051.4,1.058,1.058,0,0,0,.135.57.351.351,0,0,0,.292.182c.222,0,.472-.233.692-.438l.022-.021c.23-.215.448-.417.632-.417.112,0,.2.076.271.232a.369.369,0,0,1,.021.3c-.088.213-.41.336-.722.456-.357.137-.695.266-.713.517-.031.409.516.795.956,1.1a4.689,4.689,0,0,1,.436.331,1.955,1.955,0,0,1,.669,1.188,2.5,2.5,0,0,1-.209,1.039l0,.008c-.034.1-.067.189-.095.279a1.055,1.055,0,0,1,.184.02.988.988,0,0,0,.172.019.508.508,0,0,0,.135-.018,2.268,2.268,0,0,0,1.234-2.362,4.9,4.9,0,0,0-.266-.859,3.9,3.9,0,0,1-.3-1.122,2.968,2.968,0,0,1,.135-.845c.149-.594.3-1.209-.152-1.538l-.035-.02-.058-.032c0,.072-.164.1-.25.1h-.008a.594.594,0,0,1-.368-.127.312.312,0,0,1-.118-.446.685.685,0,0,1,.33-.2c.165-.062.336-.126.368-.3.05-.284-.181-.475-.4-.659-.193-.159-.375-.31-.38-.513a.724.724,0,0,1,.3-.507.946.946,0,0,1,.62-.266l.057,0a2.255,2.255,0,0,1,1.3.528.41.41,0,0,1,.105.313,1.011,1.011,0,0,1-.082.26.629.629,0,0,0-.066.461c.048.141.186.2.319.262a.54.54,0,0,1,.312.24.676.676,0,0,1-.044.546.873.873,0,0,0-.084.391c.006.083.046.112.112.161a.876.876,0,0,0,.174.088.509.509,0,0,1,.285.2.777.777,0,0,1,.018.474c-.044.262-.086.508.349.645,0-.047,0-.1,0-.149-.01-.261-.021-.554.2-.679,0,.044.057.1.112.148a.572.572,0,0,1,.08.085c.044.065.083.129.117.186a.961.961,0,0,0,.638.547,2.116,2.116,0,0,0-.331-1.116.218.218,0,0,1-.019-.034.7.7,0,0,1,.378.158.719.719,0,0,0,.392.163.438.438,0,0,0,.107-.014.191.191,0,0,0,.144-.1c.044-.11-.058-.272-.132-.39-.021-.034-.039-.062-.051-.085a.889.889,0,0,1-.041-.632.95.95,0,0,0,0-.509c-.083-.24-.516-.438-.934-.629a3.054,3.054,0,0,1-.716-.4c-.061-.056-.256-.254-.186-.458.116-.341.4-.388.685-.388.083,0,.172,0,.258.009s.182.009.273.009a1.363,1.363,0,0,0,.356-.039,1.462,1.462,0,0,0,.644-.436,1.032,1.032,0,0,0,.274-1.072,1.8,1.8,0,0,0-.089-.172.709.709,0,0,1-.132-.483c.087-.591.695-.944,1.627-.944a3.351,3.351,0,0,1,1.367.276c.466.226.843.722.623,1.2-.129.272-.391.275-.67.279a1.321,1.321,0,0,0-.484.065,2.484,2.484,0,0,0-.915,1.112.875.875,0,0,0,.152.749,1.359,1.359,0,0,1,.2.527,5.039,5.039,0,0,1-.373,1.925c-.1.3-.2.586-.263.876a.537.537,0,0,0,.022.241.4.4,0,0,1,0,.3c-.1.158-.267.175-.444.192a1.187,1.187,0,0,0-.275.049.833.833,0,0,0-.274.177,1.24,1.24,0,0,1-.181.138c-.073.042-.148.081-.22.118-.3.152-.579.294-.618.676h.005a1.073,1.073,0,0,0,.333-.066,1.4,1.4,0,0,1,.311-.071h.007a.041.041,0,0,1,.042.045.211.211,0,0,1,0,.027v0s0,.009,0,.014a1.792,1.792,0,0,1-.129.413.9.9,0,0,0-.064.782c.127,0,.214-.115.307-.236.112-.147.228-.3.429-.3a.5.5,0,0,1,.161.029h0c.053,0,.054,0,.063.037l0,.016c.028.083.051.164.074.242a2.155,2.155,0,0,0,.256.625.272.272,0,0,0,.168-.071.123.123,0,0,0,.036-.094c0-.044,0-.092-.008-.141a2.172,2.172,0,0,1,.051-.844.916.916,0,0,1,.2-.291.531.531,0,0,0,.156-.535.275.275,0,0,0,.141-.079.416.416,0,0,1,.12-.078,2.592,2.592,0,0,0,.538-.257,1.553,1.553,0,0,1,.918-.272h.079a1.4,1.4,0,0,1,.55.088.081.081,0,0,0,.069-.031c.045-.061.011-.2-.031-.335s-.087-.267-.132-.4l-.007-.022a7.275,7.275,0,0,1-.5-2.338h.149a3.175,3.175,0,0,0,.421.66l0,.007c.062.085.115.158.14.2s.044.072.079.135c.143.253.41.724.666.724a.21.21,0,0,0,.1-.026c.1-.055.173-.479.238-.853a3.634,3.634,0,0,1,.11-.517,1.078,1.078,0,0,1,.97-.752,1.081,1.081,0,0,1,.885.535,2.822,2.822,0,0,1-.477,3.057,1.373,1.373,0,0,1-.464.237,1.34,1.34,0,0,0-.439.221c-.173.148-.134.383-.1.609a1.256,1.256,0,0,1,.026.359,1.409,1.409,0,0,1-.458.747,4.4,4.4,0,0,1-.864.574,4.848,4.848,0,0,0-.773.5,1.061,1.061,0,0,0-.208.262.7.7,0,0,1-.309.316.648.648,0,0,1-.247.041c-.062,0-.126,0-.188-.01h-.007C-1398.1-642.7-1398.164-642.706-1398.228-642.706Zm.385-4.479h0a.57.57,0,0,1-.568-.332,1.055,1.055,0,0,1-.006-.484c.007-.055.014-.1.018-.149l.008-.1a7.5,7.5,0,0,1,.349-2.019,2.783,2.783,0,0,1,.2,1.027,5.054,5.054,0,0,0,.078.667,2.927,2.927,0,0,0,.078.283,1.493,1.493,0,0,1,.1.638.718.718,0,0,1-.259.465Zm-9.864-.765a.642.642,0,0,1-.56-.332.6.6,0,0,1-.009-.608.954.954,0,0,1,.414-.343l.039-.022a1.016,1.016,0,0,1,.574.165.592.592,0,0,1,.236.617.705.705,0,0,1-.561.509A.69.69,0,0,1-1407.708-647.95Zm5.518-.62a.564.564,0,0,1-.2-.035c-.465-.177-.457-.607-.448-1.061,0-.062,0-.124,0-.185a1.3,1.3,0,0,1,.864,1.1.344.344,0,0,1-.062.159A.562.562,0,0,1-1402.19-648.57Zm7.642-2.1a2.4,2.4,0,0,1-.446-.036.684.684,0,0,1-.547-.343c-.173-.387.191-.988.456-1.427.072-.119.14-.232.185-.32a2.565,2.565,0,0,1,.9,2.115h-.031c-.083,0-.165,0-.245.005S-1394.457-650.667-1394.547-650.667Zm-9.319-1.153a.46.46,0,0,1-.151-.043l-.016-.007a.663.663,0,0,1-.423-.353c-.078-.226.075-.493.238-.776l.04-.069a.913.913,0,0,1,.522.821.42.42,0,0,1-.173.42A.085.085,0,0,1-1403.866-651.82Z"
    transform="translate(1416 666.418)" />>
</svg>