<svg xmlns="http://www.w3.org/2000/svg" xmlns:xlink="http://www.w3.org/1999/xlink" width="32" height="32"
  viewBox="0 0 32 32">
  <g transform="matrix(-0.996, 0.087, -0.087, -0.996, 190.103, 636.261)">
    <path
      d="M.7-11.138a2.631,2.631,0,0,1,1.24-2.233A2.631,2.631,0,0,1,4.489-13.5,13.153,13.153,0,0,1,11.837-1.531,13.153,13.153,0,0,1,4.192,10.25,13.153,13.153,0,0,1-9.732,8.412a2.631,2.631,0,0,1-.922-2.382A2.631,2.631,0,0,1-9.12,3.988h0a2.631,2.631,0,0,1,2.755.381,7.892,7.892,0,0,0,8.354,1.1A7.892,7.892,0,0,0,6.576-1.6,7.892,7.892,0,0,0,2.167-8.777,2.631,2.631,0,0,1,.7-11.138Z"
      transform="translate(120.469 634.5)" />
    <path
      d="M-11.29.312A2.631,2.631,0,0,1-13.834.089,2.631,2.631,0,0,1-14.99-2.189,13.153,13.153,0,0,1-7.65-13.5a2.631,2.631,0,0,1,2.551.128,2.631,2.631,0,0,1,1.24,2.233h0a2.631,2.631,0,0,1-1.47,2.361,7.892,7.892,0,0,0-4.4,6.786A2.631,2.631,0,0,1-11.29.312Z"
      transform="translate(121 634.5)" />
  </g>
</svg>