<svg xmlns="http://www.w3.org/2000/svg" xmlns:xlink="http://www.w3.org/1999/xlink" width="32" height="32"
  viewBox="0 0 32 32">
    <path
      d="M-1447.131-663.918h-16.438c-3.546,0-6.431-3.4-6.431-7.58a7.625,7.625,0,0,1,4.3-7.154l0-.057c0-.12-.007-.245-.007-.368a10.762,10.762,0,0,1,2.219-6.667,9.115,9.115,0,0,1,7.4-3.255c.158,0,.319,0,.48.008,5.156.382,8.628,1.915,10.32,4.559a7.565,7.565,0,0,1,.64,6.5c3.039,1.774,3.22,3.065,3.58,5.636.088.631.188,1.344.345,2.153a7.565,7.565,0,0,1-2.189,4.434A6.058,6.058,0,0,1-1447.131-663.918Zm-18.834-12.745a11.93,11.93,0,0,0,.449,4.276l4.359,1.8a3.445,3.445,0,0,0,3.4,2.833,3.455,3.455,0,0,0,3.451-3.451c0-.062,0-.126-.005-.189l4.01-2.851h.1a4.525,4.525,0,0,0,4.52-4.52,4.525,4.525,0,0,0-4.52-4.521,4.526,4.526,0,0,0-4.521,4.521l-2.809,4.116c-.081,0-.156-.007-.23-.007a3.432,3.432,0,0,0-1.981.625l-6.223-2.629Z"
      transform="translate(1471 691.418)" />
    <path
      d="M-1465.251-683.7a2.494,2.494,0,0,1-2.221-1.351l.452.188a7.063,7.063,0,0,0,1.764.683,1.96,1.96,0,0,0,1.9-2.006c0-1.226-1.332-1.811-1.9-2.006-.21-.074-.513-.188-.9-.339a2.488,2.488,0,0,1,.906-.169,2.5,2.5,0,0,1,2.5,2.5A2.5,2.5,0,0,1-1465.251-683.7Z"
      transform="translate(1478.525 706.413)" />
    <path
      d="M-1467-683a3,3,0,0,1-3-3,3,3,0,0,1,3-3,3,3,0,0,1,3,3A3,3,0,0,1-1467-683Zm.049-5.26a2.239,2.239,0,0,0-2.236,2.236,2.239,2.239,0,0,0,2.236,2.236,2.238,2.238,0,0,0,2.236-2.236A2.238,2.238,0,0,0-1466.951-688.261Z"
      transform="translate(1487.876 698.583)"  />
</svg>