<svg version="1.1" viewBox="0 0 32 32" xmlns="http://www.w3.org/2000/svg">
 <g fill="#101010">
  <path d="m20.5 28.042h-9c-1.0609 0-2.0783-0.42143-2.8284-1.1716-0.75015-0.75015-1.1716-1.7676-1.1716-2.8284v-7.775c0.0052067-0.40051 0.050432-0.79949 0.135-1.191 0.37307 1.3938 1.4679 2.4787 2.865 2.839v3.127h4v-3h3v3h4v-3.127c1.3971-0.36035 2.4919-1.4452 2.865-2.839 0.084641 0.3915 0.12987 0.79049 0.135 1.191v7.775c0 1.0609-0.42143 2.0783-1.1716 2.8284-0.75015 0.75015-1.7676 1.1716-2.8284 1.1716"/>
  <path d="m11.5 7.042h9c1.0609 0 2.0783 0.42143 2.8284 1.1716s1.1716 1.7676 1.1716 2.8284v1.39c0 1.0609-0.42143 2.0783-1.1716 2.8284-0.75015 0.75015-1.7676 1.1716-2.8284 1.1716h-9c-1.0609 0-2.0783-0.42143-2.8284-1.1716-0.75015-0.75015-1.1716-1.7676-1.1716-2.8284v-1.39c-0.00000010486 -1.0609 0.42143-2.0783 1.1716-2.8284 0.75015-0.75015 1.7676-1.1716 2.8284-1.1716"/>
  <rect x="11.5" y="15.042" width="2" height="5"/>
  <rect x="18.5" y="15.042" width="2" height="5"/>
  <path d="m8.9 7.534c0.35644-0.22767 0.72949-0.42824 1.116-0.6 0.34277-0.14306 0.6993-0.25062 1.064-0.321 0 0-0.228-1.453 0.2-1.373s1.523 1.694 1.523 1.694h1.177l-2.609-2.911s-1.2-0.3-1.783 0.431-0.688 3.08-0.688 3.08"/>
  <path d="m22.979 7.534c-0.35644-0.22767-0.72949-0.42824-1.116-0.6-0.34277-0.14306-0.6993-0.25062-1.064-0.321 0 0 0.228-1.453-0.2-1.373s-1.523 1.694-1.523 1.694h-1.176l2.6-2.915s1.2-0.3 1.783 0.431 0.696 3.084 0.696 3.084"/>
 </g>
</svg>
