<svg width="32" height="32" version="1.1" viewBox="0 0 32 32" xmlns="http://www.w3.org/2000/svg">
 <defs>
  <clipPath id="b">
   <rect width="32" height="32"/>
  </clipPath>
 </defs>
 <g id="a" transform="translate(-.28184 .41548)">
  <path transform="translate(.269 -6.405)" d="m6.877 24.58 7.823-8.18a1.764 1.764 0 0 1 1.3-0.529h0.023a1.764 1.764 0 0 1 1.307 0.533l7.819 8.176a2.324 2.324 0 0 1 0 3 1.91 1.91 0 0 1-2.638 0c-6.324-7.262-6.511-7.11-6.511-7.11s-0.064-0.053-6.489 7.106a1.91 1.91 0 0 1-2.638 0 2.324 2.324 0 0 1 4e-3 -2.996z" fill="#ffffff"/>
 </g>
</svg>
