<?xml version="1.0" encoding="UTF-8"?>
<svg version="1.1" viewBox="0 0 32 32" xmlns="http://www.w3.org/2000/svg"><path d="m9.8949 27c-0.80709 0.017593-1.4761-0.6215-1.4955-1.4286l-0.36993-15.008h15.932l-0.30146 15.008c-0.01976 0.80685-0.68854 1.4457-1.4955 1.4286h-12.27m-3.0531-18.412 0.069264-2.0645c0.044983-0.40736 0.4101-0.70219 0.81779-0.66037l4.1897 0.14561 0.02676-0.76348c-0.0043-0.077606 0.02982-0.15237 0.09131-0.19992 0.10004-0.039104 0.20812-0.053157 0.31484-0.040928l7.1476 0.24951 0.38568 0.097599 0.10862 0.23613-0.02439 0.70839 4.4203 0.15742c0.4092-0.012862 0.75235 0.3064 0.76899 0.71547l-0.074 2.0567-18.242-0.63755" stroke-width=".7871"/></svg>
