<svg version="1.1" viewBox="0 0 32 32" xmlns="http://www.w3.org/2000/svg">
  <defs>
    <clipPath id="b">
      <rect width="32" height="32"/>
    </clipPath>
  </defs>
  <g id="a" transform="translate(.0025488 3.0002)" clip-path="url(#b)" fill="#fff">
    <path transform="rotate(90 15.5 16)" d="m9 7.2v2.78l8.485 5.42-8.485 5.859v2.541a0.427 0.427 0 0 0 0.64 0.394l13.152-8.3a0.47 0.47 0 0 0 0-0.782l-13.152-8.296a0.423 0.423 0 0 0-0.64 0.384z"/>
    <path transform="rotate(90,19.001,12.5)" d="m9 7.2v16.6a0.427 0.427 0 0 0 0.64 0.394l13.152-8.3a0.47 0.47 0 0 0 0-0.782l-13.152-8.296a0.423 0.423 0 0 0-0.64 0.384z"/>
  </g>
</svg>
