<svg xmlns="http://www.w3.org/2000/svg" xmlns:xlink="http://www.w3.org/1999/xlink" width="32" height="32" viewBox="0 0 32 32"><defs><clipPath id="b"><rect width="32" height="32"/></clipPath></defs><g id="a" clip-path="url(#b)"><path d="M9,7.2V9.98L17.485,15.4,9,21.259V23.8a.427.427,0,0,0,.64.394l13.152-8.3a.47.47,0,0,0,0-.782L9.64,6.816A.423.423,0,0,0,9,7.2Z" transform="translate(31.501 7) rotate(90)" fill="#fff"/><path d="M9,7.2V9.98L17.485,15.4,9,21.259V23.8a.427.427,0,0,0,.64.394l13.152-8.3a.47.47,0,0,0,0-.782L9.64,6.816A.423.423,0,0,0,9,7.2Z" transform="translate(31.501 0) rotate(90)" fill="#fff"/><path d="M9,7.2V23.8a.427.427,0,0,0,.64.394l13.152-8.3a.47.47,0,0,0,0-.782L9.64,6.816A.423.423,0,0,0,9,7.2Z" transform="translate(31.501 -7.001) rotate(90)" fill="#fff"/></g></svg>