<svg xmlns="http://www.w3.org/2000/svg" xmlns:xlink="http://www.w3.org/1999/xlink" width="32" height="32" viewBox="0 0 32 32"><defs><clipPath id="b"><rect width="32" height="32"/></clipPath></defs><g id="a" clip-path="url(#b)"><path d="M0,17.047V14.271L8.485,8.847,0,2.992V.455A.427.427,0,0,1,.64.062l13.152,8.3a.47.47,0,0,1,0,.782L.64,17.435A.423.423,0,0,1,0,17.047Z" transform="translate(7.25 16) rotate(-90)" fill="#fff"/><path d="M0,17.047V14.271L8.485,8.847,0,2.992V.455A.427.427,0,0,1,.64.062l13.152,8.3a.47.47,0,0,1,0,.782L.64,17.435A.423.423,0,0,1,0,17.047Z" transform="translate(7.25 23) rotate(-90)" fill="#fff"/><path d="M0,17.047V.455A.427.427,0,0,1,.64.062l13.152,8.3a.47.47,0,0,1,0,.782L.64,17.435A.423.423,0,0,1,0,17.047Z" transform="translate(7.25 30.001) rotate(-90)" fill="#fff"/></g></svg>