<svg xmlns="http://www.w3.org/2000/svg" xmlns:xlink="http://www.w3.org/1999/xlink" width="32" height="32" viewBox="0 0 32 32"><defs><clipPath id="b"><rect width="32" height="32"/></clipPath></defs><g id="a"><path d="M11.282-.013a11.282,11.282,0,0,0,0,22.565,11.151,11.151,0,0,0,5.351-1.322,3.223,3.223,0,0,0,.419.419l3.224,3.224a3.288,3.288,0,1,0,4.642-4.642l-3.224-3.224a3.224,3.224,0,0,0-.516-.419A11.131,11.131,0,0,0,22.6,11.237,11.3,11.3,0,0,0,11.315-.045Zm0,3.224a8.021,8.021,0,0,1,8.059,8.059,8.083,8.083,0,0,1-2.128,5.545l-.1.1a3.223,3.223,0,0,0-.419.419,8.066,8.066,0,0,1-5.448,2.031,8.059,8.059,0,0,1,0-16.118Z" transform="translate(2.491 2.536)" fill="#fff"/></g></svg>