<?xml version="1.0" encoding="UTF-8"?>
<svg id="Camada_1" xmlns="http://www.w3.org/2000/svg" version="1.1" viewBox="0 0 64.1 64.1">
  <!-- Generator: Adobe Illustrator 29.1.0, SVG Export Plug-In . SVG Version: 2.1.0 Build 142)  -->
  <defs>
    <style>
      .st0, .st1, .st2, .st3, .st4, .st5, .st6 {
        fill-rule: evenodd;
      }

      .st0, .st7 {
        fill: #c2bdbd;
      }

      .st8 {
        fill: #434343;
      }

      .st1 {
        fill: #ababab;
      }

      .st2 {
        fill: #bdbdbd;
      }

      .st9 {
        fill: #929191;
      }

      .st3 {
        fill: #707070;
      }

      .st10 {
        fill: #b0acac;
      }

      .st4 {
        fill: #525252;
      }

      .st11 {
        fill: #d4d4d4;
      }

      .st5 {
        fill: #131313;
      }

      .st12 {
        fill: #716e6e;
      }

      .st6 {
        fill: #909090;
      }
    </style>
  </defs>
  <g id="a1">
    <path class="st8" d="M3.8,28.8l29.6,25.4,27-16.2v-2.5l-8.6.6L3.8,26.7s0,2.1,0,2.1Z"/>
    <path class="st11" d="M4.3,26.6l34.1,22.4,13.9-8.2L23.5,15,4.3,26.6Z"/>
    <path class="st9" d="M3.8,26.7l29.9,25.1,10.9-6.4L14.5,20.3l-10.8,6.5s.1-.1.1-.1Z"/>
    <path class="st9" d="M15.8,19.6l29.9,25.1,7.5-4.4L26.5,13.1l-10.8,6.5h.1Z"/>
    <path class="st12" d="M3.8,26.7l29.8,25.1,2.9-1.7L6.7,25s-2.9,1.7-2.9,1.7Z"/>
    <path class="st10" d="M23.2,14.1l30,25.1,7.2-3.8L30.2,10l-7,4.1Z"/>
    <path class="st11" d="M53.2,40.3L23.1,15.2v-1.1l30.1,25.1v1.1Z"/>
  </g>
  <g id="grey1">
    <path class="st0" d="M24.4,35.2v4.9c0,.2,0,.4-.3.6-.1,0-.3.1-.5.1v-5.1l.8-.5Z"/>
    <path class="st4" d="M22.8,40.6c-.1,0-.2-.1-.3-.2-.3-.2-.4-.5-.4-.7v-4.6l.7-.4s0,5.9,0,5.9Z"/>
    <path class="st3" d="M23.7,40.8c-.2,0-.6,0-.9-.2v-5.5l.8-.5v6.2h.1Z"/>
    <path class="st6" d="M23.6,34.413l.8-.5v1.287l-.8.5v-1.287Z"/>
    <path class="st4" d="M23.6,35.7l-.4.2h-.5v-1.087l.9-.5v1.387Z"/>
    <path class="st0" d="M46.2,21.5l-.4.2h0l1.3-.9h0c0,.1-.8.6-.8.6,0,0-.1.1-.1.1ZM47.1,22.1v4.9c0,.2,0,.4-.3.6-.1,0-.3.1-.5.1v-5.1l.8-.5Z"/>
    <path class="st4" d="M45.5,27.5c-.1,0-.2-.1-.3-.2-.3-.2-.4-.5-.4-.7v-4.6l.7-.4v5.9Z"/>
    <path class="st3" d="M46.4,27.7c-.2,0-.6,0-.9-.2v-5.5l.8-.5v6.2h.1Z"/>
    <path class="st6" d="M46.3,21.145l.8-.5v1.455l-.8.5v-1.455Z"/>
    <path class="st4" d="M46.3,22.6l-.4.2h-.5v-1.2l.9-.5v1.5Z"/>
    <path class="st9" d="M46.5,15.8l-30.1,17.4,3.1,2.6,30.2-17.5-3.2-2.5h0Z"/>
    <path class="st1" d="M46.5,14.2v1.6l-30.1,17.4v-1.6s30.1-17.4,30.1-17.4Z"/>
    <g id="grey">
      <path class="st0" d="M34.308,11.529v-.067s1.023-.538,1.023-.538l-1.541,11.394-1.261.72,1.533-11.716s.245.207.245.207Z"/>
      <path class="st3" d="M33.105,10.513l.957.809-1.533,11.716-1.131.646,1.706-14.042v.871Z"/>
      <path class="st5" d="M49.7,19.5l-.435.248-13.517-7.02v-.747s13.952,7.518,13.952,7.518ZM45.925,21.656l-10.178-4.876v-.747s10.666,5.343,10.666,5.343c0,0-.489.279-.489.279ZM42.25,23.755l-6.502-2.515v-.747s7.049,2.95,7.049,2.95l-.547.312ZM46.048,16.058l-11.741-4.919v-.747s12.194,5.408,12.194,5.408c0,0-.452.258-.452.258ZM42.729,17.989l-8.422-2.799v-.747s8.932,3.254,8.932,3.254c0,0-.51.291-.51.291ZM38.989,20.164l-4.682-.514v-.747s5.281.918,5.281.918l-.599.342Z"/>
      <path class="st0" d="M34.33,11.449l-.072-2.676-.008.005-1.145-.967,1.282-.732,1.145.967v1.812s.014.012.014.012l1.505,16.198-1.274.67-1.425-15.3s-.022.012-.022.012Z"/>
      <path class="st3" d="M33.105,10.513v-2.703s1.153.975,1.153.975l.085,2.657.01-.005,1.424,15.3-1.153-.975-1.411-15.144s-.108-.105-.108-.105Z"/>
      <path class="st5" d="M26.176,27.572l6.264-8.606v1.52s-4.736,6.214-4.736,6.214l-1.527.872ZM21.399,30.281l11.466-15.457v1.519s-10.064,13.138-10.064,13.138l-1.401.8ZM16.4,33.2l17.352-22.099v1.519s-16.035,19.828-16.035,19.828c0,0-1.317.752-1.317.752Z"/>
      <path class="st5" d="M33.752,10.977v1.519s-13.01,22.595-13.01,22.595l-1.242.709s14.252-24.823,14.252-24.823ZM34.389,16.07v1.519s-8.82,14.745-8.82,14.745l-1.056.603,9.876-16.867ZM34.747,20.593v1.519s-4.42,7.503-4.42,7.503l-.91.519,5.329-9.542Z"/>
    </g>
    <path class="st2" d="M49.7,16.7v1.6l-30.2,17.5v-1.6s30.2-17.5,30.2-17.5Z"/>
    <path class="st7" d="M49.7,18.3l-30.3,17.4-3-2.5v1.1l3.1,2.6,30.2-17.4s0-1.2,0-1.2Z"/>
  </g>
</svg>