<svg xmlns="http://www.w3.org/2000/svg" xml:space="preserve" fill-rule="evenodd" stroke-linejoin="round" stroke-miterlimit="2" clip-rule="evenodd" viewBox="0 0 64 64">
  <g id="grey">
    <path fill="#444" d="M16.135 20.188c9.895-5.712 25.054-4.37 33.831 2.995 8.778 7.366 7.872 17.983-2.022 23.696-9.894 5.712-25.053 4.369-33.83-2.996-8.778-7.365-7.873-17.982 2.021-23.695Z"/>
    <path fill="#ebebeb" d="M16.056 17.122c9.894-5.712 25.053-4.371 33.83 2.995 8.778 7.365 7.873 17.983-2.021 23.695-9.895 5.713-25.054 4.37-33.831-2.995-8.778-7.366-7.872-17.983 2.022-23.695Z"/>
    <path fill="#838383" d="M18.816 19.159c8.202-4.735 20.768-3.623 28.044 2.482 7.277 6.106 6.526 14.907-1.676 19.643-8.202 4.735-20.768 3.623-28.044-2.483-7.277-6.106-6.526-14.907 1.676-19.642Z"/>
  </g>
</svg>
