<?xml version="1.0" encoding="UTF-8"?>
<svg id="Camada_1" xmlns="http://www.w3.org/2000/svg" version="1.1" viewBox="0 0 64.1 64.1">
  <!-- Generator: Adobe Illustrator 29.1.0, SVG Export Plug-In . SVG Version: 2.1.0 Build 142)  -->
  <defs>
    <style>
      .st0 {
        fill: #313131;
      }

      .st1, .st2, .st3, .st4, .st5, .st6 {
        fill-rule: evenodd;
      }

      .st1, .st7 {
        fill: #c2bdbd;
      }

      .st8 {
        fill: #434343;
      }

      .st2 {
        fill: #ababab;
      }

      .st3 {
        fill: #bdbdbd;
      }

      .st9 {
        fill: #8d8d8d;
      }

      .st10 {
        fill: #929191;
      }

      .st4 {
        fill: #707070;
      }

      .st11 {
        fill: #b0acac;
      }

      .st5 {
        fill: #525252;
      }

      .st12 {
        fill: #d4d4d4;
      }

      .st13 {
        fill: #716e6e;
      }

      .st6 {
        fill: #909090;
      }
    </style>
  </defs>
  <g id="a1">
    <path class="st8" d="M3.8,28.8l29.6,25.4,27-16.2v-2.5l-8.6.6L3.8,26.7s0,2.1,0,2.1Z"/>
    <path class="st12" d="M4.3,26.6l34.1,22.4,13.9-8.2L23.5,15,4.3,26.6Z"/>
    <path class="st10" d="M3.8,26.7l29.9,25.1,10.9-6.4L14.5,20.3l-10.8,6.5s.1-.1.1-.1Z"/>
    <path class="st10" d="M15.8,19.6l29.9,25.1,7.5-4.4L26.5,13.1l-10.8,6.5h.1Z"/>
    <path class="st13" d="M3.8,26.7l29.8,25.1,2.9-1.7L6.7,25s-2.9,1.7-2.9,1.7Z"/>
    <path class="st11" d="M23.2,14.1l30,25.1,7.2-3.8L30.2,10l-7,4.1Z"/>
    <path class="st12" d="M53.2,40.3L23.1,15.2v-1.1l30.1,25.1v1.1Z"/>
  </g>
  <g id="grey1">
    <path class="st1" d="M24.4,35.2v4.9c0,.2,0,.4-.3.6-.1,0-.3.1-.5.1v-5.1l.8-.5Z"/>
    <path class="st5" d="M22.8,40.6c-.1,0-.2-.1-.3-.2-.3-.2-.4-.5-.4-.7v-4.6l.7-.4s0,5.9,0,5.9Z"/>
    <path class="st4" d="M23.7,40.8c-.2,0-.6,0-.9-.2v-5.5l.8-.5v6.2h.1Z"/>
    <path class="st6" d="M23.6,34.413l.8-.5v1.287l-.8.5v-1.287Z"/>
    <path class="st5" d="M23.6,35.7l-.4.2h-.5v-1.087l.9-.5v1.387Z"/>
    <path class="st1" d="M46.2,21.5l-.4.2h0l1.3-.9h0c0,.1-.8.6-.8.6,0,0-.1.1-.1.1ZM47.1,22.1v4.9c0,.2,0,.4-.3.6-.1,0-.3.1-.5.1v-5.1l.8-.5Z"/>
    <path class="st5" d="M45.5,27.5c-.1,0-.2-.1-.3-.2-.3-.2-.4-.5-.4-.7v-4.6l.7-.4v5.9Z"/>
    <path class="st4" d="M46.4,27.7c-.2,0-.6,0-.9-.2v-5.5l.8-.5v6.2h.1Z"/>
    <path class="st6" d="M46.3,21.145l.8-.5v1.455l-.8.5v-1.455Z"/>
    <path class="st5" d="M46.3,22.6l-.4.2h-.5v-1.2l.9-.5v1.5Z"/>
    <path class="st7" d="M49.7,18.3l-30.3,17.4-3-2.5v1.1l3.1,2.6,30.2-17.4s0-1.2,0-1.2Z"/>
    <path class="st10" d="M46.5,15.8l-30.1,17.4,3.1,2.6,30.2-17.5-3.2-2.5h0Z"/>
    <path class="st2" d="M46.5,14.2v1.6l-30.1,17.4v-1.6s30.1-17.4,30.1-17.4Z"/>
    <g id="a">
      <path class="st0" d="M35.095,21.386l-.639.389v-10.855s.639.045.639.045v10.421Z"/>
      <path class="st0" d="M38.926,19.738l-.639.389v-8.577s.639.269.639.269v7.919Z"/>
      <path class="st0" d="M31.264,23.672l-.639.389v-10.784l.639-.56v10.954Z"/>
      <path class="st0" d="M27.432,26.811l-.639.389v-9.238s.639-.858.639-.858v9.707Z"/>
      <path class="st9" d="M16.4,33.2s9.422-16.452,15.744-21.316,14.356,3.916,14.356,3.916l-.844.486s-7.22-8.501-13.087-3.742-14.625,19.763-14.625,19.763l-1.544.893Z"/>
      <path class="st9" d="M25.694,26.133l-3.836-1.585-.552.703,3.872,1.834.516-.952Z"/>
      <path class="st9" d="M40.053,12.051l-3.001-1.14-1.058.111s2.79,1.204,3.304,1.317l.755-.287Z"/>
      <path class="st9" d="M19.5,35.8s8.834-17.903,15.475-22.989,14.725,5.489,14.725,5.489l-.74.429s-7.673-9.535-13.378-5.003-14.746,21.085-14.746,21.085l-1.336.989Z"/>
      <path class="st9" d="M28.584,21.219l-3.478-1.421-.718.728,3.663,1.568.533-.875Z"/>
      <path class="st9" d="M31.402,17.08l-3.036-1.125-.627.604,2.933,1.175.73-.654Z"/>
      <path class="st9" d="M34.461,13.966l-2.818-.996-.569.551,2.668,1.062.718-.617Z"/>
      <path class="st9" d="M36.669,12.526l-2.837-1.074-.679.446,2.799.937.718-.309Z"/>
      <path class="st0" d="M38.926,22.931l-.639.389v-10.855s.639.045.639.045v10.421Z"/>
      <path class="st0" d="M42.757,21.283l-.639.389v-8.577s.639.269.639.269v7.919Z"/>
      <path class="st0" d="M35.095,25.217l-.639.389v-10.923s.639-.61.639-.61v11.145Z"/>
      <path class="st0" d="M31.264,27.503l-.639.389v-8.385s.639-.858.639-.858v8.854Z"/>
    </g>
    <path class="st3" d="M49.7,16.7v1.6l-30.2,17.5v-1.6s30.2-17.5,30.2-17.5Z"/>
  </g>
</svg>