<?xml version="1.0" encoding="utf-8"?>
<!-- Generator: Adobe Illustrator 25.2.0, SVG Export Plug-In . SVG Version: 6.00 Build 0)  -->
<svg version="1.1" id="Layer_1" xmlns="http://www.w3.org/2000/svg" xmlns:xlink="http://www.w3.org/1999/xlink" x="0px" y="0px"
	 viewBox="0 0 32 32" style="enable-background:new 0 0 32 32;" xml:space="preserve">
<style type="text/css">
	.st0{fill:#047A00;}
	.st1{fill:#9F000C;}
	.st2{fill:#216D00;}
	.st3{fill:#FF927A;}
	.st4{fill:#001B6D;}
	.st5{fill:#FEFF24;}
	.st6{fill:#FFADAE;}
	.st7{fill:#96DEFF;}
	.st8{fill:#CC0049;}
</style>
<g id="a">
	<g transform="translate(-72.512 42.767)">
		<path class="st0" d="M74-27.4l16.2,10.1l13.5-10.1l-16.5-8.2L74-27.4z"/>
	</g>
	<ellipse class="st1" cx="15.5" cy="16.5" rx="6.5" ry="3.5"/>
	<path class="st2" d="M15.3,16.9c-0.9-2.4-2.2-4.7-3.8-6.7C8.8,7,3.7,5,3.7,5s5.8-0.6,8.4,1.1s2.8,3.8,3.3,6.3
		C15.8,14,15.7,15.5,15.3,16.9z"/>
	<path class="st3" d="M15,16.9c-0.2-3-0.8-5.9-1.8-8.7C12.3,6,11.1,3.9,9.5,2.1c2.4,1.1,4.6,2.6,6.4,4.5c2.3,2.7,0.6,3.8,0,6.4
		S15,16.9,15,16.9z"/>
	<path class="st4" d="M15.1,18.3c1-1.7,2.4-3.2,4-4.3c2.7-1.9,7.8-2.5,7.8-2.5s-5.6-1.4-8.3-0.6s-2.9,2.3-3.5,4.1
		C14.8,16,14.8,17.2,15.1,18.3z"/>
	<path class="st5" d="M15.2,18.1c0,0,2.5-6.9,5.3-8.2S27,4.6,27,4.6c-2.5,0.7-4.9,1.6-7.2,2.6c-2.5,1.3-4.3,3.7-4.6,5.6
		C15.1,14.6,15.1,16.3,15.2,18.1z"/>
	<path class="st6" d="M17,18c0.7-0.6,1.5-1.1,2.3-1.6c0.8-0.4,1.7-0.8,2.6-1.1c-0.8-0.2-1.7-0.1-2.5,0.1c-0.9,0.5-1.8,1.1-2.5,1.8
		c0.7-0.8,1.3-1.7,1.9-2.5c0.7-0.9,1.4-1.8,2.3-2.5c-1.1,0.2-2.1,0.6-2.9,1.2c-0.5,0.6-0.9,1.2-1.2,2L16.7,16l-0.4-1.8l-1.1-1.7
		l0.2,2.7c-0.4-0.7-0.9-1.4-1.5-2c-0.8-0.7-2.8-0.2-2.8-0.2c0.8,0.5,1.5,1.1,2.2,1.7c0.5,0.5,0.9,1.1,1.1,1.7l-1.1-0.7L12,15.9
		l1.1,0.5l0.8,0.7c0,0,0.5,1.2,1.1,1.4c0.5,0.1,1,0.1,1.4,0L17,18z"/>
	<path class="st7" d="M13.3,8l0.9-2L17,7.7c-0.6-1.3-1.6-2.4-2.8-3.1c-2-1.3-4.1-2.4-6.3-3.4c1.4,1.3,2.6,2.7,3.8,4.1
		C12.4,6.1,12.9,7,13.3,8z"/>
	<path class="st8" d="M16.1,12.2c0.7-0.8,1.5-1.6,2.4-2.3c0.9-0.5,1,0.2,1,0.2c1.2-0.3,2.3-0.9,3.3-1.7c1.9-1.4,4.3-3.8,4.3-3.8
		c-2.6,0.4-5.1,1.2-7.4,2.5C18,8.4,16.7,10.2,16.1,12.2z"/>
</g>
</svg>
