<svg xmlns="http://www.w3.org/2000/svg" xmlns:xlink="http://www.w3.org/1999/xlink" width="502" height="180" viewBox="0 0 502 180">
  <defs>
    <clipPath id="clip-Master_full_horizontal_white">
      <rect width="502" height="180"/>
    </clipPath>
  </defs>
  <g id="Master_full_horizontal_white" clip-path="url(#clip-Master_full_horizontal_white)">
    <g id="Master_Logo" data-name="Master Logo">
      <path id="Path_67" data-name="Path 67" d="M7.38,168.3a13.334,13.334,0,0,1-5.455-5.237A15.389,15.389,0,0,1,0,155.264V134.59a15.225,15.225,0,0,1,1.933-7.77,13.177,13.177,0,0,1,5.455-5.164,17.262,17.262,0,0,1,8.085-1.818,17.577,17.577,0,0,1,8.085,1.818,13.1,13.1,0,0,1,5.455,5.061,14.692,14.692,0,0,1,1.9,7.595v.418a.945.945,0,0,1-.249.636.758.758,0,0,1-.606.279l-6.54.285a.836.836,0,0,1-.842-.849v-.842a7.273,7.273,0,0,0-2.006-5.34,6.994,6.994,0,0,0-5.237-2.043A7.085,7.085,0,0,0,10.12,128.9a7.273,7.273,0,0,0-2,5.34v21.583a7.176,7.176,0,0,0,2,5.309,7.158,7.158,0,0,0,5.31,2.006A7.061,7.061,0,0,0,20.7,161.15a7.158,7.158,0,0,0,2.006-5.31v-.909c0-.515.279-.776.842-.776l6.54.279c.564,0,.842.188.842.564v.564a15.05,15.05,0,0,1-1.933,7.7,12.922,12.922,0,0,1-5.455,5.134,17.577,17.577,0,0,1-8.085,1.818A16.971,16.971,0,0,1,7.38,168.3Z" transform="translate(0.006 -47.202)" fill="#fff"/>
      <path id="Path_68" data-name="Path 68" d="M64.235,175.84a12.28,12.28,0,0,1-4.467-8.085,51.519,51.519,0,0,1,0-15.116,12.171,12.171,0,0,1,4.467-7.946,14.668,14.668,0,0,1,9.455-2.952,14.207,14.207,0,0,1,9.213,2.952,12.2,12.2,0,0,1,4.431,7.879,46.064,46.064,0,0,1,0,15.189A12.365,12.365,0,0,1,82.9,175.84a14.306,14.306,0,0,1-9.286,2.952A14.614,14.614,0,0,1,64.235,175.84Zm13.183-5.455a6.552,6.552,0,0,0,1.97-3.867,45.371,45.371,0,0,0,.352-6.261,42.748,42.748,0,0,0-.352-6.182,6.122,6.122,0,0,0-1.933-3.867,5.655,5.655,0,0,0-3.9-1.406,5.522,5.522,0,0,0-3.867,1.406,6.534,6.534,0,0,0-1.97,3.867,52.962,52.962,0,0,0-.352,6.182,56.094,56.094,0,0,0,.35,6.249,6.455,6.455,0,0,0,2.008,3.879,5.643,5.643,0,0,0,3.909,1.382A5.455,5.455,0,0,0,77.418,170.385Z" transform="translate(-23.319 -55.83)" fill="#fff"/>
      <path id="Path_69" data-name="Path 69" d="M140.333,136.7q2.885,3.237,2.885,8.928v23.487a.8.8,0,0,1-.242.606.812.812,0,0,1-.606.249h-6.461a.836.836,0,0,1-.842-.842V146.756a6.825,6.825,0,0,0-1.443-4.57,4.946,4.946,0,0,0-3.976-1.685,5.17,5.17,0,0,0-3.721,1.406,5.988,5.988,0,0,0-1.764,3.794v23.414a.836.836,0,0,1-.842.842h-6.467a.849.849,0,0,1-.842-.842V121.584a.794.794,0,0,1,.249-.606.806.806,0,0,1,.606-.249h6.467a.838.838,0,0,1,.849.855V136.7a.291.291,0,0,0,.145.285c.091.042.188,0,.279-.145a9.532,9.532,0,0,1,7.734-3.37A10.155,10.155,0,0,1,140.333,136.7Z" transform="translate(-45.691 -47.554)" fill="#fff"/>
      <path id="Path_70" data-name="Path 70" d="M188.167,170.728a6.667,6.667,0,0,0,2.285-2.812.818.818,0,0,1,1.055-.564l5.2,1.333a.77.77,0,0,1,.606,1.055,12.2,12.2,0,0,1-4.673,6.667,14.361,14.361,0,0,1-8.54,2.424,13.935,13.935,0,0,1-8.825-2.709,12.122,12.122,0,0,1-4.467-7.346,34.227,34.227,0,0,1-.982-8.789,51.589,51.589,0,0,1,.352-6.819,12.371,12.371,0,0,1,4.285-8.3,14.048,14.048,0,0,1,9.425-3.091q6.394,0,9.843,3.37t4.031,9.492q.358,4.006.352,7.667a.745.745,0,0,1-.842.842H178.354a.309.309,0,0,0-.352.352,21.658,21.658,0,0,0,.212,3.164,5.916,5.916,0,0,0,2.073,3.764,6.431,6.431,0,0,0,4.243,1.436A6.552,6.552,0,0,0,188.167,170.728Zm-8.055-20.608a5.873,5.873,0,0,0-1.818,3.588,23.717,23.717,0,0,0-.285,3.231.309.309,0,0,0,.352.352h11.183a.309.309,0,0,0,.352-.352c-.1-1.406-.188-2.424-.285-3.031a6.164,6.164,0,0,0-1.818-3.758,5.558,5.558,0,0,0-3.94-1.37,5.352,5.352,0,0,0-3.74,1.346Z" transform="translate(-66.887 -55.846)" fill="#fff"/>
      <path id="Path_71" data-name="Path 71" d="M244.529,142.821a.867.867,0,0,1,.418,1.055l-1.212,6.4c-.042.558-.376.727-.982.491a7.273,7.273,0,0,0-2.321-.352,12.055,12.055,0,0,0-1.333.139,5.922,5.922,0,0,0-4.043,2.212,7.364,7.364,0,0,0-1.582,4.819v19.9a.806.806,0,0,1-.249.606.794.794,0,0,1-.606.248h-6.425a.794.794,0,0,1-.606-.249.806.806,0,0,1-.249-.606V143.246a.849.849,0,0,1,.843-.849h6.473a.849.849,0,0,1,.842.849v3.231c0,.188.036.3.1.315s.152,0,.249-.176q2.527-4.637,7.243-4.637A6.806,6.806,0,0,1,244.529,142.821Z" transform="translate(-88.756 -55.924)" fill="#fff"/>
      <path id="Path_72" data-name="Path 72" d="M280.589,170.716a6.564,6.564,0,0,0,2.285-2.812.824.824,0,0,1,1.036-.545l5.206,1.333a.77.77,0,0,1,.606,1.055,12.2,12.2,0,0,1-4.673,6.667,14.372,14.372,0,0,1-8.546,2.424,13.925,13.925,0,0,1-8.819-2.709,12.122,12.122,0,0,1-4.467-7.346,34.228,34.228,0,0,1-.982-8.789,51.589,51.589,0,0,1,.352-6.819,12.371,12.371,0,0,1,4.352-8.334,14.048,14.048,0,0,1,9.425-3.091q6.394,0,9.843,3.37t3.982,9.51q.346,4.006.352,7.667a.746.746,0,0,1-.842.842H270.782a.309.309,0,0,0-.352.352,21.66,21.66,0,0,0,.212,3.164,5.916,5.916,0,0,0,2.073,3.764,6.431,6.431,0,0,0,4.243,1.436,6.516,6.516,0,0,0,3.631-1.139Zm-8.049-20.608a5.873,5.873,0,0,0-1.818,3.588,23.711,23.711,0,0,0-.285,3.231.309.309,0,0,0,.352.352h11.183a.309.309,0,0,0,.352-.352c-.1-1.406-.188-2.424-.285-3.031a6.2,6.2,0,0,0-1.818-3.758,5.558,5.558,0,0,0-3.94-1.37,5.346,5.346,0,0,0-3.74,1.346Z" transform="translate(-103.287 -55.834)" fill="#fff"/>
      <path id="Path_73" data-name="Path 73" d="M342.121,144.977q2.885,3.237,2.879,8.928v23.487a.824.824,0,0,1-.242.606.806.806,0,0,1-.606.249H337.69a.836.836,0,0,1-.842-.842V155.032a6.825,6.825,0,0,0-1.443-4.57,4.946,4.946,0,0,0-3.976-1.685,5.17,5.17,0,0,0-3.721,1.406,5.952,5.952,0,0,0-1.758,3.794v23.414a.806.806,0,0,1-.248.606.794.794,0,0,1-.606.249h-6.461a.848.848,0,0,1-.855-.855V143.152a.849.849,0,0,1,.843-.849h6.467a.849.849,0,0,1,.849.849v1.818a.285.285,0,0,0,.139.285c.091.042.182,0,.279-.145a9.532,9.532,0,0,1,7.734-3.37A10.217,10.217,0,0,1,342.121,144.977Z" transform="translate(-125.167 -55.83)" fill="#fff"/>
      <path id="Path_74" data-name="Path 74" d="M388.193,142.628a.812.812,0,0,1-.606.242h-5.7a.315.315,0,0,0-.352.352V160.8a5.123,5.123,0,0,0,1.024,3.637,4.351,4.351,0,0,0,3.2,1.055h1.261a.849.849,0,0,1,.849.849v5.273a.867.867,0,0,1-.849.909h-2.952q-5.2,0-7.8-1.818t-2.606-6.891V143.2a.309.309,0,0,0-.352-.352h-3.231a.83.83,0,0,1-.842-.842v-4.5a.836.836,0,0,1,.842-.849h3.255a.309.309,0,0,0,.352-.352v-7.995a.83.83,0,0,1,.248-.606.812.812,0,0,1,.606-.242h6.182a.812.812,0,0,1,.606.242.824.824,0,0,1,.242.606v8.013a.309.309,0,0,0,.352.352h5.7a.836.836,0,0,1,.842.849v4.5A.812.812,0,0,1,388.193,142.628Z" transform="translate(-145.437 -50.209)" fill="#fff"/>
      <path id="Path_75" data-name="Path 75" d="M416.534,172.484V128.577a.606.606,0,0,1,.649-.649h2.127a.606.606,0,0,1,.649.649v41.282a.224.224,0,0,0,.261.255h19.117a.606.606,0,0,1,.648.649v1.746a.57.57,0,0,1-.648.642H417.182a.57.57,0,0,1-.649-.667Z" transform="translate(-164.062 -50.39)" fill="#fff"/>
      <path id="Path_76" data-name="Path 76" d="M482.564,150.835a10.987,10.987,0,0,1,2.746,7.879v21.644a.57.57,0,0,1-.649.642h-2.127a.57.57,0,0,1-.649-.642V177.71c0-.091-.03-.145-.1-.164s-.139,0-.224.1a9.122,9.122,0,0,1-3.812,2.9,13.11,13.11,0,0,1-5.1.97,10.813,10.813,0,0,1-6.782-2.127q-2.782-2.14-2.776-6.976,0-5.109,3.261-7.722t8.879-2.618h6.394a.224.224,0,0,0,.261-.255v-2.976a8.506,8.506,0,0,0-1.818-5.746,6.76,6.76,0,0,0-5.364-2.134,7.631,7.631,0,0,0-4.619,1.388,5.516,5.516,0,0,0-2.291,3.637.606.606,0,0,1-.715.606l-2.224-.139a.606.606,0,0,1-.485-.194.5.5,0,0,1-.1-.455,8.158,8.158,0,0,1,3.364-5.716,11.661,11.661,0,0,1,7.17-2.164Q479.818,147.926,482.564,150.835Zm-3.231,25.741a6.328,6.328,0,0,0,2.552-5.394v-6.061a.224.224,0,0,0-.261-.255h-6.2a10.114,10.114,0,0,0-6.425,1.9,6.526,6.526,0,0,0-2.424,5.455,5.771,5.771,0,0,0,1.873,4.716,7.37,7.37,0,0,0,4.849,1.546,9.8,9.8,0,0,0,6.037-1.909Z" transform="translate(-182.404 -58.264)" fill="#fff"/>
      <path id="Path_77" data-name="Path 77" d="M534.361,156.91q0,2.067-.067,4.037a29.223,29.223,0,0,1-.321,3.588,11.37,11.37,0,0,1-3.328,6.667,9.382,9.382,0,0,1-6.625,2.424,9.5,9.5,0,0,1-4.649-1.1,8.134,8.134,0,0,1-3.164-3.1.358.358,0,0,0-.23-.133c-.061,0-.1.067-.1.194v2.976a.564.564,0,0,1-.642.642H513.1a.57.57,0,0,1-.649-.642V128.575a.606.606,0,0,1,.649-.649h2.134a.57.57,0,0,1,.642.649v15.571c0,.127.036.2.1.224s.139,0,.23-.1q2.382-4.2,7.685-4.2a9.7,9.7,0,0,1,6.849,2.424,11.177,11.177,0,0,1,3.291,6.782A60.806,60.806,0,0,1,534.361,156.91Zm-3.424-.067a47.414,47.414,0,0,0-.455-7.431,7.564,7.564,0,0,0-2.388-4.582,7.067,7.067,0,0,0-4.909-1.746,6.37,6.37,0,0,0-4.655,1.776,7.752,7.752,0,0,0-2.194,4.619,46.84,46.84,0,0,0-.455,7.364,56.717,56.717,0,0,0,.388,7.3,7.722,7.722,0,0,0,2.23,4.679,6.546,6.546,0,0,0,4.746,1.776,7.1,7.1,0,0,0,4.946-1.776,7.413,7.413,0,0,0,2.358-4.679,49.71,49.71,0,0,0,.418-7.3Z" transform="translate(-201.847 -50.387)" fill="#fff"/>
      <path id="Path_78" data-name="Path 78" d="M561.729,179.15a7.376,7.376,0,0,1-2.9-5.976V172.6a.57.57,0,0,1,.642-.649h2.006a.672.672,0,0,1,.448.164.5.5,0,0,1,.194.418v.606a4.964,4.964,0,0,0,2.006,3.97,7.97,7.97,0,0,0,5.231,1.649,7.394,7.394,0,0,0,5.006-1.649,5.334,5.334,0,0,0,1.909-4.243,4.395,4.395,0,0,0-1.036-3.031,7.832,7.832,0,0,0-2.521-1.873q-1.479-.709-4.2-1.679a45.78,45.78,0,0,1-4.94-2,9.012,9.012,0,0,1-3.291-2.746,7.31,7.31,0,0,1-1.327-4.491,7.788,7.788,0,0,1,2.812-6.334,12.814,12.814,0,0,1,14.856.1,7.8,7.8,0,0,1,2.812,6.17v.194a.606.606,0,0,1-.648.649h-1.94c-.43,0-.642-.152-.642-.455v-.449a5.091,5.091,0,0,0-1.94-4.073,7.728,7.728,0,0,0-5.1-1.612,7.576,7.576,0,0,0-4.976,1.546,5.037,5.037,0,0,0-1.873,4.073,4.412,4.412,0,0,0,.97,2.909,7.413,7.413,0,0,0,2.424,1.873,38.61,38.61,0,0,0,4.037,1.612,47.634,47.634,0,0,1,5.134,2.067,9.819,9.819,0,0,1,3.394,2.776,7.218,7.218,0,0,1,1.418,4.588,8.073,8.073,0,0,1-2.806,6.382,11.132,11.132,0,0,1-7.528,2.424A11.8,11.8,0,0,1,561.729,179.15Z" transform="translate(-220.111 -58.45)" fill="#fff"/>
      <path id="Path_79" data-name="Path 79" d="M761.785,179.958,693.04,215.27l3.224-72.072L774.98,111.05Z" transform="translate(-272.98 -43.742)" fill="#fff"/>
      <path id="Path_80" data-name="Path 80" d="M719.819,67.308,641.1,99.456,553,16.51,618.678,0Z" transform="translate(-217.819)" fill="#fff" opacity="0.9"/>
    </g>
  </g>
</svg>
