<svg xmlns="http://www.w3.org/2000/svg" xmlns:xlink="http://www.w3.org/1999/xlink" width="502" height="60" viewBox="0 0 502 60">
  <defs>
    <clipPath id="clip-Didimo_logo_White_Flat">
      <rect width="502" height="60"/>
    </clipPath>
  </defs>
  <g id="Didimo_logo_White_Flat" clip-path="url(#clip-Didimo_logo_White_Flat)">
    <path id="Path_108" data-name="Path 108" d="M0,54.806a3.29,3.29,0,0,1,2.916-3.229A21.556,21.556,0,0,0,21.521,30.251,21.555,21.555,0,0,0,2.916,8.926a3.251,3.251,0,1,1,.8-6.45,28.066,28.066,0,0,1,24.3,27.776,28.064,28.064,0,0,1-24.3,27.775A3.264,3.264,0,0,1,0,54.806Z" transform="translate(0 -1.376)" fill="#fff"/>
    <path id="Path_109" data-name="Path 109" d="M444.117,54.806a3.291,3.291,0,0,1,2.917-3.229,21.525,21.525,0,0,0,0-42.652,3.25,3.25,0,1,1,.8-6.45,28.023,28.023,0,0,1,0,55.551A3.265,3.265,0,0,1,444.117,54.806Z" transform="translate(-278.887 -1.376)" fill="#fff"/>
    <path id="Path_110" data-name="Path 110" d="M698.35,58.892a3.249,3.249,0,0,1-3.249-3.248V5.7a3.249,3.249,0,0,1,6.5,0v49.95A3.249,3.249,0,0,1,698.35,58.892Z" transform="translate(-436.494 -1.376)" fill="#fff"/>
    <path id="Path_111" data-name="Path 111" d="M254.233,58.892a3.248,3.248,0,0,1-3.249-3.248V5.7a3.248,3.248,0,1,1,6.5,0v49.95A3.248,3.248,0,0,1,254.233,58.892Z" transform="translate(-157.607 -1.376)" fill="#fff"/>
    <path id="Path_112" data-name="Path 112" d="M914.159,18.741l-20.383-16.3a5.538,5.538,0,0,0-5.537,5.539V55.643a3.248,3.248,0,0,0,6.5,0V11.533L907.66,21.866A4,4,0,0,0,914.159,18.741Z" transform="translate(-557.776 -1.376)" fill="#fff"/>
    <path id="Path_113" data-name="Path 113" d="M992.663,2.446l-20.383,16.3a4,4,0,0,0,6.5,3.125L991.7,11.533v44.11a3.248,3.248,0,0,0,6.5,0V7.985A5.538,5.538,0,0,0,992.663,2.446Z" transform="translate(-610.551 -1.376)" fill="#fff"/>
    <path id="Path_114" data-name="Path 114" d="M1284.3,5.7a3.243,3.243,0,0,0,2.333,3.1,21.5,21.5,0,0,1,0,41.2,3.243,3.243,0,1,0,1.839,6.221,27.98,27.98,0,0,0,0-53.644A3.251,3.251,0,0,0,1284.3,5.7Z" transform="translate(-806.487 -1.377)" fill="#fff"/>
    <path id="Path_115" data-name="Path 115" d="M1219.961,53.109a3.244,3.244,0,0,0-2.336-3.1,21.5,21.5,0,0,1,0-41.2,3.242,3.242,0,1,0-1.837-6.219,27.979,27.979,0,0,0,0,53.644A3.255,3.255,0,0,0,1219.961,53.109Z" transform="translate(-750.894 -1.377)" fill="#fff"/>
  </g>
</svg>
