<svg xmlns="http://www.w3.org/2000/svg" xmlns:xlink="http://www.w3.org/1999/xlink" width="502" height="850" viewBox="0 0 502 850">
  <defs>
    <clipPath id="clip-GameLogo">
      <rect width="502" height="850"/>
    </clipPath>
  </defs>
  <g id="GameLogo" clip-path="url(#clip-GameLogo)">
    <path id="GameLogo-2" data-name="GameLogo" d="M237.034,564.127,21.48,440.273A42.793,42.793,0,0,1,.007,403.186V306.141l237.032,136.2ZM104.825,199.005l132.209-76.231V1.033L21.325,126.162A42.816,42.816,0,0,0,.006,163.187v93.828a30.933,30.933,0,0,0,15.269,26.679l89.493,52.579Zm160.153-76.184L502,259.008V161.964a42.8,42.8,0,0,0-21.479-37.113L264.984,1.03Zm132.2,243.311-132.2,76.254V564.127L480.687,439a42.816,42.816,0,0,0,21.319-37.024V308.146a30.933,30.933,0,0,0-15.269-26.679l-89.493-52.579ZM76.43,822.145h28.935a7.414,7.414,0,0,0,7.445-7.445V803.124a7.414,7.414,0,0,0-7.445-7.438H87.973v-6.646h23.981v-9.922H83.874a7.407,7.407,0,0,0-7.445,7.438v11.576a7.414,7.414,0,0,0,7.445,7.445h17.36v6.615H76.43ZM159.4,779.15H145.543L130.5,798.078V760.13H118.922v62.015H130.5V803.209l15.372,18.936h14.394l-18.2-21.917Zm29.183,0L177.42,808l-11.49-28.438-8.354,10.171,13.563,32.242-7.663,17.53h7.111a7.166,7.166,0,0,0,6.948-4.713l5.287-12.647,18.2-42.995Zm17.4,42.995h11.576V760.13H205.983Zm23.555-49.2a6.615,6.615,0,1,0-6.615-6.615,6.529,6.529,0,0,0,6.622,6.615Zm-5.784,49.2H235.33V778.319l-7.445,2.562c-2.973.994-4.13,3.307-4.13,6.211Zm18.687,0h11.576V789.483h16.537v32.662h11.576V786.588a7.407,7.407,0,0,0-7.445-7.438H242.473Zm65.99-43.826c-12.569,0-21.66,9.922-21.66,22.328s8.6,22.32,22.988,22.32a20.8,20.8,0,0,0,19.409-13.2H317.522c-1.9,2.647-4.961,3.719-8.354,3.719-6.032,0-9.922-3.385-11.164-8.679h31.916c1.98-16.319-8.191-26.489-21.5-26.489Zm.5,9.51a9.6,9.6,0,0,1,9.922,8.68H298c1.242-5.295,5.132-8.68,10.916-8.68ZM334.8,822.145h28.942a7.414,7.414,0,0,0,7.438-7.445V803.124a7.406,7.406,0,0,0-7.437-7.438H346.363v-6.646h23.981v-9.922H342.233a7.407,7.407,0,0,0-7.445,7.438v11.576a7.414,7.414,0,0,0,7.445,7.445h17.36v6.615H334.75Zm59.384,0h11.576V760.13h-4.138a7.407,7.407,0,0,0-7.437,7.438Zm19.844,0h11.576V760.13H421.47a7.407,7.407,0,0,0-7.438,7.438ZM47.6,620.012h63.863v23.547H57.487V708.23h54v23.547H47.6a16.008,16.008,0,0,1-15.993-15.993V636.007A16.008,16.008,0,0,1,47.6,620.014ZM33.4,720.212m89.281,11.568h25.853V619.986H122.655Zm34.734-87.448h32.522V731.78h25.853V644.332h32.522V620.017h-90.9Zm99.811,87.448h25.845V619.986H257.224Zm52.583-111.794h67.388v24.347H319.659v19.409h48.328v24.316H319.659v19.409h57.536v24.316H309.807a16.008,16.008,0,0,1-15.993-15.993V636.011a16.008,16.008,0,0,1,15.993-15.993Zm-14.23,100.231M413,644.336v19.254h41.411a16.008,16.008,0,0,1,15.993,15.993v36.209a16.008,16.008,0,0,1-15.993,15.993H387.152V707.468h57.381V688.059H403.176a16.008,16.008,0,0,1-15.993-15.993V636.013a16.008,16.008,0,0,1,15.993-15.993h67.24v24.316Z" transform="translate(-0.006 -1.518)" fill="#fff"/>
  </g>
</svg>
