<svg xmlns="http://www.w3.org/2000/svg" xmlns:xlink="http://www.w3.org/1999/xlink" width="502" height="550" viewBox="0 0 502 550">
  <defs>
    <clipPath id="clip-ParadoxLogo">
      <rect width="502" height="550"/>
    </clipPath>
  </defs>
  <g id="ParadoxLogo" clip-path="url(#clip-ParadoxLogo)">
    <path id="ParadoxLogo-2" data-name="ParadoxLogo" d="M34.389,534.512h5.923v21.777H34.389Zm52.21,0h5.743v21.777H85.9l-11.866-15.2h-.06v15.2H68.231V534.512h6.86l11.427,15.2h.06v-15.2Zm39.646,4.148h-8.077v-4.148h22.076v4.148h-8.077v17.629h-5.923V538.66Zm39.825-4.148h20.341v4.148H171.992v4.507h13.7v3.969h-13.7v5.006H186.53v4.148H166.069V534.512Zm47.5,0h15.834c6.043,0,7.04,3.689,7.04,5.923,0,2.652-1.077,4.367-3.53,5.245v.06c2.593.4,2.991,3.689,2.991,5.823,0,1.077.1,3.63,1.137,4.726h-6.461c-.558-1.017-.578-1.895-.578-4.188,0-3.051-1.316-3.809-3.151-3.809H219.5v8h-5.923Zm5.923,9.652h7.837a2.638,2.638,0,0,0,2.832-2.772c0-2.174-1.715-2.712-3.131-2.712H219.5v5.484Zm59.489,7.658h-9.991l-1.775,4.487h-6.382l9.572-21.777h7.139l9.572,21.777h-6.382ZM274,539.218l-3.41,8.635h6.82Zm56.956,3.53c-.558-3.151-3.131-4.706-6.222-4.706-5.6,0-6.8,4.387-6.8,7.359,0,2.951,1.2,7.359,6.8,7.359,2.872,0,5.644-1.376,6.222-4.826H337.4c-.738,6.342-5.943,8.954-12.863,8.954-7.937,0-12.863-3.41-12.863-11.487s4.946-11.507,12.863-11.507c5.245,0,11.926,1.336,12.8,8.854ZM370,538.66h-8.077v-4.148H384v4.148h-8.077v17.629H370V538.66Zm39.825-4.148h5.923v21.777h-5.923Zm31.09,0h6.5l6.322,16.592,6.322-16.592h6.5l-9.692,21.777H450.59Zm50.814,0h20.341v4.148H497.654v4.507h13.7v3.969h-13.7v5.006h14.538v4.148H491.731ZM33.91,467.7H53.773v5.345h.16c3.689-4.268,9.353-6.561,18.467-6.561,13.3,0,25.526,7.3,25.526,23.971S85.7,514.43,72.4,514.43c-8.376,0-14.279-2.054-17.809-6.322h-.16v20.6H33.91ZM65.758,500.63c7.4,0,11.168-4.427,11.168-10.191,0-5.9-3.291-10.171-11.248-10.171-7.877,0-11.248,3.769-11.248,10.171C54.431,496.781,57.8,500.63,65.758,500.63Zm41.062-19.284c1.236-6.162,3.769-9.931,8.874-12.324,5.006-2.293,12.484-3.131,23.313-3.131,20.94,0,29.236,4.687,29.236,18.068v21.678a11.736,11.736,0,0,0,1.895,6.98H149.1a17.4,17.4,0,0,1-.738-4.427c-4.587,4.268-11.567,6.242-22.5,6.242-13.8,0-22.5-3.689-22.5-15.2,0-8.216,5.823-13.461,21.019-14.119l17.33-.818c4.108-.259,5.5-1.236,5.5-3.689,0-2.952-3.689-4.347-9.533-4.347-4.687,0-9.353.738-10.35,5.085ZM147.7,492.174c-3.45.738-9.273,1.236-16.592,1.895-3.769.339-5.584,1.555-5.584,4.427,0,3.131,2.553,5.085,7.638,5.085,6.9,0,14.538-1.715,14.538-9.433Zm31.37-24.47h19.863v8.615h.16c5.345-6.98,12.065-9.852,19.125-9.852a45.3,45.3,0,0,1,6.741.5v18.387a40.7,40.7,0,0,0-10.27-1.635c-7.3,0-15.116,2.373-15.116,12.065v16.832h-20.5Zm53.207,13.641c1.236-6.162,3.769-9.931,8.874-12.324,5.006-2.293,12.484-3.131,23.313-3.131,20.94,0,29.236,4.687,29.236,18.068v21.678a11.736,11.736,0,0,0,1.895,6.98H274.577a17.4,17.4,0,0,1-.738-4.427c-4.607,4.268-11.567,6.242-22.5,6.242-13.8,0-22.5-3.689-22.5-15.2,0-8.216,5.823-13.461,21.019-14.119l17.33-.818c4.108-.259,5.5-1.236,5.5-3.689,0-2.952-3.689-4.347-9.513-4.347-4.687,0-9.353.738-10.35,5.085Zm40.882,10.829c-3.45.738-9.273,1.236-16.592,1.895-3.769.339-5.584,1.555-5.584,4.427,0,3.131,2.553,5.085,7.638,5.085,6.9,0,14.538-1.715,14.538-9.433v-1.974Zm73.07,15.675h-.16c-3.689,4.268-9.353,6.561-18.467,6.561-13.3,0-25.526-7.3-25.526-23.971S314.3,466.468,327.6,466.468c8.376,0,14.279,2.054,17.809,6.322h.16V451.93h20.521v60.685H346.23Zm-11.986-27.581c-7.4,0-11.168,4.427-11.168,10.171,0,5.9,3.291,10.191,11.248,10.191,7.877,0,11.248-3.769,11.248-10.191C345.572,484.137,342.222,480.268,334.245,480.268Zm73.648-14.359c23.153,0,33.244,7.718,33.244,24.23,0,16.592-10.091,24.31-33.244,24.31s-33.244-7.718-33.244-24.31C374.649,473.627,384.74,465.91,407.893,465.91Zm0,35.219c8.3,0,11.746-3.769,11.746-11.008,0-7.06-3.45-10.909-11.746-10.909-8.216,0-11.746,3.849-11.746,10.909C396.147,497.359,399.677,501.128,407.893,501.128Zm36.056,11.487,20.7-23.492-18.965-21.438h25.128l8.137,12.065,8.137-12.065h25.128l-19.3,21.438,21.02,23.492H487.783l-8.874-12.723-8.874,12.723ZM455.4,245.784c-2.433-11.886,9.951-22.2,4.088-34.341-5.8-11.985-34.082-11.407-34.521-25.187-.578-16.114,22.854-7.9,32.666-7.578,0-25.806-10.151-47.842-37.911-30.432-4.667,0-11.008-.937-13.222-5.085-8.316-15.256,17.071-18.527,17.769-30.831.379-7.139-8.336-11.666-11.048-17.47-1.855-3.869-.219-8.795-.219-12.923,0-1.715-2.014-1.795-3.37-2.134-5.245-1.356-10.111,1.655-15.5.518-5.963-1.3-9.253-6.761-14.558-9.233,0,2.194-3.809,5.085-5.065,6.86C370.6,83.371,356.521,102.6,347.946,94.26c-3.35-3.271-2.792-9.034-2.134-13.461,4.946-33.284-7.219-36.914-36.475-41.56-7.1-1.177-25.207-5.464-33.5-2.932,0,5.7,7.219,45.569-5.584,43.475-15.216,0-6.9-39.566-29-44.572-3.63,1.336-8.436,1.895-10.789,5.365-3.131,4.567,3.091,18.487,4.467,23.871,1.655,6.8,1.316,15.914-1.476,21.837V87.36c-24.968,0-22.415-55.361-61.3-28.239,0,14.817,35.278,33.543,23.173,49.817a14.394,14.394,0,0,1-8.934,5.464c-18.925,2.273-26.424-38.549-47.563-34.939a11.7,11.7,0,0,0-8,6.242c-4.986,9.652,18.427,23.712,21.817,33.3,1.855,5.245.219,10.051-.578,15.1-17.809,0-38.748-25.546-55.321-9.333-2.632,2.513-5.464,6-4.447,9.911,1.7,6.761,13.76,5.624,17.43,11.985l.4.8c6.282,14.259-8.176,24.789-8.356,37.731-.14,6.441,4.866,10.091,2.812,17.171-7.1,24.15-30.034-2.792-40.922,7.538-9.832,9.253,1.336,28.5,2.094,39.406.459,7.139-3.43,12.484-3.869,19.464-.439,6.342,4.128,11.108,5.684,16.712,2.114,7.718-.12,16.253,4.148,22.914,12.325,19.085,33.324-32.786,42.677-10.929,7.558,17.689-30.672,16.732-31.609,30.133-.977,13.342,22.276,25.347,31.09,33.942,7.758,7.558,13.9,17.23,14.937,28.1,1,10.829-4.068,21.837-6.84,31.37,3.929,0,6.8,1.7,10.948.5,19.384-5.743,30.771-36.734,27.581-55.859-2.732-16.134-11.547-29.974-12.624-46.825-1.077-16.612,15.116-44.472-.4-56.338-.678-.4-1.376-.818-2.094-1.236,0,1.735-3.689,2.313-5.6,2.373a12.6,12.6,0,0,1-8.4-3.011c-3.35-2.632-5.3-6.661-2.632-10.55,3.749-5.464,14.319-4.407,15.575-11.806,2.692-16.333-31.529-19.544-10.829-39.686,3.829-3.769,9.194-6.721,15.136-6.242,9.592.758,32.746,7.6,31.429,19.9-.618,5.584-5.325,10.809-3.291,17.051,2.074,6.481,11.587,5.724,14.1,11.846,3.39,8.3-3.53,14.438-2.852,22.136.16,1.954,1.017,2.652,2.493,3.809,2.932,2.273,8.555,3.051,10.25,6.82,4.328,9.612-7.3,21.279,8.2,26.464,0-6.82-1.556-16.034,4.447-19.564,0,1.635,3.31,3.909,4.308,5.5,4.886,7.618,6.92,14.8,16.871,17.33.359-14.438-7.817-26.8-7.817-27.2,7.139,0,11.507,9.413,19.6,7.279,7.4-1.994.838-10.211-.877-13.681-4.906-9.852,2.134-17.869-.838-26.962-3.151-9.632-28.957-16.453-36.874-24.23-2.672-2.573-5.484-6.8-4.168-10.829,4.866-15.116,22.695-6.1,35.139-9.672,5.823-1.715,10.231-5.743,14.4-10.29,5.7-6.342,9.712-16.712,6.122-25.347-2.114-5.125-5.843-9.014-4.946-15.475,3.749-27.182,47.723-25.666,66.907-15.795,9.792,5.026,19.085,16.532,13.9,28.279-4.587,10.31-17.011,4.308-25.786,8.137-7.738,3.33-17.869,18.925-20.421,26.284-3.909,11.048,7,19.4,7.738,30.153,1.5,23.492-9.552,45.07-14.219,66.249-.9,3.889,2.553,9.134.479,12.7-3.37,5.723-10.41,3.61-16.054,5.7-4.367,1.615-6.362,5.026-10.171,7.439-8.2,5.065-17.669,7.518-18.746,18.766,5.185,0,8.974-2.792,14.478-3.271.778-.08,1.1.419,1.117,1.077-.02.4-.1.718-.14,1.077-1.276,9.772-8.994,18.048-4.308,28.279,6.92,0,8.555-16.154,20.062-11.946,1.356,0,1.177.08,1.536,1.256,2.353,7.518,3.31,13.96,7.359,20.5,1.117,0,4.687-1.017,4.567-3.889-.3-6.92-1.4-17.39.957-23.313,3.37-8.775,9.433-7.638,7.877-19.524,1.775,0,3.869-3.051,5.823-3.709,14.079-4.926,16.413-13.082,34.3-12.5,4.308.1,8.675.319,12.285,2.094,3.151,0,1.954-4.866.838-8.635-6.262-20.78-14.2-41.321-14.2-65.272h3.35c0,2.672,10.609,17.071,12.644,20.4,2.652,4.248,11.268,24.011,18.886,19.683,3.55-2.094,5.684-26.9,7.758-32.367,7.558-20.341,28.917-24.809,41.441-5.125,11.886,18.606,4.547,57.873-10.649,72.272-5.983,5.564-14.438,5.584-20.162,10.809-5.983,5.444-.618,15.715-1.615,22.874-.917,6.641-5.345,12.9-10.231,17.689-10.929,10.629-25.407,15.4-36.555,25.307-4.746,4.168-5.783,11.088-11.567,13.641-5.684,2.453-12.683-.7-18.606,1.057-4.308,2.732-8.655,5.424-13.042,8.156-8.017,4.168-20.94,11.228-25.227,12.524,0,17.051,40.763,7.977,49.158,3.43,5.943-3.211,7.718-11.048,13.621-13.581,6.262-2.752,11.786,3.669,18.547,1.336,6.282-2.254,12.165-7.319,17.709-11.028,10.689-7.259,22.2-13.362,32.147-21.9,3.39-2.951,8.695-7,10.131-11.028,2.593-7.2-8.815-24.948,11.387-22.017,15.655,2.074,31.23-29.375,34.241-40.543,1.755-8.6,3.45-17.27,5.185-25.905,2.174-5.185,4.288-10.37,6.481-15.6C468.718,254.638,457.271,255.077,455.4,245.784ZM100.8,278.729c-12.544,2.632-21.319-11.766-15.675-21.877,2.353-4.308,6-6.242,10.091-8.635,4.946.439,9.213.9,12.823,3.889C118.526,260.78,113.421,276.036,100.8,278.729Zm83.659-91.357c-1.137.558-3.291-.479-4.547-1-15.914-6.741-9.353-17.031-3.251-28.338C188.864,162.882,191.6,183.882,184.456,187.372ZM206.732,234.1c14.718,7.2,19.8,19.683,19.3,26.005a8.509,8.509,0,0,1-1.4,3.769,12.253,12.253,0,0,1-7.957-.339C204.878,258.786,206.732,246.162,206.732,234.1Zm117.282,52.03c-.618,5.085-2.493,7.339-5.783,10.988-5.7,0-11.008-2.752-12.7-7.837-1.575-4.587-.14-10.37.259-15,1.3-16.453,2.533-35.159,8-49.976,5.464,12.125,3.55,26.3,6.242,40.045C321.382,271.35,324.932,278.21,324.014,286.127Zm80.069-71.594c-7.5,0-14.8.877-22.176-.578-27.92-5.524-3.849-36.854,2.114-49.418C395.389,174.868,408.013,198.161,404.084,214.534ZM530.56,532.578a6.79,6.79,0,1,1-6.8,6.8A6.8,6.8,0,0,1,530.56,532.578Zm5.125,6.781a5.129,5.129,0,1,0-5.125,5.325A5.22,5.22,0,0,0,535.685,539.358Zm-5.544.6H529v3.211h-1.336v-7.6h2.952c1.895,0,2.852.638,2.852,2.194a2.071,2.071,0,0,1-1.954,2.154l2.074,3.271h-1.536Zm.219-1.117c.977,0,1.835-.1,1.835-1.177,0-.9-.957-1.037-1.715-1.037h-1.5v2.214Z" transform="translate(-35.36 -35.21)" fill="#fff"/>
  </g>
</svg>
