<svg xmlns="http://www.w3.org/2000/svg" xmlns:xlink="http://www.w3.org/1999/xlink" width="502" height="180" viewBox="0 0 502 180">
  <defs>
    <clipPath id="clip-SegaLogo">
      <rect width="502" height="180"/>
    </clipPath>
  </defs>
  <g id="SegaLogo" clip-path="url(#clip-SegaLogo)">
    <g id="Group_9" data-name="Group 9">
      <path id="Path_56" data-name="Path 56" d="M456.411,30.451a43.314,43.314,0,0,0-82.454,0L359.616,73.477V2.72H283.191a50.831,50.831,0,0,0-35.419,14.325V2.72H169.047A50.8,50.8,0,0,0,132,18.7V2.72H57.91A57.892,57.892,0,0,0,15.525,99.976H0v67.159H74.092a57.9,57.9,0,0,0,49.482-27.945,50.915,50.915,0,0,0,45.474,27.945h78.724V152.809a50.759,50.759,0,0,0,35.419,14.325H502L456.411,30.451Z" transform="translate(0 0.254)" fill="#fff"/>
      <g id="Group_7" data-name="Group 7" transform="translate(11.582 12.239)">
        <g id="Group_4" data-name="Group 4" transform="translate(0 2.316)">
          <path id="Path_57" data-name="Path 57" d="M69.56,106.126H7.05v19.681H69.576a22,22,0,1,0,0-44H53.361a26.63,26.63,0,0,1,0-53.261h62.526V8.87H53.361a46.311,46.311,0,0,0,0,92.623H69.576a2.316,2.316,0,0,1,0,4.633Z" transform="translate(-7.05 -8.87)" fill="#0082ca"/>
          <path id="Path_58" data-name="Path 58" d="M53.361,43.351h62.526V23.67H53.361a22,22,0,1,0,0,44H69.576a26.63,26.63,0,0,1,0,53.261H7.05v19.681H69.576a46.311,46.311,0,1,0,0-92.623H53.361a2.316,2.316,0,0,1,0-4.633Z" transform="translate(-7.05 0.644)" fill="#0082ca"/>
        </g>
        <g id="Group_5" data-name="Group 5" transform="translate(232.264)">
          <path id="Path_59" data-name="Path 59" d="M178.268,23.67A15.05,15.05,0,0,0,163.22,38.685v62.559a15.046,15.046,0,0,0,15.048,15.048H218.8v-44H187.534V91.979h11.582v4.633H187.534a4.627,4.627,0,0,1-4.633-4.633v-44a4.627,4.627,0,0,1,4.633-4.633h55.577V23.67Z" transform="translate(-138.923 2.96)" fill="#0082ca"/>
          <path id="Path_60" data-name="Path 60" d="M262,117.893h45.72L276.734,25.517a6.27,6.27,0,0,0-5.947-4.337,6.208,6.208,0,0,0-5.9,4.206L224.64,142.207h23.213L262,100.726v17.168Zm8.444-41.941L277.128,95.9H263.641l6.8-19.944Z" transform="translate(-99.44 1.36)" fill="#0082ca"/>
          <path id="Path_61" data-name="Path 61" d="M350.055,30.427a31.726,31.726,0,0,0-60.85-.46L252.635,137.211V58.4H197.058V78.085h35.9v53.261H187.792a19.684,19.684,0,0,1-19.681-19.681V49.106a19.688,19.688,0,0,1,19.681-19.648h64.843V9.776H187.792A39.368,39.368,0,0,0,148.43,49.139v62.526a39.372,39.372,0,0,0,39.379,39.362h80.942L309.46,32.842a10.884,10.884,0,0,1,20.7.115l33,98.389H311v19.681h79.529L350.071,30.41Z" transform="translate(-148.43 -7.46)" fill="#0082ca"/>
        </g>
        <g id="Group_6" data-name="Group 6" transform="translate(118.087 2.316)">
          <path id="Path_62" data-name="Path 62" d="M118.292,130.44a19.684,19.684,0,0,1-19.681-19.681V48.2a19.688,19.688,0,0,1,19.681-19.648h67.159V8.87H118.292A39.368,39.368,0,0,0,78.93,48.232v62.526a39.372,39.372,0,0,0,39.379,39.362h67.143V130.44H118.292Z" transform="translate(-78.93 -8.87)" fill="#0082ca"/>
          <path id="Path_63" data-name="Path 63" d="M113.411,72.961h48.628V53.28H93.73V82.227a15.046,15.046,0,0,0,15.048,15.048h67.159V77.594H118.044a4.624,4.624,0,0,1-4.616-4.633Z" transform="translate(-69.416 19.678)" fill="#0082ca"/>
          <path id="Path_64" data-name="Path 64" d="M162.049,47.984H113.421a4.627,4.627,0,0,1,4.633-4.633h57.893V23.67H108.788A15.05,15.05,0,0,0,93.74,38.685v28.98h68.309Z" transform="translate(-69.41 0.644)" fill="#0082ca"/>
        </g>
      </g>
      <g id="Group_8" data-name="Group 8" transform="translate(458.925)">
        <path id="Path_65" data-name="Path 65" d="M294.776,30.862A15.427,15.427,0,0,0,305.685,4.528a15.427,15.427,0,0,0-21.817,21.817A15.323,15.323,0,0,0,294.776,30.862ZM281.5,15.42a13.274,13.274,0,0,1,26.548,0,13.279,13.279,0,0,1-13.274,13.274A13.293,13.293,0,0,1,281.5,15.4Z" transform="translate(-279.35 -0.01)" fill="#fff"/>
        <path id="Path_66" data-name="Path 66" d="M287.194,14.031v7.261H284.96V4.19h6.358c2.366.033,3.779.033,5.109,1.035a4.728,4.728,0,0,1,1.791,3.959,4.429,4.429,0,0,1-4.041,4.7l4.8,7.409h-2.711l-4.649-7.261h-4.4Zm0-1.889h4.534a8.739,8.739,0,0,0,2.086-.164,2.629,2.629,0,0,0,2.136-2.76,3.022,3.022,0,0,0-1.019-2.4c-.887-.756-2-.723-3.318-.723h-4.4v6.062Z" transform="translate(-275.744 2.677)" fill="#fff"/>
      </g>
    </g>
  </g>
</svg>
