<svg xmlns="http://www.w3.org/2000/svg" xmlns:xlink="http://www.w3.org/1999/xlink" width="502" height="120" viewBox="0 0 502 120">
  <defs>
    <clipPath id="clip-U_Logo_MadeWith_RichBlack_Knockout_RGB">
      <rect width="502" height="120"/>
    </clipPath>
  </defs>
  <g id="U_Logo_MadeWith_RichBlack_Knockout_RGB" clip-path="url(#clip-U_Logo_MadeWith_RichBlack_Knockout_RGB)">
    <path id="Path_81" data-name="Path 81" d="M242.02,58.63V25.2h14.026V59.106c0,5.549,2.854,9.269,9.745,9.269,6.5,0,9.586-3.964,9.586-9.5V25.2H289.4V58.63c0,13.074-7.842,20.99-23.6,20.99C249.948,79.62,242.02,71.851,242.02,58.63Z" transform="translate(53.155 5.535)" fill="#fff"/>
    <path id="Path_82" data-name="Path 82" d="M286.25,35.933h12.44v5.549h.244c3.012-4.354,6.891-6.732,12.513-6.732,8.867,0,14.1,6.342,14.1,15.367V76.5H312.631V52.727c0-4.281-2.134-7.208-6.342-7.208-4.281,0-7.123,3.561-7.123,8.55V76.486H286.25V35.933Z" transform="translate(62.869 7.632)" fill="#fff"/>
    <path id="Path_83" data-name="Path 83" d="M323.91,22.54h12.916V33H323.91Zm0,16.075h12.916V79.167H323.91Z" transform="translate(71.141 4.95)" fill="#fff"/>
    <path id="Path_84" data-name="Path 84" d="M343.8,67.9v-19.4H338.41V38.031H343.8V25.2h12.6V38.031h7.367V48.495H356.4V65.119c0,3.171,1.744,3.964,4.513,3.964,1.11,0,2.378-.085,2.854-.085v9.428a29.742,29.742,0,0,1-7.049.634C349.179,79.059,343.8,76.607,343.8,67.9Z" transform="translate(74.325 5.535)" fill="#fff"/>
    <path id="Path_85" data-name="Path 85" d="M366.591,79.6h4.439c3.805,0,5.305-1.5,5.305-4.281,0-1.744-.793-4.122-2.451-8.391L361.92,35.72h13.623l5.464,17.27c1.268,3.964,2.537,9.342,2.537,9.342h.159s1.11-5.391,2.378-9.342l5.305-17.27H404.3L390.276,76.834c-3.244,9.5-7.135,12.831-15.282,12.831H366.6V79.6Z" transform="translate(79.489 7.845)" fill="#fff"/>
    <path id="Path_86" data-name="Path 86" d="M238.322,82.471V27.49L190.707,0V21.087l18.66,10.769a1.051,1.051,0,0,1,0,1.805L187.195,46.468a2.059,2.059,0,0,1-2.086,0L162.936,33.662a1.046,1.046,0,0,1,0-1.805l18.648-10.769V0L133.97,27.49V82.471l18.258-10.538V50.4a1.05,1.05,0,0,1,1.561-.9L175.962,62.3a2.088,2.088,0,0,1,1.049,1.805V89.7a1.05,1.05,0,0,1-1.561.9l-18.66-10.769L138.531,90.375l47.614,27.49,47.614-27.49L215.5,79.837l-18.66,10.769a1.05,1.05,0,0,1-1.561-.9V64.1A2.087,2.087,0,0,1,196.33,62.3L218.5,49.493a1.045,1.045,0,0,1,1.561.9V71.934Z" transform="translate(29.424)" fill="#ccc"/>
    <path id="Path_87" data-name="Path 87" d="M176.75,112.915l47.614-27.49L206.107,74.887l-18.66,10.769a1.05,1.05,0,0,1-1.561-.9v-25.6a2.087,2.087,0,0,1,1.049-1.805l22.173-12.806a1.045,1.045,0,0,1,1.561.9V66.983l18.258,10.538V22.54L176.75,52.665Z" transform="translate(38.82 4.95)" fill="#a6a6a6"/>
    <path id="Path_88" data-name="Path 88" d="M190.707,0V21.087l18.66,10.769a1.051,1.051,0,0,1,0,1.805L187.195,46.468a2.059,2.059,0,0,1-2.086,0L162.936,33.662a1.046,1.046,0,0,1,0-1.805l18.648-10.769V0L133.97,27.49l52.176,30.125L238.322,27.49Z" transform="translate(29.424)" fill="#fff"/>
    <path id="Path_89" data-name="Path 89" d="M175.46,85.656,156.8,74.887,138.541,85.424l47.614,27.49V52.665L133.98,22.54V77.521l18.258-10.538V45.445a1.05,1.05,0,0,1,1.561-.9l22.173,12.806a2.088,2.088,0,0,1,1.049,1.805v25.6A1.058,1.058,0,0,1,175.46,85.656Z" transform="translate(29.426 4.95)" fill="#ccc"/>
    <g id="Group_10" data-name="Group 10" transform="translate(491.658 43.565)">
      <path id="Path_90" data-name="Path 90" d="M413.06,38.879a5.2,5.2,0,0,0-2.756-2.756,5.232,5.232,0,0,0-4.025,0,5.2,5.2,0,0,0-2.756,2.756,5.232,5.232,0,0,0,0,4.025,5.2,5.2,0,0,0,2.756,2.756,5.232,5.232,0,0,0,4.025,0A5.2,5.2,0,0,0,413.06,42.9a5.232,5.232,0,0,0,0-4.025Zm-1.378,3.988a4,4,0,0,1-1.427,1.427,3.984,3.984,0,0,1-3.952,0,4,4,0,0,1-1.427-1.427,3.984,3.984,0,0,1,0-3.952,4,4,0,0,1,1.427-1.427,3.984,3.984,0,0,1,3.952,0,4,4,0,0,1,1.427,1.427,3.8,3.8,0,0,1,.524,1.976A3.691,3.691,0,0,1,411.682,42.867Z" transform="translate(-403.12 -35.72)" fill="#fff"/>
      <path id="Path_91" data-name="Path 91" d="M409.492,40.363a1.5,1.5,0,0,0,.256-.89,1.436,1.436,0,0,0-.829-1.354,1.47,1.47,0,0,0-.634-.159H405.87v4.769h1.049V41.107h1.037l.842,1.622h1.146l-.988-1.854A1.785,1.785,0,0,0,409.492,40.363Zm-2.573-1.634h1a.84.84,0,0,1,.439.159.646.646,0,0,1,.244.6.8.8,0,0,1-.244.634.709.709,0,0,1-.463.207h-.976Z" transform="translate(-402.516 -35.228)" fill="#fff"/>
    </g>
    <g id="Group_12" data-name="Group 12" transform="translate(0 27.478)">
      <g id="Group_11" data-name="Group 11">
        <path id="Path_92" data-name="Path 92" d="M0,22.53H5.964l6.293,15.38h.268l6.293-15.38h5.964V45.422H20.1V30.531h-.2L13.989,45.313h-3.2L4.879,30.47h-.2V45.422H0Z" transform="translate(0 -22.53)" fill="#fff"/>
        <path id="Path_93" data-name="Path 93" d="M34.693,45.422H29.51L37.4,22.53h6.232l7.879,22.892H46.329l-5.72-17.66h-.183Zm-.317-9H46.609V40.2H34.376Z" transform="translate(6.481 -22.53)" fill="#fff"/>
        <path id="Path_94" data-name="Path 94" d="M64.868,45.422h-8.1V22.53h8.172a12.143,12.143,0,0,1,5.94,1.366,9.3,9.3,0,0,1,3.83,3.927,13.075,13.075,0,0,1,1.342,6.123,13.143,13.143,0,0,1-1.342,6.147,9.408,9.408,0,0,1-3.854,3.952A12.173,12.173,0,0,1,64.868,45.422Zm-3.281-4.147h3.073a7.71,7.71,0,0,0,3.61-.768,4.885,4.885,0,0,0,2.208-2.378,9.939,9.939,0,0,0,.744-4.171,9.857,9.857,0,0,0-.744-4.147,4.861,4.861,0,0,0-2.208-2.366,7.713,7.713,0,0,0-3.61-.756H61.575V41.276Z" transform="translate(12.468 -22.53)" fill="#fff"/>
        <path id="Path_95" data-name="Path 95" d="M82.46,45.422V22.53h15.4v3.988H87.29V31.97h9.781v3.988H87.29v5.464H97.9V45.41H82.46Z" transform="translate(18.111 -22.53)" fill="#fff"/>
        <path id="Path_96" data-name="Path 96" d="M12.4,73.112,5.86,50.22h5.281l3.781,15.9h.2l4.171-15.9h4.525l4.159,15.941h.207L31.96,50.22h5.281L30.7,73.112H26L21.642,58.148h-.183L17.117,73.112H12.4Z" transform="translate(1.287 -16.448)" fill="#fff"/>
        <path id="Path_97" data-name="Path 97" d="M45.49,50.22V73.112H40.66V50.22Z" transform="translate(8.93 -16.448)" fill="#fff"/>
        <path id="Path_98" data-name="Path 98" d="M54.13,54.208V50.22H72.9v3.988h-7v18.9H61.118v-18.9H54.13Z" transform="translate(11.889 -16.448)" fill="#fff"/>
        <path id="Path_99" data-name="Path 99" d="M79.02,73.112V50.22h4.83v9.44h9.806V50.22h4.818V73.112H93.656V63.66H83.85v9.452H79.02Z" transform="translate(17.355 -16.448)" fill="#fff"/>
      </g>
    </g>
  </g>
</svg>
