<svg xmlns="http://www.w3.org/2000/svg" xmlns:xlink="http://www.w3.org/1999/xlink" width="502" height="200" viewBox="0 0 502 200">
  <defs>
    <clipPath id="clip-U_Logo_White_RGB">
      <rect width="502" height="200"/>
    </clipPath>
  </defs>
  <g id="U_Logo_White_RGB" clip-path="url(#clip-U_Logo_White_RGB)">
    <path id="Path_45" data-name="Path 45" d="M152.67,119.384V69.82h20.795v50.269c0,8.227,4.231,13.743,14.448,13.743,9.638,0,14.213-5.877,14.213-14.086V69.838H222.92V119.4c0,19.384-11.627,31.12-34.989,31.12C164.405,150.5,152.67,139,152.67,119.384Z" transform="translate(42.709 -13.279)" fill="#fff"/>
    <path id="Path_46" data-name="Path 46" d="M196.9,81.124h18.444v8.227h.362c4.466-6.455,10.216-9.981,18.552-9.981,13.146,0,20.9,9.4,20.9,22.784v39.112H236.012V106.023c0-6.347-3.164-10.687-9.4-10.687-6.347,0-10.56,5.28-10.56,12.676v33.235H196.9Z" transform="translate(78.457 -6.187)" fill="#fff"/>
    <path id="Path_47" data-name="Path 47" d="M234.56,67.16h19.149V82.675H234.56Zm0,23.832h19.149v60.124H234.56Z" transform="translate(108.895 -15.254)" fill="#fff"/>
    <path id="Path_48" data-name="Path 48" d="M257.042,133.126V104.357H249.05V88.843h7.992V69.82h18.679V88.843h10.922v15.515H275.721V129c0,4.7,2.586,5.877,6.69,5.877,1.646,0,3.526-.127,4.231-.127v13.978a44.1,44.1,0,0,1-10.452.94C265.035,149.689,257.042,146.037,257.042,133.126Z" transform="translate(120.606 -13.279)" fill="#fff"/>
    <path id="Path_49" data-name="Path 49" d="M279.5,145.4h6.582c5.642,0,7.866-2.224,7.866-6.347,0-2.586-1.175-6.112-3.635-12.441L272.57,80.34h20.2l8.1,25.6c1.881,5.877,3.761,13.851,3.761,13.851h.235s1.645-7.992,3.526-13.851l7.866-25.6h19.149L314.611,141.3c-4.81,14.086-10.578,19.023-22.657,19.023H279.514V145.4Z" transform="translate(139.615 -5.466)" fill="#fff"/>
    <path id="Path_50" data-name="Path 50" d="M199.332,166.892V85.377L128.739,44.62V75.884L156.4,91.851a1.559,1.559,0,0,1,0,2.676l-32.874,18.986a3.052,3.052,0,0,1-3.092,0L87.565,94.527a1.551,1.551,0,0,1,0-2.676l27.648-15.967V44.62L44.62,85.377v81.515l27.069-15.623V119.336A1.556,1.556,0,0,1,74,118l32.874,18.986a3.1,3.1,0,0,1,1.555,2.676v37.955a1.556,1.556,0,0,1-2.315,1.338L78.452,162.987,51.383,178.61l70.593,40.757,70.593-40.757L165.5,162.987l-27.666,15.967a1.556,1.556,0,0,1-2.315-1.338V139.66a3.093,3.093,0,0,1,1.555-2.676L169.948,118a1.55,1.55,0,0,1,2.315,1.338v31.933Z" transform="translate(-44.62 -31.994)" fill="#ccc"/>
    <path id="Path_51" data-name="Path 51" d="M87.4,201.15l70.593-40.757-27.069-15.623-27.666,15.967a1.556,1.556,0,0,1-2.315-1.338V121.443a3.093,3.093,0,0,1,1.555-2.676L135.372,99.78a1.55,1.55,0,0,1,2.315,1.338v31.933l27.069,15.623V67.16L87.4,111.823Z" transform="translate(-10.044 -15.254)" fill="#a6a6a6"/>
    <path id="Path_52" data-name="Path 52" d="M128.739,44.62V75.884L156.4,91.851a1.559,1.559,0,0,1,0,2.676l-32.874,18.986a3.052,3.052,0,0,1-3.092,0L87.565,94.527a1.551,1.551,0,0,1,0-2.676l27.648-15.967V44.62L44.62,85.377l77.356,44.663,77.356-44.663Z" transform="translate(-44.62 -31.994)" fill="#fff"/>
    <path id="Path_53" data-name="Path 53" d="M106.128,160.736,78.462,144.769,51.393,160.392l70.593,40.757V111.823L44.63,67.16v81.515L71.7,133.052V101.118a1.556,1.556,0,0,1,2.315-1.338l32.874,18.986a3.1,3.1,0,0,1,1.555,2.676V159.4A1.556,1.556,0,0,1,106.128,160.736Z" transform="translate(-44.612 -15.254)" fill="#ccc"/>
    <g id="Group_3" data-name="Group 3" transform="translate(486.666 74.874)">
      <path id="Path_54" data-name="Path 54" d="M328.5,85.023a7.7,7.7,0,0,0-4.087-4.087,7.757,7.757,0,0,0-5.967,0,7.7,7.7,0,0,0-4.087,4.087,7.758,7.758,0,0,0,0,5.967,7.7,7.7,0,0,0,4.087,4.087,7.757,7.757,0,0,0,5.967,0A7.7,7.7,0,0,0,328.5,90.99a7.757,7.757,0,0,0,0-5.967Zm-2.025,5.913a5.93,5.93,0,0,1-2.116,2.116,5.907,5.907,0,0,1-5.859,0,5.93,5.93,0,0,1-2.116-2.116,5.907,5.907,0,0,1,0-5.859,5.93,5.93,0,0,1,2.116-2.116,5.907,5.907,0,0,1,5.859,0,5.931,5.931,0,0,1,2.116,2.116,5.907,5.907,0,0,1,0,5.859Z" transform="translate(-313.76 -80.34)" fill="#fff"/>
      <path id="Path_55" data-name="Path 55" d="M321.89,86.142a2.231,2.231,0,0,0,.38-1.32,2.129,2.129,0,0,0-1.23-2.007,2.18,2.18,0,0,0-.94-.235h-3.58v7.07h1.555v-2.4h1.537l1.248,2.4h1.7L321.095,86.9A2.647,2.647,0,0,0,321.89,86.142Zm-3.815-2.423h1.483a1.245,1.245,0,0,1,.651.235.958.958,0,0,1,.362.886,1.186,1.186,0,0,1-.362.94,1.051,1.051,0,0,1-.687.307h-1.447Z" transform="translate(-311.529 -78.53)" fill="#fff"/>
    </g>
  </g>
</svg>
