<?xml version="1.0" encoding="UTF-8"?>
<svg id="Layer_1" xmlns="http://www.w3.org/2000/svg" width="200" height="200" version="1.1" viewBox="0 0 200 200">
  <!-- Generator: Adobe Illustrator 29.2.1, SVG Export Plug-In . SVG Version: 2.1.0 Build 116)  -->
  <defs>
    <style>
      .st0 {
        fill: #001626;
      }

      .st1 {
        fill: #fff;
      }

      .st2 {
        fill: #ffc500;
      }
    </style>
  </defs>
  <path id="BG" class="st2" d="M175.5,0H15C6.7,0,0,6.7,0,15v170c0,8.3,6.7,15,15,15h170c8.3,0,15-6.7,15-15V15c0-8.3-6.7-15-15-15h-9.5Z"/>
  <path class="st0" d="M169.2,193.3H31.1c-13.4,0-24.2-10.8-24.2-24.2V30.9c0-13.4,10.8-24.2,24.2-24.2h129.1l33.3,33.3v129.1c0,13.4-10.8,24.2-24.2,24.2h-.1Z"/>
  <g>
    <path class="st2" d="M74.5,157.2v6c0,1.1-.9,2-2,2h-7.3v5.5h-3.1v-15.4h10.4c1.1,0,2,.9,2,2h0ZM71.4,162.4v-4.4h-6.2v4.4h6.2Z"/>
    <path class="st2" d="M92,170.7l-1.2-3.2h-6.5l-1.2,3.2h-3.2l6-15.4h3.5l6,15.4h-3.4ZM85.3,164.7h4.5l-2.2-6.1-2.2,6.1h-.1Z"/>
    <path class="st2" d="M101.1,162.9c0-4.6,3.6-7.9,8.1-7.9s6.9,2,7.8,6h-3.3c-.7-1.9-2.6-3-4.5-3s-4.9,2-4.9,5,2.2,5,4.9,5,3.8-1,4.5-3h3.3c-.8,3.9-4.5,6-7.8,6s-8.1-3.3-8.1-7.9v-.2Z"/>
    <path class="st2" d="M137.8,170.7h-4l-6-7.1v7.1h-3.1v-15.4h3.1v7l5.7-7h3.9l-6.3,7.6,6.6,7.8h.1Z"/>
  </g>
  <g>
    <path class="st2" d="M34.7,37.3c0-4.6,3.6-7.9,8.1-7.9s6.9,2,7.8,5.9h-3.3c-.7-1.9-2.6-3-4.5-3s-4.9,2-4.9,5,2.2,5,4.9,5,3.8-1,4.5-3h3.3c-.8,3.9-4.4,5.9-7.8,5.9s-8.1-3.3-8.1-7.9Z"/>
    <path class="st2" d="M66.5,45l-4.1-5.5h-2.1v5.5h-3.1v-15.4h10.3c1.1,0,2,.9,2,2v5.9c0,1.1-.9,2-2,2h-1.6l4.1,5.5h-3.6,0ZM60.3,32.4v4.4h6.2v-4.4h-6.2Z"/>
    <path class="st2" d="M87.9,32.5h-8.3v3.4h6.9v2.9h-6.9v3.4h8.3v2.9h-9.4c-1.1,0-2-.9-2-2v-11.4c0-1.1.9-2,2-2h9.4v2.9h0Z"/>
    <path class="st2" d="M105.5,45l-1.2-3.2h-6.5l-1.2,3.2h-3.2l5.9-15.4h3.5l5.9,15.4h-3.3,0ZM98.8,39.1h4.5l-2.2-6.1-2.2,6.1h-.1Z"/>
    <path class="st2" d="M124.8,29.6v2.9h-4.7v12.5h-3.1v-12.5h-4.7v-2.9h12.5Z"/>
    <path class="st2" d="M129.4,37.3c0-4.6,3.4-7.9,8.1-7.9s8.1,3.3,8.1,7.9-3.4,7.9-8.1,7.9-8.1-3.3-8.1-7.9ZM142.5,37.3c0-2.9-2.1-5.1-5-5.1s-5,2.1-5,5.1,2.1,5.1,5,5.1,5-2.1,5-5.1Z"/>
    <path class="st2" d="M161.7,45l-4.1-5.5h-2.1v5.5h-3.1v-15.4h10.3c1.1,0,2,.9,2,2v5.9c0,1.1-.9,2-2,2h-1.6l4.1,5.5h-3.6.1ZM155.5,32.4v4.4h6.2v-4.4h-6.2Z"/>
  </g>
  <g>
    <path class="st1" d="M91.4,100c0,17.9-13.6,30.1-32.8,30.1h-22.9v-60.2h22.9c19.2,0,32.8,12.2,32.8,30.1ZM58.7,115.6c9.7,0,16-6.2,16-15.7s-6.3-15.7-16-15.7h-6.9v31.3h6.9Z"/>
    <path class="st1" d="M165.7,93.4c3.5,19.2-8.3,37.5-30.4,37.5s-32.1-12.6-32.1-31,13.9-31,32-31,24.6,6.8,29.4,19.3h-18.9c-2.8-2.8-6.5-4.4-10.5-4.4-8.7,0-15.2,6.2-15.2,16.1s6.9,16.1,15.7,16.1,12.6-3.2,14.3-9.5h-15.2v-13.2h31-.1Z"/>
  </g>
</svg>