<?xml version="1.0" encoding="UTF-8"?>
<svg xmlns="http://www.w3.org/2000/svg" version="1.1" viewBox="0 0 200 200">
  <defs>
    <style>
      .cls-1 {
        fill: #001626;
      }

      .cls-2 {
        fill: #fff;
      }

      .cls-3 {
        fill: #ffc500;
      }
    </style>
  </defs>
  <!-- Generator: Adobe Illustrator 28.6.0, SVG Export Plug-In . SVG Version: 1.2.0 Build 709)  -->
  <g>
    <g id="Layer_1">
      <path id="BG" class="cls-3" d="M175.5,0H15C6.7,0,0,6.7,0,15v170C0,193.3,6.7,200,15,200h170c8.3,0,15-6.7,15-15V15c0-8.3-6.7-15-15-15h-9.5Z"/>
      <path class="cls-1" d="M169.2,193.3H31.1c-13.4,0-24.2-10.8-24.2-24.2V30.9c0-13.4,10.8-24.2,24.2-24.2h129.1l33.3,33.3v129.1c0,13.4-10.8,24.2-24.2,24.2Z"/>
      <g>
        <path class="cls-3" d="M74.5,157.2v6c0,1.1-.9,2-2,2h-7.3v5.5h-3.1v-15.4h10.4c1.1,0,2,.9,2,2ZM71.4,162.4v-4.4h-6.2v4.4h6.2Z"/>
        <path class="cls-3" d="M92,170.7l-1.2-3.2h-6.5l-1.2,3.2h-3.2l6-15.4h3.5l6,15.4h-3.4ZM85.3,164.7h4.5l-2.2-6.1-2.2,6.1Z"/>
        <path class="cls-3" d="M101.1,162.9c0-4.6,3.6-7.9,8.1-7.9s6.9,2,7.8,6h-3.3c-.7-1.9-2.6-3-4.5-3s-4.9,2-4.9,5,2.2,5,4.9,5,3.8-1,4.5-3h3.3c-.8,3.9-4.5,6-7.8,6s-8.1-3.3-8.1-7.9Z"/>
        <path class="cls-3" d="M137.8,170.7h-4l-6-7.1v7.1h-3.1v-15.4h3.1v7l5.7-7h3.9l-6.3,7.6,6.6,7.8Z"/>
      </g>
      <g>
        <path class="cls-2" d="M76.9,69.9h18.6v60.2h-15.2v-35.6l-9.1,19.2h-13.7l-9.1-19.2v35.6h-15.3v-60.2h18.7l12.6,28.2,12.6-28.2Z"/>
        <path class="cls-2" d="M151,69.9h16v60.2h-16v-22.9h-22.3v22.9h-16v-60.2h16v22.9h22.3v-22.9Z"/>
      </g>
      <g>
        <path class="cls-3" d="M34.7,37.3c0-4.6,3.6-7.9,8.1-7.9s6.9,2,7.8,5.9h-3.3c-.7-1.9-2.6-3-4.5-3s-4.9,2-4.9,5,2.2,5,4.9,5,3.8-1,4.5-3h3.3c-.8,3.9-4.4,5.9-7.8,5.9s-8.1-3.3-8.1-7.9Z"/>
        <path class="cls-3" d="M66.5,45l-4.1-5.5h-2.1v5.5h-3.1v-15.4h10.3c1.1,0,2,.9,2,2v5.9c0,1.1-.9,2-2,2h-1.6l4.1,5.5h-3.6ZM60.3,32.4v4.4h6.2v-4.4h-6.2Z"/>
        <path class="cls-3" d="M87.9,32.5h-8.3v3.4h6.9v2.9h-6.9v3.4h8.3v2.9h-9.4c-1.1,0-2-.9-2-2v-11.4c0-1.1.9-2,2-2h9.4v2.9Z"/>
        <path class="cls-3" d="M105.5,45l-1.2-3.2h-6.5l-1.2,3.2h-3.2l5.9-15.4h3.5l5.9,15.4h-3.3ZM98.8,39.1h4.5l-2.2-6.1-2.2,6.1Z"/>
        <path class="cls-3" d="M124.8,29.6v2.9h-4.7v12.5h-3.1v-12.5h-4.7v-2.9h12.4Z"/>
        <path class="cls-3" d="M129.4,37.3c0-4.6,3.4-7.9,8.1-7.9s8.1,3.3,8.1,7.9-3.4,7.9-8.1,7.9-8.1-3.3-8.1-7.9ZM142.5,37.3c0-2.9-2.1-5.1-5-5.1s-5,2.1-5,5.1,2.1,5.1,5,5.1,5-2.1,5-5.1Z"/>
        <path class="cls-3" d="M161.7,45l-4.1-5.5h-2.1v5.5h-3.1v-15.4h10.3c1.1,0,2,.9,2,2v5.9c0,1.1-.9,2-2,2h-1.6l4.1,5.5h-3.6ZM155.5,32.4v4.4h6.2v-4.4h-6.2Z"/>
      </g>
    </g>
  </g>
</svg>