<?xml version="1.0" encoding="UTF-8"?><svg id="a" xmlns="http://www.w3.org/2000/svg" width="200" height="200" viewBox="0 0 200 200"><path id="b" d="m175.46,0H15C6.72,0,0,6.72,0,15v170C0,193.28,6.72,200,15,200h170c8.28,0,15-6.72,15-15V15c0-8.28-6.72-15-15-15h-9.54Z" fill="#ffc500" stroke-width="0"/><path d="m169.2,193.29H31.07c-13.38,0-24.23-10.85-24.23-24.23V30.94c0-13.38,10.85-24.23,24.23-24.23h129.06l33.29,33.29v129.06c0,13.38-10.85,24.23-24.23,24.23Z" fill="#001626" stroke-width="0"/><path d="m74.53,157.2v5.96c0,1.1-.88,1.98-1.98,1.98h-7.28v5.51h-3.09v-15.43h10.36c1.1,0,1.98.88,1.98,1.98Zm-3.09,5.19v-4.41h-6.17v4.41h6.17Z" fill="#ffc500" stroke-width="0"/><path d="m91.95,170.65l-1.19-3.22h-6.53l-1.19,3.22h-3.18l5.95-15.43h3.53l5.95,15.43h-3.35Zm-6.7-5.98h4.5l-2.25-6.08-2.25,6.08Z" fill="#ffc500" stroke-width="0"/><path d="m101.13,162.94c0-4.63,3.57-7.94,8.09-7.94,3.33,0,6.94,2.03,7.78,5.95h-3.27c-.7-1.94-2.58-2.97-4.52-2.97-2.73,0-4.9,2.05-4.9,4.96s2.16,4.96,4.9,4.96c1.94,0,3.81-1.04,4.52-2.98h3.27c-.84,3.93-4.45,5.95-7.78,5.95-4.52,0-8.09-3.31-8.09-7.93Z" fill="#ffc500" stroke-width="0"/><path d="m137.81,170.65h-3.96l-5.96-7.06v7.06h-3.09v-15.43h3.09v7.04l5.73-7.04h3.93l-6.33,7.61,6.59,7.83Z" fill="#ffc500" stroke-width="0"/><path d="m79.48,69.85h18.58v60.2h-15.22v-35.6l-9.12,19.18h-13.67l-9.12-19.18v35.6h-15.31v-60.2h18.66l12.64,28.21,12.56-28.21Z" fill="#fff" stroke-width="0"/><path d="m156.45,130.05l-3.7-10.75h-23.48l-3.7,10.75h-15.65l21.93-60.2h19.01l21.93,60.2h-16.34Zm-22.88-23.48h14.88l-7.4-21.59-7.48,21.59Z" fill="#fff" stroke-width="0"/><path d="m34.66,37.35c0-4.62,3.56-7.92,8.08-7.92,3.32,0,6.93,2.02,7.77,5.94h-3.26c-.7-1.94-2.57-2.97-4.51-2.97-2.73,0-4.88,2.05-4.88,4.95s2.16,4.95,4.88,4.95c1.94,0,3.81-1.03,4.51-2.97h3.26c-.84,3.92-4.44,5.94-7.77,5.94-4.51,0-8.08-3.3-8.08-7.92Z" fill="#ffc500" stroke-width="0"/><path d="m66.49,45.05l-4.14-5.5h-2.07v5.5h-3.08v-15.4h10.34c1.1,0,1.98.88,1.98,1.98v5.94c0,1.1-.88,1.98-1.98,1.98h-1.56l4.14,5.5h-3.63Zm-6.21-12.65v4.4h6.16v-4.4h-6.16Z" fill="#ffc500" stroke-width="0"/><path d="m87.9,32.51h-8.25v3.41h6.93v2.86h-6.93v3.41h8.25v2.86h-9.35c-1.1,0-1.98-.88-1.98-1.98v-11.44c0-1.1.88-1.98,1.98-1.98h9.35v2.86Z" fill="#ffc500" stroke-width="0"/><path d="m105.52,45.05l-1.19-3.21h-6.51l-1.19,3.21h-3.17l5.94-15.4h3.52l5.94,15.4h-3.34Zm-6.69-5.96h4.49l-2.24-6.07-2.24,6.07Z" fill="#ffc500" stroke-width="0"/><path d="m124.75,29.65v2.86h-4.66v12.54h-3.08v-12.54h-4.66v-2.86h12.41Z" fill="#ffc500" stroke-width="0"/><path d="m129.44,37.35c0-4.6,3.41-7.92,8.14-7.92s8.14,3.32,8.14,7.92-3.41,7.92-8.14,7.92-8.14-3.32-8.14-7.92Zm13.09,0c0-2.93-2.09-5.06-4.95-5.06s-4.95,2.13-4.95,5.06,2.09,5.06,4.95,5.06,4.95-2.13,4.95-5.06Z" fill="#ffc500" stroke-width="0"/><path d="m161.71,45.05l-4.14-5.5h-2.07v5.5h-3.08v-15.4h10.34c1.1,0,1.98.88,1.98,1.98v5.94c0,1.1-.88,1.98-1.98,1.98h-1.56l4.14,5.5h-3.63Zm-6.2-12.65v4.4h6.16v-4.4h-6.16Z" fill="#ffc500" stroke-width="0"/></svg>