<?xml version="1.0" encoding="UTF-8"?>
<svg id="Camada_1" xmlns="http://www.w3.org/2000/svg" version="1.1" viewBox="0 0 64.1 64.1">
  <!-- Generator: Adobe Illustrator 29.1.0, SVG Export Plug-In . SVG Version: 2.1.0 Build 142)  -->
  <defs>
    <style>
      .st0, .st1, .st2, .st3, .st4, .st5 {
        fill-rule: evenodd;
      }

      .st0, .st6 {
        fill: #c2bdbd;
      }

      .st7 {
        fill: #434343;
      }

      .st1 {
        fill: #ababab;
      }

      .st2 {
        fill: #bdbdbd;
      }

      .st8 {
        fill: #929191;
      }

      .st3 {
        fill: #707070;
      }

      .st9 {
        fill: #b0acac;
      }

      .st4 {
        fill: #525252;
      }

      .st10 {
        fill: #d4d4d4;
      }

      .st11 {
        fill: #716e6e;
      }

      .st5 {
        fill: #909090;
      }
    </style>
  </defs>
  <g id="a1">
    <path class="st7" d="M3.8,28.8l29.6,25.4,27-16.2v-2.5l-8.6.6L3.8,26.7v2.1Z"/>
    <path class="st10" d="M4.3,26.6l34.1,22.4,13.9-8.2L23.5,15,4.3,26.6Z"/>
    <path class="st8" d="M3.8,26.7l29.9,25.1,10.9-6.4L14.5,20.3l-10.8,6.5.1-.1Z"/>
    <path class="st8" d="M15.8,19.6l29.9,25.1,7.5-4.4L26.5,13.1l-10.8,6.5h.1Z"/>
    <path class="st11" d="M3.8,26.7l29.8,25.1,2.9-1.7L6.7,25s-2.9,1.7-2.9,1.7Z"/>
    <path class="st9" d="M23.2,14.1l30,25.1,7.2-3.8L30.2,10l-7,4.1Z"/>
    <path class="st10" d="M53.2,40.3L23.1,15.2v-1.1l30.1,25.1v1.1Z"/>
  </g>
  <g id="grey1">
    <path class="st0" d="M24.4,35.2v4.9c0,.2,0,.4-.3.6-.1,0-.3.1-.5.1v-5.1l.8-.5Z"/>
    <path class="st4" d="M22.8,40.6c-.1,0-.2-.1-.3-.2-.3-.2-.4-.5-.4-.7v-4.6l.7-.4s0,5.9,0,5.9Z"/>
    <path class="st3" d="M23.7,40.8c-.2,0-.6,0-.9-.2v-5.5l.8-.5v6.2h.1Z"/>
    <path class="st5" d="M23.6,34.413l.8-.5v1.287l-.8.5v-1.287Z"/>
    <path class="st4" d="M23.6,35.7l-.4.2h-.5v-1.087l.9-.5v1.387Z"/>
    <path class="st0" d="M46.2,21.5l-.4.2h0l1.3-.9h0c0,.1-.8.6-.8.6l-.1.1ZM47.1,22.1v4.9c0,.2,0,.4-.3.6-.1,0-.3.1-.5.1v-5.1l.8-.5Z"/>
    <path class="st4" d="M45.5,27.5c-.1,0-.2-.1-.3-.2-.3-.2-.4-.5-.4-.7v-4.6l.7-.4v5.9Z"/>
    <path class="st3" d="M46.4,27.7c-.2,0-.6,0-.9-.2v-5.5l.8-.5v6.2h.1Z"/>
    <path class="st5" d="M46.3,21.145l.8-.5v1.455l-.8.5v-1.455Z"/>
    <path class="st4" d="M46.3,22.6l-.4.2h-.5v-1.2l.9-.5s0,1.5,0,1.5Z"/>
    <path class="st6" d="M49.7,18.3l-30.3,17.4-3-2.5v1.1l3.1,2.6,30.2-17.4s0-1.2,0-1.2Z"/>
    <path class="st8" d="M46.5,15.8l-30.1,17.4,3.1,2.6,30.2-17.5-3.2-2.5h0Z"/>
    <path class="st1" d="M46.5,14.2v1.6l-30.1,17.4v-1.6s30.1-17.4,30.1-17.4Z"/>
    <path class="st2" d="M49.7,16.7v1.6l-30.2,17.5v-1.6s30.2-17.5,30.2-17.5Z"/>
  </g>
</svg>