<svg xmlns="http://www.w3.org/2000/svg" xmlns:xlink="http://www.w3.org/1999/xlink" width="32" height="32" viewBox="0 0 32 32"><defs><clipPath id="b"><rect width="32" height="32"/></clipPath></defs><g id="a"><g transform="translate(3 3)" fill="none" stroke="#fff" stroke-width="1"><rect width="8" height="8" stroke="none"/><rect x="0.5" y="0.5" width="7" height="7" fill="none"/></g><g transform="translate(3 12)" fill="none" stroke="#fff" stroke-width="1"><rect width="8" height="8" stroke="none"/><rect x="0.5" y="0.5" width="7" height="7" fill="none"/></g><g transform="translate(3 21)" fill="none" stroke="#fff" stroke-width="1"><rect width="8" height="8" stroke="none"/><rect x="0.5" y="0.5" width="7" height="7" fill="none"/></g><g transform="translate(12 3)" fill="none" stroke="#fff" stroke-width="1"><rect width="8" height="8" stroke="none"/><rect x="0.5" y="0.5" width="7" height="7" fill="none"/></g><g transform="translate(12 12)" fill="none" stroke="#fff" stroke-width="1"><rect width="8" height="8" stroke="none"/><rect x="0.5" y="0.5" width="7" height="7" fill="none"/></g><g transform="translate(12 21)" fill="none" stroke="#fff" stroke-width="1"><rect width="8" height="8" stroke="none"/><rect x="0.5" y="0.5" width="7" height="7" fill="none"/></g><g transform="translate(21 3)" fill="none" stroke="#fff" stroke-width="1"><rect width="8" height="8" stroke="none"/><rect x="0.5" y="0.5" width="7" height="7" fill="none"/></g><g transform="translate(21 12)" fill="none" stroke="#fff" stroke-width="1"><rect width="8" height="8" stroke="none"/><rect x="0.5" y="0.5" width="7" height="7" fill="none"/></g><g transform="translate(21 21)" fill="none" stroke="#fff" stroke-width="1"><rect width="8" height="8" stroke="none"/><rect x="0.5" y="0.5" width="7" height="7" fill="none"/></g></g></svg>