<svg xmlns="http://www.w3.org/2000/svg" xmlns:xlink="http://www.w3.org/1999/xlink" width="32" height="32" viewBox="0 0 32 32"><defs><clipPath id="b"><rect width="32" height="32"/></clipPath></defs><g id="a"><path d="M15.208,6.75A6.669,6.669,0,0,0,10.33,9.4,6.669,6.669,0,0,0,5.452,6.75a5.393,5.393,0,1,0,0,10.786,6.669,6.669,0,0,0,4.878-2.649,6.669,6.669,0,0,0,4.878,2.649,5.393,5.393,0,1,0,0-10.786ZM5.452,14.3A2.264,2.264,0,0,1,3.1,12.143,2.264,2.264,0,0,1,5.452,9.986c1.233,0,2.369,1.217,3.034,2.157C7.828,13.073,6.682,14.3,5.452,14.3Zm9.755,0c-1.233,0-2.369-1.217-3.034-2.157.659-.93,1.8-2.157,3.034-2.157a2.264,2.264,0,0,1,2.353,2.157A2.264,2.264,0,0,1,15.208,14.3Z" transform="translate(6 3.964)" fill="#fff"/></g></svg>