<svg xmlns="http://www.w3.org/2000/svg" xmlns:xlink="http://www.w3.org/1999/xlink" width="32" height="32" viewBox="0 0 32 32"><defs><clipPath id="b"><rect width="32" height="32"/></clipPath></defs><g id="a"><path d="M-743-502.624V-517l12.006,5.991v14.387Zm2.174-2.157,7.657,3.809v-7.881l-7.657-3.687Z" transform="translate(747 526.185)" fill="#fff"/><path d="M-730.995-502.624V-517L-743-511.009v14.387Zm-2.174-2.157-7.657,3.809v-7.881l7.657-3.687Z" transform="translate(759 526.185)" fill="#fff"/><path d="M-730.995-502.624l-6.654-8.313-11.333,3.721L-743-496.622Zm-2.763-.521-7.852,3.564-4.56-7.126,7.8-2.646Z" transform="translate(759 512.185)" fill="#fff"/><path d="M1109,797.185l6.054-4.258,5.882,10.38Z" transform="translate(-1105 -788)" fill="#fff"/></g></svg>