<svg xmlns="http://www.w3.org/2000/svg" xml:space="preserve" fill-rule="evenodd" stroke-linejoin="round" stroke-miterlimit="2" clip-rule="evenodd" viewBox="0 0 64 64">
  <g id="grey">
    <path fill="#444" d="M22.746 25.109c5.771-3.332 14.614-2.549 19.734 1.748 5.121 4.296 4.592 10.49-1.179 13.822-5.772 3.332-14.615 2.549-19.735-1.747-5.12-4.296-4.592-10.49 1.18-13.823Z"/>
    <path fill="#ebebeb" d="M22.699 23.321c5.772-3.332 14.615-2.549 19.735 1.747 5.12 4.297 4.592 10.49-1.18 13.822-5.771 3.333-14.614 2.55-19.734-1.747-5.121-4.296-4.592-10.49 1.179-13.822Z"/>
    <path fill="#838383" d="M24.309 24.509c4.785-2.762 12.115-2.113 16.359 1.448 4.245 3.562 3.807 8.696-.977 11.458-4.785 2.763-12.115 2.114-16.359-1.448-4.245-3.561-3.807-8.696.977-11.458Z"/>
  </g>
</svg>
